<?xml version="1.0" encoding="UTF-8" standalone="no"?>
<!DOCTYPE svg PUBLIC "-//W3C//DTD SVG 1.1//EN"
 "http://www.w3.org/Graphics/SVG/1.1/DTD/svg11.dtd">
<!-- Generated by graphviz version 2.43.0 (0)
 -->
<!-- Title: client/lib/core/aio/aio_internal.h Pages: 1 -->
<!--zoomable 467 -->

<svg id="main" version="1.1" xmlns="http://www.w3.org/2000/svg" xmlns:xlink="http://www.w3.org/1999/xlink" xml:space="preserve" onload="init(evt)">
<style type="text/css"><![CDATA[
.node, .edge {opacity: 0.7;}
.node.selected, .edge.selected {opacity: 1;}
.edge:hover path { stroke: red; }
.edge:hover polygon { stroke: red; fill: red; }
]]></style>

<defs>
  <circle id="rim" cx="0" cy="0" r="7"/>
  <circle id="rim2" cx="0" cy="0" r="3.5"/>
  <g id="zoomPlus">
    <use xlink:href="#rim" fill="#404040"><set attributeName="fill" to="#808080" begin="zoomplus.mouseover" end="zoomplus.mouseout"/></use>
    <path d="M-4,0h8M0,-4v8" fill="none" stroke="white" stroke-width="1.5" pointer-events="none"/>
  </g>
  <g id="zoomMin">
    <use xlink:href="#rim" fill="#404040"><set attributeName="fill" to="#808080" begin="zoomminus.mouseover" end="zoomminus.mouseout"/></use>
    <path d="M-4,0h8" fill="none" stroke="white" stroke-width="1.5" pointer-events="none"/>
  </g>
  <g id="arrowUp" transform="translate(30 24)">
    <use xlink:href="#rim"/>
    <path pointer-events="none" fill="none" stroke="white" stroke-width="1.5" d="M0,-3.0v7 M-2.5,-0.5L0,-3.0L2.5,-0.5"/>
  </g>
  <g id="arrowRight" transform="rotate(90) translate(36 -43)">
    <use xlink:href="#rim"/>
    <path pointer-events="none" fill="none" stroke="white" stroke-width="1.5" d="M0,-3.0v7 M-2.5,-0.5L0,-3.0L2.5,-0.5"/>
  </g>
  <g id="arrowDown" transform="rotate(180) translate(-30 -48)">
    <use xlink:href="#rim"/>
    <path pointer-events="none" fill="none" stroke="white" stroke-width="1.5" d="M0,-3.0v7 M-2.5,-0.5L0,-3.0L2.5,-0.5"/>
  </g>
  <g id="arrowLeft" transform="rotate(270) translate(-36 17)">
    <use xlink:href="#rim"/>
    <path pointer-events="none" fill="none" stroke="white" stroke-width="1.5" d="M0,-3.0v7 M-2.5,-0.5L0,-3.0L2.5,-0.5"/>
  </g>
  <g id="resetDef">
    <use xlink:href="#rim2" fill="#404040"><set attributeName="fill" to="#808080" begin="reset.mouseover" end="reset.mouseout"/></use>
  </g>
</defs>
<script type="application/ecmascript">
var viewWidth = 2115;
var viewHeight = 467;
var sectionId = 'dynsection-0';
</script>
<script type="application/ecmascript" xlink:href="svg.min.js"/>
<svg id="graph" class="graph">
<g id="viewport">
<title>client/lib/core/aio/aio_internal.h</title>
<!-- Node1 -->
<g id="Node000001" class="node">
<title>Node1</title>
<g id="a_Node000001"><a xlink:title=" ">
<polygon fill="#999999" stroke="#666666" points="1499.5,-459 1398.5,-459 1398.5,-429 1499.5,-429 1499.5,-459"/>
<text text-anchor="start" x="1406.5" y="-447" font-family="Helvetica,sans-Serif" font-size="10.00">client/lib/core/aio</text>
<text text-anchor="middle" x="1449" y="-436" font-family="Helvetica,sans-Serif" font-size="10.00">/aio_internal.h</text>
</a>
</g>
</g>
<!-- Node2 -->
<g id="Node000002" class="node">
<title>Node2</title>
<g id="a_Node000002"><a xlink:href="client_2lib_2core_2aio_2aio_8h.html" target="_top" xlink:title=" ">
<polygon fill="white" stroke="#666666" points="774.5,-387.5 733.5,-387.5 733.5,-368.5 774.5,-368.5 774.5,-387.5"/>
<text text-anchor="middle" x="754" y="-375.5" font-family="Helvetica,sans-Serif" font-size="10.00">aio.h</text>
</a>
</g>
</g>
<!-- Node1&#45;&gt;Node2 -->
<g id="edge1_Node000001_Node000002" class="edge">
<title>Node1&#45;&gt;Node2</title>
<g id="a_edge1_Node000001_Node000002"><a xlink:title=" ">
<path fill="none" stroke="#63b8ff" d="M1398.16,-438.98C1298.37,-430.99 1069.84,-412.23 878,-393 846.12,-389.81 809.7,-385.63 784.62,-382.67"/>
<polygon fill="#63b8ff" stroke="#63b8ff" points="784.95,-379.19 774.61,-381.49 784.13,-386.14 784.95,-379.19"/>
</a>
</g>
</g>
<!-- Node7 -->
<g id="Node000007" class="node">
<title>Node7</title>
<g id="a_Node000007"><a xlink:href="time_8h.html" target="_top" xlink:title=" ">
<polygon fill="white" stroke="#666666" points="894,-266.5 846,-266.5 846,-247.5 894,-247.5 894,-266.5"/>
<text text-anchor="middle" x="870" y="-254.5" font-family="Helvetica,sans-Serif" font-size="10.00">time.h</text>
</a>
</g>
</g>
<!-- Node1&#45;&gt;Node7 -->
<g id="edge49_Node000001_Node000007" class="edge">
<title>Node1&#45;&gt;Node7</title>
<g id="a_edge49_Node000001_Node000007"><a xlink:title=" ">
<path fill="none" stroke="#63b8ff" d="M1398.25,-441.17C1273.72,-436.26 960.46,-421.22 923,-393 885.73,-364.92 874.65,-306.75 871.37,-276.77"/>
<polygon fill="#63b8ff" stroke="#63b8ff" points="874.85,-276.42 870.45,-266.78 867.88,-277.06 874.85,-276.42"/>
</a>
</g>
</g>
<!-- Node22 -->
<g id="Node000022" class="node">
<title>Node22</title>
<g id="a_Node000022"><a xlink:href="client_2lib_2core_2aio_2uring_8h.html" target="_top" xlink:title=" ">
<polygon fill="white" stroke="#666666" points="982,-387.5 932,-387.5 932,-368.5 982,-368.5 982,-387.5"/>
<text text-anchor="middle" x="957" y="-375.5" font-family="Helvetica,sans-Serif" font-size="10.00">uring.h</text>
</a>
</g>
</g>
<!-- Node1&#45;&gt;Node22 -->
<g id="edge30_Node000001_Node000022" class="edge">
<title>Node1&#45;&gt;Node22</title>
<g id="a_edge30_Node000001_Node000022"><a xlink:title=" ">
<path fill="none" stroke="#63b8ff" d="M1398.17,-441.92C1312.96,-439.12 1136.42,-429.07 992,-393 989.7,-392.42 987.34,-391.73 985,-390.96"/>
<polygon fill="#63b8ff" stroke="#63b8ff" points="986.17,-387.67 975.58,-387.52 983.77,-394.24 986.17,-387.67"/>
</a>
</g>
</g>
<!-- Node23 -->
<g id="Node000023" class="node">
<title>Node23</title>
<g id="a_Node000023"><a xlink:href="frame__hdr_8h.html" target="_top" xlink:title=" ">
<polygon fill="white" stroke="#666666" points="1127.5,-393 1000.5,-393 1000.5,-363 1127.5,-363 1127.5,-393"/>
<text text-anchor="start" x="1008.5" y="-381" font-family="Helvetica,sans-Serif" font-size="10.00">protocols/root/protocol</text>
<text text-anchor="middle" x="1064" y="-370" font-family="Helvetica,sans-Serif" font-size="10.00">/frame_hdr.h</text>
</a>
</g>
</g>
<!-- Node1&#45;&gt;Node23 -->
<g id="edge35_Node000001_Node000023" class="edge">
<title>Node1&#45;&gt;Node23</title>
<g id="a_edge35_Node000001_Node000023"><a xlink:title=" ">
<path fill="none" stroke="#63b8ff" d="M1398.44,-435.02C1337.55,-425.36 1232.22,-408.44 1142,-393 1140.7,-392.78 1139.39,-392.55 1138.08,-392.33"/>
<polygon fill="#63b8ff" stroke="#63b8ff" points="1138.29,-388.81 1127.84,-390.54 1137.09,-395.71 1138.29,-388.81"/>
</a>
</g>
</g>
<!-- Node24 -->
<g id="Node000024" class="node">
<title>Node24</title>
<g id="a_Node000024"><a xlink:title=" ">
<polygon fill="#e0e0e0" stroke="#999999" points="1173.5,-327 1120.5,-327 1120.5,-308 1173.5,-308 1173.5,-327"/>
<text text-anchor="middle" x="1147" y="-315" font-family="Helvetica,sans-Serif" font-size="10.00">string.h</text>
</a>
</g>
</g>
<!-- Node1&#45;&gt;Node24 -->
<g id="edge47_Node000001_Node000024" class="edge">
<title>Node1&#45;&gt;Node24</title>
<g id="a_edge47_Node000001_Node000024"><a xlink:title=" ">
<path fill="none" stroke="#63b8ff" d="M1398.22,-443.15C1345.32,-441.05 1261.96,-431.2 1202,-393 1180.24,-379.13 1164.15,-353.37 1155.17,-336.08"/>
<polygon fill="#63b8ff" stroke="#63b8ff" points="1158.27,-334.46 1150.71,-327.03 1151.99,-337.55 1158.27,-334.46"/>
</a>
</g>
</g>
<!-- Node25 -->
<g id="Node000025" class="node">
<title>Node25</title>
<g id="a_Node000025"><a xlink:title=" ">
<polygon fill="#e0e0e0" stroke="#999999" points="1260.5,-327 1191.5,-327 1191.5,-308 1260.5,-308 1260.5,-327"/>
<text text-anchor="middle" x="1226" y="-315" font-family="Helvetica,sans-Serif" font-size="10.00">arpa/inet.h</text>
</a>
</g>
</g>
<!-- Node1&#45;&gt;Node25 -->
<g id="edge50_Node000001_Node000025" class="edge">
<title>Node1&#45;&gt;Node25</title>
<g id="a_edge50_Node000001_Node000025"><a xlink:title=" ">
<path fill="none" stroke="#63b8ff" d="M1398.34,-439.51C1336.33,-434.06 1236.74,-421.08 1214,-393 1201.17,-377.15 1208.38,-353.02 1216,-336.55"/>
<polygon fill="#63b8ff" stroke="#63b8ff" points="1219.23,-337.93 1220.63,-327.43 1212.99,-334.76 1219.23,-337.93"/>
</a>
</g>
</g>
<!-- Node26 -->
<g id="Node000026" class="node">
<title>Node26</title>
<g id="a_Node000026"><a xlink:title=" ">
<polygon fill="#e0e0e0" stroke="#999999" points="1291.5,-387.5 1222.5,-387.5 1222.5,-368.5 1291.5,-368.5 1291.5,-387.5"/>
<text text-anchor="middle" x="1257" y="-375.5" font-family="Helvetica,sans-Serif" font-size="10.00">sys/epoll.h</text>
</a>
</g>
</g>
<!-- Node1&#45;&gt;Node26 -->
<g id="edge40_Node000001_Node000026" class="edge">
<title>Node1&#45;&gt;Node26</title>
<g id="a_edge40_Node000001_Node000026"><a xlink:title=" ">
<path fill="none" stroke="#63b8ff" d="M1406.86,-428.95C1372.45,-417.48 1324.38,-401.46 1292.05,-390.68"/>
<polygon fill="#63b8ff" stroke="#63b8ff" points="1293.15,-387.36 1282.55,-387.52 1290.93,-394 1293.15,-387.36"/>
</a>
</g>
</g>
<!-- Node27 -->
<g id="Node000027" class="node">
<title>Node27</title>
<g id="a_Node000027"><a xlink:title=" ">
<polygon fill="#e0e0e0" stroke="#999999" points="1392.5,-387.5 1309.5,-387.5 1309.5,-368.5 1392.5,-368.5 1392.5,-387.5"/>
<text text-anchor="middle" x="1351" y="-375.5" font-family="Helvetica,sans-Serif" font-size="10.00">sys/eventfd.h</text>
</a>
</g>
</g>
<!-- Node1&#45;&gt;Node27 -->
<g id="edge41_Node000001_Node000027" class="edge">
<title>Node1&#45;&gt;Node27</title>
<g id="a_edge41_Node000001_Node000027"><a xlink:title=" ">
<path fill="none" stroke="#63b8ff" d="M1427.25,-428.8C1411.13,-418.27 1389.24,-403.97 1373.05,-393.4"/>
<polygon fill="#63b8ff" stroke="#63b8ff" points="1374.54,-390.2 1364.26,-387.66 1370.72,-396.06 1374.54,-390.2"/>
</a>
</g>
</g>
<!-- Node28 -->
<g id="Node000028" class="node">
<title>Node28</title>
<g id="a_Node000028"><a xlink:title=" ">
<polygon fill="#e0e0e0" stroke="#999999" points="1487.5,-387.5 1410.5,-387.5 1410.5,-368.5 1487.5,-368.5 1487.5,-387.5"/>
<text text-anchor="middle" x="1449" y="-375.5" font-family="Helvetica,sans-Serif" font-size="10.00">sys/socket.h</text>
</a>
</g>
</g>
<!-- Node1&#45;&gt;Node28 -->
<g id="edge42_Node000001_Node000028" class="edge">
<title>Node1&#45;&gt;Node28</title>
<g id="a_edge42_Node000001_Node000028"><a xlink:title=" ">
<path fill="none" stroke="#63b8ff" d="M1449,-428.8C1449,-419.7 1449,-407.79 1449,-397.9"/>
<polygon fill="#63b8ff" stroke="#63b8ff" points="1452.5,-397.84 1449,-387.84 1445.5,-397.84 1452.5,-397.84"/>
</a>
</g>
</g>
<!-- Node29 -->
<g id="Node000029" class="node">
<title>Node29</title>
<g id="a_Node000029"><a xlink:title=" ">
<polygon fill="#e0e0e0" stroke="#999999" points="1568.5,-387.5 1505.5,-387.5 1505.5,-368.5 1568.5,-368.5 1568.5,-387.5"/>
<text text-anchor="middle" x="1537" y="-375.5" font-family="Helvetica,sans-Serif" font-size="10.00">pthread.h</text>
</a>
</g>
</g>
<!-- Node1&#45;&gt;Node29 -->
<g id="edge43_Node000001_Node000029" class="edge">
<title>Node1&#45;&gt;Node29</title>
<g id="a_edge43_Node000001_Node000029"><a xlink:title=" ">
<path fill="none" stroke="#63b8ff" d="M1468.53,-428.8C1482.87,-418.37 1502.3,-404.24 1516.79,-393.69"/>
<polygon fill="#63b8ff" stroke="#63b8ff" points="1519.07,-396.37 1525.09,-387.66 1514.95,-390.71 1519.07,-396.37"/>
</a>
</g>
</g>
<!-- Node30 -->
<g id="Node000030" class="node">
<title>Node30</title>
<g id="a_Node000030"><a xlink:title=" ">
<polygon fill="#e0e0e0" stroke="#999999" points="1643,-387.5 1587,-387.5 1587,-368.5 1643,-368.5 1643,-387.5"/>
<text text-anchor="middle" x="1615" y="-375.5" font-family="Helvetica,sans-Serif" font-size="10.00">unistd.h</text>
</a>
</g>
</g>
<!-- Node1&#45;&gt;Node30 -->
<g id="edge44_Node000001_Node000030" class="edge">
<title>Node1&#45;&gt;Node30</title>
<g id="a_edge44_Node000001_Node000030"><a xlink:title=" ">
<path fill="none" stroke="#63b8ff" d="M1485.43,-428.95C1514.67,-417.68 1555.31,-402.01 1583.24,-391.25"/>
<polygon fill="#63b8ff" stroke="#63b8ff" points="1584.84,-394.38 1592.91,-387.52 1582.32,-387.85 1584.84,-394.38"/>
</a>
</g>
</g>
<!-- Node31 -->
<g id="Node000031" class="node">
<title>Node31</title>
<g id="a_Node000031"><a xlink:title=" ">
<polygon fill="#e0e0e0" stroke="#999999" points="1708.5,-387.5 1661.5,-387.5 1661.5,-368.5 1708.5,-368.5 1708.5,-387.5"/>
<text text-anchor="middle" x="1685" y="-375.5" font-family="Helvetica,sans-Serif" font-size="10.00">fcntl.h</text>
</a>
</g>
</g>
<!-- Node1&#45;&gt;Node31 -->
<g id="edge45_Node000001_Node000031" class="edge">
<title>Node1&#45;&gt;Node31</title>
<g id="a_edge45_Node000001_Node000031"><a xlink:title=" ">
<path fill="none" stroke="#63b8ff" d="M1499.69,-432.87C1541.15,-424.03 1601.03,-409.97 1652,-393 1653.62,-392.46 1655.28,-391.87 1656.94,-391.26"/>
<polygon fill="#63b8ff" stroke="#63b8ff" points="1658.35,-394.47 1666.35,-387.52 1655.77,-387.96 1658.35,-394.47"/>
</a>
</g>
</g>
<!-- Node32 -->
<g id="Node000032" class="node">
<title>Node32</title>
<g id="a_Node000032"><a xlink:title=" ">
<polygon fill="#e0e0e0" stroke="#999999" points="1777.5,-387.5 1726.5,-387.5 1726.5,-368.5 1777.5,-368.5 1777.5,-387.5"/>
<text text-anchor="middle" x="1752" y="-375.5" font-family="Helvetica,sans-Serif" font-size="10.00">errno.h</text>
</a>
</g>
</g>
<!-- Node1&#45;&gt;Node32 -->
<g id="edge46_Node000001_Node000032" class="edge">
<title>Node1&#45;&gt;Node32</title>
<g id="a_edge46_Node000001_Node000032"><a xlink:title=" ">
<path fill="none" stroke="#63b8ff" d="M1499.56,-436.78C1554.18,-429.34 1643.4,-415.03 1718,-393 1719.88,-392.44 1721.8,-391.82 1723.73,-391.15"/>
<polygon fill="#63b8ff" stroke="#63b8ff" points="1725.08,-394.38 1733.19,-387.56 1722.6,-387.84 1725.08,-394.38"/>
</a>
</g>
</g>
<!-- Node33 -->
<g id="Node000033" class="node">
<title>Node33</title>
<g id="a_Node000033"><a xlink:title=" ">
<polygon fill="#e0e0e0" stroke="#999999" points="1848.5,-387.5 1795.5,-387.5 1795.5,-368.5 1848.5,-368.5 1848.5,-387.5"/>
<text text-anchor="middle" x="1822" y="-375.5" font-family="Helvetica,sans-Serif" font-size="10.00">stdlib.h</text>
</a>
</g>
</g>
<!-- Node1&#45;&gt;Node33 -->
<g id="edge48_Node000001_Node000033" class="edge">
<title>Node1&#45;&gt;Node33</title>
<g id="a_edge48_Node000001_Node000033"><a xlink:title=" ">
<path fill="none" stroke="#63b8ff" d="M1499.57,-439.23C1566.32,-433.41 1687.07,-419.98 1787,-393 1789.16,-392.42 1791.36,-391.74 1793.56,-391.01"/>
<polygon fill="#63b8ff" stroke="#63b8ff" points="1794.84,-394.27 1803.02,-387.53 1792.43,-387.7 1794.84,-394.27"/>
</a>
</g>
</g>
<!-- Node34 -->
<g id="Node000034" class="node">
<title>Node34</title>
<g id="a_Node000034"><a xlink:title=" ">
<polygon fill="#e0e0e0" stroke="#999999" points="1911,-387.5 1867,-387.5 1867,-368.5 1911,-368.5 1911,-387.5"/>
<text text-anchor="middle" x="1889" y="-375.5" font-family="Helvetica,sans-Serif" font-size="10.00">poll.h</text>
</a>
</g>
</g>
<!-- Node1&#45;&gt;Node34 -->
<g id="edge51_Node000001_Node000034" class="edge">
<title>Node1&#45;&gt;Node34</title>
<g id="a_edge51_Node000001_Node000034"><a xlink:title=" ">
<path fill="none" stroke="#63b8ff" d="M1499.69,-441.7C1577.95,-438.62 1732.28,-428.19 1858,-393 1859.68,-392.53 1861.39,-391.98 1863.09,-391.38"/>
<polygon fill="#63b8ff" stroke="#63b8ff" points="1864.67,-394.52 1872.61,-387.51 1862.03,-388.03 1864.67,-394.52"/>
</a>
</g>
</g>
<!-- Node35 -->
<g id="Node000035" class="node">
<title>Node35</title>
<g id="a_Node000035"><a xlink:title=" ">
<polygon fill="#e0e0e0" stroke="#999999" points="2009,-387.5 1929,-387.5 1929,-368.5 2009,-368.5 2009,-387.5"/>
<text text-anchor="middle" x="1969" y="-375.5" font-family="Helvetica,sans-Serif" font-size="10.00">openssl/ssl.h</text>
</a>
</g>
</g>
<!-- Node1&#45;&gt;Node35 -->
<g id="edge52_Node000001_Node000035" class="edge">
<title>Node1&#45;&gt;Node35</title>
<g id="a_edge52_Node000001_Node000035"><a xlink:title=" ">
<path fill="none" stroke="#63b8ff" d="M1499.61,-440.5C1586.34,-435.57 1768.65,-422.43 1920,-393 1924.1,-392.2 1928.36,-391.22 1932.58,-390.15"/>
<polygon fill="#63b8ff" stroke="#63b8ff" points="1933.5,-393.53 1942.24,-387.55 1931.68,-386.77 1933.5,-393.53"/>
</a>
</g>
</g>
<!-- Node36 -->
<g id="Node000036" class="node">
<title>Node36</title>
<g id="a_Node000036"><a xlink:title=" ">
<polygon fill="#e0e0e0" stroke="#999999" points="2106.5,-387.5 2027.5,-387.5 2027.5,-368.5 2106.5,-368.5 2106.5,-387.5"/>
<text text-anchor="middle" x="2067" y="-375.5" font-family="Helvetica,sans-Serif" font-size="10.00">openssl/err.h</text>
</a>
</g>
</g>
<!-- Node1&#45;&gt;Node36 -->
<g id="edge53_Node000001_Node000036" class="edge">
<title>Node1&#45;&gt;Node36</title>
<g id="a_edge53_Node000001_Node000036"><a xlink:title=" ">
<path fill="none" stroke="#63b8ff" d="M1499.67,-441.78C1599.61,-438.67 1828.83,-428 2018,-393 2022.16,-392.23 2026.47,-391.26 2030.74,-390.19"/>
<polygon fill="#63b8ff" stroke="#63b8ff" points="2031.77,-393.54 2040.52,-387.56 2029.95,-386.78 2031.77,-393.54"/>
</a>
</g>
</g>
<!-- Node3 -->
<g id="Node000003" class="node">
<title>Node3</title>
<g id="a_Node000003"><a xlink:href="brix_8h.html" target="_top" xlink:title=" ">
<polygon fill="white" stroke="#666666" points="652,-327 608,-327 608,-308 652,-308 652,-327"/>
<text text-anchor="middle" x="630" y="-315" font-family="Helvetica,sans-Serif" font-size="10.00">brix.h</text>
</a>
</g>
</g>
<!-- Node2&#45;&gt;Node3 -->
<g id="edge2_Node000002_Node000003" class="edge">
<title>Node2&#45;&gt;Node3</title>
<g id="a_edge2_Node000002_Node000003"><a xlink:title=" ">
<path fill="none" stroke="#63b8ff" d="M735.97,-368.49C715.31,-358.75 681.22,-342.66 657.3,-331.38"/>
<polygon fill="#63b8ff" stroke="#63b8ff" points="658.59,-328.12 648.05,-327.02 655.6,-334.45 658.59,-328.12"/>
</a>
</g>
</g>
<!-- Node4 -->
<g id="Node000004" class="node">
<title>Node4</title>
<g id="a_Node000004"><a xlink:title=" ">
<polygon fill="#e0e0e0" stroke="#999999" points="548.5,-19 495.5,-19 495.5,0 548.5,0 548.5,-19"/>
<text text-anchor="middle" x="522" y="-7" font-family="Helvetica,sans-Serif" font-size="10.00">stdint.h</text>
</a>
</g>
</g>
<!-- Node3&#45;&gt;Node4 -->
<g id="edge3_Node000003_Node000004" class="edge">
<title>Node3&#45;&gt;Node4</title>
<g id="a_edge3_Node000003_Node000004"><a xlink:title=" ">
<path fill="none" stroke="#63b8ff" d="M607.95,-316.94C496.44,-318.56 0,-318.68 0,-192 0,-192 0,-192 0,-124 0,-24.52 366.56,-12.06 485.34,-10.64"/>
<polygon fill="#63b8ff" stroke="#63b8ff" points="485.43,-14.14 495.4,-10.54 485.36,-7.14 485.43,-14.14"/>
</a>
</g>
</g>
<!-- Node5 -->
<g id="Node000005" class="node">
<title>Node5</title>
<g id="a_Node000005"><a xlink:title=" ">
<polygon fill="#e0e0e0" stroke="#999999" points="968,-134.5 912,-134.5 912,-115.5 968,-115.5 968,-134.5"/>
<text text-anchor="middle" x="940" y="-122.5" font-family="Helvetica,sans-Serif" font-size="10.00">stddef.h</text>
</a>
</g>
</g>
<!-- Node3&#45;&gt;Node5 -->
<g id="edge4_Node000003_Node000005" class="edge">
<title>Node3&#45;&gt;Node5</title>
<g id="a_edge4_Node000003_Node000005"><a xlink:title=" ">
<path fill="none" stroke="#63b8ff" d="M652.26,-314.49C686.04,-310.63 751.36,-299.92 799,-272 806.67,-267.51 889.82,-179.42 924.72,-142.29"/>
<polygon fill="#63b8ff" stroke="#63b8ff" points="927.46,-144.48 931.75,-134.8 922.36,-139.69 927.46,-144.48"/>
</a>
</g>
</g>
<!-- Node6 -->
<g id="Node000006" class="node">
<title>Node6</title>
<g id="a_Node000006"><a xlink:title=" ">
<polygon fill="#e0e0e0" stroke="#999999" points="617,-266.5 567,-266.5 567,-247.5 617,-247.5 617,-266.5"/>
<text text-anchor="middle" x="592" y="-254.5" font-family="Helvetica,sans-Serif" font-size="10.00">stdio.h</text>
</a>
</g>
</g>
<!-- Node3&#45;&gt;Node6 -->
<g id="edge5_Node000003_Node000006" class="edge">
<title>Node3&#45;&gt;Node6</title>
<g id="a_edge5_Node000003_Node000006"><a xlink:title=" ">
<path fill="none" stroke="#63b8ff" d="M624.39,-307.87C618.84,-299.31 610.17,-285.97 603.2,-275.24"/>
<polygon fill="#63b8ff" stroke="#63b8ff" points="606.01,-273.15 597.63,-266.67 600.14,-276.96 606.01,-273.15"/>
</a>
</g>
</g>
<!-- Node3&#45;&gt;Node7 -->
<g id="edge6_Node000003_Node000007" class="edge">
<title>Node3&#45;&gt;Node7</title>
<g id="a_edge6_Node000003_Node000007"><a xlink:title=" ">
<path fill="none" stroke="#63b8ff" d="M652.07,-312.66C689.48,-305.92 767.55,-290.87 832,-272 834.28,-271.33 836.61,-270.6 838.96,-269.83"/>
<polygon fill="#63b8ff" stroke="#63b8ff" points="840.18,-273.11 848.47,-266.51 837.87,-266.5 840.18,-273.11"/>
</a>
</g>
</g>
<!-- Node8 -->
<g id="Node000008" class="node">
<title>Node8</title>
<g id="a_Node000008"><a xlink:title=" ">
<polygon fill="#e0e0e0" stroke="#999999" points="650,-134.5 578,-134.5 578,-115.5 650,-115.5 650,-134.5"/>
<text text-anchor="middle" x="614" y="-122.5" font-family="Helvetica,sans-Serif" font-size="10.00">sys/types.h</text>
</a>
</g>
</g>
<!-- Node3&#45;&gt;Node8 -->
<g id="edge9_Node000003_Node000008" class="edge">
<title>Node3&#45;&gt;Node8</title>
<g id="a_edge9_Node000003_Node000008"><a xlink:title=" ">
<path fill="none" stroke="#63b8ff" d="M607.68,-309.43C590.7,-302.74 568.52,-290.87 558,-272 551.51,-260.35 552.81,-254.28 558,-242 566.93,-220.86 583.68,-225.95 595,-206 605.88,-186.83 610.54,-161.69 612.54,-144.75"/>
<polygon fill="#63b8ff" stroke="#63b8ff" points="616.05,-144.8 613.53,-134.51 609.08,-144.12 616.05,-144.8"/>
</a>
</g>
</g>
<!-- Node9 -->
<g id="Node000009" class="node">
<title>Node9</title>
<g id="a_Node000009"><a xlink:href="protocol_8h.html" target="_top" xlink:title=" ">
<polygon fill="white" stroke="#666666" points="387.5,-272 260.5,-272 260.5,-242 387.5,-242 387.5,-272"/>
<text text-anchor="start" x="268.5" y="-260" font-family="Helvetica,sans-Serif" font-size="10.00">protocols/root/protocol</text>
<text text-anchor="middle" x="324" y="-249" font-family="Helvetica,sans-Serif" font-size="10.00">/protocol.h</text>
</a>
</g>
</g>
<!-- Node3&#45;&gt;Node9 -->
<g id="edge10_Node000003_Node000009" class="edge">
<title>Node3&#45;&gt;Node9</title>
<g id="a_edge10_Node000003_Node000009"><a xlink:title=" ">
<path fill="none" stroke="#63b8ff" d="M607.73,-312.3C567.71,-304.74 480.73,-288.27 397.47,-272.28"/>
<polygon fill="#63b8ff" stroke="#63b8ff" points="398.08,-268.83 387.6,-270.38 396.76,-275.71 398.08,-268.83"/>
</a>
</g>
</g>
<!-- Node17 -->
<g id="Node000017" class="node">
<title>Node17</title>
<g id="a_Node000017"><a xlink:href="wire__codec_8h.html" target="_top" xlink:title=" ">
<polygon fill="white" stroke="#666666" points="585.5,-206 458.5,-206 458.5,-176 585.5,-176 585.5,-206"/>
<text text-anchor="start" x="466.5" y="-194" font-family="Helvetica,sans-Serif" font-size="10.00">protocols/root/protocol</text>
<text text-anchor="middle" x="522" y="-183" font-family="Helvetica,sans-Serif" font-size="10.00">/codec/wire_codec.h</text>
</a>
</g>
</g>
<!-- Node3&#45;&gt;Node17 -->
<g id="edge26_Node000003_Node000017" class="edge">
<title>Node3&#45;&gt;Node17</title>
<g id="a_edge26_Node000003_Node000017"><a xlink:title=" ">
<path fill="none" stroke="#63b8ff" d="M607.56,-313.97C582.73,-309.86 543.77,-299.22 525,-272 513.93,-255.95 514.09,-233.47 516.5,-216.42"/>
<polygon fill="#63b8ff" stroke="#63b8ff" points="520.02,-216.59 518.31,-206.13 513.13,-215.37 520.02,-216.59"/>
</a>
</g>
</g>
<!-- Node19 -->
<g id="Node000019" class="node">
<title>Node19</title>
<g id="a_Node000019"><a xlink:href="brix__net_8h.html" target="_top" xlink:title=" ">
<polygon fill="white" stroke="#666666" points="700.5,-266.5 635.5,-266.5 635.5,-247.5 700.5,-247.5 700.5,-266.5"/>
<text text-anchor="middle" x="668" y="-254.5" font-family="Helvetica,sans-Serif" font-size="10.00">brix_net.h</text>
</a>
</g>
</g>
<!-- Node3&#45;&gt;Node19 -->
<g id="edge27_Node000003_Node000019" class="edge">
<title>Node3&#45;&gt;Node19</title>
<g id="a_edge27_Node000003_Node000019"><a xlink:title=" ">
<path fill="none" stroke="#63b8ff" d="M635.61,-307.87C641.16,-299.31 649.83,-285.97 656.8,-275.24"/>
<polygon fill="#63b8ff" stroke="#63b8ff" points="659.86,-276.96 662.37,-266.67 653.99,-273.15 659.86,-276.96"/>
</a>
</g>
</g>
<!-- Node20 -->
<g id="Node000020" class="node">
<title>Node20</title>
<g id="a_Node000020"><a xlink:href="brix__auth_8h.html" target="_top" xlink:title=" ">
<polygon fill="white" stroke="#666666" points="789.5,-266.5 718.5,-266.5 718.5,-247.5 789.5,-247.5 789.5,-266.5"/>
<text text-anchor="middle" x="754" y="-254.5" font-family="Helvetica,sans-Serif" font-size="10.00">brix_auth.h</text>
</a>
</g>
</g>
<!-- Node3&#45;&gt;Node20 -->
<g id="edge28_Node000003_Node000020" class="edge">
<title>Node3&#45;&gt;Node20</title>
<g id="a_edge28_Node000003_Node000020"><a xlink:title=" ">
<path fill="none" stroke="#63b8ff" d="M648.03,-307.99C668.69,-298.25 702.78,-282.16 726.7,-270.88"/>
<polygon fill="#63b8ff" stroke="#63b8ff" points="728.4,-273.95 735.95,-266.52 725.41,-267.62 728.4,-273.95"/>
</a>
</g>
</g>
<!-- Node21 -->
<g id="Node000021" class="node">
<title>Node21</title>
<g id="a_Node000021"><a xlink:href="brix__ops_8h.html" target="_top" xlink:title=" ">
<polygon fill="white" stroke="#666666" points="472.5,-266.5 405.5,-266.5 405.5,-247.5 472.5,-247.5 472.5,-266.5"/>
<text text-anchor="middle" x="439" y="-254.5" font-family="Helvetica,sans-Serif" font-size="10.00">brix_ops.h</text>
</a>
</g>
</g>
<!-- Node3&#45;&gt;Node21 -->
<g id="edge29_Node000003_Node000021" class="edge">
<title>Node3&#45;&gt;Node21</title>
<g id="a_edge29_Node000003_Node000021"><a xlink:title=" ">
<path fill="none" stroke="#63b8ff" d="M607.72,-309.67C575.58,-299.83 515.8,-281.52 476.71,-269.55"/>
<polygon fill="#63b8ff" stroke="#63b8ff" points="477.6,-266.16 467.01,-266.58 475.55,-272.85 477.6,-266.16"/>
</a>
</g>
</g>
<!-- Node7&#45;&gt;Node5 -->
<g id="edge7_Node000007_Node000005" class="edge">
<title>Node7&#45;&gt;Node5</title>
<g id="a_edge7_Node000007_Node000005"><a xlink:title=" ">
<path fill="none" stroke="#63b8ff" d="M874.59,-247.47C885.91,-226.45 915.33,-171.82 930.56,-143.54"/>
<polygon fill="#63b8ff" stroke="#63b8ff" points="933.64,-145.2 935.3,-134.73 927.48,-141.88 933.64,-145.2"/>
</a>
</g>
</g>
<!-- Node7&#45;&gt;Node7 -->
<g id="edge8_Node000007_Node000007" class="edge">
<title>Node7&#45;&gt;Node7</title>
<g id="a_edge8_Node000007_Node000007"><a xlink:title=" ">
<path fill="none" stroke="#63b8ff" d="M885.51,-266.53C898.46,-270.61 912,-267.43 912,-257 912,-249.26 904.54,-245.51 895.4,-245.76"/>
<polygon fill="#63b8ff" stroke="#63b8ff" points="894.77,-242.32 885.51,-247.47 895.96,-249.22 894.77,-242.32"/>
</a>
</g>
</g>
<!-- Node10 -->
<g id="Node000010" class="node">
<title>Node10</title>
<g id="a_Node000010"><a xlink:href="types_8h.html" target="_top" xlink:title=" ">
<polygon fill="white" stroke="#666666" points="278.5,-74 225.5,-74 225.5,-55 278.5,-55 278.5,-74"/>
<text text-anchor="middle" x="252" y="-62" font-family="Helvetica,sans-Serif" font-size="10.00">types.h</text>
</a>
</g>
</g>
<!-- Node9&#45;&gt;Node10 -->
<g id="edge11_Node000009_Node000010" class="edge">
<title>Node9&#45;&gt;Node10</title>
<g id="a_edge11_Node000009_Node000010"><a xlink:title=" ">
<path fill="none" stroke="#63b8ff" d="M260.31,-248.2C196.6,-236.64 101.83,-208.36 57,-140 18.7,-81.61 148.54,-68.91 215.1,-66.2"/>
<polygon fill="#63b8ff" stroke="#63b8ff" points="215.33,-69.7 225.2,-65.85 215.08,-62.7 215.33,-69.7"/>
</a>
</g>
</g>
<!-- Node11 -->
<g id="Node000011" class="node">
<title>Node11</title>
<g id="a_Node000011"><a xlink:href="opcodes_8h.html" target="_top" xlink:title=" ">
<polygon fill="white" stroke="#666666" points="428,-74 362,-74 362,-55 428,-55 428,-74"/>
<text text-anchor="middle" x="395" y="-62" font-family="Helvetica,sans-Serif" font-size="10.00">opcodes.h</text>
</a>
</g>
</g>
<!-- Node9&#45;&gt;Node11 -->
<g id="edge13_Node000009_Node000011" class="edge">
<title>Node9&#45;&gt;Node11</title>
<g id="a_edge13_Node000009_Node000011"><a xlink:title=" ">
<path fill="none" stroke="#63b8ff" d="M319.05,-241.93C313.9,-224.55 308.44,-194.95 323,-176 360.83,-126.76 420.17,-189.24 458,-140 466.12,-129.43 464.13,-121.84 458,-110 450.96,-96.41 437.66,-86.09 425.08,-78.82"/>
<polygon fill="#63b8ff" stroke="#63b8ff" points="426.62,-75.68 416.15,-74.07 423.33,-81.86 426.62,-75.68"/>
</a>
</g>
</g>
<!-- Node12 -->
<g id="Node000012" class="node">
<title>Node12</title>
<g id="a_Node000012"><a xlink:href="flags_8h.html" target="_top" xlink:title=" ">
<polygon fill="white" stroke="#666666" points="381.5,-200.5 332.5,-200.5 332.5,-181.5 381.5,-181.5 381.5,-200.5"/>
<text text-anchor="middle" x="357" y="-188.5" font-family="Helvetica,sans-Serif" font-size="10.00">flags.h</text>
</a>
</g>
</g>
<!-- Node9&#45;&gt;Node12 -->
<g id="edge14_Node000009_Node000012" class="edge">
<title>Node9&#45;&gt;Node12</title>
<g id="a_edge14_Node000009_Node000012"><a xlink:title=" ">
<path fill="none" stroke="#63b8ff" d="M331.32,-241.8C336.17,-232.41 342.55,-220.02 347.75,-209.95"/>
<polygon fill="#63b8ff" stroke="#63b8ff" points="350.97,-211.34 352.44,-200.84 344.75,-208.13 350.97,-211.34"/>
</a>
</g>
</g>
<!-- Node13 -->
<g id="Node000013" class="node">
<title>Node13</title>
<g id="a_Node000013"><a xlink:href="wire_8h.html" target="_top" xlink:title=" ">
<polygon fill="white" stroke="#666666" points="275.5,-200.5 228.5,-200.5 228.5,-181.5 275.5,-181.5 275.5,-200.5"/>
<text text-anchor="middle" x="252" y="-188.5" font-family="Helvetica,sans-Serif" font-size="10.00">wire.h</text>
</a>
</g>
</g>
<!-- Node9&#45;&gt;Node13 -->
<g id="edge15_Node000009_Node000013" class="edge">
<title>Node9&#45;&gt;Node13</title>
<g id="a_edge15_Node000009_Node000013"><a xlink:title=" ">
<path fill="none" stroke="#63b8ff" d="M308.02,-241.8C296.69,-231.72 281.47,-218.19 269.75,-207.78"/>
<polygon fill="#63b8ff" stroke="#63b8ff" points="271.75,-204.87 261.95,-200.84 267.1,-210.1 271.75,-204.87"/>
</a>
</g>
</g>
<!-- Node9&#45;&gt;Node17 -->
<g id="edge21_Node000009_Node000017" class="edge">
<title>Node9&#45;&gt;Node17</title>
<g id="a_edge21_Node000009_Node000017"><a xlink:title=" ">
<path fill="none" stroke="#63b8ff" d="M367.45,-241.95C397.37,-232.28 437.29,-219.38 469.07,-209.11"/>
<polygon fill="#63b8ff" stroke="#63b8ff" points="470.21,-212.42 478.65,-206.01 468.06,-205.76 470.21,-212.42"/>
</a>
</g>
</g>
<!-- Node18 -->
<g id="Node000018" class="node">
<title>Node18</title>
<g id="a_Node000018"><a xlink:href="gsi_8h.html" target="_top" xlink:title=" ">
<polygon fill="white" stroke="#666666" points="440,-200.5 400,-200.5 400,-181.5 440,-181.5 440,-200.5"/>
<text text-anchor="middle" x="420" y="-188.5" font-family="Helvetica,sans-Serif" font-size="10.00">gsi.h</text>
</a>
</g>
</g>
<!-- Node9&#45;&gt;Node18 -->
<g id="edge25_Node000009_Node000018" class="edge">
<title>Node9&#45;&gt;Node18</title>
<g id="a_edge25_Node000009_Node000018"><a xlink:title=" ">
<path fill="none" stroke="#63b8ff" d="M345.31,-241.8C361.1,-231.27 382.54,-216.97 398.4,-206.4"/>
<polygon fill="#63b8ff" stroke="#63b8ff" points="400.63,-209.12 407.01,-200.66 396.75,-203.29 400.63,-209.12"/>
</a>
</g>
</g>
<!-- Node10&#45;&gt;Node4 -->
<g id="edge12_Node000010_Node000004" class="edge">
<title>Node10&#45;&gt;Node4</title>
<g id="a_edge12_Node000010_Node000004"><a xlink:title=" ">
<path fill="none" stroke="#63b8ff" d="M278.88,-58.22C327.5,-48.68 430.11,-28.54 485.2,-17.72"/>
<polygon fill="#63b8ff" stroke="#63b8ff" points="486.09,-21.12 495.23,-15.75 484.75,-14.25 486.09,-21.12"/>
</a>
</g>
</g>
<!-- Node14 -->
<g id="Node000014" class="node">
<title>Node14</title>
<g id="a_Node000014"><a xlink:href="wire__core__requests_8h.html" target="_top" xlink:title=" ">
<polygon fill="white" stroke="#666666" points="312,-134.5 192,-134.5 192,-115.5 312,-115.5 312,-134.5"/>
<text text-anchor="middle" x="252" y="-122.5" font-family="Helvetica,sans-Serif" font-size="10.00">wire_core_requests.h</text>
</a>
</g>
</g>
<!-- Node13&#45;&gt;Node14 -->
<g id="edge16_Node000013_Node000014" class="edge">
<title>Node13&#45;&gt;Node14</title>
<g id="a_edge16_Node000013_Node000014"><a xlink:title=" ">
<path fill="none" stroke="#63b8ff" d="M252,-181.37C252,-172.16 252,-157.29 252,-145.27"/>
<polygon fill="#63b8ff" stroke="#63b8ff" points="255.5,-144.91 252,-134.91 248.5,-144.91 255.5,-144.91"/>
</a>
</g>
</g>
<!-- Node15 -->
<g id="Node000015" class="node">
<title>Node15</title>
<g id="a_Node000015"><a xlink:href="wire__write__extended__requests_8h.html" target="_top" xlink:title=" ">
<polygon fill="white" stroke="#666666" points="449.5,-140 330.5,-140 330.5,-110 449.5,-110 449.5,-140"/>
<text text-anchor="start" x="338.5" y="-128" font-family="Helvetica,sans-Serif" font-size="10.00">wire_write_extended</text>
<text text-anchor="middle" x="390" y="-117" font-family="Helvetica,sans-Serif" font-size="10.00">_requests.h</text>
</a>
</g>
</g>
<!-- Node13&#45;&gt;Node15 -->
<g id="edge19_Node000013_Node000015" class="edge">
<title>Node13&#45;&gt;Node15</title>
<g id="a_edge19_Node000013_Node000015"><a xlink:title=" ">
<path fill="none" stroke="#63b8ff" d="M270.61,-181.37C290.92,-171.95 324.05,-156.59 350.26,-144.43"/>
<polygon fill="#63b8ff" stroke="#63b8ff" points="351.96,-147.5 359.56,-140.12 349.02,-141.15 351.96,-147.5"/>
</a>
</g>
</g>
<!-- Node16 -->
<g id="Node000016" class="node">
<title>Node16</title>
<g id="a_Node000016"><a xlink:href="wire__vendor__ext_8h.html" target="_top" xlink:title=" ">
<polygon fill="white" stroke="#666666" points="173.5,-134.5 66.5,-134.5 66.5,-115.5 173.5,-115.5 173.5,-134.5"/>
<text text-anchor="middle" x="120" y="-122.5" font-family="Helvetica,sans-Serif" font-size="10.00">wire_vendor_ext.h</text>
</a>
</g>
</g>
<!-- Node13&#45;&gt;Node16 -->
<g id="edge20_Node000013_Node000016" class="edge">
<title>Node13&#45;&gt;Node16</title>
<g id="a_edge20_Node000013_Node000016"><a xlink:title=" ">
<path fill="none" stroke="#63b8ff" d="M234.2,-181.37C211.86,-170.54 173.32,-151.85 147.26,-139.22"/>
<polygon fill="#63b8ff" stroke="#63b8ff" points="148.47,-135.91 137.94,-134.7 145.41,-142.21 148.47,-135.91"/>
</a>
</g>
</g>
<!-- Node14&#45;&gt;Node10 -->
<g id="edge17_Node000014_Node000010" class="edge">
<title>Node14&#45;&gt;Node10</title>
<g id="a_edge17_Node000014_Node000010"><a xlink:title=" ">
<path fill="none" stroke="#63b8ff" d="M252,-115.37C252,-107.25 252,-94.81 252,-84.39"/>
<polygon fill="#63b8ff" stroke="#63b8ff" points="255.5,-84.17 252,-74.17 248.5,-84.17 255.5,-84.17"/>
</a>
</g>
</g>
<!-- Node14&#45;&gt;Node11 -->
<g id="edge18_Node000014_Node000011" class="edge">
<title>Node14&#45;&gt;Node11</title>
<g id="a_edge18_Node000014_Node000011"><a xlink:title=" ">
<path fill="none" stroke="#63b8ff" d="M272.79,-115.49C296.94,-105.62 336.98,-89.23 364.62,-77.93"/>
<polygon fill="#63b8ff" stroke="#63b8ff" points="366.25,-81.04 374.18,-74.02 363.6,-74.56 366.25,-81.04"/>
</a>
</g>
</g>
<!-- Node17&#45;&gt;Node4 -->
<g id="edge22_Node000017_Node000004" class="edge">
<title>Node17&#45;&gt;Node4</title>
<g id="a_edge22_Node000017_Node000004"><a xlink:title=" ">
<path fill="none" stroke="#63b8ff" d="M522,-175.91C522,-143.85 522,-65.38 522,-29.26"/>
<polygon fill="#63b8ff" stroke="#63b8ff" points="525.5,-29.13 522,-19.13 518.5,-29.13 525.5,-29.13"/>
</a>
</g>
</g>
<!-- Node17&#45;&gt;Node5 -->
<g id="edge23_Node000017_Node000005" class="edge">
<title>Node17&#45;&gt;Node5</title>
<g id="a_edge23_Node000017_Node000005"><a xlink:title=" ">
<path fill="none" stroke="#63b8ff" d="M585.94,-180.21C674,-166.73 829.87,-142.86 901.74,-131.86"/>
<polygon fill="#63b8ff" stroke="#63b8ff" points="902.36,-135.3 911.72,-130.33 901.3,-128.38 902.36,-135.3"/>
</a>
</g>
</g>
<!-- Node17&#45;&gt;Node8 -->
<g id="edge24_Node000017_Node000008" class="edge">
<title>Node17&#45;&gt;Node8</title>
<g id="a_edge24_Node000017_Node000008"><a xlink:title=" ">
<path fill="none" stroke="#63b8ff" d="M542.42,-175.8C557.55,-165.27 578.1,-150.97 593.3,-140.4"/>
<polygon fill="#63b8ff" stroke="#63b8ff" points="595.34,-143.24 601.55,-134.66 591.35,-137.5 595.34,-143.24"/>
</a>
</g>
</g>
<!-- Node22&#45;&gt;Node3 -->
<g id="edge34_Node000022_Node000003" class="edge">
<title>Node22&#45;&gt;Node3</title>
<g id="a_edge34_Node000022_Node000003"><a xlink:title=" ">
<path fill="none" stroke="#63b8ff" d="M931.88,-372.51C873.23,-362.01 727.32,-335.91 662.23,-324.27"/>
<polygon fill="#63b8ff" stroke="#63b8ff" points="662.6,-320.78 652.14,-322.46 661.37,-327.67 662.6,-320.78"/>
</a>
</g>
</g>
<!-- Node22&#45;&gt;Node4 -->
<g id="edge32_Node000022_Node000004" class="edge">
<title>Node22&#45;&gt;Node4</title>
<g id="a_edge32_Node000022_Node000004"><a xlink:title=" ">
<path fill="none" stroke="#63b8ff" d="M961.39,-368.38C979.15,-332.14 1041.71,-190.39 977,-110 924.35,-44.59 657.67,-19.82 558.88,-12.81"/>
<polygon fill="#63b8ff" stroke="#63b8ff" points="558.99,-9.3 548.77,-12.11 558.5,-16.29 558.99,-9.3"/>
</a>
</g>
</g>
<!-- Node22&#45;&gt;Node5 -->
<g id="edge31_Node000022_Node000005" class="edge">
<title>Node22&#45;&gt;Node5</title>
<g id="a_edge31_Node000022_Node000005"><a xlink:title=" ">
<path fill="none" stroke="#63b8ff" d="M957.1,-368.46C957.29,-347.11 957.4,-289.7 954,-242 951.54,-207.55 946.16,-167.62 942.83,-144.74"/>
<polygon fill="#63b8ff" stroke="#63b8ff" points="946.28,-144.08 941.35,-134.7 939.35,-145.11 946.28,-144.08"/>
</a>
</g>
</g>
<!-- Node22&#45;&gt;Node8 -->
<g id="edge33_Node000022_Node000008" class="edge">
<title>Node22&#45;&gt;Node8</title>
<g id="a_edge33_Node000022_Node000008"><a xlink:title=" ">
<path fill="none" stroke="#63b8ff" d="M955.76,-368.48C951.74,-341.89 938.32,-261.16 921,-242 852.09,-165.78 727.9,-139.38 660.53,-130.43"/>
<polygon fill="#63b8ff" stroke="#63b8ff" points="660.58,-126.91 650.22,-129.14 659.71,-133.86 660.58,-126.91"/>
</a>
</g>
</g>
<!-- Node23&#45;&gt;Node4 -->
<g id="edge37_Node000023_Node000004" class="edge">
<title>Node23&#45;&gt;Node4</title>
<g id="a_edge37_Node000023_Node000004"><a xlink:title=" ">
<path fill="none" stroke="#63b8ff" d="M1069.53,-362.96C1077.69,-340.96 1092,-296.84 1092,-258 1092,-258 1092,-258 1092,-124 1092,-14.93 685.46,-9.13 559.05,-9.97"/>
<polygon fill="#63b8ff" stroke="#63b8ff" points="558.7,-6.47 548.73,-10.06 558.76,-13.47 558.7,-6.47"/>
</a>
</g>
</g>
<!-- Node23&#45;&gt;Node5 -->
<g id="edge36_Node000023_Node000005" class="edge">
<title>Node23&#45;&gt;Node5</title>
<g id="a_edge36_Node000023_Node000005"><a xlink:title=" ">
<path fill="none" stroke="#63b8ff" d="M1056.98,-362.79C1035.74,-319.79 972.2,-191.17 948.79,-143.79"/>
<polygon fill="#63b8ff" stroke="#63b8ff" points="951.88,-142.15 944.31,-134.73 945.61,-145.25 951.88,-142.15"/>
</a>
</g>
</g>
<!-- Node23&#45;&gt;Node24 -->
<g id="edge38_Node000023_Node000024" class="edge">
<title>Node23&#45;&gt;Node24</title>
<g id="a_edge38_Node000023_Node000024"><a xlink:title=" ">
<path fill="none" stroke="#63b8ff" d="M1084.09,-362.84C1096.88,-353.83 1113.4,-342.18 1126.3,-333.09"/>
<polygon fill="#63b8ff" stroke="#63b8ff" points="1128.41,-335.89 1134.56,-327.27 1124.37,-330.17 1128.41,-335.89"/>
</a>
</g>
</g>
<!-- Node23&#45;&gt;Node25 -->
<g id="edge39_Node000023_Node000025" class="edge">
<title>Node23&#45;&gt;Node25</title>
<g id="a_edge39_Node000023_Node000025"><a xlink:title=" ">
<path fill="none" stroke="#63b8ff" d="M1102.8,-362.99C1130.19,-353.1 1166.52,-339.98 1192.61,-330.56"/>
<polygon fill="#63b8ff" stroke="#63b8ff" points="1193.86,-333.83 1202.08,-327.14 1191.48,-327.24 1193.86,-333.83"/>
</a>
</g>
</g>
</g>
</svg>

<g id="navigator" transform="translate(0 0)" fill="#404254">
  <rect fill="#f2f5e9" fill-opacity="0.5" stroke="#606060" stroke-width=".5" x="0" y="0" width="60" height="60"/>
  <use id="zoomplus" xlink:href="#zoomPlus" x="17" y="9" onmousedown="handleZoom(evt,'in')"/>
  <use id="zoomminus" xlink:href="#zoomMin" x="42" y="9" onmousedown="handleZoom(evt,'out')"/>
  <use id="reset" xlink:href="#resetDef" x="30" y="36" onmousedown="handleReset()"/>
   <use id="arrowup" xlink:href="#arrowUp" x="0" y="0" onmousedown="handlePan(0,-1)"/>
  <use id="arrowright" xlink:href="#arrowRight" x="0" y="0" onmousedown="handlePan(1,0)"/>
  <use id="arrowdown" xlink:href="#arrowDown" x="0" y="0" onmousedown="handlePan(0,1)"/>
  <use id="arrowleft" xlink:href="#arrowLeft" x="0" y="0" onmousedown="handlePan(-1,0)"/>
</g>
<svg viewBox="0 0 15 15" width="100%" height="30px" preserveAspectRatio="xMaxYMin meet">
 <g id="arrow_out" transform="scale(0.3 0.3)">
  <a xlink:href="aio__internal_8h__incl_org.svg" target="_base">
   <rect id="button" ry="5" rx="5" y="6" x="6" height="38" width="38"
        fill="#f2f5e9" fill-opacity="0.5" stroke="#606060" stroke-width="1.0"/>
   <path id="arrow"
     d="M 11.500037,31.436501 C 11.940474,20.09759 22.043105,11.32322 32.158766,21.979434 L 37.068811,17.246167 C 37.068811,17.246167 37.088388,32 37.088388,32 L 22.160133,31.978069 C 22.160133,31.978069 26.997745,27.140456 26.997745,27.140456 C 18.528582,18.264221 13.291696,25.230495 11.500037,31.436501 z"
     style="fill:#404040;"/>
  </a>
 </g>
</svg>

<style type='text/css'>
<![CDATA[
[data-mouse-over-selected='false'] { opacity: 0.7; }
[data-mouse-over-selected='true']  { opacity: 1.0; }
]]>
</style>
<script type="application/ecmascript"><![CDATA[
document.addEventListener('DOMContentLoaded', (event) => {
  highlightEdges();
  highlightAdjacentNodes();
});
]]></script>
</svg>
