<?xml version="1.0" encoding="UTF-8" standalone="no"?>
<!DOCTYPE svg PUBLIC "-//W3C//DTD SVG 1.1//EN"
 "http://www.w3.org/Graphics/SVG/1.1/DTD/svg11.dtd">
<!-- Generated by graphviz version 2.43.0 (0)
 -->
<!-- Title: client/lib/core/aio/aio_mgr.c Pages: 1 -->
<!--zoomable 456 -->

<svg id="main" version="1.1" xmlns="http://www.w3.org/2000/svg" xmlns:xlink="http://www.w3.org/1999/xlink" xml:space="preserve" onload="init(evt)">
<style type="text/css"><![CDATA[
.node, .edge {opacity: 0.7;}
.node.selected, .edge.selected {opacity: 1;}
.edge:hover path { stroke: red; }
.edge:hover polygon { stroke: red; fill: red; }
]]></style>

<defs>
  <circle id="rim" cx="0" cy="0" r="7"/>
  <circle id="rim2" cx="0" cy="0" r="3.5"/>
  <g id="zoomPlus">
    <use xlink:href="#rim" fill="#404040"><set attributeName="fill" to="#808080" begin="zoomplus.mouseover" end="zoomplus.mouseout"/></use>
    <path d="M-4,0h8M0,-4v8" fill="none" stroke="white" stroke-width="1.5" pointer-events="none"/>
  </g>
  <g id="zoomMin">
    <use xlink:href="#rim" fill="#404040"><set attributeName="fill" to="#808080" begin="zoomminus.mouseover" end="zoomminus.mouseout"/></use>
    <path d="M-4,0h8" fill="none" stroke="white" stroke-width="1.5" pointer-events="none"/>
  </g>
  <g id="arrowUp" transform="translate(30 24)">
    <use xlink:href="#rim"/>
    <path pointer-events="none" fill="none" stroke="white" stroke-width="1.5" d="M0,-3.0v7 M-2.5,-0.5L0,-3.0L2.5,-0.5"/>
  </g>
  <g id="arrowRight" transform="rotate(90) translate(36 -43)">
    <use xlink:href="#rim"/>
    <path pointer-events="none" fill="none" stroke="white" stroke-width="1.5" d="M0,-3.0v7 M-2.5,-0.5L0,-3.0L2.5,-0.5"/>
  </g>
  <g id="arrowDown" transform="rotate(180) translate(-30 -48)">
    <use xlink:href="#rim"/>
    <path pointer-events="none" fill="none" stroke="white" stroke-width="1.5" d="M0,-3.0v7 M-2.5,-0.5L0,-3.0L2.5,-0.5"/>
  </g>
  <g id="arrowLeft" transform="rotate(270) translate(-36 17)">
    <use xlink:href="#rim"/>
    <path pointer-events="none" fill="none" stroke="white" stroke-width="1.5" d="M0,-3.0v7 M-2.5,-0.5L0,-3.0L2.5,-0.5"/>
  </g>
  <g id="resetDef">
    <use xlink:href="#rim2" fill="#404040"><set attributeName="fill" to="#808080" begin="reset.mouseover" end="reset.mouseout"/></use>
  </g>
</defs>
<script type="application/ecmascript">
var viewWidth = 1537;
var viewHeight = 456;
var sectionId = 'dynsection-0';
</script>
<script type="application/ecmascript" xlink:href="svg.min.js"/>
<svg id="graph" class="graph">
<g id="viewport">
<title>client/lib/core/aio/aio_mgr.c</title>
<!-- Node1 -->
<g id="Node000001" class="node">
<title>Node1</title>
<g id="a_Node000001"><a xlink:title=" ">
<polygon fill="#999999" stroke="#666666" points="1182.13,-448 1081.13,-448 1081.13,-418 1182.13,-418 1182.13,-448"/>
<text text-anchor="start" x="1089.13" y="-436" font-family="Helvetica,sans-Serif" font-size="10.00">client/lib/core/aio</text>
<text text-anchor="middle" x="1131.63" y="-425" font-family="Helvetica,sans-Serif" font-size="10.00">/aio_mgr.c</text>
</a>
</g>
</g>
<!-- Node2 -->
<g id="Node000002" class="node">
<title>Node2</title>
<g id="a_Node000002"><a xlink:href="client_2lib_2core_2aio_2aio_8h.html" target="_top" xlink:title=" ">
<polygon fill="white" stroke="#666666" points="976.13,-382 935.13,-382 935.13,-363 976.13,-363 976.13,-382"/>
<text text-anchor="middle" x="955.63" y="-370" font-family="Helvetica,sans-Serif" font-size="10.00">aio.h</text>
</a>
</g>
</g>
<!-- Node1&#45;&gt;Node2 -->
<g id="edge1_Node000001_Node000002" class="edge">
<title>Node1&#45;&gt;Node2</title>
<g id="a_edge1_Node000001_Node000002"><a xlink:title=" ">
<path fill="none" stroke="#63b8ff" d="M1089.48,-417.99C1057.6,-407.39 1014.58,-393.09 986.01,-383.6"/>
<polygon fill="#63b8ff" stroke="#63b8ff" points="986.78,-380.17 976.19,-380.33 984.57,-386.81 986.78,-380.17"/>
</a>
</g>
</g>
<!-- Node3 -->
<g id="Node000003" class="node">
<title>Node3</title>
<g id="a_Node000003"><a xlink:href="brix_8h.html" target="_top" xlink:title=" ">
<polygon fill="white" stroke="#666666" points="885.63,-327 841.63,-327 841.63,-308 885.63,-308 885.63,-327"/>
<text text-anchor="middle" x="863.63" y="-315" font-family="Helvetica,sans-Serif" font-size="10.00">brix.h</text>
</a>
</g>
</g>
<!-- Node1&#45;&gt;Node3 -->
<g id="edge30_Node000001_Node000003" class="edge">
<title>Node1&#45;&gt;Node3</title>
<g id="a_edge30_Node000001_Node000003"><a xlink:title=" ">
<path fill="none" stroke="#63b8ff" d="M1080.9,-427.6C1037.33,-422.04 974.08,-409.59 925.63,-382 905.23,-370.38 887.15,-350.1 875.86,-335.58"/>
<polygon fill="#63b8ff" stroke="#63b8ff" points="878.54,-333.32 869.74,-327.41 872.94,-337.52 878.54,-333.32"/>
</a>
</g>
</g>
<!-- Node6 -->
<g id="Node000006" class="node">
<title>Node6</title>
<g id="a_Node000006"><a xlink:title=" ">
<polygon fill="#e0e0e0" stroke="#999999" points="1118.63,-266.5 1068.63,-266.5 1068.63,-247.5 1118.63,-247.5 1118.63,-266.5"/>
<text text-anchor="middle" x="1093.63" y="-254.5" font-family="Helvetica,sans-Serif" font-size="10.00">stdio.h</text>
</a>
</g>
</g>
<!-- Node1&#45;&gt;Node6 -->
<g id="edge38_Node000001_Node000006" class="edge">
<title>Node1&#45;&gt;Node6</title>
<g id="a_edge38_Node000001_Node000006"><a xlink:title=" ">
<path fill="none" stroke="#63b8ff" d="M1127.28,-417.64C1124.34,-407.69 1120.49,-394.11 1117.63,-382 1108.88,-344.97 1100.97,-301.17 1096.78,-276.79"/>
<polygon fill="#63b8ff" stroke="#63b8ff" points="1100.2,-276.05 1095.08,-266.77 1093.3,-277.22 1100.2,-276.05"/>
</a>
</g>
</g>
<!-- Node7 -->
<g id="Node000007" class="node">
<title>Node7</title>
<g id="a_Node000007"><a xlink:href="time_8h.html" target="_top" xlink:title=" ">
<polygon fill="white" stroke="#666666" points="1032.63,-266.5 984.63,-266.5 984.63,-247.5 1032.63,-247.5 1032.63,-266.5"/>
<text text-anchor="middle" x="1008.63" y="-254.5" font-family="Helvetica,sans-Serif" font-size="10.00">time.h</text>
</a>
</g>
</g>
<!-- Node1&#45;&gt;Node7 -->
<g id="edge39_Node000001_Node000007" class="edge">
<title>Node1&#45;&gt;Node7</title>
<g id="a_edge39_Node000001_Node000007"><a xlink:title=" ">
<path fill="none" stroke="#63b8ff" d="M1121.57,-417.76C1099.12,-386.01 1045.04,-309.5 1020.77,-275.18"/>
<polygon fill="#63b8ff" stroke="#63b8ff" points="1023.4,-272.83 1014.77,-266.68 1017.69,-276.87 1023.4,-272.83"/>
</a>
</g>
</g>
<!-- Node9 -->
<g id="Node000009" class="node">
<title>Node9</title>
<g id="a_Node000009"><a xlink:href="protocol_8h.html" target="_top" xlink:title=" ">
<polygon fill="white" stroke="#666666" points="551.13,-272 424.13,-272 424.13,-242 551.13,-242 551.13,-272"/>
<text text-anchor="start" x="432.13" y="-260" font-family="Helvetica,sans-Serif" font-size="10.00">protocols/root/protocol</text>
<text text-anchor="middle" x="487.63" y="-249" font-family="Helvetica,sans-Serif" font-size="10.00">/protocol.h</text>
</a>
</g>
</g>
<!-- Node1&#45;&gt;Node9 -->
<g id="edge31_Node000001_Node000009" class="edge">
<title>Node1&#45;&gt;Node9</title>
<g id="a_edge31_Node000001_Node000009"><a xlink:title=" ">
<path fill="none" stroke="#63b8ff" d="M1080.92,-422.5C1033.13,-413.24 959.65,-398.23 896.63,-382 767.01,-348.62 616.97,-300.71 539.66,-275.32"/>
<polygon fill="#63b8ff" stroke="#63b8ff" points="540.29,-271.84 529.69,-272.04 538.1,-278.49 540.29,-271.84"/>
</a>
</g>
</g>
<!-- Node22 -->
<g id="Node000022" class="node">
<title>Node22</title>
<g id="a_Node000022"><a xlink:href="codec__core_8h.html" target="_top" xlink:title=" ">
<polygon fill="white" stroke="#666666" points="1166.63,-200.5 1022.63,-200.5 1022.63,-181.5 1166.63,-181.5 1166.63,-200.5"/>
<text text-anchor="middle" x="1094.63" y="-188.5" font-family="Helvetica,sans-Serif" font-size="10.00">core/compat/codec_core.h</text>
</a>
</g>
</g>
<!-- Node1&#45;&gt;Node22 -->
<g id="edge32_Node000001_Node000022" class="edge">
<title>Node1&#45;&gt;Node22</title>
<g id="a_edge32_Node000001_Node000022"><a xlink:title=" ">
<path fill="none" stroke="#63b8ff" d="M1133.96,-417.75C1138.67,-385.53 1147.27,-305 1127.63,-242 1123.83,-229.81 1116.09,-217.81 1109.06,-208.63"/>
<polygon fill="#63b8ff" stroke="#63b8ff" points="1111.7,-206.33 1102.69,-200.77 1106.26,-210.74 1111.7,-206.33"/>
</a>
</g>
</g>
<!-- Node23 -->
<g id="Node000023" class="node">
<title>Node23</title>
<g id="a_Node000023"><a xlink:title=" ">
<polygon fill="#e0e0e0" stroke="#999999" points="1223.13,-382 1160.13,-382 1160.13,-363 1223.13,-363 1223.13,-382"/>
<text text-anchor="middle" x="1191.63" y="-370" font-family="Helvetica,sans-Serif" font-size="10.00">pthread.h</text>
</a>
</g>
</g>
<!-- Node1&#45;&gt;Node23 -->
<g id="edge35_Node000001_Node000023" class="edge">
<title>Node1&#45;&gt;Node23</title>
<g id="a_edge35_Node000001_Node000023"><a xlink:title=" ">
<path fill="none" stroke="#63b8ff" d="M1146.16,-417.84C1154.96,-409.26 1166.2,-398.3 1175.31,-389.42"/>
<polygon fill="#63b8ff" stroke="#63b8ff" points="1177.93,-391.75 1182.64,-382.27 1173.04,-386.74 1177.93,-391.75"/>
</a>
</g>
</g>
<!-- Node24 -->
<g id="Node000024" class="node">
<title>Node24</title>
<g id="a_Node000024"><a xlink:title=" ">
<polygon fill="#e0e0e0" stroke="#999999" points="1294.13,-382 1241.13,-382 1241.13,-363 1294.13,-363 1294.13,-382"/>
<text text-anchor="middle" x="1267.63" y="-370" font-family="Helvetica,sans-Serif" font-size="10.00">stdlib.h</text>
</a>
</g>
</g>
<!-- Node1&#45;&gt;Node24 -->
<g id="edge36_Node000001_Node000024" class="edge">
<title>Node1&#45;&gt;Node24</title>
<g id="a_edge36_Node000001_Node000024"><a xlink:title=" ">
<path fill="none" stroke="#63b8ff" d="M1164.21,-417.99C1186.7,-408.31 1216.36,-395.56 1238.15,-386.18"/>
<polygon fill="#63b8ff" stroke="#63b8ff" points="1239.75,-389.31 1247.55,-382.14 1236.98,-382.88 1239.75,-389.31"/>
</a>
</g>
</g>
<!-- Node25 -->
<g id="Node000025" class="node">
<title>Node25</title>
<g id="a_Node000025"><a xlink:title=" ">
<polygon fill="#e0e0e0" stroke="#999999" points="1365.13,-382 1312.13,-382 1312.13,-363 1365.13,-363 1365.13,-382"/>
<text text-anchor="middle" x="1338.63" y="-370" font-family="Helvetica,sans-Serif" font-size="10.00">string.h</text>
</a>
</g>
</g>
<!-- Node1&#45;&gt;Node25 -->
<g id="edge37_Node000001_Node000025" class="edge">
<title>Node1&#45;&gt;Node25</title>
<g id="a_edge37_Node000001_Node000025"><a xlink:title=" ">
<path fill="none" stroke="#63b8ff" d="M1181.21,-417.99C1218.39,-407.48 1268.45,-393.33 1302.05,-383.84"/>
<polygon fill="#63b8ff" stroke="#63b8ff" points="1303.24,-387.14 1311.91,-381.05 1301.34,-380.4 1303.24,-387.14"/>
</a>
</g>
</g>
<!-- Node26 -->
<g id="Node000026" class="node">
<title>Node26</title>
<g id="a_Node000026"><a xlink:title=" ">
<polygon fill="#e0e0e0" stroke="#999999" points="1452.13,-382 1383.13,-382 1383.13,-363 1452.13,-363 1452.13,-382"/>
<text text-anchor="middle" x="1417.63" y="-370" font-family="Helvetica,sans-Serif" font-size="10.00">arpa/inet.h</text>
</a>
</g>
</g>
<!-- Node1&#45;&gt;Node26 -->
<g id="edge40_Node000001_Node000026" class="edge">
<title>Node1&#45;&gt;Node26</title>
<g id="a_edge40_Node000001_Node000026"><a xlink:title=" ">
<path fill="none" stroke="#63b8ff" d="M1182.43,-421.61C1236.61,-410.53 1321.56,-393.15 1373.17,-382.59"/>
<polygon fill="#63b8ff" stroke="#63b8ff" points="1373.94,-386.01 1383.03,-380.58 1372.53,-379.15 1373.94,-386.01"/>
</a>
</g>
</g>
<!-- Node27 -->
<g id="Node000027" class="node">
<title>Node27</title>
<g id="a_Node000027"><a xlink:title=" ">
<polygon fill="#e0e0e0" stroke="#999999" points="1529.13,-382 1470.13,-382 1470.13,-363 1529.13,-363 1529.13,-382"/>
<text text-anchor="middle" x="1499.63" y="-370" font-family="Helvetica,sans-Serif" font-size="10.00">endian.h</text>
</a>
</g>
</g>
<!-- Node1&#45;&gt;Node27 -->
<g id="edge41_Node000001_Node000027" class="edge">
<title>Node1&#45;&gt;Node27</title>
<g id="a_edge41_Node000001_Node000027"><a xlink:title=" ">
<path fill="none" stroke="#63b8ff" d="M1182.13,-425.46C1245.01,-417.08 1355.9,-401.48 1459.77,-382.25"/>
<polygon fill="#63b8ff" stroke="#63b8ff" points="1460.61,-385.65 1469.8,-380.38 1459.33,-378.77 1460.61,-385.65"/>
</a>
</g>
</g>
<!-- Node2&#45;&gt;Node3 -->
<g id="edge2_Node000002_Node000003" class="edge">
<title>Node2&#45;&gt;Node3</title>
<g id="a_edge2_Node000002_Node000003"><a xlink:title=" ">
<path fill="none" stroke="#63b8ff" d="M940.85,-362.98C926.45,-354.69 904.32,-341.94 887.44,-332.22"/>
<polygon fill="#63b8ff" stroke="#63b8ff" points="889.1,-329.13 878.68,-327.17 885.6,-335.19 889.1,-329.13"/>
</a>
</g>
</g>
<!-- Node4 -->
<g id="Node000004" class="node">
<title>Node4</title>
<g id="a_Node000004"><a xlink:title=" ">
<polygon fill="#e0e0e0" stroke="#999999" points="858.13,-19 805.13,-19 805.13,0 858.13,0 858.13,-19"/>
<text text-anchor="middle" x="831.63" y="-7" font-family="Helvetica,sans-Serif" font-size="10.00">stdint.h</text>
</a>
</g>
</g>
<!-- Node3&#45;&gt;Node4 -->
<g id="edge3_Node000003_Node000004" class="edge">
<title>Node3&#45;&gt;Node4</title>
<g id="a_edge3_Node000003_Node000004"><a xlink:title=" ">
<path fill="none" stroke="#63b8ff" d="M872.39,-307.74C880.36,-299.28 891.89,-285.77 898.63,-272 914.76,-239.09 918.63,-228.65 918.63,-192 918.63,-192 918.63,-192 918.63,-124 918.63,-80.95 878.72,-44.15 852.96,-24.88"/>
<polygon fill="#63b8ff" stroke="#63b8ff" points="855.01,-22.04 844.85,-19.03 850.91,-27.72 855.01,-22.04"/>
</a>
</g>
</g>
<!-- Node5 -->
<g id="Node000005" class="node">
<title>Node5</title>
<g id="a_Node000005"><a xlink:title=" ">
<polygon fill="#e0e0e0" stroke="#999999" points="1012.63,-134.5 956.63,-134.5 956.63,-115.5 1012.63,-115.5 1012.63,-134.5"/>
<text text-anchor="middle" x="984.63" y="-122.5" font-family="Helvetica,sans-Serif" font-size="10.00">stddef.h</text>
</a>
</g>
</g>
<!-- Node3&#45;&gt;Node5 -->
<g id="edge4_Node000003_Node000005" class="edge">
<title>Node3&#45;&gt;Node5</title>
<g id="a_edge4_Node000003_Node000005"><a xlink:title=" ">
<path fill="none" stroke="#63b8ff" d="M883.74,-307.95C899.08,-300.49 919.71,-288.31 932.63,-272 963.45,-233.1 976.86,-174.47 981.94,-144.73"/>
<polygon fill="#63b8ff" stroke="#63b8ff" points="985.4,-145.27 983.5,-134.85 978.48,-144.18 985.4,-145.27"/>
</a>
</g>
</g>
<!-- Node3&#45;&gt;Node6 -->
<g id="edge5_Node000003_Node000006" class="edge">
<title>Node3&#45;&gt;Node6</title>
<g id="a_edge5_Node000003_Node000006"><a xlink:title=" ">
<path fill="none" stroke="#63b8ff" d="M885.71,-312.74C922.33,-306.22 997.76,-291.61 1059.63,-272 1061.31,-271.47 1063.01,-270.89 1064.73,-270.28"/>
<polygon fill="#63b8ff" stroke="#63b8ff" points="1066.34,-273.41 1074.42,-266.57 1063.83,-266.88 1066.34,-273.41"/>
</a>
</g>
</g>
<!-- Node3&#45;&gt;Node7 -->
<g id="edge6_Node000003_Node000007" class="edge">
<title>Node3&#45;&gt;Node7</title>
<g id="a_edge6_Node000003_Node000007"><a xlink:title=" ">
<path fill="none" stroke="#63b8ff" d="M884.72,-307.99C909.31,-298.07 950.16,-281.59 978.19,-270.28"/>
<polygon fill="#63b8ff" stroke="#63b8ff" points="979.56,-273.5 987.52,-266.52 976.94,-267.01 979.56,-273.5"/>
</a>
</g>
</g>
<!-- Node8 -->
<g id="Node000008" class="node">
<title>Node8</title>
<g id="a_Node000008"><a xlink:title=" ">
<polygon fill="#e0e0e0" stroke="#999999" points="678.63,-134.5 606.63,-134.5 606.63,-115.5 678.63,-115.5 678.63,-134.5"/>
<text text-anchor="middle" x="642.63" y="-122.5" font-family="Helvetica,sans-Serif" font-size="10.00">sys/types.h</text>
</a>
</g>
</g>
<!-- Node3&#45;&gt;Node8 -->
<g id="edge9_Node000003_Node000008" class="edge">
<title>Node3&#45;&gt;Node8</title>
<g id="a_edge9_Node000003_Node000008"><a xlink:title=" ">
<path fill="none" stroke="#63b8ff" d="M841.32,-314.97C789.7,-311 664.02,-298.77 632.63,-272 599.17,-243.46 595.7,-218.03 608.63,-176 612.42,-163.68 620.4,-151.68 627.67,-142.52"/>
<polygon fill="#63b8ff" stroke="#63b8ff" points="630.5,-144.6 634.27,-134.7 625.15,-140.09 630.5,-144.6"/>
</a>
</g>
</g>
<!-- Node3&#45;&gt;Node9 -->
<g id="edge10_Node000003_Node000009" class="edge">
<title>Node3&#45;&gt;Node9</title>
<g id="a_edge10_Node000003_Node000009"><a xlink:title=" ">
<path fill="none" stroke="#63b8ff" d="M841.56,-313.27C792.7,-306.1 671.73,-288.2 570.63,-272 567.63,-271.52 564.56,-271.02 561.47,-270.52"/>
<polygon fill="#63b8ff" stroke="#63b8ff" points="561.94,-267.05 551.51,-268.88 560.81,-273.96 561.94,-267.05"/>
</a>
</g>
</g>
<!-- Node17 -->
<g id="Node000017" class="node">
<title>Node17</title>
<g id="a_Node000017"><a xlink:href="wire__codec_8h.html" target="_top" xlink:title=" ">
<polygon fill="white" stroke="#666666" points="745.13,-206 618.13,-206 618.13,-176 745.13,-176 745.13,-206"/>
<text text-anchor="start" x="626.13" y="-194" font-family="Helvetica,sans-Serif" font-size="10.00">protocols/root/protocol</text>
<text text-anchor="middle" x="681.63" y="-183" font-family="Helvetica,sans-Serif" font-size="10.00">/codec/wire_codec.h</text>
</a>
</g>
</g>
<!-- Node3&#45;&gt;Node17 -->
<g id="edge26_Node000003_Node000017" class="edge">
<title>Node3&#45;&gt;Node17</title>
<g id="a_edge26_Node000003_Node000017"><a xlink:title=" ">
<path fill="none" stroke="#63b8ff" d="M841.53,-315.49C790.47,-312.66 666.8,-302.71 641.63,-272 627.12,-254.29 642.59,-230.45 658.32,-213.41"/>
<polygon fill="#63b8ff" stroke="#63b8ff" points="660.97,-215.7 665.46,-206.11 655.97,-210.81 660.97,-215.7"/>
</a>
</g>
</g>
<!-- Node19 -->
<g id="Node000019" class="node">
<title>Node19</title>
<g id="a_Node000019"><a xlink:href="brix__net_8h.html" target="_top" xlink:title=" ">
<polygon fill="white" stroke="#666666" points="716.13,-266.5 651.13,-266.5 651.13,-247.5 716.13,-247.5 716.13,-266.5"/>
<text text-anchor="middle" x="683.63" y="-254.5" font-family="Helvetica,sans-Serif" font-size="10.00">brix_net.h</text>
</a>
</g>
</g>
<!-- Node3&#45;&gt;Node19 -->
<g id="edge27_Node000003_Node000019" class="edge">
<title>Node3&#45;&gt;Node19</title>
<g id="a_edge27_Node000003_Node000019"><a xlink:title=" ">
<path fill="none" stroke="#63b8ff" d="M841.44,-309.54C813.97,-300.89 765.77,-285.61 724.63,-272 722.4,-271.26 720.11,-270.5 717.8,-269.72"/>
<polygon fill="#63b8ff" stroke="#63b8ff" points="718.92,-266.41 708.32,-266.52 716.68,-273.04 718.92,-266.41"/>
</a>
</g>
</g>
<!-- Node20 -->
<g id="Node000020" class="node">
<title>Node20</title>
<g id="a_Node000020"><a xlink:href="brix__auth_8h.html" target="_top" xlink:title=" ">
<polygon fill="white" stroke="#666666" points="805.13,-266.5 734.13,-266.5 734.13,-247.5 805.13,-247.5 805.13,-266.5"/>
<text text-anchor="middle" x="769.63" y="-254.5" font-family="Helvetica,sans-Serif" font-size="10.00">brix_auth.h</text>
</a>
</g>
</g>
<!-- Node3&#45;&gt;Node20 -->
<g id="edge28_Node000003_Node000020" class="edge">
<title>Node3&#45;&gt;Node20</title>
<g id="a_edge28_Node000003_Node000020"><a xlink:title=" ">
<path fill="none" stroke="#63b8ff" d="M849.76,-307.87C834.63,-298.45 810.17,-283.23 792.25,-272.08"/>
<polygon fill="#63b8ff" stroke="#63b8ff" points="793.9,-268.98 783.56,-266.67 790.2,-274.92 793.9,-268.98"/>
</a>
</g>
</g>
<!-- Node21 -->
<g id="Node000021" class="node">
<title>Node21</title>
<g id="a_Node000021"><a xlink:href="brix__ops_8h.html" target="_top" xlink:title=" ">
<polygon fill="white" stroke="#666666" points="890.13,-266.5 823.13,-266.5 823.13,-247.5 890.13,-247.5 890.13,-266.5"/>
<text text-anchor="middle" x="856.63" y="-254.5" font-family="Helvetica,sans-Serif" font-size="10.00">brix_ops.h</text>
</a>
</g>
</g>
<!-- Node3&#45;&gt;Node21 -->
<g id="edge29_Node000003_Node000021" class="edge">
<title>Node3&#45;&gt;Node21</title>
<g id="a_edge29_Node000003_Node000021"><a xlink:title=" ">
<path fill="none" stroke="#63b8ff" d="M862.6,-307.87C861.63,-299.75 860.14,-287.31 858.89,-276.89"/>
<polygon fill="#63b8ff" stroke="#63b8ff" points="862.33,-276.18 857.67,-266.67 855.38,-277.01 862.33,-276.18"/>
</a>
</g>
</g>
<!-- Node7&#45;&gt;Node5 -->
<g id="edge7_Node000007_Node000005" class="edge">
<title>Node7&#45;&gt;Node5</title>
<g id="a_edge7_Node000007_Node000005"><a xlink:title=" ">
<path fill="none" stroke="#63b8ff" d="M1007.06,-247.47C1003.23,-226.73 993.36,-173.24 988.08,-144.66"/>
<polygon fill="#63b8ff" stroke="#63b8ff" points="991.5,-143.93 986.25,-134.73 984.62,-145.2 991.5,-143.93"/>
</a>
</g>
</g>
<!-- Node7&#45;&gt;Node7 -->
<g id="edge8_Node000007_Node000007" class="edge">
<title>Node7&#45;&gt;Node7</title>
<g id="a_edge8_Node000007_Node000007"><a xlink:title=" ">
<path fill="none" stroke="#63b8ff" d="M1024.14,-266.53C1037.1,-270.61 1050.63,-267.43 1050.63,-257 1050.63,-249.26 1043.18,-245.51 1034.04,-245.76"/>
<polygon fill="#63b8ff" stroke="#63b8ff" points="1033.4,-242.32 1024.14,-247.47 1034.59,-249.22 1033.4,-242.32"/>
</a>
</g>
</g>
<!-- Node10 -->
<g id="Node000010" class="node">
<title>Node10</title>
<g id="a_Node000010"><a xlink:href="types_8h.html" target="_top" xlink:title=" ">
<polygon fill="white" stroke="#666666" points="101.13,-74 48.13,-74 48.13,-55 101.13,-55 101.13,-74"/>
<text text-anchor="middle" x="74.63" y="-62" font-family="Helvetica,sans-Serif" font-size="10.00">types.h</text>
</a>
</g>
</g>
<!-- Node9&#45;&gt;Node10 -->
<g id="edge11_Node000009_Node000010" class="edge">
<title>Node9&#45;&gt;Node10</title>
<g id="a_edge11_Node000009_Node000010"><a xlink:title=" ">
<path fill="none" stroke="#63b8ff" d="M424.03,-250.44C305,-238.54 56.01,-206.17 5.63,-140 -2.44,-129.39 -0.75,-121.71 5.63,-110 13.28,-95.97 27.47,-85.69 41,-78.57"/>
<polygon fill="#63b8ff" stroke="#63b8ff" points="42.69,-81.64 50.17,-74.14 39.64,-75.34 42.69,-81.64"/>
</a>
</g>
</g>
<!-- Node11 -->
<g id="Node000011" class="node">
<title>Node11</title>
<g id="a_Node000011"><a xlink:href="opcodes_8h.html" target="_top" xlink:title=" ">
<polygon fill="white" stroke="#666666" points="321.63,-74 255.63,-74 255.63,-55 321.63,-55 321.63,-74"/>
<text text-anchor="middle" x="288.63" y="-62" font-family="Helvetica,sans-Serif" font-size="10.00">opcodes.h</text>
</a>
</g>
</g>
<!-- Node9&#45;&gt;Node11 -->
<g id="edge13_Node000009_Node000011" class="edge">
<title>Node9&#45;&gt;Node11</title>
<g id="a_edge13_Node000009_Node000011"><a xlink:title=" ">
<path fill="none" stroke="#63b8ff" d="M473.09,-241.68C464.03,-232.18 452.63,-219.09 444.63,-206 420.64,-166.69 438.56,-142.2 405.63,-110 385.56,-90.37 355.95,-79.22 331.54,-72.99"/>
<polygon fill="#63b8ff" stroke="#63b8ff" points="332.32,-69.58 321.78,-70.69 330.71,-76.39 332.32,-69.58"/>
</a>
</g>
</g>
<!-- Node12 -->
<g id="Node000012" class="node">
<title>Node12</title>
<g id="a_Node000012"><a xlink:href="flags_8h.html" target="_top" xlink:title=" ">
<polygon fill="white" stroke="#666666" points="503.13,-200.5 454.13,-200.5 454.13,-181.5 503.13,-181.5 503.13,-200.5"/>
<text text-anchor="middle" x="478.63" y="-188.5" font-family="Helvetica,sans-Serif" font-size="10.00">flags.h</text>
</a>
</g>
</g>
<!-- Node9&#45;&gt;Node12 -->
<g id="edge14_Node000009_Node000012" class="edge">
<title>Node9&#45;&gt;Node12</title>
<g id="a_edge14_Node000009_Node000012"><a xlink:title=" ">
<path fill="none" stroke="#63b8ff" d="M485.64,-241.8C484.36,-232.7 482.68,-220.79 481.29,-210.9"/>
<polygon fill="#63b8ff" stroke="#63b8ff" points="484.74,-210.26 479.88,-200.84 477.8,-211.23 484.74,-210.26"/>
</a>
</g>
</g>
<!-- Node13 -->
<g id="Node000013" class="node">
<title>Node13</title>
<g id="a_Node000013"><a xlink:href="wire_8h.html" target="_top" xlink:title=" ">
<polygon fill="white" stroke="#666666" points="301.13,-200.5 254.13,-200.5 254.13,-181.5 301.13,-181.5 301.13,-200.5"/>
<text text-anchor="middle" x="277.63" y="-188.5" font-family="Helvetica,sans-Serif" font-size="10.00">wire.h</text>
</a>
</g>
</g>
<!-- Node9&#45;&gt;Node13 -->
<g id="edge15_Node000009_Node000013" class="edge">
<title>Node9&#45;&gt;Node13</title>
<g id="a_edge15_Node000009_Node000013"><a xlink:title=" ">
<path fill="none" stroke="#63b8ff" d="M441.55,-241.95C402.1,-229.93 346.24,-212.91 310.99,-202.17"/>
<polygon fill="#63b8ff" stroke="#63b8ff" points="311.77,-198.75 301.19,-199.18 309.73,-205.44 311.77,-198.75"/>
</a>
</g>
</g>
<!-- Node9&#45;&gt;Node17 -->
<g id="edge21_Node000009_Node000017" class="edge">
<title>Node9&#45;&gt;Node17</title>
<g id="a_edge21_Node000009_Node000017"><a xlink:title=" ">
<path fill="none" stroke="#63b8ff" d="M530.21,-241.95C559.39,-232.33 598.3,-219.49 629.37,-209.24"/>
<polygon fill="#63b8ff" stroke="#63b8ff" points="630.76,-212.47 639.16,-206.01 628.57,-205.82 630.76,-212.47"/>
</a>
</g>
</g>
<!-- Node18 -->
<g id="Node000018" class="node">
<title>Node18</title>
<g id="a_Node000018"><a xlink:href="gsi_8h.html" target="_top" xlink:title=" ">
<polygon fill="white" stroke="#666666" points="561.63,-200.5 521.63,-200.5 521.63,-181.5 561.63,-181.5 561.63,-200.5"/>
<text text-anchor="middle" x="541.63" y="-188.5" font-family="Helvetica,sans-Serif" font-size="10.00">gsi.h</text>
</a>
</g>
</g>
<!-- Node9&#45;&gt;Node18 -->
<g id="edge25_Node000009_Node000018" class="edge">
<title>Node9&#45;&gt;Node18</title>
<g id="a_edge25_Node000009_Node000018"><a xlink:title=" ">
<path fill="none" stroke="#63b8ff" d="M499.62,-241.8C507.87,-232.01 518.87,-218.98 527.54,-208.7"/>
<polygon fill="#63b8ff" stroke="#63b8ff" points="530.4,-210.74 534.17,-200.84 525.05,-206.23 530.4,-210.74"/>
</a>
</g>
</g>
<!-- Node10&#45;&gt;Node4 -->
<g id="edge12_Node000010_Node000004" class="edge">
<title>Node10&#45;&gt;Node4</title>
<g id="a_edge12_Node000010_Node000004"><a xlink:title=" ">
<path fill="none" stroke="#63b8ff" d="M101.58,-61.61C216.2,-53.59 663.46,-22.27 795.03,-13.06"/>
<polygon fill="#63b8ff" stroke="#63b8ff" points="795.28,-16.55 805.01,-12.36 794.79,-9.57 795.28,-16.55"/>
</a>
</g>
</g>
<!-- Node14 -->
<g id="Node000014" class="node">
<title>Node14</title>
<g id="a_Node000014"><a xlink:href="wire__core__requests_8h.html" target="_top" xlink:title=" ">
<polygon fill="white" stroke="#666666" points="134.63,-134.5 14.63,-134.5 14.63,-115.5 134.63,-115.5 134.63,-134.5"/>
<text text-anchor="middle" x="74.63" y="-122.5" font-family="Helvetica,sans-Serif" font-size="10.00">wire_core_requests.h</text>
</a>
</g>
</g>
<!-- Node13&#45;&gt;Node14 -->
<g id="edge16_Node000013_Node000014" class="edge">
<title>Node13&#45;&gt;Node14</title>
<g id="a_edge16_Node000013_Node000014"><a xlink:title=" ">
<path fill="none" stroke="#63b8ff" d="M253.95,-182.53C218.88,-171.48 152.82,-150.65 111.42,-137.6"/>
<polygon fill="#63b8ff" stroke="#63b8ff" points="112.3,-134.2 101.71,-134.54 110.19,-140.88 112.3,-134.2"/>
</a>
</g>
</g>
<!-- Node15 -->
<g id="Node000015" class="node">
<title>Node15</title>
<g id="a_Node000015"><a xlink:href="wire__write__extended__requests_8h.html" target="_top" xlink:title=" ">
<polygon fill="white" stroke="#666666" points="272.13,-140 153.13,-140 153.13,-110 272.13,-110 272.13,-140"/>
<text text-anchor="start" x="161.13" y="-128" font-family="Helvetica,sans-Serif" font-size="10.00">wire_write_extended</text>
<text text-anchor="middle" x="212.63" y="-117" font-family="Helvetica,sans-Serif" font-size="10.00">_requests.h</text>
</a>
</g>
</g>
<!-- Node13&#45;&gt;Node15 -->
<g id="edge19_Node000013_Node000015" class="edge">
<title>Node13&#45;&gt;Node15</title>
<g id="a_edge19_Node000013_Node000015"><a xlink:title=" ">
<path fill="none" stroke="#63b8ff" d="M268.87,-181.37C260.11,-172.75 246.3,-159.15 234.56,-147.59"/>
<polygon fill="#63b8ff" stroke="#63b8ff" points="236.8,-144.88 227.22,-140.36 231.89,-149.87 236.8,-144.88"/>
</a>
</g>
</g>
<!-- Node16 -->
<g id="Node000016" class="node">
<title>Node16</title>
<g id="a_Node000016"><a xlink:href="wire__vendor__ext_8h.html" target="_top" xlink:title=" ">
<polygon fill="white" stroke="#666666" points="397.13,-134.5 290.13,-134.5 290.13,-115.5 397.13,-115.5 397.13,-134.5"/>
<text text-anchor="middle" x="343.63" y="-122.5" font-family="Helvetica,sans-Serif" font-size="10.00">wire_vendor_ext.h</text>
</a>
</g>
</g>
<!-- Node13&#45;&gt;Node16 -->
<g id="edge20_Node000013_Node000016" class="edge">
<title>Node13&#45;&gt;Node16</title>
<g id="a_edge20_Node000013_Node000016"><a xlink:title=" ">
<path fill="none" stroke="#63b8ff" d="M286.53,-181.37C296.91,-171.31 314.27,-154.48 327.13,-142.01"/>
<polygon fill="#63b8ff" stroke="#63b8ff" points="329.71,-144.38 334.45,-134.91 324.83,-139.35 329.71,-144.38"/>
</a>
</g>
</g>
<!-- Node14&#45;&gt;Node10 -->
<g id="edge17_Node000014_Node000010" class="edge">
<title>Node14&#45;&gt;Node10</title>
<g id="a_edge17_Node000014_Node000010"><a xlink:title=" ">
<path fill="none" stroke="#63b8ff" d="M74.63,-115.37C74.63,-107.25 74.63,-94.81 74.63,-84.39"/>
<polygon fill="#63b8ff" stroke="#63b8ff" points="78.13,-84.17 74.63,-74.17 71.13,-84.17 78.13,-84.17"/>
</a>
</g>
</g>
<!-- Node14&#45;&gt;Node11 -->
<g id="edge18_Node000014_Node000011" class="edge">
<title>Node14&#45;&gt;Node11</title>
<g id="a_edge18_Node000014_Node000011"><a xlink:title=" ">
<path fill="none" stroke="#63b8ff" d="M105.75,-115.49C143.23,-105.25 206.31,-88 247.71,-76.69"/>
<polygon fill="#63b8ff" stroke="#63b8ff" points="248.76,-80.03 257.48,-74.02 246.91,-73.28 248.76,-80.03"/>
</a>
</g>
</g>
<!-- Node17&#45;&gt;Node4 -->
<g id="edge22_Node000017_Node000004" class="edge">
<title>Node17&#45;&gt;Node4</title>
<g id="a_edge22_Node000017_Node000004"><a xlink:title=" ">
<path fill="none" stroke="#63b8ff" d="M693.4,-175.91C720.78,-143.15 788.63,-61.97 817.86,-26.98"/>
<polygon fill="#63b8ff" stroke="#63b8ff" points="820.69,-29.05 824.42,-19.13 815.32,-24.56 820.69,-29.05"/>
</a>
</g>
</g>
<!-- Node17&#45;&gt;Node5 -->
<g id="edge23_Node000017_Node000005" class="edge">
<title>Node17&#45;&gt;Node5</title>
<g id="a_edge23_Node000017_Node000005"><a xlink:title=" ">
<path fill="none" stroke="#63b8ff" d="M745.15,-176.58C806.03,-163.72 895.92,-144.74 946.48,-134.06"/>
<polygon fill="#63b8ff" stroke="#63b8ff" points="947.29,-137.47 956.35,-131.97 945.84,-130.62 947.29,-137.47"/>
</a>
</g>
</g>
<!-- Node17&#45;&gt;Node8 -->
<g id="edge24_Node000017_Node000008" class="edge">
<title>Node17&#45;&gt;Node8</title>
<g id="a_edge24_Node000017_Node000008"><a xlink:title=" ">
<path fill="none" stroke="#63b8ff" d="M672.98,-175.8C667.2,-166.31 659.55,-153.76 653.38,-143.63"/>
<polygon fill="#63b8ff" stroke="#63b8ff" points="656.22,-141.56 648.02,-134.84 650.24,-145.21 656.22,-141.56"/>
</a>
</g>
</g>
<!-- Node22&#45;&gt;Node4 -->
<g id="edge34_Node000022_Node000004" class="edge">
<title>Node22&#45;&gt;Node4</title>
<g id="a_edge34_Node000022_Node000004"><a xlink:title=" ">
<path fill="none" stroke="#63b8ff" d="M1088.06,-181.34C1076.02,-165.83 1049.13,-132.8 1021.63,-110 972.75,-69.46 904.67,-38.78 864.67,-22.81"/>
<polygon fill="#63b8ff" stroke="#63b8ff" points="865.72,-19.46 855.13,-19.07 863.17,-25.98 865.72,-19.46"/>
</a>
</g>
</g>
<!-- Node22&#45;&gt;Node5 -->
<g id="edge33_Node000022_Node000005" class="edge">
<title>Node22&#45;&gt;Node5</title>
<g id="a_edge33_Node000022_Node000005"><a xlink:title=" ">
<path fill="none" stroke="#63b8ff" d="M1079.8,-181.37C1061.51,-170.73 1030.2,-152.51 1008.51,-139.89"/>
<polygon fill="#63b8ff" stroke="#63b8ff" points="1009.99,-136.7 999.58,-134.7 1006.47,-142.75 1009.99,-136.7"/>
</a>
</g>
</g>
</g>
</svg>

<g id="navigator" transform="translate(0 0)" fill="#404254">
  <rect fill="#f2f5e9" fill-opacity="0.5" stroke="#606060" stroke-width=".5" x="0" y="0" width="60" height="60"/>
  <use id="zoomplus" xlink:href="#zoomPlus" x="17" y="9" onmousedown="handleZoom(evt,'in')"/>
  <use id="zoomminus" xlink:href="#zoomMin" x="42" y="9" onmousedown="handleZoom(evt,'out')"/>
  <use id="reset" xlink:href="#resetDef" x="30" y="36" onmousedown="handleReset()"/>
   <use id="arrowup" xlink:href="#arrowUp" x="0" y="0" onmousedown="handlePan(0,-1)"/>
  <use id="arrowright" xlink:href="#arrowRight" x="0" y="0" onmousedown="handlePan(1,0)"/>
  <use id="arrowdown" xlink:href="#arrowDown" x="0" y="0" onmousedown="handlePan(0,1)"/>
  <use id="arrowleft" xlink:href="#arrowLeft" x="0" y="0" onmousedown="handlePan(-1,0)"/>
</g>
<svg viewBox="0 0 15 15" width="100%" height="30px" preserveAspectRatio="xMaxYMin meet">
 <g id="arrow_out" transform="scale(0.3 0.3)">
  <a xlink:href="aio__mgr_8c__incl_org.svg" target="_base">
   <rect id="button" ry="5" rx="5" y="6" x="6" height="38" width="38"
        fill="#f2f5e9" fill-opacity="0.5" stroke="#606060" stroke-width="1.0"/>
   <path id="arrow"
     d="M 11.500037,31.436501 C 11.940474,20.09759 22.043105,11.32322 32.158766,21.979434 L 37.068811,17.246167 C 37.068811,17.246167 37.088388,32 37.088388,32 L 22.160133,31.978069 C 22.160133,31.978069 26.997745,27.140456 26.997745,27.140456 C 18.528582,18.264221 13.291696,25.230495 11.500037,31.436501 z"
     style="fill:#404040;"/>
  </a>
 </g>
</svg>

<style type='text/css'>
<![CDATA[
[data-mouse-over-selected='false'] { opacity: 0.7; }
[data-mouse-over-selected='true']  { opacity: 1.0; }
]]>
</style>
<script type="application/ecmascript"><![CDATA[
document.addEventListener('DOMContentLoaded', (event) => {
  highlightEdges();
  highlightAdjacentNodes();
});
]]></script>
</svg>
