<?xml version="1.0" encoding="UTF-8" standalone="no"?>
<!DOCTYPE svg PUBLIC "-//W3C//DTD SVG 1.1//EN"
 "http://www.w3.org/Graphics/SVG/1.1/DTD/svg11.dtd">
<!-- Generated by graphviz version 2.43.0 (0)
 -->
<!-- Title: client/lib/core/aio/aio_internal.h Pages: 1 -->
<svg width="585pt" height="104pt"
 viewBox="0.00 0.00 585.00 104.00" xmlns="http://www.w3.org/2000/svg" xmlns:xlink="http://www.w3.org/1999/xlink">
<g id="graph0" class="graph" transform="scale(1 1) rotate(0) translate(4 100)">
<title>client/lib/core/aio/aio_internal.h</title>
<!-- Node1 -->
<g id="Node000001" class="node">
<title>Node1</title>
<g id="a_Node000001"><a xlink:title=" ">
<polygon fill="#999999" stroke="#666666" points="339,-96 238,-96 238,-66 339,-66 339,-96"/>
<text text-anchor="start" x="246" y="-84" font-family="Helvetica,sans-Serif" font-size="10.00">client/lib/core/aio</text>
<text text-anchor="middle" x="288.5" y="-73" font-family="Helvetica,sans-Serif" font-size="10.00">/aio_internal.h</text>
</a>
</g>
</g>
<!-- Node2 -->
<g id="Node000002" class="node">
<title>Node2</title>
<g id="a_Node000002"><a xlink:href="aio_8c.html" target="_top" xlink:title=" ">
<polygon fill="white" stroke="#666666" points="101,-30 0,-30 0,0 101,0 101,-30"/>
<text text-anchor="start" x="8" y="-18" font-family="Helvetica,sans-Serif" font-size="10.00">client/lib/core/aio</text>
<text text-anchor="middle" x="50.5" y="-7" font-family="Helvetica,sans-Serif" font-size="10.00">/aio.c</text>
</a>
</g>
</g>
<!-- Node1&#45;&gt;Node2 -->
<g id="edge1_Node000001_Node000002" class="edge">
<title>Node1&#45;&gt;Node2</title>
<g id="a_edge1_Node000001_Node000002"><a xlink:title=" ">
<path fill="none" stroke="#63b8ff" d="M228.02,-63.74C188.8,-53.19 138.3,-39.61 101.19,-29.63"/>
<polygon fill="#63b8ff" stroke="#63b8ff" points="227.17,-67.13 237.73,-66.35 228.99,-60.37 227.17,-67.13"/>
</a>
</g>
</g>
<!-- Node3 -->
<g id="Node000003" class="node">
<title>Node3</title>
<g id="a_Node000003"><a xlink:href="aio__buffers_8c.html" target="_top" xlink:title=" ">
<polygon fill="white" stroke="#666666" points="220,-30 119,-30 119,0 220,0 220,-30"/>
<text text-anchor="start" x="127" y="-18" font-family="Helvetica,sans-Serif" font-size="10.00">client/lib/core/aio</text>
<text text-anchor="middle" x="169.5" y="-7" font-family="Helvetica,sans-Serif" font-size="10.00">/aio_buffers.c</text>
</a>
</g>
</g>
<!-- Node1&#45;&gt;Node3 -->
<g id="edge2_Node000001_Node000003" class="edge">
<title>Node1&#45;&gt;Node3</title>
<g id="a_edge2_Node000001_Node000003"><a xlink:title=" ">
<path fill="none" stroke="#63b8ff" d="M253.37,-61.11C234.85,-51.14 212.51,-39.13 195.55,-30.01"/>
<polygon fill="#63b8ff" stroke="#63b8ff" points="251.92,-64.3 262.38,-65.95 255.24,-58.14 251.92,-64.3"/>
</a>
</g>
</g>
<!-- Node4 -->
<g id="Node000004" class="node">
<title>Node4</title>
<g id="a_Node000004"><a xlink:href="aio__conn_8c.html" target="_top" xlink:title=" ">
<polygon fill="white" stroke="#666666" points="339,-30 238,-30 238,0 339,0 339,-30"/>
<text text-anchor="start" x="246" y="-18" font-family="Helvetica,sans-Serif" font-size="10.00">client/lib/core/aio</text>
<text text-anchor="middle" x="288.5" y="-7" font-family="Helvetica,sans-Serif" font-size="10.00">/aio_conn.c</text>
</a>
</g>
</g>
<!-- Node1&#45;&gt;Node4 -->
<g id="edge3_Node000001_Node000004" class="edge">
<title>Node1&#45;&gt;Node4</title>
<g id="a_edge3_Node000001_Node000004"><a xlink:title=" ">
<path fill="none" stroke="#63b8ff" d="M288.5,-55.54C288.5,-46.96 288.5,-37.61 288.5,-30.16"/>
<polygon fill="#63b8ff" stroke="#63b8ff" points="285,-55.8 288.5,-65.8 292,-55.8 285,-55.8"/>
</a>
</g>
</g>
<!-- Node5 -->
<g id="Node000005" class="node">
<title>Node5</title>
<g id="a_Node000005"><a xlink:href="aio__engine_8c.html" target="_top" xlink:title=" ">
<polygon fill="white" stroke="#666666" points="458,-30 357,-30 357,0 458,0 458,-30"/>
<text text-anchor="start" x="365" y="-18" font-family="Helvetica,sans-Serif" font-size="10.00">client/lib/core/aio</text>
<text text-anchor="middle" x="407.5" y="-7" font-family="Helvetica,sans-Serif" font-size="10.00">/aio_engine.c</text>
</a>
</g>
</g>
<!-- Node1&#45;&gt;Node5 -->
<g id="edge4_Node000001_Node000005" class="edge">
<title>Node1&#45;&gt;Node5</title>
<g id="a_edge4_Node000001_Node000005"><a xlink:title=" ">
<path fill="none" stroke="#63b8ff" d="M323.63,-61.11C342.15,-51.14 364.49,-39.13 381.45,-30.01"/>
<polygon fill="#63b8ff" stroke="#63b8ff" points="321.76,-58.14 314.62,-65.95 325.08,-64.3 321.76,-58.14"/>
</a>
</g>
</g>
<!-- Node6 -->
<g id="Node000006" class="node">
<title>Node6</title>
<g id="a_Node000006"><a xlink:href="aio__io_8c.html" target="_top" xlink:title=" ">
<polygon fill="white" stroke="#666666" points="577,-30 476,-30 476,0 577,0 577,-30"/>
<text text-anchor="start" x="484" y="-18" font-family="Helvetica,sans-Serif" font-size="10.00">client/lib/core/aio</text>
<text text-anchor="middle" x="526.5" y="-7" font-family="Helvetica,sans-Serif" font-size="10.00">/aio_io.c</text>
</a>
</g>
</g>
<!-- Node1&#45;&gt;Node6 -->
<g id="edge5_Node000001_Node000006" class="edge">
<title>Node1&#45;&gt;Node6</title>
<g id="a_edge5_Node000001_Node000006"><a xlink:title=" ">
<path fill="none" stroke="#63b8ff" d="M348.98,-63.74C388.2,-53.19 438.7,-39.61 475.81,-29.63"/>
<polygon fill="#63b8ff" stroke="#63b8ff" points="348.01,-60.37 339.27,-66.35 349.83,-67.13 348.01,-60.37"/>
</a>
</g>
</g>
</g>
</svg>
