<?xml version="1.0" encoding="UTF-8" standalone="no"?>
<!DOCTYPE svg PUBLIC "-//W3C//DTD SVG 1.1//EN"
 "http://www.w3.org/Graphics/SVG/1.1/DTD/svg11.dtd">
<!-- Generated by graphviz version 2.43.0 (0)
 -->
<!-- Title: src/auth/authz/acc/authfile_internal.h Pages: 1 -->
<svg width="365pt" height="104pt"
 viewBox="0.00 0.00 365.00 104.00" xmlns="http://www.w3.org/2000/svg" xmlns:xlink="http://www.w3.org/1999/xlink">
<g id="graph0" class="graph" transform="scale(1 1) rotate(0) translate(4 100)">
<title>src/auth/authz/acc/authfile_internal.h</title>
<!-- Node1 -->
<g id="Node000001" class="node">
<title>Node1</title>
<g id="a_Node000001"><a xlink:title=" ">
<polygon fill="#999999" stroke="#666666" points="229.5,-96 121.5,-96 121.5,-66 229.5,-66 229.5,-96"/>
<text text-anchor="start" x="129.5" y="-84" font-family="Helvetica,sans-Serif" font-size="10.00">src/auth/authz/acc</text>
<text text-anchor="middle" x="175.5" y="-73" font-family="Helvetica,sans-Serif" font-size="10.00">/authfile_internal.h</text>
</a>
</g>
</g>
<!-- Node2 -->
<g id="Node000002" class="node">
<title>Node2</title>
<g id="a_Node000002"><a xlink:href="authfile_8c.html" target="_top" xlink:title=" ">
<polygon fill="white" stroke="#666666" points="105,-30 0,-30 0,0 105,0 105,-30"/>
<text text-anchor="start" x="8" y="-18" font-family="Helvetica,sans-Serif" font-size="10.00">src/auth/authz/acc</text>
<text text-anchor="middle" x="52.5" y="-7" font-family="Helvetica,sans-Serif" font-size="10.00">/authfile.c</text>
</a>
</g>
</g>
<!-- Node1&#45;&gt;Node2 -->
<g id="edge1_Node000001_Node000002" class="edge">
<title>Node1&#45;&gt;Node2</title>
<g id="a_edge1_Node000001_Node000002"><a xlink:title=" ">
<path fill="none" stroke="#63b8ff" d="M139.45,-61.24C120.25,-51.25 97.04,-39.18 79.43,-30.01"/>
<polygon fill="#63b8ff" stroke="#63b8ff" points="138.02,-64.44 148.51,-65.95 141.25,-58.23 138.02,-64.44"/>
</a>
</g>
</g>
<!-- Node3 -->
<g id="Node000003" class="node">
<title>Node3</title>
<g id="a_Node000003"><a xlink:href="authfile__record_8c.html" target="_top" xlink:title=" ">
<polygon fill="white" stroke="#666666" points="228,-30 123,-30 123,0 228,0 228,-30"/>
<text text-anchor="start" x="131" y="-18" font-family="Helvetica,sans-Serif" font-size="10.00">src/auth/authz/acc</text>
<text text-anchor="middle" x="175.5" y="-7" font-family="Helvetica,sans-Serif" font-size="10.00">/authfile_record.c</text>
</a>
</g>
</g>
<!-- Node1&#45;&gt;Node3 -->
<g id="edge2_Node000001_Node000003" class="edge">
<title>Node1&#45;&gt;Node3</title>
<g id="a_edge2_Node000001_Node000003"><a xlink:title=" ">
<path fill="none" stroke="#63b8ff" d="M175.5,-55.54C175.5,-46.96 175.5,-37.61 175.5,-30.16"/>
<polygon fill="#63b8ff" stroke="#63b8ff" points="172,-55.8 175.5,-65.8 179,-55.8 172,-55.8"/>
</a>
</g>
</g>
<!-- Node4 -->
<g id="Node000004" class="node">
<title>Node4</title>
<g id="a_Node000004"><a xlink:href="authfile__tokenize_8c.html" target="_top" xlink:title=" ">
<polygon fill="white" stroke="#666666" points="357,-30 246,-30 246,0 357,0 357,-30"/>
<text text-anchor="start" x="254" y="-18" font-family="Helvetica,sans-Serif" font-size="10.00">src/auth/authz/acc</text>
<text text-anchor="middle" x="301.5" y="-7" font-family="Helvetica,sans-Serif" font-size="10.00">/authfile_tokenize.c</text>
</a>
</g>
</g>
<!-- Node1&#45;&gt;Node4 -->
<g id="edge3_Node000001_Node000004" class="edge">
<title>Node1&#45;&gt;Node4</title>
<g id="a_edge3_Node000001_Node000004"><a xlink:title=" ">
<path fill="none" stroke="#63b8ff" d="M212.16,-61.38C231.88,-51.36 255.79,-39.22 273.91,-30.01"/>
<polygon fill="#63b8ff" stroke="#63b8ff" points="210.48,-58.31 203.15,-65.95 213.65,-64.55 210.48,-58.31"/>
</a>
</g>
</g>
</g>
</svg>
