<?xml version="1.0" encoding="UTF-8" standalone="no"?>
<!DOCTYPE svg PUBLIC "-//W3C//DTD SVG 1.1//EN"
 "http://www.w3.org/Graphics/SVG/1.1/DTD/svg11.dtd">
<!-- Generated by graphviz version 2.43.0 (0)
 -->
<!-- Title: src/auth/authz/acc/authfile_record.c Pages: 1 -->
<svg width="514pt" height="258pt"
 viewBox="0.00 0.00 513.50 258.00" xmlns="http://www.w3.org/2000/svg" xmlns:xlink="http://www.w3.org/1999/xlink">
<g id="graph0" class="graph" transform="scale(1 1) rotate(0) translate(4 254)">
<title>src/auth/authz/acc/authfile_record.c</title>
<!-- Node1 -->
<g id="Node000001" class="node">
<title>Node1</title>
<g id="a_Node000001"><a xlink:title=" ">
<polygon fill="#999999" stroke="#666666" points="335.5,-250 230.5,-250 230.5,-220 335.5,-220 335.5,-250"/>
<text text-anchor="start" x="238.5" y="-238" font-family="Helvetica,sans-Serif" font-size="10.00">src/auth/authz/acc</text>
<text text-anchor="middle" x="283" y="-227" font-family="Helvetica,sans-Serif" font-size="10.00">/authfile_record.c</text>
</a>
</g>
</g>
<!-- Node2 -->
<g id="Node000002" class="node">
<title>Node2</title>
<g id="a_Node000002"><a xlink:href="authfile__internal_8h.html" target="_top" xlink:title=" ">
<polygon fill="white" stroke="#666666" points="211.5,-184 106.5,-184 106.5,-165 211.5,-165 211.5,-184"/>
<text text-anchor="middle" x="159" y="-172" font-family="Helvetica,sans-Serif" font-size="10.00">authfile_internal.h</text>
</a>
</g>
</g>
<!-- Node1&#45;&gt;Node2 -->
<g id="edge1_Node000001_Node000002" class="edge">
<title>Node1&#45;&gt;Node2</title>
<g id="a_edge1_Node000001_Node000002"><a xlink:title=" ">
<path fill="none" stroke="#63b8ff" d="M253.3,-219.99C232.98,-210.4 206.24,-197.79 186.42,-188.44"/>
<polygon fill="#63b8ff" stroke="#63b8ff" points="187.85,-185.24 177.31,-184.14 184.86,-191.57 187.85,-185.24"/>
</a>
</g>
</g>
<!-- Node10 -->
<g id="Node000010" class="node">
<title>Node10</title>
<g id="a_Node000010"><a xlink:title=" ">
<polygon fill="#e0e0e0" stroke="#999999" points="282.5,-184 229.5,-184 229.5,-165 282.5,-165 282.5,-184"/>
<text text-anchor="middle" x="256" y="-172" font-family="Helvetica,sans-Serif" font-size="10.00">limits.h</text>
</a>
</g>
</g>
<!-- Node1&#45;&gt;Node10 -->
<g id="edge9_Node000001_Node000010" class="edge">
<title>Node1&#45;&gt;Node10</title>
<g id="a_edge9_Node000001_Node000010"><a xlink:title=" ">
<path fill="none" stroke="#63b8ff" d="M276.46,-219.84C272.82,-211.95 268.26,-202.05 264.36,-193.61"/>
<polygon fill="#63b8ff" stroke="#63b8ff" points="267.41,-191.88 260.05,-184.27 261.06,-194.81 267.41,-191.88"/>
</a>
</g>
</g>
<!-- Node11 -->
<g id="Node000011" class="node">
<title>Node11</title>
<g id="a_Node000011"><a xlink:href="alloc__guard_8h.html" target="_top" xlink:title=" ">
<polygon fill="white" stroke="#666666" points="356,-129 210,-129 210,-110 356,-110 356,-129"/>
<text text-anchor="middle" x="283" y="-117" font-family="Helvetica,sans-Serif" font-size="10.00">core/compat/alloc_guard.h</text>
</a>
</g>
</g>
<!-- Node1&#45;&gt;Node11 -->
<g id="edge10_Node000001_Node000011" class="edge">
<title>Node1&#45;&gt;Node11</title>
<g id="a_edge10_Node000001_Node000011"><a xlink:title=" ">
<path fill="none" stroke="#63b8ff" d="M286.78,-219.76C290.03,-205.82 293.9,-183.99 292,-165 291.15,-156.47 289.39,-147.16 287.66,-139.27"/>
<polygon fill="#63b8ff" stroke="#63b8ff" points="291.01,-138.22 285.32,-129.29 284.2,-139.82 291.01,-138.22"/>
</a>
</g>
</g>
<!-- Node12 -->
<g id="Node000012" class="node">
<title>Node12</title>
<g id="a_Node000012"><a xlink:href="log__diag_8h.html" target="_top" xlink:title=" ">
<polygon fill="white" stroke="#666666" points="505.5,-129 374.5,-129 374.5,-110 505.5,-110 505.5,-129"/>
<text text-anchor="middle" x="440" y="-117" font-family="Helvetica,sans-Serif" font-size="10.00">core/compat/log_diag.h</text>
</a>
</g>
</g>
<!-- Node1&#45;&gt;Node12 -->
<g id="edge12_Node000001_Node000012" class="edge">
<title>Node1&#45;&gt;Node12</title>
<g id="a_edge12_Node000001_Node000012"><a xlink:title=" ">
<path fill="none" stroke="#63b8ff" d="M302.57,-219.85C332.49,-198.22 389.35,-157.12 419.7,-135.17"/>
<polygon fill="#63b8ff" stroke="#63b8ff" points="421.81,-137.97 427.87,-129.27 417.71,-132.29 421.81,-137.97"/>
</a>
</g>
</g>
<!-- Node3 -->
<g id="Node000003" class="node">
<title>Node3</title>
<g id="a_Node000003"><a xlink:href="acc_8h.html" target="_top" xlink:title=" ">
<polygon fill="white" stroke="#666666" points="180,-129 138,-129 138,-110 180,-110 180,-129"/>
<text text-anchor="middle" x="159" y="-117" font-family="Helvetica,sans-Serif" font-size="10.00">acc.h</text>
</a>
</g>
</g>
<!-- Node2&#45;&gt;Node3 -->
<g id="edge2_Node000002_Node000003" class="edge">
<title>Node2&#45;&gt;Node3</title>
<g id="a_edge2_Node000002_Node000003"><a xlink:title=" ">
<path fill="none" stroke="#63b8ff" d="M159,-164.75C159,-157.8 159,-147.85 159,-139.13"/>
<polygon fill="#63b8ff" stroke="#63b8ff" points="162.5,-139.09 159,-129.09 155.5,-139.09 162.5,-139.09"/>
</a>
</g>
</g>
<!-- Node4 -->
<g id="Node000004" class="node">
<title>Node4</title>
<g id="a_Node000004"><a xlink:title=" ">
<polygon fill="#e0e0e0" stroke="#999999" points="78,-74 0,-74 0,-55 78,-55 78,-74"/>
<text text-anchor="middle" x="39" y="-62" font-family="Helvetica,sans-Serif" font-size="10.00">ngx_config.h</text>
</a>
</g>
</g>
<!-- Node3&#45;&gt;Node4 -->
<g id="edge3_Node000003_Node000004" class="edge">
<title>Node3&#45;&gt;Node4</title>
<g id="a_edge3_Node000003_Node000004"><a xlink:title=" ">
<path fill="none" stroke="#63b8ff" d="M139.72,-109.98C120.33,-101.42 90.19,-88.11 67.93,-78.28"/>
<polygon fill="#63b8ff" stroke="#63b8ff" points="69.19,-75.01 58.63,-74.17 66.36,-81.41 69.19,-75.01"/>
</a>
</g>
</g>
<!-- Node5 -->
<g id="Node000005" class="node">
<title>Node5</title>
<g id="a_Node000005"><a xlink:title=" ">
<polygon fill="#e0e0e0" stroke="#999999" points="330,-74 260,-74 260,-55 330,-55 330,-74"/>
<text text-anchor="middle" x="295" y="-62" font-family="Helvetica,sans-Serif" font-size="10.00">ngx_core.h</text>
</a>
</g>
</g>
<!-- Node3&#45;&gt;Node5 -->
<g id="edge4_Node000003_Node000005" class="edge">
<title>Node3&#45;&gt;Node5</title>
<g id="a_edge4_Node000003_Node000005"><a xlink:title=" ">
<path fill="none" stroke="#63b8ff" d="M180.25,-110.22C202.54,-101.53 237.83,-87.78 263.39,-77.82"/>
<polygon fill="#63b8ff" stroke="#63b8ff" points="264.95,-80.97 273,-74.07 262.41,-74.44 264.95,-80.97"/>
</a>
</g>
</g>
<!-- Node6 -->
<g id="Node000006" class="node">
<title>Node6</title>
<g id="a_Node000006"><a xlink:title=" ">
<polygon fill="#e0e0e0" stroke="#999999" points="173.5,-74 96.5,-74 96.5,-55 173.5,-55 173.5,-74"/>
<text text-anchor="middle" x="135" y="-62" font-family="Helvetica,sans-Serif" font-size="10.00">ngx_event.h</text>
</a>
</g>
</g>
<!-- Node3&#45;&gt;Node6 -->
<g id="edge5_Node000003_Node000006" class="edge">
<title>Node3&#45;&gt;Node6</title>
<g id="a_edge5_Node000003_Node000006"><a xlink:title=" ">
<path fill="none" stroke="#63b8ff" d="M155.04,-109.75C151.79,-102.57 147.08,-92.18 143.05,-83.27"/>
<polygon fill="#63b8ff" stroke="#63b8ff" points="146.2,-81.75 138.89,-74.09 139.83,-84.64 146.2,-81.75"/>
</a>
</g>
</g>
<!-- Node7 -->
<g id="Node000007" class="node">
<title>Node7</title>
<g id="a_Node000007"><a xlink:href="privs_8h.html" target="_top" xlink:title=" ">
<polygon fill="white" stroke="#666666" points="242,-74 192,-74 192,-55 242,-55 242,-74"/>
<text text-anchor="middle" x="217" y="-62" font-family="Helvetica,sans-Serif" font-size="10.00">privs.h</text>
</a>
</g>
</g>
<!-- Node3&#45;&gt;Node7 -->
<g id="edge6_Node000003_Node000007" class="edge">
<title>Node3&#45;&gt;Node7</title>
<g id="a_edge6_Node000003_Node000007"><a xlink:title=" ">
<path fill="none" stroke="#63b8ff" d="M168.32,-109.98C176.81,-102.23 189.56,-90.58 199.88,-81.14"/>
<polygon fill="#63b8ff" stroke="#63b8ff" points="202.49,-83.5 207.51,-74.17 197.77,-78.33 202.49,-83.5"/>
</a>
</g>
</g>
<!-- Node8 -->
<g id="Node000008" class="node">
<title>Node8</title>
<g id="a_Node000008"><a xlink:title=" ">
<polygon fill="#e0e0e0" stroke="#999999" points="208,-19 152,-19 152,0 208,0 208,-19"/>
<text text-anchor="middle" x="180" y="-7" font-family="Helvetica,sans-Serif" font-size="10.00">stddef.h</text>
</a>
</g>
</g>
<!-- Node7&#45;&gt;Node8 -->
<g id="edge7_Node000007_Node000008" class="edge">
<title>Node7&#45;&gt;Node8</title>
<g id="a_edge7_Node000007_Node000008"><a xlink:title=" ">
<path fill="none" stroke="#63b8ff" d="M210.89,-54.75C205.72,-47.34 198.15,-36.5 191.81,-27.41"/>
<polygon fill="#63b8ff" stroke="#63b8ff" points="194.59,-25.29 186,-19.09 188.85,-29.29 194.59,-25.29"/>
</a>
</g>
</g>
<!-- Node9 -->
<g id="Node000009" class="node">
<title>Node9</title>
<g id="a_Node000009"><a xlink:title=" ">
<polygon fill="#e0e0e0" stroke="#999999" points="279.5,-19 226.5,-19 226.5,0 279.5,0 279.5,-19"/>
<text text-anchor="middle" x="253" y="-7" font-family="Helvetica,sans-Serif" font-size="10.00">stdint.h</text>
</a>
</g>
</g>
<!-- Node7&#45;&gt;Node9 -->
<g id="edge8_Node000007_Node000009" class="edge">
<title>Node7&#45;&gt;Node9</title>
<g id="a_edge8_Node000007_Node000009"><a xlink:title=" ">
<path fill="none" stroke="#63b8ff" d="M222.94,-54.75C227.98,-47.34 235.34,-36.5 241.51,-27.41"/>
<polygon fill="#63b8ff" stroke="#63b8ff" points="244.44,-29.33 247.17,-19.09 238.65,-25.39 244.44,-29.33"/>
</a>
</g>
</g>
<!-- Node11&#45;&gt;Node5 -->
<g id="edge11_Node000011_Node000005" class="edge">
<title>Node11&#45;&gt;Node5</title>
<g id="a_edge11_Node000011_Node000005"><a xlink:title=" ">
<path fill="none" stroke="#63b8ff" d="M284.98,-109.75C286.57,-102.72 288.86,-92.62 290.85,-83.84"/>
<polygon fill="#63b8ff" stroke="#63b8ff" points="294.26,-84.62 293.06,-74.09 287.43,-83.07 294.26,-84.62"/>
</a>
</g>
</g>
<!-- Node12&#45;&gt;Node5 -->
<g id="edge13_Node000012_Node000005" class="edge">
<title>Node12&#45;&gt;Node5</title>
<g id="a_edge13_Node000012_Node000005"><a xlink:title=" ">
<path fill="none" stroke="#63b8ff" d="M416.7,-109.98C392.75,-101.23 355.22,-87.51 328.17,-77.62"/>
<polygon fill="#63b8ff" stroke="#63b8ff" points="329.31,-74.32 318.72,-74.17 326.91,-80.89 329.31,-74.32"/>
</a>
</g>
</g>
</g>
</svg>
