<?xml version="1.0" encoding="UTF-8" standalone="no"?>
<!DOCTYPE svg PUBLIC "-//W3C//DTD SVG 1.1//EN"
 "http://www.w3.org/Graphics/SVG/1.1/DTD/svg11.dtd">
<!-- Generated by graphviz version 2.43.0 (0)
 -->
<!-- Title: src/fs/xfer/backend_async_queue.h Pages: 1 -->
<svg width="1064pt" height="181pt"
 viewBox="0.00 0.00 1064.00 181.00" xmlns="http://www.w3.org/2000/svg" xmlns:xlink="http://www.w3.org/1999/xlink">
<g id="graph0" class="graph" transform="scale(1 1) rotate(0) translate(4 177)">
<title>src/fs/xfer/backend_async_queue.h</title>
<!-- Node1 -->
<g id="Node000001" class="node">
<title>Node1</title>
<g id="a_Node000001"><a xlink:title=" ">
<polygon fill="#999999" stroke="#666666" points="479.5,-173 370.5,-173 370.5,-143 479.5,-143 479.5,-173"/>
<text text-anchor="start" x="378.5" y="-161" font-family="Helvetica,sans-Serif" font-size="10.00">src/fs/xfer/backend</text>
<text text-anchor="middle" x="425" y="-150" font-family="Helvetica,sans-Serif" font-size="10.00">_async_queue.h</text>
</a>
</g>
</g>
<!-- Node2 -->
<g id="Node000002" class="node">
<title>Node2</title>
<g id="a_Node000002"><a xlink:href="process_8c.html" target="_top" xlink:title=" ">
<polygon fill="white" stroke="#666666" points="136,-96 0,-96 0,-77 136,-77 136,-96"/>
<text text-anchor="middle" x="68" y="-84" font-family="Helvetica,sans-Serif" font-size="10.00">src/core/config/process.c</text>
</a>
</g>
</g>
<!-- Node1&#45;&gt;Node2 -->
<g id="edge1_Node000001_Node000002" class="edge">
<title>Node1&#45;&gt;Node2</title>
<g id="a_edge1_Node000001_Node000002"><a xlink:title=" ">
<path fill="none" stroke="#63b8ff" d="M360.37,-146.8C303.46,-137.5 218.43,-122.83 145,-107 130.04,-103.77 113.57,-99.68 99.72,-96.08"/>
<polygon fill="#63b8ff" stroke="#63b8ff" points="359.88,-150.27 370.31,-148.42 361,-143.36 359.88,-150.27"/>
</a>
</g>
</g>
<!-- Node3 -->
<g id="Node000003" class="node">
<title>Node3</title>
<g id="a_Node000003"><a xlink:href="process__timers_8c.html" target="_top" xlink:title=" ">
<polygon fill="white" stroke="#666666" points="282,-101.5 154,-101.5 154,-71.5 282,-71.5 282,-101.5"/>
<text text-anchor="start" x="162" y="-89.5" font-family="Helvetica,sans-Serif" font-size="10.00">src/core/config/process</text>
<text text-anchor="middle" x="218" y="-78.5" font-family="Helvetica,sans-Serif" font-size="10.00">_timers.c</text>
</a>
</g>
</g>
<!-- Node1&#45;&gt;Node3 -->
<g id="edge2_Node000001_Node000003" class="edge">
<title>Node1&#45;&gt;Node3</title>
<g id="a_edge2_Node000001_Node000003"><a xlink:title=" ">
<path fill="none" stroke="#63b8ff" d="M373.53,-139.72C338.46,-127.95 292.64,-112.56 259.83,-101.54"/>
<polygon fill="#63b8ff" stroke="#63b8ff" points="372.52,-143.07 383.11,-142.94 374.74,-136.43 372.52,-143.07"/>
</a>
</g>
</g>
<!-- Node4 -->
<g id="Node000004" class="node">
<title>Node4</title>
<g id="a_Node000004"><a xlink:href="backend__async__queue_8c.html" target="_top" xlink:title=" ">
<polygon fill="white" stroke="#666666" points="409.5,-101.5 300.5,-101.5 300.5,-71.5 409.5,-71.5 409.5,-101.5"/>
<text text-anchor="start" x="308.5" y="-89.5" font-family="Helvetica,sans-Serif" font-size="10.00">src/fs/xfer/backend</text>
<text text-anchor="middle" x="355" y="-78.5" font-family="Helvetica,sans-Serif" font-size="10.00">_async_queue.c</text>
</a>
</g>
</g>
<!-- Node1&#45;&gt;Node4 -->
<g id="edge3_Node000001_Node000004" class="edge">
<title>Node1&#45;&gt;Node4</title>
<g id="a_edge3_Node000001_Node000004"><a xlink:title=" ">
<path fill="none" stroke="#63b8ff" d="M403.52,-135.67C392.35,-124.58 379.01,-111.34 369.14,-101.54"/>
<polygon fill="#63b8ff" stroke="#63b8ff" points="401.27,-138.37 410.83,-142.94 406.2,-133.41 401.27,-138.37"/>
</a>
</g>
</g>
<!-- Node5 -->
<g id="Node000005" class="node">
<title>Node5</title>
<g id="a_Node000005"><a xlink:href="disconnect_8c.html" target="_top" xlink:title=" ">
<polygon fill="white" stroke="#666666" points="564.5,-101.5 427.5,-101.5 427.5,-71.5 564.5,-71.5 564.5,-101.5"/>
<text text-anchor="start" x="435.5" y="-89.5" font-family="Helvetica,sans-Serif" font-size="10.00">src/protocols/root</text>
<text text-anchor="middle" x="496" y="-78.5" font-family="Helvetica,sans-Serif" font-size="10.00">/connection/disconnect.c</text>
</a>
</g>
</g>
<!-- Node1&#45;&gt;Node5 -->
<g id="edge4_Node000001_Node000005" class="edge">
<title>Node1&#45;&gt;Node5</title>
<g id="a_edge4_Node000001_Node000005"><a xlink:title=" ">
<path fill="none" stroke="#63b8ff" d="M446.79,-135.67C458.12,-124.58 471.65,-111.34 481.65,-101.54"/>
<polygon fill="#63b8ff" stroke="#63b8ff" points="444.07,-133.44 439.37,-142.94 448.96,-138.44 444.07,-133.44"/>
</a>
</g>
</g>
<!-- Node6 -->
<g id="Node000006" class="node">
<title>Node6</title>
<g id="a_Node000006"><a xlink:href="backend__async__root_8c.html" target="_top" xlink:title=" ">
<polygon fill="white" stroke="#666666" points="705,-107 583,-107 583,-66 705,-66 705,-107"/>
<text text-anchor="start" x="591" y="-95" font-family="Helvetica,sans-Serif" font-size="10.00">src/protocols/root</text>
<text text-anchor="start" x="591" y="-84" font-family="Helvetica,sans-Serif" font-size="10.00">/write/backend_async</text>
<text text-anchor="middle" x="644" y="-73" font-family="Helvetica,sans-Serif" font-size="10.00">_root.c</text>
</a>
</g>
</g>
<!-- Node1&#45;&gt;Node6 -->
<g id="edge5_Node000001_Node000006" class="edge">
<title>Node1&#45;&gt;Node6</title>
<g id="a_edge5_Node000001_Node000006"><a xlink:title=" ">
<path fill="none" stroke="#63b8ff" d="M479.2,-139.8C510.6,-129.84 550.21,-117.26 582.74,-106.94"/>
<polygon fill="#63b8ff" stroke="#63b8ff" points="477.79,-136.57 469.32,-142.94 479.91,-143.25 477.79,-136.57"/>
</a>
</g>
</g>
<!-- Node7 -->
<g id="Node000007" class="node">
<title>Node7</title>
<g id="a_Node000007"><a xlink:href="backend__async__http_8h.html" target="_top" xlink:title=" ">
<polygon fill="white" stroke="#666666" points="851,-101.5 723,-101.5 723,-71.5 851,-71.5 851,-101.5"/>
<text text-anchor="start" x="731" y="-89.5" font-family="Helvetica,sans-Serif" font-size="10.00">src/protocols/shared</text>
<text text-anchor="middle" x="787" y="-78.5" font-family="Helvetica,sans-Serif" font-size="10.00">/backend_async_http.h</text>
</a>
</g>
</g>
<!-- Node1&#45;&gt;Node7 -->
<g id="edge6_Node000001_Node000007" class="edge">
<title>Node1&#45;&gt;Node7</title>
<g id="a_edge6_Node000001_Node000007"><a xlink:title=" ">
<path fill="none" stroke="#63b8ff" d="M489.5,-147.54C548.29,-138.51 637.37,-123.83 714,-107 721.43,-105.37 729.24,-103.47 736.88,-101.52"/>
<polygon fill="#63b8ff" stroke="#63b8ff" points="488.97,-144.08 479.61,-149.05 490.03,-151 488.97,-144.08"/>
</a>
</g>
</g>
<!-- Node8 -->
<g id="Node000008" class="node">
<title>Node8</title>
<g id="a_Node000008"><a xlink:href="handler__object__route_8c.html" target="_top" xlink:title=" ">
<polygon fill="white" stroke="#666666" points="634.5,-30 501.5,-30 501.5,0 634.5,0 634.5,-30"/>
<text text-anchor="start" x="509.5" y="-18" font-family="Helvetica,sans-Serif" font-size="10.00">src/protocols/s3/handler</text>
<text text-anchor="middle" x="568" y="-7" font-family="Helvetica,sans-Serif" font-size="10.00">_object_route.c</text>
</a>
</g>
</g>
<!-- Node7&#45;&gt;Node8 -->
<g id="edge7_Node000007_Node000008" class="edge">
<title>Node7&#45;&gt;Node8</title>
<g id="a_edge7_Node000007_Node000008"><a xlink:title=" ">
<path fill="none" stroke="#63b8ff" d="M733.02,-68.37C695.86,-56.58 647.11,-41.11 612.25,-30.04"/>
<polygon fill="#63b8ff" stroke="#63b8ff" points="732.09,-71.75 742.68,-71.44 734.21,-65.07 732.09,-71.75"/>
</a>
</g>
</g>
<!-- Node9 -->
<g id="Node000009" class="node">
<title>Node9</title>
<g id="a_Node000009"><a xlink:href="backend__async__http_8c.html" target="_top" xlink:title=" ">
<polygon fill="white" stroke="#666666" points="779.5,-30 652.5,-30 652.5,0 779.5,0 779.5,-30"/>
<text text-anchor="start" x="660.5" y="-18" font-family="Helvetica,sans-Serif" font-size="10.00">src/protocols/shared</text>
<text text-anchor="middle" x="716" y="-7" font-family="Helvetica,sans-Serif" font-size="10.00">/backend_async_http.c</text>
</a>
</g>
</g>
<!-- Node7&#45;&gt;Node9 -->
<g id="edge8_Node000007_Node000009" class="edge">
<title>Node7&#45;&gt;Node9</title>
<g id="a_edge8_Node000007_Node000009"><a xlink:title=" ">
<path fill="none" stroke="#63b8ff" d="M765.21,-64.17C753.88,-53.08 740.35,-39.84 730.35,-30.04"/>
<polygon fill="#63b8ff" stroke="#63b8ff" points="763.04,-66.94 772.63,-71.44 767.93,-61.94 763.04,-66.94"/>
</a>
</g>
</g>
<!-- Node10 -->
<g id="Node000010" class="node">
<title>Node10</title>
<g id="a_Node000010"><a xlink:href="move_8c.html" target="_top" xlink:title=" ">
<polygon fill="white" stroke="#666666" points="918,-30 798,-30 798,0 918,0 918,-30"/>
<text text-anchor="start" x="806" y="-18" font-family="Helvetica,sans-Serif" font-size="10.00">src/protocols/webdav</text>
<text text-anchor="middle" x="858" y="-7" font-family="Helvetica,sans-Serif" font-size="10.00">/move.c</text>
</a>
</g>
</g>
<!-- Node7&#45;&gt;Node10 -->
<g id="edge9_Node000007_Node000010" class="edge">
<title>Node7&#45;&gt;Node10</title>
<g id="a_edge9_Node000007_Node000010"><a xlink:title=" ">
<path fill="none" stroke="#63b8ff" d="M808.79,-64.17C820.12,-53.08 833.65,-39.84 843.65,-30.04"/>
<polygon fill="#63b8ff" stroke="#63b8ff" points="806.07,-61.94 801.37,-71.44 810.96,-66.94 806.07,-61.94"/>
</a>
</g>
</g>
<!-- Node11 -->
<g id="Node000011" class="node">
<title>Node11</title>
<g id="a_Node000011"><a xlink:href="namespace_8c.html" target="_top" xlink:title=" ">
<polygon fill="white" stroke="#666666" points="1056,-30 936,-30 936,0 1056,0 1056,-30"/>
<text text-anchor="start" x="944" y="-18" font-family="Helvetica,sans-Serif" font-size="10.00">src/protocols/webdav</text>
<text text-anchor="middle" x="996" y="-7" font-family="Helvetica,sans-Serif" font-size="10.00">/namespace.c</text>
</a>
</g>
</g>
<!-- Node7&#45;&gt;Node11 -->
<g id="edge10_Node000007_Node000011" class="edge">
<title>Node7&#45;&gt;Node11</title>
<g id="a_edge10_Node000007_Node000011"><a xlink:title=" ">
<path fill="none" stroke="#63b8ff" d="M838.97,-68.22C874.37,-56.45 920.64,-41.06 953.77,-30.04"/>
<polygon fill="#63b8ff" stroke="#63b8ff" points="837.68,-64.96 829.29,-71.44 839.89,-71.6 837.68,-64.96"/>
</a>
</g>
</g>
</g>
</svg>
