<?xml version="1.0" encoding="UTF-8" standalone="no"?>
<!DOCTYPE svg PUBLIC "-//W3C//DTD SVG 1.1//EN"
 "http://www.w3.org/Graphics/SVG/1.1/DTD/svg11.dtd">
<!-- Generated by graphviz version 2.43.0 (0)
 -->
<!-- Title: src/net/cms/blacklist_file.h Pages: 1 -->
<svg width="1023pt" height="236pt"
 viewBox="0.00 0.00 1022.50 236.00" xmlns="http://www.w3.org/2000/svg" xmlns:xlink="http://www.w3.org/1999/xlink">
<g id="graph0" class="graph" transform="scale(1 1) rotate(0) translate(4 232)">
<title>src/net/cms/blacklist_file.h</title>
<!-- Node1 -->
<g id="Node000001" class="node">
<title>Node1</title>
<g id="a_Node000001"><a xlink:title=" ">
<polygon fill="#999999" stroke="#666666" points="549.5,-228 432.5,-228 432.5,-198 549.5,-198 549.5,-228"/>
<text text-anchor="start" x="440.5" y="-216" font-family="Helvetica,sans-Serif" font-size="10.00">src/net/cms/blacklist</text>
<text text-anchor="middle" x="491" y="-205" font-family="Helvetica,sans-Serif" font-size="10.00">_file.h</text>
</a>
</g>
</g>
<!-- Node2 -->
<g id="Node000002" class="node">
<title>Node2</title>
<g id="a_Node000002"><a xlink:href="blacklist__file_8c.html" target="_top" xlink:title=" ">
<polygon fill="white" stroke="#666666" points="482.5,-162 365.5,-162 365.5,-132 482.5,-132 482.5,-162"/>
<text text-anchor="start" x="373.5" y="-150" font-family="Helvetica,sans-Serif" font-size="10.00">src/net/cms/blacklist</text>
<text text-anchor="middle" x="424" y="-139" font-family="Helvetica,sans-Serif" font-size="10.00">_file.c</text>
</a>
</g>
</g>
<!-- Node1&#45;&gt;Node2 -->
<g id="edge1_Node000001_Node000002" class="edge">
<title>Node1&#45;&gt;Node2</title>
<g id="a_edge1_Node000001_Node000002"><a xlink:title=" ">
<path fill="none" stroke="#63b8ff" d="M468.65,-190.65C458.83,-181.27 447.58,-170.53 438.83,-162.16"/>
<polygon fill="#63b8ff" stroke="#63b8ff" points="466.48,-193.42 476.13,-197.8 471.32,-188.36 466.48,-193.42"/>
</a>
</g>
</g>
<!-- Node3 -->
<g id="Node000003" class="node">
<title>Node3</title>
<g id="a_Node000003"><a xlink:href="server_8h.html" target="_top" xlink:title=" ">
<polygon fill="white" stroke="#666666" points="615.5,-156.5 500.5,-156.5 500.5,-137.5 615.5,-137.5 615.5,-156.5"/>
<text text-anchor="middle" x="558" y="-144.5" font-family="Helvetica,sans-Serif" font-size="10.00">src/net/cms/server.h</text>
</a>
</g>
</g>
<!-- Node1&#45;&gt;Node3 -->
<g id="edge2_Node000001_Node000003" class="edge">
<title>Node1&#45;&gt;Node3</title>
<g id="a_edge2_Node000001_Node000003"><a xlink:title=" ">
<path fill="none" stroke="#63b8ff" d="M513.4,-190.6C525.45,-179.1 539.66,-165.52 548.74,-156.84"/>
<polygon fill="#63b8ff" stroke="#63b8ff" points="510.68,-188.36 505.87,-197.8 515.52,-193.42 510.68,-188.36"/>
</a>
</g>
</g>
<!-- Node4 -->
<g id="Node000004" class="node">
<title>Node4</title>
<g id="a_Node000004"><a xlink:href="fanout_8c.html" target="_top" xlink:title=" ">
<polygon fill="white" stroke="#666666" points="116,-90.5 0,-90.5 0,-71.5 116,-71.5 116,-90.5"/>
<text text-anchor="middle" x="58" y="-78.5" font-family="Helvetica,sans-Serif" font-size="10.00">src/net/cms/fanout.c</text>
</a>
</g>
</g>
<!-- Node3&#45;&gt;Node4 -->
<g id="edge3_Node000003_Node000004" class="edge">
<title>Node3&#45;&gt;Node4</title>
<g id="a_edge3_Node000003_Node000004"><a xlink:title=" ">
<path fill="none" stroke="#63b8ff" d="M510.47,-135.41C503.94,-134.15 497.32,-132.97 491,-132 329.43,-107.25 286.57,-120.75 125,-96 115.37,-94.52 105.03,-92.56 95.43,-90.57"/>
<polygon fill="#63b8ff" stroke="#63b8ff" points="510.07,-138.9 520.57,-137.43 511.45,-132.04 510.07,-138.9"/>
</a>
</g>
</g>
<!-- Node5 -->
<g id="Node000005" class="node">
<title>Node5</title>
<g id="a_Node000005"><a xlink:href="server__auth_8c.html" target="_top" xlink:title=" ">
<polygon fill="white" stroke="#666666" points="241.5,-96 134.5,-96 134.5,-66 241.5,-66 241.5,-96"/>
<text text-anchor="start" x="142.5" y="-84" font-family="Helvetica,sans-Serif" font-size="10.00">src/net/cms/server</text>
<text text-anchor="middle" x="188" y="-73" font-family="Helvetica,sans-Serif" font-size="10.00">_auth.c</text>
</a>
</g>
</g>
<!-- Node3&#45;&gt;Node5 -->
<g id="edge4_Node000003_Node000005" class="edge">
<title>Node3&#45;&gt;Node5</title>
<g id="a_edge4_Node000003_Node000005"><a xlink:title=" ">
<path fill="none" stroke="#63b8ff" d="M509.02,-135.43C502.96,-134.22 496.84,-133.05 491,-132 384.4,-112.92 356.45,-115.94 250,-96 247.29,-95.49 244.52,-94.95 241.72,-94.38"/>
<polygon fill="#63b8ff" stroke="#63b8ff" points="508.61,-138.91 519.1,-137.48 510,-132.05 508.61,-138.91"/>
</a>
</g>
</g>
<!-- Node6 -->
<g id="Node000006" class="node">
<title>Node6</title>
<g id="a_Node000006"><a xlink:href="server__handler_8c.html" target="_top" xlink:title=" ">
<polygon fill="white" stroke="#666666" points="366.5,-96 259.5,-96 259.5,-66 366.5,-66 366.5,-96"/>
<text text-anchor="start" x="267.5" y="-84" font-family="Helvetica,sans-Serif" font-size="10.00">src/net/cms/server</text>
<text text-anchor="middle" x="313" y="-73" font-family="Helvetica,sans-Serif" font-size="10.00">_handler.c</text>
</a>
</g>
</g>
<!-- Node3&#45;&gt;Node6 -->
<g id="edge5_Node000003_Node000006" class="edge">
<title>Node3&#45;&gt;Node6</title>
<g id="a_edge5_Node000003_Node000006"><a xlink:title=" ">
<path fill="none" stroke="#63b8ff" d="M515.46,-134.89C474.18,-124.1 411.39,-107.7 366.69,-96.02"/>
<polygon fill="#63b8ff" stroke="#63b8ff" points="514.65,-138.29 525.21,-137.44 516.42,-131.52 514.65,-138.29"/>
</a>
</g>
</g>
<!-- Node7 -->
<g id="Node000007" class="node">
<title>Node7</title>
<g id="a_Node000007"><a xlink:href="server__module_8c.html" target="_top" xlink:title=" ">
<polygon fill="white" stroke="#666666" points="491.5,-96 384.5,-96 384.5,-66 491.5,-66 491.5,-96"/>
<text text-anchor="start" x="392.5" y="-84" font-family="Helvetica,sans-Serif" font-size="10.00">src/net/cms/server</text>
<text text-anchor="middle" x="438" y="-73" font-family="Helvetica,sans-Serif" font-size="10.00">_module.c</text>
</a>
</g>
</g>
<!-- Node3&#45;&gt;Node7 -->
<g id="edge6_Node000003_Node000007" class="edge">
<title>Node3&#45;&gt;Node7</title>
<g id="a_edge6_Node000003_Node000007"><a xlink:title=" ">
<path fill="none" stroke="#63b8ff" d="M532.96,-132.64C512.91,-121.95 484.88,-107 464.47,-96.12"/>
<polygon fill="#63b8ff" stroke="#63b8ff" points="531.35,-135.75 541.82,-137.37 534.64,-129.57 531.35,-135.75"/>
</a>
</g>
</g>
<!-- Node8 -->
<g id="Node000008" class="node">
<title>Node8</title>
<g id="a_Node000008"><a xlink:href="server__recv_8c.html" target="_top" xlink:title=" ">
<polygon fill="white" stroke="#666666" points="505.5,-30 398.5,-30 398.5,0 505.5,0 505.5,-30"/>
<text text-anchor="start" x="406.5" y="-18" font-family="Helvetica,sans-Serif" font-size="10.00">src/net/cms/server</text>
<text text-anchor="middle" x="452" y="-7" font-family="Helvetica,sans-Serif" font-size="10.00">_recv.c</text>
</a>
</g>
</g>
<!-- Node3&#45;&gt;Node8 -->
<g id="edge7_Node000003_Node000008" class="edge">
<title>Node3&#45;&gt;Node8</title>
<g id="a_edge7_Node000003_Node000008"><a xlink:title=" ">
<path fill="none" stroke="#63b8ff" d="M546.47,-128.68C535.21,-112.12 517.29,-86.69 500,-66 489.51,-53.44 476.61,-40.12 466.84,-30.38"/>
<polygon fill="#63b8ff" stroke="#63b8ff" points="543.79,-130.96 552.27,-137.3 549.59,-127.05 543.79,-130.96"/>
</a>
</g>
</g>
<!-- Node9 -->
<g id="Node000009" class="node">
<title>Node9</title>
<g id="a_Node000009"><a xlink:href="server__recv__frame_8c.html" target="_top" xlink:title=" ">
<polygon fill="white" stroke="#666666" points="630.5,-30 523.5,-30 523.5,0 630.5,0 630.5,-30"/>
<text text-anchor="start" x="531.5" y="-18" font-family="Helvetica,sans-Serif" font-size="10.00">src/net/cms/server</text>
<text text-anchor="middle" x="577" y="-7" font-family="Helvetica,sans-Serif" font-size="10.00">_recv_frame.c</text>
</a>
</g>
</g>
<!-- Node3&#45;&gt;Node9 -->
<g id="edge8_Node000003_Node000009" class="edge">
<title>Node3&#45;&gt;Node9</title>
<g id="a_edge8_Node000003_Node000009"><a xlink:title=" ">
<path fill="none" stroke="#63b8ff" d="M560.73,-127.32C564.58,-101 571.5,-53.61 574.94,-30.07"/>
<polygon fill="#63b8ff" stroke="#63b8ff" points="557.23,-127.07 559.25,-137.47 564.16,-128.08 557.23,-127.07"/>
</a>
</g>
</g>
<!-- Node10 -->
<g id="Node000010" class="node">
<title>Node10</title>
<g id="a_Node000010"><a xlink:href="server__recv__internal_8h.html" target="_top" xlink:title=" ">
<polygon fill="white" stroke="#666666" points="693.5,-96 586.5,-96 586.5,-66 693.5,-66 693.5,-96"/>
<text text-anchor="start" x="594.5" y="-84" font-family="Helvetica,sans-Serif" font-size="10.00">src/net/cms/server</text>
<text text-anchor="middle" x="640" y="-73" font-family="Helvetica,sans-Serif" font-size="10.00">_recv_internal.h</text>
</a>
</g>
</g>
<!-- Node3&#45;&gt;Node10 -->
<g id="edge9_Node000003_Node000010" class="edge">
<title>Node3&#45;&gt;Node10</title>
<g id="a_edge9_Node000003_Node000010"><a xlink:title=" ">
<path fill="none" stroke="#63b8ff" d="M577.2,-131.02C590.7,-120.48 608.66,-106.46 621.91,-96.12"/>
<polygon fill="#63b8ff" stroke="#63b8ff" points="574.79,-128.46 569.06,-137.37 579.1,-133.98 574.79,-128.46"/>
</a>
</g>
</g>
<!-- Node11 -->
<g id="Node000011" class="node">
<title>Node11</title>
<g id="a_Node000011"><a xlink:href="server__recv__lifecycle_8c.html" target="_top" xlink:title=" ">
<polygon fill="white" stroke="#666666" points="755.5,-30 648.5,-30 648.5,0 755.5,0 755.5,-30"/>
<text text-anchor="start" x="656.5" y="-18" font-family="Helvetica,sans-Serif" font-size="10.00">src/net/cms/server</text>
<text text-anchor="middle" x="702" y="-7" font-family="Helvetica,sans-Serif" font-size="10.00">_recv_lifecycle.c</text>
</a>
</g>
</g>
<!-- Node3&#45;&gt;Node11 -->
<g id="edge14_Node000003_Node000011" class="edge">
<title>Node3&#45;&gt;Node11</title>
<g id="a_edge14_Node000003_Node000011"><a xlink:title=" ">
<path fill="none" stroke="#63b8ff" d="M625.7,-139.81C654.43,-133.45 685.3,-120.83 703,-96 716.79,-76.66 711.71,-47.46 706.82,-30.21"/>
<polygon fill="#63b8ff" stroke="#63b8ff" points="624.78,-136.43 615.66,-141.81 626.15,-143.29 624.78,-136.43"/>
</a>
</g>
</g>
<!-- Node12 -->
<g id="Node000012" class="node">
<title>Node12</title>
<g id="a_Node000012"><a xlink:href="server__recv__parse_8c.html" target="_top" xlink:title=" ">
<polygon fill="white" stroke="#666666" points="880.5,-30 773.5,-30 773.5,0 880.5,0 880.5,-30"/>
<text text-anchor="start" x="781.5" y="-18" font-family="Helvetica,sans-Serif" font-size="10.00">src/net/cms/server</text>
<text text-anchor="middle" x="827" y="-7" font-family="Helvetica,sans-Serif" font-size="10.00">_recv_parse.c</text>
</a>
</g>
</g>
<!-- Node3&#45;&gt;Node12 -->
<g id="edge15_Node000003_Node000012" class="edge">
<title>Node3&#45;&gt;Node12</title>
<g id="a_edge15_Node000003_Node000012"><a xlink:title=" ">
<path fill="none" stroke="#63b8ff" d="M609.61,-135.07C642.59,-126.91 685.64,-114.05 721,-96 756.52,-77.86 792.44,-47.7 812,-30.06"/>
<polygon fill="#63b8ff" stroke="#63b8ff" points="608.63,-131.71 599.72,-137.45 610.26,-138.51 608.63,-131.71"/>
</a>
</g>
</g>
<!-- Node13 -->
<g id="Node000013" class="node">
<title>Node13</title>
<g id="a_Node000013"><a xlink:href="server__send_8c.html" target="_top" xlink:title=" ">
<polygon fill="white" stroke="#666666" points="895.5,-96 788.5,-96 788.5,-66 895.5,-66 895.5,-96"/>
<text text-anchor="start" x="796.5" y="-84" font-family="Helvetica,sans-Serif" font-size="10.00">src/net/cms/server</text>
<text text-anchor="middle" x="842" y="-73" font-family="Helvetica,sans-Serif" font-size="10.00">_send.c</text>
</a>
</g>
</g>
<!-- Node3&#45;&gt;Node13 -->
<g id="edge16_Node000003_Node000013" class="edge">
<title>Node3&#45;&gt;Node13</title>
<g id="a_edge16_Node000003_Node000013"><a xlink:title=" ">
<path fill="none" stroke="#63b8ff" d="M606.03,-135.18C656.57,-123.79 735.95,-105.9 788.48,-94.06"/>
<polygon fill="#63b8ff" stroke="#63b8ff" points="604.99,-131.82 596.01,-137.44 606.53,-138.65 604.99,-131.82"/>
</a>
</g>
</g>
<!-- Node14 -->
<g id="Node000014" class="node">
<title>Node14</title>
<g id="a_Node000014"><a xlink:href="locate_8c.html" target="_top" xlink:title=" ">
<polygon fill="white" stroke="#666666" points="1014.5,-96 913.5,-96 913.5,-66 1014.5,-66 1014.5,-96"/>
<text text-anchor="start" x="921.5" y="-84" font-family="Helvetica,sans-Serif" font-size="10.00">src/protocols/root</text>
<text text-anchor="middle" x="964" y="-73" font-family="Helvetica,sans-Serif" font-size="10.00">/read/locate.c</text>
</a>
</g>
</g>
<!-- Node3&#45;&gt;Node14 -->
<g id="edge17_Node000003_Node000014" class="edge">
<title>Node3&#45;&gt;Node14</title>
<g id="a_edge17_Node000003_Node000014"><a xlink:title=" ">
<path fill="none" stroke="#63b8ff" d="M625.71,-138.07C695.86,-129.43 808.55,-114.35 905,-96 907.69,-95.49 910.44,-94.94 913.21,-94.36"/>
<polygon fill="#63b8ff" stroke="#63b8ff" points="625.17,-134.61 615.67,-139.3 626.02,-141.56 625.17,-134.61"/>
</a>
</g>
</g>
<!-- Node10&#45;&gt;Node8 -->
<g id="edge10_Node000010_Node000008" class="edge">
<title>Node10&#45;&gt;Node8</title>
<g id="a_edge10_Node000010_Node000008"><a xlink:title=" ">
<path fill="none" stroke="#63b8ff" d="M589.25,-62.72C559.13,-52.47 521.42,-39.63 493.16,-30.01"/>
<polygon fill="#63b8ff" stroke="#63b8ff" points="588.15,-66.05 598.74,-65.95 590.4,-59.42 588.15,-66.05"/>
</a>
</g>
</g>
<!-- Node10&#45;&gt;Node9 -->
<g id="edge11_Node000010_Node000009" class="edge">
<title>Node10&#45;&gt;Node9</title>
<g id="a_edge11_Node000010_Node000009"><a xlink:title=" ">
<path fill="none" stroke="#63b8ff" d="M618.98,-58.65C609.75,-49.27 599.17,-38.53 590.94,-30.16"/>
<polygon fill="#63b8ff" stroke="#63b8ff" points="616.51,-61.13 626.02,-65.8 621.5,-56.21 616.51,-61.13"/>
</a>
</g>
</g>
<!-- Node10&#45;&gt;Node11 -->
<g id="edge12_Node000010_Node000011" class="edge">
<title>Node10&#45;&gt;Node11</title>
<g id="a_edge12_Node000010_Node000011"><a xlink:title=" ">
<path fill="none" stroke="#63b8ff" d="M660.96,-58.37C669.97,-49.06 680.26,-38.44 688.28,-30.16"/>
<polygon fill="#63b8ff" stroke="#63b8ff" points="658.2,-56.18 653.76,-65.8 663.23,-61.05 658.2,-56.18"/>
</a>
</g>
</g>
<!-- Node10&#45;&gt;Node12 -->
<g id="edge13_Node000010_Node000012" class="edge">
<title>Node10&#45;&gt;Node12</title>
<g id="a_edge13_Node000010_Node000012"><a xlink:title=" ">
<path fill="none" stroke="#63b8ff" d="M690.87,-62.59C720.77,-52.36 758.07,-39.59 786.06,-30.01"/>
<polygon fill="#63b8ff" stroke="#63b8ff" points="689.37,-59.41 681.04,-65.95 691.63,-66.03 689.37,-59.41"/>
</a>
</g>
</g>
</g>
</svg>
