<?xml version="1.0" encoding="UTF-8" standalone="no"?>
<!DOCTYPE svg PUBLIC "-//W3C//DTD SVG 1.1//EN"
 "http://www.w3.org/Graphics/SVG/1.1/DTD/svg11.dtd">
<!-- Generated by graphviz version 2.43.0 (0)
 -->
<!-- Title: src/net/cms/blacklist_file.h Pages: 1 -->
<!--zoomable 236 -->

<svg id="main" version="1.1" xmlns="http://www.w3.org/2000/svg" xmlns:xlink="http://www.w3.org/1999/xlink" xml:space="preserve" onload="init(evt)">
<style type="text/css"><![CDATA[
.node, .edge {opacity: 0.7;}
.node.selected, .edge.selected {opacity: 1;}
.edge:hover path { stroke: red; }
.edge:hover polygon { stroke: red; fill: red; }
]]></style>

<defs>
  <circle id="rim" cx="0" cy="0" r="7"/>
  <circle id="rim2" cx="0" cy="0" r="3.5"/>
  <g id="zoomPlus">
    <use xlink:href="#rim" fill="#404040"><set attributeName="fill" to="#808080" begin="zoomplus.mouseover" end="zoomplus.mouseout"/></use>
    <path d="M-4,0h8M0,-4v8" fill="none" stroke="white" stroke-width="1.5" pointer-events="none"/>
  </g>
  <g id="zoomMin">
    <use xlink:href="#rim" fill="#404040"><set attributeName="fill" to="#808080" begin="zoomminus.mouseover" end="zoomminus.mouseout"/></use>
    <path d="M-4,0h8" fill="none" stroke="white" stroke-width="1.5" pointer-events="none"/>
  </g>
  <g id="arrowUp" transform="translate(30 24)">
    <use xlink:href="#rim"/>
    <path pointer-events="none" fill="none" stroke="white" stroke-width="1.5" d="M0,-3.0v7 M-2.5,-0.5L0,-3.0L2.5,-0.5"/>
  </g>
  <g id="arrowRight" transform="rotate(90) translate(36 -43)">
    <use xlink:href="#rim"/>
    <path pointer-events="none" fill="none" stroke="white" stroke-width="1.5" d="M0,-3.0v7 M-2.5,-0.5L0,-3.0L2.5,-0.5"/>
  </g>
  <g id="arrowDown" transform="rotate(180) translate(-30 -48)">
    <use xlink:href="#rim"/>
    <path pointer-events="none" fill="none" stroke="white" stroke-width="1.5" d="M0,-3.0v7 M-2.5,-0.5L0,-3.0L2.5,-0.5"/>
  </g>
  <g id="arrowLeft" transform="rotate(270) translate(-36 17)">
    <use xlink:href="#rim"/>
    <path pointer-events="none" fill="none" stroke="white" stroke-width="1.5" d="M0,-3.0v7 M-2.5,-0.5L0,-3.0L2.5,-0.5"/>
  </g>
  <g id="resetDef">
    <use xlink:href="#rim2" fill="#404040"><set attributeName="fill" to="#808080" begin="reset.mouseover" end="reset.mouseout"/></use>
  </g>
</defs>
<script type="application/ecmascript">
var viewWidth = 1553;
var viewHeight = 236;
var sectionId = 'dynsection-1';
</script>
<script type="application/ecmascript" xlink:href="svg.min.js"/>
<svg id="graph" class="graph">
<g id="viewport">
<title>src/net/cms/blacklist_file.h</title>
<!-- Node1 -->
<g id="Node000001" class="node">
<title>Node1</title>
<g id="a_Node000001"><a xlink:title=" ">
<polygon fill="#999999" stroke="#666666" points="856.5,-228 739.5,-228 739.5,-198 856.5,-198 856.5,-228"/>
<text text-anchor="start" x="747.5" y="-216" font-family="Helvetica,sans-Serif" font-size="10.00">src/net/cms/blacklist</text>
<text text-anchor="middle" x="798" y="-205" font-family="Helvetica,sans-Serif" font-size="10.00">_file.h</text>
</a>
</g>
</g>
<!-- Node2 -->
<g id="Node000002" class="node">
<title>Node2</title>
<g id="a_Node000002"><a xlink:href="blacklist__file_8c.html" target="_top" xlink:title=" ">
<polygon fill="white" stroke="#666666" points="789.5,-162 672.5,-162 672.5,-132 789.5,-132 789.5,-162"/>
<text text-anchor="start" x="680.5" y="-150" font-family="Helvetica,sans-Serif" font-size="10.00">src/net/cms/blacklist</text>
<text text-anchor="middle" x="731" y="-139" font-family="Helvetica,sans-Serif" font-size="10.00">_file.c</text>
</a>
</g>
</g>
<!-- Node1&#45;&gt;Node2 -->
<g id="edge1_Node000001_Node000002" class="edge">
<title>Node1&#45;&gt;Node2</title>
<g id="a_edge1_Node000001_Node000002"><a xlink:title=" ">
<path fill="none" stroke="#63b8ff" d="M775.65,-190.65C765.83,-181.27 754.58,-170.53 745.83,-162.16"/>
<polygon fill="#63b8ff" stroke="#63b8ff" points="773.48,-193.42 783.13,-197.8 778.32,-188.36 773.48,-193.42"/>
</a>
</g>
</g>
<!-- Node3 -->
<g id="Node000003" class="node">
<title>Node3</title>
<g id="a_Node000003"><a xlink:href="server_8h.html" target="_top" xlink:title=" ">
<polygon fill="white" stroke="#666666" points="922.5,-156.5 807.5,-156.5 807.5,-137.5 922.5,-137.5 922.5,-156.5"/>
<text text-anchor="middle" x="865" y="-144.5" font-family="Helvetica,sans-Serif" font-size="10.00">src/net/cms/server.h</text>
</a>
</g>
</g>
<!-- Node1&#45;&gt;Node3 -->
<g id="edge2_Node000001_Node000003" class="edge">
<title>Node1&#45;&gt;Node3</title>
<g id="a_edge2_Node000001_Node000003"><a xlink:title=" ">
<path fill="none" stroke="#63b8ff" d="M820.4,-190.6C832.45,-179.1 846.66,-165.52 855.74,-156.84"/>
<polygon fill="#63b8ff" stroke="#63b8ff" points="817.68,-188.36 812.87,-197.8 822.52,-193.42 817.68,-188.36"/>
</a>
</g>
</g>
<!-- Node4 -->
<g id="Node000004" class="node">
<title>Node4</title>
<g id="a_Node000004"><a xlink:href="fanout_8c.html" target="_top" xlink:title=" ">
<polygon fill="white" stroke="#666666" points="116,-90.5 0,-90.5 0,-71.5 116,-71.5 116,-90.5"/>
<text text-anchor="middle" x="58" y="-78.5" font-family="Helvetica,sans-Serif" font-size="10.00">src/net/cms/fanout.c</text>
</a>
</g>
</g>
<!-- Node3&#45;&gt;Node4 -->
<g id="edge3_Node000003_Node000004" class="edge">
<title>Node3&#45;&gt;Node4</title>
<g id="a_edge3_Node000003_Node000004"><a xlink:title=" ">
<path fill="none" stroke="#63b8ff" d="M818.94,-135.42C811.96,-134.09 804.81,-132.89 798,-132 500.98,-93.25 422.02,-134.75 125,-96 114.87,-94.68 103.98,-92.66 93.99,-90.57"/>
<polygon fill="#63b8ff" stroke="#63b8ff" points="818.52,-138.9 829.01,-137.43 819.89,-132.03 818.52,-138.9"/>
</a>
</g>
</g>
<!-- Node5 -->
<g id="Node000005" class="node">
<title>Node5</title>
<g id="a_Node000005"><a xlink:href="net_2cms_2recv__frame_8c.html" target="_top" xlink:title=" ">
<polygon fill="white" stroke="#666666" points="274,-90.5 134,-90.5 134,-71.5 274,-71.5 274,-90.5"/>
<text text-anchor="middle" x="204" y="-78.5" font-family="Helvetica,sans-Serif" font-size="10.00">src/net/cms/recv_frame.c</text>
</a>
</g>
</g>
<!-- Node3&#45;&gt;Node5 -->
<g id="edge4_Node000003_Node000005" class="edge">
<title>Node3&#45;&gt;Node5</title>
<g id="a_edge4_Node000003_Node000005"><a xlink:title=" ">
<path fill="none" stroke="#63b8ff" d="M818.69,-135.47C811.78,-134.15 804.72,-132.93 798,-132 570.73,-100.46 510.73,-124.06 283,-96 271.39,-94.57 258.89,-92.57 247.34,-90.53"/>
<polygon fill="#63b8ff" stroke="#63b8ff" points="818.15,-138.93 828.65,-137.46 819.53,-132.07 818.15,-138.93"/>
</a>
</g>
</g>
<!-- Node6 -->
<g id="Node000006" class="node">
<title>Node6</title>
<g id="a_Node000006"><a xlink:href="recv__frame__state_8c.html" target="_top" xlink:title=" ">
<polygon fill="white" stroke="#666666" points="423.5,-96 292.5,-96 292.5,-66 423.5,-66 423.5,-96"/>
<text text-anchor="start" x="300.5" y="-84" font-family="Helvetica,sans-Serif" font-size="10.00">src/net/cms/recv_frame</text>
<text text-anchor="middle" x="358" y="-73" font-family="Helvetica,sans-Serif" font-size="10.00">_state.c</text>
</a>
</g>
</g>
<!-- Node3&#45;&gt;Node6 -->
<g id="edge5_Node000003_Node000006" class="edge">
<title>Node3&#45;&gt;Node6</title>
<g id="a_edge5_Node000003_Node000006"><a xlink:title=" ">
<path fill="none" stroke="#63b8ff" d="M817.47,-135.41C810.94,-134.15 804.32,-132.97 798,-132 636.43,-107.25 593.79,-119.22 432,-96 429.28,-95.61 426.51,-95.19 423.72,-94.75"/>
<polygon fill="#63b8ff" stroke="#63b8ff" points="817.07,-138.9 827.57,-137.43 818.45,-132.04 817.07,-138.9"/>
</a>
</g>
</g>
<!-- Node7 -->
<g id="Node000007" class="node">
<title>Node7</title>
<g id="a_Node000007"><a xlink:href="server__auth_8c.html" target="_top" xlink:title=" ">
<polygon fill="white" stroke="#666666" points="548.5,-96 441.5,-96 441.5,-66 548.5,-66 548.5,-96"/>
<text text-anchor="start" x="449.5" y="-84" font-family="Helvetica,sans-Serif" font-size="10.00">src/net/cms/server</text>
<text text-anchor="middle" x="495" y="-73" font-family="Helvetica,sans-Serif" font-size="10.00">_auth.c</text>
</a>
</g>
</g>
<!-- Node3&#45;&gt;Node7 -->
<g id="edge6_Node000003_Node000007" class="edge">
<title>Node3&#45;&gt;Node7</title>
<g id="a_edge6_Node000003_Node000007"><a xlink:title=" ">
<path fill="none" stroke="#63b8ff" d="M816.02,-135.43C809.96,-134.22 803.84,-133.05 798,-132 691.4,-112.92 663.45,-115.94 557,-96 554.29,-95.49 551.52,-94.95 548.72,-94.38"/>
<polygon fill="#63b8ff" stroke="#63b8ff" points="815.61,-138.91 826.1,-137.48 817,-132.05 815.61,-138.91"/>
</a>
</g>
</g>
<!-- Node8 -->
<g id="Node000008" class="node">
<title>Node8</title>
<g id="a_Node000008"><a xlink:href="server__handler_8c.html" target="_top" xlink:title=" ">
<polygon fill="white" stroke="#666666" points="673.5,-96 566.5,-96 566.5,-66 673.5,-66 673.5,-96"/>
<text text-anchor="start" x="574.5" y="-84" font-family="Helvetica,sans-Serif" font-size="10.00">src/net/cms/server</text>
<text text-anchor="middle" x="620" y="-73" font-family="Helvetica,sans-Serif" font-size="10.00">_handler.c</text>
</a>
</g>
</g>
<!-- Node3&#45;&gt;Node8 -->
<g id="edge7_Node000003_Node000008" class="edge">
<title>Node3&#45;&gt;Node8</title>
<g id="a_edge7_Node000003_Node000008"><a xlink:title=" ">
<path fill="none" stroke="#63b8ff" d="M822.46,-134.89C781.18,-124.1 718.39,-107.7 673.69,-96.02"/>
<polygon fill="#63b8ff" stroke="#63b8ff" points="821.65,-138.29 832.21,-137.44 823.42,-131.52 821.65,-138.29"/>
</a>
</g>
</g>
<!-- Node9 -->
<g id="Node000009" class="node">
<title>Node9</title>
<g id="a_Node000009"><a xlink:href="server__module_8c.html" target="_top" xlink:title=" ">
<polygon fill="white" stroke="#666666" points="798.5,-96 691.5,-96 691.5,-66 798.5,-66 798.5,-96"/>
<text text-anchor="start" x="699.5" y="-84" font-family="Helvetica,sans-Serif" font-size="10.00">src/net/cms/server</text>
<text text-anchor="middle" x="745" y="-73" font-family="Helvetica,sans-Serif" font-size="10.00">_module.c</text>
</a>
</g>
</g>
<!-- Node3&#45;&gt;Node9 -->
<g id="edge8_Node000003_Node000009" class="edge">
<title>Node3&#45;&gt;Node9</title>
<g id="a_edge8_Node000003_Node000009"><a xlink:title=" ">
<path fill="none" stroke="#63b8ff" d="M839.96,-132.64C819.91,-121.95 791.88,-107 771.47,-96.12"/>
<polygon fill="#63b8ff" stroke="#63b8ff" points="838.35,-135.75 848.82,-137.37 841.64,-129.57 838.35,-135.75"/>
</a>
</g>
</g>
<!-- Node10 -->
<g id="Node000010" class="node">
<title>Node10</title>
<g id="a_Node000010"><a xlink:href="server__recv_8c.html" target="_top" xlink:title=" ">
<polygon fill="white" stroke="#666666" points="747.5,-30 640.5,-30 640.5,0 747.5,0 747.5,-30"/>
<text text-anchor="start" x="648.5" y="-18" font-family="Helvetica,sans-Serif" font-size="10.00">src/net/cms/server</text>
<text text-anchor="middle" x="694" y="-7" font-family="Helvetica,sans-Serif" font-size="10.00">_recv.c</text>
</a>
</g>
</g>
<!-- Node3&#45;&gt;Node10 -->
<g id="edge9_Node000003_Node000010" class="edge">
<title>Node3&#45;&gt;Node10</title>
<g id="a_edge9_Node000003_Node000010"><a xlink:title=" ">
<path fill="none" stroke="#63b8ff" d="M855.88,-128.38C845.93,-110.62 828.51,-83.39 807,-66 787.32,-50.08 761.77,-38.22 739.95,-30.05"/>
<polygon fill="#63b8ff" stroke="#63b8ff" points="852.91,-130.24 860.74,-137.38 859.07,-126.92 852.91,-130.24"/>
</a>
</g>
</g>
<!-- Node11 -->
<g id="Node000011" class="node">
<title>Node11</title>
<g id="a_Node000011"><a xlink:href="server__recv__frame_8c.html" target="_top" xlink:title=" ">
<polygon fill="white" stroke="#666666" points="872.5,-30 765.5,-30 765.5,0 872.5,0 872.5,-30"/>
<text text-anchor="start" x="773.5" y="-18" font-family="Helvetica,sans-Serif" font-size="10.00">src/net/cms/server</text>
<text text-anchor="middle" x="819" y="-7" font-family="Helvetica,sans-Serif" font-size="10.00">_recv_frame.c</text>
</a>
</g>
</g>
<!-- Node3&#45;&gt;Node11 -->
<g id="edge10_Node000003_Node000011" class="edge">
<title>Node3&#45;&gt;Node11</title>
<g id="a_edge10_Node000003_Node000011"><a xlink:title=" ">
<path fill="none" stroke="#63b8ff" d="M860.17,-127.6C855.72,-111.25 848.66,-86.78 841,-66 836.48,-53.72 830.44,-40.15 825.83,-30.25"/>
<polygon fill="#63b8ff" stroke="#63b8ff" points="856.85,-128.72 862.81,-137.48 863.61,-126.91 856.85,-128.72"/>
</a>
</g>
</g>
<!-- Node12 -->
<g id="Node000012" class="node">
<title>Node12</title>
<g id="a_Node000012"><a xlink:href="server__recv__frame__handlers_8c.html" target="_top" xlink:title=" ">
<polygon fill="white" stroke="#666666" points="1023.5,-30 890.5,-30 890.5,0 1023.5,0 1023.5,-30"/>
<text text-anchor="start" x="898.5" y="-18" font-family="Helvetica,sans-Serif" font-size="10.00">src/net/cms/server</text>
<text text-anchor="middle" x="957" y="-7" font-family="Helvetica,sans-Serif" font-size="10.00">_recv_frame_handlers.c</text>
</a>
</g>
</g>
<!-- Node3&#45;&gt;Node12 -->
<g id="edge11_Node000003_Node000012" class="edge">
<title>Node3&#45;&gt;Node12</title>
<g id="a_edge11_Node000003_Node000012"><a xlink:title=" ">
<path fill="none" stroke="#63b8ff" d="M876.99,-129.06C895.33,-103.14 930.01,-54.14 947.05,-30.07"/>
<polygon fill="#63b8ff" stroke="#63b8ff" points="873.96,-127.29 871.04,-137.47 879.67,-131.33 873.96,-127.29"/>
</a>
</g>
</g>
<!-- Node13 -->
<g id="Node000013" class="node">
<title>Node13</title>
<g id="a_Node000013"><a xlink:href="server__recv__internal_8h.html" target="_top" xlink:title=" ">
<polygon fill="white" stroke="#666666" points="1038.5,-96 931.5,-96 931.5,-66 1038.5,-66 1038.5,-96"/>
<text text-anchor="start" x="939.5" y="-84" font-family="Helvetica,sans-Serif" font-size="10.00">src/net/cms/server</text>
<text text-anchor="middle" x="985" y="-73" font-family="Helvetica,sans-Serif" font-size="10.00">_recv_internal.h</text>
</a>
</g>
</g>
<!-- Node3&#45;&gt;Node13 -->
<g id="edge12_Node000003_Node000013" class="edge">
<title>Node3&#45;&gt;Node13</title>
<g id="a_edge12_Node000003_Node000013"><a xlink:title=" ">
<path fill="none" stroke="#63b8ff" d="M890.04,-132.64C910.09,-121.95 938.12,-107 958.53,-96.12"/>
<polygon fill="#63b8ff" stroke="#63b8ff" points="888.36,-129.57 881.18,-137.37 891.65,-135.75 888.36,-129.57"/>
</a>
</g>
</g>
<!-- Node14 -->
<g id="Node000014" class="node">
<title>Node14</title>
<g id="a_Node000014"><a xlink:href="server__recv__lifecycle_8c.html" target="_top" xlink:title=" ">
<polygon fill="white" stroke="#666666" points="1148.5,-30 1041.5,-30 1041.5,0 1148.5,0 1148.5,-30"/>
<text text-anchor="start" x="1049.5" y="-18" font-family="Helvetica,sans-Serif" font-size="10.00">src/net/cms/server</text>
<text text-anchor="middle" x="1095" y="-7" font-family="Helvetica,sans-Serif" font-size="10.00">_recv_lifecycle.c</text>
</a>
</g>
</g>
<!-- Node3&#45;&gt;Node14 -->
<g id="edge18_Node000003_Node000014" class="edge">
<title>Node3&#45;&gt;Node14</title>
<g id="a_edge18_Node000003_Node000014"><a xlink:title=" ">
<path fill="none" stroke="#63b8ff" d="M933.02,-139.94C970.1,-133.75 1015.01,-121.25 1048,-96 1070.26,-78.97 1083.97,-48.13 1090.47,-30.12"/>
<polygon fill="#63b8ff" stroke="#63b8ff" points="932.14,-136.54 922.79,-141.53 933.21,-143.46 932.14,-136.54"/>
</a>
</g>
</g>
<!-- Node15 -->
<g id="Node000015" class="node">
<title>Node15</title>
<g id="a_Node000015"><a xlink:href="server__recv__parse_8c.html" target="_top" xlink:title=" ">
<polygon fill="white" stroke="#666666" points="1273.5,-30 1166.5,-30 1166.5,0 1273.5,0 1273.5,-30"/>
<text text-anchor="start" x="1174.5" y="-18" font-family="Helvetica,sans-Serif" font-size="10.00">src/net/cms/server</text>
<text text-anchor="middle" x="1220" y="-7" font-family="Helvetica,sans-Serif" font-size="10.00">_recv_parse.c</text>
</a>
</g>
</g>
<!-- Node3&#45;&gt;Node15 -->
<g id="edge19_Node000003_Node000015" class="edge">
<title>Node3&#45;&gt;Node15</title>
<g id="a_edge19_Node000003_Node000015"><a xlink:title=" ">
<path fill="none" stroke="#63b8ff" d="M929.91,-135.62C971.97,-127.65 1027.39,-114.79 1074,-96 1098.39,-86.17 1102.02,-78.79 1125,-66 1147.47,-53.49 1173.32,-39.93 1192.38,-30.1"/>
<polygon fill="#63b8ff" stroke="#63b8ff" points="929.26,-132.18 920.06,-137.44 930.53,-139.06 929.26,-132.18"/>
</a>
</g>
</g>
<!-- Node16 -->
<g id="Node000016" class="node">
<title>Node16</title>
<g id="a_Node000016"><a xlink:href="server__send_8c.html" target="_top" xlink:title=" ">
<polygon fill="white" stroke="#666666" points="1240.5,-96 1133.5,-96 1133.5,-66 1240.5,-66 1240.5,-96"/>
<text text-anchor="start" x="1141.5" y="-84" font-family="Helvetica,sans-Serif" font-size="10.00">src/net/cms/server</text>
<text text-anchor="middle" x="1187" y="-73" font-family="Helvetica,sans-Serif" font-size="10.00">_send.c</text>
</a>
</g>
</g>
<!-- Node3&#45;&gt;Node16 -->
<g id="edge20_Node000003_Node000016" class="edge">
<title>Node3&#45;&gt;Node16</title>
<g id="a_edge20_Node000003_Node000016"><a xlink:title=" ">
<path fill="none" stroke="#63b8ff" d="M918.97,-135.52C970.41,-125.49 1050.02,-109.89 1119,-96 1123.61,-95.07 1128.39,-94.1 1133.19,-93.12"/>
<polygon fill="#63b8ff" stroke="#63b8ff" points="918.22,-132.1 909.07,-137.44 919.56,-138.97 918.22,-132.1"/>
</a>
</g>
</g>
<!-- Node17 -->
<g id="Node000017" class="node">
<title>Node17</title>
<g id="a_Node000017"><a xlink:href="state__relay_8c.html" target="_top" xlink:title=" ">
<polygon fill="white" stroke="#666666" points="1395.5,-90.5 1258.5,-90.5 1258.5,-71.5 1395.5,-71.5 1395.5,-90.5"/>
<text text-anchor="middle" x="1327" y="-78.5" font-family="Helvetica,sans-Serif" font-size="10.00">src/net/cms/state_relay.c</text>
</a>
</g>
</g>
<!-- Node3&#45;&gt;Node17 -->
<g id="edge21_Node000003_Node000017" class="edge">
<title>Node3&#45;&gt;Node17</title>
<g id="a_edge21_Node000003_Node000017"><a xlink:title=" ">
<path fill="none" stroke="#63b8ff" d="M932.58,-138.28C1009.57,-129.23 1139.1,-113.27 1250,-96 1260.47,-94.37 1271.71,-92.43 1282.28,-90.53"/>
<polygon fill="#63b8ff" stroke="#63b8ff" points="932.05,-134.81 922.53,-139.45 932.87,-141.77 932.05,-134.81"/>
</a>
</g>
</g>
<!-- Node18 -->
<g id="Node000018" class="node">
<title>Node18</title>
<g id="a_Node000018"><a xlink:href="locate__manager_8c.html" target="_top" xlink:title=" ">
<polygon fill="white" stroke="#666666" points="1544.5,-96 1413.5,-96 1413.5,-66 1544.5,-66 1544.5,-96"/>
<text text-anchor="start" x="1421.5" y="-84" font-family="Helvetica,sans-Serif" font-size="10.00">src/protocols/root</text>
<text text-anchor="middle" x="1479" y="-73" font-family="Helvetica,sans-Serif" font-size="10.00">/read/locate_manager.c</text>
</a>
</g>
</g>
<!-- Node3&#45;&gt;Node18 -->
<g id="edge22_Node000003_Node000018" class="edge">
<title>Node3&#45;&gt;Node18</title>
<g id="a_edge22_Node000003_Node000018"><a xlink:title=" ">
<path fill="none" stroke="#63b8ff" d="M932.97,-141.78C1035.57,-134.94 1235.99,-119.76 1405,-96 1407.72,-95.62 1410.49,-95.2 1413.29,-94.77"/>
<polygon fill="#63b8ff" stroke="#63b8ff" points="932.5,-138.3 922.75,-142.45 932.96,-145.29 932.5,-138.3"/>
</a>
</g>
</g>
<!-- Node13&#45;&gt;Node10 -->
<g id="edge13_Node000013_Node000010" class="edge">
<title>Node13&#45;&gt;Node10</title>
<g id="a_edge13_Node000013_Node000010"><a xlink:title=" ">
<path fill="none" stroke="#63b8ff" d="M921.48,-66.26C875.5,-56.28 811.89,-42.41 756,-30 753.31,-29.4 750.55,-28.79 747.76,-28.16"/>
<polygon fill="#63b8ff" stroke="#63b8ff" points="920.79,-69.69 931.3,-68.39 922.27,-62.85 920.79,-69.69"/>
</a>
</g>
</g>
<!-- Node13&#45;&gt;Node11 -->
<g id="edge14_Node000013_Node000011" class="edge">
<title>Node13&#45;&gt;Node11</title>
<g id="a_edge14_Node000013_Node000011"><a xlink:title=" ">
<path fill="none" stroke="#63b8ff" d="M939.15,-62.32C912.73,-52.14 879.98,-39.51 855.34,-30.01"/>
<polygon fill="#63b8ff" stroke="#63b8ff" points="937.98,-65.62 948.57,-65.95 940.5,-59.09 937.98,-65.62"/>
</a>
</g>
</g>
<!-- Node13&#45;&gt;Node12 -->
<g id="edge15_Node000013_Node000012" class="edge">
<title>Node13&#45;&gt;Node12</title>
<g id="a_edge15_Node000013_Node000012"><a xlink:title=" ">
<path fill="none" stroke="#63b8ff" d="M974.67,-56.39C970.82,-47.59 966.57,-37.86 963.2,-30.16"/>
<polygon fill="#63b8ff" stroke="#63b8ff" points="971.57,-58.04 978.79,-65.8 977.98,-55.23 971.57,-58.04"/>
</a>
</g>
</g>
<!-- Node13&#45;&gt;Node14 -->
<g id="edge16_Node000013_Node000014" class="edge">
<title>Node13&#45;&gt;Node14</title>
<g id="a_edge16_Node000013_Node000014"><a xlink:title=" ">
<path fill="none" stroke="#63b8ff" d="M1018.18,-60.69C1035.16,-50.82 1055.45,-39.01 1070.92,-30.01"/>
<polygon fill="#63b8ff" stroke="#63b8ff" points="1016.02,-57.9 1009.14,-65.95 1019.54,-63.95 1016.02,-57.9"/>
</a>
</g>
</g>
<!-- Node13&#45;&gt;Node15 -->
<g id="edge17_Node000013_Node000015" class="edge">
<title>Node13&#45;&gt;Node15</title>
<g id="a_edge17_Node000013_Node000015"><a xlink:title=" ">
<path fill="none" stroke="#63b8ff" d="M1046.49,-63.25C1084.46,-52.91 1132.61,-39.8 1168.55,-30.01"/>
<polygon fill="#63b8ff" stroke="#63b8ff" points="1045.3,-59.95 1036.57,-65.95 1047.14,-66.7 1045.3,-59.95"/>
</a>
</g>
</g>
</g>
</svg>

<g id="navigator" transform="translate(0 0)" fill="#404254">
  <rect fill="#f2f5e9" fill-opacity="0.5" stroke="#606060" stroke-width=".5" x="0" y="0" width="60" height="60"/>
  <use id="zoomplus" xlink:href="#zoomPlus" x="17" y="9" onmousedown="handleZoom(evt,'in')"/>
  <use id="zoomminus" xlink:href="#zoomMin" x="42" y="9" onmousedown="handleZoom(evt,'out')"/>
  <use id="reset" xlink:href="#resetDef" x="30" y="36" onmousedown="handleReset()"/>
   <use id="arrowup" xlink:href="#arrowUp" x="0" y="0" onmousedown="handlePan(0,-1)"/>
  <use id="arrowright" xlink:href="#arrowRight" x="0" y="0" onmousedown="handlePan(1,0)"/>
  <use id="arrowdown" xlink:href="#arrowDown" x="0" y="0" onmousedown="handlePan(0,1)"/>
  <use id="arrowleft" xlink:href="#arrowLeft" x="0" y="0" onmousedown="handlePan(-1,0)"/>
</g>
<svg viewBox="0 0 15 15" width="100%" height="30px" preserveAspectRatio="xMaxYMin meet">
 <g id="arrow_out" transform="scale(0.3 0.3)">
  <a xlink:href="blacklist__file_8h__dep__incl_org.svg" target="_base">
   <rect id="button" ry="5" rx="5" y="6" x="6" height="38" width="38"
        fill="#f2f5e9" fill-opacity="0.5" stroke="#606060" stroke-width="1.0"/>
   <path id="arrow"
     d="M 11.500037,31.436501 C 11.940474,20.09759 22.043105,11.32322 32.158766,21.979434 L 37.068811,17.246167 C 37.068811,17.246167 37.088388,32 37.088388,32 L 22.160133,31.978069 C 22.160133,31.978069 26.997745,27.140456 26.997745,27.140456 C 18.528582,18.264221 13.291696,25.230495 11.500037,31.436501 z"
     style="fill:#404040;"/>
  </a>
 </g>
</svg>

<style type='text/css'>
<![CDATA[
[data-mouse-over-selected='false'] { opacity: 0.7; }
[data-mouse-over-selected='true']  { opacity: 1.0; }
]]>
</style>
<script type="application/ecmascript"><![CDATA[
document.addEventListener('DOMContentLoaded', (event) => {
  highlightEdges();
  highlightAdjacentNodes();
});
]]></script>
</svg>
