<?xml version="1.0" encoding="UTF-8" standalone="no"?>
<!DOCTYPE svg PUBLIC "-//W3C//DTD SVG 1.1//EN"
 "http://www.w3.org/Graphics/SVG/1.1/DTD/svg11.dtd">
<!-- Generated by graphviz version 2.43.0 (0)
 -->
<!-- Title: client/apps/fs/brixcvmfs.c Pages: 1 -->
<!--zoomable 148 -->

<svg id="main" version="1.1" xmlns="http://www.w3.org/2000/svg" xmlns:xlink="http://www.w3.org/1999/xlink" xml:space="preserve" onload="init(evt)">
<style type="text/css"><![CDATA[
.node, .edge {opacity: 0.7;}
.node.selected, .edge.selected {opacity: 1;}
.edge:hover path { stroke: red; }
.edge:hover polygon { stroke: red; fill: red; }
]]></style>

<defs>
  <circle id="rim" cx="0" cy="0" r="7"/>
  <circle id="rim2" cx="0" cy="0" r="3.5"/>
  <g id="zoomPlus">
    <use xlink:href="#rim" fill="#404040"><set attributeName="fill" to="#808080" begin="zoomplus.mouseover" end="zoomplus.mouseout"/></use>
    <path d="M-4,0h8M0,-4v8" fill="none" stroke="white" stroke-width="1.5" pointer-events="none"/>
  </g>
  <g id="zoomMin">
    <use xlink:href="#rim" fill="#404040"><set attributeName="fill" to="#808080" begin="zoomminus.mouseover" end="zoomminus.mouseout"/></use>
    <path d="M-4,0h8" fill="none" stroke="white" stroke-width="1.5" pointer-events="none"/>
  </g>
  <g id="arrowUp" transform="translate(30 24)">
    <use xlink:href="#rim"/>
    <path pointer-events="none" fill="none" stroke="white" stroke-width="1.5" d="M0,-3.0v7 M-2.5,-0.5L0,-3.0L2.5,-0.5"/>
  </g>
  <g id="arrowRight" transform="rotate(90) translate(36 -43)">
    <use xlink:href="#rim"/>
    <path pointer-events="none" fill="none" stroke="white" stroke-width="1.5" d="M0,-3.0v7 M-2.5,-0.5L0,-3.0L2.5,-0.5"/>
  </g>
  <g id="arrowDown" transform="rotate(180) translate(-30 -48)">
    <use xlink:href="#rim"/>
    <path pointer-events="none" fill="none" stroke="white" stroke-width="1.5" d="M0,-3.0v7 M-2.5,-0.5L0,-3.0L2.5,-0.5"/>
  </g>
  <g id="arrowLeft" transform="rotate(270) translate(-36 17)">
    <use xlink:href="#rim"/>
    <path pointer-events="none" fill="none" stroke="white" stroke-width="1.5" d="M0,-3.0v7 M-2.5,-0.5L0,-3.0L2.5,-0.5"/>
  </g>
  <g id="resetDef">
    <use xlink:href="#rim2" fill="#404040"><set attributeName="fill" to="#808080" begin="reset.mouseover" end="reset.mouseout"/></use>
  </g>
</defs>
<script type="application/ecmascript">
var viewWidth = 1164;
var viewHeight = 148;
var sectionId = 'dynsection-0';
</script>
<script type="application/ecmascript" xlink:href="svg.min.js"/>
<svg id="graph" class="graph">
<g id="viewport">
<title>client/apps/fs/brixcvmfs.c</title>
<!-- Node1 -->
<g id="Node000001" class="node">
<title>Node1</title>
<g id="a_Node000001"><a xlink:title=" ">
<polygon fill="#999999" stroke="#666666" points="680.08,-140 538.08,-140 538.08,-121 680.08,-121 680.08,-140"/>
<text text-anchor="middle" x="609.08" y="-128" font-family="Helvetica,sans-Serif" font-size="10.00">client/apps/fs/brixcvmfs.c</text>
</a>
</g>
</g>
<!-- Node2 -->
<g id="Node000002" class="node">
<title>Node2</title>
<g id="a_Node000002"><a xlink:title=" ">
<polygon fill="#e0e0e0" stroke="#999999" points="124.58,-19 47.58,-19 47.58,0 124.58,0 124.58,-19"/>
<text text-anchor="middle" x="86.08" y="-7" font-family="Helvetica,sans-Serif" font-size="10.00">fuse3/fuse.h</text>
</a>
</g>
</g>
<!-- Node1&#45;&gt;Node2 -->
<g id="edge1_Node000001_Node000002" class="edge">
<title>Node1&#45;&gt;Node2</title>
<g id="a_edge1_Node000001_Node000002"><a xlink:title=" ">
<path fill="none" stroke="#63b8ff" d="M538,-129.55C386.28,-128.93 41.63,-123.26 6.08,-85 -2.99,-75.23 -0.68,-66.49 6.08,-55 14.82,-40.14 30.52,-29.88 45.71,-22.99"/>
<polygon fill="#63b8ff" stroke="#63b8ff" points="47.14,-26.19 55.04,-19.13 44.46,-19.72 47.14,-26.19"/>
</a>
</g>
</g>
<!-- Node3 -->
<g id="Node000003" class="node">
<title>Node3</title>
<g id="a_Node000003"><a xlink:title=" ">
<polygon fill="#e0e0e0" stroke="#999999" points="80.58,-79.5 15.58,-79.5 15.58,-60.5 80.58,-60.5 80.58,-79.5"/>
<text text-anchor="middle" x="48.08" y="-67.5" font-family="Helvetica,sans-Serif" font-size="10.00">curl/curl.h</text>
</a>
</g>
</g>
<!-- Node1&#45;&gt;Node3 -->
<g id="edge2_Node000001_Node000003" class="edge">
<title>Node1&#45;&gt;Node3</title>
<g id="a_edge2_Node000001_Node000003"><a xlink:title=" ">
<path fill="none" stroke="#63b8ff" d="M538.06,-128.87C437.19,-126.76 247.14,-118.23 89.08,-85 86.02,-84.36 82.86,-83.55 79.73,-82.65"/>
<polygon fill="#63b8ff" stroke="#63b8ff" points="80.53,-79.23 69.94,-79.56 78.42,-85.91 80.53,-79.23"/>
</a>
</g>
</g>
<!-- Node4 -->
<g id="Node000004" class="node">
<title>Node4</title>
<g id="a_Node000004"><a xlink:title=" ">
<polygon fill="#e0e0e0" stroke="#999999" points="286.08,-19 170.08,-19 170.08,0 286.08,0 286.08,-19"/>
<text text-anchor="middle" x="228.08" y="-7" font-family="Helvetica,sans-Serif" font-size="10.00">cvmfs/client/client.h</text>
</a>
</g>
</g>
<!-- Node1&#45;&gt;Node4 -->
<g id="edge3_Node000001_Node000004" class="edge">
<title>Node1&#45;&gt;Node4</title>
<g id="a_edge3_Node000001_Node000004"><a xlink:title=" ">
<path fill="none" stroke="#63b8ff" d="M585.19,-120.99C564,-112.99 532.53,-100.03 507.08,-85 488.25,-73.88 488.05,-63.91 468.08,-55 413.23,-30.54 345.55,-19.52 296.06,-14.56"/>
<polygon fill="#63b8ff" stroke="#63b8ff" points="296.38,-11.08 286.1,-13.62 295.72,-18.04 296.38,-11.08"/>
</a>
</g>
</g>
<!-- Node5 -->
<g id="Node000005" class="node">
<title>Node5</title>
<g id="a_Node000005"><a xlink:title=" ">
<polygon fill="#e0e0e0" stroke="#999999" points="346.08,-85 234.08,-85 234.08,-55 346.08,-55 346.08,-85"/>
<text text-anchor="start" x="242.08" y="-73" font-family="Helvetica,sans-Serif" font-size="10.00">cvmfs/config/cvmfs</text>
<text text-anchor="middle" x="290.08" y="-62" font-family="Helvetica,sans-Serif" font-size="10.00">_conf.h</text>
</a>
</g>
</g>
<!-- Node1&#45;&gt;Node5 -->
<g id="edge4_Node000001_Node000005" class="edge">
<title>Node1&#45;&gt;Node5</title>
<g id="a_edge4_Node000001_Node000005"><a xlink:title=" ">
<path fill="none" stroke="#63b8ff" d="M556.92,-120.97C507.71,-112.78 431.61,-99.77 356.53,-85.24"/>
<polygon fill="#63b8ff" stroke="#63b8ff" points="356.91,-81.75 346.42,-83.27 355.57,-88.62 356.91,-81.75"/>
</a>
</g>
</g>
<!-- Node6 -->
<g id="Node000006" class="node">
<title>Node6</title>
<g id="a_Node000006"><a xlink:title=" ">
<polygon fill="#e0e0e0" stroke="#999999" points="459.58,-79.5 364.58,-79.5 364.58,-60.5 459.58,-60.5 459.58,-79.5"/>
<text text-anchor="middle" x="412.08" y="-67.5" font-family="Helvetica,sans-Serif" font-size="10.00">net/proxy_env.h</text>
</a>
</g>
</g>
<!-- Node1&#45;&gt;Node6 -->
<g id="edge5_Node000001_Node000006" class="edge">
<title>Node1&#45;&gt;Node6</title>
<g id="a_edge5_Node000001_Node000006"><a xlink:title=" ">
<path fill="none" stroke="#63b8ff" d="M580.44,-120.99C546.15,-110.81 488.6,-93.72 450.48,-82.4"/>
<polygon fill="#63b8ff" stroke="#63b8ff" points="451.34,-79.01 440.76,-79.52 449.35,-85.72 451.34,-79.01"/>
</a>
</g>
</g>
<!-- Node7 -->
<g id="Node000007" class="node">
<title>Node7</title>
<g id="a_Node000007"><a xlink:href="brixcvmfs__internal_8h.html" target="_top" xlink:title=" ">
<polygon fill="white" stroke="#666666" points="215.58,-79.5 98.58,-79.5 98.58,-60.5 215.58,-60.5 215.58,-79.5"/>
<text text-anchor="middle" x="157.08" y="-67.5" font-family="Helvetica,sans-Serif" font-size="10.00">brixcvmfs_internal.h</text>
</a>
</g>
</g>
<!-- Node1&#45;&gt;Node7 -->
<g id="edge6_Node000001_Node000007" class="edge">
<title>Node1&#45;&gt;Node7</title>
<g id="a_edge6_Node000001_Node000007"><a xlink:title=" ">
<path fill="none" stroke="#63b8ff" d="M538.05,-123.15C460.78,-115.8 333.76,-102.45 225.08,-85 218.76,-83.98 212.13,-82.79 205.59,-81.53"/>
<polygon fill="#63b8ff" stroke="#63b8ff" points="205.94,-78.03 195.45,-79.51 204.58,-84.89 205.94,-78.03"/>
</a>
</g>
</g>
<!-- Node8 -->
<g id="Node000008" class="node">
<title>Node8</title>
<g id="a_Node000008"><a xlink:title=" ">
<polygon fill="#e0e0e0" stroke="#999999" points="567.58,-79.5 516.58,-79.5 516.58,-60.5 567.58,-60.5 567.58,-79.5"/>
<text text-anchor="middle" x="542.08" y="-67.5" font-family="Helvetica,sans-Serif" font-size="10.00">errno.h</text>
</a>
</g>
</g>
<!-- Node1&#45;&gt;Node8 -->
<g id="edge9_Node000001_Node000008" class="edge">
<title>Node1&#45;&gt;Node8</title>
<g id="a_edge9_Node000001_Node000008"><a xlink:title=" ">
<path fill="none" stroke="#63b8ff" d="M599.2,-120.87C588.8,-111.8 572.25,-97.34 559.63,-86.32"/>
<polygon fill="#63b8ff" stroke="#63b8ff" points="561.84,-83.61 552.01,-79.67 557.24,-88.88 561.84,-83.61"/>
</a>
</g>
</g>
<!-- Node9 -->
<g id="Node000009" class="node">
<title>Node9</title>
<g id="a_Node000009"><a xlink:title=" ">
<polygon fill="#e0e0e0" stroke="#999999" points="632.58,-79.5 585.58,-79.5 585.58,-60.5 632.58,-60.5 632.58,-79.5"/>
<text text-anchor="middle" x="609.08" y="-67.5" font-family="Helvetica,sans-Serif" font-size="10.00">fcntl.h</text>
</a>
</g>
</g>
<!-- Node1&#45;&gt;Node9 -->
<g id="edge10_Node000001_Node000009" class="edge">
<title>Node1&#45;&gt;Node9</title>
<g id="a_edge10_Node000001_Node000009"><a xlink:title=" ">
<path fill="none" stroke="#63b8ff" d="M609.08,-120.87C609.08,-112.75 609.08,-100.31 609.08,-89.89"/>
<polygon fill="#63b8ff" stroke="#63b8ff" points="612.58,-89.67 609.08,-79.67 605.58,-89.67 612.58,-89.67"/>
</a>
</g>
</g>
<!-- Node10 -->
<g id="Node000010" class="node">
<title>Node10</title>
<g id="a_Node000010"><a xlink:title=" ">
<polygon fill="#e0e0e0" stroke="#999999" points="701.08,-79.5 651.08,-79.5 651.08,-60.5 701.08,-60.5 701.08,-79.5"/>
<text text-anchor="middle" x="676.08" y="-67.5" font-family="Helvetica,sans-Serif" font-size="10.00">stdio.h</text>
</a>
</g>
</g>
<!-- Node1&#45;&gt;Node10 -->
<g id="edge11_Node000001_Node000010" class="edge">
<title>Node1&#45;&gt;Node10</title>
<g id="a_edge11_Node000001_Node000010"><a xlink:title=" ">
<path fill="none" stroke="#63b8ff" d="M618.97,-120.87C629.36,-111.8 645.92,-97.34 658.54,-86.32"/>
<polygon fill="#63b8ff" stroke="#63b8ff" points="660.92,-88.88 666.16,-79.67 656.32,-83.61 660.92,-88.88"/>
</a>
</g>
</g>
<!-- Node11 -->
<g id="Node000011" class="node">
<title>Node11</title>
<g id="a_Node000011"><a xlink:title=" ">
<polygon fill="#e0e0e0" stroke="#999999" points="772.58,-79.5 719.58,-79.5 719.58,-60.5 772.58,-60.5 772.58,-79.5"/>
<text text-anchor="middle" x="746.08" y="-67.5" font-family="Helvetica,sans-Serif" font-size="10.00">stdlib.h</text>
</a>
</g>
</g>
<!-- Node1&#45;&gt;Node11 -->
<g id="edge12_Node000001_Node000011" class="edge">
<title>Node1&#45;&gt;Node11</title>
<g id="a_edge12_Node000001_Node000011"><a xlink:title=" ">
<path fill="none" stroke="#63b8ff" d="M629,-120.99C652.04,-111.16 690.16,-94.88 716.62,-83.58"/>
<polygon fill="#63b8ff" stroke="#63b8ff" points="718.31,-86.66 726.14,-79.52 715.57,-80.22 718.31,-86.66"/>
</a>
</g>
</g>
<!-- Node12 -->
<g id="Node000012" class="node">
<title>Node12</title>
<g id="a_Node000012"><a xlink:title=" ">
<polygon fill="#e0e0e0" stroke="#999999" points="843.58,-79.5 790.58,-79.5 790.58,-60.5 843.58,-60.5 843.58,-79.5"/>
<text text-anchor="middle" x="817.08" y="-67.5" font-family="Helvetica,sans-Serif" font-size="10.00">string.h</text>
</a>
</g>
</g>
<!-- Node1&#45;&gt;Node12 -->
<g id="edge13_Node000001_Node000012" class="edge">
<title>Node1&#45;&gt;Node12</title>
<g id="a_edge13_Node000001_Node000012"><a xlink:title=" ">
<path fill="none" stroke="#63b8ff" d="M647.37,-120.96C682.47,-112.81 735.73,-99.63 781.08,-85 782.95,-84.4 784.86,-83.75 786.78,-83.08"/>
<polygon fill="#63b8ff" stroke="#63b8ff" points="788.12,-86.31 796.29,-79.56 785.7,-79.74 788.12,-86.31"/>
</a>
</g>
</g>
<!-- Node13 -->
<g id="Node000013" class="node">
<title>Node13</title>
<g id="a_Node000013"><a xlink:title=" ">
<polygon fill="#e0e0e0" stroke="#999999" points="916.08,-79.5 862.08,-79.5 862.08,-60.5 916.08,-60.5 916.08,-79.5"/>
<text text-anchor="middle" x="889.08" y="-67.5" font-family="Helvetica,sans-Serif" font-size="10.00">dirent.h</text>
</a>
</g>
</g>
<!-- Node1&#45;&gt;Node13 -->
<g id="edge14_Node000001_Node000013" class="edge">
<title>Node1&#45;&gt;Node13</title>
<g id="a_edge14_Node000001_Node000013"><a xlink:title=" ">
<path fill="none" stroke="#63b8ff" d="M673.24,-120.98C722.65,-113.65 792.38,-101.62 852.08,-85 854.37,-84.36 856.72,-83.64 859.06,-82.87"/>
<polygon fill="#63b8ff" stroke="#63b8ff" points="860.3,-86.15 868.56,-79.52 857.96,-79.55 860.3,-86.15"/>
</a>
</g>
</g>
<!-- Node14 -->
<g id="Node000014" class="node">
<title>Node14</title>
<g id="a_Node000014"><a xlink:title=" ">
<polygon fill="#e0e0e0" stroke="#999999" points="998.08,-79.5 934.08,-79.5 934.08,-60.5 998.08,-60.5 998.08,-79.5"/>
<text text-anchor="middle" x="966.08" y="-67.5" font-family="Helvetica,sans-Serif" font-size="10.00">sys/stat.h</text>
</a>
</g>
</g>
<!-- Node1&#45;&gt;Node14 -->
<g id="edge15_Node000001_Node000014" class="edge">
<title>Node1&#45;&gt;Node14</title>
<g id="a_edge15_Node000001_Node000014"><a xlink:title=" ">
<path fill="none" stroke="#63b8ff" d="M680.4,-123.35C744.92,-116.86 842.23,-104.79 925.08,-85 927.89,-84.33 930.79,-83.54 933.67,-82.69"/>
<polygon fill="#63b8ff" stroke="#63b8ff" points="934.85,-85.99 943.32,-79.63 932.73,-79.32 934.85,-85.99"/>
</a>
</g>
</g>
<!-- Node15 -->
<g id="Node000015" class="node">
<title>Node15</title>
<g id="a_Node000015"><a xlink:href="time_8h.html" target="_top" xlink:title=" ">
<polygon fill="white" stroke="#666666" points="1064.08,-79.5 1016.08,-79.5 1016.08,-60.5 1064.08,-60.5 1064.08,-79.5"/>
<text text-anchor="middle" x="1040.08" y="-67.5" font-family="Helvetica,sans-Serif" font-size="10.00">time.h</text>
</a>
</g>
</g>
<!-- Node1&#45;&gt;Node15 -->
<g id="edge16_Node000001_Node000015" class="edge">
<title>Node1&#45;&gt;Node15</title>
<g id="a_edge16_Node000001_Node000015"><a xlink:title=" ">
<path fill="none" stroke="#63b8ff" d="M680.31,-127.73C760.83,-124.31 895.27,-114.3 1007.08,-85 1009.02,-84.49 1011,-83.89 1012.97,-83.22"/>
<polygon fill="#63b8ff" stroke="#63b8ff" points="1014.52,-86.38 1022.6,-79.53 1012.01,-79.84 1014.52,-86.38"/>
</a>
</g>
</g>
<!-- Node17 -->
<g id="Node000017" class="node">
<title>Node17</title>
<g id="a_Node000017"><a xlink:title=" ">
<polygon fill="#e0e0e0" stroke="#999999" points="1156.08,-79.5 1100.08,-79.5 1100.08,-60.5 1156.08,-60.5 1156.08,-79.5"/>
<text text-anchor="middle" x="1128.08" y="-67.5" font-family="Helvetica,sans-Serif" font-size="10.00">unistd.h</text>
</a>
</g>
</g>
<!-- Node1&#45;&gt;Node17 -->
<g id="edge19_Node000001_Node000017" class="edge">
<title>Node1&#45;&gt;Node17</title>
<g id="a_edge19_Node000001_Node000017"><a xlink:title=" ">
<path fill="none" stroke="#63b8ff" d="M680.27,-128.89C775.16,-126.73 947.79,-118.08 1091.08,-85 1093.6,-84.42 1096.18,-83.71 1098.74,-82.91"/>
<polygon fill="#63b8ff" stroke="#63b8ff" points="1100.11,-86.14 1108.42,-79.56 1097.82,-79.53 1100.11,-86.14"/>
</a>
</g>
</g>
<!-- Node7&#45;&gt;Node2 -->
<g id="edge7_Node000007_Node000002" class="edge">
<title>Node7&#45;&gt;Node2</title>
<g id="a_edge7_Node000007_Node000002"><a xlink:title=" ">
<path fill="none" stroke="#63b8ff" d="M146.61,-60.37C135.59,-51.3 118.05,-36.84 104.68,-25.82"/>
<polygon fill="#63b8ff" stroke="#63b8ff" points="106.54,-22.83 96.6,-19.17 102.09,-28.23 106.54,-22.83"/>
</a>
</g>
</g>
<!-- Node7&#45;&gt;Node4 -->
<g id="edge8_Node000007_Node000004" class="edge">
<title>Node7&#45;&gt;Node4</title>
<g id="a_edge8_Node000007_Node000004"><a xlink:title=" ">
<path fill="none" stroke="#63b8ff" d="M167.56,-60.37C178.57,-51.3 196.12,-36.84 209.49,-25.82"/>
<polygon fill="#63b8ff" stroke="#63b8ff" points="212.07,-28.23 217.56,-19.17 207.62,-22.83 212.07,-28.23"/>
</a>
</g>
</g>
<!-- Node15&#45;&gt;Node15 -->
<g id="edge18_Node000015_Node000015" class="edge">
<title>Node15&#45;&gt;Node15</title>
<g id="a_edge18_Node000015_Node000015"><a xlink:title=" ">
<path fill="none" stroke="#63b8ff" d="M1055.59,-79.53C1068.55,-83.61 1082.08,-80.43 1082.08,-70 1082.08,-62.26 1074.63,-58.51 1065.48,-58.76"/>
<polygon fill="#63b8ff" stroke="#63b8ff" points="1064.85,-55.32 1055.59,-60.47 1066.04,-62.22 1064.85,-55.32"/>
</a>
</g>
</g>
<!-- Node16 -->
<g id="Node000016" class="node">
<title>Node16</title>
<g id="a_Node000016"><a xlink:title=" ">
<polygon fill="#e0e0e0" stroke="#999999" points="1068.08,-19 1012.08,-19 1012.08,0 1068.08,0 1068.08,-19"/>
<text text-anchor="middle" x="1040.08" y="-7" font-family="Helvetica,sans-Serif" font-size="10.00">stddef.h</text>
</a>
</g>
</g>
<!-- Node15&#45;&gt;Node16 -->
<g id="edge17_Node000015_Node000016" class="edge">
<title>Node15&#45;&gt;Node16</title>
<g id="a_edge17_Node000015_Node000016"><a xlink:title=" ">
<path fill="none" stroke="#63b8ff" d="M1040.08,-60.37C1040.08,-52.25 1040.08,-39.81 1040.08,-29.39"/>
<polygon fill="#63b8ff" stroke="#63b8ff" points="1043.58,-29.17 1040.08,-19.17 1036.58,-29.17 1043.58,-29.17"/>
</a>
</g>
</g>
</g>
</svg>

<g id="navigator" transform="translate(0 0)" fill="#404254">
  <rect fill="#f2f5e9" fill-opacity="0.5" stroke="#606060" stroke-width=".5" x="0" y="0" width="60" height="60"/>
  <use id="zoomplus" xlink:href="#zoomPlus" x="17" y="9" onmousedown="handleZoom(evt,'in')"/>
  <use id="zoomminus" xlink:href="#zoomMin" x="42" y="9" onmousedown="handleZoom(evt,'out')"/>
  <use id="reset" xlink:href="#resetDef" x="30" y="36" onmousedown="handleReset()"/>
   <use id="arrowup" xlink:href="#arrowUp" x="0" y="0" onmousedown="handlePan(0,-1)"/>
  <use id="arrowright" xlink:href="#arrowRight" x="0" y="0" onmousedown="handlePan(1,0)"/>
  <use id="arrowdown" xlink:href="#arrowDown" x="0" y="0" onmousedown="handlePan(0,1)"/>
  <use id="arrowleft" xlink:href="#arrowLeft" x="0" y="0" onmousedown="handlePan(-1,0)"/>
</g>
<svg viewBox="0 0 15 15" width="100%" height="30px" preserveAspectRatio="xMaxYMin meet">
 <g id="arrow_out" transform="scale(0.3 0.3)">
  <a xlink:href="brixcvmfs_8c__incl_org.svg" target="_base">
   <rect id="button" ry="5" rx="5" y="6" x="6" height="38" width="38"
        fill="#f2f5e9" fill-opacity="0.5" stroke="#606060" stroke-width="1.0"/>
   <path id="arrow"
     d="M 11.500037,31.436501 C 11.940474,20.09759 22.043105,11.32322 32.158766,21.979434 L 37.068811,17.246167 C 37.068811,17.246167 37.088388,32 37.088388,32 L 22.160133,31.978069 C 22.160133,31.978069 26.997745,27.140456 26.997745,27.140456 C 18.528582,18.264221 13.291696,25.230495 11.500037,31.436501 z"
     style="fill:#404040;"/>
  </a>
 </g>
</svg>

<style type='text/css'>
<![CDATA[
[data-mouse-over-selected='false'] { opacity: 0.7; }
[data-mouse-over-selected='true']  { opacity: 1.0; }
]]>
</style>
<script type="application/ecmascript"><![CDATA[
document.addEventListener('DOMContentLoaded', (event) => {
  highlightEdges();
  highlightAdjacentNodes();
});
]]></script>
</svg>
