<?xml version="1.0" encoding="UTF-8" standalone="no"?>
<!DOCTYPE svg PUBLIC "-//W3C//DTD SVG 1.1//EN"
 "http://www.w3.org/Graphics/SVG/1.1/DTD/svg11.dtd">
<!-- Generated by graphviz version 2.43.0 (0)
 -->
<!-- Title: client/apps/diag/brix_fault_proxy.c Pages: 1 -->
<svg width="2121pt" height="148pt"
 viewBox="0.00 0.00 2121.00 148.00" xmlns="http://www.w3.org/2000/svg" xmlns:xlink="http://www.w3.org/1999/xlink">
<g id="graph0" class="graph" transform="scale(1 1) rotate(0) translate(4 144)">
<title>client/apps/diag/brix_fault_proxy.c</title>
<!-- Node1 -->
<g id="Node000001" class="node">
<title>Node1</title>
<g id="a_Node000001"><a xlink:title=" ">
<polygon fill="#999999" stroke="#666666" points="1005.5,-140 889.5,-140 889.5,-110 1005.5,-110 1005.5,-140"/>
<text text-anchor="start" x="897.5" y="-128" font-family="Helvetica,sans-Serif" font-size="10.00">client/apps/diag/brix</text>
<text text-anchor="middle" x="947.5" y="-117" font-family="Helvetica,sans-Serif" font-size="10.00">_fault_proxy.c</text>
</a>
</g>
</g>
<!-- Node2 -->
<g id="Node000002" class="node">
<title>Node2</title>
<g id="a_Node000002"><a xlink:title=" ">
<polygon fill="#e0e0e0" stroke="#999999" points="69,-74 0,-74 0,-55 69,-55 69,-74"/>
<text text-anchor="middle" x="34.5" y="-62" font-family="Helvetica,sans-Serif" font-size="10.00">arpa/inet.h</text>
</a>
</g>
</g>
<!-- Node1&#45;&gt;Node2 -->
<g id="edge1_Node000001_Node000002" class="edge">
<title>Node1&#45;&gt;Node2</title>
<g id="a_edge1_Node000001_Node000002"><a xlink:title=" ">
<path fill="none" stroke="#63b8ff" d="M889.47,-123.42C750.85,-121.45 389.49,-112.8 79.25,-74.05"/>
<polygon fill="#63b8ff" stroke="#63b8ff" points="79.53,-70.56 69.17,-72.78 78.65,-77.5 79.53,-70.56"/>
</a>
</g>
</g>
<!-- Node3 -->
<g id="Node000003" class="node">
<title>Node3</title>
<g id="a_Node000003"><a xlink:title=" ">
<polygon fill="#e0e0e0" stroke="#999999" points="140,-74 87,-74 87,-55 140,-55 140,-74"/>
<text text-anchor="middle" x="113.5" y="-62" font-family="Helvetica,sans-Serif" font-size="10.00">ctype.h</text>
</a>
</g>
</g>
<!-- Node1&#45;&gt;Node3 -->
<g id="edge2_Node000001_Node000003" class="edge">
<title>Node1&#45;&gt;Node3</title>
<g id="a_edge2_Node000001_Node000003"><a xlink:title=" ">
<path fill="none" stroke="#63b8ff" d="M889.48,-123.85C758.79,-122.77 431.47,-115.86 150.14,-73.99"/>
<polygon fill="#63b8ff" stroke="#63b8ff" points="150.57,-70.51 140.16,-72.49 149.52,-77.44 150.57,-70.51"/>
</a>
</g>
</g>
<!-- Node4 -->
<g id="Node000004" class="node">
<title>Node4</title>
<g id="a_Node000004"><a xlink:title=" ">
<polygon fill="#e0e0e0" stroke="#999999" points="209,-74 158,-74 158,-55 209,-55 209,-74"/>
<text text-anchor="middle" x="183.5" y="-62" font-family="Helvetica,sans-Serif" font-size="10.00">errno.h</text>
</a>
</g>
</g>
<!-- Node1&#45;&gt;Node4 -->
<g id="edge3_Node000001_Node000004" class="edge">
<title>Node1&#45;&gt;Node4</title>
<g id="a_edge3_Node000001_Node000004"><a xlink:title=" ">
<path fill="none" stroke="#63b8ff" d="M889.38,-123.49C766.88,-121.68 473.19,-113.37 219.18,-73.99"/>
<polygon fill="#63b8ff" stroke="#63b8ff" points="219.44,-70.49 209.02,-72.39 218.36,-77.4 219.44,-70.49"/>
</a>
</g>
</g>
<!-- Node5 -->
<g id="Node000005" class="node">
<title>Node5</title>
<g id="a_Node000005"><a xlink:title=" ">
<polygon fill="#e0e0e0" stroke="#999999" points="284,-74 227,-74 227,-55 284,-55 284,-74"/>
<text text-anchor="middle" x="255.5" y="-62" font-family="Helvetica,sans-Serif" font-size="10.00">getopt.h</text>
</a>
</g>
</g>
<!-- Node1&#45;&gt;Node5 -->
<g id="edge4_Node000001_Node000005" class="edge">
<title>Node1&#45;&gt;Node5</title>
<g id="a_edge4_Node000001_Node000005"><a xlink:title=" ">
<path fill="none" stroke="#63b8ff" d="M889.34,-122.48C776.28,-118.89 518.92,-107.62 294.11,-74.03"/>
<polygon fill="#63b8ff" stroke="#63b8ff" points="294.51,-70.55 284.1,-72.52 293.47,-77.47 294.51,-70.55"/>
</a>
</g>
</g>
<!-- Node6 -->
<g id="Node000006" class="node">
<title>Node6</title>
<g id="a_Node000006"><a xlink:title=" ">
<polygon fill="#e0e0e0" stroke="#999999" points="355,-74 302,-74 302,-55 355,-55 355,-74"/>
<text text-anchor="middle" x="328.5" y="-62" font-family="Helvetica,sans-Serif" font-size="10.00">netdb.h</text>
</a>
</g>
</g>
<!-- Node1&#45;&gt;Node6 -->
<g id="edge5_Node000001_Node000006" class="edge">
<title>Node1&#45;&gt;Node6</title>
<g id="a_edge5_Node000001_Node000006"><a xlink:title=" ">
<path fill="none" stroke="#63b8ff" d="M889.23,-121.83C785.66,-117.35 562.65,-104.93 365.13,-73.84"/>
<polygon fill="#63b8ff" stroke="#63b8ff" points="365.58,-70.37 355.15,-72.25 364.47,-77.28 365.58,-70.37"/>
</a>
</g>
</g>
<!-- Node7 -->
<g id="Node000007" class="node">
<title>Node7</title>
<g id="a_Node000007"><a xlink:title=" ">
<polygon fill="#e0e0e0" stroke="#999999" points="445.5,-74 373.5,-74 373.5,-55 445.5,-55 445.5,-74"/>
<text text-anchor="middle" x="409.5" y="-62" font-family="Helvetica,sans-Serif" font-size="10.00">netinet/in.h</text>
</a>
</g>
</g>
<!-- Node1&#45;&gt;Node7 -->
<g id="edge6_Node000001_Node000007" class="edge">
<title>Node1&#45;&gt;Node7</title>
<g id="a_edge6_Node000001_Node000007"><a xlink:title=" ">
<path fill="none" stroke="#63b8ff" d="M889.24,-119.72C798.69,-112.7 618.53,-97.31 455.99,-74.1"/>
<polygon fill="#63b8ff" stroke="#63b8ff" points="456.2,-70.6 445.8,-72.63 455.2,-77.52 456.2,-70.6"/>
</a>
</g>
</g>
<!-- Node8 -->
<g id="Node000008" class="node">
<title>Node8</title>
<g id="a_Node000008"><a xlink:title=" ">
<polygon fill="#e0e0e0" stroke="#999999" points="541.5,-74 463.5,-74 463.5,-55 541.5,-55 541.5,-74"/>
<text text-anchor="middle" x="502.5" y="-62" font-family="Helvetica,sans-Serif" font-size="10.00">netinet/tcp.h</text>
</a>
</g>
</g>
<!-- Node1&#45;&gt;Node8 -->
<g id="edge7_Node000001_Node000008" class="edge">
<title>Node1&#45;&gt;Node8</title>
<g id="a_edge7_Node000001_Node000008"><a xlink:title=" ">
<path fill="none" stroke="#63b8ff" d="M889.18,-117.58C813.72,-109.07 677.93,-93.05 551.74,-74.12"/>
<polygon fill="#63b8ff" stroke="#63b8ff" points="551.92,-70.61 541.51,-72.58 550.87,-77.53 551.92,-70.61"/>
</a>
</g>
</g>
<!-- Node9 -->
<g id="Node000009" class="node">
<title>Node9</title>
<g id="a_Node000009"><a xlink:title=" ">
<polygon fill="#e0e0e0" stroke="#999999" points="603.5,-74 559.5,-74 559.5,-55 603.5,-55 603.5,-74"/>
<text text-anchor="middle" x="581.5" y="-62" font-family="Helvetica,sans-Serif" font-size="10.00">poll.h</text>
</a>
</g>
</g>
<!-- Node1&#45;&gt;Node9 -->
<g id="edge8_Node000001_Node000009" class="edge">
<title>Node1&#45;&gt;Node9</title>
<g id="a_edge8_Node000001_Node000009"><a xlink:title=" ">
<path fill="none" stroke="#63b8ff" d="M889.33,-117.46C824.31,-109.67 715.78,-95.24 613.64,-74.02"/>
<polygon fill="#63b8ff" stroke="#63b8ff" points="614.28,-70.58 603.77,-71.95 612.84,-77.43 614.28,-70.58"/>
</a>
</g>
</g>
<!-- Node10 -->
<g id="Node000010" class="node">
<title>Node10</title>
<g id="a_Node000010"><a xlink:title=" ">
<polygon fill="#e0e0e0" stroke="#999999" points="685,-74 622,-74 622,-55 685,-55 685,-74"/>
<text text-anchor="middle" x="653.5" y="-62" font-family="Helvetica,sans-Serif" font-size="10.00">pthread.h</text>
</a>
</g>
</g>
<!-- Node1&#45;&gt;Node10 -->
<g id="edge9_Node000001_Node000010" class="edge">
<title>Node1&#45;&gt;Node10</title>
<g id="a_edge9_Node000001_Node000010"><a xlink:title=" ">
<path fill="none" stroke="#63b8ff" d="M889.44,-112.68C840.34,-103.08 767.87,-88.82 695.08,-74.1"/>
<polygon fill="#63b8ff" stroke="#63b8ff" points="695.77,-70.67 685.28,-72.12 694.38,-77.53 695.77,-70.67"/>
</a>
</g>
</g>
<!-- Node11 -->
<g id="Node000011" class="node">
<title>Node11</title>
<g id="a_Node000011"><a xlink:title=" ">
<polygon fill="#e0e0e0" stroke="#999999" points="759.5,-74 703.5,-74 703.5,-55 759.5,-55 759.5,-74"/>
<text text-anchor="middle" x="731.5" y="-62" font-family="Helvetica,sans-Serif" font-size="10.00">stdarg.h</text>
</a>
</g>
</g>
<!-- Node1&#45;&gt;Node11 -->
<g id="edge10_Node000001_Node000011" class="edge">
<title>Node1&#45;&gt;Node11</title>
<g id="a_edge10_Node000001_Node000011"><a xlink:title=" ">
<path fill="none" stroke="#63b8ff" d="M895.76,-109.99C856.91,-99.47 804.59,-85.29 769.53,-75.8"/>
<polygon fill="#63b8ff" stroke="#63b8ff" points="770.25,-72.37 759.68,-73.13 768.42,-79.13 770.25,-72.37"/>
</a>
</g>
</g>
<!-- Node12 -->
<g id="Node000012" class="node">
<title>Node12</title>
<g id="a_Node000012"><a xlink:title=" ">
<polygon fill="#e0e0e0" stroke="#999999" points="833,-74 778,-74 778,-55 833,-55 833,-74"/>
<text text-anchor="middle" x="805.5" y="-62" font-family="Helvetica,sans-Serif" font-size="10.00">signal.h</text>
</a>
</g>
</g>
<!-- Node1&#45;&gt;Node12 -->
<g id="edge11_Node000001_Node000012" class="edge">
<title>Node1&#45;&gt;Node12</title>
<g id="a_edge11_Node000001_Node000012"><a xlink:title=" ">
<path fill="none" stroke="#63b8ff" d="M913.49,-109.99C889.9,-100.27 858.76,-87.44 835.98,-78.06"/>
<polygon fill="#63b8ff" stroke="#63b8ff" points="837.05,-74.71 826.47,-74.14 834.38,-81.18 837.05,-74.71"/>
</a>
</g>
</g>
<!-- Node13 -->
<g id="Node000013" class="node">
<title>Node13</title>
<g id="a_Node000013"><a xlink:title=" ">
<polygon fill="#e0e0e0" stroke="#999999" points="904,-74 851,-74 851,-55 904,-55 904,-74"/>
<text text-anchor="middle" x="877.5" y="-62" font-family="Helvetica,sans-Serif" font-size="10.00">stdint.h</text>
</a>
</g>
</g>
<!-- Node1&#45;&gt;Node13 -->
<g id="edge12_Node000001_Node000013" class="edge">
<title>Node1&#45;&gt;Node13</title>
<g id="a_edge12_Node000001_Node000013"><a xlink:title=" ">
<path fill="none" stroke="#63b8ff" d="M930.55,-109.84C920.08,-101.09 906.64,-89.85 895.91,-80.88"/>
<polygon fill="#63b8ff" stroke="#63b8ff" points="897.91,-77.99 887.99,-74.27 893.42,-83.36 897.91,-77.99"/>
</a>
</g>
</g>
<!-- Node14 -->
<g id="Node000014" class="node">
<title>Node14</title>
<g id="a_Node000014"><a xlink:title=" ">
<polygon fill="#e0e0e0" stroke="#999999" points="972.5,-74 922.5,-74 922.5,-55 972.5,-55 972.5,-74"/>
<text text-anchor="middle" x="947.5" y="-62" font-family="Helvetica,sans-Serif" font-size="10.00">stdio.h</text>
</a>
</g>
</g>
<!-- Node1&#45;&gt;Node14 -->
<g id="edge13_Node000001_Node000014" class="edge">
<title>Node1&#45;&gt;Node14</title>
<g id="a_edge13_Node000001_Node000014"><a xlink:title=" ">
<path fill="none" stroke="#63b8ff" d="M947.5,-109.84C947.5,-102.21 947.5,-92.7 947.5,-84.45"/>
<polygon fill="#63b8ff" stroke="#63b8ff" points="951,-84.27 947.5,-74.27 944,-84.27 951,-84.27"/>
</a>
</g>
</g>
<!-- Node15 -->
<g id="Node000015" class="node">
<title>Node15</title>
<g id="a_Node000015"><a xlink:title=" ">
<polygon fill="#e0e0e0" stroke="#999999" points="1044,-74 991,-74 991,-55 1044,-55 1044,-74"/>
<text text-anchor="middle" x="1017.5" y="-62" font-family="Helvetica,sans-Serif" font-size="10.00">stdlib.h</text>
</a>
</g>
</g>
<!-- Node1&#45;&gt;Node15 -->
<g id="edge14_Node000001_Node000015" class="edge">
<title>Node1&#45;&gt;Node15</title>
<g id="a_edge14_Node000001_Node000015"><a xlink:title=" ">
<path fill="none" stroke="#63b8ff" d="M964.45,-109.84C974.92,-101.09 988.36,-89.85 999.09,-80.88"/>
<polygon fill="#63b8ff" stroke="#63b8ff" points="1001.58,-83.36 1007.01,-74.27 997.09,-77.99 1001.58,-83.36"/>
</a>
</g>
</g>
<!-- Node16 -->
<g id="Node000016" class="node">
<title>Node16</title>
<g id="a_Node000016"><a xlink:title=" ">
<polygon fill="#e0e0e0" stroke="#999999" points="1115,-74 1062,-74 1062,-55 1115,-55 1115,-74"/>
<text text-anchor="middle" x="1088.5" y="-62" font-family="Helvetica,sans-Serif" font-size="10.00">string.h</text>
</a>
</g>
</g>
<!-- Node1&#45;&gt;Node16 -->
<g id="edge15_Node000001_Node000016" class="edge">
<title>Node1&#45;&gt;Node16</title>
<g id="a_edge15_Node000001_Node000016"><a xlink:title=" ">
<path fill="none" stroke="#63b8ff" d="M981.27,-109.99C1004.69,-100.27 1035.62,-87.44 1058.23,-78.06"/>
<polygon fill="#63b8ff" stroke="#63b8ff" points="1059.78,-81.2 1067.68,-74.14 1057.1,-74.74 1059.78,-81.2"/>
</a>
</g>
</g>
<!-- Node17 -->
<g id="Node000017" class="node">
<title>Node17</title>
<g id="a_Node000017"><a xlink:title=" ">
<polygon fill="#e0e0e0" stroke="#999999" points="1257,-19 1180,-19 1180,0 1257,0 1257,-19"/>
<text text-anchor="middle" x="1218.5" y="-7" font-family="Helvetica,sans-Serif" font-size="10.00">sys/socket.h</text>
</a>
</g>
</g>
<!-- Node1&#45;&gt;Node17 -->
<g id="edge16_Node000001_Node000017" class="edge">
<title>Node1&#45;&gt;Node17</title>
<g id="a_edge16_Node000001_Node000017"><a xlink:title=" ">
<path fill="none" stroke="#63b8ff" d="M1005.79,-112.27C1040.87,-104.05 1085.87,-91.39 1123.5,-74 1151.97,-60.84 1181.52,-39.71 1199.95,-25.48"/>
<polygon fill="#63b8ff" stroke="#63b8ff" points="1202.35,-28.04 1208.05,-19.11 1198.02,-22.54 1202.35,-28.04"/>
</a>
</g>
</g>
<!-- Node18 -->
<g id="Node000018" class="node">
<title>Node18</title>
<g id="a_Node000018"><a xlink:title=" ">
<polygon fill="#e0e0e0" stroke="#999999" points="1227.5,-74 1171.5,-74 1171.5,-55 1227.5,-55 1227.5,-74"/>
<text text-anchor="middle" x="1199.5" y="-62" font-family="Helvetica,sans-Serif" font-size="10.00">unistd.h</text>
</a>
</g>
</g>
<!-- Node1&#45;&gt;Node18 -->
<g id="edge17_Node000001_Node000018" class="edge">
<title>Node1&#45;&gt;Node18</title>
<g id="a_edge17_Node000001_Node000018"><a xlink:title=" ">
<path fill="none" stroke="#63b8ff" d="M1005.63,-110.51C1053.47,-99.4 1119.91,-83.98 1161.27,-74.37"/>
<polygon fill="#63b8ff" stroke="#63b8ff" points="1162.27,-77.74 1171.22,-72.06 1160.69,-70.92 1162.27,-77.74"/>
</a>
</g>
</g>
<!-- Node19 -->
<g id="Node000019" class="node">
<title>Node19</title>
<g id="a_Node000019"><a xlink:href="time_8h.html" target="_top" xlink:title=" ">
<polygon fill="white" stroke="#666666" points="1511.5,-74 1463.5,-74 1463.5,-55 1511.5,-55 1511.5,-74"/>
<text text-anchor="middle" x="1487.5" y="-62" font-family="Helvetica,sans-Serif" font-size="10.00">time.h</text>
</a>
</g>
</g>
<!-- Node1&#45;&gt;Node19 -->
<g id="edge18_Node000001_Node000019" class="edge">
<title>Node1&#45;&gt;Node19</title>
<g id="a_edge18_Node000001_Node000019"><a xlink:title=" ">
<path fill="none" stroke="#63b8ff" d="M1005.68,-121.18C1098.51,-116.03 1285.87,-103.04 1453.45,-73.91"/>
<polygon fill="#63b8ff" stroke="#63b8ff" points="1454.2,-77.33 1463.44,-72.15 1452.99,-70.44 1454.2,-77.33"/>
</a>
</g>
</g>
<!-- Node21 -->
<g id="Node000021" class="node">
<title>Node21</title>
<g id="a_Node000021"><a xlink:href="version_8h.html" target="_top" xlink:title=" ">
<polygon fill="white" stroke="#666666" points="1445.5,-74 1359.5,-74 1359.5,-55 1445.5,-55 1445.5,-74"/>
<text text-anchor="middle" x="1402.5" y="-62" font-family="Helvetica,sans-Serif" font-size="10.00">core/version.h</text>
</a>
</g>
</g>
<!-- Node1&#45;&gt;Node21 -->
<g id="edge21_Node000001_Node000021" class="edge">
<title>Node1&#45;&gt;Node21</title>
<g id="a_edge21_Node000001_Node000021"><a xlink:title=" ">
<path fill="none" stroke="#63b8ff" d="M1005.5,-117.44C1083.72,-108.44 1227.3,-91.39 1349.5,-74 1349.6,-73.99 1349.7,-73.97 1349.8,-73.96"/>
<polygon fill="#63b8ff" stroke="#63b8ff" points="1350.04,-77.46 1359.42,-72.54 1349.02,-70.53 1350.04,-77.46"/>
</a>
</g>
</g>
<!-- Node22 -->
<g id="Node000022" class="node">
<title>Node22</title>
<g id="a_Node000022"><a xlink:href="brix__fault__priv_8h.html" target="_top" xlink:title=" ">
<polygon fill="white" stroke="#666666" points="1341,-74 1246,-74 1246,-55 1341,-55 1341,-74"/>
<text text-anchor="middle" x="1293.5" y="-62" font-family="Helvetica,sans-Serif" font-size="10.00">brix_fault_priv.h</text>
</a>
</g>
</g>
<!-- Node1&#45;&gt;Node22 -->
<g id="edge22_Node000001_Node000022" class="edge">
<title>Node1&#45;&gt;Node22</title>
<g id="a_edge22_Node000001_Node000022"><a xlink:title=" ">
<path fill="none" stroke="#63b8ff" d="M1005.8,-114.14C1069.88,-103.31 1172.16,-86.02 1235.94,-75.23"/>
<polygon fill="#63b8ff" stroke="#63b8ff" points="1236.56,-78.68 1245.83,-73.56 1235.39,-71.78 1236.56,-78.68"/>
</a>
</g>
</g>
<!-- Node23 -->
<g id="Node000023" class="node">
<title>Node23</title>
<g id="a_Node000023"><a xlink:href="brix__fault__ext_8h.html" target="_top" xlink:title=" ">
<polygon fill="white" stroke="#666666" points="1641,-74 1548,-74 1548,-55 1641,-55 1641,-74"/>
<text text-anchor="middle" x="1594.5" y="-62" font-family="Helvetica,sans-Serif" font-size="10.00">brix_fault_ext.h</text>
</a>
</g>
</g>
<!-- Node1&#45;&gt;Node23 -->
<g id="edge25_Node000001_Node000023" class="edge">
<title>Node1&#45;&gt;Node23</title>
<g id="a_edge25_Node000001_Node000023"><a xlink:title=" ">
<path fill="none" stroke="#63b8ff" d="M1005.51,-120.37C1109.79,-113.57 1336.02,-97.54 1537.59,-74.03"/>
<polygon fill="#63b8ff" stroke="#63b8ff" points="1538.26,-77.47 1547.78,-72.83 1537.44,-70.52 1538.26,-77.47"/>
</a>
</g>
</g>
<!-- Node24 -->
<g id="Node000024" class="node">
<title>Node24</title>
<g id="a_Node000024"><a xlink:href="brix__fault__tls_8h.html" target="_top" xlink:title=" ">
<polygon fill="white" stroke="#666666" points="1748,-74 1659,-74 1659,-55 1748,-55 1748,-74"/>
<text text-anchor="middle" x="1703.5" y="-62" font-family="Helvetica,sans-Serif" font-size="10.00">brix_fault_tls.h</text>
</a>
</g>
</g>
<!-- Node1&#45;&gt;Node24 -->
<g id="edge27_Node000001_Node000024" class="edge">
<title>Node1&#45;&gt;Node24</title>
<g id="a_edge27_Node000001_Node000024"><a xlink:title=" ">
<path fill="none" stroke="#63b8ff" d="M1005.9,-121.52C1124.82,-116.11 1403.8,-101.56 1648.59,-74"/>
<polygon fill="#63b8ff" stroke="#63b8ff" points="1649.21,-77.45 1658.75,-72.84 1648.42,-70.49 1649.21,-77.45"/>
</a>
</g>
</g>
<!-- Node25 -->
<g id="Node000025" class="node">
<title>Node25</title>
<g id="a_Node000025"><a xlink:href="brix__fault__http_8h.html" target="_top" xlink:title=" ">
<polygon fill="white" stroke="#666666" points="1863,-74 1766,-74 1766,-55 1863,-55 1863,-74"/>
<text text-anchor="middle" x="1814.5" y="-62" font-family="Helvetica,sans-Serif" font-size="10.00">brix_fault_http.h</text>
</a>
</g>
</g>
<!-- Node1&#45;&gt;Node25 -->
<g id="edge29_Node000001_Node000025" class="edge">
<title>Node1&#45;&gt;Node25</title>
<g id="a_edge29_Node000001_Node000025"><a xlink:title=" ">
<path fill="none" stroke="#63b8ff" d="M1005.59,-122.14C1137.27,-117.54 1468.67,-103.89 1755.53,-74.12"/>
<polygon fill="#63b8ff" stroke="#63b8ff" points="1756.14,-77.58 1765.72,-73.06 1755.41,-70.62 1756.14,-77.58"/>
</a>
</g>
</g>
<!-- Node26 -->
<g id="Node000026" class="node">
<title>Node26</title>
<g id="a_Node000026"><a xlink:href="brix__fault__replay_8h.html" target="_top" xlink:title=" ">
<polygon fill="white" stroke="#666666" points="1988,-74 1881,-74 1881,-55 1988,-55 1988,-74"/>
<text text-anchor="middle" x="1934.5" y="-62" font-family="Helvetica,sans-Serif" font-size="10.00">brix_fault_replay.h</text>
</a>
</g>
</g>
<!-- Node1&#45;&gt;Node26 -->
<g id="edge31_Node000001_Node000026" class="edge">
<title>Node1&#45;&gt;Node26</title>
<g id="a_edge31_Node000001_Node000026"><a xlink:title=" ">
<path fill="none" stroke="#63b8ff" d="M1005.53,-122.52C1149.97,-118.48 1537.45,-105.47 1870.43,-74.12"/>
<polygon fill="#63b8ff" stroke="#63b8ff" points="1871.14,-77.57 1880.76,-73.14 1870.48,-70.6 1871.14,-77.57"/>
</a>
</g>
</g>
<!-- Node27 -->
<g id="Node000027" class="node">
<title>Node27</title>
<g id="a_Node000027"><a xlink:href="brix__fault__oracle_8h.html" target="_top" xlink:title=" ">
<polygon fill="white" stroke="#666666" points="2113,-74 2006,-74 2006,-55 2113,-55 2113,-74"/>
<text text-anchor="middle" x="2059.5" y="-62" font-family="Helvetica,sans-Serif" font-size="10.00">brix_fault_oracle.h</text>
</a>
</g>
</g>
<!-- Node1&#45;&gt;Node27 -->
<g id="edge33_Node000001_Node000027" class="edge">
<title>Node1&#45;&gt;Node27</title>
<g id="a_edge33_Node000001_Node000027"><a xlink:title=" ">
<path fill="none" stroke="#63b8ff" d="M1005.68,-123.04C1163.39,-120.05 1612.43,-108.96 1995.59,-74.1"/>
<polygon fill="#63b8ff" stroke="#63b8ff" points="1996.13,-77.56 2005.76,-73.16 1995.49,-70.59 1996.13,-77.56"/>
</a>
</g>
</g>
<!-- Node19&#45;&gt;Node19 -->
<g id="edge20_Node000019_Node000019" class="edge">
<title>Node19&#45;&gt;Node19</title>
<g id="a_edge20_Node000019_Node000019"><a xlink:title=" ">
<path fill="none" stroke="#63b8ff" d="M1507.38,-74.07C1518.83,-76.02 1529.5,-72.83 1529.5,-64.5 1529.5,-58.77 1524.46,-55.47 1517.58,-54.61"/>
<polygon fill="#63b8ff" stroke="#63b8ff" points="1517.26,-51.12 1507.38,-54.93 1517.48,-58.11 1517.26,-51.12"/>
</a>
</g>
</g>
<!-- Node20 -->
<g id="Node000020" class="node">
<title>Node20</title>
<g id="a_Node000020"><a xlink:title=" ">
<polygon fill="#e0e0e0" stroke="#999999" points="1676.5,-19 1620.5,-19 1620.5,0 1676.5,0 1676.5,-19"/>
<text text-anchor="middle" x="1648.5" y="-7" font-family="Helvetica,sans-Serif" font-size="10.00">stddef.h</text>
</a>
</g>
</g>
<!-- Node19&#45;&gt;Node20 -->
<g id="edge19_Node000019_Node000020" class="edge">
<title>Node19&#45;&gt;Node20</title>
<g id="a_edge19_Node000019_Node000020"><a xlink:title=" ">
<path fill="none" stroke="#63b8ff" d="M1511.6,-55.57C1538.52,-46.71 1582.33,-32.28 1613.13,-22.14"/>
<polygon fill="#63b8ff" stroke="#63b8ff" points="1614.23,-25.47 1622.63,-19.02 1612.04,-18.82 1614.23,-25.47"/>
</a>
</g>
</g>
<!-- Node22&#45;&gt;Node17 -->
<g id="edge24_Node000022_Node000017" class="edge">
<title>Node22&#45;&gt;Node17</title>
<g id="a_edge24_Node000022_Node000017"><a xlink:title=" ">
<path fill="none" stroke="#63b8ff" d="M1281.45,-54.98C1270.04,-46.92 1252.67,-34.65 1239.07,-25.03"/>
<polygon fill="#63b8ff" stroke="#63b8ff" points="1240.96,-22.08 1230.77,-19.17 1236.92,-27.8 1240.96,-22.08"/>
</a>
</g>
</g>
<!-- Node22&#45;&gt;Node20 -->
<g id="edge23_Node000022_Node000020" class="edge">
<title>Node22&#45;&gt;Node20</title>
<g id="a_edge23_Node000022_Node000020"><a xlink:title=" ">
<path fill="none" stroke="#63b8ff" d="M1341.01,-56.41C1412.06,-45.8 1544.63,-26.01 1610.01,-16.25"/>
<polygon fill="#63b8ff" stroke="#63b8ff" points="1610.91,-19.65 1620.28,-14.71 1609.88,-12.73 1610.91,-19.65"/>
</a>
</g>
</g>
<!-- Node23&#45;&gt;Node20 -->
<g id="edge26_Node000023_Node000020" class="edge">
<title>Node23&#45;&gt;Node20</title>
<g id="a_edge26_Node000023_Node000020"><a xlink:title=" ">
<path fill="none" stroke="#63b8ff" d="M1603.42,-54.75C1611.28,-47.03 1622.93,-35.6 1632.42,-26.28"/>
<polygon fill="#63b8ff" stroke="#63b8ff" points="1635.06,-28.59 1639.75,-19.09 1630.16,-23.6 1635.06,-28.59"/>
</a>
</g>
</g>
<!-- Node24&#45;&gt;Node20 -->
<g id="edge28_Node000024_Node000020" class="edge">
<title>Node24&#45;&gt;Node20</title>
<g id="a_edge28_Node000024_Node000020"><a xlink:title=" ">
<path fill="none" stroke="#63b8ff" d="M1694.42,-54.75C1686.41,-47.03 1674.54,-35.6 1664.88,-26.28"/>
<polygon fill="#63b8ff" stroke="#63b8ff" points="1667.04,-23.51 1657.41,-19.09 1662.19,-28.55 1667.04,-23.51"/>
</a>
</g>
</g>
<!-- Node25&#45;&gt;Node20 -->
<g id="edge30_Node000025_Node000020" class="edge">
<title>Node25&#45;&gt;Node20</title>
<g id="a_edge30_Node000025_Node000020"><a xlink:title=" ">
<path fill="none" stroke="#63b8ff" d="M1787.83,-54.98C1759.96,-46.09 1716.05,-32.07 1684.98,-22.15"/>
<polygon fill="#63b8ff" stroke="#63b8ff" points="1685.97,-18.79 1675.38,-19.08 1683.84,-25.46 1685.97,-18.79"/>
</a>
</g>
</g>
<!-- Node26&#45;&gt;Node20 -->
<g id="edge32_Node000026_Node000020" class="edge">
<title>Node26&#45;&gt;Node20</title>
<g id="a_edge32_Node000026_Node000020"><a xlink:title=" ">
<path fill="none" stroke="#63b8ff" d="M1888.55,-54.98C1832.44,-44.59 1738.6,-27.2 1686.42,-17.53"/>
<polygon fill="#63b8ff" stroke="#63b8ff" points="1687.03,-14.08 1676.56,-15.7 1685.76,-20.96 1687.03,-14.08"/>
</a>
</g>
</g>
</g>
</svg>
