<?xml version="1.0" encoding="UTF-8" standalone="no"?>
<!DOCTYPE svg PUBLIC "-//W3C//DTD SVG 1.1//EN"
 "http://www.w3.org/Graphics/SVG/1.1/DTD/svg11.dtd">
<!-- Generated by graphviz version 2.43.0 (0)
 -->
<!-- Title: src/auth/impersonate/broker_internal.h Pages: 1 -->
<svg width="525pt" height="170pt"
 viewBox="0.00 0.00 525.00 170.00" xmlns="http://www.w3.org/2000/svg" xmlns:xlink="http://www.w3.org/1999/xlink">
<g id="graph0" class="graph" transform="scale(1 1) rotate(0) translate(4 166)">
<title>src/auth/impersonate/broker_internal.h</title>
<!-- Node1 -->
<g id="Node000001" class="node">
<title>Node1</title>
<g id="a_Node000001"><a xlink:title=" ">
<polygon fill="#999999" stroke="#666666" points="346,-162 226,-162 226,-132 346,-132 346,-162"/>
<text text-anchor="start" x="234" y="-150" font-family="Helvetica,sans-Serif" font-size="10.00">src/auth/impersonate</text>
<text text-anchor="middle" x="286" y="-139" font-family="Helvetica,sans-Serif" font-size="10.00">/broker_internal.h</text>
</a>
</g>
</g>
<!-- Node2 -->
<g id="Node000002" class="node">
<title>Node2</title>
<g id="a_Node000002"><a xlink:href="broker_8c.html" target="_top" xlink:title=" ">
<polygon fill="white" stroke="#666666" points="120,-96 0,-96 0,-66 120,-66 120,-96"/>
<text text-anchor="start" x="8" y="-84" font-family="Helvetica,sans-Serif" font-size="10.00">src/auth/impersonate</text>
<text text-anchor="middle" x="60" y="-73" font-family="Helvetica,sans-Serif" font-size="10.00">/broker.c</text>
</a>
</g>
</g>
<!-- Node1&#45;&gt;Node2 -->
<g id="edge1_Node000001_Node000002" class="edge">
<title>Node1&#45;&gt;Node2</title>
<g id="a_edge1_Node000001_Node000002"><a xlink:title=" ">
<path fill="none" stroke="#63b8ff" d="M226.4,-129.12C189.96,-118.8 143.9,-105.76 109.48,-96.01"/>
<polygon fill="#63b8ff" stroke="#63b8ff" points="225.83,-132.6 236.4,-131.95 227.74,-125.86 225.83,-132.6"/>
</a>
</g>
</g>
<!-- Node3 -->
<g id="Node000003" class="node">
<title>Node3</title>
<g id="a_Node000003"><a xlink:href="broker__creds_8c.html" target="_top" xlink:title=" ">
<polygon fill="white" stroke="#666666" points="258,-96 138,-96 138,-66 258,-66 258,-96"/>
<text text-anchor="start" x="146" y="-84" font-family="Helvetica,sans-Serif" font-size="10.00">src/auth/impersonate</text>
<text text-anchor="middle" x="198" y="-73" font-family="Helvetica,sans-Serif" font-size="10.00">/broker_creds.c</text>
</a>
</g>
</g>
<!-- Node1&#45;&gt;Node3 -->
<g id="edge2_Node000001_Node000003" class="edge">
<title>Node1&#45;&gt;Node3</title>
<g id="a_edge2_Node000001_Node000003"><a xlink:title=" ">
<path fill="none" stroke="#63b8ff" d="M258.16,-125.75C244.93,-116.13 229.43,-104.86 217.48,-96.16"/>
<polygon fill="#63b8ff" stroke="#63b8ff" points="256.32,-128.75 266.47,-131.8 260.44,-123.08 256.32,-128.75"/>
</a>
</g>
</g>
<!-- Node4 -->
<g id="Node000004" class="node">
<title>Node4</title>
<g id="a_Node000004"><a xlink:href="broker__ops_8c.html" target="_top" xlink:title=" ">
<polygon fill="white" stroke="#666666" points="368,-30 248,-30 248,0 368,0 368,-30"/>
<text text-anchor="start" x="256" y="-18" font-family="Helvetica,sans-Serif" font-size="10.00">src/auth/impersonate</text>
<text text-anchor="middle" x="308" y="-7" font-family="Helvetica,sans-Serif" font-size="10.00">/broker_ops.c</text>
</a>
</g>
</g>
<!-- Node1&#45;&gt;Node4 -->
<g id="edge3_Node000001_Node000004" class="edge">
<title>Node1&#45;&gt;Node4</title>
<g id="a_edge3_Node000001_Node000004"><a xlink:title=" ">
<path fill="none" stroke="#63b8ff" d="M290.12,-121.68C294.68,-94.7 301.89,-52.11 305.61,-30.14"/>
<polygon fill="#63b8ff" stroke="#63b8ff" points="286.61,-121.4 288.4,-131.84 293.52,-122.56 286.61,-121.4"/>
</a>
</g>
</g>
<!-- Node5 -->
<g id="Node000005" class="node">
<title>Node5</title>
<g id="a_Node000005"><a xlink:href="broker__ops__internal_8h.html" target="_top" xlink:title=" ">
<polygon fill="white" stroke="#666666" points="439.5,-96 314.5,-96 314.5,-66 439.5,-66 439.5,-96"/>
<text text-anchor="start" x="322.5" y="-84" font-family="Helvetica,sans-Serif" font-size="10.00">src/auth/impersonate</text>
<text text-anchor="middle" x="377" y="-73" font-family="Helvetica,sans-Serif" font-size="10.00">/broker_ops_internal.h</text>
</a>
</g>
</g>
<!-- Node1&#45;&gt;Node5 -->
<g id="edge4_Node000001_Node000005" class="edge">
<title>Node1&#45;&gt;Node5</title>
<g id="a_edge4_Node000001_Node000005"><a xlink:title=" ">
<path fill="none" stroke="#63b8ff" d="M314.4,-126.03C328.17,-116.34 344.38,-104.94 356.86,-96.16"/>
<polygon fill="#63b8ff" stroke="#63b8ff" points="312.36,-123.18 306.2,-131.8 316.39,-128.91 312.36,-123.18"/>
</a>
</g>
</g>
<!-- Node6 -->
<g id="Node000006" class="node">
<title>Node6</title>
<g id="a_Node000006"><a xlink:href="broker__ops__ns_8c.html" target="_top" xlink:title=" ">
<polygon fill="white" stroke="#666666" points="517,-30 397,-30 397,0 517,0 517,-30"/>
<text text-anchor="start" x="405" y="-18" font-family="Helvetica,sans-Serif" font-size="10.00">src/auth/impersonate</text>
<text text-anchor="middle" x="457" y="-7" font-family="Helvetica,sans-Serif" font-size="10.00">/broker_ops_ns.c</text>
</a>
</g>
</g>
<!-- Node1&#45;&gt;Node6 -->
<g id="edge7_Node000001_Node000006" class="edge">
<title>Node1&#45;&gt;Node6</title>
<g id="a_edge7_Node000001_Node000006"><a xlink:title=" ">
<path fill="none" stroke="#63b8ff" d="M356.19,-141.57C388.98,-135.71 425.63,-123.01 448,-96 463.33,-77.49 462.13,-47.74 459.68,-30.21"/>
<polygon fill="#63b8ff" stroke="#63b8ff" points="355.48,-138.14 346.16,-143.18 356.59,-145.05 355.48,-138.14"/>
</a>
</g>
</g>
<!-- Node5&#45;&gt;Node4 -->
<g id="edge5_Node000005_Node000004" class="edge">
<title>Node5&#45;&gt;Node4</title>
<g id="a_edge5_Node000005_Node000004"><a xlink:title=" ">
<path fill="none" stroke="#63b8ff" d="M354.28,-58.92C344.1,-49.49 332.37,-38.61 323.27,-30.16"/>
<polygon fill="#63b8ff" stroke="#63b8ff" points="351.97,-61.56 361.69,-65.8 356.74,-56.43 351.97,-61.56"/>
</a>
</g>
</g>
<!-- Node5&#45;&gt;Node6 -->
<g id="edge6_Node000005_Node000006" class="edge">
<title>Node5&#45;&gt;Node6</title>
<g id="a_edge6_Node000005_Node000006"><a xlink:title=" ">
<path fill="none" stroke="#63b8ff" d="M402.65,-59.48C414.61,-49.91 428.53,-38.77 439.3,-30.16"/>
<polygon fill="#63b8ff" stroke="#63b8ff" points="400.38,-56.82 394.75,-65.8 404.75,-62.28 400.38,-56.82"/>
</a>
</g>
</g>
</g>
</svg>
