<?xml version="1.0" encoding="UTF-8" standalone="no"?>
<!DOCTYPE svg PUBLIC "-//W3C//DTD SVG 1.1//EN"
 "http://www.w3.org/Graphics/SVG/1.1/DTD/svg11.dtd">
<!-- Generated by graphviz version 2.43.0 (0)
 -->
<!-- Title: src/protocols/root/connection/budget.h Pages: 1 -->
<svg width="1380pt" height="115pt"
 viewBox="0.00 0.00 1380.00 115.00" xmlns="http://www.w3.org/2000/svg" xmlns:xlink="http://www.w3.org/1999/xlink">
<g id="graph0" class="graph" transform="scale(1 1) rotate(0) translate(4 111)">
<title>src/protocols/root/connection/budget.h</title>
<!-- Node1 -->
<g id="Node000001" class="node">
<title>Node1</title>
<g id="a_Node000001"><a xlink:title=" ">
<polygon fill="#999999" stroke="#666666" points="763,-107 644,-107 644,-77 763,-77 763,-107"/>
<text text-anchor="start" x="652" y="-95" font-family="Helvetica,sans-Serif" font-size="10.00">src/protocols/root</text>
<text text-anchor="middle" x="703.5" y="-84" font-family="Helvetica,sans-Serif" font-size="10.00">/connection/budget.h</text>
</a>
</g>
</g>
<!-- Node2 -->
<g id="Node000002" class="node">
<title>Node2</title>
<g id="a_Node000002"><a xlink:href="reads_8c.html" target="_top" xlink:title=" ">
<polygon fill="white" stroke="#666666" points="111,-30 0,-30 0,-11 111,-11 111,-30"/>
<text text-anchor="middle" x="55.5" y="-18" font-family="Helvetica,sans-Serif" font-size="10.00">src/core/aio/reads.c</text>
</a>
</g>
</g>
<!-- Node1&#45;&gt;Node2 -->
<g id="edge1_Node000001_Node000002" class="edge">
<title>Node1&#45;&gt;Node2</title>
<g id="a_edge1_Node000001_Node000002"><a xlink:title=" ">
<path fill="none" stroke="#63b8ff" d="M633.33,-89.74C523.01,-86.71 302.68,-76.34 119.5,-41 105.93,-38.38 91.14,-33.98 79.21,-30.03"/>
<polygon fill="#63b8ff" stroke="#63b8ff" points="633.57,-93.25 643.66,-90.02 633.76,-86.25 633.57,-93.25"/>
</a>
</g>
</g>
<!-- Node3 -->
<g id="Node000003" class="node">
<title>Node3</title>
<g id="a_Node000003"><a xlink:href="disconnect_8c.html" target="_top" xlink:title=" ">
<polygon fill="white" stroke="#666666" points="266,-35.5 129,-35.5 129,-5.5 266,-5.5 266,-35.5"/>
<text text-anchor="start" x="137" y="-23.5" font-family="Helvetica,sans-Serif" font-size="10.00">src/protocols/root</text>
<text text-anchor="middle" x="197.5" y="-12.5" font-family="Helvetica,sans-Serif" font-size="10.00">/connection/disconnect.c</text>
</a>
</g>
</g>
<!-- Node1&#45;&gt;Node3 -->
<g id="edge2_Node000001_Node000003" class="edge">
<title>Node1&#45;&gt;Node3</title>
<g id="a_edge2_Node000001_Node000003"><a xlink:title=" ">
<path fill="none" stroke="#63b8ff" d="M633.89,-85.64C548.86,-78.46 400.85,-63.89 275.5,-41 267.12,-39.47 258.31,-37.56 249.74,-35.54"/>
<polygon fill="#63b8ff" stroke="#63b8ff" points="633.69,-89.14 643.95,-86.48 634.27,-82.16 633.69,-89.14"/>
</a>
</g>
</g>
<!-- Node4 -->
<g id="Node000004" class="node">
<title>Node4</title>
<g id="a_Node000004"><a xlink:href="disconnect__report_8c.html" target="_top" xlink:title=" ">
<polygon fill="white" stroke="#666666" points="412.5,-41 284.5,-41 284.5,0 412.5,0 412.5,-41"/>
<text text-anchor="start" x="292.5" y="-29" font-family="Helvetica,sans-Serif" font-size="10.00">src/protocols/root</text>
<text text-anchor="start" x="292.5" y="-18" font-family="Helvetica,sans-Serif" font-size="10.00">/connection/disconnect</text>
<text text-anchor="middle" x="348.5" y="-7" font-family="Helvetica,sans-Serif" font-size="10.00">_report.c</text>
</a>
</g>
</g>
<!-- Node1&#45;&gt;Node4 -->
<g id="edge3_Node000001_Node000004" class="edge">
<title>Node1&#45;&gt;Node4</title>
<g id="a_edge3_Node000001_Node000004"><a xlink:title=" ">
<path fill="none" stroke="#63b8ff" d="M633.76,-80.34C576.49,-71.18 493.39,-56.95 421.5,-41 418.55,-40.35 415.55,-39.65 412.52,-38.93"/>
<polygon fill="#63b8ff" stroke="#63b8ff" points="633.37,-83.82 643.79,-81.93 634.46,-76.91 633.37,-83.82"/>
</a>
</g>
</g>
<!-- Node5 -->
<g id="Node000005" class="node">
<title>Node5</title>
<g id="a_Node000005"><a xlink:href="protocols_2root_2connection_2recv_8c.html" target="_top" xlink:title=" ">
<polygon fill="white" stroke="#666666" points="534.5,-35.5 430.5,-35.5 430.5,-5.5 534.5,-5.5 534.5,-35.5"/>
<text text-anchor="start" x="438.5" y="-23.5" font-family="Helvetica,sans-Serif" font-size="10.00">src/protocols/root</text>
<text text-anchor="middle" x="482.5" y="-12.5" font-family="Helvetica,sans-Serif" font-size="10.00">/connection/recv.c</text>
</a>
</g>
</g>
<!-- Node1&#45;&gt;Node5 -->
<g id="edge4_Node000001_Node000005" class="edge">
<title>Node1&#45;&gt;Node5</title>
<g id="a_edge4_Node000001_Node000005"><a xlink:title=" ">
<path fill="none" stroke="#63b8ff" d="M648.58,-73.94C617.69,-64.31 578.43,-52.04 543.5,-41 537.99,-39.26 532.2,-37.42 526.47,-35.59"/>
<polygon fill="#63b8ff" stroke="#63b8ff" points="647.71,-77.33 658.3,-76.96 649.8,-70.65 647.71,-77.33"/>
</a>
</g>
</g>
<!-- Node6 -->
<g id="Node000006" class="node">
<title>Node6</title>
<g id="a_Node000006"><a xlink:href="protocols_2root_2connection_2recv__frame_8c.html" target="_top" xlink:title=" ">
<polygon fill="white" stroke="#666666" points="692.5,-35.5 552.5,-35.5 552.5,-5.5 692.5,-5.5 692.5,-35.5"/>
<text text-anchor="start" x="560.5" y="-23.5" font-family="Helvetica,sans-Serif" font-size="10.00">src/protocols/root</text>
<text text-anchor="middle" x="622.5" y="-12.5" font-family="Helvetica,sans-Serif" font-size="10.00">/connection/recv_frame.c</text>
</a>
</g>
</g>
<!-- Node1&#45;&gt;Node6 -->
<g id="edge5_Node000001_Node000006" class="edge">
<title>Node1&#45;&gt;Node6</title>
<g id="a_edge5_Node000001_Node000006"><a xlink:title=" ">
<path fill="none" stroke="#63b8ff" d="M679.38,-70.31C666.31,-59.09 650.5,-45.52 638.87,-35.54"/>
<polygon fill="#63b8ff" stroke="#63b8ff" points="677.24,-73.08 687.11,-76.94 681.8,-67.77 677.24,-73.08"/>
</a>
</g>
</g>
<!-- Node7 -->
<g id="Node000007" class="node">
<title>Node7</title>
<g id="a_Node000007"><a xlink:href="recv__process_8c.html" target="_top" xlink:title=" ">
<polygon fill="white" stroke="#666666" points="858.5,-35.5 710.5,-35.5 710.5,-5.5 858.5,-5.5 858.5,-35.5"/>
<text text-anchor="start" x="718.5" y="-23.5" font-family="Helvetica,sans-Serif" font-size="10.00">src/protocols/root</text>
<text text-anchor="middle" x="784.5" y="-12.5" font-family="Helvetica,sans-Serif" font-size="10.00">/connection/recv_process.c</text>
</a>
</g>
</g>
<!-- Node1&#45;&gt;Node7 -->
<g id="edge6_Node000001_Node000007" class="edge">
<title>Node1&#45;&gt;Node7</title>
<g id="a_edge6_Node000001_Node000007"><a xlink:title=" ">
<path fill="none" stroke="#63b8ff" d="M727.62,-70.31C740.69,-59.09 756.5,-45.52 768.13,-35.54"/>
<polygon fill="#63b8ff" stroke="#63b8ff" points="725.2,-67.77 719.89,-76.94 729.76,-73.08 725.2,-67.77"/>
</a>
</g>
</g>
<!-- Node8 -->
<g id="Node000008" class="node">
<title>Node8</title>
<g id="a_Node000008"><a xlink:href="read_8c.html" target="_top" xlink:title=" ">
<polygon fill="white" stroke="#666666" points="978,-35.5 877,-35.5 877,-5.5 978,-5.5 978,-35.5"/>
<text text-anchor="start" x="885" y="-23.5" font-family="Helvetica,sans-Serif" font-size="10.00">src/protocols/root</text>
<text text-anchor="middle" x="927.5" y="-12.5" font-family="Helvetica,sans-Serif" font-size="10.00">/read/read.c</text>
</a>
</g>
</g>
<!-- Node1&#45;&gt;Node8 -->
<g id="edge7_Node000001_Node000008" class="edge">
<title>Node1&#45;&gt;Node8</title>
<g id="a_edge7_Node000001_Node000008"><a xlink:title=" ">
<path fill="none" stroke="#63b8ff" d="M760.52,-73.89C792.09,-64.35 832.02,-52.17 867.5,-41 873.04,-39.26 878.85,-37.4 884.6,-35.55"/>
<polygon fill="#63b8ff" stroke="#63b8ff" points="759.14,-70.66 750.58,-76.9 761.17,-77.36 759.14,-70.66"/>
</a>
</g>
</g>
<!-- Node9 -->
<g id="Node000009" class="node">
<title>Node9</title>
<g id="a_Node000009"><a xlink:href="read__buffered_8c.html" target="_top" xlink:title=" ">
<polygon fill="white" stroke="#666666" points="1116.5,-35.5 996.5,-35.5 996.5,-5.5 1116.5,-5.5 1116.5,-35.5"/>
<text text-anchor="start" x="1004.5" y="-23.5" font-family="Helvetica,sans-Serif" font-size="10.00">src/protocols/root</text>
<text text-anchor="middle" x="1056.5" y="-12.5" font-family="Helvetica,sans-Serif" font-size="10.00">/read/read_buffered.c</text>
</a>
</g>
</g>
<!-- Node1&#45;&gt;Node9 -->
<g id="edge8_Node000001_Node000009" class="edge">
<title>Node1&#45;&gt;Node9</title>
<g id="a_edge8_Node000001_Node000009"><a xlink:title=" ">
<path fill="none" stroke="#63b8ff" d="M773.25,-80.74C830.98,-71.76 914.99,-57.58 987.5,-41 994.54,-39.39 1001.93,-37.51 1009.15,-35.56"/>
<polygon fill="#63b8ff" stroke="#63b8ff" points="772.49,-77.31 763.14,-82.3 773.56,-84.23 772.49,-77.31"/>
</a>
</g>
</g>
<!-- Node10 -->
<g id="Node000010" class="node">
<title>Node10</title>
<g id="a_Node000010"><a xlink:href="read__sendfile_8c.html" target="_top" xlink:title=" ">
<polygon fill="white" stroke="#666666" points="1252.5,-35.5 1134.5,-35.5 1134.5,-5.5 1252.5,-5.5 1252.5,-35.5"/>
<text text-anchor="start" x="1142.5" y="-23.5" font-family="Helvetica,sans-Serif" font-size="10.00">src/protocols/root</text>
<text text-anchor="middle" x="1193.5" y="-12.5" font-family="Helvetica,sans-Serif" font-size="10.00">/read/read_sendfile.c</text>
</a>
</g>
</g>
<!-- Node1&#45;&gt;Node10 -->
<g id="edge9_Node000001_Node000010" class="edge">
<title>Node1&#45;&gt;Node10</title>
<g id="a_edge9_Node000001_Node000010"><a xlink:title=" ">
<path fill="none" stroke="#63b8ff" d="M773.23,-86.2C857.36,-79.62 1002.78,-65.7 1125.5,-41 1132.96,-39.5 1140.8,-37.58 1148.39,-35.53"/>
<polygon fill="#63b8ff" stroke="#63b8ff" points="772.73,-82.73 763.03,-86.99 773.27,-89.71 772.73,-82.73"/>
</a>
</g>
</g>
<!-- Node11 -->
<g id="Node000011" class="node">
<title>Node11</title>
<g id="a_Node000011"><a xlink:href="protocols_2root_2read_2readv_8c.html" target="_top" xlink:title=" ">
<polygon fill="white" stroke="#666666" points="1372,-35.5 1271,-35.5 1271,-5.5 1372,-5.5 1372,-35.5"/>
<text text-anchor="start" x="1279" y="-23.5" font-family="Helvetica,sans-Serif" font-size="10.00">src/protocols/root</text>
<text text-anchor="middle" x="1321.5" y="-12.5" font-family="Helvetica,sans-Serif" font-size="10.00">/read/readv.c</text>
</a>
</g>
</g>
<!-- Node1&#45;&gt;Node11 -->
<g id="edge10_Node000001_Node000011" class="edge">
<title>Node1&#45;&gt;Node11</title>
<g id="a_edge10_Node000001_Node000011"><a xlink:title=" ">
<path fill="none" stroke="#63b8ff" d="M773.47,-89.76C879.9,-86.75 1088.36,-76.42 1261.5,-41 1268.37,-39.59 1275.55,-37.67 1282.46,-35.58"/>
<polygon fill="#63b8ff" stroke="#63b8ff" points="773.09,-86.27 763.19,-90.04 773.28,-93.27 773.09,-86.27"/>
</a>
</g>
</g>
</g>
</svg>
