<?xml version="1.0" encoding="UTF-8" standalone="no"?>
<!DOCTYPE svg PUBLIC "-//W3C//DTD SVG 1.1//EN"
 "http://www.w3.org/Graphics/SVG/1.1/DTD/svg11.dtd">
<!-- Generated by graphviz version 2.43.0 (0)
 -->
<!-- Title: src/fs/cache/cache_admit.h Pages: 1 -->
<svg width="400pt" height="104pt"
 viewBox="0.00 0.00 400.00 104.00" xmlns="http://www.w3.org/2000/svg" xmlns:xlink="http://www.w3.org/1999/xlink">
<g id="graph0" class="graph" transform="scale(1 1) rotate(0) translate(4 100)">
<title>src/fs/cache/cache_admit.h</title>
<!-- Node1 -->
<g id="Node000001" class="node">
<title>Node1</title>
<g id="a_Node000001"><a xlink:title=" ">
<polygon fill="#999999" stroke="#666666" points="232,-96 126,-96 126,-66 232,-66 232,-96"/>
<text text-anchor="start" x="134" y="-84" font-family="Helvetica,sans-Serif" font-size="10.00">src/fs/cache/cache</text>
<text text-anchor="middle" x="179" y="-73" font-family="Helvetica,sans-Serif" font-size="10.00">_admit.h</text>
</a>
</g>
</g>
<!-- Node2 -->
<g id="Node000002" class="node">
<title>Node2</title>
<g id="a_Node000002"><a xlink:href="cache__admit_8c.html" target="_top" xlink:title=" ">
<polygon fill="white" stroke="#666666" points="106,-30 0,-30 0,0 106,0 106,-30"/>
<text text-anchor="start" x="8" y="-18" font-family="Helvetica,sans-Serif" font-size="10.00">src/fs/cache/cache</text>
<text text-anchor="middle" x="53" y="-7" font-family="Helvetica,sans-Serif" font-size="10.00">_admit.c</text>
</a>
</g>
</g>
<!-- Node1&#45;&gt;Node2 -->
<g id="edge1_Node000001_Node000002" class="edge">
<title>Node1&#45;&gt;Node2</title>
<g id="a_edge1_Node000001_Node000002"><a xlink:title=" ">
<path fill="none" stroke="#63b8ff" d="M142.34,-61.38C122.62,-51.36 98.71,-39.22 80.59,-30.01"/>
<polygon fill="#63b8ff" stroke="#63b8ff" points="140.85,-64.55 151.35,-65.95 144.02,-58.31 140.85,-64.55"/>
</a>
</g>
</g>
<!-- Node3 -->
<g id="Node000003" class="node">
<title>Node3</title>
<g id="a_Node000003"><a xlink:href="fetch_8c.html" target="_top" xlink:title=" ">
<polygon fill="white" stroke="#666666" points="234,-24.5 124,-24.5 124,-5.5 234,-5.5 234,-24.5"/>
<text text-anchor="middle" x="179" y="-12.5" font-family="Helvetica,sans-Serif" font-size="10.00">src/fs/cache/fetch.c</text>
</a>
</g>
</g>
<!-- Node1&#45;&gt;Node3 -->
<g id="edge2_Node000001_Node000003" class="edge">
<title>Node1&#45;&gt;Node3</title>
<g id="a_edge2_Node000001_Node000003"><a xlink:title=" ">
<path fill="none" stroke="#63b8ff" d="M179,-55.6C179,-44.8 179,-32.78 179,-24.84"/>
<polygon fill="#63b8ff" stroke="#63b8ff" points="175.5,-55.8 179,-65.8 182.5,-55.8 175.5,-55.8"/>
</a>
</g>
</g>
<!-- Node4 -->
<g id="Node000004" class="node">
<title>Node4</title>
<g id="a_Node000004"><a xlink:href="writethrough__decision_8c.html" target="_top" xlink:title=" ">
<polygon fill="white" stroke="#666666" points="392,-30 252,-30 252,0 392,0 392,-30"/>
<text text-anchor="start" x="260" y="-18" font-family="Helvetica,sans-Serif" font-size="10.00">src/fs/cache/writethrough</text>
<text text-anchor="middle" x="322" y="-7" font-family="Helvetica,sans-Serif" font-size="10.00">_decision.c</text>
</a>
</g>
</g>
<!-- Node1&#45;&gt;Node4 -->
<g id="edge3_Node000001_Node000004" class="edge">
<title>Node1&#45;&gt;Node4</title>
<g id="a_edge3_Node000001_Node000004"><a xlink:title=" ">
<path fill="none" stroke="#63b8ff" d="M219.7,-61.78C242.25,-51.69 269.84,-39.34 290.69,-30.01"/>
<polygon fill="#63b8ff" stroke="#63b8ff" points="218.08,-58.68 210.38,-65.95 220.94,-65.06 218.08,-58.68"/>
</a>
</g>
</g>
</g>
</svg>
