<?xml version="1.0" encoding="UTF-8" standalone="no"?>
<!DOCTYPE svg PUBLIC "-//W3C//DTD SVG 1.1//EN"
 "http://www.w3.org/Graphics/SVG/1.1/DTD/svg11.dtd">
<!-- Generated by graphviz version 2.43.0 (0)
 -->
<!-- Title: src/fs/cache/cache_storage.h Pages: 1 -->
<!--zoomable 115 -->

<svg id="main" version="1.1" xmlns="http://www.w3.org/2000/svg" xmlns:xlink="http://www.w3.org/1999/xlink" xml:space="preserve" onload="init(evt)">
<style type="text/css"><![CDATA[
.node, .edge {opacity: 0.7;}
.node.selected, .edge.selected {opacity: 1;}
.edge:hover path { stroke: red; }
.edge:hover polygon { stroke: red; fill: red; }
]]></style>

<defs>
  <circle id="rim" cx="0" cy="0" r="7"/>
  <circle id="rim2" cx="0" cy="0" r="3.5"/>
  <g id="zoomPlus">
    <use xlink:href="#rim" fill="#404040"><set attributeName="fill" to="#808080" begin="zoomplus.mouseover" end="zoomplus.mouseout"/></use>
    <path d="M-4,0h8M0,-4v8" fill="none" stroke="white" stroke-width="1.5" pointer-events="none"/>
  </g>
  <g id="zoomMin">
    <use xlink:href="#rim" fill="#404040"><set attributeName="fill" to="#808080" begin="zoomminus.mouseover" end="zoomminus.mouseout"/></use>
    <path d="M-4,0h8" fill="none" stroke="white" stroke-width="1.5" pointer-events="none"/>
  </g>
  <g id="arrowUp" transform="translate(30 24)">
    <use xlink:href="#rim"/>
    <path pointer-events="none" fill="none" stroke="white" stroke-width="1.5" d="M0,-3.0v7 M-2.5,-0.5L0,-3.0L2.5,-0.5"/>
  </g>
  <g id="arrowRight" transform="rotate(90) translate(36 -43)">
    <use xlink:href="#rim"/>
    <path pointer-events="none" fill="none" stroke="white" stroke-width="1.5" d="M0,-3.0v7 M-2.5,-0.5L0,-3.0L2.5,-0.5"/>
  </g>
  <g id="arrowDown" transform="rotate(180) translate(-30 -48)">
    <use xlink:href="#rim"/>
    <path pointer-events="none" fill="none" stroke="white" stroke-width="1.5" d="M0,-3.0v7 M-2.5,-0.5L0,-3.0L2.5,-0.5"/>
  </g>
  <g id="arrowLeft" transform="rotate(270) translate(-36 17)">
    <use xlink:href="#rim"/>
    <path pointer-events="none" fill="none" stroke="white" stroke-width="1.5" d="M0,-3.0v7 M-2.5,-0.5L0,-3.0L2.5,-0.5"/>
  </g>
  <g id="resetDef">
    <use xlink:href="#rim2" fill="#404040"><set attributeName="fill" to="#808080" begin="reset.mouseover" end="reset.mouseout"/></use>
  </g>
</defs>
<script type="application/ecmascript">
var viewWidth = 2232;
var viewHeight = 115;
var sectionId = 'dynsection-1';
</script>
<script type="application/ecmascript" xlink:href="svg.min.js"/>
<svg id="graph" class="graph">
<g id="viewport">
<title>src/fs/cache/cache_storage.h</title>
<!-- Node1 -->
<g id="Node000001" class="node">
<title>Node1</title>
<g id="a_Node000001"><a xlink:title=" ">
<polygon fill="#999999" stroke="#666666" points="1154,-107 1048,-107 1048,-77 1154,-77 1154,-107"/>
<text text-anchor="start" x="1056" y="-95" font-family="Helvetica,sans-Serif" font-size="10.00">src/fs/cache/cache</text>
<text text-anchor="middle" x="1101" y="-84" font-family="Helvetica,sans-Serif" font-size="10.00">_storage.h</text>
</a>
</g>
</g>
<!-- Node2 -->
<g id="Node000002" class="node">
<title>Node2</title>
<g id="a_Node000002"><a xlink:href="process_8c.html" target="_top" xlink:title=" ">
<polygon fill="white" stroke="#666666" points="136,-30 0,-30 0,-11 136,-11 136,-30"/>
<text text-anchor="middle" x="68" y="-18" font-family="Helvetica,sans-Serif" font-size="10.00">src/core/config/process.c</text>
</a>
</g>
</g>
<!-- Node1&#45;&gt;Node2 -->
<g id="edge1_Node000001_Node000002" class="edge">
<title>Node1&#45;&gt;Node2</title>
<g id="a_edge1_Node000001_Node000002"><a xlink:title=" ">
<path fill="none" stroke="#63b8ff" d="M1037.9,-89.31C853.58,-84.13 318.07,-67.18 145,-41 128.64,-38.52 110.7,-34.09 96.25,-30.07"/>
<polygon fill="#63b8ff" stroke="#63b8ff" points="1037.88,-92.81 1047.98,-89.59 1038.08,-85.82 1037.88,-92.81"/>
</a>
</g>
</g>
<!-- Node3 -->
<g id="Node000003" class="node">
<title>Node3</title>
<g id="a_Node000003"><a xlink:href="process__server__init_8c.html" target="_top" xlink:title=" ">
<polygon fill="white" stroke="#666666" points="282,-35.5 154,-35.5 154,-5.5 282,-5.5 282,-35.5"/>
<text text-anchor="start" x="162" y="-23.5" font-family="Helvetica,sans-Serif" font-size="10.00">src/core/config/process</text>
<text text-anchor="middle" x="218" y="-12.5" font-family="Helvetica,sans-Serif" font-size="10.00">_server_init.c</text>
</a>
</g>
</g>
<!-- Node1&#45;&gt;Node3 -->
<g id="edge2_Node000001_Node000003" class="edge">
<title>Node1&#45;&gt;Node3</title>
<g id="a_edge2_Node000001_Node000003"><a xlink:title=" ">
<path fill="none" stroke="#63b8ff" d="M1037.19,-91.36C899.79,-91.21 566.13,-85.78 291,-41 282.58,-39.63 273.74,-37.7 265.22,-35.58"/>
<polygon fill="#63b8ff" stroke="#63b8ff" points="1037.52,-94.86 1047.52,-91.37 1037.52,-87.86 1037.52,-94.86"/>
</a>
</g>
</g>
<!-- Node4 -->
<g id="Node000004" class="node">
<title>Node4</title>
<g id="a_Node000004"><a xlink:href="cache__reap_8c.html" target="_top" xlink:title=" ">
<polygon fill="white" stroke="#666666" points="406,-35.5 300,-35.5 300,-5.5 406,-5.5 406,-35.5"/>
<text text-anchor="start" x="308" y="-23.5" font-family="Helvetica,sans-Serif" font-size="10.00">src/fs/cache/cache</text>
<text text-anchor="middle" x="353" y="-12.5" font-family="Helvetica,sans-Serif" font-size="10.00">_reap.c</text>
</a>
</g>
</g>
<!-- Node1&#45;&gt;Node4 -->
<g id="edge3_Node000001_Node000004" class="edge">
<title>Node1&#45;&gt;Node4</title>
<g id="a_edge3_Node000001_Node000004"><a xlink:title=" ">
<path fill="none" stroke="#63b8ff" d="M1037.71,-91.26C915.98,-90.69 641.23,-84.21 415,-41 407.8,-39.62 400.25,-37.69 393.01,-35.57"/>
<polygon fill="#63b8ff" stroke="#63b8ff" points="1037.95,-94.76 1047.96,-91.3 1037.97,-87.76 1037.95,-94.76"/>
</a>
</g>
</g>
<!-- Node5 -->
<g id="Node000005" class="node">
<title>Node5</title>
<g id="a_Node000005"><a xlink:href="cache__storage_8c.html" target="_top" xlink:title=" ">
<polygon fill="white" stroke="#666666" points="530,-35.5 424,-35.5 424,-5.5 530,-5.5 530,-35.5"/>
<text text-anchor="start" x="432" y="-23.5" font-family="Helvetica,sans-Serif" font-size="10.00">src/fs/cache/cache</text>
<text text-anchor="middle" x="477" y="-12.5" font-family="Helvetica,sans-Serif" font-size="10.00">_storage.c</text>
</a>
</g>
</g>
<!-- Node1&#45;&gt;Node5 -->
<g id="edge4_Node000001_Node000005" class="edge">
<title>Node1&#45;&gt;Node5</title>
<g id="a_edge4_Node000001_Node000005"><a xlink:title=" ">
<path fill="none" stroke="#63b8ff" d="M1037.68,-89.81C932.96,-86.85 717.5,-76.58 539,-41 531.92,-39.59 524.5,-37.66 517.36,-35.57"/>
<polygon fill="#63b8ff" stroke="#63b8ff" points="1037.68,-93.31 1047.77,-90.08 1037.87,-86.31 1037.68,-93.31"/>
</a>
</g>
</g>
<!-- Node6 -->
<g id="Node000006" class="node">
<title>Node6</title>
<g id="a_Node000006"><a xlink:href="evict__candidates_8c.html" target="_top" xlink:title=" ">
<polygon fill="white" stroke="#666666" points="649.5,-35.5 548.5,-35.5 548.5,-5.5 649.5,-5.5 649.5,-35.5"/>
<text text-anchor="start" x="556.5" y="-23.5" font-family="Helvetica,sans-Serif" font-size="10.00">src/fs/cache/evict</text>
<text text-anchor="middle" x="599" y="-12.5" font-family="Helvetica,sans-Serif" font-size="10.00">_candidates.c</text>
</a>
</g>
</g>
<!-- Node1&#45;&gt;Node6 -->
<g id="edge5_Node000001_Node000006" class="edge">
<title>Node1&#45;&gt;Node6</title>
<g id="a_edge5_Node000001_Node000006"><a xlink:title=" ">
<path fill="none" stroke="#63b8ff" d="M1037.73,-87.98C951.15,-82.91 791.31,-70.22 658,-41 651.36,-39.54 644.42,-37.62 637.72,-35.56"/>
<polygon fill="#63b8ff" stroke="#63b8ff" points="1037.73,-91.48 1047.91,-88.56 1038.13,-84.49 1037.73,-91.48"/>
</a>
</g>
</g>
<!-- Node7 -->
<g id="Node000007" class="node">
<title>Node7</title>
<g id="a_Node000007"><a xlink:href="evict__policy_8c.html" target="_top" xlink:title=" ">
<polygon fill="white" stroke="#666666" points="768.5,-35.5 667.5,-35.5 667.5,-5.5 768.5,-5.5 768.5,-35.5"/>
<text text-anchor="start" x="675.5" y="-23.5" font-family="Helvetica,sans-Serif" font-size="10.00">src/fs/cache/evict</text>
<text text-anchor="middle" x="718" y="-12.5" font-family="Helvetica,sans-Serif" font-size="10.00">_policy.c</text>
</a>
</g>
</g>
<!-- Node1&#45;&gt;Node7 -->
<g id="edge6_Node000001_Node000007" class="edge">
<title>Node1&#45;&gt;Node7</title>
<g id="a_edge6_Node000001_Node000007"><a xlink:title=" ">
<path fill="none" stroke="#63b8ff" d="M1037.73,-84.25C972.19,-76.56 867.07,-62.22 778,-41 771.5,-39.45 764.69,-37.53 758.09,-35.51"/>
<polygon fill="#63b8ff" stroke="#63b8ff" points="1037.57,-87.76 1047.91,-85.43 1038.37,-80.81 1037.57,-87.76"/>
</a>
</g>
</g>
<!-- Node8 -->
<g id="Node000008" class="node">
<title>Node8</title>
<g id="a_Node000008"><a xlink:href="fetch_8c.html" target="_top" xlink:title=" ">
<polygon fill="white" stroke="#666666" points="897,-30 787,-30 787,-11 897,-11 897,-30"/>
<text text-anchor="middle" x="842" y="-18" font-family="Helvetica,sans-Serif" font-size="10.00">src/fs/cache/fetch.c</text>
</a>
</g>
</g>
<!-- Node1&#45;&gt;Node8 -->
<g id="edge7_Node000001_Node000008" class="edge">
<title>Node1&#45;&gt;Node8</title>
<g id="a_edge7_Node000001_Node000008"><a xlink:title=" ">
<path fill="none" stroke="#63b8ff" d="M1037.89,-75.58C999.62,-66.04 949.87,-53.3 906,-41 893.81,-37.58 880.4,-33.54 869.01,-30.02"/>
<polygon fill="#63b8ff" stroke="#63b8ff" points="1037.31,-79.04 1047.86,-78.06 1039,-72.25 1037.31,-79.04"/>
</a>
</g>
</g>
<!-- Node9 -->
<g id="Node000009" class="node">
<title>Node9</title>
<g id="a_Node000009"><a xlink:href="open_8c.html" target="_top" xlink:title=" ">
<polygon fill="white" stroke="#666666" points="1025,-30 915,-30 915,-11 1025,-11 1025,-30"/>
<text text-anchor="middle" x="970" y="-18" font-family="Helvetica,sans-Serif" font-size="10.00">src/fs/cache/open.c</text>
</a>
</g>
</g>
<!-- Node1&#45;&gt;Node9 -->
<g id="edge8_Node000001_Node000009" class="edge">
<title>Node1&#45;&gt;Node9</title>
<g id="a_edge8_Node000001_Node000009"><a xlink:title=" ">
<path fill="none" stroke="#63b8ff" d="M1065.37,-72.1C1039.53,-58.39 1005.79,-40.49 986.15,-30.07"/>
<polygon fill="#63b8ff" stroke="#63b8ff" points="1064.02,-75.34 1074.49,-76.94 1067.3,-69.16 1064.02,-75.34"/>
</a>
</g>
</g>
<!-- Node10 -->
<g id="Node000010" class="node">
<title>Node10</title>
<g id="a_Node000010"><a xlink:href="open__or__fill_8c.html" target="_top" xlink:title=" ">
<polygon fill="white" stroke="#666666" points="1159,-35.5 1043,-35.5 1043,-5.5 1159,-5.5 1159,-35.5"/>
<text text-anchor="start" x="1051" y="-23.5" font-family="Helvetica,sans-Serif" font-size="10.00">src/fs/cache/open_or</text>
<text text-anchor="middle" x="1101" y="-12.5" font-family="Helvetica,sans-Serif" font-size="10.00">_fill.c</text>
</a>
</g>
</g>
<!-- Node1&#45;&gt;Node10 -->
<g id="edge9_Node000001_Node000010" class="edge">
<title>Node1&#45;&gt;Node10</title>
<g id="a_edge9_Node000001_Node000010"><a xlink:title=" ">
<path fill="none" stroke="#63b8ff" d="M1101,-66.75C1101,-56.31 1101,-44.49 1101,-35.54"/>
<polygon fill="#63b8ff" stroke="#63b8ff" points="1097.5,-66.94 1101,-76.94 1104.5,-66.94 1097.5,-66.94"/>
</a>
</g>
</g>
<!-- Node11 -->
<g id="Node000011" class="node">
<title>Node11</title>
<g id="a_Node000011"><a xlink:href="paths_8c.html" target="_top" xlink:title=" ">
<polygon fill="white" stroke="#666666" points="1290.5,-30 1177.5,-30 1177.5,-11 1290.5,-11 1290.5,-30"/>
<text text-anchor="middle" x="1234" y="-18" font-family="Helvetica,sans-Serif" font-size="10.00">src/fs/cache/paths.c</text>
</a>
</g>
</g>
<!-- Node1&#45;&gt;Node11 -->
<g id="edge10_Node000001_Node000011" class="edge">
<title>Node1&#45;&gt;Node11</title>
<g id="a_edge10_Node000001_Node000011"><a xlink:title=" ">
<path fill="none" stroke="#63b8ff" d="M1136.83,-72.28C1163.11,-58.54 1197.57,-40.53 1217.6,-30.07"/>
<polygon fill="#63b8ff" stroke="#63b8ff" points="1135.16,-69.2 1127.91,-76.94 1138.4,-75.41 1135.16,-69.2"/>
</a>
</g>
</g>
<!-- Node12 -->
<g id="Node000012" class="node">
<title>Node12</title>
<g id="a_Node000012"><a xlink:href="fs_2cache_2thread_8c.html" target="_top" xlink:title=" ">
<polygon fill="white" stroke="#666666" points="1425.5,-30 1308.5,-30 1308.5,-11 1425.5,-11 1425.5,-30"/>
<text text-anchor="middle" x="1367" y="-18" font-family="Helvetica,sans-Serif" font-size="10.00">src/fs/cache/thread.c</text>
</a>
</g>
</g>
<!-- Node1&#45;&gt;Node12 -->
<g id="edge11_Node000001_Node000012" class="edge">
<title>Node1&#45;&gt;Node12</title>
<g id="a_edge11_Node000001_Node000012"><a xlink:title=" ">
<path fill="none" stroke="#63b8ff" d="M1164.3,-75.73C1203.48,-66.12 1254.77,-53.26 1300,-41 1312.63,-37.58 1326.53,-33.57 1338.37,-30.08"/>
<polygon fill="#63b8ff" stroke="#63b8ff" points="1163.23,-72.39 1154.35,-78.16 1164.9,-79.19 1163.23,-72.39"/>
</a>
</g>
</g>
<!-- Node13 -->
<g id="Node000013" class="node">
<title>Node13</title>
<g id="a_Node000013"><a xlink:href="open__cache_8c.html" target="_top" xlink:title=" ">
<polygon fill="white" stroke="#666666" points="1554,-35.5 1444,-35.5 1444,-5.5 1554,-5.5 1554,-35.5"/>
<text text-anchor="start" x="1452" y="-23.5" font-family="Helvetica,sans-Serif" font-size="10.00">src/protocols/root</text>
<text text-anchor="middle" x="1499" y="-12.5" font-family="Helvetica,sans-Serif" font-size="10.00">/read/open_cache.c</text>
</a>
</g>
</g>
<!-- Node1&#45;&gt;Node13 -->
<g id="edge12_Node000001_Node000013" class="edge">
<title>Node1&#45;&gt;Node13</title>
<g id="a_edge12_Node000001_Node000013"><a xlink:title=" ">
<path fill="none" stroke="#63b8ff" d="M1164.15,-84.35C1231.69,-76.59 1341.71,-62.08 1435,-41 1441.8,-39.46 1448.92,-37.58 1455.85,-35.59"/>
<polygon fill="#63b8ff" stroke="#63b8ff" points="1163.63,-80.89 1154.09,-85.5 1164.42,-87.85 1163.63,-80.89"/>
</a>
</g>
</g>
<!-- Node14 -->
<g id="Node000014" class="node">
<title>Node14</title>
<g id="a_Node000014"><a xlink:href="open__resolved__file_8c.html" target="_top" xlink:title=" ">
<polygon fill="white" stroke="#666666" points="1688,-41 1572,-41 1572,0 1688,0 1688,-41"/>
<text text-anchor="start" x="1580" y="-29" font-family="Helvetica,sans-Serif" font-size="10.00">src/protocols/root</text>
<text text-anchor="start" x="1580" y="-18" font-family="Helvetica,sans-Serif" font-size="10.00">/read/open_resolved</text>
<text text-anchor="middle" x="1630" y="-7" font-family="Helvetica,sans-Serif" font-size="10.00">_file.c</text>
</a>
</g>
</g>
<!-- Node1&#45;&gt;Node14 -->
<g id="edge13_Node000001_Node000014" class="edge">
<title>Node1&#45;&gt;Node14</title>
<g id="a_edge13_Node000001_Node000014"><a xlink:title=" ">
<path fill="none" stroke="#63b8ff" d="M1164.1,-87.69C1253.55,-82.19 1422.02,-68.92 1563,-41 1565.85,-40.44 1568.76,-39.8 1571.68,-39.13"/>
<polygon fill="#63b8ff" stroke="#63b8ff" points="1163.89,-84.19 1154.11,-88.29 1164.31,-91.18 1163.89,-84.19"/>
</a>
</g>
</g>
<!-- Node15 -->
<g id="Node000015" class="node">
<title>Node15</title>
<g id="a_Node000015"><a xlink:href="open__resolved__file__dispatch_8c.html" target="_top" xlink:title=" ">
<polygon fill="white" stroke="#666666" points="1822,-41 1706,-41 1706,0 1822,0 1822,-41"/>
<text text-anchor="start" x="1714" y="-29" font-family="Helvetica,sans-Serif" font-size="10.00">src/protocols/root</text>
<text text-anchor="start" x="1714" y="-18" font-family="Helvetica,sans-Serif" font-size="10.00">/read/open_resolved</text>
<text text-anchor="middle" x="1764" y="-7" font-family="Helvetica,sans-Serif" font-size="10.00">_file_dispatch.c</text>
</a>
</g>
</g>
<!-- Node1&#45;&gt;Node15 -->
<g id="edge14_Node000001_Node000015" class="edge">
<title>Node1&#45;&gt;Node15</title>
<g id="a_edge14_Node000001_Node000015"><a xlink:title=" ">
<path fill="none" stroke="#63b8ff" d="M1164.3,-89.83C1273.76,-86.88 1505.13,-76.6 1697,-41 1699.86,-40.47 1702.77,-39.87 1705.7,-39.21"/>
<polygon fill="#63b8ff" stroke="#63b8ff" points="1164,-86.33 1154.09,-90.09 1164.18,-93.33 1164,-86.33"/>
</a>
</g>
</g>
<!-- Node16 -->
<g id="Node000016" class="node">
<title>Node16</title>
<g id="a_Node000016"><a xlink:href="open__resolved__file__finalize_8c.html" target="_top" xlink:title=" ">
<polygon fill="white" stroke="#666666" points="1956,-41 1840,-41 1840,0 1956,0 1956,-41"/>
<text text-anchor="start" x="1848" y="-29" font-family="Helvetica,sans-Serif" font-size="10.00">src/protocols/root</text>
<text text-anchor="start" x="1848" y="-18" font-family="Helvetica,sans-Serif" font-size="10.00">/read/open_resolved</text>
<text text-anchor="middle" x="1898" y="-7" font-family="Helvetica,sans-Serif" font-size="10.00">_file_finalize.c</text>
</a>
</g>
</g>
<!-- Node1&#45;&gt;Node16 -->
<g id="edge15_Node000001_Node000016" class="edge">
<title>Node1&#45;&gt;Node16</title>
<g id="a_edge15_Node000001_Node000016"><a xlink:title=" ">
<path fill="none" stroke="#63b8ff" d="M1164.49,-91.21C1291.9,-90.64 1587.39,-84.27 1831,-41 1833.86,-40.49 1836.78,-39.91 1839.71,-39.27"/>
<polygon fill="#63b8ff" stroke="#63b8ff" points="1164.14,-87.72 1154.15,-91.25 1164.16,-94.72 1164.14,-87.72"/>
</a>
</g>
</g>
<!-- Node17 -->
<g id="Node000017" class="node">
<title>Node17</title>
<g id="a_Node000017"><a xlink:href="open__resolved__file__open_8c.html" target="_top" xlink:title=" ">
<polygon fill="white" stroke="#666666" points="2090,-41 1974,-41 1974,0 2090,0 2090,-41"/>
<text text-anchor="start" x="1982" y="-29" font-family="Helvetica,sans-Serif" font-size="10.00">src/protocols/root</text>
<text text-anchor="start" x="1982" y="-18" font-family="Helvetica,sans-Serif" font-size="10.00">/read/open_resolved</text>
<text text-anchor="middle" x="2032" y="-7" font-family="Helvetica,sans-Serif" font-size="10.00">_file_open.c</text>
</a>
</g>
</g>
<!-- Node1&#45;&gt;Node17 -->
<g id="edge16_Node000001_Node000017" class="edge">
<title>Node1&#45;&gt;Node17</title>
<g id="a_edge16_Node000001_Node000017"><a xlink:title=" ">
<path fill="none" stroke="#63b8ff" d="M1164.19,-89.19C1336.31,-83.97 1810.91,-67.53 1965,-41 1967.87,-40.51 1970.78,-39.93 1973.72,-39.3"/>
<polygon fill="#63b8ff" stroke="#63b8ff" points="1163.91,-85.7 1154.02,-89.5 1164.12,-92.7 1163.91,-85.7"/>
</a>
</g>
</g>
<!-- Node18 -->
<g id="Node000018" class="node">
<title>Node18</title>
<g id="a_Node000018"><a xlink:href="open__resolved__file__staging_8c.html" target="_top" xlink:title=" ">
<polygon fill="white" stroke="#666666" points="2224,-41 2108,-41 2108,0 2224,0 2224,-41"/>
<text text-anchor="start" x="2116" y="-29" font-family="Helvetica,sans-Serif" font-size="10.00">src/protocols/root</text>
<text text-anchor="start" x="2116" y="-18" font-family="Helvetica,sans-Serif" font-size="10.00">/read/open_resolved</text>
<text text-anchor="middle" x="2166" y="-7" font-family="Helvetica,sans-Serif" font-size="10.00">_file_staging.c</text>
</a>
</g>
</g>
<!-- Node1&#45;&gt;Node18 -->
<g id="edge17_Node000001_Node000018" class="edge">
<title>Node1&#45;&gt;Node18</title>
<g id="a_edge17_Node000001_Node000018"><a xlink:title=" ">
<path fill="none" stroke="#63b8ff" d="M1164.3,-89.76C1354.34,-85.72 1917.99,-71.45 2099,-41 2101.87,-40.52 2104.79,-39.95 2107.72,-39.33"/>
<polygon fill="#63b8ff" stroke="#63b8ff" points="1164.11,-86.26 1154.19,-89.97 1164.26,-93.26 1164.11,-86.26"/>
</a>
</g>
</g>
</g>
</svg>

<g id="navigator" transform="translate(0 0)" fill="#404254">
  <rect fill="#f2f5e9" fill-opacity="0.5" stroke="#606060" stroke-width=".5" x="0" y="0" width="60" height="60"/>
  <use id="zoomplus" xlink:href="#zoomPlus" x="17" y="9" onmousedown="handleZoom(evt,'in')"/>
  <use id="zoomminus" xlink:href="#zoomMin" x="42" y="9" onmousedown="handleZoom(evt,'out')"/>
  <use id="reset" xlink:href="#resetDef" x="30" y="36" onmousedown="handleReset()"/>
   <use id="arrowup" xlink:href="#arrowUp" x="0" y="0" onmousedown="handlePan(0,-1)"/>
  <use id="arrowright" xlink:href="#arrowRight" x="0" y="0" onmousedown="handlePan(1,0)"/>
  <use id="arrowdown" xlink:href="#arrowDown" x="0" y="0" onmousedown="handlePan(0,1)"/>
  <use id="arrowleft" xlink:href="#arrowLeft" x="0" y="0" onmousedown="handlePan(-1,0)"/>
</g>
<svg viewBox="0 0 15 15" width="100%" height="30px" preserveAspectRatio="xMaxYMin meet">
 <g id="arrow_out" transform="scale(0.3 0.3)">
  <a xlink:href="cache__storage_8h__dep__incl_org.svg" target="_base">
   <rect id="button" ry="5" rx="5" y="6" x="6" height="38" width="38"
        fill="#f2f5e9" fill-opacity="0.5" stroke="#606060" stroke-width="1.0"/>
   <path id="arrow"
     d="M 11.500037,31.436501 C 11.940474,20.09759 22.043105,11.32322 32.158766,21.979434 L 37.068811,17.246167 C 37.068811,17.246167 37.088388,32 37.088388,32 L 22.160133,31.978069 C 22.160133,31.978069 26.997745,27.140456 26.997745,27.140456 C 18.528582,18.264221 13.291696,25.230495 11.500037,31.436501 z"
     style="fill:#404040;"/>
  </a>
 </g>
</svg>

<style type='text/css'>
<![CDATA[
[data-mouse-over-selected='false'] { opacity: 0.7; }
[data-mouse-over-selected='true']  { opacity: 1.0; }
]]>
</style>
<script type="application/ecmascript"><![CDATA[
document.addEventListener('DOMContentLoaded', (event) => {
  highlightEdges();
  highlightAdjacentNodes();
});
]]></script>
</svg>
