<?xml version="1.0" encoding="UTF-8" standalone="no"?>
<!DOCTYPE svg PUBLIC "-//W3C//DTD SVG 1.1//EN"
 "http://www.w3.org/Graphics/SVG/1.1/DTD/svg11.dtd">
<!-- Generated by graphviz version 2.43.0 (0)
 -->
<!-- Title: src/core/compat/checksum_core.h Pages: 1 -->
<svg width="459pt" height="104pt"
 viewBox="0.00 0.00 459.00 104.00" xmlns="http://www.w3.org/2000/svg" xmlns:xlink="http://www.w3.org/1999/xlink">
<g id="graph0" class="graph" transform="scale(1 1) rotate(0) translate(4 100)">
<title>src/core/compat/checksum_core.h</title>
<!-- Node1 -->
<g id="Node000001" class="node">
<title>Node1</title>
<g id="a_Node000001"><a xlink:title=" ">
<polygon fill="#999999" stroke="#666666" points="282,-96 135,-96 135,-66 282,-66 282,-96"/>
<text text-anchor="start" x="143" y="-84" font-family="Helvetica,sans-Serif" font-size="10.00">src/core/compat/checksum</text>
<text text-anchor="middle" x="208.5" y="-73" font-family="Helvetica,sans-Serif" font-size="10.00">_core.h</text>
</a>
</g>
</g>
<!-- Node2 -->
<g id="Node000002" class="node">
<title>Node2</title>
<g id="a_Node000002"><a xlink:href="client_2lib_2protocols_2shared_2checksum_8c.html" target="_top" xlink:title=" ">
<polygon fill="white" stroke="#666666" points="113,-30 0,-30 0,0 113,0 113,-30"/>
<text text-anchor="start" x="8" y="-18" font-family="Helvetica,sans-Serif" font-size="10.00">client/lib/protocols</text>
<text text-anchor="middle" x="56.5" y="-7" font-family="Helvetica,sans-Serif" font-size="10.00">/shared/checksum.c</text>
</a>
</g>
</g>
<!-- Node1&#45;&gt;Node2 -->
<g id="edge1_Node000001_Node000002" class="edge">
<title>Node1&#45;&gt;Node2</title>
<g id="a_edge1_Node000001_Node000002"><a xlink:title=" ">
<path fill="none" stroke="#63b8ff" d="M165.88,-62.05C141.8,-51.91 112.14,-39.43 89.78,-30.01"/>
<polygon fill="#63b8ff" stroke="#63b8ff" points="164.57,-65.3 175.14,-65.95 167.28,-58.85 164.57,-65.3"/>
</a>
</g>
</g>
<!-- Node3 -->
<g id="Node000003" class="node">
<title>Node3</title>
<g id="a_Node000003"><a xlink:href="src_2core_2compat_2checksum_8c.html" target="_top" xlink:title=" ">
<polygon fill="white" stroke="#666666" points="286,-24.5 131,-24.5 131,-5.5 286,-5.5 286,-24.5"/>
<text text-anchor="middle" x="208.5" y="-12.5" font-family="Helvetica,sans-Serif" font-size="10.00">src/core/compat/checksum.c</text>
</a>
</g>
</g>
<!-- Node1&#45;&gt;Node3 -->
<g id="edge2_Node000001_Node000003" class="edge">
<title>Node1&#45;&gt;Node3</title>
<g id="a_edge2_Node000001_Node000003"><a xlink:title=" ">
<path fill="none" stroke="#63b8ff" d="M208.5,-55.6C208.5,-44.8 208.5,-32.78 208.5,-24.84"/>
<polygon fill="#63b8ff" stroke="#63b8ff" points="205,-55.8 208.5,-65.8 212,-55.8 205,-55.8"/>
</a>
</g>
</g>
<!-- Node4 -->
<g id="Node000004" class="node">
<title>Node4</title>
<g id="a_Node000004"><a xlink:href="checksum__core_8c.html" target="_top" xlink:title=" ">
<polygon fill="white" stroke="#666666" points="451,-30 304,-30 304,0 451,0 451,-30"/>
<text text-anchor="start" x="312" y="-18" font-family="Helvetica,sans-Serif" font-size="10.00">src/core/compat/checksum</text>
<text text-anchor="middle" x="377.5" y="-7" font-family="Helvetica,sans-Serif" font-size="10.00">_core.c</text>
</a>
</g>
</g>
<!-- Node1&#45;&gt;Node4 -->
<g id="edge3_Node000001_Node000004" class="edge">
<title>Node1&#45;&gt;Node4</title>
<g id="a_edge3_Node000001_Node000004"><a xlink:title=" ">
<path fill="none" stroke="#63b8ff" d="M255.18,-62.32C282.08,-52.14 315.42,-39.51 340.5,-30.01"/>
<polygon fill="#63b8ff" stroke="#63b8ff" points="253.7,-59.14 245.59,-65.95 256.18,-65.69 253.7,-59.14"/>
</a>
</g>
</g>
</g>
</svg>
