<?xml version="1.0" encoding="UTF-8" standalone="no"?>
<!DOCTYPE svg PUBLIC "-//W3C//DTD SVG 1.1//EN"
 "http://www.w3.org/Graphics/SVG/1.1/DTD/svg11.dtd">
<!-- Generated by graphviz version 2.43.0 (0)
 -->
<!-- Title: src/core/compat/checksum_core.c Pages: 1 -->
<svg width="893pt" height="203pt"
 viewBox="0.00 0.00 893.00 203.00" xmlns="http://www.w3.org/2000/svg" xmlns:xlink="http://www.w3.org/1999/xlink">
<g id="graph0" class="graph" transform="scale(1 1) rotate(0) translate(4 199)">
<title>src/core/compat/checksum_core.c</title>
<!-- Node1 -->
<g id="Node000001" class="node">
<title>Node1</title>
<g id="a_Node000001"><a xlink:title=" ">
<polygon fill="#999999" stroke="#666666" points="659.5,-195 512.5,-195 512.5,-165 659.5,-165 659.5,-195"/>
<text text-anchor="start" x="520.5" y="-183" font-family="Helvetica,sans-Serif" font-size="10.00">src/core/compat/checksum</text>
<text text-anchor="middle" x="586" y="-172" font-family="Helvetica,sans-Serif" font-size="10.00">_core.c</text>
</a>
</g>
</g>
<!-- Node2 -->
<g id="Node000002" class="node">
<title>Node2</title>
<g id="a_Node000002"><a xlink:href="checksum__core_8h.html" target="_top" xlink:title=" ">
<polygon fill="white" stroke="#666666" points="431.5,-129 330.5,-129 330.5,-110 431.5,-110 431.5,-129"/>
<text text-anchor="middle" x="381" y="-117" font-family="Helvetica,sans-Serif" font-size="10.00">checksum_core.h</text>
</a>
</g>
</g>
<!-- Node1&#45;&gt;Node2 -->
<g id="edge1_Node000001_Node000002" class="edge">
<title>Node1&#45;&gt;Node2</title>
<g id="a_edge1_Node000001_Node000002"><a xlink:title=" ">
<path fill="none" stroke="#63b8ff" d="M536.9,-164.99C501.37,-154.85 453.96,-141.32 420.78,-131.85"/>
<polygon fill="#63b8ff" stroke="#63b8ff" points="421.55,-128.43 410.97,-129.05 419.63,-135.16 421.55,-128.43"/>
</a>
</g>
</g>
<!-- Node4 -->
<g id="Node000004" class="node">
<title>Node4</title>
<g id="a_Node000004"><a xlink:href="sd_8h.html" target="_top" xlink:title=" ">
<polygon fill="white" stroke="#666666" points="348,-74 256,-74 256,-55 348,-55 348,-74"/>
<text text-anchor="middle" x="302" y="-62" font-family="Helvetica,sans-Serif" font-size="10.00">fs/backend/sd.h</text>
</a>
</g>
</g>
<!-- Node1&#45;&gt;Node4 -->
<g id="edge10_Node000001_Node000004" class="edge">
<title>Node1&#45;&gt;Node4</title>
<g id="a_edge10_Node000001_Node000004"><a xlink:title=" ">
<path fill="none" stroke="#63b8ff" d="M512.28,-173.6C443.88,-167.12 348.61,-153.87 321,-129 308.59,-117.82 304.14,-98.89 302.62,-84.61"/>
<polygon fill="#63b8ff" stroke="#63b8ff" points="306.1,-84.12 301.93,-74.38 299.11,-84.59 306.1,-84.12"/>
</a>
</g>
</g>
<!-- Node10 -->
<g id="Node000010" class="node">
<title>Node10</title>
<g id="a_Node000010"><a xlink:href="crc32c_8h.html" target="_top" xlink:title=" ">
<polygon fill="white" stroke="#666666" points="506.5,-129 449.5,-129 449.5,-110 506.5,-110 506.5,-129"/>
<text text-anchor="middle" x="478" y="-117" font-family="Helvetica,sans-Serif" font-size="10.00">crc32c.h</text>
</a>
</g>
</g>
<!-- Node1&#45;&gt;Node10 -->
<g id="edge11_Node000001_Node000010" class="edge">
<title>Node1&#45;&gt;Node10</title>
<g id="a_edge11_Node000001_Node000010"><a xlink:title=" ">
<path fill="none" stroke="#63b8ff" d="M560.13,-164.99C542.76,-155.58 519.99,-143.24 502.83,-133.95"/>
<polygon fill="#63b8ff" stroke="#63b8ff" points="504.41,-130.82 493.95,-129.14 501.08,-136.98 504.41,-130.82"/>
</a>
</g>
</g>
<!-- Node12 -->
<g id="Node000012" class="node">
<title>Node12</title>
<g id="a_Node000012"><a xlink:href="crc64_8h.html" target="_top" xlink:title=" ">
<polygon fill="white" stroke="#666666" points="577,-129 525,-129 525,-110 577,-110 577,-129"/>
<text text-anchor="middle" x="551" y="-117" font-family="Helvetica,sans-Serif" font-size="10.00">crc64.h</text>
</a>
</g>
</g>
<!-- Node1&#45;&gt;Node12 -->
<g id="edge14_Node000001_Node000012" class="edge">
<title>Node1&#45;&gt;Node12</title>
<g id="a_edge14_Node000001_Node000012"><a xlink:title=" ">
<path fill="none" stroke="#63b8ff" d="M577.53,-164.84C572.71,-156.78 566.63,-146.62 561.5,-138.06"/>
<polygon fill="#63b8ff" stroke="#63b8ff" points="564.38,-136.05 556.24,-129.27 558.38,-139.64 564.38,-136.05"/>
</a>
</g>
</g>
<!-- Node13 -->
<g id="Node000013" class="node">
<title>Node13</title>
<g id="a_Node000013"><a xlink:title=" ">
<polygon fill="#e0e0e0" stroke="#999999" points="646.5,-129 595.5,-129 595.5,-110 646.5,-110 646.5,-129"/>
<text text-anchor="middle" x="621" y="-117" font-family="Helvetica,sans-Serif" font-size="10.00">errno.h</text>
</a>
</g>
</g>
<!-- Node1&#45;&gt;Node13 -->
<g id="edge17_Node000001_Node000013" class="edge">
<title>Node1&#45;&gt;Node13</title>
<g id="a_edge17_Node000001_Node000013"><a xlink:title=" ">
<path fill="none" stroke="#63b8ff" d="M594.47,-164.84C599.29,-156.78 605.37,-146.62 610.5,-138.06"/>
<polygon fill="#63b8ff" stroke="#63b8ff" points="613.62,-139.64 615.76,-129.27 607.62,-136.05 613.62,-139.64"/>
</a>
</g>
</g>
<!-- Node14 -->
<g id="Node000014" class="node">
<title>Node14</title>
<g id="a_Node000014"><a xlink:title=" ">
<polygon fill="#e0e0e0" stroke="#999999" points="721,-129 665,-129 665,-110 721,-110 721,-129"/>
<text text-anchor="middle" x="693" y="-117" font-family="Helvetica,sans-Serif" font-size="10.00">unistd.h</text>
</a>
</g>
</g>
<!-- Node1&#45;&gt;Node14 -->
<g id="edge18_Node000001_Node000014" class="edge">
<title>Node1&#45;&gt;Node14</title>
<g id="a_edge18_Node000001_Node000014"><a xlink:title=" ">
<path fill="none" stroke="#63b8ff" d="M611.63,-164.99C628.84,-155.58 651.4,-143.24 668.4,-133.95"/>
<polygon fill="#63b8ff" stroke="#63b8ff" points="670.1,-137.01 677.2,-129.14 666.75,-130.87 670.1,-137.01"/>
</a>
</g>
</g>
<!-- Node15 -->
<g id="Node000015" class="node">
<title>Node15</title>
<g id="a_Node000015"><a xlink:title=" ">
<polygon fill="#e0e0e0" stroke="#999999" points="782.5,-129 739.5,-129 739.5,-110 782.5,-110 782.5,-129"/>
<text text-anchor="middle" x="761" y="-117" font-family="Helvetica,sans-Serif" font-size="10.00">zlib.h</text>
</a>
</g>
</g>
<!-- Node1&#45;&gt;Node15 -->
<g id="edge19_Node000001_Node000015" class="edge">
<title>Node1&#45;&gt;Node15</title>
<g id="a_edge19_Node000001_Node000015"><a xlink:title=" ">
<path fill="none" stroke="#63b8ff" d="M627.92,-164.99C659.08,-154.57 700.94,-140.58 729.33,-131.09"/>
<polygon fill="#63b8ff" stroke="#63b8ff" points="730.76,-134.3 739.14,-127.81 728.54,-127.66 730.76,-134.3"/>
</a>
</g>
</g>
<!-- Node16 -->
<g id="Node000016" class="node">
<title>Node16</title>
<g id="a_Node000016"><a xlink:title=" ">
<polygon fill="#e0e0e0" stroke="#999999" points="885,-129 801,-129 801,-110 885,-110 885,-129"/>
<text text-anchor="middle" x="843" y="-117" font-family="Helvetica,sans-Serif" font-size="10.00">openssl/evp.h</text>
</a>
</g>
</g>
<!-- Node1&#45;&gt;Node16 -->
<g id="edge20_Node000001_Node000016" class="edge">
<title>Node1&#45;&gt;Node16</title>
<g id="a_edge20_Node000001_Node000016"><a xlink:title=" ">
<path fill="none" stroke="#63b8ff" d="M647.56,-164.99C692.97,-154.65 753.85,-140.79 795.52,-131.31"/>
<polygon fill="#63b8ff" stroke="#63b8ff" points="796.45,-134.69 805.42,-129.05 794.9,-127.86 796.45,-134.69"/>
</a>
</g>
</g>
<!-- Node3 -->
<g id="Node000003" class="node">
<title>Node3</title>
<g id="a_Node000003"><a xlink:title=" ">
<polygon fill="#e0e0e0" stroke="#999999" points="487.5,-19 434.5,-19 434.5,0 487.5,0 487.5,-19"/>
<text text-anchor="middle" x="461" y="-7" font-family="Helvetica,sans-Serif" font-size="10.00">stdint.h</text>
</a>
</g>
</g>
<!-- Node2&#45;&gt;Node3 -->
<g id="edge2_Node000002_Node000003" class="edge">
<title>Node2&#45;&gt;Node3</title>
<g id="a_edge2_Node000002_Node000003"><a xlink:title=" ">
<path fill="none" stroke="#63b8ff" d="M387.55,-109.66C400.86,-91.69 431.27,-50.64 448.49,-27.38"/>
<polygon fill="#63b8ff" stroke="#63b8ff" points="451.45,-29.28 454.59,-19.16 445.82,-25.11 451.45,-29.28"/>
</a>
</g>
</g>
<!-- Node2&#45;&gt;Node4 -->
<g id="edge3_Node000002_Node000004" class="edge">
<title>Node2&#45;&gt;Node4</title>
<g id="a_edge3_Node000002_Node000004"><a xlink:title=" ">
<path fill="none" stroke="#63b8ff" d="M368.31,-109.98C356.17,-101.84 337.64,-89.41 323.25,-79.76"/>
<polygon fill="#63b8ff" stroke="#63b8ff" points="325.18,-76.84 314.92,-74.17 321.28,-82.65 325.18,-76.84"/>
</a>
</g>
</g>
<!-- Node4&#45;&gt;Node3 -->
<g id="edge6_Node000004_Node000003" class="edge">
<title>Node4&#45;&gt;Node3</title>
<g id="a_edge6_Node000004_Node000003"><a xlink:title=" ">
<path fill="none" stroke="#63b8ff" d="M327.55,-54.98C354.12,-46.13 395.94,-32.19 425.67,-22.28"/>
<polygon fill="#63b8ff" stroke="#63b8ff" points="426.87,-25.56 435.25,-19.08 424.66,-18.92 426.87,-25.56"/>
</a>
</g>
</g>
<!-- Node5 -->
<g id="Node000005" class="node">
<title>Node5</title>
<g id="a_Node000005"><a xlink:title=" ">
<polygon fill="#e0e0e0" stroke="#999999" points="78,-19 0,-19 0,0 78,0 78,-19"/>
<text text-anchor="middle" x="39" y="-7" font-family="Helvetica,sans-Serif" font-size="10.00">ngx_config.h</text>
</a>
</g>
</g>
<!-- Node4&#45;&gt;Node5 -->
<g id="edge4_Node000004_Node000005" class="edge">
<title>Node4&#45;&gt;Node5</title>
<g id="a_edge4_Node000004_Node000005"><a xlink:title=" ">
<path fill="none" stroke="#63b8ff" d="M259.74,-54.98C212.88,-45.54 137.38,-30.32 87.97,-20.37"/>
<polygon fill="#63b8ff" stroke="#63b8ff" points="88.64,-16.93 78.15,-18.39 87.26,-23.8 88.64,-16.93"/>
</a>
</g>
</g>
<!-- Node6 -->
<g id="Node000006" class="node">
<title>Node6</title>
<g id="a_Node000006"><a xlink:title=" ">
<polygon fill="#e0e0e0" stroke="#999999" points="166,-19 96,-19 96,0 166,0 166,-19"/>
<text text-anchor="middle" x="131" y="-7" font-family="Helvetica,sans-Serif" font-size="10.00">ngx_core.h</text>
</a>
</g>
</g>
<!-- Node4&#45;&gt;Node6 -->
<g id="edge5_Node000004_Node000006" class="edge">
<title>Node4&#45;&gt;Node6</title>
<g id="a_edge5_Node000004_Node000006"><a xlink:title=" ">
<path fill="none" stroke="#63b8ff" d="M274.53,-54.98C245.82,-46.09 200.58,-32.07 168.58,-22.15"/>
<polygon fill="#63b8ff" stroke="#63b8ff" points="169.28,-18.7 158.69,-19.08 167.2,-25.39 169.28,-18.7"/>
</a>
</g>
</g>
<!-- Node7 -->
<g id="Node000007" class="node">
<title>Node7</title>
<g id="a_Node000007"><a xlink:title=" ">
<polygon fill="#e0e0e0" stroke="#999999" points="248,-19 184,-19 184,0 248,0 248,-19"/>
<text text-anchor="middle" x="216" y="-7" font-family="Helvetica,sans-Serif" font-size="10.00">sys/stat.h</text>
</a>
</g>
</g>
<!-- Node4&#45;&gt;Node7 -->
<g id="edge7_Node000004_Node000007" class="edge">
<title>Node4&#45;&gt;Node7</title>
<g id="a_edge7_Node000004_Node000007"><a xlink:title=" ">
<path fill="none" stroke="#63b8ff" d="M288.18,-54.98C274.85,-46.77 254.42,-34.18 238.69,-24.49"/>
<polygon fill="#63b8ff" stroke="#63b8ff" points="240.42,-21.44 230.07,-19.17 236.75,-27.4 240.42,-21.44"/>
</a>
</g>
</g>
<!-- Node8 -->
<g id="Node000008" class="node">
<title>Node8</title>
<g id="a_Node000008"><a xlink:title=" ">
<polygon fill="#e0e0e0" stroke="#999999" points="338,-19 266,-19 266,0 338,0 338,-19"/>
<text text-anchor="middle" x="302" y="-7" font-family="Helvetica,sans-Serif" font-size="10.00">sys/types.h</text>
</a>
</g>
</g>
<!-- Node4&#45;&gt;Node8 -->
<g id="edge8_Node000004_Node000008" class="edge">
<title>Node4&#45;&gt;Node8</title>
<g id="a_edge8_Node000004_Node000008"><a xlink:title=" ">
<path fill="none" stroke="#63b8ff" d="M302,-54.75C302,-47.8 302,-37.85 302,-29.13"/>
<polygon fill="#63b8ff" stroke="#63b8ff" points="305.5,-29.09 302,-19.09 298.5,-29.09 305.5,-29.09"/>
</a>
</g>
</g>
<!-- Node9 -->
<g id="Node000009" class="node">
<title>Node9</title>
<g id="a_Node000009"><a xlink:title=" ">
<polygon fill="#e0e0e0" stroke="#999999" points="416,-19 356,-19 356,0 416,0 416,-19"/>
<text text-anchor="middle" x="386" y="-7" font-family="Helvetica,sans-Serif" font-size="10.00">sys/uio.h</text>
</a>
</g>
</g>
<!-- Node4&#45;&gt;Node9 -->
<g id="edge9_Node000004_Node000009" class="edge">
<title>Node4&#45;&gt;Node9</title>
<g id="a_edge9_Node000004_Node000009"><a xlink:title=" ">
<path fill="none" stroke="#63b8ff" d="M315.5,-54.98C328.4,-46.84 348.1,-34.41 363.4,-24.76"/>
<polygon fill="#63b8ff" stroke="#63b8ff" points="365.67,-27.47 372.26,-19.17 361.93,-21.55 365.67,-27.47"/>
</a>
</g>
</g>
<!-- Node10&#45;&gt;Node3 -->
<g id="edge13_Node000010_Node000003" class="edge">
<title>Node10&#45;&gt;Node3</title>
<g id="a_edge13_Node000010_Node000003"><a xlink:title=" ">
<path fill="none" stroke="#63b8ff" d="M476.01,-109.67C474.05,-100.72 471.04,-86.45 469,-74 466.55,-59.06 464.44,-42.03 463.01,-29.37"/>
<polygon fill="#63b8ff" stroke="#63b8ff" points="466.45,-28.72 461.88,-19.16 459.5,-29.48 466.45,-28.72"/>
</a>
</g>
</g>
<!-- Node11 -->
<g id="Node000011" class="node">
<title>Node11</title>
<g id="a_Node000011"><a xlink:title=" ">
<polygon fill="#e0e0e0" stroke="#999999" points="534,-74 478,-74 478,-55 534,-55 534,-74"/>
<text text-anchor="middle" x="506" y="-62" font-family="Helvetica,sans-Serif" font-size="10.00">stddef.h</text>
</a>
</g>
</g>
<!-- Node10&#45;&gt;Node11 -->
<g id="edge12_Node000010_Node000011" class="edge">
<title>Node10&#45;&gt;Node11</title>
<g id="a_edge12_Node000010_Node000011"><a xlink:title=" ">
<path fill="none" stroke="#63b8ff" d="M482.62,-109.75C486.46,-102.49 492.02,-91.95 496.76,-82.98"/>
<polygon fill="#63b8ff" stroke="#63b8ff" points="499.89,-84.57 501.46,-74.09 493.7,-81.3 499.89,-84.57"/>
</a>
</g>
</g>
<!-- Node12&#45;&gt;Node3 -->
<g id="edge16_Node000012_Node000003" class="edge">
<title>Node12&#45;&gt;Node3</title>
<g id="a_edge16_Node000012_Node000003"><a xlink:title=" ">
<path fill="none" stroke="#63b8ff" d="M552.24,-109.84C553.64,-96.75 554.41,-71.7 543,-55 532.15,-39.13 513.73,-28.4 497.1,-21.47"/>
<polygon fill="#63b8ff" stroke="#63b8ff" points="498.17,-18.13 487.58,-17.82 495.66,-24.67 498.17,-18.13"/>
</a>
</g>
</g>
<!-- Node12&#45;&gt;Node11 -->
<g id="edge15_Node000012_Node000011" class="edge">
<title>Node12&#45;&gt;Node11</title>
<g id="a_edge15_Node000012_Node000011"><a xlink:title=" ">
<path fill="none" stroke="#63b8ff" d="M543.57,-109.75C537.15,-102.18 527.69,-91.05 519.88,-81.84"/>
<polygon fill="#63b8ff" stroke="#63b8ff" points="522.43,-79.45 513.29,-74.09 517.1,-83.98 522.43,-79.45"/>
</a>
</g>
</g>
</g>
</svg>
