<?xml version="1.0" encoding="UTF-8" standalone="no"?>
<!DOCTYPE svg PUBLIC "-//W3C//DTD SVG 1.1//EN"
 "http://www.w3.org/Graphics/SVG/1.1/DTD/svg11.dtd">
<!-- Generated by graphviz version 2.43.0 (0)
 -->
<!-- Title: src/core/compat/checksum_core.c Pages: 1 -->
<svg width="914pt" height="203pt"
 viewBox="0.00 0.00 914.00 203.00" xmlns="http://www.w3.org/2000/svg" xmlns:xlink="http://www.w3.org/1999/xlink">
<g id="graph0" class="graph" transform="scale(1 1) rotate(0) translate(4 199)">
<title>src/core/compat/checksum_core.c</title>
<!-- Node1 -->
<g id="Node000001" class="node">
<title>Node1</title>
<g id="a_Node000001"><a xlink:title=" ">
<polygon fill="#999999" stroke="#666666" points="678.5,-195 531.5,-195 531.5,-165 678.5,-165 678.5,-195"/>
<text text-anchor="start" x="539.5" y="-183" font-family="Helvetica,sans-Serif" font-size="10.00">src/core/compat/checksum</text>
<text text-anchor="middle" x="605" y="-172" font-family="Helvetica,sans-Serif" font-size="10.00">_core.c</text>
</a>
</g>
</g>
<!-- Node2 -->
<g id="Node000002" class="node">
<title>Node2</title>
<g id="a_Node000002"><a xlink:href="checksum__core_8h.html" target="_top" xlink:title=" ">
<polygon fill="white" stroke="#666666" points="522.5,-129 421.5,-129 421.5,-110 522.5,-110 522.5,-129"/>
<text text-anchor="middle" x="472" y="-117" font-family="Helvetica,sans-Serif" font-size="10.00">checksum_core.h</text>
</a>
</g>
</g>
<!-- Node1&#45;&gt;Node2 -->
<g id="edge1_Node000001_Node000002" class="edge">
<title>Node1&#45;&gt;Node2</title>
<g id="a_edge1_Node000001_Node000002"><a xlink:title=" ">
<path fill="none" stroke="#63b8ff" d="M573.14,-164.99C551.15,-155.31 522.15,-142.56 500.84,-133.18"/>
<polygon fill="#63b8ff" stroke="#63b8ff" points="502.2,-129.96 491.64,-129.14 499.39,-136.37 502.2,-129.96"/>
</a>
</g>
</g>
<!-- Node4 -->
<g id="Node000004" class="node">
<title>Node4</title>
<g id="a_Node000004"><a xlink:href="sd_8h.html" target="_top" xlink:title=" ">
<polygon fill="white" stroke="#666666" points="365,-74 273,-74 273,-55 365,-55 365,-74"/>
<text text-anchor="middle" x="319" y="-62" font-family="Helvetica,sans-Serif" font-size="10.00">fs/backend/sd.h</text>
</a>
</g>
</g>
<!-- Node1&#45;&gt;Node4 -->
<g id="edge11_Node000001_Node000004" class="edge">
<title>Node1&#45;&gt;Node4</title>
<g id="a_edge11_Node000001_Node000004"><a xlink:title=" ">
<path fill="none" stroke="#63b8ff" d="M531.34,-173.78C485.12,-167.92 425.67,-155.46 379,-129 358.68,-117.48 341.09,-96.83 330.3,-82.21"/>
<polygon fill="#63b8ff" stroke="#63b8ff" points="333.14,-80.16 324.5,-74.03 327.43,-84.21 333.14,-80.16"/>
</a>
</g>
</g>
<!-- Node7 -->
<g id="Node000007" class="node">
<title>Node7</title>
<g id="a_Node000007"><a xlink:title=" ">
<polygon fill="#e0e0e0" stroke="#999999" points="485.5,-19 434.5,-19 434.5,0 485.5,0 485.5,-19"/>
<text text-anchor="middle" x="460" y="-7" font-family="Helvetica,sans-Serif" font-size="10.00">errno.h</text>
</a>
</g>
</g>
<!-- Node1&#45;&gt;Node7 -->
<g id="edge18_Node000001_Node000007" class="edge">
<title>Node1&#45;&gt;Node7</title>
<g id="a_edge18_Node000001_Node000007"><a xlink:title=" ">
<path fill="none" stroke="#63b8ff" d="M531.42,-169.35C483.36,-161.37 426.86,-148.2 412,-129 387.22,-96.99 422.11,-50.44 444.23,-26.32"/>
<polygon fill="#63b8ff" stroke="#63b8ff" points="446.78,-28.71 451.13,-19.05 441.71,-23.89 446.78,-28.71"/>
</a>
</g>
</g>
<!-- Node11 -->
<g id="Node000011" class="node">
<title>Node11</title>
<g id="a_Node000011"><a xlink:href="crc32c_8h.html" target="_top" xlink:title=" ">
<polygon fill="white" stroke="#666666" points="597.5,-129 540.5,-129 540.5,-110 597.5,-110 597.5,-129"/>
<text text-anchor="middle" x="569" y="-117" font-family="Helvetica,sans-Serif" font-size="10.00">crc32c.h</text>
</a>
</g>
</g>
<!-- Node1&#45;&gt;Node11 -->
<g id="edge12_Node000001_Node000011" class="edge">
<title>Node1&#45;&gt;Node11</title>
<g id="a_edge12_Node000001_Node000011"><a xlink:title=" ">
<path fill="none" stroke="#63b8ff" d="M596.29,-164.84C591.33,-156.78 585.07,-146.62 579.8,-138.06"/>
<polygon fill="#63b8ff" stroke="#63b8ff" points="582.62,-135.95 574.39,-129.27 576.65,-139.62 582.62,-135.95"/>
</a>
</g>
</g>
<!-- Node13 -->
<g id="Node000013" class="node">
<title>Node13</title>
<g id="a_Node000013"><a xlink:href="crc64_8h.html" target="_top" xlink:title=" ">
<polygon fill="white" stroke="#666666" points="668,-129 616,-129 616,-110 668,-110 668,-129"/>
<text text-anchor="middle" x="642" y="-117" font-family="Helvetica,sans-Serif" font-size="10.00">crc64.h</text>
</a>
</g>
</g>
<!-- Node1&#45;&gt;Node13 -->
<g id="edge15_Node000001_Node000013" class="edge">
<title>Node1&#45;&gt;Node13</title>
<g id="a_edge15_Node000001_Node000013"><a xlink:title=" ">
<path fill="none" stroke="#63b8ff" d="M613.96,-164.84C619.11,-156.69 625.62,-146.4 631.07,-137.78"/>
<polygon fill="#63b8ff" stroke="#63b8ff" points="634.07,-139.59 636.46,-129.27 628.15,-135.85 634.07,-139.59"/>
</a>
</g>
</g>
<!-- Node14 -->
<g id="Node000014" class="node">
<title>Node14</title>
<g id="a_Node000014"><a xlink:title=" ">
<polygon fill="#e0e0e0" stroke="#999999" points="742,-129 686,-129 686,-110 742,-110 742,-129"/>
<text text-anchor="middle" x="714" y="-117" font-family="Helvetica,sans-Serif" font-size="10.00">unistd.h</text>
</a>
</g>
</g>
<!-- Node1&#45;&gt;Node14 -->
<g id="edge19_Node000001_Node000014" class="edge">
<title>Node1&#45;&gt;Node14</title>
<g id="a_edge19_Node000001_Node000014"><a xlink:title=" ">
<path fill="none" stroke="#63b8ff" d="M631.11,-164.99C648.64,-155.58 671.62,-143.24 688.94,-133.95"/>
<polygon fill="#63b8ff" stroke="#63b8ff" points="690.75,-136.95 697.9,-129.14 687.44,-130.78 690.75,-136.95"/>
</a>
</g>
</g>
<!-- Node15 -->
<g id="Node000015" class="node">
<title>Node15</title>
<g id="a_Node000015"><a xlink:title=" ">
<polygon fill="#e0e0e0" stroke="#999999" points="803.5,-129 760.5,-129 760.5,-110 803.5,-110 803.5,-129"/>
<text text-anchor="middle" x="782" y="-117" font-family="Helvetica,sans-Serif" font-size="10.00">zlib.h</text>
</a>
</g>
</g>
<!-- Node1&#45;&gt;Node15 -->
<g id="edge20_Node000001_Node000015" class="edge">
<title>Node1&#45;&gt;Node15</title>
<g id="a_edge20_Node000001_Node000015"><a xlink:title=" ">
<path fill="none" stroke="#63b8ff" d="M647.4,-164.99C679.23,-154.47 722.11,-140.29 750.84,-130.8"/>
<polygon fill="#63b8ff" stroke="#63b8ff" points="751.97,-134.11 760.37,-127.65 749.78,-127.46 751.97,-134.11"/>
</a>
</g>
</g>
<!-- Node16 -->
<g id="Node000016" class="node">
<title>Node16</title>
<g id="a_Node000016"><a xlink:title=" ">
<polygon fill="#e0e0e0" stroke="#999999" points="906,-129 822,-129 822,-110 906,-110 906,-129"/>
<text text-anchor="middle" x="864" y="-117" font-family="Helvetica,sans-Serif" font-size="10.00">openssl/evp.h</text>
</a>
</g>
</g>
<!-- Node1&#45;&gt;Node16 -->
<g id="edge21_Node000001_Node000016" class="edge">
<title>Node1&#45;&gt;Node16</title>
<g id="a_edge21_Node000001_Node000016"><a xlink:title=" ">
<path fill="none" stroke="#63b8ff" d="M667.04,-164.99C712.8,-154.65 774.16,-140.79 816.16,-131.31"/>
<polygon fill="#63b8ff" stroke="#63b8ff" points="817.15,-134.67 826.13,-129.05 815.6,-127.84 817.15,-134.67"/>
</a>
</g>
</g>
<!-- Node3 -->
<g id="Node000003" class="node">
<title>Node3</title>
<g id="a_Node000003"><a xlink:title=" ">
<polygon fill="#e0e0e0" stroke="#999999" points="556.5,-19 503.5,-19 503.5,0 556.5,0 556.5,-19"/>
<text text-anchor="middle" x="530" y="-7" font-family="Helvetica,sans-Serif" font-size="10.00">stdint.h</text>
</a>
</g>
</g>
<!-- Node2&#45;&gt;Node3 -->
<g id="edge2_Node000002_Node000003" class="edge">
<title>Node2&#45;&gt;Node3</title>
<g id="a_edge2_Node000002_Node000003"><a xlink:title=" ">
<path fill="none" stroke="#63b8ff" d="M476.75,-109.66C486.31,-91.85 508.05,-51.37 520.6,-28.01"/>
<polygon fill="#63b8ff" stroke="#63b8ff" points="523.7,-29.62 525.35,-19.16 517.54,-26.31 523.7,-29.62"/>
</a>
</g>
</g>
<!-- Node2&#45;&gt;Node4 -->
<g id="edge3_Node000002_Node000004" class="edge">
<title>Node2&#45;&gt;Node4</title>
<g id="a_edge3_Node000002_Node000004"><a xlink:title=" ">
<path fill="none" stroke="#63b8ff" d="M447.42,-109.98C421.95,-101.16 381.96,-87.31 353.37,-77.41"/>
<polygon fill="#63b8ff" stroke="#63b8ff" points="354.37,-74.05 343.77,-74.08 352.08,-80.66 354.37,-74.05"/>
</a>
</g>
</g>
<!-- Node4&#45;&gt;Node3 -->
<g id="edge6_Node000004_Node000003" class="edge">
<title>Node4&#45;&gt;Node3</title>
<g id="a_edge6_Node000004_Node000003"><a xlink:title=" ">
<path fill="none" stroke="#63b8ff" d="M352.9,-54.98C391.37,-45.32 453.9,-29.62 493.44,-19.68"/>
<polygon fill="#63b8ff" stroke="#63b8ff" points="494.37,-23.06 503.21,-17.23 492.66,-16.27 494.37,-23.06"/>
</a>
</g>
</g>
<!-- Node5 -->
<g id="Node000005" class="node">
<title>Node5</title>
<g id="a_Node000005"><a xlink:title=" ">
<polygon fill="#e0e0e0" stroke="#999999" points="416,-19 338,-19 338,0 416,0 416,-19"/>
<text text-anchor="middle" x="377" y="-7" font-family="Helvetica,sans-Serif" font-size="10.00">ngx_config.h</text>
</a>
</g>
</g>
<!-- Node4&#45;&gt;Node5 -->
<g id="edge4_Node000004_Node000005" class="edge">
<title>Node4&#45;&gt;Node5</title>
<g id="a_edge4_Node000004_Node000005"><a xlink:title=" ">
<path fill="none" stroke="#63b8ff" d="M328.32,-54.98C336.81,-47.23 349.56,-35.58 359.88,-26.14"/>
<polygon fill="#63b8ff" stroke="#63b8ff" points="362.49,-28.5 367.51,-19.17 357.77,-23.33 362.49,-28.5"/>
</a>
</g>
</g>
<!-- Node6 -->
<g id="Node000006" class="node">
<title>Node6</title>
<g id="a_Node000006"><a xlink:title=" ">
<polygon fill="#e0e0e0" stroke="#999999" points="70,-19 0,-19 0,0 70,0 70,-19"/>
<text text-anchor="middle" x="35" y="-7" font-family="Helvetica,sans-Serif" font-size="10.00">ngx_core.h</text>
</a>
</g>
</g>
<!-- Node4&#45;&gt;Node6 -->
<g id="edge5_Node000004_Node000006" class="edge">
<title>Node4&#45;&gt;Node6</title>
<g id="a_edge5_Node000004_Node000006"><a xlink:title=" ">
<path fill="none" stroke="#63b8ff" d="M272.97,-55.07C226.72,-46.58 153.12,-33 79.91,-19.16"/>
<polygon fill="#63b8ff" stroke="#63b8ff" points="80.54,-15.72 70.06,-17.3 79.23,-22.6 80.54,-15.72"/>
</a>
</g>
</g>
<!-- Node4&#45;&gt;Node7 -->
<g id="edge7_Node000004_Node000007" class="edge">
<title>Node4&#45;&gt;Node7</title>
<g id="a_edge7_Node000004_Node000007"><a xlink:title=" ">
<path fill="none" stroke="#63b8ff" d="M341.65,-54.98C364.85,-46.27 401.12,-32.63 427.4,-22.75"/>
<polygon fill="#63b8ff" stroke="#63b8ff" points="428.8,-25.97 436.93,-19.17 426.34,-19.41 428.8,-25.97"/>
</a>
</g>
</g>
<!-- Node8 -->
<g id="Node000008" class="node">
<title>Node8</title>
<g id="a_Node000008"><a xlink:title=" ">
<polygon fill="#e0e0e0" stroke="#999999" points="152,-19 88,-19 88,0 152,0 152,-19"/>
<text text-anchor="middle" x="120" y="-7" font-family="Helvetica,sans-Serif" font-size="10.00">sys/stat.h</text>
</a>
</g>
</g>
<!-- Node4&#45;&gt;Node8 -->
<g id="edge8_Node000004_Node000008" class="edge">
<title>Node4&#45;&gt;Node8</title>
<g id="a_edge8_Node000004_Node000008"><a xlink:title=" ">
<path fill="none" stroke="#63b8ff" d="M287.03,-54.98C253.18,-45.97 199.6,-31.7 162.29,-21.76"/>
<polygon fill="#63b8ff" stroke="#63b8ff" points="162.79,-18.27 152.22,-19.08 160.99,-25.04 162.79,-18.27"/>
</a>
</g>
</g>
<!-- Node9 -->
<g id="Node000009" class="node">
<title>Node9</title>
<g id="a_Node000009"><a xlink:title=" ">
<polygon fill="#e0e0e0" stroke="#999999" points="242,-19 170,-19 170,0 242,0 242,-19"/>
<text text-anchor="middle" x="206" y="-7" font-family="Helvetica,sans-Serif" font-size="10.00">sys/types.h</text>
</a>
</g>
</g>
<!-- Node4&#45;&gt;Node9 -->
<g id="edge9_Node000004_Node000009" class="edge">
<title>Node4&#45;&gt;Node9</title>
<g id="a_edge9_Node000004_Node000009"><a xlink:title=" ">
<path fill="none" stroke="#63b8ff" d="M300.84,-54.98C282.75,-46.5 254.72,-33.35 233.81,-23.54"/>
<polygon fill="#63b8ff" stroke="#63b8ff" points="235.03,-20.25 224.49,-19.17 232.05,-26.59 235.03,-20.25"/>
</a>
</g>
</g>
<!-- Node10 -->
<g id="Node000010" class="node">
<title>Node10</title>
<g id="a_Node000010"><a xlink:title=" ">
<polygon fill="#e0e0e0" stroke="#999999" points="320,-19 260,-19 260,0 320,0 320,-19"/>
<text text-anchor="middle" x="290" y="-7" font-family="Helvetica,sans-Serif" font-size="10.00">sys/uio.h</text>
</a>
</g>
</g>
<!-- Node4&#45;&gt;Node10 -->
<g id="edge10_Node000004_Node000010" class="edge">
<title>Node4&#45;&gt;Node10</title>
<g id="a_edge10_Node000004_Node000010"><a xlink:title=" ">
<path fill="none" stroke="#63b8ff" d="M314.21,-54.75C310.24,-47.49 304.47,-36.95 299.57,-27.98"/>
<polygon fill="#63b8ff" stroke="#63b8ff" points="302.57,-26.18 294.7,-19.09 296.43,-29.54 302.57,-26.18"/>
</a>
</g>
</g>
<!-- Node11&#45;&gt;Node3 -->
<g id="edge14_Node000011_Node000003" class="edge">
<title>Node11&#45;&gt;Node3</title>
<g id="a_edge14_Node000011_Node000003"><a xlink:title=" ">
<path fill="none" stroke="#63b8ff" d="M564.67,-109.78C560.36,-100.91 553.73,-86.7 549,-74 543.47,-59.15 538.39,-41.91 534.88,-29.14"/>
<polygon fill="#63b8ff" stroke="#63b8ff" points="538.2,-28 532.23,-19.25 531.44,-29.81 538.2,-28"/>
</a>
</g>
</g>
<!-- Node12 -->
<g id="Node000012" class="node">
<title>Node12</title>
<g id="a_Node000012"><a xlink:title=" ">
<polygon fill="#e0e0e0" stroke="#999999" points="614,-74 558,-74 558,-55 614,-55 614,-74"/>
<text text-anchor="middle" x="586" y="-62" font-family="Helvetica,sans-Serif" font-size="10.00">stddef.h</text>
</a>
</g>
</g>
<!-- Node11&#45;&gt;Node12 -->
<g id="edge13_Node000011_Node000012" class="edge">
<title>Node11&#45;&gt;Node12</title>
<g id="a_edge13_Node000011_Node000012"><a xlink:title=" ">
<path fill="none" stroke="#63b8ff" d="M571.81,-109.75C574.06,-102.72 577.3,-92.62 580.12,-83.84"/>
<polygon fill="#63b8ff" stroke="#63b8ff" points="583.52,-84.68 583.25,-74.09 576.86,-82.54 583.52,-84.68"/>
</a>
</g>
</g>
<!-- Node13&#45;&gt;Node3 -->
<g id="edge17_Node000013_Node000003" class="edge">
<title>Node13&#45;&gt;Node3</title>
<g id="a_edge17_Node000013_Node000003"><a xlink:title=" ">
<path fill="none" stroke="#63b8ff" d="M641.57,-109.64C640.47,-96.3 636.61,-70.91 623,-55 608.44,-37.97 585.88,-26.96 566.63,-20.15"/>
<polygon fill="#63b8ff" stroke="#63b8ff" points="567.51,-16.75 556.92,-16.96 565.33,-23.4 567.51,-16.75"/>
</a>
</g>
</g>
<!-- Node13&#45;&gt;Node12 -->
<g id="edge16_Node000013_Node000012" class="edge">
<title>Node13&#45;&gt;Node12</title>
<g id="a_edge16_Node000013_Node000012"><a xlink:title=" ">
<path fill="none" stroke="#63b8ff" d="M633,-109.98C624.81,-102.23 612.49,-90.58 602.53,-81.14"/>
<polygon fill="#63b8ff" stroke="#63b8ff" points="604.83,-78.5 595.16,-74.17 600.02,-83.59 604.83,-78.5"/>
</a>
</g>
</g>
</g>
</svg>
