<?xml version="1.0" encoding="UTF-8" standalone="no"?>
<!DOCTYPE svg PUBLIC "-//W3C//DTD SVG 1.1//EN"
 "http://www.w3.org/Graphics/SVG/1.1/DTD/svg11.dtd">
<!-- Generated by graphviz version 2.43.0 (0)
 -->
<!-- Title: src/protocols/root/write/chkpoint_xeq.h Pages: 1 -->
<svg width="510pt" height="192pt"
 viewBox="0.00 0.00 509.50 192.00" xmlns="http://www.w3.org/2000/svg" xmlns:xlink="http://www.w3.org/1999/xlink">
<g id="graph0" class="graph" transform="scale(1 1) rotate(0) translate(4 188)">
<title>src/protocols/root/write/chkpoint_xeq.h</title>
<!-- Node1 -->
<g id="Node000001" class="node">
<title>Node1</title>
<g id="a_Node000001"><a xlink:title=" ">
<polygon fill="#999999" stroke="#666666" points="347,-184 226,-184 226,-154 347,-154 347,-184"/>
<text text-anchor="start" x="234" y="-172" font-family="Helvetica,sans-Serif" font-size="10.00">src/protocols/root</text>
<text text-anchor="middle" x="286.5" y="-161" font-family="Helvetica,sans-Serif" font-size="10.00">/write/chkpoint_xeq.h</text>
</a>
</g>
</g>
<!-- Node2 -->
<g id="Node000002" class="node">
<title>Node2</title>
<g id="a_Node000002"><a xlink:href="chkpoint_8c.html" target="_top" xlink:title=" ">
<polygon fill="white" stroke="#666666" points="101,-112.5 0,-112.5 0,-82.5 101,-82.5 101,-112.5"/>
<text text-anchor="start" x="8" y="-100.5" font-family="Helvetica,sans-Serif" font-size="10.00">src/protocols/root</text>
<text text-anchor="middle" x="50.5" y="-89.5" font-family="Helvetica,sans-Serif" font-size="10.00">/write/chkpoint.c</text>
</a>
</g>
</g>
<!-- Node1&#45;&gt;Node2 -->
<g id="edge1_Node000001_Node000002" class="edge">
<title>Node1&#45;&gt;Node2</title>
<g id="a_edge1_Node000001_Node000002"><a xlink:title=" ">
<path fill="none" stroke="#63b8ff" d="M224.62,-151.24C190.55,-141.83 147.57,-129.66 109.5,-118 103.93,-116.29 98.08,-114.44 92.33,-112.58"/>
<polygon fill="#63b8ff" stroke="#63b8ff" points="223.86,-154.66 234.43,-153.94 225.72,-147.91 223.86,-154.66"/>
</a>
</g>
</g>
<!-- Node3 -->
<g id="Node000003" class="node">
<title>Node3</title>
<g id="a_Node000003"><a xlink:href="chkpoint__recover_8c.html" target="_top" xlink:title=" ">
<polygon fill="white" stroke="#666666" points="258,-112.5 119,-112.5 119,-82.5 258,-82.5 258,-112.5"/>
<text text-anchor="start" x="127" y="-100.5" font-family="Helvetica,sans-Serif" font-size="10.00">src/protocols/root</text>
<text text-anchor="middle" x="188.5" y="-89.5" font-family="Helvetica,sans-Serif" font-size="10.00">/write/chkpoint_recover.c</text>
</a>
</g>
</g>
<!-- Node1&#45;&gt;Node3 -->
<g id="edge2_Node000001_Node000003" class="edge">
<title>Node1&#45;&gt;Node3</title>
<g id="a_edge2_Node000001_Node000003"><a xlink:title=" ">
<path fill="none" stroke="#63b8ff" d="M258.21,-147.94C242.23,-136.6 222.64,-122.71 208.3,-112.54"/>
<polygon fill="#63b8ff" stroke="#63b8ff" points="256.49,-151.01 266.67,-153.94 260.54,-145.3 256.49,-151.01"/>
</a>
</g>
</g>
<!-- Node4 -->
<g id="Node000004" class="node">
<title>Node4</title>
<g id="a_Node000004"><a xlink:href="chkpoint__xeq_8c.html" target="_top" xlink:title=" ">
<polygon fill="white" stroke="#666666" points="363.5,-35.5 243.5,-35.5 243.5,-5.5 363.5,-5.5 363.5,-35.5"/>
<text text-anchor="start" x="251.5" y="-23.5" font-family="Helvetica,sans-Serif" font-size="10.00">src/protocols/root</text>
<text text-anchor="middle" x="303.5" y="-12.5" font-family="Helvetica,sans-Serif" font-size="10.00">/write/chkpoint_xeq.c</text>
</a>
</g>
</g>
<!-- Node1&#45;&gt;Node4 -->
<g id="edge3_Node000001_Node000004" class="edge">
<title>Node1&#45;&gt;Node4</title>
<g id="a_edge3_Node000001_Node000004"><a xlink:title=" ">
<path fill="none" stroke="#63b8ff" d="M289.33,-143.65C292.9,-112.82 298.95,-60.72 301.85,-35.72"/>
<polygon fill="#63b8ff" stroke="#63b8ff" points="285.81,-143.62 288.13,-153.95 292.76,-144.42 285.81,-143.62"/>
</a>
</g>
</g>
<!-- Node5 -->
<g id="Node000005" class="node">
<title>Node5</title>
<g id="a_Node000005"><a xlink:href="chkpoint__xeq__internal_8h.html" target="_top" xlink:title=" ">
<polygon fill="white" stroke="#666666" points="426.5,-118 314.5,-118 314.5,-77 426.5,-77 426.5,-118"/>
<text text-anchor="start" x="322.5" y="-106" font-family="Helvetica,sans-Serif" font-size="10.00">src/protocols/root</text>
<text text-anchor="start" x="322.5" y="-95" font-family="Helvetica,sans-Serif" font-size="10.00">/write/chkpoint_xeq</text>
<text text-anchor="middle" x="370.5" y="-84" font-family="Helvetica,sans-Serif" font-size="10.00">_internal.h</text>
</a>
</g>
</g>
<!-- Node1&#45;&gt;Node5 -->
<g id="edge4_Node000001_Node000005" class="edge">
<title>Node1&#45;&gt;Node5</title>
<g id="a_edge4_Node000001_Node000005"><a xlink:title=" ">
<path fill="none" stroke="#63b8ff" d="M311.27,-147.5C322.51,-138.21 335.74,-127.26 346.84,-118.07"/>
<polygon fill="#63b8ff" stroke="#63b8ff" points="308.97,-144.86 303.5,-153.94 313.43,-150.26 308.97,-144.86"/>
</a>
</g>
</g>
<!-- Node6 -->
<g id="Node000006" class="node">
<title>Node6</title>
<g id="a_Node000006"><a xlink:href="chkpoint__xeq__write_8c.html" target="_top" xlink:title=" ">
<polygon fill="white" stroke="#666666" points="501.5,-41 389.5,-41 389.5,0 501.5,0 501.5,-41"/>
<text text-anchor="start" x="397.5" y="-29" font-family="Helvetica,sans-Serif" font-size="10.00">src/protocols/root</text>
<text text-anchor="start" x="397.5" y="-18" font-family="Helvetica,sans-Serif" font-size="10.00">/write/chkpoint_xeq</text>
<text text-anchor="middle" x="445.5" y="-7" font-family="Helvetica,sans-Serif" font-size="10.00">_write.c</text>
</a>
</g>
</g>
<!-- Node1&#45;&gt;Node6 -->
<g id="edge7_Node000001_Node000006" class="edge">
<title>Node1&#45;&gt;Node6</title>
<g id="a_edge7_Node000001_Node000006"><a xlink:title=" ">
<path fill="none" stroke="#63b8ff" d="M357.25,-160.87C385.84,-154.27 416.51,-141.72 435.5,-118 452.87,-96.31 452,-62.49 449.19,-41.19"/>
<polygon fill="#63b8ff" stroke="#63b8ff" points="356.32,-157.49 347.25,-162.97 357.75,-164.34 356.32,-157.49"/>
</a>
</g>
</g>
<!-- Node5&#45;&gt;Node4 -->
<g id="edge5_Node000005_Node000004" class="edge">
<title>Node5&#45;&gt;Node4</title>
<g id="a_edge5_Node000005_Node000004"><a xlink:title=" ">
<path fill="none" stroke="#63b8ff" d="M346.15,-69.24C336.05,-57.94 324.76,-45.3 316.33,-35.86"/>
<polygon fill="#63b8ff" stroke="#63b8ff" points="343.62,-71.67 352.9,-76.79 348.84,-67.01 343.62,-71.67"/>
</a>
</g>
</g>
<!-- Node5&#45;&gt;Node6 -->
<g id="edge6_Node000005_Node000006" class="edge">
<title>Node5&#45;&gt;Node6</title>
<g id="a_edge6_Node000005_Node000006"><a xlink:title=" ">
<path fill="none" stroke="#63b8ff" d="M397.49,-69.51C406.89,-60.11 417.24,-49.76 425.93,-41.07"/>
<polygon fill="#63b8ff" stroke="#63b8ff" points="394.8,-67.25 390.21,-76.79 399.75,-72.2 394.8,-67.25"/>
</a>
</g>
</g>
</g>
</svg>
