<?xml version="1.0" encoding="UTF-8" standalone="no"?>
<!DOCTYPE svg PUBLIC "-//W3C//DTD SVG 1.1//EN"
 "http://www.w3.org/Graphics/SVG/1.1/DTD/svg11.dtd">
<!-- Generated by graphviz version 2.43.0 (0)
 -->
<!-- Title: src/fs/cache/cinfo.h Pages: 1 -->
<!--zoomable 346 -->

<svg id="main" version="1.1" xmlns="http://www.w3.org/2000/svg" xmlns:xlink="http://www.w3.org/1999/xlink" xml:space="preserve" onload="init(evt)">
<style type="text/css"><![CDATA[
.node, .edge {opacity: 0.7;}
.node.selected, .edge.selected {opacity: 1;}
.edge:hover path { stroke: red; }
.edge:hover polygon { stroke: red; fill: red; }
]]></style>

<defs>
  <circle id="rim" cx="0" cy="0" r="7"/>
  <circle id="rim2" cx="0" cy="0" r="3.5"/>
  <g id="zoomPlus">
    <use xlink:href="#rim" fill="#404040"><set attributeName="fill" to="#808080" begin="zoomplus.mouseover" end="zoomplus.mouseout"/></use>
    <path d="M-4,0h8M0,-4v8" fill="none" stroke="white" stroke-width="1.5" pointer-events="none"/>
  </g>
  <g id="zoomMin">
    <use xlink:href="#rim" fill="#404040"><set attributeName="fill" to="#808080" begin="zoomminus.mouseover" end="zoomminus.mouseout"/></use>
    <path d="M-4,0h8" fill="none" stroke="white" stroke-width="1.5" pointer-events="none"/>
  </g>
  <g id="arrowUp" transform="translate(30 24)">
    <use xlink:href="#rim"/>
    <path pointer-events="none" fill="none" stroke="white" stroke-width="1.5" d="M0,-3.0v7 M-2.5,-0.5L0,-3.0L2.5,-0.5"/>
  </g>
  <g id="arrowRight" transform="rotate(90) translate(36 -43)">
    <use xlink:href="#rim"/>
    <path pointer-events="none" fill="none" stroke="white" stroke-width="1.5" d="M0,-3.0v7 M-2.5,-0.5L0,-3.0L2.5,-0.5"/>
  </g>
  <g id="arrowDown" transform="rotate(180) translate(-30 -48)">
    <use xlink:href="#rim"/>
    <path pointer-events="none" fill="none" stroke="white" stroke-width="1.5" d="M0,-3.0v7 M-2.5,-0.5L0,-3.0L2.5,-0.5"/>
  </g>
  <g id="arrowLeft" transform="rotate(270) translate(-36 17)">
    <use xlink:href="#rim"/>
    <path pointer-events="none" fill="none" stroke="white" stroke-width="1.5" d="M0,-3.0v7 M-2.5,-0.5L0,-3.0L2.5,-0.5"/>
  </g>
  <g id="resetDef">
    <use xlink:href="#rim2" fill="#404040"><set attributeName="fill" to="#808080" begin="reset.mouseover" end="reset.mouseout"/></use>
  </g>
</defs>
<script type="application/ecmascript">
var viewWidth = 3223;
var viewHeight = 346;
var sectionId = 'dynsection-1';
</script>
<script type="application/ecmascript" xlink:href="svg.min.js"/>
<svg id="graph" class="graph">
<g id="viewport">
<title>src/fs/cache/cinfo.h</title>
<!-- Node1 -->
<g id="Node000001" class="node">
<title>Node1</title>
<g id="a_Node000001"><a xlink:title=" ">
<polygon fill="#999999" stroke="#666666" points="2136,-338 2026,-338 2026,-319 2136,-319 2136,-338"/>
<text text-anchor="middle" x="2081" y="-326" font-family="Helvetica,sans-Serif" font-size="10.00">src/fs/cache/cinfo.h</text>
</a>
</g>
</g>
<!-- Node2 -->
<g id="Node000002" class="node">
<title>Node2</title>
<g id="a_Node000002"><a xlink:href="cache__reap_8c.html" target="_top" xlink:title=" ">
<polygon fill="white" stroke="#666666" points="2546,-101.5 2440,-101.5 2440,-71.5 2546,-71.5 2546,-101.5"/>
<text text-anchor="start" x="2448" y="-89.5" font-family="Helvetica,sans-Serif" font-size="10.00">src/fs/cache/cache</text>
<text text-anchor="middle" x="2493" y="-78.5" font-family="Helvetica,sans-Serif" font-size="10.00">_reap.c</text>
</a>
</g>
</g>
<!-- Node1&#45;&gt;Node2 -->
<g id="edge1_Node000001_Node000002" class="edge">
<title>Node1&#45;&gt;Node2</title>
<g id="a_edge1_Node000001_Node000002"><a xlink:title=" ">
<path fill="none" stroke="#63b8ff" d="M2092.68,-310.5C2097.87,-302.42 2103.75,-292.48 2108,-283 2134.64,-223.61 2101.23,-184.95 2151,-143 2198.97,-102.57 2369.73,-120.46 2431,-107 2437.83,-105.5 2444.99,-103.58 2451.92,-101.54"/>
<polygon fill="#63b8ff" stroke="#63b8ff" points="2089.66,-308.72 2087.05,-318.99 2095.49,-312.59 2089.66,-308.72"/>
</a>
</g>
</g>
<!-- Node3 -->
<g id="Node000003" class="node">
<title>Node3</title>
<g id="a_Node000003"><a xlink:href="cinfo_8c.html" target="_top" xlink:title=" ">
<polygon fill="white" stroke="#666666" points="1955,-283 1845,-283 1845,-264 1955,-264 1955,-283"/>
<text text-anchor="middle" x="1900" y="-271" font-family="Helvetica,sans-Serif" font-size="10.00">src/fs/cache/cinfo.c</text>
</a>
</g>
</g>
<!-- Node1&#45;&gt;Node3 -->
<g id="edge2_Node000001_Node000003" class="edge">
<title>Node1&#45;&gt;Node3</title>
<g id="a_edge2_Node000001_Node000003"><a xlink:title=" ">
<path fill="none" stroke="#63b8ff" d="M2041.92,-316.06C2008.09,-306.15 1959.92,-292.04 1929.31,-283.08"/>
<polygon fill="#63b8ff" stroke="#63b8ff" points="2041.34,-319.53 2051.92,-318.98 2043.31,-312.82 2041.34,-319.53"/>
</a>
</g>
</g>
<!-- Node4 -->
<g id="Node000004" class="node">
<title>Node4</title>
<g id="a_Node000004"><a xlink:href="cinfo__l1_8h.html" target="_top" xlink:title=" ">
<polygon fill="white" stroke="#666666" points="2098.5,-283 1973.5,-283 1973.5,-264 2098.5,-264 2098.5,-283"/>
<text text-anchor="middle" x="2036" y="-271" font-family="Helvetica,sans-Serif" font-size="10.00">src/fs/cache/cinfo_l1.h</text>
</a>
</g>
</g>
<!-- Node1&#45;&gt;Node4 -->
<g id="edge3_Node000001_Node000004" class="edge">
<title>Node1&#45;&gt;Node4</title>
<g id="a_edge3_Node000001_Node000004"><a xlink:title=" ">
<path fill="none" stroke="#63b8ff" d="M2066.95,-310.96C2059.11,-301.72 2049.67,-290.6 2043.29,-283.09"/>
<polygon fill="#63b8ff" stroke="#63b8ff" points="2064.43,-313.39 2073.57,-318.75 2069.76,-308.86 2064.43,-313.39"/>
</a>
</g>
</g>
<!-- Node6 -->
<g id="Node000006" class="node">
<title>Node6</title>
<g id="a_Node000006"><a xlink:href="cstore_8h.html" target="_top" xlink:title=" ">
<polygon fill="white" stroke="#666666" points="799,-228 683,-228 683,-209 799,-209 799,-228"/>
<text text-anchor="middle" x="741" y="-216" font-family="Helvetica,sans-Serif" font-size="10.00">src/fs/cache/cstore.h</text>
</a>
</g>
</g>
<!-- Node1&#45;&gt;Node6 -->
<g id="edge49_Node000001_Node000006" class="edge">
<title>Node1&#45;&gt;Node6</title>
<g id="a_edge49_Node000001_Node000006"><a xlink:title=" ">
<path fill="none" stroke="#63b8ff" d="M2015.77,-322.24C1786.13,-303.73 1017.19,-241.76 799.11,-224.18"/>
<polygon fill="#63b8ff" stroke="#63b8ff" points="2015.72,-325.75 2025.97,-323.06 2016.29,-318.77 2015.72,-325.75"/>
</a>
</g>
</g>
<!-- Node18 -->
<g id="Node000018" class="node">
<title>Node18</title>
<g id="a_Node000018"><a xlink:href="evict__candidates_8c.html" target="_top" xlink:title=" ">
<polygon fill="white" stroke="#666666" points="2784.5,-101.5 2683.5,-101.5 2683.5,-71.5 2784.5,-71.5 2784.5,-101.5"/>
<text text-anchor="start" x="2691.5" y="-89.5" font-family="Helvetica,sans-Serif" font-size="10.00">src/fs/cache/evict</text>
<text text-anchor="middle" x="2734" y="-78.5" font-family="Helvetica,sans-Serif" font-size="10.00">_candidates.c</text>
</a>
</g>
</g>
<!-- Node1&#45;&gt;Node18 -->
<g id="edge50_Node000001_Node000018" class="edge">
<title>Node1&#45;&gt;Node18</title>
<g id="a_edge50_Node000001_Node000018"><a xlink:title=" ">
<path fill="none" stroke="#63b8ff" d="M2101.42,-313.01C2121.83,-299.02 2154.47,-277.97 2185,-264 2392.95,-168.85 2457.54,-177.77 2675,-107 2680.44,-105.23 2686.15,-103.36 2691.8,-101.5"/>
<polygon fill="#63b8ff" stroke="#63b8ff" points="2099.18,-310.3 2092.96,-318.88 2103.17,-316.05 2099.18,-310.3"/>
</a>
</g>
</g>
<!-- Node37 -->
<g id="Node000037" class="node">
<title>Node37</title>
<g id="a_Node000037"><a xlink:href="meta_8c.html" target="_top" xlink:title=" ">
<polygon fill="white" stroke="#666666" points="2304.5,-283 2193.5,-283 2193.5,-264 2304.5,-264 2304.5,-283"/>
<text text-anchor="middle" x="2249" y="-271" font-family="Helvetica,sans-Serif" font-size="10.00">src/fs/cache/meta.c</text>
</a>
</g>
</g>
<!-- Node1&#45;&gt;Node37 -->
<g id="edge51_Node000001_Node000037" class="edge">
<title>Node1&#45;&gt;Node37</title>
<g id="a_edge51_Node000001_Node000037"><a xlink:title=" ">
<path fill="none" stroke="#63b8ff" d="M2117.68,-315.93C2149.06,-306.03 2193.51,-292.01 2221.8,-283.08"/>
<polygon fill="#63b8ff" stroke="#63b8ff" points="2116.48,-312.64 2107.99,-318.98 2118.58,-319.31 2116.48,-312.64"/>
</a>
</g>
</g>
<!-- Node5 -->
<g id="Node000005" class="node">
<title>Node5</title>
<g id="a_Node000005"><a xlink:href="cinfo__l1_8c.html" target="_top" xlink:title=" ">
<polygon fill="white" stroke="#666666" points="2098,-228 1974,-228 1974,-209 2098,-209 2098,-228"/>
<text text-anchor="middle" x="2036" y="-216" font-family="Helvetica,sans-Serif" font-size="10.00">src/fs/cache/cinfo_l1.c</text>
</a>
</g>
</g>
<!-- Node4&#45;&gt;Node5 -->
<g id="edge4_Node000004_Node000005" class="edge">
<title>Node4&#45;&gt;Node5</title>
<g id="a_edge4_Node000004_Node000005"><a xlink:title=" ">
<path fill="none" stroke="#63b8ff" d="M2036,-253.66C2036,-244.93 2036,-234.99 2036,-228.09"/>
<polygon fill="#63b8ff" stroke="#63b8ff" points="2032.5,-253.75 2036,-263.75 2039.5,-253.75 2032.5,-253.75"/>
</a>
</g>
</g>
<!-- Node4&#45;&gt;Node6 -->
<g id="edge5_Node000004_Node000006" class="edge">
<title>Node4&#45;&gt;Node6</title>
<g id="a_edge5_Node000004_Node000006"><a xlink:title=" ">
<path fill="none" stroke="#63b8ff" d="M1963.15,-264.01C1508.58,-229.39 973.46,-221.62 799.02,-219.94"/>
<polygon fill="#63b8ff" stroke="#63b8ff" points="1962.96,-267.51 1973.2,-264.78 1963.5,-260.53 1962.96,-267.51"/>
</a>
</g>
</g>
<!-- Node7 -->
<g id="Node000007" class="node">
<title>Node7</title>
<g id="a_Node000007"><a xlink:href="sd__cache_8c.html" target="_top" xlink:title=" ">
<polygon fill="white" stroke="#666666" points="526,-30 408,-30 408,0 526,0 526,-30"/>
<text text-anchor="start" x="416" y="-18" font-family="Helvetica,sans-Serif" font-size="10.00">src/fs/backend/cache</text>
<text text-anchor="middle" x="467" y="-7" font-family="Helvetica,sans-Serif" font-size="10.00">/sd_cache.c</text>
</a>
</g>
</g>
<!-- Node6&#45;&gt;Node7 -->
<g id="edge6_Node000006_Node000007" class="edge">
<title>Node6&#45;&gt;Node7</title>
<g id="a_edge6_Node000006_Node000007"><a xlink:title=" ">
<path fill="none" stroke="#63b8ff" d="M672.83,-209.14C642.36,-202.89 607.26,-191.98 580,-173 525.16,-134.81 487.3,-61.12 473.16,-30.2"/>
<polygon fill="#63b8ff" stroke="#63b8ff" points="672.48,-212.64 682.96,-211.09 673.8,-205.77 672.48,-212.64"/>
</a>
</g>
</g>
<!-- Node8 -->
<g id="Node000008" class="node">
<title>Node8</title>
<g id="a_Node000008"><a xlink:href="sd__cache__fill_8c.html" target="_top" xlink:title=" ">
<polygon fill="white" stroke="#666666" points="254,-30 136,-30 136,0 254,0 254,-30"/>
<text text-anchor="start" x="144" y="-18" font-family="Helvetica,sans-Serif" font-size="10.00">src/fs/backend/cache</text>
<text text-anchor="middle" x="195" y="-7" font-family="Helvetica,sans-Serif" font-size="10.00">/sd_cache_fill.c</text>
</a>
</g>
</g>
<!-- Node6&#45;&gt;Node8 -->
<g id="edge7_Node000006_Node000008" class="edge">
<title>Node6&#45;&gt;Node8</title>
<g id="a_edge7_Node000006_Node000008"><a xlink:title=" ">
<path fill="none" stroke="#63b8ff" d="M672.94,-215.57C566.54,-211.73 366.21,-200.93 301,-173 259.57,-155.25 248.9,-144.57 224,-107 207.97,-82.81 200.3,-49.17 197.06,-30.3"/>
<polygon fill="#63b8ff" stroke="#63b8ff" points="672.82,-219.07 682.94,-215.92 673.07,-212.07 672.82,-219.07"/>
</a>
</g>
</g>
<!-- Node9 -->
<g id="Node000009" class="node">
<title>Node9</title>
<g id="a_Node000009"><a xlink:href="sd__cache__forward_8c.html" target="_top" xlink:title=" ">
<polygon fill="white" stroke="#666666" points="118,-30 0,-30 0,0 118,0 118,-30"/>
<text text-anchor="start" x="8" y="-18" font-family="Helvetica,sans-Serif" font-size="10.00">src/fs/backend/cache</text>
<text text-anchor="middle" x="59" y="-7" font-family="Helvetica,sans-Serif" font-size="10.00">/sd_cache_forward.c</text>
</a>
</g>
</g>
<!-- Node6&#45;&gt;Node9 -->
<g id="edge8_Node000006_Node000009" class="edge">
<title>Node6&#45;&gt;Node9</title>
<g id="a_edge8_Node000006_Node000009"><a xlink:title=" ">
<path fill="none" stroke="#63b8ff" d="M672.43,-216.31C555.52,-213.46 322.99,-203.96 248,-173 168.75,-140.28 97.43,-62.15 70.45,-30.1"/>
<polygon fill="#63b8ff" stroke="#63b8ff" points="672.61,-219.82 682.69,-216.55 672.77,-212.82 672.61,-219.82"/>
</a>
</g>
</g>
<!-- Node10 -->
<g id="Node000010" class="node">
<title>Node10</title>
<g id="a_Node000010"><a xlink:href="sd__cache__internal_8h.html" target="_top" xlink:title=" ">
<polygon fill="white" stroke="#666666" points="428,-173 310,-173 310,-143 428,-143 428,-173"/>
<text text-anchor="start" x="318" y="-161" font-family="Helvetica,sans-Serif" font-size="10.00">src/fs/backend/cache</text>
<text text-anchor="middle" x="369" y="-150" font-family="Helvetica,sans-Serif" font-size="10.00">/sd_cache_internal.h</text>
</a>
</g>
</g>
<!-- Node6&#45;&gt;Node10 -->
<g id="edge9_Node000006_Node000010" class="edge">
<title>Node6&#45;&gt;Node10</title>
<g id="a_edge9_Node000006_Node000010"><a xlink:title=" ">
<path fill="none" stroke="#63b8ff" d="M676.9,-207.42C606.97,-196.42 495.96,-178.97 428.08,-168.29"/>
<polygon fill="#63b8ff" stroke="#63b8ff" points="676.49,-210.9 686.91,-208.99 677.57,-203.98 676.49,-210.9"/>
</a>
</g>
</g>
<!-- Node11 -->
<g id="Node000011" class="node">
<title>Node11</title>
<g id="a_Node000011"><a xlink:href="sd__cache__partial_8c.html" target="_top" xlink:title=" ">
<polygon fill="white" stroke="#666666" points="662,-30 544,-30 544,0 662,0 662,-30"/>
<text text-anchor="start" x="552" y="-18" font-family="Helvetica,sans-Serif" font-size="10.00">src/fs/backend/cache</text>
<text text-anchor="middle" x="603" y="-7" font-family="Helvetica,sans-Serif" font-size="10.00">/sd_cache_partial.c</text>
</a>
</g>
</g>
<!-- Node6&#45;&gt;Node11 -->
<g id="edge20_Node000006_Node000011" class="edge">
<title>Node6&#45;&gt;Node11</title>
<g id="a_edge20_Node000006_Node000011"><a xlink:title=" ">
<path fill="none" stroke="#63b8ff" d="M697.09,-205.95C651.38,-191.33 582.2,-161.24 551,-107 541.91,-91.2 543.86,-82.77 551,-66 557.23,-51.37 570.08,-38.95 581.44,-30.14"/>
<polygon fill="#63b8ff" stroke="#63b8ff" points="696.16,-209.33 706.74,-208.93 698.22,-202.64 696.16,-209.33"/>
</a>
</g>
</g>
<!-- Node14 -->
<g id="Node000014" class="node">
<title>Node14</title>
<g id="a_Node000014"><a xlink:href="cache__storage_8c.html" target="_top" xlink:title=" ">
<polygon fill="white" stroke="#666666" points="666,-101.5 560,-101.5 560,-71.5 666,-71.5 666,-101.5"/>
<text text-anchor="start" x="568" y="-89.5" font-family="Helvetica,sans-Serif" font-size="10.00">src/fs/cache/cache</text>
<text text-anchor="middle" x="613" y="-78.5" font-family="Helvetica,sans-Serif" font-size="10.00">_storage.c</text>
</a>
</g>
</g>
<!-- Node6&#45;&gt;Node14 -->
<g id="edge21_Node000006_Node000014" class="edge">
<title>Node6&#45;&gt;Node14</title>
<g id="a_edge21_Node000006_Node000014"><a xlink:title=" ">
<path fill="none" stroke="#63b8ff" d="M725.31,-201.57C700.08,-175.94 650.87,-125.96 626.85,-101.57"/>
<polygon fill="#63b8ff" stroke="#63b8ff" points="723.09,-204.3 732.6,-208.97 728.08,-199.39 723.09,-204.3"/>
</a>
</g>
</g>
<!-- Node15 -->
<g id="Node000015" class="node">
<title>Node15</title>
<g id="a_Node000015"><a xlink:href="cache__storage_8h.html" target="_top" xlink:title=" ">
<polygon fill="white" stroke="#666666" points="1548,-173 1442,-173 1442,-143 1548,-143 1548,-173"/>
<text text-anchor="start" x="1450" y="-161" font-family="Helvetica,sans-Serif" font-size="10.00">src/fs/cache/cache</text>
<text text-anchor="middle" x="1495" y="-150" font-family="Helvetica,sans-Serif" font-size="10.00">_storage.h</text>
</a>
</g>
</g>
<!-- Node6&#45;&gt;Node15 -->
<g id="edge22_Node000006_Node000015" class="edge">
<title>Node6&#45;&gt;Node15</title>
<g id="a_edge22_Node000006_Node000015"><a xlink:title=" ">
<path fill="none" stroke="#63b8ff" d="M809.58,-212.18C958.37,-200.64 1308.11,-173.5 1441.78,-163.13"/>
<polygon fill="#63b8ff" stroke="#63b8ff" points="808.92,-208.72 799.23,-212.98 809.47,-215.7 808.92,-208.72"/>
</a>
</g>
</g>
<!-- Node23 -->
<g id="Node000023" class="node">
<title>Node23</title>
<g id="a_Node000023"><a xlink:href="paths_8c.html" target="_top" xlink:title=" ">
<polygon fill="white" stroke="#666666" points="797.5,-96 684.5,-96 684.5,-77 797.5,-77 797.5,-96"/>
<text text-anchor="middle" x="741" y="-84" font-family="Helvetica,sans-Serif" font-size="10.00">src/fs/cache/paths.c</text>
</a>
</g>
</g>
<!-- Node6&#45;&gt;Node23 -->
<g id="edge48_Node000006_Node000023" class="edge">
<title>Node6&#45;&gt;Node23</title>
<g id="a_edge48_Node000006_Node000023"><a xlink:title=" ">
<path fill="none" stroke="#63b8ff" d="M741,-198.73C741,-170.22 741,-117.09 741,-96.23"/>
<polygon fill="#63b8ff" stroke="#63b8ff" points="737.5,-198.97 741,-208.97 744.5,-198.97 737.5,-198.97"/>
</a>
</g>
</g>
<!-- Node31 -->
<g id="Node000031" class="node">
<title>Node31</title>
<g id="a_Node000031"><a xlink:href="cstore_8c.html" target="_top" xlink:title=" ">
<polygon fill="white" stroke="#666666" points="1682,-167.5 1566,-167.5 1566,-148.5 1682,-148.5 1682,-167.5"/>
<text text-anchor="middle" x="1624" y="-155.5" font-family="Helvetica,sans-Serif" font-size="10.00">src/fs/cache/cstore.c</text>
</a>
</g>
</g>
<!-- Node6&#45;&gt;Node31 -->
<g id="edge40_Node000006_Node000031" class="edge">
<title>Node6&#45;&gt;Node31</title>
<g id="a_edge40_Node000006_Node000031"><a xlink:title=" ">
<path fill="none" stroke="#63b8ff" d="M809.35,-217.26C949.94,-216 1281.49,-209.09 1557,-173 1567.13,-171.67 1578.02,-169.66 1588.01,-167.57"/>
<polygon fill="#63b8ff" stroke="#63b8ff" points="809.13,-213.76 799.16,-217.35 809.18,-220.76 809.13,-213.76"/>
</a>
</g>
</g>
<!-- Node32 -->
<g id="Node000032" class="node">
<title>Node32</title>
<g id="a_Node000032"><a xlink:href="cstore__scan_8c.html" target="_top" xlink:title=" ">
<polygon fill="white" stroke="#666666" points="1807.5,-173 1700.5,-173 1700.5,-143 1807.5,-143 1807.5,-173"/>
<text text-anchor="start" x="1708.5" y="-161" font-family="Helvetica,sans-Serif" font-size="10.00">src/fs/cache/cstore</text>
<text text-anchor="middle" x="1754" y="-150" font-family="Helvetica,sans-Serif" font-size="10.00">_scan.c</text>
</a>
</g>
</g>
<!-- Node6&#45;&gt;Node32 -->
<g id="edge41_Node000006_Node000032" class="edge">
<title>Node6&#45;&gt;Node32</title>
<g id="a_edge41_Node000006_Node000032"><a xlink:title=" ">
<path fill="none" stroke="#63b8ff" d="M809.57,-218.31C966.4,-219.29 1363.03,-216.79 1691,-173 1694.11,-172.58 1697.29,-172.09 1700.5,-171.55"/>
<polygon fill="#63b8ff" stroke="#63b8ff" points="809.17,-214.81 799.14,-218.24 809.12,-221.81 809.17,-214.81"/>
</a>
</g>
</g>
<!-- Node33 -->
<g id="Node000033" class="node">
<title>Node33</title>
<g id="a_Node000033"><a xlink:href="evict__internal_8h.html" target="_top" xlink:title=" ">
<polygon fill="white" stroke="#666666" points="2845.5,-173 2744.5,-173 2744.5,-143 2845.5,-143 2845.5,-173"/>
<text text-anchor="start" x="2752.5" y="-161" font-family="Helvetica,sans-Serif" font-size="10.00">src/fs/cache/evict</text>
<text text-anchor="middle" x="2795" y="-150" font-family="Helvetica,sans-Serif" font-size="10.00">_internal.h</text>
</a>
</g>
</g>
<!-- Node6&#45;&gt;Node33 -->
<g id="edge42_Node000006_Node000033" class="edge">
<title>Node6&#45;&gt;Node33</title>
<g id="a_edge42_Node000006_Node000033"><a xlink:title=" ">
<path fill="none" stroke="#63b8ff" d="M809.18,-215.56C1127.86,-206.48 2466.75,-168.35 2744.44,-160.44"/>
<polygon fill="#63b8ff" stroke="#63b8ff" points="809.06,-212.06 799.16,-215.84 809.26,-219.06 809.06,-212.06"/>
</a>
</g>
</g>
<!-- Node10&#45;&gt;Node7 -->
<g id="edge10_Node000010_Node000007" class="edge">
<title>Node10&#45;&gt;Node7</title>
<g id="a_edge10_Node000010_Node000007"><a xlink:title=" ">
<path fill="none" stroke="#63b8ff" d="M384.55,-134.62C404.88,-105.38 439.88,-55.02 456.99,-30.4"/>
<polygon fill="#63b8ff" stroke="#63b8ff" points="381.59,-132.76 378.75,-142.96 387.34,-136.75 381.59,-132.76"/>
</a>
</g>
</g>
<!-- Node10&#45;&gt;Node8 -->
<g id="edge11_Node000010_Node000008" class="edge">
<title>Node10&#45;&gt;Node8</title>
<g id="a_edge11_Node000010_Node000008"><a xlink:title=" ">
<path fill="none" stroke="#63b8ff" d="M318.08,-138.98C299.58,-130.95 279.24,-120.26 263,-107 235.81,-84.79 213.56,-49.47 202.52,-30.01"/>
<polygon fill="#63b8ff" stroke="#63b8ff" points="316.99,-142.32 327.56,-142.94 319.69,-135.86 316.99,-142.32"/>
</a>
</g>
</g>
<!-- Node10&#45;&gt;Node9 -->
<g id="edge12_Node000010_Node000009" class="edge">
<title>Node10&#45;&gt;Node9</title>
<g id="a_edge12_Node000010_Node000009"><a xlink:title=" ">
<path fill="none" stroke="#63b8ff" d="M311.82,-139.8C284.77,-131.03 252.28,-119.56 224,-107 171.23,-83.56 112.79,-49.19 81.59,-30.1"/>
<polygon fill="#63b8ff" stroke="#63b8ff" points="310.93,-143.19 321.52,-142.9 313.06,-136.52 310.93,-143.19"/>
</a>
</g>
</g>
<!-- Node10&#45;&gt;Node11 -->
<g id="edge13_Node000010_Node000011" class="edge">
<title>Node10&#45;&gt;Node11</title>
<g id="a_edge13_Node000010_Node000011"><a xlink:title=" ">
<path fill="none" stroke="#63b8ff" d="M400.69,-137.44C430.79,-118.9 477.36,-90.36 518,-66 538.41,-53.76 561.72,-40.08 578.76,-30.12"/>
<polygon fill="#63b8ff" stroke="#63b8ff" points="398.58,-134.63 391.9,-142.85 402.25,-140.59 398.58,-134.63"/>
</a>
</g>
</g>
<!-- Node12 -->
<g id="Node000012" class="node">
<title>Node12</title>
<g id="a_Node000012"><a xlink:href="sd__cache__policy_8h.html" target="_top" xlink:title=" ">
<polygon fill="white" stroke="#666666" points="390,-101.5 272,-101.5 272,-71.5 390,-71.5 390,-101.5"/>
<text text-anchor="start" x="280" y="-89.5" font-family="Helvetica,sans-Serif" font-size="10.00">src/fs/backend/cache</text>
<text text-anchor="middle" x="331" y="-78.5" font-family="Helvetica,sans-Serif" font-size="10.00">/sd_cache_policy.h</text>
</a>
</g>
</g>
<!-- Node10&#45;&gt;Node12 -->
<g id="edge14_Node000010_Node000012" class="edge">
<title>Node10&#45;&gt;Node12</title>
<g id="a_edge14_Node000010_Node000012"><a xlink:title=" ">
<path fill="none" stroke="#63b8ff" d="M356.46,-134.06C350.58,-123.32 343.78,-110.86 338.68,-101.54"/>
<polygon fill="#63b8ff" stroke="#63b8ff" points="353.44,-135.84 361.31,-142.94 359.58,-132.48 353.44,-135.84"/>
</a>
</g>
</g>
<!-- Node12&#45;&gt;Node7 -->
<g id="edge15_Node000012_Node000007" class="edge">
<title>Node12&#45;&gt;Node7</title>
<g id="a_edge15_Node000012_Node000007"><a xlink:title=" ">
<path fill="none" stroke="#63b8ff" d="M367.51,-66.84C390.16,-55.27 418.79,-40.64 439.52,-30.04"/>
<polygon fill="#63b8ff" stroke="#63b8ff" points="365.83,-63.77 358.52,-71.44 369.02,-70 365.83,-63.77"/>
</a>
</g>
</g>
<!-- Node12&#45;&gt;Node8 -->
<g id="edge16_Node000012_Node000008" class="edge">
<title>Node12&#45;&gt;Node8</title>
<g id="a_edge16_Node000012_Node000008"><a xlink:title=" ">
<path fill="none" stroke="#63b8ff" d="M294.49,-66.84C271.84,-55.27 243.21,-40.64 222.48,-30.04"/>
<polygon fill="#63b8ff" stroke="#63b8ff" points="292.98,-70 303.48,-71.44 296.17,-63.77 292.98,-70"/>
</a>
</g>
</g>
<!-- Node12&#45;&gt;Node9 -->
<g id="edge17_Node000012_Node000009" class="edge">
<title>Node12&#45;&gt;Node9</title>
<g id="a_edge17_Node000012_Node000009"><a xlink:title=" ">
<path fill="none" stroke="#63b8ff" d="M266.01,-68.89C219.61,-57.04 157.9,-41.27 113.96,-30.04"/>
<polygon fill="#63b8ff" stroke="#63b8ff" points="265.4,-72.35 275.96,-71.44 267.13,-65.57 265.4,-72.35"/>
</a>
</g>
</g>
<!-- Node12&#45;&gt;Node11 -->
<g id="edge18_Node000012_Node000011" class="edge">
<title>Node12&#45;&gt;Node11</title>
<g id="a_edge18_Node000012_Node000011"><a xlink:title=" ">
<path fill="none" stroke="#63b8ff" d="M395.99,-68.89C442.39,-57.04 504.1,-41.27 548.04,-30.04"/>
<polygon fill="#63b8ff" stroke="#63b8ff" points="394.87,-65.57 386.04,-71.44 396.6,-72.35 394.87,-65.57"/>
</a>
</g>
</g>
<!-- Node13 -->
<g id="Node000013" class="node">
<title>Node13</title>
<g id="a_Node000013"><a xlink:href="sd__cache__policy_8c.html" target="_top" xlink:title=" ">
<polygon fill="white" stroke="#666666" points="390,-30 272,-30 272,0 390,0 390,-30"/>
<text text-anchor="start" x="280" y="-18" font-family="Helvetica,sans-Serif" font-size="10.00">src/fs/backend/cache</text>
<text text-anchor="middle" x="331" y="-7" font-family="Helvetica,sans-Serif" font-size="10.00">/sd_cache_policy.c</text>
</a>
</g>
</g>
<!-- Node12&#45;&gt;Node13 -->
<g id="edge19_Node000012_Node000013" class="edge">
<title>Node12&#45;&gt;Node13</title>
<g id="a_edge19_Node000012_Node000013"><a xlink:title=" ">
<path fill="none" stroke="#63b8ff" d="M331,-61.25C331,-50.81 331,-38.99 331,-30.04"/>
<polygon fill="#63b8ff" stroke="#63b8ff" points="327.5,-61.44 331,-71.44 334.5,-61.44 327.5,-61.44"/>
</a>
</g>
</g>
<!-- Node15&#45;&gt;Node2 -->
<g id="edge25_Node000015_Node000002" class="edge">
<title>Node15&#45;&gt;Node2</title>
<g id="a_edge25_Node000015_Node000002"><a xlink:title=" ">
<path fill="none" stroke="#63b8ff" d="M1558.36,-143C1944.24,-93.36 2051.3,-173.33 2431,-107 2438.45,-105.7 2446.24,-103.74 2453.7,-101.56"/>
<polygon fill="#63b8ff" stroke="#63b8ff" points="1557.79,-139.55 1548.32,-144.32 1558.69,-146.49 1557.79,-139.55"/>
</a>
</g>
</g>
<!-- Node15&#45;&gt;Node14 -->
<g id="edge26_Node000015_Node000014" class="edge">
<title>Node15&#45;&gt;Node14</title>
<g id="a_edge26_Node000015_Node000014"><a xlink:title=" ">
<path fill="none" stroke="#63b8ff" d="M1431.84,-155.14C1265.82,-149.93 820.01,-133.81 675,-107 667.68,-105.65 660.01,-103.69 652.66,-101.54"/>
<polygon fill="#63b8ff" stroke="#63b8ff" points="1431.79,-158.64 1441.89,-155.45 1432.01,-151.64 1431.79,-158.64"/>
</a>
</g>
</g>
<!-- Node16 -->
<g id="Node000016" class="node">
<title>Node16</title>
<g id="a_Node000016"><a xlink:href="process_8c.html" target="_top" xlink:title=" ">
<polygon fill="white" stroke="#666666" points="1488,-96 1352,-96 1352,-77 1488,-77 1488,-96"/>
<text text-anchor="middle" x="1420" y="-84" font-family="Helvetica,sans-Serif" font-size="10.00">src/core/config/process.c</text>
</a>
</g>
</g>
<!-- Node15&#45;&gt;Node16 -->
<g id="edge23_Node000015_Node000016" class="edge">
<title>Node15&#45;&gt;Node16</title>
<g id="a_edge23_Node000015_Node000016"><a xlink:title=" ">
<path fill="none" stroke="#63b8ff" d="M1472.27,-135.94C1457.93,-122.65 1440.15,-106.17 1429.46,-96.27"/>
<polygon fill="#63b8ff" stroke="#63b8ff" points="1470.11,-138.71 1479.82,-142.94 1474.87,-133.57 1470.11,-138.71"/>
</a>
</g>
</g>
<!-- Node17 -->
<g id="Node000017" class="node">
<title>Node17</title>
<g id="a_Node000017"><a xlink:href="process__server__init_8c.html" target="_top" xlink:title=" ">
<polygon fill="white" stroke="#666666" points="1634,-101.5 1506,-101.5 1506,-71.5 1634,-71.5 1634,-101.5"/>
<text text-anchor="start" x="1514" y="-89.5" font-family="Helvetica,sans-Serif" font-size="10.00">src/core/config/process</text>
<text text-anchor="middle" x="1570" y="-78.5" font-family="Helvetica,sans-Serif" font-size="10.00">_server_init.c</text>
</a>
</g>
</g>
<!-- Node15&#45;&gt;Node17 -->
<g id="edge24_Node000015_Node000017" class="edge">
<title>Node15&#45;&gt;Node17</title>
<g id="a_edge24_Node000015_Node000017"><a xlink:title=" ">
<path fill="none" stroke="#63b8ff" d="M1517.67,-135.99C1529.71,-124.84 1544.18,-111.43 1554.85,-101.54"/>
<polygon fill="#63b8ff" stroke="#63b8ff" points="1515.13,-133.57 1510.18,-142.94 1519.89,-138.71 1515.13,-133.57"/>
</a>
</g>
</g>
<!-- Node15&#45;&gt;Node18 -->
<g id="edge27_Node000015_Node000018" class="edge">
<title>Node15&#45;&gt;Node18</title>
<g id="a_edge27_Node000015_Node000018"><a xlink:title=" ">
<path fill="none" stroke="#63b8ff" d="M1558.56,-142.99C2052,-81.51 2188.85,-193.3 2675,-107 2682.22,-105.72 2689.77,-103.74 2696.96,-101.53"/>
<polygon fill="#63b8ff" stroke="#63b8ff" points="1557.8,-139.56 1548.32,-144.28 1558.68,-146.5 1557.8,-139.56"/>
</a>
</g>
</g>
<!-- Node19 -->
<g id="Node000019" class="node">
<title>Node19</title>
<g id="a_Node000019"><a xlink:href="evict__policy_8c.html" target="_top" xlink:title=" ">
<polygon fill="white" stroke="#666666" points="2665.5,-101.5 2564.5,-101.5 2564.5,-71.5 2665.5,-71.5 2665.5,-101.5"/>
<text text-anchor="start" x="2572.5" y="-89.5" font-family="Helvetica,sans-Serif" font-size="10.00">src/fs/cache/evict</text>
<text text-anchor="middle" x="2615" y="-78.5" font-family="Helvetica,sans-Serif" font-size="10.00">_policy.c</text>
</a>
</g>
</g>
<!-- Node15&#45;&gt;Node19 -->
<g id="edge28_Node000015_Node000019" class="edge">
<title>Node15&#45;&gt;Node19</title>
<g id="a_edge28_Node000015_Node000019"><a xlink:title=" ">
<path fill="none" stroke="#63b8ff" d="M1558.46,-143C1999,-87.35 2121.25,-183.75 2555,-107 2562.33,-105.7 2570.01,-103.72 2577.32,-101.5"/>
<polygon fill="#63b8ff" stroke="#63b8ff" points="1557.79,-139.55 1548.32,-144.3 1558.69,-146.5 1557.79,-139.55"/>
</a>
</g>
</g>
<!-- Node20 -->
<g id="Node000020" class="node">
<title>Node20</title>
<g id="a_Node000020"><a xlink:href="fetch_8c.html" target="_top" xlink:title=" ">
<polygon fill="white" stroke="#666666" points="1762,-96 1652,-96 1652,-77 1762,-77 1762,-96"/>
<text text-anchor="middle" x="1707" y="-84" font-family="Helvetica,sans-Serif" font-size="10.00">src/fs/cache/fetch.c</text>
</a>
</g>
</g>
<!-- Node15&#45;&gt;Node20 -->
<g id="edge29_Node000015_Node000020" class="edge">
<title>Node15&#45;&gt;Node20</title>
<g id="a_edge29_Node000015_Node000020"><a xlink:title=" ">
<path fill="none" stroke="#63b8ff" d="M1547.51,-139.79C1589.9,-125.89 1647.75,-106.92 1680.87,-96.07"/>
<polygon fill="#63b8ff" stroke="#63b8ff" points="1546.31,-136.49 1537.9,-142.94 1548.49,-143.15 1546.31,-136.49"/>
</a>
</g>
</g>
<!-- Node21 -->
<g id="Node000021" class="node">
<title>Node21</title>
<g id="a_Node000021"><a xlink:href="open_8c.html" target="_top" xlink:title=" ">
<polygon fill="white" stroke="#666666" points="1890,-96 1780,-96 1780,-77 1890,-77 1890,-96"/>
<text text-anchor="middle" x="1835" y="-84" font-family="Helvetica,sans-Serif" font-size="10.00">src/fs/cache/open.c</text>
</a>
</g>
</g>
<!-- Node15&#45;&gt;Node21 -->
<g id="edge30_Node000015_Node000021" class="edge">
<title>Node15&#45;&gt;Node21</title>
<g id="a_edge30_Node000015_Node000021"><a xlink:title=" ">
<path fill="none" stroke="#63b8ff" d="M1558.12,-142.86C1653.4,-124.66 1680.24,-128.37 1771,-107 1783.89,-103.97 1797.99,-99.77 1809.67,-96.04"/>
<polygon fill="#63b8ff" stroke="#63b8ff" points="1557.21,-139.47 1548.06,-144.82 1558.54,-146.34 1557.21,-139.47"/>
</a>
</g>
</g>
<!-- Node22 -->
<g id="Node000022" class="node">
<title>Node22</title>
<g id="a_Node000022"><a xlink:href="open__or__fill_8c.html" target="_top" xlink:title=" ">
<polygon fill="white" stroke="#666666" points="2024,-101.5 1908,-101.5 1908,-71.5 2024,-71.5 2024,-101.5"/>
<text text-anchor="start" x="1916" y="-89.5" font-family="Helvetica,sans-Serif" font-size="10.00">src/fs/cache/open_or</text>
<text text-anchor="middle" x="1966" y="-78.5" font-family="Helvetica,sans-Serif" font-size="10.00">_fill.c</text>
</a>
</g>
</g>
<!-- Node15&#45;&gt;Node22 -->
<g id="edge31_Node000015_Node000022" class="edge">
<title>Node15&#45;&gt;Node22</title>
<g id="a_edge31_Node000015_Node000022"><a xlink:title=" ">
<path fill="none" stroke="#63b8ff" d="M1558.16,-142.95C1709.62,-118.89 1752.25,-135.84 1899,-107 1906.49,-105.53 1914.35,-103.6 1921.95,-101.53"/>
<polygon fill="#63b8ff" stroke="#63b8ff" points="1557.33,-139.54 1548.02,-144.6 1558.45,-146.45 1557.33,-139.54"/>
</a>
</g>
</g>
<!-- Node15&#45;&gt;Node23 -->
<g id="edge32_Node000015_Node000023" class="edge">
<title>Node15&#45;&gt;Node23</title>
<g id="a_edge32_Node000015_Node000023"><a xlink:title=" ">
<path fill="none" stroke="#63b8ff" d="M1431.59,-156.92C1309.62,-155.77 1034.26,-148.33 807,-107 793.01,-104.46 777.77,-100.06 765.46,-96.09"/>
<polygon fill="#63b8ff" stroke="#63b8ff" points="1431.83,-160.42 1441.86,-157 1431.89,-153.42 1431.83,-160.42"/>
</a>
</g>
</g>
<!-- Node24 -->
<g id="Node000024" class="node">
<title>Node24</title>
<g id="a_Node000024"><a xlink:href="fs_2cache_2thread_8c.html" target="_top" xlink:title=" ">
<polygon fill="white" stroke="#666666" points="2159.5,-96 2042.5,-96 2042.5,-77 2159.5,-77 2159.5,-96"/>
<text text-anchor="middle" x="2101" y="-84" font-family="Helvetica,sans-Serif" font-size="10.00">src/fs/cache/thread.c</text>
</a>
</g>
</g>
<!-- Node15&#45;&gt;Node24 -->
<g id="edge33_Node000015_Node000024" class="edge">
<title>Node15&#45;&gt;Node24</title>
<g id="a_edge33_Node000015_Node000024"><a xlink:title=" ">
<path fill="none" stroke="#63b8ff" d="M1558.14,-143C1768.65,-112.56 1827.43,-143.85 2033,-107 2047.39,-104.42 2063.09,-100.03 2075.78,-96.06"/>
<polygon fill="#63b8ff" stroke="#63b8ff" points="1557.38,-139.57 1548,-144.49 1558.41,-146.5 1557.38,-139.57"/>
</a>
</g>
</g>
<!-- Node25 -->
<g id="Node000025" class="node">
<title>Node25</title>
<g id="a_Node000025"><a xlink:href="open__cache_8c.html" target="_top" xlink:title=" ">
<polygon fill="white" stroke="#666666" points="2288,-101.5 2178,-101.5 2178,-71.5 2288,-71.5 2288,-101.5"/>
<text text-anchor="start" x="2186" y="-89.5" font-family="Helvetica,sans-Serif" font-size="10.00">src/protocols/root</text>
<text text-anchor="middle" x="2233" y="-78.5" font-family="Helvetica,sans-Serif" font-size="10.00">/read/open_cache.c</text>
</a>
</g>
</g>
<!-- Node15&#45;&gt;Node25 -->
<g id="edge34_Node000015_Node000025" class="edge">
<title>Node15&#45;&gt;Node25</title>
<g id="a_edge34_Node000015_Node000025"><a xlink:title=" ">
<path fill="none" stroke="#63b8ff" d="M1558.44,-142.97C1828.62,-106.08 1904.07,-154.46 2169,-107 2176.55,-105.65 2184.46,-103.7 2192.04,-101.55"/>
<polygon fill="#63b8ff" stroke="#63b8ff" points="1557.75,-139.53 1548.33,-144.38 1558.72,-146.46 1557.75,-139.53"/>
</a>
</g>
</g>
<!-- Node26 -->
<g id="Node000026" class="node">
<title>Node26</title>
<g id="a_Node000026"><a xlink:href="open__resolved__file_8c.html" target="_top" xlink:title=" ">
<polygon fill="white" stroke="#666666" points="2422,-107 2306,-107 2306,-66 2422,-66 2422,-107"/>
<text text-anchor="start" x="2314" y="-95" font-family="Helvetica,sans-Serif" font-size="10.00">src/protocols/root</text>
<text text-anchor="start" x="2314" y="-84" font-family="Helvetica,sans-Serif" font-size="10.00">/read/open_resolved</text>
<text text-anchor="middle" x="2364" y="-73" font-family="Helvetica,sans-Serif" font-size="10.00">_file.c</text>
</a>
</g>
</g>
<!-- Node15&#45;&gt;Node26 -->
<g id="edge35_Node000015_Node000026" class="edge">
<title>Node15&#45;&gt;Node26</title>
<g id="a_edge35_Node000015_Node000026"><a xlink:title=" ">
<path fill="none" stroke="#63b8ff" d="M1558.55,-142.97C1885.12,-99.85 1975.57,-160.82 2297,-107 2299.87,-106.52 2302.79,-105.96 2305.72,-105.33"/>
<polygon fill="#63b8ff" stroke="#63b8ff" points="1557.77,-139.54 1548.33,-144.34 1558.7,-146.48 1557.77,-139.54"/>
</a>
</g>
</g>
<!-- Node27 -->
<g id="Node000027" class="node">
<title>Node27</title>
<g id="a_Node000027"><a xlink:href="open__resolved__file__dispatch_8c.html" target="_top" xlink:title=" ">
<polygon fill="white" stroke="#666666" points="932,-107 816,-107 816,-66 932,-66 932,-107"/>
<text text-anchor="start" x="824" y="-95" font-family="Helvetica,sans-Serif" font-size="10.00">src/protocols/root</text>
<text text-anchor="start" x="824" y="-84" font-family="Helvetica,sans-Serif" font-size="10.00">/read/open_resolved</text>
<text text-anchor="middle" x="874" y="-73" font-family="Helvetica,sans-Serif" font-size="10.00">_file_dispatch.c</text>
</a>
</g>
</g>
<!-- Node15&#45;&gt;Node27 -->
<g id="edge36_Node000015_Node000027" class="edge">
<title>Node15&#45;&gt;Node27</title>
<g id="a_edge36_Node000015_Node000027"><a xlink:title=" ">
<path fill="none" stroke="#63b8ff" d="M1431.55,-155.25C1328.02,-151.52 1116.69,-140.17 941,-107 938.14,-106.46 935.23,-105.85 932.3,-105.19"/>
<polygon fill="#63b8ff" stroke="#63b8ff" points="1431.71,-158.76 1441.82,-155.61 1431.95,-151.76 1431.71,-158.76"/>
</a>
</g>
</g>
<!-- Node28 -->
<g id="Node000028" class="node">
<title>Node28</title>
<g id="a_Node000028"><a xlink:href="open__resolved__file__finalize_8c.html" target="_top" xlink:title=" ">
<polygon fill="white" stroke="#666666" points="1066,-107 950,-107 950,-66 1066,-66 1066,-107"/>
<text text-anchor="start" x="958" y="-95" font-family="Helvetica,sans-Serif" font-size="10.00">src/protocols/root</text>
<text text-anchor="start" x="958" y="-84" font-family="Helvetica,sans-Serif" font-size="10.00">/read/open_resolved</text>
<text text-anchor="middle" x="1008" y="-73" font-family="Helvetica,sans-Serif" font-size="10.00">_file_finalize.c</text>
</a>
</g>
</g>
<!-- Node15&#45;&gt;Node28 -->
<g id="edge37_Node000015_Node000028" class="edge">
<title>Node15&#45;&gt;Node28</title>
<g id="a_edge37_Node000015_Node000028"><a xlink:title=" ">
<path fill="none" stroke="#63b8ff" d="M1431.86,-152.74C1349.23,-146.43 1200.2,-132.49 1075,-107 1072.15,-106.42 1069.25,-105.78 1066.32,-105.09"/>
<polygon fill="#63b8ff" stroke="#63b8ff" points="1431.61,-156.23 1441.84,-153.49 1432.13,-149.25 1431.61,-156.23"/>
</a>
</g>
</g>
<!-- Node29 -->
<g id="Node000029" class="node">
<title>Node29</title>
<g id="a_Node000029"><a xlink:href="open__resolved__file__open_8c.html" target="_top" xlink:title=" ">
<polygon fill="white" stroke="#666666" points="1200,-107 1084,-107 1084,-66 1200,-66 1200,-107"/>
<text text-anchor="start" x="1092" y="-95" font-family="Helvetica,sans-Serif" font-size="10.00">src/protocols/root</text>
<text text-anchor="start" x="1092" y="-84" font-family="Helvetica,sans-Serif" font-size="10.00">/read/open_resolved</text>
<text text-anchor="middle" x="1142" y="-73" font-family="Helvetica,sans-Serif" font-size="10.00">_file_open.c</text>
</a>
</g>
</g>
<!-- Node15&#45;&gt;Node29 -->
<g id="edge38_Node000015_Node000029" class="edge">
<title>Node15&#45;&gt;Node29</title>
<g id="a_edge38_Node000015_Node000029"><a xlink:title=" ">
<path fill="none" stroke="#63b8ff" d="M1431.79,-148C1373.57,-139.22 1284.96,-124.64 1209,-107 1206.05,-106.31 1203.04,-105.58 1200,-104.81"/>
<polygon fill="#63b8ff" stroke="#63b8ff" points="1431.53,-151.5 1441.94,-149.51 1432.56,-144.57 1431.53,-151.5"/>
</a>
</g>
</g>
<!-- Node30 -->
<g id="Node000030" class="node">
<title>Node30</title>
<g id="a_Node000030"><a xlink:href="open__resolved__file__staging_8c.html" target="_top" xlink:title=" ">
<polygon fill="white" stroke="#666666" points="1334,-107 1218,-107 1218,-66 1334,-66 1334,-107"/>
<text text-anchor="start" x="1226" y="-95" font-family="Helvetica,sans-Serif" font-size="10.00">src/protocols/root</text>
<text text-anchor="start" x="1226" y="-84" font-family="Helvetica,sans-Serif" font-size="10.00">/read/open_resolved</text>
<text text-anchor="middle" x="1276" y="-73" font-family="Helvetica,sans-Serif" font-size="10.00">_file_staging.c</text>
</a>
</g>
</g>
<!-- Node15&#45;&gt;Node30 -->
<g id="edge39_Node000015_Node000030" class="edge">
<title>Node15&#45;&gt;Node30</title>
<g id="a_edge39_Node000015_Node000030"><a xlink:title=" ">
<path fill="none" stroke="#63b8ff" d="M1440.94,-139.84C1408.59,-129.58 1367.47,-116.53 1334.38,-106.03"/>
<polygon fill="#63b8ff" stroke="#63b8ff" points="1440.09,-143.25 1450.68,-142.94 1442.21,-136.57 1440.09,-143.25"/>
</a>
</g>
</g>
<!-- Node33&#45;&gt;Node18 -->
<g id="edge44_Node000033_Node000018" class="edge">
<title>Node33&#45;&gt;Node18</title>
<g id="a_edge44_Node000033_Node000018"><a xlink:title=" ">
<path fill="none" stroke="#63b8ff" d="M2776,-135.35C2766.32,-124.33 2754.84,-111.24 2746.33,-101.54"/>
<polygon fill="#63b8ff" stroke="#63b8ff" points="2773.43,-137.73 2782.66,-142.94 2778.69,-133.11 2773.43,-137.73"/>
</a>
</g>
</g>
<!-- Node33&#45;&gt;Node19 -->
<g id="edge45_Node000033_Node000019" class="edge">
<title>Node33&#45;&gt;Node19</title>
<g id="a_edge45_Node000033_Node000019"><a xlink:title=" ">
<path fill="none" stroke="#63b8ff" d="M2749.06,-139.26C2718.73,-127.55 2679.54,-112.42 2651.37,-101.54"/>
<polygon fill="#63b8ff" stroke="#63b8ff" points="2747.98,-142.6 2758.57,-142.94 2750.51,-136.07 2747.98,-142.6"/>
</a>
</g>
</g>
<!-- Node34 -->
<g id="Node000034" class="node">
<title>Node34</title>
<g id="a_Node000034"><a xlink:href="cache__fs__sampler_8c.html" target="_top" xlink:title=" ">
<polygon fill="white" stroke="#666666" points="2909,-101.5 2803,-101.5 2803,-71.5 2909,-71.5 2909,-101.5"/>
<text text-anchor="start" x="2811" y="-89.5" font-family="Helvetica,sans-Serif" font-size="10.00">src/fs/cache/cache</text>
<text text-anchor="middle" x="2856" y="-78.5" font-family="Helvetica,sans-Serif" font-size="10.00">_fs_sampler.c</text>
</a>
</g>
</g>
<!-- Node33&#45;&gt;Node34 -->
<g id="edge43_Node000033_Node000034" class="edge">
<title>Node33&#45;&gt;Node34</title>
<g id="a_edge43_Node000033_Node000034"><a xlink:title=" ">
<path fill="none" stroke="#63b8ff" d="M2814,-135.35C2823.68,-124.33 2835.16,-111.24 2843.67,-101.54"/>
<polygon fill="#63b8ff" stroke="#63b8ff" points="2811.31,-133.11 2807.34,-142.94 2816.57,-137.73 2811.31,-133.11"/>
</a>
</g>
</g>
<!-- Node35 -->
<g id="Node000035" class="node">
<title>Node35</title>
<g id="a_Node000035"><a xlink:href="reap__watermark_8c.html" target="_top" xlink:title=" ">
<polygon fill="white" stroke="#666666" points="3093,-96 2927,-96 2927,-77 3093,-77 3093,-96"/>
<text text-anchor="middle" x="3010" y="-84" font-family="Helvetica,sans-Serif" font-size="10.00">src/fs/cache/reap_watermark.c</text>
</a>
</g>
</g>
<!-- Node33&#45;&gt;Node35 -->
<g id="edge46_Node000033_Node000035" class="edge">
<title>Node33&#45;&gt;Node35</title>
<g id="a_edge46_Node000033_Node000035"><a xlink:title=" ">
<path fill="none" stroke="#63b8ff" d="M2848.25,-139.79C2891.24,-125.89 2949.91,-106.92 2983.5,-96.07"/>
<polygon fill="#63b8ff" stroke="#63b8ff" points="2846.95,-136.53 2838.51,-142.94 2849.1,-143.19 2846.95,-136.53"/>
</a>
</g>
</g>
<!-- Node36 -->
<g id="Node000036" class="node">
<title>Node36</title>
<g id="a_Node000036"><a xlink:href="stage__admit_8c.html" target="_top" xlink:title=" ">
<polygon fill="white" stroke="#666666" points="3215,-101.5 3111,-101.5 3111,-71.5 3215,-71.5 3215,-101.5"/>
<text text-anchor="start" x="3119" y="-89.5" font-family="Helvetica,sans-Serif" font-size="10.00">src/fs/cache/stage</text>
<text text-anchor="middle" x="3163" y="-78.5" font-family="Helvetica,sans-Serif" font-size="10.00">_admit.c</text>
</a>
</g>
</g>
<!-- Node33&#45;&gt;Node36 -->
<g id="edge47_Node000033_Node000036" class="edge">
<title>Node33&#45;&gt;Node36</title>
<g id="a_edge47_Node000033_Node000036"><a xlink:title=" ">
<path fill="none" stroke="#63b8ff" d="M2855.76,-149.8C2918.08,-141.79 3017.56,-127.25 3102,-107 3108.49,-105.44 3115.28,-103.55 3121.89,-101.55"/>
<polygon fill="#63b8ff" stroke="#63b8ff" points="2855.19,-146.35 2845.71,-151.08 2856.07,-153.29 2855.19,-146.35"/>
</a>
</g>
</g>
</g>
</svg>

<g id="navigator" transform="translate(0 0)" fill="#404254">
  <rect fill="#f2f5e9" fill-opacity="0.5" stroke="#606060" stroke-width=".5" x="0" y="0" width="60" height="60"/>
  <use id="zoomplus" xlink:href="#zoomPlus" x="17" y="9" onmousedown="handleZoom(evt,'in')"/>
  <use id="zoomminus" xlink:href="#zoomMin" x="42" y="9" onmousedown="handleZoom(evt,'out')"/>
  <use id="reset" xlink:href="#resetDef" x="30" y="36" onmousedown="handleReset()"/>
   <use id="arrowup" xlink:href="#arrowUp" x="0" y="0" onmousedown="handlePan(0,-1)"/>
  <use id="arrowright" xlink:href="#arrowRight" x="0" y="0" onmousedown="handlePan(1,0)"/>
  <use id="arrowdown" xlink:href="#arrowDown" x="0" y="0" onmousedown="handlePan(0,1)"/>
  <use id="arrowleft" xlink:href="#arrowLeft" x="0" y="0" onmousedown="handlePan(-1,0)"/>
</g>
<svg viewBox="0 0 15 15" width="100%" height="30px" preserveAspectRatio="xMaxYMin meet">
 <g id="arrow_out" transform="scale(0.3 0.3)">
  <a xlink:href="cinfo_8h__dep__incl_org.svg" target="_base">
   <rect id="button" ry="5" rx="5" y="6" x="6" height="38" width="38"
        fill="#f2f5e9" fill-opacity="0.5" stroke="#606060" stroke-width="1.0"/>
   <path id="arrow"
     d="M 11.500037,31.436501 C 11.940474,20.09759 22.043105,11.32322 32.158766,21.979434 L 37.068811,17.246167 C 37.068811,17.246167 37.088388,32 37.088388,32 L 22.160133,31.978069 C 22.160133,31.978069 26.997745,27.140456 26.997745,27.140456 C 18.528582,18.264221 13.291696,25.230495 11.500037,31.436501 z"
     style="fill:#404040;"/>
  </a>
 </g>
</svg>

<style type='text/css'>
<![CDATA[
[data-mouse-over-selected='false'] { opacity: 0.7; }
[data-mouse-over-selected='true']  { opacity: 1.0; }
]]>
</style>
<script type="application/ecmascript"><![CDATA[
document.addEventListener('DOMContentLoaded', (event) => {
  highlightEdges();
  highlightAdjacentNodes();
});
]]></script>
</svg>
