<?xml version="1.0" encoding="UTF-8" standalone="no"?>
<!DOCTYPE svg PUBLIC "-//W3C//DTD SVG 1.1//EN"
 "http://www.w3.org/Graphics/SVG/1.1/DTD/svg11.dtd">
<!-- Generated by graphviz version 2.43.0 (0)
 -->
<!-- Title: src/protocols/cvmfs/classify.h Pages: 1 -->
<svg width="2060pt" height="236pt"
 viewBox="0.00 0.00 2060.00 236.00" xmlns="http://www.w3.org/2000/svg" xmlns:xlink="http://www.w3.org/1999/xlink">
<g id="graph0" class="graph" transform="scale(1 1) rotate(0) translate(4 232)">
<title>src/protocols/cvmfs/classify.h</title>
<!-- Node1 -->
<g id="Node000001" class="node">
<title>Node1</title>
<g id="a_Node000001"><a xlink:title=" ">
<polygon fill="#999999" stroke="#666666" points="594,-228 482,-228 482,-198 594,-198 594,-228"/>
<text text-anchor="start" x="490" y="-216" font-family="Helvetica,sans-Serif" font-size="10.00">src/protocols/cvmfs</text>
<text text-anchor="middle" x="538" y="-205" font-family="Helvetica,sans-Serif" font-size="10.00">/classify.h</text>
</a>
</g>
</g>
<!-- Node2 -->
<g id="Node000002" class="node">
<title>Node2</title>
<g id="a_Node000002"><a xlink:href="sd__cache_8c.html" target="_top" xlink:title=" ">
<polygon fill="white" stroke="#666666" points="118,-162 0,-162 0,-132 118,-132 118,-162"/>
<text text-anchor="start" x="8" y="-150" font-family="Helvetica,sans-Serif" font-size="10.00">src/fs/backend/cache</text>
<text text-anchor="middle" x="59" y="-139" font-family="Helvetica,sans-Serif" font-size="10.00">/sd_cache.c</text>
</a>
</g>
</g>
<!-- Node1&#45;&gt;Node2 -->
<g id="edge1_Node000001_Node000002" class="edge">
<title>Node1&#45;&gt;Node2</title>
<g id="a_edge1_Node000001_Node000002"><a xlink:title=" ">
<path fill="none" stroke="#63b8ff" d="M471.85,-205.64C390.43,-197.42 248.09,-181.8 127,-162 124.15,-161.53 121.23,-161.03 118.29,-160.5"/>
<polygon fill="#63b8ff" stroke="#63b8ff" points="471.65,-209.14 481.95,-206.65 472.35,-202.17 471.65,-209.14"/>
</a>
</g>
</g>
<!-- Node3 -->
<g id="Node000003" class="node">
<title>Node3</title>
<g id="a_Node000003"><a xlink:href="sd__cache__fill_8c.html" target="_top" xlink:title=" ">
<polygon fill="white" stroke="#666666" points="254,-162 136,-162 136,-132 254,-132 254,-162"/>
<text text-anchor="start" x="144" y="-150" font-family="Helvetica,sans-Serif" font-size="10.00">src/fs/backend/cache</text>
<text text-anchor="middle" x="195" y="-139" font-family="Helvetica,sans-Serif" font-size="10.00">/sd_cache_fill.c</text>
</a>
</g>
</g>
<!-- Node1&#45;&gt;Node3 -->
<g id="edge2_Node000001_Node000003" class="edge">
<title>Node1&#45;&gt;Node3</title>
<g id="a_edge2_Node000001_Node000003"><a xlink:title=" ">
<path fill="none" stroke="#63b8ff" d="M471.74,-200.4C415.99,-190.53 334.2,-175.8 263,-162 260.16,-161.45 257.26,-160.88 254.32,-160.3"/>
<polygon fill="#63b8ff" stroke="#63b8ff" points="471.38,-203.89 481.84,-202.18 472.6,-196.99 471.38,-203.89"/>
</a>
</g>
</g>
<!-- Node4 -->
<g id="Node000004" class="node">
<title>Node4</title>
<g id="a_Node000004"><a xlink:href="sd__cache__forward_8c.html" target="_top" xlink:title=" ">
<polygon fill="white" stroke="#666666" points="390,-162 272,-162 272,-132 390,-132 390,-162"/>
<text text-anchor="start" x="280" y="-150" font-family="Helvetica,sans-Serif" font-size="10.00">src/fs/backend/cache</text>
<text text-anchor="middle" x="331" y="-139" font-family="Helvetica,sans-Serif" font-size="10.00">/sd_cache_forward.c</text>
</a>
</g>
</g>
<!-- Node1&#45;&gt;Node4 -->
<g id="edge3_Node000001_Node000004" class="edge">
<title>Node1&#45;&gt;Node4</title>
<g id="a_edge3_Node000001_Node000004"><a xlink:title=" ">
<path fill="none" stroke="#63b8ff" d="M482.98,-194.99C449.67,-184.69 407.71,-171.72 376.32,-162.01"/>
<polygon fill="#63b8ff" stroke="#63b8ff" points="481.99,-198.34 492.57,-197.95 484.05,-191.66 481.99,-198.34"/>
</a>
</g>
</g>
<!-- Node5 -->
<g id="Node000005" class="node">
<title>Node5</title>
<g id="a_Node000005"><a xlink:href="sd__cache__manifest_8c.html" target="_top" xlink:title=" ">
<polygon fill="white" stroke="#666666" points="530,-162 408,-162 408,-132 530,-132 530,-162"/>
<text text-anchor="start" x="416" y="-150" font-family="Helvetica,sans-Serif" font-size="10.00">src/fs/backend/cache</text>
<text text-anchor="middle" x="469" y="-139" font-family="Helvetica,sans-Serif" font-size="10.00">/sd_cache_manifest.c</text>
</a>
</g>
</g>
<!-- Node1&#45;&gt;Node5 -->
<g id="edge4_Node000001_Node000005" class="edge">
<title>Node1&#45;&gt;Node5</title>
<g id="a_edge4_Node000001_Node000005"><a xlink:title=" ">
<path fill="none" stroke="#63b8ff" d="M515.28,-190.92C505.1,-181.49 493.37,-170.61 484.27,-162.16"/>
<polygon fill="#63b8ff" stroke="#63b8ff" points="512.97,-193.56 522.69,-197.8 517.74,-188.43 512.97,-193.56"/>
</a>
</g>
</g>
<!-- Node6 -->
<g id="Node000006" class="node">
<title>Node6</title>
<g id="a_Node000006"><a xlink:href="sd__cache__partial_8c.html" target="_top" xlink:title=" ">
<polygon fill="white" stroke="#666666" points="666,-162 548,-162 548,-132 666,-132 666,-162"/>
<text text-anchor="start" x="556" y="-150" font-family="Helvetica,sans-Serif" font-size="10.00">src/fs/backend/cache</text>
<text text-anchor="middle" x="607" y="-139" font-family="Helvetica,sans-Serif" font-size="10.00">/sd_cache_partial.c</text>
</a>
</g>
</g>
<!-- Node1&#45;&gt;Node6 -->
<g id="edge5_Node000001_Node000006" class="edge">
<title>Node1&#45;&gt;Node6</title>
<g id="a_edge5_Node000001_Node000006"><a xlink:title=" ">
<path fill="none" stroke="#63b8ff" d="M560.72,-190.92C570.9,-181.49 582.63,-170.61 591.73,-162.16"/>
<polygon fill="#63b8ff" stroke="#63b8ff" points="558.26,-188.43 553.31,-197.8 563.03,-193.56 558.26,-188.43"/>
</a>
</g>
</g>
<!-- Node7 -->
<g id="Node000007" class="node">
<title>Node7</title>
<g id="a_Node000007"><a xlink:href="sd__cache__policy_8c.html" target="_top" xlink:title=" ">
<polygon fill="white" stroke="#666666" points="802,-162 684,-162 684,-132 802,-132 802,-162"/>
<text text-anchor="start" x="692" y="-150" font-family="Helvetica,sans-Serif" font-size="10.00">src/fs/backend/cache</text>
<text text-anchor="middle" x="743" y="-139" font-family="Helvetica,sans-Serif" font-size="10.00">/sd_cache_policy.c</text>
</a>
</g>
</g>
<!-- Node1&#45;&gt;Node7 -->
<g id="edge6_Node000001_Node000007" class="edge">
<title>Node1&#45;&gt;Node7</title>
<g id="a_edge6_Node000001_Node000007"><a xlink:title=" ">
<path fill="none" stroke="#63b8ff" d="M592.91,-194.86C625.83,-184.58 667.16,-171.68 698.12,-162.01"/>
<polygon fill="#63b8ff" stroke="#63b8ff" points="591.49,-191.63 582.99,-197.95 593.58,-198.32 591.49,-191.63"/>
</a>
</g>
</g>
<!-- Node8 -->
<g id="Node000008" class="node">
<title>Node8</title>
<g id="a_Node000008"><a xlink:href="verify_8c.html" target="_top" xlink:title=" ">
<polygon fill="white" stroke="#666666" points="932,-156.5 820,-156.5 820,-137.5 932,-137.5 932,-156.5"/>
<text text-anchor="middle" x="876" y="-144.5" font-family="Helvetica,sans-Serif" font-size="10.00">src/fs/cache/verify.c</text>
</a>
</g>
</g>
<!-- Node1&#45;&gt;Node8 -->
<g id="edge7_Node000001_Node000008" class="edge">
<title>Node1&#45;&gt;Node8</title>
<g id="a_edge7_Node000001_Node000008"><a xlink:title=" ">
<path fill="none" stroke="#63b8ff" d="M604.07,-200.49C659.43,-190.71 740.49,-176.05 811,-162 819.49,-160.31 828.59,-158.41 837.2,-156.56"/>
<polygon fill="#63b8ff" stroke="#63b8ff" points="603.28,-197.08 594.04,-202.26 604.5,-203.97 603.28,-197.08"/>
</a>
</g>
</g>
<!-- Node9 -->
<g id="Node000009" class="node">
<title>Node9</title>
<g id="a_Node000009"><a xlink:href="cvmfs_8h.html" target="_top" xlink:title=" ">
<polygon fill="white" stroke="#666666" points="1062,-162 950,-162 950,-132 1062,-132 1062,-162"/>
<text text-anchor="start" x="958" y="-150" font-family="Helvetica,sans-Serif" font-size="10.00">src/protocols/cvmfs</text>
<text text-anchor="middle" x="1006" y="-139" font-family="Helvetica,sans-Serif" font-size="10.00">/cvmfs.h</text>
</a>
</g>
</g>
<!-- Node1&#45;&gt;Node9 -->
<g id="edge8_Node000001_Node000009" class="edge">
<title>Node1&#45;&gt;Node9</title>
<g id="a_edge8_Node000001_Node000009"><a xlink:title=" ">
<path fill="none" stroke="#63b8ff" d="M604.73,-205.55C684.88,-197.39 823.25,-181.94 941,-162 943.85,-161.52 946.75,-161 949.69,-160.45"/>
<polygon fill="#63b8ff" stroke="#63b8ff" points="603.89,-202.12 594.3,-206.61 604.6,-209.08 603.89,-202.12"/>
</a>
</g>
</g>
<!-- Node10 -->
<g id="Node000010" class="node">
<title>Node10</title>
<g id="a_Node000010"><a xlink:href="cvmfs__module__build_8c.html" target="_top" xlink:title=" ">
<polygon fill="white" stroke="#666666" points="316.5,-30 187.5,-30 187.5,0 316.5,0 316.5,-30"/>
<text text-anchor="start" x="195.5" y="-18" font-family="Helvetica,sans-Serif" font-size="10.00">src/protocols/cvmfs</text>
<text text-anchor="middle" x="252" y="-7" font-family="Helvetica,sans-Serif" font-size="10.00">/cvmfs_module_build.c</text>
</a>
</g>
</g>
<!-- Node9&#45;&gt;Node10 -->
<g id="edge9_Node000009_Node000010" class="edge">
<title>Node9&#45;&gt;Node10</title>
<g id="a_edge9_Node000009_Node000010"><a xlink:title=" ">
<path fill="none" stroke="#63b8ff" d="M939.61,-131.96C715.45,-101.58 650.08,-149.45 434,-96 374.86,-81.37 310.76,-48.89 276.65,-30.12"/>
<polygon fill="#63b8ff" stroke="#63b8ff" points="939.33,-135.46 949.72,-133.37 940.3,-128.52 939.33,-135.46"/>
</a>
</g>
</g>
<!-- Node11 -->
<g id="Node000011" class="node">
<title>Node11</title>
<g id="a_Node000011"><a xlink:href="cvmfs__module__georank_8c.html" target="_top" xlink:title=" ">
<polygon fill="white" stroke="#666666" points="479.5,-30 334.5,-30 334.5,0 479.5,0 479.5,-30"/>
<text text-anchor="start" x="342.5" y="-18" font-family="Helvetica,sans-Serif" font-size="10.00">src/protocols/cvmfs</text>
<text text-anchor="middle" x="407" y="-7" font-family="Helvetica,sans-Serif" font-size="10.00">/cvmfs_module_georank.c</text>
</a>
</g>
</g>
<!-- Node9&#45;&gt;Node11 -->
<g id="edge10_Node000009_Node000011" class="edge">
<title>Node9&#45;&gt;Node11</title>
<g id="a_edge10_Node000009_Node000011"><a xlink:title=" ">
<path fill="none" stroke="#63b8ff" d="M939.77,-132.09C821.72,-118.47 560,-144 470,-96 442.55,-81.36 423.06,-49.04 413.57,-30.26"/>
<polygon fill="#63b8ff" stroke="#63b8ff" points="939.35,-135.57 949.71,-133.39 940.25,-128.63 939.35,-135.57"/>
</a>
</g>
</g>
<!-- Node12 -->
<g id="Node000012" class="node">
<title>Node12</title>
<g id="a_Node000012"><a xlink:href="cvmfs__module__internal_8h.html" target="_top" xlink:title=" ">
<polygon fill="white" stroke="#666666" points="622.5,-96 479.5,-96 479.5,-66 622.5,-66 622.5,-96"/>
<text text-anchor="start" x="487.5" y="-84" font-family="Helvetica,sans-Serif" font-size="10.00">src/protocols/cvmfs</text>
<text text-anchor="middle" x="551" y="-73" font-family="Helvetica,sans-Serif" font-size="10.00">/cvmfs_module_internal.h</text>
</a>
</g>
</g>
<!-- Node9&#45;&gt;Node12 -->
<g id="edge11_Node000009_Node000012" class="edge">
<title>Node9&#45;&gt;Node12</title>
<g id="a_edge11_Node000009_Node000012"><a xlink:title=" ">
<path fill="none" stroke="#63b8ff" d="M939.82,-131.9C805.09,-109.89 768.57,-114.49 637,-96 632.36,-95.35 627.58,-94.65 622.76,-93.92"/>
<polygon fill="#63b8ff" stroke="#63b8ff" points="939.26,-135.35 949.69,-133.53 940.4,-128.45 939.26,-135.35"/>
</a>
</g>
</g>
<!-- Node13 -->
<g id="Node000013" class="node">
<title>Node13</title>
<g id="a_Node000013"><a xlink:href="cvmfs__module__merge_8c.html" target="_top" xlink:title=" ">
<polygon fill="white" stroke="#666666" points="634.5,-30 497.5,-30 497.5,0 634.5,0 634.5,-30"/>
<text text-anchor="start" x="505.5" y="-18" font-family="Helvetica,sans-Serif" font-size="10.00">src/protocols/cvmfs</text>
<text text-anchor="middle" x="566" y="-7" font-family="Helvetica,sans-Serif" font-size="10.00">/cvmfs_module_merge.c</text>
</a>
</g>
</g>
<!-- Node9&#45;&gt;Node13 -->
<g id="edge17_Node000009_Node000013" class="edge">
<title>Node9&#45;&gt;Node13</title>
<g id="a_edge17_Node000009_Node000013"><a xlink:title=" ">
<path fill="none" stroke="#63b8ff" d="M939.59,-131.85C837.76,-114.1 806.47,-128.21 712,-96 664.13,-79.68 613.48,-48.29 586.22,-30.06"/>
<polygon fill="#63b8ff" stroke="#63b8ff" points="939.21,-135.33 949.67,-133.66 940.45,-128.44 939.21,-135.33"/>
</a>
</g>
</g>
<!-- Node14 -->
<g id="Node000014" class="node">
<title>Node14</title>
<g id="a_Node000014"><a xlink:href="protocols_2cvmfs_2module_8c.html" target="_top" xlink:title=" ">
<polygon fill="white" stroke="#666666" points="765,-30 653,-30 653,0 765,0 765,-30"/>
<text text-anchor="start" x="661" y="-18" font-family="Helvetica,sans-Serif" font-size="10.00">src/protocols/cvmfs</text>
<text text-anchor="middle" x="709" y="-7" font-family="Helvetica,sans-Serif" font-size="10.00">/module.c</text>
</a>
</g>
</g>
<!-- Node9&#45;&gt;Node14 -->
<g id="edge22_Node000009_Node000014" class="edge">
<title>Node9&#45;&gt;Node14</title>
<g id="a_edge22_Node000009_Node000014"><a xlink:title=" ">
<path fill="none" stroke="#63b8ff" d="M939.61,-131.93C846.7,-117.01 802.79,-154.84 735,-96 715.81,-79.34 710.69,-48.37 709.39,-30.24"/>
<polygon fill="#63b8ff" stroke="#63b8ff" points="939.2,-135.42 949.66,-133.72 940.43,-128.53 939.2,-135.42"/>
</a>
</g>
</g>
<!-- Node15 -->
<g id="Node000015" class="node">
<title>Node15</title>
<g id="a_Node000015"><a xlink:href="secure_8c.html" target="_top" xlink:title=" ">
<polygon fill="white" stroke="#666666" points="895,-30 783,-30 783,0 895,0 895,-30"/>
<text text-anchor="start" x="791" y="-18" font-family="Helvetica,sans-Serif" font-size="10.00">src/protocols/cvmfs</text>
<text text-anchor="middle" x="839" y="-7" font-family="Helvetica,sans-Serif" font-size="10.00">/secure.c</text>
</a>
</g>
</g>
<!-- Node9&#45;&gt;Node15 -->
<g id="edge25_Node000009_Node000015" class="edge">
<title>Node9&#45;&gt;Node15</title>
<g id="a_edge25_Node000009_Node000015"><a xlink:title=" ">
<path fill="none" stroke="#63b8ff" d="M939.48,-132.04C883.17,-124 772.48,-127.82 746,-96 724.13,-69.73 766.24,-44.95 800.7,-30.12"/>
<polygon fill="#63b8ff" stroke="#63b8ff" points="939.21,-135.55 949.65,-133.76 940.37,-128.64 939.21,-135.55"/>
</a>
</g>
</g>
<!-- Node16 -->
<g id="Node000016" class="node">
<title>Node16</title>
<g id="a_Node000016"><a xlink:href="gate_8c.html" target="_top" xlink:title=" ">
<polygon fill="white" stroke="#666666" points="867,-96 755,-96 755,-66 867,-66 867,-96"/>
<text text-anchor="start" x="763" y="-84" font-family="Helvetica,sans-Serif" font-size="10.00">src/protocols/cvmfs</text>
<text text-anchor="middle" x="811" y="-73" font-family="Helvetica,sans-Serif" font-size="10.00">/gate.c</text>
</a>
</g>
</g>
<!-- Node9&#45;&gt;Node16 -->
<g id="edge18_Node000009_Node000016" class="edge">
<title>Node9&#45;&gt;Node16</title>
<g id="a_edge18_Node000009_Node000016"><a xlink:title=" ">
<path fill="none" stroke="#63b8ff" d="M953.36,-128.72C922.11,-118.47 883.01,-105.63 853.69,-96.01"/>
<polygon fill="#63b8ff" stroke="#63b8ff" points="952.61,-132.16 963.21,-131.95 954.8,-125.51 952.61,-132.16"/>
</a>
</g>
</g>
<!-- Node17 -->
<g id="Node000017" class="node">
<title>Node17</title>
<g id="a_Node000017"><a xlink:href="geo_8c.html" target="_top" xlink:title=" ">
<polygon fill="white" stroke="#666666" points="997,-96 885,-96 885,-66 997,-66 997,-96"/>
<text text-anchor="start" x="893" y="-84" font-family="Helvetica,sans-Serif" font-size="10.00">src/protocols/cvmfs</text>
<text text-anchor="middle" x="941" y="-73" font-family="Helvetica,sans-Serif" font-size="10.00">/geo.c</text>
</a>
</g>
</g>
<!-- Node9&#45;&gt;Node17 -->
<g id="edge19_Node000009_Node000017" class="edge">
<title>Node9&#45;&gt;Node17</title>
<g id="a_edge19_Node000009_Node000017"><a xlink:title=" ">
<path fill="none" stroke="#63b8ff" d="M984.31,-124.65C974.79,-115.27 963.88,-104.53 955.39,-96.16"/>
<polygon fill="#63b8ff" stroke="#63b8ff" points="981.99,-127.27 991.57,-131.8 986.9,-122.29 981.99,-127.27"/>
</a>
</g>
</g>
<!-- Node18 -->
<g id="Node000018" class="node">
<title>Node18</title>
<g id="a_Node000018"><a xlink:href="geo__answer_8c.html" target="_top" xlink:title=" ">
<polygon fill="white" stroke="#666666" points="1127,-96 1015,-96 1015,-66 1127,-66 1127,-96"/>
<text text-anchor="start" x="1023" y="-84" font-family="Helvetica,sans-Serif" font-size="10.00">src/protocols/cvmfs</text>
<text text-anchor="middle" x="1071" y="-73" font-family="Helvetica,sans-Serif" font-size="10.00">/geo_answer.c</text>
</a>
</g>
</g>
<!-- Node9&#45;&gt;Node18 -->
<g id="edge20_Node000009_Node000018" class="edge">
<title>Node9&#45;&gt;Node18</title>
<g id="a_edge20_Node000009_Node000018"><a xlink:title=" ">
<path fill="none" stroke="#63b8ff" d="M1027.69,-124.65C1037.21,-115.27 1048.12,-104.53 1056.61,-96.16"/>
<polygon fill="#63b8ff" stroke="#63b8ff" points="1025.1,-122.29 1020.43,-131.8 1030.01,-127.27 1025.1,-122.29"/>
</a>
</g>
</g>
<!-- Node19 -->
<g id="Node000019" class="node">
<title>Node19</title>
<g id="a_Node000019"><a xlink:href="protocols_2cvmfs_2handler_8c.html" target="_top" xlink:title=" ">
<polygon fill="white" stroke="#666666" points="1257,-96 1145,-96 1145,-66 1257,-66 1257,-96"/>
<text text-anchor="start" x="1153" y="-84" font-family="Helvetica,sans-Serif" font-size="10.00">src/protocols/cvmfs</text>
<text text-anchor="middle" x="1201" y="-73" font-family="Helvetica,sans-Serif" font-size="10.00">/handler.c</text>
</a>
</g>
</g>
<!-- Node9&#45;&gt;Node19 -->
<g id="edge21_Node000009_Node000019" class="edge">
<title>Node9&#45;&gt;Node19</title>
<g id="a_edge21_Node000009_Node000019"><a xlink:title=" ">
<path fill="none" stroke="#63b8ff" d="M1058.64,-128.72C1089.89,-118.47 1128.99,-105.63 1158.31,-96.01"/>
<polygon fill="#63b8ff" stroke="#63b8ff" points="1057.2,-125.51 1048.79,-131.95 1059.39,-132.16 1057.2,-125.51"/>
</a>
</g>
</g>
<!-- Node20 -->
<g id="Node000020" class="node">
<title>Node20</title>
<g id="a_Node000020"><a xlink:href="origin__probe_8c.html" target="_top" xlink:title=" ">
<polygon fill="white" stroke="#666666" points="1387,-96 1275,-96 1275,-66 1387,-66 1387,-96"/>
<text text-anchor="start" x="1283" y="-84" font-family="Helvetica,sans-Serif" font-size="10.00">src/protocols/cvmfs</text>
<text text-anchor="middle" x="1331" y="-73" font-family="Helvetica,sans-Serif" font-size="10.00">/origin_probe.c</text>
</a>
</g>
</g>
<!-- Node9&#45;&gt;Node20 -->
<g id="edge23_Node000009_Node000020" class="edge">
<title>Node9&#45;&gt;Node20</title>
<g id="a_edge23_Node000009_Node000020"><a xlink:title=" ">
<path fill="none" stroke="#63b8ff" d="M1071.99,-133.73C1124.59,-123.84 1200.1,-109.43 1266,-96 1268.94,-95.4 1271.95,-94.78 1275,-94.14"/>
<polygon fill="#63b8ff" stroke="#63b8ff" points="1071.3,-130.3 1062.11,-135.58 1072.59,-137.18 1071.3,-130.3"/>
</a>
</g>
</g>
<!-- Node21 -->
<g id="Node000021" class="node">
<title>Node21</title>
<g id="a_Node000021"><a xlink:href="protocols_2cvmfs_2request_8c.html" target="_top" xlink:title=" ">
<polygon fill="white" stroke="#666666" points="1517,-96 1405,-96 1405,-66 1517,-66 1517,-96"/>
<text text-anchor="start" x="1413" y="-84" font-family="Helvetica,sans-Serif" font-size="10.00">src/protocols/cvmfs</text>
<text text-anchor="middle" x="1461" y="-73" font-family="Helvetica,sans-Serif" font-size="10.00">/request.c</text>
</a>
</g>
</g>
<!-- Node9&#45;&gt;Node21 -->
<g id="edge24_Node000009_Node000021" class="edge">
<title>Node9&#45;&gt;Node21</title>
<g id="a_edge24_Node000009_Node000021"><a xlink:title=" ">
<path fill="none" stroke="#63b8ff" d="M1072.23,-139.24C1150.02,-130.9 1282.84,-115.41 1396,-96 1398.84,-95.51 1401.75,-94.99 1404.69,-94.43"/>
<polygon fill="#63b8ff" stroke="#63b8ff" points="1071.66,-135.78 1062.09,-140.32 1072.4,-142.74 1071.66,-135.78"/>
</a>
</g>
</g>
<!-- Node22 -->
<g id="Node000022" class="node">
<title>Node22</title>
<g id="a_Node000022"><a xlink:href="upstreams_8c.html" target="_top" xlink:title=" ">
<polygon fill="white" stroke="#666666" points="1647,-96 1535,-96 1535,-66 1647,-66 1647,-96"/>
<text text-anchor="start" x="1543" y="-84" font-family="Helvetica,sans-Serif" font-size="10.00">src/protocols/cvmfs</text>
<text text-anchor="middle" x="1591" y="-73" font-family="Helvetica,sans-Serif" font-size="10.00">/upstreams.c</text>
</a>
</g>
</g>
<!-- Node9&#45;&gt;Node22 -->
<g id="edge26_Node000009_Node000022" class="edge">
<title>Node9&#45;&gt;Node22</title>
<g id="a_edge26_Node000009_Node000022"><a xlink:title=" ">
<path fill="none" stroke="#63b8ff" d="M1072.22,-142.11C1171.33,-135.72 1363.92,-121.16 1526,-96 1528.85,-95.56 1531.77,-95.07 1534.7,-94.54"/>
<polygon fill="#63b8ff" stroke="#63b8ff" points="1071.81,-138.63 1062.06,-142.75 1072.26,-145.61 1071.81,-138.63"/>
</a>
</g>
</g>
<!-- Node23 -->
<g id="Node000023" class="node">
<title>Node23</title>
<g id="a_Node000023"><a xlink:href="proto__exclusive_8c.html" target="_top" xlink:title=" ">
<polygon fill="white" stroke="#666666" points="1780.5,-96 1665.5,-96 1665.5,-66 1780.5,-66 1780.5,-96"/>
<text text-anchor="start" x="1673.5" y="-84" font-family="Helvetica,sans-Serif" font-size="10.00">src/protocols/shared</text>
<text text-anchor="middle" x="1723" y="-73" font-family="Helvetica,sans-Serif" font-size="10.00">/proto_exclusive.c</text>
</a>
</g>
</g>
<!-- Node9&#45;&gt;Node23 -->
<g id="edge27_Node000009_Node000023" class="edge">
<title>Node9&#45;&gt;Node23</title>
<g id="a_edge27_Node000009_Node000023"><a xlink:title=" ">
<path fill="none" stroke="#63b8ff" d="M1072.66,-143.72C1190.74,-139.04 1444.17,-126.15 1656,-96 1659.06,-95.56 1662.19,-95.07 1665.34,-94.54"/>
<polygon fill="#63b8ff" stroke="#63b8ff" points="1072.2,-140.23 1062.35,-144.12 1072.47,-147.23 1072.2,-140.23"/>
</a>
</g>
</g>
<!-- Node24 -->
<g id="Node000024" class="node">
<title>Node24</title>
<g id="a_Node000024"><a xlink:href="shared_2protocol_8c.html" target="_top" xlink:title=" ">
<polygon fill="white" stroke="#666666" points="1913.5,-96 1798.5,-96 1798.5,-66 1913.5,-66 1913.5,-96"/>
<text text-anchor="start" x="1806.5" y="-84" font-family="Helvetica,sans-Serif" font-size="10.00">src/protocols/shared</text>
<text text-anchor="middle" x="1856" y="-73" font-family="Helvetica,sans-Serif" font-size="10.00">/protocol.c</text>
</a>
</g>
</g>
<!-- Node9&#45;&gt;Node24 -->
<g id="edge28_Node000009_Node000024" class="edge">
<title>Node9&#45;&gt;Node24</title>
<g id="a_edge28_Node000009_Node000024"><a xlink:title=" ">
<path fill="none" stroke="#63b8ff" d="M1072.59,-145.01C1208.21,-142.28 1525.96,-132.23 1790,-96 1792.79,-95.62 1795.63,-95.18 1798.49,-94.71"/>
<polygon fill="#63b8ff" stroke="#63b8ff" points="1072.3,-141.52 1062.37,-145.21 1072.43,-148.52 1072.3,-141.52"/>
</a>
</g>
</g>
<!-- Node25 -->
<g id="Node000025" class="node">
<title>Node25</title>
<g id="a_Node000025"><a xlink:href="module__init_8c.html" target="_top" xlink:title=" ">
<polygon fill="white" stroke="#666666" points="2052,-96 1932,-96 1932,-66 2052,-66 2052,-96"/>
<text text-anchor="start" x="1940" y="-84" font-family="Helvetica,sans-Serif" font-size="10.00">src/protocols/webdav</text>
<text text-anchor="middle" x="1992" y="-73" font-family="Helvetica,sans-Serif" font-size="10.00">/module_init.c</text>
</a>
</g>
</g>
<!-- Node9&#45;&gt;Node25 -->
<g id="edge29_Node000009_Node000025" class="edge">
<title>Node9&#45;&gt;Node25</title>
<g id="a_edge29_Node000009_Node000025"><a xlink:title=" ">
<path fill="none" stroke="#63b8ff" d="M1072.14,-145.69C1223.42,-144.26 1606.08,-136.57 1923,-96 1925.91,-95.63 1928.88,-95.2 1931.88,-94.74"/>
<polygon fill="#63b8ff" stroke="#63b8ff" points="1072.05,-142.19 1062.08,-145.78 1072.11,-149.19 1072.05,-142.19"/>
</a>
</g>
</g>
<!-- Node12&#45;&gt;Node10 -->
<g id="edge12_Node000012_Node000010" class="edge">
<title>Node12&#45;&gt;Node10</title>
<g id="a_edge12_Node000012_Node000010"><a xlink:title=" ">
<path fill="none" stroke="#63b8ff" d="M475.47,-63.83C426.49,-53.35 363.36,-39.84 316.69,-29.85"/>
<polygon fill="#63b8ff" stroke="#63b8ff" points="474.87,-67.28 485.38,-65.95 476.34,-60.44 474.87,-67.28"/>
</a>
</g>
</g>
<!-- Node12&#45;&gt;Node11 -->
<g id="edge13_Node000012_Node000011" class="edge">
<title>Node12&#45;&gt;Node11</title>
<g id="a_edge13_Node000012_Node000011"><a xlink:title=" ">
<path fill="none" stroke="#63b8ff" d="M510.01,-61.78C487.31,-51.69 459.52,-39.34 438.53,-30.01"/>
<polygon fill="#63b8ff" stroke="#63b8ff" points="508.84,-65.09 519.4,-65.95 511.68,-58.7 508.84,-65.09"/>
</a>
</g>
</g>
<!-- Node12&#45;&gt;Node13 -->
<g id="edge14_Node000012_Node000013" class="edge">
<title>Node12&#45;&gt;Node13</title>
<g id="a_edge14_Node000012_Node000013"><a xlink:title=" ">
<path fill="none" stroke="#63b8ff" d="M556.67,-55.83C558.69,-47.17 560.91,-37.7 562.68,-30.16"/>
<polygon fill="#63b8ff" stroke="#63b8ff" points="553.2,-55.26 554.33,-65.8 560.02,-56.86 553.2,-55.26"/>
</a>
</g>
</g>
<!-- Node12&#45;&gt;Node14 -->
<g id="edge15_Node000012_Node000014" class="edge">
<title>Node12&#45;&gt;Node14</title>
<g id="a_edge15_Node000012_Node000014"><a xlink:title=" ">
<path fill="none" stroke="#63b8ff" d="M594.97,-62.19C620.06,-52.02 651.07,-39.47 674.41,-30.01"/>
<polygon fill="#63b8ff" stroke="#63b8ff" points="593.63,-58.96 585.67,-65.95 596.26,-65.44 593.63,-58.96"/>
</a>
</g>
</g>
<!-- Node12&#45;&gt;Node15 -->
<g id="edge16_Node000012_Node000015" class="edge">
<title>Node12&#45;&gt;Node15</title>
<g id="a_edge16_Node000012_Node000015"><a xlink:title=" ">
<path fill="none" stroke="#63b8ff" d="M624.17,-63.74C673.45,-52.79 737.47,-38.56 782.77,-28.5"/>
<polygon fill="#63b8ff" stroke="#63b8ff" points="623.21,-60.37 614.2,-65.95 624.72,-67.2 623.21,-60.37"/>
</a>
</g>
</g>
</g>
</svg>
