<?xml version="1.0" encoding="UTF-8" standalone="no"?>
<!DOCTYPE svg PUBLIC "-//W3C//DTD SVG 1.1//EN"
 "http://www.w3.org/Graphics/SVG/1.1/DTD/svg11.dtd">
<!-- Generated by graphviz version 2.43.0 (0)
 -->
<!-- Title: client/lib/cli/cli_opts.c Pages: 1 -->
<svg width="1359pt" height="401pt"
 viewBox="0.00 0.00 1358.84 401.00" xmlns="http://www.w3.org/2000/svg" xmlns:xlink="http://www.w3.org/1999/xlink">
<g id="graph0" class="graph" transform="scale(1 1) rotate(0) translate(4 397)">
<title>client/lib/cli/cli_opts.c</title>
<!-- Node1 -->
<g id="Node000001" class="node">
<title>Node1</title>
<g id="a_Node000001"><a xlink:title=" ">
<polygon fill="#999999" stroke="#666666" points="1172.84,-393 1085.84,-393 1085.84,-363 1172.84,-363 1172.84,-393"/>
<text text-anchor="start" x="1093.84" y="-381" font-family="Helvetica,sans-Serif" font-size="10.00">client/lib/cli/cli</text>
<text text-anchor="middle" x="1129.34" y="-370" font-family="Helvetica,sans-Serif" font-size="10.00">_opts.c</text>
</a>
</g>
</g>
<!-- Node2 -->
<g id="Node000002" class="node">
<title>Node2</title>
<g id="a_Node000002"><a xlink:href="brix_8h.html" target="_top" xlink:title=" ">
<polygon fill="white" stroke="#666666" points="804.34,-327 760.34,-327 760.34,-308 804.34,-308 804.34,-327"/>
<text text-anchor="middle" x="782.34" y="-315" font-family="Helvetica,sans-Serif" font-size="10.00">brix.h</text>
</a>
</g>
</g>
<!-- Node1&#45;&gt;Node2 -->
<g id="edge1_Node000001_Node000002" class="edge">
<title>Node1&#45;&gt;Node2</title>
<g id="a_edge1_Node000001_Node000002"><a xlink:title=" ">
<path fill="none" stroke="#63b8ff" d="M1085.74,-369.65C1015.02,-357.73 876.92,-334.45 814.43,-323.91"/>
<polygon fill="#63b8ff" stroke="#63b8ff" points="814.81,-320.42 804.37,-322.21 813.65,-327.33 814.81,-320.42"/>
</a>
</g>
</g>
<!-- Node4 -->
<g id="Node000004" class="node">
<title>Node4</title>
<g id="a_Node000004"><a xlink:title=" ">
<polygon fill="#e0e0e0" stroke="#999999" points="963.34,-134.5 907.34,-134.5 907.34,-115.5 963.34,-115.5 963.34,-134.5"/>
<text text-anchor="middle" x="935.34" y="-122.5" font-family="Helvetica,sans-Serif" font-size="10.00">stddef.h</text>
</a>
</g>
</g>
<!-- Node1&#45;&gt;Node4 -->
<g id="edge31_Node000001_Node000004" class="edge">
<title>Node1&#45;&gt;Node4</title>
<g id="a_edge31_Node000001_Node000004"><a xlink:title=" ">
<path fill="none" stroke="#63b8ff" d="M1124.58,-362.93C1114.19,-332.63 1089.2,-262.33 1074.34,-242 1041.9,-197.61 988.9,-159.73 958.58,-140.18"/>
<polygon fill="#63b8ff" stroke="#63b8ff" points="960.27,-137.11 949.95,-134.72 956.53,-143.02 960.27,-137.11"/>
</a>
</g>
</g>
<!-- Node20 -->
<g id="Node000020" class="node">
<title>Node20</title>
<g id="a_Node000020"><a xlink:href="brix__ops_8h.html" target="_top" xlink:title=" ">
<polygon fill="white" stroke="#666666" points="1065.84,-266.5 998.84,-266.5 998.84,-247.5 1065.84,-247.5 1065.84,-266.5"/>
<text text-anchor="middle" x="1032.34" y="-254.5" font-family="Helvetica,sans-Serif" font-size="10.00">brix_ops.h</text>
</a>
</g>
</g>
<!-- Node1&#45;&gt;Node20 -->
<g id="edge29_Node000001_Node000020" class="edge">
<title>Node1&#45;&gt;Node20</title>
<g id="a_edge29_Node000001_Node000020"><a xlink:title=" ">
<path fill="none" stroke="#63b8ff" d="M1114.08,-362.73C1104.05,-353.05 1090.88,-339.73 1080.34,-327 1066.58,-310.38 1052.7,-289.94 1043.43,-275.63"/>
<polygon fill="#63b8ff" stroke="#63b8ff" points="1046.14,-273.38 1037.81,-266.84 1040.24,-277.15 1046.14,-273.38"/>
</a>
</g>
</g>
<!-- Node21 -->
<g id="Node000021" class="node">
<title>Node21</title>
<g id="a_Node000021"><a xlink:href="version_8h.html" target="_top" xlink:title=" ">
<polygon fill="white" stroke="#666666" points="1208.34,-327 1122.34,-327 1122.34,-308 1208.34,-308 1208.34,-327"/>
<text text-anchor="middle" x="1165.34" y="-315" font-family="Helvetica,sans-Serif" font-size="10.00">core/version.h</text>
</a>
</g>
</g>
<!-- Node1&#45;&gt;Node21 -->
<g id="edge30_Node000001_Node000021" class="edge">
<title>Node1&#45;&gt;Node21</title>
<g id="a_edge30_Node000001_Node000021"><a xlink:title=" ">
<path fill="none" stroke="#63b8ff" d="M1138.05,-362.84C1143.01,-354.78 1149.27,-344.62 1154.54,-336.06"/>
<polygon fill="#63b8ff" stroke="#63b8ff" points="1157.68,-337.62 1159.94,-327.27 1151.72,-333.95 1157.68,-337.62"/>
</a>
</g>
</g>
<!-- Node22 -->
<g id="Node000022" class="node">
<title>Node22</title>
<g id="a_Node000022"><a xlink:title=" ">
<polygon fill="#e0e0e0" stroke="#999999" points="1279.84,-327 1226.84,-327 1226.84,-308 1279.84,-308 1279.84,-327"/>
<text text-anchor="middle" x="1253.34" y="-315" font-family="Helvetica,sans-Serif" font-size="10.00">stdlib.h</text>
</a>
</g>
</g>
<!-- Node1&#45;&gt;Node22 -->
<g id="edge32_Node000001_Node000022" class="edge">
<title>Node1&#45;&gt;Node22</title>
<g id="a_edge32_Node000001_Node000022"><a xlink:title=" ">
<path fill="none" stroke="#63b8ff" d="M1159.04,-362.99C1179.36,-353.4 1206.1,-340.79 1225.91,-331.44"/>
<polygon fill="#63b8ff" stroke="#63b8ff" points="1227.48,-334.57 1235.03,-327.14 1224.49,-328.24 1227.48,-334.57"/>
</a>
</g>
</g>
<!-- Node23 -->
<g id="Node000023" class="node">
<title>Node23</title>
<g id="a_Node000023"><a xlink:title=" ">
<polygon fill="#e0e0e0" stroke="#999999" points="1350.84,-327 1297.84,-327 1297.84,-308 1350.84,-308 1350.84,-327"/>
<text text-anchor="middle" x="1324.34" y="-315" font-family="Helvetica,sans-Serif" font-size="10.00">string.h</text>
</a>
</g>
</g>
<!-- Node1&#45;&gt;Node23 -->
<g id="edge33_Node000001_Node000023" class="edge">
<title>Node1&#45;&gt;Node23</title>
<g id="a_edge33_Node000001_Node000023"><a xlink:title=" ">
<path fill="none" stroke="#63b8ff" d="M1173.1,-363.87C1207.65,-353.51 1255.3,-339.21 1287.82,-329.46"/>
<polygon fill="#63b8ff" stroke="#63b8ff" points="1289.24,-332.68 1297.81,-326.46 1287.23,-325.98 1289.24,-332.68"/>
</a>
</g>
</g>
<!-- Node3 -->
<g id="Node000003" class="node">
<title>Node3</title>
<g id="a_Node000003"><a xlink:title=" ">
<polygon fill="#e0e0e0" stroke="#999999" points="709.84,-19 656.84,-19 656.84,0 709.84,0 709.84,-19"/>
<text text-anchor="middle" x="683.34" y="-7" font-family="Helvetica,sans-Serif" font-size="10.00">stdint.h</text>
</a>
</g>
</g>
<!-- Node2&#45;&gt;Node3 -->
<g id="edge2_Node000002_Node000003" class="edge">
<title>Node2&#45;&gt;Node3</title>
<g id="a_edge2_Node000002_Node000003"><a xlink:title=" ">
<path fill="none" stroke="#63b8ff" d="M770.13,-307.86C759.99,-299.88 746.3,-287.01 740.34,-272 735.42,-259.61 737.72,-255.07 740.34,-242 743.74,-225 751.94,-223 755.34,-206 757.95,-192.93 758.06,-189.05 755.34,-176 743.46,-118.92 710.82,-57.39 693.86,-28.03"/>
<polygon fill="#63b8ff" stroke="#63b8ff" points="696.67,-25.89 688.58,-19.04 690.63,-29.44 696.67,-25.89"/>
</a>
</g>
</g>
<!-- Node2&#45;&gt;Node4 -->
<g id="edge3_Node000002_Node000004" class="edge">
<title>Node2&#45;&gt;Node4</title>
<g id="a_edge3_Node000002_Node000004"><a xlink:title=" ">
<path fill="none" stroke="#63b8ff" d="M804.36,-316.04C836.4,-314.16 895.82,-305.97 930.34,-272 961.47,-241.36 958.08,-219.15 951.34,-176 949.64,-165.14 945.99,-153.41 942.61,-144.05"/>
<polygon fill="#63b8ff" stroke="#63b8ff" points="945.86,-142.74 939.02,-134.65 939.32,-145.24 945.86,-142.74"/>
</a>
</g>
</g>
<!-- Node5 -->
<g id="Node000005" class="node">
<title>Node5</title>
<g id="a_Node000005"><a xlink:title=" ">
<polygon fill="#e0e0e0" stroke="#999999" points="405.34,-266.5 355.34,-266.5 355.34,-247.5 405.34,-247.5 405.34,-266.5"/>
<text text-anchor="middle" x="380.34" y="-254.5" font-family="Helvetica,sans-Serif" font-size="10.00">stdio.h</text>
</a>
</g>
</g>
<!-- Node2&#45;&gt;Node5 -->
<g id="edge4_Node000002_Node000005" class="edge">
<title>Node2&#45;&gt;Node5</title>
<g id="a_edge4_Node000002_Node000005"><a xlink:title=" ">
<path fill="none" stroke="#63b8ff" d="M759.97,-315.89C701.95,-313.86 542.29,-305.42 414.34,-272 412.39,-271.49 410.41,-270.9 408.43,-270.24"/>
<polygon fill="#63b8ff" stroke="#63b8ff" points="409.33,-266.84 398.73,-266.63 406.88,-273.4 409.33,-266.84"/>
</a>
</g>
</g>
<!-- Node6 -->
<g id="Node000006" class="node">
<title>Node6</title>
<g id="a_Node000006"><a xlink:href="time_8h.html" target="_top" xlink:title=" ">
<polygon fill="white" stroke="#666666" points="924.34,-200.5 876.34,-200.5 876.34,-181.5 924.34,-181.5 924.34,-200.5"/>
<text text-anchor="middle" x="900.34" y="-188.5" font-family="Helvetica,sans-Serif" font-size="10.00">time.h</text>
</a>
</g>
</g>
<!-- Node2&#45;&gt;Node6 -->
<g id="edge5_Node000002_Node000006" class="edge">
<title>Node2&#45;&gt;Node6</title>
<g id="a_edge5_Node000002_Node000006"><a xlink:title=" ">
<path fill="none" stroke="#63b8ff" d="M804.57,-316.23C834.74,-314.52 887.72,-306.45 912.34,-272 925.38,-253.76 917.48,-227.15 909.7,-209.71"/>
<polygon fill="#63b8ff" stroke="#63b8ff" points="912.8,-208.1 905.28,-200.63 906.51,-211.16 912.8,-208.1"/>
</a>
</g>
</g>
<!-- Node7 -->
<g id="Node000007" class="node">
<title>Node7</title>
<g id="a_Node000007"><a xlink:title=" ">
<polygon fill="#e0e0e0" stroke="#999999" points="641.34,-134.5 569.34,-134.5 569.34,-115.5 641.34,-115.5 641.34,-134.5"/>
<text text-anchor="middle" x="605.34" y="-122.5" font-family="Helvetica,sans-Serif" font-size="10.00">sys/types.h</text>
</a>
</g>
</g>
<!-- Node2&#45;&gt;Node7 -->
<g id="edge8_Node000002_Node000007" class="edge">
<title>Node2&#45;&gt;Node7</title>
<g id="a_edge8_Node000002_Node000007"><a xlink:title=" ">
<path fill="none" stroke="#63b8ff" d="M760.32,-310.35C721.21,-298.06 640.88,-266.32 610.34,-206 600.64,-186.83 600.82,-161.69 602.49,-144.75"/>
<polygon fill="#63b8ff" stroke="#63b8ff" points="606,-144.87 603.78,-134.51 599.06,-143.99 606,-144.87"/>
</a>
</g>
</g>
<!-- Node8 -->
<g id="Node000008" class="node">
<title>Node8</title>
<g id="a_Node000008"><a xlink:href="root_2protocol_2protocol_8h.html" target="_top" xlink:title=" ">
<polygon fill="white" stroke="#666666" points="550.84,-272 423.84,-272 423.84,-242 550.84,-242 550.84,-272"/>
<text text-anchor="start" x="431.84" y="-260" font-family="Helvetica,sans-Serif" font-size="10.00">protocols/root/protocol</text>
<text text-anchor="middle" x="487.34" y="-249" font-family="Helvetica,sans-Serif" font-size="10.00">/protocol.h</text>
</a>
</g>
</g>
<!-- Node2&#45;&gt;Node8 -->
<g id="edge9_Node000002_Node000008" class="edge">
<title>Node2&#45;&gt;Node8</title>
<g id="a_edge9_Node000002_Node000008"><a xlink:title=" ">
<path fill="none" stroke="#63b8ff" d="M760.17,-312.1C718.43,-303.83 626.48,-285.59 560.88,-272.58"/>
<polygon fill="#63b8ff" stroke="#63b8ff" points="561.48,-269.14 550.99,-270.62 560.12,-276 561.48,-269.14"/>
</a>
</g>
</g>
<!-- Node16 -->
<g id="Node000016" class="node">
<title>Node16</title>
<g id="a_Node000016"><a xlink:href="wire__codec_8h.html" target="_top" xlink:title=" ">
<polygon fill="white" stroke="#666666" points="746.84,-206 619.84,-206 619.84,-176 746.84,-176 746.84,-206"/>
<text text-anchor="start" x="627.84" y="-194" font-family="Helvetica,sans-Serif" font-size="10.00">protocols/root/protocol</text>
<text text-anchor="middle" x="683.34" y="-183" font-family="Helvetica,sans-Serif" font-size="10.00">/codec/wire_codec.h</text>
</a>
</g>
</g>
<!-- Node2&#45;&gt;Node16 -->
<g id="edge25_Node000002_Node000016" class="edge">
<title>Node2&#45;&gt;Node16</title>
<g id="a_edge25_Node000002_Node000016"><a xlink:title=" ">
<path fill="none" stroke="#63b8ff" d="M760.24,-308.56C743.43,-301.44 720.95,-289.42 707.34,-272 694.81,-255.97 688.81,-233.49 685.94,-216.44"/>
<polygon fill="#63b8ff" stroke="#63b8ff" points="689.35,-215.55 684.47,-206.14 682.42,-216.53 689.35,-215.55"/>
</a>
</g>
</g>
<!-- Node18 -->
<g id="Node000018" class="node">
<title>Node18</title>
<g id="a_Node000018"><a xlink:href="brix__net_8h.html" target="_top" xlink:title=" ">
<polygon fill="white" stroke="#666666" points="814.84,-266.5 749.84,-266.5 749.84,-247.5 814.84,-247.5 814.84,-266.5"/>
<text text-anchor="middle" x="782.34" y="-254.5" font-family="Helvetica,sans-Serif" font-size="10.00">brix_net.h</text>
</a>
</g>
</g>
<!-- Node2&#45;&gt;Node18 -->
<g id="edge26_Node000002_Node000018" class="edge">
<title>Node2&#45;&gt;Node18</title>
<g id="a_edge26_Node000002_Node000018"><a xlink:title=" ">
<path fill="none" stroke="#63b8ff" d="M782.34,-307.87C782.34,-299.75 782.34,-287.31 782.34,-276.89"/>
<polygon fill="#63b8ff" stroke="#63b8ff" points="785.84,-276.67 782.34,-266.67 778.84,-276.67 785.84,-276.67"/>
</a>
</g>
</g>
<!-- Node19 -->
<g id="Node000019" class="node">
<title>Node19</title>
<g id="a_Node000019"><a xlink:href="brix__auth_8h.html" target="_top" xlink:title=" ">
<polygon fill="white" stroke="#666666" points="903.84,-266.5 832.84,-266.5 832.84,-247.5 903.84,-247.5 903.84,-266.5"/>
<text text-anchor="middle" x="868.34" y="-254.5" font-family="Helvetica,sans-Serif" font-size="10.00">brix_auth.h</text>
</a>
</g>
</g>
<!-- Node2&#45;&gt;Node19 -->
<g id="edge27_Node000002_Node000019" class="edge">
<title>Node2&#45;&gt;Node19</title>
<g id="a_edge27_Node000002_Node000019"><a xlink:title=" ">
<path fill="none" stroke="#63b8ff" d="M795.03,-307.87C808.75,-298.54 830.84,-283.51 847.19,-272.38"/>
<polygon fill="#63b8ff" stroke="#63b8ff" points="849.3,-275.19 855.6,-266.67 845.36,-269.4 849.3,-275.19"/>
</a>
</g>
</g>
<!-- Node2&#45;&gt;Node20 -->
<g id="edge28_Node000002_Node000020" class="edge">
<title>Node2&#45;&gt;Node20</title>
<g id="a_edge28_Node000002_Node000020"><a xlink:title=" ">
<path fill="none" stroke="#63b8ff" d="M804.57,-312.11C841.9,-304.63 919.45,-288.59 984.34,-272 987.68,-271.15 991.14,-270.22 994.6,-269.27"/>
<polygon fill="#63b8ff" stroke="#63b8ff" points="995.58,-272.62 1004.25,-266.53 993.68,-265.89 995.58,-272.62"/>
</a>
</g>
</g>
<!-- Node6&#45;&gt;Node4 -->
<g id="edge6_Node000006_Node000004" class="edge">
<title>Node6&#45;&gt;Node4</title>
<g id="a_edge6_Node000006_Node000004"><a xlink:title=" ">
<path fill="none" stroke="#63b8ff" d="M905.06,-181.37C910.3,-171.78 918.91,-156.05 925.61,-143.8"/>
<polygon fill="#63b8ff" stroke="#63b8ff" points="928.74,-145.36 930.47,-134.91 922.6,-142 928.74,-145.36"/>
</a>
</g>
</g>
<!-- Node6&#45;&gt;Node6 -->
<g id="edge7_Node000006_Node000006" class="edge">
<title>Node6&#45;&gt;Node6</title>
<g id="a_edge7_Node000006_Node000006"><a xlink:title=" ">
<path fill="none" stroke="#63b8ff" d="M913.67,-200.66C927.24,-206.34 942.34,-203.12 942.34,-191 942.34,-181.82 933.67,-177.75 923.56,-178.78"/>
<polygon fill="#63b8ff" stroke="#63b8ff" points="922.48,-175.45 913.67,-181.34 924.23,-182.23 922.48,-175.45"/>
</a>
</g>
</g>
<!-- Node9 -->
<g id="Node000009" class="node">
<title>Node9</title>
<g id="a_Node000009"><a xlink:href="types_8h.html" target="_top" xlink:title=" ">
<polygon fill="white" stroke="#666666" points="453.84,-74 400.84,-74 400.84,-55 453.84,-55 453.84,-74"/>
<text text-anchor="middle" x="427.34" y="-62" font-family="Helvetica,sans-Serif" font-size="10.00">types.h</text>
</a>
</g>
</g>
<!-- Node8&#45;&gt;Node9 -->
<g id="edge10_Node000008_Node000009" class="edge">
<title>Node8&#45;&gt;Node9</title>
<g id="a_edge10_Node000008_Node000009"><a xlink:title=" ">
<path fill="none" stroke="#63b8ff" d="M471.96,-241.73C462.97,-232.46 452.25,-219.59 446.34,-206 428.63,-165.32 426.44,-112.27 426.69,-84.44"/>
<polygon fill="#63b8ff" stroke="#63b8ff" points="430.2,-84.24 426.91,-74.16 423.2,-84.09 430.2,-84.24"/>
</a>
</g>
</g>
<!-- Node10 -->
<g id="Node000010" class="node">
<title>Node10</title>
<g id="a_Node000010"><a xlink:href="opcodes_8h.html" target="_top" xlink:title=" ">
<polygon fill="white" stroke="#666666" points="197.34,-74 131.34,-74 131.34,-55 197.34,-55 197.34,-74"/>
<text text-anchor="middle" x="164.34" y="-62" font-family="Helvetica,sans-Serif" font-size="10.00">opcodes.h</text>
</a>
</g>
</g>
<!-- Node8&#45;&gt;Node10 -->
<g id="edge12_Node000008_Node000010" class="edge">
<title>Node8&#45;&gt;Node10</title>
<g id="a_edge12_Node000008_Node000010"><a xlink:title=" ">
<path fill="none" stroke="#63b8ff" d="M423.82,-243.72C362.61,-231.77 274.41,-214.26 240.34,-206 135.74,-180.64 72.25,-225.85 7.34,-140 -25.12,-97.07 63.9,-77.79 120.86,-70.05"/>
<polygon fill="#63b8ff" stroke="#63b8ff" points="121.61,-73.48 131.08,-68.74 120.72,-66.54 121.61,-73.48"/>
</a>
</g>
</g>
<!-- Node11 -->
<g id="Node000011" class="node">
<title>Node11</title>
<g id="a_Node000011"><a xlink:href="flags_8h.html" target="_top" xlink:title=" ">
<polygon fill="white" stroke="#666666" points="562.84,-200.5 513.84,-200.5 513.84,-181.5 562.84,-181.5 562.84,-200.5"/>
<text text-anchor="middle" x="538.34" y="-188.5" font-family="Helvetica,sans-Serif" font-size="10.00">flags.h</text>
</a>
</g>
</g>
<!-- Node8&#45;&gt;Node11 -->
<g id="edge13_Node000008_Node000011" class="edge">
<title>Node8&#45;&gt;Node11</title>
<g id="a_edge13_Node000008_Node000011"><a xlink:title=" ">
<path fill="none" stroke="#63b8ff" d="M498.66,-241.8C506.45,-232.01 516.84,-218.98 525.03,-208.7"/>
<polygon fill="#63b8ff" stroke="#63b8ff" points="527.8,-210.85 531.29,-200.84 522.32,-206.48 527.8,-210.85"/>
</a>
</g>
</g>
<!-- Node12 -->
<g id="Node000012" class="node">
<title>Node12</title>
<g id="a_Node000012"><a xlink:href="wire_8h.html" target="_top" xlink:title=" ">
<polygon fill="white" stroke="#666666" points="296.84,-200.5 249.84,-200.5 249.84,-181.5 296.84,-181.5 296.84,-200.5"/>
<text text-anchor="middle" x="273.34" y="-188.5" font-family="Helvetica,sans-Serif" font-size="10.00">wire.h</text>
</a>
</g>
</g>
<!-- Node8&#45;&gt;Node12 -->
<g id="edge14_Node000008_Node000012" class="edge">
<title>Node8&#45;&gt;Node12</title>
<g id="a_edge14_Node000008_Node000012"><a xlink:title=" ">
<path fill="none" stroke="#63b8ff" d="M440.38,-241.95C400.06,-229.9 342.94,-212.81 307.03,-202.08"/>
<polygon fill="#63b8ff" stroke="#63b8ff" points="307.64,-198.6 297.05,-199.09 305.63,-205.31 307.64,-198.6"/>
</a>
</g>
</g>
<!-- Node8&#45;&gt;Node16 -->
<g id="edge20_Node000008_Node000016" class="edge">
<title>Node8&#45;&gt;Node16</title>
<g id="a_edge20_Node000008_Node000016"><a xlink:title=" ">
<path fill="none" stroke="#63b8ff" d="M530.35,-241.95C559.84,-232.33 599.15,-219.49 630.54,-209.24"/>
<polygon fill="#63b8ff" stroke="#63b8ff" points="632.01,-212.44 640.43,-206.01 629.83,-205.79 632.01,-212.44"/>
</a>
</g>
</g>
<!-- Node17 -->
<g id="Node000017" class="node">
<title>Node17</title>
<g id="a_Node000017"><a xlink:href="gsi_8h.html" target="_top" xlink:title=" ">
<polygon fill="white" stroke="#666666" points="495.34,-200.5 455.34,-200.5 455.34,-181.5 495.34,-181.5 495.34,-200.5"/>
<text text-anchor="middle" x="475.34" y="-188.5" font-family="Helvetica,sans-Serif" font-size="10.00">gsi.h</text>
</a>
</g>
</g>
<!-- Node8&#45;&gt;Node17 -->
<g id="edge24_Node000008_Node000017" class="edge">
<title>Node8&#45;&gt;Node17</title>
<g id="a_edge24_Node000008_Node000017"><a xlink:title=" ">
<path fill="none" stroke="#63b8ff" d="M484.68,-241.8C482.97,-232.7 480.74,-220.79 478.88,-210.9"/>
<polygon fill="#63b8ff" stroke="#63b8ff" points="482.28,-210.03 477,-200.84 475.4,-211.32 482.28,-210.03"/>
</a>
</g>
</g>
<!-- Node9&#45;&gt;Node3 -->
<g id="edge11_Node000009_Node000003" class="edge">
<title>Node9&#45;&gt;Node3</title>
<g id="a_edge11_Node000009_Node000003"><a xlink:title=" ">
<path fill="none" stroke="#63b8ff" d="M454.25,-57.93C500.47,-48.36 594.95,-28.8 646.97,-18.03"/>
<polygon fill="#63b8ff" stroke="#63b8ff" points="647.7,-21.45 656.79,-16 646.29,-14.6 647.7,-21.45"/>
</a>
</g>
</g>
<!-- Node13 -->
<g id="Node000013" class="node">
<title>Node13</title>
<g id="a_Node000013"><a xlink:href="wire__core__requests_8h.html" target="_top" xlink:title=" ">
<polygon fill="white" stroke="#666666" points="399.34,-134.5 279.34,-134.5 279.34,-115.5 399.34,-115.5 399.34,-134.5"/>
<text text-anchor="middle" x="339.34" y="-122.5" font-family="Helvetica,sans-Serif" font-size="10.00">wire_core_requests.h</text>
</a>
</g>
</g>
<!-- Node12&#45;&gt;Node13 -->
<g id="edge15_Node000012_Node000013" class="edge">
<title>Node12&#45;&gt;Node13</title>
<g id="a_edge15_Node000012_Node000013"><a xlink:title=" ">
<path fill="none" stroke="#63b8ff" d="M282.24,-181.37C292.61,-171.31 309.97,-154.48 322.83,-142.01"/>
<polygon fill="#63b8ff" stroke="#63b8ff" points="325.41,-144.38 330.16,-134.91 320.54,-139.35 325.41,-144.38"/>
</a>
</g>
</g>
<!-- Node14 -->
<g id="Node000014" class="node">
<title>Node14</title>
<g id="a_Node000014"><a xlink:href="wire__write__extended__requests_8h.html" target="_top" xlink:title=" ">
<polygon fill="white" stroke="#666666" points="135.84,-140 16.84,-140 16.84,-110 135.84,-110 135.84,-140"/>
<text text-anchor="start" x="24.84" y="-128" font-family="Helvetica,sans-Serif" font-size="10.00">wire_write_extended</text>
<text text-anchor="middle" x="76.34" y="-117" font-family="Helvetica,sans-Serif" font-size="10.00">_requests.h</text>
</a>
</g>
</g>
<!-- Node12&#45;&gt;Node14 -->
<g id="edge18_Node000012_Node000014" class="edge">
<title>Node12&#45;&gt;Node14</title>
<g id="a_edge18_Node000012_Node000014"><a xlink:title=" ">
<path fill="none" stroke="#63b8ff" d="M249.58,-182.28C219.95,-172.66 168.45,-155.93 129.28,-143.2"/>
<polygon fill="#63b8ff" stroke="#63b8ff" points="130.2,-139.82 119.61,-140.06 128.04,-146.48 130.2,-139.82"/>
</a>
</g>
</g>
<!-- Node15 -->
<g id="Node000015" class="node">
<title>Node15</title>
<g id="a_Node000015"><a xlink:href="wire__vendor__ext_8h.html" target="_top" xlink:title=" ">
<polygon fill="white" stroke="#666666" points="260.84,-134.5 153.84,-134.5 153.84,-115.5 260.84,-115.5 260.84,-134.5"/>
<text text-anchor="middle" x="207.34" y="-122.5" font-family="Helvetica,sans-Serif" font-size="10.00">wire_vendor_ext.h</text>
</a>
</g>
</g>
<!-- Node12&#45;&gt;Node15 -->
<g id="edge19_Node000012_Node000015" class="edge">
<title>Node12&#45;&gt;Node15</title>
<g id="a_edge19_Node000012_Node000015"><a xlink:title=" ">
<path fill="none" stroke="#63b8ff" d="M264.44,-181.37C254.06,-171.31 236.71,-154.48 223.85,-142.01"/>
<polygon fill="#63b8ff" stroke="#63b8ff" points="226.14,-139.35 216.52,-134.91 221.27,-144.38 226.14,-139.35"/>
</a>
</g>
</g>
<!-- Node13&#45;&gt;Node9 -->
<g id="edge16_Node000013_Node000009" class="edge">
<title>Node13&#45;&gt;Node9</title>
<g id="a_edge16_Node000013_Node000009"><a xlink:title=" ">
<path fill="none" stroke="#63b8ff" d="M352.32,-115.37C366.36,-106.04 388.97,-91.01 405.7,-79.88"/>
<polygon fill="#63b8ff" stroke="#63b8ff" points="407.91,-82.62 414.3,-74.17 404.04,-76.79 407.91,-82.62"/>
</a>
</g>
</g>
<!-- Node13&#45;&gt;Node10 -->
<g id="edge17_Node000013_Node000010" class="edge">
<title>Node13&#45;&gt;Node10</title>
<g id="a_edge17_Node000013_Node000010"><a xlink:title=" ">
<path fill="none" stroke="#63b8ff" d="M313.89,-115.49C283.69,-105.4 233.18,-88.51 199.32,-77.19"/>
<polygon fill="#63b8ff" stroke="#63b8ff" points="200.41,-73.87 189.82,-74.02 198.19,-80.51 200.41,-73.87"/>
</a>
</g>
</g>
<!-- Node16&#45;&gt;Node3 -->
<g id="edge21_Node000016_Node000003" class="edge">
<title>Node16&#45;&gt;Node3</title>
<g id="a_edge21_Node000016_Node000003"><a xlink:title=" ">
<path fill="none" stroke="#63b8ff" d="M683.34,-175.91C683.34,-143.85 683.34,-65.38 683.34,-29.26"/>
<polygon fill="#63b8ff" stroke="#63b8ff" points="686.84,-29.13 683.34,-19.13 679.84,-29.13 686.84,-29.13"/>
</a>
</g>
</g>
<!-- Node16&#45;&gt;Node4 -->
<g id="edge22_Node000016_Node000004" class="edge">
<title>Node16&#45;&gt;Node4</title>
<g id="a_edge22_Node000016_Node000004"><a xlink:title=" ">
<path fill="none" stroke="#63b8ff" d="M738.64,-175.95C786.69,-163.75 855.03,-146.4 897.2,-135.69"/>
<polygon fill="#63b8ff" stroke="#63b8ff" points="898.25,-139.03 907.08,-133.18 896.52,-132.25 898.25,-139.03"/>
</a>
</g>
</g>
<!-- Node16&#45;&gt;Node7 -->
<g id="edge23_Node000016_Node000007" class="edge">
<title>Node16&#45;&gt;Node7</title>
<g id="a_edge23_Node000016_Node000007"><a xlink:title=" ">
<path fill="none" stroke="#63b8ff" d="M666.03,-175.8C653.63,-165.62 636.94,-151.93 624.2,-141.48"/>
<polygon fill="#63b8ff" stroke="#63b8ff" points="626.07,-138.48 616.12,-134.84 621.63,-143.89 626.07,-138.48"/>
</a>
</g>
</g>
</g>
</svg>
