<?xml version="1.0" encoding="UTF-8" standalone="no"?>
<!DOCTYPE svg PUBLIC "-//W3C//DTD SVG 1.1//EN"
 "http://www.w3.org/Graphics/SVG/1.1/DTD/svg11.dtd">
<!-- Generated by graphviz version 2.43.0 (0)
 -->
<!-- Title: client/lib/cli/cli_hint.h Pages: 1 -->
<!--zoomable 170 -->

<svg id="main" version="1.1" xmlns="http://www.w3.org/2000/svg" xmlns:xlink="http://www.w3.org/1999/xlink" xml:space="preserve" onload="init(evt)">
<style type="text/css"><![CDATA[
.node, .edge {opacity: 0.7;}
.node.selected, .edge.selected {opacity: 1;}
.edge:hover path { stroke: red; }
.edge:hover polygon { stroke: red; fill: red; }
]]></style>

<defs>
  <circle id="rim" cx="0" cy="0" r="7"/>
  <circle id="rim2" cx="0" cy="0" r="3.5"/>
  <g id="zoomPlus">
    <use xlink:href="#rim" fill="#404040"><set attributeName="fill" to="#808080" begin="zoomplus.mouseover" end="zoomplus.mouseout"/></use>
    <path d="M-4,0h8M0,-4v8" fill="none" stroke="white" stroke-width="1.5" pointer-events="none"/>
  </g>
  <g id="zoomMin">
    <use xlink:href="#rim" fill="#404040"><set attributeName="fill" to="#808080" begin="zoomminus.mouseover" end="zoomminus.mouseout"/></use>
    <path d="M-4,0h8" fill="none" stroke="white" stroke-width="1.5" pointer-events="none"/>
  </g>
  <g id="arrowUp" transform="translate(30 24)">
    <use xlink:href="#rim"/>
    <path pointer-events="none" fill="none" stroke="white" stroke-width="1.5" d="M0,-3.0v7 M-2.5,-0.5L0,-3.0L2.5,-0.5"/>
  </g>
  <g id="arrowRight" transform="rotate(90) translate(36 -43)">
    <use xlink:href="#rim"/>
    <path pointer-events="none" fill="none" stroke="white" stroke-width="1.5" d="M0,-3.0v7 M-2.5,-0.5L0,-3.0L2.5,-0.5"/>
  </g>
  <g id="arrowDown" transform="rotate(180) translate(-30 -48)">
    <use xlink:href="#rim"/>
    <path pointer-events="none" fill="none" stroke="white" stroke-width="1.5" d="M0,-3.0v7 M-2.5,-0.5L0,-3.0L2.5,-0.5"/>
  </g>
  <g id="arrowLeft" transform="rotate(270) translate(-36 17)">
    <use xlink:href="#rim"/>
    <path pointer-events="none" fill="none" stroke="white" stroke-width="1.5" d="M0,-3.0v7 M-2.5,-0.5L0,-3.0L2.5,-0.5"/>
  </g>
  <g id="resetDef">
    <use xlink:href="#rim2" fill="#404040"><set attributeName="fill" to="#808080" begin="reset.mouseover" end="reset.mouseout"/></use>
  </g>
</defs>
<script type="application/ecmascript">
var viewWidth = 1413;
var viewHeight = 170;
var sectionId = 'dynsection-1';
</script>
<script type="application/ecmascript" xlink:href="svg.min.js"/>
<svg id="graph" class="graph">
<g id="viewport">
<title>client/lib/cli/cli_hint.h</title>
<!-- Node1 -->
<g id="Node000001" class="node">
<title>Node1</title>
<g id="a_Node000001"><a xlink:title=" ">
<polygon fill="#999999" stroke="#666666" points="841.5,-162 754.5,-162 754.5,-132 841.5,-132 841.5,-162"/>
<text text-anchor="start" x="762.5" y="-150" font-family="Helvetica,sans-Serif" font-size="10.00">client/lib/cli/cli</text>
<text text-anchor="middle" x="798" y="-139" font-family="Helvetica,sans-Serif" font-size="10.00">_hint.h</text>
</a>
</g>
</g>
<!-- Node2 -->
<g id="Node000002" class="node">
<title>Node2</title>
<g id="a_Node000002"><a xlink:href="xrdcksum_8c.html" target="_top" xlink:title=" ">
<polygon fill="white" stroke="#666666" points="164,-90.5 0,-90.5 0,-71.5 164,-71.5 164,-90.5"/>
<text text-anchor="middle" x="82" y="-78.5" font-family="Helvetica,sans-Serif" font-size="10.00">client/apps/cksum/xrdcksum.c</text>
</a>
</g>
</g>
<!-- Node1&#45;&gt;Node2 -->
<g id="edge1_Node000001_Node000002" class="edge">
<title>Node1&#45;&gt;Node2</title>
<g id="a_edge1_Node000001_Node000002"><a xlink:title=" ">
<path fill="none" stroke="#63b8ff" d="M744.3,-143.03C636.01,-136.74 383.79,-120.61 173,-96 159.98,-94.48 145.97,-92.5 132.93,-90.5"/>
<polygon fill="#63b8ff" stroke="#63b8ff" points="744.14,-146.52 754.32,-143.6 744.54,-139.53 744.14,-146.52"/>
</a>
</g>
</g>
<!-- Node3 -->
<g id="Node000003" class="node">
<title>Node3</title>
<g id="a_Node000003"><a xlink:href="xrdcp__internal_8h.html" target="_top" xlink:title=" ">
<polygon fill="white" stroke="#666666" points="308,-96 182,-96 182,-66 308,-66 308,-96"/>
<text text-anchor="start" x="190" y="-84" font-family="Helvetica,sans-Serif" font-size="10.00">client/apps/copy/xrdcp</text>
<text text-anchor="middle" x="245" y="-73" font-family="Helvetica,sans-Serif" font-size="10.00">_internal.h</text>
</a>
</g>
</g>
<!-- Node1&#45;&gt;Node3 -->
<g id="edge2_Node000001_Node000003" class="edge">
<title>Node1&#45;&gt;Node3</title>
<g id="a_edge2_Node000001_Node000003"><a xlink:title=" ">
<path fill="none" stroke="#63b8ff" d="M744.26,-141.98C655.17,-134.95 471.37,-118.98 317,-96 314.1,-95.57 311.15,-95.1 308.16,-94.61"/>
<polygon fill="#63b8ff" stroke="#63b8ff" points="744.15,-145.48 754.39,-142.77 744.7,-138.5 744.15,-145.48"/>
</a>
</g>
</g>
<!-- Node7 -->
<g id="Node000007" class="node">
<title>Node7</title>
<g id="a_Node000007"><a xlink:href="xrd_8c.html" target="_top" xlink:title=" ">
<polygon fill="white" stroke="#666666" points="447.5,-90.5 326.5,-90.5 326.5,-71.5 447.5,-71.5 447.5,-90.5"/>
<text text-anchor="middle" x="387" y="-78.5" font-family="Helvetica,sans-Serif" font-size="10.00">client/apps/diag/xrd.c</text>
</a>
</g>
</g>
<!-- Node1&#45;&gt;Node7 -->
<g id="edge6_Node000001_Node000007" class="edge">
<title>Node1&#45;&gt;Node7</title>
<g id="a_edge6_Node000001_Node000007"><a xlink:title=" ">
<path fill="none" stroke="#63b8ff" d="M744.34,-139.01C677.05,-130.04 558.22,-113.53 457,-96 447.47,-94.35 437.26,-92.41 427.65,-90.5"/>
<polygon fill="#63b8ff" stroke="#63b8ff" points="743.91,-142.48 754.28,-140.33 744.83,-135.54 743.91,-142.48"/>
</a>
</g>
</g>
<!-- Node8 -->
<g id="Node000008" class="node">
<title>Node8</title>
<g id="a_Node000008"><a xlink:href="xrddiag_8c.html" target="_top" xlink:title=" ">
<polygon fill="white" stroke="#666666" points="608,-90.5 466,-90.5 466,-71.5 608,-71.5 608,-90.5"/>
<text text-anchor="middle" x="537" y="-78.5" font-family="Helvetica,sans-Serif" font-size="10.00">client/apps/diag/xrddiag.c</text>
</a>
</g>
</g>
<!-- Node1&#45;&gt;Node8 -->
<g id="edge7_Node000001_Node000008" class="edge">
<title>Node1&#45;&gt;Node8</title>
<g id="a_edge7_Node000001_Node000008"><a xlink:title=" ">
<path fill="none" stroke="#63b8ff" d="M744.34,-132.84C692.75,-120.19 616.25,-101.43 572.04,-90.59"/>
<polygon fill="#63b8ff" stroke="#63b8ff" points="743.77,-136.31 754.31,-135.29 745.44,-129.51 743.77,-136.31"/>
</a>
</g>
</g>
<!-- Node9 -->
<g id="Node000009" class="node">
<title>Node9</title>
<g id="a_Node000009"><a xlink:href="brixmount_8c.html" target="_top" xlink:title=" ">
<polygon fill="white" stroke="#666666" points="769.5,-90.5 626.5,-90.5 626.5,-71.5 769.5,-71.5 769.5,-90.5"/>
<text text-anchor="middle" x="698" y="-78.5" font-family="Helvetica,sans-Serif" font-size="10.00">client/apps/fs/brixmount.c</text>
</a>
</g>
</g>
<!-- Node1&#45;&gt;Node9 -->
<g id="edge8_Node000001_Node000009" class="edge">
<title>Node1&#45;&gt;Node9</title>
<g id="a_edge8_Node000001_Node000009"><a xlink:title=" ">
<path fill="none" stroke="#63b8ff" d="M767.31,-126.36C748.66,-114.42 725.77,-99.77 711.53,-90.66"/>
<polygon fill="#63b8ff" stroke="#63b8ff" points="765.5,-129.35 775.81,-131.8 769.27,-123.46 765.5,-129.35"/>
</a>
</g>
</g>
<!-- Node10 -->
<g id="Node000010" class="node">
<title>Node10</title>
<g id="a_Node000010"><a xlink:href="xrdfs_8c.html" target="_top" xlink:title=" ">
<polygon fill="white" stroke="#666666" points="680,-24.5 562,-24.5 562,-5.5 680,-5.5 680,-24.5"/>
<text text-anchor="middle" x="621" y="-12.5" font-family="Helvetica,sans-Serif" font-size="10.00">client/apps/fs/xrdfs.c</text>
</a>
</g>
</g>
<!-- Node1&#45;&gt;Node10 -->
<g id="edge9_Node000001_Node000010" class="edge">
<title>Node1&#45;&gt;Node10</title>
<g id="a_edge9_Node000001_Node000010"><a xlink:title=" ">
<path fill="none" stroke="#63b8ff" d="M797.95,-121.82C796.63,-104.23 792.04,-80.95 778,-66 762.19,-49.16 703.85,-33.67 662.92,-24.52"/>
<polygon fill="#63b8ff" stroke="#63b8ff" points="794.45,-122.09 798.4,-131.92 801.45,-121.77 794.45,-122.09"/>
</a>
</g>
</g>
<!-- Node11 -->
<g id="Node000011" class="node">
<title>Node11</title>
<g id="a_Node000011"><a xlink:href="xrdfs__internal_8h.html" target="_top" xlink:title=" ">
<polygon fill="white" stroke="#666666" points="936,-96 826,-96 826,-66 936,-66 936,-96"/>
<text text-anchor="start" x="834" y="-84" font-family="Helvetica,sans-Serif" font-size="10.00">client/apps/fs/xrdfs</text>
<text text-anchor="middle" x="881" y="-73" font-family="Helvetica,sans-Serif" font-size="10.00">_internal.h</text>
</a>
</g>
</g>
<!-- Node1&#45;&gt;Node11 -->
<g id="edge10_Node000001_Node000011" class="edge">
<title>Node1&#45;&gt;Node11</title>
<g id="a_edge10_Node000001_Node000011"><a xlink:title=" ">
<path fill="none" stroke="#63b8ff" d="M824.61,-125.48C837.02,-115.91 851.47,-104.77 862.63,-96.16"/>
<polygon fill="#63b8ff" stroke="#63b8ff" points="822.2,-122.92 816.42,-131.8 826.48,-128.46 822.2,-122.92"/>
</a>
</g>
</g>
<!-- Node17 -->
<g id="Node000017" class="node">
<title>Node17</title>
<g id="a_Node000017"><a xlink:href="credinfo_8c.html" target="_top" xlink:title=" ">
<polygon fill="white" stroke="#666666" points="1061.5,-96 954.5,-96 954.5,-66 1061.5,-66 1061.5,-96"/>
<text text-anchor="start" x="962.5" y="-84" font-family="Helvetica,sans-Serif" font-size="10.00">client/lib/auth/cred</text>
<text text-anchor="middle" x="1008" y="-73" font-family="Helvetica,sans-Serif" font-size="10.00">/credinfo.c</text>
</a>
</g>
</g>
<!-- Node1&#45;&gt;Node17 -->
<g id="edge17_Node000001_Node000017" class="edge">
<title>Node1&#45;&gt;Node17</title>
<g id="a_edge17_Node000001_Node000017"><a xlink:title=" ">
<path fill="none" stroke="#63b8ff" d="M851.32,-129.75C885.49,-119.34 929.37,-105.96 962,-96.02"/>
<polygon fill="#63b8ff" stroke="#63b8ff" points="850.06,-126.48 841.51,-132.74 852.1,-133.17 850.06,-126.48"/>
</a>
</g>
</g>
<!-- Node18 -->
<g id="Node000018" class="node">
<title>Node18</title>
<g id="a_Node000018"><a xlink:href="cli__conn_8c.html" target="_top" xlink:title=" ">
<polygon fill="white" stroke="#666666" points="1166.5,-96 1079.5,-96 1079.5,-66 1166.5,-66 1166.5,-96"/>
<text text-anchor="start" x="1087.5" y="-84" font-family="Helvetica,sans-Serif" font-size="10.00">client/lib/cli/cli</text>
<text text-anchor="middle" x="1123" y="-73" font-family="Helvetica,sans-Serif" font-size="10.00">_conn.c</text>
</a>
</g>
</g>
<!-- Node1&#45;&gt;Node18 -->
<g id="edge18_Node000001_Node000018" class="edge">
<title>Node1&#45;&gt;Node18</title>
<g id="a_edge18_Node000001_Node000018"><a xlink:title=" ">
<path fill="none" stroke="#63b8ff" d="M851.64,-137.51C906.88,-128.45 995.34,-113.08 1071,-96 1073.74,-95.38 1076.54,-94.72 1079.37,-94.02"/>
<polygon fill="#63b8ff" stroke="#63b8ff" points="851.03,-134.06 841.72,-139.13 852.16,-140.97 851.03,-134.06"/>
</a>
</g>
</g>
<!-- Node19 -->
<g id="Node000019" class="node">
<title>Node19</title>
<g id="a_Node000019"><a xlink:href="cli__hint_8c.html" target="_top" xlink:title=" ">
<polygon fill="white" stroke="#666666" points="1271.5,-96 1184.5,-96 1184.5,-66 1271.5,-66 1271.5,-96"/>
<text text-anchor="start" x="1192.5" y="-84" font-family="Helvetica,sans-Serif" font-size="10.00">client/lib/cli/cli</text>
<text text-anchor="middle" x="1228" y="-73" font-family="Helvetica,sans-Serif" font-size="10.00">_hint.c</text>
</a>
</g>
</g>
<!-- Node1&#45;&gt;Node19 -->
<g id="edge19_Node000001_Node000019" class="edge">
<title>Node1&#45;&gt;Node19</title>
<g id="a_edge19_Node000001_Node000019"><a xlink:title=" ">
<path fill="none" stroke="#63b8ff" d="M851.63,-141.15C925.24,-133.98 1061.46,-118.89 1176,-96 1178.75,-95.45 1181.57,-94.84 1184.41,-94.18"/>
<polygon fill="#63b8ff" stroke="#63b8ff" points="851.29,-137.66 841.67,-142.11 851.96,-144.63 851.29,-137.66"/>
</a>
</g>
</g>
<!-- Node20 -->
<g id="Node000020" class="node">
<title>Node20</title>
<g id="a_Node000020"><a xlink:href="envalias_8c.html" target="_top" xlink:title=" ">
<polygon fill="white" stroke="#666666" points="1404.5,-96 1289.5,-96 1289.5,-66 1404.5,-66 1404.5,-96"/>
<text text-anchor="start" x="1297.5" y="-84" font-family="Helvetica,sans-Serif" font-size="10.00">client/lib/core/config</text>
<text text-anchor="middle" x="1347" y="-73" font-family="Helvetica,sans-Serif" font-size="10.00">/envalias.c</text>
</a>
</g>
</g>
<!-- Node1&#45;&gt;Node20 -->
<g id="edge20_Node000001_Node000020" class="edge">
<title>Node1&#45;&gt;Node20</title>
<g id="a_edge20_Node000001_Node000020"><a xlink:title=" ">
<path fill="none" stroke="#63b8ff" d="M852,-142.29C941.54,-135.71 1126.2,-120.36 1281,-96 1283.78,-95.56 1286.61,-95.08 1289.47,-94.58"/>
<polygon fill="#63b8ff" stroke="#63b8ff" points="851.54,-138.81 841.83,-143.03 852.05,-145.79 851.54,-138.81"/>
</a>
</g>
</g>
<!-- Node4 -->
<g id="Node000004" class="node">
<title>Node4</title>
<g id="a_Node000004"><a xlink:href="xrdcp_8c.html" target="_top" xlink:title=" ">
<polygon fill="white" stroke="#666666" points="164,-24.5 30,-24.5 30,-5.5 164,-5.5 164,-24.5"/>
<text text-anchor="middle" x="97" y="-12.5" font-family="Helvetica,sans-Serif" font-size="10.00">client/apps/copy/xrdcp.c</text>
</a>
</g>
</g>
<!-- Node3&#45;&gt;Node4 -->
<g id="edge3_Node000003_Node000004" class="edge">
<title>Node3&#45;&gt;Node4</title>
<g id="a_edge3_Node000003_Node000004"><a xlink:title=" ">
<path fill="none" stroke="#63b8ff" d="M203.24,-61.94C174.88,-49.68 138.68,-34.02 116.7,-24.52"/>
<polygon fill="#63b8ff" stroke="#63b8ff" points="201.95,-65.2 212.52,-65.95 204.73,-58.77 201.95,-65.2"/>
</a>
</g>
</g>
<!-- Node5 -->
<g id="Node000005" class="node">
<title>Node5</title>
<g id="a_Node000005"><a xlink:href="xrdcp__recursive_8c.html" target="_top" xlink:title=" ">
<polygon fill="white" stroke="#666666" points="308,-30 182,-30 182,0 308,0 308,-30"/>
<text text-anchor="start" x="190" y="-18" font-family="Helvetica,sans-Serif" font-size="10.00">client/apps/copy/xrdcp</text>
<text text-anchor="middle" x="245" y="-7" font-family="Helvetica,sans-Serif" font-size="10.00">_recursive.c</text>
</a>
</g>
</g>
<!-- Node3&#45;&gt;Node5 -->
<g id="edge4_Node000003_Node000005" class="edge">
<title>Node3&#45;&gt;Node5</title>
<g id="a_edge4_Node000003_Node000005"><a xlink:title=" ">
<path fill="none" stroke="#63b8ff" d="M245,-55.54C245,-46.96 245,-37.61 245,-30.16"/>
<polygon fill="#63b8ff" stroke="#63b8ff" points="241.5,-55.8 245,-65.8 248.5,-55.8 241.5,-55.8"/>
</a>
</g>
</g>
<!-- Node6 -->
<g id="Node000006" class="node">
<title>Node6</title>
<g id="a_Node000006"><a xlink:href="xrdcp__transfer_8c.html" target="_top" xlink:title=" ">
<polygon fill="white" stroke="#666666" points="452,-30 326,-30 326,0 452,0 452,-30"/>
<text text-anchor="start" x="334" y="-18" font-family="Helvetica,sans-Serif" font-size="10.00">client/apps/copy/xrdcp</text>
<text text-anchor="middle" x="389" y="-7" font-family="Helvetica,sans-Serif" font-size="10.00">_transfer.c</text>
</a>
</g>
</g>
<!-- Node3&#45;&gt;Node6 -->
<g id="edge5_Node000003_Node000006" class="edge">
<title>Node3&#45;&gt;Node6</title>
<g id="a_edge5_Node000003_Node000006"><a xlink:title=" ">
<path fill="none" stroke="#63b8ff" d="M285.99,-61.78C308.69,-51.69 336.48,-39.34 357.47,-30.01"/>
<polygon fill="#63b8ff" stroke="#63b8ff" points="284.32,-58.7 276.6,-65.95 287.16,-65.09 284.32,-58.7"/>
</a>
</g>
</g>
<!-- Node11&#45;&gt;Node10 -->
<g id="edge11_Node000011_Node000010" class="edge">
<title>Node11&#45;&gt;Node10</title>
<g id="a_edge11_Node000011_Node000010"><a xlink:title=" ">
<path fill="none" stroke="#63b8ff" d="M815.95,-63.99C765.16,-51.49 696.58,-34.6 655.75,-24.55"/>
<polygon fill="#63b8ff" stroke="#63b8ff" points="815.31,-67.44 825.86,-66.43 816.99,-60.64 815.31,-67.44"/>
</a>
</g>
</g>
<!-- Node12 -->
<g id="Node000012" class="node">
<title>Node12</title>
<g id="a_Node000012"><a xlink:href="xrdfs__data_8c.html" target="_top" xlink:title=" ">
<polygon fill="white" stroke="#666666" points="808,-30 698,-30 698,0 808,0 808,-30"/>
<text text-anchor="start" x="706" y="-18" font-family="Helvetica,sans-Serif" font-size="10.00">client/apps/fs/xrdfs</text>
<text text-anchor="middle" x="753" y="-7" font-family="Helvetica,sans-Serif" font-size="10.00">_data.c</text>
</a>
</g>
</g>
<!-- Node11&#45;&gt;Node12 -->
<g id="edge12_Node000011_Node000012" class="edge">
<title>Node11&#45;&gt;Node12</title>
<g id="a_edge12_Node000011_Node000012"><a xlink:title=" ">
<path fill="none" stroke="#63b8ff" d="M843.76,-61.38C823.73,-51.36 799.43,-39.22 781.02,-30.01"/>
<polygon fill="#63b8ff" stroke="#63b8ff" points="842.4,-64.61 852.91,-65.95 845.53,-58.35 842.4,-64.61"/>
</a>
</g>
</g>
<!-- Node13 -->
<g id="Node000013" class="node">
<title>Node13</title>
<g id="a_Node000013"><a xlink:href="xrdfs__fmt_8c.html" target="_top" xlink:title=" ">
<polygon fill="white" stroke="#666666" points="936,-30 826,-30 826,0 936,0 936,-30"/>
<text text-anchor="start" x="834" y="-18" font-family="Helvetica,sans-Serif" font-size="10.00">client/apps/fs/xrdfs</text>
<text text-anchor="middle" x="881" y="-7" font-family="Helvetica,sans-Serif" font-size="10.00">_fmt.c</text>
</a>
</g>
</g>
<!-- Node11&#45;&gt;Node13 -->
<g id="edge13_Node000011_Node000013" class="edge">
<title>Node11&#45;&gt;Node13</title>
<g id="a_edge13_Node000011_Node000013"><a xlink:title=" ">
<path fill="none" stroke="#63b8ff" d="M881,-55.54C881,-46.96 881,-37.61 881,-30.16"/>
<polygon fill="#63b8ff" stroke="#63b8ff" points="877.5,-55.8 881,-65.8 884.5,-55.8 877.5,-55.8"/>
</a>
</g>
</g>
<!-- Node14 -->
<g id="Node000014" class="node">
<title>Node14</title>
<g id="a_Node000014"><a xlink:href="xrdfs__meta_8c.html" target="_top" xlink:title=" ">
<polygon fill="white" stroke="#666666" points="1064,-30 954,-30 954,0 1064,0 1064,-30"/>
<text text-anchor="start" x="962" y="-18" font-family="Helvetica,sans-Serif" font-size="10.00">client/apps/fs/xrdfs</text>
<text text-anchor="middle" x="1009" y="-7" font-family="Helvetica,sans-Serif" font-size="10.00">_meta.c</text>
</a>
</g>
</g>
<!-- Node11&#45;&gt;Node14 -->
<g id="edge14_Node000011_Node000014" class="edge">
<title>Node11&#45;&gt;Node14</title>
<g id="a_edge14_Node000011_Node000014"><a xlink:title=" ">
<path fill="none" stroke="#63b8ff" d="M918.24,-61.38C938.27,-51.36 962.57,-39.22 980.98,-30.01"/>
<polygon fill="#63b8ff" stroke="#63b8ff" points="916.47,-58.35 909.09,-65.95 919.6,-64.61 916.47,-58.35"/>
</a>
</g>
</g>
<!-- Node15 -->
<g id="Node000015" class="node">
<title>Node15</title>
<g id="a_Node000015"><a xlink:href="xrdfs__walk_8c.html" target="_top" xlink:title=" ">
<polygon fill="white" stroke="#666666" points="1192,-30 1082,-30 1082,0 1192,0 1192,-30"/>
<text text-anchor="start" x="1090" y="-18" font-family="Helvetica,sans-Serif" font-size="10.00">client/apps/fs/xrdfs</text>
<text text-anchor="middle" x="1137" y="-7" font-family="Helvetica,sans-Serif" font-size="10.00">_walk.c</text>
</a>
</g>
</g>
<!-- Node11&#45;&gt;Node15 -->
<g id="edge15_Node000011_Node000015" class="edge">
<title>Node11&#45;&gt;Node15</title>
<g id="a_edge15_Node000011_Node000015"><a xlink:title=" ">
<path fill="none" stroke="#63b8ff" d="M946.08,-63.73C988.04,-53.24 1042.02,-39.75 1081.87,-29.78"/>
<polygon fill="#63b8ff" stroke="#63b8ff" points="945.09,-60.37 936.23,-66.19 946.78,-67.16 945.09,-60.37"/>
</a>
</g>
</g>
<!-- Node16 -->
<g id="Node000016" class="node">
<title>Node16</title>
<g id="a_Node000016"><a xlink:href="xrdfs__web_8c.html" target="_top" xlink:title=" ">
<polygon fill="white" stroke="#666666" points="1320,-30 1210,-30 1210,0 1320,0 1320,-30"/>
<text text-anchor="start" x="1218" y="-18" font-family="Helvetica,sans-Serif" font-size="10.00">client/apps/fs/xrdfs</text>
<text text-anchor="middle" x="1265" y="-7" font-family="Helvetica,sans-Serif" font-size="10.00">_web.c</text>
</a>
</g>
</g>
<!-- Node11&#45;&gt;Node16 -->
<g id="edge16_Node000011_Node000016" class="edge">
<title>Node11&#45;&gt;Node16</title>
<g id="a_edge16_Node000011_Node000016"><a xlink:title=" ">
<path fill="none" stroke="#63b8ff" d="M946.45,-66.02C1060.43,-46.16 1091.54,-49.67 1201,-30 1203.91,-29.48 1206.89,-28.92 1209.89,-28.33"/>
<polygon fill="#63b8ff" stroke="#63b8ff" points="945.5,-62.63 936.26,-67.81 946.72,-69.52 945.5,-62.63"/>
</a>
</g>
</g>
</g>
</svg>

<g id="navigator" transform="translate(0 0)" fill="#404254">
  <rect fill="#f2f5e9" fill-opacity="0.5" stroke="#606060" stroke-width=".5" x="0" y="0" width="60" height="60"/>
  <use id="zoomplus" xlink:href="#zoomPlus" x="17" y="9" onmousedown="handleZoom(evt,'in')"/>
  <use id="zoomminus" xlink:href="#zoomMin" x="42" y="9" onmousedown="handleZoom(evt,'out')"/>
  <use id="reset" xlink:href="#resetDef" x="30" y="36" onmousedown="handleReset()"/>
   <use id="arrowup" xlink:href="#arrowUp" x="0" y="0" onmousedown="handlePan(0,-1)"/>
  <use id="arrowright" xlink:href="#arrowRight" x="0" y="0" onmousedown="handlePan(1,0)"/>
  <use id="arrowdown" xlink:href="#arrowDown" x="0" y="0" onmousedown="handlePan(0,1)"/>
  <use id="arrowleft" xlink:href="#arrowLeft" x="0" y="0" onmousedown="handlePan(-1,0)"/>
</g>
<svg viewBox="0 0 15 15" width="100%" height="30px" preserveAspectRatio="xMaxYMin meet">
 <g id="arrow_out" transform="scale(0.3 0.3)">
  <a xlink:href="cli__hint_8h__dep__incl_org.svg" target="_base">
   <rect id="button" ry="5" rx="5" y="6" x="6" height="38" width="38"
        fill="#f2f5e9" fill-opacity="0.5" stroke="#606060" stroke-width="1.0"/>
   <path id="arrow"
     d="M 11.500037,31.436501 C 11.940474,20.09759 22.043105,11.32322 32.158766,21.979434 L 37.068811,17.246167 C 37.068811,17.246167 37.088388,32 37.088388,32 L 22.160133,31.978069 C 22.160133,31.978069 26.997745,27.140456 26.997745,27.140456 C 18.528582,18.264221 13.291696,25.230495 11.500037,31.436501 z"
     style="fill:#404040;"/>
  </a>
 </g>
</svg>

<style type='text/css'>
<![CDATA[
[data-mouse-over-selected='false'] { opacity: 0.7; }
[data-mouse-over-selected='true']  { opacity: 1.0; }
]]>
</style>
<script type="application/ecmascript"><![CDATA[
document.addEventListener('DOMContentLoaded', (event) => {
  highlightEdges();
  highlightAdjacentNodes();
});
]]></script>
</svg>
