<?xml version="1.0" encoding="UTF-8" standalone="no"?>
<!DOCTYPE svg PUBLIC "-//W3C//DTD SVG 1.1//EN"
 "http://www.w3.org/Graphics/SVG/1.1/DTD/svg11.dtd">
<!-- Generated by graphviz version 2.43.0 (0)
 -->
<!-- Title: client/lib/auth/auth.c Pages: 1 -->
<svg width="1449pt" height="456pt"
 viewBox="0.00 0.00 1449.00 456.00" xmlns="http://www.w3.org/2000/svg" xmlns:xlink="http://www.w3.org/1999/xlink">
<g id="graph0" class="graph" transform="scale(1 1) rotate(0) translate(4 452)">
<title>client/lib/auth/auth.c</title>
<!-- Node1 -->
<g id="Node000001" class="node">
<title>Node1</title>
<g id="a_Node000001"><a xlink:title=" ">
<polygon fill="#999999" stroke="#666666" points="1284.5,-448 1168.5,-448 1168.5,-429 1284.5,-429 1284.5,-448"/>
<text text-anchor="middle" x="1226.5" y="-436" font-family="Helvetica,sans-Serif" font-size="10.00">client/lib/auth/auth.c</text>
</a>
</g>
</g>
<!-- Node2 -->
<g id="Node000002" class="node">
<title>Node2</title>
<g id="a_Node000002"><a xlink:href="sec_8h.html" target="_top" xlink:title=" ">
<polygon fill="white" stroke="#666666" points="998.5,-387.5 936.5,-387.5 936.5,-368.5 998.5,-368.5 998.5,-387.5"/>
<text text-anchor="middle" x="967.5" y="-375.5" font-family="Helvetica,sans-Serif" font-size="10.00">sec/sec.h</text>
</a>
</g>
</g>
<!-- Node1&#45;&gt;Node2 -->
<g id="edge1_Node000001_Node000002" class="edge">
<title>Node1&#45;&gt;Node2</title>
<g id="a_edge1_Node000001_Node000002"><a xlink:title=" ">
<path fill="none" stroke="#63b8ff" d="M1188.84,-428.99C1140.9,-418.17 1058.37,-399.52 1008.76,-388.32"/>
<polygon fill="#63b8ff" stroke="#63b8ff" points="1009.23,-384.84 998.7,-386.05 1007.69,-391.67 1009.23,-384.84"/>
</a>
</g>
</g>
<!-- Node17 -->
<g id="Node000017" class="node">
<title>Node17</title>
<g id="a_Node000017"><a xlink:href="wire__codec_8h.html" target="_top" xlink:title=" ">
<polygon fill="white" stroke="#666666" points="711,-206 584,-206 584,-176 711,-176 711,-206"/>
<text text-anchor="start" x="592" y="-194" font-family="Helvetica,sans-Serif" font-size="10.00">protocols/root/protocol</text>
<text text-anchor="middle" x="647.5" y="-183" font-family="Helvetica,sans-Serif" font-size="10.00">/codec/wire_codec.h</text>
</a>
</g>
</g>
<!-- Node1&#45;&gt;Node17 -->
<g id="edge33_Node000001_Node000017" class="edge">
<title>Node1&#45;&gt;Node17</title>
<g id="a_edge33_Node000001_Node000017"><a xlink:title=" ">
<path fill="none" stroke="#63b8ff" d="M1168.24,-434.28C1107.08,-429.64 1008.7,-418.63 927.5,-393 812.82,-356.81 769.67,-357.88 685.5,-272 670.17,-256.36 660.14,-233.36 654.25,-216.03"/>
<polygon fill="#63b8ff" stroke="#63b8ff" points="657.46,-214.57 651.11,-206.09 650.78,-216.68 657.46,-214.57"/>
</a>
</g>
</g>
<!-- Node22 -->
<g id="Node000022" class="node">
<title>Node22</title>
<g id="a_Node000022"><a xlink:href="sec__protocol_8h.html" target="_top" xlink:title=" ">
<polygon fill="white" stroke="#666666" points="1244,-393 1117,-393 1117,-363 1244,-363 1244,-393"/>
<text text-anchor="start" x="1125" y="-381" font-family="Helvetica,sans-Serif" font-size="10.00">protocols/root/protocol</text>
<text text-anchor="middle" x="1180.5" y="-370" font-family="Helvetica,sans-Serif" font-size="10.00">/sec_protocol.h</text>
</a>
</g>
</g>
<!-- Node1&#45;&gt;Node22 -->
<g id="edge30_Node000001_Node000022" class="edge">
<title>Node1&#45;&gt;Node22</title>
<g id="a_edge30_Node000001_Node000022"><a xlink:title=" ">
<path fill="none" stroke="#63b8ff" d="M1219.71,-428.87C1213.99,-421.59 1205.55,-410.85 1197.96,-401.2"/>
<polygon fill="#63b8ff" stroke="#63b8ff" points="1200.53,-398.81 1191.6,-393.11 1195.03,-403.14 1200.53,-398.81"/>
</a>
</g>
</g>
<!-- Node23 -->
<g id="Node000023" class="node">
<title>Node23</title>
<g id="a_Node000023"><a xlink:title=" ">
<polygon fill="#e0e0e0" stroke="#999999" points="1299,-327 1246,-327 1246,-308 1299,-308 1299,-327"/>
<text text-anchor="middle" x="1272.5" y="-315" font-family="Helvetica,sans-Serif" font-size="10.00">string.h</text>
</a>
</g>
</g>
<!-- Node1&#45;&gt;Node23 -->
<g id="edge36_Node000001_Node000023" class="edge">
<title>Node1&#45;&gt;Node23</title>
<g id="a_edge36_Node000001_Node000023"><a xlink:title=" ">
<path fill="none" stroke="#63b8ff" d="M1232.91,-428.72C1238.98,-420.03 1247.97,-406.16 1253.5,-393 1261.16,-374.76 1266.32,-352.67 1269.31,-337.3"/>
<polygon fill="#63b8ff" stroke="#63b8ff" points="1272.83,-337.49 1271.17,-327.03 1265.94,-336.24 1272.83,-337.49"/>
</a>
</g>
</g>
<!-- Node24 -->
<g id="Node000024" class="node">
<title>Node24</title>
<g id="a_Node000024"><a xlink:title=" ">
<polygon fill="#e0e0e0" stroke="#999999" points="1370,-387.5 1301,-387.5 1301,-368.5 1370,-368.5 1370,-387.5"/>
<text text-anchor="middle" x="1335.5" y="-375.5" font-family="Helvetica,sans-Serif" font-size="10.00">arpa/inet.h</text>
</a>
</g>
</g>
<!-- Node1&#45;&gt;Node24 -->
<g id="edge34_Node000001_Node000024" class="edge">
<title>Node1&#45;&gt;Node24</title>
<g id="a_edge34_Node000001_Node000024"><a xlink:title=" ">
<path fill="none" stroke="#63b8ff" d="M1242.58,-428.87C1260.45,-419.28 1289.54,-403.67 1310.41,-392.47"/>
<polygon fill="#63b8ff" stroke="#63b8ff" points="1312.19,-395.48 1319.35,-387.67 1308.88,-389.31 1312.19,-395.48"/>
</a>
</g>
</g>
<!-- Node25 -->
<g id="Node000025" class="node">
<title>Node25</title>
<g id="a_Node000025"><a xlink:title=" ">
<polygon fill="#e0e0e0" stroke="#999999" points="1441,-387.5 1388,-387.5 1388,-368.5 1441,-368.5 1441,-387.5"/>
<text text-anchor="middle" x="1414.5" y="-375.5" font-family="Helvetica,sans-Serif" font-size="10.00">stdlib.h</text>
</a>
</g>
</g>
<!-- Node1&#45;&gt;Node25 -->
<g id="edge35_Node000001_Node000025" class="edge">
<title>Node1&#45;&gt;Node25</title>
<g id="a_edge35_Node000001_Node000025"><a xlink:title=" ">
<path fill="none" stroke="#63b8ff" d="M1259.32,-428.95C1290.5,-420.59 1338.57,-407.1 1379.5,-393 1381.12,-392.44 1382.77,-391.85 1384.43,-391.25"/>
<polygon fill="#63b8ff" stroke="#63b8ff" points="1385.8,-394.47 1393.9,-387.63 1383.31,-387.93 1385.8,-394.47"/>
</a>
</g>
</g>
<!-- Node3 -->
<g id="Node000003" class="node">
<title>Node3</title>
<g id="a_Node000003"><a xlink:href="brix_8h.html" target="_top" xlink:title=" ">
<polygon fill="white" stroke="#666666" points="890.5,-327 846.5,-327 846.5,-308 890.5,-308 890.5,-327"/>
<text text-anchor="middle" x="868.5" y="-315" font-family="Helvetica,sans-Serif" font-size="10.00">brix.h</text>
</a>
</g>
</g>
<!-- Node2&#45;&gt;Node3 -->
<g id="edge2_Node000002_Node000003" class="edge">
<title>Node2&#45;&gt;Node3</title>
<g id="a_edge2_Node000002_Node000003"><a xlink:title=" ">
<path fill="none" stroke="#63b8ff" d="M952.89,-368.37C936.81,-358.86 910.72,-343.45 891.8,-332.27"/>
<polygon fill="#63b8ff" stroke="#63b8ff" points="893.56,-329.24 883.17,-327.17 890,-335.27 893.56,-329.24"/>
</a>
</g>
</g>
<!-- Node4 -->
<g id="Node000004" class="node">
<title>Node4</title>
<g id="a_Node000004"><a xlink:title=" ">
<polygon fill="#e0e0e0" stroke="#999999" points="674,-19 621,-19 621,0 674,0 674,-19"/>
<text text-anchor="middle" x="647.5" y="-7" font-family="Helvetica,sans-Serif" font-size="10.00">stdint.h</text>
</a>
</g>
</g>
<!-- Node3&#45;&gt;Node4 -->
<g id="edge3_Node000003_Node000004" class="edge">
<title>Node3&#45;&gt;Node4</title>
<g id="a_edge3_Node000003_Node000004"><a xlink:title=" ">
<path fill="none" stroke="#63b8ff" d="M855.85,-307.84C830.84,-289.58 777.5,-244.47 777.5,-192 777.5,-192 777.5,-192 777.5,-124 777.5,-72.9 719.8,-39.51 681.28,-22.92"/>
<polygon fill="#63b8ff" stroke="#63b8ff" points="682.53,-19.64 671.95,-19.06 679.86,-26.11 682.53,-19.64"/>
</a>
</g>
</g>
<!-- Node5 -->
<g id="Node000005" class="node">
<title>Node5</title>
<g id="a_Node000005"><a xlink:title=" ">
<polygon fill="#e0e0e0" stroke="#999999" points="1102.5,-134.5 1046.5,-134.5 1046.5,-115.5 1102.5,-115.5 1102.5,-134.5"/>
<text text-anchor="middle" x="1074.5" y="-122.5" font-family="Helvetica,sans-Serif" font-size="10.00">stddef.h</text>
</a>
</g>
</g>
<!-- Node3&#45;&gt;Node5 -->
<g id="edge4_Node000003_Node000005" class="edge">
<title>Node3&#45;&gt;Node5</title>
<g id="a_edge4_Node000003_Node000005"><a xlink:title=" ">
<path fill="none" stroke="#63b8ff" d="M890.88,-316.66C953.05,-316.58 1125.58,-312.65 1160.5,-272 1197.26,-229.21 1130.7,-168.61 1094.98,-140.89"/>
<polygon fill="#63b8ff" stroke="#63b8ff" points="1096.73,-137.82 1086.64,-134.58 1092.5,-143.4 1096.73,-137.82"/>
</a>
</g>
</g>
<!-- Node6 -->
<g id="Node000006" class="node">
<title>Node6</title>
<g id="a_Node000006"><a xlink:title=" ">
<polygon fill="#e0e0e0" stroke="#999999" points="893.5,-266.5 843.5,-266.5 843.5,-247.5 893.5,-247.5 893.5,-266.5"/>
<text text-anchor="middle" x="868.5" y="-254.5" font-family="Helvetica,sans-Serif" font-size="10.00">stdio.h</text>
</a>
</g>
</g>
<!-- Node3&#45;&gt;Node6 -->
<g id="edge5_Node000003_Node000006" class="edge">
<title>Node3&#45;&gt;Node6</title>
<g id="a_edge5_Node000003_Node000006"><a xlink:title=" ">
<path fill="none" stroke="#63b8ff" d="M868.5,-307.87C868.5,-299.75 868.5,-287.31 868.5,-276.89"/>
<polygon fill="#63b8ff" stroke="#63b8ff" points="872,-276.67 868.5,-266.67 865,-276.67 872,-276.67"/>
</a>
</g>
</g>
<!-- Node7 -->
<g id="Node000007" class="node">
<title>Node7</title>
<g id="a_Node000007"><a xlink:href="time_8h.html" target="_top" xlink:title=" ">
<polygon fill="white" stroke="#666666" points="993.5,-200.5 945.5,-200.5 945.5,-181.5 993.5,-181.5 993.5,-200.5"/>
<text text-anchor="middle" x="969.5" y="-188.5" font-family="Helvetica,sans-Serif" font-size="10.00">time.h</text>
</a>
</g>
</g>
<!-- Node3&#45;&gt;Node7 -->
<g id="edge6_Node000003_Node000007" class="edge">
<title>Node3&#45;&gt;Node7</title>
<g id="a_edge6_Node000003_Node000007"><a xlink:title=" ">
<path fill="none" stroke="#63b8ff" d="M858.88,-307.7C844.19,-293.2 819.39,-263.7 834.5,-242 857.01,-209.65 903.01,-198.19 935.02,-194.15"/>
<polygon fill="#63b8ff" stroke="#63b8ff" points="935.71,-197.59 945.28,-193.04 934.96,-190.63 935.71,-197.59"/>
</a>
</g>
</g>
<!-- Node8 -->
<g id="Node000008" class="node">
<title>Node8</title>
<g id="a_Node000008"><a xlink:title=" ">
<polygon fill="#e0e0e0" stroke="#999999" points="748.5,-134.5 676.5,-134.5 676.5,-115.5 748.5,-115.5 748.5,-134.5"/>
<text text-anchor="middle" x="712.5" y="-122.5" font-family="Helvetica,sans-Serif" font-size="10.00">sys/types.h</text>
</a>
</g>
</g>
<!-- Node3&#45;&gt;Node8 -->
<g id="edge9_Node000003_Node000008" class="edge">
<title>Node3&#45;&gt;Node8</title>
<g id="a_edge9_Node000003_Node000008"><a xlink:title=" ">
<path fill="none" stroke="#63b8ff" d="M846.17,-312.57C822.55,-307.29 785.7,-295.69 763.5,-272 745.77,-253.09 725.77,-179.64 717.01,-144.68"/>
<polygon fill="#63b8ff" stroke="#63b8ff" points="720.37,-143.68 714.58,-134.81 713.57,-145.35 720.37,-143.68"/>
</a>
</g>
</g>
<!-- Node9 -->
<g id="Node000009" class="node">
<title>Node9</title>
<g id="a_Node000009"><a xlink:href="root_2protocol_2protocol_8h.html" target="_top" xlink:title=" ">
<polygon fill="white" stroke="#666666" points="412,-272 285,-272 285,-242 412,-242 412,-272"/>
<text text-anchor="start" x="293" y="-260" font-family="Helvetica,sans-Serif" font-size="10.00">protocols/root/protocol</text>
<text text-anchor="middle" x="348.5" y="-249" font-family="Helvetica,sans-Serif" font-size="10.00">/protocol.h</text>
</a>
</g>
</g>
<!-- Node3&#45;&gt;Node9 -->
<g id="edge10_Node000003_Node000009" class="edge">
<title>Node3&#45;&gt;Node9</title>
<g id="a_edge10_Node000003_Node000009"><a xlink:title=" ">
<path fill="none" stroke="#63b8ff" d="M846.49,-314.02C774.36,-305.91 542.88,-279.87 422.62,-266.34"/>
<polygon fill="#63b8ff" stroke="#63b8ff" points="422.72,-262.83 412.39,-265.19 421.94,-269.78 422.72,-262.83"/>
</a>
</g>
</g>
<!-- Node3&#45;&gt;Node17 -->
<g id="edge26_Node000003_Node000017" class="edge">
<title>Node3&#45;&gt;Node17</title>
<g id="a_edge26_Node000003_Node000017"><a xlink:title=" ">
<path fill="none" stroke="#63b8ff" d="M846.26,-313.1C816.87,-307.84 764.29,-295.78 725.5,-272 700.91,-256.93 678.58,-232.38 664.17,-214.45"/>
<polygon fill="#63b8ff" stroke="#63b8ff" points="666.67,-211.97 657.76,-206.24 661.16,-216.28 666.67,-211.97"/>
</a>
</g>
</g>
<!-- Node19 -->
<g id="Node000019" class="node">
<title>Node19</title>
<g id="a_Node000019"><a xlink:href="brix__net_8h.html" target="_top" xlink:title=" ">
<polygon fill="white" stroke="#666666" points="977,-266.5 912,-266.5 912,-247.5 977,-247.5 977,-266.5"/>
<text text-anchor="middle" x="944.5" y="-254.5" font-family="Helvetica,sans-Serif" font-size="10.00">brix_net.h</text>
</a>
</g>
</g>
<!-- Node3&#45;&gt;Node19 -->
<g id="edge27_Node000003_Node000019" class="edge">
<title>Node3&#45;&gt;Node19</title>
<g id="a_edge27_Node000003_Node000019"><a xlink:title=" ">
<path fill="none" stroke="#63b8ff" d="M879.71,-307.87C891.61,-298.71 910.64,-284.06 925.01,-273.01"/>
<polygon fill="#63b8ff" stroke="#63b8ff" points="927.45,-275.54 933.24,-266.67 923.18,-269.99 927.45,-275.54"/>
</a>
</g>
</g>
<!-- Node20 -->
<g id="Node000020" class="node">
<title>Node20</title>
<g id="a_Node000020"><a xlink:href="brix__auth_8h.html" target="_top" xlink:title=" ">
<polygon fill="white" stroke="#666666" points="1066,-266.5 995,-266.5 995,-247.5 1066,-247.5 1066,-266.5"/>
<text text-anchor="middle" x="1030.5" y="-254.5" font-family="Helvetica,sans-Serif" font-size="10.00">brix_auth.h</text>
</a>
</g>
</g>
<!-- Node3&#45;&gt;Node20 -->
<g id="edge28_Node000003_Node000020" class="edge">
<title>Node3&#45;&gt;Node20</title>
<g id="a_edge28_Node000003_Node000020"><a xlink:title=" ">
<path fill="none" stroke="#63b8ff" d="M890.69,-308.49C918.13,-298.58 965.12,-281.61 996.98,-270.11"/>
<polygon fill="#63b8ff" stroke="#63b8ff" points="998.53,-273.27 1006.74,-266.58 996.15,-266.68 998.53,-273.27"/>
</a>
</g>
</g>
<!-- Node21 -->
<g id="Node000021" class="node">
<title>Node21</title>
<g id="a_Node000021"><a xlink:href="brix__ops_8h.html" target="_top" xlink:title=" ">
<polygon fill="white" stroke="#666666" points="1151,-266.5 1084,-266.5 1084,-247.5 1151,-247.5 1151,-266.5"/>
<text text-anchor="middle" x="1117.5" y="-254.5" font-family="Helvetica,sans-Serif" font-size="10.00">brix_ops.h</text>
</a>
</g>
</g>
<!-- Node3&#45;&gt;Node21 -->
<g id="edge29_Node000003_Node000021" class="edge">
<title>Node3&#45;&gt;Node21</title>
<g id="a_edge29_Node000003_Node000021"><a xlink:title=" ">
<path fill="none" stroke="#63b8ff" d="M890.75,-312.55C928.88,-305.59 1009.02,-290.17 1075.5,-272 1078.12,-271.28 1080.82,-270.5 1083.52,-269.68"/>
<polygon fill="#63b8ff" stroke="#63b8ff" points="1084.74,-272.96 1093.21,-266.6 1082.62,-266.29 1084.74,-272.96"/>
</a>
</g>
</g>
<!-- Node7&#45;&gt;Node5 -->
<g id="edge7_Node000007_Node000005" class="edge">
<title>Node7&#45;&gt;Node5</title>
<g id="a_edge7_Node000007_Node000005"><a xlink:title=" ">
<path fill="none" stroke="#63b8ff" d="M983.66,-181.37C1001.04,-170.78 1030.74,-152.67 1051.43,-140.06"/>
<polygon fill="#63b8ff" stroke="#63b8ff" points="1053.51,-142.89 1060.23,-134.7 1049.87,-136.92 1053.51,-142.89"/>
</a>
</g>
</g>
<!-- Node7&#45;&gt;Node7 -->
<g id="edge8_Node000007_Node000007" class="edge">
<title>Node7&#45;&gt;Node7</title>
<g id="a_edge8_Node000007_Node000007"><a xlink:title=" ">
<path fill="none" stroke="#63b8ff" d="M982.83,-200.66C996.4,-206.34 1011.5,-203.12 1011.5,-191 1011.5,-181.82 1002.83,-177.75 992.72,-178.78"/>
<polygon fill="#63b8ff" stroke="#63b8ff" points="991.64,-175.45 982.83,-181.34 993.39,-182.23 991.64,-175.45"/>
</a>
</g>
</g>
<!-- Node10 -->
<g id="Node000010" class="node">
<title>Node10</title>
<g id="a_Node000010"><a xlink:href="types_8h.html" target="_top" xlink:title=" ">
<polygon fill="white" stroke="#666666" points="601,-74 548,-74 548,-55 601,-55 601,-74"/>
<text text-anchor="middle" x="574.5" y="-62" font-family="Helvetica,sans-Serif" font-size="10.00">types.h</text>
</a>
</g>
</g>
<!-- Node9&#45;&gt;Node10 -->
<g id="edge11_Node000009_Node000010" class="edge">
<title>Node9&#45;&gt;Node10</title>
<g id="a_edge11_Node000009_Node000010"><a xlink:title=" ">
<path fill="none" stroke="#63b8ff" d="M395.29,-241.98C442.76,-225.32 514.85,-192.93 555.5,-140 567.8,-123.98 572.2,-100.88 573.74,-84.66"/>
<polygon fill="#63b8ff" stroke="#63b8ff" points="577.26,-84.47 574.43,-74.26 570.27,-84.01 577.26,-84.47"/>
</a>
</g>
</g>
<!-- Node11 -->
<g id="Node000011" class="node">
<title>Node11</title>
<g id="a_Node000011"><a xlink:href="opcodes_8h.html" target="_top" xlink:title=" ">
<polygon fill="white" stroke="#666666" points="344.5,-74 278.5,-74 278.5,-55 344.5,-55 344.5,-74"/>
<text text-anchor="middle" x="311.5" y="-62" font-family="Helvetica,sans-Serif" font-size="10.00">opcodes.h</text>
</a>
</g>
</g>
<!-- Node9&#45;&gt;Node11 -->
<g id="edge13_Node000009_Node000011" class="edge">
<title>Node9&#45;&gt;Node11</title>
<g id="a_edge13_Node000009_Node000011"><a xlink:title=" ">
<path fill="none" stroke="#63b8ff" d="M298.87,-241.88C252.24,-225.68 185.19,-194.1 154.5,-140 128.21,-93.65 212.92,-75.8 267.99,-69.18"/>
<polygon fill="#63b8ff" stroke="#63b8ff" points="268.68,-72.62 278.23,-68.03 267.9,-65.67 268.68,-72.62"/>
</a>
</g>
</g>
<!-- Node12 -->
<g id="Node000012" class="node">
<title>Node12</title>
<g id="a_Node000012"><a xlink:href="flags_8h.html" target="_top" xlink:title=" ">
<polygon fill="white" stroke="#666666" points="49,-200.5 0,-200.5 0,-181.5 49,-181.5 49,-200.5"/>
<text text-anchor="middle" x="24.5" y="-188.5" font-family="Helvetica,sans-Serif" font-size="10.00">flags.h</text>
</a>
</g>
</g>
<!-- Node9&#45;&gt;Node12 -->
<g id="edge14_Node000009_Node000012" class="edge">
<title>Node9&#45;&gt;Node12</title>
<g id="a_edge14_Node000009_Node000012"><a xlink:title=" ">
<path fill="none" stroke="#63b8ff" d="M284.8,-249.11C225.43,-241.73 134.84,-228.01 58.5,-206 56.61,-205.46 54.69,-204.84 52.77,-204.18"/>
<polygon fill="#63b8ff" stroke="#63b8ff" points="53.89,-200.86 43.3,-200.6 51.42,-207.41 53.89,-200.86"/>
</a>
</g>
</g>
<!-- Node13 -->
<g id="Node000013" class="node">
<title>Node13</title>
<g id="a_Node000013"><a xlink:href="wire_8h.html" target="_top" xlink:title=" ">
<polygon fill="white" stroke="#666666" points="372,-200.5 325,-200.5 325,-181.5 372,-181.5 372,-200.5"/>
<text text-anchor="middle" x="348.5" y="-188.5" font-family="Helvetica,sans-Serif" font-size="10.00">wire.h</text>
</a>
</g>
</g>
<!-- Node9&#45;&gt;Node13 -->
<g id="edge15_Node000009_Node000013" class="edge">
<title>Node9&#45;&gt;Node13</title>
<g id="a_edge15_Node000009_Node000013"><a xlink:title=" ">
<path fill="none" stroke="#63b8ff" d="M348.5,-241.8C348.5,-232.7 348.5,-220.79 348.5,-210.9"/>
<polygon fill="#63b8ff" stroke="#63b8ff" points="352,-210.84 348.5,-200.84 345,-210.84 352,-210.84"/>
</a>
</g>
</g>
<!-- Node9&#45;&gt;Node17 -->
<g id="edge21_Node000009_Node000017" class="edge">
<title>Node9&#45;&gt;Node17</title>
<g id="a_edge21_Node000009_Node000017"><a xlink:title=" ">
<path fill="none" stroke="#63b8ff" d="M412.28,-242.35C459.61,-232.22 524.26,-218.38 573.81,-207.77"/>
<polygon fill="#63b8ff" stroke="#63b8ff" points="574.78,-211.15 583.82,-205.63 573.31,-204.3 574.78,-211.15"/>
</a>
</g>
</g>
<!-- Node18 -->
<g id="Node000018" class="node">
<title>Node18</title>
<g id="a_Node000018"><a xlink:href="gsi_8h.html" target="_top" xlink:title=" ">
<polygon fill="white" stroke="#666666" points="107.5,-200.5 67.5,-200.5 67.5,-181.5 107.5,-181.5 107.5,-200.5"/>
<text text-anchor="middle" x="87.5" y="-188.5" font-family="Helvetica,sans-Serif" font-size="10.00">gsi.h</text>
</a>
</g>
</g>
<!-- Node9&#45;&gt;Node18 -->
<g id="edge25_Node000009_Node000018" class="edge">
<title>Node9&#45;&gt;Node18</title>
<g id="a_edge25_Node000009_Node000018"><a xlink:title=" ">
<path fill="none" stroke="#63b8ff" d="M284.61,-245C238.69,-236.36 175.6,-222.96 121.5,-206 119.82,-205.48 118.12,-204.9 116.4,-204.3"/>
<polygon fill="#63b8ff" stroke="#63b8ff" points="117.29,-200.89 106.7,-200.59 114.8,-207.43 117.29,-200.89"/>
</a>
</g>
</g>
<!-- Node10&#45;&gt;Node4 -->
<g id="edge12_Node000010_Node000004" class="edge">
<title>Node10&#45;&gt;Node4</title>
<g id="a_edge12_Node000010_Node000004"><a xlink:title=" ">
<path fill="none" stroke="#63b8ff" d="M586.23,-54.98C597.23,-47 613.92,-34.88 627.1,-25.31"/>
<polygon fill="#63b8ff" stroke="#63b8ff" points="629.52,-27.88 635.56,-19.17 625.41,-22.21 629.52,-27.88"/>
</a>
</g>
</g>
<!-- Node14 -->
<g id="Node000014" class="node">
<title>Node14</title>
<g id="a_Node000014"><a xlink:href="wire__core__requests_8h.html" target="_top" xlink:title=" ">
<polygon fill="white" stroke="#666666" points="546.5,-134.5 426.5,-134.5 426.5,-115.5 546.5,-115.5 546.5,-134.5"/>
<text text-anchor="middle" x="486.5" y="-122.5" font-family="Helvetica,sans-Serif" font-size="10.00">wire_core_requests.h</text>
</a>
</g>
</g>
<!-- Node13&#45;&gt;Node14 -->
<g id="edge16_Node000013_Node000014" class="edge">
<title>Node13&#45;&gt;Node14</title>
<g id="a_edge16_Node000013_Node000014"><a xlink:title=" ">
<path fill="none" stroke="#63b8ff" d="M367.11,-181.37C390.57,-170.49 431.11,-151.69 458.36,-139.05"/>
<polygon fill="#63b8ff" stroke="#63b8ff" points="460.14,-142.08 467.74,-134.7 457.2,-135.73 460.14,-142.08"/>
</a>
</g>
</g>
<!-- Node15 -->
<g id="Node000015" class="node">
<title>Node15</title>
<g id="a_Node000015"><a xlink:href="wire__write__extended__requests_8h.html" target="_top" xlink:title=" ">
<polygon fill="white" stroke="#666666" points="408,-140 289,-140 289,-110 408,-110 408,-140"/>
<text text-anchor="start" x="297" y="-128" font-family="Helvetica,sans-Serif" font-size="10.00">wire_write_extended</text>
<text text-anchor="middle" x="348.5" y="-117" font-family="Helvetica,sans-Serif" font-size="10.00">_requests.h</text>
</a>
</g>
</g>
<!-- Node13&#45;&gt;Node15 -->
<g id="edge19_Node000013_Node000015" class="edge">
<title>Node13&#45;&gt;Node15</title>
<g id="a_edge19_Node000013_Node000015"><a xlink:title=" ">
<path fill="none" stroke="#63b8ff" d="M348.5,-181.37C348.5,-173.49 348.5,-161.45 348.5,-150.6"/>
<polygon fill="#63b8ff" stroke="#63b8ff" points="352,-150.36 348.5,-140.36 345,-150.36 352,-150.36"/>
</a>
</g>
</g>
<!-- Node16 -->
<g id="Node000016" class="node">
<title>Node16</title>
<g id="a_Node000016"><a xlink:href="wire__vendor__ext_8h.html" target="_top" xlink:title=" ">
<polygon fill="white" stroke="#666666" points="271,-134.5 164,-134.5 164,-115.5 271,-115.5 271,-134.5"/>
<text text-anchor="middle" x="217.5" y="-122.5" font-family="Helvetica,sans-Serif" font-size="10.00">wire_vendor_ext.h</text>
</a>
</g>
</g>
<!-- Node13&#45;&gt;Node16 -->
<g id="edge20_Node000013_Node000016" class="edge">
<title>Node13&#45;&gt;Node16</title>
<g id="a_edge20_Node000013_Node000016"><a xlink:title=" ">
<path fill="none" stroke="#63b8ff" d="M330.83,-181.37C308.66,-170.54 270.42,-151.85 244.55,-139.22"/>
<polygon fill="#63b8ff" stroke="#63b8ff" points="245.83,-135.94 235.31,-134.7 242.75,-142.23 245.83,-135.94"/>
</a>
</g>
</g>
<!-- Node14&#45;&gt;Node10 -->
<g id="edge17_Node000014_Node000010" class="edge">
<title>Node14&#45;&gt;Node10</title>
<g id="a_edge17_Node000014_Node000010"><a xlink:title=" ">
<path fill="none" stroke="#63b8ff" d="M499.48,-115.37C513.52,-106.04 536.13,-91.01 552.86,-79.88"/>
<polygon fill="#63b8ff" stroke="#63b8ff" points="555.07,-82.62 561.46,-74.17 551.2,-76.79 555.07,-82.62"/>
</a>
</g>
</g>
<!-- Node14&#45;&gt;Node11 -->
<g id="edge18_Node000014_Node000011" class="edge">
<title>Node14&#45;&gt;Node11</title>
<g id="a_edge18_Node000014_Node000011"><a xlink:title=" ">
<path fill="none" stroke="#63b8ff" d="M461.05,-115.49C430.86,-105.4 380.34,-88.51 346.48,-77.19"/>
<polygon fill="#63b8ff" stroke="#63b8ff" points="347.57,-73.87 336.98,-74.02 345.35,-80.51 347.57,-73.87"/>
</a>
</g>
</g>
<!-- Node17&#45;&gt;Node4 -->
<g id="edge22_Node000017_Node000004" class="edge">
<title>Node17&#45;&gt;Node4</title>
<g id="a_edge22_Node000017_Node000004"><a xlink:title=" ">
<path fill="none" stroke="#63b8ff" d="M647.5,-175.91C647.5,-143.85 647.5,-65.38 647.5,-29.26"/>
<polygon fill="#63b8ff" stroke="#63b8ff" points="651,-29.13 647.5,-19.13 644,-29.13 651,-29.13"/>
</a>
</g>
</g>
<!-- Node17&#45;&gt;Node5 -->
<g id="edge23_Node000017_Node000005" class="edge">
<title>Node17&#45;&gt;Node5</title>
<g id="a_edge23_Node000017_Node000005"><a xlink:title=" ">
<path fill="none" stroke="#63b8ff" d="M711.43,-180.42C801.46,-166.92 962.8,-142.74 1036.23,-131.74"/>
<polygon fill="#63b8ff" stroke="#63b8ff" points="1037.03,-135.15 1046.4,-130.21 1036,-128.23 1037.03,-135.15"/>
</a>
</g>
</g>
<!-- Node17&#45;&gt;Node8 -->
<g id="edge24_Node000017_Node000008" class="edge">
<title>Node17&#45;&gt;Node8</title>
<g id="a_edge24_Node000017_Node000008"><a xlink:title=" ">
<path fill="none" stroke="#63b8ff" d="M661.93,-175.8C672.06,-165.82 685.63,-152.46 696.16,-142.09"/>
<polygon fill="#63b8ff" stroke="#63b8ff" points="698.85,-144.35 703.52,-134.84 693.94,-139.37 698.85,-144.35"/>
</a>
</g>
</g>
<!-- Node22&#45;&gt;Node5 -->
<g id="edge31_Node000022_Node000005" class="edge">
<title>Node22&#45;&gt;Node5</title>
<g id="a_edge31_Node000022_Node000005"><a xlink:title=" ">
<path fill="none" stroke="#63b8ff" d="M1183.7,-363C1190.94,-327.48 1204.7,-232.69 1160.5,-176 1147.33,-159.11 1126.73,-146.85 1109,-138.69"/>
<polygon fill="#63b8ff" stroke="#63b8ff" points="1110.07,-135.35 1099.51,-134.59 1107.29,-141.77 1110.07,-135.35"/>
</a>
</g>
</g>
<!-- Node22&#45;&gt;Node23 -->
<g id="edge32_Node000022_Node000023" class="edge">
<title>Node22&#45;&gt;Node23</title>
<g id="a_edge32_Node000022_Node000023"><a xlink:title=" ">
<path fill="none" stroke="#63b8ff" d="M1202.77,-362.84C1217.17,-353.68 1235.83,-341.82 1250.23,-332.66"/>
<polygon fill="#63b8ff" stroke="#63b8ff" points="1252.42,-335.41 1258.98,-327.09 1248.67,-329.51 1252.42,-335.41"/>
</a>
</g>
</g>
</g>
</svg>
