<?xml version="1.0" encoding="UTF-8" standalone="no"?>
<!DOCTYPE svg PUBLIC "-//W3C//DTD SVG 1.1//EN"
 "http://www.w3.org/Graphics/SVG/1.1/DTD/svg11.dtd">
<!-- Generated by graphviz version 2.43.0 (0)
 -->
<!-- Title: client/lib/fs/vfs.h Pages: 1 -->
<svg width="1058pt" height="390pt"
 viewBox="0.00 0.00 1058.00 390.00" xmlns="http://www.w3.org/2000/svg" xmlns:xlink="http://www.w3.org/1999/xlink">
<g id="graph0" class="graph" transform="scale(1 1) rotate(0) translate(4 386)">
<title>client/lib/fs/vfs.h</title>
<!-- Node1 -->
<g id="Node000001" class="node">
<title>Node1</title>
<g id="a_Node000001"><a xlink:title=" ">
<polygon fill="#999999" stroke="#666666" points="939,-382 841,-382 841,-363 939,-363 939,-382"/>
<text text-anchor="middle" x="890" y="-370" font-family="Helvetica,sans-Serif" font-size="10.00">client/lib/fs/vfs.h</text>
</a>
</g>
</g>
<!-- Node2 -->
<g id="Node000002" class="node">
<title>Node2</title>
<g id="a_Node000002"><a xlink:href="brix_8h.html" target="_top" xlink:title=" ">
<polygon fill="white" stroke="#666666" points="790,-327 746,-327 746,-308 790,-308 790,-327"/>
<text text-anchor="middle" x="768" y="-315" font-family="Helvetica,sans-Serif" font-size="10.00">brix.h</text>
</a>
</g>
</g>
<!-- Node1&#45;&gt;Node2 -->
<g id="edge1_Node000001_Node000002" class="edge">
<title>Node1&#45;&gt;Node2</title>
<g id="a_edge1_Node000001_Node000002"><a xlink:title=" ">
<path fill="none" stroke="#63b8ff" d="M870.4,-362.98C850.68,-354.42 820.05,-341.11 797.42,-331.28"/>
<polygon fill="#63b8ff" stroke="#63b8ff" points="798.52,-327.94 787.96,-327.17 795.74,-334.37 798.52,-327.94"/>
</a>
</g>
</g>
<!-- Node3 -->
<g id="Node000003" class="node">
<title>Node3</title>
<g id="a_Node000003"><a xlink:title=" ">
<polygon fill="#e0e0e0" stroke="#999999" points="574.5,-19 521.5,-19 521.5,0 574.5,0 574.5,-19"/>
<text text-anchor="middle" x="548" y="-7" font-family="Helvetica,sans-Serif" font-size="10.00">stdint.h</text>
</a>
</g>
</g>
<!-- Node1&#45;&gt;Node3 -->
<g id="edge30_Node000001_Node000003" class="edge">
<title>Node1&#45;&gt;Node3</title>
<g id="a_edge30_Node000001_Node000003"><a xlink:title=" ">
<path fill="none" stroke="#63b8ff" d="M926.31,-362.97C973.51,-349.46 1050,-318.28 1050,-258 1050,-258 1050,-258 1050,-124 1050,-28.58 700.57,-13.38 584.78,-10.96"/>
<polygon fill="#63b8ff" stroke="#63b8ff" points="584.7,-7.45 574.64,-10.77 584.57,-14.45 584.7,-7.45"/>
</a>
</g>
</g>
<!-- Node4 -->
<g id="Node000004" class="node">
<title>Node4</title>
<g id="a_Node000004"><a xlink:title=" ">
<polygon fill="#e0e0e0" stroke="#999999" points="967,-134.5 911,-134.5 911,-115.5 967,-115.5 967,-134.5"/>
<text text-anchor="middle" x="939" y="-122.5" font-family="Helvetica,sans-Serif" font-size="10.00">stddef.h</text>
</a>
</g>
</g>
<!-- Node1&#45;&gt;Node4 -->
<g id="edge29_Node000001_Node000004" class="edge">
<title>Node1&#45;&gt;Node4</title>
<g id="a_edge29_Node000001_Node000004"><a xlink:title=" ">
<path fill="none" stroke="#63b8ff" d="M897.71,-362.9C911.98,-346.49 942.47,-309.05 958,-272 969.56,-244.43 968.1,-235.76 971,-206 972.29,-192.73 974.74,-188.8 971,-176 967.45,-163.86 959.94,-151.86 953.09,-142.67"/>
<polygon fill="#63b8ff" stroke="#63b8ff" points="955.82,-140.47 946.88,-134.79 950.33,-144.81 955.82,-140.47"/>
</a>
</g>
</g>
<!-- Node7 -->
<g id="Node000007" class="node">
<title>Node7</title>
<g id="a_Node000007"><a xlink:title=" ">
<polygon fill="#e0e0e0" stroke="#999999" points="577,-134.5 505,-134.5 505,-115.5 577,-115.5 577,-134.5"/>
<text text-anchor="middle" x="541" y="-122.5" font-family="Helvetica,sans-Serif" font-size="10.00">sys/types.h</text>
</a>
</g>
</g>
<!-- Node1&#45;&gt;Node7 -->
<g id="edge31_Node000001_Node000007" class="edge">
<title>Node1&#45;&gt;Node7</title>
<g id="a_edge31_Node000001_Node000007"><a xlink:title=" ">
<path fill="none" stroke="#63b8ff" d="M840.67,-364.64C752.35,-351.29 572.75,-318.97 533,-272 502.19,-235.6 520.91,-174.01 533.05,-143.79"/>
<polygon fill="#63b8ff" stroke="#63b8ff" points="536.31,-145.08 536.98,-134.51 529.86,-142.35 536.31,-145.08"/>
</a>
</g>
</g>
<!-- Node2&#45;&gt;Node3 -->
<g id="edge2_Node000002_Node000003" class="edge">
<title>Node2&#45;&gt;Node3</title>
<g id="a_edge2_Node000002_Node000003"><a xlink:title=" ">
<path fill="none" stroke="#63b8ff" d="M745.84,-315.31C619.92,-308.27 0,-269.67 0,-192 0,-192 0,-192 0,-124 0,-19.33 388.22,-10.45 511.14,-10.26"/>
<polygon fill="#63b8ff" stroke="#63b8ff" points="511.2,-13.76 521.2,-10.27 511.2,-6.76 511.2,-13.76"/>
</a>
</g>
</g>
<!-- Node2&#45;&gt;Node4 -->
<g id="edge3_Node000002_Node000004" class="edge">
<title>Node2&#45;&gt;Node4</title>
<g id="a_edge3_Node000002_Node000004"><a xlink:title=" ">
<path fill="none" stroke="#63b8ff" d="M790.01,-316.93C825.17,-316.38 894.08,-310.12 934,-272 965.59,-241.84 961.74,-219.15 955,-176 953.3,-165.14 949.66,-153.41 946.27,-144.05"/>
<polygon fill="#63b8ff" stroke="#63b8ff" points="949.52,-142.74 942.68,-134.65 942.98,-145.24 949.52,-142.74"/>
</a>
</g>
</g>
<!-- Node5 -->
<g id="Node000005" class="node">
<title>Node5</title>
<g id="a_Node000005"><a xlink:title=" ">
<polygon fill="#e0e0e0" stroke="#999999" points="908,-266.5 858,-266.5 858,-247.5 908,-247.5 908,-266.5"/>
<text text-anchor="middle" x="883" y="-254.5" font-family="Helvetica,sans-Serif" font-size="10.00">stdio.h</text>
</a>
</g>
</g>
<!-- Node2&#45;&gt;Node5 -->
<g id="edge4_Node000002_Node000005" class="edge">
<title>Node2&#45;&gt;Node5</title>
<g id="a_edge4_Node000002_Node000005"><a xlink:title=" ">
<path fill="none" stroke="#63b8ff" d="M784.97,-307.87C803.91,-298.23 834.79,-282.53 856.83,-271.31"/>
<polygon fill="#63b8ff" stroke="#63b8ff" points="858.64,-274.32 865.96,-266.67 855.46,-268.08 858.64,-274.32"/>
</a>
</g>
</g>
<!-- Node6 -->
<g id="Node000006" class="node">
<title>Node6</title>
<g id="a_Node000006"><a xlink:href="time_8h.html" target="_top" xlink:title=" ">
<polygon fill="white" stroke="#666666" points="928,-200.5 880,-200.5 880,-181.5 928,-181.5 928,-200.5"/>
<text text-anchor="middle" x="904" y="-188.5" font-family="Helvetica,sans-Serif" font-size="10.00">time.h</text>
</a>
</g>
</g>
<!-- Node2&#45;&gt;Node6 -->
<g id="edge5_Node000002_Node000006" class="edge">
<title>Node2&#45;&gt;Node6</title>
<g id="a_edge5_Node000002_Node000006"><a xlink:title=" ">
<path fill="none" stroke="#63b8ff" d="M790.24,-317.37C824.03,-317.33 887.48,-311.62 917,-272 930.42,-253.98 922.04,-227.32 913.84,-209.81"/>
<polygon fill="#63b8ff" stroke="#63b8ff" points="916.85,-208.01 909.19,-200.69 910.61,-211.18 916.85,-208.01"/>
</a>
</g>
</g>
<!-- Node2&#45;&gt;Node7 -->
<g id="edge8_Node000002_Node000007" class="edge">
<title>Node2&#45;&gt;Node7</title>
<g id="a_edge8_Node000002_Node000007"><a xlink:title=" ">
<path fill="none" stroke="#63b8ff" d="M745.75,-315.14C696.24,-311.62 579.29,-300.42 554,-272 522.36,-236.45 530.01,-174.91 536.43,-144.34"/>
<polygon fill="#63b8ff" stroke="#63b8ff" points="539.85,-145.11 538.67,-134.58 533.02,-143.55 539.85,-145.11"/>
</a>
</g>
</g>
<!-- Node8 -->
<g id="Node000008" class="node">
<title>Node8</title>
<g id="a_Node000008"><a xlink:href="protocol_8h.html" target="_top" xlink:title=" ">
<polygon fill="white" stroke="#666666" points="448.5,-272 321.5,-272 321.5,-242 448.5,-242 448.5,-272"/>
<text text-anchor="start" x="329.5" y="-260" font-family="Helvetica,sans-Serif" font-size="10.00">protocols/root/protocol</text>
<text text-anchor="middle" x="385" y="-249" font-family="Helvetica,sans-Serif" font-size="10.00">/protocol.h</text>
</a>
</g>
</g>
<!-- Node2&#45;&gt;Node8 -->
<g id="edge9_Node000002_Node000008" class="edge">
<title>Node2&#45;&gt;Node8</title>
<g id="a_edge9_Node000002_Node000008"><a xlink:title=" ">
<path fill="none" stroke="#63b8ff" d="M745.75,-313.1C690.95,-304.73 547.47,-282.82 458.86,-269.28"/>
<polygon fill="#63b8ff" stroke="#63b8ff" points="459.28,-265.81 448.87,-267.75 458.22,-272.72 459.28,-265.81"/>
</a>
</g>
</g>
<!-- Node16 -->
<g id="Node000016" class="node">
<title>Node16</title>
<g id="a_Node000016"><a xlink:href="wire__codec_8h.html" target="_top" xlink:title=" ">
<polygon fill="white" stroke="#666666" points="689.5,-206 562.5,-206 562.5,-176 689.5,-176 689.5,-206"/>
<text text-anchor="start" x="570.5" y="-194" font-family="Helvetica,sans-Serif" font-size="10.00">protocols/root/protocol</text>
<text text-anchor="middle" x="626" y="-183" font-family="Helvetica,sans-Serif" font-size="10.00">/codec/wire_codec.h</text>
</a>
</g>
</g>
<!-- Node2&#45;&gt;Node16 -->
<g id="edge25_Node000002_Node000016" class="edge">
<title>Node2&#45;&gt;Node16</title>
<g id="a_edge25_Node000002_Node000016"><a xlink:title=" ">
<path fill="none" stroke="#63b8ff" d="M779.67,-307.78C797.53,-293.39 827.89,-264.06 811,-242 797.15,-223.91 745.17,-210.87 699.83,-202.65"/>
<polygon fill="#63b8ff" stroke="#63b8ff" points="700.43,-199.2 689.97,-200.91 699.21,-206.09 700.43,-199.2"/>
</a>
</g>
</g>
<!-- Node18 -->
<g id="Node000018" class="node">
<title>Node18</title>
<g id="a_Node000018"><a xlink:href="brix__net_8h.html" target="_top" xlink:title=" ">
<polygon fill="white" stroke="#666666" points="627.5,-266.5 562.5,-266.5 562.5,-247.5 627.5,-247.5 627.5,-266.5"/>
<text text-anchor="middle" x="595" y="-254.5" font-family="Helvetica,sans-Serif" font-size="10.00">brix_net.h</text>
</a>
</g>
</g>
<!-- Node2&#45;&gt;Node18 -->
<g id="edge26_Node000002_Node000018" class="edge">
<title>Node2&#45;&gt;Node18</title>
<g id="a_edge26_Node000002_Node000018"><a xlink:title=" ">
<path fill="none" stroke="#63b8ff" d="M745.74,-308.97C716.42,-299.06 664.54,-281.51 629.96,-269.82"/>
<polygon fill="#63b8ff" stroke="#63b8ff" points="630.86,-266.43 620.26,-266.54 628.61,-273.06 630.86,-266.43"/>
</a>
</g>
</g>
<!-- Node19 -->
<g id="Node000019" class="node">
<title>Node19</title>
<g id="a_Node000019"><a xlink:href="brix__auth_8h.html" target="_top" xlink:title=" ">
<polygon fill="white" stroke="#666666" points="716.5,-266.5 645.5,-266.5 645.5,-247.5 716.5,-247.5 716.5,-266.5"/>
<text text-anchor="middle" x="681" y="-254.5" font-family="Helvetica,sans-Serif" font-size="10.00">brix_auth.h</text>
</a>
</g>
</g>
<!-- Node2&#45;&gt;Node19 -->
<g id="edge27_Node000002_Node000019" class="edge">
<title>Node2&#45;&gt;Node19</title>
<g id="a_edge27_Node000002_Node000019"><a xlink:title=" ">
<path fill="none" stroke="#63b8ff" d="M755.16,-307.87C741.28,-298.54 718.93,-283.51 702.39,-272.38"/>
<polygon fill="#63b8ff" stroke="#63b8ff" points="704.14,-269.34 693.89,-266.67 700.24,-275.15 704.14,-269.34"/>
</a>
</g>
</g>
<!-- Node20 -->
<g id="Node000020" class="node">
<title>Node20</title>
<g id="a_Node000020"><a xlink:href="brix__ops_8h.html" target="_top" xlink:title=" ">
<polygon fill="white" stroke="#666666" points="801.5,-266.5 734.5,-266.5 734.5,-247.5 801.5,-247.5 801.5,-266.5"/>
<text text-anchor="middle" x="768" y="-254.5" font-family="Helvetica,sans-Serif" font-size="10.00">brix_ops.h</text>
</a>
</g>
</g>
<!-- Node2&#45;&gt;Node20 -->
<g id="edge28_Node000002_Node000020" class="edge">
<title>Node2&#45;&gt;Node20</title>
<g id="a_edge28_Node000002_Node000020"><a xlink:title=" ">
<path fill="none" stroke="#63b8ff" d="M768,-307.87C768,-299.75 768,-287.31 768,-276.89"/>
<polygon fill="#63b8ff" stroke="#63b8ff" points="771.5,-276.67 768,-266.67 764.5,-276.67 771.5,-276.67"/>
</a>
</g>
</g>
<!-- Node6&#45;&gt;Node4 -->
<g id="edge6_Node000006_Node000004" class="edge">
<title>Node6&#45;&gt;Node4</title>
<g id="a_edge6_Node000006_Node000004"><a xlink:title=" ">
<path fill="none" stroke="#63b8ff" d="M908.72,-181.37C913.96,-171.78 922.57,-156.05 929.27,-143.8"/>
<polygon fill="#63b8ff" stroke="#63b8ff" points="932.4,-145.36 934.13,-134.91 926.26,-142 932.4,-145.36"/>
</a>
</g>
</g>
<!-- Node6&#45;&gt;Node6 -->
<g id="edge7_Node000006_Node000006" class="edge">
<title>Node6&#45;&gt;Node6</title>
<g id="a_edge7_Node000006_Node000006"><a xlink:title=" ">
<path fill="none" stroke="#63b8ff" d="M917.33,-200.66C930.9,-206.34 946,-203.12 946,-191 946,-181.82 937.33,-177.75 927.22,-178.78"/>
<polygon fill="#63b8ff" stroke="#63b8ff" points="926.14,-175.45 917.33,-181.34 927.89,-182.23 926.14,-175.45"/>
</a>
</g>
</g>
<!-- Node9 -->
<g id="Node000009" class="node">
<title>Node9</title>
<g id="a_Node000009"><a xlink:href="types_8h.html" target="_top" xlink:title=" ">
<polygon fill="white" stroke="#666666" points="503.5,-74 450.5,-74 450.5,-55 503.5,-55 503.5,-74"/>
<text text-anchor="middle" x="477" y="-62" font-family="Helvetica,sans-Serif" font-size="10.00">types.h</text>
</a>
</g>
</g>
<!-- Node8&#45;&gt;Node9 -->
<g id="edge10_Node000008_Node000009" class="edge">
<title>Node8&#45;&gt;Node9</title>
<g id="a_edge10_Node000008_Node000009"><a xlink:title=" ">
<path fill="none" stroke="#63b8ff" d="M370.73,-241.74C355.7,-224.94 336.12,-196.71 351,-176 380.28,-135.25 423.87,-176.78 458,-140 472.02,-124.89 476.04,-100.92 477.02,-84.26"/>
<polygon fill="#63b8ff" stroke="#63b8ff" points="480.52,-84.19 477.3,-74.09 473.53,-83.99 480.52,-84.19"/>
</a>
</g>
</g>
<!-- Node10 -->
<g id="Node000010" class="node">
<title>Node10</title>
<g id="a_Node000010"><a xlink:href="opcodes_8h.html" target="_top" xlink:title=" ">
<polygon fill="white" stroke="#666666" points="258,-74 192,-74 192,-55 258,-55 258,-74"/>
<text text-anchor="middle" x="225" y="-62" font-family="Helvetica,sans-Serif" font-size="10.00">opcodes.h</text>
</a>
</g>
</g>
<!-- Node8&#45;&gt;Node10 -->
<g id="edge12_Node000008_Node000010" class="edge">
<title>Node8&#45;&gt;Node10</title>
<g id="a_edge12_Node000008_Node000010"><a xlink:title=" ">
<path fill="none" stroke="#63b8ff" d="M321.32,-254.33C243.85,-248.44 116.09,-225.44 57,-140 24.15,-92.5 121.76,-74.92 181.76,-68.7"/>
<polygon fill="#63b8ff" stroke="#63b8ff" points="182.15,-72.18 191.76,-67.73 181.47,-65.22 182.15,-72.18"/>
</a>
</g>
</g>
<!-- Node11 -->
<g id="Node000011" class="node">
<title>Node11</title>
<g id="a_Node000011"><a xlink:href="flags_8h.html" target="_top" xlink:title=" ">
<polygon fill="white" stroke="#666666" points="409.5,-200.5 360.5,-200.5 360.5,-181.5 409.5,-181.5 409.5,-200.5"/>
<text text-anchor="middle" x="385" y="-188.5" font-family="Helvetica,sans-Serif" font-size="10.00">flags.h</text>
</a>
</g>
</g>
<!-- Node8&#45;&gt;Node11 -->
<g id="edge13_Node000008_Node000011" class="edge">
<title>Node8&#45;&gt;Node11</title>
<g id="a_edge13_Node000008_Node000011"><a xlink:title=" ">
<path fill="none" stroke="#63b8ff" d="M385,-241.8C385,-232.7 385,-220.79 385,-210.9"/>
<polygon fill="#63b8ff" stroke="#63b8ff" points="388.5,-210.84 385,-200.84 381.5,-210.84 388.5,-210.84"/>
</a>
</g>
</g>
<!-- Node12 -->
<g id="Node000012" class="node">
<title>Node12</title>
<g id="a_Node000012"><a xlink:href="wire_8h.html" target="_top" xlink:title=" ">
<polygon fill="white" stroke="#666666" points="288.5,-200.5 241.5,-200.5 241.5,-181.5 288.5,-181.5 288.5,-200.5"/>
<text text-anchor="middle" x="265" y="-188.5" font-family="Helvetica,sans-Serif" font-size="10.00">wire.h</text>
</a>
</g>
</g>
<!-- Node8&#45;&gt;Node12 -->
<g id="edge14_Node000008_Node000012" class="edge">
<title>Node8&#45;&gt;Node12</title>
<g id="a_edge14_Node000008_Node000012"><a xlink:title=" ">
<path fill="none" stroke="#63b8ff" d="M358.67,-241.95C338.18,-231.03 309.94,-215.97 289.84,-205.25"/>
<polygon fill="#63b8ff" stroke="#63b8ff" points="291.44,-202.14 280.97,-200.52 288.15,-208.31 291.44,-202.14"/>
</a>
</g>
</g>
<!-- Node8&#45;&gt;Node16 -->
<g id="edge20_Node000008_Node000016" class="edge">
<title>Node8&#45;&gt;Node16</title>
<g id="a_edge20_Node000008_Node000016"><a xlink:title=" ">
<path fill="none" stroke="#63b8ff" d="M437.89,-241.95C474.93,-232.12 524.58,-218.93 563.57,-208.58"/>
<polygon fill="#63b8ff" stroke="#63b8ff" points="564.47,-211.96 573.23,-206.01 562.67,-205.2 564.47,-211.96"/>
</a>
</g>
</g>
<!-- Node17 -->
<g id="Node000017" class="node">
<title>Node17</title>
<g id="a_Node000017"><a xlink:href="gsi_8h.html" target="_top" xlink:title=" ">
<polygon fill="white" stroke="#666666" points="468,-200.5 428,-200.5 428,-181.5 468,-181.5 468,-200.5"/>
<text text-anchor="middle" x="448" y="-188.5" font-family="Helvetica,sans-Serif" font-size="10.00">gsi.h</text>
</a>
</g>
</g>
<!-- Node8&#45;&gt;Node17 -->
<g id="edge24_Node000008_Node000017" class="edge">
<title>Node8&#45;&gt;Node17</title>
<g id="a_edge24_Node000008_Node000017"><a xlink:title=" ">
<path fill="none" stroke="#63b8ff" d="M398.98,-241.8C408.8,-231.82 421.96,-218.46 432.17,-208.09"/>
<polygon fill="#63b8ff" stroke="#63b8ff" points="434.77,-210.43 439.29,-200.84 429.78,-205.52 434.77,-210.43"/>
</a>
</g>
</g>
<!-- Node9&#45;&gt;Node3 -->
<g id="edge11_Node000009_Node000003" class="edge">
<title>Node9&#45;&gt;Node3</title>
<g id="a_edge11_Node000009_Node000003"><a xlink:title=" ">
<path fill="none" stroke="#63b8ff" d="M488.41,-54.98C499.11,-47 515.34,-34.88 528.16,-25.31"/>
<polygon fill="#63b8ff" stroke="#63b8ff" points="530.47,-27.96 536.39,-19.17 526.28,-22.35 530.47,-27.96"/>
</a>
</g>
</g>
<!-- Node13 -->
<g id="Node000013" class="node">
<title>Node13</title>
<g id="a_Node000013"><a xlink:href="wire__core__requests_8h.html" target="_top" xlink:title=" ">
<polygon fill="white" stroke="#666666" points="449,-134.5 329,-134.5 329,-115.5 449,-115.5 449,-134.5"/>
<text text-anchor="middle" x="389" y="-122.5" font-family="Helvetica,sans-Serif" font-size="10.00">wire_core_requests.h</text>
</a>
</g>
</g>
<!-- Node12&#45;&gt;Node13 -->
<g id="edge15_Node000012_Node000013" class="edge">
<title>Node12&#45;&gt;Node13</title>
<g id="a_edge15_Node000012_Node000013"><a xlink:title=" ">
<path fill="none" stroke="#63b8ff" d="M281.72,-181.37C302.62,-170.59 338.59,-152.02 363.07,-139.38"/>
<polygon fill="#63b8ff" stroke="#63b8ff" points="364.86,-142.4 372.15,-134.7 361.65,-136.18 364.86,-142.4"/>
</a>
</g>
</g>
<!-- Node14 -->
<g id="Node000014" class="node">
<title>Node14</title>
<g id="a_Node000014"><a xlink:href="wire__write__extended__requests_8h.html" target="_top" xlink:title=" ">
<polygon fill="white" stroke="#666666" points="185.5,-140 66.5,-140 66.5,-110 185.5,-110 185.5,-140"/>
<text text-anchor="start" x="74.5" y="-128" font-family="Helvetica,sans-Serif" font-size="10.00">wire_write_extended</text>
<text text-anchor="middle" x="126" y="-117" font-family="Helvetica,sans-Serif" font-size="10.00">_requests.h</text>
</a>
</g>
</g>
<!-- Node12&#45;&gt;Node14 -->
<g id="edge18_Node000012_Node000014" class="edge">
<title>Node12&#45;&gt;Node14</title>
<g id="a_edge18_Node000012_Node000014"><a xlink:title=" ">
<path fill="none" stroke="#63b8ff" d="M246.25,-181.37C225.79,-171.95 192.43,-156.59 166.03,-144.43"/>
<polygon fill="#63b8ff" stroke="#63b8ff" points="167.2,-141.12 156.66,-140.12 164.28,-147.48 167.2,-141.12"/>
</a>
</g>
</g>
<!-- Node15 -->
<g id="Node000015" class="node">
<title>Node15</title>
<g id="a_Node000015"><a xlink:href="wire__vendor__ext_8h.html" target="_top" xlink:title=" ">
<polygon fill="white" stroke="#666666" points="310.5,-134.5 203.5,-134.5 203.5,-115.5 310.5,-115.5 310.5,-134.5"/>
<text text-anchor="middle" x="257" y="-122.5" font-family="Helvetica,sans-Serif" font-size="10.00">wire_vendor_ext.h</text>
</a>
</g>
</g>
<!-- Node12&#45;&gt;Node15 -->
<g id="edge19_Node000012_Node000015" class="edge">
<title>Node12&#45;&gt;Node15</title>
<g id="a_edge19_Node000012_Node000015"><a xlink:title=" ">
<path fill="none" stroke="#63b8ff" d="M263.92,-181.37C262.76,-172.07 260.87,-156.98 259.36,-144.9"/>
<polygon fill="#63b8ff" stroke="#63b8ff" points="262.83,-144.39 258.11,-134.91 255.88,-145.26 262.83,-144.39"/>
</a>
</g>
</g>
<!-- Node13&#45;&gt;Node9 -->
<g id="edge16_Node000013_Node000009" class="edge">
<title>Node13&#45;&gt;Node9</title>
<g id="a_edge16_Node000013_Node000009"><a xlink:title=" ">
<path fill="none" stroke="#63b8ff" d="M401.98,-115.37C416.02,-106.04 438.63,-91.01 455.36,-79.88"/>
<polygon fill="#63b8ff" stroke="#63b8ff" points="457.57,-82.62 463.96,-74.17 453.7,-76.79 457.57,-82.62"/>
</a>
</g>
</g>
<!-- Node13&#45;&gt;Node10 -->
<g id="edge17_Node000013_Node000010" class="edge">
<title>Node13&#45;&gt;Node10</title>
<g id="a_edge17_Node000013_Node000010"><a xlink:title=" ">
<path fill="none" stroke="#63b8ff" d="M365.15,-115.49C337.1,-105.49 290.33,-88.8 258.6,-77.49"/>
<polygon fill="#63b8ff" stroke="#63b8ff" points="259.47,-74.08 248.88,-74.02 257.12,-80.67 259.47,-74.08"/>
</a>
</g>
</g>
<!-- Node16&#45;&gt;Node3 -->
<g id="edge21_Node000016_Node000003" class="edge">
<title>Node16&#45;&gt;Node3</title>
<g id="a_edge21_Node000016_Node000003"><a xlink:title=" ">
<path fill="none" stroke="#63b8ff" d="M619.88,-175.91C605.82,-143.57 571.26,-64.02 555.75,-28.33"/>
<polygon fill="#63b8ff" stroke="#63b8ff" points="558.95,-26.91 551.75,-19.13 552.53,-29.7 558.95,-26.91"/>
</a>
</g>
</g>
<!-- Node16&#45;&gt;Node4 -->
<g id="edge22_Node000016_Node000004" class="edge">
<title>Node16&#45;&gt;Node4</title>
<g id="a_edge22_Node000016_Node000004"><a xlink:title=" ">
<path fill="none" stroke="#63b8ff" d="M689.72,-176.97C753.23,-163.99 848.64,-144.48 901.09,-133.75"/>
<polygon fill="#63b8ff" stroke="#63b8ff" points="901.89,-137.16 910.99,-131.73 900.49,-130.3 901.89,-137.16"/>
</a>
</g>
</g>
<!-- Node16&#45;&gt;Node7 -->
<g id="edge23_Node000016_Node000007" class="edge">
<title>Node16&#45;&gt;Node7</title>
<g id="a_edge23_Node000016_Node000007"><a xlink:title=" ">
<path fill="none" stroke="#63b8ff" d="M607.14,-175.8C593.36,-165.43 574.74,-151.4 560.76,-140.88"/>
<polygon fill="#63b8ff" stroke="#63b8ff" points="562.84,-138.06 552.75,-134.84 558.63,-143.66 562.84,-138.06"/>
</a>
</g>
</g>
</g>
</svg>
