<?xml version="1.0" encoding="UTF-8" standalone="no"?>
<!DOCTYPE svg PUBLIC "-//W3C//DTD SVG 1.1//EN"
 "http://www.w3.org/Graphics/SVG/1.1/DTD/svg11.dtd">
<!-- Generated by graphviz version 2.43.0 (0)
 -->
<!-- Title: src/auth/impersonate/client.c Pages: 1 -->
<svg width="1006pt" height="203pt"
 viewBox="0.00 0.00 1005.50 203.00" xmlns="http://www.w3.org/2000/svg" xmlns:xlink="http://www.w3.org/1999/xlink">
<g id="graph0" class="graph" transform="scale(1 1) rotate(0) translate(4 199)">
<title>src/auth/impersonate/client.c</title>
<!-- Node1 -->
<g id="Node000001" class="node">
<title>Node1</title>
<g id="a_Node000001"><a xlink:title=" ">
<polygon fill="#999999" stroke="#666666" points="751,-195 631,-195 631,-165 751,-165 751,-195"/>
<text text-anchor="start" x="639" y="-183" font-family="Helvetica,sans-Serif" font-size="10.00">src/auth/impersonate</text>
<text text-anchor="middle" x="691" y="-172" font-family="Helvetica,sans-Serif" font-size="10.00">/client.c</text>
</a>
</g>
</g>
<!-- Node2 -->
<g id="Node000002" class="node">
<title>Node2</title>
<g id="a_Node000002"><a xlink:href="impersonate_8h.html" target="_top" xlink:title=" ">
<polygon fill="white" stroke="#666666" points="306.5,-129 219.5,-129 219.5,-110 306.5,-110 306.5,-129"/>
<text text-anchor="middle" x="263" y="-117" font-family="Helvetica,sans-Serif" font-size="10.00">impersonate.h</text>
</a>
</g>
</g>
<!-- Node1&#45;&gt;Node2 -->
<g id="edge1_Node000001_Node000002" class="edge">
<title>Node1&#45;&gt;Node2</title>
<g id="a_edge1_Node000001_Node000002"><a xlink:title=" ">
<path fill="none" stroke="#63b8ff" d="M630.59,-170.74C546.9,-159.3 396.97,-138.81 316.89,-127.87"/>
<polygon fill="#63b8ff" stroke="#63b8ff" points="316.92,-124.34 306.54,-126.45 315.98,-131.27 316.92,-124.34"/>
</a>
</g>
</g>
<!-- Node8 -->
<g id="Node000008" class="node">
<title>Node8</title>
<g id="a_Node000008"><a xlink:href="impersonate__proto_8h.html" target="_top" xlink:title=" ">
<polygon fill="white" stroke="#666666" points="548,-74 430,-74 430,-55 548,-55 548,-74"/>
<text text-anchor="middle" x="489" y="-62" font-family="Helvetica,sans-Serif" font-size="10.00">impersonate_proto.h</text>
</a>
</g>
</g>
<!-- Node1&#45;&gt;Node8 -->
<g id="edge7_Node000001_Node000008" class="edge">
<title>Node1&#45;&gt;Node8</title>
<g id="a_edge7_Node000001_Node000008"><a xlink:title=" ">
<path fill="none" stroke="#63b8ff" d="M630.93,-177.16C591.16,-172.8 540.52,-160.75 508,-129 496.05,-117.33 491.54,-98.47 489.88,-84.33"/>
<polygon fill="#63b8ff" stroke="#63b8ff" points="493.36,-83.92 489.07,-74.23 486.38,-84.48 493.36,-83.92"/>
</a>
</g>
</g>
<!-- Node10 -->
<g id="Node000010" class="node">
<title>Node10</title>
<g id="a_Node000010"><a xlink:href="client__internal_8h.html" target="_top" xlink:title=" ">
<polygon fill="white" stroke="#666666" points="612.5,-129 517.5,-129 517.5,-110 612.5,-110 612.5,-129"/>
<text text-anchor="middle" x="565" y="-117" font-family="Helvetica,sans-Serif" font-size="10.00">client_internal.h</text>
</a>
</g>
</g>
<!-- Node1&#45;&gt;Node10 -->
<g id="edge9_Node000001_Node000010" class="edge">
<title>Node1&#45;&gt;Node10</title>
<g id="a_edge9_Node000001_Node000010"><a xlink:title=" ">
<path fill="none" stroke="#63b8ff" d="M660.82,-164.99C640.17,-155.4 613,-142.79 592.87,-133.44"/>
<polygon fill="#63b8ff" stroke="#63b8ff" points="594.15,-130.18 583.61,-129.14 591.2,-136.52 594.15,-130.18"/>
</a>
</g>
</g>
<!-- Node12 -->
<g id="Node000012" class="node">
<title>Node12</title>
<g id="a_Node000012"><a xlink:title=" ">
<polygon fill="#e0e0e0" stroke="#999999" points="681.5,-129 630.5,-129 630.5,-110 681.5,-110 681.5,-129"/>
<text text-anchor="middle" x="656" y="-117" font-family="Helvetica,sans-Serif" font-size="10.00">errno.h</text>
</a>
</g>
</g>
<!-- Node1&#45;&gt;Node12 -->
<g id="edge13_Node000001_Node000012" class="edge">
<title>Node1&#45;&gt;Node12</title>
<g id="a_edge13_Node000001_Node000012"><a xlink:title=" ">
<path fill="none" stroke="#63b8ff" d="M682.53,-164.84C677.71,-156.78 671.63,-146.62 666.5,-138.06"/>
<polygon fill="#63b8ff" stroke="#63b8ff" points="669.38,-136.05 661.24,-129.27 663.38,-139.64 669.38,-136.05"/>
</a>
</g>
</g>
<!-- Node13 -->
<g id="Node000013" class="node">
<title>Node13</title>
<g id="a_Node000013"><a xlink:title=" ">
<polygon fill="#e0e0e0" stroke="#999999" points="752.5,-129 699.5,-129 699.5,-110 752.5,-110 752.5,-129"/>
<text text-anchor="middle" x="726" y="-117" font-family="Helvetica,sans-Serif" font-size="10.00">string.h</text>
</a>
</g>
</g>
<!-- Node1&#45;&gt;Node13 -->
<g id="edge14_Node000001_Node000013" class="edge">
<title>Node1&#45;&gt;Node13</title>
<g id="a_edge14_Node000001_Node000013"><a xlink:title=" ">
<path fill="none" stroke="#63b8ff" d="M699.47,-164.84C704.29,-156.78 710.37,-146.62 715.5,-138.06"/>
<polygon fill="#63b8ff" stroke="#63b8ff" points="718.62,-139.64 720.76,-129.27 712.62,-136.05 718.62,-139.64"/>
</a>
</g>
</g>
<!-- Node14 -->
<g id="Node000014" class="node">
<title>Node14</title>
<g id="a_Node000014"><a xlink:title=" ">
<polygon fill="#e0e0e0" stroke="#999999" points="827,-129 771,-129 771,-110 827,-110 827,-129"/>
<text text-anchor="middle" x="799" y="-117" font-family="Helvetica,sans-Serif" font-size="10.00">unistd.h</text>
</a>
</g>
</g>
<!-- Node1&#45;&gt;Node14 -->
<g id="edge15_Node000001_Node000014" class="edge">
<title>Node1&#45;&gt;Node14</title>
<g id="a_edge15_Node000001_Node000014"><a xlink:title=" ">
<path fill="none" stroke="#63b8ff" d="M716.87,-164.99C734.24,-155.58 757.01,-143.24 774.17,-133.95"/>
<polygon fill="#63b8ff" stroke="#63b8ff" points="775.92,-136.98 783.05,-129.14 772.59,-130.82 775.92,-136.98"/>
</a>
</g>
</g>
<!-- Node15 -->
<g id="Node000015" class="node">
<title>Node15</title>
<g id="a_Node000015"><a xlink:title=" ">
<polygon fill="#e0e0e0" stroke="#999999" points="922.5,-129 845.5,-129 845.5,-110 922.5,-110 922.5,-129"/>
<text text-anchor="middle" x="884" y="-117" font-family="Helvetica,sans-Serif" font-size="10.00">sys/socket.h</text>
</a>
</g>
</g>
<!-- Node1&#45;&gt;Node15 -->
<g id="edge16_Node000001_Node000015" class="edge">
<title>Node1&#45;&gt;Node15</title>
<g id="a_edge16_Node000001_Node000015"><a xlink:title=" ">
<path fill="none" stroke="#63b8ff" d="M737.23,-164.99C770.54,-154.89 814.93,-141.44 846.14,-131.98"/>
<polygon fill="#63b8ff" stroke="#63b8ff" points="847.23,-135.3 855.78,-129.05 845.2,-128.6 847.23,-135.3"/>
</a>
</g>
</g>
<!-- Node16 -->
<g id="Node000016" class="node">
<title>Node16</title>
<g id="a_Node000016"><a xlink:title=" ">
<polygon fill="#e0e0e0" stroke="#999999" points="997.5,-129 940.5,-129 940.5,-110 997.5,-110 997.5,-129"/>
<text text-anchor="middle" x="969" y="-117" font-family="Helvetica,sans-Serif" font-size="10.00">sys/un.h</text>
</a>
</g>
</g>
<!-- Node1&#45;&gt;Node16 -->
<g id="edge17_Node000001_Node000016" class="edge">
<title>Node1&#45;&gt;Node16</title>
<g id="a_edge17_Node000001_Node000016"><a xlink:title=" ">
<path fill="none" stroke="#63b8ff" d="M751.49,-166.82C797.99,-157.37 864.09,-143.76 930.53,-129.29"/>
<polygon fill="#63b8ff" stroke="#63b8ff" points="931.31,-132.7 940.33,-127.15 929.81,-125.86 931.31,-132.7"/>
</a>
</g>
</g>
<!-- Node3 -->
<g id="Node000003" class="node">
<title>Node3</title>
<g id="a_Node000003"><a xlink:title=" ">
<polygon fill="#e0e0e0" stroke="#999999" points="78,-74 0,-74 0,-55 78,-55 78,-74"/>
<text text-anchor="middle" x="39" y="-62" font-family="Helvetica,sans-Serif" font-size="10.00">ngx_config.h</text>
</a>
</g>
</g>
<!-- Node2&#45;&gt;Node3 -->
<g id="edge2_Node000002_Node000003" class="edge">
<title>Node2&#45;&gt;Node3</title>
<g id="a_edge2_Node000002_Node000003"><a xlink:title=" ">
<path fill="none" stroke="#63b8ff" d="M227.01,-109.98C188.51,-100.87 127.31,-86.4 85.26,-76.45"/>
<polygon fill="#63b8ff" stroke="#63b8ff" points="85.81,-72.98 75.27,-74.08 84.2,-79.79 85.81,-72.98"/>
</a>
</g>
</g>
<!-- Node4 -->
<g id="Node000004" class="node">
<title>Node4</title>
<g id="a_Node000004"><a xlink:title=" ">
<polygon fill="#e0e0e0" stroke="#999999" points="166,-74 96,-74 96,-55 166,-55 166,-74"/>
<text text-anchor="middle" x="131" y="-62" font-family="Helvetica,sans-Serif" font-size="10.00">ngx_core.h</text>
</a>
</g>
</g>
<!-- Node2&#45;&gt;Node4 -->
<g id="edge3_Node000002_Node000004" class="edge">
<title>Node2&#45;&gt;Node4</title>
<g id="a_edge3_Node000002_Node000004"><a xlink:title=" ">
<path fill="none" stroke="#63b8ff" d="M241.79,-109.98C220.27,-101.34 186.72,-87.87 162.17,-78.02"/>
<polygon fill="#63b8ff" stroke="#63b8ff" points="163.18,-74.65 152.59,-74.17 160.57,-81.14 163.18,-74.65"/>
</a>
</g>
</g>
<!-- Node5 -->
<g id="Node000005" class="node">
<title>Node5</title>
<g id="a_Node000005"><a xlink:title=" ">
<polygon fill="#e0e0e0" stroke="#999999" points="256,-74 184,-74 184,-55 256,-55 256,-74"/>
<text text-anchor="middle" x="220" y="-62" font-family="Helvetica,sans-Serif" font-size="10.00">sys/types.h</text>
</a>
</g>
</g>
<!-- Node2&#45;&gt;Node5 -->
<g id="edge4_Node000002_Node000005" class="edge">
<title>Node2&#45;&gt;Node5</title>
<g id="a_edge4_Node000002_Node000005"><a xlink:title=" ">
<path fill="none" stroke="#63b8ff" d="M255.9,-109.75C249.83,-102.26 240.91,-91.28 233.49,-82.13"/>
<polygon fill="#63b8ff" stroke="#63b8ff" points="235.99,-79.65 226.97,-74.09 230.55,-84.06 235.99,-79.65"/>
</a>
</g>
</g>
<!-- Node6 -->
<g id="Node000006" class="node">
<title>Node6</title>
<g id="a_Node000006"><a xlink:title=" ">
<polygon fill="#e0e0e0" stroke="#999999" points="338,-74 274,-74 274,-55 338,-55 338,-74"/>
<text text-anchor="middle" x="306" y="-62" font-family="Helvetica,sans-Serif" font-size="10.00">sys/stat.h</text>
</a>
</g>
</g>
<!-- Node2&#45;&gt;Node6 -->
<g id="edge5_Node000002_Node000006" class="edge">
<title>Node2&#45;&gt;Node6</title>
<g id="a_edge5_Node000002_Node000006"><a xlink:title=" ">
<path fill="none" stroke="#63b8ff" d="M270.1,-109.75C276.17,-102.26 285.09,-91.28 292.51,-82.13"/>
<polygon fill="#63b8ff" stroke="#63b8ff" points="295.45,-84.06 299.03,-74.09 290.01,-79.65 295.45,-84.06"/>
</a>
</g>
</g>
<!-- Node7 -->
<g id="Node000007" class="node">
<title>Node7</title>
<g id="a_Node000007"><a xlink:title=" ">
<polygon fill="#e0e0e0" stroke="#999999" points="411.5,-74 356.5,-74 356.5,-55 411.5,-55 411.5,-74"/>
<text text-anchor="middle" x="384" y="-62" font-family="Helvetica,sans-Serif" font-size="10.00">signal.h</text>
</a>
</g>
</g>
<!-- Node2&#45;&gt;Node7 -->
<g id="edge6_Node000002_Node000007" class="edge">
<title>Node2&#45;&gt;Node7</title>
<g id="a_edge6_Node000002_Node000007"><a xlink:title=" ">
<path fill="none" stroke="#63b8ff" d="M282.44,-109.98C301.99,-101.42 332.38,-88.11 354.82,-78.28"/>
<polygon fill="#63b8ff" stroke="#63b8ff" points="356.45,-81.39 364.21,-74.17 353.64,-74.98 356.45,-81.39"/>
</a>
</g>
</g>
<!-- Node9 -->
<g id="Node000009" class="node">
<title>Node9</title>
<g id="a_Node000009"><a xlink:title=" ">
<polygon fill="#e0e0e0" stroke="#999999" points="558.5,-19 505.5,-19 505.5,0 558.5,0 558.5,-19"/>
<text text-anchor="middle" x="532" y="-7" font-family="Helvetica,sans-Serif" font-size="10.00">stdint.h</text>
</a>
</g>
</g>
<!-- Node8&#45;&gt;Node9 -->
<g id="edge8_Node000008_Node000009" class="edge">
<title>Node8&#45;&gt;Node9</title>
<g id="a_edge8_Node000008_Node000009"><a xlink:title=" ">
<path fill="none" stroke="#63b8ff" d="M496.1,-54.75C502.17,-47.26 511.09,-36.28 518.51,-27.13"/>
<polygon fill="#63b8ff" stroke="#63b8ff" points="521.45,-29.06 525.03,-19.09 516.01,-24.65 521.45,-29.06"/>
</a>
</g>
</g>
<!-- Node10&#45;&gt;Node8 -->
<g id="edge10_Node000010_Node000008" class="edge">
<title>Node10&#45;&gt;Node8</title>
<g id="a_edge10_Node000010_Node000008"><a xlink:title=" ">
<path fill="none" stroke="#63b8ff" d="M552.79,-109.98C541.22,-101.92 523.62,-89.65 509.84,-80.03"/>
<polygon fill="#63b8ff" stroke="#63b8ff" points="511.64,-77.02 501.43,-74.17 507.63,-82.76 511.64,-77.02"/>
</a>
</g>
</g>
<!-- Node10&#45;&gt;Node9 -->
<g id="edge12_Node000010_Node000009" class="edge">
<title>Node10&#45;&gt;Node9</title>
<g id="a_edge12_Node000010_Node000009"><a xlink:title=" ">
<path fill="none" stroke="#63b8ff" d="M564.95,-109.64C564.64,-97.15 563.2,-73.78 557,-55 553.88,-45.55 548.69,-35.82 543.84,-27.88"/>
<polygon fill="#63b8ff" stroke="#63b8ff" points="546.62,-25.73 538.26,-19.23 540.73,-29.53 546.62,-25.73"/>
</a>
</g>
</g>
<!-- Node11 -->
<g id="Node000011" class="node">
<title>Node11</title>
<g id="a_Node000011"><a xlink:title=" ">
<polygon fill="#e0e0e0" stroke="#999999" points="660,-74 604,-74 604,-55 660,-55 660,-74"/>
<text text-anchor="middle" x="632" y="-62" font-family="Helvetica,sans-Serif" font-size="10.00">stddef.h</text>
</a>
</g>
</g>
<!-- Node10&#45;&gt;Node11 -->
<g id="edge11_Node000010_Node000011" class="edge">
<title>Node10&#45;&gt;Node11</title>
<g id="a_edge11_Node000010_Node000011"><a xlink:title=" ">
<path fill="none" stroke="#63b8ff" d="M575.76,-109.98C585.77,-102.07 600.89,-90.11 612.93,-80.58"/>
<polygon fill="#63b8ff" stroke="#63b8ff" points="615.37,-83.12 621.04,-74.17 611.03,-77.63 615.37,-83.12"/>
</a>
</g>
</g>
</g>
</svg>
