<?xml version="1.0" encoding="UTF-8" standalone="no"?>
<!DOCTYPE svg PUBLIC "-//W3C//DTD SVG 1.1//EN"
 "http://www.w3.org/Graphics/SVG/1.1/DTD/svg11.dtd">
<!-- Generated by graphviz version 2.43.0 (0)
 -->
<!-- Title: client/lib/protocols/shared/checksum.c Pages: 1 -->
<!--zoomable 401 -->

<svg id="main" version="1.1" xmlns="http://www.w3.org/2000/svg" xmlns:xlink="http://www.w3.org/1999/xlink" xml:space="preserve" onload="init(evt)">
<style type="text/css"><![CDATA[
.node, .edge {opacity: 0.7;}
.node.selected, .edge.selected {opacity: 1;}
.edge:hover path { stroke: red; }
.edge:hover polygon { stroke: red; fill: red; }
]]></style>

<defs>
  <circle id="rim" cx="0" cy="0" r="7"/>
  <circle id="rim2" cx="0" cy="0" r="3.5"/>
  <g id="zoomPlus">
    <use xlink:href="#rim" fill="#404040"><set attributeName="fill" to="#808080" begin="zoomplus.mouseover" end="zoomplus.mouseout"/></use>
    <path d="M-4,0h8M0,-4v8" fill="none" stroke="white" stroke-width="1.5" pointer-events="none"/>
  </g>
  <g id="zoomMin">
    <use xlink:href="#rim" fill="#404040"><set attributeName="fill" to="#808080" begin="zoomminus.mouseover" end="zoomminus.mouseout"/></use>
    <path d="M-4,0h8" fill="none" stroke="white" stroke-width="1.5" pointer-events="none"/>
  </g>
  <g id="arrowUp" transform="translate(30 24)">
    <use xlink:href="#rim"/>
    <path pointer-events="none" fill="none" stroke="white" stroke-width="1.5" d="M0,-3.0v7 M-2.5,-0.5L0,-3.0L2.5,-0.5"/>
  </g>
  <g id="arrowRight" transform="rotate(90) translate(36 -43)">
    <use xlink:href="#rim"/>
    <path pointer-events="none" fill="none" stroke="white" stroke-width="1.5" d="M0,-3.0v7 M-2.5,-0.5L0,-3.0L2.5,-0.5"/>
  </g>
  <g id="arrowDown" transform="rotate(180) translate(-30 -48)">
    <use xlink:href="#rim"/>
    <path pointer-events="none" fill="none" stroke="white" stroke-width="1.5" d="M0,-3.0v7 M-2.5,-0.5L0,-3.0L2.5,-0.5"/>
  </g>
  <g id="arrowLeft" transform="rotate(270) translate(-36 17)">
    <use xlink:href="#rim"/>
    <path pointer-events="none" fill="none" stroke="white" stroke-width="1.5" d="M0,-3.0v7 M-2.5,-0.5L0,-3.0L2.5,-0.5"/>
  </g>
  <g id="resetDef">
    <use xlink:href="#rim2" fill="#404040"><set attributeName="fill" to="#808080" begin="reset.mouseover" end="reset.mouseout"/></use>
  </g>
</defs>
<script type="application/ecmascript">
var viewWidth = 1518;
var viewHeight = 401;
var sectionId = 'dynsection-0';
</script>
<script type="application/ecmascript" xlink:href="svg.min.js"/>
<svg id="graph" class="graph">
<g id="viewport">
<title>client/lib/protocols/shared/checksum.c</title>
<!-- Node1 -->
<g id="Node000001" class="node">
<title>Node1</title>
<g id="a_Node000001"><a xlink:title=" ">
<polygon fill="#999999" stroke="#666666" points="1288.5,-393 1175.5,-393 1175.5,-363 1288.5,-363 1288.5,-393"/>
<text text-anchor="start" x="1183.5" y="-381" font-family="Helvetica,sans-Serif" font-size="10.00">client/lib/protocols</text>
<text text-anchor="middle" x="1232" y="-370" font-family="Helvetica,sans-Serif" font-size="10.00">/shared/checksum.c</text>
</a>
</g>
</g>
<!-- Node2 -->
<g id="Node000002" class="node">
<title>Node2</title>
<g id="a_Node000002"><a xlink:href="brix_8h.html" target="_top" xlink:title=" ">
<polygon fill="white" stroke="#666666" points="927,-327 883,-327 883,-308 927,-308 927,-327"/>
<text text-anchor="middle" x="905" y="-315" font-family="Helvetica,sans-Serif" font-size="10.00">brix.h</text>
</a>
</g>
</g>
<!-- Node1&#45;&gt;Node2 -->
<g id="edge1_Node000001_Node000002" class="edge">
<title>Node1&#45;&gt;Node2</title>
<g id="a_edge1_Node000001_Node000002"><a xlink:title=" ">
<path fill="none" stroke="#63b8ff" d="M1175.41,-366.88C1106.55,-354.56 992.63,-334.18 937.24,-324.27"/>
<polygon fill="#63b8ff" stroke="#63b8ff" points="937.74,-320.8 927.28,-322.49 936.51,-327.69 937.74,-320.8"/>
</a>
</g>
</g>
<!-- Node5 -->
<g id="Node000005" class="node">
<title>Node5</title>
<g id="a_Node000005"><a xlink:title=" ">
<polygon fill="#e0e0e0" stroke="#999999" points="1173,-266.5 1123,-266.5 1123,-247.5 1173,-247.5 1173,-266.5"/>
<text text-anchor="middle" x="1148" y="-254.5" font-family="Helvetica,sans-Serif" font-size="10.00">stdio.h</text>
</a>
</g>
</g>
<!-- Node1&#45;&gt;Node5 -->
<g id="edge43_Node000001_Node000005" class="edge">
<title>Node1&#45;&gt;Node5</title>
<g id="a_edge43_Node000001_Node000005"><a xlink:title=" ">
<path fill="none" stroke="#63b8ff" d="M1217.72,-362.84C1208.4,-353.2 1196.28,-339.89 1187,-327 1175.23,-310.64 1164.16,-290.42 1156.85,-276.1"/>
<polygon fill="#63b8ff" stroke="#63b8ff" points="1159.83,-274.24 1152.23,-266.87 1153.57,-277.38 1159.83,-274.24"/>
</a>
</g>
</g>
<!-- Node21 -->
<g id="Node000021" class="node">
<title>Node21</title>
<g id="a_Node000021"><a xlink:href="checksum__core_8h.html" target="_top" xlink:title=" ">
<polygon fill="white" stroke="#666666" points="428,-272 298,-272 298,-242 428,-242 428,-272"/>
<text text-anchor="start" x="306" y="-260" font-family="Helvetica,sans-Serif" font-size="10.00">core/compat/checksum</text>
<text text-anchor="middle" x="363" y="-249" font-family="Helvetica,sans-Serif" font-size="10.00">_core.h</text>
</a>
</g>
</g>
<!-- Node1&#45;&gt;Node21 -->
<g id="edge29_Node000001_Node000021" class="edge">
<title>Node1&#45;&gt;Node21</title>
<g id="a_edge29_Node000001_Node000021"><a xlink:title=" ">
<path fill="none" stroke="#63b8ff" d="M1175.36,-370.33C1045.46,-354.83 716.14,-314.49 442,-272 440.72,-271.8 439.43,-271.6 438.14,-271.39"/>
<polygon fill="#63b8ff" stroke="#63b8ff" points="438.49,-267.91 428.06,-269.76 437.37,-274.82 438.49,-267.91"/>
</a>
</g>
</g>
<!-- Node27 -->
<g id="Node000027" class="node">
<title>Node27</title>
<g id="a_Node000027"><a xlink:href="hex_8h.html" target="_top" xlink:title=" ">
<polygon fill="white" stroke="#666666" points="1254.5,-200.5 1147.5,-200.5 1147.5,-181.5 1254.5,-181.5 1254.5,-200.5"/>
<text text-anchor="middle" x="1201" y="-188.5" font-family="Helvetica,sans-Serif" font-size="10.00">core/compat/hex.h</text>
</a>
</g>
</g>
<!-- Node1&#45;&gt;Node27 -->
<g id="edge38_Node000001_Node000027" class="edge">
<title>Node1&#45;&gt;Node27</title>
<g id="a_edge38_Node000001_Node000027"><a xlink:title=" ">
<path fill="none" stroke="#63b8ff" d="M1228.17,-362.64C1225.61,-352.69 1222.3,-339.1 1220,-327 1212.15,-285.68 1206.04,-236.67 1203.04,-210.56"/>
<polygon fill="#63b8ff" stroke="#63b8ff" points="1206.51,-210.12 1201.92,-200.58 1199.56,-210.9 1206.51,-210.12"/>
</a>
</g>
</g>
<!-- Node28 -->
<g id="Node000028" class="node">
<title>Node28</title>
<g id="a_Node000028"><a xlink:title=" ">
<polygon fill="#e0e0e0" stroke="#999999" points="1298.5,-327 1229.5,-327 1229.5,-308 1298.5,-308 1298.5,-327"/>
<text text-anchor="middle" x="1264" y="-315" font-family="Helvetica,sans-Serif" font-size="10.00">arpa/inet.h</text>
</a>
</g>
</g>
<!-- Node1&#45;&gt;Node28 -->
<g id="edge41_Node000001_Node000028" class="edge">
<title>Node1&#45;&gt;Node28</title>
<g id="a_edge41_Node000001_Node000028"><a xlink:title=" ">
<path fill="none" stroke="#63b8ff" d="M1239.75,-362.84C1244.15,-354.78 1249.71,-344.62 1254.4,-336.06"/>
<polygon fill="#63b8ff" stroke="#63b8ff" points="1257.48,-337.72 1259.2,-327.27 1251.34,-334.36 1257.48,-337.72"/>
</a>
</g>
</g>
<!-- Node29 -->
<g id="Node000029" class="node">
<title>Node29</title>
<g id="a_Node000029"><a xlink:title=" ">
<polygon fill="#e0e0e0" stroke="#999999" points="1367.5,-327 1316.5,-327 1316.5,-308 1367.5,-308 1367.5,-327"/>
<text text-anchor="middle" x="1342" y="-315" font-family="Helvetica,sans-Serif" font-size="10.00">errno.h</text>
</a>
</g>
</g>
<!-- Node1&#45;&gt;Node29 -->
<g id="edge42_Node000001_Node000029" class="edge">
<title>Node1&#45;&gt;Node29</title>
<g id="a_edge42_Node000001_Node000029"><a xlink:title=" ">
<path fill="none" stroke="#63b8ff" d="M1258.35,-362.99C1276.05,-353.58 1299.23,-341.24 1316.71,-331.95"/>
<polygon fill="#63b8ff" stroke="#63b8ff" points="1318.57,-334.92 1325.76,-327.14 1315.28,-328.74 1318.57,-334.92"/>
</a>
</g>
</g>
<!-- Node30 -->
<g id="Node000030" class="node">
<title>Node30</title>
<g id="a_Node000030"><a xlink:title=" ">
<polygon fill="#e0e0e0" stroke="#999999" points="1438.5,-327 1385.5,-327 1385.5,-308 1438.5,-308 1438.5,-327"/>
<text text-anchor="middle" x="1412" y="-315" font-family="Helvetica,sans-Serif" font-size="10.00">stdlib.h</text>
</a>
</g>
</g>
<!-- Node1&#45;&gt;Node30 -->
<g id="edge44_Node000001_Node000030" class="edge">
<title>Node1&#45;&gt;Node30</title>
<g id="a_edge44_Node000001_Node000030"><a xlink:title=" ">
<path fill="none" stroke="#63b8ff" d="M1275.11,-362.99C1305.91,-352.98 1346.87,-339.67 1375.93,-330.22"/>
<polygon fill="#63b8ff" stroke="#63b8ff" points="1377.25,-333.47 1385.68,-327.05 1375.09,-326.82 1377.25,-333.47"/>
</a>
</g>
</g>
<!-- Node31 -->
<g id="Node000031" class="node">
<title>Node31</title>
<g id="a_Node000031"><a xlink:title=" ">
<polygon fill="#e0e0e0" stroke="#999999" points="1509.5,-327 1456.5,-327 1456.5,-308 1509.5,-308 1509.5,-327"/>
<text text-anchor="middle" x="1483" y="-315" font-family="Helvetica,sans-Serif" font-size="10.00">string.h</text>
</a>
</g>
</g>
<!-- Node1&#45;&gt;Node31 -->
<g id="edge45_Node000001_Node000031" class="edge">
<title>Node1&#45;&gt;Node31</title>
<g id="a_edge45_Node000001_Node000031"><a xlink:title=" ">
<path fill="none" stroke="#63b8ff" d="M1288.89,-364.01C1330.17,-354.54 1387.62,-341.28 1446.42,-327.36"/>
<polygon fill="#63b8ff" stroke="#63b8ff" points="1447.33,-330.74 1456.25,-325.03 1445.72,-323.93 1447.33,-330.74"/>
</a>
</g>
</g>
<!-- Node3 -->
<g id="Node000003" class="node">
<title>Node3</title>
<g id="a_Node000003"><a xlink:title=" ">
<polygon fill="#e0e0e0" stroke="#999999" points="573.5,-19 520.5,-19 520.5,0 573.5,0 573.5,-19"/>
<text text-anchor="middle" x="547" y="-7" font-family="Helvetica,sans-Serif" font-size="10.00">stdint.h</text>
</a>
</g>
</g>
<!-- Node2&#45;&gt;Node3 -->
<g id="edge2_Node000002_Node000003" class="edge">
<title>Node2&#45;&gt;Node3</title>
<g id="a_edge2_Node000002_Node000003"><a xlink:title=" ">
<path fill="none" stroke="#63b8ff" d="M927.28,-308.71C943.77,-301.73 965.32,-289.82 977,-272 996.87,-241.68 1016.41,-139.95 996,-110 949.25,-41.41 682.25,-18.6 583.61,-12.45"/>
<polygon fill="#63b8ff" stroke="#63b8ff" points="583.71,-8.95 573.52,-11.85 583.29,-15.94 583.71,-8.95"/>
</a>
</g>
</g>
<!-- Node4 -->
<g id="Node000004" class="node">
<title>Node4</title>
<g id="a_Node000004"><a xlink:title=" ">
<polygon fill="#e0e0e0" stroke="#999999" points="1138,-134.5 1082,-134.5 1082,-115.5 1138,-115.5 1138,-134.5"/>
<text text-anchor="middle" x="1110" y="-122.5" font-family="Helvetica,sans-Serif" font-size="10.00">stddef.h</text>
</a>
</g>
</g>
<!-- Node2&#45;&gt;Node4 -->
<g id="edge3_Node000002_Node000004" class="edge">
<title>Node2&#45;&gt;Node4</title>
<g id="a_edge3_Node000002_Node000004"><a xlink:title=" ">
<path fill="none" stroke="#63b8ff" d="M927.26,-312.3C954.5,-306.44 1001.29,-293.96 1036,-272 1070.53,-250.15 1082.33,-242.84 1100,-206 1109.25,-186.72 1111.02,-161.97 1110.94,-145.14"/>
<polygon fill="#63b8ff" stroke="#63b8ff" points="1114.44,-144.81 1110.67,-134.91 1107.44,-145 1114.44,-144.81"/>
</a>
</g>
</g>
<!-- Node2&#45;&gt;Node5 -->
<g id="edge4_Node000002_Node000005" class="edge">
<title>Node2&#45;&gt;Node5</title>
<g id="a_edge4_Node000002_Node000005"><a xlink:title=" ">
<path fill="none" stroke="#63b8ff" d="M927.27,-312.62C965.03,-305.83 1043.85,-290.71 1109,-272 1111.28,-271.35 1113.61,-270.63 1115.95,-269.88"/>
<polygon fill="#63b8ff" stroke="#63b8ff" points="1117.13,-273.17 1125.48,-266.65 1114.88,-266.54 1117.13,-273.17"/>
</a>
</g>
</g>
<!-- Node6 -->
<g id="Node000006" class="node">
<title>Node6</title>
<g id="a_Node000006"><a xlink:href="time_8h.html" target="_top" xlink:title=" ">
<polygon fill="white" stroke="#666666" points="1073,-200.5 1025,-200.5 1025,-181.5 1073,-181.5 1073,-200.5"/>
<text text-anchor="middle" x="1049" y="-188.5" font-family="Helvetica,sans-Serif" font-size="10.00">time.h</text>
</a>
</g>
</g>
<!-- Node2&#45;&gt;Node6 -->
<g id="edge5_Node000002_Node000006" class="edge">
<title>Node2&#45;&gt;Node6</title>
<g id="a_edge5_Node000002_Node000006"><a xlink:title=" ">
<path fill="none" stroke="#63b8ff" d="M927.06,-312.15C950.48,-306.51 987.33,-294.61 1011,-272 1028.68,-255.11 1039.06,-228.34 1044.38,-210.48"/>
<polygon fill="#63b8ff" stroke="#63b8ff" points="1047.8,-211.25 1047.07,-200.68 1041.05,-209.4 1047.8,-211.25"/>
</a>
</g>
</g>
<!-- Node7 -->
<g id="Node000007" class="node">
<title>Node7</title>
<g id="a_Node000007"><a xlink:title=" ">
<polygon fill="#e0e0e0" stroke="#999999" points="492,-134.5 420,-134.5 420,-115.5 492,-115.5 492,-134.5"/>
<text text-anchor="middle" x="456" y="-122.5" font-family="Helvetica,sans-Serif" font-size="10.00">sys/types.h</text>
</a>
</g>
</g>
<!-- Node2&#45;&gt;Node7 -->
<g id="edge8_Node000002_Node000007" class="edge">
<title>Node2&#45;&gt;Node7</title>
<g id="a_edge8_Node000002_Node000007"><a xlink:title=" ">
<path fill="none" stroke="#63b8ff" d="M882.8,-314.72C807.83,-308.59 566.99,-287.84 536,-272 500.43,-253.83 493.78,-241.25 475,-206 464.75,-186.76 459.96,-162 457.77,-145.15"/>
<polygon fill="#63b8ff" stroke="#63b8ff" points="461.22,-144.47 456.64,-134.92 454.26,-145.25 461.22,-144.47"/>
</a>
</g>
</g>
<!-- Node8 -->
<g id="Node000008" class="node">
<title>Node8</title>
<g id="a_Node000008"><a xlink:href="protocol_8h.html" target="_top" xlink:title=" ">
<polygon fill="white" stroke="#666666" points="968.5,-272 841.5,-272 841.5,-242 968.5,-242 968.5,-272"/>
<text text-anchor="start" x="849.5" y="-260" font-family="Helvetica,sans-Serif" font-size="10.00">protocols/root/protocol</text>
<text text-anchor="middle" x="905" y="-249" font-family="Helvetica,sans-Serif" font-size="10.00">/protocol.h</text>
</a>
</g>
</g>
<!-- Node2&#45;&gt;Node8 -->
<g id="edge9_Node000002_Node000008" class="edge">
<title>Node2&#45;&gt;Node8</title>
<g id="a_edge9_Node000002_Node000008"><a xlink:title=" ">
<path fill="none" stroke="#63b8ff" d="M905,-307.87C905,-301.11 905,-291.35 905,-282.26"/>
<polygon fill="#63b8ff" stroke="#63b8ff" points="908.5,-282.11 905,-272.11 901.5,-282.11 908.5,-282.11"/>
</a>
</g>
</g>
<!-- Node16 -->
<g id="Node000016" class="node">
<title>Node16</title>
<g id="a_Node000016"><a xlink:href="wire__codec_8h.html" target="_top" xlink:title=" ">
<polygon fill="white" stroke="#666666" points="611.5,-206 484.5,-206 484.5,-176 611.5,-176 611.5,-206"/>
<text text-anchor="start" x="492.5" y="-194" font-family="Helvetica,sans-Serif" font-size="10.00">protocols/root/protocol</text>
<text text-anchor="middle" x="548" y="-183" font-family="Helvetica,sans-Serif" font-size="10.00">/codec/wire_codec.h</text>
</a>
</g>
</g>
<!-- Node2&#45;&gt;Node16 -->
<g id="edge25_Node000002_Node000016" class="edge">
<title>Node2&#45;&gt;Node16</title>
<g id="a_edge25_Node000002_Node000016"><a xlink:title=" ">
<path fill="none" stroke="#63b8ff" d="M889.88,-307.93C874.91,-299.29 851.46,-285.36 832,-272 813.97,-259.62 812.89,-251.09 793,-242 777.44,-234.89 688.12,-217.57 621.8,-205.32"/>
<polygon fill="#63b8ff" stroke="#63b8ff" points="622.25,-201.84 611.78,-203.47 620.98,-208.73 622.25,-201.84"/>
</a>
</g>
</g>
<!-- Node18 -->
<g id="Node000018" class="node">
<title>Node18</title>
<g id="a_Node000018"><a xlink:href="brix__net_8h.html" target="_top" xlink:title=" ">
<polygon fill="white" stroke="#666666" points="610.5,-266.5 545.5,-266.5 545.5,-247.5 610.5,-247.5 610.5,-266.5"/>
<text text-anchor="middle" x="578" y="-254.5" font-family="Helvetica,sans-Serif" font-size="10.00">brix_net.h</text>
</a>
</g>
</g>
<!-- Node2&#45;&gt;Node18 -->
<g id="edge26_Node000002_Node000018" class="edge">
<title>Node2&#45;&gt;Node18</title>
<g id="a_edge26_Node000002_Node000018"><a xlink:title=" ">
<path fill="none" stroke="#63b8ff" d="M882.85,-314.39C834.46,-309.48 715.85,-295.88 619,-272 616.19,-271.31 613.3,-270.51 610.42,-269.65"/>
<polygon fill="#63b8ff" stroke="#63b8ff" points="611.37,-266.28 600.78,-266.56 609.24,-272.94 611.37,-266.28"/>
</a>
</g>
</g>
<!-- Node19 -->
<g id="Node000019" class="node">
<title>Node19</title>
<g id="a_Node000019"><a xlink:href="brix__auth_8h.html" target="_top" xlink:title=" ">
<polygon fill="white" stroke="#666666" points="699.5,-266.5 628.5,-266.5 628.5,-247.5 699.5,-247.5 699.5,-266.5"/>
<text text-anchor="middle" x="664" y="-254.5" font-family="Helvetica,sans-Serif" font-size="10.00">brix_auth.h</text>
</a>
</g>
</g>
<!-- Node2&#45;&gt;Node19 -->
<g id="edge27_Node000002_Node000019" class="edge">
<title>Node2&#45;&gt;Node19</title>
<g id="a_edge27_Node000002_Node000019"><a xlink:title=" ">
<path fill="none" stroke="#63b8ff" d="M882.98,-312.17C846.41,-304.84 770.94,-289.09 708,-272 705.17,-271.23 702.25,-270.4 699.33,-269.53"/>
<polygon fill="#63b8ff" stroke="#63b8ff" points="700.07,-266.1 689.48,-266.52 698.02,-272.79 700.07,-266.1"/>
</a>
</g>
</g>
<!-- Node20 -->
<g id="Node000020" class="node">
<title>Node20</title>
<g id="a_Node000020"><a xlink:href="brix__ops_8h.html" target="_top" xlink:title=" ">
<polygon fill="white" stroke="#666666" points="784.5,-266.5 717.5,-266.5 717.5,-247.5 784.5,-247.5 784.5,-266.5"/>
<text text-anchor="middle" x="751" y="-254.5" font-family="Helvetica,sans-Serif" font-size="10.00">brix_ops.h</text>
</a>
</g>
</g>
<!-- Node2&#45;&gt;Node20 -->
<g id="edge28_Node000002_Node000020" class="edge">
<title>Node2&#45;&gt;Node20</title>
<g id="a_edge28_Node000002_Node000020"><a xlink:title=" ">
<path fill="none" stroke="#63b8ff" d="M882.94,-308.12C856.78,-298.18 812.99,-281.55 783.09,-270.19"/>
<polygon fill="#63b8ff" stroke="#63b8ff" points="784.12,-266.84 773.52,-266.56 781.63,-273.38 784.12,-266.84"/>
</a>
</g>
</g>
<!-- Node6&#45;&gt;Node4 -->
<g id="edge6_Node000006_Node000004" class="edge">
<title>Node6&#45;&gt;Node4</title>
<g id="a_edge6_Node000006_Node000004"><a xlink:title=" ">
<path fill="none" stroke="#63b8ff" d="M1057.23,-181.37C1066.72,-171.4 1082.56,-154.79 1094.41,-142.36"/>
<polygon fill="#63b8ff" stroke="#63b8ff" points="1097.15,-144.56 1101.51,-134.91 1092.08,-139.73 1097.15,-144.56"/>
</a>
</g>
</g>
<!-- Node6&#45;&gt;Node6 -->
<g id="edge7_Node000006_Node000006" class="edge">
<title>Node6&#45;&gt;Node6</title>
<g id="a_edge7_Node000006_Node000006"><a xlink:title=" ">
<path fill="none" stroke="#63b8ff" d="M1062.33,-200.66C1075.9,-206.34 1091,-203.12 1091,-191 1091,-181.82 1082.33,-177.75 1072.22,-178.78"/>
<polygon fill="#63b8ff" stroke="#63b8ff" points="1071.14,-175.45 1062.33,-181.34 1072.89,-182.23 1071.14,-175.45"/>
</a>
</g>
</g>
<!-- Node9 -->
<g id="Node000009" class="node">
<title>Node9</title>
<g id="a_Node000009"><a xlink:href="types_8h.html" target="_top" xlink:title=" ">
<polygon fill="white" stroke="#666666" points="601.5,-74 548.5,-74 548.5,-55 601.5,-55 601.5,-74"/>
<text text-anchor="middle" x="575" y="-62" font-family="Helvetica,sans-Serif" font-size="10.00">types.h</text>
</a>
</g>
</g>
<!-- Node8&#45;&gt;Node9 -->
<g id="edge10_Node000008_Node000009" class="edge">
<title>Node8&#45;&gt;Node9</title>
<g id="a_edge10_Node000008_Node000009"><a xlink:title=" ">
<path fill="none" stroke="#63b8ff" d="M841.19,-242.58C754.85,-222.97 608,-184.01 577,-140 565.62,-123.84 567.11,-100.44 570.16,-84.2"/>
<polygon fill="#63b8ff" stroke="#63b8ff" points="573.61,-84.79 572.38,-74.27 566.78,-83.26 573.61,-84.79"/>
</a>
</g>
</g>
<!-- Node10 -->
<g id="Node000010" class="node">
<title>Node10</title>
<g id="a_Node000010"><a xlink:href="opcodes_8h.html" target="_top" xlink:title=" ">
<polygon fill="white" stroke="#666666" points="847,-74 781,-74 781,-55 847,-55 847,-74"/>
<text text-anchor="middle" x="814" y="-62" font-family="Helvetica,sans-Serif" font-size="10.00">opcodes.h</text>
</a>
</g>
</g>
<!-- Node8&#45;&gt;Node10 -->
<g id="edge12_Node000008_Node000010" class="edge">
<title>Node8&#45;&gt;Node10</title>
<g id="a_edge12_Node000008_Node000010"><a xlink:title=" ">
<path fill="none" stroke="#63b8ff" d="M921.95,-241.7C952.37,-214.32 1010.1,-153.35 977,-110 962.5,-91.01 900.42,-78.16 857.21,-71.34"/>
<polygon fill="#63b8ff" stroke="#63b8ff" points="857.63,-67.86 847.22,-69.81 856.57,-74.78 857.63,-67.86"/>
</a>
</g>
</g>
<!-- Node11 -->
<g id="Node000011" class="node">
<title>Node11</title>
<g id="a_Node000011"><a xlink:href="flags_8h.html" target="_top" xlink:title=" ">
<polygon fill="white" stroke="#666666" points="805.5,-200.5 756.5,-200.5 756.5,-181.5 805.5,-181.5 805.5,-200.5"/>
<text text-anchor="middle" x="781" y="-188.5" font-family="Helvetica,sans-Serif" font-size="10.00">flags.h</text>
</a>
</g>
</g>
<!-- Node8&#45;&gt;Node11 -->
<g id="edge13_Node000008_Node000011" class="edge">
<title>Node8&#45;&gt;Node11</title>
<g id="a_edge13_Node000008_Node000011"><a xlink:title=" ">
<path fill="none" stroke="#63b8ff" d="M877.79,-241.95C856.52,-230.98 827.18,-215.83 806.39,-205.11"/>
<polygon fill="#63b8ff" stroke="#63b8ff" points="807.99,-201.99 797.5,-200.52 804.78,-208.21 807.99,-201.99"/>
</a>
</g>
</g>
<!-- Node12 -->
<g id="Node000012" class="node">
<title>Node12</title>
<g id="a_Node000012"><a xlink:href="wire_8h.html" target="_top" xlink:title=" ">
<polygon fill="white" stroke="#666666" points="929.5,-200.5 882.5,-200.5 882.5,-181.5 929.5,-181.5 929.5,-200.5"/>
<text text-anchor="middle" x="906" y="-188.5" font-family="Helvetica,sans-Serif" font-size="10.00">wire.h</text>
</a>
</g>
</g>
<!-- Node8&#45;&gt;Node12 -->
<g id="edge14_Node000008_Node000012" class="edge">
<title>Node8&#45;&gt;Node12</title>
<g id="a_edge14_Node000008_Node000012"><a xlink:title=" ">
<path fill="none" stroke="#63b8ff" d="M905.22,-241.8C905.36,-232.7 905.55,-220.79 905.7,-210.9"/>
<polygon fill="#63b8ff" stroke="#63b8ff" points="909.21,-210.9 905.86,-200.84 902.21,-210.79 909.21,-210.9"/>
</a>
</g>
</g>
<!-- Node8&#45;&gt;Node16 -->
<g id="edge20_Node000008_Node000016" class="edge">
<title>Node8&#45;&gt;Node16</title>
<g id="a_edge20_Node000008_Node000016"><a xlink:title=" ">
<path fill="none" stroke="#63b8ff" d="M841.15,-244.54C836.36,-243.68 831.6,-242.83 827,-242 737.67,-225.98 715.33,-222.02 626,-206 624.71,-205.77 623.4,-205.53 622.08,-205.3"/>
<polygon fill="#63b8ff" stroke="#63b8ff" points="622.31,-201.78 611.85,-203.46 621.08,-208.67 622.31,-201.78"/>
</a>
</g>
</g>
<!-- Node17 -->
<g id="Node000017" class="node">
<title>Node17</title>
<g id="a_Node000017"><a xlink:href="gsi_8h.html" target="_top" xlink:title=" ">
<polygon fill="white" stroke="#666666" points="864,-200.5 824,-200.5 824,-181.5 864,-181.5 864,-200.5"/>
<text text-anchor="middle" x="844" y="-188.5" font-family="Helvetica,sans-Serif" font-size="10.00">gsi.h</text>
</a>
</g>
</g>
<!-- Node8&#45;&gt;Node17 -->
<g id="edge24_Node000008_Node000017" class="edge">
<title>Node8&#45;&gt;Node17</title>
<g id="a_edge24_Node000008_Node000017"><a xlink:title=" ">
<path fill="none" stroke="#63b8ff" d="M891.46,-241.8C881.95,-231.82 869.22,-218.46 859.33,-208.09"/>
<polygon fill="#63b8ff" stroke="#63b8ff" points="861.86,-205.67 852.43,-200.84 856.8,-210.5 861.86,-205.67"/>
</a>
</g>
</g>
<!-- Node9&#45;&gt;Node3 -->
<g id="edge11_Node000009_Node000003" class="edge">
<title>Node9&#45;&gt;Node3</title>
<g id="a_edge11_Node000009_Node000003"><a xlink:title=" ">
<path fill="none" stroke="#63b8ff" d="M570.38,-54.75C566.54,-47.49 560.98,-36.95 556.24,-27.98"/>
<polygon fill="#63b8ff" stroke="#63b8ff" points="559.3,-26.3 551.54,-19.09 553.11,-29.57 559.3,-26.3"/>
</a>
</g>
</g>
<!-- Node13 -->
<g id="Node000013" class="node">
<title>Node13</title>
<g id="a_Node000013"><a xlink:href="wire__core__requests_8h.html" target="_top" xlink:title=" ">
<polygon fill="white" stroke="#666666" points="706,-134.5 586,-134.5 586,-115.5 706,-115.5 706,-134.5"/>
<text text-anchor="middle" x="646" y="-122.5" font-family="Helvetica,sans-Serif" font-size="10.00">wire_core_requests.h</text>
</a>
</g>
</g>
<!-- Node12&#45;&gt;Node13 -->
<g id="edge15_Node000012_Node000013" class="edge">
<title>Node12&#45;&gt;Node13</title>
<g id="a_edge15_Node000012_Node000013"><a xlink:title=" ">
<path fill="none" stroke="#63b8ff" d="M887.38,-181.39C882.74,-179.45 877.74,-177.51 873,-176 856.34,-170.68 758.16,-149.64 696.5,-136.61"/>
<polygon fill="#63b8ff" stroke="#63b8ff" points="697.06,-133.15 686.56,-134.51 695.62,-140 697.06,-133.15"/>
</a>
</g>
</g>
<!-- Node14 -->
<g id="Node000014" class="node">
<title>Node14</title>
<g id="a_Node000014"><a xlink:href="wire__write__extended__requests_8h.html" target="_top" xlink:title=" ">
<polygon fill="white" stroke="#666666" points="843.5,-140 724.5,-140 724.5,-110 843.5,-110 843.5,-140"/>
<text text-anchor="start" x="732.5" y="-128" font-family="Helvetica,sans-Serif" font-size="10.00">wire_write_extended</text>
<text text-anchor="middle" x="784" y="-117" font-family="Helvetica,sans-Serif" font-size="10.00">_requests.h</text>
</a>
</g>
</g>
<!-- Node12&#45;&gt;Node14 -->
<g id="edge18_Node000012_Node000014" class="edge">
<title>Node12&#45;&gt;Node14</title>
<g id="a_edge18_Node000012_Node000014"><a xlink:title=" ">
<path fill="none" stroke="#63b8ff" d="M889.55,-181.37C871.83,-172.07 843.08,-156.99 820.05,-144.91"/>
<polygon fill="#63b8ff" stroke="#63b8ff" points="821.39,-141.66 810.91,-140.12 818.14,-147.86 821.39,-141.66"/>
</a>
</g>
</g>
<!-- Node15 -->
<g id="Node000015" class="node">
<title>Node15</title>
<g id="a_Node000015"><a xlink:href="wire__vendor__ext_8h.html" target="_top" xlink:title=" ">
<polygon fill="white" stroke="#666666" points="968.5,-134.5 861.5,-134.5 861.5,-115.5 968.5,-115.5 968.5,-134.5"/>
<text text-anchor="middle" x="915" y="-122.5" font-family="Helvetica,sans-Serif" font-size="10.00">wire_vendor_ext.h</text>
</a>
</g>
</g>
<!-- Node12&#45;&gt;Node15 -->
<g id="edge19_Node000012_Node000015" class="edge">
<title>Node12&#45;&gt;Node15</title>
<g id="a_edge19_Node000012_Node000015"><a xlink:title=" ">
<path fill="none" stroke="#63b8ff" d="M907.21,-181.37C908.52,-172.07 910.64,-156.98 912.34,-144.9"/>
<polygon fill="#63b8ff" stroke="#63b8ff" points="915.82,-145.3 913.75,-134.91 908.89,-144.32 915.82,-145.3"/>
</a>
</g>
</g>
<!-- Node13&#45;&gt;Node9 -->
<g id="edge16_Node000013_Node000009" class="edge">
<title>Node13&#45;&gt;Node9</title>
<g id="a_edge16_Node000013_Node000009"><a xlink:title=" ">
<path fill="none" stroke="#63b8ff" d="M635.52,-115.37C624.51,-106.3 606.96,-91.84 593.59,-80.82"/>
<polygon fill="#63b8ff" stroke="#63b8ff" points="595.46,-77.83 585.52,-74.17 591.01,-83.23 595.46,-77.83"/>
</a>
</g>
</g>
<!-- Node13&#45;&gt;Node10 -->
<g id="edge17_Node000013_Node000010" class="edge">
<title>Node13&#45;&gt;Node10</title>
<g id="a_edge17_Node000013_Node000010"><a xlink:title=" ">
<path fill="none" stroke="#63b8ff" d="M670.43,-115.49C699.29,-105.44 747.5,-88.66 780,-77.34"/>
<polygon fill="#63b8ff" stroke="#63b8ff" points="781.25,-80.61 789.54,-74.02 778.95,-74 781.25,-80.61"/>
</a>
</g>
</g>
<!-- Node16&#45;&gt;Node3 -->
<g id="edge21_Node000016_Node000003" class="edge">
<title>Node16&#45;&gt;Node3</title>
<g id="a_edge21_Node000016_Node000003"><a xlink:title=" ">
<path fill="none" stroke="#63b8ff" d="M545.6,-175.8C541.77,-151.17 535.08,-98.99 539,-55 539.76,-46.5 541.32,-37.19 542.86,-29.29"/>
<polygon fill="#63b8ff" stroke="#63b8ff" points="546.32,-29.81 544.94,-19.3 539.47,-28.38 546.32,-29.81"/>
</a>
</g>
</g>
<!-- Node16&#45;&gt;Node4 -->
<g id="edge22_Node000016_Node000004" class="edge">
<title>Node16&#45;&gt;Node4</title>
<g id="a_edge22_Node000016_Node000004"><a xlink:title=" ">
<path fill="none" stroke="#63b8ff" d="M611.65,-182.75C729.23,-169.36 977.15,-141.13 1071.99,-130.33"/>
<polygon fill="#63b8ff" stroke="#63b8ff" points="1072.46,-133.8 1082,-129.19 1071.67,-126.84 1072.46,-133.8"/>
</a>
</g>
</g>
<!-- Node16&#45;&gt;Node7 -->
<g id="edge23_Node000016_Node000007" class="edge">
<title>Node16&#45;&gt;Node7</title>
<g id="a_edge23_Node000016_Node000007"><a xlink:title=" ">
<path fill="none" stroke="#63b8ff" d="M527.58,-175.8C512.45,-165.27 491.9,-150.97 476.7,-140.4"/>
<polygon fill="#63b8ff" stroke="#63b8ff" points="478.65,-137.5 468.45,-134.66 474.66,-143.24 478.65,-137.5"/>
</a>
</g>
</g>
<!-- Node21&#45;&gt;Node3 -->
<g id="edge30_Node000021_Node000003" class="edge">
<title>Node21&#45;&gt;Node3</title>
<g id="a_edge30_Node000021_Node000003"><a xlink:title=" ">
<path fill="none" stroke="#63b8ff" d="M364.73,-241.83C368.7,-214.13 380.57,-151.87 411,-110 439.71,-70.49 488.81,-40.2 519.49,-23.9"/>
<polygon fill="#63b8ff" stroke="#63b8ff" points="521.49,-26.81 528.76,-19.11 518.27,-20.6 521.49,-26.81"/>
</a>
</g>
</g>
<!-- Node22 -->
<g id="Node000022" class="node">
<title>Node22</title>
<g id="a_Node000022"><a xlink:href="sd_8h.html" target="_top" xlink:title=" ">
<polygon fill="white" stroke="#666666" points="342,-200.5 250,-200.5 250,-181.5 342,-181.5 342,-200.5"/>
<text text-anchor="middle" x="296" y="-188.5" font-family="Helvetica,sans-Serif" font-size="10.00">fs/backend/sd.h</text>
</a>
</g>
</g>
<!-- Node21&#45;&gt;Node22 -->
<g id="edge31_Node000021_Node000022" class="edge">
<title>Node21&#45;&gt;Node22</title>
<g id="a_edge31_Node000021_Node000022"><a xlink:title=" ">
<path fill="none" stroke="#63b8ff" d="M348.13,-241.8C337.58,-231.72 323.42,-218.19 312.52,-207.78"/>
<polygon fill="#63b8ff" stroke="#63b8ff" points="314.91,-205.22 305.26,-200.84 310.07,-210.28 314.91,-205.22"/>
</a>
</g>
</g>
<!-- Node22&#45;&gt;Node3 -->
<g id="edge34_Node000022_Node000003" class="edge">
<title>Node22&#45;&gt;Node3</title>
<g id="a_edge34_Node000022_Node000003"><a xlink:title=" ">
<path fill="none" stroke="#63b8ff" d="M303.74,-181.18C312.04,-171.48 325.33,-155.25 335,-140 357.68,-104.25 345.08,-81.62 378,-55 415.9,-24.35 472.78,-14.65 509.9,-11.67"/>
<polygon fill="#63b8ff" stroke="#63b8ff" points="510.53,-15.13 520.28,-10.97 510.06,-8.15 510.53,-15.13"/>
</a>
</g>
</g>
<!-- Node22&#45;&gt;Node7 -->
<g id="edge36_Node000022_Node000007" class="edge">
<title>Node22&#45;&gt;Node7</title>
<g id="a_edge36_Node000022_Node000007"><a xlink:title=" ">
<path fill="none" stroke="#63b8ff" d="M317.58,-181.37C345.21,-170.32 393.29,-151.08 424.88,-138.45"/>
<polygon fill="#63b8ff" stroke="#63b8ff" points="426.52,-141.56 434.51,-134.6 423.92,-135.06 426.52,-141.56"/>
</a>
</g>
</g>
<!-- Node23 -->
<g id="Node000023" class="node">
<title>Node23</title>
<g id="a_Node000023"><a xlink:title=" ">
<polygon fill="#e0e0e0" stroke="#999999" points="78,-134.5 0,-134.5 0,-115.5 78,-115.5 78,-134.5"/>
<text text-anchor="middle" x="39" y="-122.5" font-family="Helvetica,sans-Serif" font-size="10.00">ngx_config.h</text>
</a>
</g>
</g>
<!-- Node22&#45;&gt;Node23 -->
<g id="edge32_Node000022_Node000023" class="edge">
<title>Node22&#45;&gt;Node23</title>
<g id="a_edge32_Node000022_Node000023"><a xlink:title=" ">
<path fill="none" stroke="#63b8ff" d="M257.72,-181.43C215.7,-171.89 146.32,-155.74 87,-140 83.81,-139.15 80.51,-138.25 77.2,-137.33"/>
<polygon fill="#63b8ff" stroke="#63b8ff" points="77.94,-133.9 67.36,-134.52 76.02,-140.63 77.94,-133.9"/>
</a>
</g>
</g>
<!-- Node24 -->
<g id="Node000024" class="node">
<title>Node24</title>
<g id="a_Node000024"><a xlink:title=" ">
<polygon fill="#e0e0e0" stroke="#999999" points="166,-134.5 96,-134.5 96,-115.5 166,-115.5 166,-134.5"/>
<text text-anchor="middle" x="131" y="-122.5" font-family="Helvetica,sans-Serif" font-size="10.00">ngx_core.h</text>
</a>
</g>
</g>
<!-- Node22&#45;&gt;Node24 -->
<g id="edge33_Node000022_Node000024" class="edge">
<title>Node22&#45;&gt;Node24</title>
<g id="a_edge33_Node000022_Node000024"><a xlink:title=" ">
<path fill="none" stroke="#63b8ff" d="M273.75,-181.37C245.13,-170.27 195.24,-150.92 162.67,-138.28"/>
<polygon fill="#63b8ff" stroke="#63b8ff" points="163.75,-134.95 153.16,-134.6 161.22,-141.48 163.75,-134.95"/>
</a>
</g>
</g>
<!-- Node25 -->
<g id="Node000025" class="node">
<title>Node25</title>
<g id="a_Node000025"><a xlink:title=" ">
<polygon fill="#e0e0e0" stroke="#999999" points="248,-134.5 184,-134.5 184,-115.5 248,-115.5 248,-134.5"/>
<text text-anchor="middle" x="216" y="-122.5" font-family="Helvetica,sans-Serif" font-size="10.00">sys/stat.h</text>
</a>
</g>
</g>
<!-- Node22&#45;&gt;Node25 -->
<g id="edge35_Node000022_Node000025" class="edge">
<title>Node22&#45;&gt;Node25</title>
<g id="a_edge35_Node000022_Node000025"><a xlink:title=" ">
<path fill="none" stroke="#63b8ff" d="M285.21,-181.37C272.33,-171.06 250.56,-153.65 234.87,-141.09"/>
<polygon fill="#63b8ff" stroke="#63b8ff" points="236.87,-138.21 226.87,-134.7 232.5,-143.68 236.87,-138.21"/>
</a>
</g>
</g>
<!-- Node26 -->
<g id="Node000026" class="node">
<title>Node26</title>
<g id="a_Node000026"><a xlink:title=" ">
<polygon fill="#e0e0e0" stroke="#999999" points="326,-134.5 266,-134.5 266,-115.5 326,-115.5 326,-134.5"/>
<text text-anchor="middle" x="296" y="-122.5" font-family="Helvetica,sans-Serif" font-size="10.00">sys/uio.h</text>
</a>
</g>
</g>
<!-- Node22&#45;&gt;Node26 -->
<g id="edge37_Node000022_Node000026" class="edge">
<title>Node22&#45;&gt;Node26</title>
<g id="a_edge37_Node000022_Node000026"><a xlink:title=" ">
<path fill="none" stroke="#63b8ff" d="M296,-181.37C296,-172.16 296,-157.29 296,-145.27"/>
<polygon fill="#63b8ff" stroke="#63b8ff" points="299.5,-144.91 296,-134.91 292.5,-144.91 299.5,-144.91"/>
</a>
</g>
</g>
<!-- Node27&#45;&gt;Node3 -->
<g id="edge40_Node000027_Node000003" class="edge">
<title>Node27&#45;&gt;Node3</title>
<g id="a_edge40_Node000027_Node000003"><a xlink:title=" ">
<path fill="none" stroke="#63b8ff" d="M1196.88,-181.34C1189.02,-165.54 1170.54,-131.68 1147,-110 1110.26,-76.17 1096.72,-69.76 1049,-55 962,-28.1 684.56,-15.52 583.92,-11.76"/>
<polygon fill="#63b8ff" stroke="#63b8ff" points="583.76,-8.25 573.64,-11.39 583.5,-15.25 583.76,-8.25"/>
</a>
</g>
</g>
<!-- Node27&#45;&gt;Node4 -->
<g id="edge39_Node000027_Node000004" class="edge">
<title>Node27&#45;&gt;Node4</title>
<g id="a_edge39_Node000027_Node000004"><a xlink:title=" ">
<path fill="none" stroke="#63b8ff" d="M1188.73,-181.37C1173.94,-170.97 1148.85,-153.32 1130.97,-140.75"/>
<polygon fill="#63b8ff" stroke="#63b8ff" points="1132.56,-137.59 1122.37,-134.7 1128.54,-143.31 1132.56,-137.59"/>
</a>
</g>
</g>
</g>
</svg>

<g id="navigator" transform="translate(0 0)" fill="#404254">
  <rect fill="#f2f5e9" fill-opacity="0.5" stroke="#606060" stroke-width=".5" x="0" y="0" width="60" height="60"/>
  <use id="zoomplus" xlink:href="#zoomPlus" x="17" y="9" onmousedown="handleZoom(evt,'in')"/>
  <use id="zoomminus" xlink:href="#zoomMin" x="42" y="9" onmousedown="handleZoom(evt,'out')"/>
  <use id="reset" xlink:href="#resetDef" x="30" y="36" onmousedown="handleReset()"/>
   <use id="arrowup" xlink:href="#arrowUp" x="0" y="0" onmousedown="handlePan(0,-1)"/>
  <use id="arrowright" xlink:href="#arrowRight" x="0" y="0" onmousedown="handlePan(1,0)"/>
  <use id="arrowdown" xlink:href="#arrowDown" x="0" y="0" onmousedown="handlePan(0,1)"/>
  <use id="arrowleft" xlink:href="#arrowLeft" x="0" y="0" onmousedown="handlePan(-1,0)"/>
</g>
<svg viewBox="0 0 15 15" width="100%" height="30px" preserveAspectRatio="xMaxYMin meet">
 <g id="arrow_out" transform="scale(0.3 0.3)">
  <a xlink:href="client_2lib_2protocols_2shared_2checksum_8c__incl_org.svg" target="_base">
   <rect id="button" ry="5" rx="5" y="6" x="6" height="38" width="38"
        fill="#f2f5e9" fill-opacity="0.5" stroke="#606060" stroke-width="1.0"/>
   <path id="arrow"
     d="M 11.500037,31.436501 C 11.940474,20.09759 22.043105,11.32322 32.158766,21.979434 L 37.068811,17.246167 C 37.068811,17.246167 37.088388,32 37.088388,32 L 22.160133,31.978069 C 22.160133,31.978069 26.997745,27.140456 26.997745,27.140456 C 18.528582,18.264221 13.291696,25.230495 11.500037,31.436501 z"
     style="fill:#404040;"/>
  </a>
 </g>
</svg>

<style type='text/css'>
<![CDATA[
[data-mouse-over-selected='false'] { opacity: 0.7; }
[data-mouse-over-selected='true']  { opacity: 1.0; }
]]>
</style>
<script type="application/ecmascript"><![CDATA[
document.addEventListener('DOMContentLoaded', (event) => {
  highlightEdges();
  highlightAdjacentNodes();
});
]]></script>
</svg>
