<?xml version="1.0" encoding="UTF-8" standalone="no"?>
<!DOCTYPE svg PUBLIC "-//W3C//DTD SVG 1.1//EN"
 "http://www.w3.org/Graphics/SVG/1.1/DTD/svg11.dtd">
<!-- Generated by graphviz version 2.43.0 (0)
 -->
<!-- Title: src/net/cms/cns.h Pages: 1 -->
<svg width="1321pt" height="93pt"
 viewBox="0.00 0.00 1320.50 93.00" xmlns="http://www.w3.org/2000/svg" xmlns:xlink="http://www.w3.org/1999/xlink">
<g id="graph0" class="graph" transform="scale(1 1) rotate(0) translate(4 89)">
<title>src/net/cms/cns.h</title>
<!-- Node1 -->
<g id="Node000001" class="node">
<title>Node1</title>
<g id="a_Node000001"><a xlink:title=" ">
<polygon fill="#999999" stroke="#666666" points="710,-85 609,-85 609,-66 710,-66 710,-85"/>
<text text-anchor="middle" x="659.5" y="-73" font-family="Helvetica,sans-Serif" font-size="10.00">src/net/cms/cns.h</text>
</a>
</g>
</g>
<!-- Node2 -->
<g id="Node000002" class="node">
<title>Node2</title>
<g id="a_Node000002"><a xlink:href="server__conf_8c.html" target="_top" xlink:title=" ">
<polygon fill="white" stroke="#666666" points="121,-30 0,-30 0,0 121,0 121,-30"/>
<text text-anchor="start" x="8" y="-18" font-family="Helvetica,sans-Serif" font-size="10.00">src/core/config/server</text>
<text text-anchor="middle" x="60.5" y="-7" font-family="Helvetica,sans-Serif" font-size="10.00">_conf.c</text>
</a>
</g>
</g>
<!-- Node1&#45;&gt;Node2 -->
<g id="edge1_Node000001_Node000002" class="edge">
<title>Node1&#45;&gt;Node2</title>
<g id="a_edge1_Node000001_Node000002"><a xlink:title=" ">
<path fill="none" stroke="#63b8ff" d="M598.76,-71.7C499.99,-66.64 298.56,-54.17 129.5,-30 126.72,-29.6 123.88,-29.16 121.01,-28.69"/>
<polygon fill="#63b8ff" stroke="#63b8ff" points="598.69,-75.2 608.86,-72.21 599.05,-68.21 598.69,-75.2"/>
</a>
</g>
</g>
<!-- Node3 -->
<g id="Node000003" class="node">
<title>Node3</title>
<g id="a_Node000003"><a xlink:href="server__conf__merge__cluster_8c.html" target="_top" xlink:title=" ">
<polygon fill="white" stroke="#666666" points="264,-30 139,-30 139,0 264,0 264,-30"/>
<text text-anchor="start" x="147" y="-18" font-family="Helvetica,sans-Serif" font-size="10.00">src/core/config/server</text>
<text text-anchor="middle" x="201.5" y="-7" font-family="Helvetica,sans-Serif" font-size="10.00">_conf_merge_cluster.c</text>
</a>
</g>
</g>
<!-- Node1&#45;&gt;Node3 -->
<g id="edge2_Node000001_Node000003" class="edge">
<title>Node1&#45;&gt;Node3</title>
<g id="a_edge2_Node000001_Node000003"><a xlink:title=" ">
<path fill="none" stroke="#63b8ff" d="M598.53,-69.01C522.11,-61.79 387.22,-47.88 272.5,-30 269.77,-29.57 266.98,-29.12 264.17,-28.64"/>
<polygon fill="#63b8ff" stroke="#63b8ff" points="598.64,-72.54 608.92,-69.99 599.29,-65.57 598.64,-72.54"/>
</a>
</g>
</g>
<!-- Node4 -->
<g id="Node000004" class="node">
<title>Node4</title>
<g id="a_Node000004"><a xlink:href="cns_8c.html" target="_top" xlink:title=" ">
<polygon fill="white" stroke="#666666" points="383,-24.5 282,-24.5 282,-5.5 383,-5.5 383,-24.5"/>
<text text-anchor="middle" x="332.5" y="-12.5" font-family="Helvetica,sans-Serif" font-size="10.00">src/net/cms/cns.c</text>
</a>
</g>
</g>
<!-- Node1&#45;&gt;Node4 -->
<g id="edge3_Node000001_Node000004" class="edge">
<title>Node1&#45;&gt;Node4</title>
<g id="a_edge3_Node000001_Node000004"><a xlink:title=" ">
<path fill="none" stroke="#63b8ff" d="M598.75,-65.63C544.29,-57.38 462.3,-44.26 391.5,-30 383.45,-28.38 374.83,-26.45 366.73,-24.54"/>
<polygon fill="#63b8ff" stroke="#63b8ff" points="598.52,-69.13 608.93,-67.16 599.56,-62.21 598.52,-69.13"/>
</a>
</g>
</g>
<!-- Node5 -->
<g id="Node000005" class="node">
<title>Node5</title>
<g id="a_Node000005"><a xlink:href="server__recv__frame_8c.html" target="_top" xlink:title=" ">
<polygon fill="white" stroke="#666666" points="508,-30 401,-30 401,0 508,0 508,-30"/>
<text text-anchor="start" x="409" y="-18" font-family="Helvetica,sans-Serif" font-size="10.00">src/net/cms/server</text>
<text text-anchor="middle" x="454.5" y="-7" font-family="Helvetica,sans-Serif" font-size="10.00">_recv_frame.c</text>
</a>
</g>
</g>
<!-- Node1&#45;&gt;Node5 -->
<g id="edge4_Node000001_Node000005" class="edge">
<title>Node1&#45;&gt;Node5</title>
<g id="a_edge4_Node000001_Node000005"><a xlink:title=" ">
<path fill="none" stroke="#63b8ff" d="M619.9,-63.2C586.77,-53.75 539.36,-40.22 503.78,-30.06"/>
<polygon fill="#63b8ff" stroke="#63b8ff" points="619.11,-66.62 629.69,-65.99 621.04,-59.88 619.11,-66.62"/>
</a>
</g>
</g>
<!-- Node6 -->
<g id="Node000006" class="node">
<title>Node6</title>
<g id="a_Node000006"><a xlink:href="server__recv__frame__handlers_8c.html" target="_top" xlink:title=" ">
<polygon fill="white" stroke="#666666" points="659,-30 526,-30 526,0 659,0 659,-30"/>
<text text-anchor="start" x="534" y="-18" font-family="Helvetica,sans-Serif" font-size="10.00">src/net/cms/server</text>
<text text-anchor="middle" x="592.5" y="-7" font-family="Helvetica,sans-Serif" font-size="10.00">_recv_frame_handlers.c</text>
</a>
</g>
</g>
<!-- Node1&#45;&gt;Node6 -->
<g id="edge5_Node000001_Node000006" class="edge">
<title>Node1&#45;&gt;Node6</title>
<g id="a_edge5_Node000001_Node000006"><a xlink:title=" ">
<path fill="none" stroke="#63b8ff" d="M642.02,-59.23C631.7,-50.23 618.74,-38.91 608.67,-30.11"/>
<polygon fill="#63b8ff" stroke="#63b8ff" points="639.78,-61.93 649.61,-65.87 644.38,-56.65 639.78,-61.93"/>
</a>
</g>
</g>
<!-- Node7 -->
<g id="Node000007" class="node">
<title>Node7</title>
<g id="a_Node000007"><a xlink:href="close_8c.html" target="_top" xlink:title=" ">
<polygon fill="white" stroke="#666666" points="778,-30 677,-30 677,0 778,0 778,-30"/>
<text text-anchor="start" x="685" y="-18" font-family="Helvetica,sans-Serif" font-size="10.00">src/protocols/root</text>
<text text-anchor="middle" x="727.5" y="-7" font-family="Helvetica,sans-Serif" font-size="10.00">/read/close.c</text>
</a>
</g>
</g>
<!-- Node1&#45;&gt;Node7 -->
<g id="edge6_Node000001_Node000007" class="edge">
<title>Node1&#45;&gt;Node7</title>
<g id="a_edge6_Node000001_Node000007"><a xlink:title=" ">
<path fill="none" stroke="#63b8ff" d="M677.24,-59.23C687.71,-50.23 700.87,-38.91 711.09,-30.11"/>
<polygon fill="#63b8ff" stroke="#63b8ff" points="674.83,-56.69 669.53,-65.87 679.4,-62 674.83,-56.69"/>
</a>
</g>
</g>
<!-- Node8 -->
<g id="Node000008" class="node">
<title>Node8</title>
<g id="a_Node000008"><a xlink:href="stat_8c.html" target="_top" xlink:title=" ">
<polygon fill="white" stroke="#666666" points="897,-30 796,-30 796,0 897,0 897,-30"/>
<text text-anchor="start" x="804" y="-18" font-family="Helvetica,sans-Serif" font-size="10.00">src/protocols/root</text>
<text text-anchor="middle" x="846.5" y="-7" font-family="Helvetica,sans-Serif" font-size="10.00">/read/stat.c</text>
</a>
</g>
</g>
<!-- Node1&#45;&gt;Node8 -->
<g id="edge7_Node000001_Node000008" class="edge">
<title>Node1&#45;&gt;Node8</title>
<g id="a_edge7_Node000001_Node000008"><a xlink:title=" ">
<path fill="none" stroke="#63b8ff" d="M696.41,-62.95C726.59,-53.51 769.37,-40.13 801.54,-30.06"/>
<polygon fill="#63b8ff" stroke="#63b8ff" points="695.19,-59.67 686.69,-65.99 697.28,-66.35 695.19,-59.67"/>
</a>
</g>
</g>
<!-- Node9 -->
<g id="Node000009" class="node">
<title>Node9</title>
<g id="a_Node000009"><a xlink:href="stat__manager_8c.html" target="_top" xlink:title=" ">
<polygon fill="white" stroke="#666666" points="1034,-30 915,-30 915,0 1034,0 1034,-30"/>
<text text-anchor="start" x="923" y="-18" font-family="Helvetica,sans-Serif" font-size="10.00">src/protocols/root</text>
<text text-anchor="middle" x="974.5" y="-7" font-family="Helvetica,sans-Serif" font-size="10.00">/read/stat_manager.c</text>
</a>
</g>
</g>
<!-- Node1&#45;&gt;Node9 -->
<g id="edge8_Node000001_Node000009" class="edge">
<title>Node1&#45;&gt;Node9</title>
<g id="a_edge8_Node000001_Node000009"><a xlink:title=" ">
<path fill="none" stroke="#63b8ff" d="M718.78,-64.25C768.86,-55.48 842.46,-42.36 906.5,-30 909.22,-29.47 912,-28.93 914.81,-28.38"/>
<polygon fill="#63b8ff" stroke="#63b8ff" points="718.02,-60.82 708.77,-65.99 719.23,-67.72 718.02,-60.82"/>
</a>
</g>
</g>
<!-- Node10 -->
<g id="Node000010" class="node">
<title>Node10</title>
<g id="a_Node000010"><a xlink:href="protocols_2root_2stream_2module_8c.html" target="_top" xlink:title=" ">
<polygon fill="white" stroke="#666666" points="1154.5,-30 1052.5,-30 1052.5,0 1154.5,0 1154.5,-30"/>
<text text-anchor="start" x="1060.5" y="-18" font-family="Helvetica,sans-Serif" font-size="10.00">src/protocols/root</text>
<text text-anchor="middle" x="1103.5" y="-7" font-family="Helvetica,sans-Serif" font-size="10.00">/stream/module.c</text>
</a>
</g>
</g>
<!-- Node1&#45;&gt;Node10 -->
<g id="edge9_Node000001_Node000010" class="edge">
<title>Node1&#45;&gt;Node10</title>
<g id="a_edge9_Node000001_Node000010"><a xlink:title=" ">
<path fill="none" stroke="#63b8ff" d="M720.41,-69.6C796.4,-62.99 930.15,-49.73 1043.5,-30 1046.35,-29.5 1049.26,-28.96 1052.19,-28.38"/>
<polygon fill="#63b8ff" stroke="#63b8ff" points="719.75,-66.14 710.08,-70.49 720.35,-73.12 719.75,-66.14"/>
</a>
</g>
</g>
<!-- Node11 -->
<g id="Node000011" class="node">
<title>Node11</title>
<g id="a_Node000011"><a xlink:href="module__enums_8c.html" target="_top" xlink:title=" ">
<polygon fill="white" stroke="#666666" points="1312.5,-30 1172.5,-30 1172.5,0 1312.5,0 1312.5,-30"/>
<text text-anchor="start" x="1180.5" y="-18" font-family="Helvetica,sans-Serif" font-size="10.00">src/protocols/root</text>
<text text-anchor="middle" x="1242.5" y="-7" font-family="Helvetica,sans-Serif" font-size="10.00">/stream/module_enums.c</text>
</a>
</g>
</g>
<!-- Node1&#45;&gt;Node11 -->
<g id="edge10_Node000001_Node000011" class="edge">
<title>Node1&#45;&gt;Node11</title>
<g id="a_edge10_Node000001_Node000011"><a xlink:title=" ">
<path fill="none" stroke="#63b8ff" d="M720.08,-70.87C814.91,-64.79 1004.08,-51.12 1163.5,-30 1166.4,-29.62 1169.36,-29.2 1172.34,-28.76"/>
<polygon fill="#63b8ff" stroke="#63b8ff" points="719.85,-67.37 710.09,-71.5 720.29,-74.36 719.85,-67.37"/>
</a>
</g>
</g>
</g>
</svg>
