<?xml version="1.0" encoding="UTF-8" standalone="no"?>
<!DOCTYPE svg PUBLIC "-//W3C//DTD SVG 1.1//EN"
 "http://www.w3.org/Graphics/SVG/1.1/DTD/svg11.dtd">
<!-- Generated by graphviz version 2.43.0 (0)
 -->
<!-- Title: src/core/config/config.h Pages: 1 -->
<!--zoomable 93 -->

<svg id="main" version="1.1" xmlns="http://www.w3.org/2000/svg" xmlns:xlink="http://www.w3.org/1999/xlink" xml:space="preserve" onload="init(evt)">
<style type="text/css"><![CDATA[
.node, .edge {opacity: 0.7;}
.node.selected, .edge.selected {opacity: 1;}
.edge:hover path { stroke: red; }
.edge:hover polygon { stroke: red; fill: red; }
]]></style>

<defs>
  <circle id="rim" cx="0" cy="0" r="7"/>
  <circle id="rim2" cx="0" cy="0" r="3.5"/>
  <g id="zoomPlus">
    <use xlink:href="#rim" fill="#404040"><set attributeName="fill" to="#808080" begin="zoomplus.mouseover" end="zoomplus.mouseout"/></use>
    <path d="M-4,0h8M0,-4v8" fill="none" stroke="white" stroke-width="1.5" pointer-events="none"/>
  </g>
  <g id="zoomMin">
    <use xlink:href="#rim" fill="#404040"><set attributeName="fill" to="#808080" begin="zoomminus.mouseover" end="zoomminus.mouseout"/></use>
    <path d="M-4,0h8" fill="none" stroke="white" stroke-width="1.5" pointer-events="none"/>
  </g>
  <g id="arrowUp" transform="translate(30 24)">
    <use xlink:href="#rim"/>
    <path pointer-events="none" fill="none" stroke="white" stroke-width="1.5" d="M0,-3.0v7 M-2.5,-0.5L0,-3.0L2.5,-0.5"/>
  </g>
  <g id="arrowRight" transform="rotate(90) translate(36 -43)">
    <use xlink:href="#rim"/>
    <path pointer-events="none" fill="none" stroke="white" stroke-width="1.5" d="M0,-3.0v7 M-2.5,-0.5L0,-3.0L2.5,-0.5"/>
  </g>
  <g id="arrowDown" transform="rotate(180) translate(-30 -48)">
    <use xlink:href="#rim"/>
    <path pointer-events="none" fill="none" stroke="white" stroke-width="1.5" d="M0,-3.0v7 M-2.5,-0.5L0,-3.0L2.5,-0.5"/>
  </g>
  <g id="arrowLeft" transform="rotate(270) translate(-36 17)">
    <use xlink:href="#rim"/>
    <path pointer-events="none" fill="none" stroke="white" stroke-width="1.5" d="M0,-3.0v7 M-2.5,-0.5L0,-3.0L2.5,-0.5"/>
  </g>
  <g id="resetDef">
    <use xlink:href="#rim2" fill="#404040"><set attributeName="fill" to="#808080" begin="reset.mouseover" end="reset.mouseout"/></use>
  </g>
</defs>
<script type="application/ecmascript">
var viewWidth = 3641;
var viewHeight = 93;
var sectionId = 'dynsection-1';
</script>
<script type="application/ecmascript" xlink:href="svg.min.js"/>
<svg id="graph" class="graph">
<g id="viewport">
<title>src/core/config/config.h</title>
<!-- Node1 -->
<g id="Node000001" class="node">
<title>Node1</title>
<g id="a_Node000001"><a xlink:title=" ">
<polygon fill="#999999" stroke="#666666" points="1888.5,-85 1760.5,-85 1760.5,-66 1888.5,-66 1888.5,-85"/>
<text text-anchor="middle" x="1824.5" y="-73" font-family="Helvetica,sans-Serif" font-size="10.00">src/core/config/config.h</text>
</a>
</g>
</g>
<!-- Node2 -->
<g id="Node000002" class="node">
<title>Node2</title>
<g id="a_Node000002"><a xlink:href="auth_2gsi_2config_8c.html" target="_top" xlink:title=" ">
<polygon fill="white" stroke="#666666" points="113,-24.5 0,-24.5 0,-5.5 113,-5.5 113,-24.5"/>
<text text-anchor="middle" x="56.5" y="-12.5" font-family="Helvetica,sans-Serif" font-size="10.00">src/auth/gsi/config.c</text>
</a>
</g>
</g>
<!-- Node1&#45;&gt;Node2 -->
<g id="edge1_Node000001_Node000002" class="edge">
<title>Node1&#45;&gt;Node2</title>
<g id="a_edge1_Node000001_Node000002"><a xlink:title=" ">
<path fill="none" stroke="#63b8ff" d="M1749.83,-74.4C1464.6,-73.71 443.67,-68.56 121.5,-30 111.3,-28.78 100.33,-26.71 90.37,-24.54"/>
<polygon fill="#63b8ff" stroke="#63b8ff" points="1750.06,-77.9 1760.07,-74.42 1750.07,-70.9 1750.06,-77.9"/>
</a>
</g>
</g>
<!-- Node3 -->
<g id="Node000003" class="node">
<title>Node3</title>
<g id="a_Node000003"><a xlink:href="auth_2krb5_2config_8c.html" target="_top" xlink:title=" ">
<polygon fill="white" stroke="#666666" points="252,-24.5 131,-24.5 131,-5.5 252,-5.5 252,-24.5"/>
<text text-anchor="middle" x="191.5" y="-12.5" font-family="Helvetica,sans-Serif" font-size="10.00">src/auth/krb5/config.c</text>
</a>
</g>
</g>
<!-- Node1&#45;&gt;Node3 -->
<g id="edge2_Node000001_Node000003" class="edge">
<title>Node1&#45;&gt;Node3</title>
<g id="a_edge2_Node000001_Node000003"><a xlink:title=" ">
<path fill="none" stroke="#63b8ff" d="M1750.14,-74.08C1480.48,-72.28 554.42,-63.75 260.5,-30 249.69,-28.76 238.06,-26.69 227.48,-24.52"/>
<polygon fill="#63b8ff" stroke="#63b8ff" points="1750.19,-77.58 1760.21,-74.14 1750.24,-70.58 1750.19,-77.58"/>
</a>
</g>
</g>
<!-- Node4 -->
<g id="Node000004" class="node">
<title>Node4</title>
<g id="a_Node000004"><a xlink:href="auth_2sss_2config_8c.html" target="_top" xlink:title=" ">
<polygon fill="white" stroke="#666666" points="385,-24.5 270,-24.5 270,-5.5 385,-5.5 385,-24.5"/>
<text text-anchor="middle" x="327.5" y="-12.5" font-family="Helvetica,sans-Serif" font-size="10.00">src/auth/sss/config.c</text>
</a>
</g>
</g>
<!-- Node1&#45;&gt;Node4 -->
<g id="edge3_Node000001_Node000004" class="edge">
<title>Node1&#45;&gt;Node4</title>
<g id="a_edge3_Node000001_Node000004"><a xlink:title=" ">
<path fill="none" stroke="#63b8ff" d="M1750.2,-73.9C1495.82,-71.6 660.88,-61.73 394.5,-30 384,-28.75 372.7,-26.68 362.43,-24.5"/>
<polygon fill="#63b8ff" stroke="#63b8ff" points="1750.41,-77.41 1760.44,-74 1750.48,-70.41 1750.41,-77.41"/>
</a>
</g>
</g>
<!-- Node5 -->
<g id="Node000005" class="node">
<title>Node5</title>
<g id="a_Node000005"><a xlink:href="auth_2token_2config_8c.html" target="_top" xlink:title=" ">
<polygon fill="white" stroke="#666666" points="529.5,-24.5 403.5,-24.5 403.5,-5.5 529.5,-5.5 529.5,-24.5"/>
<text text-anchor="middle" x="466.5" y="-12.5" font-family="Helvetica,sans-Serif" font-size="10.00">src/auth/token/config.c</text>
</a>
</g>
</g>
<!-- Node1&#45;&gt;Node5 -->
<g id="edge4_Node000001_Node000005" class="edge">
<title>Node1&#45;&gt;Node5</title>
<g id="a_edge4_Node000001_Node000005"><a xlink:title=" ">
<path fill="none" stroke="#63b8ff" d="M1750.19,-73.47C1512.99,-69.93 775.67,-56.99 538.5,-30 527.37,-28.73 515.38,-26.68 504.44,-24.54"/>
<polygon fill="#63b8ff" stroke="#63b8ff" points="1750.38,-76.97 1760.43,-73.62 1750.49,-69.97 1750.38,-76.97"/>
</a>
</g>
</g>
<!-- Node6 -->
<g id="Node000006" class="node">
<title>Node6</title>
<g id="a_Node000006"><a xlink:href="refresh_8c.html" target="_top" xlink:title=" ">
<polygon fill="white" stroke="#666666" points="679,-24.5 548,-24.5 548,-5.5 679,-5.5 679,-24.5"/>
<text text-anchor="middle" x="613.5" y="-12.5" font-family="Helvetica,sans-Serif" font-size="10.00">src/auth/token/refresh.c</text>
</a>
</g>
</g>
<!-- Node1&#45;&gt;Node6 -->
<g id="edge5_Node000001_Node000006" class="edge">
<title>Node1&#45;&gt;Node6</title>
<g id="a_edge5_Node000001_Node000006"><a xlink:title=" ">
<path fill="none" stroke="#63b8ff" d="M1750.35,-73.03C1532.12,-68.48 894.49,-53.5 687.5,-30 676.2,-28.72 664.03,-26.69 652.89,-24.57"/>
<polygon fill="#63b8ff" stroke="#63b8ff" points="1750.35,-76.53 1760.42,-73.24 1750.49,-69.53 1750.35,-76.53"/>
</a>
</g>
</g>
<!-- Node7 -->
<g id="Node000007" class="node">
<title>Node7</title>
<g id="a_Node000007"><a xlink:href="core_2aio_2config_8c.html" target="_top" xlink:title=" ">
<polygon fill="white" stroke="#666666" points="810,-24.5 697,-24.5 697,-5.5 810,-5.5 810,-24.5"/>
<text text-anchor="middle" x="753.5" y="-12.5" font-family="Helvetica,sans-Serif" font-size="10.00">src/core/aio/config.c</text>
</a>
</g>
</g>
<!-- Node1&#45;&gt;Node7 -->
<g id="edge6_Node000001_Node000007" class="edge">
<title>Node1&#45;&gt;Node7</title>
<g id="a_edge6_Node000001_Node000007"><a xlink:title=" ">
<path fill="none" stroke="#63b8ff" d="M1750.07,-72.8C1549.27,-67.95 999.48,-52.91 819.5,-30 809.39,-28.71 798.53,-26.68 788.6,-24.57"/>
<polygon fill="#63b8ff" stroke="#63b8ff" points="1750.14,-76.3 1760.22,-73.04 1750.31,-69.3 1750.14,-76.3"/>
</a>
</g>
</g>
<!-- Node8 -->
<g id="Node000008" class="node">
<title>Node8</title>
<g id="a_Node000008"><a xlink:href="core_2config_2helpers_8c.html" target="_top" xlink:title=" ">
<polygon fill="white" stroke="#666666" points="962.5,-24.5 828.5,-24.5 828.5,-5.5 962.5,-5.5 962.5,-24.5"/>
<text text-anchor="middle" x="895.5" y="-12.5" font-family="Helvetica,sans-Serif" font-size="10.00">src/core/config/helpers.c</text>
</a>
</g>
</g>
<!-- Node1&#45;&gt;Node8 -->
<g id="edge7_Node000001_Node000008" class="edge">
<title>Node1&#45;&gt;Node8</title>
<g id="a_edge7_Node000001_Node000008"><a xlink:title=" ">
<path fill="none" stroke="#63b8ff" d="M1749.97,-73.86C1601.37,-71.88 1257.89,-63.7 971.5,-30 960.04,-28.65 947.7,-26.63 936.37,-24.54"/>
<polygon fill="#63b8ff" stroke="#63b8ff" points="1750.28,-77.37 1760.32,-74 1750.37,-70.37 1750.28,-77.37"/>
</a>
</g>
</g>
<!-- Node9 -->
<g id="Node000009" class="node">
<title>Node9</title>
<g id="a_Node000009"><a xlink:href="manager__map_8c.html" target="_top" xlink:title=" ">
<polygon fill="white" stroke="#666666" points="1114.5,-30 980.5,-30 980.5,0 1114.5,0 1114.5,-30"/>
<text text-anchor="start" x="988.5" y="-18" font-family="Helvetica,sans-Serif" font-size="10.00">src/core/config/manager</text>
<text text-anchor="middle" x="1047.5" y="-7" font-family="Helvetica,sans-Serif" font-size="10.00">_map.c</text>
</a>
</g>
</g>
<!-- Node1&#45;&gt;Node9 -->
<g id="edge8_Node000001_Node000009" class="edge">
<title>Node1&#45;&gt;Node9</title>
<g id="a_edge8_Node000001_Node000009"><a xlink:title=" ">
<path fill="none" stroke="#63b8ff" d="M1750.38,-72.69C1622.17,-68.91 1350.93,-58.06 1123.5,-30 1120.57,-29.64 1117.58,-29.24 1114.57,-28.8"/>
<polygon fill="#63b8ff" stroke="#63b8ff" points="1750.38,-76.19 1760.47,-72.98 1750.58,-69.19 1750.38,-76.19"/>
</a>
</g>
</g>
<!-- Node10 -->
<g id="Node000010" class="node">
<title>Node10</title>
<g id="a_Node000010"><a xlink:href="core_2config_2policy_8c.html" target="_top" xlink:title=" ">
<polygon fill="white" stroke="#666666" points="1258.5,-24.5 1132.5,-24.5 1132.5,-5.5 1258.5,-5.5 1258.5,-24.5"/>
<text text-anchor="middle" x="1195.5" y="-12.5" font-family="Helvetica,sans-Serif" font-size="10.00">src/core/config/policy.c</text>
</a>
</g>
</g>
<!-- Node1&#45;&gt;Node10 -->
<g id="edge9_Node000001_Node000010" class="edge">
<title>Node1&#45;&gt;Node10</title>
<g id="a_edge9_Node000001_Node000010"><a xlink:title=" ">
<path fill="none" stroke="#63b8ff" d="M1750.29,-71.23C1643.26,-65.9 1439.52,-53.52 1267.5,-30 1256.9,-28.55 1245.51,-26.55 1234.98,-24.5"/>
<polygon fill="#63b8ff" stroke="#63b8ff" points="1750.18,-74.73 1760.34,-71.72 1750.53,-67.73 1750.18,-74.73"/>
</a>
</g>
</g>
<!-- Node11 -->
<g id="Node000011" class="node">
<title>Node11</title>
<g id="a_Node000011"><a xlink:href="postconfiguration_8c.html" target="_top" xlink:title=" ">
<polygon fill="white" stroke="#666666" points="1460,-24.5 1277,-24.5 1277,-5.5 1460,-5.5 1460,-24.5"/>
<text text-anchor="middle" x="1368.5" y="-12.5" font-family="Helvetica,sans-Serif" font-size="10.00">src/core/config/postconfiguration.c</text>
</a>
</g>
</g>
<!-- Node1&#45;&gt;Node11 -->
<g id="edge10_Node000001_Node000011" class="edge">
<title>Node1&#45;&gt;Node11</title>
<g id="a_edge10_Node000001_Node000011"><a xlink:title=" ">
<path fill="none" stroke="#63b8ff" d="M1750.03,-65.45C1678.17,-56.65 1566.34,-42.78 1469.5,-30 1456.43,-28.27 1442.41,-26.37 1429.1,-24.53"/>
<polygon fill="#63b8ff" stroke="#63b8ff" points="1749.99,-68.97 1760.34,-66.71 1750.84,-62.02 1749.99,-68.97"/>
</a>
</g>
</g>
<!-- Node12 -->
<g id="Node000012" class="node">
<title>Node12</title>
<g id="a_Node000012"><a xlink:href="process_8c.html" target="_top" xlink:title=" ">
<polygon fill="white" stroke="#666666" points="1614.5,-24.5 1478.5,-24.5 1478.5,-5.5 1614.5,-5.5 1614.5,-24.5"/>
<text text-anchor="middle" x="1546.5" y="-12.5" font-family="Helvetica,sans-Serif" font-size="10.00">src/core/config/process.c</text>
</a>
</g>
</g>
<!-- Node1&#45;&gt;Node12 -->
<g id="edge11_Node000001_Node000012" class="edge">
<title>Node1&#45;&gt;Node12</title>
<g id="a_edge11_Node000001_Node000012"><a xlink:title=" ">
<path fill="none" stroke="#63b8ff" d="M1774.09,-63.89C1720.41,-52.6 1636.51,-34.94 1586.97,-24.52"/>
<polygon fill="#63b8ff" stroke="#63b8ff" points="1773.57,-67.36 1784.08,-65.99 1775.01,-60.51 1773.57,-67.36"/>
</a>
</g>
</g>
<!-- Node13 -->
<g id="Node000013" class="node">
<title>Node13</title>
<g id="a_Node000013"><a xlink:href="root__prepare_8c.html" target="_top" xlink:title=" ">
<polygon fill="white" stroke="#666666" points="1742.5,-30 1632.5,-30 1632.5,0 1742.5,0 1742.5,-30"/>
<text text-anchor="start" x="1640.5" y="-18" font-family="Helvetica,sans-Serif" font-size="10.00">src/core/config/root</text>
<text text-anchor="middle" x="1687.5" y="-7" font-family="Helvetica,sans-Serif" font-size="10.00">_prepare.c</text>
</a>
</g>
</g>
<!-- Node1&#45;&gt;Node13 -->
<g id="edge12_Node000001_Node000013" class="edge">
<title>Node1&#45;&gt;Node13</title>
<g id="a_edge12_Node000001_Node000013"><a xlink:title=" ">
<path fill="none" stroke="#63b8ff" d="M1795.12,-61.95C1773.18,-52.59 1743.19,-39.78 1720.44,-30.06"/>
<polygon fill="#63b8ff" stroke="#63b8ff" points="1794.01,-65.29 1804.58,-65.99 1796.76,-58.85 1794.01,-65.29"/>
</a>
</g>
</g>
<!-- Node14 -->
<g id="Node000014" class="node">
<title>Node14</title>
<g id="a_Node000014"><a xlink:href="runtime__server_8c.html" target="_top" xlink:title=" ">
<polygon fill="white" stroke="#666666" points="1888.5,-30 1760.5,-30 1760.5,0 1888.5,0 1888.5,-30"/>
<text text-anchor="start" x="1768.5" y="-18" font-family="Helvetica,sans-Serif" font-size="10.00">src/core/config/runtime</text>
<text text-anchor="middle" x="1824.5" y="-7" font-family="Helvetica,sans-Serif" font-size="10.00">_server.c</text>
</a>
</g>
</g>
<!-- Node1&#45;&gt;Node14 -->
<g id="edge13_Node000001_Node000014" class="edge">
<title>Node1&#45;&gt;Node14</title>
<g id="a_edge13_Node000001_Node000014"><a xlink:title=" ">
<path fill="none" stroke="#63b8ff" d="M1824.5,-55.65C1824.5,-47.36 1824.5,-37.78 1824.5,-30.11"/>
<polygon fill="#63b8ff" stroke="#63b8ff" points="1821,-55.87 1824.5,-65.87 1828,-55.87 1821,-55.87"/>
</a>
</g>
</g>
<!-- Node15 -->
<g id="Node000015" class="node">
<title>Node15</title>
<g id="a_Node000015"><a xlink:href="server__conf_8c.html" target="_top" xlink:title=" ">
<polygon fill="white" stroke="#666666" points="2028,-30 1907,-30 1907,0 2028,0 2028,-30"/>
<text text-anchor="start" x="1915" y="-18" font-family="Helvetica,sans-Serif" font-size="10.00">src/core/config/server</text>
<text text-anchor="middle" x="1967.5" y="-7" font-family="Helvetica,sans-Serif" font-size="10.00">_conf.c</text>
</a>
</g>
</g>
<!-- Node1&#45;&gt;Node15 -->
<g id="edge14_Node000001_Node000015" class="edge">
<title>Node1&#45;&gt;Node15</title>
<g id="a_edge14_Node000001_Node000015"><a xlink:title=" ">
<path fill="none" stroke="#63b8ff" d="M1854.55,-62.21C1877.5,-52.82 1909.16,-39.87 1933.12,-30.06"/>
<polygon fill="#63b8ff" stroke="#63b8ff" points="1853.22,-58.97 1845.29,-65.99 1855.87,-65.45 1853.22,-58.97"/>
</a>
</g>
</g>
<!-- Node16 -->
<g id="Node000016" class="node">
<title>Node16</title>
<g id="a_Node000016"><a xlink:href="fs_2cache_2directives_8c.html" target="_top" xlink:title=" ">
<polygon fill="white" stroke="#666666" points="2180.5,-24.5 2046.5,-24.5 2046.5,-5.5 2180.5,-5.5 2180.5,-24.5"/>
<text text-anchor="middle" x="2113.5" y="-12.5" font-family="Helvetica,sans-Serif" font-size="10.00">src/fs/cache/directives.c</text>
</a>
</g>
</g>
<!-- Node1&#45;&gt;Node16 -->
<g id="edge15_Node000001_Node000016" class="edge">
<title>Node1&#45;&gt;Node16</title>
<g id="a_edge15_Node000001_Node000016"><a xlink:title=" ">
<path fill="none" stroke="#63b8ff" d="M1876.56,-63.96C1932.34,-52.67 2019.82,-34.96 2071.43,-24.52"/>
<polygon fill="#63b8ff" stroke="#63b8ff" points="1875.63,-60.58 1866.52,-65.99 1877.02,-67.44 1875.63,-60.58"/>
</a>
</g>
</g>
<!-- Node17 -->
<g id="Node000017" class="node">
<title>Node17</title>
<g id="a_Node000017"><a xlink:href="net_2cms_2config_8c.html" target="_top" xlink:title=" ">
<polygon fill="white" stroke="#666666" points="2312,-24.5 2199,-24.5 2199,-5.5 2312,-5.5 2312,-24.5"/>
<text text-anchor="middle" x="2255.5" y="-12.5" font-family="Helvetica,sans-Serif" font-size="10.00">src/net/cms/config.c</text>
</a>
</g>
</g>
<!-- Node1&#45;&gt;Node17 -->
<g id="edge16_Node000001_Node000017" class="edge">
<title>Node1&#45;&gt;Node17</title>
<g id="a_edge16_Node000001_Node000017"><a xlink:title=" ">
<path fill="none" stroke="#63b8ff" d="M1898.85,-67.37C1972.8,-59.82 2089.37,-46.69 2189.5,-30 2198.74,-28.46 2208.65,-26.51 2217.91,-24.57"/>
<polygon fill="#63b8ff" stroke="#63b8ff" points="1898.3,-63.9 1888.7,-68.39 1899,-70.87 1898.3,-63.9"/>
</a>
</g>
</g>
<!-- Node18 -->
<g id="Node000018" class="node">
<title>Node18</title>
<g id="a_Node000018"><a xlink:href="server__module_8c.html" target="_top" xlink:title=" ">
<polygon fill="white" stroke="#666666" points="2437,-30 2330,-30 2330,0 2437,0 2437,-30"/>
<text text-anchor="start" x="2338" y="-18" font-family="Helvetica,sans-Serif" font-size="10.00">src/net/cms/server</text>
<text text-anchor="middle" x="2383.5" y="-7" font-family="Helvetica,sans-Serif" font-size="10.00">_module.c</text>
</a>
</g>
</g>
<!-- Node1&#45;&gt;Node18 -->
<g id="edge17_Node000001_Node000018" class="edge">
<title>Node1&#45;&gt;Node18</title>
<g id="a_edge17_Node000001_Node000018"><a xlink:title=" ">
<path fill="none" stroke="#63b8ff" d="M1898.82,-70.93C1996.32,-65.54 2172.51,-53.39 2321.5,-30 2324.23,-29.57 2327.01,-29.09 2329.82,-28.58"/>
<polygon fill="#63b8ff" stroke="#63b8ff" points="1898.57,-67.44 1888.77,-71.48 1898.95,-74.43 1898.57,-67.44"/>
</a>
</g>
</g>
<!-- Node19 -->
<g id="Node000019" class="node">
<title>Node19</title>
<g id="a_Node000019"><a xlink:href="net_2upstream_2directives_8c.html" target="_top" xlink:title=" ">
<polygon fill="white" stroke="#666666" points="2613.5,-24.5 2455.5,-24.5 2455.5,-5.5 2613.5,-5.5 2613.5,-24.5"/>
<text text-anchor="middle" x="2534.5" y="-12.5" font-family="Helvetica,sans-Serif" font-size="10.00">src/net/upstream/directives.c</text>
</a>
</g>
</g>
<!-- Node1&#45;&gt;Node19 -->
<g id="edge18_Node000001_Node000019" class="edge">
<title>Node1&#45;&gt;Node19</title>
<g id="a_edge18_Node000001_Node000019"><a xlink:title=" ">
<path fill="none" stroke="#63b8ff" d="M1898.95,-71.25C2015.85,-65.69 2249.44,-52.68 2446.5,-30 2459.26,-28.53 2472.99,-26.54 2485.73,-24.53"/>
<polygon fill="#63b8ff" stroke="#63b8ff" points="1898.52,-67.77 1888.69,-71.74 1898.85,-74.76 1898.52,-67.77"/>
</a>
</g>
</g>
<!-- Node20 -->
<g id="Node000020" class="node">
<title>Node20</title>
<g id="a_Node000020"><a xlink:href="observability_2dashboard_2config_8c.html" target="_top" xlink:title=" ">
<polygon fill="white" stroke="#666666" points="2783.5,-30 2631.5,-30 2631.5,0 2783.5,0 2783.5,-30"/>
<text text-anchor="start" x="2639.5" y="-18" font-family="Helvetica,sans-Serif" font-size="10.00">src/observability/dashboard</text>
<text text-anchor="middle" x="2707.5" y="-7" font-family="Helvetica,sans-Serif" font-size="10.00">/config.c</text>
</a>
</g>
</g>
<!-- Node1&#45;&gt;Node20 -->
<g id="edge19_Node000001_Node000020" class="edge">
<title>Node1&#45;&gt;Node20</title>
<g id="a_edge19_Node000001_Node000020"><a xlink:title=" ">
<path fill="none" stroke="#63b8ff" d="M1898.84,-73.02C2040.19,-69.62 2357.25,-59.15 2622.5,-30 2625.32,-29.69 2628.2,-29.35 2631.1,-28.98"/>
<polygon fill="#63b8ff" stroke="#63b8ff" points="1898.48,-69.53 1888.57,-73.26 1898.65,-76.53 1898.48,-69.53"/>
</a>
</g>
</g>
<!-- Node21 -->
<g id="Node000021" class="node">
<title>Node21</title>
<g id="a_Node000021"><a xlink:href="observability_2metrics_2config_8c.html" target="_top" xlink:title=" ">
<polygon fill="white" stroke="#666666" points="2939,-30 2802,-30 2802,0 2939,0 2939,-30"/>
<text text-anchor="start" x="2810" y="-18" font-family="Helvetica,sans-Serif" font-size="10.00">src/observability/metrics</text>
<text text-anchor="middle" x="2870.5" y="-7" font-family="Helvetica,sans-Serif" font-size="10.00">/config.c</text>
</a>
</g>
</g>
<!-- Node1&#45;&gt;Node21 -->
<g id="edge20_Node000001_Node000021" class="edge">
<title>Node1&#45;&gt;Node21</title>
<g id="a_edge20_Node000001_Node000021"><a xlink:title=" ">
<path fill="none" stroke="#63b8ff" d="M1899.1,-74.41C2061.86,-73.48 2460.82,-67.23 2792.5,-30 2795.51,-29.66 2798.57,-29.28 2801.67,-28.86"/>
<polygon fill="#63b8ff" stroke="#63b8ff" points="1898.71,-70.91 1888.73,-74.46 1898.74,-77.91 1898.71,-70.91"/>
</a>
</g>
</g>
<!-- Node22 -->
<g id="Node000022" class="node">
<title>Node22</title>
<g id="a_Node000022"><a xlink:href="tracking_8c.html" target="_top" xlink:title=" ">
<polygon fill="white" stroke="#666666" points="3094,-30 2957,-30 2957,0 3094,0 3094,-30"/>
<text text-anchor="start" x="2965" y="-18" font-family="Helvetica,sans-Serif" font-size="10.00">src/observability/metrics</text>
<text text-anchor="middle" x="3025.5" y="-7" font-family="Helvetica,sans-Serif" font-size="10.00">/tracking.c</text>
</a>
</g>
</g>
<!-- Node1&#45;&gt;Node22 -->
<g id="edge21_Node000001_Node000022" class="edge">
<title>Node1&#45;&gt;Node22</title>
<g id="a_edge21_Node000001_Node000022"><a xlink:title=" ">
<path fill="none" stroke="#63b8ff" d="M1898.91,-75.15C2079.44,-75.95 2554.8,-73.37 2948.5,-30 2951.2,-29.7 2953.95,-29.37 2956.72,-29"/>
<polygon fill="#63b8ff" stroke="#63b8ff" points="1898.75,-71.65 1888.73,-75.1 1898.72,-78.65 1898.75,-71.65"/>
</a>
</g>
</g>
<!-- Node23 -->
<g id="Node000023" class="node">
<title>Node23</title>
<g id="a_Node000023"><a xlink:href="protocols_2cvmfs_2module_8c.html" target="_top" xlink:title=" ">
<polygon fill="white" stroke="#666666" points="3224.5,-30 3112.5,-30 3112.5,0 3224.5,0 3224.5,-30"/>
<text text-anchor="start" x="3120.5" y="-18" font-family="Helvetica,sans-Serif" font-size="10.00">src/protocols/cvmfs</text>
<text text-anchor="middle" x="3168.5" y="-7" font-family="Helvetica,sans-Serif" font-size="10.00">/module.c</text>
</a>
</g>
</g>
<!-- Node1&#45;&gt;Node23 -->
<g id="edge22_Node000001_Node000023" class="edge">
<title>Node1&#45;&gt;Node23</title>
<g id="a_edge22_Node000001_Node000023"><a xlink:title=" ">
<path fill="none" stroke="#63b8ff" d="M1898.84,-73.65C2135.25,-70.66 2868.04,-59.22 3103.5,-30 3106.36,-29.64 3109.29,-29.23 3112.23,-28.76"/>
<polygon fill="#63b8ff" stroke="#63b8ff" points="1898.58,-70.15 1888.63,-73.77 1898.67,-77.15 1898.58,-70.15"/>
</a>
</g>
</g>
<!-- Node24 -->
<g id="Node000024" class="node">
<title>Node24</title>
<g id="a_Node000024"><a xlink:href="tls__config_8c.html" target="_top" xlink:title=" ">
<polygon fill="white" stroke="#666666" points="3356.5,-30 3242.5,-30 3242.5,0 3356.5,0 3356.5,-30"/>
<text text-anchor="start" x="3250.5" y="-18" font-family="Helvetica,sans-Serif" font-size="10.00">src/protocols/root</text>
<text text-anchor="middle" x="3299.5" y="-7" font-family="Helvetica,sans-Serif" font-size="10.00">/session/tls_config.c</text>
</a>
</g>
</g>
<!-- Node1&#45;&gt;Node24 -->
<g id="edge23_Node000001_Node000024" class="edge">
<title>Node1&#45;&gt;Node24</title>
<g id="a_edge23_Node000001_Node000024"><a xlink:title=" ">
<path fill="none" stroke="#63b8ff" d="M1899,-73.89C2151.18,-71.56 2971.53,-61.67 3233.5,-30 3236.41,-29.65 3239.38,-29.23 3242.37,-28.77"/>
<polygon fill="#63b8ff" stroke="#63b8ff" points="1898.81,-70.39 1888.85,-73.98 1898.88,-77.39 1898.81,-70.39"/>
</a>
</g>
</g>
<!-- Node25 -->
<g id="Node000025" class="node">
<title>Node25</title>
<g id="a_Node000025"><a xlink:href="protocols_2webdav_2config_8c.html" target="_top" xlink:title=" ">
<polygon fill="white" stroke="#666666" points="3494.5,-30 3374.5,-30 3374.5,0 3494.5,0 3494.5,-30"/>
<text text-anchor="start" x="3382.5" y="-18" font-family="Helvetica,sans-Serif" font-size="10.00">src/protocols/webdav</text>
<text text-anchor="middle" x="3434.5" y="-7" font-family="Helvetica,sans-Serif" font-size="10.00">/config.c</text>
</a>
</g>
</g>
<!-- Node1&#45;&gt;Node25 -->
<g id="edge24_Node000001_Node000025" class="edge">
<title>Node1&#45;&gt;Node25</title>
<g id="a_edge24_Node000001_Node000025"><a xlink:title=" ">
<path fill="none" stroke="#63b8ff" d="M1899.07,-74.04C2166.43,-72.12 3076.38,-63.26 3365.5,-30 3368.41,-29.66 3371.39,-29.27 3374.39,-28.83"/>
<polygon fill="#63b8ff" stroke="#63b8ff" points="1898.68,-70.54 1888.7,-74.11 1898.72,-77.54 1898.68,-70.54"/>
</a>
</g>
</g>
<!-- Node26 -->
<g id="Node000026" class="node">
<title>Node26</title>
<g id="a_Node000026"><a xlink:href="module__directives_8c.html" target="_top" xlink:title=" ">
<polygon fill="white" stroke="#666666" points="3632.5,-30 3512.5,-30 3512.5,0 3632.5,0 3632.5,-30"/>
<text text-anchor="start" x="3520.5" y="-18" font-family="Helvetica,sans-Serif" font-size="10.00">src/protocols/webdav</text>
<text text-anchor="middle" x="3572.5" y="-7" font-family="Helvetica,sans-Serif" font-size="10.00">/module_directives.c</text>
</a>
</g>
</g>
<!-- Node1&#45;&gt;Node26 -->
<g id="edge25_Node000001_Node000026" class="edge">
<title>Node1&#45;&gt;Node26</title>
<g id="a_edge25_Node000001_Node000026"><a xlink:title=" ">
<path fill="none" stroke="#63b8ff" d="M1899.05,-74.25C2181.53,-73.02 3186.01,-66.14 3503.5,-30 3506.41,-29.67 3509.39,-29.28 3512.39,-28.84"/>
<polygon fill="#63b8ff" stroke="#63b8ff" points="1898.9,-70.75 1888.92,-74.29 1898.93,-77.75 1898.9,-70.75"/>
</a>
</g>
</g>
</g>
</svg>

<g id="navigator" transform="translate(0 0)" fill="#404254">
  <rect fill="#f2f5e9" fill-opacity="0.5" stroke="#606060" stroke-width=".5" x="0" y="0" width="60" height="60"/>
  <use id="zoomplus" xlink:href="#zoomPlus" x="17" y="9" onmousedown="handleZoom(evt,'in')"/>
  <use id="zoomminus" xlink:href="#zoomMin" x="42" y="9" onmousedown="handleZoom(evt,'out')"/>
  <use id="reset" xlink:href="#resetDef" x="30" y="36" onmousedown="handleReset()"/>
   <use id="arrowup" xlink:href="#arrowUp" x="0" y="0" onmousedown="handlePan(0,-1)"/>
  <use id="arrowright" xlink:href="#arrowRight" x="0" y="0" onmousedown="handlePan(1,0)"/>
  <use id="arrowdown" xlink:href="#arrowDown" x="0" y="0" onmousedown="handlePan(0,1)"/>
  <use id="arrowleft" xlink:href="#arrowLeft" x="0" y="0" onmousedown="handlePan(-1,0)"/>
</g>
<svg viewBox="0 0 15 15" width="100%" height="30px" preserveAspectRatio="xMaxYMin meet">
 <g id="arrow_out" transform="scale(0.3 0.3)">
  <a xlink:href="config_2config_8h__dep__incl_org.svg" target="_base">
   <rect id="button" ry="5" rx="5" y="6" x="6" height="38" width="38"
        fill="#f2f5e9" fill-opacity="0.5" stroke="#606060" stroke-width="1.0"/>
   <path id="arrow"
     d="M 11.500037,31.436501 C 11.940474,20.09759 22.043105,11.32322 32.158766,21.979434 L 37.068811,17.246167 C 37.068811,17.246167 37.088388,32 37.088388,32 L 22.160133,31.978069 C 22.160133,31.978069 26.997745,27.140456 26.997745,27.140456 C 18.528582,18.264221 13.291696,25.230495 11.500037,31.436501 z"
     style="fill:#404040;"/>
  </a>
 </g>
</svg>

<style type='text/css'>
<![CDATA[
[data-mouse-over-selected='false'] { opacity: 0.7; }
[data-mouse-over-selected='true']  { opacity: 1.0; }
]]>
</style>
<script type="application/ecmascript"><![CDATA[
document.addEventListener('DOMContentLoaded', (event) => {
  highlightEdges();
  highlightAdjacentNodes();
});
]]></script>
</svg>
