<?xml version="1.0" encoding="UTF-8" standalone="no"?>
<!DOCTYPE svg PUBLIC "-//W3C//DTD SVG 1.1//EN"
 "http://www.w3.org/Graphics/SVG/1.1/DTD/svg11.dtd">
<!-- Generated by graphviz version 2.43.0 (0)
 -->
<!-- Title: client/lib/net/conn.c Pages: 1 -->
<!--zoomable 390 -->

<svg id="main" version="1.1" xmlns="http://www.w3.org/2000/svg" xmlns:xlink="http://www.w3.org/1999/xlink" xml:space="preserve" onload="init(evt)">
<style type="text/css"><![CDATA[
.node, .edge {opacity: 0.7;}
.node.selected, .edge.selected {opacity: 1;}
.edge:hover path { stroke: red; }
.edge:hover polygon { stroke: red; fill: red; }
]]></style>

<defs>
  <circle id="rim" cx="0" cy="0" r="7"/>
  <circle id="rim2" cx="0" cy="0" r="3.5"/>
  <g id="zoomPlus">
    <use xlink:href="#rim" fill="#404040"><set attributeName="fill" to="#808080" begin="zoomplus.mouseover" end="zoomplus.mouseout"/></use>
    <path d="M-4,0h8M0,-4v8" fill="none" stroke="white" stroke-width="1.5" pointer-events="none"/>
  </g>
  <g id="zoomMin">
    <use xlink:href="#rim" fill="#404040"><set attributeName="fill" to="#808080" begin="zoomminus.mouseover" end="zoomminus.mouseout"/></use>
    <path d="M-4,0h8" fill="none" stroke="white" stroke-width="1.5" pointer-events="none"/>
  </g>
  <g id="arrowUp" transform="translate(30 24)">
    <use xlink:href="#rim"/>
    <path pointer-events="none" fill="none" stroke="white" stroke-width="1.5" d="M0,-3.0v7 M-2.5,-0.5L0,-3.0L2.5,-0.5"/>
  </g>
  <g id="arrowRight" transform="rotate(90) translate(36 -43)">
    <use xlink:href="#rim"/>
    <path pointer-events="none" fill="none" stroke="white" stroke-width="1.5" d="M0,-3.0v7 M-2.5,-0.5L0,-3.0L2.5,-0.5"/>
  </g>
  <g id="arrowDown" transform="rotate(180) translate(-30 -48)">
    <use xlink:href="#rim"/>
    <path pointer-events="none" fill="none" stroke="white" stroke-width="1.5" d="M0,-3.0v7 M-2.5,-0.5L0,-3.0L2.5,-0.5"/>
  </g>
  <g id="arrowLeft" transform="rotate(270) translate(-36 17)">
    <use xlink:href="#rim"/>
    <path pointer-events="none" fill="none" stroke="white" stroke-width="1.5" d="M0,-3.0v7 M-2.5,-0.5L0,-3.0L2.5,-0.5"/>
  </g>
  <g id="resetDef">
    <use xlink:href="#rim2" fill="#404040"><set attributeName="fill" to="#808080" begin="reset.mouseover" end="reset.mouseout"/></use>
  </g>
</defs>
<script type="application/ecmascript">
var viewWidth = 1445;
var viewHeight = 390;
var sectionId = 'dynsection-0';
</script>
<script type="application/ecmascript" xlink:href="svg.min.js"/>
<svg id="graph" class="graph">
<g id="viewport">
<title>client/lib/net/conn.c</title>
<!-- Node1 -->
<g id="Node000001" class="node">
<title>Node1</title>
<g id="a_Node000001"><a xlink:title=" ">
<polygon fill="#999999" stroke="#666666" points="732.5,-382 620.5,-382 620.5,-363 732.5,-363 732.5,-382"/>
<text text-anchor="middle" x="676.5" y="-370" font-family="Helvetica,sans-Serif" font-size="10.00">client/lib/net/conn.c</text>
</a>
</g>
</g>
<!-- Node2 -->
<g id="Node000002" class="node">
<title>Node2</title>
<g id="a_Node000002"><a xlink:href="brix_8h.html" target="_top" xlink:title=" ">
<polygon fill="white" stroke="#666666" points="898.5,-327 854.5,-327 854.5,-308 898.5,-308 898.5,-327"/>
<text text-anchor="middle" x="876.5" y="-315" font-family="Helvetica,sans-Serif" font-size="10.00">brix.h</text>
</a>
</g>
</g>
<!-- Node1&#45;&gt;Node2 -->
<g id="edge1_Node000001_Node000002" class="edge">
<title>Node1&#45;&gt;Node2</title>
<g id="a_edge1_Node000001_Node000002"><a xlink:title=" ">
<path fill="none" stroke="#63b8ff" d="M708.63,-362.98C745.98,-353.09 807.23,-336.86 844.51,-326.98"/>
<polygon fill="#63b8ff" stroke="#63b8ff" points="845.58,-330.31 854.35,-324.37 843.79,-323.55 845.58,-330.31"/>
</a>
</g>
</g>
<!-- Node5 -->
<g id="Node000005" class="node">
<title>Node5</title>
<g id="a_Node000005"><a xlink:title=" ">
<polygon fill="#e0e0e0" stroke="#999999" points="1436.5,-266.5 1386.5,-266.5 1386.5,-247.5 1436.5,-247.5 1436.5,-266.5"/>
<text text-anchor="middle" x="1411.5" y="-254.5" font-family="Helvetica,sans-Serif" font-size="10.00">stdio.h</text>
</a>
</g>
</g>
<!-- Node1&#45;&gt;Node5 -->
<g id="edge49_Node000001_Node000005" class="edge">
<title>Node1&#45;&gt;Node5</title>
<g id="a_edge49_Node000001_Node000005"><a xlink:title=" ">
<path fill="none" stroke="#63b8ff" d="M732.62,-364.9C780.06,-358.32 849.38,-346.38 907.5,-327 925.79,-320.9 927.91,-313.12 946.5,-308 1129.68,-257.53 1186.85,-312.44 1372.5,-272 1375.33,-271.38 1378.24,-270.61 1381.13,-269.75"/>
<polygon fill="#63b8ff" stroke="#63b8ff" points="1382.35,-273.04 1390.74,-266.58 1380.15,-266.39 1382.35,-273.04"/>
</a>
</g>
</g>
<!-- Node21 -->
<g id="Node000021" class="node">
<title>Node21</title>
<g id="a_Node000021"><a xlink:href="frame__hdr_8h.html" target="_top" xlink:title=" ">
<polygon fill="white" stroke="#666666" points="480,-272 353,-272 353,-242 480,-242 480,-272"/>
<text text-anchor="start" x="361" y="-260" font-family="Helvetica,sans-Serif" font-size="10.00">protocols/root/protocol</text>
<text text-anchor="middle" x="416.5" y="-249" font-family="Helvetica,sans-Serif" font-size="10.00">/frame_hdr.h</text>
</a>
</g>
</g>
<!-- Node1&#45;&gt;Node21 -->
<g id="edge29_Node000001_Node000021" class="edge">
<title>Node1&#45;&gt;Node21</title>
<g id="a_edge29_Node000001_Node000021"><a xlink:title=" ">
<path fill="none" stroke="#63b8ff" d="M620.27,-364.92C582.97,-358.87 533.84,-347.58 494.5,-327 471.72,-315.08 450.18,-295.11 435.53,-279.71"/>
<polygon fill="#63b8ff" stroke="#63b8ff" points="437.89,-277.11 428.53,-272.15 432.75,-281.86 437.89,-277.11"/>
</a>
</g>
</g>
<!-- Node22 -->
<g id="Node000022" class="node">
<title>Node22</title>
<g id="a_Node000022"><a xlink:title=" ">
<polygon fill="#e0e0e0" stroke="#999999" points="498,-200.5 445,-200.5 445,-181.5 498,-181.5 498,-200.5"/>
<text text-anchor="middle" x="471.5" y="-188.5" font-family="Helvetica,sans-Serif" font-size="10.00">string.h</text>
</a>
</g>
</g>
<!-- Node1&#45;&gt;Node22 -->
<g id="edge50_Node000001_Node000022" class="edge">
<title>Node1&#45;&gt;Node22</title>
<g id="a_edge50_Node000001_Node000022"><a xlink:title=" ">
<path fill="none" stroke="#63b8ff" d="M657.36,-362.98C640.46,-354.98 615.62,-342.02 596.5,-327 550.01,-290.49 505.4,-236.21 484.26,-208.94"/>
<polygon fill="#63b8ff" stroke="#63b8ff" points="486.88,-206.6 478.02,-200.79 481.32,-210.85 486.88,-206.6"/>
</a>
</g>
</g>
<!-- Node23 -->
<g id="Node000023" class="node">
<title>Node23</title>
<g id="a_Node000023"><a xlink:title=" ">
<polygon fill="#e0e0e0" stroke="#999999" points="585,-200.5 516,-200.5 516,-181.5 585,-181.5 585,-200.5"/>
<text text-anchor="middle" x="550.5" y="-188.5" font-family="Helvetica,sans-Serif" font-size="10.00">arpa/inet.h</text>
</a>
</g>
</g>
<!-- Node1&#45;&gt;Node23 -->
<g id="edge48_Node000001_Node000023" class="edge">
<title>Node1&#45;&gt;Node23</title>
<g id="a_edge48_Node000001_Node000023"><a xlink:title=" ">
<path fill="none" stroke="#63b8ff" d="M663.12,-362.83C640.43,-347.4 594.53,-312.92 570.5,-272 559.31,-252.94 554.34,-227.78 552.16,-210.8"/>
<polygon fill="#63b8ff" stroke="#63b8ff" points="555.61,-210.1 551.06,-200.53 548.65,-210.85 555.61,-210.1"/>
</a>
</g>
</g>
<!-- Node24 -->
<g id="Node000024" class="node">
<title>Node24</title>
<g id="a_Node000024"><a xlink:href="bootstrap__pack_8h.html" target="_top" xlink:title=" ">
<polygon fill="white" stroke="#666666" points="740,-272 613,-272 613,-242 740,-242 740,-272"/>
<text text-anchor="start" x="621" y="-260" font-family="Helvetica,sans-Serif" font-size="10.00">protocols/root/protocol</text>
<text text-anchor="middle" x="676.5" y="-249" font-family="Helvetica,sans-Serif" font-size="10.00">/bootstrap_pack.h</text>
</a>
</g>
</g>
<!-- Node1&#45;&gt;Node24 -->
<g id="edge34_Node000001_Node000024" class="edge">
<title>Node1&#45;&gt;Node24</title>
<g id="a_edge34_Node000001_Node000024"><a xlink:title=" ">
<path fill="none" stroke="#63b8ff" d="M676.5,-362.97C676.5,-346.08 676.5,-307.85 676.5,-282.48"/>
<polygon fill="#63b8ff" stroke="#63b8ff" points="680,-282.18 676.5,-272.18 673,-282.18 680,-282.18"/>
</a>
</g>
</g>
<!-- Node25 -->
<g id="Node000025" class="node">
<title>Node25</title>
<g id="a_Node000025"><a xlink:href="host__format_8h.html" target="_top" xlink:title=" ">
<polygon fill="white" stroke="#666666" points="149,-200.5 0,-200.5 0,-181.5 149,-181.5 149,-200.5"/>
<text text-anchor="middle" x="74.5" y="-188.5" font-family="Helvetica,sans-Serif" font-size="10.00">core/compat/host_format.h</text>
</a>
</g>
</g>
<!-- Node1&#45;&gt;Node25 -->
<g id="edge41_Node000001_Node000025" class="edge">
<title>Node1&#45;&gt;Node25</title>
<g id="a_edge41_Node000001_Node000025"><a xlink:title=" ">
<path fill="none" stroke="#63b8ff" d="M620.4,-368.41C557.3,-363.81 452.31,-352.74 365.5,-327 260.88,-295.98 145.94,-233.36 97.76,-205.68"/>
<polygon fill="#63b8ff" stroke="#63b8ff" points="99.45,-202.62 89.04,-200.63 95.94,-208.67 99.45,-202.62"/>
</a>
</g>
</g>
<!-- Node26 -->
<g id="Node000026" class="node">
<title>Node26</title>
<g id="a_Node000026"><a xlink:href="crypto_8h.html" target="_top" xlink:title=" ">
<polygon fill="white" stroke="#666666" points="286.5,-200.5 166.5,-200.5 166.5,-181.5 286.5,-181.5 286.5,-200.5"/>
<text text-anchor="middle" x="226.5" y="-188.5" font-family="Helvetica,sans-Serif" font-size="10.00">core/compat/crypto.h</text>
</a>
</g>
</g>
<!-- Node1&#45;&gt;Node26 -->
<g id="edge44_Node000001_Node000026" class="edge">
<title>Node1&#45;&gt;Node26</title>
<g id="a_edge44_Node000001_Node000026"><a xlink:title=" ">
<path fill="none" stroke="#63b8ff" d="M620.36,-369.79C563.7,-366.37 474.65,-356.32 403.5,-327 334.91,-298.73 269.67,-236.96 241.31,-207.81"/>
<polygon fill="#63b8ff" stroke="#63b8ff" points="243.77,-205.32 234.32,-200.51 238.71,-210.16 243.77,-205.32"/>
</a>
</g>
</g>
<!-- Node27 -->
<g id="Node000027" class="node">
<title>Node27</title>
<g id="a_Node000027"><a xlink:title=" ">
<polygon fill="#e0e0e0" stroke="#999999" points="1018,-327 955,-327 955,-308 1018,-308 1018,-327"/>
<text text-anchor="middle" x="986.5" y="-315" font-family="Helvetica,sans-Serif" font-size="10.00">pthread.h</text>
</a>
</g>
</g>
<!-- Node1&#45;&gt;Node27 -->
<g id="edge47_Node000001_Node000027" class="edge">
<title>Node1&#45;&gt;Node27</title>
<g id="a_edge47_Node000001_Node000027"><a xlink:title=" ">
<path fill="none" stroke="#63b8ff" d="M728.64,-362.96C781.92,-354.17 867.04,-339.98 940.5,-327 941.95,-326.74 943.42,-326.48 944.91,-326.21"/>
<polygon fill="#63b8ff" stroke="#63b8ff" points="945.62,-329.64 954.84,-324.42 944.37,-322.76 945.62,-329.64"/>
</a>
</g>
</g>
<!-- Node28 -->
<g id="Node000028" class="node">
<title>Node28</title>
<g id="a_Node000028"><a xlink:title=" ">
<polygon fill="#e0e0e0" stroke="#999999" points="1089,-327 1036,-327 1036,-308 1089,-308 1089,-327"/>
<text text-anchor="middle" x="1062.5" y="-315" font-family="Helvetica,sans-Serif" font-size="10.00">stdlib.h</text>
</a>
</g>
</g>
<!-- Node1&#45;&gt;Node28 -->
<g id="edge51_Node000001_Node000028" class="edge">
<title>Node1&#45;&gt;Node28</title>
<g id="a_edge51_Node000001_Node000028"><a xlink:title=" ">
<path fill="none" stroke="#63b8ff" d="M732.73,-366.33C800.19,-359.7 916.87,-346.84 1025.65,-327.17"/>
<polygon fill="#63b8ff" stroke="#63b8ff" points="1026.61,-330.55 1035.81,-325.31 1025.35,-323.67 1026.61,-330.55"/>
</a>
</g>
</g>
<!-- Node29 -->
<g id="Node000029" class="node">
<title>Node29</title>
<g id="a_Node000029"><a xlink:title=" ">
<polygon fill="#e0e0e0" stroke="#999999" points="1163.5,-327 1107.5,-327 1107.5,-308 1163.5,-308 1163.5,-327"/>
<text text-anchor="middle" x="1135.5" y="-315" font-family="Helvetica,sans-Serif" font-size="10.00">unistd.h</text>
</a>
</g>
</g>
<!-- Node1&#45;&gt;Node29 -->
<g id="edge52_Node000001_Node000029" class="edge">
<title>Node1&#45;&gt;Node29</title>
<g id="a_edge52_Node000001_Node000029"><a xlink:title=" ">
<path fill="none" stroke="#63b8ff" d="M732.77,-367.74C811.95,-361.96 960.93,-349.35 1097.09,-327.04"/>
<polygon fill="#63b8ff" stroke="#63b8ff" points="1098,-330.44 1107.29,-325.35 1096.85,-323.54 1098,-330.44"/>
</a>
</g>
</g>
<!-- Node30 -->
<g id="Node000030" class="node">
<title>Node30</title>
<g id="a_Node000030"><a xlink:href="pwd_8h.html" target="_top" xlink:title=" ">
<polygon fill="white" stroke="#666666" points="350.5,-200.5 304.5,-200.5 304.5,-181.5 350.5,-181.5 350.5,-200.5"/>
<text text-anchor="middle" x="327.5" y="-188.5" font-family="Helvetica,sans-Serif" font-size="10.00">pwd.h</text>
</a>
</g>
</g>
<!-- Node1&#45;&gt;Node30 -->
<g id="edge53_Node000001_Node000030" class="edge">
<title>Node1&#45;&gt;Node30</title>
<g id="a_edge53_Node000001_Node000030"><a xlink:title=" ">
<path fill="none" stroke="#63b8ff" d="M622.18,-362.96C537,-348.36 378.1,-315.89 343.5,-272 329.76,-254.57 326.85,-228.51 326.65,-210.91"/>
<polygon fill="#63b8ff" stroke="#63b8ff" points="330.15,-210.8 326.83,-200.74 323.16,-210.68 330.15,-210.8"/>
</a>
</g>
</g>
<!-- Node32 -->
<g id="Node000032" class="node">
<title>Node32</title>
<g id="a_Node000032"><a xlink:title=" ">
<polygon fill="#e0e0e0" stroke="#999999" points="1279,-327 1182,-327 1182,-308 1279,-308 1279,-327"/>
<text text-anchor="middle" x="1230.5" y="-315" font-family="Helvetica,sans-Serif" font-size="10.00">openssl/crypto.h</text>
</a>
</g>
</g>
<!-- Node1&#45;&gt;Node32 -->
<g id="edge57_Node000001_Node000032" class="edge">
<title>Node1&#45;&gt;Node32</title>
<g id="a_edge57_Node000001_Node000032"><a xlink:title=" ">
<path fill="none" stroke="#63b8ff" d="M732.77,-367.48C822.97,-360.82 1005.75,-346.38 1171.41,-327.06"/>
<polygon fill="#63b8ff" stroke="#63b8ff" points="1172.27,-330.48 1181.79,-325.84 1171.45,-323.53 1172.27,-330.48"/>
</a>
</g>
</g>
<!-- Node3 -->
<g id="Node000003" class="node">
<title>Node3</title>
<g id="a_Node000003"><a xlink:title=" ">
<polygon fill="#e0e0e0" stroke="#999999" points="547,-19 494,-19 494,0 547,0 547,-19"/>
<text text-anchor="middle" x="520.5" y="-7" font-family="Helvetica,sans-Serif" font-size="10.00">stdint.h</text>
</a>
</g>
</g>
<!-- Node2&#45;&gt;Node3 -->
<g id="edge2_Node000002_Node000003" class="edge">
<title>Node2&#45;&gt;Node3</title>
<g id="a_edge2_Node000002_Node000003"><a xlink:title=" ">
<path fill="none" stroke="#63b8ff" d="M898.5,-309.16C900.18,-308.73 901.86,-308.33 903.5,-308 1067.58,-274.68 1127.05,-343.4 1278.5,-272 1323.98,-250.56 1358.5,-242.28 1358.5,-192 1358.5,-192 1358.5,-192 1358.5,-124 1358.5,-42.02 720.52,-16.69 557.88,-11.57"/>
<polygon fill="#63b8ff" stroke="#63b8ff" points="557.54,-8.05 547.43,-11.24 557.32,-15.05 557.54,-8.05"/>
</a>
</g>
</g>
<!-- Node4 -->
<g id="Node000004" class="node">
<title>Node4</title>
<g id="a_Node000004"><a xlink:title=" ">
<polygon fill="#e0e0e0" stroke="#999999" points="474.5,-134.5 418.5,-134.5 418.5,-115.5 474.5,-115.5 474.5,-134.5"/>
<text text-anchor="middle" x="446.5" y="-122.5" font-family="Helvetica,sans-Serif" font-size="10.00">stddef.h</text>
</a>
</g>
</g>
<!-- Node2&#45;&gt;Node4 -->
<g id="edge3_Node000002_Node000004" class="edge">
<title>Node2&#45;&gt;Node4</title>
<g id="a_edge3_Node000002_Node000004"><a xlink:title=" ">
<path fill="none" stroke="#63b8ff" d="M854.5,-316.21C795.81,-314.96 637.7,-308.23 603.5,-272 574.06,-240.8 620.25,-209.53 593.5,-176 567.37,-143.25 518.79,-131.84 484.64,-127.92"/>
<polygon fill="#63b8ff" stroke="#63b8ff" points="484.84,-124.43 474.55,-126.93 484.16,-131.39 484.84,-124.43"/>
</a>
</g>
</g>
<!-- Node2&#45;&gt;Node5 -->
<g id="edge4_Node000002_Node000005" class="edge">
<title>Node2&#45;&gt;Node5</title>
<g id="a_edge4_Node000002_Node000005"><a xlink:title=" ">
<path fill="none" stroke="#63b8ff" d="M898.86,-310.66C903.35,-309.64 908.06,-308.69 912.5,-308 1115.11,-276.34 1171.99,-315.02 1372.5,-272 1375.34,-271.39 1378.25,-270.63 1381.14,-269.77"/>
<polygon fill="#63b8ff" stroke="#63b8ff" points="1382.35,-273.06 1390.75,-266.6 1380.16,-266.41 1382.35,-273.06"/>
</a>
</g>
</g>
<!-- Node6 -->
<g id="Node000006" class="node">
<title>Node6</title>
<g id="a_Node000006"><a xlink:href="time_8h.html" target="_top" xlink:title=" ">
<polygon fill="white" stroke="#666666" points="1063.5,-266.5 1015.5,-266.5 1015.5,-247.5 1063.5,-247.5 1063.5,-266.5"/>
<text text-anchor="middle" x="1039.5" y="-254.5" font-family="Helvetica,sans-Serif" font-size="10.00">time.h</text>
</a>
</g>
</g>
<!-- Node2&#45;&gt;Node6 -->
<g id="edge5_Node000002_Node000006" class="edge">
<title>Node2&#45;&gt;Node6</title>
<g id="a_edge5_Node000002_Node000006"><a xlink:title=" ">
<path fill="none" stroke="#63b8ff" d="M898.75,-309.42C924.78,-301.01 969.07,-286.32 1006.5,-272 1007.88,-271.47 1009.29,-270.92 1010.71,-270.36"/>
<polygon fill="#63b8ff" stroke="#63b8ff" points="1012.13,-273.56 1020.05,-266.52 1009.47,-267.08 1012.13,-273.56"/>
</a>
</g>
</g>
<!-- Node7 -->
<g id="Node000007" class="node">
<title>Node7</title>
<g id="a_Node000007"><a xlink:title=" ">
<polygon fill="#e0e0e0" stroke="#999999" points="1330.5,-134.5 1258.5,-134.5 1258.5,-115.5 1330.5,-115.5 1330.5,-134.5"/>
<text text-anchor="middle" x="1294.5" y="-122.5" font-family="Helvetica,sans-Serif" font-size="10.00">sys/types.h</text>
</a>
</g>
</g>
<!-- Node2&#45;&gt;Node7 -->
<g id="edge8_Node000002_Node000007" class="edge">
<title>Node2&#45;&gt;Node7</title>
<g id="a_edge8_Node000002_Node000007"><a xlink:title=" ">
<path fill="none" stroke="#63b8ff" d="M898.51,-309.17C900.19,-308.74 901.86,-308.34 903.5,-308 980.07,-292.18 1193.69,-322.36 1253.5,-272 1291.35,-240.14 1295.72,-176.38 1295.37,-144.72"/>
<polygon fill="#63b8ff" stroke="#63b8ff" points="1298.87,-144.53 1295.08,-134.63 1291.87,-144.73 1298.87,-144.53"/>
</a>
</g>
</g>
<!-- Node8 -->
<g id="Node000008" class="node">
<title>Node8</title>
<g id="a_Node000008"><a xlink:href="protocol_8h.html" target="_top" xlink:title=" ">
<polygon fill="white" stroke="#666666" points="1227,-272 1100,-272 1100,-242 1227,-242 1227,-272"/>
<text text-anchor="start" x="1108" y="-260" font-family="Helvetica,sans-Serif" font-size="10.00">protocols/root/protocol</text>
<text text-anchor="middle" x="1163.5" y="-249" font-family="Helvetica,sans-Serif" font-size="10.00">/protocol.h</text>
</a>
</g>
</g>
<!-- Node2&#45;&gt;Node8 -->
<g id="edge9_Node000002_Node000008" class="edge">
<title>Node2&#45;&gt;Node8</title>
<g id="a_edge9_Node000002_Node000008"><a xlink:title=" ">
<path fill="none" stroke="#63b8ff" d="M898.56,-311.16C903.16,-310.09 907.98,-308.98 912.5,-308 945.61,-300.8 1028.35,-284.43 1089.84,-272.38"/>
<polygon fill="#63b8ff" stroke="#63b8ff" points="1090.76,-275.76 1099.9,-270.4 1089.41,-268.89 1090.76,-275.76"/>
</a>
</g>
</g>
<!-- Node16 -->
<g id="Node000016" class="node">
<title>Node16</title>
<g id="a_Node000016"><a xlink:href="wire__codec_8h.html" target="_top" xlink:title=" ">
<polygon fill="white" stroke="#666666" points="1095,-206 968,-206 968,-176 1095,-176 1095,-206"/>
<text text-anchor="start" x="976" y="-194" font-family="Helvetica,sans-Serif" font-size="10.00">protocols/root/protocol</text>
<text text-anchor="middle" x="1031.5" y="-183" font-family="Helvetica,sans-Serif" font-size="10.00">/codec/wire_codec.h</text>
</a>
</g>
</g>
<!-- Node2&#45;&gt;Node16 -->
<g id="edge25_Node000002_Node000016" class="edge">
<title>Node2&#45;&gt;Node16</title>
<g id="a_edge25_Node000002_Node000016"><a xlink:title=" ">
<path fill="none" stroke="#63b8ff" d="M898.88,-310.77C903.37,-309.75 908.07,-308.77 912.5,-308 983.88,-295.65 1188.19,-325.98 1236.5,-272 1245.39,-262.06 1244.74,-252.49 1236.5,-242 1228.1,-231.3 1160.39,-216.18 1105.05,-205.37"/>
<polygon fill="#63b8ff" stroke="#63b8ff" points="1105.72,-201.93 1095.24,-203.47 1104.39,-208.81 1105.72,-201.93"/>
</a>
</g>
</g>
<!-- Node18 -->
<g id="Node000018" class="node">
<title>Node18</title>
<g id="a_Node000018"><a xlink:href="brix__net_8h.html" target="_top" xlink:title=" ">
<polygon fill="white" stroke="#666666" points="823,-266.5 758,-266.5 758,-247.5 823,-247.5 823,-266.5"/>
<text text-anchor="middle" x="790.5" y="-254.5" font-family="Helvetica,sans-Serif" font-size="10.00">brix_net.h</text>
</a>
</g>
</g>
<!-- Node2&#45;&gt;Node18 -->
<g id="edge26_Node000002_Node000018" class="edge">
<title>Node2&#45;&gt;Node18</title>
<g id="a_edge26_Node000002_Node000018"><a xlink:title=" ">
<path fill="none" stroke="#63b8ff" d="M863.81,-307.87C850.09,-298.54 828,-283.51 811.65,-272.38"/>
<polygon fill="#63b8ff" stroke="#63b8ff" points="813.48,-269.4 803.24,-266.67 809.54,-275.19 813.48,-269.4"/>
</a>
</g>
</g>
<!-- Node19 -->
<g id="Node000019" class="node">
<title>Node19</title>
<g id="a_Node000019"><a xlink:href="brix__auth_8h.html" target="_top" xlink:title=" ">
<polygon fill="white" stroke="#666666" points="912,-266.5 841,-266.5 841,-247.5 912,-247.5 912,-266.5"/>
<text text-anchor="middle" x="876.5" y="-254.5" font-family="Helvetica,sans-Serif" font-size="10.00">brix_auth.h</text>
</a>
</g>
</g>
<!-- Node2&#45;&gt;Node19 -->
<g id="edge27_Node000002_Node000019" class="edge">
<title>Node2&#45;&gt;Node19</title>
<g id="a_edge27_Node000002_Node000019"><a xlink:title=" ">
<path fill="none" stroke="#63b8ff" d="M876.5,-307.87C876.5,-299.75 876.5,-287.31 876.5,-276.89"/>
<polygon fill="#63b8ff" stroke="#63b8ff" points="880,-276.67 876.5,-266.67 873,-276.67 880,-276.67"/>
</a>
</g>
</g>
<!-- Node20 -->
<g id="Node000020" class="node">
<title>Node20</title>
<g id="a_Node000020"><a xlink:href="brix__ops_8h.html" target="_top" xlink:title=" ">
<polygon fill="white" stroke="#666666" points="997,-266.5 930,-266.5 930,-247.5 997,-247.5 997,-266.5"/>
<text text-anchor="middle" x="963.5" y="-254.5" font-family="Helvetica,sans-Serif" font-size="10.00">brix_ops.h</text>
</a>
</g>
</g>
<!-- Node2&#45;&gt;Node20 -->
<g id="edge28_Node000002_Node000020" class="edge">
<title>Node2&#45;&gt;Node20</title>
<g id="a_edge28_Node000002_Node000020"><a xlink:title=" ">
<path fill="none" stroke="#63b8ff" d="M889.34,-307.87C903.22,-298.54 925.57,-283.51 942.11,-272.38"/>
<polygon fill="#63b8ff" stroke="#63b8ff" points="944.26,-275.15 950.61,-266.67 940.36,-269.34 944.26,-275.15"/>
</a>
</g>
</g>
<!-- Node6&#45;&gt;Node4 -->
<g id="edge6_Node000006_Node000004" class="edge">
<title>Node6&#45;&gt;Node4</title>
<g id="a_edge6_Node000006_Node000004"><a xlink:title=" ">
<path fill="none" stroke="#63b8ff" d="M1021.25,-247.45C1016.52,-245.46 1011.38,-243.49 1006.5,-242 925.54,-217.34 897.64,-238.51 819.5,-206 797.65,-196.91 797.53,-184.66 775.5,-176 675.88,-136.83 548.12,-128.17 485.14,-126.37"/>
<polygon fill="#63b8ff" stroke="#63b8ff" points="484.96,-122.87 474.88,-126.12 484.79,-129.86 484.96,-122.87"/>
</a>
</g>
</g>
<!-- Node6&#45;&gt;Node6 -->
<g id="edge7_Node000006_Node000006" class="edge">
<title>Node6&#45;&gt;Node6</title>
<g id="a_edge7_Node000006_Node000006"><a xlink:title=" ">
<path fill="none" stroke="#63b8ff" d="M1055.01,-266.53C1067.96,-270.61 1081.5,-267.43 1081.5,-257 1081.5,-249.26 1074.04,-245.51 1064.9,-245.76"/>
<polygon fill="#63b8ff" stroke="#63b8ff" points="1064.27,-242.32 1055.01,-247.47 1065.46,-249.22 1064.27,-242.32"/>
</a>
</g>
</g>
<!-- Node9 -->
<g id="Node000009" class="node">
<title>Node9</title>
<g id="a_Node000009"><a xlink:href="types_8h.html" target="_top" xlink:title=" ">
<polygon fill="white" stroke="#666666" points="780,-74 727,-74 727,-55 780,-55 780,-74"/>
<text text-anchor="middle" x="753.5" y="-62" font-family="Helvetica,sans-Serif" font-size="10.00">types.h</text>
</a>
</g>
</g>
<!-- Node8&#45;&gt;Node9 -->
<g id="edge10_Node000008_Node000009" class="edge">
<title>Node8&#45;&gt;Node9</title>
<g id="a_edge10_Node000008_Node000009"><a xlink:title=" ">
<path fill="none" stroke="#63b8ff" d="M1099.83,-243.64C1096.67,-243.07 1093.55,-242.52 1090.5,-242 985.06,-223.92 950.18,-249.62 852.5,-206 841.98,-201.3 778.67,-149.73 772.5,-140 761.8,-123.13 757.11,-100.52 755.07,-84.65"/>
<polygon fill="#63b8ff" stroke="#63b8ff" points="758.53,-84.04 754,-74.46 751.57,-84.77 758.53,-84.04"/>
</a>
</g>
</g>
<!-- Node10 -->
<g id="Node000010" class="node">
<title>Node10</title>
<g id="a_Node000010"><a xlink:href="opcodes_8h.html" target="_top" xlink:title=" ">
<polygon fill="white" stroke="#666666" points="907.5,-74 841.5,-74 841.5,-55 907.5,-55 907.5,-74"/>
<text text-anchor="middle" x="874.5" y="-62" font-family="Helvetica,sans-Serif" font-size="10.00">opcodes.h</text>
</a>
</g>
</g>
<!-- Node8&#45;&gt;Node10 -->
<g id="edge12_Node000008_Node000010" class="edge">
<title>Node8&#45;&gt;Node10</title>
<g id="a_edge12_Node000008_Node000010"><a xlink:title=" ">
<path fill="none" stroke="#63b8ff" d="M1099.81,-243.17C1044.2,-231.52 970.67,-214.84 959.5,-206 921.94,-176.27 936.59,-150.17 910.5,-110 904.15,-100.23 896.07,-90.07 889.17,-81.93"/>
<polygon fill="#63b8ff" stroke="#63b8ff" points="891.73,-79.54 882.53,-74.28 886.44,-84.13 891.73,-79.54"/>
</a>
</g>
</g>
<!-- Node11 -->
<g id="Node000011" class="node">
<title>Node11</title>
<g id="a_Node000011"><a xlink:href="flags_8h.html" target="_top" xlink:title=" ">
<polygon fill="white" stroke="#666666" points="767,-200.5 718,-200.5 718,-181.5 767,-181.5 767,-200.5"/>
<text text-anchor="middle" x="742.5" y="-188.5" font-family="Helvetica,sans-Serif" font-size="10.00">flags.h</text>
</a>
</g>
</g>
<!-- Node8&#45;&gt;Node11 -->
<g id="edge13_Node000008_Node000011" class="edge">
<title>Node8&#45;&gt;Node11</title>
<g id="a_edge13_Node000008_Node000011"><a xlink:title=" ">
<path fill="none" stroke="#63b8ff" d="M1099.84,-243.57C1096.68,-243.02 1093.56,-242.5 1090.5,-242 970.56,-222.55 939.53,-224.87 819.5,-206 805.63,-203.82 790.4,-201.12 777.18,-198.67"/>
<polygon fill="#63b8ff" stroke="#63b8ff" points="777.54,-195.18 767.07,-196.78 776.26,-202.06 777.54,-195.18"/>
</a>
</g>
</g>
<!-- Node12 -->
<g id="Node000012" class="node">
<title>Node12</title>
<g id="a_Node000012"><a xlink:href="wire_8h.html" target="_top" xlink:title=" ">
<polygon fill="white" stroke="#666666" points="1178,-200.5 1131,-200.5 1131,-181.5 1178,-181.5 1178,-200.5"/>
<text text-anchor="middle" x="1154.5" y="-188.5" font-family="Helvetica,sans-Serif" font-size="10.00">wire.h</text>
</a>
</g>
</g>
<!-- Node8&#45;&gt;Node12 -->
<g id="edge14_Node000008_Node000012" class="edge">
<title>Node8&#45;&gt;Node12</title>
<g id="a_edge14_Node000008_Node000012"><a xlink:title=" ">
<path fill="none" stroke="#63b8ff" d="M1161.5,-241.8C1160.22,-232.7 1158.55,-220.79 1157.16,-210.9"/>
<polygon fill="#63b8ff" stroke="#63b8ff" points="1160.6,-210.26 1155.74,-200.84 1153.67,-211.23 1160.6,-210.26"/>
</a>
</g>
</g>
<!-- Node8&#45;&gt;Node16 -->
<g id="edge20_Node000008_Node000016" class="edge">
<title>Node8&#45;&gt;Node16</title>
<g id="a_edge20_Node000008_Node000016"><a xlink:title=" ">
<path fill="none" stroke="#63b8ff" d="M1134.53,-241.95C1115.45,-232.7 1090.25,-220.49 1069.56,-210.45"/>
<polygon fill="#63b8ff" stroke="#63b8ff" points="1070.93,-207.23 1060.4,-206.01 1067.87,-213.52 1070.93,-207.23"/>
</a>
</g>
</g>
<!-- Node17 -->
<g id="Node000017" class="node">
<title>Node17</title>
<g id="a_Node000017"><a xlink:href="gsi_8h.html" target="_top" xlink:title=" ">
<polygon fill="white" stroke="#666666" points="901.5,-200.5 861.5,-200.5 861.5,-181.5 901.5,-181.5 901.5,-200.5"/>
<text text-anchor="middle" x="881.5" y="-188.5" font-family="Helvetica,sans-Serif" font-size="10.00">gsi.h</text>
</a>
</g>
</g>
<!-- Node8&#45;&gt;Node17 -->
<g id="edge24_Node000008_Node000017" class="edge">
<title>Node8&#45;&gt;Node17</title>
<g id="a_edge24_Node000008_Node000017"><a xlink:title=" ">
<path fill="none" stroke="#63b8ff" d="M1099.8,-243.47C1029.3,-229.56 924.37,-208.69 915.5,-206 913.62,-205.43 911.7,-204.79 909.78,-204.12"/>
<polygon fill="#63b8ff" stroke="#63b8ff" points="910.92,-200.8 900.33,-200.5 908.42,-207.34 910.92,-200.8"/>
</a>
</g>
</g>
<!-- Node9&#45;&gt;Node3 -->
<g id="edge11_Node000009_Node000003" class="edge">
<title>Node9&#45;&gt;Node3</title>
<g id="a_edge11_Node000009_Node000003"><a xlink:title=" ">
<path fill="none" stroke="#63b8ff" d="M726.77,-57.42C685.01,-47.92 604.2,-29.54 557.07,-18.82"/>
<polygon fill="#63b8ff" stroke="#63b8ff" points="557.8,-15.4 547.27,-16.59 556.25,-22.22 557.8,-15.4"/>
</a>
</g>
</g>
<!-- Node13 -->
<g id="Node000013" class="node">
<title>Node13</title>
<g id="a_Node000013"><a xlink:href="wire__core__requests_8h.html" target="_top" xlink:title=" ">
<polygon fill="white" stroke="#666666" points="901.5,-134.5 781.5,-134.5 781.5,-115.5 901.5,-115.5 901.5,-134.5"/>
<text text-anchor="middle" x="841.5" y="-122.5" font-family="Helvetica,sans-Serif" font-size="10.00">wire_core_requests.h</text>
</a>
</g>
</g>
<!-- Node12&#45;&gt;Node13 -->
<g id="edge15_Node000012_Node000013" class="edge">
<title>Node12&#45;&gt;Node13</title>
<g id="a_edge15_Node000012_Node000013"><a xlink:title=" ">
<path fill="none" stroke="#63b8ff" d="M1130.95,-182.96C1122.63,-180.59 1113.19,-178.04 1104.5,-176 1036.27,-159.99 957.18,-145.5 903.69,-136.28"/>
<polygon fill="#63b8ff" stroke="#63b8ff" points="904.12,-132.81 893.67,-134.57 902.94,-139.71 904.12,-132.81"/>
</a>
</g>
</g>
<!-- Node14 -->
<g id="Node000014" class="node">
<title>Node14</title>
<g id="a_Node000014"><a xlink:href="wire__write__extended__requests_8h.html" target="_top" xlink:title=" ">
<polygon fill="white" stroke="#666666" points="1115,-140 996,-140 996,-110 1115,-110 1115,-140"/>
<text text-anchor="start" x="1004" y="-128" font-family="Helvetica,sans-Serif" font-size="10.00">wire_write_extended</text>
<text text-anchor="middle" x="1055.5" y="-117" font-family="Helvetica,sans-Serif" font-size="10.00">_requests.h</text>
</a>
</g>
</g>
<!-- Node12&#45;&gt;Node14 -->
<g id="edge18_Node000012_Node000014" class="edge">
<title>Node12&#45;&gt;Node14</title>
<g id="a_edge18_Node000012_Node000014"><a xlink:title=" ">
<path fill="none" stroke="#63b8ff" d="M1141.15,-181.37C1127.02,-172.24 1104.27,-157.53 1085.76,-145.56"/>
<polygon fill="#63b8ff" stroke="#63b8ff" points="1087.63,-142.61 1077.34,-140.12 1083.83,-148.48 1087.63,-142.61"/>
</a>
</g>
</g>
<!-- Node15 -->
<g id="Node000015" class="node">
<title>Node15</title>
<g id="a_Node000015"><a xlink:href="wire__vendor__ext_8h.html" target="_top" xlink:title=" ">
<polygon fill="white" stroke="#666666" points="1240,-134.5 1133,-134.5 1133,-115.5 1240,-115.5 1240,-134.5"/>
<text text-anchor="middle" x="1186.5" y="-122.5" font-family="Helvetica,sans-Serif" font-size="10.00">wire_vendor_ext.h</text>
</a>
</g>
</g>
<!-- Node12&#45;&gt;Node15 -->
<g id="edge19_Node000012_Node000015" class="edge">
<title>Node12&#45;&gt;Node15</title>
<g id="a_edge19_Node000012_Node000015"><a xlink:title=" ">
<path fill="none" stroke="#63b8ff" d="M1158.82,-181.37C1163.56,-171.88 1171.32,-156.36 1177.42,-144.16"/>
<polygon fill="#63b8ff" stroke="#63b8ff" points="1180.71,-145.41 1182.05,-134.91 1174.44,-142.28 1180.71,-145.41"/>
</a>
</g>
</g>
<!-- Node13&#45;&gt;Node9 -->
<g id="edge16_Node000013_Node000009" class="edge">
<title>Node13&#45;&gt;Node9</title>
<g id="a_edge16_Node000013_Node000009"><a xlink:title=" ">
<path fill="none" stroke="#63b8ff" d="M828.52,-115.37C814.48,-106.04 791.87,-91.01 775.14,-79.88"/>
<polygon fill="#63b8ff" stroke="#63b8ff" points="776.8,-76.79 766.54,-74.17 772.93,-82.62 776.8,-76.79"/>
</a>
</g>
</g>
<!-- Node13&#45;&gt;Node10 -->
<g id="edge17_Node000013_Node000010" class="edge">
<title>Node13&#45;&gt;Node10</title>
<g id="a_edge17_Node000013_Node000010"><a xlink:title=" ">
<path fill="none" stroke="#63b8ff" d="M846.37,-115.37C851.15,-106.9 858.57,-93.74 864.59,-83.07"/>
<polygon fill="#63b8ff" stroke="#63b8ff" points="867.75,-84.6 869.61,-74.17 861.65,-81.16 867.75,-84.6"/>
</a>
</g>
</g>
<!-- Node16&#45;&gt;Node3 -->
<g id="edge21_Node000016_Node000003" class="edge">
<title>Node16&#45;&gt;Node3</title>
<g id="a_edge21_Node000016_Node000003"><a xlink:title=" ">
<path fill="none" stroke="#63b8ff" d="M1018.69,-175.65C1009.86,-165.7 997.89,-152.11 987.5,-140 955.46,-102.63 959.85,-78.31 916.5,-55 854.86,-21.85 643.33,-13.31 557.31,-11.18"/>
<polygon fill="#63b8ff" stroke="#63b8ff" points="557.3,-7.68 547.23,-10.94 557.14,-14.67 557.3,-7.68"/>
</a>
</g>
</g>
<!-- Node16&#45;&gt;Node4 -->
<g id="edge22_Node000016_Node000004" class="edge">
<title>Node16&#45;&gt;Node4</title>
<g id="a_edge22_Node000016_Node000004"><a xlink:title=" ">
<path fill="none" stroke="#63b8ff" d="M967.77,-182.53C949.3,-180.39 929.1,-178.08 910.5,-176 752.52,-158.35 564.17,-138.39 484.78,-130.02"/>
<polygon fill="#63b8ff" stroke="#63b8ff" points="485.07,-126.53 474.75,-128.97 484.33,-133.49 485.07,-126.53"/>
</a>
</g>
</g>
<!-- Node16&#45;&gt;Node7 -->
<g id="edge23_Node000016_Node000007" class="edge">
<title>Node16&#45;&gt;Node7</title>
<g id="a_edge23_Node000016_Node000007"><a xlink:title=" ">
<path fill="none" stroke="#63b8ff" d="M1095.25,-176.72C1138.89,-167.3 1197.95,-153.91 1249.5,-140 1252.31,-139.24 1255.22,-138.42 1258.13,-137.57"/>
<polygon fill="#63b8ff" stroke="#63b8ff" points="1259.37,-140.85 1267.95,-134.63 1257.36,-134.15 1259.37,-140.85"/>
</a>
</g>
</g>
<!-- Node21&#45;&gt;Node3 -->
<g id="edge31_Node000021_Node000003" class="edge">
<title>Node21&#45;&gt;Node3</title>
<g id="a_edge31_Node000021_Node000003"><a xlink:title=" ">
<path fill="none" stroke="#63b8ff" d="M411.81,-241.95C403.65,-214.99 389.53,-154.72 409.5,-110 426.96,-70.89 468.23,-40.77 495.23,-24.35"/>
<polygon fill="#63b8ff" stroke="#63b8ff" points="497.28,-27.21 504.13,-19.13 493.73,-21.18 497.28,-27.21"/>
</a>
</g>
</g>
<!-- Node21&#45;&gt;Node4 -->
<g id="edge30_Node000021_Node000004" class="edge">
<title>Node21&#45;&gt;Node4</title>
<g id="a_edge30_Node000021_Node000004"><a xlink:title=" ">
<path fill="none" stroke="#63b8ff" d="M419.77,-241.84C425.22,-218.23 436.15,-170.83 442.21,-144.58"/>
<polygon fill="#63b8ff" stroke="#63b8ff" points="445.64,-145.28 444.48,-134.75 438.82,-143.71 445.64,-145.28"/>
</a>
</g>
</g>
<!-- Node21&#45;&gt;Node22 -->
<g id="edge32_Node000021_Node000022" class="edge">
<title>Node21&#45;&gt;Node22</title>
<g id="a_edge32_Node000021_Node000022"><a xlink:title=" ">
<path fill="none" stroke="#63b8ff" d="M428.71,-241.8C437.11,-232.01 448.31,-218.98 457.15,-208.7"/>
<polygon fill="#63b8ff" stroke="#63b8ff" points="460.04,-210.71 463.9,-200.84 454.73,-206.15 460.04,-210.71"/>
</a>
</g>
</g>
<!-- Node21&#45;&gt;Node23 -->
<g id="edge33_Node000021_Node000023" class="edge">
<title>Node21&#45;&gt;Node23</title>
<g id="a_edge33_Node000021_Node000023"><a xlink:title=" ">
<path fill="none" stroke="#63b8ff" d="M445.91,-241.95C468.99,-230.93 500.88,-215.7 523.36,-204.96"/>
<polygon fill="#63b8ff" stroke="#63b8ff" points="525.15,-207.99 532.67,-200.52 522.13,-201.67 525.15,-207.99"/>
</a>
</g>
</g>
<!-- Node24&#45;&gt;Node3 -->
<g id="edge35_Node000024_Node000003" class="edge">
<title>Node24&#45;&gt;Node3</title>
<g id="a_edge35_Node000024_Node000003"><a xlink:title=" ">
<path fill="none" stroke="#63b8ff" d="M667.44,-241.74C640.48,-199.32 560.86,-74.02 531.52,-27.84"/>
<polygon fill="#63b8ff" stroke="#63b8ff" points="534.38,-25.81 526.06,-19.25 528.47,-29.57 534.38,-25.81"/>
</a>
</g>
</g>
<!-- Node24&#45;&gt;Node11 -->
<g id="edge39_Node000024_Node000011" class="edge">
<title>Node24&#45;&gt;Node11</title>
<g id="a_edge39_Node000024_Node000011"><a xlink:title=" ">
<path fill="none" stroke="#63b8ff" d="M691.15,-241.8C701.44,-231.82 715.22,-218.46 725.91,-208.09"/>
<polygon fill="#63b8ff" stroke="#63b8ff" points="728.64,-210.32 733.38,-200.84 723.76,-205.29 728.64,-210.32"/>
</a>
</g>
</g>
<!-- Node24&#45;&gt;Node13 -->
<g id="edge38_Node000024_Node000013" class="edge">
<title>Node24&#45;&gt;Node13</title>
<g id="a_edge38_Node000024_Node000013"><a xlink:title=" ">
<path fill="none" stroke="#63b8ff" d="M678.58,-241.93C681.9,-224.28 690.01,-194.11 708.5,-176 728.34,-156.57 756.44,-144.56 781.71,-137.2"/>
<polygon fill="#63b8ff" stroke="#63b8ff" points="782.87,-140.52 791.6,-134.51 781.03,-133.76 782.87,-140.52"/>
</a>
</g>
</g>
<!-- Node24&#45;&gt;Node16 -->
<g id="edge40_Node000024_Node000016" class="edge">
<title>Node24&#45;&gt;Node16</title>
<g id="a_edge40_Node000024_Node000016"><a xlink:title=" ">
<path fill="none" stroke="#63b8ff" d="M740.09,-243.57C742.93,-243.04 745.75,-242.51 748.5,-242 819.54,-228.82 900.76,-214.55 957.91,-204.64"/>
<polygon fill="#63b8ff" stroke="#63b8ff" points="958.68,-208.06 967.94,-202.91 957.49,-201.17 958.68,-208.06"/>
</a>
</g>
</g>
<!-- Node24&#45;&gt;Node22 -->
<g id="edge36_Node000024_Node000022" class="edge">
<title>Node24&#45;&gt;Node22</title>
<g id="a_edge36_Node000024_Node000022"><a xlink:title=" ">
<path fill="none" stroke="#63b8ff" d="M624.01,-241.95C590.21,-232.55 545.46,-219.49 506.5,-206 504.88,-205.44 503.23,-204.85 501.57,-204.24"/>
<polygon fill="#63b8ff" stroke="#63b8ff" points="502.7,-200.92 492.11,-200.62 500.2,-207.46 502.7,-200.92"/>
</a>
</g>
</g>
<!-- Node24&#45;&gt;Node23 -->
<g id="edge37_Node000024_Node000023" class="edge">
<title>Node24&#45;&gt;Node23</title>
<g id="a_edge37_Node000024_Node000023"><a xlink:title=" ">
<path fill="none" stroke="#63b8ff" d="M648.85,-241.95C627.24,-230.98 597.42,-215.83 576.3,-205.11"/>
<polygon fill="#63b8ff" stroke="#63b8ff" points="577.77,-201.93 567.27,-200.52 574.6,-208.17 577.77,-201.93"/>
</a>
</g>
</g>
<!-- Node25&#45;&gt;Node3 -->
<g id="edge43_Node000025_Node000003" class="edge">
<title>Node25&#45;&gt;Node3</title>
<g id="a_edge43_Node000025_Node000003"><a xlink:title=" ">
<path fill="none" stroke="#63b8ff" d="M84.74,-181.42C114.07,-157.32 201.72,-88.61 286.5,-55 353.15,-28.57 436.86,-17.53 483.95,-13.16"/>
<polygon fill="#63b8ff" stroke="#63b8ff" points="484.32,-16.64 493.98,-12.27 483.71,-9.66 484.32,-16.64"/>
</a>
</g>
</g>
<!-- Node25&#45;&gt;Node4 -->
<g id="edge42_Node000025_Node000004" class="edge">
<title>Node25&#45;&gt;Node4</title>
<g id="a_edge42_Node000025_Node000004"><a xlink:title=" ">
<path fill="none" stroke="#63b8ff" d="M124.98,-181.48C135.71,-179.67 146.98,-177.77 157.5,-176 252.61,-159.98 276.54,-156.85 371.5,-140 383.5,-137.87 396.57,-135.46 408.38,-133.25"/>
<polygon fill="#63b8ff" stroke="#63b8ff" points="409.2,-136.66 418.39,-131.37 407.91,-129.78 409.2,-136.66"/>
</a>
</g>
</g>
<!-- Node26&#45;&gt;Node3 -->
<g id="edge46_Node000026_Node000003" class="edge">
<title>Node26&#45;&gt;Node3</title>
<g id="a_edge46_Node000026_Node000003"><a xlink:title=" ">
<path fill="none" stroke="#63b8ff" d="M229.18,-181.37C237.17,-157.14 263.26,-88.12 310.5,-55 362.62,-18.45 438.68,-10.87 483.53,-9.86"/>
<polygon fill="#63b8ff" stroke="#63b8ff" points="483.73,-13.36 493.68,-9.74 483.64,-6.36 483.73,-13.36"/>
</a>
</g>
</g>
<!-- Node26&#45;&gt;Node4 -->
<g id="edge45_Node000026_Node000004" class="edge">
<title>Node26&#45;&gt;Node4</title>
<g id="a_edge45_Node000026_Node000004"><a xlink:title=" ">
<path fill="none" stroke="#63b8ff" d="M256.17,-181.37C295.59,-169.9 365.26,-149.63 408.48,-137.06"/>
<polygon fill="#63b8ff" stroke="#63b8ff" points="409.72,-140.35 418.34,-134.19 407.76,-133.62 409.72,-140.35"/>
</a>
</g>
</g>
<!-- Node30&#45;&gt;Node3 -->
<g id="edge56_Node000030_Node000003" class="edge">
<title>Node30&#45;&gt;Node3</title>
<g id="a_edge56_Node000030_Node000003"><a xlink:title=" ">
<path fill="none" stroke="#63b8ff" d="M316.43,-181.31C299.06,-166.57 268.81,-135.75 283.5,-110 324,-38.99 427.9,-18.66 483.72,-12.84"/>
<polygon fill="#63b8ff" stroke="#63b8ff" points="484.26,-16.3 493.89,-11.88 483.6,-9.33 484.26,-16.3"/>
</a>
</g>
</g>
<!-- Node30&#45;&gt;Node4 -->
<g id="edge55_Node000030_Node000004" class="edge">
<title>Node30&#45;&gt;Node4</title>
<g id="a_edge55_Node000030_Node000004"><a xlink:title=" ">
<path fill="none" stroke="#63b8ff" d="M343.55,-181.37C363.51,-170.63 397.82,-152.18 421.3,-139.55"/>
<polygon fill="#63b8ff" stroke="#63b8ff" points="423.18,-142.52 430.33,-134.7 419.86,-136.35 423.18,-142.52"/>
</a>
</g>
</g>
<!-- Node31 -->
<g id="Node000031" class="node">
<title>Node31</title>
<g id="a_Node000031"><a xlink:title=" ">
<polygon fill="#e0e0e0" stroke="#999999" points="362.5,-134.5 292.5,-134.5 292.5,-115.5 362.5,-115.5 362.5,-134.5"/>
<text text-anchor="middle" x="327.5" y="-122.5" font-family="Helvetica,sans-Serif" font-size="10.00">ngx_core.h</text>
</a>
</g>
</g>
<!-- Node30&#45;&gt;Node31 -->
<g id="edge54_Node000030_Node000031" class="edge">
<title>Node30&#45;&gt;Node31</title>
<g id="a_edge54_Node000030_Node000031"><a xlink:title=" ">
<path fill="none" stroke="#63b8ff" d="M327.5,-181.37C327.5,-172.16 327.5,-157.29 327.5,-145.27"/>
<polygon fill="#63b8ff" stroke="#63b8ff" points="331,-144.91 327.5,-134.91 324,-144.91 331,-144.91"/>
</a>
</g>
</g>
</g>
</svg>

<g id="navigator" transform="translate(0 0)" fill="#404254">
  <rect fill="#f2f5e9" fill-opacity="0.5" stroke="#606060" stroke-width=".5" x="0" y="0" width="60" height="60"/>
  <use id="zoomplus" xlink:href="#zoomPlus" x="17" y="9" onmousedown="handleZoom(evt,'in')"/>
  <use id="zoomminus" xlink:href="#zoomMin" x="42" y="9" onmousedown="handleZoom(evt,'out')"/>
  <use id="reset" xlink:href="#resetDef" x="30" y="36" onmousedown="handleReset()"/>
   <use id="arrowup" xlink:href="#arrowUp" x="0" y="0" onmousedown="handlePan(0,-1)"/>
  <use id="arrowright" xlink:href="#arrowRight" x="0" y="0" onmousedown="handlePan(1,0)"/>
  <use id="arrowdown" xlink:href="#arrowDown" x="0" y="0" onmousedown="handlePan(0,1)"/>
  <use id="arrowleft" xlink:href="#arrowLeft" x="0" y="0" onmousedown="handlePan(-1,0)"/>
</g>
<svg viewBox="0 0 15 15" width="100%" height="30px" preserveAspectRatio="xMaxYMin meet">
 <g id="arrow_out" transform="scale(0.3 0.3)">
  <a xlink:href="conn_8c__incl_org.svg" target="_base">
   <rect id="button" ry="5" rx="5" y="6" x="6" height="38" width="38"
        fill="#f2f5e9" fill-opacity="0.5" stroke="#606060" stroke-width="1.0"/>
   <path id="arrow"
     d="M 11.500037,31.436501 C 11.940474,20.09759 22.043105,11.32322 32.158766,21.979434 L 37.068811,17.246167 C 37.068811,17.246167 37.088388,32 37.088388,32 L 22.160133,31.978069 C 22.160133,31.978069 26.997745,27.140456 26.997745,27.140456 C 18.528582,18.264221 13.291696,25.230495 11.500037,31.436501 z"
     style="fill:#404040;"/>
  </a>
 </g>
</svg>

<style type='text/css'>
<![CDATA[
[data-mouse-over-selected='false'] { opacity: 0.7; }
[data-mouse-over-selected='true']  { opacity: 1.0; }
]]>
</style>
<script type="application/ecmascript"><![CDATA[
document.addEventListener('DOMContentLoaded', (event) => {
  highlightEdges();
  highlightAdjacentNodes();
});
]]></script>
</svg>
