<?xml version="1.0" encoding="UTF-8" standalone="no"?>
<!DOCTYPE svg PUBLIC "-//W3C//DTD SVG 1.1//EN"
 "http://www.w3.org/Graphics/SVG/1.1/DTD/svg11.dtd">
<!-- Generated by graphviz version 2.43.0 (0)
 -->
<!-- Title: src/core/compat/copy_range.h Pages: 1 -->
<svg width="1096pt" height="104pt"
 viewBox="0.00 0.00 1096.00 104.00" xmlns="http://www.w3.org/2000/svg" xmlns:xlink="http://www.w3.org/1999/xlink">
<g id="graph0" class="graph" transform="scale(1 1) rotate(0) translate(4 100)">
<title>src/core/compat/copy_range.h</title>
<!-- Node1 -->
<g id="Node000001" class="node">
<title>Node1</title>
<g id="a_Node000001"><a xlink:title=" ">
<polygon fill="#999999" stroke="#666666" points="611,-96 490,-96 490,-66 611,-66 611,-96"/>
<text text-anchor="start" x="498" y="-84" font-family="Helvetica,sans-Serif" font-size="10.00">src/core/compat/copy</text>
<text text-anchor="middle" x="550.5" y="-73" font-family="Helvetica,sans-Serif" font-size="10.00">_range.h</text>
</a>
</g>
</g>
<!-- Node2 -->
<g id="Node000002" class="node">
<title>Node2</title>
<g id="a_Node000002"><a xlink:href="copy__range_8c.html" target="_top" xlink:title=" ">
<polygon fill="white" stroke="#666666" points="121,-30 0,-30 0,0 121,0 121,-30"/>
<text text-anchor="start" x="8" y="-18" font-family="Helvetica,sans-Serif" font-size="10.00">src/core/compat/copy</text>
<text text-anchor="middle" x="60.5" y="-7" font-family="Helvetica,sans-Serif" font-size="10.00">_range.c</text>
</a>
</g>
</g>
<!-- Node1&#45;&gt;Node2 -->
<g id="edge1_Node000001_Node000002" class="edge">
<title>Node1&#45;&gt;Node2</title>
<g id="a_edge1_Node000001_Node000002"><a xlink:title=" ">
<path fill="none" stroke="#63b8ff" d="M479.63,-73.29C395.94,-64.96 252.67,-49.46 130.5,-30 127.44,-29.51 124.31,-28.99 121.15,-28.44"/>
<polygon fill="#63b8ff" stroke="#63b8ff" points="479.49,-76.79 489.78,-74.29 480.17,-69.82 479.49,-76.79"/>
</a>
</g>
</g>
<!-- Node3 -->
<g id="Node000003" class="node">
<title>Node3</title>
<g id="a_Node000003"><a xlink:href="namespace__ops_8c.html" target="_top" xlink:title=" ">
<polygon fill="white" stroke="#666666" points="293.5,-30 139.5,-30 139.5,0 293.5,0 293.5,-30"/>
<text text-anchor="start" x="147.5" y="-18" font-family="Helvetica,sans-Serif" font-size="10.00">src/core/compat/namespace</text>
<text text-anchor="middle" x="216.5" y="-7" font-family="Helvetica,sans-Serif" font-size="10.00">_ops.c</text>
</a>
</g>
</g>
<!-- Node1&#45;&gt;Node3 -->
<g id="edge2_Node000001_Node000003" class="edge">
<title>Node1&#45;&gt;Node3</title>
<g id="a_edge2_Node000001_Node000003"><a xlink:title=" ">
<path fill="none" stroke="#63b8ff" d="M479.47,-66.39C423.64,-55.69 346.16,-40.85 289.77,-30.04"/>
<polygon fill="#63b8ff" stroke="#63b8ff" points="479.15,-69.89 489.63,-68.34 480.47,-63.02 479.15,-69.89"/>
</a>
</g>
</g>
<!-- Node4 -->
<g id="Node000004" class="node">
<title>Node4</title>
<g id="a_Node000004"><a xlink:href="http__body_8c.html" target="_top" xlink:title=" ">
<polygon fill="white" stroke="#666666" points="411.5,-30 311.5,-30 311.5,0 411.5,0 411.5,-30"/>
<text text-anchor="start" x="319.5" y="-18" font-family="Helvetica,sans-Serif" font-size="10.00">src/core/http/http</text>
<text text-anchor="middle" x="361.5" y="-7" font-family="Helvetica,sans-Serif" font-size="10.00">_body.c</text>
</a>
</g>
</g>
<!-- Node1&#45;&gt;Node4 -->
<g id="edge3_Node000001_Node000004" class="edge">
<title>Node1&#45;&gt;Node4</title>
<g id="a_edge3_Node000001_Node000004"><a xlink:title=" ">
<path fill="none" stroke="#63b8ff" d="M499.48,-62.72C469.2,-52.47 431.29,-39.63 402.88,-30.01"/>
<polygon fill="#63b8ff" stroke="#63b8ff" points="498.43,-66.06 509.02,-65.95 500.67,-59.43 498.43,-66.06"/>
</a>
</g>
</g>
<!-- Node5 -->
<g id="Node000005" class="node">
<title>Node5</title>
<g id="a_Node000005"><a xlink:href="vfs__walk_8c.html" target="_top" xlink:title=" ">
<polygon fill="white" stroke="#666666" points="545.5,-24.5 429.5,-24.5 429.5,-5.5 545.5,-5.5 545.5,-24.5"/>
<text text-anchor="middle" x="487.5" y="-12.5" font-family="Helvetica,sans-Serif" font-size="10.00">src/fs/vfs/vfs_walk.c</text>
</a>
</g>
</g>
<!-- Node1&#45;&gt;Node5 -->
<g id="edge4_Node000001_Node000005" class="edge">
<title>Node1&#45;&gt;Node5</title>
<g id="a_edge4_Node000001_Node000005"><a xlink:title=" ">
<path fill="none" stroke="#63b8ff" d="M529.44,-58.6C518.11,-47.1 504.75,-33.52 496.21,-24.84"/>
<polygon fill="#63b8ff" stroke="#63b8ff" points="527.01,-61.13 536.52,-65.8 532,-56.21 527.01,-61.13"/>
</a>
</g>
</g>
<!-- Node6 -->
<g id="Node000006" class="node">
<title>Node6</title>
<g id="a_Node000006"><a xlink:href="clone_8c.html" target="_top" xlink:title=" ">
<polygon fill="white" stroke="#666666" points="665,-30 564,-30 564,0 665,0 665,-30"/>
<text text-anchor="start" x="572" y="-18" font-family="Helvetica,sans-Serif" font-size="10.00">src/protocols/root</text>
<text text-anchor="middle" x="614.5" y="-7" font-family="Helvetica,sans-Serif" font-size="10.00">/read/clone.c</text>
</a>
</g>
</g>
<!-- Node1&#45;&gt;Node6 -->
<g id="edge5_Node000001_Node000006" class="edge">
<title>Node1&#45;&gt;Node6</title>
<g id="a_edge5_Node000001_Node000006"><a xlink:title=" ">
<path fill="none" stroke="#63b8ff" d="M571.85,-58.65C581.23,-49.27 591.97,-38.53 600.34,-30.16"/>
<polygon fill="#63b8ff" stroke="#63b8ff" points="569.3,-56.25 564.7,-65.8 574.25,-61.2 569.3,-56.25"/>
</a>
</g>
</g>
<!-- Node7 -->
<g id="Node000007" class="node">
<title>Node7</title>
<g id="a_Node000007"><a xlink:href="chkpoint_8c.html" target="_top" xlink:title=" ">
<polygon fill="white" stroke="#666666" points="784,-30 683,-30 683,0 784,0 784,-30"/>
<text text-anchor="start" x="691" y="-18" font-family="Helvetica,sans-Serif" font-size="10.00">src/protocols/root</text>
<text text-anchor="middle" x="733.5" y="-7" font-family="Helvetica,sans-Serif" font-size="10.00">/write/chkpoint.c</text>
</a>
</g>
</g>
<!-- Node1&#45;&gt;Node7 -->
<g id="edge6_Node000001_Node000007" class="edge">
<title>Node1&#45;&gt;Node7</title>
<g id="a_edge6_Node000001_Node000007"><a xlink:title=" ">
<path fill="none" stroke="#63b8ff" d="M600.28,-62.59C629.54,-52.36 666.04,-39.59 693.43,-30.01"/>
<polygon fill="#63b8ff" stroke="#63b8ff" points="598.94,-59.35 590.66,-65.95 601.25,-65.96 598.94,-59.35"/>
</a>
</g>
</g>
<!-- Node8 -->
<g id="Node000008" class="node">
<title>Node8</title>
<g id="a_Node000008"><a xlink:href="src_2protocols_2s3_2copy_8c.html" target="_top" xlink:title=" ">
<polygon fill="white" stroke="#666666" points="928.5,-24.5 802.5,-24.5 802.5,-5.5 928.5,-5.5 928.5,-24.5"/>
<text text-anchor="middle" x="865.5" y="-12.5" font-family="Helvetica,sans-Serif" font-size="10.00">src/protocols/s3/copy.c</text>
</a>
</g>
</g>
<!-- Node1&#45;&gt;Node8 -->
<g id="edge7_Node000001_Node000008" class="edge">
<title>Node1&#45;&gt;Node8</title>
<g id="a_edge7_Node000001_Node000008"><a xlink:title=" ">
<path fill="none" stroke="#63b8ff" d="M621.37,-65.6C683.58,-52.96 771.98,-35 823.57,-24.52"/>
<polygon fill="#63b8ff" stroke="#63b8ff" points="620.34,-62.24 611.24,-67.66 621.73,-69.1 620.34,-62.24"/>
</a>
</g>
</g>
<!-- Node9 -->
<g id="Node000009" class="node">
<title>Node9</title>
<g id="a_Node000009"><a xlink:href="multipart__complete__body_8c.html" target="_top" xlink:title=" ">
<polygon fill="white" stroke="#666666" points="1088,-30 947,-30 947,0 1088,0 1088,-30"/>
<text text-anchor="start" x="955" y="-18" font-family="Helvetica,sans-Serif" font-size="10.00">src/protocols/s3/multipart</text>
<text text-anchor="middle" x="1017.5" y="-7" font-family="Helvetica,sans-Serif" font-size="10.00">_complete_body.c</text>
</a>
</g>
</g>
<!-- Node1&#45;&gt;Node9 -->
<g id="edge8_Node000001_Node000009" class="edge">
<title>Node1&#45;&gt;Node9</title>
<g id="a_edge8_Node000001_Node000009"><a xlink:title=" ">
<path fill="none" stroke="#63b8ff" d="M621.44,-71.8C699.15,-62.59 827.41,-46.74 937.5,-30 940.57,-29.53 943.7,-29.04 946.86,-28.54"/>
<polygon fill="#63b8ff" stroke="#63b8ff" points="620.8,-68.35 611.28,-73 621.62,-75.3 620.8,-68.35"/>
</a>
</g>
</g>
</g>
</svg>
