<?xml version="1.0" encoding="UTF-8" standalone="no"?>
<!DOCTYPE svg PUBLIC "-//W3C//DTD SVG 1.1//EN"
 "http://www.w3.org/Graphics/SVG/1.1/DTD/svg11.dtd">
<!-- Generated by graphviz version 2.43.0 (0)
 -->
<!-- Title: client/lib/net/cpool.h Pages: 1 -->
<svg width="815pt" height="93pt"
 viewBox="0.00 0.00 814.50 93.00" xmlns="http://www.w3.org/2000/svg" xmlns:xlink="http://www.w3.org/1999/xlink">
<g id="graph0" class="graph" transform="scale(1 1) rotate(0) translate(4 89)">
<title>client/lib/net/cpool.h</title>
<!-- Node1 -->
<g id="Node000001" class="node">
<title>Node1</title>
<g id="a_Node000001"><a xlink:title=" ">
<polygon fill="#999999" stroke="#666666" points="492,-85 376,-85 376,-66 492,-66 492,-85"/>
<text text-anchor="middle" x="434" y="-73" font-family="Helvetica,sans-Serif" font-size="10.00">client/lib/net/cpool.h</text>
</a>
</g>
</g>
<!-- Node2 -->
<g id="Node000002" class="node">
<title>Node2</title>
<g id="a_Node000002"><a xlink:href="brixcvmfs_8c.html" target="_top" xlink:title=" ">
<polygon fill="white" stroke="#666666" points="142,-24.5 0,-24.5 0,-5.5 142,-5.5 142,-24.5"/>
<text text-anchor="middle" x="71" y="-12.5" font-family="Helvetica,sans-Serif" font-size="10.00">client/apps/fs/brixcvmfs.c</text>
</a>
</g>
</g>
<!-- Node1&#45;&gt;Node2 -->
<g id="edge1_Node000001_Node000002" class="edge">
<title>Node1&#45;&gt;Node2</title>
<g id="a_edge1_Node000001_Node000002"><a xlink:title=" ">
<path fill="none" stroke="#63b8ff" d="M367.82,-64.42C310.43,-55.61 225.17,-42.32 151,-30 140.57,-28.27 129.38,-26.35 118.78,-24.5"/>
<polygon fill="#63b8ff" stroke="#63b8ff" points="367.43,-67.9 377.84,-65.96 368.49,-60.99 367.43,-67.9"/>
</a>
</g>
</g>
<!-- Node3 -->
<g id="Node000003" class="node">
<title>Node3</title>
<g id="a_Node000003"><a xlink:href="xrootdfs_8c.html" target="_top" xlink:title=" ">
<polygon fill="white" stroke="#666666" points="294,-24.5 160,-24.5 160,-5.5 294,-5.5 294,-24.5"/>
<text text-anchor="middle" x="227" y="-12.5" font-family="Helvetica,sans-Serif" font-size="10.00">client/apps/fs/xrootdfs.c</text>
</a>
</g>
</g>
<!-- Node1&#45;&gt;Node3 -->
<g id="edge2_Node000001_Node000003" class="edge">
<title>Node1&#45;&gt;Node3</title>
<g id="a_edge2_Node000001_Node000003"><a xlink:title=" ">
<path fill="none" stroke="#63b8ff" d="M394.2,-63.25C354.17,-51.94 293.33,-34.75 257.14,-24.52"/>
<polygon fill="#63b8ff" stroke="#63b8ff" points="393.33,-66.64 403.9,-65.99 395.23,-59.91 393.33,-66.64"/>
</a>
</g>
</g>
<!-- Node4 -->
<g id="Node000004" class="node">
<title>Node4</title>
<g id="a_Node000004"><a xlink:href="cpool_8c.html" target="_top" xlink:title=" ">
<polygon fill="white" stroke="#666666" points="427.5,-24.5 312.5,-24.5 312.5,-5.5 427.5,-5.5 427.5,-24.5"/>
<text text-anchor="middle" x="370" y="-12.5" font-family="Helvetica,sans-Serif" font-size="10.00">client/lib/net/cpool.c</text>
</a>
</g>
</g>
<!-- Node1&#45;&gt;Node4 -->
<g id="edge3_Node000001_Node000004" class="edge">
<title>Node1&#45;&gt;Node4</title>
<g id="a_edge3_Node000001_Node000004"><a xlink:title=" ">
<path fill="none" stroke="#63b8ff" d="M416.94,-58.91C404.94,-47.94 389.33,-33.67 379.48,-24.67"/>
<polygon fill="#63b8ff" stroke="#63b8ff" points="414.81,-61.7 424.56,-65.87 419.54,-56.54 414.81,-61.7"/>
</a>
</g>
</g>
<!-- Node5 -->
<g id="Node000005" class="node">
<title>Node5</title>
<g id="a_Node000005"><a xlink:href="cpool__unittest_8c.html" target="_top" xlink:title=" ">
<polygon fill="white" stroke="#666666" points="552.5,-30 445.5,-30 445.5,0 552.5,0 552.5,-30"/>
<text text-anchor="start" x="453.5" y="-18" font-family="Helvetica,sans-Serif" font-size="10.00">client/lib/net/cpool</text>
<text text-anchor="middle" x="499" y="-7" font-family="Helvetica,sans-Serif" font-size="10.00">_unittest.c</text>
</a>
</g>
</g>
<!-- Node1&#45;&gt;Node5 -->
<g id="edge4_Node000001_Node000005" class="edge">
<title>Node1&#45;&gt;Node5</title>
<g id="a_edge4_Node000001_Node000005"><a xlink:title=" ">
<path fill="none" stroke="#63b8ff" d="M451.26,-58.97C461.22,-50.01 473.64,-38.82 483.32,-30.11"/>
<polygon fill="#63b8ff" stroke="#63b8ff" points="448.68,-56.58 443.59,-65.87 453.37,-61.78 448.68,-56.58"/>
</a>
</g>
</g>
<!-- Node6 -->
<g id="Node000006" class="node">
<title>Node6</title>
<g id="a_Node000006"><a xlink:href="client_2lib_2net_2pool_8c.html" target="_top" xlink:title=" ">
<polygon fill="white" stroke="#666666" points="681,-24.5 571,-24.5 571,-5.5 681,-5.5 681,-24.5"/>
<text text-anchor="middle" x="626" y="-12.5" font-family="Helvetica,sans-Serif" font-size="10.00">client/lib/net/pool.c</text>
</a>
</g>
</g>
<!-- Node1&#45;&gt;Node6 -->
<g id="edge5_Node000001_Node000006" class="edge">
<title>Node1&#45;&gt;Node6</title>
<g id="a_edge5_Node000001_Node000006"><a xlink:title=" ">
<path fill="none" stroke="#63b8ff" d="M471.87,-62.96C509,-51.65 564.76,-34.66 598.05,-24.52"/>
<polygon fill="#63b8ff" stroke="#63b8ff" points="470.46,-59.73 461.92,-65.99 472.5,-66.43 470.46,-59.73"/>
</a>
</g>
</g>
<!-- Node7 -->
<g id="Node000007" class="node">
<title>Node7</title>
<g id="a_Node000007"><a xlink:href="webfile_8c.html" target="_top" xlink:title=" ">
<polygon fill="white" stroke="#666666" points="806.5,-30 699.5,-30 699.5,0 806.5,0 806.5,-30"/>
<text text-anchor="start" x="707.5" y="-18" font-family="Helvetica,sans-Serif" font-size="10.00">client/lib/protocols</text>
<text text-anchor="middle" x="753" y="-7" font-family="Helvetica,sans-Serif" font-size="10.00">/http/webfile.c</text>
</a>
</g>
</g>
<!-- Node1&#45;&gt;Node7 -->
<g id="edge6_Node000001_Node000007" class="edge">
<title>Node1&#45;&gt;Node7</title>
<g id="a_edge6_Node000001_Node000007"><a xlink:title=" ">
<path fill="none" stroke="#63b8ff" d="M497.64,-64.28C549.53,-55.75 624.66,-42.93 690,-30 693.08,-29.39 696.24,-28.75 699.42,-28.08"/>
<polygon fill="#63b8ff" stroke="#63b8ff" points="496.88,-60.86 487.58,-65.93 498.01,-67.77 496.88,-60.86"/>
</a>
</g>
</g>
</g>
</svg>
