<?xml version="1.0" encoding="UTF-8" standalone="no"?>
<!DOCTYPE svg PUBLIC "-//W3C//DTD SVG 1.1//EN"
 "http://www.w3.org/Graphics/SVG/1.1/DTD/svg11.dtd">
<!-- Generated by graphviz version 2.43.0 (0)
 -->
<!-- Title: client/lib/net/cpool_unittest.c Pages: 1 -->
<svg width="982pt" height="456pt"
 viewBox="0.00 0.00 982.01 456.00" xmlns="http://www.w3.org/2000/svg" xmlns:xlink="http://www.w3.org/1999/xlink">
<g id="graph0" class="graph" transform="scale(1 1) rotate(0) translate(4 452)">
<title>client/lib/net/cpool_unittest.c</title>
<!-- Node1 -->
<g id="Node000001" class="node">
<title>Node1</title>
<g id="a_Node000001"><a xlink:title=" ">
<polygon fill="#999999" stroke="#666666" points="754.01,-448 647.01,-448 647.01,-418 754.01,-418 754.01,-448"/>
<text text-anchor="start" x="655.01" y="-436" font-family="Helvetica,sans-Serif" font-size="10.00">client/lib/net/cpool</text>
<text text-anchor="middle" x="700.51" y="-425" font-family="Helvetica,sans-Serif" font-size="10.00">_unittest.c</text>
</a>
</g>
</g>
<!-- Node2 -->
<g id="Node000002" class="node">
<title>Node2</title>
<g id="a_Node000002"><a xlink:href="brix_8h.html" target="_top" xlink:title=" ">
<polygon fill="white" stroke="#666666" points="582.51,-327 538.51,-327 538.51,-308 582.51,-308 582.51,-327"/>
<text text-anchor="middle" x="560.51" y="-315" font-family="Helvetica,sans-Serif" font-size="10.00">brix.h</text>
</a>
</g>
</g>
<!-- Node1&#45;&gt;Node2 -->
<g id="edge1_Node000001_Node000002" class="edge">
<title>Node1&#45;&gt;Node2</title>
<g id="a_edge1_Node000001_Node000002"><a xlink:title=" ">
<path fill="none" stroke="#63b8ff" d="M646.87,-423.18C621.09,-416.22 591.88,-403.86 573.51,-382 563.22,-369.75 560.35,-351.52 559.83,-337.73"/>
<polygon fill="#63b8ff" stroke="#63b8ff" points="563.33,-337.42 559.84,-327.42 556.33,-337.42 563.33,-337.42"/>
</a>
</g>
</g>
<!-- Node5 -->
<g id="Node000005" class="node">
<title>Node5</title>
<g id="a_Node000005"><a xlink:title=" ">
<polygon fill="#e0e0e0" stroke="#999999" points="234.51,-266.5 184.51,-266.5 184.51,-247.5 234.51,-247.5 234.51,-266.5"/>
<text text-anchor="middle" x="209.51" y="-254.5" font-family="Helvetica,sans-Serif" font-size="10.00">stdio.h</text>
</a>
</g>
</g>
<!-- Node1&#45;&gt;Node5 -->
<g id="edge35_Node000001_Node000005" class="edge">
<title>Node1&#45;&gt;Node5</title>
<g id="a_edge35_Node000001_Node000005"><a xlink:title=" ">
<path fill="none" stroke="#63b8ff" d="M660.74,-417.91C566.44,-384.49 330.58,-300.91 242.97,-269.86"/>
<polygon fill="#63b8ff" stroke="#63b8ff" points="244.11,-266.55 233.52,-266.51 241.77,-273.15 244.11,-266.55"/>
</a>
</g>
</g>
<!-- Node21 -->
<g id="Node000021" class="node">
<title>Node21</title>
<g id="a_Node000021"><a xlink:href="cpool_8h.html" target="_top" xlink:title=" ">
<polygon fill="white" stroke="#666666" points="654.01,-382 583.01,-382 583.01,-363 654.01,-363 654.01,-382"/>
<text text-anchor="middle" x="618.51" y="-370" font-family="Helvetica,sans-Serif" font-size="10.00">net/cpool.h</text>
</a>
</g>
</g>
<!-- Node1&#45;&gt;Node21 -->
<g id="edge29_Node000001_Node000021" class="edge">
<title>Node1&#45;&gt;Node21</title>
<g id="a_edge29_Node000001_Node000021"><a xlink:title=" ">
<path fill="none" stroke="#63b8ff" d="M680.66,-417.84C668.03,-408.83 651.71,-397.18 638.96,-388.09"/>
<polygon fill="#63b8ff" stroke="#63b8ff" points="640.97,-385.22 630.8,-382.27 636.9,-390.92 640.97,-385.22"/>
</a>
</g>
</g>
<!-- Node22 -->
<g id="Node000022" class="node">
<title>Node22</title>
<g id="a_Node000022"><a xlink:title=" ">
<polygon fill="#e0e0e0" stroke="#999999" points="728.51,-382 672.51,-382 672.51,-363 728.51,-363 728.51,-382"/>
<text text-anchor="middle" x="700.51" y="-370" font-family="Helvetica,sans-Serif" font-size="10.00">assert.h</text>
</a>
</g>
</g>
<!-- Node1&#45;&gt;Node22 -->
<g id="edge32_Node000001_Node000022" class="edge">
<title>Node1&#45;&gt;Node22</title>
<g id="a_edge32_Node000001_Node000022"><a xlink:title=" ">
<path fill="none" stroke="#63b8ff" d="M700.51,-417.84C700.51,-410.21 700.51,-400.7 700.51,-392.45"/>
<polygon fill="#63b8ff" stroke="#63b8ff" points="704.01,-392.27 700.51,-382.27 697.01,-392.27 704.01,-392.27"/>
</a>
</g>
</g>
<!-- Node23 -->
<g id="Node000023" class="node">
<title>Node23</title>
<g id="a_Node000023"><a xlink:title=" ">
<polygon fill="#e0e0e0" stroke="#999999" points="810.01,-382 747.01,-382 747.01,-363 810.01,-363 810.01,-382"/>
<text text-anchor="middle" x="778.51" y="-370" font-family="Helvetica,sans-Serif" font-size="10.00">pthread.h</text>
</a>
</g>
</g>
<!-- Node1&#45;&gt;Node23 -->
<g id="edge33_Node000001_Node000023" class="edge">
<title>Node1&#45;&gt;Node23</title>
<g id="a_edge33_Node000001_Node000023"><a xlink:title=" ">
<path fill="none" stroke="#63b8ff" d="M719.39,-417.84C731.29,-408.91 746.63,-397.41 758.7,-388.35"/>
<polygon fill="#63b8ff" stroke="#63b8ff" points="760.92,-391.07 766.82,-382.27 756.72,-385.47 760.92,-391.07"/>
</a>
</g>
</g>
<!-- Node24 -->
<g id="Node000024" class="node">
<title>Node24</title>
<g id="a_Node000024"><a xlink:title=" ">
<polygon fill="#e0e0e0" stroke="#999999" points="902.51,-382 828.51,-382 828.51,-363 902.51,-363 902.51,-382"/>
<text text-anchor="middle" x="865.51" y="-370" font-family="Helvetica,sans-Serif" font-size="10.00">stdatomic.h</text>
</a>
</g>
</g>
<!-- Node1&#45;&gt;Node24 -->
<g id="edge34_Node000001_Node000024" class="edge">
<title>Node1&#45;&gt;Node24</title>
<g id="a_edge34_Node000001_Node000024"><a xlink:title=" ">
<path fill="none" stroke="#63b8ff" d="M740.03,-417.99C767.93,-408.1 804.92,-394.98 831.5,-385.56"/>
<polygon fill="#63b8ff" stroke="#63b8ff" points="832.89,-388.78 841.14,-382.14 830.55,-382.18 832.89,-388.78"/>
</a>
</g>
</g>
<!-- Node25 -->
<g id="Node000025" class="node">
<title>Node25</title>
<g id="a_Node000025"><a xlink:title=" ">
<polygon fill="#e0e0e0" stroke="#999999" points="974.01,-382 921.01,-382 921.01,-363 974.01,-363 974.01,-382"/>
<text text-anchor="middle" x="947.51" y="-370" font-family="Helvetica,sans-Serif" font-size="10.00">string.h</text>
</a>
</g>
</g>
<!-- Node1&#45;&gt;Node25 -->
<g id="edge36_Node000001_Node000025" class="edge">
<title>Node1&#45;&gt;Node25</title>
<g id="a_edge36_Node000001_Node000025"><a xlink:title=" ">
<path fill="none" stroke="#63b8ff" d="M754.1,-419.31C801.58,-408.06 869.62,-391.95 911.06,-382.13"/>
<polygon fill="#63b8ff" stroke="#63b8ff" points="912.06,-385.49 920.99,-379.78 910.45,-378.68 912.06,-385.49"/>
</a>
</g>
</g>
<!-- Node3 -->
<g id="Node000003" class="node">
<title>Node3</title>
<g id="a_Node000003"><a xlink:title=" ">
<polygon fill="#e0e0e0" stroke="#999999" points="581.01,-19 528.01,-19 528.01,0 581.01,0 581.01,-19"/>
<text text-anchor="middle" x="554.51" y="-7" font-family="Helvetica,sans-Serif" font-size="10.00">stdint.h</text>
</a>
</g>
</g>
<!-- Node2&#45;&gt;Node3 -->
<g id="edge2_Node000002_Node000003" class="edge">
<title>Node2&#45;&gt;Node3</title>
<g id="a_edge2_Node000002_Node000003"><a xlink:title=" ">
<path fill="none" stroke="#63b8ff" d="M555.99,-307.79C549.2,-293.4 538.2,-264.08 548.51,-242 559.05,-219.42 580.96,-228.58 591.51,-206 619.98,-145.04 583.71,-63.67 564.73,-28.24"/>
<polygon fill="#63b8ff" stroke="#63b8ff" points="567.6,-26.2 559.7,-19.15 561.48,-29.59 567.6,-26.2"/>
</a>
</g>
</g>
<!-- Node4 -->
<g id="Node000004" class="node">
<title>Node4</title>
<g id="a_Node000004"><a xlink:title=" ">
<polygon fill="#e0e0e0" stroke="#999999" points="856.51,-134.5 800.51,-134.5 800.51,-115.5 856.51,-115.5 856.51,-134.5"/>
<text text-anchor="middle" x="828.51" y="-122.5" font-family="Helvetica,sans-Serif" font-size="10.00">stddef.h</text>
</a>
</g>
</g>
<!-- Node2&#45;&gt;Node4 -->
<g id="edge3_Node000002_Node000004" class="edge">
<title>Node2&#45;&gt;Node4</title>
<g id="a_edge3_Node000002_Node000004"><a xlink:title=" ">
<path fill="none" stroke="#63b8ff" d="M582.57,-315.65C639.14,-313.03 787.5,-303.28 823.51,-272 856.48,-243.36 851.24,-219.15 844.51,-176 842.81,-165.14 839.16,-153.41 835.78,-144.05"/>
<polygon fill="#63b8ff" stroke="#63b8ff" points="839.03,-142.74 832.19,-134.65 832.49,-145.24 839.03,-142.74"/>
</a>
</g>
</g>
<!-- Node2&#45;&gt;Node5 -->
<g id="edge4_Node000002_Node000005" class="edge">
<title>Node2&#45;&gt;Node5</title>
<g id="a_edge4_Node000002_Node000005"><a xlink:title=" ">
<path fill="none" stroke="#63b8ff" d="M538.27,-314.89C486.71,-310.81 355.25,-298.48 248.51,-272 246,-271.38 243.43,-270.66 240.87,-269.87"/>
<polygon fill="#63b8ff" stroke="#63b8ff" points="241.73,-266.47 231.13,-266.64 239.52,-273.11 241.73,-266.47"/>
</a>
</g>
</g>
<!-- Node6 -->
<g id="Node000006" class="node">
<title>Node6</title>
<g id="a_Node000006"><a xlink:href="time_8h.html" target="_top" xlink:title=" ">
<polygon fill="white" stroke="#666666" points="817.51,-200.5 769.51,-200.5 769.51,-181.5 817.51,-181.5 817.51,-200.5"/>
<text text-anchor="middle" x="793.51" y="-188.5" font-family="Helvetica,sans-Serif" font-size="10.00">time.h</text>
</a>
</g>
</g>
<!-- Node2&#45;&gt;Node6 -->
<g id="edge5_Node000002_Node000006" class="edge">
<title>Node2&#45;&gt;Node6</title>
<g id="a_edge5_Node000002_Node000006"><a xlink:title=" ">
<path fill="none" stroke="#63b8ff" d="M582.51,-315.97C637.4,-314.14 777.99,-306.14 806.51,-272 821.05,-254.59 812.12,-227.37 803.51,-209.61"/>
<polygon fill="#63b8ff" stroke="#63b8ff" points="806.53,-207.84 798.79,-200.61 800.34,-211.09 806.53,-207.84"/>
</a>
</g>
</g>
<!-- Node7 -->
<g id="Node000007" class="node">
<title>Node7</title>
<g id="a_Node000007"><a xlink:title=" ">
<polygon fill="#e0e0e0" stroke="#999999" points="526.51,-134.5 454.51,-134.5 454.51,-115.5 526.51,-115.5 526.51,-134.5"/>
<text text-anchor="middle" x="490.51" y="-122.5" font-family="Helvetica,sans-Serif" font-size="10.00">sys/types.h</text>
</a>
</g>
</g>
<!-- Node2&#45;&gt;Node7 -->
<g id="edge8_Node000002_Node000007" class="edge">
<title>Node2&#45;&gt;Node7</title>
<g id="a_edge8_Node000002_Node000007"><a xlink:title=" ">
<path fill="none" stroke="#63b8ff" d="M538.24,-315.65C481.88,-313.06 335.57,-303.38 300.51,-272 277.76,-251.64 285.77,-236.23 281.51,-206 279.65,-192.8 273.25,-186.47 281.51,-176 291.62,-163.19 385.56,-144.53 444.01,-134"/>
<polygon fill="#63b8ff" stroke="#63b8ff" points="444.9,-137.4 454.13,-132.2 443.67,-130.51 444.9,-137.4"/>
</a>
</g>
</g>
<!-- Node8 -->
<g id="Node000008" class="node">
<title>Node8</title>
<g id="a_Node000008"><a xlink:href="root_2protocol_2protocol_8h.html" target="_top" xlink:title=" ">
<polygon fill="white" stroke="#666666" points="437.01,-272 310.01,-272 310.01,-242 437.01,-242 437.01,-272"/>
<text text-anchor="start" x="318.01" y="-260" font-family="Helvetica,sans-Serif" font-size="10.00">protocols/root/protocol</text>
<text text-anchor="middle" x="373.51" y="-249" font-family="Helvetica,sans-Serif" font-size="10.00">/protocol.h</text>
</a>
</g>
</g>
<!-- Node2&#45;&gt;Node8 -->
<g id="edge9_Node000002_Node000008" class="edge">
<title>Node2&#45;&gt;Node8</title>
<g id="a_edge9_Node000002_Node000008"><a xlink:title=" ">
<path fill="none" stroke="#63b8ff" d="M538.32,-309.56C511.32,-301.11 464.79,-286.56 428.05,-275.06"/>
<polygon fill="#63b8ff" stroke="#63b8ff" points="429.04,-271.7 418.45,-272.06 426.95,-278.38 429.04,-271.7"/>
</a>
</g>
</g>
<!-- Node16 -->
<g id="Node000016" class="node">
<title>Node16</title>
<g id="a_Node000016"><a xlink:href="wire__codec_8h.html" target="_top" xlink:title=" ">
<polygon fill="white" stroke="#666666" points="582.01,-206 455.01,-206 455.01,-176 582.01,-176 582.01,-206"/>
<text text-anchor="start" x="463.01" y="-194" font-family="Helvetica,sans-Serif" font-size="10.00">protocols/root/protocol</text>
<text text-anchor="middle" x="518.51" y="-183" font-family="Helvetica,sans-Serif" font-size="10.00">/codec/wire_codec.h</text>
</a>
</g>
</g>
<!-- Node2&#45;&gt;Node16 -->
<g id="edge25_Node000002_Node000016" class="edge">
<title>Node2&#45;&gt;Node16</title>
<g id="a_edge25_Node000002_Node000016"><a xlink:title=" ">
<path fill="none" stroke="#63b8ff" d="M547.02,-307.75C536.22,-299.87 521.86,-287.21 515.51,-272 508.13,-254.32 509.56,-232.5 512.46,-216.11"/>
<polygon fill="#63b8ff" stroke="#63b8ff" points="515.91,-216.72 514.5,-206.22 509.05,-215.31 515.91,-216.72"/>
</a>
</g>
</g>
<!-- Node18 -->
<g id="Node000018" class="node">
<title>Node18</title>
<g id="a_Node000018"><a xlink:href="brix__net_8h.html" target="_top" xlink:title=" ">
<polygon fill="white" stroke="#666666" points="623.01,-266.5 558.01,-266.5 558.01,-247.5 623.01,-247.5 623.01,-266.5"/>
<text text-anchor="middle" x="590.51" y="-254.5" font-family="Helvetica,sans-Serif" font-size="10.00">brix_net.h</text>
</a>
</g>
</g>
<!-- Node2&#45;&gt;Node18 -->
<g id="edge26_Node000002_Node000018" class="edge">
<title>Node2&#45;&gt;Node18</title>
<g id="a_edge26_Node000002_Node000018"><a xlink:title=" ">
<path fill="none" stroke="#63b8ff" d="M564.94,-307.87C569.28,-299.4 576.03,-286.24 581.5,-275.57"/>
<polygon fill="#63b8ff" stroke="#63b8ff" points="584.61,-277.16 586.06,-266.67 578.39,-273.97 584.61,-277.16"/>
</a>
</g>
</g>
<!-- Node19 -->
<g id="Node000019" class="node">
<title>Node19</title>
<g id="a_Node000019"><a xlink:href="brix__auth_8h.html" target="_top" xlink:title=" ">
<polygon fill="white" stroke="#666666" points="712.01,-266.5 641.01,-266.5 641.01,-247.5 712.01,-247.5 712.01,-266.5"/>
<text text-anchor="middle" x="676.51" y="-254.5" font-family="Helvetica,sans-Serif" font-size="10.00">brix_auth.h</text>
</a>
</g>
</g>
<!-- Node2&#45;&gt;Node19 -->
<g id="edge27_Node000002_Node000019" class="edge">
<title>Node2&#45;&gt;Node19</title>
<g id="a_edge27_Node000002_Node000019"><a xlink:title=" ">
<path fill="none" stroke="#63b8ff" d="M577.62,-307.87C596.73,-298.23 627.87,-282.53 650.11,-271.31"/>
<polygon fill="#63b8ff" stroke="#63b8ff" points="651.97,-274.3 659.32,-266.67 648.82,-268.05 651.97,-274.3"/>
</a>
</g>
</g>
<!-- Node20 -->
<g id="Node000020" class="node">
<title>Node20</title>
<g id="a_Node000020"><a xlink:href="brix__ops_8h.html" target="_top" xlink:title=" ">
<polygon fill="white" stroke="#666666" points="797.01,-266.5 730.01,-266.5 730.01,-247.5 797.01,-247.5 797.01,-266.5"/>
<text text-anchor="middle" x="763.51" y="-254.5" font-family="Helvetica,sans-Serif" font-size="10.00">brix_ops.h</text>
</a>
</g>
</g>
<!-- Node2&#45;&gt;Node20 -->
<g id="edge28_Node000002_Node000020" class="edge">
<title>Node2&#45;&gt;Node20</title>
<g id="a_edge28_Node000002_Node000020"><a xlink:title=" ">
<path fill="none" stroke="#63b8ff" d="M582.75,-310.74C613.91,-302.59 672.27,-287 721.51,-272 723.95,-271.26 726.47,-270.47 729,-269.66"/>
<polygon fill="#63b8ff" stroke="#63b8ff" points="730.28,-272.93 738.7,-266.51 728.11,-266.27 730.28,-272.93"/>
</a>
</g>
</g>
<!-- Node6&#45;&gt;Node4 -->
<g id="edge6_Node000006_Node000004" class="edge">
<title>Node6&#45;&gt;Node4</title>
<g id="a_edge6_Node000006_Node000004"><a xlink:title=" ">
<path fill="none" stroke="#63b8ff" d="M798.23,-181.37C803.47,-171.78 812.07,-156.05 818.77,-143.8"/>
<polygon fill="#63b8ff" stroke="#63b8ff" points="821.91,-145.36 823.64,-134.91 815.77,-142 821.91,-145.36"/>
</a>
</g>
</g>
<!-- Node6&#45;&gt;Node6 -->
<g id="edge7_Node000006_Node000006" class="edge">
<title>Node6&#45;&gt;Node6</title>
<g id="a_edge7_Node000006_Node000006"><a xlink:title=" ">
<path fill="none" stroke="#63b8ff" d="M806.84,-200.66C820.41,-206.34 835.51,-203.12 835.51,-191 835.51,-181.82 826.84,-177.75 816.73,-178.78"/>
<polygon fill="#63b8ff" stroke="#63b8ff" points="815.64,-175.45 806.84,-181.34 817.4,-182.23 815.64,-175.45"/>
</a>
</g>
</g>
<!-- Node9 -->
<g id="Node000009" class="node">
<title>Node9</title>
<g id="a_Node000009"><a xlink:href="types_8h.html" target="_top" xlink:title=" ">
<polygon fill="white" stroke="#666666" points="453.01,-74 400.01,-74 400.01,-55 453.01,-55 453.01,-74"/>
<text text-anchor="middle" x="426.51" y="-62" font-family="Helvetica,sans-Serif" font-size="10.00">types.h</text>
</a>
</g>
</g>
<!-- Node8&#45;&gt;Node9 -->
<g id="edge10_Node000008_Node000009" class="edge">
<title>Node8&#45;&gt;Node9</title>
<g id="a_edge10_Node000008_Node000009"><a xlink:title=" ">
<path fill="none" stroke="#63b8ff" d="M385.48,-241.64C392.76,-232.12 401.57,-219.03 406.51,-206 422.25,-164.47 425.74,-111.77 426.43,-84.22"/>
<polygon fill="#63b8ff" stroke="#63b8ff" points="429.93,-84.1 426.58,-74.05 422.93,-84 429.93,-84.1"/>
</a>
</g>
</g>
<!-- Node10 -->
<g id="Node000010" class="node">
<title>Node10</title>
<g id="a_Node000010"><a xlink:href="opcodes_8h.html" target="_top" xlink:title=" ">
<polygon fill="white" stroke="#666666" points="196.51,-74 130.51,-74 130.51,-55 196.51,-55 196.51,-74"/>
<text text-anchor="middle" x="163.51" y="-62" font-family="Helvetica,sans-Serif" font-size="10.00">opcodes.h</text>
</a>
</g>
</g>
<!-- Node8&#45;&gt;Node10 -->
<g id="edge12_Node000008_Node000010" class="edge">
<title>Node8&#45;&gt;Node10</title>
<g id="a_edge12_Node000008_Node000010"><a xlink:title=" ">
<path fill="none" stroke="#63b8ff" d="M309.81,-245.47C214.19,-228.17 41.04,-190.56 6.51,-140 -23.77,-95.67 63.88,-76.97 120.16,-69.69"/>
<polygon fill="#63b8ff" stroke="#63b8ff" points="120.76,-73.15 130.27,-68.46 119.92,-66.2 120.76,-73.15"/>
</a>
</g>
</g>
<!-- Node11 -->
<g id="Node000011" class="node">
<title>Node11</title>
<g id="a_Node000011"><a xlink:href="flags_8h.html" target="_top" xlink:title=" ">
<polygon fill="white" stroke="#666666" points="398.01,-200.5 349.01,-200.5 349.01,-181.5 398.01,-181.5 398.01,-200.5"/>
<text text-anchor="middle" x="373.51" y="-188.5" font-family="Helvetica,sans-Serif" font-size="10.00">flags.h</text>
</a>
</g>
</g>
<!-- Node8&#45;&gt;Node11 -->
<g id="edge13_Node000008_Node000011" class="edge">
<title>Node8&#45;&gt;Node11</title>
<g id="a_edge13_Node000008_Node000011"><a xlink:title=" ">
<path fill="none" stroke="#63b8ff" d="M373.51,-241.8C373.51,-232.7 373.51,-220.79 373.51,-210.9"/>
<polygon fill="#63b8ff" stroke="#63b8ff" points="377.01,-210.84 373.51,-200.84 370.01,-210.84 377.01,-210.84"/>
</a>
</g>
</g>
<!-- Node12 -->
<g id="Node000012" class="node">
<title>Node12</title>
<g id="a_Node000012"><a xlink:href="wire_8h.html" target="_top" xlink:title=" ">
<polygon fill="white" stroke="#666666" points="232.01,-200.5 185.01,-200.5 185.01,-181.5 232.01,-181.5 232.01,-200.5"/>
<text text-anchor="middle" x="208.51" y="-188.5" font-family="Helvetica,sans-Serif" font-size="10.00">wire.h</text>
</a>
</g>
</g>
<!-- Node8&#45;&gt;Node12 -->
<g id="edge14_Node000008_Node000012" class="edge">
<title>Node8&#45;&gt;Node12</title>
<g id="a_edge14_Node000008_Node000012"><a xlink:title=" ">
<path fill="none" stroke="#63b8ff" d="M337.3,-241.95C308.23,-230.68 267.84,-215.01 240.08,-204.25"/>
<polygon fill="#63b8ff" stroke="#63b8ff" points="241.06,-200.87 230.47,-200.52 238.52,-207.4 241.06,-200.87"/>
</a>
</g>
</g>
<!-- Node8&#45;&gt;Node16 -->
<g id="edge20_Node000008_Node000016" class="edge">
<title>Node8&#45;&gt;Node16</title>
<g id="a_edge20_Node000008_Node000016"><a xlink:title=" ">
<path fill="none" stroke="#63b8ff" d="M405.33,-241.95C426.48,-232.62 454.47,-220.27 477.32,-210.18"/>
<polygon fill="#63b8ff" stroke="#63b8ff" points="479.03,-213.25 486.76,-206.01 476.2,-206.85 479.03,-213.25"/>
</a>
</g>
</g>
<!-- Node17 -->
<g id="Node000017" class="node">
<title>Node17</title>
<g id="a_Node000017"><a xlink:href="gsi_8h.html" target="_top" xlink:title=" ">
<polygon fill="white" stroke="#666666" points="330.51,-200.5 290.51,-200.5 290.51,-181.5 330.51,-181.5 330.51,-200.5"/>
<text text-anchor="middle" x="310.51" y="-188.5" font-family="Helvetica,sans-Serif" font-size="10.00">gsi.h</text>
</a>
</g>
</g>
<!-- Node8&#45;&gt;Node17 -->
<g id="edge24_Node000008_Node000017" class="edge">
<title>Node8&#45;&gt;Node17</title>
<g id="a_edge24_Node000008_Node000017"><a xlink:title=" ">
<path fill="none" stroke="#63b8ff" d="M359.53,-241.8C349.71,-231.82 336.55,-218.46 326.34,-208.09"/>
<polygon fill="#63b8ff" stroke="#63b8ff" points="328.72,-205.52 319.21,-200.84 323.74,-210.43 328.72,-205.52"/>
</a>
</g>
</g>
<!-- Node9&#45;&gt;Node3 -->
<g id="edge11_Node000009_Node000003" class="edge">
<title>Node9&#45;&gt;Node3</title>
<g id="a_edge11_Node000009_Node000003"><a xlink:title=" ">
<path fill="none" stroke="#63b8ff" d="M447.07,-54.98C467.94,-46.34 500.48,-32.87 524.28,-23.02"/>
<polygon fill="#63b8ff" stroke="#63b8ff" points="525.67,-26.23 533.57,-19.17 522.99,-19.76 525.67,-26.23"/>
</a>
</g>
</g>
<!-- Node13 -->
<g id="Node000013" class="node">
<title>Node13</title>
<g id="a_Node000013"><a xlink:href="wire__core__requests_8h.html" target="_top" xlink:title=" ">
<polygon fill="white" stroke="#666666" points="398.51,-134.5 278.51,-134.5 278.51,-115.5 398.51,-115.5 398.51,-134.5"/>
<text text-anchor="middle" x="338.51" y="-122.5" font-family="Helvetica,sans-Serif" font-size="10.00">wire_core_requests.h</text>
</a>
</g>
</g>
<!-- Node12&#45;&gt;Node13 -->
<g id="edge15_Node000012_Node000013" class="edge">
<title>Node12&#45;&gt;Node13</title>
<g id="a_edge15_Node000012_Node000013"><a xlink:title=" ">
<path fill="none" stroke="#63b8ff" d="M226.04,-181.37C248.04,-170.54 285.99,-151.85 311.66,-139.22"/>
<polygon fill="#63b8ff" stroke="#63b8ff" points="313.41,-142.26 320.84,-134.7 310.32,-135.98 313.41,-142.26"/>
</a>
</g>
</g>
<!-- Node14 -->
<g id="Node000014" class="node">
<title>Node14</title>
<g id="a_Node000014"><a xlink:href="wire__write__extended__requests_8h.html" target="_top" xlink:title=" ">
<polygon fill="white" stroke="#666666" points="135.01,-140 16.01,-140 16.01,-110 135.01,-110 135.01,-140"/>
<text text-anchor="start" x="24.01" y="-128" font-family="Helvetica,sans-Serif" font-size="10.00">wire_write_extended</text>
<text text-anchor="middle" x="75.51" y="-117" font-family="Helvetica,sans-Serif" font-size="10.00">_requests.h</text>
</a>
</g>
</g>
<!-- Node12&#45;&gt;Node14 -->
<g id="edge18_Node000012_Node000014" class="edge">
<title>Node12&#45;&gt;Node14</title>
<g id="a_edge18_Node000012_Node000014"><a xlink:title=" ">
<path fill="none" stroke="#63b8ff" d="M190.57,-181.37C171.08,-171.99 139.35,-156.72 114.15,-144.59"/>
<polygon fill="#63b8ff" stroke="#63b8ff" points="115.37,-141.3 104.84,-140.12 112.34,-147.61 115.37,-141.3"/>
</a>
</g>
</g>
<!-- Node15 -->
<g id="Node000015" class="node">
<title>Node15</title>
<g id="a_Node000015"><a xlink:href="wire__vendor__ext_8h.html" target="_top" xlink:title=" ">
<polygon fill="white" stroke="#666666" points="260.01,-134.5 153.01,-134.5 153.01,-115.5 260.01,-115.5 260.01,-134.5"/>
<text text-anchor="middle" x="206.51" y="-122.5" font-family="Helvetica,sans-Serif" font-size="10.00">wire_vendor_ext.h</text>
</a>
</g>
</g>
<!-- Node12&#45;&gt;Node15 -->
<g id="edge19_Node000012_Node000015" class="edge">
<title>Node12&#45;&gt;Node15</title>
<g id="a_edge19_Node000012_Node000015"><a xlink:title=" ">
<path fill="none" stroke="#63b8ff" d="M208.24,-181.37C207.95,-172.16 207.49,-157.29 207.11,-145.27"/>
<polygon fill="#63b8ff" stroke="#63b8ff" points="210.6,-144.79 206.79,-134.91 203.6,-145.01 210.6,-144.79"/>
</a>
</g>
</g>
<!-- Node13&#45;&gt;Node9 -->
<g id="edge16_Node000013_Node000009" class="edge">
<title>Node13&#45;&gt;Node9</title>
<g id="a_edge16_Node000013_Node000009"><a xlink:title=" ">
<path fill="none" stroke="#63b8ff" d="M351.49,-115.37C365.53,-106.04 388.14,-91.01 404.87,-79.88"/>
<polygon fill="#63b8ff" stroke="#63b8ff" points="407.08,-82.62 413.47,-74.17 403.21,-76.79 407.08,-82.62"/>
</a>
</g>
</g>
<!-- Node13&#45;&gt;Node10 -->
<g id="edge17_Node000013_Node000010" class="edge">
<title>Node13&#45;&gt;Node10</title>
<g id="a_edge17_Node000013_Node000010"><a xlink:title=" ">
<path fill="none" stroke="#63b8ff" d="M313.06,-115.49C282.86,-105.4 232.35,-88.51 198.49,-77.19"/>
<polygon fill="#63b8ff" stroke="#63b8ff" points="199.58,-73.87 188.99,-74.02 197.36,-80.51 199.58,-73.87"/>
</a>
</g>
</g>
<!-- Node16&#45;&gt;Node3 -->
<g id="edge21_Node000016_Node000003" class="edge">
<title>Node16&#45;&gt;Node3</title>
<g id="a_edge21_Node000016_Node000003"><a xlink:title=" ">
<path fill="none" stroke="#63b8ff" d="M524.12,-175.76C527.83,-165.87 532.54,-152.3 535.51,-140 544.89,-101.11 550.35,-54.47 552.85,-29.13"/>
<polygon fill="#63b8ff" stroke="#63b8ff" points="556.34,-29.37 553.79,-19.09 549.37,-28.72 556.34,-29.37"/>
</a>
</g>
</g>
<!-- Node16&#45;&gt;Node4 -->
<g id="edge22_Node000016_Node000004" class="edge">
<title>Node16&#45;&gt;Node4</title>
<g id="a_edge22_Node000016_Node000004"><a xlink:title=" ">
<path fill="none" stroke="#63b8ff" d="M582.36,-176.82C645.01,-163.88 738.46,-144.59 790.33,-133.88"/>
<polygon fill="#63b8ff" stroke="#63b8ff" points="791.05,-137.31 800.13,-131.86 789.63,-130.45 791.05,-137.31"/>
</a>
</g>
</g>
<!-- Node16&#45;&gt;Node7 -->
<g id="edge23_Node000016_Node000007" class="edge">
<title>Node16&#45;&gt;Node7</title>
<g id="a_edge23_Node000016_Node000007"><a xlink:title=" ">
<path fill="none" stroke="#63b8ff" d="M512.29,-175.8C508.23,-166.5 502.88,-154.27 498.5,-144.26"/>
<polygon fill="#63b8ff" stroke="#63b8ff" points="501.59,-142.6 494.38,-134.84 495.18,-145.41 501.59,-142.6"/>
</a>
</g>
</g>
<!-- Node21&#45;&gt;Node2 -->
<g id="edge30_Node000021_Node000002" class="edge">
<title>Node21&#45;&gt;Node2</title>
<g id="a_edge30_Node000021_Node000002"><a xlink:title=" ">
<path fill="none" stroke="#63b8ff" d="M609.19,-362.98C600.7,-355.23 587.95,-343.58 577.63,-334.14"/>
<polygon fill="#63b8ff" stroke="#63b8ff" points="579.74,-331.33 570,-327.17 575.02,-336.5 579.74,-331.33"/>
</a>
</g>
</g>
<!-- Node21&#45;&gt;Node4 -->
<g id="edge31_Node000021_Node000004" class="edge">
<title>Node21&#45;&gt;Node4</title>
<g id="a_edge31_Node000021_Node000004"><a xlink:title=" ">
<path fill="none" stroke="#63b8ff" d="M646.38,-362.99C701.4,-345.63 820.94,-305.01 847.51,-272 874.5,-238.46 872.6,-217.32 860.51,-176 856.96,-163.86 849.45,-151.86 842.6,-142.67"/>
<polygon fill="#63b8ff" stroke="#63b8ff" points="845.33,-140.47 836.39,-134.79 839.84,-144.81 845.33,-140.47"/>
</a>
</g>
</g>
</g>
</svg>
