<?xml version="1.0" encoding="UTF-8" standalone="no"?>
<!DOCTYPE svg PUBLIC "-//W3C//DTD SVG 1.1//EN"
 "http://www.w3.org/Graphics/SVG/1.1/DTD/svg11.dtd">
<!-- Generated by graphviz version 2.43.0 (0)
 -->
<!-- Title: src/core/config/credential_block.c Pages: 1 -->
<svg width="828pt" height="214pt"
 viewBox="0.00 0.00 827.82 214.00" xmlns="http://www.w3.org/2000/svg" xmlns:xlink="http://www.w3.org/1999/xlink">
<g id="graph0" class="graph" transform="scale(1 1) rotate(0) translate(4 210)">
<title>src/core/config/credential_block.c</title>
<!-- Node1 -->
<g id="Node000001" class="node">
<title>Node1</title>
<g id="a_Node000001"><a xlink:title=" ">
<polygon fill="#999999" stroke="#666666" points="449.32,-206 310.32,-206 310.32,-176 449.32,-176 449.32,-206"/>
<text text-anchor="start" x="318.32" y="-194" font-family="Helvetica,sans-Serif" font-size="10.00">src/core/config/credential</text>
<text text-anchor="middle" x="379.82" y="-183" font-family="Helvetica,sans-Serif" font-size="10.00">_block.c</text>
</a>
</g>
</g>
<!-- Node2 -->
<g id="Node000002" class="node">
<title>Node2</title>
<g id="a_Node000002"><a xlink:href="credential__block_8h.html" target="_top" xlink:title=" ">
<polygon fill="white" stroke="#666666" points="432.82,-74 326.82,-74 326.82,-55 432.82,-55 432.82,-74"/>
<text text-anchor="middle" x="379.82" y="-62" font-family="Helvetica,sans-Serif" font-size="10.00">credential_block.h</text>
</a>
</g>
</g>
<!-- Node1&#45;&gt;Node2 -->
<g id="edge1_Node000001_Node000002" class="edge">
<title>Node1&#45;&gt;Node2</title>
<g id="a_edge1_Node000001_Node000002"><a xlink:title=" ">
<path fill="none" stroke="#63b8ff" d="M379.82,-175.72C379.82,-153.12 379.82,-109.12 379.82,-84.09"/>
<polygon fill="#63b8ff" stroke="#63b8ff" points="383.32,-84.07 379.82,-74.07 376.32,-84.07 383.32,-84.07"/>
</a>
</g>
</g>
<!-- Node5 -->
<g id="Node000005" class="node">
<title>Node5</title>
<g id="a_Node000005"><a xlink:href="cstr_8h.html" target="_top" xlink:title=" ">
<polygon fill="white" stroke="#666666" points="120.32,-74 13.32,-74 13.32,-55 120.32,-55 120.32,-74"/>
<text text-anchor="middle" x="66.82" y="-62" font-family="Helvetica,sans-Serif" font-size="10.00">core/compat/cstr.h</text>
</a>
</g>
</g>
<!-- Node1&#45;&gt;Node5 -->
<g id="edge4_Node000001_Node000005" class="edge">
<title>Node1&#45;&gt;Node5</title>
<g id="a_edge4_Node000001_Node000005"><a xlink:title=" ">
<path fill="none" stroke="#63b8ff" d="M336.33,-175.92C307.58,-166.36 269.19,-153.12 235.82,-140 185.25,-120.11 127.58,-93.91 94.36,-78.46"/>
<polygon fill="#63b8ff" stroke="#63b8ff" points="95.42,-75.09 84.88,-74.04 92.46,-81.44 95.42,-75.09"/>
</a>
</g>
</g>
<!-- Node7 -->
<g id="Node000007" class="node">
<title>Node7</title>
<g id="a_Node000007"><a xlink:title=" ">
<polygon fill="#e0e0e0" stroke="#999999" points="73.32,-19 20.32,-19 20.32,0 73.32,0 73.32,-19"/>
<text text-anchor="middle" x="46.82" y="-7" font-family="Helvetica,sans-Serif" font-size="10.00">string.h</text>
</a>
</g>
</g>
<!-- Node1&#45;&gt;Node7 -->
<g id="edge23_Node000001_Node000007" class="edge">
<title>Node1&#45;&gt;Node7</title>
<g id="a_edge23_Node000001_Node000007"><a xlink:title=" ">
<path fill="none" stroke="#63b8ff" d="M309.92,-179.07C210.9,-161.93 38,-125.31 3.82,-74 -7.36,-57.2 9.77,-38.04 25.61,-25.19"/>
<polygon fill="#63b8ff" stroke="#63b8ff" points="27.78,-27.94 33.62,-19.1 23.54,-22.37 27.78,-27.94"/>
</a>
</g>
</g>
<!-- Node8 -->
<g id="Node000008" class="node">
<title>Node8</title>
<g id="a_Node000008"><a xlink:href="vfs__backend__registry_8h.html" target="_top" xlink:title=" ">
<polygon fill="white" stroke="#666666" points="351.32,-140 244.32,-140 244.32,-110 351.32,-110 351.32,-140"/>
<text text-anchor="start" x="252.32" y="-128" font-family="Helvetica,sans-Serif" font-size="10.00">fs/vfs/vfs_backend</text>
<text text-anchor="middle" x="297.82" y="-117" font-family="Helvetica,sans-Serif" font-size="10.00">_registry.h</text>
</a>
</g>
</g>
<!-- Node1&#45;&gt;Node8 -->
<g id="edge7_Node000001_Node000008" class="edge">
<title>Node1&#45;&gt;Node8</title>
<g id="a_edge7_Node000001_Node000008"><a xlink:title=" ">
<path fill="none" stroke="#63b8ff" d="M361.62,-175.8C350.58,-167.18 336.31,-156.04 324.06,-146.48"/>
<polygon fill="#63b8ff" stroke="#63b8ff" points="326.01,-143.56 315.97,-140.16 321.7,-149.08 326.01,-143.56"/>
</a>
</g>
</g>
<!-- Node9 -->
<g id="Node000009" class="node">
<title>Node9</title>
<g id="a_Node000009"><a xlink:href="sd_8h.html" target="_top" xlink:title=" ">
<polygon fill="white" stroke="#666666" points="542.82,-74 450.82,-74 450.82,-55 542.82,-55 542.82,-74"/>
<text text-anchor="middle" x="496.82" y="-62" font-family="Helvetica,sans-Serif" font-size="10.00">fs/backend/sd.h</text>
</a>
</g>
</g>
<!-- Node1&#45;&gt;Node9 -->
<g id="edge21_Node000001_Node000009" class="edge">
<title>Node1&#45;&gt;Node9</title>
<g id="a_edge21_Node000001_Node000009"><a xlink:title=" ">
<path fill="none" stroke="#63b8ff" d="M388.33,-175.73C398.74,-158.93 417.52,-130.69 437.82,-110 448.99,-98.62 463.23,-87.79 474.92,-79.67"/>
<polygon fill="#63b8ff" stroke="#63b8ff" points="476.94,-82.53 483.27,-74.03 473.02,-76.73 476.94,-82.53"/>
</a>
</g>
</g>
<!-- Node17 -->
<g id="Node000017" class="node">
<title>Node17</title>
<g id="a_Node000017"><a xlink:title=" ">
<polygon fill="#e0e0e0" stroke="#999999" points="493.32,-134.5 446.32,-134.5 446.32,-115.5 493.32,-115.5 493.32,-134.5"/>
<text text-anchor="middle" x="469.82" y="-122.5" font-family="Helvetica,sans-Serif" font-size="10.00">fcntl.h</text>
</a>
</g>
</g>
<!-- Node1&#45;&gt;Node17 -->
<g id="edge22_Node000001_Node000017" class="edge">
<title>Node1&#45;&gt;Node17</title>
<g id="a_edge22_Node000001_Node000017"><a xlink:title=" ">
<path fill="none" stroke="#63b8ff" d="M399.8,-175.8C414.46,-165.37 434.33,-151.24 449.16,-140.69"/>
<polygon fill="#63b8ff" stroke="#63b8ff" points="451.53,-143.31 457.65,-134.66 447.47,-137.6 451.53,-143.31"/>
</a>
</g>
</g>
<!-- Node18 -->
<g id="Node000018" class="node">
<title>Node18</title>
<g id="a_Node000018"><a xlink:title=" ">
<polygon fill="#e0e0e0" stroke="#999999" points="567.82,-134.5 511.82,-134.5 511.82,-115.5 567.82,-115.5 567.82,-134.5"/>
<text text-anchor="middle" x="539.82" y="-122.5" font-family="Helvetica,sans-Serif" font-size="10.00">unistd.h</text>
</a>
</g>
</g>
<!-- Node1&#45;&gt;Node18 -->
<g id="edge24_Node000001_Node000018" class="edge">
<title>Node1&#45;&gt;Node18</title>
<g id="a_edge24_Node000001_Node000018"><a xlink:title=" ">
<path fill="none" stroke="#63b8ff" d="M414.94,-175.95C443.12,-164.68 482.29,-149.01 509.21,-138.25"/>
<polygon fill="#63b8ff" stroke="#63b8ff" points="510.55,-141.48 518.53,-134.52 507.95,-134.98 510.55,-141.48"/>
</a>
</g>
</g>
<!-- Node3 -->
<g id="Node000003" class="node">
<title>Node3</title>
<g id="a_Node000003"><a xlink:title=" ">
<polygon fill="#e0e0e0" stroke="#999999" points="428.82,-19 350.82,-19 350.82,0 428.82,0 428.82,-19"/>
<text text-anchor="middle" x="389.82" y="-7" font-family="Helvetica,sans-Serif" font-size="10.00">ngx_config.h</text>
</a>
</g>
</g>
<!-- Node2&#45;&gt;Node3 -->
<g id="edge2_Node000002_Node000003" class="edge">
<title>Node2&#45;&gt;Node3</title>
<g id="a_edge2_Node000002_Node000003"><a xlink:title=" ">
<path fill="none" stroke="#63b8ff" d="M381.47,-54.75C382.79,-47.8 384.66,-37.85 386.31,-29.13"/>
<polygon fill="#63b8ff" stroke="#63b8ff" points="389.79,-29.56 388.2,-19.09 382.91,-28.27 389.79,-29.56"/>
</a>
</g>
</g>
<!-- Node4 -->
<g id="Node000004" class="node">
<title>Node4</title>
<g id="a_Node000004"><a xlink:title=" ">
<polygon fill="#e0e0e0" stroke="#999999" points="332.82,-19 262.82,-19 262.82,0 332.82,0 332.82,-19"/>
<text text-anchor="middle" x="297.82" y="-7" font-family="Helvetica,sans-Serif" font-size="10.00">ngx_core.h</text>
</a>
</g>
</g>
<!-- Node2&#45;&gt;Node4 -->
<g id="edge3_Node000002_Node000004" class="edge">
<title>Node2&#45;&gt;Node4</title>
<g id="a_edge3_Node000002_Node000004"><a xlink:title=" ">
<path fill="none" stroke="#63b8ff" d="M366.65,-54.98C354.05,-46.84 334.82,-34.41 319.88,-24.76"/>
<polygon fill="#63b8ff" stroke="#63b8ff" points="321.54,-21.66 311.24,-19.17 317.74,-27.54 321.54,-21.66"/>
</a>
</g>
</g>
<!-- Node6 -->
<g id="Node000006" class="node">
<title>Node6</title>
<g id="a_Node000006"><a xlink:title=" ">
<polygon fill="#e0e0e0" stroke="#999999" points="147.82,-19 91.82,-19 91.82,0 147.82,0 147.82,-19"/>
<text text-anchor="middle" x="119.82" y="-7" font-family="Helvetica,sans-Serif" font-size="10.00">stddef.h</text>
</a>
</g>
</g>
<!-- Node5&#45;&gt;Node6 -->
<g id="edge5_Node000005_Node000006" class="edge">
<title>Node5&#45;&gt;Node6</title>
<g id="a_edge5_Node000005_Node000006"><a xlink:title=" ">
<path fill="none" stroke="#63b8ff" d="M75.58,-54.75C83.29,-47.03 94.73,-35.6 104.04,-26.28"/>
<polygon fill="#63b8ff" stroke="#63b8ff" points="106.64,-28.64 111.23,-19.09 101.69,-23.69 106.64,-28.64"/>
</a>
</g>
</g>
<!-- Node5&#45;&gt;Node7 -->
<g id="edge6_Node000005_Node000007" class="edge">
<title>Node5&#45;&gt;Node7</title>
<g id="a_edge6_Node000005_Node000007"><a xlink:title=" ">
<path fill="none" stroke="#63b8ff" d="M63.52,-54.75C60.84,-47.65 56.97,-37.4 53.64,-28.56"/>
<polygon fill="#63b8ff" stroke="#63b8ff" points="56.87,-27.21 50.06,-19.09 50.32,-29.68 56.87,-27.21"/>
</a>
</g>
</g>
<!-- Node8&#45;&gt;Node4 -->
<g id="edge8_Node000008_Node000004" class="edge">
<title>Node8&#45;&gt;Node4</title>
<g id="a_edge8_Node000008_Node000004"><a xlink:title=" ">
<path fill="none" stroke="#63b8ff" d="M297.82,-109.63C297.82,-89.21 297.82,-51.81 297.82,-29.24"/>
<polygon fill="#63b8ff" stroke="#63b8ff" points="301.32,-29.23 297.82,-19.23 294.32,-29.23 301.32,-29.23"/>
</a>
</g>
</g>
<!-- Node8&#45;&gt;Node9 -->
<g id="edge9_Node000008_Node000009" class="edge">
<title>Node8&#45;&gt;Node9</title>
<g id="a_edge9_Node000008_Node000009"><a xlink:title=" ">
<path fill="none" stroke="#63b8ff" d="M345.49,-109.99C379.83,-99.89 425.61,-86.44 457.79,-76.98"/>
<polygon fill="#63b8ff" stroke="#63b8ff" points="459.12,-80.23 467.73,-74.05 457.15,-73.52 459.12,-80.23"/>
</a>
</g>
</g>
<!-- Node15 -->
<g id="Node000015" class="node">
<title>Node15</title>
<g id="a_Node000015"><a xlink:href="af__policy_8h.html" target="_top" xlink:title=" ">
<polygon fill="white" stroke="#666666" points="270.82,-74 138.82,-74 138.82,-55 270.82,-55 270.82,-74"/>
<text text-anchor="middle" x="204.82" y="-62" font-family="Helvetica,sans-Serif" font-size="10.00">core/compat/af_policy.h</text>
</a>
</g>
</g>
<!-- Node8&#45;&gt;Node15 -->
<g id="edge17_Node000008_Node000015" class="edge">
<title>Node8&#45;&gt;Node15</title>
<g id="a_edge17_Node000008_Node000015"><a xlink:title=" ">
<path fill="none" stroke="#63b8ff" d="M275.31,-109.84C260.76,-100.68 241.89,-88.82 227.34,-79.66"/>
<polygon fill="#63b8ff" stroke="#63b8ff" points="228.81,-76.46 218.49,-74.09 225.09,-82.38 228.81,-76.46"/>
</a>
</g>
</g>
<!-- Node9&#45;&gt;Node3 -->
<g id="edge10_Node000009_Node000003" class="edge">
<title>Node9&#45;&gt;Node3</title>
<g id="a_edge10_Node000009_Node000003"><a xlink:title=" ">
<path fill="none" stroke="#63b8ff" d="M479.63,-54.98C462.57,-46.54 436.19,-33.47 416.43,-23.68"/>
<polygon fill="#63b8ff" stroke="#63b8ff" points="417.84,-20.47 407.33,-19.17 414.73,-26.75 417.84,-20.47"/>
</a>
</g>
</g>
<!-- Node9&#45;&gt;Node4 -->
<g id="edge11_Node000009_Node000004" class="edge">
<title>Node9&#45;&gt;Node4</title>
<g id="a_edge11_Node000009_Node000004"><a xlink:title=" ">
<path fill="none" stroke="#63b8ff" d="M464.85,-54.98C431.01,-45.97 377.43,-31.7 340.11,-21.76"/>
<polygon fill="#63b8ff" stroke="#63b8ff" points="340.61,-18.27 330.05,-19.08 338.81,-25.04 340.61,-18.27"/>
</a>
</g>
</g>
<!-- Node10 -->
<g id="Node000010" class="node">
<title>Node10</title>
<g id="a_Node000010"><a xlink:title=" ">
<polygon fill="#e0e0e0" stroke="#999999" points="500.32,-19 447.32,-19 447.32,0 500.32,0 500.32,-19"/>
<text text-anchor="middle" x="473.82" y="-7" font-family="Helvetica,sans-Serif" font-size="10.00">stdint.h</text>
</a>
</g>
</g>
<!-- Node9&#45;&gt;Node10 -->
<g id="edge12_Node000009_Node000010" class="edge">
<title>Node9&#45;&gt;Node10</title>
<g id="a_edge12_Node000009_Node000010"><a xlink:title=" ">
<path fill="none" stroke="#63b8ff" d="M493.03,-54.75C489.91,-47.57 485.4,-37.18 481.53,-28.27"/>
<polygon fill="#63b8ff" stroke="#63b8ff" points="484.74,-26.87 477.55,-19.09 478.32,-29.66 484.74,-26.87"/>
</a>
</g>
</g>
<!-- Node11 -->
<g id="Node000011" class="node">
<title>Node11</title>
<g id="a_Node000011"><a xlink:title=" ">
<polygon fill="#e0e0e0" stroke="#999999" points="569.32,-19 518.32,-19 518.32,0 569.32,0 569.32,-19"/>
<text text-anchor="middle" x="543.82" y="-7" font-family="Helvetica,sans-Serif" font-size="10.00">errno.h</text>
</a>
</g>
</g>
<!-- Node9&#45;&gt;Node11 -->
<g id="edge13_Node000009_Node000011" class="edge">
<title>Node9&#45;&gt;Node11</title>
<g id="a_edge13_Node000009_Node000011"><a xlink:title=" ">
<path fill="none" stroke="#63b8ff" d="M504.58,-54.75C511.29,-47.18 521.16,-36.05 529.33,-26.84"/>
<polygon fill="#63b8ff" stroke="#63b8ff" points="532.19,-28.89 536.21,-19.09 526.95,-24.25 532.19,-28.89"/>
</a>
</g>
</g>
<!-- Node12 -->
<g id="Node000012" class="node">
<title>Node12</title>
<g id="a_Node000012"><a xlink:title=" ">
<polygon fill="#e0e0e0" stroke="#999999" points="651.82,-19 587.82,-19 587.82,0 651.82,0 651.82,-19"/>
<text text-anchor="middle" x="619.82" y="-7" font-family="Helvetica,sans-Serif" font-size="10.00">sys/stat.h</text>
</a>
</g>
</g>
<!-- Node9&#45;&gt;Node12 -->
<g id="edge14_Node000009_Node000012" class="edge">
<title>Node9&#45;&gt;Node12</title>
<g id="a_edge14_Node000009_Node000012"><a xlink:title=" ">
<path fill="none" stroke="#63b8ff" d="M516.59,-54.98C536.55,-46.38 567.63,-32.99 590.47,-23.15"/>
<polygon fill="#63b8ff" stroke="#63b8ff" points="591.9,-26.34 599.7,-19.17 589.13,-19.91 591.9,-26.34"/>
</a>
</g>
</g>
<!-- Node13 -->
<g id="Node000013" class="node">
<title>Node13</title>
<g id="a_Node000013"><a xlink:title=" ">
<polygon fill="#e0e0e0" stroke="#999999" points="741.82,-19 669.82,-19 669.82,0 741.82,0 741.82,-19"/>
<text text-anchor="middle" x="705.82" y="-7" font-family="Helvetica,sans-Serif" font-size="10.00">sys/types.h</text>
</a>
</g>
</g>
<!-- Node9&#45;&gt;Node13 -->
<g id="edge15_Node000009_Node000013" class="edge">
<title>Node9&#45;&gt;Node13</title>
<g id="a_edge15_Node000009_Node000013"><a xlink:title=" ">
<path fill="none" stroke="#63b8ff" d="M530.4,-54.98C566.18,-45.91 622.94,-31.52 662.16,-21.57"/>
<polygon fill="#63b8ff" stroke="#63b8ff" points="663.15,-24.93 671.98,-19.08 661.43,-18.15 663.15,-24.93"/>
</a>
</g>
</g>
<!-- Node14 -->
<g id="Node000014" class="node">
<title>Node14</title>
<g id="a_Node000014"><a xlink:title=" ">
<polygon fill="#e0e0e0" stroke="#999999" points="819.82,-19 759.82,-19 759.82,0 819.82,0 819.82,-19"/>
<text text-anchor="middle" x="789.82" y="-7" font-family="Helvetica,sans-Serif" font-size="10.00">sys/uio.h</text>
</a>
</g>
</g>
<!-- Node9&#45;&gt;Node14 -->
<g id="edge16_Node000009_Node000014" class="edge">
<title>Node9&#45;&gt;Node14</title>
<g id="a_edge16_Node000009_Node000014"><a xlink:title=" ">
<path fill="none" stroke="#63b8ff" d="M543.28,-55.95C592.2,-47.87 671.7,-34.36 749.63,-19.17"/>
<polygon fill="#63b8ff" stroke="#63b8ff" points="750.48,-22.57 759.62,-17.21 749.13,-15.7 750.48,-22.57"/>
</a>
</g>
</g>
<!-- Node15&#45;&gt;Node6 -->
<g id="edge19_Node000015_Node000006" class="edge">
<title>Node15&#45;&gt;Node6</title>
<g id="a_edge19_Node000015_Node000006"><a xlink:title=" ">
<path fill="none" stroke="#63b8ff" d="M191.17,-54.98C177.99,-46.77 157.8,-34.18 142.25,-24.49"/>
<polygon fill="#63b8ff" stroke="#63b8ff" points="144.07,-21.49 133.73,-19.17 140.36,-27.43 144.07,-21.49"/>
</a>
</g>
</g>
<!-- Node15&#45;&gt;Node7 -->
<g id="edge20_Node000015_Node000007" class="edge">
<title>Node15&#45;&gt;Node7</title>
<g id="a_edge20_Node000015_Node000007"><a xlink:title=" ">
<path fill="none" stroke="#63b8ff" d="M179.44,-54.98C153.03,-46.13 111.48,-32.19 81.93,-22.28"/>
<polygon fill="#63b8ff" stroke="#63b8ff" points="83,-18.94 72.41,-19.08 80.78,-25.58 83,-18.94"/>
</a>
</g>
</g>
<!-- Node16 -->
<g id="Node000016" class="node">
<title>Node16</title>
<g id="a_Node000016"><a xlink:title=" ">
<polygon fill="#e0e0e0" stroke="#999999" points="243.32,-19 166.32,-19 166.32,0 243.32,0 243.32,-19"/>
<text text-anchor="middle" x="204.82" y="-7" font-family="Helvetica,sans-Serif" font-size="10.00">sys/socket.h</text>
</a>
</g>
</g>
<!-- Node15&#45;&gt;Node16 -->
<g id="edge18_Node000015_Node000016" class="edge">
<title>Node15&#45;&gt;Node16</title>
<g id="a_edge18_Node000015_Node000016"><a xlink:title=" ">
<path fill="none" stroke="#63b8ff" d="M204.82,-54.75C204.82,-47.8 204.82,-37.85 204.82,-29.13"/>
<polygon fill="#63b8ff" stroke="#63b8ff" points="208.32,-29.09 204.82,-19.09 201.32,-29.09 208.32,-29.09"/>
</a>
</g>
</g>
</g>
</svg>
