<?xml version="1.0" encoding="UTF-8" standalone="no"?>
<!DOCTYPE svg PUBLIC "-//W3C//DTD SVG 1.1//EN"
 "http://www.w3.org/Graphics/SVG/1.1/DTD/svg11.dtd">
<!-- Generated by graphviz version 2.43.0 (0)
 -->
<!-- Title: src/fs/backend/cred_mint.h Pages: 1 -->
<svg width="333pt" height="170pt"
 viewBox="0.00 0.00 332.50 170.00" xmlns="http://www.w3.org/2000/svg" xmlns:xlink="http://www.w3.org/1999/xlink">

<svg id="main" version="1.1" xmlns="http://www.w3.org/2000/svg" xmlns:xlink="http://www.w3.org/1999/xlink" xml:space="preserve" onload="init(evt)">
<style type="text/css"><![CDATA[
.node, .edge {opacity: 0.7;}
.node.selected, .edge.selected {opacity: 1;}
.edge:hover path { stroke: red; }
.edge:hover polygon { stroke: red; fill: red; }
]]></style>
<script type="application/ecmascript" xlink:href="svg.min.js"/>
<svg id="graph" class="graph">
<g id="graph0" class="graph" transform="scale(1 1) rotate(0) translate(4 166)">
<title>src/fs/backend/cred_mint.h</title>
<!-- Node1 -->
<g id="Node000001" class="node">
<title>Node1</title>
<g id="a_Node000001"><a xlink:title=" ">
<polygon fill="#999999" stroke="#666666" points="193,-162 83,-162 83,-132 193,-132 193,-162"/>
<text text-anchor="start" x="91" y="-150" font-family="Helvetica,sans-Serif" font-size="10.00">src/fs/backend/cred</text>
<text text-anchor="middle" x="138" y="-139" font-family="Helvetica,sans-Serif" font-size="10.00">_mint.h</text>
</a>
</g>
</g>
<!-- Node2 -->
<g id="Node000002" class="node">
<title>Node2</title>
<g id="a_Node000002"><a xlink:href="cred__mint_8c.html" target="_top" xlink:title=" ">
<polygon fill="white" stroke="#666666" points="110,-30 0,-30 0,0 110,0 110,-30"/>
<text text-anchor="start" x="8" y="-18" font-family="Helvetica,sans-Serif" font-size="10.00">src/fs/backend/cred</text>
<text text-anchor="middle" x="55" y="-7" font-family="Helvetica,sans-Serif" font-size="10.00">_mint.c</text>
</a>
</g>
</g>
<!-- Node1&#45;&gt;Node2 -->
<g id="edge1_Node000001_Node000002" class="edge">
<title>Node1&#45;&gt;Node2</title>
<g id="a_edge1_Node000001_Node000002"><a xlink:title=" ">
<path fill="none" stroke="#63b8ff" d="M104.28,-126.25C93.14,-118.18 81.64,-107.92 74,-96 60.9,-75.57 56.82,-47 55.56,-30.1"/>
<polygon fill="#63b8ff" stroke="#63b8ff" points="102.44,-129.23 112.67,-131.98 106.39,-123.45 102.44,-129.23"/>
</a>
</g>
</g>
<!-- Node3 -->
<g id="Node000003" class="node">
<title>Node3</title>
<g id="a_Node000003"><a xlink:href="cred__mint__internal_8h.html" target="_top" xlink:title=" ">
<polygon fill="white" stroke="#666666" points="193,-96 83,-96 83,-66 193,-66 193,-96"/>
<text text-anchor="start" x="91" y="-84" font-family="Helvetica,sans-Serif" font-size="10.00">src/fs/backend/cred</text>
<text text-anchor="middle" x="138" y="-73" font-family="Helvetica,sans-Serif" font-size="10.00">_mint_internal.h</text>
</a>
</g>
</g>
<!-- Node1&#45;&gt;Node3 -->
<g id="edge2_Node000001_Node000003" class="edge">
<title>Node1&#45;&gt;Node3</title>
<g id="a_edge2_Node000001_Node000003"><a xlink:title=" ">
<path fill="none" stroke="#63b8ff" d="M138,-121.54C138,-112.96 138,-103.61 138,-96.16"/>
<polygon fill="#63b8ff" stroke="#63b8ff" points="134.5,-121.8 138,-131.8 141.5,-121.8 134.5,-121.8"/>
</a>
</g>
</g>
<!-- Node5 -->
<g id="Node000005" class="node">
<title>Node5</title>
<g id="a_Node000005"><a xlink:href="vfs__cred_8c.html" target="_top" xlink:title=" ">
<polygon fill="white" stroke="#666666" points="324.5,-90.5 211.5,-90.5 211.5,-71.5 324.5,-71.5 324.5,-90.5"/>
<text text-anchor="middle" x="268" y="-78.5" font-family="Helvetica,sans-Serif" font-size="10.00">src/fs/vfs/vfs_cred.c</text>
</a>
</g>
</g>
<!-- Node1&#45;&gt;Node5 -->
<g id="edge5_Node000001_Node000005" class="edge">
<title>Node1&#45;&gt;Node5</title>
<g id="a_edge5_Node000001_Node000005"><a xlink:title=" ">
<path fill="none" stroke="#63b8ff" d="M175.66,-127.46C200.42,-115.27 231.64,-99.9 250.7,-90.52"/>
<polygon fill="#63b8ff" stroke="#63b8ff" points="173.95,-124.4 166.53,-131.95 177.05,-130.68 173.95,-124.4"/>
</a>
</g>
</g>
<!-- Node3&#45;&gt;Node2 -->
<g id="edge3_Node000003_Node000002" class="edge">
<title>Node3&#45;&gt;Node2</title>
<g id="a_edge3_Node000003_Node000002"><a xlink:title=" ">
<path fill="none" stroke="#63b8ff" d="M111.39,-59.48C98.98,-49.91 84.53,-38.77 73.37,-30.16"/>
<polygon fill="#63b8ff" stroke="#63b8ff" points="109.52,-62.46 119.58,-65.8 113.8,-56.92 109.52,-62.46"/>
</a>
</g>
</g>
<!-- Node4 -->
<g id="Node000004" class="node">
<title>Node4</title>
<g id="a_Node000004"><a xlink:href="cred__mint__cert_8c.html" target="_top" xlink:title=" ">
<polygon fill="white" stroke="#666666" points="238,-30 128,-30 128,0 238,0 238,-30"/>
<text text-anchor="start" x="136" y="-18" font-family="Helvetica,sans-Serif" font-size="10.00">src/fs/backend/cred</text>
<text text-anchor="middle" x="183" y="-7" font-family="Helvetica,sans-Serif" font-size="10.00">_mint_cert.c</text>
</a>
</g>
</g>
<!-- Node3&#45;&gt;Node4 -->
<g id="edge4_Node000003_Node000004" class="edge">
<title>Node3&#45;&gt;Node4</title>
<g id="a_edge4_Node000003_Node000004"><a xlink:title=" ">
<path fill="none" stroke="#63b8ff" d="M153.8,-57.53C160.2,-48.43 167.39,-38.19 173.04,-30.16"/>
<polygon fill="#63b8ff" stroke="#63b8ff" points="150.88,-55.6 147.99,-65.8 156.6,-59.63 150.88,-55.6"/>
</a>
</g>
</g>
</g>
</svg>
</svg>

<style type='text/css'>
<![CDATA[
[data-mouse-over-selected='false'] { opacity: 0.7; }
[data-mouse-over-selected='true']  { opacity: 1.0; }
]]>
</style>
<script type="application/ecmascript"><![CDATA[
document.addEventListener('DOMContentLoaded', (event) => {
  highlightEdges();
  highlightAdjacentNodes();
});
]]></script>
</svg>
