<?xml version="1.0" encoding="UTF-8" standalone="no"?>
<!DOCTYPE svg PUBLIC "-//W3C//DTD SVG 1.1//EN"
 "http://www.w3.org/Graphics/SVG/1.1/DTD/svg11.dtd">
<!-- Generated by graphviz version 2.43.0 (0)
 -->
<!-- Title: src/fs/backend/cred_mint.c Pages: 1 -->
<svg width="1154pt" height="203pt"
 viewBox="0.00 0.00 1154.00 203.00" xmlns="http://www.w3.org/2000/svg" xmlns:xlink="http://www.w3.org/1999/xlink">
<g id="graph0" class="graph" transform="scale(1 1) rotate(0) translate(4 199)">
<title>src/fs/backend/cred_mint.c</title>
<!-- Node1 -->
<g id="Node000001" class="node">
<title>Node1</title>
<g id="a_Node000001"><a xlink:title=" ">
<polygon fill="#999999" stroke="#666666" points="573,-195 463,-195 463,-165 573,-165 573,-195"/>
<text text-anchor="start" x="471" y="-183" font-family="Helvetica,sans-Serif" font-size="10.00">src/fs/backend/cred</text>
<text text-anchor="middle" x="518" y="-172" font-family="Helvetica,sans-Serif" font-size="10.00">_mint.c</text>
</a>
</g>
</g>
<!-- Node2 -->
<g id="Node000002" class="node">
<title>Node2</title>
<g id="a_Node000002"><a xlink:href="cred__mint_8h.html" target="_top" xlink:title=" ">
<polygon fill="white" stroke="#666666" points="122,-74 48,-74 48,-55 122,-55 122,-74"/>
<text text-anchor="middle" x="85" y="-62" font-family="Helvetica,sans-Serif" font-size="10.00">cred_mint.h</text>
</a>
</g>
</g>
<!-- Node1&#45;&gt;Node2 -->
<g id="edge1_Node000001_Node000002" class="edge">
<title>Node1&#45;&gt;Node2</title>
<g id="a_edge1_Node000001_Node000002"><a xlink:title=" ">
<path fill="none" stroke="#63b8ff" d="M462.89,-179.77C362.38,-180 154.76,-174.75 102,-129 89.35,-118.03 85.61,-98.76 84.73,-84.32"/>
<polygon fill="#63b8ff" stroke="#63b8ff" points="88.23,-83.95 84.52,-74.03 81.23,-84.1 88.23,-83.95"/>
</a>
</g>
</g>
<!-- Node5 -->
<g id="Node000005" class="node">
<title>Node5</title>
<g id="a_Node000005"><a xlink:href="cred__mint__internal_8h.html" target="_top" xlink:title=" ">
<polygon fill="white" stroke="#666666" points="228.5,-129 111.5,-129 111.5,-110 228.5,-110 228.5,-129"/>
<text text-anchor="middle" x="170" y="-117" font-family="Helvetica,sans-Serif" font-size="10.00">cred_mint_internal.h</text>
</a>
</g>
</g>
<!-- Node1&#45;&gt;Node5 -->
<g id="edge4_Node000001_Node000005" class="edge">
<title>Node1&#45;&gt;Node5</title>
<g id="a_edge4_Node000001_Node000005"><a xlink:title=" ">
<path fill="none" stroke="#63b8ff" d="M462.86,-169.73C399.64,-159.1 296.33,-141.74 230.82,-130.72"/>
<polygon fill="#63b8ff" stroke="#63b8ff" points="231.08,-127.22 220.64,-129.01 229.92,-134.12 231.08,-127.22"/>
</a>
</g>
</g>
<!-- Node6 -->
<g id="Node000006" class="node">
<title>Node6</title>
<g id="a_Node000006"><a xlink:title=" ">
<polygon fill="#e0e0e0" stroke="#999999" points="226,-74 142,-74 142,-55 226,-55 226,-74"/>
<text text-anchor="middle" x="184" y="-62" font-family="Helvetica,sans-Serif" font-size="10.00">openssl/evp.h</text>
</a>
</g>
</g>
<!-- Node1&#45;&gt;Node6 -->
<g id="edge18_Node000001_Node000006" class="edge">
<title>Node1&#45;&gt;Node6</title>
<g id="a_edge18_Node000001_Node000006"><a xlink:title=" ">
<path fill="none" stroke="#63b8ff" d="M462.93,-170.96C417.64,-163.3 352.32,-149.81 298,-129 263.94,-115.95 227.63,-94.2 205.37,-79.85"/>
<polygon fill="#63b8ff" stroke="#63b8ff" points="207.03,-76.75 196.74,-74.2 203.19,-82.61 207.03,-76.75"/>
</a>
</g>
</g>
<!-- Node7 -->
<g id="Node000007" class="node">
<title>Node7</title>
<g id="a_Node000007"><a xlink:title=" ">
<polygon fill="#e0e0e0" stroke="#999999" points="335,-74 245,-74 245,-55 335,-55 335,-74"/>
<text text-anchor="middle" x="290" y="-62" font-family="Helvetica,sans-Serif" font-size="10.00">openssl/x509.h</text>
</a>
</g>
</g>
<!-- Node1&#45;&gt;Node7 -->
<g id="edge21_Node000001_Node000007" class="edge">
<title>Node1&#45;&gt;Node7</title>
<g id="a_edge21_Node000001_Node000007"><a xlink:title=" ">
<path fill="none" stroke="#63b8ff" d="M462.65,-179.01C417.53,-176.13 354.81,-165.15 314,-129 301.19,-117.65 295.19,-98.75 292.4,-84.52"/>
<polygon fill="#63b8ff" stroke="#63b8ff" points="295.8,-83.66 290.78,-74.33 288.89,-84.76 295.8,-83.66"/>
</a>
</g>
</g>
<!-- Node8 -->
<g id="Node000008" class="node">
<title>Node8</title>
<g id="a_Node000008"><a xlink:title=" ">
<polygon fill="#e0e0e0" stroke="#999999" points="374.5,-129 323.5,-129 323.5,-110 374.5,-110 374.5,-129"/>
<text text-anchor="middle" x="349" y="-117" font-family="Helvetica,sans-Serif" font-size="10.00">errno.h</text>
</a>
</g>
</g>
<!-- Node1&#45;&gt;Node8 -->
<g id="edge8_Node000001_Node000008" class="edge">
<title>Node1&#45;&gt;Node8</title>
<g id="a_edge8_Node000001_Node000008"><a xlink:title=" ">
<path fill="none" stroke="#63b8ff" d="M477.52,-164.99C448.82,-155.05 410.72,-141.86 383.47,-132.43"/>
<polygon fill="#63b8ff" stroke="#63b8ff" points="384.55,-129.1 373.96,-129.14 382.26,-135.72 384.55,-129.1"/>
</a>
</g>
</g>
<!-- Node9 -->
<g id="Node000009" class="node">
<title>Node9</title>
<g id="a_Node000009"><a xlink:title=" ">
<polygon fill="#e0e0e0" stroke="#999999" points="439.5,-129 392.5,-129 392.5,-110 439.5,-110 439.5,-129"/>
<text text-anchor="middle" x="416" y="-117" font-family="Helvetica,sans-Serif" font-size="10.00">fcntl.h</text>
</a>
</g>
</g>
<!-- Node1&#45;&gt;Node9 -->
<g id="edge9_Node000001_Node000009" class="edge">
<title>Node1&#45;&gt;Node9</title>
<g id="a_edge9_Node000001_Node000009"><a xlink:title=" ">
<path fill="none" stroke="#63b8ff" d="M493.57,-164.99C477.31,-155.66 456.05,-143.47 439.9,-134.21"/>
<polygon fill="#63b8ff" stroke="#63b8ff" points="441.48,-131.08 431.06,-129.14 438,-137.15 441.48,-131.08"/>
</a>
</g>
</g>
<!-- Node10 -->
<g id="Node000010" class="node">
<title>Node10</title>
<g id="a_Node000010"><a xlink:title=" ">
<polygon fill="#e0e0e0" stroke="#999999" points="508,-129 458,-129 458,-110 508,-110 508,-129"/>
<text text-anchor="middle" x="483" y="-117" font-family="Helvetica,sans-Serif" font-size="10.00">stdio.h</text>
</a>
</g>
</g>
<!-- Node1&#45;&gt;Node10 -->
<g id="edge10_Node000001_Node000010" class="edge">
<title>Node1&#45;&gt;Node10</title>
<g id="a_edge10_Node000001_Node000010"><a xlink:title=" ">
<path fill="none" stroke="#63b8ff" d="M509.53,-164.84C504.71,-156.78 498.63,-146.62 493.5,-138.06"/>
<polygon fill="#63b8ff" stroke="#63b8ff" points="496.38,-136.05 488.24,-129.27 490.38,-139.64 496.38,-136.05"/>
</a>
</g>
</g>
<!-- Node11 -->
<g id="Node000011" class="node">
<title>Node11</title>
<g id="a_Node000011"><a xlink:title=" ">
<polygon fill="#e0e0e0" stroke="#999999" points="579.5,-129 526.5,-129 526.5,-110 579.5,-110 579.5,-129"/>
<text text-anchor="middle" x="553" y="-117" font-family="Helvetica,sans-Serif" font-size="10.00">string.h</text>
</a>
</g>
</g>
<!-- Node1&#45;&gt;Node11 -->
<g id="edge11_Node000001_Node000011" class="edge">
<title>Node1&#45;&gt;Node11</title>
<g id="a_edge11_Node000001_Node000011"><a xlink:title=" ">
<path fill="none" stroke="#63b8ff" d="M526.47,-164.84C531.29,-156.78 537.37,-146.62 542.5,-138.06"/>
<polygon fill="#63b8ff" stroke="#63b8ff" points="545.62,-139.64 547.76,-129.27 539.62,-136.05 545.62,-139.64"/>
</a>
</g>
</g>
<!-- Node12 -->
<g id="Node000012" class="node">
<title>Node12</title>
<g id="a_Node000012"><a xlink:href="time_8h.html" target="_top" xlink:title=" ">
<polygon fill="white" stroke="#666666" points="646,-129 598,-129 598,-110 646,-110 646,-129"/>
<text text-anchor="middle" x="622" y="-117" font-family="Helvetica,sans-Serif" font-size="10.00">time.h</text>
</a>
</g>
</g>
<!-- Node1&#45;&gt;Node12 -->
<g id="edge12_Node000001_Node000012" class="edge">
<title>Node1&#45;&gt;Node12</title>
<g id="a_edge12_Node000001_Node000012"><a xlink:title=" ">
<path fill="none" stroke="#63b8ff" d="M542.91,-164.99C559.49,-155.66 581.16,-143.47 597.63,-134.21"/>
<polygon fill="#63b8ff" stroke="#63b8ff" points="599.64,-137.09 606.64,-129.14 596.21,-130.99 599.64,-137.09"/>
</a>
</g>
</g>
<!-- Node14 -->
<g id="Node000014" class="node">
<title>Node14</title>
<g id="a_Node000014"><a xlink:title=" ">
<polygon fill="#e0e0e0" stroke="#999999" points="738,-129 682,-129 682,-110 738,-110 738,-129"/>
<text text-anchor="middle" x="710" y="-117" font-family="Helvetica,sans-Serif" font-size="10.00">unistd.h</text>
</a>
</g>
</g>
<!-- Node1&#45;&gt;Node14 -->
<g id="edge15_Node000001_Node000014" class="edge">
<title>Node1&#45;&gt;Node14</title>
<g id="a_edge15_Node000001_Node000014"><a xlink:title=" ">
<path fill="none" stroke="#63b8ff" d="M563.99,-164.99C597.12,-154.89 641.29,-141.44 672.34,-131.98"/>
<polygon fill="#63b8ff" stroke="#63b8ff" points="673.38,-135.32 681.93,-129.05 671.34,-128.62 673.38,-135.32"/>
</a>
</g>
</g>
<!-- Node15 -->
<g id="Node000015" class="node">
<title>Node15</title>
<g id="a_Node000015"><a xlink:title=" ">
<polygon fill="#e0e0e0" stroke="#999999" points="837.5,-129 756.5,-129 756.5,-110 837.5,-110 837.5,-129"/>
<text text-anchor="middle" x="797" y="-117" font-family="Helvetica,sans-Serif" font-size="10.00">openssl/bio.h</text>
</a>
</g>
</g>
<!-- Node1&#45;&gt;Node15 -->
<g id="edge16_Node000001_Node000015" class="edge">
<title>Node1&#45;&gt;Node15</title>
<g id="a_edge16_Node000001_Node000015"><a xlink:title=" ">
<path fill="none" stroke="#63b8ff" d="M573.12,-167.44C623.53,-156.87 697.48,-141.37 746.42,-131.11"/>
<polygon fill="#63b8ff" stroke="#63b8ff" points="747.39,-134.48 756.46,-129 745.95,-127.63 747.39,-134.48"/>
</a>
</g>
</g>
<!-- Node16 -->
<g id="Node000016" class="node">
<title>Node16</title>
<g id="a_Node000016"><a xlink:title=" ">
<polygon fill="#e0e0e0" stroke="#999999" points="934,-129 856,-129 856,-110 934,-110 934,-129"/>
<text text-anchor="middle" x="895" y="-117" font-family="Helvetica,sans-Serif" font-size="10.00">openssl/bn.h</text>
</a>
</g>
</g>
<!-- Node1&#45;&gt;Node16 -->
<g id="edge17_Node000001_Node000016" class="edge">
<title>Node1&#45;&gt;Node16</title>
<g id="a_edge17_Node000001_Node000016"><a xlink:title=" ">
<path fill="none" stroke="#63b8ff" d="M573.08,-171.05C636.43,-161.81 743.82,-145.86 846.1,-129.11"/>
<polygon fill="#63b8ff" stroke="#63b8ff" points="846.68,-132.57 855.98,-127.49 845.55,-125.66 846.68,-132.57"/>
</a>
</g>
</g>
<!-- Node17 -->
<g id="Node000017" class="node">
<title>Node17</title>
<g id="a_Node000017"><a xlink:title=" ">
<polygon fill="#e0e0e0" stroke="#999999" points="1040,-129 952,-129 952,-110 1040,-110 1040,-129"/>
<text text-anchor="middle" x="996" y="-117" font-family="Helvetica,sans-Serif" font-size="10.00">openssl/pem.h</text>
</a>
</g>
</g>
<!-- Node1&#45;&gt;Node17 -->
<g id="edge19_Node000001_Node000017" class="edge">
<title>Node1&#45;&gt;Node17</title>
<g id="a_edge19_Node000001_Node000017"><a xlink:title=" ">
<path fill="none" stroke="#63b8ff" d="M573.11,-173.26C652.34,-164.85 803.26,-148.21 941.82,-129.11"/>
<polygon fill="#63b8ff" stroke="#63b8ff" points="942.35,-132.57 951.77,-127.73 941.39,-125.64 942.35,-132.57"/>
</a>
</g>
</g>
<!-- Node18 -->
<g id="Node000018" class="node">
<title>Node18</title>
<g id="a_Node000018"><a xlink:title=" ">
<polygon fill="#e0e0e0" stroke="#999999" points="1146,-129 1058,-129 1058,-110 1146,-110 1146,-129"/>
<text text-anchor="middle" x="1102" y="-117" font-family="Helvetica,sans-Serif" font-size="10.00">openssl/rand.h</text>
</a>
</g>
</g>
<!-- Node1&#45;&gt;Node18 -->
<g id="edge20_Node000001_Node000018" class="edge">
<title>Node1&#45;&gt;Node18</title>
<g id="a_edge20_Node000001_Node000018"><a xlink:title=" ">
<path fill="none" stroke="#63b8ff" d="M573.17,-175C668,-167.85 868.24,-151.63 1047.63,-129.1"/>
<polygon fill="#63b8ff" stroke="#63b8ff" points="1048.3,-132.54 1057.78,-127.81 1047.42,-125.6 1048.3,-132.54"/>
</a>
</g>
</g>
<!-- Node3 -->
<g id="Node000003" class="node">
<title>Node3</title>
<g id="a_Node000003"><a xlink:title=" ">
<polygon fill="#e0e0e0" stroke="#999999" points="78,-19 0,-19 0,0 78,0 78,-19"/>
<text text-anchor="middle" x="39" y="-7" font-family="Helvetica,sans-Serif" font-size="10.00">ngx_config.h</text>
</a>
</g>
</g>
<!-- Node2&#45;&gt;Node3 -->
<g id="edge2_Node000002_Node000003" class="edge">
<title>Node2&#45;&gt;Node3</title>
<g id="a_edge2_Node000002_Node000003"><a xlink:title=" ">
<path fill="none" stroke="#63b8ff" d="M77.4,-54.75C70.84,-47.18 61.18,-36.05 53.19,-26.84"/>
<polygon fill="#63b8ff" stroke="#63b8ff" points="55.65,-24.35 46.45,-19.09 50.37,-28.94 55.65,-24.35"/>
</a>
</g>
</g>
<!-- Node4 -->
<g id="Node000004" class="node">
<title>Node4</title>
<g id="a_Node000004"><a xlink:title=" ">
<polygon fill="#e0e0e0" stroke="#999999" points="166,-19 96,-19 96,0 166,0 166,-19"/>
<text text-anchor="middle" x="131" y="-7" font-family="Helvetica,sans-Serif" font-size="10.00">ngx_core.h</text>
</a>
</g>
</g>
<!-- Node2&#45;&gt;Node4 -->
<g id="edge3_Node000002_Node000004" class="edge">
<title>Node2&#45;&gt;Node4</title>
<g id="a_edge3_Node000002_Node000004"><a xlink:title=" ">
<path fill="none" stroke="#63b8ff" d="M92.6,-54.75C99.16,-47.18 108.82,-36.05 116.81,-26.84"/>
<polygon fill="#63b8ff" stroke="#63b8ff" points="119.63,-28.94 123.55,-19.09 114.35,-24.35 119.63,-28.94"/>
</a>
</g>
</g>
<!-- Node5&#45;&gt;Node2 -->
<g id="edge5_Node000005_Node000002" class="edge">
<title>Node5&#45;&gt;Node2</title>
<g id="a_edge5_Node000005_Node000002"><a xlink:title=" ">
<path fill="none" stroke="#63b8ff" d="M156.34,-109.98C143.16,-101.77 122.97,-89.18 107.43,-79.49"/>
<polygon fill="#63b8ff" stroke="#63b8ff" points="109.24,-76.49 98.91,-74.17 105.54,-82.43 109.24,-76.49"/>
</a>
</g>
</g>
<!-- Node5&#45;&gt;Node6 -->
<g id="edge6_Node000005_Node000006" class="edge">
<title>Node5&#45;&gt;Node6</title>
<g id="a_edge6_Node000005_Node000006"><a xlink:title=" ">
<path fill="none" stroke="#63b8ff" d="M172.31,-109.75C174.17,-102.72 176.84,-92.62 179.15,-83.84"/>
<polygon fill="#63b8ff" stroke="#63b8ff" points="182.56,-84.65 181.73,-74.09 175.79,-82.86 182.56,-84.65"/>
</a>
</g>
</g>
<!-- Node5&#45;&gt;Node7 -->
<g id="edge7_Node000005_Node000007" class="edge">
<title>Node5&#45;&gt;Node7</title>
<g id="a_edge7_Node000005_Node000007"><a xlink:title=" ">
<path fill="none" stroke="#63b8ff" d="M189.28,-109.98C208.67,-101.42 238.81,-88.11 261.07,-78.28"/>
<polygon fill="#63b8ff" stroke="#63b8ff" points="262.64,-81.41 270.37,-74.17 259.81,-75.01 262.64,-81.41"/>
</a>
</g>
</g>
<!-- Node12&#45;&gt;Node12 -->
<g id="edge14_Node000012_Node000012" class="edge">
<title>Node12&#45;&gt;Node12</title>
<g id="a_edge14_Node000012_Node000012"><a xlink:title=" ">
<path fill="none" stroke="#63b8ff" d="M641.88,-129.07C653.33,-131.02 664,-127.83 664,-119.5 664,-113.77 658.96,-110.47 652.08,-109.61"/>
<polygon fill="#63b8ff" stroke="#63b8ff" points="651.76,-106.12 641.88,-109.93 651.98,-113.11 651.76,-106.12"/>
</a>
</g>
</g>
<!-- Node13 -->
<g id="Node000013" class="node">
<title>Node13</title>
<g id="a_Node000013"><a xlink:title=" ">
<polygon fill="#e0e0e0" stroke="#999999" points="650,-74 594,-74 594,-55 650,-55 650,-74"/>
<text text-anchor="middle" x="622" y="-62" font-family="Helvetica,sans-Serif" font-size="10.00">stddef.h</text>
</a>
</g>
</g>
<!-- Node12&#45;&gt;Node13 -->
<g id="edge13_Node000012_Node000013" class="edge">
<title>Node12&#45;&gt;Node13</title>
<g id="a_edge13_Node000012_Node000013"><a xlink:title=" ">
<path fill="none" stroke="#63b8ff" d="M622,-109.75C622,-102.8 622,-92.85 622,-84.13"/>
<polygon fill="#63b8ff" stroke="#63b8ff" points="625.5,-84.09 622,-74.09 618.5,-84.09 625.5,-84.09"/>
</a>
</g>
</g>
</g>
</svg>
