<?xml version="1.0" encoding="UTF-8" standalone="no"?>
<!DOCTYPE svg PUBLIC "-//W3C//DTD SVG 1.1//EN"
 "http://www.w3.org/Graphics/SVG/1.1/DTD/svg11.dtd">
<!-- Generated by graphviz version 2.43.0 (0)
 -->
<!-- Title: src/core/compat/cred_stage.c Pages: 1 -->
<svg width="614pt" height="148pt"
 viewBox="0.00 0.00 613.50 148.00" xmlns="http://www.w3.org/2000/svg" xmlns:xlink="http://www.w3.org/1999/xlink">
<g id="graph0" class="graph" transform="scale(1 1) rotate(0) translate(4 144)">
<title>src/core/compat/cred_stage.c</title>
<!-- Node1 -->
<g id="Node000001" class="node">
<title>Node1</title>
<g id="a_Node000001"><a xlink:title=" ">
<polygon fill="#999999" stroke="#666666" points="356,-140 237,-140 237,-110 356,-110 356,-140"/>
<text text-anchor="start" x="245" y="-128" font-family="Helvetica,sans-Serif" font-size="10.00">src/core/compat/cred</text>
<text text-anchor="middle" x="296.5" y="-117" font-family="Helvetica,sans-Serif" font-size="10.00">_stage.c</text>
</a>
</g>
</g>
<!-- Node2 -->
<g id="Node000002" class="node">
<title>Node2</title>
<g id="a_Node000002"><a xlink:href="cred__stage_8h.html" target="_top" xlink:title=" ">
<polygon fill="white" stroke="#666666" points="79,-74 0,-74 0,-55 79,-55 79,-74"/>
<text text-anchor="middle" x="39.5" y="-62" font-family="Helvetica,sans-Serif" font-size="10.00">cred_stage.h</text>
</a>
</g>
</g>
<!-- Node1&#45;&gt;Node2 -->
<g id="edge1_Node000001_Node000002" class="edge">
<title>Node1&#45;&gt;Node2</title>
<g id="a_edge1_Node000001_Node000002"><a xlink:title=" ">
<path fill="none" stroke="#63b8ff" d="M236.89,-110.43C191.18,-100.03 128.95,-85.86 86.67,-76.24"/>
<polygon fill="#63b8ff" stroke="#63b8ff" points="87.43,-72.82 76.9,-74.01 85.88,-79.65 87.43,-72.82"/>
</a>
</g>
</g>
<!-- Node4 -->
<g id="Node000004" class="node">
<title>Node4</title>
<g id="a_Node000004"><a xlink:title=" ">
<polygon fill="#e0e0e0" stroke="#999999" points="148,-74 97,-74 97,-55 148,-55 148,-74"/>
<text text-anchor="middle" x="122.5" y="-62" font-family="Helvetica,sans-Serif" font-size="10.00">errno.h</text>
</a>
</g>
</g>
<!-- Node1&#45;&gt;Node4 -->
<g id="edge3_Node000001_Node000004" class="edge">
<title>Node1&#45;&gt;Node4</title>
<g id="a_edge3_Node000001_Node000004"><a xlink:title=" ">
<path fill="none" stroke="#63b8ff" d="M254.82,-109.99C225.18,-100.02 185.81,-86.78 157.73,-77.35"/>
<polygon fill="#63b8ff" stroke="#63b8ff" points="158.54,-73.92 147.94,-74.05 156.3,-80.56 158.54,-73.92"/>
</a>
</g>
</g>
<!-- Node5 -->
<g id="Node000005" class="node">
<title>Node5</title>
<g id="a_Node000005"><a xlink:title=" ">
<polygon fill="#e0e0e0" stroke="#999999" points="216.5,-74 166.5,-74 166.5,-55 216.5,-55 216.5,-74"/>
<text text-anchor="middle" x="191.5" y="-62" font-family="Helvetica,sans-Serif" font-size="10.00">stdio.h</text>
</a>
</g>
</g>
<!-- Node1&#45;&gt;Node5 -->
<g id="edge4_Node000001_Node000005" class="edge">
<title>Node1&#45;&gt;Node5</title>
<g id="a_edge4_Node000001_Node000005"><a xlink:title=" ">
<path fill="none" stroke="#63b8ff" d="M271.35,-109.99C254.61,-100.66 232.73,-88.47 216.11,-79.21"/>
<polygon fill="#63b8ff" stroke="#63b8ff" points="217.45,-75.95 207.01,-74.14 214.04,-82.06 217.45,-75.95"/>
</a>
</g>
</g>
<!-- Node6 -->
<g id="Node000006" class="node">
<title>Node6</title>
<g id="a_Node000006"><a xlink:title=" ">
<polygon fill="#e0e0e0" stroke="#999999" points="288,-74 235,-74 235,-55 288,-55 288,-74"/>
<text text-anchor="middle" x="261.5" y="-62" font-family="Helvetica,sans-Serif" font-size="10.00">stdlib.h</text>
</a>
</g>
</g>
<!-- Node1&#45;&gt;Node6 -->
<g id="edge5_Node000001_Node000006" class="edge">
<title>Node1&#45;&gt;Node6</title>
<g id="a_edge5_Node000001_Node000006"><a xlink:title=" ">
<path fill="none" stroke="#63b8ff" d="M288.03,-109.84C283.21,-101.78 277.13,-91.62 272,-83.06"/>
<polygon fill="#63b8ff" stroke="#63b8ff" points="274.88,-81.05 266.74,-74.27 268.88,-84.64 274.88,-81.05"/>
</a>
</g>
</g>
<!-- Node7 -->
<g id="Node000007" class="node">
<title>Node7</title>
<g id="a_Node000007"><a xlink:title=" ">
<polygon fill="#e0e0e0" stroke="#999999" points="359,-74 306,-74 306,-55 359,-55 359,-74"/>
<text text-anchor="middle" x="332.5" y="-62" font-family="Helvetica,sans-Serif" font-size="10.00">string.h</text>
</a>
</g>
</g>
<!-- Node1&#45;&gt;Node7 -->
<g id="edge6_Node000001_Node000007" class="edge">
<title>Node1&#45;&gt;Node7</title>
<g id="a_edge6_Node000001_Node000007"><a xlink:title=" ">
<path fill="none" stroke="#63b8ff" d="M305.21,-109.84C310.17,-101.78 316.43,-91.62 321.7,-83.06"/>
<polygon fill="#63b8ff" stroke="#63b8ff" points="324.85,-84.62 327.11,-74.27 318.88,-80.95 324.85,-84.62"/>
</a>
</g>
</g>
<!-- Node8 -->
<g id="Node000008" class="node">
<title>Node8</title>
<g id="a_Node000008"><a xlink:title=" ">
<polygon fill="#e0e0e0" stroke="#999999" points="433.5,-74 377.5,-74 377.5,-55 433.5,-55 433.5,-74"/>
<text text-anchor="middle" x="405.5" y="-62" font-family="Helvetica,sans-Serif" font-size="10.00">unistd.h</text>
</a>
</g>
</g>
<!-- Node1&#45;&gt;Node8 -->
<g id="edge7_Node000001_Node000008" class="edge">
<title>Node1&#45;&gt;Node8</title>
<g id="a_edge7_Node000001_Node000008"><a xlink:title=" ">
<path fill="none" stroke="#63b8ff" d="M322.61,-109.99C340.14,-100.58 363.12,-88.24 380.44,-78.95"/>
<polygon fill="#63b8ff" stroke="#63b8ff" points="382.25,-81.95 389.4,-74.14 378.94,-75.78 382.25,-81.95"/>
</a>
</g>
</g>
<!-- Node9 -->
<g id="Node000009" class="node">
<title>Node9</title>
<g id="a_Node000009"><a xlink:title=" ">
<polygon fill="#e0e0e0" stroke="#999999" points="523.5,-74 451.5,-74 451.5,-55 523.5,-55 523.5,-74"/>
<text text-anchor="middle" x="487.5" y="-62" font-family="Helvetica,sans-Serif" font-size="10.00">sys/types.h</text>
</a>
</g>
</g>
<!-- Node1&#45;&gt;Node9 -->
<g id="edge8_Node000001_Node000009" class="edge">
<title>Node1&#45;&gt;Node9</title>
<g id="a_edge8_Node000001_Node000009"><a xlink:title=" ">
<path fill="none" stroke="#63b8ff" d="M342.25,-109.99C375.07,-99.94 418.77,-86.55 449.63,-77.1"/>
<polygon fill="#63b8ff" stroke="#63b8ff" points="451.04,-80.33 459.57,-74.05 448.99,-73.64 451.04,-80.33"/>
</a>
</g>
</g>
<!-- Node10 -->
<g id="Node000010" class="node">
<title>Node10</title>
<g id="a_Node000010"><a xlink:title=" ">
<polygon fill="#e0e0e0" stroke="#999999" points="605.5,-74 541.5,-74 541.5,-55 605.5,-55 605.5,-74"/>
<text text-anchor="middle" x="573.5" y="-62" font-family="Helvetica,sans-Serif" font-size="10.00">sys/stat.h</text>
</a>
</g>
</g>
<!-- Node1&#45;&gt;Node10 -->
<g id="edge9_Node000001_Node000010" class="edge">
<title>Node1&#45;&gt;Node10</title>
<g id="a_edge9_Node000001_Node000010"><a xlink:title=" ">
<path fill="none" stroke="#63b8ff" d="M356.26,-111.38C409.05,-100.23 484.69,-84.26 531.37,-74.4"/>
<polygon fill="#63b8ff" stroke="#63b8ff" points="532.38,-77.76 541.44,-72.27 530.93,-70.91 532.38,-77.76"/>
</a>
</g>
</g>
<!-- Node3 -->
<g id="Node000003" class="node">
<title>Node3</title>
<g id="a_Node000003"><a xlink:title=" ">
<polygon fill="#e0e0e0" stroke="#999999" points="67.5,-19 11.5,-19 11.5,0 67.5,0 67.5,-19"/>
<text text-anchor="middle" x="39.5" y="-7" font-family="Helvetica,sans-Serif" font-size="10.00">stddef.h</text>
</a>
</g>
</g>
<!-- Node2&#45;&gt;Node3 -->
<g id="edge2_Node000002_Node000003" class="edge">
<title>Node2&#45;&gt;Node3</title>
<g id="a_edge2_Node000002_Node000003"><a xlink:title=" ">
<path fill="none" stroke="#63b8ff" d="M39.5,-54.75C39.5,-47.8 39.5,-37.85 39.5,-29.13"/>
<polygon fill="#63b8ff" stroke="#63b8ff" points="43,-29.09 39.5,-19.09 36,-29.09 43,-29.09"/>
</a>
</g>
</g>
</g>
</svg>
