<?xml version="1.0" encoding="UTF-8" standalone="no"?>
<!DOCTYPE svg PUBLIC "-//W3C//DTD SVG 1.1//EN"
 "http://www.w3.org/Graphics/SVG/1.1/DTD/svg11.dtd">
<!-- Generated by graphviz version 2.43.0 (0)
 -->
<!-- Title: src/core/config/credential_block.c Pages: 1 -->
<svg width="924pt" height="269pt"
 viewBox="0.00 0.00 923.82 269.00" xmlns="http://www.w3.org/2000/svg" xmlns:xlink="http://www.w3.org/1999/xlink">
<g id="graph0" class="graph" transform="scale(1 1) rotate(0) translate(4 265)">
<title>src/core/config/credential_block.c</title>
<!-- Node1 -->
<g id="Node000001" class="node">
<title>Node1</title>
<g id="a_Node000001"><a xlink:title=" ">
<polygon fill="#999999" stroke="#666666" points="449.32,-261 310.32,-261 310.32,-231 449.32,-231 449.32,-261"/>
<text text-anchor="start" x="318.32" y="-249" font-family="Helvetica,sans-Serif" font-size="10.00">src/core/config/credential</text>
<text text-anchor="middle" x="379.82" y="-238" font-family="Helvetica,sans-Serif" font-size="10.00">_block.c</text>
</a>
</g>
</g>
<!-- Node2 -->
<g id="Node000002" class="node">
<title>Node2</title>
<g id="a_Node000002"><a xlink:href="credential__block_8h.html" target="_top" xlink:title=" ">
<polygon fill="white" stroke="#666666" points="432.82,-129 326.82,-129 326.82,-110 432.82,-110 432.82,-129"/>
<text text-anchor="middle" x="379.82" y="-117" font-family="Helvetica,sans-Serif" font-size="10.00">credential_block.h</text>
</a>
</g>
</g>
<!-- Node1&#45;&gt;Node2 -->
<g id="edge1_Node000001_Node000002" class="edge">
<title>Node1&#45;&gt;Node2</title>
<g id="a_edge1_Node000001_Node000002"><a xlink:title=" ">
<path fill="none" stroke="#63b8ff" d="M379.82,-230.72C379.82,-208.12 379.82,-164.12 379.82,-139.09"/>
<polygon fill="#63b8ff" stroke="#63b8ff" points="383.32,-139.07 379.82,-129.07 376.32,-139.07 383.32,-139.07"/>
</a>
</g>
</g>
<!-- Node5 -->
<g id="Node000005" class="node">
<title>Node5</title>
<g id="a_Node000005"><a xlink:href="cstr_8h.html" target="_top" xlink:title=" ">
<polygon fill="white" stroke="#666666" points="120.32,-129 13.32,-129 13.32,-110 120.32,-110 120.32,-129"/>
<text text-anchor="middle" x="66.82" y="-117" font-family="Helvetica,sans-Serif" font-size="10.00">core/compat/cstr.h</text>
</a>
</g>
</g>
<!-- Node1&#45;&gt;Node5 -->
<g id="edge4_Node000001_Node000005" class="edge">
<title>Node1&#45;&gt;Node5</title>
<g id="a_edge4_Node000001_Node000005"><a xlink:title=" ">
<path fill="none" stroke="#63b8ff" d="M336.01,-230.97C307.06,-221.44 268.4,-208.21 234.82,-195 184.5,-175.21 127.18,-148.97 94.18,-133.5"/>
<polygon fill="#63b8ff" stroke="#63b8ff" points="95.3,-130.15 84.76,-129.06 92.31,-136.49 95.3,-130.15"/>
</a>
</g>
</g>
<!-- Node7 -->
<g id="Node000007" class="node">
<title>Node7</title>
<g id="a_Node000007"><a xlink:title=" ">
<polygon fill="#e0e0e0" stroke="#999999" points="73.32,-74 20.32,-74 20.32,-55 73.32,-55 73.32,-74"/>
<text text-anchor="middle" x="46.82" y="-62" font-family="Helvetica,sans-Serif" font-size="10.00">string.h</text>
</a>
</g>
</g>
<!-- Node1&#45;&gt;Node7 -->
<g id="edge29_Node000001_Node000007" class="edge">
<title>Node1&#45;&gt;Node7</title>
<g id="a_edge29_Node000001_Node000007"><a xlink:title=" ">
<path fill="none" stroke="#63b8ff" d="M309.92,-234.07C210.9,-216.93 38,-180.31 3.82,-129 -7.36,-112.2 9.77,-93.04 25.61,-80.19"/>
<polygon fill="#63b8ff" stroke="#63b8ff" points="27.78,-82.94 33.62,-74.1 23.54,-77.37 27.78,-82.94"/>
</a>
</g>
</g>
<!-- Node8 -->
<g id="Node000008" class="node">
<title>Node8</title>
<g id="a_Node000008"><a xlink:href="vfs__backend__registry_8h.html" target="_top" xlink:title=" ">
<polygon fill="white" stroke="#666666" points="351.32,-195 244.32,-195 244.32,-165 351.32,-165 351.32,-195"/>
<text text-anchor="start" x="252.32" y="-183" font-family="Helvetica,sans-Serif" font-size="10.00">fs/vfs/vfs_backend</text>
<text text-anchor="middle" x="297.82" y="-172" font-family="Helvetica,sans-Serif" font-size="10.00">_registry.h</text>
</a>
</g>
</g>
<!-- Node1&#45;&gt;Node8 -->
<g id="edge7_Node000001_Node000008" class="edge">
<title>Node1&#45;&gt;Node8</title>
<g id="a_edge7_Node000001_Node000008"><a xlink:title=" ">
<path fill="none" stroke="#63b8ff" d="M361.62,-230.8C350.58,-222.18 336.31,-211.04 324.06,-201.48"/>
<polygon fill="#63b8ff" stroke="#63b8ff" points="326.01,-198.56 315.97,-195.16 321.7,-204.08 326.01,-198.56"/>
</a>
</g>
</g>
<!-- Node9 -->
<g id="Node000009" class="node">
<title>Node9</title>
<g id="a_Node000009"><a xlink:href="sd_8h.html" target="_top" xlink:title=" ">
<polygon fill="white" stroke="#666666" points="582.82,-129 490.82,-129 490.82,-110 582.82,-110 582.82,-129"/>
<text text-anchor="middle" x="536.82" y="-117" font-family="Helvetica,sans-Serif" font-size="10.00">fs/backend/sd.h</text>
</a>
</g>
</g>
<!-- Node1&#45;&gt;Node9 -->
<g id="edge27_Node000001_Node000009" class="edge">
<title>Node1&#45;&gt;Node9</title>
<g id="a_edge27_Node000001_Node000009"><a xlink:title=" ">
<path fill="none" stroke="#63b8ff" d="M386.87,-230.81C396.19,-213.29 414.11,-183.56 436.82,-165 454.57,-150.49 477.79,-139.78 497.39,-132.5"/>
<polygon fill="#63b8ff" stroke="#63b8ff" points="498.72,-135.75 506.97,-129.11 496.38,-129.15 498.72,-135.75"/>
</a>
</g>
</g>
<!-- Node19 -->
<g id="Node000019" class="node">
<title>Node19</title>
<g id="a_Node000019"><a xlink:title=" ">
<polygon fill="#e0e0e0" stroke="#999999" points="493.32,-189.5 446.32,-189.5 446.32,-170.5 493.32,-170.5 493.32,-189.5"/>
<text text-anchor="middle" x="469.82" y="-177.5" font-family="Helvetica,sans-Serif" font-size="10.00">fcntl.h</text>
</a>
</g>
</g>
<!-- Node1&#45;&gt;Node19 -->
<g id="edge28_Node000001_Node000019" class="edge">
<title>Node1&#45;&gt;Node19</title>
<g id="a_edge28_Node000001_Node000019"><a xlink:title=" ">
<path fill="none" stroke="#63b8ff" d="M399.8,-230.8C414.46,-220.37 434.33,-206.24 449.16,-195.69"/>
<polygon fill="#63b8ff" stroke="#63b8ff" points="451.53,-198.31 457.65,-189.66 447.47,-192.6 451.53,-198.31"/>
</a>
</g>
</g>
<!-- Node20 -->
<g id="Node000020" class="node">
<title>Node20</title>
<g id="a_Node000020"><a xlink:title=" ">
<polygon fill="#e0e0e0" stroke="#999999" points="567.82,-189.5 511.82,-189.5 511.82,-170.5 567.82,-170.5 567.82,-189.5"/>
<text text-anchor="middle" x="539.82" y="-177.5" font-family="Helvetica,sans-Serif" font-size="10.00">unistd.h</text>
</a>
</g>
</g>
<!-- Node1&#45;&gt;Node20 -->
<g id="edge30_Node000001_Node000020" class="edge">
<title>Node1&#45;&gt;Node20</title>
<g id="a_edge30_Node000001_Node000020"><a xlink:title=" ">
<path fill="none" stroke="#63b8ff" d="M414.94,-230.95C443.12,-219.68 482.29,-204.01 509.21,-193.25"/>
<polygon fill="#63b8ff" stroke="#63b8ff" points="510.55,-196.48 518.53,-189.52 507.95,-189.98 510.55,-196.48"/>
</a>
</g>
</g>
<!-- Node3 -->
<g id="Node000003" class="node">
<title>Node3</title>
<g id="a_Node000003"><a xlink:title=" ">
<polygon fill="#e0e0e0" stroke="#999999" points="427.82,-74 349.82,-74 349.82,-55 427.82,-55 427.82,-74"/>
<text text-anchor="middle" x="388.82" y="-62" font-family="Helvetica,sans-Serif" font-size="10.00">ngx_config.h</text>
</a>
</g>
</g>
<!-- Node2&#45;&gt;Node3 -->
<g id="edge2_Node000002_Node000003" class="edge">
<title>Node2&#45;&gt;Node3</title>
<g id="a_edge2_Node000002_Node000003"><a xlink:title=" ">
<path fill="none" stroke="#63b8ff" d="M381.31,-109.75C382.49,-102.8 384.18,-92.85 385.66,-84.13"/>
<polygon fill="#63b8ff" stroke="#63b8ff" points="389.14,-84.53 387.36,-74.09 382.24,-83.36 389.14,-84.53"/>
</a>
</g>
</g>
<!-- Node4 -->
<g id="Node000004" class="node">
<title>Node4</title>
<g id="a_Node000004"><a xlink:title=" ">
<polygon fill="#e0e0e0" stroke="#999999" points="331.82,-74 261.82,-74 261.82,-55 331.82,-55 331.82,-74"/>
<text text-anchor="middle" x="296.82" y="-62" font-family="Helvetica,sans-Serif" font-size="10.00">ngx_core.h</text>
</a>
</g>
</g>
<!-- Node2&#45;&gt;Node4 -->
<g id="edge3_Node000002_Node000004" class="edge">
<title>Node2&#45;&gt;Node4</title>
<g id="a_edge3_Node000002_Node000004"><a xlink:title=" ">
<path fill="none" stroke="#63b8ff" d="M366.49,-109.98C353.74,-101.84 334.27,-89.41 319.15,-79.76"/>
<polygon fill="#63b8ff" stroke="#63b8ff" points="320.71,-76.6 310.4,-74.17 316.95,-82.5 320.71,-76.6"/>
</a>
</g>
</g>
<!-- Node6 -->
<g id="Node000006" class="node">
<title>Node6</title>
<g id="a_Node000006"><a xlink:title=" ">
<polygon fill="#e0e0e0" stroke="#999999" points="147.82,-74 91.82,-74 91.82,-55 147.82,-55 147.82,-74"/>
<text text-anchor="middle" x="119.82" y="-62" font-family="Helvetica,sans-Serif" font-size="10.00">stddef.h</text>
</a>
</g>
</g>
<!-- Node5&#45;&gt;Node6 -->
<g id="edge5_Node000005_Node000006" class="edge">
<title>Node5&#45;&gt;Node6</title>
<g id="a_edge5_Node000005_Node000006"><a xlink:title=" ">
<path fill="none" stroke="#63b8ff" d="M75.58,-109.75C83.29,-102.03 94.73,-90.6 104.04,-81.28"/>
<polygon fill="#63b8ff" stroke="#63b8ff" points="106.64,-83.64 111.23,-74.09 101.69,-78.69 106.64,-83.64"/>
</a>
</g>
</g>
<!-- Node5&#45;&gt;Node7 -->
<g id="edge6_Node000005_Node000007" class="edge">
<title>Node5&#45;&gt;Node7</title>
<g id="a_edge6_Node000005_Node000007"><a xlink:title=" ">
<path fill="none" stroke="#63b8ff" d="M63.52,-109.75C60.84,-102.65 56.97,-92.4 53.64,-83.56"/>
<polygon fill="#63b8ff" stroke="#63b8ff" points="56.87,-82.21 50.06,-74.09 50.32,-84.68 56.87,-82.21"/>
</a>
</g>
</g>
<!-- Node8&#45;&gt;Node4 -->
<g id="edge8_Node000008_Node000004" class="edge">
<title>Node8&#45;&gt;Node4</title>
<g id="a_edge8_Node000008_Node000004"><a xlink:title=" ">
<path fill="none" stroke="#63b8ff" d="M297.7,-164.63C297.52,-144.21 297.19,-106.81 296.99,-84.24"/>
<polygon fill="#63b8ff" stroke="#63b8ff" points="300.49,-84.2 296.9,-74.23 293.49,-84.26 300.49,-84.2"/>
</a>
</g>
</g>
<!-- Node8&#45;&gt;Node9 -->
<g id="edge9_Node000008_Node000009" class="edge">
<title>Node8&#45;&gt;Node9</title>
<g id="a_edge9_Node000008_Node000009"><a xlink:title=" ">
<path fill="none" stroke="#63b8ff" d="M351.46,-165.87C393.75,-155.52 452.03,-141.25 491.89,-131.5"/>
<polygon fill="#63b8ff" stroke="#63b8ff" points="492.98,-134.84 501.86,-129.06 491.31,-128.04 492.98,-134.84"/>
</a>
</g>
</g>
<!-- Node17 -->
<g id="Node000017" class="node">
<title>Node17</title>
<g id="a_Node000017"><a xlink:href="af__policy_8h.html" target="_top" xlink:title=" ">
<polygon fill="white" stroke="#666666" points="270.82,-129 138.82,-129 138.82,-110 270.82,-110 270.82,-129"/>
<text text-anchor="middle" x="204.82" y="-117" font-family="Helvetica,sans-Serif" font-size="10.00">core/compat/af_policy.h</text>
</a>
</g>
</g>
<!-- Node8&#45;&gt;Node17 -->
<g id="edge23_Node000008_Node000017" class="edge">
<title>Node8&#45;&gt;Node17</title>
<g id="a_edge23_Node000008_Node000017"><a xlink:title=" ">
<path fill="none" stroke="#63b8ff" d="M275.31,-164.84C260.76,-155.68 241.89,-143.82 227.34,-134.66"/>
<polygon fill="#63b8ff" stroke="#63b8ff" points="228.81,-131.46 218.49,-129.09 225.09,-137.38 228.81,-131.46"/>
</a>
</g>
</g>
<!-- Node9&#45;&gt;Node3 -->
<g id="edge10_Node000009_Node000003" class="edge">
<title>Node9&#45;&gt;Node3</title>
<g id="a_edge10_Node000009_Node000003"><a xlink:title=" ">
<path fill="none" stroke="#63b8ff" d="M513.04,-109.98C488.59,-101.23 450.29,-87.51 422.68,-77.62"/>
<polygon fill="#63b8ff" stroke="#63b8ff" points="423.63,-74.25 413.03,-74.17 421.27,-80.84 423.63,-74.25"/>
</a>
</g>
</g>
<!-- Node9&#45;&gt;Node4 -->
<g id="edge11_Node000009_Node000004" class="edge">
<title>Node9&#45;&gt;Node4</title>
<g id="a_edge11_Node000009_Node000004"><a xlink:title=" ">
<path fill="none" stroke="#63b8ff" d="M498.26,-109.98C455.64,-100.57 387.06,-85.43 341.97,-75.47"/>
<polygon fill="#63b8ff" stroke="#63b8ff" points="342.68,-72.04 332.16,-73.3 341.17,-78.88 342.68,-72.04"/>
</a>
</g>
</g>
<!-- Node10 -->
<g id="Node000010" class="node">
<title>Node10</title>
<g id="a_Node000010"><a xlink:title=" ">
<polygon fill="#e0e0e0" stroke="#999999" points="795.32,-74 742.32,-74 742.32,-55 795.32,-55 795.32,-74"/>
<text text-anchor="middle" x="768.82" y="-62" font-family="Helvetica,sans-Serif" font-size="10.00">stdint.h</text>
</a>
</g>
</g>
<!-- Node9&#45;&gt;Node10 -->
<g id="edge12_Node000009_Node000010" class="edge">
<title>Node9&#45;&gt;Node10</title>
<g id="a_edge12_Node000009_Node000010"><a xlink:title=" ">
<path fill="none" stroke="#63b8ff" d="M574.1,-109.98C617.62,-100.04 689.13,-83.71 732.32,-73.84"/>
<polygon fill="#63b8ff" stroke="#63b8ff" points="733.16,-77.24 742.13,-71.6 731.6,-70.41 733.16,-77.24"/>
</a>
</g>
</g>
<!-- Node11 -->
<g id="Node000011" class="node">
<title>Node11</title>
<g id="a_Node000011"><a xlink:title=" ">
<polygon fill="#e0e0e0" stroke="#999999" points="562.32,-19 511.32,-19 511.32,0 562.32,0 562.32,-19"/>
<text text-anchor="middle" x="536.82" y="-7" font-family="Helvetica,sans-Serif" font-size="10.00">errno.h</text>
</a>
</g>
</g>
<!-- Node9&#45;&gt;Node11 -->
<g id="edge13_Node000009_Node000011" class="edge">
<title>Node9&#45;&gt;Node11</title>
<g id="a_edge13_Node000009_Node000011"><a xlink:title=" ">
<path fill="none" stroke="#63b8ff" d="M516.88,-109.9C494.5,-98.9 462.79,-78.44 474.82,-55 481.78,-41.44 495.01,-31.07 507.47,-23.78"/>
<polygon fill="#63b8ff" stroke="#63b8ff" points="509.17,-26.84 516.3,-19 505.84,-20.68 509.17,-26.84"/>
</a>
</g>
</g>
<!-- Node12 -->
<g id="Node000012" class="node">
<title>Node12</title>
<g id="a_Node000012"><a xlink:title=" ">
<polygon fill="#e0e0e0" stroke="#999999" points="915.82,-74 851.82,-74 851.82,-55 915.82,-55 915.82,-74"/>
<text text-anchor="middle" x="883.82" y="-62" font-family="Helvetica,sans-Serif" font-size="10.00">sys/stat.h</text>
</a>
</g>
</g>
<!-- Node9&#45;&gt;Node12 -->
<g id="edge14_Node000009_Node000012" class="edge">
<title>Node9&#45;&gt;Node12</title>
<g id="a_edge14_Node000009_Node000012"><a xlink:title=" ">
<path fill="none" stroke="#63b8ff" d="M583.06,-112.19C642.21,-104 747.8,-88.97 837.82,-74 839.09,-73.79 840.37,-73.57 841.66,-73.35"/>
<polygon fill="#63b8ff" stroke="#63b8ff" points="842.44,-76.77 851.68,-71.59 841.22,-69.88 842.44,-76.77"/>
</a>
</g>
</g>
<!-- Node13 -->
<g id="Node000013" class="node">
<title>Node13</title>
<g id="a_Node000013"><a xlink:title=" ">
<polygon fill="#e0e0e0" stroke="#999999" points="835.82,-19 763.82,-19 763.82,0 835.82,0 835.82,-19"/>
<text text-anchor="middle" x="799.82" y="-7" font-family="Helvetica,sans-Serif" font-size="10.00">sys/types.h</text>
</a>
</g>
</g>
<!-- Node9&#45;&gt;Node13 -->
<g id="edge15_Node000009_Node000013" class="edge">
<title>Node9&#45;&gt;Node13</title>
<g id="a_edge15_Node000009_Node000013"><a xlink:title=" ">
<path fill="none" stroke="#63b8ff" d="M582.96,-117.74C651.96,-115.51 776.92,-106.92 804.82,-74 815.31,-61.63 812.14,-42.6 807.52,-28.6"/>
<polygon fill="#63b8ff" stroke="#63b8ff" points="810.73,-27.17 803.91,-19.06 804.18,-29.65 810.73,-27.17"/>
</a>
</g>
</g>
<!-- Node14 -->
<g id="Node000014" class="node">
<title>Node14</title>
<g id="a_Node000014"><a xlink:title=" ">
<polygon fill="#e0e0e0" stroke="#999999" points="699.82,-19 639.82,-19 639.82,0 699.82,0 699.82,-19"/>
<text text-anchor="middle" x="669.82" y="-7" font-family="Helvetica,sans-Serif" font-size="10.00">sys/uio.h</text>
</a>
</g>
</g>
<!-- Node9&#45;&gt;Node14 -->
<g id="edge16_Node000009_Node000014" class="edge">
<title>Node9&#45;&gt;Node14</title>
<g id="a_edge16_Node000009_Node000014"><a xlink:title=" ">
<path fill="none" stroke="#63b8ff" d="M582.98,-111.75C624.59,-104.61 681.28,-91.89 694.82,-74 705.5,-59.9 695.22,-40.65 684.8,-27.05"/>
<polygon fill="#63b8ff" stroke="#63b8ff" points="687.23,-24.5 678.15,-19.04 681.84,-28.97 687.23,-24.5"/>
</a>
</g>
</g>
<!-- Node15 -->
<g id="Node000015" class="node">
<title>Node15</title>
<g id="a_Node000015"><a xlink:href="sd__cred__forward_8h.html" target="_top" xlink:title=" ">
<polygon fill="white" stroke="#666666" points="589.82,-74 483.82,-74 483.82,-55 589.82,-55 589.82,-74"/>
<text text-anchor="middle" x="536.82" y="-62" font-family="Helvetica,sans-Serif" font-size="10.00">sd_cred_forward.h</text>
</a>
</g>
</g>
<!-- Node9&#45;&gt;Node15 -->
<g id="edge17_Node000009_Node000015" class="edge">
<title>Node9&#45;&gt;Node15</title>
<g id="a_edge17_Node000009_Node000015"><a xlink:title=" ">
<path fill="none" stroke="#63b8ff" d="M536.82,-109.75C536.82,-102.8 536.82,-92.85 536.82,-84.13"/>
<polygon fill="#63b8ff" stroke="#63b8ff" points="540.32,-84.09 536.82,-74.09 533.32,-84.09 540.32,-84.09"/>
</a>
</g>
</g>
<!-- Node16 -->
<g id="Node000016" class="node">
<title>Node16</title>
<g id="a_Node000016"><a xlink:href="sd__registry_8h.html" target="_top" xlink:title=" ">
<polygon fill="white" stroke="#666666" points="685.82,-74 607.82,-74 607.82,-55 685.82,-55 685.82,-74"/>
<text text-anchor="middle" x="646.82" y="-62" font-family="Helvetica,sans-Serif" font-size="10.00">sd_registry.h</text>
</a>
</g>
</g>
<!-- Node9&#45;&gt;Node16 -->
<g id="edge19_Node000009_Node000016" class="edge">
<title>Node9&#45;&gt;Node16</title>
<g id="a_edge19_Node000009_Node000016"><a xlink:title=" ">
<path fill="none" stroke="#63b8ff" d="M554.5,-109.98C572.11,-101.5 599.4,-88.35 619.75,-78.54"/>
<polygon fill="#63b8ff" stroke="#63b8ff" points="621.34,-81.66 628.83,-74.17 618.3,-75.36 621.34,-81.66"/>
</a>
</g>
</g>
<!-- Node15&#45;&gt;Node11 -->
<g id="edge18_Node000015_Node000011" class="edge">
<title>Node15&#45;&gt;Node11</title>
<g id="a_edge18_Node000015_Node000011"><a xlink:title=" ">
<path fill="none" stroke="#63b8ff" d="M536.82,-54.75C536.82,-47.8 536.82,-37.85 536.82,-29.13"/>
<polygon fill="#63b8ff" stroke="#63b8ff" points="540.32,-29.09 536.82,-19.09 533.32,-29.09 540.32,-29.09"/>
</a>
</g>
</g>
<!-- Node16&#45;&gt;Node11 -->
<g id="edge20_Node000016_Node000011" class="edge">
<title>Node16&#45;&gt;Node11</title>
<g id="a_edge20_Node000016_Node000011"><a xlink:title=" ">
<path fill="none" stroke="#63b8ff" d="M629.15,-54.98C611.53,-46.5 584.25,-33.35 563.9,-23.54"/>
<polygon fill="#63b8ff" stroke="#63b8ff" points="565.35,-20.36 554.82,-19.17 562.31,-26.66 565.35,-20.36"/>
</a>
</g>
</g>
<!-- Node16&#45;&gt;Node13 -->
<g id="edge21_Node000016_Node000013" class="edge">
<title>Node16&#45;&gt;Node13</title>
<g id="a_edge21_Node000016_Node000013"><a xlink:title=" ">
<path fill="none" stroke="#63b8ff" d="M671.41,-54.98C696.87,-46.16 736.87,-32.31 765.45,-22.41"/>
<polygon fill="#63b8ff" stroke="#63b8ff" points="766.75,-25.66 775.05,-19.08 764.45,-19.05 766.75,-25.66"/>
</a>
</g>
</g>
<!-- Node16&#45;&gt;Node14 -->
<g id="edge22_Node000016_Node000014" class="edge">
<title>Node16&#45;&gt;Node14</title>
<g id="a_edge22_Node000016_Node000014"><a xlink:title=" ">
<path fill="none" stroke="#63b8ff" d="M650.62,-54.75C653.74,-47.57 658.25,-37.18 662.11,-28.27"/>
<polygon fill="#63b8ff" stroke="#63b8ff" points="665.33,-29.66 666.1,-19.09 658.9,-26.87 665.33,-29.66"/>
</a>
</g>
</g>
<!-- Node17&#45;&gt;Node6 -->
<g id="edge25_Node000017_Node000006" class="edge">
<title>Node17&#45;&gt;Node6</title>
<g id="a_edge25_Node000017_Node000006"><a xlink:title=" ">
<path fill="none" stroke="#63b8ff" d="M191.17,-109.98C177.99,-101.77 157.8,-89.18 142.25,-79.49"/>
<polygon fill="#63b8ff" stroke="#63b8ff" points="144.07,-76.49 133.73,-74.17 140.36,-82.43 144.07,-76.49"/>
</a>
</g>
</g>
<!-- Node17&#45;&gt;Node7 -->
<g id="edge26_Node000017_Node000007" class="edge">
<title>Node17&#45;&gt;Node7</title>
<g id="a_edge26_Node000017_Node000007"><a xlink:title=" ">
<path fill="none" stroke="#63b8ff" d="M179.44,-109.98C153.03,-101.13 111.48,-87.19 81.93,-77.28"/>
<polygon fill="#63b8ff" stroke="#63b8ff" points="83,-73.94 72.41,-74.08 80.78,-80.58 83,-73.94"/>
</a>
</g>
</g>
<!-- Node18 -->
<g id="Node000018" class="node">
<title>Node18</title>
<g id="a_Node000018"><a xlink:title=" ">
<polygon fill="#e0e0e0" stroke="#999999" points="243.32,-74 166.32,-74 166.32,-55 243.32,-55 243.32,-74"/>
<text text-anchor="middle" x="204.82" y="-62" font-family="Helvetica,sans-Serif" font-size="10.00">sys/socket.h</text>
</a>
</g>
</g>
<!-- Node17&#45;&gt;Node18 -->
<g id="edge24_Node000017_Node000018" class="edge">
<title>Node17&#45;&gt;Node18</title>
<g id="a_edge24_Node000017_Node000018"><a xlink:title=" ">
<path fill="none" stroke="#63b8ff" d="M204.82,-109.75C204.82,-102.8 204.82,-92.85 204.82,-84.13"/>
<polygon fill="#63b8ff" stroke="#63b8ff" points="208.32,-84.09 204.82,-74.09 201.32,-84.09 208.32,-84.09"/>
</a>
</g>
</g>
</g>
</svg>
