<?xml version="1.0" encoding="UTF-8" standalone="no"?>
<!DOCTYPE svg PUBLIC "-//W3C//DTD SVG 1.1//EN"
 "http://www.w3.org/Graphics/SVG/1.1/DTD/svg11.dtd">
<!-- Generated by graphviz version 2.43.0 (0)
 -->
<!-- Title: src/core/config/credential_block.h Pages: 1 -->
<!--zoomable 302 -->

<svg id="main" version="1.1" xmlns="http://www.w3.org/2000/svg" xmlns:xlink="http://www.w3.org/1999/xlink" xml:space="preserve" onload="init(evt)">
<style type="text/css"><![CDATA[
.node, .edge {opacity: 0.7;}
.node.selected, .edge.selected {opacity: 1;}
.edge:hover path { stroke: red; }
.edge:hover polygon { stroke: red; fill: red; }
]]></style>

<defs>
  <circle id="rim" cx="0" cy="0" r="7"/>
  <circle id="rim2" cx="0" cy="0" r="3.5"/>
  <g id="zoomPlus">
    <use xlink:href="#rim" fill="#404040"><set attributeName="fill" to="#808080" begin="zoomplus.mouseover" end="zoomplus.mouseout"/></use>
    <path d="M-4,0h8M0,-4v8" fill="none" stroke="white" stroke-width="1.5" pointer-events="none"/>
  </g>
  <g id="zoomMin">
    <use xlink:href="#rim" fill="#404040"><set attributeName="fill" to="#808080" begin="zoomminus.mouseover" end="zoomminus.mouseout"/></use>
    <path d="M-4,0h8" fill="none" stroke="white" stroke-width="1.5" pointer-events="none"/>
  </g>
  <g id="arrowUp" transform="translate(30 24)">
    <use xlink:href="#rim"/>
    <path pointer-events="none" fill="none" stroke="white" stroke-width="1.5" d="M0,-3.0v7 M-2.5,-0.5L0,-3.0L2.5,-0.5"/>
  </g>
  <g id="arrowRight" transform="rotate(90) translate(36 -43)">
    <use xlink:href="#rim"/>
    <path pointer-events="none" fill="none" stroke="white" stroke-width="1.5" d="M0,-3.0v7 M-2.5,-0.5L0,-3.0L2.5,-0.5"/>
  </g>
  <g id="arrowDown" transform="rotate(180) translate(-30 -48)">
    <use xlink:href="#rim"/>
    <path pointer-events="none" fill="none" stroke="white" stroke-width="1.5" d="M0,-3.0v7 M-2.5,-0.5L0,-3.0L2.5,-0.5"/>
  </g>
  <g id="arrowLeft" transform="rotate(270) translate(-36 17)">
    <use xlink:href="#rim"/>
    <path pointer-events="none" fill="none" stroke="white" stroke-width="1.5" d="M0,-3.0v7 M-2.5,-0.5L0,-3.0L2.5,-0.5"/>
  </g>
  <g id="resetDef">
    <use xlink:href="#rim2" fill="#404040"><set attributeName="fill" to="#808080" begin="reset.mouseover" end="reset.mouseout"/></use>
  </g>
</defs>
<script type="application/ecmascript">
var viewWidth = 2145;
var viewHeight = 302;
var sectionId = 'dynsection-1';
</script>
<script type="application/ecmascript" xlink:href="svg.min.js"/>
<svg id="graph" class="graph">
<g id="viewport">
<title>src/core/config/credential_block.h</title>
<!-- Node1 -->
<g id="Node000001" class="node">
<title>Node1</title>
<g id="a_Node000001"><a xlink:title=" ">
<polygon fill="#999999" stroke="#666666" points="756,-294 617,-294 617,-264 756,-264 756,-294"/>
<text text-anchor="start" x="625" y="-282" font-family="Helvetica,sans-Serif" font-size="10.00">src/core/config/credential</text>
<text text-anchor="middle" x="686.5" y="-271" font-family="Helvetica,sans-Serif" font-size="10.00">_block.h</text>
</a>
</g>
</g>
<!-- Node2 -->
<g id="Node000002" class="node">
<title>Node2</title>
<g id="a_Node000002"><a xlink:href="credential__block_8c.html" target="_top" xlink:title=" ">
<polygon fill="white" stroke="#666666" points="471,-228 332,-228 332,-198 471,-198 471,-228"/>
<text text-anchor="start" x="340" y="-216" font-family="Helvetica,sans-Serif" font-size="10.00">src/core/config/credential</text>
<text text-anchor="middle" x="401.5" y="-205" font-family="Helvetica,sans-Serif" font-size="10.00">_block.c</text>
</a>
</g>
</g>
<!-- Node1&#45;&gt;Node2 -->
<g id="edge1_Node000001_Node000002" class="edge">
<title>Node1&#45;&gt;Node2</title>
<g id="a_edge1_Node000001_Node000002"><a xlink:title=" ">
<path fill="none" stroke="#63b8ff" d="M613.98,-261.71C567.62,-251.31 508.14,-237.95 463.9,-228.01"/>
<polygon fill="#63b8ff" stroke="#63b8ff" points="613.43,-265.18 623.96,-263.95 614.97,-258.35 613.43,-265.18"/>
</a>
</g>
</g>
<!-- Node3 -->
<g id="Node000003" class="node">
<title>Node3</title>
<g id="a_Node000003"><a xlink:href="runtime__server_8c.html" target="_top" xlink:title=" ">
<polygon fill="white" stroke="#666666" points="319.5,-162 191.5,-162 191.5,-132 319.5,-132 319.5,-162"/>
<text text-anchor="start" x="199.5" y="-150" font-family="Helvetica,sans-Serif" font-size="10.00">src/core/config/runtime</text>
<text text-anchor="middle" x="255.5" y="-139" font-family="Helvetica,sans-Serif" font-size="10.00">_server.c</text>
</a>
</g>
</g>
<!-- Node1&#45;&gt;Node3 -->
<g id="edge2_Node000001_Node000003" class="edge">
<title>Node1&#45;&gt;Node3</title>
<g id="a_edge2_Node000001_Node000003"><a xlink:title=" ">
<path fill="none" stroke="#63b8ff" d="M608.67,-261.42C579.44,-253.52 546.53,-242.55 518.5,-228 499.4,-218.09 499.94,-207.23 480.5,-198 465.97,-191.1 380.97,-173.15 319.73,-160.75"/>
<polygon fill="#63b8ff" stroke="#63b8ff" points="607.86,-264.83 618.42,-263.98 609.64,-258.06 607.86,-264.83"/>
</a>
</g>
</g>
<!-- Node4 -->
<g id="Node000004" class="node">
<title>Node4</title>
<g id="a_Node000004"><a xlink:href="tier_8h.html" target="_top" xlink:title=" ">
<polygon fill="white" stroke="#666666" points="617.5,-222.5 527.5,-222.5 527.5,-203.5 617.5,-203.5 617.5,-222.5"/>
<text text-anchor="middle" x="572.5" y="-210.5" font-family="Helvetica,sans-Serif" font-size="10.00">src/fs/tier/tier.h</text>
</a>
</g>
</g>
<!-- Node1&#45;&gt;Node4 -->
<g id="edge3_Node000001_Node000004" class="edge">
<title>Node1&#45;&gt;Node4</title>
<g id="a_edge3_Node000001_Node000004"><a xlink:title=" ">
<path fill="none" stroke="#63b8ff" d="M652.61,-258.97C631.04,-246.87 604.16,-231.78 587.67,-222.52"/>
<polygon fill="#63b8ff" stroke="#63b8ff" points="651.05,-262.11 661.48,-263.95 654.48,-256.01 651.05,-262.11"/>
</a>
</g>
</g>
<!-- Node27 -->
<g id="Node000027" class="node">
<title>Node27</title>
<g id="a_Node000027"><a xlink:href="protocols_2root_2stream_2module_8c.html" target="_top" xlink:title=" ">
<polygon fill="white" stroke="#666666" points="737.5,-228 635.5,-228 635.5,-198 737.5,-198 737.5,-228"/>
<text text-anchor="start" x="643.5" y="-216" font-family="Helvetica,sans-Serif" font-size="10.00">src/protocols/root</text>
<text text-anchor="middle" x="686.5" y="-205" font-family="Helvetica,sans-Serif" font-size="10.00">/stream/module.c</text>
</a>
</g>
</g>
<!-- Node1&#45;&gt;Node27 -->
<g id="edge40_Node000001_Node000027" class="edge">
<title>Node1&#45;&gt;Node27</title>
<g id="a_edge40_Node000001_Node000027"><a xlink:title=" ">
<path fill="none" stroke="#63b8ff" d="M686.5,-253.54C686.5,-244.96 686.5,-235.61 686.5,-228.16"/>
<polygon fill="#63b8ff" stroke="#63b8ff" points="683,-253.8 686.5,-263.8 690,-253.8 683,-253.8"/>
</a>
</g>
</g>
<!-- Node28 -->
<g id="Node000028" class="node">
<title>Node28</title>
<g id="a_Node000028"><a xlink:href="protocols_2s3_2module_8c.html" target="_top" xlink:title=" ">
<polygon fill="white" stroke="#666666" points="897,-222.5 756,-222.5 756,-203.5 897,-203.5 897,-222.5"/>
<text text-anchor="middle" x="826.5" y="-210.5" font-family="Helvetica,sans-Serif" font-size="10.00">src/protocols/s3/module.c</text>
</a>
</g>
</g>
<!-- Node1&#45;&gt;Node28 -->
<g id="edge41_Node000001_Node000028" class="edge">
<title>Node1&#45;&gt;Node28</title>
<g id="a_edge41_Node000001_Node000028"><a xlink:title=" ">
<path fill="none" stroke="#63b8ff" d="M726.36,-259.78C753.12,-247.54 787.16,-231.98 807.87,-222.52"/>
<polygon fill="#63b8ff" stroke="#63b8ff" points="724.86,-256.61 717.22,-263.95 727.77,-262.98 724.86,-256.61"/>
</a>
</g>
</g>
<!-- Node29 -->
<g id="Node000029" class="node">
<title>Node29</title>
<g id="a_Node000029"><a xlink:href="protocols_2webdav_2config_8c.html" target="_top" xlink:title=" ">
<polygon fill="white" stroke="#666666" points="1035.5,-228 915.5,-228 915.5,-198 1035.5,-198 1035.5,-228"/>
<text text-anchor="start" x="923.5" y="-216" font-family="Helvetica,sans-Serif" font-size="10.00">src/protocols/webdav</text>
<text text-anchor="middle" x="975.5" y="-205" font-family="Helvetica,sans-Serif" font-size="10.00">/config.c</text>
</a>
</g>
</g>
<!-- Node1&#45;&gt;Node29 -->
<g id="edge42_Node000001_Node000029" class="edge">
<title>Node1&#45;&gt;Node29</title>
<g id="a_edge42_Node000001_Node000029"><a xlink:title=" ">
<path fill="none" stroke="#63b8ff" d="M759.95,-261.73C808.01,-251.09 870.03,-237.36 915.19,-227.36"/>
<polygon fill="#63b8ff" stroke="#63b8ff" points="758.93,-258.38 749.92,-263.95 760.44,-265.21 758.93,-258.38"/>
</a>
</g>
</g>
<!-- Node30 -->
<g id="Node000030" class="node">
<title>Node30</title>
<g id="a_Node000030"><a xlink:href="protocols_2webdav_2module_8c.html" target="_top" xlink:title=" ">
<polygon fill="white" stroke="#666666" points="1173.5,-228 1053.5,-228 1053.5,-198 1173.5,-198 1173.5,-228"/>
<text text-anchor="start" x="1061.5" y="-216" font-family="Helvetica,sans-Serif" font-size="10.00">src/protocols/webdav</text>
<text text-anchor="middle" x="1113.5" y="-205" font-family="Helvetica,sans-Serif" font-size="10.00">/module.c</text>
</a>
</g>
</g>
<!-- Node1&#45;&gt;Node30 -->
<g id="edge43_Node000001_Node000030" class="edge">
<title>Node1&#45;&gt;Node30</title>
<g id="a_edge43_Node000001_Node000030"><a xlink:title=" ">
<path fill="none" stroke="#63b8ff" d="M766.33,-268.28C839.03,-259.08 949.24,-244.3 1044.5,-228 1047.39,-227.51 1050.35,-226.98 1053.33,-226.43"/>
<polygon fill="#63b8ff" stroke="#63b8ff" points="765.82,-264.81 756.33,-269.54 766.69,-271.76 765.82,-264.81"/>
</a>
</g>
</g>
<!-- Node4&#45;&gt;Node3 -->
<g id="edge4_Node000004_Node000003" class="edge">
<title>Node4&#45;&gt;Node3</title>
<g id="a_edge4_Node000004_Node000003"><a xlink:title=" ">
<path fill="none" stroke="#63b8ff" d="M527.81,-201.19C522.98,-200.08 518.14,-199 513.5,-198 494.8,-193.97 389.82,-173.75 319.67,-160.29"/>
<polygon fill="#63b8ff" stroke="#63b8ff" points="527.08,-204.61 537.61,-203.47 528.67,-197.79 527.08,-204.61"/>
</a>
</g>
</g>
<!-- Node5 -->
<g id="Node000005" class="node">
<title>Node5</title>
<g id="a_Node000005"><a xlink:href="sd__cache_8h.html" target="_top" xlink:title=" ">
<polygon fill="white" stroke="#666666" points="1133.5,-162 1015.5,-162 1015.5,-132 1133.5,-132 1133.5,-162"/>
<text text-anchor="start" x="1023.5" y="-150" font-family="Helvetica,sans-Serif" font-size="10.00">src/fs/backend/cache</text>
<text text-anchor="middle" x="1074.5" y="-139" font-family="Helvetica,sans-Serif" font-size="10.00">/sd_cache.h</text>
</a>
</g>
</g>
<!-- Node4&#45;&gt;Node5 -->
<g id="edge5_Node000004_Node000005" class="edge">
<title>Node4&#45;&gt;Node5</title>
<g id="a_edge5_Node000004_Node000005"><a xlink:title=" ">
<path fill="none" stroke="#63b8ff" d="M612.09,-201.05C616.92,-199.92 621.81,-198.87 626.5,-198 764.65,-172.52 929.32,-158.19 1015.4,-151.9"/>
<polygon fill="#63b8ff" stroke="#63b8ff" points="611.19,-197.67 602.32,-203.46 612.87,-204.46 611.19,-197.67"/>
</a>
</g>
</g>
<!-- Node8 -->
<g id="Node000008" class="node">
<title>Node8</title>
<g id="a_Node000008"><a xlink:href="cache__storage_8c.html" target="_top" xlink:title=" ">
<polygon fill="white" stroke="#666666" points="526.5,-96 420.5,-96 420.5,-66 526.5,-66 526.5,-96"/>
<text text-anchor="start" x="428.5" y="-84" font-family="Helvetica,sans-Serif" font-size="10.00">src/fs/cache/cache</text>
<text text-anchor="middle" x="473.5" y="-73" font-family="Helvetica,sans-Serif" font-size="10.00">_storage.c</text>
</a>
</g>
</g>
<!-- Node4&#45;&gt;Node8 -->
<g id="edge33_Node000004_Node000008" class="edge">
<title>Node4&#45;&gt;Node8</title>
<g id="a_edge33_Node000004_Node000008"><a xlink:title=" ">
<path fill="none" stroke="#63b8ff" d="M559.86,-195.4C540.19,-169.57 502.63,-120.25 484.21,-96.07"/>
<polygon fill="#63b8ff" stroke="#63b8ff" points="557.16,-197.64 566,-203.47 562.73,-193.39 557.16,-197.64"/>
</a>
</g>
</g>
<!-- Node10 -->
<g id="Node000010" class="node">
<title>Node10</title>
<g id="a_Node000010"><a xlink:href="tier__build_8c.html" target="_top" xlink:title=" ">
<polygon fill="white" stroke="#666666" points="1090,-90.5 971,-90.5 971,-71.5 1090,-71.5 1090,-90.5"/>
<text text-anchor="middle" x="1030.5" y="-78.5" font-family="Helvetica,sans-Serif" font-size="10.00">src/fs/tier/tier_build.c</text>
</a>
</g>
</g>
<!-- Node4&#45;&gt;Node10 -->
<g id="edge34_Node000004_Node000010" class="edge">
<title>Node4&#45;&gt;Node10</title>
<g id="a_edge34_Node000004_Node000010"><a xlink:title=" ">
<path fill="none" stroke="#63b8ff" d="M612.39,-200.68C702.53,-175.09 920.3,-113.28 1000.34,-90.56"/>
<polygon fill="#63b8ff" stroke="#63b8ff" points="611.21,-197.37 602.55,-203.47 613.13,-204.11 611.21,-197.37"/>
</a>
</g>
</g>
<!-- Node11 -->
<g id="Node000011" class="node">
<title>Node11</title>
<g id="a_Node000011"><a xlink:href="vfs__backend__registry_8c.html" target="_top" xlink:title=" ">
<polygon fill="white" stroke="#666666" points="268,-96 143,-96 143,-66 268,-66 268,-96"/>
<text text-anchor="start" x="151" y="-84" font-family="Helvetica,sans-Serif" font-size="10.00">src/fs/vfs/vfs_backend</text>
<text text-anchor="middle" x="205.5" y="-73" font-family="Helvetica,sans-Serif" font-size="10.00">_registry.c</text>
</a>
</g>
</g>
<!-- Node4&#45;&gt;Node11 -->
<g id="edge39_Node000004_Node000011" class="edge">
<title>Node4&#45;&gt;Node11</title>
<g id="a_edge39_Node000004_Node000011"><a xlink:title=" ">
<path fill="none" stroke="#63b8ff" d="M553.4,-196.93C540.89,-187.03 524.19,-173.78 509.5,-162 492.99,-148.75 491.73,-140.86 472.5,-132 392.46,-95.11 364.09,-112.41 277.5,-96 274.5,-95.43 271.42,-94.85 268.32,-94.25"/>
<polygon fill="#63b8ff" stroke="#63b8ff" points="551.3,-199.73 561.32,-203.18 555.64,-194.24 551.3,-199.73"/>
</a>
</g>
</g>
<!-- Node20 -->
<g id="Node000020" class="node">
<title>Node20</title>
<g id="a_Node000020"><a xlink:href="sd__cache__internal_8h.html" target="_top" xlink:title=" ">
<polygon fill="white" stroke="#666666" points="2123.5,-162 2005.5,-162 2005.5,-132 2123.5,-132 2123.5,-162"/>
<text text-anchor="start" x="2013.5" y="-150" font-family="Helvetica,sans-Serif" font-size="10.00">src/fs/backend/cache</text>
<text text-anchor="middle" x="2064.5" y="-139" font-family="Helvetica,sans-Serif" font-size="10.00">/sd_cache_internal.h</text>
</a>
</g>
</g>
<!-- Node4&#45;&gt;Node20 -->
<g id="edge20_Node000004_Node000020" class="edge">
<title>Node4&#45;&gt;Node20</title>
<g id="a_edge20_Node000004_Node000020"><a xlink:title=" ">
<path fill="none" stroke="#63b8ff" d="M610.57,-201.03C615.88,-199.82 621.3,-198.75 626.5,-198 764.24,-178 1752.08,-154.93 2005.42,-149.29"/>
<polygon fill="#63b8ff" stroke="#63b8ff" points="609.44,-197.7 600.57,-203.48 611.11,-204.5 609.44,-197.7"/>
</a>
</g>
</g>
<!-- Node22 -->
<g id="Node000022" class="node">
<title>Node22</title>
<g id="a_Node000022"><a xlink:href="sd__stage_8h.html" target="_top" xlink:title=" ">
<polygon fill="white" stroke="#666666" points="673.5,-162 557.5,-162 557.5,-132 673.5,-132 673.5,-162"/>
<text text-anchor="start" x="565.5" y="-150" font-family="Helvetica,sans-Serif" font-size="10.00">src/fs/backend/stage</text>
<text text-anchor="middle" x="615.5" y="-139" font-family="Helvetica,sans-Serif" font-size="10.00">/sd_stage.h</text>
</a>
</g>
</g>
<!-- Node4&#45;&gt;Node22 -->
<g id="edge25_Node000004_Node000022" class="edge">
<title>Node4&#45;&gt;Node22</title>
<g id="a_edge25_Node000004_Node000022"><a xlink:title=" ">
<path fill="none" stroke="#63b8ff" d="M583.97,-194.92C590.8,-184.76 599.37,-172.01 605.85,-162.36"/>
<polygon fill="#63b8ff" stroke="#63b8ff" points="580.97,-193.12 578.3,-203.37 586.78,-197.02 580.97,-193.12"/>
</a>
</g>
</g>
<!-- Node24 -->
<g id="Node000024" class="node">
<title>Node24</title>
<g id="a_Node000024"><a xlink:href="tier__config_8c.html" target="_top" xlink:title=" ">
<polygon fill="white" stroke="#666666" points="1277,-156.5 1152,-156.5 1152,-137.5 1277,-137.5 1277,-156.5"/>
<text text-anchor="middle" x="1214.5" y="-144.5" font-family="Helvetica,sans-Serif" font-size="10.00">src/fs/tier/tier_config.c</text>
</a>
</g>
</g>
<!-- Node4&#45;&gt;Node24 -->
<g id="edge35_Node000004_Node000024" class="edge">
<title>Node4&#45;&gt;Node24</title>
<g id="a_edge35_Node000004_Node000024"><a xlink:title=" ">
<path fill="none" stroke="#63b8ff" d="M611.53,-200.98C616.54,-199.83 621.62,-198.8 626.5,-198 853.39,-161 914.57,-192 1142.5,-162 1153.23,-160.59 1164.77,-158.57 1175.41,-156.5"/>
<polygon fill="#63b8ff" stroke="#63b8ff" points="610.32,-197.67 601.44,-203.45 611.98,-204.47 610.32,-197.67"/>
</a>
</g>
</g>
<!-- Node25 -->
<g id="Node000025" class="node">
<title>Node25</title>
<g id="a_Node000025"><a xlink:href="vfs__backend__internal_8h.html" target="_top" xlink:title=" ">
<polygon fill="white" stroke="#666666" points="463,-162 338,-162 338,-132 463,-132 463,-162"/>
<text text-anchor="start" x="346" y="-150" font-family="Helvetica,sans-Serif" font-size="10.00">src/fs/vfs/vfs_backend</text>
<text text-anchor="middle" x="400.5" y="-139" font-family="Helvetica,sans-Serif" font-size="10.00">_internal.h</text>
</a>
</g>
</g>
<!-- Node4&#45;&gt;Node25 -->
<g id="edge36_Node000004_Node000025" class="edge">
<title>Node4&#45;&gt;Node25</title>
<g id="a_edge36_Node000004_Node000025"><a xlink:title=" ">
<path fill="none" stroke="#63b8ff" d="M539.68,-199.79C510.8,-189.04 468.75,-173.4 438.44,-162.12"/>
<polygon fill="#63b8ff" stroke="#63b8ff" points="538.71,-203.16 549.3,-203.37 541.15,-196.6 538.71,-203.16"/>
</a>
</g>
</g>
<!-- Node6 -->
<g id="Node000006" class="node">
<title>Node6</title>
<g id="a_Node000006"><a xlink:href="sd__cache_8c.html" target="_top" xlink:title=" ">
<polygon fill="white" stroke="#666666" points="2123.5,-30 2005.5,-30 2005.5,0 2123.5,0 2123.5,-30"/>
<text text-anchor="start" x="2013.5" y="-18" font-family="Helvetica,sans-Serif" font-size="10.00">src/fs/backend/cache</text>
<text text-anchor="middle" x="2064.5" y="-7" font-family="Helvetica,sans-Serif" font-size="10.00">/sd_cache.c</text>
</a>
</g>
</g>
<!-- Node5&#45;&gt;Node6 -->
<g id="edge6_Node000005_Node000006" class="edge">
<title>Node5&#45;&gt;Node6</title>
<g id="a_edge6_Node000005_Node000006"><a xlink:title=" ">
<path fill="none" stroke="#63b8ff" d="M1143.83,-132.2C1339.25,-111.56 1791.5,-158.14 1958.5,-96 1978.67,-88.5 1979.39,-79.04 1996.5,-66 2012.7,-53.65 2031.36,-39.97 2045.02,-30.05"/>
<polygon fill="#63b8ff" stroke="#63b8ff" points="1143.41,-128.73 1133.87,-133.34 1144.2,-135.68 1143.41,-128.73"/>
</a>
</g>
</g>
<!-- Node7 -->
<g id="Node000007" class="node">
<title>Node7</title>
<g id="a_Node000007"><a xlink:href="sd__cache__policy_8c.html" target="_top" xlink:title=" ">
<polygon fill="white" stroke="#666666" points="1582.5,-30 1464.5,-30 1464.5,0 1582.5,0 1582.5,-30"/>
<text text-anchor="start" x="1472.5" y="-18" font-family="Helvetica,sans-Serif" font-size="10.00">src/fs/backend/cache</text>
<text text-anchor="middle" x="1523.5" y="-7" font-family="Helvetica,sans-Serif" font-size="10.00">/sd_cache_policy.c</text>
</a>
</g>
</g>
<!-- Node5&#45;&gt;Node7 -->
<g id="edge7_Node000005_Node000007" class="edge">
<title>Node5&#45;&gt;Node7</title>
<g id="a_edge7_Node000005_Node000007"><a xlink:title=" ">
<path fill="none" stroke="#63b8ff" d="M1085.98,-123.15C1096.64,-104.5 1114.35,-79.14 1137.5,-66 1192.01,-35.06 1370.19,-22.71 1464.2,-18.25"/>
<polygon fill="#63b8ff" stroke="#63b8ff" points="1082.9,-121.49 1081.18,-131.95 1089.04,-124.84 1082.9,-121.49"/>
</a>
</g>
</g>
<!-- Node5&#45;&gt;Node8 -->
<g id="edge8_Node000005_Node000008" class="edge">
<title>Node5&#45;&gt;Node8</title>
<g id="a_edge8_Node000005_Node000008"><a xlink:title=" ">
<path fill="none" stroke="#63b8ff" d="M1004.89,-142.43C901.85,-136.5 702.86,-122.54 535.5,-96 532.56,-95.53 529.55,-95.01 526.51,-94.45"/>
<polygon fill="#63b8ff" stroke="#63b8ff" points="1004.98,-145.94 1015.17,-143.02 1005.38,-138.95 1004.98,-145.94"/>
</a>
</g>
</g>
<!-- Node9 -->
<g id="Node000009" class="node">
<title>Node9</title>
<g id="a_Node000009"><a xlink:href="open__or__fill_8c.html" target="_top" xlink:title=" ">
<polygon fill="white" stroke="#666666" points="1262.5,-96 1146.5,-96 1146.5,-66 1262.5,-66 1262.5,-96"/>
<text text-anchor="start" x="1154.5" y="-84" font-family="Helvetica,sans-Serif" font-size="10.00">src/fs/cache/open_or</text>
<text text-anchor="middle" x="1204.5" y="-73" font-family="Helvetica,sans-Serif" font-size="10.00">_fill.c</text>
</a>
</g>
</g>
<!-- Node5&#45;&gt;Node9 -->
<g id="edge9_Node000005_Node000009" class="edge">
<title>Node5&#45;&gt;Node9</title>
<g id="a_edge9_Node000005_Node000009"><a xlink:title=" ">
<path fill="none" stroke="#63b8ff" d="M1112.05,-127.51C1132.45,-117.47 1157.26,-105.26 1176.04,-96.01"/>
<polygon fill="#63b8ff" stroke="#63b8ff" points="1110.45,-124.4 1103.03,-131.95 1113.55,-130.68 1110.45,-124.4"/>
</a>
</g>
</g>
<!-- Node5&#45;&gt;Node10 -->
<g id="edge10_Node000005_Node000010" class="edge">
<title>Node5&#45;&gt;Node10</title>
<g id="a_edge10_Node000005_Node000010"><a xlink:title=" ">
<path fill="none" stroke="#63b8ff" d="M1058.88,-123.28C1051.17,-112.07 1042.32,-99.19 1036.58,-90.84"/>
<polygon fill="#63b8ff" stroke="#63b8ff" points="1056.19,-125.54 1064.73,-131.8 1061.95,-121.57 1056.19,-125.54"/>
</a>
</g>
</g>
<!-- Node5&#45;&gt;Node11 -->
<g id="edge11_Node000005_Node000011" class="edge">
<title>Node5&#45;&gt;Node11</title>
<g id="a_edge11_Node000005_Node000011"><a xlink:title=" ">
<path fill="none" stroke="#63b8ff" d="M1005.2,-144.67C866.5,-141.33 545.15,-130.27 277.5,-96 274.47,-95.61 271.37,-95.17 268.25,-94.7"/>
<polygon fill="#63b8ff" stroke="#63b8ff" points="1005.18,-148.17 1015.26,-144.9 1005.35,-141.17 1005.18,-148.17"/>
</a>
</g>
</g>
<!-- Node12 -->
<g id="Node000012" class="node">
<title>Node12</title>
<g id="a_Node000012"><a xlink:href="vfs__stat_8c.html" target="_top" xlink:title=" ">
<polygon fill="white" stroke="#666666" points="953,-90.5 842,-90.5 842,-71.5 953,-71.5 953,-90.5"/>
<text text-anchor="middle" x="897.5" y="-78.5" font-family="Helvetica,sans-Serif" font-size="10.00">src/fs/vfs/vfs_stat.c</text>
</a>
</g>
</g>
<!-- Node5&#45;&gt;Node12 -->
<g id="edge12_Node000005_Node000012" class="edge">
<title>Node5&#45;&gt;Node12</title>
<g id="a_edge12_Node000005_Node000012"><a xlink:title=" ">
<path fill="none" stroke="#63b8ff" d="M1025.88,-128.42C991.78,-116.09 947.69,-100.15 921.06,-90.52"/>
<polygon fill="#63b8ff" stroke="#63b8ff" points="1025.06,-131.85 1035.66,-131.95 1027.44,-125.26 1025.06,-131.85"/>
</a>
</g>
</g>
<!-- Node13 -->
<g id="Node000013" class="node">
<title>Node13</title>
<g id="a_Node000013"><a xlink:href="stage__engine_8c.html" target="_top" xlink:title=" ">
<polygon fill="white" stroke="#666666" points="686.5,-90.5 544.5,-90.5 544.5,-71.5 686.5,-71.5 686.5,-90.5"/>
<text text-anchor="middle" x="615.5" y="-78.5" font-family="Helvetica,sans-Serif" font-size="10.00">src/fs/xfer/stage_engine.c</text>
</a>
</g>
</g>
<!-- Node5&#45;&gt;Node13 -->
<g id="edge13_Node000005_Node000013" class="edge">
<title>Node5&#45;&gt;Node13</title>
<g id="a_edge13_Node000005_Node000013"><a xlink:title=" ">
<path fill="none" stroke="#63b8ff" d="M1005.09,-137.66C929.19,-128.34 804,-112.39 696.5,-96 685.64,-94.34 673.98,-92.42 662.99,-90.53"/>
<polygon fill="#63b8ff" stroke="#63b8ff" points="1005.12,-141.19 1015.47,-138.93 1005.97,-134.24 1005.12,-141.19"/>
</a>
</g>
</g>
<!-- Node14 -->
<g id="Node000014" class="node">
<title>Node14</title>
<g id="a_Node000014"><a xlink:href="health_8c.html" target="_top" xlink:title=" ">
<polygon fill="white" stroke="#666666" points="1418,-96 1281,-96 1281,-66 1418,-66 1418,-96"/>
<text text-anchor="start" x="1289" y="-84" font-family="Helvetica,sans-Serif" font-size="10.00">src/observability/metrics</text>
<text text-anchor="middle" x="1349.5" y="-73" font-family="Helvetica,sans-Serif" font-size="10.00">/health.c</text>
</a>
</g>
</g>
<!-- Node5&#45;&gt;Node14 -->
<g id="edge14_Node000005_Node000014" class="edge">
<title>Node5&#45;&gt;Node14</title>
<g id="a_edge14_Node000005_Node000014"><a xlink:title=" ">
<path fill="none" stroke="#63b8ff" d="M1143.77,-129.88C1188.61,-119.44 1246.41,-105.99 1289.32,-96"/>
<polygon fill="#63b8ff" stroke="#63b8ff" points="1142.78,-126.52 1133.83,-132.19 1144.37,-133.33 1142.78,-126.52"/>
</a>
</g>
</g>
<!-- Node15 -->
<g id="Node000015" class="node">
<title>Node15</title>
<g id="a_Node000015"><a xlink:href="protocols_2cvmfs_2module_8c.html" target="_top" xlink:title=" ">
<polygon fill="white" stroke="#666666" points="1548.5,-96 1436.5,-96 1436.5,-66 1548.5,-66 1548.5,-96"/>
<text text-anchor="start" x="1444.5" y="-84" font-family="Helvetica,sans-Serif" font-size="10.00">src/protocols/cvmfs</text>
<text text-anchor="middle" x="1492.5" y="-73" font-family="Helvetica,sans-Serif" font-size="10.00">/module.c</text>
</a>
</g>
</g>
<!-- Node5&#45;&gt;Node15 -->
<g id="edge15_Node000005_Node000015" class="edge">
<title>Node5&#45;&gt;Node15</title>
<g id="a_edge15_Node000005_Node000015"><a xlink:title=" ">
<path fill="none" stroke="#63b8ff" d="M1143.19,-132.05C1143.3,-132.03 1143.4,-132.02 1143.5,-132 1269.04,-111.34 1302.08,-117.41 1427.5,-96 1430.34,-95.51 1433.25,-94.99 1436.19,-94.44"/>
<polygon fill="#63b8ff" stroke="#63b8ff" points="1142.8,-128.57 1133.54,-133.72 1143.99,-135.46 1142.8,-128.57"/>
</a>
</g>
</g>
<!-- Node16 -->
<g id="Node000016" class="node">
<title>Node16</title>
<g id="a_Node000016"><a xlink:href="origin__probe_8c.html" target="_top" xlink:title=" ">
<polygon fill="white" stroke="#666666" points="1678.5,-96 1566.5,-96 1566.5,-66 1678.5,-66 1678.5,-96"/>
<text text-anchor="start" x="1574.5" y="-84" font-family="Helvetica,sans-Serif" font-size="10.00">src/protocols/cvmfs</text>
<text text-anchor="middle" x="1622.5" y="-73" font-family="Helvetica,sans-Serif" font-size="10.00">/origin_probe.c</text>
</a>
</g>
</g>
<!-- Node5&#45;&gt;Node16 -->
<g id="edge16_Node000005_Node000016" class="edge">
<title>Node5&#45;&gt;Node16</title>
<g id="a_edge16_Node000005_Node000016"><a xlink:title=" ">
<path fill="none" stroke="#63b8ff" d="M1143.19,-132.04C1143.3,-132.03 1143.4,-132.01 1143.5,-132 1326.3,-105.59 1374.86,-123.5 1557.5,-96 1560.35,-95.57 1563.27,-95.09 1566.21,-94.58"/>
<polygon fill="#63b8ff" stroke="#63b8ff" points="1142.85,-128.55 1133.52,-133.57 1143.94,-135.47 1142.85,-128.55"/>
</a>
</g>
</g>
<!-- Node17 -->
<g id="Node000017" class="node">
<title>Node17</title>
<g id="a_Node000017"><a xlink:href="open__request_8c.html" target="_top" xlink:title=" ">
<polygon fill="white" stroke="#666666" points="1816,-96 1697,-96 1697,-66 1816,-66 1816,-96"/>
<text text-anchor="start" x="1705" y="-84" font-family="Helvetica,sans-Serif" font-size="10.00">src/protocols/root</text>
<text text-anchor="middle" x="1756.5" y="-73" font-family="Helvetica,sans-Serif" font-size="10.00">/read/open_request.c</text>
</a>
</g>
</g>
<!-- Node5&#45;&gt;Node17 -->
<g id="edge17_Node000005_Node000017" class="edge">
<title>Node5&#45;&gt;Node17</title>
<g id="a_edge17_Node000005_Node000017"><a xlink:title=" ">
<path fill="none" stroke="#63b8ff" d="M1143.19,-132.04C1143.3,-132.03 1143.4,-132.01 1143.5,-132 1383.66,-99.84 1447.34,-128.16 1687.5,-96 1690.53,-95.59 1693.62,-95.13 1696.74,-94.63"/>
<polygon fill="#63b8ff" stroke="#63b8ff" points="1142.88,-128.55 1133.51,-133.49 1143.91,-135.47 1142.88,-128.55"/>
</a>
</g>
</g>
<!-- Node18 -->
<g id="Node000018" class="node">
<title>Node18</title>
<g id="a_Node000018"><a xlink:href="http__cache__fill_8c.html" target="_top" xlink:title=" ">
<polygon fill="white" stroke="#666666" points="1949,-96 1834,-96 1834,-66 1949,-66 1949,-96"/>
<text text-anchor="start" x="1842" y="-84" font-family="Helvetica,sans-Serif" font-size="10.00">src/protocols/shared</text>
<text text-anchor="middle" x="1891.5" y="-73" font-family="Helvetica,sans-Serif" font-size="10.00">/http_cache_fill.c</text>
</a>
</g>
</g>
<!-- Node5&#45;&gt;Node18 -->
<g id="edge18_Node000005_Node000018" class="edge">
<title>Node5&#45;&gt;Node18</title>
<g id="a_edge18_Node000005_Node000018"><a xlink:title=" ">
<path fill="none" stroke="#63b8ff" d="M1143.19,-132.04C1143.3,-132.03 1143.4,-132.01 1143.5,-132 1444.61,-93.72 1524.56,-135.61 1825.5,-96 1828.29,-95.63 1831.13,-95.21 1834,-94.75"/>
<polygon fill="#63b8ff" stroke="#63b8ff" points="1142.9,-128.55 1133.5,-133.43 1143.9,-135.47 1142.9,-128.55"/>
</a>
</g>
</g>
<!-- Node19 -->
<g id="Node000019" class="node">
<title>Node19</title>
<g id="a_Node000019"><a xlink:href="http__serve__offload_8c.html" target="_top" xlink:title=" ">
<polygon fill="white" stroke="#666666" points="824,-96 705,-96 705,-66 824,-66 824,-96"/>
<text text-anchor="start" x="713" y="-84" font-family="Helvetica,sans-Serif" font-size="10.00">src/protocols/shared</text>
<text text-anchor="middle" x="764.5" y="-73" font-family="Helvetica,sans-Serif" font-size="10.00">/http_serve_offload.c</text>
</a>
</g>
</g>
<!-- Node5&#45;&gt;Node19 -->
<g id="edge19_Node000005_Node000019" class="edge">
<title>Node5&#45;&gt;Node19</title>
<g id="a_edge19_Node000005_Node000019"><a xlink:title=" ">
<path fill="none" stroke="#63b8ff" d="M1005.55,-131.77C951.12,-120.53 875.96,-105.01 824.11,-94.31"/>
<polygon fill="#63b8ff" stroke="#63b8ff" points="1004.96,-135.22 1015.46,-133.81 1006.38,-128.36 1004.96,-135.22"/>
</a>
</g>
</g>
<!-- Node20&#45;&gt;Node6 -->
<g id="edge21_Node000020_Node000006" class="edge">
<title>Node20&#45;&gt;Node6</title>
<g id="a_edge21_Node000020_Node000006"><a xlink:title=" ">
<path fill="none" stroke="#63b8ff" d="M2103.68,-126.44C2115.09,-118.64 2126.17,-108.5 2132.5,-96 2138.52,-84.1 2138.52,-77.9 2132.5,-66 2124.56,-50.31 2109.12,-38.34 2094.96,-30.06"/>
<polygon fill="#63b8ff" stroke="#63b8ff" points="2101.55,-123.64 2094.96,-131.94 2105.29,-129.56 2101.55,-123.64"/>
</a>
</g>
</g>
<!-- Node21 -->
<g id="Node000021" class="node">
<title>Node21</title>
<g id="a_Node000021"><a xlink:href="sd__cache__policy_8h.html" target="_top" xlink:title=" ">
<polygon fill="white" stroke="#666666" points="2123.5,-96 2005.5,-96 2005.5,-66 2123.5,-66 2123.5,-96"/>
<text text-anchor="start" x="2013.5" y="-84" font-family="Helvetica,sans-Serif" font-size="10.00">src/fs/backend/cache</text>
<text text-anchor="middle" x="2064.5" y="-73" font-family="Helvetica,sans-Serif" font-size="10.00">/sd_cache_policy.h</text>
</a>
</g>
</g>
<!-- Node20&#45;&gt;Node21 -->
<g id="edge22_Node000020_Node000021" class="edge">
<title>Node20&#45;&gt;Node21</title>
<g id="a_edge22_Node000020_Node000021"><a xlink:title=" ">
<path fill="none" stroke="#63b8ff" d="M2064.5,-121.54C2064.5,-112.96 2064.5,-103.61 2064.5,-96.16"/>
<polygon fill="#63b8ff" stroke="#63b8ff" points="2061,-121.8 2064.5,-131.8 2068,-121.8 2061,-121.8"/>
</a>
</g>
</g>
<!-- Node21&#45;&gt;Node6 -->
<g id="edge23_Node000021_Node000006" class="edge">
<title>Node21&#45;&gt;Node6</title>
<g id="a_edge23_Node000021_Node000006"><a xlink:title=" ">
<path fill="none" stroke="#63b8ff" d="M2064.5,-55.54C2064.5,-46.96 2064.5,-37.61 2064.5,-30.16"/>
<polygon fill="#63b8ff" stroke="#63b8ff" points="2061,-55.8 2064.5,-65.8 2068,-55.8 2061,-55.8"/>
</a>
</g>
</g>
<!-- Node21&#45;&gt;Node7 -->
<g id="edge24_Node000021_Node000007" class="edge">
<title>Node21&#45;&gt;Node7</title>
<g id="a_edge24_Node000021_Node000007"><a xlink:title=" ">
<path fill="none" stroke="#63b8ff" d="M1995.22,-70.68C1982.99,-69.08 1970.37,-67.47 1958.5,-66 1824.21,-49.41 1666.36,-31.72 1582.64,-22.48"/>
<polygon fill="#63b8ff" stroke="#63b8ff" points="1995,-74.18 2005.37,-72.01 1995.91,-67.24 1995,-74.18"/>
</a>
</g>
</g>
<!-- Node22&#45;&gt;Node8 -->
<g id="edge27_Node000022_Node000008" class="edge">
<title>Node22&#45;&gt;Node8</title>
<g id="a_edge27_Node000022_Node000008"><a xlink:title=" ">
<path fill="none" stroke="#63b8ff" d="M575.08,-127.78C552.7,-117.69 525.29,-105.34 504.59,-96.01"/>
<polygon fill="#63b8ff" stroke="#63b8ff" points="573.78,-131.04 584.34,-131.95 576.66,-124.65 573.78,-131.04"/>
</a>
</g>
</g>
<!-- Node22&#45;&gt;Node10 -->
<g id="edge28_Node000022_Node000010" class="edge">
<title>Node22&#45;&gt;Node10</title>
<g id="a_edge28_Node000022_Node000010"><a xlink:title=" ">
<path fill="none" stroke="#63b8ff" d="M683.72,-137.4C753.83,-128.27 866.07,-112.86 962.5,-96 971.76,-94.38 981.69,-92.45 991.02,-90.54"/>
<polygon fill="#63b8ff" stroke="#63b8ff" points="683.16,-133.94 673.69,-138.7 684.06,-140.88 683.16,-133.94"/>
</a>
</g>
</g>
<!-- Node22&#45;&gt;Node11 -->
<g id="edge29_Node000022_Node000011" class="edge">
<title>Node22&#45;&gt;Node11</title>
<g id="a_edge29_Node000022_Node000011"><a xlink:title=" ">
<path fill="none" stroke="#63b8ff" d="M547.15,-136.81C478.77,-127.4 370.65,-111.94 277.5,-96 274.49,-95.48 271.41,-94.94 268.3,-94.38"/>
<polygon fill="#63b8ff" stroke="#63b8ff" points="546.98,-140.32 557.36,-138.21 547.93,-133.39 546.98,-140.32"/>
</a>
</g>
</g>
<!-- Node22&#45;&gt;Node12 -->
<g id="edge30_Node000022_Node000012" class="edge">
<title>Node22&#45;&gt;Node12</title>
<g id="a_edge30_Node000022_Node000012"><a xlink:title=" ">
<path fill="none" stroke="#63b8ff" d="M683.66,-130.53C738.94,-117.99 814.82,-100.77 859.74,-90.57"/>
<polygon fill="#63b8ff" stroke="#63b8ff" points="682.57,-127.19 673.59,-132.82 684.12,-134.02 682.57,-127.19"/>
</a>
</g>
</g>
<!-- Node22&#45;&gt;Node13 -->
<g id="edge31_Node000022_Node000013" class="edge">
<title>Node22&#45;&gt;Node13</title>
<g id="a_edge31_Node000022_Node000013"><a xlink:title=" ">
<path fill="none" stroke="#63b8ff" d="M615.5,-121.6C615.5,-110.8 615.5,-98.78 615.5,-90.84"/>
<polygon fill="#63b8ff" stroke="#63b8ff" points="612,-121.8 615.5,-131.8 619,-121.8 612,-121.8"/>
</a>
</g>
</g>
<!-- Node22&#45;&gt;Node19 -->
<g id="edge32_Node000022_Node000019" class="edge">
<title>Node22&#45;&gt;Node19</title>
<g id="a_edge32_Node000022_Node000019"><a xlink:title=" ">
<path fill="none" stroke="#63b8ff" d="M657.59,-127.92C681.14,-117.8 710.06,-105.38 731.88,-96.01"/>
<polygon fill="#63b8ff" stroke="#63b8ff" points="656.01,-124.79 648.2,-131.95 658.77,-131.22 656.01,-124.79"/>
</a>
</g>
</g>
<!-- Node23 -->
<g id="Node000023" class="node">
<title>Node23</title>
<g id="a_Node000023"><a xlink:href="sd__stage_8c.html" target="_top" xlink:title=" ">
<polygon fill="white" stroke="#666666" points="402.5,-96 286.5,-96 286.5,-66 402.5,-66 402.5,-96"/>
<text text-anchor="start" x="294.5" y="-84" font-family="Helvetica,sans-Serif" font-size="10.00">src/fs/backend/stage</text>
<text text-anchor="middle" x="344.5" y="-73" font-family="Helvetica,sans-Serif" font-size="10.00">/sd_stage.c</text>
</a>
</g>
</g>
<!-- Node22&#45;&gt;Node23 -->
<g id="edge26_Node000022_Node000023" class="edge">
<title>Node22&#45;&gt;Node23</title>
<g id="a_edge26_Node000022_Node000023"><a xlink:title=" ">
<path fill="none" stroke="#63b8ff" d="M547.47,-129.93C502.81,-119.39 445.03,-105.74 402.54,-95.71"/>
<polygon fill="#63b8ff" stroke="#63b8ff" points="546.83,-133.38 557.36,-132.27 548.44,-126.57 546.83,-133.38"/>
</a>
</g>
</g>
<!-- Node25&#45;&gt;Node11 -->
<g id="edge38_Node000025_Node000011" class="edge">
<title>Node25&#45;&gt;Node11</title>
<g id="a_edge38_Node000025_Node000011"><a xlink:title=" ">
<path fill="none" stroke="#63b8ff" d="M347.86,-128.72C316.61,-118.47 277.51,-105.63 248.19,-96.01"/>
<polygon fill="#63b8ff" stroke="#63b8ff" points="347.11,-132.16 357.71,-131.95 349.3,-125.51 347.11,-132.16"/>
</a>
</g>
</g>
<!-- Node26 -->
<g id="Node000026" class="node">
<title>Node26</title>
<g id="a_Node000026"><a xlink:href="vfs__backend__config_8c.html" target="_top" xlink:title=" ">
<polygon fill="white" stroke="#666666" points="125,-96 0,-96 0,-66 125,-66 125,-96"/>
<text text-anchor="start" x="8" y="-84" font-family="Helvetica,sans-Serif" font-size="10.00">src/fs/vfs/vfs_backend</text>
<text text-anchor="middle" x="62.5" y="-73" font-family="Helvetica,sans-Serif" font-size="10.00">_config.c</text>
</a>
</g>
</g>
<!-- Node25&#45;&gt;Node26 -->
<g id="edge37_Node000025_Node000026" class="edge">
<title>Node25&#45;&gt;Node26</title>
<g id="a_edge37_Node000025_Node000026"><a xlink:title=" ">
<path fill="none" stroke="#63b8ff" d="M327.85,-131.89C240.29,-115.36 217.02,-111.94 133.5,-96 130.79,-95.48 128.01,-94.95 125.21,-94.41"/>
<polygon fill="#63b8ff" stroke="#63b8ff" points="327.2,-135.33 337.68,-133.75 328.5,-128.45 327.2,-135.33"/>
</a>
</g>
</g>
</g>
</svg>

<g id="navigator" transform="translate(0 0)" fill="#404254">
  <rect fill="#f2f5e9" fill-opacity="0.5" stroke="#606060" stroke-width=".5" x="0" y="0" width="60" height="60"/>
  <use id="zoomplus" xlink:href="#zoomPlus" x="17" y="9" onmousedown="handleZoom(evt,'in')"/>
  <use id="zoomminus" xlink:href="#zoomMin" x="42" y="9" onmousedown="handleZoom(evt,'out')"/>
  <use id="reset" xlink:href="#resetDef" x="30" y="36" onmousedown="handleReset()"/>
   <use id="arrowup" xlink:href="#arrowUp" x="0" y="0" onmousedown="handlePan(0,-1)"/>
  <use id="arrowright" xlink:href="#arrowRight" x="0" y="0" onmousedown="handlePan(1,0)"/>
  <use id="arrowdown" xlink:href="#arrowDown" x="0" y="0" onmousedown="handlePan(0,1)"/>
  <use id="arrowleft" xlink:href="#arrowLeft" x="0" y="0" onmousedown="handlePan(-1,0)"/>
</g>
<svg viewBox="0 0 15 15" width="100%" height="30px" preserveAspectRatio="xMaxYMin meet">
 <g id="arrow_out" transform="scale(0.3 0.3)">
  <a xlink:href="credential__block_8h__dep__incl_org.svg" target="_base">
   <rect id="button" ry="5" rx="5" y="6" x="6" height="38" width="38"
        fill="#f2f5e9" fill-opacity="0.5" stroke="#606060" stroke-width="1.0"/>
   <path id="arrow"
     d="M 11.500037,31.436501 C 11.940474,20.09759 22.043105,11.32322 32.158766,21.979434 L 37.068811,17.246167 C 37.068811,17.246167 37.088388,32 37.088388,32 L 22.160133,31.978069 C 22.160133,31.978069 26.997745,27.140456 26.997745,27.140456 C 18.528582,18.264221 13.291696,25.230495 11.500037,31.436501 z"
     style="fill:#404040;"/>
  </a>
 </g>
</svg>

<style type='text/css'>
<![CDATA[
[data-mouse-over-selected='false'] { opacity: 0.7; }
[data-mouse-over-selected='true']  { opacity: 1.0; }
]]>
</style>
<script type="application/ecmascript"><![CDATA[
document.addEventListener('DOMContentLoaded', (event) => {
  highlightEdges();
  highlightAdjacentNodes();
});
]]></script>
</svg>
