<?xml version="1.0" encoding="UTF-8" standalone="no"?>
<!DOCTYPE svg PUBLIC "-//W3C//DTD SVG 1.1//EN"
 "http://www.w3.org/Graphics/SVG/1.1/DTD/svg11.dtd">
<!-- Generated by graphviz version 2.43.0 (0)
 -->
<!-- Title: src/protocols/ssi/svc_cta/cta_queue.c Pages: 1 -->
<svg width="321pt" height="203pt"
 viewBox="0.00 0.00 320.50 203.00" xmlns="http://www.w3.org/2000/svg" xmlns:xlink="http://www.w3.org/1999/xlink">
<g id="graph0" class="graph" transform="scale(1 1) rotate(0) translate(4 199)">
<title>src/protocols/ssi/svc_cta/cta_queue.c</title>
<!-- Node1 -->
<g id="Node000001" class="node">
<title>Node1</title>
<g id="a_Node000001"><a xlink:title=" ">
<polygon fill="#999999" stroke="#666666" points="237.5,-195 122.5,-195 122.5,-165 237.5,-165 237.5,-195"/>
<text text-anchor="start" x="130.5" y="-183" font-family="Helvetica,sans-Serif" font-size="10.00">src/protocols/ssi/svc</text>
<text text-anchor="middle" x="180" y="-172" font-family="Helvetica,sans-Serif" font-size="10.00">_cta/cta_queue.c</text>
</a>
</g>
</g>
<!-- Node2 -->
<g id="Node000002" class="node">
<title>Node2</title>
<g id="a_Node000002"><a xlink:href="cta__queue_8h.html" target="_top" xlink:title=" ">
<polygon fill="white" stroke="#666666" points="102,-129 26,-129 26,-110 102,-110 102,-129"/>
<text text-anchor="middle" x="64" y="-117" font-family="Helvetica,sans-Serif" font-size="10.00">cta_queue.h</text>
</a>
</g>
</g>
<!-- Node1&#45;&gt;Node2 -->
<g id="edge1_Node000001_Node000002" class="edge">
<title>Node1&#45;&gt;Node2</title>
<g id="a_edge1_Node000001_Node000002"><a xlink:title=" ">
<path fill="none" stroke="#63b8ff" d="M152.22,-164.99C133.38,-155.49 108.65,-143.02 90.16,-133.69"/>
<polygon fill="#63b8ff" stroke="#63b8ff" points="91.64,-130.52 81.13,-129.14 88.48,-136.77 91.64,-130.52"/>
</a>
</g>
</g>
<!-- Node6 -->
<g id="Node000006" class="node">
<title>Node6</title>
<g id="a_Node000006"><a xlink:title=" ">
<polygon fill="#e0e0e0" stroke="#999999" points="170,-129 120,-129 120,-110 170,-110 170,-129"/>
<text text-anchor="middle" x="145" y="-117" font-family="Helvetica,sans-Serif" font-size="10.00">stdio.h</text>
</a>
</g>
</g>
<!-- Node1&#45;&gt;Node6 -->
<g id="edge5_Node000001_Node000006" class="edge">
<title>Node1&#45;&gt;Node6</title>
<g id="a_edge5_Node000001_Node000006"><a xlink:title=" ">
<path fill="none" stroke="#63b8ff" d="M171.53,-164.84C166.71,-156.78 160.63,-146.62 155.5,-138.06"/>
<polygon fill="#63b8ff" stroke="#63b8ff" points="158.38,-136.05 150.24,-129.27 152.38,-139.64 158.38,-136.05"/>
</a>
</g>
</g>
<!-- Node7 -->
<g id="Node000007" class="node">
<title>Node7</title>
<g id="a_Node000007"><a xlink:title=" ">
<polygon fill="#e0e0e0" stroke="#999999" points="241.5,-129 188.5,-129 188.5,-110 241.5,-110 241.5,-129"/>
<text text-anchor="middle" x="215" y="-117" font-family="Helvetica,sans-Serif" font-size="10.00">stdlib.h</text>
</a>
</g>
</g>
<!-- Node1&#45;&gt;Node7 -->
<g id="edge6_Node000001_Node000007" class="edge">
<title>Node1&#45;&gt;Node7</title>
<g id="a_edge6_Node000001_Node000007"><a xlink:title=" ">
<path fill="none" stroke="#63b8ff" d="M188.47,-164.84C193.29,-156.78 199.37,-146.62 204.5,-138.06"/>
<polygon fill="#63b8ff" stroke="#63b8ff" points="207.62,-139.64 209.76,-129.27 201.62,-136.05 207.62,-139.64"/>
</a>
</g>
</g>
<!-- Node8 -->
<g id="Node000008" class="node">
<title>Node8</title>
<g id="a_Node000008"><a xlink:title=" ">
<polygon fill="#e0e0e0" stroke="#999999" points="312.5,-129 259.5,-129 259.5,-110 312.5,-110 312.5,-129"/>
<text text-anchor="middle" x="286" y="-117" font-family="Helvetica,sans-Serif" font-size="10.00">string.h</text>
</a>
</g>
</g>
<!-- Node1&#45;&gt;Node8 -->
<g id="edge7_Node000001_Node000008" class="edge">
<title>Node1&#45;&gt;Node8</title>
<g id="a_edge7_Node000001_Node000008"><a xlink:title=" ">
<path fill="none" stroke="#63b8ff" d="M205.39,-164.99C222.29,-155.66 244.38,-143.47 261.16,-134.21"/>
<polygon fill="#63b8ff" stroke="#63b8ff" points="263.28,-137.04 270.35,-129.14 259.9,-130.91 263.28,-137.04"/>
</a>
</g>
</g>
<!-- Node3 -->
<g id="Node000003" class="node">
<title>Node3</title>
<g id="a_Node000003"><a xlink:href="cta__pb_8h.html" target="_top" xlink:title=" ">
<polygon fill="white" stroke="#666666" points="93,-74 35,-74 35,-55 93,-55 93,-74"/>
<text text-anchor="middle" x="64" y="-62" font-family="Helvetica,sans-Serif" font-size="10.00">cta_pb.h</text>
</a>
</g>
</g>
<!-- Node2&#45;&gt;Node3 -->
<g id="edge2_Node000002_Node000003" class="edge">
<title>Node2&#45;&gt;Node3</title>
<g id="a_edge2_Node000002_Node000003"><a xlink:title=" ">
<path fill="none" stroke="#63b8ff" d="M64,-109.75C64,-102.8 64,-92.85 64,-84.13"/>
<polygon fill="#63b8ff" stroke="#63b8ff" points="67.5,-84.09 64,-74.09 60.5,-84.09 67.5,-84.09"/>
</a>
</g>
</g>
<!-- Node4 -->
<g id="Node000004" class="node">
<title>Node4</title>
<g id="a_Node000004"><a xlink:title=" ">
<polygon fill="#e0e0e0" stroke="#999999" points="56,-19 0,-19 0,0 56,0 56,-19"/>
<text text-anchor="middle" x="28" y="-7" font-family="Helvetica,sans-Serif" font-size="10.00">stddef.h</text>
</a>
</g>
</g>
<!-- Node3&#45;&gt;Node4 -->
<g id="edge3_Node000003_Node000004" class="edge">
<title>Node3&#45;&gt;Node4</title>
<g id="a_edge3_Node000003_Node000004"><a xlink:title=" ">
<path fill="none" stroke="#63b8ff" d="M58.06,-54.75C53.02,-47.34 45.66,-36.5 39.49,-27.41"/>
<polygon fill="#63b8ff" stroke="#63b8ff" points="42.35,-25.39 33.83,-19.09 36.56,-29.33 42.35,-25.39"/>
</a>
</g>
</g>
<!-- Node5 -->
<g id="Node000005" class="node">
<title>Node5</title>
<g id="a_Node000005"><a xlink:title=" ">
<polygon fill="#e0e0e0" stroke="#999999" points="127.5,-19 74.5,-19 74.5,0 127.5,0 127.5,-19"/>
<text text-anchor="middle" x="101" y="-7" font-family="Helvetica,sans-Serif" font-size="10.00">stdint.h</text>
</a>
</g>
</g>
<!-- Node3&#45;&gt;Node5 -->
<g id="edge4_Node000003_Node000005" class="edge">
<title>Node3&#45;&gt;Node5</title>
<g id="a_edge4_Node000003_Node000005"><a xlink:title=" ">
<path fill="none" stroke="#63b8ff" d="M70.11,-54.75C75.28,-47.34 82.85,-36.5 89.19,-27.41"/>
<polygon fill="#63b8ff" stroke="#63b8ff" points="92.15,-29.29 95,-19.09 86.41,-25.29 92.15,-29.29"/>
</a>
</g>
</g>
</g>
</svg>
