<?xml version="1.0" encoding="UTF-8" standalone="no"?>
<!DOCTYPE svg PUBLIC "-//W3C//DTD SVG 1.1//EN"
 "http://www.w3.org/Graphics/SVG/1.1/DTD/svg11.dtd">
<!-- Generated by graphviz version 2.43.0 (0)
 -->
<!-- Title: src/observability/dashboard/dashboard_tracking.h Pages: 1 -->
<!--zoomable 170 -->

<svg id="main" version="1.1" xmlns="http://www.w3.org/2000/svg" xmlns:xlink="http://www.w3.org/1999/xlink" xml:space="preserve" onload="init(evt)">
<style type="text/css"><![CDATA[
.node, .edge {opacity: 0.7;}
.node.selected, .edge.selected {opacity: 1;}
.edge:hover path { stroke: red; }
.edge:hover polygon { stroke: red; fill: red; }
]]></style>

<defs>
  <circle id="rim" cx="0" cy="0" r="7"/>
  <circle id="rim2" cx="0" cy="0" r="3.5"/>
  <g id="zoomPlus">
    <use xlink:href="#rim" fill="#404040"><set attributeName="fill" to="#808080" begin="zoomplus.mouseover" end="zoomplus.mouseout"/></use>
    <path d="M-4,0h8M0,-4v8" fill="none" stroke="white" stroke-width="1.5" pointer-events="none"/>
  </g>
  <g id="zoomMin">
    <use xlink:href="#rim" fill="#404040"><set attributeName="fill" to="#808080" begin="zoomminus.mouseover" end="zoomminus.mouseout"/></use>
    <path d="M-4,0h8" fill="none" stroke="white" stroke-width="1.5" pointer-events="none"/>
  </g>
  <g id="arrowUp" transform="translate(30 24)">
    <use xlink:href="#rim"/>
    <path pointer-events="none" fill="none" stroke="white" stroke-width="1.5" d="M0,-3.0v7 M-2.5,-0.5L0,-3.0L2.5,-0.5"/>
  </g>
  <g id="arrowRight" transform="rotate(90) translate(36 -43)">
    <use xlink:href="#rim"/>
    <path pointer-events="none" fill="none" stroke="white" stroke-width="1.5" d="M0,-3.0v7 M-2.5,-0.5L0,-3.0L2.5,-0.5"/>
  </g>
  <g id="arrowDown" transform="rotate(180) translate(-30 -48)">
    <use xlink:href="#rim"/>
    <path pointer-events="none" fill="none" stroke="white" stroke-width="1.5" d="M0,-3.0v7 M-2.5,-0.5L0,-3.0L2.5,-0.5"/>
  </g>
  <g id="arrowLeft" transform="rotate(270) translate(-36 17)">
    <use xlink:href="#rim"/>
    <path pointer-events="none" fill="none" stroke="white" stroke-width="1.5" d="M0,-3.0v7 M-2.5,-0.5L0,-3.0L2.5,-0.5"/>
  </g>
  <g id="resetDef">
    <use xlink:href="#rim2" fill="#404040"><set attributeName="fill" to="#808080" begin="reset.mouseover" end="reset.mouseout"/></use>
  </g>
</defs>
<script type="application/ecmascript">
var viewWidth = 2533;
var viewHeight = 170;
var sectionId = 'dynsection-1';
</script>
<script type="application/ecmascript" xlink:href="svg.min.js"/>
<svg id="graph" class="graph">
<g id="viewport">
<title>src/observability/dashboard/dashboard_tracking.h</title>
<!-- Node1 -->
<g id="Node000001" class="node">
<title>Node1</title>
<g id="a_Node000001"><a xlink:title=" ">
<polygon fill="#999999" stroke="#666666" points="1368,-162 1216,-162 1216,-132 1368,-132 1368,-162"/>
<text text-anchor="start" x="1224" y="-150" font-family="Helvetica,sans-Serif" font-size="10.00">src/observability/dashboard</text>
<text text-anchor="middle" x="1292" y="-139" font-family="Helvetica,sans-Serif" font-size="10.00">/dashboard_tracking.h</text>
</a>
</g>
</g>
<!-- Node2 -->
<g id="Node000002" class="node">
<title>Node2</title>
<g id="a_Node000002"><a xlink:href="http__tracking_8c.html" target="_top" xlink:title=" ">
<polygon fill="white" stroke="#666666" points="152,-96 0,-96 0,-66 152,-66 152,-96"/>
<text text-anchor="start" x="8" y="-84" font-family="Helvetica,sans-Serif" font-size="10.00">src/observability/dashboard</text>
<text text-anchor="middle" x="76" y="-73" font-family="Helvetica,sans-Serif" font-size="10.00">/http_tracking.c</text>
</a>
</g>
</g>
<!-- Node1&#45;&gt;Node2 -->
<g id="edge1_Node000001_Node000002" class="edge">
<title>Node1&#45;&gt;Node2</title>
<g id="a_edge1_Node000001_Node000002"><a xlink:title=" ">
<path fill="none" stroke="#63b8ff" d="M1205.81,-145.68C1016.34,-144.22 549.48,-136.43 161,-96 158.17,-95.71 155.3,-95.38 152.4,-95.02"/>
<polygon fill="#63b8ff" stroke="#63b8ff" points="1205.96,-149.18 1215.99,-145.76 1206.01,-142.18 1205.96,-149.18"/>
</a>
</g>
</g>
<!-- Node3 -->
<g id="Node000003" class="node">
<title>Node3</title>
<g id="a_Node000003"><a xlink:href="observability_2dashboard_2noop_8c.html" target="_top" xlink:title=" ">
<polygon fill="white" stroke="#666666" points="322,-96 170,-96 170,-66 322,-66 322,-96"/>
<text text-anchor="start" x="178" y="-84" font-family="Helvetica,sans-Serif" font-size="10.00">src/observability/dashboard</text>
<text text-anchor="middle" x="246" y="-73" font-family="Helvetica,sans-Serif" font-size="10.00">/noop.c</text>
</a>
</g>
</g>
<!-- Node1&#45;&gt;Node3 -->
<g id="edge2_Node000001_Node000003" class="edge">
<title>Node1&#45;&gt;Node3</title>
<g id="a_edge2_Node000001_Node000003"><a xlink:title=" ">
<path fill="none" stroke="#63b8ff" d="M1205.72,-144.73C1037.16,-141.52 652.48,-130.73 331,-96 328.17,-95.69 325.3,-95.36 322.4,-95"/>
<polygon fill="#63b8ff" stroke="#63b8ff" points="1205.71,-148.23 1215.78,-144.91 1205.84,-141.23 1205.71,-148.23"/>
</a>
</g>
</g>
<!-- Node4 -->
<g id="Node000004" class="node">
<title>Node4</title>
<g id="a_Node000004"><a xlink:href="protocols_2cvmfs_2handler_8c.html" target="_top" xlink:title=" ">
<polygon fill="white" stroke="#666666" points="452,-96 340,-96 340,-66 452,-66 452,-96"/>
<text text-anchor="start" x="348" y="-84" font-family="Helvetica,sans-Serif" font-size="10.00">src/protocols/cvmfs</text>
<text text-anchor="middle" x="396" y="-73" font-family="Helvetica,sans-Serif" font-size="10.00">/handler.c</text>
</a>
</g>
</g>
<!-- Node1&#45;&gt;Node4 -->
<g id="edge3_Node000001_Node000004" class="edge">
<title>Node1&#45;&gt;Node4</title>
<g id="a_edge3_Node000001_Node000004"><a xlink:title=" ">
<path fill="none" stroke="#63b8ff" d="M1205.55,-145.12C1054.04,-142.61 730.98,-132.98 461,-96 458.14,-95.61 455.22,-95.16 452.28,-94.67"/>
<polygon fill="#63b8ff" stroke="#63b8ff" points="1205.66,-148.62 1215.72,-145.28 1205.77,-141.62 1205.66,-148.62"/>
</a>
</g>
</g>
<!-- Node5 -->
<g id="Node000005" class="node">
<title>Node5</title>
<g id="a_Node000005"><a xlink:href="object_8c.html" target="_top" xlink:title=" ">
<polygon fill="white" stroke="#666666" points="604,-90.5 470,-90.5 470,-71.5 604,-71.5 604,-90.5"/>
<text text-anchor="middle" x="537" y="-78.5" font-family="Helvetica,sans-Serif" font-size="10.00">src/protocols/s3/object.c</text>
</a>
</g>
</g>
<!-- Node1&#45;&gt;Node5 -->
<g id="edge4_Node000001_Node000005" class="edge">
<title>Node1&#45;&gt;Node5</title>
<g id="a_edge4_Node000001_Node000005"><a xlink:title=" ">
<path fill="none" stroke="#63b8ff" d="M1205.63,-142.65C1076.35,-136.95 825.03,-123.25 613,-96 601.82,-94.56 589.8,-92.56 578.68,-90.52"/>
<polygon fill="#63b8ff" stroke="#63b8ff" points="1205.72,-146.16 1215.87,-143.09 1206.03,-139.16 1205.72,-146.16"/>
</a>
</g>
</g>
<!-- Node6 -->
<g id="Node000006" class="node">
<title>Node6</title>
<g id="a_Node000006"><a xlink:href="object__meta_8c.html" target="_top" xlink:title=" ">
<polygon fill="white" stroke="#666666" points="748,-96 622,-96 622,-66 748,-66 748,-96"/>
<text text-anchor="start" x="630" y="-84" font-family="Helvetica,sans-Serif" font-size="10.00">src/protocols/s3/object</text>
<text text-anchor="middle" x="685" y="-73" font-family="Helvetica,sans-Serif" font-size="10.00">_meta.c</text>
</a>
</g>
</g>
<!-- Node1&#45;&gt;Node6 -->
<g id="edge5_Node000001_Node000006" class="edge">
<title>Node1&#45;&gt;Node6</title>
<g id="a_edge5_Node000001_Node000006"><a xlink:title=" ">
<path fill="none" stroke="#63b8ff" d="M1205.69,-140.48C1099.86,-133.13 915.17,-118.38 758,-96 754.81,-95.55 751.54,-95.05 748.25,-94.51"/>
<polygon fill="#63b8ff" stroke="#63b8ff" points="1205.46,-143.97 1215.68,-141.17 1205.94,-136.99 1205.46,-143.97"/>
</a>
</g>
</g>
<!-- Node7 -->
<g id="Node000007" class="node">
<title>Node7</title>
<g id="a_Node000007"><a xlink:href="s3__put__internal_8h.html" target="_top" xlink:title=" ">
<polygon fill="white" stroke="#666666" points="873.5,-96 766.5,-96 766.5,-66 873.5,-66 873.5,-96"/>
<text text-anchor="start" x="774.5" y="-84" font-family="Helvetica,sans-Serif" font-size="10.00">src/protocols/s3/s3</text>
<text text-anchor="middle" x="820" y="-73" font-family="Helvetica,sans-Serif" font-size="10.00">_put_internal.h</text>
</a>
</g>
</g>
<!-- Node1&#45;&gt;Node7 -->
<g id="edge6_Node000001_Node000007" class="edge">
<title>Node1&#45;&gt;Node7</title>
<g id="a_edge6_Node000001_Node000007"><a xlink:title=" ">
<path fill="none" stroke="#63b8ff" d="M1205.78,-137.91C1122.76,-129.55 993.83,-115.04 883,-96 879.91,-95.47 876.74,-94.89 873.55,-94.27"/>
<polygon fill="#63b8ff" stroke="#63b8ff" points="1205.62,-141.42 1215.92,-138.93 1206.32,-134.45 1205.62,-141.42"/>
</a>
</g>
</g>
<!-- Node14 -->
<g id="Node000014" class="node">
<title>Node14</title>
<g id="a_Node000014"><a xlink:href="file__serve_8c.html" target="_top" xlink:title=" ">
<polygon fill="white" stroke="#666666" points="1006.5,-96 891.5,-96 891.5,-66 1006.5,-66 1006.5,-96"/>
<text text-anchor="start" x="899.5" y="-84" font-family="Helvetica,sans-Serif" font-size="10.00">src/protocols/shared</text>
<text text-anchor="middle" x="949" y="-73" font-family="Helvetica,sans-Serif" font-size="10.00">/file_serve.c</text>
</a>
</g>
</g>
<!-- Node1&#45;&gt;Node14 -->
<g id="edge13_Node000001_Node000014" class="edge">
<title>Node1&#45;&gt;Node14</title>
<g id="a_edge13_Node000001_Node000014"><a xlink:title=" ">
<path fill="none" stroke="#63b8ff" d="M1205.78,-130.99C1151.3,-121.36 1079.44,-108.37 1016,-96 1012.97,-95.41 1009.86,-94.79 1006.72,-94.16"/>
<polygon fill="#63b8ff" stroke="#63b8ff" points="1205.29,-134.46 1215.75,-132.75 1206.51,-127.57 1205.29,-134.46"/>
</a>
</g>
</g>
<!-- Node15 -->
<g id="Node000015" class="node">
<title>Node15</title>
<g id="a_Node000015"><a xlink:href="webdav_2get_8c.html" target="_top" xlink:title=" ">
<polygon fill="white" stroke="#666666" points="1145,-96 1025,-96 1025,-66 1145,-66 1145,-96"/>
<text text-anchor="start" x="1033" y="-84" font-family="Helvetica,sans-Serif" font-size="10.00">src/protocols/webdav</text>
<text text-anchor="middle" x="1085" y="-73" font-family="Helvetica,sans-Serif" font-size="10.00">/get.c</text>
</a>
</g>
</g>
<!-- Node1&#45;&gt;Node15 -->
<g id="edge14_Node000001_Node000015" class="edge">
<title>Node1&#45;&gt;Node15</title>
<g id="a_edge14_Node000001_Node000015"><a xlink:title=" ">
<path fill="none" stroke="#63b8ff" d="M1236.98,-128.99C1203.67,-118.69 1161.71,-105.72 1130.32,-96.01"/>
<polygon fill="#63b8ff" stroke="#63b8ff" points="1235.99,-132.34 1246.57,-131.95 1238.05,-125.66 1235.99,-132.34"/>
</a>
</g>
</g>
<!-- Node16 -->
<g id="Node000016" class="node">
<title>Node16</title>
<g id="a_Node000016"><a xlink:href="webdav_2put_8c.html" target="_top" xlink:title=" ">
<polygon fill="white" stroke="#666666" points="1283,-96 1163,-96 1163,-66 1283,-66 1283,-96"/>
<text text-anchor="start" x="1171" y="-84" font-family="Helvetica,sans-Serif" font-size="10.00">src/protocols/webdav</text>
<text text-anchor="middle" x="1223" y="-73" font-family="Helvetica,sans-Serif" font-size="10.00">/put.c</text>
</a>
</g>
</g>
<!-- Node1&#45;&gt;Node16 -->
<g id="edge15_Node000001_Node000016" class="edge">
<title>Node1&#45;&gt;Node16</title>
<g id="a_edge15_Node000001_Node000016"><a xlink:title=" ">
<path fill="none" stroke="#63b8ff" d="M1269.28,-124.92C1259.1,-115.49 1247.37,-104.61 1238.27,-96.16"/>
<polygon fill="#63b8ff" stroke="#63b8ff" points="1266.97,-127.56 1276.69,-131.8 1271.74,-122.43 1266.97,-127.56"/>
</a>
</g>
</g>
<!-- Node17 -->
<g id="Node000017" class="node">
<title>Node17</title>
<g id="a_Node000017"><a xlink:href="put__body_8c.html" target="_top" xlink:title=" ">
<polygon fill="white" stroke="#666666" points="1421,-96 1301,-96 1301,-66 1421,-66 1421,-96"/>
<text text-anchor="start" x="1309" y="-84" font-family="Helvetica,sans-Serif" font-size="10.00">src/protocols/webdav</text>
<text text-anchor="middle" x="1361" y="-73" font-family="Helvetica,sans-Serif" font-size="10.00">/put_body.c</text>
</a>
</g>
</g>
<!-- Node1&#45;&gt;Node17 -->
<g id="edge16_Node000001_Node000017" class="edge">
<title>Node1&#45;&gt;Node17</title>
<g id="a_edge16_Node000001_Node000017"><a xlink:title=" ">
<path fill="none" stroke="#63b8ff" d="M1314.72,-124.92C1324.9,-115.49 1336.63,-104.61 1345.73,-96.16"/>
<polygon fill="#63b8ff" stroke="#63b8ff" points="1312.26,-122.43 1307.31,-131.8 1317.03,-127.56 1312.26,-122.43"/>
</a>
</g>
</g>
<!-- Node18 -->
<g id="Node000018" class="node">
<title>Node18</title>
<g id="a_Node000018"><a xlink:href="put__setup_8c.html" target="_top" xlink:title=" ">
<polygon fill="white" stroke="#666666" points="1559,-96 1439,-96 1439,-66 1559,-66 1559,-96"/>
<text text-anchor="start" x="1447" y="-84" font-family="Helvetica,sans-Serif" font-size="10.00">src/protocols/webdav</text>
<text text-anchor="middle" x="1499" y="-73" font-family="Helvetica,sans-Serif" font-size="10.00">/put_setup.c</text>
</a>
</g>
</g>
<!-- Node1&#45;&gt;Node18 -->
<g id="edge17_Node000001_Node000018" class="edge">
<title>Node1&#45;&gt;Node18</title>
<g id="a_edge17_Node000001_Node000018"><a xlink:title=" ">
<path fill="none" stroke="#63b8ff" d="M1347.02,-128.99C1380.33,-118.69 1422.29,-105.72 1453.68,-96.01"/>
<polygon fill="#63b8ff" stroke="#63b8ff" points="1345.95,-125.66 1337.43,-131.95 1348.01,-132.34 1345.95,-125.66"/>
</a>
</g>
</g>
<!-- Node19 -->
<g id="Node000019" class="node">
<title>Node19</title>
<g id="a_Node000019"><a xlink:href="tpc_8c.html" target="_top" xlink:title=" ">
<polygon fill="white" stroke="#666666" points="1697,-96 1577,-96 1577,-66 1697,-66 1697,-96"/>
<text text-anchor="start" x="1585" y="-84" font-family="Helvetica,sans-Serif" font-size="10.00">src/protocols/webdav</text>
<text text-anchor="middle" x="1637" y="-73" font-family="Helvetica,sans-Serif" font-size="10.00">/tpc.c</text>
</a>
</g>
</g>
<!-- Node1&#45;&gt;Node19 -->
<g id="edge18_Node000001_Node000019" class="edge">
<title>Node1&#45;&gt;Node19</title>
<g id="a_edge18_Node000001_Node000019"><a xlink:title=" ">
<path fill="none" stroke="#63b8ff" d="M1378.19,-130.86C1432.67,-121.18 1504.52,-108.19 1568,-96 1570.88,-95.45 1573.83,-94.87 1576.8,-94.29"/>
<polygon fill="#63b8ff" stroke="#63b8ff" points="1377.46,-127.44 1368.23,-132.63 1378.68,-134.33 1377.46,-127.44"/>
</a>
</g>
</g>
<!-- Node20 -->
<g id="Node000020" class="node">
<title>Node20</title>
<g id="a_Node000020"><a xlink:href="tpc__copy_8c.html" target="_top" xlink:title=" ">
<polygon fill="white" stroke="#666666" points="1835,-96 1715,-96 1715,-66 1835,-66 1835,-96"/>
<text text-anchor="start" x="1723" y="-84" font-family="Helvetica,sans-Serif" font-size="10.00">src/protocols/webdav</text>
<text text-anchor="middle" x="1775" y="-73" font-family="Helvetica,sans-Serif" font-size="10.00">/tpc_copy.c</text>
</a>
</g>
</g>
<!-- Node1&#45;&gt;Node20 -->
<g id="edge19_Node000001_Node000020" class="edge">
<title>Node1&#45;&gt;Node20</title>
<g id="a_edge19_Node000001_Node000020"><a xlink:title=" ">
<path fill="none" stroke="#63b8ff" d="M1378.18,-137.62C1462.12,-128.98 1593.2,-114.23 1706,-96 1708.9,-95.53 1711.86,-95.03 1714.84,-94.5"/>
<polygon fill="#63b8ff" stroke="#63b8ff" points="1377.77,-134.15 1368.18,-138.65 1378.48,-141.11 1377.77,-134.15"/>
</a>
</g>
</g>
<!-- Node21 -->
<g id="Node000021" class="node">
<title>Node21</title>
<g id="a_Node000021"><a xlink:href="tpc__marker_8c.html" target="_top" xlink:title=" ">
<polygon fill="white" stroke="#666666" points="1973,-96 1853,-96 1853,-66 1973,-66 1973,-96"/>
<text text-anchor="start" x="1861" y="-84" font-family="Helvetica,sans-Serif" font-size="10.00">src/protocols/webdav</text>
<text text-anchor="middle" x="1913" y="-73" font-family="Helvetica,sans-Serif" font-size="10.00">/tpc_marker.c</text>
</a>
</g>
</g>
<!-- Node1&#45;&gt;Node21 -->
<g id="edge20_Node000001_Node000021" class="edge">
<title>Node1&#45;&gt;Node21</title>
<g id="a_edge20_Node000001_Node000021"><a xlink:title=" ">
<path fill="none" stroke="#63b8ff" d="M1378.49,-141.12C1487.45,-134.28 1680.28,-119.95 1844,-96 1846.9,-95.58 1849.87,-95.11 1852.86,-94.61"/>
<polygon fill="#63b8ff" stroke="#63b8ff" points="1377.97,-137.64 1368.21,-141.75 1378.4,-144.63 1377.97,-137.64"/>
</a>
</g>
</g>
<!-- Node22 -->
<g id="Node000022" class="node">
<title>Node22</title>
<g id="a_Node000022"><a xlink:href="tpc__marker__start_8c.html" target="_top" xlink:title=" ">
<polygon fill="white" stroke="#666666" points="2111,-96 1991,-96 1991,-66 2111,-66 2111,-96"/>
<text text-anchor="start" x="1999" y="-84" font-family="Helvetica,sans-Serif" font-size="10.00">src/protocols/webdav</text>
<text text-anchor="middle" x="2051" y="-73" font-family="Helvetica,sans-Serif" font-size="10.00">/tpc_marker_start.c</text>
</a>
</g>
</g>
<!-- Node1&#45;&gt;Node22 -->
<g id="edge21_Node000001_Node000022" class="edge">
<title>Node1&#45;&gt;Node22</title>
<g id="a_edge21_Node000001_Node000022"><a xlink:title=" ">
<path fill="none" stroke="#63b8ff" d="M1378.51,-143.28C1509.57,-138.36 1766.08,-125.61 1982,-96 1984.91,-95.6 1987.87,-95.15 1990.87,-94.67"/>
<polygon fill="#63b8ff" stroke="#63b8ff" points="1378.01,-139.8 1368.14,-143.66 1378.26,-146.79 1378.01,-139.8"/>
</a>
</g>
</g>
<!-- Node23 -->
<g id="Node000023" class="node">
<title>Node23</title>
<g id="a_Node000023"><a xlink:href="tpc__pull_8c.html" target="_top" xlink:title=" ">
<polygon fill="white" stroke="#666666" points="2249,-96 2129,-96 2129,-66 2249,-66 2249,-96"/>
<text text-anchor="start" x="2137" y="-84" font-family="Helvetica,sans-Serif" font-size="10.00">src/protocols/webdav</text>
<text text-anchor="middle" x="2189" y="-73" font-family="Helvetica,sans-Serif" font-size="10.00">/tpc_pull.c</text>
</a>
</g>
</g>
<!-- Node1&#45;&gt;Node23 -->
<g id="edge22_Node000001_Node000023" class="edge">
<title>Node1&#45;&gt;Node23</title>
<g id="a_edge22_Node000001_Node000023"><a xlink:title=" ">
<path fill="none" stroke="#63b8ff" d="M1378.39,-144.75C1529.41,-141.69 1850.95,-131.24 2120,-96 2122.91,-95.62 2125.88,-95.19 2128.87,-94.72"/>
<polygon fill="#63b8ff" stroke="#63b8ff" points="1378.18,-141.26 1368.25,-144.95 1378.32,-148.26 1378.18,-141.26"/>
</a>
</g>
</g>
<!-- Node24 -->
<g id="Node000024" class="node">
<title>Node24</title>
<g id="a_Node000024"><a xlink:href="tpc__push_8c.html" target="_top" xlink:title=" ">
<polygon fill="white" stroke="#666666" points="2387,-96 2267,-96 2267,-66 2387,-66 2387,-96"/>
<text text-anchor="start" x="2275" y="-84" font-family="Helvetica,sans-Serif" font-size="10.00">src/protocols/webdav</text>
<text text-anchor="middle" x="2327" y="-73" font-family="Helvetica,sans-Serif" font-size="10.00">/tpc_push.c</text>
</a>
</g>
</g>
<!-- Node1&#45;&gt;Node24 -->
<g id="edge23_Node000001_Node000024" class="edge">
<title>Node1&#45;&gt;Node24</title>
<g id="a_edge23_Node000001_Node000024"><a xlink:title=" ">
<path fill="none" stroke="#63b8ff" d="M1378.21,-145.82C1547.53,-144.52 1935.14,-136.88 2258,-96 2260.91,-95.63 2263.88,-95.21 2266.88,-94.75"/>
<polygon fill="#63b8ff" stroke="#63b8ff" points="1378.08,-142.32 1368.11,-145.89 1378.13,-149.32 1378.08,-142.32"/>
</a>
</g>
</g>
<!-- Node25 -->
<g id="Node000025" class="node">
<title>Node25</title>
<g id="a_Node000025"><a xlink:href="tpc__thread_8c.html" target="_top" xlink:title=" ">
<polygon fill="white" stroke="#666666" points="2525,-96 2405,-96 2405,-66 2525,-66 2525,-96"/>
<text text-anchor="start" x="2413" y="-84" font-family="Helvetica,sans-Serif" font-size="10.00">src/protocols/webdav</text>
<text text-anchor="middle" x="2465" y="-73" font-family="Helvetica,sans-Serif" font-size="10.00">/tpc_thread.c</text>
</a>
</g>
</g>
<!-- Node1&#45;&gt;Node25 -->
<g id="edge24_Node000001_Node000025" class="edge">
<title>Node1&#45;&gt;Node25</title>
<g id="a_edge24_Node000001_Node000025"><a xlink:title=" ">
<path fill="none" stroke="#63b8ff" d="M1378.32,-146.62C1564.82,-146.98 2019,-142.5 2396,-96 2398.91,-95.64 2401.88,-95.23 2404.88,-94.77"/>
<polygon fill="#63b8ff" stroke="#63b8ff" points="1378.31,-143.12 1368.3,-146.6 1378.29,-150.12 1378.31,-143.12"/>
</a>
</g>
</g>
<!-- Node8 -->
<g id="Node000008" class="node">
<title>Node8</title>
<g id="a_Node000008"><a xlink:href="s3_2put_8c.html" target="_top" xlink:title=" ">
<polygon fill="white" stroke="#666666" points="551,-24.5 431,-24.5 431,-5.5 551,-5.5 551,-24.5"/>
<text text-anchor="middle" x="491" y="-12.5" font-family="Helvetica,sans-Serif" font-size="10.00">src/protocols/s3/put.c</text>
</a>
</g>
</g>
<!-- Node7&#45;&gt;Node8 -->
<g id="edge7_Node000007_Node000008" class="edge">
<title>Node7&#45;&gt;Node8</title>
<g id="a_edge7_Node000007_Node000008"><a xlink:title=" ">
<path fill="none" stroke="#63b8ff" d="M756.49,-65.94C668.11,-48.22 644.32,-46.26 560,-30 551.12,-28.29 541.61,-26.4 532.57,-24.57"/>
<polygon fill="#63b8ff" stroke="#63b8ff" points="755.92,-69.4 766.41,-67.95 757.3,-62.54 755.92,-69.4"/>
</a>
</g>
</g>
<!-- Node9 -->
<g id="Node000009" class="node">
<title>Node9</title>
<g id="a_Node000009"><a xlink:href="put__aio_8c.html" target="_top" xlink:title=" ">
<polygon fill="white" stroke="#666666" points="681,-30 569,-30 569,0 681,0 681,-30"/>
<text text-anchor="start" x="577" y="-18" font-family="Helvetica,sans-Serif" font-size="10.00">src/protocols/s3/put</text>
<text text-anchor="middle" x="625" y="-7" font-family="Helvetica,sans-Serif" font-size="10.00">_aio.c</text>
</a>
</g>
</g>
<!-- Node7&#45;&gt;Node9 -->
<g id="edge8_Node000007_Node000009" class="edge">
<title>Node7&#45;&gt;Node9</title>
<g id="a_edge8_Node000007_Node000009"><a xlink:title=" ">
<path fill="none" stroke="#63b8ff" d="M767.36,-62.72C736.11,-52.47 697.01,-39.63 667.69,-30.01"/>
<polygon fill="#63b8ff" stroke="#63b8ff" points="766.61,-66.16 777.21,-65.95 768.8,-59.51 766.61,-66.16"/>
</a>
</g>
</g>
<!-- Node10 -->
<g id="Node000010" class="node">
<title>Node10</title>
<g id="a_Node000010"><a xlink:href="put__chunk_8c.html" target="_top" xlink:title=" ">
<polygon fill="white" stroke="#666666" points="811,-30 699,-30 699,0 811,0 811,-30"/>
<text text-anchor="start" x="707" y="-18" font-family="Helvetica,sans-Serif" font-size="10.00">src/protocols/s3/put</text>
<text text-anchor="middle" x="755" y="-7" font-family="Helvetica,sans-Serif" font-size="10.00">_chunk.c</text>
</a>
</g>
</g>
<!-- Node7&#45;&gt;Node10 -->
<g id="edge9_Node000007_Node000010" class="edge">
<title>Node7&#45;&gt;Node10</title>
<g id="a_edge9_Node000007_Node000010"><a xlink:title=" ">
<path fill="none" stroke="#63b8ff" d="M798.31,-58.65C788.79,-49.27 777.88,-38.53 769.39,-30.16"/>
<polygon fill="#63b8ff" stroke="#63b8ff" points="795.99,-61.27 805.57,-65.8 800.9,-56.29 795.99,-61.27"/>
</a>
</g>
</g>
<!-- Node11 -->
<g id="Node000011" class="node">
<title>Node11</title>
<g id="a_Node000011"><a xlink:href="put__finalize_8c.html" target="_top" xlink:title=" ">
<polygon fill="white" stroke="#666666" points="941,-30 829,-30 829,0 941,0 941,-30"/>
<text text-anchor="start" x="837" y="-18" font-family="Helvetica,sans-Serif" font-size="10.00">src/protocols/s3/put</text>
<text text-anchor="middle" x="885" y="-7" font-family="Helvetica,sans-Serif" font-size="10.00">_finalize.c</text>
</a>
</g>
</g>
<!-- Node7&#45;&gt;Node11 -->
<g id="edge10_Node000007_Node000011" class="edge">
<title>Node7&#45;&gt;Node11</title>
<g id="a_edge10_Node000007_Node000011"><a xlink:title=" ">
<path fill="none" stroke="#63b8ff" d="M841.69,-58.65C851.21,-49.27 862.12,-38.53 870.61,-30.16"/>
<polygon fill="#63b8ff" stroke="#63b8ff" points="839.1,-56.29 834.43,-65.8 844.01,-61.27 839.1,-56.29"/>
</a>
</g>
</g>
<!-- Node12 -->
<g id="Node000012" class="node">
<title>Node12</title>
<g id="a_Node000012"><a xlink:href="put__inner_8c.html" target="_top" xlink:title=" ">
<polygon fill="white" stroke="#666666" points="1071,-30 959,-30 959,0 1071,0 1071,-30"/>
<text text-anchor="start" x="967" y="-18" font-family="Helvetica,sans-Serif" font-size="10.00">src/protocols/s3/put</text>
<text text-anchor="middle" x="1015" y="-7" font-family="Helvetica,sans-Serif" font-size="10.00">_inner.c</text>
</a>
</g>
</g>
<!-- Node7&#45;&gt;Node12 -->
<g id="edge11_Node000007_Node000012" class="edge">
<title>Node7&#45;&gt;Node12</title>
<g id="a_edge11_Node000007_Node000012"><a xlink:title=" ">
<path fill="none" stroke="#63b8ff" d="M872.64,-62.72C903.89,-52.47 942.99,-39.63 972.31,-30.01"/>
<polygon fill="#63b8ff" stroke="#63b8ff" points="871.2,-59.51 862.79,-65.95 873.39,-66.16 871.2,-59.51"/>
</a>
</g>
</g>
<!-- Node13 -->
<g id="Node000013" class="node">
<title>Node13</title>
<g id="a_Node000013"><a xlink:href="put__stream_8c.html" target="_top" xlink:title=" ">
<polygon fill="white" stroke="#666666" points="1201,-30 1089,-30 1089,0 1201,0 1201,-30"/>
<text text-anchor="start" x="1097" y="-18" font-family="Helvetica,sans-Serif" font-size="10.00">src/protocols/s3/put</text>
<text text-anchor="middle" x="1145" y="-7" font-family="Helvetica,sans-Serif" font-size="10.00">_stream.c</text>
</a>
</g>
</g>
<!-- Node7&#45;&gt;Node13 -->
<g id="edge12_Node000007_Node000013" class="edge">
<title>Node7&#45;&gt;Node13</title>
<g id="a_edge12_Node000007_Node000013"><a xlink:title=" ">
<path fill="none" stroke="#63b8ff" d="M883.51,-65.95C971.9,-48.25 995.78,-46.76 1080,-30 1082.83,-29.44 1085.73,-28.85 1088.65,-28.25"/>
<polygon fill="#63b8ff" stroke="#63b8ff" points="882.7,-62.54 873.59,-67.95 884.08,-69.4 882.7,-62.54"/>
</a>
</g>
</g>
</g>
</svg>

<g id="navigator" transform="translate(0 0)" fill="#404254">
  <rect fill="#f2f5e9" fill-opacity="0.5" stroke="#606060" stroke-width=".5" x="0" y="0" width="60" height="60"/>
  <use id="zoomplus" xlink:href="#zoomPlus" x="17" y="9" onmousedown="handleZoom(evt,'in')"/>
  <use id="zoomminus" xlink:href="#zoomMin" x="42" y="9" onmousedown="handleZoom(evt,'out')"/>
  <use id="reset" xlink:href="#resetDef" x="30" y="36" onmousedown="handleReset()"/>
   <use id="arrowup" xlink:href="#arrowUp" x="0" y="0" onmousedown="handlePan(0,-1)"/>
  <use id="arrowright" xlink:href="#arrowRight" x="0" y="0" onmousedown="handlePan(1,0)"/>
  <use id="arrowdown" xlink:href="#arrowDown" x="0" y="0" onmousedown="handlePan(0,1)"/>
  <use id="arrowleft" xlink:href="#arrowLeft" x="0" y="0" onmousedown="handlePan(-1,0)"/>
</g>
<svg viewBox="0 0 15 15" width="100%" height="30px" preserveAspectRatio="xMaxYMin meet">
 <g id="arrow_out" transform="scale(0.3 0.3)">
  <a xlink:href="dashboard__tracking_8h__dep__incl_org.svg" target="_base">
   <rect id="button" ry="5" rx="5" y="6" x="6" height="38" width="38"
        fill="#f2f5e9" fill-opacity="0.5" stroke="#606060" stroke-width="1.0"/>
   <path id="arrow"
     d="M 11.500037,31.436501 C 11.940474,20.09759 22.043105,11.32322 32.158766,21.979434 L 37.068811,17.246167 C 37.068811,17.246167 37.088388,32 37.088388,32 L 22.160133,31.978069 C 22.160133,31.978069 26.997745,27.140456 26.997745,27.140456 C 18.528582,18.264221 13.291696,25.230495 11.500037,31.436501 z"
     style="fill:#404040;"/>
  </a>
 </g>
</svg>

<style type='text/css'>
<![CDATA[
[data-mouse-over-selected='false'] { opacity: 0.7; }
[data-mouse-over-selected='true']  { opacity: 1.0; }
]]>
</style>
<script type="application/ecmascript"><![CDATA[
document.addEventListener('DOMContentLoaded', (event) => {
  highlightEdges();
  highlightAdjacentNodes();
});
]]></script>
</svg>
