<?xml version="1.0" encoding="UTF-8" standalone="no"?>
<!DOCTYPE svg PUBLIC "-//W3C//DTD SVG 1.1//EN"
 "http://www.w3.org/Graphics/SVG/1.1/DTD/svg11.dtd">
<!-- Generated by graphviz version 2.43.0 (0)
 -->
<!-- Title: src/observability/dashboard/dashboard_json.h Pages: 1 -->
<svg width="1860pt" height="170pt"
 viewBox="0.00 0.00 1860.00 170.00" xmlns="http://www.w3.org/2000/svg" xmlns:xlink="http://www.w3.org/1999/xlink">
<g id="graph0" class="graph" transform="scale(1 1) rotate(0) translate(4 166)">
<title>src/observability/dashboard/dashboard_json.h</title>
<!-- Node1 -->
<g id="Node000001" class="node">
<title>Node1</title>
<g id="a_Node000001"><a xlink:title=" ">
<polygon fill="#999999" stroke="#666666" points="1512,-162 1360,-162 1360,-132 1512,-132 1512,-162"/>
<text text-anchor="start" x="1368" y="-150" font-family="Helvetica,sans-Serif" font-size="10.00">src/observability/dashboard</text>
<text text-anchor="middle" x="1436" y="-139" font-family="Helvetica,sans-Serif" font-size="10.00">/dashboard_json.h</text>
</a>
</g>
</g>
<!-- Node2 -->
<g id="Node000002" class="node">
<title>Node2</title>
<g id="a_Node000002"><a xlink:href="dashboard__api__admin__internal_8h.html" target="_top" xlink:title=" ">
<polygon fill="white" stroke="#666666" points="590.5,-96 411.5,-96 411.5,-66 590.5,-66 590.5,-96"/>
<text text-anchor="start" x="419.5" y="-84" font-family="Helvetica,sans-Serif" font-size="10.00">src/observability/dashboard</text>
<text text-anchor="middle" x="501" y="-73" font-family="Helvetica,sans-Serif" font-size="10.00">/dashboard_api_admin_internal.h</text>
</a>
</g>
</g>
<!-- Node1&#45;&gt;Node2 -->
<g id="edge1_Node000001_Node000002" class="edge">
<title>Node1&#45;&gt;Node2</title>
<g id="a_edge1_Node000001_Node000002"><a xlink:title=" ">
<path fill="none" stroke="#63b8ff" d="M1349.84,-140.1C1172.93,-127.99 770.28,-100.43 590.54,-88.13"/>
<polygon fill="#63b8ff" stroke="#63b8ff" points="1349.67,-143.6 1359.88,-140.79 1350.14,-136.61 1349.67,-143.6"/>
</a>
</g>
</g>
<!-- Node8 -->
<g id="Node000008" class="node">
<title>Node8</title>
<g id="a_Node000008"><a xlink:href="dashboard__api__internal_8h.html" target="_top" xlink:title=" ">
<polygon fill="white" stroke="#666666" points="1342,-96 1190,-96 1190,-66 1342,-66 1342,-96"/>
<text text-anchor="start" x="1198" y="-84" font-family="Helvetica,sans-Serif" font-size="10.00">src/observability/dashboard</text>
<text text-anchor="middle" x="1266" y="-73" font-family="Helvetica,sans-Serif" font-size="10.00">/dashboard_api_internal.h</text>
</a>
</g>
</g>
<!-- Node1&#45;&gt;Node8 -->
<g id="edge7_Node000001_Node000008" class="edge">
<title>Node1&#45;&gt;Node8</title>
<g id="a_edge7_Node000001_Node000008"><a xlink:title=" ">
<path fill="none" stroke="#63b8ff" d="M1389.04,-128.32C1361.99,-118.14 1328.45,-105.51 1303.22,-96.01"/>
<polygon fill="#63b8ff" stroke="#63b8ff" points="1388.1,-131.71 1398.69,-131.95 1390.57,-125.16 1388.1,-131.71"/>
</a>
</g>
</g>
<!-- Node15 -->
<g id="Node000015" class="node">
<title>Node15</title>
<g id="a_Node000015"><a xlink:href="dashboard__json_8c.html" target="_top" xlink:title=" ">
<polygon fill="white" stroke="#666666" points="1512,-96 1360,-96 1360,-66 1512,-66 1512,-96"/>
<text text-anchor="start" x="1368" y="-84" font-family="Helvetica,sans-Serif" font-size="10.00">src/observability/dashboard</text>
<text text-anchor="middle" x="1436" y="-73" font-family="Helvetica,sans-Serif" font-size="10.00">/dashboard_json.c</text>
</a>
</g>
</g>
<!-- Node1&#45;&gt;Node15 -->
<g id="edge14_Node000001_Node000015" class="edge">
<title>Node1&#45;&gt;Node15</title>
<g id="a_edge14_Node000001_Node000015"><a xlink:title=" ">
<path fill="none" stroke="#63b8ff" d="M1436,-121.54C1436,-112.96 1436,-103.61 1436,-96.16"/>
<polygon fill="#63b8ff" stroke="#63b8ff" points="1432.5,-121.8 1436,-131.8 1439.5,-121.8 1432.5,-121.8"/>
</a>
</g>
</g>
<!-- Node16 -->
<g id="Node000016" class="node">
<title>Node16</title>
<g id="a_Node000016"><a xlink:href="files_8c.html" target="_top" xlink:title=" ">
<polygon fill="white" stroke="#666666" points="1682,-96 1530,-96 1530,-66 1682,-66 1682,-96"/>
<text text-anchor="start" x="1538" y="-84" font-family="Helvetica,sans-Serif" font-size="10.00">src/observability/dashboard</text>
<text text-anchor="middle" x="1606" y="-73" font-family="Helvetica,sans-Serif" font-size="10.00">/files.c</text>
</a>
</g>
</g>
<!-- Node1&#45;&gt;Node16 -->
<g id="edge15_Node000001_Node000016" class="edge">
<title>Node1&#45;&gt;Node16</title>
<g id="a_edge15_Node000001_Node000016"><a xlink:title=" ">
<path fill="none" stroke="#63b8ff" d="M1482.96,-128.32C1510.01,-118.14 1543.55,-105.51 1568.78,-96.01"/>
<polygon fill="#63b8ff" stroke="#63b8ff" points="1481.43,-125.16 1473.31,-131.95 1483.9,-131.71 1481.43,-125.16"/>
</a>
</g>
</g>
<!-- Node17 -->
<g id="Node000017" class="node">
<title>Node17</title>
<g id="a_Node000017"><a xlink:href="vfs__browse_8c.html" target="_top" xlink:title=" ">
<polygon fill="white" stroke="#666666" points="1852,-96 1700,-96 1700,-66 1852,-66 1852,-96"/>
<text text-anchor="start" x="1708" y="-84" font-family="Helvetica,sans-Serif" font-size="10.00">src/observability/dashboard</text>
<text text-anchor="middle" x="1776" y="-73" font-family="Helvetica,sans-Serif" font-size="10.00">/vfs_browse.c</text>
</a>
</g>
</g>
<!-- Node1&#45;&gt;Node17 -->
<g id="edge16_Node000001_Node000017" class="edge">
<title>Node1&#45;&gt;Node17</title>
<g id="a_edge16_Node000001_Node000017"><a xlink:title=" ">
<path fill="none" stroke="#63b8ff" d="M1520.79,-130.04C1576.33,-119.59 1648.23,-106.05 1701.56,-96.01"/>
<polygon fill="#63b8ff" stroke="#63b8ff" points="1519.79,-126.67 1510.61,-131.95 1521.09,-133.54 1519.79,-126.67"/>
</a>
</g>
</g>
<!-- Node3 -->
<g id="Node000003" class="node">
<title>Node3</title>
<g id="a_Node000003"><a xlink:href="api__admin_8c.html" target="_top" xlink:title=" ">
<polygon fill="white" stroke="#666666" points="152,-30 0,-30 0,0 152,0 152,-30"/>
<text text-anchor="start" x="8" y="-18" font-family="Helvetica,sans-Serif" font-size="10.00">src/observability/dashboard</text>
<text text-anchor="middle" x="76" y="-7" font-family="Helvetica,sans-Serif" font-size="10.00">/api_admin.c</text>
</a>
</g>
</g>
<!-- Node2&#45;&gt;Node3 -->
<g id="edge2_Node000002_Node000003" class="edge">
<title>Node2&#45;&gt;Node3</title>
<g id="a_edge2_Node000002_Node000003"><a xlink:title=" ">
<path fill="none" stroke="#63b8ff" d="M401.21,-65.79C333.42,-56.02 241.74,-42.59 161,-30 158.19,-29.56 155.33,-29.11 152.45,-28.65"/>
<polygon fill="#63b8ff" stroke="#63b8ff" points="401.06,-69.3 411.45,-67.26 402.05,-62.37 401.06,-69.3"/>
</a>
</g>
</g>
<!-- Node4 -->
<g id="Node000004" class="node">
<title>Node4</title>
<g id="a_Node000004"><a xlink:href="api__admin__cluster_8c.html" target="_top" xlink:title=" ">
<polygon fill="white" stroke="#666666" points="322,-30 170,-30 170,0 322,0 322,-30"/>
<text text-anchor="start" x="178" y="-18" font-family="Helvetica,sans-Serif" font-size="10.00">src/observability/dashboard</text>
<text text-anchor="middle" x="246" y="-7" font-family="Helvetica,sans-Serif" font-size="10.00">/api_admin_cluster.c</text>
</a>
</g>
</g>
<!-- Node2&#45;&gt;Node4 -->
<g id="edge3_Node000002_Node000004" class="edge">
<title>Node2&#45;&gt;Node4</title>
<g id="a_edge3_Node000002_Node000004"><a xlink:title=" ">
<path fill="none" stroke="#63b8ff" d="M435.33,-63.52C393.97,-53.14 341.16,-39.88 301.83,-30.01"/>
<polygon fill="#63b8ff" stroke="#63b8ff" points="434.49,-66.92 445.04,-65.95 436.19,-60.13 434.49,-66.92"/>
</a>
</g>
</g>
<!-- Node5 -->
<g id="Node000005" class="node">
<title>Node5</title>
<g id="a_Node000005"><a xlink:href="api__admin__config_8c.html" target="_top" xlink:title=" ">
<polygon fill="white" stroke="#666666" points="492,-30 340,-30 340,0 492,0 492,-30"/>
<text text-anchor="start" x="348" y="-18" font-family="Helvetica,sans-Serif" font-size="10.00">src/observability/dashboard</text>
<text text-anchor="middle" x="416" y="-7" font-family="Helvetica,sans-Serif" font-size="10.00">/api_admin_config.c</text>
</a>
</g>
</g>
<!-- Node2&#45;&gt;Node5 -->
<g id="edge4_Node000002_Node000005" class="edge">
<title>Node2&#45;&gt;Node5</title>
<g id="a_edge4_Node000002_Node000005"><a xlink:title=" ">
<path fill="none" stroke="#63b8ff" d="M474.11,-59.75C461.33,-50.13 446.36,-38.86 434.81,-30.16"/>
<polygon fill="#63b8ff" stroke="#63b8ff" points="472.04,-62.58 482.14,-65.8 476.25,-56.99 472.04,-62.58"/>
</a>
</g>
</g>
<!-- Node6 -->
<g id="Node000006" class="node">
<title>Node6</title>
<g id="a_Node000006"><a xlink:href="api__admin__proxy_8c.html" target="_top" xlink:title=" ">
<polygon fill="white" stroke="#666666" points="662,-30 510,-30 510,0 662,0 662,-30"/>
<text text-anchor="start" x="518" y="-18" font-family="Helvetica,sans-Serif" font-size="10.00">src/observability/dashboard</text>
<text text-anchor="middle" x="586" y="-7" font-family="Helvetica,sans-Serif" font-size="10.00">/api_admin_proxy.c</text>
</a>
</g>
</g>
<!-- Node2&#45;&gt;Node6 -->
<g id="edge5_Node000002_Node000006" class="edge">
<title>Node2&#45;&gt;Node6</title>
<g id="a_edge5_Node000002_Node000006"><a xlink:title=" ">
<path fill="none" stroke="#63b8ff" d="M527.89,-59.75C540.67,-50.13 555.64,-38.86 567.19,-30.16"/>
<polygon fill="#63b8ff" stroke="#63b8ff" points="525.75,-56.99 519.86,-65.8 529.96,-62.58 525.75,-56.99"/>
</a>
</g>
</g>
<!-- Node7 -->
<g id="Node000007" class="node">
<title>Node7</title>
<g id="a_Node000007"><a xlink:href="api__admin__routing_8c.html" target="_top" xlink:title=" ">
<polygon fill="white" stroke="#666666" points="832,-30 680,-30 680,0 832,0 832,-30"/>
<text text-anchor="start" x="688" y="-18" font-family="Helvetica,sans-Serif" font-size="10.00">src/observability/dashboard</text>
<text text-anchor="middle" x="756" y="-7" font-family="Helvetica,sans-Serif" font-size="10.00">/api_admin_routing.c</text>
</a>
</g>
</g>
<!-- Node2&#45;&gt;Node7 -->
<g id="edge6_Node000002_Node000007" class="edge">
<title>Node2&#45;&gt;Node7</title>
<g id="a_edge6_Node000002_Node000007"><a xlink:title=" ">
<path fill="none" stroke="#63b8ff" d="M566.67,-63.52C608.03,-53.14 660.84,-39.88 700.17,-30.01"/>
<polygon fill="#63b8ff" stroke="#63b8ff" points="565.81,-60.13 556.96,-65.95 567.51,-66.92 565.81,-60.13"/>
</a>
</g>
</g>
<!-- Node9 -->
<g id="Node000009" class="node">
<title>Node9</title>
<g id="a_Node000009"><a xlink:href="api_8c.html" target="_top" xlink:title=" ">
<polygon fill="white" stroke="#666666" points="1002,-30 850,-30 850,0 1002,0 1002,-30"/>
<text text-anchor="start" x="858" y="-18" font-family="Helvetica,sans-Serif" font-size="10.00">src/observability/dashboard</text>
<text text-anchor="middle" x="926" y="-7" font-family="Helvetica,sans-Serif" font-size="10.00">/api.c</text>
</a>
</g>
</g>
<!-- Node8&#45;&gt;Node9 -->
<g id="edge8_Node000008_Node000009" class="edge">
<title>Node8&#45;&gt;Node9</title>
<g id="a_edge8_Node000008_Node000009"><a xlink:title=" ">
<path fill="none" stroke="#63b8ff" d="M1181.21,-64.04C1125.67,-53.59 1053.77,-40.05 1000.44,-30.01"/>
<polygon fill="#63b8ff" stroke="#63b8ff" points="1180.91,-67.54 1191.39,-65.95 1182.21,-60.67 1180.91,-67.54"/>
</a>
</g>
</g>
<!-- Node10 -->
<g id="Node000010" class="node">
<title>Node10</title>
<g id="a_Node000010"><a xlink:href="api__cvmfs_8c.html" target="_top" xlink:title=" ">
<polygon fill="white" stroke="#666666" points="1172,-30 1020,-30 1020,0 1172,0 1172,-30"/>
<text text-anchor="start" x="1028" y="-18" font-family="Helvetica,sans-Serif" font-size="10.00">src/observability/dashboard</text>
<text text-anchor="middle" x="1096" y="-7" font-family="Helvetica,sans-Serif" font-size="10.00">/api_cvmfs.c</text>
</a>
</g>
</g>
<!-- Node8&#45;&gt;Node10 -->
<g id="edge9_Node000008_Node000010" class="edge">
<title>Node8&#45;&gt;Node10</title>
<g id="a_edge9_Node000008_Node000010"><a xlink:title=" ">
<path fill="none" stroke="#63b8ff" d="M1219.04,-62.32C1191.99,-52.14 1158.45,-39.51 1133.22,-30.01"/>
<polygon fill="#63b8ff" stroke="#63b8ff" points="1218.1,-65.71 1228.69,-65.95 1220.57,-59.16 1218.1,-65.71"/>
</a>
</g>
</g>
<!-- Node11 -->
<g id="Node000011" class="node">
<title>Node11</title>
<g id="a_Node000011"><a xlink:href="api__ratelimit_8c.html" target="_top" xlink:title=" ">
<polygon fill="white" stroke="#666666" points="1342,-30 1190,-30 1190,0 1342,0 1342,-30"/>
<text text-anchor="start" x="1198" y="-18" font-family="Helvetica,sans-Serif" font-size="10.00">src/observability/dashboard</text>
<text text-anchor="middle" x="1266" y="-7" font-family="Helvetica,sans-Serif" font-size="10.00">/api_ratelimit.c</text>
</a>
</g>
</g>
<!-- Node8&#45;&gt;Node11 -->
<g id="edge10_Node000008_Node000011" class="edge">
<title>Node8&#45;&gt;Node11</title>
<g id="a_edge10_Node000008_Node000011"><a xlink:title=" ">
<path fill="none" stroke="#63b8ff" d="M1266,-55.54C1266,-46.96 1266,-37.61 1266,-30.16"/>
<polygon fill="#63b8ff" stroke="#63b8ff" points="1262.5,-55.8 1266,-65.8 1269.5,-55.8 1262.5,-55.8"/>
</a>
</g>
</g>
<!-- Node12 -->
<g id="Node000012" class="node">
<title>Node12</title>
<g id="a_Node000012"><a xlink:href="api__snapshot_8c.html" target="_top" xlink:title=" ">
<polygon fill="white" stroke="#666666" points="1512,-30 1360,-30 1360,0 1512,0 1512,-30"/>
<text text-anchor="start" x="1368" y="-18" font-family="Helvetica,sans-Serif" font-size="10.00">src/observability/dashboard</text>
<text text-anchor="middle" x="1436" y="-7" font-family="Helvetica,sans-Serif" font-size="10.00">/api_snapshot.c</text>
</a>
</g>
</g>
<!-- Node8&#45;&gt;Node12 -->
<g id="edge11_Node000008_Node000012" class="edge">
<title>Node8&#45;&gt;Node12</title>
<g id="a_edge11_Node000008_Node000012"><a xlink:title=" ">
<path fill="none" stroke="#63b8ff" d="M1312.96,-62.32C1340.01,-52.14 1373.55,-39.51 1398.78,-30.01"/>
<polygon fill="#63b8ff" stroke="#63b8ff" points="1311.43,-59.16 1303.31,-65.95 1313.9,-65.71 1311.43,-59.16"/>
</a>
</g>
</g>
<!-- Node13 -->
<g id="Node000013" class="node">
<title>Node13</title>
<g id="a_Node000013"><a xlink:href="api__snapshot__panels_8c.html" target="_top" xlink:title=" ">
<polygon fill="white" stroke="#666666" points="1682,-30 1530,-30 1530,0 1682,0 1682,-30"/>
<text text-anchor="start" x="1538" y="-18" font-family="Helvetica,sans-Serif" font-size="10.00">src/observability/dashboard</text>
<text text-anchor="middle" x="1606" y="-7" font-family="Helvetica,sans-Serif" font-size="10.00">/api_snapshot_panels.c</text>
</a>
</g>
</g>
<!-- Node8&#45;&gt;Node13 -->
<g id="edge12_Node000008_Node000013" class="edge">
<title>Node8&#45;&gt;Node13</title>
<g id="a_edge12_Node000008_Node000013"><a xlink:title=" ">
<path fill="none" stroke="#63b8ff" d="M1350.79,-64.04C1406.33,-53.59 1478.23,-40.05 1531.56,-30.01"/>
<polygon fill="#63b8ff" stroke="#63b8ff" points="1349.79,-60.67 1340.61,-65.95 1351.09,-67.54 1349.79,-60.67"/>
</a>
</g>
</g>
<!-- Node14 -->
<g id="Node000014" class="node">
<title>Node14</title>
<g id="a_Node000014"><a xlink:href="api__transfers_8c.html" target="_top" xlink:title=" ">
<polygon fill="white" stroke="#666666" points="1852,-30 1700,-30 1700,0 1852,0 1852,-30"/>
<text text-anchor="start" x="1708" y="-18" font-family="Helvetica,sans-Serif" font-size="10.00">src/observability/dashboard</text>
<text text-anchor="middle" x="1776" y="-7" font-family="Helvetica,sans-Serif" font-size="10.00">/api_transfers.c</text>
</a>
</g>
</g>
<!-- Node8&#45;&gt;Node14 -->
<g id="edge13_Node000008_Node000014" class="edge">
<title>Node8&#45;&gt;Node14</title>
<g id="a_edge13_Node000008_Node000014"><a xlink:title=" ">
<path fill="none" stroke="#63b8ff" d="M1352.52,-65.85C1503.31,-45.83 1543.65,-49.92 1691,-30 1693.82,-29.62 1696.68,-29.22 1699.58,-28.8"/>
<polygon fill="#63b8ff" stroke="#63b8ff" points="1351.87,-62.4 1342.42,-67.2 1352.8,-69.34 1351.87,-62.4"/>
</a>
</g>
</g>
</g>
</svg>
