<?xml version="1.0" encoding="UTF-8" standalone="no"?>
<!DOCTYPE svg PUBLIC "-//W3C//DTD SVG 1.1//EN"
 "http://www.w3.org/Graphics/SVG/1.1/DTD/svg11.dtd">
<!-- Generated by graphviz version 2.43.0 (0)
 -->
<!-- Title: src/net Pages: 1 -->
<svg width="706pt" height="196pt"
 viewBox="0.00 0.00 706.00 196.00" xmlns="http://www.w3.org/2000/svg" xmlns:xlink="http://www.w3.org/1999/xlink">
<g id="graph0" class="graph" transform="scale(1 1) rotate(0) translate(4 192)">
<title>src/net</title>
<g id="clust1" class="cluster">
<title>clusterdir_68267d1309a1af8e8297ef4c3efbcdba</title>
<g id="a_clust1"><a xlink:href="dir_68267d1309a1af8e8297ef4c3efbcdba.html" target="_top" xlink:title="src">
<polygon fill="#edf0f7" stroke="#404040" stroke-dasharray="5,2" points="8,-8 8,-180 690,-180 690,-8 8,-8"/>
<text text-anchor="middle" x="349" y="-168" font-family="Helvetica,sans-Serif" font-size="10.00">src</text>
</a>
</g>
</g>
<g id="clust2" class="cluster">
<title>clusterdir_c72b25b75abe208498b36a3e44a3726c</title>
<g id="a_clust2"><a xlink:href="dir_c72b25b75abe208498b36a3e44a3726c.html" target="_top">
<polygon fill="#edf0f7" stroke="#404040" stroke-width="2" points="210,-63 210,-153 682,-153 682,-63 210,-63"/>
</a>
</g>
</g>
<!-- dir_79690749eba542503bb1a9a3dbb495e1 -->
<g id="node1" class="node">
<title>dir_79690749eba542503bb1a9a3dbb495e1</title>
<g id="a_node1"><a xlink:href="dir_79690749eba542503bb1a9a3dbb495e1.html" target="_top" xlink:title="protocols">
<polygon fill="#a2b4d6" stroke="red" points="228,-35 166,-35 166,-16 228,-16 228,-35"/>
<text text-anchor="middle" x="197" y="-23" font-family="Helvetica,sans-Serif" font-size="10.00">protocols</text>
</a>
</g>
</g>
<!-- dir_7d71b6c457a61cbf03a04bfdc57b6110 -->
<g id="node2" class="node">
<title>dir_7d71b6c457a61cbf03a04bfdc57b6110</title>
<g id="a_node2"><a xlink:href="dir_7d71b6c457a61cbf03a04bfdc57b6110.html" target="_top" xlink:title="fs">
<polygon fill="#a2b4d6" stroke="red" points="201.5,-90 172.5,-90 172.5,-71 201.5,-71 201.5,-90"/>
<text text-anchor="middle" x="187" y="-78" font-family="Helvetica,sans-Serif" font-size="10.00">fs</text>
</a>
</g>
</g>
<!-- dir_aebb8dcc11953d78e620bbef0b9e2183 -->
<g id="node3" class="node">
<title>dir_aebb8dcc11953d78e620bbef0b9e2183</title>
<g id="a_node3"><a xlink:href="dir_aebb8dcc11953d78e620bbef0b9e2183.html" target="_top" xlink:title="core">
<polygon fill="#a2b4d6" stroke="red" points="520,-35 482,-35 482,-16 520,-16 520,-35"/>
<text text-anchor="middle" x="501" y="-23" font-family="Helvetica,sans-Serif" font-size="10.00">core</text>
</a>
</g>
</g>
<!-- dir_b74ed0efa461d1dc3d2a2bcdca1c8270 -->
<g id="node4" class="node">
<title>dir_b74ed0efa461d1dc3d2a2bcdca1c8270</title>
<g id="a_node4"><a xlink:href="dir_b74ed0efa461d1dc3d2a2bcdca1c8270.html" target="_top" xlink:title="observability">
<polygon fill="#a2b4d6" stroke="red" points="144,-35 64,-35 64,-16 144,-16 144,-35"/>
<text text-anchor="middle" x="104" y="-23" font-family="Helvetica,sans-Serif" font-size="10.00">observability</text>
</a>
</g>
</g>
<!-- dir_ecb37285c0bc658c97bb749f37c59e79 -->
<g id="node5" class="node">
<title>dir_ecb37285c0bc658c97bb749f37c59e79</title>
<g id="a_node5"><a xlink:href="dir_ecb37285c0bc658c97bb749f37c59e79.html" target="_top" xlink:title="auth">
<polygon fill="#a2b4d6" stroke="red" points="134,-90 96,-90 96,-71 134,-71 134,-90"/>
<text text-anchor="middle" x="115" y="-78" font-family="Helvetica,sans-Serif" font-size="10.00">auth</text>
</a>
</g>
</g>
<!-- dir_c72b25b75abe208498b36a3e44a3726c -->
<g id="node6" class="node">
<title>dir_c72b25b75abe208498b36a3e44a3726c</title>
<text text-anchor="middle" x="658" y="-133" font-family="Helvetica,sans-Serif" font-size="10.00">net</text>
</g>
<!-- dir_6d888a84b0c270a1b51332647e519f43 -->
<g id="node7" class="node">
<title>dir_6d888a84b0c270a1b51332647e519f43</title>
<g id="a_node7"><a xlink:href="dir_6d888a84b0c270a1b51332647e519f43.html" target="_top" xlink:title="cms">
<polygon fill="#a2b4d6" stroke="#404040" points="332.5,-145 295.5,-145 295.5,-126 332.5,-126 332.5,-145"/>
<text text-anchor="middle" x="314" y="-133" font-family="Helvetica,sans-Serif" font-size="10.00">cms</text>
</a>
</g>
</g>
<!-- dir_6d888a84b0c270a1b51332647e519f43&#45;&gt;dir_79690749eba542503bb1a9a3dbb495e1 -->
<g id="edge2" class="edge">
<title>dir_6d888a84b0c270a1b51332647e519f43&#45;&gt;dir_79690749eba542503bb1a9a3dbb495e1</title>
<g id="a_edge2"><a xlink:href="dir_000019_000087.html" target="_top">
<path fill="none" stroke="#63b8ff" d="M295.5,-128.33C292.67,-127.49 289.77,-126.68 287,-126 243.15,-115.2 115.97,-124.65 87,-90 79.3,-80.79 79.98,-72.73 87,-63 95.36,-51.41 128.32,-41.45 155.99,-34.87"/>
<polygon fill="#63b8ff" stroke="#63b8ff" points="156.93,-38.25 165.9,-32.6 155.37,-31.42 156.93,-38.25"/>
</a>
</g>
<g id="a_edge2&#45;headlabel"><a xlink:href="dir_000019_000087.html" target="_top" xlink:title="5">
<text text-anchor="middle" x="154.06" y="-39.31" font-family="Helvetica,sans-Serif" font-size="10.00" fill="#63b8ff">5</text>
</a>
</g>
</g>
<!-- dir_6d888a84b0c270a1b51332647e519f43&#45;&gt;dir_7d71b6c457a61cbf03a04bfdc57b6110 -->
<g id="edge3" class="edge">
<title>dir_6d888a84b0c270a1b51332647e519f43&#45;&gt;dir_7d71b6c457a61cbf03a04bfdc57b6110</title>
<g id="a_edge3"><a xlink:href="dir_000019_000045.html" target="_top">
<path fill="none" stroke="#63b8ff" d="M295.2,-126.95C275.54,-119.01 243.55,-105.99 211.11,-92.16"/>
<polygon fill="#63b8ff" stroke="#63b8ff" points="212.07,-88.76 201.5,-88.04 209.32,-95.2 212.07,-88.76"/>
</a>
</g>
<g id="a_edge3&#45;headlabel"><a xlink:href="dir_000019_000045.html" target="_top" xlink:title="6">
<text text-anchor="middle" x="216.5" y="-85.07" font-family="Helvetica,sans-Serif" font-size="10.00" fill="#63b8ff">6</text>
</a>
</g>
</g>
<!-- dir_6d888a84b0c270a1b51332647e519f43&#45;&gt;dir_aebb8dcc11953d78e620bbef0b9e2183 -->
<g id="edge4" class="edge">
<title>dir_6d888a84b0c270a1b51332647e519f43&#45;&gt;dir_aebb8dcc11953d78e620bbef0b9e2183</title>
<g id="a_edge4"><a xlink:href="dir_000019_000028.html" target="_top">
<path fill="none" stroke="#63b8ff" d="M332.65,-128.75C335.77,-127.81 338.97,-126.87 342,-126 401.29,-109.04 430.01,-131.08 476,-90 488.83,-78.54 495.15,-59.65 498.21,-45.45"/>
<polygon fill="#63b8ff" stroke="#63b8ff" points="501.71,-45.76 500.04,-35.3 494.82,-44.52 501.71,-45.76"/>
</a>
</g>
<g id="a_edge4&#45;headlabel"><a xlink:href="dir_000019_000028.html" target="_top" xlink:title="15">
<text text-anchor="middle" x="503.87" y="-47.3" font-family="Helvetica,sans-Serif" font-size="10.00" fill="#63b8ff">15</text>
</a>
</g>
</g>
<!-- dir_6d888a84b0c270a1b51332647e519f43&#45;&gt;dir_b74ed0efa461d1dc3d2a2bcdca1c8270 -->
<g id="edge5" class="edge">
<title>dir_6d888a84b0c270a1b51332647e519f43&#45;&gt;dir_b74ed0efa461d1dc3d2a2bcdca1c8270</title>
<g id="a_edge5"><a xlink:href="dir_000019_000074.html" target="_top">
<path fill="none" stroke="#63b8ff" d="M295.21,-128.23C292.47,-127.42 289.67,-126.65 287,-126 240.98,-114.87 107.52,-126.2 77,-90 65.36,-76.2 76.79,-56.64 88.15,-42.88"/>
<polygon fill="#63b8ff" stroke="#63b8ff" points="90.98,-44.97 95.01,-35.17 85.75,-40.31 90.98,-44.97"/>
</a>
</g>
<g id="a_edge5&#45;headlabel"><a xlink:href="dir_000019_000074.html" target="_top" xlink:title="6">
<text text-anchor="middle" x="90.71" y="-47.04" font-family="Helvetica,sans-Serif" font-size="10.00" fill="#63b8ff">6</text>
</a>
</g>
</g>
<!-- dir_6d888a84b0c270a1b51332647e519f43&#45;&gt;dir_ecb37285c0bc658c97bb749f37c59e79 -->
<g id="edge6" class="edge">
<title>dir_6d888a84b0c270a1b51332647e519f43&#45;&gt;dir_ecb37285c0bc658c97bb749f37c59e79</title>
<g id="a_edge6"><a xlink:href="dir_000019_000008.html" target="_top">
<path fill="none" stroke="#63b8ff" d="M295.45,-128.52C292.62,-127.65 289.74,-126.79 287,-126 283.51,-125 192.2,-101.42 144.08,-89"/>
<polygon fill="#63b8ff" stroke="#63b8ff" points="144.79,-85.57 134.23,-86.46 143.04,-92.35 144.79,-85.57"/>
</a>
</g>
<g id="a_edge6&#45;headlabel"><a xlink:href="dir_000019_000008.html" target="_top" xlink:title="1">
<text text-anchor="middle" x="148.98" y="-81.22" font-family="Helvetica,sans-Serif" font-size="10.00" fill="#63b8ff">1</text>
</a>
</g>
</g>
<!-- dir_73c16f75e2e4e5b64ec0fe2e9150e57b -->
<g id="node10" class="node">
<title>dir_73c16f75e2e4e5b64ec0fe2e9150e57b</title>
<g id="a_node10"><a xlink:href="dir_73c16f75e2e4e5b64ec0fe2e9150e57b.html" target="_top" xlink:title="manager">
<polygon fill="#a2b4d6" stroke="#404040" points="320,-90 260,-90 260,-71 320,-71 320,-90"/>
<text text-anchor="middle" x="290" y="-78" font-family="Helvetica,sans-Serif" font-size="10.00">manager</text>
</a>
</g>
</g>
<!-- dir_6d888a84b0c270a1b51332647e519f43&#45;&gt;dir_73c16f75e2e4e5b64ec0fe2e9150e57b -->
<g id="edge1" class="edge">
<title>dir_6d888a84b0c270a1b51332647e519f43&#45;&gt;dir_73c16f75e2e4e5b64ec0fe2e9150e57b</title>
<g id="a_edge1"><a xlink:href="dir_000019_000064.html" target="_top">
<path fill="none" stroke="#63b8ff" d="M310.04,-125.75C306.79,-118.57 302.08,-108.18 298.05,-99.27"/>
<polygon fill="#63b8ff" stroke="#63b8ff" points="301.2,-97.75 293.89,-90.09 294.83,-100.64 301.2,-97.75"/>
</a>
</g>
<g id="a_edge1&#45;headlabel"><a xlink:href="dir_000019_000064.html" target="_top" xlink:title="9">
<text text-anchor="middle" x="305.27" y="-97.36" font-family="Helvetica,sans-Serif" font-size="10.00" fill="#63b8ff">9</text>
</a>
</g>
</g>
<!-- dir_5d2593107986b059a54129b6d0df1872 -->
<g id="node8" class="node">
<title>dir_5d2593107986b059a54129b6d0df1872</title>
<g id="a_node8"><a xlink:href="dir_5d2593107986b059a54129b6d0df1872.html" target="_top" xlink:title="guard">
<polygon fill="#a2b4d6" stroke="#404040" points="432,-90 388,-90 388,-71 432,-71 432,-90"/>
<text text-anchor="middle" x="410" y="-78" font-family="Helvetica,sans-Serif" font-size="10.00">guard</text>
</a>
</g>
</g>
<!-- dir_2d4a43053a38634deace24d2a62f05ee -->
<g id="node9" class="node">
<title>dir_2d4a43053a38634deace24d2a62f05ee</title>
<g id="a_node9"><a xlink:href="dir_2d4a43053a38634deace24d2a62f05ee.html" target="_top" xlink:title="httpguard">
<polygon fill="#a2b4d6" stroke="#404040" points="624,-145 560,-145 560,-126 624,-126 624,-145"/>
<text text-anchor="middle" x="592" y="-133" font-family="Helvetica,sans-Serif" font-size="10.00">httpguard</text>
</a>
</g>
</g>
<!-- dir_2d4a43053a38634deace24d2a62f05ee&#45;&gt;dir_5d2593107986b059a54129b6d0df1872 -->
<g id="edge7" class="edge">
<title>dir_2d4a43053a38634deace24d2a62f05ee&#45;&gt;dir_5d2593107986b059a54129b6d0df1872</title>
<g id="a_edge7"><a xlink:href="dir_000059_000052.html" target="_top">
<path fill="none" stroke="#63b8ff" d="M562.76,-125.98C529.7,-116.36 476.06,-100.74 441.93,-90.8"/>
<polygon fill="#63b8ff" stroke="#63b8ff" points="442.59,-87.35 432.01,-87.91 440.64,-94.07 442.59,-87.35"/>
</a>
</g>
<g id="a_edge7&#45;headlabel"><a xlink:href="dir_000059_000052.html" target="_top" xlink:title="1">
<text text-anchor="middle" x="446.84" y="-83.13" font-family="Helvetica,sans-Serif" font-size="10.00" fill="#63b8ff">1</text>
</a>
</g>
</g>
<!-- dir_73c16f75e2e4e5b64ec0fe2e9150e57b&#45;&gt;dir_aebb8dcc11953d78e620bbef0b9e2183 -->
<g id="edge8" class="edge">
<title>dir_73c16f75e2e4e5b64ec0fe2e9150e57b&#45;&gt;dir_aebb8dcc11953d78e620bbef0b9e2183</title>
<g id="a_edge8"><a xlink:href="dir_000064_000028.html" target="_top">
<path fill="none" stroke="#63b8ff" d="M308.38,-70.87C314.8,-68.09 322.13,-65.16 329,-63 378.22,-47.52 437.42,-36.57 471.97,-30.92"/>
<polygon fill="#63b8ff" stroke="#63b8ff" points="472.54,-34.37 481.86,-29.33 471.43,-27.46 472.54,-34.37"/>
</a>
</g>
<g id="a_edge8&#45;headlabel"><a xlink:href="dir_000064_000028.html" target="_top" xlink:title="15">
<text text-anchor="middle" x="469.44" y="-35.24" font-family="Helvetica,sans-Serif" font-size="10.00" fill="#63b8ff">15</text>
</a>
</g>
</g>
<!-- dir_73c16f75e2e4e5b64ec0fe2e9150e57b&#45;&gt;dir_b74ed0efa461d1dc3d2a2bcdca1c8270 -->
<g id="edge9" class="edge">
<title>dir_73c16f75e2e4e5b64ec0fe2e9150e57b&#45;&gt;dir_b74ed0efa461d1dc3d2a2bcdca1c8270</title>
<g id="a_edge9"><a xlink:href="dir_000064_000074.html" target="_top">
<path fill="none" stroke="#63b8ff" d="M274.05,-70.88C268.46,-68.09 262.05,-65.17 256,-63 222.71,-51.08 183.94,-41.84 153.89,-35.64"/>
<polygon fill="#63b8ff" stroke="#63b8ff" points="154.55,-32.2 144.05,-33.66 153.16,-39.07 154.55,-32.2"/>
</a>
</g>
<g id="a_edge9&#45;headlabel"><a xlink:href="dir_000064_000074.html" target="_top" xlink:title="1">
<text text-anchor="middle" x="158.63" y="-27.63" font-family="Helvetica,sans-Serif" font-size="10.00" fill="#63b8ff">1</text>
</a>
</g>
</g>
<!-- dir_3fb5782e7f11c36f6a7ffa5786ce6250 -->
<g id="node11" class="node">
<title>dir_3fb5782e7f11c36f6a7ffa5786ce6250</title>
<g id="a_node11"><a xlink:href="dir_3fb5782e7f11c36f6a7ffa5786ce6250.html" target="_top" xlink:title="mirror">
<polygon fill="#a2b4d6" stroke="#404040" points="541.5,-145 494.5,-145 494.5,-126 541.5,-126 541.5,-145"/>
<text text-anchor="middle" x="518" y="-133" font-family="Helvetica,sans-Serif" font-size="10.00">mirror</text>
</a>
</g>
</g>
<!-- dir_3fb5782e7f11c36f6a7ffa5786ce6250&#45;&gt;dir_79690749eba542503bb1a9a3dbb495e1 -->
<g id="edge10" class="edge">
<title>dir_3fb5782e7f11c36f6a7ffa5786ce6250&#45;&gt;dir_79690749eba542503bb1a9a3dbb495e1</title>
<g id="a_edge10"><a xlink:href="dir_000069_000087.html" target="_top">
<path fill="none" stroke="#63b8ff" d="M494.27,-128.09C491.16,-127.34 488.01,-126.62 485,-126 381.92,-104.85 342.87,-141.31 251,-90 245.71,-87.04 224.2,-60.75 209.98,-42.94"/>
<polygon fill="#63b8ff" stroke="#63b8ff" points="212.65,-40.67 203.69,-35.01 207.17,-45.02 212.65,-40.67"/>
</a>
</g>
<g id="a_edge10&#45;headlabel"><a xlink:href="dir_000069_000087.html" target="_top" xlink:title="1">
<text text-anchor="middle" x="217.11" y="-39.21" font-family="Helvetica,sans-Serif" font-size="10.00" fill="#63b8ff">1</text>
</a>
</g>
</g>
<!-- dir_3fb5782e7f11c36f6a7ffa5786ce6250&#45;&gt;dir_aebb8dcc11953d78e620bbef0b9e2183 -->
<g id="edge11" class="edge">
<title>dir_3fb5782e7f11c36f6a7ffa5786ce6250&#45;&gt;dir_aebb8dcc11953d78e620bbef0b9e2183</title>
<g id="a_edge11"><a xlink:href="dir_000069_000028.html" target="_top">
<path fill="none" stroke="#63b8ff" d="M523.56,-125.9C531.64,-112.23 544.78,-84.85 536,-63 532.78,-54.98 526.86,-47.73 520.79,-41.85"/>
<polygon fill="#63b8ff" stroke="#63b8ff" points="523.04,-39.16 513.22,-35.17 518.4,-44.41 523.04,-39.16"/>
</a>
</g>
<g id="a_edge11&#45;headlabel"><a xlink:href="dir_000069_000028.html" target="_top" xlink:title="8">
<text text-anchor="middle" x="527.61" y="-36.91" font-family="Helvetica,sans-Serif" font-size="10.00" fill="#63b8ff">8</text>
</a>
</g>
</g>
<!-- dir_3fb5782e7f11c36f6a7ffa5786ce6250&#45;&gt;dir_b74ed0efa461d1dc3d2a2bcdca1c8270 -->
<g id="edge12" class="edge">
<title>dir_3fb5782e7f11c36f6a7ffa5786ce6250&#45;&gt;dir_b74ed0efa461d1dc3d2a2bcdca1c8270</title>
<g id="a_edge12"><a xlink:href="dir_000069_000074.html" target="_top">
<path fill="none" stroke="#63b8ff" d="M494.28,-128.05C491.17,-127.3 488.02,-126.6 485,-126 370.99,-103.47 321.86,-155.71 226,-90 214.68,-82.24 221.53,-71.8 211,-63 194.84,-49.49 173.43,-40.9 154.01,-35.47"/>
<polygon fill="#63b8ff" stroke="#63b8ff" points="154.63,-32.01 144.07,-32.91 152.88,-38.79 154.63,-32.01"/>
</a>
</g>
<g id="a_edge12&#45;headlabel"><a xlink:href="dir_000069_000074.html" target="_top" xlink:title="3">
<text text-anchor="middle" x="158.82" y="-27.66" font-family="Helvetica,sans-Serif" font-size="10.00" fill="#63b8ff">3</text>
</a>
</g>
</g>
<!-- dir_077ac7c5718cd11a37d5ae62d190a061 -->
<g id="node12" class="node">
<title>dir_077ac7c5718cd11a37d5ae62d190a061</title>
<g id="a_node12"><a xlink:href="dir_077ac7c5718cd11a37d5ae62d190a061.html" target="_top" xlink:title="proxy">
<polygon fill="#a2b4d6" stroke="#404040" points="476,-145 432,-145 432,-126 476,-126 476,-145"/>
<text text-anchor="middle" x="454" y="-133" font-family="Helvetica,sans-Serif" font-size="10.00">proxy</text>
</a>
</g>
</g>
<!-- dir_077ac7c5718cd11a37d5ae62d190a061&#45;&gt;dir_79690749eba542503bb1a9a3dbb495e1 -->
<g id="edge14" class="edge">
<title>dir_077ac7c5718cd11a37d5ae62d190a061&#45;&gt;dir_79690749eba542503bb1a9a3dbb495e1</title>
<g id="a_edge14"><a xlink:href="dir_000088_000087.html" target="_top">
<path fill="none" stroke="#63b8ff" d="M455.34,-125.54C457.06,-110.33 458.03,-79.51 441,-63 412.87,-35.74 300.37,-28.8 238.42,-27.06"/>
<polygon fill="#63b8ff" stroke="#63b8ff" points="238.29,-23.56 228.21,-26.81 238.12,-30.55 238.29,-23.56"/>
</a>
</g>
<g id="a_edge14&#45;headlabel"><a xlink:href="dir_000088_000087.html" target="_top" xlink:title="18">
<text text-anchor="middle" x="241.96" y="-18.31" font-family="Helvetica,sans-Serif" font-size="10.00" fill="#63b8ff">18</text>
</a>
</g>
</g>
<!-- dir_077ac7c5718cd11a37d5ae62d190a061&#45;&gt;dir_7d71b6c457a61cbf03a04bfdc57b6110 -->
<g id="edge15" class="edge">
<title>dir_077ac7c5718cd11a37d5ae62d190a061&#45;&gt;dir_7d71b6c457a61cbf03a04bfdc57b6110</title>
<g id="a_edge15"><a xlink:href="dir_000088_000045.html" target="_top">
<path fill="none" stroke="#63b8ff" d="M431.72,-128.09C428.8,-127.34 425.83,-126.62 423,-126 330.77,-105.76 301.6,-117.33 211.59,-91.44"/>
<polygon fill="#63b8ff" stroke="#63b8ff" points="212.38,-88.03 201.8,-88.55 210.4,-94.74 212.38,-88.03"/>
</a>
</g>
<g id="a_edge15&#45;headlabel"><a xlink:href="dir_000088_000045.html" target="_top" xlink:title="1">
<text text-anchor="middle" x="216.63" y="-83.82" font-family="Helvetica,sans-Serif" font-size="10.00" fill="#63b8ff">1</text>
</a>
</g>
</g>
<!-- dir_077ac7c5718cd11a37d5ae62d190a061&#45;&gt;dir_aebb8dcc11953d78e620bbef0b9e2183 -->
<g id="edge16" class="edge">
<title>dir_077ac7c5718cd11a37d5ae62d190a061&#45;&gt;dir_aebb8dcc11953d78e620bbef0b9e2183</title>
<g id="a_edge16"><a xlink:href="dir_000088_000028.html" target="_top">
<path fill="none" stroke="#63b8ff" d="M474.52,-126C489.02,-118.77 507.35,-106.86 516,-90 523.42,-75.54 517.81,-57.35 511.45,-44.15"/>
<polygon fill="#63b8ff" stroke="#63b8ff" points="514.45,-42.33 506.64,-35.17 508.28,-45.64 514.45,-42.33"/>
</a>
</g>
<g id="a_edge16&#45;headlabel"><a xlink:href="dir_000088_000028.html" target="_top" xlink:title="10">
<text text-anchor="middle" x="518.65" y="-41.66" font-family="Helvetica,sans-Serif" font-size="10.00" fill="#63b8ff">10</text>
</a>
</g>
</g>
<!-- dir_077ac7c5718cd11a37d5ae62d190a061&#45;&gt;dir_ecb37285c0bc658c97bb749f37c59e79 -->
<g id="edge17" class="edge">
<title>dir_077ac7c5718cd11a37d5ae62d190a061&#45;&gt;dir_ecb37285c0bc658c97bb749f37c59e79</title>
<g id="a_edge17"><a xlink:href="dir_000088_000008.html" target="_top">
<path fill="none" stroke="#63b8ff" d="M431.73,-128.02C428.81,-127.28 425.84,-126.58 423,-126 309.17,-102.59 278.83,-107.93 164,-90 157.51,-88.99 150.54,-87.82 143.96,-86.69"/>
<polygon fill="#63b8ff" stroke="#63b8ff" points="144.51,-83.23 134.06,-84.96 143.3,-90.13 144.51,-83.23"/>
</a>
</g>
<g id="a_edge17&#45;headlabel"><a xlink:href="dir_000088_000008.html" target="_top" xlink:title="2">
<text text-anchor="middle" x="148.54" y="-78.55" font-family="Helvetica,sans-Serif" font-size="10.00" fill="#63b8ff">2</text>
</a>
</g>
</g>
<!-- dir_52d5ae93adf86f174e0450f4f1021a24 -->
<g id="node14" class="node">
<title>dir_52d5ae93adf86f174e0450f4f1021a24</title>
<g id="a_node14"><a xlink:href="dir_52d5ae93adf86f174e0450f4f1021a24.html" target="_top" xlink:title="tap">
<polygon fill="#a2b4d6" stroke="#404040" points="370,-90 338,-90 338,-71 370,-71 370,-90"/>
<text text-anchor="middle" x="354" y="-78" font-family="Helvetica,sans-Serif" font-size="10.00">tap</text>
</a>
</g>
</g>
<!-- dir_077ac7c5718cd11a37d5ae62d190a061&#45;&gt;dir_52d5ae93adf86f174e0450f4f1021a24 -->
<g id="edge13" class="edge">
<title>dir_077ac7c5718cd11a37d5ae62d190a061&#45;&gt;dir_52d5ae93adf86f174e0450f4f1021a24</title>
<g id="a_edge13"><a xlink:href="dir_000088_000121.html" target="_top">
<path fill="none" stroke="#63b8ff" d="M437.93,-125.98C422.04,-117.56 397.49,-104.55 379.04,-94.77"/>
<polygon fill="#63b8ff" stroke="#63b8ff" points="380.5,-91.58 370.03,-89.99 377.22,-97.77 380.5,-91.58"/>
</a>
</g>
<g id="a_edge13&#45;headlabel"><a xlink:href="dir_000088_000121.html" target="_top" xlink:title="1">
<text text-anchor="middle" x="385.01" y="-88.26" font-family="Helvetica,sans-Serif" font-size="10.00" fill="#63b8ff">1</text>
</a>
</g>
</g>
<!-- dir_8511a26aa9e52446e5639b9e167f8fd1 -->
<g id="node13" class="node">
<title>dir_8511a26aa9e52446e5639b9e167f8fd1</title>
<g id="a_node13"><a xlink:href="dir_8511a26aa9e52446e5639b9e167f8fd1.html" target="_top" xlink:title="ratelimit">
<polygon fill="#a2b4d6" stroke="#404040" points="277.5,-145 218.5,-145 218.5,-126 277.5,-126 277.5,-145"/>
<text text-anchor="middle" x="248" y="-133" font-family="Helvetica,sans-Serif" font-size="10.00">ratelimit</text>
</a>
</g>
</g>
<!-- dir_8511a26aa9e52446e5639b9e167f8fd1&#45;&gt;dir_79690749eba542503bb1a9a3dbb495e1 -->
<g id="edge18" class="edge">
<title>dir_8511a26aa9e52446e5639b9e167f8fd1&#45;&gt;dir_79690749eba542503bb1a9a3dbb495e1</title>
<g id="a_edge18"><a xlink:href="dir_000092_000087.html" target="_top">
<path fill="none" stroke="#63b8ff" d="M218.29,-131.35C172.94,-125.86 89.81,-112.88 72,-90 64.63,-80.53 64.8,-72.6 72,-63 77.23,-56.02 121.55,-44.2 155.95,-35.91"/>
<polygon fill="#63b8ff" stroke="#63b8ff" points="156.88,-39.28 165.8,-33.56 155.26,-32.47 156.88,-39.28"/>
</a>
</g>
<g id="a_edge18&#45;headlabel"><a xlink:href="dir_000092_000087.html" target="_top" xlink:title="5">
<text text-anchor="middle" x="154.04" y="-40.38" font-family="Helvetica,sans-Serif" font-size="10.00" fill="#63b8ff">5</text>
</a>
</g>
</g>
<!-- dir_8511a26aa9e52446e5639b9e167f8fd1&#45;&gt;dir_aebb8dcc11953d78e620bbef0b9e2183 -->
<g id="edge19" class="edge">
<title>dir_8511a26aa9e52446e5639b9e167f8fd1&#45;&gt;dir_aebb8dcc11953d78e620bbef0b9e2183</title>
<g id="a_edge19"><a xlink:href="dir_000092_000028.html" target="_top">
<path fill="none" stroke="#63b8ff" d="M277.9,-127.84C331.2,-115.93 437.43,-92.05 441,-90 461.27,-78.39 478.87,-57.76 489.67,-43.17"/>
<polygon fill="#63b8ff" stroke="#63b8ff" points="492.54,-45.18 495.49,-35 486.84,-41.12 492.54,-45.18"/>
</a>
</g>
<g id="a_edge19&#45;headlabel"><a xlink:href="dir_000092_000028.html" target="_top" xlink:title="4">
<text text-anchor="middle" x="492.77" y="-47.25" font-family="Helvetica,sans-Serif" font-size="10.00" fill="#63b8ff">4</text>
</a>
</g>
</g>
<!-- dir_8511a26aa9e52446e5639b9e167f8fd1&#45;&gt;dir_b74ed0efa461d1dc3d2a2bcdca1c8270 -->
<g id="edge20" class="edge">
<title>dir_8511a26aa9e52446e5639b9e167f8fd1&#45;&gt;dir_b74ed0efa461d1dc3d2a2bcdca1c8270</title>
<g id="a_edge20"><a xlink:href="dir_000092_000074.html" target="_top">
<path fill="none" stroke="#63b8ff" d="M218.18,-132.86C164.54,-129.22 55.16,-118.42 32,-90 24.42,-80.7 25.72,-73.23 32,-63 38.59,-52.27 49.42,-44.58 60.71,-39.11"/>
<polygon fill="#63b8ff" stroke="#63b8ff" points="62.41,-42.19 70.21,-35.02 59.64,-35.76 62.41,-42.19"/>
</a>
</g>
<g id="a_edge20&#45;headlabel"><a xlink:href="dir_000092_000074.html" target="_top" xlink:title="3">
<text text-anchor="middle" x="60.23" y="-43.72" font-family="Helvetica,sans-Serif" font-size="10.00" fill="#63b8ff">3</text>
</a>
</g>
</g>
<!-- dir_8511a26aa9e52446e5639b9e167f8fd1&#45;&gt;dir_ecb37285c0bc658c97bb749f37c59e79 -->
<g id="edge21" class="edge">
<title>dir_8511a26aa9e52446e5639b9e167f8fd1&#45;&gt;dir_ecb37285c0bc658c97bb749f37c59e79</title>
<g id="a_edge21"><a xlink:href="dir_000092_000008.html" target="_top">
<path fill="none" stroke="#63b8ff" d="M226.63,-125.98C204.07,-116.99 168.39,-102.78 143.46,-92.84"/>
<polygon fill="#63b8ff" stroke="#63b8ff" points="144.74,-89.58 134.16,-89.13 142.15,-96.09 144.74,-89.58"/>
</a>
</g>
<g id="a_edge21&#45;headlabel"><a xlink:href="dir_000092_000008.html" target="_top" xlink:title="1">
<text text-anchor="middle" x="149.13" y="-85.78" font-family="Helvetica,sans-Serif" font-size="10.00" fill="#63b8ff">1</text>
</a>
</g>
</g>
<!-- dir_52d5ae93adf86f174e0450f4f1021a24&#45;&gt;dir_79690749eba542503bb1a9a3dbb495e1 -->
<g id="edge22" class="edge">
<title>dir_52d5ae93adf86f174e0450f4f1021a24&#45;&gt;dir_79690749eba542503bb1a9a3dbb495e1</title>
<g id="a_edge22"><a xlink:href="dir_000121_000087.html" target="_top">
<path fill="none" stroke="#63b8ff" d="M342.74,-70.98C338.58,-68.14 333.73,-65.15 329,-63 299.73,-49.7 264.55,-40.26 237.87,-34.32"/>
<polygon fill="#63b8ff" stroke="#63b8ff" points="238.61,-30.9 228.1,-32.22 237.13,-37.74 238.61,-30.9"/>
</a>
</g>
<g id="a_edge22&#45;headlabel"><a xlink:href="dir_000121_000087.html" target="_top" xlink:title="4">
<text text-anchor="middle" x="242.72" y="-26.38" font-family="Helvetica,sans-Serif" font-size="10.00" fill="#63b8ff">4</text>
</a>
</g>
</g>
<!-- dir_abf65d28f7b5672fadde386d11333de0 -->
<g id="node15" class="node">
<title>dir_abf65d28f7b5672fadde386d11333de0</title>
<g id="a_node15"><a xlink:href="dir_abf65d28f7b5672fadde386d11333de0.html" target="_top" xlink:title="upstream">
<polygon fill="#a2b4d6" stroke="#404040" points="413.5,-145 350.5,-145 350.5,-126 413.5,-126 413.5,-145"/>
<text text-anchor="middle" x="382" y="-133" font-family="Helvetica,sans-Serif" font-size="10.00">upstream</text>
</a>
</g>
</g>
<!-- dir_abf65d28f7b5672fadde386d11333de0&#45;&gt;dir_79690749eba542503bb1a9a3dbb495e1 -->
<g id="edge23" class="edge">
<title>dir_abf65d28f7b5672fadde386d11333de0&#45;&gt;dir_79690749eba542503bb1a9a3dbb495e1</title>
<g id="a_edge23"><a xlink:href="dir_000128_000087.html" target="_top">
<path fill="none" stroke="#63b8ff" d="M350.13,-127.7C347.38,-127.12 344.64,-126.55 342,-126 262.97,-109.61 215.1,-152.47 164,-90 152.16,-75.53 165.64,-56.13 178.77,-42.6"/>
<polygon fill="#63b8ff" stroke="#63b8ff" points="181.48,-44.85 186.26,-35.39 176.63,-39.8 181.48,-44.85"/>
</a>
</g>
<g id="a_edge23&#45;headlabel"><a xlink:href="dir_000128_000087.html" target="_top" xlink:title="3">
<text text-anchor="middle" x="180.86" y="-46.88" font-family="Helvetica,sans-Serif" font-size="10.00" fill="#63b8ff">3</text>
</a>
</g>
</g>
<!-- dir_abf65d28f7b5672fadde386d11333de0&#45;&gt;dir_aebb8dcc11953d78e620bbef0b9e2183 -->
<g id="edge24" class="edge">
<title>dir_abf65d28f7b5672fadde386d11333de0&#45;&gt;dir_aebb8dcc11953d78e620bbef0b9e2183</title>
<g id="a_edge24"><a xlink:href="dir_000128_000028.html" target="_top">
<path fill="none" stroke="#63b8ff" d="M413.51,-126.26C443.61,-117.71 485.84,-103.69 496,-90 505.37,-77.38 505.88,-59.19 504.47,-45.51"/>
<polygon fill="#63b8ff" stroke="#63b8ff" points="507.89,-44.7 503,-35.3 500.96,-45.7 507.89,-44.7"/>
</a>
</g>
<g id="a_edge24&#45;headlabel"><a xlink:href="dir_000128_000028.html" target="_top" xlink:title="8">
<text text-anchor="middle" x="511.21" y="-45.35" font-family="Helvetica,sans-Serif" font-size="10.00" fill="#63b8ff">8</text>
</a>
</g>
</g>
<!-- dir_abf65d28f7b5672fadde386d11333de0&#45;&gt;dir_ecb37285c0bc658c97bb749f37c59e79 -->
<g id="edge25" class="edge">
<title>dir_abf65d28f7b5672fadde386d11333de0&#45;&gt;dir_ecb37285c0bc658c97bb749f37c59e79</title>
<g id="a_edge25"><a xlink:href="dir_000128_000008.html" target="_top">
<path fill="none" stroke="#63b8ff" d="M350.14,-127.65C347.39,-127.08 344.65,-126.53 342,-126 255.99,-108.88 233.62,-108.95 148,-90 146.73,-89.72 145.44,-89.42 144.14,-89.12"/>
<polygon fill="#63b8ff" stroke="#63b8ff" points="144.69,-85.65 134.14,-86.67 143.02,-92.45 144.69,-85.65"/>
</a>
</g>
<g id="a_edge25&#45;headlabel"><a xlink:href="dir_000128_000008.html" target="_top" xlink:title="1">
<text text-anchor="middle" x="148.86" y="-81.25" font-family="Helvetica,sans-Serif" font-size="10.00" fill="#63b8ff">1</text>
</a>
</g>
</g>
</g>
</svg>
