<?xml version="1.0" encoding="UTF-8" standalone="no"?>
<!DOCTYPE svg PUBLIC "-//W3C//DTD SVG 1.1//EN"
 "http://www.w3.org/Graphics/SVG/1.1/DTD/svg11.dtd">
<!-- Generated by graphviz version 2.43.0 (0)
 -->
<!-- Title: src/protocols/root/connection Pages: 1 -->
<!--zoomable 133 -->

<svg id="main" version="1.1" xmlns="http://www.w3.org/2000/svg" xmlns:xlink="http://www.w3.org/1999/xlink" xml:space="preserve" onload="init(evt)">
<style type="text/css"><![CDATA[
.node, .edge {opacity: 0.7;}
.node.selected, .edge.selected {opacity: 1;}
.edge:hover path { stroke: red; }
.edge:hover polygon { stroke: red; fill: red; }
]]></style>

<defs>
  <circle id="rim" cx="0" cy="0" r="7"/>
  <circle id="rim2" cx="0" cy="0" r="3.5"/>
  <g id="zoomPlus">
    <use xlink:href="#rim" fill="#404040"><set attributeName="fill" to="#808080" begin="zoomplus.mouseover" end="zoomplus.mouseout"/></use>
    <path d="M-4,0h8M0,-4v8" fill="none" stroke="white" stroke-width="1.5" pointer-events="none"/>
  </g>
  <g id="zoomMin">
    <use xlink:href="#rim" fill="#404040"><set attributeName="fill" to="#808080" begin="zoomminus.mouseover" end="zoomminus.mouseout"/></use>
    <path d="M-4,0h8" fill="none" stroke="white" stroke-width="1.5" pointer-events="none"/>
  </g>
  <g id="arrowUp" transform="translate(30 24)">
    <use xlink:href="#rim"/>
    <path pointer-events="none" fill="none" stroke="white" stroke-width="1.5" d="M0,-3.0v7 M-2.5,-0.5L0,-3.0L2.5,-0.5"/>
  </g>
  <g id="arrowRight" transform="rotate(90) translate(36 -43)">
    <use xlink:href="#rim"/>
    <path pointer-events="none" fill="none" stroke="white" stroke-width="1.5" d="M0,-3.0v7 M-2.5,-0.5L0,-3.0L2.5,-0.5"/>
  </g>
  <g id="arrowDown" transform="rotate(180) translate(-30 -48)">
    <use xlink:href="#rim"/>
    <path pointer-events="none" fill="none" stroke="white" stroke-width="1.5" d="M0,-3.0v7 M-2.5,-0.5L0,-3.0L2.5,-0.5"/>
  </g>
  <g id="arrowLeft" transform="rotate(270) translate(-36 17)">
    <use xlink:href="#rim"/>
    <path pointer-events="none" fill="none" stroke="white" stroke-width="1.5" d="M0,-3.0v7 M-2.5,-0.5L0,-3.0L2.5,-0.5"/>
  </g>
  <g id="resetDef">
    <use xlink:href="#rim2" fill="#404040"><set attributeName="fill" to="#808080" begin="reset.mouseover" end="reset.mouseout"/></use>
  </g>
</defs>
<script type="application/ecmascript">
var viewWidth = 615;
var viewHeight = 133;
var sectionId = 'dynsection-0';
</script>
<script type="application/ecmascript" xlink:href="svg.min.js"/>
<svg id="graph" class="graph">
<g id="viewport">
<title>src/protocols/root/connection</title>
<g id="clust1" class="cluster">
<title>clusterdir_06270a8a9910c35b994c4cb506fb3aa6</title>
<g id="a_clust1"><a xlink:href="dir_06270a8a9910c35b994c4cb506fb3aa6.html" target="_top" xlink:title="root">
<polygon fill="#edf0f7" stroke="#7f7f7f" stroke-dasharray="5,2" points="8,-8 8,-117 316,-117 316,-8 8,-8"/>
<text text-anchor="middle" x="162" y="-105" font-family="Helvetica,sans-Serif" font-size="10.00">root</text>
</a>
</g>
</g>
<!-- dir_01c02c5cfca8079e4ca9a022394e2808 -->
<g id="node1" class="node">
<title>dir_01c02c5cfca8079e4ca9a022394e2808</title>
<g id="a_node1"><a xlink:href="dir_01c02c5cfca8079e4ca9a022394e2808.html" target="_top" xlink:title="session">
<polygon fill="#a2b4d6" stroke="#404040" points="69.5,-35 16.5,-35 16.5,-16 69.5,-16 69.5,-35"/>
<text text-anchor="middle" x="43" y="-23" font-family="Helvetica,sans-Serif" font-size="10.00">session</text>
</a>
</g>
</g>
<!-- dir_3842b38a04873a4717f586e104d91c94 -->
<g id="node2" class="node">
<title>dir_3842b38a04873a4717f586e104d91c94</title>
<g id="a_node2"><a xlink:href="dir_3842b38a04873a4717f586e104d91c94.html" target="_top" xlink:title="zip">
<polygon fill="#a2b4d6" stroke="#404040" points="118.5,-35 87.5,-35 87.5,-16 118.5,-16 118.5,-35"/>
<text text-anchor="middle" x="103" y="-23" font-family="Helvetica,sans-Serif" font-size="10.00">zip</text>
</a>
</g>
</g>
<!-- dir_65c5f38eaa7af83360707bd38ce15751 -->
<g id="node3" class="node">
<title>dir_65c5f38eaa7af83360707bd38ce15751</title>
<g id="a_node3"><a xlink:href="dir_65c5f38eaa7af83360707bd38ce15751.html" target="_top" xlink:title="write">
<polygon fill="#a2b4d6" stroke="#404040" points="177.5,-35 136.5,-35 136.5,-16 177.5,-16 177.5,-35"/>
<text text-anchor="middle" x="157" y="-23" font-family="Helvetica,sans-Serif" font-size="10.00">write</text>
</a>
</g>
</g>
<!-- dir_a575014d06306916639e4fbec33e7794 -->
<g id="node4" class="node">
<title>dir_a575014d06306916639e4fbec33e7794</title>
<g id="a_node4"><a xlink:href="dir_a575014d06306916639e4fbec33e7794.html" target="_top" xlink:title="relay">
<polygon fill="#a2b4d6" stroke="#404040" points="236.5,-35 195.5,-35 195.5,-16 236.5,-16 236.5,-35"/>
<text text-anchor="middle" x="216" y="-23" font-family="Helvetica,sans-Serif" font-size="10.00">relay</text>
</a>
</g>
</g>
<!-- dir_c94b32439c0e4ec17fa2463a2e62bc44 -->
<g id="node5" class="node">
<title>dir_c94b32439c0e4ec17fa2463a2e62bc44</title>
<g id="a_node5"><a xlink:href="dir_c94b32439c0e4ec17fa2463a2e62bc44.html" target="_top" xlink:title="handoff">
<polygon fill="#a2b4d6" stroke="#404040" points="307.5,-35 254.5,-35 254.5,-16 307.5,-16 307.5,-35"/>
<text text-anchor="middle" x="281" y="-23" font-family="Helvetica,sans-Serif" font-size="10.00">handoff</text>
</a>
</g>
</g>
<!-- dir_e1b4f5002bdb7fdc551e5c21b90e8a01 -->
<g id="node6" class="node">
<title>dir_e1b4f5002bdb7fdc551e5c21b90e8a01</title>
<g id="a_node6"><a xlink:href="dir_e1b4f5002bdb7fdc551e5c21b90e8a01.html" target="_top" xlink:title="connection">
<polygon fill="#edf0f7" stroke="#404040" stroke-width="2" points="308,-90 238,-90 238,-71 308,-71 308,-90"/>
<text text-anchor="middle" x="273" y="-78" font-family="Helvetica,sans-Serif" font-size="10.00">connection</text>
</a>
</g>
</g>
<!-- dir_e1b4f5002bdb7fdc551e5c21b90e8a01&#45;&gt;dir_01c02c5cfca8079e4ca9a022394e2808 -->
<g id="edge1" class="edge">
<title>dir_e1b4f5002bdb7fdc551e5c21b90e8a01&#45;&gt;dir_01c02c5cfca8079e4ca9a022394e2808</title>
<g id="a_edge1"><a xlink:href="dir_000025_000102.html" target="_top">
<path fill="none" stroke="#63b8ff" d="M237.94,-71.53C201.05,-63.12 141.02,-49.41 79.6,-35.13"/>
<polygon fill="#63b8ff" stroke="#63b8ff" points="80.26,-31.69 69.73,-32.83 78.68,-38.51 80.26,-31.69"/>
</a>
</g>
<g id="a_edge1&#45;headlabel"><a xlink:href="dir_000025_000102.html" target="_top" xlink:title="3">
<text text-anchor="middle" x="84.41" y="-27.24" font-family="Helvetica,sans-Serif" font-size="10.00" fill="#63b8ff">3</text>
</a>
</g>
</g>
<!-- dir_e1b4f5002bdb7fdc551e5c21b90e8a01&#45;&gt;dir_3842b38a04873a4717f586e104d91c94 -->
<g id="edge2" class="edge">
<title>dir_e1b4f5002bdb7fdc551e5c21b90e8a01&#45;&gt;dir_3842b38a04873a4717f586e104d91c94</title>
<g id="a_edge2"><a xlink:href="dir_000025_000131.html" target="_top">
<path fill="none" stroke="#63b8ff" d="M244.31,-70.97C216.89,-62.76 174.17,-49.81 128.14,-34.97"/>
<polygon fill="#63b8ff" stroke="#63b8ff" points="129.17,-31.63 118.58,-31.88 127.02,-38.29 129.17,-31.63"/>
</a>
</g>
<g id="a_edge2&#45;headlabel"><a xlink:href="dir_000025_000131.html" target="_top" xlink:title="1">
<text text-anchor="middle" x="133.47" y="-27.53" font-family="Helvetica,sans-Serif" font-size="10.00" fill="#63b8ff">1</text>
</a>
</g>
</g>
<!-- dir_e1b4f5002bdb7fdc551e5c21b90e8a01&#45;&gt;dir_65c5f38eaa7af83360707bd38ce15751 -->
<g id="edge3" class="edge">
<title>dir_e1b4f5002bdb7fdc551e5c21b90e8a01&#45;&gt;dir_65c5f38eaa7af83360707bd38ce15751</title>
<g id="a_edge3"><a xlink:href="dir_000025_000127.html" target="_top">
<path fill="none" stroke="#63b8ff" d="M254.36,-70.98C235.7,-62.46 206.75,-49.23 185.26,-39.41"/>
<polygon fill="#63b8ff" stroke="#63b8ff" points="186.53,-36.14 175.98,-35.17 183.62,-42.51 186.53,-36.14"/>
</a>
</g>
<g id="a_edge3&#45;headlabel"><a xlink:href="dir_000025_000127.html" target="_top" xlink:title="1">
<text text-anchor="middle" x="190.98" y="-32.55" font-family="Helvetica,sans-Serif" font-size="10.00" fill="#63b8ff">1</text>
</a>
</g>
</g>
<!-- dir_e1b4f5002bdb7fdc551e5c21b90e8a01&#45;&gt;dir_a575014d06306916639e4fbec33e7794 -->
<g id="edge6" class="edge">
<title>dir_e1b4f5002bdb7fdc551e5c21b90e8a01&#45;&gt;dir_a575014d06306916639e4fbec33e7794</title>
<g id="a_edge6"><a xlink:href="dir_000025_000090.html" target="_top">
<path fill="none" stroke="#63b8ff" d="M263.84,-70.98C255.5,-63.23 242.97,-51.58 232.82,-42.14"/>
<polygon fill="#63b8ff" stroke="#63b8ff" points="235.03,-39.42 225.32,-35.17 230.26,-44.54 235.03,-39.42"/>
</a>
</g>
<g id="a_edge6&#45;headlabel"><a xlink:href="dir_000025_000090.html" target="_top" xlink:title="1">
<text text-anchor="middle" x="239.6" y="-37.28" font-family="Helvetica,sans-Serif" font-size="10.00" fill="#63b8ff">1</text>
</a>
</g>
</g>
<!-- dir_e1b4f5002bdb7fdc551e5c21b90e8a01&#45;&gt;dir_c94b32439c0e4ec17fa2463a2e62bc44 -->
<g id="edge10" class="edge">
<title>dir_e1b4f5002bdb7fdc551e5c21b90e8a01&#45;&gt;dir_c94b32439c0e4ec17fa2463a2e62bc44</title>
<g id="a_edge10"><a xlink:href="dir_000025_000050.html" target="_top">
<path fill="none" stroke="#63b8ff" d="M274.32,-70.75C275.37,-63.8 276.87,-53.85 278.19,-45.13"/>
<polygon fill="#63b8ff" stroke="#63b8ff" points="281.67,-45.5 279.7,-35.09 274.75,-44.45 281.67,-45.5"/>
</a>
</g>
<g id="a_edge10&#45;headlabel"><a xlink:href="dir_000025_000050.html" target="_top" xlink:title="1">
<text text-anchor="middle" x="283.94" y="-46.98" font-family="Helvetica,sans-Serif" font-size="10.00" fill="#63b8ff">1</text>
</a>
</g>
</g>
<!-- dir_7d71b6c457a61cbf03a04bfdc57b6110 -->
<g id="node7" class="node">
<title>dir_7d71b6c457a61cbf03a04bfdc57b6110</title>
<g id="a_node7"><a xlink:href="dir_7d71b6c457a61cbf03a04bfdc57b6110.html" target="_top" xlink:title="fs">
<polygon fill="#edf0f7" stroke="red" stroke-dasharray="5,2" points="354.5,-35 325.5,-35 325.5,-16 354.5,-16 354.5,-35"/>
<text text-anchor="middle" x="340" y="-23" font-family="Helvetica,sans-Serif" font-size="10.00">fs</text>
</a>
</g>
</g>
<!-- dir_e1b4f5002bdb7fdc551e5c21b90e8a01&#45;&gt;dir_7d71b6c457a61cbf03a04bfdc57b6110 -->
<g id="edge4" class="edge">
<title>dir_e1b4f5002bdb7fdc551e5c21b90e8a01&#45;&gt;dir_7d71b6c457a61cbf03a04bfdc57b6110</title>
<g id="a_edge4"><a xlink:href="dir_000025_000044.html" target="_top">
<path fill="none" stroke="#63b8ff" d="M283.76,-70.98C293.77,-63.07 308.89,-51.11 320.93,-41.58"/>
<polygon fill="#63b8ff" stroke="#63b8ff" points="323.37,-44.12 329.04,-35.17 319.03,-38.63 323.37,-44.12"/>
</a>
</g>
<g id="a_edge4&#45;headlabel"><a xlink:href="dir_000025_000044.html" target="_top" xlink:title="4">
<text text-anchor="middle" x="322.31" y="-46.08" font-family="Helvetica,sans-Serif" font-size="10.00" fill="#63b8ff">4</text>
</a>
</g>
</g>
<!-- dir_94e4da69fc26a6a4a984451d79cfe747 -->
<g id="node8" class="node">
<title>dir_94e4da69fc26a6a4a984451d79cfe747</title>
<g id="a_node8"><a xlink:href="dir_94e4da69fc26a6a4a984451d79cfe747.html" target="_top" xlink:title="ssi">
<polygon fill="#edf0f7" stroke="red" stroke-dasharray="5,2" points="403,-35 373,-35 373,-16 403,-16 403,-35"/>
<text text-anchor="middle" x="388" y="-23" font-family="Helvetica,sans-Serif" font-size="10.00">ssi</text>
</a>
</g>
</g>
<!-- dir_e1b4f5002bdb7fdc551e5c21b90e8a01&#45;&gt;dir_94e4da69fc26a6a4a984451d79cfe747 -->
<g id="edge5" class="edge">
<title>dir_e1b4f5002bdb7fdc551e5c21b90e8a01&#45;&gt;dir_94e4da69fc26a6a4a984451d79cfe747</title>
<g id="a_edge5"><a xlink:href="dir_000025_000109.html" target="_top">
<path fill="none" stroke="#63b8ff" d="M291.48,-70.98C311.08,-61.95 342.13,-47.64 363.71,-37.7"/>
<polygon fill="#63b8ff" stroke="#63b8ff" points="365.26,-40.84 372.87,-33.47 362.33,-34.48 365.26,-40.84"/>
</a>
</g>
<g id="a_edge5&#45;headlabel"><a xlink:href="dir_000025_000109.html" target="_top" xlink:title="1">
<text text-anchor="middle" x="363.18" y="-42.42" font-family="Helvetica,sans-Serif" font-size="10.00" fill="#63b8ff">1</text>
</a>
</g>
</g>
<!-- dir_aebb8dcc11953d78e620bbef0b9e2183 -->
<g id="node9" class="node">
<title>dir_aebb8dcc11953d78e620bbef0b9e2183</title>
<g id="a_node9"><a xlink:href="dir_aebb8dcc11953d78e620bbef0b9e2183.html" target="_top" xlink:title="core">
<polygon fill="#edf0f7" stroke="red" stroke-dasharray="5,2" points="459,-35 421,-35 421,-16 459,-16 459,-35"/>
<text text-anchor="middle" x="440" y="-23" font-family="Helvetica,sans-Serif" font-size="10.00">core</text>
</a>
</g>
</g>
<!-- dir_e1b4f5002bdb7fdc551e5c21b90e8a01&#45;&gt;dir_aebb8dcc11953d78e620bbef0b9e2183 -->
<g id="edge7" class="edge">
<title>dir_e1b4f5002bdb7fdc551e5c21b90e8a01&#45;&gt;dir_aebb8dcc11953d78e620bbef0b9e2183</title>
<g id="a_edge7"><a xlink:href="dir_000025_000028.html" target="_top">
<path fill="none" stroke="#63b8ff" d="M299.83,-70.98C330.15,-61.36 379.34,-45.75 410.66,-35.81"/>
<polygon fill="#63b8ff" stroke="#63b8ff" points="412.07,-39.04 420.54,-32.68 409.95,-32.37 412.07,-39.04"/>
</a>
</g>
<g id="a_edge7&#45;headlabel"><a xlink:href="dir_000025_000028.html" target="_top" xlink:title="15">
<text text-anchor="middle" x="409.5" y="-40.33" font-family="Helvetica,sans-Serif" font-size="10.00" fill="#63b8ff">15</text>
</a>
</g>
</g>
<!-- dir_b74ed0efa461d1dc3d2a2bcdca1c8270 -->
<g id="node10" class="node">
<title>dir_b74ed0efa461d1dc3d2a2bcdca1c8270</title>
<g id="a_node10"><a xlink:href="dir_b74ed0efa461d1dc3d2a2bcdca1c8270.html" target="_top" xlink:title="observability">
<polygon fill="#edf0f7" stroke="red" stroke-dasharray="5,2" points="557,-35 477,-35 477,-16 557,-16 557,-35"/>
<text text-anchor="middle" x="517" y="-23" font-family="Helvetica,sans-Serif" font-size="10.00">observability</text>
</a>
</g>
</g>
<!-- dir_e1b4f5002bdb7fdc551e5c21b90e8a01&#45;&gt;dir_b74ed0efa461d1dc3d2a2bcdca1c8270 -->
<g id="edge8" class="edge">
<title>dir_e1b4f5002bdb7fdc551e5c21b90e8a01&#45;&gt;dir_b74ed0efa461d1dc3d2a2bcdca1c8270</title>
<g id="a_edge8"><a xlink:href="dir_000025_000070.html" target="_top">
<path fill="none" stroke="#63b8ff" d="M308.22,-71.85C350.15,-62.74 420.42,-47.48 467.73,-37.2"/>
<polygon fill="#63b8ff" stroke="#63b8ff" points="468.72,-40.57 477.75,-35.03 467.24,-33.73 468.72,-40.57"/>
</a>
</g>
<g id="a_edge8&#45;headlabel"><a xlink:href="dir_000025_000070.html" target="_top" xlink:title="3">
<text text-anchor="middle" x="465.81" y="-41.61" font-family="Helvetica,sans-Serif" font-size="10.00" fill="#63b8ff">3</text>
</a>
</g>
</g>
<!-- dir_c72b25b75abe208498b36a3e44a3726c -->
<g id="node11" class="node">
<title>dir_c72b25b75abe208498b36a3e44a3726c</title>
<g id="a_node11"><a xlink:href="dir_c72b25b75abe208498b36a3e44a3726c.html" target="_top" xlink:title="net">
<polygon fill="#edf0f7" stroke="red" stroke-dasharray="5,2" points="607,-35 575,-35 575,-16 607,-16 607,-35"/>
<text text-anchor="middle" x="591" y="-23" font-family="Helvetica,sans-Serif" font-size="10.00">net</text>
</a>
</g>
</g>
<!-- dir_e1b4f5002bdb7fdc551e5c21b90e8a01&#45;&gt;dir_c72b25b75abe208498b36a3e44a3726c -->
<g id="edge9" class="edge">
<title>dir_e1b4f5002bdb7fdc551e5c21b90e8a01&#45;&gt;dir_c72b25b75abe208498b36a3e44a3726c</title>
<g id="a_edge9"><a xlink:href="dir_000025_000068.html" target="_top">
<path fill="none" stroke="#63b8ff" d="M308.12,-76.2C361.72,-70.72 467.19,-58.21 565.22,-34.79"/>
<polygon fill="#63b8ff" stroke="#63b8ff" points="566.1,-38.18 574.99,-32.41 564.44,-31.38 566.1,-38.18"/>
</a>
</g>
<g id="a_edge9&#45;headlabel"><a xlink:href="dir_000025_000068.html" target="_top" xlink:title="6">
<text text-anchor="middle" x="563.28" y="-39.29" font-family="Helvetica,sans-Serif" font-size="10.00" fill="#63b8ff">6</text>
</a>
</g>
</g>
</g>
</svg>

<g id="navigator" transform="translate(0 0)" fill="#404254">
  <rect fill="#f2f5e9" fill-opacity="0.5" stroke="#606060" stroke-width=".5" x="0" y="0" width="60" height="60"/>
  <use id="zoomplus" xlink:href="#zoomPlus" x="17" y="9" onmousedown="handleZoom(evt,'in')"/>
  <use id="zoomminus" xlink:href="#zoomMin" x="42" y="9" onmousedown="handleZoom(evt,'out')"/>
  <use id="reset" xlink:href="#resetDef" x="30" y="36" onmousedown="handleReset()"/>
   <use id="arrowup" xlink:href="#arrowUp" x="0" y="0" onmousedown="handlePan(0,-1)"/>
  <use id="arrowright" xlink:href="#arrowRight" x="0" y="0" onmousedown="handlePan(1,0)"/>
  <use id="arrowdown" xlink:href="#arrowDown" x="0" y="0" onmousedown="handlePan(0,1)"/>
  <use id="arrowleft" xlink:href="#arrowLeft" x="0" y="0" onmousedown="handlePan(-1,0)"/>
</g>
<svg viewBox="0 0 15 15" width="100%" height="30px" preserveAspectRatio="xMaxYMin meet">
 <g id="arrow_out" transform="scale(0.3 0.3)">
  <a xlink:href="dir_e1b4f5002bdb7fdc551e5c21b90e8a01_dep_org.svg" target="_base">
   <rect id="button" ry="5" rx="5" y="6" x="6" height="38" width="38"
        fill="#f2f5e9" fill-opacity="0.5" stroke="#606060" stroke-width="1.0"/>
   <path id="arrow"
     d="M 11.500037,31.436501 C 11.940474,20.09759 22.043105,11.32322 32.158766,21.979434 L 37.068811,17.246167 C 37.068811,17.246167 37.088388,32 37.088388,32 L 22.160133,31.978069 C 22.160133,31.978069 26.997745,27.140456 26.997745,27.140456 C 18.528582,18.264221 13.291696,25.230495 11.500037,31.436501 z"
     style="fill:#404040;"/>
  </a>
 </g>
</svg>

<style type='text/css'>
<![CDATA[
[data-mouse-over-selected='false'] { opacity: 0.7; }
[data-mouse-over-selected='true']  { opacity: 1.0; }
]]>
</style>
<script type="application/ecmascript"><![CDATA[
document.addEventListener('DOMContentLoaded', (event) => {
  highlightEdges();
  highlightAdjacentNodes();
});
]]></script>
</svg>
