<?xml version="1.0" encoding="UTF-8" standalone="no"?>
<!DOCTYPE svg PUBLIC "-//W3C//DTD SVG 1.1//EN"
 "http://www.w3.org/Graphics/SVG/1.1/DTD/svg11.dtd">
<!-- Generated by graphviz version 2.43.0 (0)
 -->
<!-- Title: src/auth Pages: 1 -->
<!--zoomable 361 -->

<svg id="main" version="1.1" xmlns="http://www.w3.org/2000/svg" xmlns:xlink="http://www.w3.org/1999/xlink" xml:space="preserve" onload="init(evt)">
<style type="text/css"><![CDATA[
.node, .edge {opacity: 0.7;}
.node.selected, .edge.selected {opacity: 1;}
.edge:hover path { stroke: red; }
.edge:hover polygon { stroke: red; fill: red; }
]]></style>

<defs>
  <circle id="rim" cx="0" cy="0" r="7"/>
  <circle id="rim2" cx="0" cy="0" r="3.5"/>
  <g id="zoomPlus">
    <use xlink:href="#rim" fill="#404040"><set attributeName="fill" to="#808080" begin="zoomplus.mouseover" end="zoomplus.mouseout"/></use>
    <path d="M-4,0h8M0,-4v8" fill="none" stroke="white" stroke-width="1.5" pointer-events="none"/>
  </g>
  <g id="zoomMin">
    <use xlink:href="#rim" fill="#404040"><set attributeName="fill" to="#808080" begin="zoomminus.mouseover" end="zoomminus.mouseout"/></use>
    <path d="M-4,0h8" fill="none" stroke="white" stroke-width="1.5" pointer-events="none"/>
  </g>
  <g id="arrowUp" transform="translate(30 24)">
    <use xlink:href="#rim"/>
    <path pointer-events="none" fill="none" stroke="white" stroke-width="1.5" d="M0,-3.0v7 M-2.5,-0.5L0,-3.0L2.5,-0.5"/>
  </g>
  <g id="arrowRight" transform="rotate(90) translate(36 -43)">
    <use xlink:href="#rim"/>
    <path pointer-events="none" fill="none" stroke="white" stroke-width="1.5" d="M0,-3.0v7 M-2.5,-0.5L0,-3.0L2.5,-0.5"/>
  </g>
  <g id="arrowDown" transform="rotate(180) translate(-30 -48)">
    <use xlink:href="#rim"/>
    <path pointer-events="none" fill="none" stroke="white" stroke-width="1.5" d="M0,-3.0v7 M-2.5,-0.5L0,-3.0L2.5,-0.5"/>
  </g>
  <g id="arrowLeft" transform="rotate(270) translate(-36 17)">
    <use xlink:href="#rim"/>
    <path pointer-events="none" fill="none" stroke="white" stroke-width="1.5" d="M0,-3.0v7 M-2.5,-0.5L0,-3.0L2.5,-0.5"/>
  </g>
  <g id="resetDef">
    <use xlink:href="#rim2" fill="#404040"><set attributeName="fill" to="#808080" begin="reset.mouseover" end="reset.mouseout"/></use>
  </g>
</defs>
<script type="application/ecmascript">
var viewWidth = 550;
var viewHeight = 361;
var sectionId = 'dynsection-0';
</script>
<script type="application/ecmascript" xlink:href="svg.min.js"/>
<svg id="graph" class="graph">
<g id="viewport">
<title>src/auth</title>
<g id="clust1" class="cluster">
<title>clusterdir_68267d1309a1af8e8297ef4c3efbcdba</title>
<g id="a_clust1"><a xlink:href="dir_68267d1309a1af8e8297ef4c3efbcdba.html" target="_top" xlink:title="src">
<polygon fill="#edf0f7" stroke="#404040" stroke-dasharray="5,2" points="8,-8 8,-345 534,-345 534,-8 8,-8"/>
<text text-anchor="middle" x="271" y="-333" font-family="Helvetica,sans-Serif" font-size="10.00">src</text>
</a>
</g>
</g>
<g id="clust2" class="cluster">
<title>clusterdir_ecb37285c0bc658c97bb749f37c59e79</title>
<g id="a_clust2"><a xlink:href="dir_ecb37285c0bc658c97bb749f37c59e79.html" target="_top">
<polygon fill="#edf0f7" stroke="#404040" stroke-width="2" points="163,-63 163,-318 495,-318 495,-63 163,-63"/>
</a>
</g>
</g>
<!-- dir_aebb8dcc11953d78e620bbef0b9e2183 -->
<g id="node1" class="node">
<title>dir_aebb8dcc11953d78e620bbef0b9e2183</title>
<g id="a_node1"><a xlink:href="dir_aebb8dcc11953d78e620bbef0b9e2183.html" target="_top" xlink:title="core">
<polygon fill="#a2b4d6" stroke="red" points="354,-35 316,-35 316,-16 354,-16 354,-35"/>
<text text-anchor="middle" x="335" y="-23" font-family="Helvetica,sans-Serif" font-size="10.00">core</text>
</a>
</g>
</g>
<!-- dir_b74ed0efa461d1dc3d2a2bcdca1c8270 -->
<g id="node2" class="node">
<title>dir_b74ed0efa461d1dc3d2a2bcdca1c8270</title>
<g id="a_node2"><a xlink:href="dir_b74ed0efa461d1dc3d2a2bcdca1c8270.html" target="_top" xlink:title="observability">
<polygon fill="#a2b4d6" stroke="red" points="485,-35 405,-35 405,-16 485,-16 485,-35"/>
<text text-anchor="middle" x="445" y="-23" font-family="Helvetica,sans-Serif" font-size="10.00">observability</text>
</a>
</g>
</g>
<!-- dir_7d71b6c457a61cbf03a04bfdc57b6110 -->
<g id="node3" class="node">
<title>dir_7d71b6c457a61cbf03a04bfdc57b6110</title>
<g id="a_node3"><a xlink:href="dir_7d71b6c457a61cbf03a04bfdc57b6110.html" target="_top" xlink:title="fs">
<polygon fill="#a2b4d6" stroke="red" points="125.5,-145 96.5,-145 96.5,-126 125.5,-126 125.5,-145"/>
<text text-anchor="middle" x="111" y="-133" font-family="Helvetica,sans-Serif" font-size="10.00">fs</text>
</a>
</g>
</g>
<!-- dir_79690749eba542503bb1a9a3dbb495e1 -->
<g id="node4" class="node">
<title>dir_79690749eba542503bb1a9a3dbb495e1</title>
<g id="a_node4"><a xlink:href="dir_79690749eba542503bb1a9a3dbb495e1.html" target="_top" xlink:title="protocols">
<polygon fill="#a2b4d6" stroke="red" points="128,-35 66,-35 66,-16 128,-16 128,-35"/>
<text text-anchor="middle" x="97" y="-23" font-family="Helvetica,sans-Serif" font-size="10.00">protocols</text>
</a>
</g>
</g>
<!-- dir_ecb37285c0bc658c97bb749f37c59e79 -->
<g id="node5" class="node">
<title>dir_ecb37285c0bc658c97bb749f37c59e79</title>
<text text-anchor="middle" x="468" y="-298" font-family="Helvetica,sans-Serif" font-size="10.00">auth</text>
</g>
<!-- dir_581f3915f9e1f7f984af5af41f44c9ce -->
<g id="node6" class="node">
<title>dir_581f3915f9e1f7f984af5af41f44c9ce</title>
<g id="a_node6"><a xlink:href="dir_581f3915f9e1f7f984af5af41f44c9ce.html" target="_top" xlink:title="authz">
<polygon fill="#a2b4d6" stroke="#404040" points="262,-255 218,-255 218,-236 262,-236 262,-255"/>
<text text-anchor="middle" x="240" y="-243" font-family="Helvetica,sans-Serif" font-size="10.00">authz</text>
</a>
</g>
</g>
<!-- dir_581f3915f9e1f7f984af5af41f44c9ce&#45;&gt;dir_aebb8dcc11953d78e620bbef0b9e2183 -->
<g id="edge3" class="edge">
<title>dir_581f3915f9e1f7f984af5af41f44c9ce&#45;&gt;dir_aebb8dcc11953d78e620bbef0b9e2183</title>
<g id="a_edge3"><a xlink:href="dir_000009_000028.html" target="_top">
<path fill="none" stroke="#63b8ff" d="M246.31,-236C262.62,-213.52 306.31,-150.1 326,-90 330.72,-75.58 332.97,-58.52 334.04,-45.71"/>
<polygon fill="#63b8ff" stroke="#63b8ff" points="337.55,-45.56 334.72,-35.35 330.57,-45.09 337.55,-45.56"/>
</a>
</g>
<g id="a_edge3&#45;headlabel"><a xlink:href="dir_000009_000028.html" target="_top" xlink:title="18">
<text text-anchor="middle" x="340.15" y="-46.83" font-family="Helvetica,sans-Serif" font-size="10.00" fill="#63b8ff">18</text>
</a>
</g>
</g>
<!-- dir_581f3915f9e1f7f984af5af41f44c9ce&#45;&gt;dir_b74ed0efa461d1dc3d2a2bcdca1c8270 -->
<g id="edge4" class="edge">
<title>dir_581f3915f9e1f7f984af5af41f44c9ce&#45;&gt;dir_b74ed0efa461d1dc3d2a2bcdca1c8270</title>
<g id="a_edge4"><a xlink:href="dir_000009_000070.html" target="_top">
<path fill="none" stroke="#63b8ff" d="M251.95,-235.87C281.56,-214.05 359.58,-153.85 410,-90 421.08,-75.97 430.64,-57.96 436.95,-44.71"/>
<polygon fill="#63b8ff" stroke="#63b8ff" points="440.3,-45.81 441.29,-35.27 433.94,-42.89 440.3,-45.81"/>
</a>
</g>
<g id="a_edge4&#45;headlabel"><a xlink:href="dir_000009_000070.html" target="_top" xlink:title="5">
<text text-anchor="middle" x="441.38" y="-47.76" font-family="Helvetica,sans-Serif" font-size="10.00" fill="#63b8ff">5</text>
</a>
</g>
</g>
<!-- dir_581f3915f9e1f7f984af5af41f44c9ce&#45;&gt;dir_7d71b6c457a61cbf03a04bfdc57b6110 -->
<g id="edge1" class="edge">
<title>dir_581f3915f9e1f7f984af5af41f44c9ce&#45;&gt;dir_7d71b6c457a61cbf03a04bfdc57b6110</title>
<g id="a_edge1"><a xlink:href="dir_000009_000044.html" target="_top">
<path fill="none" stroke="#63b8ff" d="M220.44,-235.89C203.83,-228.02 179.91,-215.28 162,-200 146.09,-186.43 131.55,-167.35 122.1,-153.65"/>
<polygon fill="#63b8ff" stroke="#63b8ff" points="124.88,-151.53 116.41,-145.16 119.07,-155.42 124.88,-151.53"/>
</a>
</g>
<g id="a_edge1&#45;headlabel"><a xlink:href="dir_000009_000044.html" target="_top" xlink:title="4">
<text text-anchor="middle" x="129.24" y="-150.43" font-family="Helvetica,sans-Serif" font-size="10.00" fill="#63b8ff">4</text>
</a>
</g>
</g>
<!-- dir_8871a34fceeeb416fb017aaac8b471ce -->
<g id="node12" class="node">
<title>dir_8871a34fceeeb416fb017aaac8b471ce</title>
<g id="a_node12"><a xlink:href="dir_8871a34fceeeb416fb017aaac8b471ce.html" target="_top" xlink:title="pwd">
<polygon fill="#a2b4d6" stroke="#404040" points="258.5,-200 221.5,-200 221.5,-181 258.5,-181 258.5,-200"/>
<text text-anchor="middle" x="240" y="-188" font-family="Helvetica,sans-Serif" font-size="10.00">pwd</text>
</a>
</g>
</g>
<!-- dir_581f3915f9e1f7f984af5af41f44c9ce&#45;&gt;dir_8871a34fceeeb416fb017aaac8b471ce -->
<g id="edge2" class="edge">
<title>dir_581f3915f9e1f7f984af5af41f44c9ce&#45;&gt;dir_8871a34fceeeb416fb017aaac8b471ce</title>
<g id="a_edge2"><a xlink:href="dir_000009_000085.html" target="_top">
<path fill="none" stroke="#63b8ff" d="M240,-235.75C240,-228.8 240,-218.85 240,-210.13"/>
<polygon fill="#63b8ff" stroke="#63b8ff" points="243.5,-210.09 240,-200.09 236.5,-210.09 243.5,-210.09"/>
</a>
</g>
<g id="a_edge2&#45;headlabel"><a xlink:href="dir_000009_000085.html" target="_top" xlink:title="1">
<text text-anchor="middle" x="246.34" y="-211.18" font-family="Helvetica,sans-Serif" font-size="10.00" fill="#63b8ff">1</text>
</a>
</g>
</g>
<!-- dir_bdbfed0c8ee8067c93f3c7cc372c7da0 -->
<g id="node7" class="node">
<title>dir_bdbfed0c8ee8067c93f3c7cc372c7da0</title>
<g id="a_node7"><a xlink:href="dir_bdbfed0c8ee8067c93f3c7cc372c7da0.html" target="_top" xlink:title="crypto">
<polygon fill="#a2b4d6" stroke="#404040" points="305.5,-90 258.5,-90 258.5,-71 305.5,-71 305.5,-90"/>
<text text-anchor="middle" x="282" y="-78" font-family="Helvetica,sans-Serif" font-size="10.00">crypto</text>
</a>
</g>
</g>
<!-- dir_bdbfed0c8ee8067c93f3c7cc372c7da0&#45;&gt;dir_aebb8dcc11953d78e620bbef0b9e2183 -->
<g id="edge6" class="edge">
<title>dir_bdbfed0c8ee8067c93f3c7cc372c7da0&#45;&gt;dir_aebb8dcc11953d78e620bbef0b9e2183</title>
<g id="a_edge6"><a xlink:href="dir_000031_000028.html" target="_top">
<path fill="none" stroke="#63b8ff" d="M290.75,-70.75C298.47,-63.03 309.9,-51.6 319.22,-42.28"/>
<polygon fill="#63b8ff" stroke="#63b8ff" points="321.81,-44.64 326.41,-35.09 316.86,-39.69 321.81,-44.64"/>
</a>
</g>
<g id="a_edge6&#45;headlabel"><a xlink:href="dir_000031_000028.html" target="_top" xlink:title="4">
<text text-anchor="middle" x="321.28" y="-46.68" font-family="Helvetica,sans-Serif" font-size="10.00" fill="#63b8ff">4</text>
</a>
</g>
</g>
<!-- dir_bdbfed0c8ee8067c93f3c7cc372c7da0&#45;&gt;dir_b74ed0efa461d1dc3d2a2bcdca1c8270 -->
<g id="edge7" class="edge">
<title>dir_bdbfed0c8ee8067c93f3c7cc372c7da0&#45;&gt;dir_b74ed0efa461d1dc3d2a2bcdca1c8270</title>
<g id="a_edge7"><a xlink:href="dir_000031_000070.html" target="_top">
<path fill="none" stroke="#63b8ff" d="M295.01,-70.85C299.61,-68.07 304.9,-65.14 310,-63 337.16,-51.57 368.92,-42.77 394.81,-36.68"/>
<polygon fill="#63b8ff" stroke="#63b8ff" points="395.81,-40.04 404.78,-34.4 394.25,-33.22 395.81,-40.04"/>
</a>
</g>
<g id="a_edge7&#45;headlabel"><a xlink:href="dir_000031_000070.html" target="_top" xlink:title="2">
<text text-anchor="middle" x="392.94" y="-41.11" font-family="Helvetica,sans-Serif" font-size="10.00" fill="#63b8ff">2</text>
</a>
</g>
</g>
<!-- dir_bdbfed0c8ee8067c93f3c7cc372c7da0&#45;&gt;dir_79690749eba542503bb1a9a3dbb495e1 -->
<g id="edge5" class="edge">
<title>dir_bdbfed0c8ee8067c93f3c7cc372c7da0&#45;&gt;dir_79690749eba542503bb1a9a3dbb495e1</title>
<g id="a_edge5"><a xlink:href="dir_000031_000083.html" target="_top">
<path fill="none" stroke="#63b8ff" d="M266.54,-70.86C261.12,-68.07 254.9,-65.15 249,-63 212.46,-49.68 169.2,-39.83 138.19,-33.75"/>
<polygon fill="#63b8ff" stroke="#63b8ff" points="138.66,-30.27 128.18,-31.83 137.34,-37.15 138.66,-30.27"/>
</a>
</g>
<g id="a_edge5&#45;headlabel"><a xlink:href="dir_000031_000083.html" target="_top" xlink:title="1">
<text text-anchor="middle" x="142.72" y="-25.66" font-family="Helvetica,sans-Serif" font-size="10.00" fill="#63b8ff">1</text>
</a>
</g>
</g>
<!-- dir_326f453899b7b66e2cbbecff85ed4637 -->
<g id="node8" class="node">
<title>dir_326f453899b7b66e2cbbecff85ed4637</title>
<g id="a_node8"><a xlink:href="dir_326f453899b7b66e2cbbecff85ed4637.html" target="_top" xlink:title="gsi">
<polygon fill="#a2b4d6" stroke="#404040" points="255.5,-145 224.5,-145 224.5,-126 255.5,-126 255.5,-145"/>
<text text-anchor="middle" x="240" y="-133" font-family="Helvetica,sans-Serif" font-size="10.00">gsi</text>
</a>
</g>
</g>
<!-- dir_326f453899b7b66e2cbbecff85ed4637&#45;&gt;dir_aebb8dcc11953d78e620bbef0b9e2183 -->
<g id="edge10" class="edge">
<title>dir_326f453899b7b66e2cbbecff85ed4637&#45;&gt;dir_aebb8dcc11953d78e620bbef0b9e2183</title>
<g id="a_edge10"><a xlink:href="dir_000047_000028.html" target="_top">
<path fill="none" stroke="#63b8ff" d="M255.64,-126.91C275.11,-117.17 306.82,-100.32 315,-90 325.21,-77.12 330.25,-58.96 332.71,-45.36"/>
<polygon fill="#63b8ff" stroke="#63b8ff" points="336.21,-45.63 334.23,-35.22 329.28,-44.59 336.21,-45.63"/>
</a>
</g>
<g id="a_edge10&#45;headlabel"><a xlink:href="dir_000047_000028.html" target="_top" xlink:title="11">
<text text-anchor="middle" x="338.48" y="-47.1" font-family="Helvetica,sans-Serif" font-size="10.00" fill="#63b8ff">11</text>
</a>
</g>
</g>
<!-- dir_326f453899b7b66e2cbbecff85ed4637&#45;&gt;dir_79690749eba542503bb1a9a3dbb495e1 -->
<g id="edge8" class="edge">
<title>dir_326f453899b7b66e2cbbecff85ed4637&#45;&gt;dir_79690749eba542503bb1a9a3dbb495e1</title>
<g id="a_edge8"><a xlink:href="dir_000047_000083.html" target="_top">
<path fill="none" stroke="#63b8ff" d="M228.3,-125.66C203.77,-107.14 146.75,-64.08 116.56,-41.28"/>
<polygon fill="#63b8ff" stroke="#63b8ff" points="118.55,-38.39 108.46,-35.16 114.33,-43.98 118.55,-38.39"/>
</a>
</g>
<g id="a_edge8&#45;headlabel"><a xlink:href="dir_000047_000083.html" target="_top" xlink:title="7">
<text text-anchor="middle" x="123.13" y="-35.79" font-family="Helvetica,sans-Serif" font-size="10.00" fill="#63b8ff">7</text>
</a>
</g>
</g>
<!-- dir_326f453899b7b66e2cbbecff85ed4637&#45;&gt;dir_bdbfed0c8ee8067c93f3c7cc372c7da0 -->
<g id="edge11" class="edge">
<title>dir_326f453899b7b66e2cbbecff85ed4637&#45;&gt;dir_bdbfed0c8ee8067c93f3c7cc372c7da0</title>
<g id="a_edge11"><a xlink:href="dir_000047_000031.html" target="_top">
<path fill="none" stroke="#63b8ff" d="M246.94,-125.75C252.87,-118.26 261.57,-107.28 268.82,-98.13"/>
<polygon fill="#63b8ff" stroke="#63b8ff" points="271.73,-100.1 275.19,-90.09 266.24,-95.75 271.73,-100.1"/>
</a>
</g>
<g id="a_edge11&#45;headlabel"><a xlink:href="dir_000047_000031.html" target="_top" xlink:title="4">
<text text-anchor="middle" x="271.72" y="-102.18" font-family="Helvetica,sans-Serif" font-size="10.00" fill="#63b8ff">4</text>
</a>
</g>
</g>
<!-- dir_a6a1f0f55ed07d71127005b6168e86f9 -->
<g id="node15" class="node">
<title>dir_a6a1f0f55ed07d71127005b6168e86f9</title>
<g id="a_node15"><a xlink:href="dir_a6a1f0f55ed07d71127005b6168e86f9.html" target="_top" xlink:title="token">
<polygon fill="#a2b4d6" stroke="#404040" points="240,-90 196,-90 196,-71 240,-71 240,-90"/>
<text text-anchor="middle" x="218" y="-78" font-family="Helvetica,sans-Serif" font-size="10.00">token</text>
</a>
</g>
</g>
<!-- dir_326f453899b7b66e2cbbecff85ed4637&#45;&gt;dir_a6a1f0f55ed07d71127005b6168e86f9 -->
<g id="edge9" class="edge">
<title>dir_326f453899b7b66e2cbbecff85ed4637&#45;&gt;dir_a6a1f0f55ed07d71127005b6168e86f9</title>
<g id="a_edge9"><a xlink:href="dir_000047_000118.html" target="_top">
<path fill="none" stroke="#63b8ff" d="M236.37,-125.75C233.42,-118.65 229.17,-108.4 225.49,-99.56"/>
<polygon fill="#63b8ff" stroke="#63b8ff" points="228.63,-97.98 221.57,-90.09 222.17,-100.67 228.63,-97.98"/>
</a>
</g>
<g id="a_edge9&#45;headlabel"><a xlink:href="dir_000047_000118.html" target="_top" xlink:title="4">
<text text-anchor="middle" x="232.63" y="-97.71" font-family="Helvetica,sans-Serif" font-size="10.00" fill="#63b8ff">4</text>
</a>
</g>
</g>
<!-- dir_6a57ac3b0b4a2c0e736ed571e7612fa5 -->
<g id="node9" class="node">
<title>dir_6a57ac3b0b4a2c0e736ed571e7612fa5</title>
<g id="a_node9"><a xlink:href="dir_6a57ac3b0b4a2c0e736ed571e7612fa5.html" target="_top" xlink:title="host">
<polygon fill="#a2b4d6" stroke="#404040" points="257,-310 219,-310 219,-291 257,-291 257,-310"/>
<text text-anchor="middle" x="238" y="-298" font-family="Helvetica,sans-Serif" font-size="10.00">host</text>
</a>
</g>
</g>
<!-- dir_6a57ac3b0b4a2c0e736ed571e7612fa5&#45;&gt;dir_aebb8dcc11953d78e620bbef0b9e2183 -->
<g id="edge14" class="edge">
<title>dir_6a57ac3b0b4a2c0e736ed571e7612fa5&#45;&gt;dir_aebb8dcc11953d78e620bbef0b9e2183</title>
<g id="a_edge14"><a xlink:href="dir_000052_000028.html" target="_top">
<path fill="none" stroke="#63b8ff" d="M257.01,-293.61C294.16,-282.05 373.02,-257.32 375,-255 393.55,-233.27 385,-220.07 385,-191.5 385,-191.5 385,-191.5 385,-134.5 385,-99.56 363.18,-63.66 348.37,-43.31"/>
<polygon fill="#63b8ff" stroke="#63b8ff" points="350.99,-40.97 342.16,-35.11 345.41,-45.2 350.99,-40.97"/>
</a>
</g>
<g id="a_edge14&#45;headlabel"><a xlink:href="dir_000052_000028.html" target="_top" xlink:title="1">
<text text-anchor="middle" x="355.43" y="-39.62" font-family="Helvetica,sans-Serif" font-size="10.00" fill="#63b8ff">1</text>
</a>
</g>
</g>
<!-- dir_6a57ac3b0b4a2c0e736ed571e7612fa5&#45;&gt;dir_79690749eba542503bb1a9a3dbb495e1 -->
<g id="edge13" class="edge">
<title>dir_6a57ac3b0b4a2c0e736ed571e7612fa5&#45;&gt;dir_79690749eba542503bb1a9a3dbb495e1</title>
<g id="a_edge13"><a xlink:href="dir_000052_000083.html" target="_top">
<path fill="none" stroke="#63b8ff" d="M218.7,-293.67C215.47,-292.74 212.15,-291.82 209,-291 139.73,-272.92 99.9,-308.2 52,-255 -5.41,-191.24 -11.34,-137.04 32,-63 38.07,-52.63 48.28,-44.99 58.83,-39.45"/>
<polygon fill="#63b8ff" stroke="#63b8ff" points="60.53,-42.52 68.1,-35.11 57.56,-36.18 60.53,-42.52"/>
</a>
</g>
<g id="a_edge13&#45;headlabel"><a xlink:href="dir_000052_000083.html" target="_top" xlink:title="1">
<text text-anchor="middle" x="58.48" y="-44.12" font-family="Helvetica,sans-Serif" font-size="10.00" fill="#63b8ff">1</text>
</a>
</g>
</g>
<!-- dir_6a57ac3b0b4a2c0e736ed571e7612fa5&#45;&gt;dir_581f3915f9e1f7f984af5af41f44c9ce -->
<g id="edge12" class="edge">
<title>dir_6a57ac3b0b4a2c0e736ed571e7612fa5&#45;&gt;dir_581f3915f9e1f7f984af5af41f44c9ce</title>
<g id="a_edge12"><a xlink:href="dir_000052_000009.html" target="_top">
<path fill="none" stroke="#63b8ff" d="M238.33,-290.75C238.59,-283.8 238.97,-273.85 239.3,-265.13"/>
<polygon fill="#63b8ff" stroke="#63b8ff" points="242.8,-265.21 239.68,-255.09 235.8,-264.95 242.8,-265.21"/>
</a>
</g>
<g id="a_edge12&#45;headlabel"><a xlink:href="dir_000052_000009.html" target="_top" xlink:title="1">
<text text-anchor="middle" x="245.5" y="-266.41" font-family="Helvetica,sans-Serif" font-size="10.00" fill="#63b8ff">1</text>
</a>
</g>
</g>
<!-- dir_d131f7d6b33c6a888827f4745d7c9b56 -->
<g id="node10" class="node">
<title>dir_d131f7d6b33c6a888827f4745d7c9b56</title>
<g id="a_node10"><a xlink:href="dir_d131f7d6b33c6a888827f4745d7c9b56.html" target="_top" xlink:title="impersonate">
<polygon fill="#a2b4d6" stroke="#404040" points="366,-255 288,-255 288,-236 366,-236 366,-255"/>
<text text-anchor="middle" x="327" y="-243" font-family="Helvetica,sans-Serif" font-size="10.00">impersonate</text>
</a>
</g>
</g>
<!-- dir_d131f7d6b33c6a888827f4745d7c9b56&#45;&gt;dir_aebb8dcc11953d78e620bbef0b9e2183 -->
<g id="edge16" class="edge">
<title>dir_d131f7d6b33c6a888827f4745d7c9b56&#45;&gt;dir_aebb8dcc11953d78e620bbef0b9e2183</title>
<g id="a_edge16"><a xlink:href="dir_000057_000028.html" target="_top">
<path fill="none" stroke="#63b8ff" d="M333.1,-235.8C338.75,-227.17 346.75,-213.35 350,-200 364.39,-140.83 361.8,-122.74 350,-63 348.77,-56.78 346.47,-50.29 344.04,-44.54"/>
<polygon fill="#63b8ff" stroke="#63b8ff" points="347.09,-42.8 339.71,-35.2 340.74,-45.74 347.09,-42.8"/>
</a>
</g>
<g id="a_edge16&#45;headlabel"><a xlink:href="dir_000057_000028.html" target="_top" xlink:title="12">
<text text-anchor="middle" x="351.18" y="-42.37" font-family="Helvetica,sans-Serif" font-size="10.00" fill="#63b8ff">12</text>
</a>
</g>
</g>
<!-- dir_d131f7d6b33c6a888827f4745d7c9b56&#45;&gt;dir_b74ed0efa461d1dc3d2a2bcdca1c8270 -->
<g id="edge17" class="edge">
<title>dir_d131f7d6b33c6a888827f4745d7c9b56&#45;&gt;dir_b74ed0efa461d1dc3d2a2bcdca1c8270</title>
<g id="a_edge17"><a xlink:href="dir_000057_000070.html" target="_top">
<path fill="none" stroke="#63b8ff" d="M355.24,-235.92C382.46,-227.04 420.83,-212.72 430,-200 463.83,-153.07 455.47,-79.35 449.08,-45.12"/>
<polygon fill="#63b8ff" stroke="#63b8ff" points="452.47,-44.23 447.06,-35.12 445.61,-45.61 452.47,-44.23"/>
</a>
</g>
<g id="a_edge17&#45;headlabel"><a xlink:href="dir_000057_000070.html" target="_top" xlink:title="3">
<text text-anchor="middle" x="455.97" y="-44.69" font-family="Helvetica,sans-Serif" font-size="10.00" fill="#63b8ff">3</text>
</a>
</g>
</g>
<!-- dir_d131f7d6b33c6a888827f4745d7c9b56&#45;&gt;dir_8871a34fceeeb416fb017aaac8b471ce -->
<g id="edge15" class="edge">
<title>dir_d131f7d6b33c6a888827f4745d7c9b56&#45;&gt;dir_8871a34fceeeb416fb017aaac8b471ce</title>
<g id="a_edge15"><a xlink:href="dir_000057_000085.html" target="_top">
<path fill="none" stroke="#63b8ff" d="M313.02,-235.98C299.53,-227.77 278.87,-215.18 262.96,-205.49"/>
<polygon fill="#63b8ff" stroke="#63b8ff" points="264.59,-202.38 254.23,-200.17 260.95,-208.36 264.59,-202.38"/>
</a>
</g>
<g id="a_edge15&#45;headlabel"><a xlink:href="dir_000057_000085.html" target="_top" xlink:title="6">
<text text-anchor="middle" x="269.14" y="-199.33" font-family="Helvetica,sans-Serif" font-size="10.00" fill="#63b8ff">6</text>
</a>
</g>
</g>
<!-- dir_d875337c0748a3d059670d148d3d144a -->
<g id="node11" class="node">
<title>dir_d875337c0748a3d059670d148d3d144a</title>
<g id="a_node11"><a xlink:href="dir_d875337c0748a3d059670d148d3d144a.html" target="_top" xlink:title="krb5">
<polygon fill="#a2b4d6" stroke="#404040" points="431,-310 393,-310 393,-291 431,-291 431,-310"/>
<text text-anchor="middle" x="412" y="-298" font-family="Helvetica,sans-Serif" font-size="10.00">krb5</text>
</a>
</g>
</g>
<!-- dir_d875337c0748a3d059670d148d3d144a&#45;&gt;dir_aebb8dcc11953d78e620bbef0b9e2183 -->
<g id="edge19" class="edge">
<title>dir_d875337c0748a3d059670d148d3d144a&#45;&gt;dir_aebb8dcc11953d78e620bbef0b9e2183</title>
<g id="a_edge19"><a xlink:href="dir_000058_000028.html" target="_top">
<path fill="none" stroke="#63b8ff" d="M423.41,-290.77C443.94,-273.98 485,-234.95 485,-191.5 485,-191.5 485,-191.5 485,-134.5 485,-96.23 467.2,-86.52 437,-63 415.58,-46.32 385.87,-36.84 364.05,-31.75"/>
<polygon fill="#63b8ff" stroke="#63b8ff" points="364.55,-28.28 354.03,-29.59 363.07,-35.12 364.55,-28.28"/>
</a>
</g>
<g id="a_edge19&#45;headlabel"><a xlink:href="dir_000058_000028.html" target="_top" xlink:title="4">
<text text-anchor="middle" x="368.66" y="-23.76" font-family="Helvetica,sans-Serif" font-size="10.00" fill="#63b8ff">4</text>
</a>
</g>
</g>
<!-- dir_d875337c0748a3d059670d148d3d144a&#45;&gt;dir_b74ed0efa461d1dc3d2a2bcdca1c8270 -->
<g id="edge20" class="edge">
<title>dir_d875337c0748a3d059670d148d3d144a&#45;&gt;dir_b74ed0efa461d1dc3d2a2bcdca1c8270</title>
<g id="a_edge20"><a xlink:href="dir_000058_000070.html" target="_top">
<path fill="none" stroke="#63b8ff" d="M431.24,-293.05C456.67,-284.16 499.5,-267.77 510,-255 528.42,-232.6 525,-220.5 525,-191.5 525,-191.5 525,-191.5 525,-134.5 525,-102.03 529.21,-89.18 510,-63 502.46,-52.73 491.11,-44.96 479.99,-39.29"/>
<polygon fill="#63b8ff" stroke="#63b8ff" points="481.34,-36.05 470.8,-35.01 478.39,-42.4 481.34,-36.05"/>
</a>
</g>
<g id="a_edge20&#45;headlabel"><a xlink:href="dir_000058_000070.html" target="_top" xlink:title="1">
<text text-anchor="middle" x="485.8" y="-32.5" font-family="Helvetica,sans-Serif" font-size="10.00" fill="#63b8ff">1</text>
</a>
</g>
</g>
<!-- dir_d875337c0748a3d059670d148d3d144a&#45;&gt;dir_79690749eba542503bb1a9a3dbb495e1 -->
<g id="edge18" class="edge">
<title>dir_d875337c0748a3d059670d148d3d144a&#45;&gt;dir_79690749eba542503bb1a9a3dbb495e1</title>
<g id="a_edge18"><a xlink:href="dir_000058_000083.html" target="_top">
<path fill="none" stroke="#63b8ff" d="M392.79,-293.41C389.85,-292.56 386.86,-291.73 384,-291 307.04,-271.45 280.91,-288.67 209,-255 173.48,-238.37 169,-226.4 140,-200 114.9,-177.15 99.7,-176.48 87,-145 73.54,-111.63 83.04,-68.76 90.48,-44.81"/>
<polygon fill="#63b8ff" stroke="#63b8ff" points="93.83,-45.82 93.66,-35.23 87.19,-43.62 93.83,-45.82"/>
</a>
</g>
<g id="a_edge18&#45;headlabel"><a xlink:href="dir_000058_000083.html" target="_top" xlink:title="1">
<text text-anchor="middle" x="95.39" y="-47.63" font-family="Helvetica,sans-Serif" font-size="10.00" fill="#63b8ff">1</text>
</a>
</g>
</g>
<!-- dir_8871a34fceeeb416fb017aaac8b471ce&#45;&gt;dir_aebb8dcc11953d78e620bbef0b9e2183 -->
<g id="edge23" class="edge">
<title>dir_8871a34fceeeb416fb017aaac8b471ce&#45;&gt;dir_aebb8dcc11953d78e620bbef0b9e2183</title>
<g id="a_edge23"><a xlink:href="dir_000085_000028.html" target="_top">
<path fill="none" stroke="#63b8ff" d="M234.23,-180.98C217.56,-155.89 171.51,-82.78 187,-63 201.47,-44.53 266.91,-34.13 305.76,-29.49"/>
<polygon fill="#63b8ff" stroke="#63b8ff" points="306.41,-32.94 315.95,-28.33 305.62,-25.98 306.41,-32.94"/>
</a>
</g>
<g id="a_edge23&#45;headlabel"><a xlink:href="dir_000085_000028.html" target="_top" xlink:title="1">
<text text-anchor="middle" x="303.16" y="-33.67" font-family="Helvetica,sans-Serif" font-size="10.00" fill="#63b8ff">1</text>
</a>
</g>
</g>
<!-- dir_8871a34fceeeb416fb017aaac8b471ce&#45;&gt;dir_79690749eba542503bb1a9a3dbb495e1 -->
<g id="edge22" class="edge">
<title>dir_8871a34fceeeb416fb017aaac8b471ce&#45;&gt;dir_79690749eba542503bb1a9a3dbb495e1</title>
<g id="a_edge22"><a xlink:href="dir_000085_000083.html" target="_top">
<path fill="none" stroke="#63b8ff" d="M231.74,-180.72C223.4,-171.8 210.18,-157.55 199,-145 166.98,-109.05 130.38,-66.04 110.9,-43"/>
<polygon fill="#63b8ff" stroke="#63b8ff" points="113.45,-40.59 104.32,-35.21 108.1,-45.11 113.45,-40.59"/>
</a>
</g>
<g id="a_edge22&#45;headlabel"><a xlink:href="dir_000085_000083.html" target="_top" xlink:title="2">
<text text-anchor="middle" x="117.94" y="-39.01" font-family="Helvetica,sans-Serif" font-size="10.00" fill="#63b8ff">2</text>
</a>
</g>
</g>
<!-- dir_8871a34fceeeb416fb017aaac8b471ce&#45;&gt;dir_326f453899b7b66e2cbbecff85ed4637 -->
<g id="edge21" class="edge">
<title>dir_8871a34fceeeb416fb017aaac8b471ce&#45;&gt;dir_326f453899b7b66e2cbbecff85ed4637</title>
<g id="a_edge21"><a xlink:href="dir_000085_000047.html" target="_top">
<path fill="none" stroke="#63b8ff" d="M240,-180.75C240,-173.8 240,-163.85 240,-155.13"/>
<polygon fill="#63b8ff" stroke="#63b8ff" points="243.5,-155.09 240,-145.09 236.5,-155.09 243.5,-155.09"/>
</a>
</g>
<g id="a_edge21&#45;headlabel"><a xlink:href="dir_000085_000047.html" target="_top" xlink:title="1">
<text text-anchor="middle" x="246.34" y="-156.18" font-family="Helvetica,sans-Serif" font-size="10.00" fill="#63b8ff">1</text>
</a>
</g>
</g>
<!-- dir_7ab1c2cd61c66df90376e2cb370947dd -->
<g id="node13" class="node">
<title>dir_7ab1c2cd61c66df90376e2cb370947dd</title>
<g id="a_node13"><a xlink:href="dir_7ab1c2cd61c66df90376e2cb370947dd.html" target="_top" xlink:title="s3">
<polygon fill="#a2b4d6" stroke="#404040" points="200.5,-310 171.5,-310 171.5,-291 200.5,-291 200.5,-310"/>
<text text-anchor="middle" x="186" y="-298" font-family="Helvetica,sans-Serif" font-size="10.00">s3</text>
</a>
</g>
</g>
<!-- dir_7ab1c2cd61c66df90376e2cb370947dd&#45;&gt;dir_aebb8dcc11953d78e620bbef0b9e2183 -->
<g id="edge24" class="edge">
<title>dir_7ab1c2cd61c66df90376e2cb370947dd&#45;&gt;dir_aebb8dcc11953d78e620bbef0b9e2183</title>
<g id="a_edge24"><a xlink:href="dir_000097_000028.html" target="_top">
<path fill="none" stroke="#63b8ff" d="M171.47,-297.49C136.61,-292.35 49.9,-277.51 33,-255 27.93,-248.25 31.09,-244.23 33,-236 54.88,-141.79 77.72,-104.67 165,-63 211.29,-40.9 271.03,-32.06 305.96,-28.61"/>
<polygon fill="#63b8ff" stroke="#63b8ff" points="306.33,-32.09 315.97,-27.7 305.69,-25.12 306.33,-32.09"/>
</a>
</g>
<g id="a_edge24&#45;headlabel"><a xlink:href="dir_000097_000028.html" target="_top" xlink:title="4">
<text text-anchor="middle" x="303" y="-32.74" font-family="Helvetica,sans-Serif" font-size="10.00" fill="#63b8ff">4</text>
</a>
</g>
</g>
<!-- dir_00035e88d6e48054710dd0e4646dd49f -->
<g id="node14" class="node">
<title>dir_00035e88d6e48054710dd0e4646dd49f</title>
<g id="a_node14"><a xlink:href="dir_00035e88d6e48054710dd0e4646dd49f.html" target="_top" xlink:title="sss">
<polygon fill="#a2b4d6" stroke="#404040" points="203,-200 171,-200 171,-181 203,-181 203,-200"/>
<text text-anchor="middle" x="187" y="-188" font-family="Helvetica,sans-Serif" font-size="10.00">sss</text>
</a>
</g>
</g>
<!-- dir_00035e88d6e48054710dd0e4646dd49f&#45;&gt;dir_aebb8dcc11953d78e620bbef0b9e2183 -->
<g id="edge28" class="edge">
<title>dir_00035e88d6e48054710dd0e4646dd49f&#45;&gt;dir_aebb8dcc11953d78e620bbef0b9e2183</title>
<g id="a_edge28"><a xlink:href="dir_000112_000028.html" target="_top">
<path fill="none" stroke="#63b8ff" d="M183.08,-180.97C173.54,-158.79 151.87,-98.52 180,-63 195.4,-43.55 265.38,-33.43 305.85,-29.12"/>
<polygon fill="#63b8ff" stroke="#63b8ff" points="306.33,-32.59 315.93,-28.1 305.63,-25.63 306.33,-32.59"/>
</a>
</g>
<g id="a_edge28&#45;headlabel"><a xlink:href="dir_000112_000028.html" target="_top" xlink:title="9">
<text text-anchor="middle" x="303.04" y="-33.28" font-family="Helvetica,sans-Serif" font-size="10.00" fill="#63b8ff">9</text>
</a>
</g>
</g>
<!-- dir_00035e88d6e48054710dd0e4646dd49f&#45;&gt;dir_7d71b6c457a61cbf03a04bfdc57b6110 -->
<g id="edge27" class="edge">
<title>dir_00035e88d6e48054710dd0e4646dd49f&#45;&gt;dir_7d71b6c457a61cbf03a04bfdc57b6110</title>
<g id="a_edge27"><a xlink:href="dir_000112_000044.html" target="_top">
<path fill="none" stroke="#63b8ff" d="M174.79,-180.98C163.22,-172.92 145.62,-160.65 131.84,-151.03"/>
<polygon fill="#63b8ff" stroke="#63b8ff" points="133.64,-148.02 123.43,-145.17 129.63,-153.76 133.64,-148.02"/>
</a>
</g>
<g id="a_edge27&#45;headlabel"><a xlink:href="dir_000112_000044.html" target="_top" xlink:title="2">
<text text-anchor="middle" x="138.21" y="-145.25" font-family="Helvetica,sans-Serif" font-size="10.00" fill="#63b8ff">2</text>
</a>
</g>
</g>
<!-- dir_00035e88d6e48054710dd0e4646dd49f&#45;&gt;dir_79690749eba542503bb1a9a3dbb495e1 -->
<g id="edge26" class="edge">
<title>dir_00035e88d6e48054710dd0e4646dd49f&#45;&gt;dir_79690749eba542503bb1a9a3dbb495e1</title>
<g id="a_edge26"><a xlink:href="dir_000112_000083.html" target="_top">
<path fill="none" stroke="#63b8ff" d="M179.64,-180.73C162.61,-160.29 121.29,-109.78 112,-90 105.3,-75.72 101.45,-58.2 99.33,-45.17"/>
<polygon fill="#63b8ff" stroke="#63b8ff" points="102.77,-44.49 97.89,-35.09 95.84,-45.48 102.77,-44.49"/>
</a>
</g>
<g id="a_edge26&#45;headlabel"><a xlink:href="dir_000112_000083.html" target="_top" xlink:title="5">
<text text-anchor="middle" x="106.09" y="-45.15" font-family="Helvetica,sans-Serif" font-size="10.00" fill="#63b8ff">5</text>
</a>
</g>
</g>
<!-- dir_00035e88d6e48054710dd0e4646dd49f&#45;&gt;dir_326f453899b7b66e2cbbecff85ed4637 -->
<g id="edge25" class="edge">
<title>dir_00035e88d6e48054710dd0e4646dd49f&#45;&gt;dir_326f453899b7b66e2cbbecff85ed4637</title>
<g id="a_edge25"><a xlink:href="dir_000112_000047.html" target="_top">
<path fill="none" stroke="#63b8ff" d="M195.75,-180.75C203.47,-173.03 214.9,-161.6 224.22,-152.28"/>
<polygon fill="#63b8ff" stroke="#63b8ff" points="226.81,-154.64 231.41,-145.09 221.86,-149.69 226.81,-154.64"/>
</a>
</g>
<g id="a_edge25&#45;headlabel"><a xlink:href="dir_000112_000047.html" target="_top" xlink:title="1">
<text text-anchor="middle" x="226.28" y="-156.68" font-family="Helvetica,sans-Serif" font-size="10.00" fill="#63b8ff">1</text>
</a>
</g>
</g>
<!-- dir_a6a1f0f55ed07d71127005b6168e86f9&#45;&gt;dir_aebb8dcc11953d78e620bbef0b9e2183 -->
<g id="edge29" class="edge">
<title>dir_a6a1f0f55ed07d71127005b6168e86f9&#45;&gt;dir_aebb8dcc11953d78e620bbef0b9e2183</title>
<g id="a_edge29"><a xlink:href="dir_000118_000028.html" target="_top">
<path fill="none" stroke="#63b8ff" d="M233.63,-70.84C238.51,-68.23 243.94,-65.42 249,-63 267.97,-53.95 289.76,-44.71 306.67,-37.79"/>
<polygon fill="#63b8ff" stroke="#63b8ff" points="308.05,-41.01 316,-34.01 305.42,-34.52 308.05,-41.01"/>
</a>
</g>
<g id="a_edge29&#45;headlabel"><a xlink:href="dir_000118_000028.html" target="_top" xlink:title="22">
<text text-anchor="middle" x="305.79" y="-42.49" font-family="Helvetica,sans-Serif" font-size="10.00" fill="#63b8ff">22</text>
</a>
</g>
</g>
<!-- dir_772a4fa5d517828c4da74c0a489d455c -->
<g id="node16" class="node">
<title>dir_772a4fa5d517828c4da74c0a489d455c</title>
<g id="a_node16"><a xlink:href="dir_772a4fa5d517828c4da74c0a489d455c.html" target="_top" xlink:title="unix">
<polygon fill="#a2b4d6" stroke="#404040" points="313,-310 275,-310 275,-291 313,-291 313,-310"/>
<text text-anchor="middle" x="294" y="-298" font-family="Helvetica,sans-Serif" font-size="10.00">unix</text>
</a>
</g>
</g>
<!-- dir_772a4fa5d517828c4da74c0a489d455c&#45;&gt;dir_aebb8dcc11953d78e620bbef0b9e2183 -->
<g id="edge31" class="edge">
<title>dir_772a4fa5d517828c4da74c0a489d455c&#45;&gt;dir_aebb8dcc11953d78e620bbef0b9e2183</title>
<g id="a_edge31"><a xlink:href="dir_000122_000028.html" target="_top">
<path fill="none" stroke="#63b8ff" d="M313.27,-292.85C338.24,-283.86 379.78,-267.53 390,-255 408.33,-232.53 405,-220.5 405,-191.5 405,-191.5 405,-191.5 405,-134.5 405,-102.03 408.22,-89.87 390,-63 383.3,-53.12 372.96,-45.24 363.03,-39.37"/>
<polygon fill="#63b8ff" stroke="#63b8ff" points="364.62,-36.24 354.16,-34.54 361.27,-42.39 364.62,-36.24"/>
</a>
</g>
<g id="a_edge31&#45;headlabel"><a xlink:href="dir_000122_000028.html" target="_top" xlink:title="1">
<text text-anchor="middle" x="369.13" y="-32.97" font-family="Helvetica,sans-Serif" font-size="10.00" fill="#63b8ff">1</text>
</a>
</g>
</g>
<!-- dir_772a4fa5d517828c4da74c0a489d455c&#45;&gt;dir_b74ed0efa461d1dc3d2a2bcdca1c8270 -->
<g id="edge32" class="edge">
<title>dir_772a4fa5d517828c4da74c0a489d455c&#45;&gt;dir_b74ed0efa461d1dc3d2a2bcdca1c8270</title>
<g id="a_edge32"><a xlink:href="dir_000122_000070.html" target="_top">
<path fill="none" stroke="#63b8ff" d="M313.1,-291.94C365.04,-271.1 505,-212.95 505,-191.5 505,-191.5 505,-191.5 505,-134.5 505,-98.09 478.62,-62.48 460.84,-42.62"/>
<polygon fill="#63b8ff" stroke="#63b8ff" points="463.23,-40.05 453.85,-35.11 458.11,-44.82 463.23,-40.05"/>
</a>
</g>
<g id="a_edge32&#45;headlabel"><a xlink:href="dir_000122_000070.html" target="_top" xlink:title="1">
<text text-anchor="middle" x="467.76" y="-38.24" font-family="Helvetica,sans-Serif" font-size="10.00" fill="#63b8ff">1</text>
</a>
</g>
</g>
<!-- dir_772a4fa5d517828c4da74c0a489d455c&#45;&gt;dir_79690749eba542503bb1a9a3dbb495e1 -->
<g id="edge30" class="edge">
<title>dir_772a4fa5d517828c4da74c0a489d455c&#45;&gt;dir_79690749eba542503bb1a9a3dbb495e1</title>
<g id="a_edge30"><a xlink:href="dir_000122_000083.html" target="_top">
<path fill="none" stroke="#63b8ff" d="M274.8,-293.36C271.87,-292.52 268.86,-291.7 266,-291 180.8,-270.23 132.03,-318.93 72,-255 13.27,-192.46 15.1,-140.45 52,-63 56.26,-54.06 63.89,-46.6 71.68,-40.81"/>
<polygon fill="#63b8ff" stroke="#63b8ff" points="73.69,-43.67 80.03,-35.18 69.78,-37.86 73.69,-43.67"/>
</a>
</g>
<g id="a_edge30&#45;headlabel"><a xlink:href="dir_000122_000083.html" target="_top" xlink:title="1">
<text text-anchor="middle" x="72.3" y="-45.53" font-family="Helvetica,sans-Serif" font-size="10.00" fill="#63b8ff">1</text>
</a>
</g>
</g>
<!-- dir_afd760938acfe1bc9552e8ce0d07f566 -->
<g id="node17" class="node">
<title>dir_afd760938acfe1bc9552e8ce0d07f566</title>
<g id="a_node17"><a xlink:href="dir_afd760938acfe1bc9552e8ce0d07f566.html" target="_top" xlink:title="voms">
<polygon fill="#a2b4d6" stroke="#404040" points="375,-310 331,-310 331,-291 375,-291 375,-310"/>
<text text-anchor="middle" x="353" y="-298" font-family="Helvetica,sans-Serif" font-size="10.00">voms</text>
</a>
</g>
</g>
<!-- dir_afd760938acfe1bc9552e8ce0d07f566&#45;&gt;dir_aebb8dcc11953d78e620bbef0b9e2183 -->
<g id="edge33" class="edge">
<title>dir_afd760938acfe1bc9552e8ce0d07f566&#45;&gt;dir_aebb8dcc11953d78e620bbef0b9e2183</title>
<g id="a_edge33"><a xlink:href="dir_000126_000028.html" target="_top">
<path fill="none" stroke="#63b8ff" d="M373.54,-290.96C405.88,-275.99 465,-241.74 465,-191.5 465,-191.5 465,-191.5 465,-134.5 465,-82.25 402.09,-50.43 363.8,-35.9"/>
<polygon fill="#63b8ff" stroke="#63b8ff" points="364.78,-32.53 354.18,-32.42 362.39,-39.12 364.78,-32.53"/>
</a>
</g>
<g id="a_edge33&#45;headlabel"><a xlink:href="dir_000126_000028.html" target="_top" xlink:title="1">
<text text-anchor="middle" x="369.12" y="-28.59" font-family="Helvetica,sans-Serif" font-size="10.00" fill="#63b8ff">1</text>
</a>
</g>
</g>
</g>
</svg>

<g id="navigator" transform="translate(0 0)" fill="#404254">
  <rect fill="#f2f5e9" fill-opacity="0.5" stroke="#606060" stroke-width=".5" x="0" y="0" width="60" height="60"/>
  <use id="zoomplus" xlink:href="#zoomPlus" x="17" y="9" onmousedown="handleZoom(evt,'in')"/>
  <use id="zoomminus" xlink:href="#zoomMin" x="42" y="9" onmousedown="handleZoom(evt,'out')"/>
  <use id="reset" xlink:href="#resetDef" x="30" y="36" onmousedown="handleReset()"/>
   <use id="arrowup" xlink:href="#arrowUp" x="0" y="0" onmousedown="handlePan(0,-1)"/>
  <use id="arrowright" xlink:href="#arrowRight" x="0" y="0" onmousedown="handlePan(1,0)"/>
  <use id="arrowdown" xlink:href="#arrowDown" x="0" y="0" onmousedown="handlePan(0,1)"/>
  <use id="arrowleft" xlink:href="#arrowLeft" x="0" y="0" onmousedown="handlePan(-1,0)"/>
</g>
<svg viewBox="0 0 15 15" width="100%" height="30px" preserveAspectRatio="xMaxYMin meet">
 <g id="arrow_out" transform="scale(0.3 0.3)">
  <a xlink:href="dir_ecb37285c0bc658c97bb749f37c59e79_dep_org.svg" target="_base">
   <rect id="button" ry="5" rx="5" y="6" x="6" height="38" width="38"
        fill="#f2f5e9" fill-opacity="0.5" stroke="#606060" stroke-width="1.0"/>
   <path id="arrow"
     d="M 11.500037,31.436501 C 11.940474,20.09759 22.043105,11.32322 32.158766,21.979434 L 37.068811,17.246167 C 37.068811,17.246167 37.088388,32 37.088388,32 L 22.160133,31.978069 C 22.160133,31.978069 26.997745,27.140456 26.997745,27.140456 C 18.528582,18.264221 13.291696,25.230495 11.500037,31.436501 z"
     style="fill:#404040;"/>
  </a>
 </g>
</svg>

<style type='text/css'>
<![CDATA[
[data-mouse-over-selected='false'] { opacity: 0.7; }
[data-mouse-over-selected='true']  { opacity: 1.0; }
]]>
</style>
<script type="application/ecmascript"><![CDATA[
document.addEventListener('DOMContentLoaded', (event) => {
  highlightEdges();
  highlightAdjacentNodes();
});
]]></script>
</svg>
