<?xml version="1.0" encoding="UTF-8" standalone="no"?>
<!DOCTYPE svg PUBLIC "-//W3C//DTD SVG 1.1//EN"
 "http://www.w3.org/Graphics/SVG/1.1/DTD/svg11.dtd">
<!-- Generated by graphviz version 2.43.0 (0)
 -->
<!-- Title: client/lib/core Pages: 1 -->
<svg width="302pt" height="141pt"
 viewBox="0.00 0.00 301.50 141.00" xmlns="http://www.w3.org/2000/svg" xmlns:xlink="http://www.w3.org/1999/xlink">
<g id="graph0" class="graph" transform="scale(1 1) rotate(0) translate(4 137)">
<title>client/lib/core</title>
<g id="clust1" class="cluster">
<title>clusterdir_c820a03d7ce2287b7e602f7703757381</title>
<g id="a_clust1"><a xlink:href="dir_c820a03d7ce2287b7e602f7703757381.html" target="_top" xlink:title="lib">
<polygon fill="#edf0f7" stroke="#7f7f7f" stroke-dasharray="5,2" points="8,-8 8,-125 254,-125 254,-8 8,-8"/>
<text text-anchor="middle" x="131" y="-113" font-family="Helvetica,sans-Serif" font-size="10.00">lib</text>
</a>
</g>
</g>
<g id="clust2" class="cluster">
<title>clusterdir_467860735a4a74398db4a8c79362a6a2</title>
<g id="a_clust2"><a xlink:href="dir_467860735a4a74398db4a8c79362a6a2.html" target="_top">
<polygon fill="#edf0f7" stroke="#404040" stroke-width="2" points="16,-63 16,-98 246,-98 246,-63 16,-63"/>
</a>
</g>
</g>
<!-- dir_ab89d208571eb39d28c03001c09dd8f9 -->
<g id="node1" class="node">
<title>dir_ab89d208571eb39d28c03001c09dd8f9</title>
<g id="a_node1"><a xlink:href="dir_ab89d208571eb39d28c03001c09dd8f9.html" target="_top" xlink:title="cli">
<polygon fill="#a2b4d6" stroke="#404040" points="61.5,-35 32.5,-35 32.5,-16 61.5,-16 61.5,-35"/>
<text text-anchor="middle" x="47" y="-23" font-family="Helvetica,sans-Serif" font-size="10.00">cli</text>
</a>
</g>
</g>
<!-- dir_467860735a4a74398db4a8c79362a6a2 -->
<g id="node2" class="node">
<title>dir_467860735a4a74398db4a8c79362a6a2</title>
<text text-anchor="middle" x="219" y="-78" font-family="Helvetica,sans-Serif" font-size="10.00">core</text>
</g>
<!-- dir_adb75d300f451c91cf9f83f439f6f33b -->
<g id="node3" class="node">
<title>dir_adb75d300f451c91cf9f83f439f6f33b</title>
<g id="a_node3"><a xlink:href="dir_adb75d300f451c91cf9f83f439f6f33b.html" target="_top" xlink:title="aio">
<polygon fill="#a2b4d6" stroke="#404040" points="182,-90 150,-90 150,-71 182,-71 182,-90"/>
<text text-anchor="middle" x="166" y="-78" font-family="Helvetica,sans-Serif" font-size="10.00">aio</text>
</a>
</g>
</g>
<!-- dir_68267d1309a1af8e8297ef4c3efbcdba -->
<g id="node6" class="node">
<title>dir_68267d1309a1af8e8297ef4c3efbcdba</title>
<g id="a_node6"><a xlink:href="dir_68267d1309a1af8e8297ef4c3efbcdba.html" target="_top" xlink:title="src">
<polygon fill="#edf0f7" stroke="red" points="293.5,-35 262.5,-35 262.5,-16 293.5,-16 293.5,-35"/>
<text text-anchor="middle" x="278" y="-23" font-family="Helvetica,sans-Serif" font-size="10.00">src</text>
</a>
</g>
</g>
<!-- dir_adb75d300f451c91cf9f83f439f6f33b&#45;&gt;dir_68267d1309a1af8e8297ef4c3efbcdba -->
<g id="edge1" class="edge">
<title>dir_adb75d300f451c91cf9f83f439f6f33b&#45;&gt;dir_68267d1309a1af8e8297ef4c3efbcdba</title>
<g id="a_edge1"><a xlink:href="dir_000003_000107.html" target="_top">
<path fill="none" stroke="#63b8ff" d="M177.93,-70.97C181.98,-68.26 186.59,-65.35 191,-63 216.7,-49.3 226.36,-47.73 253,-37.02"/>
<polygon fill="#63b8ff" stroke="#63b8ff" points="254.37,-40.24 262.28,-33.19 251.7,-33.76 254.37,-40.24"/>
</a>
</g>
<g id="a_edge1&#45;headlabel"><a xlink:href="dir_000003_000107.html" target="_top" xlink:title="5">
<text text-anchor="middle" x="252.13" y="-41.73" font-family="Helvetica,sans-Serif" font-size="10.00" fill="#63b8ff">5</text>
</a>
</g>
</g>
<!-- dir_45cc7e0a036e505ce0f479394b3eb93a -->
<g id="node4" class="node">
<title>dir_45cc7e0a036e505ce0f479394b3eb93a</title>
<g id="a_node4"><a xlink:href="dir_45cc7e0a036e505ce0f479394b3eb93a.html" target="_top" xlink:title="config">
<polygon fill="#a2b4d6" stroke="#404040" points="70,-90 24,-90 24,-71 70,-71 70,-90"/>
<text text-anchor="middle" x="47" y="-78" font-family="Helvetica,sans-Serif" font-size="10.00">config</text>
</a>
</g>
</g>
<!-- dir_45cc7e0a036e505ce0f479394b3eb93a&#45;&gt;dir_ab89d208571eb39d28c03001c09dd8f9 -->
<g id="edge2" class="edge">
<title>dir_45cc7e0a036e505ce0f479394b3eb93a&#45;&gt;dir_ab89d208571eb39d28c03001c09dd8f9</title>
<g id="a_edge2"><a xlink:href="dir_000023_000017.html" target="_top">
<path fill="none" stroke="#63b8ff" d="M47,-70.75C47,-63.8 47,-53.85 47,-45.13"/>
<polygon fill="#63b8ff" stroke="#63b8ff" points="50.5,-45.09 47,-35.09 43.5,-45.09 50.5,-45.09"/>
</a>
</g>
<g id="a_edge2&#45;headlabel"><a xlink:href="dir_000023_000017.html" target="_top" xlink:title="1">
<text text-anchor="middle" x="53.34" y="-46.18" font-family="Helvetica,sans-Serif" font-size="10.00" fill="#63b8ff">1</text>
</a>
</g>
</g>
<!-- dir_2c3cacc1d832677f1b4c95067f71e9e1 -->
<g id="node5" class="node">
<title>dir_2c3cacc1d832677f1b4c95067f71e9e1</title>
<g id="a_node5"><a xlink:href="dir_2c3cacc1d832677f1b4c95067f71e9e1.html" target="_top" xlink:title="types">
<polygon fill="#a2b4d6" stroke="#404040" points="132,-90 88,-90 88,-71 132,-71 132,-90"/>
<text text-anchor="middle" x="110" y="-78" font-family="Helvetica,sans-Serif" font-size="10.00">types</text>
</a>
</g>
</g>
<!-- dir_2c3cacc1d832677f1b4c95067f71e9e1&#45;&gt;dir_68267d1309a1af8e8297ef4c3efbcdba -->
<g id="edge3" class="edge">
<title>dir_2c3cacc1d832677f1b4c95067f71e9e1&#45;&gt;dir_68267d1309a1af8e8297ef4c3efbcdba</title>
<g id="a_edge3"><a xlink:href="dir_000119_000107.html" target="_top">
<path fill="none" stroke="#63b8ff" d="M124.15,-70.99C129.32,-68.15 135.3,-65.16 141,-63 187.98,-45.21 205.13,-50.91 252.77,-36.48"/>
<polygon fill="#63b8ff" stroke="#63b8ff" points="253.9,-39.8 262.37,-33.43 251.78,-33.12 253.9,-39.8"/>
</a>
</g>
<g id="a_edge3&#45;headlabel"><a xlink:href="dir_000119_000107.html" target="_top" xlink:title="3">
<text text-anchor="middle" x="251.34" y="-41.09" font-family="Helvetica,sans-Serif" font-size="10.00" fill="#63b8ff">3</text>
</a>
</g>
</g>
</g>
</svg>
