<?xml version="1.0" encoding="UTF-8" standalone="no"?>
<!DOCTYPE svg PUBLIC "-//W3C//DTD SVG 1.1//EN"
 "http://www.w3.org/Graphics/SVG/1.1/DTD/svg11.dtd">
<!-- Generated by graphviz version 2.43.0 (0)
 -->
<!-- Title: src/fs Pages: 1 -->
<!--zoomable 416 -->

<svg id="main" version="1.1" xmlns="http://www.w3.org/2000/svg" xmlns:xlink="http://www.w3.org/1999/xlink" xml:space="preserve" onload="init(evt)">
<style type="text/css"><![CDATA[
.node, .edge {opacity: 0.7;}
.node.selected, .edge.selected {opacity: 1;}
.edge:hover path { stroke: red; }
.edge:hover polygon { stroke: red; fill: red; }
]]></style>

<defs>
  <circle id="rim" cx="0" cy="0" r="7"/>
  <circle id="rim2" cx="0" cy="0" r="3.5"/>
  <g id="zoomPlus">
    <use xlink:href="#rim" fill="#404040"><set attributeName="fill" to="#808080" begin="zoomplus.mouseover" end="zoomplus.mouseout"/></use>
    <path d="M-4,0h8M0,-4v8" fill="none" stroke="white" stroke-width="1.5" pointer-events="none"/>
  </g>
  <g id="zoomMin">
    <use xlink:href="#rim" fill="#404040"><set attributeName="fill" to="#808080" begin="zoomminus.mouseover" end="zoomminus.mouseout"/></use>
    <path d="M-4,0h8" fill="none" stroke="white" stroke-width="1.5" pointer-events="none"/>
  </g>
  <g id="arrowUp" transform="translate(30 24)">
    <use xlink:href="#rim"/>
    <path pointer-events="none" fill="none" stroke="white" stroke-width="1.5" d="M0,-3.0v7 M-2.5,-0.5L0,-3.0L2.5,-0.5"/>
  </g>
  <g id="arrowRight" transform="rotate(90) translate(36 -43)">
    <use xlink:href="#rim"/>
    <path pointer-events="none" fill="none" stroke="white" stroke-width="1.5" d="M0,-3.0v7 M-2.5,-0.5L0,-3.0L2.5,-0.5"/>
  </g>
  <g id="arrowDown" transform="rotate(180) translate(-30 -48)">
    <use xlink:href="#rim"/>
    <path pointer-events="none" fill="none" stroke="white" stroke-width="1.5" d="M0,-3.0v7 M-2.5,-0.5L0,-3.0L2.5,-0.5"/>
  </g>
  <g id="arrowLeft" transform="rotate(270) translate(-36 17)">
    <use xlink:href="#rim"/>
    <path pointer-events="none" fill="none" stroke="white" stroke-width="1.5" d="M0,-3.0v7 M-2.5,-0.5L0,-3.0L2.5,-0.5"/>
  </g>
  <g id="resetDef">
    <use xlink:href="#rim2" fill="#404040"><set attributeName="fill" to="#808080" begin="reset.mouseover" end="reset.mouseout"/></use>
  </g>
</defs>
<script type="application/ecmascript">
var viewWidth = 594;
var viewHeight = 416;
var sectionId = 'dynsection-0';
</script>
<script type="application/ecmascript" xlink:href="svg.min.js"/>
<svg id="graph" class="graph">
<g id="viewport">
<title>src/fs</title>
<g id="clust1" class="cluster">
<title>clusterdir_68267d1309a1af8e8297ef4c3efbcdba</title>
<g id="a_clust1"><a xlink:href="dir_68267d1309a1af8e8297ef4c3efbcdba.html" target="_top" xlink:title="src">
<polygon fill="#edf0f7" stroke="#404040" stroke-dasharray="5,2" points="8,-8 8,-400 578,-400 578,-8 8,-8"/>
<text text-anchor="middle" x="293" y="-388" font-family="Helvetica,sans-Serif" font-size="10.00">src</text>
</a>
</g>
</g>
<g id="clust2" class="cluster">
<title>clusterdir_7d71b6c457a61cbf03a04bfdc57b6110</title>
<g id="a_clust2"><a xlink:href="dir_7d71b6c457a61cbf03a04bfdc57b6110.html" target="_top">
<polygon fill="#edf0f7" stroke="#404040" stroke-width="2" points="178,-63 178,-373 426,-373 426,-63 178,-63"/>
</a>
</g>
</g>
<!-- dir_79690749eba542503bb1a9a3dbb495e1 -->
<g id="node1" class="node">
<title>dir_79690749eba542503bb1a9a3dbb495e1</title>
<g id="a_node1"><a xlink:href="dir_79690749eba542503bb1a9a3dbb495e1.html" target="_top" xlink:title="protocols">
<polygon fill="#a2b4d6" stroke="red" points="550,-90 488,-90 488,-71 550,-71 550,-90"/>
<text text-anchor="middle" x="519" y="-78" font-family="Helvetica,sans-Serif" font-size="10.00">protocols</text>
</a>
</g>
</g>
<!-- dir_aebb8dcc11953d78e620bbef0b9e2183 -->
<g id="node2" class="node">
<title>dir_aebb8dcc11953d78e620bbef0b9e2183</title>
<g id="a_node2"><a xlink:href="dir_aebb8dcc11953d78e620bbef0b9e2183.html" target="_top" xlink:title="core">
<polygon fill="#a2b4d6" stroke="red" points="433,-35 395,-35 395,-16 433,-16 433,-35"/>
<text text-anchor="middle" x="414" y="-23" font-family="Helvetica,sans-Serif" font-size="10.00">core</text>
</a>
</g>
</g>
<!-- dir_b74ed0efa461d1dc3d2a2bcdca1c8270 -->
<g id="node3" class="node">
<title>dir_b74ed0efa461d1dc3d2a2bcdca1c8270</title>
<g id="a_node3"><a xlink:href="dir_b74ed0efa461d1dc3d2a2bcdca1c8270.html" target="_top" xlink:title="observability">
<polygon fill="#a2b4d6" stroke="red" points="136,-145 56,-145 56,-126 136,-126 136,-145"/>
<text text-anchor="middle" x="96" y="-133" font-family="Helvetica,sans-Serif" font-size="10.00">observability</text>
</a>
</g>
</g>
<!-- dir_c72b25b75abe208498b36a3e44a3726c -->
<g id="node4" class="node">
<title>dir_c72b25b75abe208498b36a3e44a3726c</title>
<g id="a_node4"><a xlink:href="dir_c72b25b75abe208498b36a3e44a3726c.html" target="_top" xlink:title="net">
<polygon fill="#a2b4d6" stroke="red" points="168,-200 136,-200 136,-181 168,-181 168,-200"/>
<text text-anchor="middle" x="152" y="-188" font-family="Helvetica,sans-Serif" font-size="10.00">net</text>
</a>
</g>
</g>
<!-- dir_ecb37285c0bc658c97bb749f37c59e79 -->
<g id="node5" class="node">
<title>dir_ecb37285c0bc658c97bb749f37c59e79</title>
<g id="a_node5"><a xlink:href="dir_ecb37285c0bc658c97bb749f37c59e79.html" target="_top" xlink:title="auth">
<polygon fill="#a2b4d6" stroke="red" points="174,-35 136,-35 136,-16 174,-16 174,-35"/>
<text text-anchor="middle" x="155" y="-23" font-family="Helvetica,sans-Serif" font-size="10.00">auth</text>
</a>
</g>
</g>
<!-- dir_7d71b6c457a61cbf03a04bfdc57b6110 -->
<g id="node6" class="node">
<title>dir_7d71b6c457a61cbf03a04bfdc57b6110</title>
<text text-anchor="middle" x="391" y="-353" font-family="Helvetica,sans-Serif" font-size="10.00">fs</text>
</g>
<!-- dir_ce3aa255f0d0e2a628573fc3b1b82afb -->
<g id="node7" class="node">
<title>dir_ce3aa255f0d0e2a628573fc3b1b82afb</title>
<g id="a_node7"><a xlink:href="dir_ce3aa255f0d0e2a628573fc3b1b82afb.html" target="_top" xlink:title="backend">
<polygon fill="#a2b4d6" stroke="#404040" points="331.5,-310 274.5,-310 274.5,-291 331.5,-291 331.5,-310"/>
<text text-anchor="middle" x="303" y="-298" font-family="Helvetica,sans-Serif" font-size="10.00">backend</text>
</a>
</g>
</g>
<!-- dir_ce3aa255f0d0e2a628573fc3b1b82afb&#45;&gt;dir_79690749eba542503bb1a9a3dbb495e1 -->
<g id="edge3" class="edge">
<title>dir_ce3aa255f0d0e2a628573fc3b1b82afb&#45;&gt;dir_79690749eba542503bb1a9a3dbb495e1</title>
<g id="a_edge3"><a xlink:href="dir_000011_000083.html" target="_top">
<path fill="none" stroke="#63b8ff" d="M325.47,-290.96C372.56,-272.67 479.4,-229.02 505,-200 529.35,-172.39 526.64,-126.01 522.71,-100.23"/>
<polygon fill="#63b8ff" stroke="#63b8ff" points="526.13,-99.51 520.96,-90.26 519.24,-100.71 526.13,-99.51"/>
</a>
</g>
<g id="a_edge3&#45;headlabel"><a xlink:href="dir_000011_000083.html" target="_top" xlink:title="2">
<text text-anchor="middle" x="529.55" y="-100.06" font-family="Helvetica,sans-Serif" font-size="10.00" fill="#63b8ff">2</text>
</a>
</g>
</g>
<!-- dir_ce3aa255f0d0e2a628573fc3b1b82afb&#45;&gt;dir_aebb8dcc11953d78e620bbef0b9e2183 -->
<g id="edge1" class="edge">
<title>dir_ce3aa255f0d0e2a628573fc3b1b82afb&#45;&gt;dir_aebb8dcc11953d78e620bbef0b9e2183</title>
<g id="a_edge1"><a xlink:href="dir_000011_000028.html" target="_top">
<path fill="none" stroke="#63b8ff" d="M274.41,-296.04C241,-291.02 184.96,-279.49 143,-255 81.28,-218.97 7.3,-185.43 47,-126 85.17,-68.85 304.01,-38.85 384.39,-29.63"/>
<polygon fill="#63b8ff" stroke="#63b8ff" points="385.23,-33.06 394.78,-28.47 384.46,-26.1 385.23,-33.06"/>
</a>
</g>
<g id="a_edge1&#45;headlabel"><a xlink:href="dir_000011_000028.html" target="_top" xlink:title="26">
<text text-anchor="middle" x="381.98" y="-33.78" font-family="Helvetica,sans-Serif" font-size="10.00" fill="#63b8ff">26</text>
</a>
</g>
</g>
<!-- dir_ce3aa255f0d0e2a628573fc3b1b82afb&#45;&gt;dir_b74ed0efa461d1dc3d2a2bcdca1c8270 -->
<g id="edge4" class="edge">
<title>dir_ce3aa255f0d0e2a628573fc3b1b82afb&#45;&gt;dir_b74ed0efa461d1dc3d2a2bcdca1c8270</title>
<g id="a_edge4"><a xlink:href="dir_000011_000070.html" target="_top">
<path fill="none" stroke="#63b8ff" d="M277.49,-290.95C227.23,-273.53 118.47,-232.81 98,-200 89.7,-186.7 90,-168.58 91.91,-155.1"/>
<polygon fill="#63b8ff" stroke="#63b8ff" points="95.39,-155.55 93.74,-145.08 88.5,-154.29 95.39,-155.55"/>
</a>
</g>
<g id="a_edge4&#45;headlabel"><a xlink:href="dir_000011_000070.html" target="_top" xlink:title="4">
<text text-anchor="middle" x="97.54" y="-157.09" font-family="Helvetica,sans-Serif" font-size="10.00" fill="#63b8ff">4</text>
</a>
</g>
</g>
<!-- dir_ce3aa255f0d0e2a628573fc3b1b82afb&#45;&gt;dir_ecb37285c0bc658c97bb749f37c59e79 -->
<g id="edge10" class="edge">
<title>dir_ce3aa255f0d0e2a628573fc3b1b82afb&#45;&gt;dir_ecb37285c0bc658c97bb749f37c59e79</title>
<g id="a_edge10"><a xlink:href="dir_000011_000008.html" target="_top">
<path fill="none" stroke="#63b8ff" d="M274.27,-294.96C201.74,-282.7 17,-246.1 17,-191.5 17,-191.5 17,-191.5 17,-134.5 17,-79.53 85.75,-48.35 126.2,-34.77"/>
<polygon fill="#63b8ff" stroke="#63b8ff" points="127.36,-38.07 135.81,-31.69 125.22,-31.41 127.36,-38.07"/>
</a>
</g>
<g id="a_edge10&#45;headlabel"><a xlink:href="dir_000011_000008.html" target="_top" xlink:title="2">
<text text-anchor="middle" x="124.8" y="-39.37" font-family="Helvetica,sans-Serif" font-size="10.00" fill="#63b8ff">2</text>
</a>
</g>
</g>
<!-- dir_68fb8e79c18f7d14f9093e77ee72f0ed -->
<g id="node8" class="node">
<title>dir_68fb8e79c18f7d14f9093e77ee72f0ed</title>
<g id="a_node8"><a xlink:href="dir_68fb8e79c18f7d14f9093e77ee72f0ed.html" target="_top" xlink:title="cache">
<polygon fill="#a2b4d6" stroke="#404040" points="291.5,-255 246.5,-255 246.5,-236 291.5,-236 291.5,-255"/>
<text text-anchor="middle" x="269" y="-243" font-family="Helvetica,sans-Serif" font-size="10.00">cache</text>
</a>
</g>
</g>
<!-- dir_ce3aa255f0d0e2a628573fc3b1b82afb&#45;&gt;dir_68fb8e79c18f7d14f9093e77ee72f0ed -->
<g id="edge5" class="edge">
<title>dir_ce3aa255f0d0e2a628573fc3b1b82afb&#45;&gt;dir_68fb8e79c18f7d14f9093e77ee72f0ed</title>
<g id="a_edge5"><a xlink:href="dir_000011_000014.html" target="_top">
<path fill="none" stroke="#63b8ff" d="M292.22,-290.75C286.07,-283.57 278.99,-273.18 273.99,-264.27"/>
<polygon fill="#63b8ff" stroke="#63b8ff" points="276.99,-262.46 269.38,-255.09 270.74,-265.6 276.99,-262.46"/>
</a>
</g>
<g id="a_edge5&#45;headlabel"><a xlink:href="dir_000011_000014.html" target="_top" xlink:title="4">
<text text-anchor="middle" x="281.14" y="-261.9" font-family="Helvetica,sans-Serif" font-size="10.00" fill="#63b8ff">4</text>
</a>
</g>
</g>
<!-- dir_b03e3747134a1229c4aba971fbd95108 -->
<g id="node10" class="node">
<title>dir_b03e3747134a1229c4aba971fbd95108</title>
<g id="a_node10"><a xlink:href="dir_b03e3747134a1229c4aba971fbd95108.html" target="_top" xlink:title="meta">
<polygon fill="#a2b4d6" stroke="#404040" points="398,-200 356,-200 356,-181 398,-181 398,-200"/>
<text text-anchor="middle" x="377" y="-188" font-family="Helvetica,sans-Serif" font-size="10.00">meta</text>
</a>
</g>
</g>
<!-- dir_ce3aa255f0d0e2a628573fc3b1b82afb&#45;&gt;dir_b03e3747134a1229c4aba971fbd95108 -->
<g id="edge2" class="edge">
<title>dir_ce3aa255f0d0e2a628573fc3b1b82afb&#45;&gt;dir_b03e3747134a1229c4aba971fbd95108</title>
<g id="a_edge2"><a xlink:href="dir_000011_000062.html" target="_top">
<path fill="none" stroke="#63b8ff" d="M305.14,-290.66C314.14,-272.61 342.1,-231.28 360.61,-208.08"/>
<polygon fill="#63b8ff" stroke="#63b8ff" points="363.49,-210.09 367.19,-200.16 358.11,-205.61 363.49,-210.09"/>
</a>
</g>
<g id="a_edge2&#45;headlabel"><a xlink:href="dir_000011_000062.html" target="_top" xlink:title="4">
<text text-anchor="middle" x="363.38" y="-212.17" font-family="Helvetica,sans-Serif" font-size="10.00" fill="#63b8ff">4</text>
</a>
</g>
</g>
<!-- dir_80739b26cb30f72b63d8bcb72cf37f56 -->
<g id="node11" class="node">
<title>dir_80739b26cb30f72b63d8bcb72cf37f56</title>
<g id="a_node11"><a xlink:href="dir_80739b26cb30f72b63d8bcb72cf37f56.html" target="_top" xlink:title="path">
<polygon fill="#a2b4d6" stroke="#404040" points="246,-90 208,-90 208,-71 246,-71 246,-90"/>
<text text-anchor="middle" x="227" y="-78" font-family="Helvetica,sans-Serif" font-size="10.00">path</text>
</a>
</g>
</g>
<!-- dir_ce3aa255f0d0e2a628573fc3b1b82afb&#45;&gt;dir_80739b26cb30f72b63d8bcb72cf37f56 -->
<g id="edge7" class="edge">
<title>dir_ce3aa255f0d0e2a628573fc3b1b82afb&#45;&gt;dir_80739b26cb30f72b63d8bcb72cf37f56</title>
<g id="a_edge7"><a xlink:href="dir_000011_000073.html" target="_top">
<path fill="none" stroke="#63b8ff" d="M275.39,-290.96C258.47,-284.14 238.17,-272.73 228,-255 199.47,-205.23 212.84,-133.47 221.55,-100"/>
<polygon fill="#63b8ff" stroke="#63b8ff" points="224.97,-100.78 224.26,-90.2 218.22,-98.91 224.97,-100.78"/>
</a>
</g>
<g id="a_edge7&#45;headlabel"><a xlink:href="dir_000011_000073.html" target="_top" xlink:title="3">
<text text-anchor="middle" x="226.75" y="-102.5" font-family="Helvetica,sans-Serif" font-size="10.00" fill="#63b8ff">3</text>
</a>
</g>
</g>
<!-- dir_6e1949a482b42c4d324f1266227d9b60 -->
<g id="node13" class="node">
<title>dir_6e1949a482b42c4d324f1266227d9b60</title>
<g id="a_node13"><a xlink:href="dir_6e1949a482b42c4d324f1266227d9b60.html" target="_top" xlink:title="tier">
<polygon fill="#a2b4d6" stroke="#404040" points="279.5,-145 246.5,-145 246.5,-126 279.5,-126 279.5,-145"/>
<text text-anchor="middle" x="263" y="-133" font-family="Helvetica,sans-Serif" font-size="10.00">tier</text>
</a>
</g>
</g>
<!-- dir_ce3aa255f0d0e2a628573fc3b1b82afb&#45;&gt;dir_6e1949a482b42c4d324f1266227d9b60 -->
<g id="edge6" class="edge">
<title>dir_ce3aa255f0d0e2a628573fc3b1b82afb&#45;&gt;dir_6e1949a482b42c4d324f1266227d9b60</title>
<g id="a_edge6"><a xlink:href="dir_000011_000116.html" target="_top">
<path fill="none" stroke="#63b8ff" d="M274.48,-291.63C257.33,-284.62 237.41,-272.69 228,-255 210.29,-221.69 230.09,-176.98 246.66,-153.13"/>
<polygon fill="#63b8ff" stroke="#63b8ff" points="249.52,-155.16 252.77,-145.08 243.94,-150.93 249.52,-155.16"/>
</a>
</g>
<g id="a_edge6&#45;headlabel"><a xlink:href="dir_000011_000116.html" target="_top" xlink:title="3">
<text text-anchor="middle" x="249.61" y="-157.24" font-family="Helvetica,sans-Serif" font-size="10.00" fill="#63b8ff">3</text>
</a>
</g>
</g>
<!-- dir_4f3e26b8b67e40a4401952554a1fee3f -->
<g id="node14" class="node">
<title>dir_4f3e26b8b67e40a4401952554a1fee3f</title>
<g id="a_node14"><a xlink:href="dir_4f3e26b8b67e40a4401952554a1fee3f.html" target="_top" xlink:title="vfs">
<polygon fill="#a2b4d6" stroke="#404040" points="338,-200 306,-200 306,-181 338,-181 338,-200"/>
<text text-anchor="middle" x="322" y="-188" font-family="Helvetica,sans-Serif" font-size="10.00">vfs</text>
</a>
</g>
</g>
<!-- dir_ce3aa255f0d0e2a628573fc3b1b82afb&#45;&gt;dir_4f3e26b8b67e40a4401952554a1fee3f -->
<g id="edge8" class="edge">
<title>dir_ce3aa255f0d0e2a628573fc3b1b82afb&#45;&gt;dir_4f3e26b8b67e40a4401952554a1fee3f</title>
<g id="a_edge8"><a xlink:href="dir_000011_000124.html" target="_top">
<path fill="none" stroke="#63b8ff" d="M299.29,-290.76C300.11,-281.87 304.58,-267.65 307,-255 309.87,-240.03 311.39,-222.79 313.58,-210.06"/>
<polygon fill="#63b8ff" stroke="#63b8ff" points="317.02,-210.72 315.73,-200.2 310.18,-209.23 317.02,-210.72"/>
</a>
</g>
<g id="a_edge8&#45;headlabel"><a xlink:href="dir_000011_000124.html" target="_top" xlink:title="1">
<text text-anchor="middle" x="319.02" y="-212.33" font-family="Helvetica,sans-Serif" font-size="10.00" fill="#63b8ff">1</text>
</a>
</g>
</g>
<!-- dir_221b4b4dd11129740db672ae05bd529e -->
<g id="node15" class="node">
<title>dir_221b4b4dd11129740db672ae05bd529e</title>
<g id="a_node15"><a xlink:href="dir_221b4b4dd11129740db672ae05bd529e.html" target="_top" xlink:title="xfer">
<polygon fill="#a2b4d6" stroke="#404040" points="410,-145 374,-145 374,-126 410,-126 410,-145"/>
<text text-anchor="middle" x="392" y="-133" font-family="Helvetica,sans-Serif" font-size="10.00">xfer</text>
</a>
</g>
</g>
<!-- dir_ce3aa255f0d0e2a628573fc3b1b82afb&#45;&gt;dir_221b4b4dd11129740db672ae05bd529e -->
<g id="edge9" class="edge">
<title>dir_ce3aa255f0d0e2a628573fc3b1b82afb&#45;&gt;dir_221b4b4dd11129740db672ae05bd529e</title>
<g id="a_edge9"><a xlink:href="dir_000011_000129.html" target="_top">
<path fill="none" stroke="#63b8ff" d="M312.43,-290.84C333.11,-275.9 379.74,-242.74 398,-200 404.26,-185.35 399.11,-167.64 394.7,-154.64"/>
<polygon fill="#63b8ff" stroke="#63b8ff" points="397.96,-153.35 391.43,-145.01 391.33,-155.6 397.96,-153.35"/>
</a>
</g>
<g id="a_edge9&#45;headlabel"><a xlink:href="dir_000011_000129.html" target="_top" xlink:title="1">
<text text-anchor="middle" x="401.8" y="-153.34" font-family="Helvetica,sans-Serif" font-size="10.00" fill="#63b8ff">1</text>
</a>
</g>
</g>
<!-- dir_68fb8e79c18f7d14f9093e77ee72f0ed&#45;&gt;dir_79690749eba542503bb1a9a3dbb495e1 -->
<g id="edge13" class="edge">
<title>dir_68fb8e79c18f7d14f9093e77ee72f0ed&#45;&gt;dir_79690749eba542503bb1a9a3dbb495e1</title>
<g id="a_edge13"><a xlink:href="dir_000014_000083.html" target="_top">
<path fill="none" stroke="#63b8ff" d="M291.63,-236.9C292.77,-236.58 293.89,-236.28 295,-236 382.14,-213.98 429.53,-262.63 494,-200 520.93,-173.84 522.45,-126.51 520.91,-100.28"/>
<polygon fill="#63b8ff" stroke="#63b8ff" points="524.39,-99.85 520.1,-90.16 517.41,-100.41 524.39,-99.85"/>
</a>
</g>
<g id="a_edge13&#45;headlabel"><a xlink:href="dir_000014_000083.html" target="_top" xlink:title="14">
<text text-anchor="middle" x="527.51" y="-100.7" font-family="Helvetica,sans-Serif" font-size="10.00" fill="#63b8ff">14</text>
</a>
</g>
</g>
<!-- dir_68fb8e79c18f7d14f9093e77ee72f0ed&#45;&gt;dir_aebb8dcc11953d78e620bbef0b9e2183 -->
<g id="edge14" class="edge">
<title>dir_68fb8e79c18f7d14f9093e77ee72f0ed&#45;&gt;dir_aebb8dcc11953d78e620bbef0b9e2183</title>
<g id="a_edge14"><a xlink:href="dir_000014_000028.html" target="_top">
<path fill="none" stroke="#63b8ff" d="M291.69,-237.08C292.81,-236.71 293.92,-236.35 295,-236 344.74,-219.88 369.05,-235.97 407,-200 451.93,-157.43 446.05,-123.28 432,-63 430.48,-56.48 427.62,-49.78 424.61,-43.93"/>
<polygon fill="#63b8ff" stroke="#63b8ff" points="427.59,-42.08 419.64,-35.07 421.48,-45.5 427.59,-42.08"/>
</a>
</g>
<g id="a_edge14&#45;headlabel"><a xlink:href="dir_000014_000028.html" target="_top" xlink:title="26">
<text text-anchor="middle" x="431.82" y="-41.32" font-family="Helvetica,sans-Serif" font-size="10.00" fill="#63b8ff">26</text>
</a>
</g>
</g>
<!-- dir_68fb8e79c18f7d14f9093e77ee72f0ed&#45;&gt;dir_b74ed0efa461d1dc3d2a2bcdca1c8270 -->
<g id="edge16" class="edge">
<title>dir_68fb8e79c18f7d14f9093e77ee72f0ed&#45;&gt;dir_b74ed0efa461d1dc3d2a2bcdca1c8270</title>
<g id="a_edge16"><a xlink:href="dir_000014_000070.html" target="_top">
<path fill="none" stroke="#63b8ff" d="M246.33,-237.3C244.87,-236.86 243.41,-236.42 242,-236 184.51,-219 153.9,-242.88 112,-200 100.47,-188.19 96.87,-169.35 95.91,-155.26"/>
<polygon fill="#63b8ff" stroke="#63b8ff" points="99.41,-155.08 95.62,-145.19 92.41,-155.29 99.41,-155.08"/>
</a>
</g>
<g id="a_edge16&#45;headlabel"><a xlink:href="dir_000014_000070.html" target="_top" xlink:title="2">
<text text-anchor="middle" x="102.36" y="-156.09" font-family="Helvetica,sans-Serif" font-size="10.00" fill="#63b8ff">2</text>
</a>
</g>
</g>
<!-- dir_68fb8e79c18f7d14f9093e77ee72f0ed&#45;&gt;dir_c72b25b75abe208498b36a3e44a3726c -->
<g id="edge17" class="edge">
<title>dir_68fb8e79c18f7d14f9093e77ee72f0ed&#45;&gt;dir_c72b25b75abe208498b36a3e44a3726c</title>
<g id="a_edge17"><a xlink:href="dir_000014_000068.html" target="_top">
<path fill="none" stroke="#63b8ff" d="M250.2,-235.98C230.48,-227.05 199.37,-212.96 177.46,-203.03"/>
<polygon fill="#63b8ff" stroke="#63b8ff" points="178.67,-199.74 168.11,-198.8 175.78,-206.11 178.67,-199.74"/>
</a>
</g>
<g id="a_edge17&#45;headlabel"><a xlink:href="dir_000014_000068.html" target="_top" xlink:title="2">
<text text-anchor="middle" x="183.11" y="-196.13" font-family="Helvetica,sans-Serif" font-size="10.00" fill="#63b8ff">2</text>
</a>
</g>
</g>
<!-- dir_68fb8e79c18f7d14f9093e77ee72f0ed&#45;&gt;dir_ecb37285c0bc658c97bb749f37c59e79 -->
<g id="edge19" class="edge">
<title>dir_68fb8e79c18f7d14f9093e77ee72f0ed&#45;&gt;dir_ecb37285c0bc658c97bb749f37c59e79</title>
<g id="a_edge19"><a xlink:href="dir_000014_000008.html" target="_top">
<path fill="none" stroke="#63b8ff" d="M246.31,-237.36C244.85,-236.9 243.41,-236.44 242,-236 190.9,-219.96 158.71,-243.16 127,-200 111.77,-179.27 138.04,-169.76 145,-145 154.65,-110.67 155.83,-68.72 155.58,-45.06"/>
<polygon fill="#63b8ff" stroke="#63b8ff" points="159.07,-44.95 155.37,-35.03 152.08,-45.1 159.07,-44.95"/>
</a>
</g>
<g id="a_edge19&#45;headlabel"><a xlink:href="dir_000014_000008.html" target="_top" xlink:title="5">
<text text-anchor="middle" x="161.99" y="-45.99" font-family="Helvetica,sans-Serif" font-size="10.00" fill="#63b8ff">5</text>
</a>
</g>
</g>
<!-- dir_68fb8e79c18f7d14f9093e77ee72f0ed&#45;&gt;dir_ce3aa255f0d0e2a628573fc3b1b82afb -->
<g id="edge18" class="edge">
<title>dir_68fb8e79c18f7d14f9093e77ee72f0ed&#45;&gt;dir_ce3aa255f0d0e2a628573fc3b1b82afb</title>
<g id="a_edge18"><a xlink:href="dir_000014_000011.html" target="_top">
<path fill="none" stroke="#63b8ff" d="M279.64,-255.09C285.77,-262.22 292.86,-272.6 297.9,-281.53"/>
<polygon fill="#63b8ff" stroke="#63b8ff" points="294.92,-283.4 302.55,-290.75 301.17,-280.24 294.92,-283.4"/>
</a>
</g>
<g id="a_edge18&#45;headlabel"><a xlink:href="dir_000014_000011.html" target="_top" xlink:title="12">
<text text-anchor="middle" x="290.77" y="-278.97" font-family="Helvetica,sans-Serif" font-size="10.00" fill="#63b8ff">12</text>
</a>
</g>
</g>
<!-- dir_68fb8e79c18f7d14f9093e77ee72f0ed&#45;&gt;dir_b03e3747134a1229c4aba971fbd95108 -->
<g id="edge15" class="edge">
<title>dir_68fb8e79c18f7d14f9093e77ee72f0ed&#45;&gt;dir_b03e3747134a1229c4aba971fbd95108</title>
<g id="a_edge15"><a xlink:href="dir_000014_000062.html" target="_top">
<path fill="none" stroke="#63b8ff" d="M286.35,-235.98C303.57,-227.54 330.2,-214.47 350.15,-204.68"/>
<polygon fill="#63b8ff" stroke="#63b8ff" points="351.9,-207.72 359.33,-200.17 348.81,-201.43 351.9,-207.72"/>
</a>
</g>
<g id="a_edge15&#45;headlabel"><a xlink:href="dir_000014_000062.html" target="_top" xlink:title="4">
<text text-anchor="middle" x="349.92" y="-209.35" font-family="Helvetica,sans-Serif" font-size="10.00" fill="#63b8ff">4</text>
</a>
</g>
</g>
<!-- dir_68fb8e79c18f7d14f9093e77ee72f0ed&#45;&gt;dir_80739b26cb30f72b63d8bcb72cf37f56 -->
<g id="edge20" class="edge">
<title>dir_68fb8e79c18f7d14f9093e77ee72f0ed&#45;&gt;dir_80739b26cb30f72b63d8bcb72cf37f56</title>
<g id="a_edge20"><a xlink:href="dir_000014_000073.html" target="_top">
<path fill="none" stroke="#63b8ff" d="M265.71,-235.84C259.33,-218.73 245.15,-179.25 237,-145 233.48,-130.2 230.87,-113.17 229.2,-100.47"/>
<polygon fill="#63b8ff" stroke="#63b8ff" points="232.64,-99.71 227.94,-90.21 225.69,-100.56 232.64,-99.71"/>
</a>
</g>
<g id="a_edge20&#45;headlabel"><a xlink:href="dir_000014_000073.html" target="_top" xlink:title="1">
<text text-anchor="middle" x="235.9" y="-100.43" font-family="Helvetica,sans-Serif" font-size="10.00" fill="#63b8ff">1</text>
</a>
</g>
</g>
<!-- dir_68fb8e79c18f7d14f9093e77ee72f0ed&#45;&gt;dir_6e1949a482b42c4d324f1266227d9b60 -->
<g id="edge12" class="edge">
<title>dir_68fb8e79c18f7d14f9093e77ee72f0ed&#45;&gt;dir_6e1949a482b42c4d324f1266227d9b60</title>
<g id="a_edge12"><a xlink:href="dir_000014_000116.html" target="_top">
<path fill="none" stroke="#63b8ff" d="M264.6,-235.66C260.36,-218.17 257.73,-178.8 258.78,-155.27"/>
<polygon fill="#63b8ff" stroke="#63b8ff" points="262.28,-155.41 259.6,-145.16 255.3,-154.84 262.28,-155.41"/>
</a>
</g>
<g id="a_edge12&#45;headlabel"><a xlink:href="dir_000014_000116.html" target="_top" xlink:title="1">
<text text-anchor="middle" x="264.82" y="-156.72" font-family="Helvetica,sans-Serif" font-size="10.00" fill="#63b8ff">1</text>
</a>
</g>
</g>
<!-- dir_68fb8e79c18f7d14f9093e77ee72f0ed&#45;&gt;dir_4f3e26b8b67e40a4401952554a1fee3f -->
<g id="edge11" class="edge">
<title>dir_68fb8e79c18f7d14f9093e77ee72f0ed&#45;&gt;dir_4f3e26b8b67e40a4401952554a1fee3f</title>
<g id="a_edge11"><a xlink:href="dir_000014_000124.html" target="_top">
<path fill="none" stroke="#63b8ff" d="M272.59,-235.75C278.77,-227.88 290.17,-216.14 300.6,-206.73"/>
<polygon fill="#63b8ff" stroke="#63b8ff" points="303,-209.28 308.28,-200.09 298.43,-203.98 303,-209.28"/>
</a>
</g>
<g id="a_edge11&#45;headlabel"><a xlink:href="dir_000014_000124.html" target="_top" xlink:title="6">
<text text-anchor="middle" x="302.14" y="-211.27" font-family="Helvetica,sans-Serif" font-size="10.00" fill="#63b8ff">6</text>
</a>
</g>
</g>
<!-- dir_b8e37d9a85075c24566d940f37bcb736 -->
<g id="node9" class="node">
<title>dir_b8e37d9a85075c24566d940f37bcb736</title>
<g id="a_node9"><a xlink:href="dir_b8e37d9a85075c24566d940f37bcb736.html" target="_top" xlink:title="core">
<polygon fill="#a2b4d6" stroke="#404040" points="336,-145 298,-145 298,-126 336,-126 336,-145"/>
<text text-anchor="middle" x="317" y="-133" font-family="Helvetica,sans-Serif" font-size="10.00">core</text>
</a>
</g>
</g>
<!-- dir_b8e37d9a85075c24566d940f37bcb736&#45;&gt;dir_ce3aa255f0d0e2a628573fc3b1b82afb -->
<g id="edge21" class="edge">
<title>dir_b8e37d9a85075c24566d940f37bcb736&#45;&gt;dir_ce3aa255f0d0e2a628573fc3b1b82afb</title>
<g id="a_edge21"><a xlink:href="dir_000029_000011.html" target="_top">
<path fill="none" stroke="#63b8ff" d="M311.68,-145.32C306.77,-154.03 299.81,-167.91 297,-181 295.23,-189.26 296.65,-191.56 297,-200 297.67,-216.04 298.95,-219.98 300,-236 300.98,-251.01 301.77,-268.03 302.29,-280.67"/>
<polygon fill="#63b8ff" stroke="#63b8ff" points="298.8,-281.01 302.69,-290.87 305.79,-280.74 298.8,-281.01"/>
</a>
</g>
<g id="a_edge21&#45;headlabel"><a xlink:href="dir_000029_000011.html" target="_top" xlink:title="1">
<text text-anchor="middle" x="295.82" y="-275.03" font-family="Helvetica,sans-Serif" font-size="10.00" fill="#63b8ff">1</text>
</a>
</g>
</g>
<!-- dir_b03e3747134a1229c4aba971fbd95108&#45;&gt;dir_aebb8dcc11953d78e620bbef0b9e2183 -->
<g id="edge22" class="edge">
<title>dir_b03e3747134a1229c4aba971fbd95108&#45;&gt;dir_aebb8dcc11953d78e620bbef0b9e2183</title>
<g id="a_edge22"><a xlink:href="dir_000062_000028.html" target="_top">
<path fill="none" stroke="#63b8ff" d="M389.21,-180.86C399.35,-172.88 413.04,-160.01 419,-145 432.19,-111.8 425.21,-69.16 419.33,-45.14"/>
<polygon fill="#63b8ff" stroke="#63b8ff" points="422.65,-44 416.71,-35.23 415.89,-45.8 422.65,-44"/>
</a>
</g>
<g id="a_edge22&#45;headlabel"><a xlink:href="dir_000062_000028.html" target="_top" xlink:title="3">
<text text-anchor="middle" x="426.32" y="-44.25" font-family="Helvetica,sans-Serif" font-size="10.00" fill="#63b8ff">3</text>
</a>
</g>
</g>
<!-- dir_b03e3747134a1229c4aba971fbd95108&#45;&gt;dir_ce3aa255f0d0e2a628573fc3b1b82afb -->
<g id="edge23" class="edge">
<title>dir_b03e3747134a1229c4aba971fbd95108&#45;&gt;dir_ce3aa255f0d0e2a628573fc3b1b82afb</title>
<g id="a_edge23"><a xlink:href="dir_000062_000011.html" target="_top">
<path fill="none" stroke="#63b8ff" d="M374.95,-200.16C366.07,-218.05 338.15,-259.37 319.57,-282.69"/>
<polygon fill="#63b8ff" stroke="#63b8ff" points="316.65,-280.73 312.97,-290.66 322.04,-285.2 316.65,-280.73"/>
</a>
</g>
<g id="a_edge23&#45;headlabel"><a xlink:href="dir_000062_000011.html" target="_top" xlink:title="1">
<text text-anchor="middle" x="316.76" y="-273.65" font-family="Helvetica,sans-Serif" font-size="10.00" fill="#63b8ff">1</text>
</a>
</g>
</g>
<!-- dir_80739b26cb30f72b63d8bcb72cf37f56&#45;&gt;dir_aebb8dcc11953d78e620bbef0b9e2183 -->
<g id="edge24" class="edge">
<title>dir_80739b26cb30f72b63d8bcb72cf37f56&#45;&gt;dir_aebb8dcc11953d78e620bbef0b9e2183</title>
<g id="a_edge24"><a xlink:href="dir_000073_000028.html" target="_top">
<path fill="none" stroke="#63b8ff" d="M237.22,-70.82C241.02,-67.96 245.51,-65.01 250,-63 294.57,-43.06 350.97,-33.59 384.67,-29.43"/>
<polygon fill="#63b8ff" stroke="#63b8ff" points="385.25,-32.88 394.77,-28.25 384.44,-25.93 385.25,-32.88"/>
</a>
</g>
<g id="a_edge24&#45;headlabel"><a xlink:href="dir_000073_000028.html" target="_top" xlink:title="14">
<text text-anchor="middle" x="382" y="-33.62" font-family="Helvetica,sans-Serif" font-size="10.00" fill="#63b8ff">14</text>
</a>
</g>
</g>
<!-- dir_80739b26cb30f72b63d8bcb72cf37f56&#45;&gt;dir_ecb37285c0bc658c97bb749f37c59e79 -->
<g id="edge25" class="edge">
<title>dir_80739b26cb30f72b63d8bcb72cf37f56&#45;&gt;dir_ecb37285c0bc658c97bb749f37c59e79</title>
<g id="a_edge25"><a xlink:href="dir_000073_000008.html" target="_top">
<path fill="none" stroke="#63b8ff" d="M215.43,-70.98C204.58,-63 188.12,-50.88 175.12,-41.31"/>
<polygon fill="#63b8ff" stroke="#63b8ff" points="176.91,-38.28 166.78,-35.17 172.76,-43.92 176.91,-38.28"/>
</a>
</g>
<g id="a_edge25&#45;headlabel"><a xlink:href="dir_000073_000008.html" target="_top" xlink:title="2">
<text text-anchor="middle" x="181.48" y="-35.62" font-family="Helvetica,sans-Serif" font-size="10.00" fill="#63b8ff">2</text>
</a>
</g>
</g>
<!-- dir_4628302aa5ad104105ff895a7cf18a9b -->
<g id="node12" class="node">
<title>dir_4628302aa5ad104105ff895a7cf18a9b</title>
<g id="a_node12"><a xlink:href="dir_4628302aa5ad104105ff895a7cf18a9b.html" target="_top" xlink:title="scan">
<polygon fill="#a2b4d6" stroke="#404040" points="334.5,-365 295.5,-365 295.5,-346 334.5,-346 334.5,-365"/>
<text text-anchor="middle" x="315" y="-353" font-family="Helvetica,sans-Serif" font-size="10.00">scan</text>
</a>
</g>
</g>
<!-- dir_4628302aa5ad104105ff895a7cf18a9b&#45;&gt;dir_79690749eba542503bb1a9a3dbb495e1 -->
<g id="edge27" class="edge">
<title>dir_4628302aa5ad104105ff895a7cf18a9b&#45;&gt;dir_79690749eba542503bb1a9a3dbb495e1</title>
<g id="a_edge27"><a xlink:href="dir_000100_000083.html" target="_top">
<path fill="none" stroke="#63b8ff" d="M334.55,-349.94C390.79,-336.26 549,-293.59 549,-246.5 549,-246.5 549,-246.5 549,-189.5 549,-156.87 536.13,-120.65 527.25,-99.55"/>
<polygon fill="#63b8ff" stroke="#63b8ff" points="530.39,-97.99 523.17,-90.23 523.98,-100.8 530.39,-97.99"/>
</a>
</g>
<g id="a_edge27&#45;headlabel"><a xlink:href="dir_000100_000083.html" target="_top" xlink:title="2">
<text text-anchor="middle" x="534.43" y="-97.64" font-family="Helvetica,sans-Serif" font-size="10.00" fill="#63b8ff">2</text>
</a>
</g>
</g>
<!-- dir_4628302aa5ad104105ff895a7cf18a9b&#45;&gt;dir_aebb8dcc11953d78e620bbef0b9e2183 -->
<g id="edge29" class="edge">
<title>dir_4628302aa5ad104105ff895a7cf18a9b&#45;&gt;dir_aebb8dcc11953d78e620bbef0b9e2183</title>
<g id="a_edge29"><a xlink:href="dir_000100_000028.html" target="_top">
<path fill="none" stroke="#63b8ff" d="M334.5,-350.64C374.08,-342.61 462.44,-323.76 490,-310 530.3,-289.88 569,-291.55 569,-246.5 569,-246.5 569,-246.5 569,-134.5 569,-102.41 580.44,-86.88 559,-63 543.74,-46.01 480.96,-35.13 443.19,-29.99"/>
<polygon fill="#63b8ff" stroke="#63b8ff" points="443.63,-26.52 433.26,-28.69 442.72,-33.46 443.63,-26.52"/>
</a>
</g>
<g id="a_edge29&#45;headlabel"><a xlink:href="dir_000100_000028.html" target="_top" xlink:title="2">
<text text-anchor="middle" x="447.56" y="-21.67" font-family="Helvetica,sans-Serif" font-size="10.00" fill="#63b8ff">2</text>
</a>
</g>
</g>
<!-- dir_4628302aa5ad104105ff895a7cf18a9b&#45;&gt;dir_b74ed0efa461d1dc3d2a2bcdca1c8270 -->
<g id="edge30" class="edge">
<title>dir_4628302aa5ad104105ff895a7cf18a9b&#45;&gt;dir_b74ed0efa461d1dc3d2a2bcdca1c8270</title>
<g id="a_edge30"><a xlink:href="dir_000100_000070.html" target="_top">
<path fill="none" stroke="#63b8ff" d="M295.49,-351.37C268.2,-346.28 217.93,-334.23 182,-310 128.68,-274.05 110.27,-260.33 88,-200 82.59,-185.34 85.54,-167.63 89.29,-154.64"/>
<polygon fill="#63b8ff" stroke="#63b8ff" points="92.66,-155.6 92.47,-145.01 86.01,-153.4 92.66,-155.6"/>
</a>
</g>
<g id="a_edge30&#45;headlabel"><a xlink:href="dir_000100_000070.html" target="_top" xlink:title="1">
<text text-anchor="middle" x="94.23" y="-157.4" font-family="Helvetica,sans-Serif" font-size="10.00" fill="#63b8ff">1</text>
</a>
</g>
</g>
<!-- dir_4628302aa5ad104105ff895a7cf18a9b&#45;&gt;dir_ce3aa255f0d0e2a628573fc3b1b82afb -->
<g id="edge31" class="edge">
<title>dir_4628302aa5ad104105ff895a7cf18a9b&#45;&gt;dir_ce3aa255f0d0e2a628573fc3b1b82afb</title>
<g id="a_edge31"><a xlink:href="dir_000100_000011.html" target="_top">
<path fill="none" stroke="#63b8ff" d="M313.02,-345.75C311.43,-338.72 309.14,-328.62 307.15,-319.84"/>
<polygon fill="#63b8ff" stroke="#63b8ff" points="310.57,-319.07 304.94,-310.09 303.74,-320.62 310.57,-319.07"/>
</a>
</g>
<g id="a_edge31&#45;headlabel"><a xlink:href="dir_000100_000011.html" target="_top" xlink:title="1">
<text text-anchor="middle" x="314.13" y="-319.45" font-family="Helvetica,sans-Serif" font-size="10.00" fill="#63b8ff">1</text>
</a>
</g>
</g>
<!-- dir_4628302aa5ad104105ff895a7cf18a9b&#45;&gt;dir_80739b26cb30f72b63d8bcb72cf37f56 -->
<g id="edge28" class="edge">
<title>dir_4628302aa5ad104105ff895a7cf18a9b&#45;&gt;dir_80739b26cb30f72b63d8bcb72cf37f56</title>
<g id="a_edge28"><a xlink:href="dir_000100_000073.html" target="_top">
<path fill="none" stroke="#63b8ff" d="M295.28,-348.19C259.38,-335.33 187,-302.47 187,-246.5 187,-246.5 187,-246.5 187,-189.5 187,-155.67 204.47,-119.38 216.32,-98.66"/>
<polygon fill="#63b8ff" stroke="#63b8ff" points="219.34,-100.44 221.44,-90.06 213.32,-96.86 219.34,-100.44"/>
</a>
</g>
<g id="a_edge28&#45;headlabel"><a xlink:href="dir_000100_000073.html" target="_top" xlink:title="1">
<text text-anchor="middle" x="219.94" y="-102.48" font-family="Helvetica,sans-Serif" font-size="10.00" fill="#63b8ff">1</text>
</a>
</g>
</g>
<!-- dir_4628302aa5ad104105ff895a7cf18a9b&#45;&gt;dir_4f3e26b8b67e40a4401952554a1fee3f -->
<g id="edge26" class="edge">
<title>dir_4628302aa5ad104105ff895a7cf18a9b&#45;&gt;dir_4f3e26b8b67e40a4401952554a1fee3f</title>
<g id="a_edge26"><a xlink:href="dir_000100_000124.html" target="_top">
<path fill="none" stroke="#63b8ff" d="M321.89,-345.93C328.27,-337.4 337.31,-323.65 341,-310 350.44,-275.12 338.37,-233.11 329.6,-209.64"/>
<polygon fill="#63b8ff" stroke="#63b8ff" points="332.82,-208.27 325.89,-200.26 326.31,-210.84 332.82,-208.27"/>
</a>
</g>
<g id="a_edge26&#45;headlabel"><a xlink:href="dir_000100_000124.html" target="_top" xlink:title="3">
<text text-anchor="middle" x="336.78" y="-208.07" font-family="Helvetica,sans-Serif" font-size="10.00" fill="#63b8ff">3</text>
</a>
</g>
</g>
<!-- dir_6e1949a482b42c4d324f1266227d9b60&#45;&gt;dir_aebb8dcc11953d78e620bbef0b9e2183 -->
<g id="edge33" class="edge">
<title>dir_6e1949a482b42c4d324f1266227d9b60&#45;&gt;dir_aebb8dcc11953d78e620bbef0b9e2183</title>
<g id="a_edge33"><a xlink:href="dir_000116_000028.html" target="_top">
<path fill="none" stroke="#63b8ff" d="M275.1,-125.84C300.95,-107.36 361.77,-63.86 393.66,-41.05"/>
<polygon fill="#63b8ff" stroke="#63b8ff" points="395.74,-43.86 401.84,-35.2 391.67,-38.17 395.74,-43.86"/>
</a>
</g>
<g id="a_edge33&#45;headlabel"><a xlink:href="dir_000116_000028.html" target="_top" xlink:title="5">
<text text-anchor="middle" x="394.47" y="-45.76" font-family="Helvetica,sans-Serif" font-size="10.00" fill="#63b8ff">5</text>
</a>
</g>
</g>
<!-- dir_6e1949a482b42c4d324f1266227d9b60&#45;&gt;dir_ce3aa255f0d0e2a628573fc3b1b82afb -->
<g id="edge34" class="edge">
<title>dir_6e1949a482b42c4d324f1266227d9b60&#45;&gt;dir_ce3aa255f0d0e2a628573fc3b1b82afb</title>
<g id="a_edge34"><a xlink:href="dir_000116_000011.html" target="_top">
<path fill="none" stroke="#63b8ff" d="M261.93,-145.08C253.76,-165.37 226.02,-217.44 246,-255 253.24,-268.61 266.7,-278.81 278.85,-285.99"/>
<polygon fill="#63b8ff" stroke="#63b8ff" points="277.3,-289.13 287.75,-290.89 280.68,-283 277.3,-289.13"/>
</a>
</g>
<g id="a_edge34&#45;headlabel"><a xlink:href="dir_000116_000011.html" target="_top" xlink:title="8">
<text text-anchor="middle" x="272.78" y="-287.39" font-family="Helvetica,sans-Serif" font-size="10.00" fill="#63b8ff">8</text>
</a>
</g>
</g>
<!-- dir_6e1949a482b42c4d324f1266227d9b60&#45;&gt;dir_68fb8e79c18f7d14f9093e77ee72f0ed -->
<g id="edge32" class="edge">
<title>dir_6e1949a482b42c4d324f1266227d9b60&#45;&gt;dir_68fb8e79c18f7d14f9093e77ee72f0ed</title>
<g id="a_edge32"><a xlink:href="dir_000116_000014.html" target="_top">
<path fill="none" stroke="#63b8ff" d="M267.36,-145.16C271.6,-162.5 274.26,-201.84 273.23,-225.48"/>
<polygon fill="#63b8ff" stroke="#63b8ff" points="269.73,-225.42 272.42,-235.66 276.7,-225.97 269.73,-225.42"/>
</a>
</g>
<g id="a_edge32&#45;headlabel"><a xlink:href="dir_000116_000014.html" target="_top" xlink:title="3">
<text text-anchor="middle" x="267.18" y="-219.11" font-family="Helvetica,sans-Serif" font-size="10.00" fill="#63b8ff">3</text>
</a>
</g>
</g>
<!-- dir_4f3e26b8b67e40a4401952554a1fee3f&#45;&gt;dir_79690749eba542503bb1a9a3dbb495e1 -->
<g id="edge38" class="edge">
<title>dir_4f3e26b8b67e40a4401952554a1fee3f&#45;&gt;dir_79690749eba542503bb1a9a3dbb495e1</title>
<g id="a_edge38"><a xlink:href="dir_000124_000083.html" target="_top">
<path fill="none" stroke="#63b8ff" d="M338.14,-184.01C341.08,-183 344.13,-181.97 347,-181 394.53,-164.92 411.2,-171.19 454,-145 474.5,-132.45 493.63,-112.35 505.75,-98.12"/>
<polygon fill="#63b8ff" stroke="#63b8ff" points="508.67,-100.09 512.34,-90.15 503.27,-95.63 508.67,-100.09"/>
</a>
</g>
<g id="a_edge38&#45;headlabel"><a xlink:href="dir_000124_000083.html" target="_top" xlink:title="4">
<text text-anchor="middle" x="508.57" y="-102.16" font-family="Helvetica,sans-Serif" font-size="10.00" fill="#63b8ff">4</text>
</a>
</g>
</g>
<!-- dir_4f3e26b8b67e40a4401952554a1fee3f&#45;&gt;dir_aebb8dcc11953d78e620bbef0b9e2183 -->
<g id="edge40" class="edge">
<title>dir_4f3e26b8b67e40a4401952554a1fee3f&#45;&gt;dir_aebb8dcc11953d78e620bbef0b9e2183</title>
<g id="a_edge40"><a xlink:href="dir_000124_000028.html" target="_top">
<path fill="none" stroke="#63b8ff" d="M338.32,-183.13C364.72,-172.67 414.32,-152.29 419,-145 438.66,-114.35 428.77,-69.5 420.78,-44.7"/>
<polygon fill="#63b8ff" stroke="#63b8ff" points="424.04,-43.41 417.46,-35.11 417.42,-45.7 424.04,-43.41"/>
</a>
</g>
<g id="a_edge40&#45;headlabel"><a xlink:href="dir_000124_000028.html" target="_top" xlink:title="13">
<text text-anchor="middle" x="427.9" y="-43.38" font-family="Helvetica,sans-Serif" font-size="10.00" fill="#63b8ff">13</text>
</a>
</g>
</g>
<!-- dir_4f3e26b8b67e40a4401952554a1fee3f&#45;&gt;dir_b74ed0efa461d1dc3d2a2bcdca1c8270 -->
<g id="edge41" class="edge">
<title>dir_4f3e26b8b67e40a4401952554a1fee3f&#45;&gt;dir_b74ed0efa461d1dc3d2a2bcdca1c8270</title>
<g id="a_edge41"><a xlink:href="dir_000124_000070.html" target="_top">
<path fill="none" stroke="#63b8ff" d="M305.94,-182.37C304.62,-181.87 303.29,-181.41 302,-181 249.81,-164.44 188.23,-152.03 146.09,-144.58"/>
<polygon fill="#63b8ff" stroke="#63b8ff" points="146.53,-141.11 136.07,-142.84 145.33,-148 146.53,-141.11"/>
</a>
</g>
<g id="a_edge41&#45;headlabel"><a xlink:href="dir_000124_000070.html" target="_top" xlink:title="4">
<text text-anchor="middle" x="150.55" y="-136.42" font-family="Helvetica,sans-Serif" font-size="10.00" fill="#63b8ff">4</text>
</a>
</g>
</g>
<!-- dir_4f3e26b8b67e40a4401952554a1fee3f&#45;&gt;dir_ce3aa255f0d0e2a628573fc3b1b82afb -->
<g id="edge43" class="edge">
<title>dir_4f3e26b8b67e40a4401952554a1fee3f&#45;&gt;dir_ce3aa255f0d0e2a628573fc3b1b82afb</title>
<g id="a_edge43"><a xlink:href="dir_000124_000011.html" target="_top">
<path fill="none" stroke="#63b8ff" d="M327.68,-200.2C330.16,-212.5 328.71,-235.64 325,-255 323.3,-263.89 320.58,-273.56 317.31,-281.61"/>
<polygon fill="#63b8ff" stroke="#63b8ff" points="314.09,-280.23 312.89,-290.76 320.39,-283.27 314.09,-280.23"/>
</a>
</g>
<g id="a_edge43&#45;headlabel"><a xlink:href="dir_000124_000011.html" target="_top" xlink:title="16">
<text text-anchor="middle" x="313.09" y="-273.26" font-family="Helvetica,sans-Serif" font-size="10.00" fill="#63b8ff">16</text>
</a>
</g>
</g>
<!-- dir_4f3e26b8b67e40a4401952554a1fee3f&#45;&gt;dir_68fb8e79c18f7d14f9093e77ee72f0ed -->
<g id="edge36" class="edge">
<title>dir_4f3e26b8b67e40a4401952554a1fee3f&#45;&gt;dir_68fb8e79c18f7d14f9093e77ee72f0ed</title>
<g id="a_edge36"><a xlink:href="dir_000124_000014.html" target="_top">
<path fill="none" stroke="#63b8ff" d="M318.48,-200.17C312.3,-208.06 300.83,-219.87 290.35,-229.32"/>
<polygon fill="#63b8ff" stroke="#63b8ff" points="287.91,-226.8 282.63,-235.98 292.49,-232.1 287.91,-226.8"/>
</a>
</g>
<g id="a_edge36&#45;headlabel"><a xlink:href="dir_000124_000014.html" target="_top" xlink:title="2">
<text text-anchor="middle" x="288.78" y="-219.8" font-family="Helvetica,sans-Serif" font-size="10.00" fill="#63b8ff">2</text>
</a>
</g>
</g>
<!-- dir_4f3e26b8b67e40a4401952554a1fee3f&#45;&gt;dir_b8e37d9a85075c24566d940f37bcb736 -->
<g id="edge42" class="edge">
<title>dir_4f3e26b8b67e40a4401952554a1fee3f&#45;&gt;dir_b8e37d9a85075c24566d940f37bcb736</title>
<g id="a_edge42"><a xlink:href="dir_000124_000029.html" target="_top">
<path fill="none" stroke="#63b8ff" d="M321.17,-180.75C320.52,-173.8 319.58,-163.85 318.76,-155.13"/>
<polygon fill="#63b8ff" stroke="#63b8ff" points="322.23,-154.72 317.81,-145.09 315.27,-155.37 322.23,-154.72"/>
</a>
</g>
<g id="a_edge42&#45;headlabel"><a xlink:href="dir_000124_000029.html" target="_top" xlink:title="2">
<text text-anchor="middle" x="325.4" y="-155.53" font-family="Helvetica,sans-Serif" font-size="10.00" fill="#63b8ff">2</text>
</a>
</g>
</g>
<!-- dir_4f3e26b8b67e40a4401952554a1fee3f&#45;&gt;dir_80739b26cb30f72b63d8bcb72cf37f56 -->
<g id="edge39" class="edge">
<title>dir_4f3e26b8b67e40a4401952554a1fee3f&#45;&gt;dir_80739b26cb30f72b63d8bcb72cf37f56</title>
<g id="a_edge39"><a xlink:href="dir_000124_000073.html" target="_top">
<path fill="none" stroke="#63b8ff" d="M330.05,-180.62C340.76,-167.7 357.01,-143.36 345,-126 344.33,-125.02 290.44,-104.96 255.72,-92.11"/>
<polygon fill="#63b8ff" stroke="#63b8ff" points="256.67,-88.72 246.08,-88.54 254.24,-95.29 256.67,-88.72"/>
</a>
</g>
<g id="a_edge39&#45;headlabel"><a xlink:href="dir_000124_000073.html" target="_top" xlink:title="7">
<text text-anchor="middle" x="261.03" y="-84.81" font-family="Helvetica,sans-Serif" font-size="10.00" fill="#63b8ff">7</text>
</a>
</g>
</g>
<!-- dir_4f3e26b8b67e40a4401952554a1fee3f&#45;&gt;dir_6e1949a482b42c4d324f1266227d9b60 -->
<g id="edge37" class="edge">
<title>dir_4f3e26b8b67e40a4401952554a1fee3f&#45;&gt;dir_6e1949a482b42c4d324f1266227d9b60</title>
<g id="a_edge37"><a xlink:href="dir_000124_000116.html" target="_top">
<path fill="none" stroke="#63b8ff" d="M312.52,-180.98C303.8,-173.15 290.66,-161.34 280.1,-151.86"/>
<polygon fill="#63b8ff" stroke="#63b8ff" points="282.43,-149.25 272.65,-145.17 277.75,-154.46 282.43,-149.25"/>
</a>
</g>
<g id="a_edge37&#45;headlabel"><a xlink:href="dir_000124_000116.html" target="_top" xlink:title="2">
<text text-anchor="middle" x="287" y="-147.04" font-family="Helvetica,sans-Serif" font-size="10.00" fill="#63b8ff">2</text>
</a>
</g>
</g>
<!-- dir_4f3e26b8b67e40a4401952554a1fee3f&#45;&gt;dir_221b4b4dd11129740db672ae05bd529e -->
<g id="edge35" class="edge">
<title>dir_4f3e26b8b67e40a4401952554a1fee3f&#45;&gt;dir_221b4b4dd11129740db672ae05bd529e</title>
<g id="a_edge35"><a xlink:href="dir_000124_000129.html" target="_top">
<path fill="none" stroke="#63b8ff" d="M328.13,-180.98C337.09,-172.84 353.19,-160.41 367.1,-150.76"/>
<polygon fill="#63b8ff" stroke="#63b8ff" points="369.06,-153.66 375.4,-145.17 365.15,-147.85 369.06,-153.66"/>
</a>
</g>
<g id="a_edge35&#45;headlabel"><a xlink:href="dir_000124_000129.html" target="_top" xlink:title="1">
<text text-anchor="middle" x="367.67" y="-155.52" font-family="Helvetica,sans-Serif" font-size="10.00" fill="#63b8ff">1</text>
</a>
</g>
</g>
<!-- dir_221b4b4dd11129740db672ae05bd529e&#45;&gt;dir_79690749eba542503bb1a9a3dbb495e1 -->
<g id="edge45" class="edge">
<title>dir_221b4b4dd11129740db672ae05bd529e&#45;&gt;dir_79690749eba542503bb1a9a3dbb495e1</title>
<g id="a_edge45"><a xlink:href="dir_000129_000083.html" target="_top">
<path fill="none" stroke="#63b8ff" d="M410.2,-126.91C430.69,-118.35 464.33,-104.32 488.78,-94.11"/>
<polygon fill="#63b8ff" stroke="#63b8ff" points="490.43,-97.22 498.31,-90.14 487.73,-90.76 490.43,-97.22"/>
</a>
</g>
<g id="a_edge45&#45;headlabel"><a xlink:href="dir_000129_000083.html" target="_top" xlink:title="3">
<text text-anchor="middle" x="488.2" y="-98.72" font-family="Helvetica,sans-Serif" font-size="10.00" fill="#63b8ff">3</text>
</a>
</g>
</g>
<!-- dir_221b4b4dd11129740db672ae05bd529e&#45;&gt;dir_aebb8dcc11953d78e620bbef0b9e2183 -->
<g id="edge47" class="edge">
<title>dir_221b4b4dd11129740db672ae05bd529e&#45;&gt;dir_aebb8dcc11953d78e620bbef0b9e2183</title>
<g id="a_edge47"><a xlink:href="dir_000129_000028.html" target="_top">
<path fill="none" stroke="#63b8ff" d="M393.8,-125.66C397.36,-108.17 405.38,-68.8 410.18,-45.27"/>
<polygon fill="#63b8ff" stroke="#63b8ff" points="413.67,-45.66 412.24,-35.16 406.81,-44.26 413.67,-45.66"/>
</a>
</g>
<g id="a_edge47&#45;headlabel"><a xlink:href="dir_000129_000028.html" target="_top" xlink:title="7">
<text text-anchor="middle" x="415.73" y="-47.24" font-family="Helvetica,sans-Serif" font-size="10.00" fill="#63b8ff">7</text>
</a>
</g>
</g>
<!-- dir_221b4b4dd11129740db672ae05bd529e&#45;&gt;dir_ce3aa255f0d0e2a628573fc3b1b82afb -->
<g id="edge48" class="edge">
<title>dir_221b4b4dd11129740db672ae05bd529e&#45;&gt;dir_ce3aa255f0d0e2a628573fc3b1b82afb</title>
<g id="a_edge48"><a xlink:href="dir_000129_000011.html" target="_top">
<path fill="none" stroke="#63b8ff" d="M403.17,-145.01C413.34,-157.47 424.01,-181.25 416,-200 399.59,-238.4 360.29,-269.07 332.47,-285.73"/>
<polygon fill="#63b8ff" stroke="#63b8ff" points="330.48,-282.84 323.53,-290.84 333.95,-288.92 330.48,-282.84"/>
</a>
</g>
<g id="a_edge48&#45;headlabel"><a xlink:href="dir_000129_000011.html" target="_top" xlink:title="5">
<text text-anchor="middle" x="332.19" y="-276.09" font-family="Helvetica,sans-Serif" font-size="10.00" fill="#63b8ff">5</text>
</a>
</g>
</g>
<!-- dir_221b4b4dd11129740db672ae05bd529e&#45;&gt;dir_80739b26cb30f72b63d8bcb72cf37f56 -->
<g id="edge46" class="edge">
<title>dir_221b4b4dd11129740db672ae05bd529e&#45;&gt;dir_80739b26cb30f72b63d8bcb72cf37f56</title>
<g id="a_edge46"><a xlink:href="dir_000129_000073.html" target="_top">
<path fill="none" stroke="#63b8ff" d="M373.97,-129.17C348.71,-121.63 301.14,-107.19 255.7,-91.9"/>
<polygon fill="#63b8ff" stroke="#63b8ff" points="256.64,-88.52 246.05,-88.62 254.4,-95.15 256.64,-88.52"/>
</a>
</g>
<g id="a_edge46&#45;headlabel"><a xlink:href="dir_000129_000073.html" target="_top" xlink:title="1">
<text text-anchor="middle" x="260.96" y="-84.49" font-family="Helvetica,sans-Serif" font-size="10.00" fill="#63b8ff">1</text>
</a>
</g>
</g>
<!-- dir_221b4b4dd11129740db672ae05bd529e&#45;&gt;dir_4f3e26b8b67e40a4401952554a1fee3f -->
<g id="edge44" class="edge">
<title>dir_221b4b4dd11129740db672ae05bd529e&#45;&gt;dir_4f3e26b8b67e40a4401952554a1fee3f</title>
<g id="a_edge44"><a xlink:href="dir_000129_000124.html" target="_top">
<path fill="none" stroke="#63b8ff" d="M385.7,-145.17C376.74,-153.29 360.82,-165.57 347.03,-175.15"/>
<polygon fill="#63b8ff" stroke="#63b8ff" points="344.7,-172.5 338.36,-180.98 348.61,-178.3 344.7,-172.5"/>
</a>
</g>
<g id="a_edge44&#45;headlabel"><a xlink:href="dir_000129_000124.html" target="_top" xlink:title="1">
<text text-anchor="middle" x="346.1" y="-165.63" font-family="Helvetica,sans-Serif" font-size="10.00" fill="#63b8ff">1</text>
</a>
</g>
</g>
</g>
</svg>

<g id="navigator" transform="translate(0 0)" fill="#404254">
  <rect fill="#f2f5e9" fill-opacity="0.5" stroke="#606060" stroke-width=".5" x="0" y="0" width="60" height="60"/>
  <use id="zoomplus" xlink:href="#zoomPlus" x="17" y="9" onmousedown="handleZoom(evt,'in')"/>
  <use id="zoomminus" xlink:href="#zoomMin" x="42" y="9" onmousedown="handleZoom(evt,'out')"/>
  <use id="reset" xlink:href="#resetDef" x="30" y="36" onmousedown="handleReset()"/>
   <use id="arrowup" xlink:href="#arrowUp" x="0" y="0" onmousedown="handlePan(0,-1)"/>
  <use id="arrowright" xlink:href="#arrowRight" x="0" y="0" onmousedown="handlePan(1,0)"/>
  <use id="arrowdown" xlink:href="#arrowDown" x="0" y="0" onmousedown="handlePan(0,1)"/>
  <use id="arrowleft" xlink:href="#arrowLeft" x="0" y="0" onmousedown="handlePan(-1,0)"/>
</g>
<svg viewBox="0 0 15 15" width="100%" height="30px" preserveAspectRatio="xMaxYMin meet">
 <g id="arrow_out" transform="scale(0.3 0.3)">
  <a xlink:href="dir_7d71b6c457a61cbf03a04bfdc57b6110_dep_org.svg" target="_base">
   <rect id="button" ry="5" rx="5" y="6" x="6" height="38" width="38"
        fill="#f2f5e9" fill-opacity="0.5" stroke="#606060" stroke-width="1.0"/>
   <path id="arrow"
     d="M 11.500037,31.436501 C 11.940474,20.09759 22.043105,11.32322 32.158766,21.979434 L 37.068811,17.246167 C 37.068811,17.246167 37.088388,32 37.088388,32 L 22.160133,31.978069 C 22.160133,31.978069 26.997745,27.140456 26.997745,27.140456 C 18.528582,18.264221 13.291696,25.230495 11.500037,31.436501 z"
     style="fill:#404040;"/>
  </a>
 </g>
</svg>

<style type='text/css'>
<![CDATA[
[data-mouse-over-selected='false'] { opacity: 0.7; }
[data-mouse-over-selected='true']  { opacity: 1.0; }
]]>
</style>
<script type="application/ecmascript"><![CDATA[
document.addEventListener('DOMContentLoaded', (event) => {
  highlightEdges();
  highlightAdjacentNodes();
});
]]></script>
</svg>
