<?xml version="1.0" encoding="UTF-8" standalone="no"?>
<!DOCTYPE svg PUBLIC "-//W3C//DTD SVG 1.1//EN"
 "http://www.w3.org/Graphics/SVG/1.1/DTD/svg11.dtd">
<!-- Generated by graphviz version 2.43.0 (0)
 -->
<!-- Title: src/auth/token/exchange.h Pages: 1 -->
<svg width="4435pt" height="159pt"
 viewBox="0.00 0.00 4434.50 159.00" xmlns="http://www.w3.org/2000/svg" xmlns:xlink="http://www.w3.org/1999/xlink">
<g id="graph0" class="graph" transform="scale(1 1) rotate(0) translate(4 155)">
<title>src/auth/token/exchange.h</title>
<!-- Node1 -->
<g id="Node000001" class="node">
<title>Node1</title>
<g id="a_Node000001"><a xlink:title=" ">
<polygon fill="#999999" stroke="#666666" points="2194.5,-151 2049.5,-151 2049.5,-132 2194.5,-132 2194.5,-151"/>
<text text-anchor="middle" x="2122" y="-139" font-family="Helvetica,sans-Serif" font-size="10.00">src/auth/token/exchange.h</text>
</a>
</g>
</g>
<!-- Node2 -->
<g id="Node000002" class="node">
<title>Node2</title>
<g id="a_Node000002"><a xlink:href="exchange_8c.html" target="_top" xlink:title=" ">
<polygon fill="white" stroke="#666666" points="2116,-96 1972,-96 1972,-77 2116,-77 2116,-96"/>
<text text-anchor="middle" x="2044" y="-84" font-family="Helvetica,sans-Serif" font-size="10.00">src/auth/token/exchange.c</text>
</a>
</g>
</g>
<!-- Node1&#45;&gt;Node2 -->
<g id="edge1_Node000001_Node000002" class="edge">
<title>Node1&#45;&gt;Node2</title>
<g id="a_edge1_Node000001_Node000002"><a xlink:title=" ">
<path fill="none" stroke="#63b8ff" d="M2100.88,-126.15C2086.79,-116.57 2068.71,-104.29 2056.76,-96.17"/>
<polygon fill="#63b8ff" stroke="#63b8ff" points="2099.23,-129.26 2109.47,-131.98 2103.16,-123.47 2099.23,-129.26"/>
</a>
</g>
</g>
<!-- Node3 -->
<g id="Node000003" class="node">
<title>Node3</title>
<g id="a_Node000003"><a xlink:href="vfs__internal_8h.html" target="_top" xlink:title=" ">
<polygon fill="white" stroke="#666666" points="2265.5,-96 2134.5,-96 2134.5,-77 2265.5,-77 2265.5,-96"/>
<text text-anchor="middle" x="2200" y="-84" font-family="Helvetica,sans-Serif" font-size="10.00">src/fs/vfs/vfs_internal.h</text>
</a>
</g>
</g>
<!-- Node1&#45;&gt;Node3 -->
<g id="edge2_Node000001_Node000003" class="edge">
<title>Node1&#45;&gt;Node3</title>
<g id="a_edge2_Node000001_Node000003"><a xlink:title=" ">
<path fill="none" stroke="#63b8ff" d="M2143.12,-126.15C2157.21,-116.57 2175.29,-104.29 2187.24,-96.17"/>
<polygon fill="#63b8ff" stroke="#63b8ff" points="2140.84,-123.47 2134.53,-131.98 2144.77,-129.26 2140.84,-123.47"/>
</a>
</g>
</g>
<!-- Node4 -->
<g id="Node000004" class="node">
<title>Node4</title>
<g id="a_Node000004"><a xlink:href="sd__posix_8c.html" target="_top" xlink:title=" ">
<polygon fill="white" stroke="#666666" points="116,-35.5 0,-35.5 0,-5.5 116,-5.5 116,-35.5"/>
<text text-anchor="start" x="8" y="-23.5" font-family="Helvetica,sans-Serif" font-size="10.00">src/fs/backend/posix</text>
<text text-anchor="middle" x="58" y="-12.5" font-family="Helvetica,sans-Serif" font-size="10.00">/sd_posix.c</text>
</a>
</g>
</g>
<!-- Node3&#45;&gt;Node4 -->
<g id="edge3_Node000003_Node000004" class="edge">
<title>Node3&#45;&gt;Node4</title>
<g id="a_edge3_Node000003_Node000004"><a xlink:title=" ">
<path fill="none" stroke="#63b8ff" d="M2124.13,-77.04C1665.11,-48.81 561.27,-107.21 125,-41 116.74,-39.75 108.06,-37.75 99.79,-35.51"/>
<polygon fill="#63b8ff" stroke="#63b8ff" points="2123.98,-80.54 2134.18,-77.68 2124.42,-73.56 2123.98,-80.54"/>
</a>
</g>
</g>
<!-- Node5 -->
<g id="Node000005" class="node">
<title>Node5</title>
<g id="a_Node000005"><a xlink:href="sd__posix__io_8c.html" target="_top" xlink:title=" ">
<polygon fill="white" stroke="#666666" points="250,-35.5 134,-35.5 134,-5.5 250,-5.5 250,-35.5"/>
<text text-anchor="start" x="142" y="-23.5" font-family="Helvetica,sans-Serif" font-size="10.00">src/fs/backend/posix</text>
<text text-anchor="middle" x="192" y="-12.5" font-family="Helvetica,sans-Serif" font-size="10.00">/sd_posix_io.c</text>
</a>
</g>
</g>
<!-- Node3&#45;&gt;Node5 -->
<g id="edge4_Node000003_Node000005" class="edge">
<title>Node3&#45;&gt;Node5</title>
<g id="a_edge4_Node000003_Node000005"><a xlink:title=" ">
<path fill="none" stroke="#63b8ff" d="M2124.15,-77.05C1694.92,-50.45 665.81,-103.01 259,-41 250.86,-39.76 242.31,-37.8 234.15,-35.6"/>
<polygon fill="#63b8ff" stroke="#63b8ff" points="2123.98,-80.54 2134.18,-77.69 2124.43,-73.56 2123.98,-80.54"/>
</a>
</g>
</g>
<!-- Node6 -->
<g id="Node000006" class="node">
<title>Node6</title>
<g id="a_Node000006"><a xlink:href="sd__posix__ns_8c.html" target="_top" xlink:title=" ">
<polygon fill="white" stroke="#666666" points="384,-35.5 268,-35.5 268,-5.5 384,-5.5 384,-35.5"/>
<text text-anchor="start" x="276" y="-23.5" font-family="Helvetica,sans-Serif" font-size="10.00">src/fs/backend/posix</text>
<text text-anchor="middle" x="326" y="-12.5" font-family="Helvetica,sans-Serif" font-size="10.00">/sd_posix_ns.c</text>
</a>
</g>
</g>
<!-- Node3&#45;&gt;Node6 -->
<g id="edge5_Node000003_Node000006" class="edge">
<title>Node3&#45;&gt;Node6</title>
<g id="a_edge5_Node000003_Node000006"><a xlink:title=" ">
<path fill="none" stroke="#63b8ff" d="M2123.97,-77.03C1724.4,-52.11 770.28,-98.79 393,-41 384.86,-39.75 376.31,-37.79 368.15,-35.59"/>
<polygon fill="#63b8ff" stroke="#63b8ff" points="2123.98,-80.54 2134.18,-77.69 2124.43,-73.56 2123.98,-80.54"/>
</a>
</g>
</g>
<!-- Node7 -->
<g id="Node000007" class="node">
<title>Node7</title>
<g id="a_Node000007"><a xlink:href="open_8c.html" target="_top" xlink:title=" ">
<polygon fill="white" stroke="#666666" points="512,-30 402,-30 402,-11 512,-11 512,-30"/>
<text text-anchor="middle" x="457" y="-18" font-family="Helvetica,sans-Serif" font-size="10.00">src/fs/cache/open.c</text>
</a>
</g>
</g>
<!-- Node3&#45;&gt;Node7 -->
<g id="edge6_Node000003_Node000007" class="edge">
<title>Node3&#45;&gt;Node7</title>
<g id="a_edge6_Node000003_Node000007"><a xlink:title=" ">
<path fill="none" stroke="#63b8ff" d="M2124.16,-77.04C1753.13,-53.7 869.85,-96.97 521,-41 507.01,-38.75 491.82,-34.22 479.75,-30.09"/>
<polygon fill="#63b8ff" stroke="#63b8ff" points="2123.97,-80.54 2134.18,-77.7 2124.43,-73.55 2123.97,-80.54"/>
</a>
</g>
</g>
<!-- Node8 -->
<g id="Node000008" class="node">
<title>Node8</title>
<g id="a_Node000008"><a xlink:href="open__or__fill_8c.html" target="_top" xlink:title=" ">
<polygon fill="white" stroke="#666666" points="646,-35.5 530,-35.5 530,-5.5 646,-5.5 646,-35.5"/>
<text text-anchor="start" x="538" y="-23.5" font-family="Helvetica,sans-Serif" font-size="10.00">src/fs/cache/open_or</text>
<text text-anchor="middle" x="588" y="-12.5" font-family="Helvetica,sans-Serif" font-size="10.00">_fill.c</text>
</a>
</g>
</g>
<!-- Node3&#45;&gt;Node8 -->
<g id="edge7_Node000003_Node000008" class="edge">
<title>Node3&#45;&gt;Node8</title>
<g id="a_edge7_Node000003_Node000008"><a xlink:title=" ">
<path fill="none" stroke="#63b8ff" d="M2123.97,-77.03C1782.62,-55.3 974.67,-90.57 655,-41 646.86,-39.74 638.32,-37.77 630.16,-35.56"/>
<polygon fill="#63b8ff" stroke="#63b8ff" points="2123.97,-80.54 2134.18,-77.71 2124.43,-73.55 2123.97,-80.54"/>
</a>
</g>
</g>
<!-- Node9 -->
<g id="Node000009" class="node">
<title>Node9</title>
<g id="a_Node000009"><a xlink:href="vfs__copy_8c.html" target="_top" xlink:title=" ">
<polygon fill="white" stroke="#666666" points="778,-30 664,-30 664,-11 778,-11 778,-30"/>
<text text-anchor="middle" x="721" y="-18" font-family="Helvetica,sans-Serif" font-size="10.00">src/fs/vfs/vfs_copy.c</text>
</a>
</g>
</g>
<!-- Node3&#45;&gt;Node9 -->
<g id="edge8_Node000003_Node000009" class="edge">
<title>Node3&#45;&gt;Node9</title>
<g id="a_edge8_Node000003_Node000009"><a xlink:title=" ">
<path fill="none" stroke="#63b8ff" d="M2124.17,-77.04C1812.28,-56.9 1077.62,-87.03 787,-41 772.6,-38.72 756.94,-34.18 744.48,-30.06"/>
<polygon fill="#63b8ff" stroke="#63b8ff" points="2123.97,-80.54 2134.18,-77.72 2124.44,-73.55 2123.97,-80.54"/>
</a>
</g>
</g>
<!-- Node10 -->
<g id="Node000010" class="node">
<title>Node10</title>
<g id="a_Node000010"><a xlink:href="vfs__cred_8c.html" target="_top" xlink:title=" ">
<polygon fill="white" stroke="#666666" points="909.5,-30 796.5,-30 796.5,-11 909.5,-11 909.5,-30"/>
<text text-anchor="middle" x="853" y="-18" font-family="Helvetica,sans-Serif" font-size="10.00">src/fs/vfs/vfs_cred.c</text>
</a>
</g>
</g>
<!-- Node3&#45;&gt;Node10 -->
<g id="edge9_Node000003_Node000010" class="edge">
<title>Node3&#45;&gt;Node10</title>
<g id="a_edge9_Node000003_Node000010"><a xlink:title=" ">
<path fill="none" stroke="#63b8ff" d="M2123.86,-77.02C1840.94,-58.5 1179.65,-83.4 918,-41 903.81,-38.7 888.38,-34.16 876.12,-30.05"/>
<polygon fill="#63b8ff" stroke="#63b8ff" points="2123.96,-80.54 2134.18,-77.73 2124.44,-73.55 2123.96,-80.54"/>
</a>
</g>
</g>
<!-- Node11 -->
<g id="Node000011" class="node">
<title>Node11</title>
<g id="a_Node000011"><a xlink:href="vfs__deleg_8c.html" target="_top" xlink:title=" ">
<polygon fill="white" stroke="#666666" points="1046.5,-30 927.5,-30 927.5,-11 1046.5,-11 1046.5,-30"/>
<text text-anchor="middle" x="987" y="-18" font-family="Helvetica,sans-Serif" font-size="10.00">src/fs/vfs/vfs_deleg.c</text>
</a>
</g>
</g>
<!-- Node3&#45;&gt;Node11 -->
<g id="edge10_Node000003_Node000011" class="edge">
<title>Node3&#45;&gt;Node11</title>
<g id="a_edge10_Node000003_Node000011"><a xlink:title=" ">
<path fill="none" stroke="#63b8ff" d="M2123.97,-77C1649.1,-43.22 1522.39,-113.66 1056,-41 1040.99,-38.66 1024.62,-34.12 1011.59,-30.01"/>
<polygon fill="#63b8ff" stroke="#63b8ff" points="2123.95,-80.51 2134.18,-77.74 2124.46,-73.53 2123.95,-80.51"/>
</a>
</g>
</g>
<!-- Node12 -->
<g id="Node000012" class="node">
<title>Node12</title>
<g id="a_Node000012"><a xlink:href="vfs__dir_8c.html" target="_top" xlink:title=" ">
<polygon fill="white" stroke="#666666" points="1169,-30 1065,-30 1065,-11 1169,-11 1169,-30"/>
<text text-anchor="middle" x="1117" y="-18" font-family="Helvetica,sans-Serif" font-size="10.00">src/fs/vfs/vfs_dir.c</text>
</a>
</g>
</g>
<!-- Node3&#45;&gt;Node12 -->
<g id="edge11_Node000003_Node000012" class="edge">
<title>Node3&#45;&gt;Node12</title>
<g id="a_edge11_Node000003_Node000012"><a xlink:title=" ">
<path fill="none" stroke="#63b8ff" d="M2124.18,-77.01C1703.23,-46.32 1589.61,-113.23 1178,-41 1164.64,-38.66 1150.16,-34.12 1138.66,-30.01"/>
<polygon fill="#63b8ff" stroke="#63b8ff" points="2123.94,-80.51 2134.18,-77.76 2124.46,-73.53 2123.94,-80.51"/>
</a>
</g>
</g>
<!-- Node13 -->
<g id="Node000013" class="node">
<title>Node13</title>
<g id="a_Node000013"><a xlink:href="vfs__io__core_8c.html" target="_top" xlink:title=" ">
<polygon fill="white" stroke="#666666" points="1315,-30 1187,-30 1187,-11 1315,-11 1315,-30"/>
<text text-anchor="middle" x="1251" y="-18" font-family="Helvetica,sans-Serif" font-size="10.00">src/fs/vfs/vfs_io_core.c</text>
</a>
</g>
</g>
<!-- Node3&#45;&gt;Node13 -->
<g id="edge12_Node000003_Node000013" class="edge">
<title>Node3&#45;&gt;Node13</title>
<g id="a_edge12_Node000003_Node000013"><a xlink:title=" ">
<path fill="none" stroke="#63b8ff" d="M2124.1,-77C1767.99,-49.77 1672.93,-94.8 1324,-41 1308.31,-38.58 1291.15,-34.09 1277.4,-30.03"/>
<polygon fill="#63b8ff" stroke="#63b8ff" points="2123.93,-80.5 2134.17,-77.78 2124.48,-73.52 2123.93,-80.5"/>
</a>
</g>
</g>
<!-- Node14 -->
<g id="Node000014" class="node">
<title>Node14</title>
<g id="a_Node000014"><a xlink:href="vfs__mkdir_8c.html" target="_top" xlink:title=" ">
<polygon fill="white" stroke="#666666" points="1453,-30 1333,-30 1333,-11 1453,-11 1453,-30"/>
<text text-anchor="middle" x="1393" y="-18" font-family="Helvetica,sans-Serif" font-size="10.00">src/fs/vfs/vfs_mkdir.c</text>
</a>
</g>
</g>
<!-- Node3&#45;&gt;Node14 -->
<g id="edge13_Node000003_Node000014" class="edge">
<title>Node3&#45;&gt;Node14</title>
<g id="a_edge13_Node000003_Node000014"><a xlink:title=" ">
<path fill="none" stroke="#63b8ff" d="M2124.04,-76.98C1829.15,-53.19 1749.83,-88.88 1462,-41 1447.26,-38.55 1431.18,-34.11 1418.25,-30.09"/>
<polygon fill="#63b8ff" stroke="#63b8ff" points="2123.92,-80.49 2134.17,-77.82 2124.49,-73.51 2123.92,-80.49"/>
</a>
</g>
</g>
<!-- Node15 -->
<g id="Node000015" class="node">
<title>Node15</title>
<g id="a_Node000015"><a xlink:href="vfs__open_8c.html" target="_top" xlink:title=" ">
<polygon fill="white" stroke="#666666" points="1587,-30 1471,-30 1471,-11 1587,-11 1587,-30"/>
<text text-anchor="middle" x="1529" y="-18" font-family="Helvetica,sans-Serif" font-size="10.00">src/fs/vfs/vfs_open.c</text>
</a>
</g>
</g>
<!-- Node3&#45;&gt;Node15 -->
<g id="edge14_Node000003_Node000015" class="edge">
<title>Node3&#45;&gt;Node15</title>
<g id="a_edge14_Node000003_Node000015"><a xlink:title=" ">
<path fill="none" stroke="#63b8ff" d="M2123.92,-76.96C1888.51,-56.46 1824.75,-81.58 1596,-41 1581.69,-38.46 1566.07,-34.02 1553.52,-30.01"/>
<polygon fill="#63b8ff" stroke="#63b8ff" points="2123.9,-80.47 2134.17,-77.87 2124.52,-73.5 2123.9,-80.47"/>
</a>
</g>
</g>
<!-- Node16 -->
<g id="Node000016" class="node">
<title>Node16</title>
<g id="a_Node000016"><a xlink:href="vfs__open__adopt_8c.html" target="_top" xlink:title=" ">
<polygon fill="white" stroke="#666666" points="1713,-35.5 1605,-35.5 1605,-5.5 1713,-5.5 1713,-35.5"/>
<text text-anchor="start" x="1613" y="-23.5" font-family="Helvetica,sans-Serif" font-size="10.00">src/fs/vfs/vfs_open</text>
<text text-anchor="middle" x="1659" y="-12.5" font-family="Helvetica,sans-Serif" font-size="10.00">_adopt.c</text>
</a>
</g>
</g>
<!-- Node3&#45;&gt;Node16 -->
<g id="edge15_Node000003_Node000016" class="edge">
<title>Node3&#45;&gt;Node16</title>
<g id="a_edge15_Node000003_Node000016"><a xlink:title=" ">
<path fill="none" stroke="#63b8ff" d="M2124.1,-76.95C1944.33,-59.47 1895.24,-75.15 1722,-41 1714.81,-39.58 1707.28,-37.66 1700.02,-35.56"/>
<polygon fill="#63b8ff" stroke="#63b8ff" points="2123.86,-80.44 2134.16,-77.95 2124.55,-73.48 2123.86,-80.44"/>
</a>
</g>
</g>
<!-- Node17 -->
<g id="Node000017" class="node">
<title>Node17</title>
<g id="a_Node000017"><a xlink:href="vfs__open__handle_8c.html" target="_top" xlink:title=" ">
<polygon fill="white" stroke="#666666" points="1839,-35.5 1731,-35.5 1731,-5.5 1839,-5.5 1839,-35.5"/>
<text text-anchor="start" x="1739" y="-23.5" font-family="Helvetica,sans-Serif" font-size="10.00">src/fs/vfs/vfs_open</text>
<text text-anchor="middle" x="1785" y="-12.5" font-family="Helvetica,sans-Serif" font-size="10.00">_handle.c</text>
</a>
</g>
</g>
<!-- Node3&#45;&gt;Node17 -->
<g id="edge16_Node000003_Node000017" class="edge">
<title>Node3&#45;&gt;Node17</title>
<g id="a_edge16_Node000003_Node000017"><a xlink:title=" ">
<path fill="none" stroke="#63b8ff" d="M2124.29,-76.64C2028.94,-65.37 1874.32,-46.69 1848,-41 1841.06,-39.5 1833.79,-37.58 1826.75,-35.54"/>
<polygon fill="#63b8ff" stroke="#63b8ff" points="2124.13,-80.15 2134.47,-77.84 2124.95,-73.19 2124.13,-80.15"/>
</a>
</g>
</g>
<!-- Node18 -->
<g id="Node000018" class="node">
<title>Node18</title>
<g id="a_Node000018"><a xlink:href="vfs__read_8c.html" target="_top" xlink:title=" ">
<polygon fill="white" stroke="#666666" points="1971,-30 1857,-30 1857,-11 1971,-11 1971,-30"/>
<text text-anchor="middle" x="1914" y="-18" font-family="Helvetica,sans-Serif" font-size="10.00">src/fs/vfs/vfs_read.c</text>
</a>
</g>
</g>
<!-- Node3&#45;&gt;Node18 -->
<g id="edge17_Node000003_Node000018" class="edge">
<title>Node3&#45;&gt;Node18</title>
<g id="a_edge17_Node000003_Node000018"><a xlink:title=" ">
<path fill="none" stroke="#63b8ff" d="M2141.6,-75.13C2097.09,-66.88 2034.38,-54.51 1980,-41 1967.01,-37.77 1952.76,-33.64 1940.83,-30.01"/>
<polygon fill="#63b8ff" stroke="#63b8ff" points="2141.19,-78.62 2151.66,-76.98 2142.46,-71.73 2141.19,-78.62"/>
</a>
</g>
</g>
<!-- Node19 -->
<g id="Node000019" class="node">
<title>Node19</title>
<g id="a_Node000019"><a xlink:href="vfs__rename_8c.html" target="_top" xlink:title=" ">
<polygon fill="white" stroke="#666666" points="2119,-30 1989,-30 1989,-11 2119,-11 2119,-30"/>
<text text-anchor="middle" x="2054" y="-18" font-family="Helvetica,sans-Serif" font-size="10.00">src/fs/vfs/vfs_rename.c</text>
</a>
</g>
</g>
<!-- Node3&#45;&gt;Node19 -->
<g id="edge18_Node000003_Node000019" class="edge">
<title>Node3&#45;&gt;Node19</title>
<g id="a_edge18_Node000003_Node000019"><a xlink:title=" ">
<path fill="none" stroke="#63b8ff" d="M2170.79,-72.69C2142.01,-60.08 2098.85,-41.16 2073.84,-30.2"/>
<polygon fill="#63b8ff" stroke="#63b8ff" points="2169.75,-76.06 2180.31,-76.87 2172.56,-69.65 2169.75,-76.06"/>
</a>
</g>
</g>
<!-- Node20 -->
<g id="Node000020" class="node">
<title>Node20</title>
<g id="a_Node000020"><a xlink:href="vfs__staged_8c.html" target="_top" xlink:title=" ">
<polygon fill="white" stroke="#666666" points="2262.5,-30 2137.5,-30 2137.5,-11 2262.5,-11 2262.5,-30"/>
<text text-anchor="middle" x="2200" y="-18" font-family="Helvetica,sans-Serif" font-size="10.00">src/fs/vfs/vfs_staged.c</text>
</a>
</g>
</g>
<!-- Node3&#45;&gt;Node20 -->
<g id="edge19_Node000003_Node000020" class="edge">
<title>Node3&#45;&gt;Node20</title>
<g id="a_edge19_Node000003_Node000020"><a xlink:title=" ">
<path fill="none" stroke="#63b8ff" d="M2200,-66.58C2200,-54.63 2200,-39.72 2200,-30.41"/>
<polygon fill="#63b8ff" stroke="#63b8ff" points="2196.5,-66.87 2200,-76.87 2203.5,-66.87 2196.5,-66.87"/>
</a>
</g>
</g>
<!-- Node21 -->
<g id="Node000021" class="node">
<title>Node21</title>
<g id="a_Node000021"><a xlink:href="vfs__stat_8c.html" target="_top" xlink:title=" ">
<polygon fill="white" stroke="#666666" points="2391.5,-30 2280.5,-30 2280.5,-11 2391.5,-11 2391.5,-30"/>
<text text-anchor="middle" x="2336" y="-18" font-family="Helvetica,sans-Serif" font-size="10.00">src/fs/vfs/vfs_stat.c</text>
</a>
</g>
</g>
<!-- Node3&#45;&gt;Node21 -->
<g id="edge20_Node000003_Node000021" class="edge">
<title>Node3&#45;&gt;Node21</title>
<g id="a_edge20_Node000003_Node000021"><a xlink:title=" ">
<path fill="none" stroke="#63b8ff" d="M2227.56,-72.53C2254.37,-59.92 2294.33,-41.11 2317.51,-30.2"/>
<polygon fill="#63b8ff" stroke="#63b8ff" points="2225.9,-69.44 2218.34,-76.87 2228.88,-75.78 2225.9,-69.44"/>
</a>
</g>
</g>
<!-- Node22 -->
<g id="Node000022" class="node">
<title>Node22</title>
<g id="a_Node000022"><a xlink:href="vfs__sync_8c.html" target="_top" xlink:title=" ">
<polygon fill="white" stroke="#666666" points="2524.5,-30 2409.5,-30 2409.5,-11 2524.5,-11 2524.5,-30"/>
<text text-anchor="middle" x="2467" y="-18" font-family="Helvetica,sans-Serif" font-size="10.00">src/fs/vfs/vfs_sync.c</text>
</a>
</g>
</g>
<!-- Node3&#45;&gt;Node22 -->
<g id="edge21_Node000003_Node000022" class="edge">
<title>Node3&#45;&gt;Node22</title>
<g id="a_edge21_Node000003_Node000022"><a xlink:title=" ">
<path fill="none" stroke="#63b8ff" d="M2252.52,-74.91C2293.21,-66.46 2350.91,-53.93 2401,-41 2413.73,-37.72 2427.7,-33.65 2439.5,-30.09"/>
<polygon fill="#63b8ff" stroke="#63b8ff" points="2251.64,-71.52 2242.55,-76.97 2253.05,-78.38 2251.64,-71.52"/>
</a>
</g>
</g>
<!-- Node23 -->
<g id="Node000023" class="node">
<title>Node23</title>
<g id="a_Node000023"><a xlink:href="vfs__unlink_8c.html" target="_top" xlink:title=" ">
<polygon fill="white" stroke="#666666" points="2665,-30 2543,-30 2543,-11 2665,-11 2665,-30"/>
<text text-anchor="middle" x="2604" y="-18" font-family="Helvetica,sans-Serif" font-size="10.00">src/fs/vfs/vfs_unlink.c</text>
</a>
</g>
</g>
<!-- Node3&#45;&gt;Node23 -->
<g id="edge22_Node000003_Node000023" class="edge">
<title>Node3&#45;&gt;Node23</title>
<g id="a_edge22_Node000003_Node000023"><a xlink:title=" ">
<path fill="none" stroke="#63b8ff" d="M2275.93,-78.43C2343.96,-71.37 2446.24,-58.98 2534,-41 2548.21,-38.09 2563.78,-33.86 2576.62,-30.08"/>
<polygon fill="#63b8ff" stroke="#63b8ff" points="2275.32,-74.97 2265.73,-79.47 2276.04,-81.94 2275.32,-74.97"/>
</a>
</g>
</g>
<!-- Node24 -->
<g id="Node000024" class="node">
<title>Node24</title>
<g id="a_Node000024"><a xlink:href="vfs__walk_8c.html" target="_top" xlink:title=" ">
<polygon fill="white" stroke="#666666" points="2799,-30 2683,-30 2683,-11 2799,-11 2799,-30"/>
<text text-anchor="middle" x="2741" y="-18" font-family="Helvetica,sans-Serif" font-size="10.00">src/fs/vfs/vfs_walk.c</text>
</a>
</g>
</g>
<!-- Node3&#45;&gt;Node24 -->
<g id="edge23_Node000003_Node000024" class="edge">
<title>Node3&#45;&gt;Node24</title>
<g id="a_edge23_Node000003_Node000024"><a xlink:title=" ">
<path fill="none" stroke="#63b8ff" d="M2275.72,-82.82C2369.81,-78.47 2534.95,-67.51 2674,-41 2688.04,-38.32 2703.37,-33.97 2715.82,-30.06"/>
<polygon fill="#63b8ff" stroke="#63b8ff" points="2275.56,-79.32 2265.72,-83.26 2275.87,-86.31 2275.56,-79.32"/>
</a>
</g>
</g>
<!-- Node25 -->
<g id="Node000025" class="node">
<title>Node25</title>
<g id="a_Node000025"><a xlink:href="vfs__write_8c.html" target="_top" xlink:title=" ">
<polygon fill="white" stroke="#666666" points="2934.5,-30 2817.5,-30 2817.5,-11 2934.5,-11 2934.5,-30"/>
<text text-anchor="middle" x="2876" y="-18" font-family="Helvetica,sans-Serif" font-size="10.00">src/fs/vfs/vfs_write.c</text>
</a>
</g>
</g>
<!-- Node3&#45;&gt;Node25 -->
<g id="edge24_Node000003_Node000025" class="edge">
<title>Node3&#45;&gt;Node25</title>
<g id="a_edge24_Node000003_Node000025"><a xlink:title=" ">
<path fill="none" stroke="#63b8ff" d="M2275.95,-84.95C2391.65,-82.99 2618.6,-74.71 2808,-41 2822.39,-38.44 2838.09,-34.05 2850.78,-30.08"/>
<polygon fill="#63b8ff" stroke="#63b8ff" points="2275.73,-81.45 2265.78,-85.11 2275.84,-88.45 2275.73,-81.45"/>
</a>
</g>
</g>
<!-- Node26 -->
<g id="Node000026" class="node">
<title>Node26</title>
<g id="a_Node000026"><a xlink:href="vfs__writer_8c.html" target="_top" xlink:title=" ">
<polygon fill="white" stroke="#666666" points="3073,-30 2953,-30 2953,-11 3073,-11 3073,-30"/>
<text text-anchor="middle" x="3013" y="-18" font-family="Helvetica,sans-Serif" font-size="10.00">src/fs/vfs/vfs_writer.c</text>
</a>
</g>
</g>
<!-- Node3&#45;&gt;Node26 -->
<g id="edge25_Node000003_Node000026" class="edge">
<title>Node3&#45;&gt;Node26</title>
<g id="a_edge25_Node000003_Node000026"><a xlink:title=" ">
<path fill="none" stroke="#63b8ff" d="M2275.98,-86.33C2411.28,-86.62 2702.46,-81.86 2944,-41 2958.73,-38.51 2974.81,-34.07 2987.74,-30.05"/>
<polygon fill="#63b8ff" stroke="#63b8ff" points="2275.73,-82.83 2265.72,-86.3 2275.71,-89.83 2275.73,-82.83"/>
</a>
</g>
</g>
<!-- Node27 -->
<g id="Node000027" class="node">
<title>Node27</title>
<g id="a_Node000027"><a xlink:href="vfs__wverify_8c.html" target="_top" xlink:title=" ">
<polygon fill="white" stroke="#666666" points="3218.5,-30 3091.5,-30 3091.5,-11 3218.5,-11 3218.5,-30"/>
<text text-anchor="middle" x="3155" y="-18" font-family="Helvetica,sans-Serif" font-size="10.00">src/fs/vfs/vfs_wverify.c</text>
</a>
</g>
</g>
<!-- Node3&#45;&gt;Node27 -->
<g id="edge26_Node000003_Node000027" class="edge">
<title>Node3&#45;&gt;Node27</title>
<g id="a_edge26_Node000003_Node000027"><a xlink:title=" ">
<path fill="none" stroke="#63b8ff" d="M2275.88,-83.72C2460.2,-79.08 2927.68,-65.23 3082,-41 3097.55,-38.56 3114.56,-34.12 3128.25,-30.1"/>
<polygon fill="#63b8ff" stroke="#63b8ff" points="2275.65,-80.23 2265.74,-83.98 2275.82,-87.23 2275.65,-80.23"/>
</a>
</g>
</g>
<!-- Node28 -->
<g id="Node000028" class="node">
<title>Node28</title>
<g id="a_Node000028"><a xlink:href="vfs__xattr_8c.html" target="_top" xlink:title=" ">
<polygon fill="white" stroke="#666666" points="3351.5,-30 3236.5,-30 3236.5,-11 3351.5,-11 3351.5,-30"/>
<text text-anchor="middle" x="3294" y="-18" font-family="Helvetica,sans-Serif" font-size="10.00">src/fs/vfs/vfs_xattr.c</text>
</a>
</g>
</g>
<!-- Node3&#45;&gt;Node28 -->
<g id="edge27_Node000003_Node000028" class="edge">
<title>Node3&#45;&gt;Node28</title>
<g id="a_edge27_Node000003_Node000028"><a xlink:title=" ">
<path fill="none" stroke="#63b8ff" d="M2275.94,-84.61C2481.37,-81.83 3044.86,-71.55 3228,-41 3242.26,-38.62 3257.78,-34.14 3270.19,-30.06"/>
<polygon fill="#63b8ff" stroke="#63b8ff" points="2275.8,-81.11 2265.84,-84.75 2275.89,-88.11 2275.8,-81.11"/>
</a>
</g>
</g>
<!-- Node29 -->
<g id="Node000029" class="node">
<title>Node29</title>
<g id="a_Node000029"><a xlink:href="open__request_8c.html" target="_top" xlink:title=" ">
<polygon fill="white" stroke="#666666" points="3488.5,-35.5 3369.5,-35.5 3369.5,-5.5 3488.5,-5.5 3488.5,-35.5"/>
<text text-anchor="start" x="3377.5" y="-23.5" font-family="Helvetica,sans-Serif" font-size="10.00">src/protocols/root</text>
<text text-anchor="middle" x="3429" y="-12.5" font-family="Helvetica,sans-Serif" font-size="10.00">/read/open_request.c</text>
</a>
</g>
</g>
<!-- Node3&#45;&gt;Node29 -->
<g id="edge28_Node000003_Node000029" class="edge">
<title>Node3&#45;&gt;Node29</title>
<g id="a_edge28_Node000003_Node000029"><a xlink:title=" ">
<path fill="none" stroke="#63b8ff" d="M2275.84,-84.97C2499.02,-83.05 3150.97,-74.63 3361,-41 3369.13,-39.7 3377.65,-37.74 3385.82,-35.56"/>
<polygon fill="#63b8ff" stroke="#63b8ff" points="2275.51,-81.48 2265.54,-85.06 2275.57,-88.48 2275.51,-81.48"/>
</a>
</g>
</g>
<!-- Node30 -->
<g id="Node000030" class="node">
<title>Node30</title>
<g id="a_Node000030"><a xlink:href="open__resolved__file_8c.html" target="_top" xlink:title=" ">
<polygon fill="white" stroke="#666666" points="3623,-41 3507,-41 3507,0 3623,0 3623,-41"/>
<text text-anchor="start" x="3515" y="-29" font-family="Helvetica,sans-Serif" font-size="10.00">src/protocols/root</text>
<text text-anchor="start" x="3515" y="-18" font-family="Helvetica,sans-Serif" font-size="10.00">/read/open_resolved</text>
<text text-anchor="middle" x="3565" y="-7" font-family="Helvetica,sans-Serif" font-size="10.00">_file.c</text>
</a>
</g>
</g>
<!-- Node3&#45;&gt;Node30 -->
<g id="edge29_Node000003_Node000030" class="edge">
<title>Node3&#45;&gt;Node30</title>
<g id="a_edge29_Node000003_Node000030"><a xlink:title=" ">
<path fill="none" stroke="#63b8ff" d="M2275.6,-85.37C2515.89,-84.59 3260.26,-79.06 3498,-41 3500.87,-40.54 3503.79,-40 3506.73,-39.39"/>
<polygon fill="#63b8ff" stroke="#63b8ff" points="2275.55,-81.87 2265.56,-85.41 2275.57,-88.87 2275.55,-81.87"/>
</a>
</g>
</g>
<!-- Node31 -->
<g id="Node000031" class="node">
<title>Node31</title>
<g id="a_Node000031"><a xlink:href="open__resolved__file__dispatch_8c.html" target="_top" xlink:title=" ">
<polygon fill="white" stroke="#666666" points="3757,-41 3641,-41 3641,0 3757,0 3757,-41"/>
<text text-anchor="start" x="3649" y="-29" font-family="Helvetica,sans-Serif" font-size="10.00">src/protocols/root</text>
<text text-anchor="start" x="3649" y="-18" font-family="Helvetica,sans-Serif" font-size="10.00">/read/open_resolved</text>
<text text-anchor="middle" x="3699" y="-7" font-family="Helvetica,sans-Serif" font-size="10.00">_file_dispatch.c</text>
</a>
</g>
</g>
<!-- Node3&#45;&gt;Node31 -->
<g id="edge30_Node000003_Node000031" class="edge">
<title>Node3&#45;&gt;Node31</title>
<g id="a_edge30_Node000003_Node000031"><a xlink:title=" ">
<path fill="none" stroke="#63b8ff" d="M2276.26,-85.66C2533.4,-85.8 3367.28,-82.94 3632,-41 3634.87,-40.54 3637.79,-40 3640.73,-39.4"/>
<polygon fill="#63b8ff" stroke="#63b8ff" points="2275.91,-82.16 2265.9,-85.65 2275.9,-89.16 2275.91,-82.16"/>
</a>
</g>
</g>
<!-- Node32 -->
<g id="Node000032" class="node">
<title>Node32</title>
<g id="a_Node000032"><a xlink:href="open__resolved__file__finalize_8c.html" target="_top" xlink:title=" ">
<polygon fill="white" stroke="#666666" points="3891,-41 3775,-41 3775,0 3891,0 3891,-41"/>
<text text-anchor="start" x="3783" y="-29" font-family="Helvetica,sans-Serif" font-size="10.00">src/protocols/root</text>
<text text-anchor="start" x="3783" y="-18" font-family="Helvetica,sans-Serif" font-size="10.00">/read/open_resolved</text>
<text text-anchor="middle" x="3833" y="-7" font-family="Helvetica,sans-Serif" font-size="10.00">_file_finalize.c</text>
</a>
</g>
</g>
<!-- Node3&#45;&gt;Node32 -->
<g id="edge31_Node000003_Node000032" class="edge">
<title>Node3&#45;&gt;Node32</title>
<g id="a_edge31_Node000003_Node000032"><a xlink:title=" ">
<path fill="none" stroke="#63b8ff" d="M2275.95,-85.9C2548.11,-86.93 3473.86,-86.89 3766,-41 3768.87,-40.55 3771.79,-40.01 3774.73,-39.41"/>
<polygon fill="#63b8ff" stroke="#63b8ff" points="2275.79,-82.4 2265.78,-85.86 2275.76,-89.4 2275.79,-82.4"/>
</a>
</g>
</g>
<!-- Node33 -->
<g id="Node000033" class="node">
<title>Node33</title>
<g id="a_Node000033"><a xlink:href="open__resolved__file__open_8c.html" target="_top" xlink:title=" ">
<polygon fill="white" stroke="#666666" points="4025,-41 3909,-41 3909,0 4025,0 4025,-41"/>
<text text-anchor="start" x="3917" y="-29" font-family="Helvetica,sans-Serif" font-size="10.00">src/protocols/root</text>
<text text-anchor="start" x="3917" y="-18" font-family="Helvetica,sans-Serif" font-size="10.00">/read/open_resolved</text>
<text text-anchor="middle" x="3967" y="-7" font-family="Helvetica,sans-Serif" font-size="10.00">_file_open.c</text>
</a>
</g>
</g>
<!-- Node3&#45;&gt;Node33 -->
<g id="edge32_Node000003_Node000033" class="edge">
<title>Node3&#45;&gt;Node33</title>
<g id="a_edge32_Node000003_Node000033"><a xlink:title=" ">
<path fill="none" stroke="#63b8ff" d="M2276.08,-84.66C2585.24,-81.08 3738.56,-66.17 3900,-41 3902.87,-40.55 3905.8,-40.02 3908.73,-39.41"/>
<polygon fill="#63b8ff" stroke="#63b8ff" points="2275.84,-81.16 2265.88,-84.78 2275.92,-88.16 2275.84,-81.16"/>
</a>
</g>
</g>
<!-- Node34 -->
<g id="Node000034" class="node">
<title>Node34</title>
<g id="a_Node000034"><a xlink:href="open__resolved__file__staging_8c.html" target="_top" xlink:title=" ">
<polygon fill="white" stroke="#666666" points="4159,-41 4043,-41 4043,0 4159,0 4159,-41"/>
<text text-anchor="start" x="4051" y="-29" font-family="Helvetica,sans-Serif" font-size="10.00">src/protocols/root</text>
<text text-anchor="start" x="4051" y="-18" font-family="Helvetica,sans-Serif" font-size="10.00">/read/open_resolved</text>
<text text-anchor="middle" x="4101" y="-7" font-family="Helvetica,sans-Serif" font-size="10.00">_file_staging.c</text>
</a>
</g>
</g>
<!-- Node3&#45;&gt;Node34 -->
<g id="edge33_Node000003_Node000034" class="edge">
<title>Node3&#45;&gt;Node34</title>
<g id="a_edge33_Node000003_Node000034"><a xlink:title=" ">
<path fill="none" stroke="#63b8ff" d="M2275.83,-84.82C2599.73,-81.75 3858.71,-68.16 4034,-41 4036.87,-40.55 4039.8,-40.02 4042.74,-39.42"/>
<polygon fill="#63b8ff" stroke="#63b8ff" points="2275.58,-81.32 2265.61,-84.91 2275.64,-88.32 2275.58,-81.32"/>
</a>
</g>
</g>
<!-- Node35 -->
<g id="Node000035" class="node">
<title>Node35</title>
<g id="a_Node000035"><a xlink:href="put__inner_8c.html" target="_top" xlink:title=" ">
<polygon fill="white" stroke="#666666" points="4289,-35.5 4177,-35.5 4177,-5.5 4289,-5.5 4289,-35.5"/>
<text text-anchor="start" x="4185" y="-23.5" font-family="Helvetica,sans-Serif" font-size="10.00">src/protocols/s3/put</text>
<text text-anchor="middle" x="4233" y="-12.5" font-family="Helvetica,sans-Serif" font-size="10.00">_inner.c</text>
</a>
</g>
</g>
<!-- Node3&#45;&gt;Node35 -->
<g id="edge34_Node000003_Node000035" class="edge">
<title>Node3&#45;&gt;Node35</title>
<g id="a_edge34_Node000003_Node000035"><a xlink:title=" ">
<path fill="none" stroke="#63b8ff" d="M2275.74,-84.99C2614.09,-82.55 3978.98,-70.93 4168,-41 4175.91,-39.75 4184.21,-37.78 4192.12,-35.58"/>
<polygon fill="#63b8ff" stroke="#63b8ff" points="2275.53,-81.49 2265.56,-85.06 2275.58,-88.49 2275.53,-81.49"/>
</a>
</g>
</g>
<!-- Node36 -->
<g id="Node000036" class="node">
<title>Node36</title>
<g id="a_Node000036"><a xlink:href="http__serve__offload_8c.html" target="_top" xlink:title=" ">
<polygon fill="white" stroke="#666666" points="4426.5,-35.5 4307.5,-35.5 4307.5,-5.5 4426.5,-5.5 4426.5,-35.5"/>
<text text-anchor="start" x="4315.5" y="-23.5" font-family="Helvetica,sans-Serif" font-size="10.00">src/protocols/shared</text>
<text text-anchor="middle" x="4367" y="-12.5" font-family="Helvetica,sans-Serif" font-size="10.00">/http_serve_offload.c</text>
</a>
</g>
</g>
<!-- Node3&#45;&gt;Node36 -->
<g id="edge35_Node000003_Node000036" class="edge">
<title>Node3&#45;&gt;Node36</title>
<g id="a_edge35_Node000003_Node000036"><a xlink:title=" ">
<path fill="none" stroke="#63b8ff" d="M2275.78,-85.03C2627.86,-82.71 4095.29,-71.29 4298,-41 4306.37,-39.75 4315.16,-37.79 4323.56,-35.58"/>
<polygon fill="#63b8ff" stroke="#63b8ff" points="2275.67,-81.53 2265.69,-85.1 2275.72,-88.53 2275.67,-81.53"/>
</a>
</g>
</g>
</g>
</svg>
