<?xml version="1.0" encoding="UTF-8" standalone="no"?>
<!DOCTYPE svg PUBLIC "-//W3C//DTD SVG 1.1//EN"
 "http://www.w3.org/Graphics/SVG/1.1/DTD/svg11.dtd">
<!-- Generated by graphviz version 2.43.0 (0)
 -->
<!-- Title: src/core/compat/fattr_codec.h Pages: 1 -->
<svg width="639pt" height="104pt"
 viewBox="0.00 0.00 638.50 104.00" xmlns="http://www.w3.org/2000/svg" xmlns:xlink="http://www.w3.org/1999/xlink">
<g id="graph0" class="graph" transform="scale(1 1) rotate(0) translate(4 100)">
<title>src/core/compat/fattr_codec.h</title>
<!-- Node1 -->
<g id="Node000001" class="node">
<title>Node1</title>
<g id="a_Node000001"><a xlink:title=" ">
<polygon fill="#999999" stroke="#666666" points="382.5,-96 263.5,-96 263.5,-66 382.5,-66 382.5,-96"/>
<text text-anchor="start" x="271.5" y="-84" font-family="Helvetica,sans-Serif" font-size="10.00">src/core/compat/fattr</text>
<text text-anchor="middle" x="323" y="-73" font-family="Helvetica,sans-Serif" font-size="10.00">_codec.h</text>
</a>
</g>
</g>
<!-- Node2 -->
<g id="Node000002" class="node">
<title>Node2</title>
<g id="a_Node000002"><a xlink:href="fattr_8c.html" target="_top" xlink:title=" ">
<polygon fill="white" stroke="#666666" points="102,-24.5 0,-24.5 0,-5.5 102,-5.5 102,-24.5"/>
<text text-anchor="middle" x="51" y="-12.5" font-family="Helvetica,sans-Serif" font-size="10.00">client/lib/fs/fattr.c</text>
</a>
</g>
</g>
<!-- Node1&#45;&gt;Node2 -->
<g id="edge1_Node000001_Node000002" class="edge">
<title>Node1&#45;&gt;Node2</title>
<g id="a_edge1_Node000001_Node000002"><a xlink:title=" ">
<path fill="none" stroke="#63b8ff" d="M253.29,-63.6C200.27,-51.12 129.44,-34.46 87.2,-24.52"/>
<polygon fill="#63b8ff" stroke="#63b8ff" points="252.77,-67.07 263.31,-65.95 254.38,-60.26 252.77,-67.07"/>
</a>
</g>
</g>
<!-- Node3 -->
<g id="Node000003" class="node">
<title>Node3</title>
<g id="a_Node000003"><a xlink:href="fattr__codec_8c.html" target="_top" xlink:title=" ">
<polygon fill="white" stroke="#666666" points="239.5,-30 120.5,-30 120.5,0 239.5,0 239.5,-30"/>
<text text-anchor="start" x="128.5" y="-18" font-family="Helvetica,sans-Serif" font-size="10.00">src/core/compat/fattr</text>
<text text-anchor="middle" x="180" y="-7" font-family="Helvetica,sans-Serif" font-size="10.00">_codec.c</text>
</a>
</g>
</g>
<!-- Node1&#45;&gt;Node3 -->
<g id="edge2_Node000001_Node000003" class="edge">
<title>Node1&#45;&gt;Node3</title>
<g id="a_edge2_Node000001_Node000003"><a xlink:title=" ">
<path fill="none" stroke="#63b8ff" d="M282.3,-61.78C259.75,-51.69 232.16,-39.34 211.31,-30.01"/>
<polygon fill="#63b8ff" stroke="#63b8ff" points="281.06,-65.06 291.62,-65.95 283.92,-58.68 281.06,-65.06"/>
</a>
</g>
</g>
<!-- Node4 -->
<g id="Node000004" class="node">
<title>Node4</title>
<g id="a_Node000004"><a xlink:href="origin__ns_8c.html" target="_top" xlink:title=" ">
<polygon fill="white" stroke="#666666" points="388,-24.5 258,-24.5 258,-5.5 388,-5.5 388,-24.5"/>
<text text-anchor="middle" x="323" y="-12.5" font-family="Helvetica,sans-Serif" font-size="10.00">src/fs/cache/origin_ns.c</text>
</a>
</g>
</g>
<!-- Node1&#45;&gt;Node4 -->
<g id="edge3_Node000001_Node000004" class="edge">
<title>Node1&#45;&gt;Node4</title>
<g id="a_edge3_Node000001_Node000004"><a xlink:title=" ">
<path fill="none" stroke="#63b8ff" d="M323,-55.6C323,-44.8 323,-32.78 323,-24.84"/>
<polygon fill="#63b8ff" stroke="#63b8ff" points="319.5,-55.8 323,-65.8 326.5,-55.8 319.5,-55.8"/>
</a>
</g>
</g>
<!-- Node5 -->
<g id="Node000005" class="node">
<title>Node5</title>
<g id="a_Node000005"><a xlink:href="origin__protocol_8c.html" target="_top" xlink:title=" ">
<polygon fill="white" stroke="#666666" points="511.5,-30 406.5,-30 406.5,0 511.5,0 511.5,-30"/>
<text text-anchor="start" x="414.5" y="-18" font-family="Helvetica,sans-Serif" font-size="10.00">src/fs/cache/origin</text>
<text text-anchor="middle" x="459" y="-7" font-family="Helvetica,sans-Serif" font-size="10.00">_protocol.c</text>
</a>
</g>
</g>
<!-- Node1&#45;&gt;Node5 -->
<g id="edge4_Node000001_Node000005" class="edge">
<title>Node1&#45;&gt;Node5</title>
<g id="a_edge4_Node000001_Node000005"><a xlink:title=" ">
<path fill="none" stroke="#63b8ff" d="M362,-61.65C383.39,-51.58 409.49,-39.3 429.22,-30.01"/>
<polygon fill="#63b8ff" stroke="#63b8ff" points="360.4,-58.53 352.85,-65.95 363.38,-64.86 360.4,-58.53"/>
</a>
</g>
</g>
<!-- Node6 -->
<g id="Node000006" class="node">
<title>Node6</title>
<g id="a_Node000006"><a xlink:href="protocols_2root_2fattr_2helpers_8c.html" target="_top" xlink:title=" ">
<polygon fill="white" stroke="#666666" points="630.5,-30 529.5,-30 529.5,0 630.5,0 630.5,-30"/>
<text text-anchor="start" x="537.5" y="-18" font-family="Helvetica,sans-Serif" font-size="10.00">src/protocols/root</text>
<text text-anchor="middle" x="580" y="-7" font-family="Helvetica,sans-Serif" font-size="10.00">/fattr/helpers.c</text>
</a>
</g>
</g>
<!-- Node1&#45;&gt;Node6 -->
<g id="edge5_Node000001_Node000006" class="edge">
<title>Node1&#45;&gt;Node6</title>
<g id="a_edge5_Node000001_Node000006"><a xlink:title=" ">
<path fill="none" stroke="#63b8ff" d="M389.36,-63.47C433.04,-52.6 489.33,-38.58 529.39,-28.6"/>
<polygon fill="#63b8ff" stroke="#63b8ff" points="388.26,-60.14 379.4,-65.95 389.95,-66.93 388.26,-60.14"/>
</a>
</g>
</g>
</g>
</svg>
