<?xml version="1.0" encoding="UTF-8" standalone="no"?>
<!DOCTYPE svg PUBLIC "-//W3C//DTD SVG 1.1//EN"
 "http://www.w3.org/Graphics/SVG/1.1/DTD/svg11.dtd">
<!-- Generated by graphviz version 2.43.0 (0)
 -->
<!-- Title: src/fs/vfs/fd_cache.c Pages: 1 -->
<svg width="834pt" height="258pt"
 viewBox="0.00 0.00 833.50 258.00" xmlns="http://www.w3.org/2000/svg" xmlns:xlink="http://www.w3.org/1999/xlink">
<g id="graph0" class="graph" transform="scale(1 1) rotate(0) translate(4 254)">
<title>src/fs/vfs/fd_cache.c</title>
<!-- Node1 -->
<g id="Node000001" class="node">
<title>Node1</title>
<g id="a_Node000001"><a xlink:title=" ">
<polygon fill="#999999" stroke="#666666" points="454.5,-250 338.5,-250 338.5,-231 454.5,-231 454.5,-250"/>
<text text-anchor="middle" x="396.5" y="-238" font-family="Helvetica,sans-Serif" font-size="10.00">src/fs/vfs/fd_cache.c</text>
</a>
</g>
</g>
<!-- Node2 -->
<g id="Node000002" class="node">
<title>Node2</title>
<g id="a_Node000002"><a xlink:href="src_2fs_2vfs_2vfs_8h.html" target="_top" xlink:title=" ">
<polygon fill="white" stroke="#666666" points="417,-195 376,-195 376,-176 417,-176 417,-195"/>
<text text-anchor="middle" x="396.5" y="-183" font-family="Helvetica,sans-Serif" font-size="10.00">vfs.h</text>
</a>
</g>
</g>
<!-- Node1&#45;&gt;Node2 -->
<g id="edge1_Node000001_Node000002" class="edge">
<title>Node1&#45;&gt;Node2</title>
<g id="a_edge1_Node000001_Node000002"><a xlink:title=" ">
<path fill="none" stroke="#63b8ff" d="M396.5,-230.75C396.5,-223.8 396.5,-213.85 396.5,-205.13"/>
<polygon fill="#63b8ff" stroke="#63b8ff" points="400,-205.09 396.5,-195.09 393,-205.09 400,-205.09"/>
</a>
</g>
</g>
<!-- Node3 -->
<g id="Node000003" class="node">
<title>Node3</title>
<g id="a_Node000003"><a xlink:title=" ">
<polygon fill="#e0e0e0" stroke="#999999" points="346.5,-74 268.5,-74 268.5,-55 346.5,-55 346.5,-74"/>
<text text-anchor="middle" x="307.5" y="-62" font-family="Helvetica,sans-Serif" font-size="10.00">ngx_config.h</text>
</a>
</g>
</g>
<!-- Node2&#45;&gt;Node3 -->
<g id="edge2_Node000002_Node000003" class="edge">
<title>Node2&#45;&gt;Node3</title>
<g id="a_edge2_Node000002_Node000003"><a xlink:title=" ">
<path fill="none" stroke="#63b8ff" d="M375.88,-181.58C337.94,-175.73 259.48,-161.29 243.5,-140 235.5,-129.34 237.32,-121.82 243.5,-110 250.61,-96.39 263.99,-86.1 276.69,-78.87"/>
<polygon fill="#63b8ff" stroke="#63b8ff" points="278.48,-81.88 285.71,-74.13 275.23,-75.68 278.48,-81.88"/>
</a>
</g>
</g>
<!-- Node4 -->
<g id="Node000004" class="node">
<title>Node4</title>
<g id="a_Node000004"><a xlink:title=" ">
<polygon fill="#e0e0e0" stroke="#999999" points="434.5,-74 364.5,-74 364.5,-55 434.5,-55 434.5,-74"/>
<text text-anchor="middle" x="399.5" y="-62" font-family="Helvetica,sans-Serif" font-size="10.00">ngx_core.h</text>
</a>
</g>
</g>
<!-- Node2&#45;&gt;Node4 -->
<g id="edge3_Node000002_Node000004" class="edge">
<title>Node2&#45;&gt;Node4</title>
<g id="a_edge3_Node000002_Node000004"><a xlink:title=" ">
<path fill="none" stroke="#63b8ff" d="M396.72,-175.94C397.2,-156.91 398.36,-110.69 399.02,-84.47"/>
<polygon fill="#63b8ff" stroke="#63b8ff" points="402.52,-84.39 399.28,-74.3 395.53,-84.21 402.52,-84.39"/>
</a>
</g>
</g>
<!-- Node5 -->
<g id="Node000005" class="node">
<title>Node5</title>
<g id="a_Node000005"><a xlink:href="fs_2path_2unified_8h.html" target="_top" xlink:title=" ">
<polygon fill="white" stroke="#666666" points="520,-134.5 425,-134.5 425,-115.5 520,-115.5 520,-134.5"/>
<text text-anchor="middle" x="472.5" y="-122.5" font-family="Helvetica,sans-Serif" font-size="10.00">fs/path/unified.h</text>
</a>
</g>
</g>
<!-- Node2&#45;&gt;Node5 -->
<g id="edge4_Node000002_Node000005" class="edge">
<title>Node2&#45;&gt;Node5</title>
<g id="a_edge4_Node000002_Node000005"><a xlink:title=" ">
<path fill="none" stroke="#63b8ff" d="M407.71,-175.87C419.61,-166.71 438.64,-152.06 453.01,-141.01"/>
<polygon fill="#63b8ff" stroke="#63b8ff" points="455.45,-143.54 461.24,-134.67 451.18,-137.99 455.45,-143.54"/>
</a>
</g>
</g>
<!-- Node7 -->
<g id="Node000007" class="node">
<title>Node7</title>
<g id="a_Node000007"><a xlink:href="identity_8h.html" target="_top" xlink:title=" ">
<polygon fill="white" stroke="#666666" points="368.5,-134.5 252.5,-134.5 252.5,-115.5 368.5,-115.5 368.5,-134.5"/>
<text text-anchor="middle" x="310.5" y="-122.5" font-family="Helvetica,sans-Serif" font-size="10.00">core/types/identity.h</text>
</a>
</g>
</g>
<!-- Node2&#45;&gt;Node7 -->
<g id="edge8_Node000002_Node000007" class="edge">
<title>Node2&#45;&gt;Node7</title>
<g id="a_edge8_Node000002_Node000007"><a xlink:title=" ">
<path fill="none" stroke="#63b8ff" d="M383.81,-175.87C370.09,-166.54 348,-151.51 331.65,-140.38"/>
<polygon fill="#63b8ff" stroke="#63b8ff" points="333.48,-137.4 323.24,-134.67 329.54,-143.19 333.48,-137.4"/>
</a>
</g>
</g>
<!-- Node11 -->
<g id="Node000011" class="node">
<title>Node11</title>
<g id="a_Node000011"><a xlink:href="observability_2metrics_2unified_8h.html" target="_top" xlink:title=" ">
<polygon fill="white" stroke="#666666" points="196.5,-140 76.5,-140 76.5,-110 196.5,-110 196.5,-140"/>
<text text-anchor="start" x="84.5" y="-128" font-family="Helvetica,sans-Serif" font-size="10.00">observability/metrics</text>
<text text-anchor="middle" x="136.5" y="-117" font-family="Helvetica,sans-Serif" font-size="10.00">/unified.h</text>
</a>
</g>
</g>
<!-- Node2&#45;&gt;Node11 -->
<g id="edge14_Node000002_Node000011" class="edge">
<title>Node2&#45;&gt;Node11</title>
<g id="a_edge14_Node000002_Node000011"><a xlink:title=" ">
<path fill="none" stroke="#63b8ff" d="M375.66,-179.81C339.46,-171.67 263.38,-154.55 206.7,-141.8"/>
<polygon fill="#63b8ff" stroke="#63b8ff" points="207.24,-138.33 196.71,-139.55 205.7,-145.16 207.24,-138.33"/>
</a>
</g>
</g>
<!-- Node13 -->
<g id="Node000013" class="node">
<title>Node13</title>
<g id="a_Node000013"><a xlink:href="sd_8h.html" target="_top" xlink:title=" ">
<polygon fill="white" stroke="#666666" points="630.5,-134.5 538.5,-134.5 538.5,-115.5 630.5,-115.5 630.5,-134.5"/>
<text text-anchor="middle" x="584.5" y="-122.5" font-family="Helvetica,sans-Serif" font-size="10.00">fs/backend/sd.h</text>
</a>
</g>
</g>
<!-- Node2&#45;&gt;Node13 -->
<g id="edge18_Node000002_Node000013" class="edge">
<title>Node2&#45;&gt;Node13</title>
<g id="a_edge18_Node000002_Node000013"><a xlink:title=" ">
<path fill="none" stroke="#63b8ff" d="M417.34,-178.02C448.58,-168.29 508.04,-149.79 546.97,-137.68"/>
<polygon fill="#63b8ff" stroke="#63b8ff" points="548.37,-140.91 556.88,-134.59 546.29,-134.22 548.37,-140.91"/>
</a>
</g>
</g>
<!-- Node18 -->
<g id="Node000018" class="node">
<title>Node18</title>
<g id="a_Node000018"><a xlink:href="vfs__ops_8h.html" target="_top" xlink:title=" ">
<polygon fill="white" stroke="#666666" points="742,-134.5 649,-134.5 649,-115.5 742,-115.5 742,-134.5"/>
<text text-anchor="middle" x="695.5" y="-122.5" font-family="Helvetica,sans-Serif" font-size="10.00">fs/vfs/vfs_ops.h</text>
</a>
</g>
</g>
<!-- Node2&#45;&gt;Node18 -->
<g id="edge26_Node000002_Node000018" class="edge">
<title>Node2&#45;&gt;Node18</title>
<g id="a_edge26_Node000002_Node000018"><a xlink:title=" ">
<path fill="none" stroke="#63b8ff" d="M417.07,-181.19C459.05,-174.33 557.55,-157.73 639.5,-140 643.86,-139.06 648.4,-138.02 652.92,-136.95"/>
<polygon fill="#63b8ff" stroke="#63b8ff" points="653.82,-140.33 662.71,-134.57 652.17,-133.53 653.82,-140.33"/>
</a>
</g>
</g>
<!-- Node5&#45;&gt;Node3 -->
<g id="edge5_Node000005_Node000003" class="edge">
<title>Node5&#45;&gt;Node3</title>
<g id="a_edge5_Node000005_Node000003"><a xlink:title=" ">
<path fill="none" stroke="#63b8ff" d="M448.51,-115.49C420.28,-105.49 373.22,-88.8 341.31,-77.49"/>
<polygon fill="#63b8ff" stroke="#63b8ff" points="342.12,-74.06 331.52,-74.02 339.78,-80.66 342.12,-74.06"/>
</a>
</g>
</g>
<!-- Node5&#45;&gt;Node4 -->
<g id="edge6_Node000005_Node000004" class="edge">
<title>Node5&#45;&gt;Node4</title>
<g id="a_edge6_Node000005_Node000004"><a xlink:title=" ">
<path fill="none" stroke="#63b8ff" d="M461.73,-115.37C450.3,-106.21 432.02,-91.56 418.22,-80.51"/>
<polygon fill="#63b8ff" stroke="#63b8ff" points="420.31,-77.69 410.32,-74.17 415.93,-83.15 420.31,-77.69"/>
</a>
</g>
</g>
<!-- Node6 -->
<g id="Node000006" class="node">
<title>Node6</title>
<g id="a_Node000006"><a xlink:title=" ">
<polygon fill="#e0e0e0" stroke="#999999" points="516.5,-74 452.5,-74 452.5,-55 516.5,-55 516.5,-74"/>
<text text-anchor="middle" x="484.5" y="-62" font-family="Helvetica,sans-Serif" font-size="10.00">sys/stat.h</text>
</a>
</g>
</g>
<!-- Node5&#45;&gt;Node6 -->
<g id="edge7_Node000005_Node000006" class="edge">
<title>Node5&#45;&gt;Node6</title>
<g id="a_edge7_Node000005_Node000006"><a xlink:title=" ">
<path fill="none" stroke="#63b8ff" d="M474.27,-115.37C475.95,-107.16 478.54,-94.54 480.69,-84.05"/>
<polygon fill="#63b8ff" stroke="#63b8ff" points="484.14,-84.67 482.72,-74.17 477.28,-83.26 484.14,-84.67"/>
</a>
</g>
</g>
<!-- Node7&#45;&gt;Node3 -->
<g id="edge9_Node000007_Node000003" class="edge">
<title>Node7&#45;&gt;Node3</title>
<g id="a_edge9_Node000007_Node000003"><a xlink:title=" ">
<path fill="none" stroke="#63b8ff" d="M310.06,-115.37C309.64,-107.25 309,-94.81 308.47,-84.39"/>
<polygon fill="#63b8ff" stroke="#63b8ff" points="311.95,-83.97 307.94,-74.17 304.96,-84.33 311.95,-83.97"/>
</a>
</g>
</g>
<!-- Node7&#45;&gt;Node4 -->
<g id="edge10_Node000007_Node000004" class="edge">
<title>Node7&#45;&gt;Node4</title>
<g id="a_edge10_Node000007_Node000004"><a xlink:title=" ">
<path fill="none" stroke="#63b8ff" d="M323.63,-115.37C337.83,-106.04 360.7,-91.01 377.62,-79.88"/>
<polygon fill="#63b8ff" stroke="#63b8ff" points="379.88,-82.58 386.31,-74.17 376.03,-76.74 379.88,-82.58"/>
</a>
</g>
</g>
<!-- Node8 -->
<g id="Node000008" class="node">
<title>Node8</title>
<g id="a_Node000008"><a xlink:href="token_8h.html" target="_top" xlink:title=" ">
<polygon fill="white" stroke="#666666" points="250,-74 143,-74 143,-55 250,-55 250,-74"/>
<text text-anchor="middle" x="196.5" y="-62" font-family="Helvetica,sans-Serif" font-size="10.00">auth/token/token.h</text>
</a>
</g>
</g>
<!-- Node7&#45;&gt;Node8 -->
<g id="edge11_Node000007_Node000008" class="edge">
<title>Node7&#45;&gt;Node8</title>
<g id="a_edge11_Node000007_Node000008"><a xlink:title=" ">
<path fill="none" stroke="#63b8ff" d="M293.68,-115.37C274.9,-105.73 244.3,-90.03 222.45,-78.81"/>
<polygon fill="#63b8ff" stroke="#63b8ff" points="223.89,-75.62 213.39,-74.17 220.69,-81.85 223.89,-75.62"/>
</a>
</g>
</g>
<!-- Node9 -->
<g id="Node000009" class="node">
<title>Node9</title>
<g id="a_Node000009"><a xlink:title=" ">
<polygon fill="#e0e0e0" stroke="#999999" points="195.5,-19 111.5,-19 111.5,0 195.5,0 195.5,-19"/>
<text text-anchor="middle" x="153.5" y="-7" font-family="Helvetica,sans-Serif" font-size="10.00">openssl/evp.h</text>
</a>
</g>
</g>
<!-- Node8&#45;&gt;Node9 -->
<g id="edge12_Node000008_Node000009" class="edge">
<title>Node8&#45;&gt;Node9</title>
<g id="a_edge12_Node000008_Node000009"><a xlink:title=" ">
<path fill="none" stroke="#63b8ff" d="M189.4,-54.75C183.33,-47.26 174.41,-36.28 166.99,-27.13"/>
<polygon fill="#63b8ff" stroke="#63b8ff" points="169.49,-24.65 160.47,-19.09 164.05,-29.06 169.49,-24.65"/>
</a>
</g>
</g>
<!-- Node10 -->
<g id="Node000010" class="node">
<title>Node10</title>
<g id="a_Node000010"><a xlink:title=" ">
<polygon fill="#e0e0e0" stroke="#999999" points="266,-19 213,-19 213,0 266,0 266,-19"/>
<text text-anchor="middle" x="239.5" y="-7" font-family="Helvetica,sans-Serif" font-size="10.00">limits.h</text>
</a>
</g>
</g>
<!-- Node8&#45;&gt;Node10 -->
<g id="edge13_Node000008_Node000010" class="edge">
<title>Node8&#45;&gt;Node10</title>
<g id="a_edge13_Node000008_Node000010"><a xlink:title=" ">
<path fill="none" stroke="#63b8ff" d="M203.6,-54.75C209.67,-47.26 218.59,-36.28 226.01,-27.13"/>
<polygon fill="#63b8ff" stroke="#63b8ff" points="228.95,-29.06 232.53,-19.09 223.51,-24.65 228.95,-29.06"/>
</a>
</g>
</g>
<!-- Node11&#45;&gt;Node3 -->
<g id="edge15_Node000011_Node000003" class="edge">
<title>Node11&#45;&gt;Node3</title>
<g id="a_edge15_Node000011_Node000003"><a xlink:title=" ">
<path fill="none" stroke="#63b8ff" d="M177.46,-109.99C206.5,-100.05 245.05,-86.86 272.62,-77.43"/>
<polygon fill="#63b8ff" stroke="#63b8ff" points="273.92,-80.69 282.25,-74.14 271.65,-74.06 273.92,-80.69"/>
</a>
</g>
</g>
<!-- Node11&#45;&gt;Node4 -->
<g id="edge16_Node000011_Node000004" class="edge">
<title>Node11&#45;&gt;Node4</title>
<g id="a_edge16_Node000011_Node000004"><a xlink:title=" ">
<path fill="none" stroke="#63b8ff" d="M196.51,-110.65C244.51,-99.98 310.77,-85.24 354.35,-75.54"/>
<polygon fill="#63b8ff" stroke="#63b8ff" points="355.37,-78.9 364.37,-73.31 353.85,-72.07 355.37,-78.9"/>
</a>
</g>
</g>
<!-- Node12 -->
<g id="Node000012" class="node">
<title>Node12</title>
<g id="a_Node000012"><a xlink:href="proto__list_8h.html" target="_top" xlink:title=" ">
<polygon fill="white" stroke="#666666" points="125,-74 0,-74 0,-55 125,-55 125,-74"/>
<text text-anchor="middle" x="62.5" y="-62" font-family="Helvetica,sans-Serif" font-size="10.00">core/types/proto_list.h</text>
</a>
</g>
</g>
<!-- Node11&#45;&gt;Node12 -->
<g id="edge17_Node000011_Node000012" class="edge">
<title>Node11&#45;&gt;Node12</title>
<g id="a_edge17_Node000011_Node000012"><a xlink:title=" ">
<path fill="none" stroke="#63b8ff" d="M118.59,-109.84C107.41,-101 93.02,-89.63 81.62,-80.62"/>
<polygon fill="#63b8ff" stroke="#63b8ff" points="83.6,-77.72 73.59,-74.27 79.26,-83.21 83.6,-77.72"/>
</a>
</g>
</g>
<!-- Node13&#45;&gt;Node3 -->
<g id="edge19_Node000013_Node000003" class="edge">
<title>Node13&#45;&gt;Node3</title>
<g id="a_edge19_Node000013_Node000003"><a xlink:title=" ">
<path fill="none" stroke="#63b8ff" d="M551.4,-115.45C543.88,-113.59 535.93,-111.68 528.5,-110 469.7,-96.74 401.67,-83.33 356.79,-74.75"/>
<polygon fill="#63b8ff" stroke="#63b8ff" points="357.22,-71.27 346.74,-72.83 355.91,-78.14 357.22,-71.27"/>
</a>
</g>
</g>
<!-- Node13&#45;&gt;Node4 -->
<g id="edge20_Node000013_Node000004" class="edge">
<title>Node13&#45;&gt;Node4</title>
<g id="a_edge20_Node000013_Node000004"><a xlink:title=" ">
<path fill="none" stroke="#63b8ff" d="M557.6,-115.49C525.54,-105.36 471.82,-88.37 436.02,-77.05"/>
<polygon fill="#63b8ff" stroke="#63b8ff" points="437.02,-73.69 426.43,-74.02 434.91,-80.37 437.02,-73.69"/>
</a>
</g>
</g>
<!-- Node13&#45;&gt;Node6 -->
<g id="edge23_Node000013_Node000006" class="edge">
<title>Node13&#45;&gt;Node6</title>
<g id="a_edge23_Node000013_Node000006"><a xlink:title=" ">
<path fill="none" stroke="#63b8ff" d="M569.74,-115.37C553.5,-105.86 527.15,-90.45 508.04,-79.27"/>
<polygon fill="#63b8ff" stroke="#63b8ff" points="509.71,-76.2 499.32,-74.17 506.18,-82.24 509.71,-76.2"/>
</a>
</g>
</g>
<!-- Node14 -->
<g id="Node000014" class="node">
<title>Node14</title>
<g id="a_Node000014"><a xlink:title=" ">
<polygon fill="#e0e0e0" stroke="#999999" points="666,-74 613,-74 613,-55 666,-55 666,-74"/>
<text text-anchor="middle" x="639.5" y="-62" font-family="Helvetica,sans-Serif" font-size="10.00">stdint.h</text>
</a>
</g>
</g>
<!-- Node13&#45;&gt;Node14 -->
<g id="edge21_Node000013_Node000014" class="edge">
<title>Node13&#45;&gt;Node14</title>
<g id="a_edge21_Node000013_Node000014"><a xlink:title=" ">
<path fill="none" stroke="#63b8ff" d="M592.62,-115.37C600.9,-106.55 613.97,-92.66 624.2,-81.77"/>
<polygon fill="#63b8ff" stroke="#63b8ff" points="627.05,-83.85 631.35,-74.17 621.95,-79.06 627.05,-83.85"/>
</a>
</g>
</g>
<!-- Node15 -->
<g id="Node000015" class="node">
<title>Node15</title>
<g id="a_Node000015"><a xlink:title=" ">
<polygon fill="#e0e0e0" stroke="#999999" points="735,-74 684,-74 684,-55 735,-55 735,-74"/>
<text text-anchor="middle" x="709.5" y="-62" font-family="Helvetica,sans-Serif" font-size="10.00">errno.h</text>
</a>
</g>
</g>
<!-- Node13&#45;&gt;Node15 -->
<g id="edge22_Node000013_Node000015" class="edge">
<title>Node13&#45;&gt;Node15</title>
<g id="a_edge22_Node000013_Node000015"><a xlink:title=" ">
<path fill="none" stroke="#63b8ff" d="M602.68,-115.49C623.51,-105.75 657.87,-89.66 681.98,-78.38"/>
<polygon fill="#63b8ff" stroke="#63b8ff" points="683.73,-81.43 691.3,-74.02 680.76,-75.09 683.73,-81.43"/>
</a>
</g>
</g>
<!-- Node16 -->
<g id="Node000016" class="node">
<title>Node16</title>
<g id="a_Node000016"><a xlink:title=" ">
<polygon fill="#e0e0e0" stroke="#999999" points="825.5,-74 753.5,-74 753.5,-55 825.5,-55 825.5,-74"/>
<text text-anchor="middle" x="789.5" y="-62" font-family="Helvetica,sans-Serif" font-size="10.00">sys/types.h</text>
</a>
</g>
</g>
<!-- Node13&#45;&gt;Node16 -->
<g id="edge24_Node000013_Node000016" class="edge">
<title>Node13&#45;&gt;Node16</title>
<g id="a_edge24_Node000013_Node000016"><a xlink:title=" ">
<path fill="none" stroke="#63b8ff" d="M614.31,-115.49C650.06,-105.29 710.13,-88.15 749.79,-76.83"/>
<polygon fill="#63b8ff" stroke="#63b8ff" points="751,-80.13 759.66,-74.02 749.08,-73.4 751,-80.13"/>
</a>
</g>
</g>
<!-- Node17 -->
<g id="Node000017" class="node">
<title>Node17</title>
<g id="a_Node000017"><a xlink:title=" ">
<polygon fill="#e0e0e0" stroke="#999999" points="594.5,-74 534.5,-74 534.5,-55 594.5,-55 594.5,-74"/>
<text text-anchor="middle" x="564.5" y="-62" font-family="Helvetica,sans-Serif" font-size="10.00">sys/uio.h</text>
</a>
</g>
</g>
<!-- Node13&#45;&gt;Node17 -->
<g id="edge25_Node000013_Node000017" class="edge">
<title>Node13&#45;&gt;Node17</title>
<g id="a_edge25_Node000013_Node000017"><a xlink:title=" ">
<path fill="none" stroke="#63b8ff" d="M581.55,-115.37C578.71,-107.07 574.34,-94.28 570.73,-83.72"/>
<polygon fill="#63b8ff" stroke="#63b8ff" points="574.01,-82.5 567.46,-74.17 567.39,-84.76 574.01,-82.5"/>
</a>
</g>
</g>
</g>
</svg>
