<?xml version="1.0" encoding="UTF-8" standalone="no"?>
<!DOCTYPE svg PUBLIC "-//W3C//DTD SVG 1.1//EN"
 "http://www.w3.org/Graphics/SVG/1.1/DTD/svg11.dtd">
<!-- Generated by graphviz version 2.43.0 (0)
 -->
<!-- Title: src/protocols/shared/file_serve.h Pages: 1 -->
<svg width="692pt" height="170pt"
 viewBox="0.00 0.00 692.00 170.00" xmlns="http://www.w3.org/2000/svg" xmlns:xlink="http://www.w3.org/1999/xlink">
<g id="graph0" class="graph" transform="scale(1 1) rotate(0) translate(4 166)">
<title>src/protocols/shared/file_serve.h</title>
<!-- Node1 -->
<g id="Node000001" class="node">
<title>Node1</title>
<g id="a_Node000001"><a xlink:title=" ">
<polygon fill="#999999" stroke="#666666" points="399.5,-162 284.5,-162 284.5,-132 399.5,-132 399.5,-162"/>
<text text-anchor="start" x="292.5" y="-150" font-family="Helvetica,sans-Serif" font-size="10.00">src/protocols/shared</text>
<text text-anchor="middle" x="342" y="-139" font-family="Helvetica,sans-Serif" font-size="10.00">/file_serve.h</text>
</a>
</g>
</g>
<!-- Node2 -->
<g id="Node000002" class="node">
<title>Node2</title>
<g id="a_Node000002"><a xlink:href="vfs__browse_8c.html" target="_top" xlink:title=" ">
<polygon fill="white" stroke="#666666" points="188,-96 36,-96 36,-66 188,-66 188,-96"/>
<text text-anchor="start" x="44" y="-84" font-family="Helvetica,sans-Serif" font-size="10.00">src/observability/dashboard</text>
<text text-anchor="middle" x="112" y="-73" font-family="Helvetica,sans-Serif" font-size="10.00">/vfs_browse.c</text>
</a>
</g>
</g>
<!-- Node1&#45;&gt;Node2 -->
<g id="edge1_Node000001_Node000002" class="edge">
<title>Node1&#45;&gt;Node2</title>
<g id="a_edge1_Node000001_Node000002"><a xlink:title=" ">
<path fill="none" stroke="#63b8ff" d="M281.82,-129.25C244.66,-118.91 197.53,-105.8 162.36,-96.01"/>
<polygon fill="#63b8ff" stroke="#63b8ff" points="280.95,-132.65 291.53,-131.95 282.83,-125.9 280.95,-132.65"/>
</a>
</g>
</g>
<!-- Node3 -->
<g id="Node000003" class="node">
<title>Node3</title>
<g id="a_Node000003"><a xlink:href="protocols_2cvmfs_2handler_8c.html" target="_top" xlink:title=" ">
<polygon fill="white" stroke="#666666" points="112,-30 0,-30 0,0 112,0 112,-30"/>
<text text-anchor="start" x="8" y="-18" font-family="Helvetica,sans-Serif" font-size="10.00">src/protocols/cvmfs</text>
<text text-anchor="middle" x="56" y="-7" font-family="Helvetica,sans-Serif" font-size="10.00">/handler.c</text>
</a>
</g>
</g>
<!-- Node1&#45;&gt;Node3 -->
<g id="edge2_Node000001_Node000003" class="edge">
<title>Node1&#45;&gt;Node3</title>
<g id="a_edge2_Node000001_Node000003"><a xlink:title=" ">
<path fill="none" stroke="#63b8ff" d="M299.95,-127.55C280.95,-118.71 258.44,-107.55 239,-96 219.28,-84.28 217.34,-76.6 197,-66 168.21,-50.99 133.92,-38.72 106.36,-30.09"/>
<polygon fill="#63b8ff" stroke="#63b8ff" points="298.71,-130.83 309.26,-131.82 301.63,-124.46 298.71,-130.83"/>
</a>
</g>
</g>
<!-- Node4 -->
<g id="Node000004" class="node">
<title>Node4</title>
<g id="a_Node000004"><a xlink:href="object_8c.html" target="_top" xlink:title=" ">
<polygon fill="white" stroke="#666666" points="264,-24.5 130,-24.5 130,-5.5 264,-5.5 264,-24.5"/>
<text text-anchor="middle" x="197" y="-12.5" font-family="Helvetica,sans-Serif" font-size="10.00">src/protocols/s3/object.c</text>
</a>
</g>
</g>
<!-- Node1&#45;&gt;Node4 -->
<g id="edge3_Node000001_Node000004" class="edge">
<title>Node1&#45;&gt;Node4</title>
<g id="a_edge3_Node000001_Node000004"><a xlink:title=" ">
<path fill="none" stroke="#63b8ff" d="M312.11,-126.15C299.62,-117.4 285.21,-106.69 273,-96 245.9,-72.28 217.62,-40.25 204.5,-24.91"/>
<polygon fill="#63b8ff" stroke="#63b8ff" points="310.18,-129.07 320.4,-131.87 314.16,-123.3 310.18,-129.07"/>
</a>
</g>
</g>
<!-- Node5 -->
<g id="Node000005" class="node">
<title>Node5</title>
<g id="a_Node000005"><a xlink:href="object__meta_8c.html" target="_top" xlink:title=" ">
<polygon fill="white" stroke="#666666" points="546,-30 420,-30 420,0 546,0 546,-30"/>
<text text-anchor="start" x="428" y="-18" font-family="Helvetica,sans-Serif" font-size="10.00">src/protocols/s3/object</text>
<text text-anchor="middle" x="483" y="-7" font-family="Helvetica,sans-Serif" font-size="10.00">_meta.c</text>
</a>
</g>
</g>
<!-- Node1&#45;&gt;Node5 -->
<g id="edge4_Node000001_Node000005" class="edge">
<title>Node1&#45;&gt;Node5</title>
<g id="a_edge4_Node000001_Node000005"><a xlink:title=" ">
<path fill="none" stroke="#63b8ff" d="M371.89,-125.95C384.13,-117.26 398.17,-106.65 410,-96 433.62,-74.75 457.87,-46.69 471.62,-30.08"/>
<polygon fill="#63b8ff" stroke="#63b8ff" points="369.55,-123.32 363.36,-131.92 373.56,-129.06 369.55,-123.32"/>
</a>
</g>
</g>
<!-- Node6 -->
<g id="Node000006" class="node">
<title>Node6</title>
<g id="a_Node000006"><a xlink:href="file__serve_8c.html" target="_top" xlink:title=" ">
<polygon fill="white" stroke="#666666" points="611.5,-96 496.5,-96 496.5,-66 611.5,-66 611.5,-96"/>
<text text-anchor="start" x="504.5" y="-84" font-family="Helvetica,sans-Serif" font-size="10.00">src/protocols/shared</text>
<text text-anchor="middle" x="554" y="-73" font-family="Helvetica,sans-Serif" font-size="10.00">/file_serve.c</text>
</a>
</g>
</g>
<!-- Node1&#45;&gt;Node6 -->
<g id="edge5_Node000001_Node000006" class="edge">
<title>Node1&#45;&gt;Node6</title>
<g id="a_edge5_Node000001_Node000006"><a xlink:title=" ">
<path fill="none" stroke="#63b8ff" d="M398.35,-128.99C432.46,-118.69 475.44,-105.72 507.58,-96.01"/>
<polygon fill="#63b8ff" stroke="#63b8ff" points="397.09,-125.71 388.52,-131.95 399.11,-132.42 397.09,-125.71"/>
</a>
</g>
</g>
<!-- Node7 -->
<g id="Node000007" class="node">
<title>Node7</title>
<g id="a_Node000007"><a xlink:href="http__serve__offload_8h.html" target="_top" xlink:title=" ">
<polygon fill="white" stroke="#666666" points="401.5,-96 282.5,-96 282.5,-66 401.5,-66 401.5,-96"/>
<text text-anchor="start" x="290.5" y="-84" font-family="Helvetica,sans-Serif" font-size="10.00">src/protocols/shared</text>
<text text-anchor="middle" x="342" y="-73" font-family="Helvetica,sans-Serif" font-size="10.00">/http_serve_offload.h</text>
</a>
</g>
</g>
<!-- Node1&#45;&gt;Node7 -->
<g id="edge6_Node000001_Node000007" class="edge">
<title>Node1&#45;&gt;Node7</title>
<g id="a_edge6_Node000001_Node000007"><a xlink:title=" ">
<path fill="none" stroke="#63b8ff" d="M342,-121.54C342,-112.96 342,-103.61 342,-96.16"/>
<polygon fill="#63b8ff" stroke="#63b8ff" points="338.5,-121.8 342,-131.8 345.5,-121.8 338.5,-121.8"/>
</a>
</g>
</g>
<!-- Node9 -->
<g id="Node000009" class="node">
<title>Node9</title>
<g id="a_Node000009"><a xlink:href="webdav_2get_8c.html" target="_top" xlink:title=" ">
<polygon fill="white" stroke="#666666" points="684,-30 564,-30 564,0 684,0 684,-30"/>
<text text-anchor="start" x="572" y="-18" font-family="Helvetica,sans-Serif" font-size="10.00">src/protocols/webdav</text>
<text text-anchor="middle" x="624" y="-7" font-family="Helvetica,sans-Serif" font-size="10.00">/get.c</text>
</a>
</g>
</g>
<!-- Node1&#45;&gt;Node9 -->
<g id="edge12_Node000001_Node000009" class="edge">
<title>Node1&#45;&gt;Node9</title>
<g id="a_edge12_Node000001_Node000009"><a xlink:title=" ">
<path fill="none" stroke="#63b8ff" d="M379.81,-127.32C397.89,-118.19 419.74,-106.84 439,-96 461.25,-83.48 465.02,-77.13 488,-66 517.44,-51.75 552.05,-39.08 578.99,-30.06"/>
<polygon fill="#63b8ff" stroke="#63b8ff" points="378.09,-124.27 370.73,-131.89 381.24,-130.52 378.09,-124.27"/>
</a>
</g>
</g>
<!-- Node7&#45;&gt;Node3 -->
<g id="edge7_Node000007_Node000003" class="edge">
<title>Node7&#45;&gt;Node3</title>
<g id="a_edge7_Node000007_Node000003"><a xlink:title=" ">
<path fill="none" stroke="#63b8ff" d="M272.46,-64.44C223.23,-53.42 158.05,-38.84 112.13,-28.56"/>
<polygon fill="#63b8ff" stroke="#63b8ff" points="271.87,-67.89 282.39,-66.66 273.4,-61.06 271.87,-67.89"/>
</a>
</g>
</g>
<!-- Node7&#45;&gt;Node4 -->
<g id="edge8_Node000007_Node000004" class="edge">
<title>Node7&#45;&gt;Node4</title>
<g id="a_edge8_Node000007_Node000004"><a xlink:title=" ">
<path fill="none" stroke="#63b8ff" d="M300.72,-61.78C273,-49.54 237.74,-33.98 216.3,-24.52"/>
<polygon fill="#63b8ff" stroke="#63b8ff" points="299.62,-65.12 310.18,-65.95 302.44,-58.71 299.62,-65.12"/>
</a>
</g>
</g>
<!-- Node7&#45;&gt;Node5 -->
<g id="edge9_Node000007_Node000005" class="edge">
<title>Node7&#45;&gt;Node5</title>
<g id="a_edge9_Node000007_Node000005"><a xlink:title=" ">
<path fill="none" stroke="#63b8ff" d="M382.13,-61.78C404.36,-51.69 431.57,-39.34 452.13,-30.01"/>
<polygon fill="#63b8ff" stroke="#63b8ff" points="380.6,-58.63 372.94,-65.95 383.5,-65.01 380.6,-58.63"/>
</a>
</g>
</g>
<!-- Node8 -->
<g id="Node000008" class="node">
<title>Node8</title>
<g id="a_Node000008"><a xlink:href="http__serve__offload_8c.html" target="_top" xlink:title=" ">
<polygon fill="white" stroke="#666666" points="401.5,-30 282.5,-30 282.5,0 401.5,0 401.5,-30"/>
<text text-anchor="start" x="290.5" y="-18" font-family="Helvetica,sans-Serif" font-size="10.00">src/protocols/shared</text>
<text text-anchor="middle" x="342" y="-7" font-family="Helvetica,sans-Serif" font-size="10.00">/http_serve_offload.c</text>
</a>
</g>
</g>
<!-- Node7&#45;&gt;Node8 -->
<g id="edge10_Node000007_Node000008" class="edge">
<title>Node7&#45;&gt;Node8</title>
<g id="a_edge10_Node000007_Node000008"><a xlink:title=" ">
<path fill="none" stroke="#63b8ff" d="M342,-55.54C342,-46.96 342,-37.61 342,-30.16"/>
<polygon fill="#63b8ff" stroke="#63b8ff" points="338.5,-55.8 342,-65.8 345.5,-55.8 338.5,-55.8"/>
</a>
</g>
</g>
<!-- Node7&#45;&gt;Node9 -->
<g id="edge11_Node000007_Node000009" class="edge">
<title>Node7&#45;&gt;Node9</title>
<g id="a_edge11_Node000007_Node000009"><a xlink:title=" ">
<path fill="none" stroke="#63b8ff" d="M411.84,-64.15C458.5,-53.56 519.26,-39.77 563.8,-29.66"/>
<polygon fill="#63b8ff" stroke="#63b8ff" points="410.78,-60.8 401.8,-66.43 412.33,-67.63 410.78,-60.8"/>
</a>
</g>
</g>
</g>
</svg>
