<?xml version="1.0" encoding="UTF-8" standalone="no"?>
<!DOCTYPE svg PUBLIC "-//W3C//DTD SVG 1.1//EN"
 "http://www.w3.org/Graphics/SVG/1.1/DTD/svg11.dtd">
<!-- Generated by graphviz version 2.43.0 (0)
 -->
<!-- Title: src/core/fnv.h Pages: 1 -->
<svg width="2047pt" height="93pt"
 viewBox="0.00 0.00 2047.00 93.00" xmlns="http://www.w3.org/2000/svg" xmlns:xlink="http://www.w3.org/1999/xlink">
<g id="graph0" class="graph" transform="scale(1 1) rotate(0) translate(4 89)">
<title>src/core/fnv.h</title>
<!-- Node1 -->
<g id="Node000001" class="node">
<title>Node1</title>
<g id="a_Node000001"><a xlink:title=" ">
<polygon fill="#999999" stroke="#666666" points="1038,-85 956,-85 956,-66 1038,-66 1038,-85"/>
<text text-anchor="middle" x="997" y="-73" font-family="Helvetica,sans-Serif" font-size="10.00">src/core/fnv.h</text>
</a>
</g>
</g>
<!-- Node2 -->
<g id="Node000002" class="node">
<title>Node2</title>
<g id="a_Node000002"><a xlink:href="negcache_8c.html" target="_top" xlink:title=" ">
<polygon fill="white" stroke="#666666" points="162,-24.5 0,-24.5 0,-5.5 162,-5.5 162,-24.5"/>
<text text-anchor="middle" x="81" y="-12.5" font-family="Helvetica,sans-Serif" font-size="10.00">src/core/negcache/negcache.c</text>
</a>
</g>
</g>
<!-- Node1&#45;&gt;Node2 -->
<g id="edge1_Node000001_Node000002" class="edge">
<title>Node1&#45;&gt;Node2</title>
<g id="a_edge1_Node000001_Node000002"><a xlink:title=" ">
<path fill="none" stroke="#63b8ff" d="M945.56,-73.52C815.49,-70.67 463.04,-60.5 171,-30 157.63,-28.6 143.22,-26.59 129.93,-24.53"/>
<polygon fill="#63b8ff" stroke="#63b8ff" points="945.56,-77.03 955.63,-73.74 945.71,-70.03 945.56,-77.03"/>
</a>
</g>
</g>
<!-- Node3 -->
<g id="Node000003" class="node">
<title>Node3</title>
<g id="a_Node000003"><a xlink:href="kv_8c.html" target="_top" xlink:title=" ">
<polygon fill="white" stroke="#666666" points="281.5,-24.5 180.5,-24.5 180.5,-5.5 281.5,-5.5 281.5,-24.5"/>
<text text-anchor="middle" x="231" y="-12.5" font-family="Helvetica,sans-Serif" font-size="10.00">src/core/shm/kv.c</text>
</a>
</g>
</g>
<!-- Node1&#45;&gt;Node3 -->
<g id="edge2_Node000001_Node000003" class="edge">
<title>Node1&#45;&gt;Node3</title>
<g id="a_edge2_Node000001_Node000003"><a xlink:title=" ">
<path fill="none" stroke="#63b8ff" d="M945.68,-74.18C828.84,-72.82 534.26,-65.79 291,-30 281.9,-28.66 272.14,-26.64 263.2,-24.55"/>
<polygon fill="#63b8ff" stroke="#63b8ff" points="945.73,-77.68 955.77,-74.29 945.81,-70.68 945.73,-77.68"/>
</a>
</g>
</g>
<!-- Node4 -->
<g id="Node000004" class="node">
<title>Node4</title>
<g id="a_Node000004"><a xlink:href="sd__cache__fill_8c.html" target="_top" xlink:title=" ">
<polygon fill="white" stroke="#666666" points="418,-30 300,-30 300,0 418,0 418,-30"/>
<text text-anchor="start" x="308" y="-18" font-family="Helvetica,sans-Serif" font-size="10.00">src/fs/backend/cache</text>
<text text-anchor="middle" x="359" y="-7" font-family="Helvetica,sans-Serif" font-size="10.00">/sd_cache_fill.c</text>
</a>
</g>
</g>
<!-- Node1&#45;&gt;Node4 -->
<g id="edge3_Node000001_Node000004" class="edge">
<title>Node1&#45;&gt;Node4</title>
<g id="a_edge3_Node000001_Node000004"><a xlink:title=" ">
<path fill="none" stroke="#63b8ff" d="M945.52,-72.64C845.29,-68.54 617.08,-56.88 427,-30 424.14,-29.59 421.21,-29.14 418.26,-28.66"/>
<polygon fill="#63b8ff" stroke="#63b8ff" points="945.55,-76.14 955.68,-73.05 945.83,-69.15 945.55,-76.14"/>
</a>
</g>
</g>
<!-- Node5 -->
<g id="Node000005" class="node">
<title>Node5</title>
<g id="a_Node000005"><a xlink:href="sd__cache__fill__verify_8c.html" target="_top" xlink:title=" ">
<polygon fill="white" stroke="#666666" points="558,-30 436,-30 436,0 558,0 558,-30"/>
<text text-anchor="start" x="444" y="-18" font-family="Helvetica,sans-Serif" font-size="10.00">src/fs/backend/cache</text>
<text text-anchor="middle" x="497" y="-7" font-family="Helvetica,sans-Serif" font-size="10.00">/sd_cache_fill_verify.c</text>
</a>
</g>
</g>
<!-- Node1&#45;&gt;Node5 -->
<g id="edge4_Node000001_Node000005" class="edge">
<title>Node1&#45;&gt;Node5</title>
<g id="a_edge4_Node000001_Node000005"><a xlink:title=" ">
<path fill="none" stroke="#63b8ff" d="M945.53,-70.75C864.66,-64.51 703,-50.59 567,-30 564.06,-29.55 561.05,-29.07 558.02,-28.56"/>
<polygon fill="#63b8ff" stroke="#63b8ff" points="945.69,-74.27 955.93,-71.55 946.22,-67.29 945.69,-74.27"/>
</a>
</g>
</g>
<!-- Node6 -->
<g id="Node000006" class="node">
<title>Node6</title>
<g id="a_Node000006"><a xlink:href="reqid__map_8c.html" target="_top" xlink:title=" ">
<polygon fill="white" stroke="#666666" points="712,-24.5 576,-24.5 576,-5.5 712,-5.5 712,-24.5"/>
<text text-anchor="middle" x="644" y="-12.5" font-family="Helvetica,sans-Serif" font-size="10.00">src/net/cms/reqid_map.c</text>
</a>
</g>
</g>
<!-- Node1&#45;&gt;Node6 -->
<g id="edge5_Node000001_Node000006" class="edge">
<title>Node1&#45;&gt;Node6</title>
<g id="a_edge5_Node000001_Node000006"><a xlink:title=" ">
<path fill="none" stroke="#63b8ff" d="M945.88,-66.57C890.44,-57.9 799.36,-43.44 721,-30 710.96,-28.28 700.19,-26.36 689.98,-24.52"/>
<polygon fill="#63b8ff" stroke="#63b8ff" points="945.39,-70.04 955.81,-68.12 946.47,-63.12 945.39,-70.04"/>
</a>
</g>
</g>
<!-- Node7 -->
<g id="Node000007" class="node">
<title>Node7</title>
<g id="a_Node000007"><a xlink:href="loc__cache_8c.html" target="_top" xlink:title=" ">
<polygon fill="white" stroke="#666666" points="843.5,-30 730.5,-30 730.5,0 843.5,0 843.5,-30"/>
<text text-anchor="start" x="738.5" y="-18" font-family="Helvetica,sans-Serif" font-size="10.00">src/net/manager/loc</text>
<text text-anchor="middle" x="787" y="-7" font-family="Helvetica,sans-Serif" font-size="10.00">_cache.c</text>
</a>
</g>
</g>
<!-- Node1&#45;&gt;Node7 -->
<g id="edge6_Node000001_Node000007" class="edge">
<title>Node1&#45;&gt;Node7</title>
<g id="a_edge6_Node000001_Node000007"><a xlink:title=" ">
<path fill="none" stroke="#63b8ff" d="M956.43,-63.2C922.5,-53.75 873.93,-40.22 837.49,-30.06"/>
<polygon fill="#63b8ff" stroke="#63b8ff" points="955.89,-66.68 966.46,-65.99 957.77,-59.94 955.89,-66.68"/>
</a>
</g>
</g>
<!-- Node8 -->
<g id="Node000008" class="node">
<title>Node8</title>
<g id="a_Node000008"><a xlink:href="redir__cache_8c.html" target="_top" xlink:title=" ">
<polygon fill="white" stroke="#666666" points="984,-30 862,-30 862,0 984,0 984,-30"/>
<text text-anchor="start" x="870" y="-18" font-family="Helvetica,sans-Serif" font-size="10.00">src/net/manager/redir</text>
<text text-anchor="middle" x="923" y="-7" font-family="Helvetica,sans-Serif" font-size="10.00">_cache.c</text>
</a>
</g>
</g>
<!-- Node1&#45;&gt;Node8 -->
<g id="edge7_Node000001_Node000008" class="edge">
<title>Node1&#45;&gt;Node8</title>
<g id="a_edge7_Node000001_Node000008"><a xlink:title=" ">
<path fill="none" stroke="#63b8ff" d="M978.03,-59.5C966.58,-50.45 952.09,-39 940.85,-30.11"/>
<polygon fill="#63b8ff" stroke="#63b8ff" points="976.07,-62.41 986.08,-65.87 980.41,-56.92 976.07,-62.41"/>
</a>
</g>
</g>
<!-- Node9 -->
<g id="Node000009" class="node">
<title>Node9</title>
<g id="a_Node000009"><a xlink:href="registry__select_8c.html" target="_top" xlink:title=" ">
<polygon fill="white" stroke="#666666" points="1139.5,-30 1002.5,-30 1002.5,0 1139.5,0 1139.5,-30"/>
<text text-anchor="start" x="1010.5" y="-18" font-family="Helvetica,sans-Serif" font-size="10.00">src/net/manager/registry</text>
<text text-anchor="middle" x="1071" y="-7" font-family="Helvetica,sans-Serif" font-size="10.00">_select.c</text>
</a>
</g>
</g>
<!-- Node1&#45;&gt;Node9 -->
<g id="edge8_Node000001_Node000009" class="edge">
<title>Node1&#45;&gt;Node9</title>
<g id="a_edge8_Node000001_Node000009"><a xlink:title=" ">
<path fill="none" stroke="#63b8ff" d="M1015.97,-59.5C1027.42,-50.45 1041.91,-39 1053.15,-30.11"/>
<polygon fill="#63b8ff" stroke="#63b8ff" points="1013.59,-56.92 1007.92,-65.87 1017.93,-62.41 1013.59,-56.92"/>
</a>
</g>
</g>
<!-- Node10 -->
<g id="Node000010" class="node">
<title>Node10</title>
<g id="a_Node000010"><a xlink:href="ratelimit__zone_8c.html" target="_top" xlink:title=" ">
<polygon fill="white" stroke="#666666" points="1298,-30 1158,-30 1158,0 1298,0 1298,-30"/>
<text text-anchor="start" x="1166" y="-18" font-family="Helvetica,sans-Serif" font-size="10.00">src/net/ratelimit/ratelimit</text>
<text text-anchor="middle" x="1228" y="-7" font-family="Helvetica,sans-Serif" font-size="10.00">_zone.c</text>
</a>
</g>
</g>
<!-- Node1&#45;&gt;Node10 -->
<g id="edge9_Node000001_Node000010" class="edge">
<title>Node1&#45;&gt;Node10</title>
<g id="a_edge9_Node000001_Node000010"><a xlink:title=" ">
<path fill="none" stroke="#63b8ff" d="M1040.66,-63.44C1078.03,-53.98 1132.03,-40.3 1172.46,-30.06"/>
<polygon fill="#63b8ff" stroke="#63b8ff" points="1039.42,-60.15 1030.59,-65.99 1041.14,-66.93 1039.42,-60.15"/>
</a>
</g>
</g>
<!-- Node11 -->
<g id="Node000011" class="node">
<title>Node11</title>
<g id="a_Node000011"><a xlink:href="api_8c.html" target="_top" xlink:title=" ">
<polygon fill="white" stroke="#666666" points="1468,-30 1316,-30 1316,0 1468,0 1468,-30"/>
<text text-anchor="start" x="1324" y="-18" font-family="Helvetica,sans-Serif" font-size="10.00">src/observability/dashboard</text>
<text text-anchor="middle" x="1392" y="-7" font-family="Helvetica,sans-Serif" font-size="10.00">/api.c</text>
</a>
</g>
</g>
<!-- Node1&#45;&gt;Node11 -->
<g id="edge10_Node000001_Node000011" class="edge">
<title>Node1&#45;&gt;Node11</title>
<g id="a_edge10_Node000001_Node000011"><a xlink:title=" ">
<path fill="none" stroke="#63b8ff" d="M1048.38,-67.46C1109.91,-58.94 1216.07,-44.01 1307,-30 1309.81,-29.57 1312.67,-29.12 1315.56,-28.67"/>
<polygon fill="#63b8ff" stroke="#63b8ff" points="1047.59,-64.03 1038.16,-68.87 1048.54,-70.97 1047.59,-64.03"/>
</a>
</g>
</g>
<!-- Node12 -->
<g id="Node000012" class="node">
<title>Node12</title>
<g id="a_Node000012"><a xlink:href="observability_2metrics_2config_8c.html" target="_top" xlink:title=" ">
<polygon fill="white" stroke="#666666" points="1623.5,-30 1486.5,-30 1486.5,0 1623.5,0 1623.5,-30"/>
<text text-anchor="start" x="1494.5" y="-18" font-family="Helvetica,sans-Serif" font-size="10.00">src/observability/metrics</text>
<text text-anchor="middle" x="1555" y="-7" font-family="Helvetica,sans-Serif" font-size="10.00">/config.c</text>
</a>
</g>
</g>
<!-- Node1&#45;&gt;Node12 -->
<g id="edge11_Node000001_Node000012" class="edge">
<title>Node1&#45;&gt;Node12</title>
<g id="a_edge11_Node000001_Node000012"><a xlink:title=" ">
<path fill="none" stroke="#63b8ff" d="M1048.21,-71.19C1136.15,-65.19 1321.45,-51.13 1477,-30 1480,-29.59 1483.06,-29.15 1486.15,-28.69"/>
<polygon fill="#63b8ff" stroke="#63b8ff" points="1047.97,-67.7 1038.23,-71.87 1048.44,-74.68 1047.97,-67.7"/>
</a>
</g>
</g>
<!-- Node13 -->
<g id="Node000013" class="node">
<title>Node13</title>
<g id="a_Node000013"><a xlink:href="tracking_8c.html" target="_top" xlink:title=" ">
<polygon fill="white" stroke="#666666" points="1778.5,-30 1641.5,-30 1641.5,0 1778.5,0 1778.5,-30"/>
<text text-anchor="start" x="1649.5" y="-18" font-family="Helvetica,sans-Serif" font-size="10.00">src/observability/metrics</text>
<text text-anchor="middle" x="1710" y="-7" font-family="Helvetica,sans-Serif" font-size="10.00">/tracking.c</text>
</a>
</g>
</g>
<!-- Node1&#45;&gt;Node13 -->
<g id="edge12_Node000001_Node000013" class="edge">
<title>Node1&#45;&gt;Node13</title>
<g id="a_edge12_Node000001_Node000013"><a xlink:title=" ">
<path fill="none" stroke="#63b8ff" d="M1048.39,-72.82C1156.8,-68.86 1416.71,-57.15 1633,-30 1635.7,-29.66 1638.44,-29.29 1641.21,-28.89"/>
<polygon fill="#63b8ff" stroke="#63b8ff" points="1047.94,-69.34 1038.08,-73.19 1048.19,-76.33 1047.94,-69.34"/>
</a>
</g>
</g>
<!-- Node14 -->
<g id="Node000014" class="node">
<title>Node14</title>
<g id="a_Node000014"><a xlink:href="gate_8c.html" target="_top" xlink:title=" ">
<polygon fill="white" stroke="#666666" points="1909,-30 1797,-30 1797,0 1909,0 1909,-30"/>
<text text-anchor="start" x="1805" y="-18" font-family="Helvetica,sans-Serif" font-size="10.00">src/protocols/cvmfs</text>
<text text-anchor="middle" x="1853" y="-7" font-family="Helvetica,sans-Serif" font-size="10.00">/gate.c</text>
</a>
</g>
</g>
<!-- Node1&#45;&gt;Node14 -->
<g id="edge13_Node000001_Node000014" class="edge">
<title>Node1&#45;&gt;Node14</title>
<g id="a_edge13_Node000001_Node000014"><a xlink:title=" ">
<path fill="none" stroke="#63b8ff" d="M1048.56,-74.37C1175.1,-73.46 1510.91,-67.4 1788,-30 1790.86,-29.61 1793.78,-29.17 1796.72,-28.68"/>
<polygon fill="#63b8ff" stroke="#63b8ff" points="1048.37,-70.88 1038.39,-74.44 1048.41,-77.88 1048.37,-70.88"/>
</a>
</g>
</g>
<!-- Node15 -->
<g id="Node000015" class="node">
<title>Node15</title>
<g id="a_Node000015"><a xlink:href="geo__answer_8c.html" target="_top" xlink:title=" ">
<polygon fill="white" stroke="#666666" points="2039,-30 1927,-30 1927,0 2039,0 2039,-30"/>
<text text-anchor="start" x="1935" y="-18" font-family="Helvetica,sans-Serif" font-size="10.00">src/protocols/cvmfs</text>
<text text-anchor="middle" x="1983" y="-7" font-family="Helvetica,sans-Serif" font-size="10.00">/geo_answer.c</text>
</a>
</g>
</g>
<!-- Node1&#45;&gt;Node15 -->
<g id="edge14_Node000001_Node000015" class="edge">
<title>Node1&#45;&gt;Node15</title>
<g id="a_edge14_Node000001_Node000015"><a xlink:title=" ">
<path fill="none" stroke="#63b8ff" d="M1048.07,-74.96C1187.9,-75.58 1588.55,-73.14 1918,-30 1920.86,-29.63 1923.78,-29.19 1926.73,-28.71"/>
<polygon fill="#63b8ff" stroke="#63b8ff" points="1048.08,-71.46 1038.06,-74.91 1048.05,-78.46 1048.08,-71.46"/>
</a>
</g>
</g>
</g>
</svg>
