<?xml version="1.0" encoding="UTF-8" standalone="no"?>
<!DOCTYPE svg PUBLIC "-//W3C//DTD SVG 1.1//EN"
 "http://www.w3.org/Graphics/SVG/1.1/DTD/svg11.dtd">
<!-- Generated by graphviz version 2.43.0 (0)
 -->
<!-- Title: src/fs/path/unified_internal.h Pages: 1 -->
<svg width="364pt" height="104pt"
 viewBox="0.00 0.00 364.00 104.00" xmlns="http://www.w3.org/2000/svg" xmlns:xlink="http://www.w3.org/1999/xlink">
<g id="graph0" class="graph" transform="scale(1 1) rotate(0) translate(4 100)">
<title>src/fs/path/unified_internal.h</title>
<!-- Node1 -->
<g id="Node000001" class="node">
<title>Node1</title>
<g id="a_Node000001"><a xlink:title=" ">
<polygon fill="#999999" stroke="#666666" points="234,-96 130,-96 130,-66 234,-66 234,-96"/>
<text text-anchor="start" x="138" y="-84" font-family="Helvetica,sans-Serif" font-size="10.00">src/fs/path/unified</text>
<text text-anchor="middle" x="182" y="-73" font-family="Helvetica,sans-Serif" font-size="10.00">_internal.h</text>
</a>
</g>
</g>
<!-- Node2 -->
<g id="Node000002" class="node">
<title>Node2</title>
<g id="a_Node000002"><a xlink:href="fs_2path_2unified_8c.html" target="_top" xlink:title=" ">
<polygon fill="white" stroke="#666666" points="112,-24.5 0,-24.5 0,-5.5 112,-5.5 112,-24.5"/>
<text text-anchor="middle" x="56" y="-12.5" font-family="Helvetica,sans-Serif" font-size="10.00">src/fs/path/unified.c</text>
</a>
</g>
</g>
<!-- Node1&#45;&gt;Node2 -->
<g id="edge1_Node000001_Node000002" class="edge">
<title>Node1&#45;&gt;Node2</title>
<g id="a_edge1_Node000001_Node000002"><a xlink:title=" ">
<path fill="none" stroke="#63b8ff" d="M145.18,-61.3C121.24,-49.14 91.16,-33.86 72.77,-24.52"/>
<polygon fill="#63b8ff" stroke="#63b8ff" points="143.85,-64.55 154.35,-65.95 147.02,-58.31 143.85,-64.55"/>
</a>
</g>
</g>
<!-- Node3 -->
<g id="Node000003" class="node">
<title>Node3</title>
<g id="a_Node000003"><a xlink:href="unified__build_8c.html" target="_top" xlink:title=" ">
<polygon fill="white" stroke="#666666" points="234,-30 130,-30 130,0 234,0 234,-30"/>
<text text-anchor="start" x="138" y="-18" font-family="Helvetica,sans-Serif" font-size="10.00">src/fs/path/unified</text>
<text text-anchor="middle" x="182" y="-7" font-family="Helvetica,sans-Serif" font-size="10.00">_build.c</text>
</a>
</g>
</g>
<!-- Node1&#45;&gt;Node3 -->
<g id="edge2_Node000001_Node000003" class="edge">
<title>Node1&#45;&gt;Node3</title>
<g id="a_edge2_Node000001_Node000003"><a xlink:title=" ">
<path fill="none" stroke="#63b8ff" d="M182,-55.54C182,-46.96 182,-37.61 182,-30.16"/>
<polygon fill="#63b8ff" stroke="#63b8ff" points="178.5,-55.8 182,-65.8 185.5,-55.8 178.5,-55.8"/>
</a>
</g>
</g>
<!-- Node4 -->
<g id="Node000004" class="node">
<title>Node4</title>
<g id="a_Node000004"><a xlink:href="unified__resolve_8c.html" target="_top" xlink:title=" ">
<polygon fill="white" stroke="#666666" points="356,-30 252,-30 252,0 356,0 356,-30"/>
<text text-anchor="start" x="260" y="-18" font-family="Helvetica,sans-Serif" font-size="10.00">src/fs/path/unified</text>
<text text-anchor="middle" x="304" y="-7" font-family="Helvetica,sans-Serif" font-size="10.00">_resolve.c</text>
</a>
</g>
</g>
<!-- Node1&#45;&gt;Node4 -->
<g id="edge3_Node000001_Node000004" class="edge">
<title>Node1&#45;&gt;Node4</title>
<g id="a_edge3_Node000001_Node000004"><a xlink:title=" ">
<path fill="none" stroke="#63b8ff" d="M217.76,-61.24C236.8,-51.25 259.82,-39.18 277.29,-30.01"/>
<polygon fill="#63b8ff" stroke="#63b8ff" points="216,-58.21 208.77,-65.95 219.25,-64.41 216,-58.21"/>
</a>
</g>
</g>
</g>
</svg>
