<?xml version="1.0" encoding="UTF-8" standalone="no"?>
<!DOCTYPE svg PUBLIC "-//W3C//DTD SVG 1.1//EN"
 "http://www.w3.org/Graphics/SVG/1.1/DTD/svg11.dtd">
<!-- Generated by graphviz version 2.43.0 (0)
 -->
<!-- Title: src/core/compat/fs_walk.h Pages: 1 -->
<!--zoomable 170 -->

<svg id="main" version="1.1" xmlns="http://www.w3.org/2000/svg" xmlns:xlink="http://www.w3.org/1999/xlink" xml:space="preserve" onload="init(evt)">
<style type="text/css"><![CDATA[
.node, .edge {opacity: 0.7;}
.node.selected, .edge.selected {opacity: 1;}
.edge:hover path { stroke: red; }
.edge:hover polygon { stroke: red; fill: red; }
]]></style>

<defs>
  <circle id="rim" cx="0" cy="0" r="7"/>
  <circle id="rim2" cx="0" cy="0" r="3.5"/>
  <g id="zoomPlus">
    <use xlink:href="#rim" fill="#404040"><set attributeName="fill" to="#808080" begin="zoomplus.mouseover" end="zoomplus.mouseout"/></use>
    <path d="M-4,0h8M0,-4v8" fill="none" stroke="white" stroke-width="1.5" pointer-events="none"/>
  </g>
  <g id="zoomMin">
    <use xlink:href="#rim" fill="#404040"><set attributeName="fill" to="#808080" begin="zoomminus.mouseover" end="zoomminus.mouseout"/></use>
    <path d="M-4,0h8" fill="none" stroke="white" stroke-width="1.5" pointer-events="none"/>
  </g>
  <g id="arrowUp" transform="translate(30 24)">
    <use xlink:href="#rim"/>
    <path pointer-events="none" fill="none" stroke="white" stroke-width="1.5" d="M0,-3.0v7 M-2.5,-0.5L0,-3.0L2.5,-0.5"/>
  </g>
  <g id="arrowRight" transform="rotate(90) translate(36 -43)">
    <use xlink:href="#rim"/>
    <path pointer-events="none" fill="none" stroke="white" stroke-width="1.5" d="M0,-3.0v7 M-2.5,-0.5L0,-3.0L2.5,-0.5"/>
  </g>
  <g id="arrowDown" transform="rotate(180) translate(-30 -48)">
    <use xlink:href="#rim"/>
    <path pointer-events="none" fill="none" stroke="white" stroke-width="1.5" d="M0,-3.0v7 M-2.5,-0.5L0,-3.0L2.5,-0.5"/>
  </g>
  <g id="arrowLeft" transform="rotate(270) translate(-36 17)">
    <use xlink:href="#rim"/>
    <path pointer-events="none" fill="none" stroke="white" stroke-width="1.5" d="M0,-3.0v7 M-2.5,-0.5L0,-3.0L2.5,-0.5"/>
  </g>
  <g id="resetDef">
    <use xlink:href="#rim2" fill="#404040"><set attributeName="fill" to="#808080" begin="reset.mouseover" end="reset.mouseout"/></use>
  </g>
</defs>
<script type="application/ecmascript">
var viewWidth = 1836;
var viewHeight = 170;
var sectionId = 'dynsection-1';
</script>
<script type="application/ecmascript" xlink:href="svg.min.js"/>
<svg id="graph" class="graph">
<g id="viewport">
<title>src/core/compat/fs_walk.h</title>
<!-- Node1 -->
<g id="Node000001" class="node">
<title>Node1</title>
<g id="a_Node000001"><a xlink:title=" ">
<polygon fill="#999999" stroke="#666666" points="982,-162 875,-162 875,-132 982,-132 982,-162"/>
<text text-anchor="start" x="883" y="-150" font-family="Helvetica,sans-Serif" font-size="10.00">src/core/compat/fs</text>
<text text-anchor="middle" x="928.5" y="-139" font-family="Helvetica,sans-Serif" font-size="10.00">_walk.h</text>
</a>
</g>
</g>
<!-- Node2 -->
<g id="Node000002" class="node">
<title>Node2</title>
<g id="a_Node000002"><a xlink:href="fs__walk_8c.html" target="_top" xlink:title=" ">
<polygon fill="white" stroke="#666666" points="107,-96 0,-96 0,-66 107,-66 107,-96"/>
<text text-anchor="start" x="8" y="-84" font-family="Helvetica,sans-Serif" font-size="10.00">src/core/compat/fs</text>
<text text-anchor="middle" x="53.5" y="-73" font-family="Helvetica,sans-Serif" font-size="10.00">_walk.c</text>
</a>
</g>
</g>
<!-- Node1&#45;&gt;Node2 -->
<g id="edge1_Node000001_Node000002" class="edge">
<title>Node1&#45;&gt;Node2</title>
<g id="a_edge1_Node000001_Node000002"><a xlink:title=" ">
<path fill="none" stroke="#63b8ff" d="M864.58,-145.55C726.92,-143.82 392.47,-135.53 115.5,-96 112.77,-95.61 109.98,-95.16 107.17,-94.67"/>
<polygon fill="#63b8ff" stroke="#63b8ff" points="864.89,-149.05 874.93,-145.67 864.97,-142.06 864.89,-149.05"/>
</a>
</g>
</g>
<!-- Node3 -->
<g id="Node000003" class="node">
<title>Node3</title>
<g id="a_Node000003"><a xlink:href="fs__walk__remove_8c.html" target="_top" xlink:title=" ">
<polygon fill="white" stroke="#666666" points="232,-96 125,-96 125,-66 232,-66 232,-96"/>
<text text-anchor="start" x="133" y="-84" font-family="Helvetica,sans-Serif" font-size="10.00">src/core/compat/fs</text>
<text text-anchor="middle" x="178.5" y="-73" font-family="Helvetica,sans-Serif" font-size="10.00">_walk_remove.c</text>
</a>
</g>
</g>
<!-- Node1&#45;&gt;Node3 -->
<g id="edge2_Node000001_Node000003" class="edge">
<title>Node1&#45;&gt;Node3</title>
<g id="a_edge2_Node000001_Node000003"><a xlink:title=" ">
<path fill="none" stroke="#63b8ff" d="M864.5,-144.46C742.64,-140.83 469.14,-129.39 241.5,-96 238.4,-95.54 235.22,-95.02 232.02,-94.45"/>
<polygon fill="#63b8ff" stroke="#63b8ff" points="864.67,-147.96 874.76,-144.76 864.87,-140.97 864.67,-147.96"/>
</a>
</g>
</g>
<!-- Node4 -->
<g id="Node000004" class="node">
<title>Node4</title>
<g id="a_Node000004"><a xlink:href="namespace__ops_8c.html" target="_top" xlink:title=" ">
<polygon fill="white" stroke="#666666" points="404.5,-96 250.5,-96 250.5,-66 404.5,-66 404.5,-96"/>
<text text-anchor="start" x="258.5" y="-84" font-family="Helvetica,sans-Serif" font-size="10.00">src/core/compat/namespace</text>
<text text-anchor="middle" x="327.5" y="-73" font-family="Helvetica,sans-Serif" font-size="10.00">_ops.c</text>
</a>
</g>
</g>
<!-- Node1&#45;&gt;Node4 -->
<g id="edge3_Node000001_Node000004" class="edge">
<title>Node1&#45;&gt;Node4</title>
<g id="a_edge3_Node000001_Node000004"><a xlink:title=" ">
<path fill="none" stroke="#63b8ff" d="M865.02,-141.16C767.65,-133.45 575.68,-117.05 413.5,-96 410.65,-95.63 407.75,-95.24 404.82,-94.83"/>
<polygon fill="#63b8ff" stroke="#63b8ff" points="864.75,-144.65 874.99,-141.95 865.3,-137.68 864.75,-144.65"/>
</a>
</g>
</g>
<!-- Node5 -->
<g id="Node000005" class="node">
<title>Node5</title>
<g id="a_Node000005"><a xlink:href="namespace__ops__copy_8c.html" target="_top" xlink:title=" ">
<polygon fill="white" stroke="#666666" points="576.5,-96 422.5,-96 422.5,-66 576.5,-66 576.5,-96"/>
<text text-anchor="start" x="430.5" y="-84" font-family="Helvetica,sans-Serif" font-size="10.00">src/core/compat/namespace</text>
<text text-anchor="middle" x="499.5" y="-73" font-family="Helvetica,sans-Serif" font-size="10.00">_ops_copy.c</text>
</a>
</g>
</g>
<!-- Node1&#45;&gt;Node5 -->
<g id="edge4_Node000001_Node000005" class="edge">
<title>Node1&#45;&gt;Node5</title>
<g id="a_edge4_Node000001_Node000005"><a xlink:title=" ">
<path fill="none" stroke="#63b8ff" d="M864.73,-137.03C795.82,-127.26 682.8,-111.01 585.5,-96 582.66,-95.56 579.77,-95.11 576.85,-94.65"/>
<polygon fill="#63b8ff" stroke="#63b8ff" points="864.6,-140.54 874.99,-138.48 865.58,-133.61 864.6,-140.54"/>
</a>
</g>
</g>
<!-- Node6 -->
<g id="Node000006" class="node">
<title>Node6</title>
<g id="a_Node000006"><a xlink:href="vfs__walk_8c.html" target="_top" xlink:title=" ">
<polygon fill="white" stroke="#666666" points="710.5,-90.5 594.5,-90.5 594.5,-71.5 710.5,-71.5 710.5,-90.5"/>
<text text-anchor="middle" x="652.5" y="-78.5" font-family="Helvetica,sans-Serif" font-size="10.00">src/fs/vfs/vfs_walk.c</text>
</a>
</g>
</g>
<!-- Node1&#45;&gt;Node6 -->
<g id="edge5_Node000001_Node000006" class="edge">
<title>Node1&#45;&gt;Node6</title>
<g id="a_edge5_Node000001_Node000006"><a xlink:title=" ">
<path fill="none" stroke="#63b8ff" d="M865.09,-131.3C810.78,-118.7 734.45,-101 689.56,-90.59"/>
<polygon fill="#63b8ff" stroke="#63b8ff" points="864.42,-134.73 874.96,-133.58 866.01,-127.92 864.42,-134.73"/>
</a>
</g>
</g>
<!-- Node7 -->
<g id="Node000007" class="node">
<title>Node7</title>
<g id="a_Node000007"><a xlink:href="list__walk_8c.html" target="_top" xlink:title=" ">
<polygon fill="white" stroke="#666666" points="840,-96 729,-96 729,-66 840,-66 840,-96"/>
<text text-anchor="start" x="737" y="-84" font-family="Helvetica,sans-Serif" font-size="10.00">src/protocols/s3/list</text>
<text text-anchor="middle" x="784.5" y="-73" font-family="Helvetica,sans-Serif" font-size="10.00">_walk.c</text>
</a>
</g>
</g>
<!-- Node1&#45;&gt;Node7 -->
<g id="edge6_Node000001_Node000007" class="edge">
<title>Node1&#45;&gt;Node7</title>
<g id="a_edge6_Node000001_Node000007"><a xlink:title=" ">
<path fill="none" stroke="#63b8ff" d="M887.51,-127.78C864.81,-117.69 837.02,-105.34 816.03,-96.01"/>
<polygon fill="#63b8ff" stroke="#63b8ff" points="886.34,-131.09 896.9,-131.95 889.18,-124.7 886.34,-131.09"/>
</a>
</g>
</g>
<!-- Node8 -->
<g id="Node000008" class="node">
<title>Node8</title>
<g id="a_Node000008"><a xlink:href="multipart__helpers_8c.html" target="_top" xlink:title=" ">
<polygon fill="white" stroke="#666666" points="999,-96 858,-96 858,-66 999,-66 999,-96"/>
<text text-anchor="start" x="866" y="-84" font-family="Helvetica,sans-Serif" font-size="10.00">src/protocols/s3/multipart</text>
<text text-anchor="middle" x="928.5" y="-73" font-family="Helvetica,sans-Serif" font-size="10.00">_helpers.c</text>
</a>
</g>
</g>
<!-- Node1&#45;&gt;Node8 -->
<g id="edge7_Node000001_Node000008" class="edge">
<title>Node1&#45;&gt;Node8</title>
<g id="a_edge7_Node000001_Node000008"><a xlink:title=" ">
<path fill="none" stroke="#63b8ff" d="M928.5,-121.54C928.5,-112.96 928.5,-103.61 928.5,-96.16"/>
<polygon fill="#63b8ff" stroke="#63b8ff" points="925,-121.8 928.5,-131.8 932,-121.8 925,-121.8"/>
</a>
</g>
</g>
<!-- Node9 -->
<g id="Node000009" class="node">
<title>Node9</title>
<g id="a_Node000009"><a xlink:href="protocols_2webdav_2lock_8c.html" target="_top" xlink:title=" ">
<polygon fill="white" stroke="#666666" points="1137.5,-96 1017.5,-96 1017.5,-66 1137.5,-66 1137.5,-96"/>
<text text-anchor="start" x="1025.5" y="-84" font-family="Helvetica,sans-Serif" font-size="10.00">src/protocols/webdav</text>
<text text-anchor="middle" x="1077.5" y="-73" font-family="Helvetica,sans-Serif" font-size="10.00">/lock.c</text>
</a>
</g>
</g>
<!-- Node1&#45;&gt;Node9 -->
<g id="edge8_Node000001_Node000009" class="edge">
<title>Node1&#45;&gt;Node9</title>
<g id="a_edge8_Node000001_Node000009"><a xlink:title=" ">
<path fill="none" stroke="#63b8ff" d="M970.59,-127.92C994.14,-117.8 1023.06,-105.38 1044.88,-96.01"/>
<polygon fill="#63b8ff" stroke="#63b8ff" points="969.01,-124.79 961.2,-131.95 971.77,-131.22 969.01,-124.79"/>
</a>
</g>
</g>
<!-- Node10 -->
<g id="Node000010" class="node">
<title>Node10</title>
<g id="a_Node000010"><a xlink:href="lock__check_8c.html" target="_top" xlink:title=" ">
<polygon fill="white" stroke="#666666" points="1275.5,-96 1155.5,-96 1155.5,-66 1275.5,-66 1275.5,-96"/>
<text text-anchor="start" x="1163.5" y="-84" font-family="Helvetica,sans-Serif" font-size="10.00">src/protocols/webdav</text>
<text text-anchor="middle" x="1215.5" y="-73" font-family="Helvetica,sans-Serif" font-size="10.00">/lock_check.c</text>
</a>
</g>
</g>
<!-- Node1&#45;&gt;Node10 -->
<g id="edge9_Node000001_Node000010" class="edge">
<title>Node1&#45;&gt;Node10</title>
<g id="a_edge9_Node000001_Node000010"><a xlink:title=" ">
<path fill="none" stroke="#63b8ff" d="M991.95,-131.85C1040.69,-120.98 1107.54,-106.07 1155.42,-95.4"/>
<polygon fill="#63b8ff" stroke="#63b8ff" points="991.14,-128.44 982.15,-134.04 992.67,-135.28 991.14,-128.44"/>
</a>
</g>
</g>
<!-- Node11 -->
<g id="Node000011" class="node">
<title>Node11</title>
<g id="a_Node000011"><a xlink:href="lock__discovery_8c.html" target="_top" xlink:title=" ">
<polygon fill="white" stroke="#666666" points="1413.5,-96 1293.5,-96 1293.5,-66 1413.5,-66 1413.5,-96"/>
<text text-anchor="start" x="1301.5" y="-84" font-family="Helvetica,sans-Serif" font-size="10.00">src/protocols/webdav</text>
<text text-anchor="middle" x="1353.5" y="-73" font-family="Helvetica,sans-Serif" font-size="10.00">/lock_discovery.c</text>
</a>
</g>
</g>
<!-- Node1&#45;&gt;Node11 -->
<g id="edge10_Node000001_Node000011" class="edge">
<title>Node1&#45;&gt;Node11</title>
<g id="a_edge10_Node000001_Node000011"><a xlink:title=" ">
<path fill="none" stroke="#63b8ff" d="M992.21,-138.24C1063.58,-129.26 1182.63,-113.47 1284.5,-96 1287.39,-95.5 1290.35,-94.98 1293.33,-94.43"/>
<polygon fill="#63b8ff" stroke="#63b8ff" points="991.52,-134.79 982.03,-139.51 992.39,-141.74 991.52,-134.79"/>
</a>
</g>
</g>
<!-- Node12 -->
<g id="Node000012" class="node">
<title>Node12</title>
<g id="a_Node000012"><a xlink:href="namespace_8c.html" target="_top" xlink:title=" ">
<polygon fill="white" stroke="#666666" points="1551.5,-96 1431.5,-96 1431.5,-66 1551.5,-66 1551.5,-96"/>
<text text-anchor="start" x="1439.5" y="-84" font-family="Helvetica,sans-Serif" font-size="10.00">src/protocols/webdav</text>
<text text-anchor="middle" x="1491.5" y="-73" font-family="Helvetica,sans-Serif" font-size="10.00">/namespace.c</text>
</a>
</g>
</g>
<!-- Node1&#45;&gt;Node12 -->
<g id="edge11_Node000001_Node000012" class="edge">
<title>Node1&#45;&gt;Node12</title>
<g id="a_edge11_Node000001_Node000012"><a xlink:title=" ">
<path fill="none" stroke="#63b8ff" d="M992.32,-141.58C1086.7,-134.58 1268.88,-119.3 1422.5,-96 1425.4,-95.56 1428.36,-95.08 1431.35,-94.57"/>
<polygon fill="#63b8ff" stroke="#63b8ff" points="991.8,-138.11 982.08,-142.33 992.31,-145.09 991.8,-138.11"/>
</a>
</g>
</g>
<!-- Node13 -->
<g id="Node000013" class="node">
<title>Node13</title>
<g id="a_Node000013"><a xlink:href="propfind__internal_8h.html" target="_top" xlink:title=" ">
<polygon fill="white" stroke="#666666" points="1689.5,-96 1569.5,-96 1569.5,-66 1689.5,-66 1689.5,-96"/>
<text text-anchor="start" x="1577.5" y="-84" font-family="Helvetica,sans-Serif" font-size="10.00">src/protocols/webdav</text>
<text text-anchor="middle" x="1629.5" y="-73" font-family="Helvetica,sans-Serif" font-size="10.00">/propfind_internal.h</text>
</a>
</g>
</g>
<!-- Node1&#45;&gt;Node13 -->
<g id="edge12_Node000001_Node000013" class="edge">
<title>Node1&#45;&gt;Node13</title>
<g id="a_edge12_Node000001_Node000013"><a xlink:title=" ">
<path fill="none" stroke="#63b8ff" d="M992.32,-143.51C1106.68,-138.48 1353.87,-125.03 1560.5,-96 1563.41,-95.59 1566.37,-95.14 1569.36,-94.65"/>
<polygon fill="#63b8ff" stroke="#63b8ff" points="991.85,-140.03 982.01,-143.96 992.15,-147.02 991.85,-140.03"/>
</a>
</g>
</g>
<!-- Node17 -->
<g id="Node000017" class="node">
<title>Node17</title>
<g id="a_Node000017"><a xlink:href="search_8c.html" target="_top" xlink:title=" ">
<polygon fill="white" stroke="#666666" points="1827.5,-96 1707.5,-96 1707.5,-66 1827.5,-66 1827.5,-96"/>
<text text-anchor="start" x="1715.5" y="-84" font-family="Helvetica,sans-Serif" font-size="10.00">src/protocols/webdav</text>
<text text-anchor="middle" x="1767.5" y="-73" font-family="Helvetica,sans-Serif" font-size="10.00">/search.c</text>
</a>
</g>
</g>
<!-- Node1&#45;&gt;Node17 -->
<g id="edge16_Node000001_Node000017" class="edge">
<title>Node1&#45;&gt;Node17</title>
<g id="a_edge16_Node000001_Node000017"><a xlink:title=" ">
<path fill="none" stroke="#63b8ff" d="M992.79,-144.76C1125.32,-141.56 1438.31,-130.68 1698.5,-96 1701.41,-95.61 1704.38,-95.17 1707.37,-94.7"/>
<polygon fill="#63b8ff" stroke="#63b8ff" points="992.34,-141.27 982.42,-145.01 992.5,-148.27 992.34,-141.27"/>
</a>
</g>
</g>
<!-- Node14 -->
<g id="Node000014" class="node">
<title>Node14</title>
<g id="a_Node000014"><a xlink:href="propfind_8c.html" target="_top" xlink:title=" ">
<polygon fill="white" stroke="#666666" points="1551.5,-30 1431.5,-30 1431.5,0 1551.5,0 1551.5,-30"/>
<text text-anchor="start" x="1439.5" y="-18" font-family="Helvetica,sans-Serif" font-size="10.00">src/protocols/webdav</text>
<text text-anchor="middle" x="1491.5" y="-7" font-family="Helvetica,sans-Serif" font-size="10.00">/propfind.c</text>
</a>
</g>
</g>
<!-- Node13&#45;&gt;Node14 -->
<g id="edge13_Node000013_Node000014" class="edge">
<title>Node13&#45;&gt;Node14</title>
<g id="a_edge13_Node000013_Node000014"><a xlink:title=" ">
<path fill="none" stroke="#63b8ff" d="M1589.93,-61.65C1568.23,-51.58 1541.74,-39.3 1521.71,-30.01"/>
<polygon fill="#63b8ff" stroke="#63b8ff" points="1588.67,-64.92 1599.22,-65.95 1591.62,-58.57 1588.67,-64.92"/>
</a>
</g>
</g>
<!-- Node15 -->
<g id="Node000015" class="node">
<title>Node15</title>
<g id="a_Node000015"><a xlink:href="propfind__props_8c.html" target="_top" xlink:title=" ">
<polygon fill="white" stroke="#666666" points="1689.5,-30 1569.5,-30 1569.5,0 1689.5,0 1689.5,-30"/>
<text text-anchor="start" x="1577.5" y="-18" font-family="Helvetica,sans-Serif" font-size="10.00">src/protocols/webdav</text>
<text text-anchor="middle" x="1629.5" y="-7" font-family="Helvetica,sans-Serif" font-size="10.00">/propfind_props.c</text>
</a>
</g>
</g>
<!-- Node13&#45;&gt;Node15 -->
<g id="edge14_Node000013_Node000015" class="edge">
<title>Node13&#45;&gt;Node15</title>
<g id="a_edge14_Node000013_Node000015"><a xlink:title=" ">
<path fill="none" stroke="#63b8ff" d="M1629.5,-55.54C1629.5,-46.96 1629.5,-37.61 1629.5,-30.16"/>
<polygon fill="#63b8ff" stroke="#63b8ff" points="1626,-55.8 1629.5,-65.8 1633,-55.8 1626,-55.8"/>
</a>
</g>
</g>
<!-- Node16 -->
<g id="Node000016" class="node">
<title>Node16</title>
<g id="a_Node000016"><a xlink:href="propfind__walk_8c.html" target="_top" xlink:title=" ">
<polygon fill="white" stroke="#666666" points="1827.5,-30 1707.5,-30 1707.5,0 1827.5,0 1827.5,-30"/>
<text text-anchor="start" x="1715.5" y="-18" font-family="Helvetica,sans-Serif" font-size="10.00">src/protocols/webdav</text>
<text text-anchor="middle" x="1767.5" y="-7" font-family="Helvetica,sans-Serif" font-size="10.00">/propfind_walk.c</text>
</a>
</g>
</g>
<!-- Node13&#45;&gt;Node16 -->
<g id="edge15_Node000013_Node000016" class="edge">
<title>Node13&#45;&gt;Node16</title>
<g id="a_edge15_Node000013_Node000016"><a xlink:title=" ">
<path fill="none" stroke="#63b8ff" d="M1669.07,-61.65C1690.77,-51.58 1717.26,-39.3 1737.29,-30.01"/>
<polygon fill="#63b8ff" stroke="#63b8ff" points="1667.38,-58.57 1659.78,-65.95 1670.33,-64.92 1667.38,-58.57"/>
</a>
</g>
</g>
</g>
</svg>

<g id="navigator" transform="translate(0 0)" fill="#404254">
  <rect fill="#f2f5e9" fill-opacity="0.5" stroke="#606060" stroke-width=".5" x="0" y="0" width="60" height="60"/>
  <use id="zoomplus" xlink:href="#zoomPlus" x="17" y="9" onmousedown="handleZoom(evt,'in')"/>
  <use id="zoomminus" xlink:href="#zoomMin" x="42" y="9" onmousedown="handleZoom(evt,'out')"/>
  <use id="reset" xlink:href="#resetDef" x="30" y="36" onmousedown="handleReset()"/>
   <use id="arrowup" xlink:href="#arrowUp" x="0" y="0" onmousedown="handlePan(0,-1)"/>
  <use id="arrowright" xlink:href="#arrowRight" x="0" y="0" onmousedown="handlePan(1,0)"/>
  <use id="arrowdown" xlink:href="#arrowDown" x="0" y="0" onmousedown="handlePan(0,1)"/>
  <use id="arrowleft" xlink:href="#arrowLeft" x="0" y="0" onmousedown="handlePan(-1,0)"/>
</g>
<svg viewBox="0 0 15 15" width="100%" height="30px" preserveAspectRatio="xMaxYMin meet">
 <g id="arrow_out" transform="scale(0.3 0.3)">
  <a xlink:href="fs__walk_8h__dep__incl_org.svg" target="_base">
   <rect id="button" ry="5" rx="5" y="6" x="6" height="38" width="38"
        fill="#f2f5e9" fill-opacity="0.5" stroke="#606060" stroke-width="1.0"/>
   <path id="arrow"
     d="M 11.500037,31.436501 C 11.940474,20.09759 22.043105,11.32322 32.158766,21.979434 L 37.068811,17.246167 C 37.068811,17.246167 37.088388,32 37.088388,32 L 22.160133,31.978069 C 22.160133,31.978069 26.997745,27.140456 26.997745,27.140456 C 18.528582,18.264221 13.291696,25.230495 11.500037,31.436501 z"
     style="fill:#404040;"/>
  </a>
 </g>
</svg>

<style type='text/css'>
<![CDATA[
[data-mouse-over-selected='false'] { opacity: 0.7; }
[data-mouse-over-selected='true']  { opacity: 1.0; }
]]>
</style>
<script type="application/ecmascript"><![CDATA[
document.addEventListener('DOMContentLoaded', (event) => {
  highlightEdges();
  highlightAdjacentNodes();
});
]]></script>
</svg>
