<?xml version="1.0" encoding="UTF-8" standalone="no"?>
<!DOCTYPE svg PUBLIC "-//W3C//DTD SVG 1.1//EN"
 "http://www.w3.org/Graphics/SVG/1.1/DTD/svg11.dtd">
<!-- Generated by graphviz version 2.43.0 (0)
 -->
<!-- Title: src/core/compat/fs_walk.c Pages: 1 -->
<svg width="462pt" height="148pt"
 viewBox="0.00 0.00 462.00 148.00" xmlns="http://www.w3.org/2000/svg" xmlns:xlink="http://www.w3.org/1999/xlink">
<g id="graph0" class="graph" transform="scale(1 1) rotate(0) translate(4 144)">
<title>src/core/compat/fs_walk.c</title>
<!-- Node1 -->
<g id="Node000001" class="node">
<title>Node1</title>
<g id="a_Node000001"><a xlink:title=" ">
<polygon fill="#999999" stroke="#666666" points="373.5,-140 266.5,-140 266.5,-110 373.5,-110 373.5,-140"/>
<text text-anchor="start" x="274.5" y="-128" font-family="Helvetica,sans-Serif" font-size="10.00">src/core/compat/fs</text>
<text text-anchor="middle" x="320" y="-117" font-family="Helvetica,sans-Serif" font-size="10.00">_walk.c</text>
</a>
</g>
</g>
<!-- Node2 -->
<g id="Node000002" class="node">
<title>Node2</title>
<g id="a_Node000002"><a xlink:href="fs__walk_8h.html" target="_top" xlink:title=" ">
<polygon fill="white" stroke="#666666" points="242.5,-74 179.5,-74 179.5,-55 242.5,-55 242.5,-74"/>
<text text-anchor="middle" x="211" y="-62" font-family="Helvetica,sans-Serif" font-size="10.00">fs_walk.h</text>
</a>
</g>
</g>
<!-- Node1&#45;&gt;Node2 -->
<g id="edge1_Node000001_Node000002" class="edge">
<title>Node1&#45;&gt;Node2</title>
<g id="a_edge1_Node000001_Node000002"><a xlink:title=" ">
<path fill="none" stroke="#63b8ff" d="M293.89,-109.99C276.36,-100.58 253.38,-88.24 236.06,-78.95"/>
<polygon fill="#63b8ff" stroke="#63b8ff" points="237.56,-75.78 227.1,-74.14 234.25,-81.95 237.56,-75.78"/>
</a>
</g>
</g>
<!-- Node8 -->
<g id="Node000008" class="node">
<title>Node8</title>
<g id="a_Node000008"><a xlink:title=" ">
<polygon fill="#e0e0e0" stroke="#999999" points="311.5,-74 260.5,-74 260.5,-55 311.5,-55 311.5,-74"/>
<text text-anchor="middle" x="286" y="-62" font-family="Helvetica,sans-Serif" font-size="10.00">errno.h</text>
</a>
</g>
</g>
<!-- Node1&#45;&gt;Node8 -->
<g id="edge7_Node000001_Node000008" class="edge">
<title>Node1&#45;&gt;Node8</title>
<g id="a_edge7_Node000001_Node000008"><a xlink:title=" ">
<path fill="none" stroke="#63b8ff" d="M311.77,-109.84C307.09,-101.78 301.18,-91.62 296.2,-83.06"/>
<polygon fill="#63b8ff" stroke="#63b8ff" points="299.15,-81.15 291.09,-74.27 293.09,-84.67 299.15,-81.15"/>
</a>
</g>
</g>
<!-- Node9 -->
<g id="Node000009" class="node">
<title>Node9</title>
<g id="a_Node000009"><a xlink:title=" ">
<polygon fill="#e0e0e0" stroke="#999999" points="380,-74 330,-74 330,-55 380,-55 380,-74"/>
<text text-anchor="middle" x="355" y="-62" font-family="Helvetica,sans-Serif" font-size="10.00">stdio.h</text>
</a>
</g>
</g>
<!-- Node1&#45;&gt;Node9 -->
<g id="edge8_Node000001_Node000009" class="edge">
<title>Node1&#45;&gt;Node9</title>
<g id="a_edge8_Node000001_Node000009"><a xlink:title=" ">
<path fill="none" stroke="#63b8ff" d="M328.47,-109.84C333.29,-101.78 339.37,-91.62 344.5,-83.06"/>
<polygon fill="#63b8ff" stroke="#63b8ff" points="347.62,-84.64 349.76,-74.27 341.62,-81.05 347.62,-84.64"/>
</a>
</g>
</g>
<!-- Node10 -->
<g id="Node000010" class="node">
<title>Node10</title>
<g id="a_Node000010"><a xlink:title=" ">
<polygon fill="#e0e0e0" stroke="#999999" points="454,-74 398,-74 398,-55 454,-55 454,-74"/>
<text text-anchor="middle" x="426" y="-62" font-family="Helvetica,sans-Serif" font-size="10.00">unistd.h</text>
</a>
</g>
</g>
<!-- Node1&#45;&gt;Node10 -->
<g id="edge9_Node000001_Node000010" class="edge">
<title>Node1&#45;&gt;Node10</title>
<g id="a_edge9_Node000001_Node000010"><a xlink:title=" ">
<path fill="none" stroke="#63b8ff" d="M345.39,-109.99C362.29,-100.66 384.38,-88.47 401.16,-79.21"/>
<polygon fill="#63b8ff" stroke="#63b8ff" points="403.28,-82.04 410.35,-74.14 399.9,-75.91 403.28,-82.04"/>
</a>
</g>
</g>
<!-- Node3 -->
<g id="Node000003" class="node">
<title>Node3</title>
<g id="a_Node000003"><a xlink:title=" ">
<polygon fill="#e0e0e0" stroke="#999999" points="78,-19 0,-19 0,0 78,0 78,-19"/>
<text text-anchor="middle" x="39" y="-7" font-family="Helvetica,sans-Serif" font-size="10.00">ngx_config.h</text>
</a>
</g>
</g>
<!-- Node2&#45;&gt;Node3 -->
<g id="edge2_Node000002_Node000003" class="edge">
<title>Node2&#45;&gt;Node3</title>
<g id="a_edge2_Node000002_Node000003"><a xlink:title=" ">
<path fill="none" stroke="#63b8ff" d="M183.37,-54.98C154.49,-46.09 108.99,-32.07 76.8,-22.15"/>
<polygon fill="#63b8ff" stroke="#63b8ff" points="77.44,-18.68 66.85,-19.08 75.38,-25.37 77.44,-18.68"/>
</a>
</g>
</g>
<!-- Node4 -->
<g id="Node000004" class="node">
<title>Node4</title>
<g id="a_Node000004"><a xlink:title=" ">
<polygon fill="#e0e0e0" stroke="#999999" points="166,-19 96,-19 96,0 166,0 166,-19"/>
<text text-anchor="middle" x="131" y="-7" font-family="Helvetica,sans-Serif" font-size="10.00">ngx_core.h</text>
</a>
</g>
</g>
<!-- Node2&#45;&gt;Node4 -->
<g id="edge3_Node000002_Node000004" class="edge">
<title>Node2&#45;&gt;Node4</title>
<g id="a_edge3_Node000002_Node000004"><a xlink:title=" ">
<path fill="none" stroke="#63b8ff" d="M198.15,-54.98C185.86,-46.84 167.09,-34.41 152.52,-24.76"/>
<polygon fill="#63b8ff" stroke="#63b8ff" points="154.36,-21.78 144.09,-19.17 150.49,-27.61 154.36,-21.78"/>
</a>
</g>
</g>
<!-- Node5 -->
<g id="Node000005" class="node">
<title>Node5</title>
<g id="a_Node000005"><a xlink:title=" ">
<polygon fill="#e0e0e0" stroke="#999999" points="238,-19 184,-19 184,0 238,0 238,-19"/>
<text text-anchor="middle" x="211" y="-7" font-family="Helvetica,sans-Serif" font-size="10.00">dirent.h</text>
</a>
</g>
</g>
<!-- Node2&#45;&gt;Node5 -->
<g id="edge4_Node000002_Node000005" class="edge">
<title>Node2&#45;&gt;Node5</title>
<g id="a_edge4_Node000002_Node000005"><a xlink:title=" ">
<path fill="none" stroke="#63b8ff" d="M211,-54.75C211,-47.8 211,-37.85 211,-29.13"/>
<polygon fill="#63b8ff" stroke="#63b8ff" points="214.5,-29.09 211,-19.09 207.5,-29.09 214.5,-29.09"/>
</a>
</g>
</g>
<!-- Node6 -->
<g id="Node000006" class="node">
<title>Node6</title>
<g id="a_Node000006"><a xlink:title=" ">
<polygon fill="#e0e0e0" stroke="#999999" points="320,-19 256,-19 256,0 320,0 320,-19"/>
<text text-anchor="middle" x="288" y="-7" font-family="Helvetica,sans-Serif" font-size="10.00">sys/stat.h</text>
</a>
</g>
</g>
<!-- Node2&#45;&gt;Node6 -->
<g id="edge5_Node000002_Node000006" class="edge">
<title>Node2&#45;&gt;Node6</title>
<g id="a_edge5_Node000002_Node000006"><a xlink:title=" ">
<path fill="none" stroke="#63b8ff" d="M223.37,-54.98C235.09,-46.92 252.92,-34.65 266.89,-25.03"/>
<polygon fill="#63b8ff" stroke="#63b8ff" points="269.15,-27.72 275.4,-19.17 265.18,-21.96 269.15,-27.72"/>
</a>
</g>
</g>
<!-- Node7 -->
<g id="Node000007" class="node">
<title>Node7</title>
<g id="a_Node000007"><a xlink:title=" ">
<polygon fill="#e0e0e0" stroke="#999999" points="410,-19 338,-19 338,0 410,0 410,-19"/>
<text text-anchor="middle" x="374" y="-7" font-family="Helvetica,sans-Serif" font-size="10.00">sys/types.h</text>
</a>
</g>
</g>
<!-- Node2&#45;&gt;Node7 -->
<g id="edge6_Node000002_Node000007" class="edge">
<title>Node2&#45;&gt;Node7</title>
<g id="a_edge6_Node000002_Node000007"><a xlink:title=" ">
<path fill="none" stroke="#63b8ff" d="M237.19,-54.98C264.44,-46.13 307.3,-32.19 337.78,-22.28"/>
<polygon fill="#63b8ff" stroke="#63b8ff" points="339.18,-25.5 347.61,-19.08 337.01,-18.85 339.18,-25.5"/>
</a>
</g>
</g>
</g>
</svg>
