<?xml version="1.0" encoding="UTF-8" standalone="no"?>
<!DOCTYPE svg PUBLIC "-//W3C//DTD SVG 1.1//EN"
 "http://www.w3.org/Graphics/SVG/1.1/DTD/svg11.dtd">
<!-- Generated by graphviz version 2.43.0 (0)
 -->
<!-- Title: src/core/compat/fs_walk.h Pages: 1 -->
<!--zoomable 170 -->

<svg id="main" version="1.1" xmlns="http://www.w3.org/2000/svg" xmlns:xlink="http://www.w3.org/1999/xlink" xml:space="preserve" onload="init(evt)">
<style type="text/css"><![CDATA[
.node, .edge {opacity: 0.7;}
.node.selected, .edge.selected {opacity: 1;}
.edge:hover path { stroke: red; }
.edge:hover polygon { stroke: red; fill: red; }
]]></style>

<defs>
  <circle id="rim" cx="0" cy="0" r="7"/>
  <circle id="rim2" cx="0" cy="0" r="3.5"/>
  <g id="zoomPlus">
    <use xlink:href="#rim" fill="#404040"><set attributeName="fill" to="#808080" begin="zoomplus.mouseover" end="zoomplus.mouseout"/></use>
    <path d="M-4,0h8M0,-4v8" fill="none" stroke="white" stroke-width="1.5" pointer-events="none"/>
  </g>
  <g id="zoomMin">
    <use xlink:href="#rim" fill="#404040"><set attributeName="fill" to="#808080" begin="zoomminus.mouseover" end="zoomminus.mouseout"/></use>
    <path d="M-4,0h8" fill="none" stroke="white" stroke-width="1.5" pointer-events="none"/>
  </g>
  <g id="arrowUp" transform="translate(30 24)">
    <use xlink:href="#rim"/>
    <path pointer-events="none" fill="none" stroke="white" stroke-width="1.5" d="M0,-3.0v7 M-2.5,-0.5L0,-3.0L2.5,-0.5"/>
  </g>
  <g id="arrowRight" transform="rotate(90) translate(36 -43)">
    <use xlink:href="#rim"/>
    <path pointer-events="none" fill="none" stroke="white" stroke-width="1.5" d="M0,-3.0v7 M-2.5,-0.5L0,-3.0L2.5,-0.5"/>
  </g>
  <g id="arrowDown" transform="rotate(180) translate(-30 -48)">
    <use xlink:href="#rim"/>
    <path pointer-events="none" fill="none" stroke="white" stroke-width="1.5" d="M0,-3.0v7 M-2.5,-0.5L0,-3.0L2.5,-0.5"/>
  </g>
  <g id="arrowLeft" transform="rotate(270) translate(-36 17)">
    <use xlink:href="#rim"/>
    <path pointer-events="none" fill="none" stroke="white" stroke-width="1.5" d="M0,-3.0v7 M-2.5,-0.5L0,-3.0L2.5,-0.5"/>
  </g>
  <g id="resetDef">
    <use xlink:href="#rim2" fill="#404040"><set attributeName="fill" to="#808080" begin="reset.mouseover" end="reset.mouseout"/></use>
  </g>
</defs>
<script type="application/ecmascript">
var viewWidth = 1263;
var viewHeight = 170;
var sectionId = 'dynsection-1';
</script>
<script type="application/ecmascript" xlink:href="svg.min.js"/>
<svg id="graph" class="graph">
<g id="viewport">
<title>src/core/compat/fs_walk.h</title>
<!-- Node1 -->
<g id="Node000001" class="node">
<title>Node1</title>
<g id="a_Node000001"><a xlink:title=" ">
<polygon fill="#999999" stroke="#666666" points="685,-162 578,-162 578,-132 685,-132 685,-162"/>
<text text-anchor="start" x="586" y="-150" font-family="Helvetica,sans-Serif" font-size="10.00">src/core/compat/fs</text>
<text text-anchor="middle" x="631.5" y="-139" font-family="Helvetica,sans-Serif" font-size="10.00">_walk.h</text>
</a>
</g>
</g>
<!-- Node2 -->
<g id="Node000002" class="node">
<title>Node2</title>
<g id="a_Node000002"><a xlink:href="fs__walk_8c.html" target="_top" xlink:title=" ">
<polygon fill="white" stroke="#666666" points="107,-96 0,-96 0,-66 107,-66 107,-96"/>
<text text-anchor="start" x="8" y="-84" font-family="Helvetica,sans-Serif" font-size="10.00">src/core/compat/fs</text>
<text text-anchor="middle" x="53.5" y="-73" font-family="Helvetica,sans-Serif" font-size="10.00">_walk.c</text>
</a>
</g>
</g>
<!-- Node1&#45;&gt;Node2 -->
<g id="edge1_Node000001_Node000002" class="edge">
<title>Node1&#45;&gt;Node2</title>
<g id="a_edge1_Node000001_Node000002"><a xlink:title=" ">
<path fill="none" stroke="#63b8ff" d="M567.85,-142.32C470.26,-136.13 278.01,-121.69 116.5,-96 113.4,-95.51 110.23,-94.95 107.03,-94.36"/>
<polygon fill="#63b8ff" stroke="#63b8ff" points="567.65,-145.82 577.85,-142.95 568.09,-138.83 567.65,-145.82"/>
</a>
</g>
</g>
<!-- Node3 -->
<g id="Node000003" class="node">
<title>Node3</title>
<g id="a_Node000003"><a xlink:href="namespace__ops_8c.html" target="_top" xlink:title=" ">
<polygon fill="white" stroke="#666666" points="279.5,-96 125.5,-96 125.5,-66 279.5,-66 279.5,-96"/>
<text text-anchor="start" x="133.5" y="-84" font-family="Helvetica,sans-Serif" font-size="10.00">src/core/compat/namespace</text>
<text text-anchor="middle" x="202.5" y="-73" font-family="Helvetica,sans-Serif" font-size="10.00">_ops.c</text>
</a>
</g>
</g>
<!-- Node1&#45;&gt;Node3 -->
<g id="edge2_Node000001_Node000003" class="edge">
<title>Node1&#45;&gt;Node3</title>
<g id="a_edge2_Node000001_Node000003"><a xlink:title=" ">
<path fill="none" stroke="#63b8ff" d="M567.73,-137.03C498.82,-127.26 385.8,-111.01 288.5,-96 285.66,-95.56 282.77,-95.11 279.85,-94.65"/>
<polygon fill="#63b8ff" stroke="#63b8ff" points="567.6,-140.54 577.99,-138.48 568.58,-133.61 567.6,-140.54"/>
</a>
</g>
</g>
<!-- Node4 -->
<g id="Node000004" class="node">
<title>Node4</title>
<g id="a_Node000004"><a xlink:href="vfs__walk_8c.html" target="_top" xlink:title=" ">
<polygon fill="white" stroke="#666666" points="413.5,-90.5 297.5,-90.5 297.5,-71.5 413.5,-71.5 413.5,-90.5"/>
<text text-anchor="middle" x="355.5" y="-78.5" font-family="Helvetica,sans-Serif" font-size="10.00">src/fs/vfs/vfs_walk.c</text>
</a>
</g>
</g>
<!-- Node1&#45;&gt;Node4 -->
<g id="edge3_Node000001_Node000004" class="edge">
<title>Node1&#45;&gt;Node4</title>
<g id="a_edge3_Node000001_Node000004"><a xlink:title=" ">
<path fill="none" stroke="#63b8ff" d="M568.09,-131.3C513.78,-118.7 437.45,-101 392.56,-90.59"/>
<polygon fill="#63b8ff" stroke="#63b8ff" points="567.42,-134.73 577.96,-133.58 569.01,-127.92 567.42,-134.73"/>
</a>
</g>
</g>
<!-- Node5 -->
<g id="Node000005" class="node">
<title>Node5</title>
<g id="a_Node000005"><a xlink:href="list__walk_8c.html" target="_top" xlink:title=" ">
<polygon fill="white" stroke="#666666" points="543,-96 432,-96 432,-66 543,-66 543,-96"/>
<text text-anchor="start" x="440" y="-84" font-family="Helvetica,sans-Serif" font-size="10.00">src/protocols/s3/list</text>
<text text-anchor="middle" x="487.5" y="-73" font-family="Helvetica,sans-Serif" font-size="10.00">_walk.c</text>
</a>
</g>
</g>
<!-- Node1&#45;&gt;Node5 -->
<g id="edge4_Node000001_Node000005" class="edge">
<title>Node1&#45;&gt;Node5</title>
<g id="a_edge4_Node000001_Node000005"><a xlink:title=" ">
<path fill="none" stroke="#63b8ff" d="M590.51,-127.78C567.81,-117.69 540.02,-105.34 519.03,-96.01"/>
<polygon fill="#63b8ff" stroke="#63b8ff" points="589.34,-131.09 599.9,-131.95 592.18,-124.7 589.34,-131.09"/>
</a>
</g>
</g>
<!-- Node6 -->
<g id="Node000006" class="node">
<title>Node6</title>
<g id="a_Node000006"><a xlink:href="multipart__helpers_8c.html" target="_top" xlink:title=" ">
<polygon fill="white" stroke="#666666" points="702,-96 561,-96 561,-66 702,-66 702,-96"/>
<text text-anchor="start" x="569" y="-84" font-family="Helvetica,sans-Serif" font-size="10.00">src/protocols/s3/multipart</text>
<text text-anchor="middle" x="631.5" y="-73" font-family="Helvetica,sans-Serif" font-size="10.00">_helpers.c</text>
</a>
</g>
</g>
<!-- Node1&#45;&gt;Node6 -->
<g id="edge5_Node000001_Node000006" class="edge">
<title>Node1&#45;&gt;Node6</title>
<g id="a_edge5_Node000001_Node000006"><a xlink:title=" ">
<path fill="none" stroke="#63b8ff" d="M631.5,-121.54C631.5,-112.96 631.5,-103.61 631.5,-96.16"/>
<polygon fill="#63b8ff" stroke="#63b8ff" points="628,-121.8 631.5,-131.8 635,-121.8 628,-121.8"/>
</a>
</g>
</g>
<!-- Node7 -->
<g id="Node000007" class="node">
<title>Node7</title>
<g id="a_Node000007"><a xlink:href="protocols_2webdav_2lock_8c.html" target="_top" xlink:title=" ">
<polygon fill="white" stroke="#666666" points="840.5,-96 720.5,-96 720.5,-66 840.5,-66 840.5,-96"/>
<text text-anchor="start" x="728.5" y="-84" font-family="Helvetica,sans-Serif" font-size="10.00">src/protocols/webdav</text>
<text text-anchor="middle" x="780.5" y="-73" font-family="Helvetica,sans-Serif" font-size="10.00">/lock.c</text>
</a>
</g>
</g>
<!-- Node1&#45;&gt;Node7 -->
<g id="edge6_Node000001_Node000007" class="edge">
<title>Node1&#45;&gt;Node7</title>
<g id="a_edge6_Node000001_Node000007"><a xlink:title=" ">
<path fill="none" stroke="#63b8ff" d="M673.59,-127.92C697.14,-117.8 726.06,-105.38 747.88,-96.01"/>
<polygon fill="#63b8ff" stroke="#63b8ff" points="672.01,-124.79 664.2,-131.95 674.77,-131.22 672.01,-124.79"/>
</a>
</g>
</g>
<!-- Node8 -->
<g id="Node000008" class="node">
<title>Node8</title>
<g id="a_Node000008"><a xlink:href="namespace_8c.html" target="_top" xlink:title=" ">
<polygon fill="white" stroke="#666666" points="978.5,-96 858.5,-96 858.5,-66 978.5,-66 978.5,-96"/>
<text text-anchor="start" x="866.5" y="-84" font-family="Helvetica,sans-Serif" font-size="10.00">src/protocols/webdav</text>
<text text-anchor="middle" x="918.5" y="-73" font-family="Helvetica,sans-Serif" font-size="10.00">/namespace.c</text>
</a>
</g>
</g>
<!-- Node1&#45;&gt;Node8 -->
<g id="edge7_Node000001_Node000008" class="edge">
<title>Node1&#45;&gt;Node8</title>
<g id="a_edge7_Node000001_Node000008"><a xlink:title=" ">
<path fill="none" stroke="#63b8ff" d="M694.95,-131.85C743.69,-120.98 810.54,-106.07 858.42,-95.4"/>
<polygon fill="#63b8ff" stroke="#63b8ff" points="694.14,-128.44 685.15,-134.04 695.67,-135.28 694.14,-128.44"/>
</a>
</g>
</g>
<!-- Node9 -->
<g id="Node000009" class="node">
<title>Node9</title>
<g id="a_Node000009"><a xlink:href="propfind__internal_8h.html" target="_top" xlink:title=" ">
<polygon fill="white" stroke="#666666" points="1116.5,-96 996.5,-96 996.5,-66 1116.5,-66 1116.5,-96"/>
<text text-anchor="start" x="1004.5" y="-84" font-family="Helvetica,sans-Serif" font-size="10.00">src/protocols/webdav</text>
<text text-anchor="middle" x="1056.5" y="-73" font-family="Helvetica,sans-Serif" font-size="10.00">/propfind_internal.h</text>
</a>
</g>
</g>
<!-- Node1&#45;&gt;Node9 -->
<g id="edge8_Node000001_Node000009" class="edge">
<title>Node1&#45;&gt;Node9</title>
<g id="a_edge8_Node000001_Node000009"><a xlink:title=" ">
<path fill="none" stroke="#63b8ff" d="M695.21,-138.24C766.58,-129.26 885.63,-113.47 987.5,-96 990.39,-95.5 993.35,-94.98 996.33,-94.43"/>
<polygon fill="#63b8ff" stroke="#63b8ff" points="694.52,-134.79 685.03,-139.51 695.39,-141.74 694.52,-134.79"/>
</a>
</g>
</g>
<!-- Node13 -->
<g id="Node000013" class="node">
<title>Node13</title>
<g id="a_Node000013"><a xlink:href="search_8c.html" target="_top" xlink:title=" ">
<polygon fill="white" stroke="#666666" points="1254.5,-96 1134.5,-96 1134.5,-66 1254.5,-66 1254.5,-96"/>
<text text-anchor="start" x="1142.5" y="-84" font-family="Helvetica,sans-Serif" font-size="10.00">src/protocols/webdav</text>
<text text-anchor="middle" x="1194.5" y="-73" font-family="Helvetica,sans-Serif" font-size="10.00">/search.c</text>
</a>
</g>
</g>
<!-- Node1&#45;&gt;Node13 -->
<g id="edge12_Node000001_Node000013" class="edge">
<title>Node1&#45;&gt;Node13</title>
<g id="a_edge12_Node000001_Node000013"><a xlink:title=" ">
<path fill="none" stroke="#63b8ff" d="M695.32,-141.58C789.7,-134.58 971.88,-119.3 1125.5,-96 1128.4,-95.56 1131.36,-95.08 1134.35,-94.57"/>
<polygon fill="#63b8ff" stroke="#63b8ff" points="694.8,-138.11 685.08,-142.33 695.31,-145.09 694.8,-138.11"/>
</a>
</g>
</g>
<!-- Node10 -->
<g id="Node000010" class="node">
<title>Node10</title>
<g id="a_Node000010"><a xlink:href="propfind_8c.html" target="_top" xlink:title=" ">
<polygon fill="white" stroke="#666666" points="978.5,-30 858.5,-30 858.5,0 978.5,0 978.5,-30"/>
<text text-anchor="start" x="866.5" y="-18" font-family="Helvetica,sans-Serif" font-size="10.00">src/protocols/webdav</text>
<text text-anchor="middle" x="918.5" y="-7" font-family="Helvetica,sans-Serif" font-size="10.00">/propfind.c</text>
</a>
</g>
</g>
<!-- Node9&#45;&gt;Node10 -->
<g id="edge9_Node000009_Node000010" class="edge">
<title>Node9&#45;&gt;Node10</title>
<g id="a_edge9_Node000009_Node000010"><a xlink:title=" ">
<path fill="none" stroke="#63b8ff" d="M1016.93,-61.65C995.23,-51.58 968.74,-39.3 948.71,-30.01"/>
<polygon fill="#63b8ff" stroke="#63b8ff" points="1015.67,-64.92 1026.22,-65.95 1018.62,-58.57 1015.67,-64.92"/>
</a>
</g>
</g>
<!-- Node11 -->
<g id="Node000011" class="node">
<title>Node11</title>
<g id="a_Node000011"><a xlink:href="propfind__props_8c.html" target="_top" xlink:title=" ">
<polygon fill="white" stroke="#666666" points="1116.5,-30 996.5,-30 996.5,0 1116.5,0 1116.5,-30"/>
<text text-anchor="start" x="1004.5" y="-18" font-family="Helvetica,sans-Serif" font-size="10.00">src/protocols/webdav</text>
<text text-anchor="middle" x="1056.5" y="-7" font-family="Helvetica,sans-Serif" font-size="10.00">/propfind_props.c</text>
</a>
</g>
</g>
<!-- Node9&#45;&gt;Node11 -->
<g id="edge10_Node000009_Node000011" class="edge">
<title>Node9&#45;&gt;Node11</title>
<g id="a_edge10_Node000009_Node000011"><a xlink:title=" ">
<path fill="none" stroke="#63b8ff" d="M1056.5,-55.54C1056.5,-46.96 1056.5,-37.61 1056.5,-30.16"/>
<polygon fill="#63b8ff" stroke="#63b8ff" points="1053,-55.8 1056.5,-65.8 1060,-55.8 1053,-55.8"/>
</a>
</g>
</g>
<!-- Node12 -->
<g id="Node000012" class="node">
<title>Node12</title>
<g id="a_Node000012"><a xlink:href="propfind__walk_8c.html" target="_top" xlink:title=" ">
<polygon fill="white" stroke="#666666" points="1254.5,-30 1134.5,-30 1134.5,0 1254.5,0 1254.5,-30"/>
<text text-anchor="start" x="1142.5" y="-18" font-family="Helvetica,sans-Serif" font-size="10.00">src/protocols/webdav</text>
<text text-anchor="middle" x="1194.5" y="-7" font-family="Helvetica,sans-Serif" font-size="10.00">/propfind_walk.c</text>
</a>
</g>
</g>
<!-- Node9&#45;&gt;Node12 -->
<g id="edge11_Node000009_Node000012" class="edge">
<title>Node9&#45;&gt;Node12</title>
<g id="a_edge11_Node000009_Node000012"><a xlink:title=" ">
<path fill="none" stroke="#63b8ff" d="M1096.07,-61.65C1117.77,-51.58 1144.26,-39.3 1164.29,-30.01"/>
<polygon fill="#63b8ff" stroke="#63b8ff" points="1094.38,-58.57 1086.78,-65.95 1097.33,-64.92 1094.38,-58.57"/>
</a>
</g>
</g>
</g>
</svg>

<g id="navigator" transform="translate(0 0)" fill="#404254">
  <rect fill="#f2f5e9" fill-opacity="0.5" stroke="#606060" stroke-width=".5" x="0" y="0" width="60" height="60"/>
  <use id="zoomplus" xlink:href="#zoomPlus" x="17" y="9" onmousedown="handleZoom(evt,'in')"/>
  <use id="zoomminus" xlink:href="#zoomMin" x="42" y="9" onmousedown="handleZoom(evt,'out')"/>
  <use id="reset" xlink:href="#resetDef" x="30" y="36" onmousedown="handleReset()"/>
   <use id="arrowup" xlink:href="#arrowUp" x="0" y="0" onmousedown="handlePan(0,-1)"/>
  <use id="arrowright" xlink:href="#arrowRight" x="0" y="0" onmousedown="handlePan(1,0)"/>
  <use id="arrowdown" xlink:href="#arrowDown" x="0" y="0" onmousedown="handlePan(0,1)"/>
  <use id="arrowleft" xlink:href="#arrowLeft" x="0" y="0" onmousedown="handlePan(-1,0)"/>
</g>
<svg viewBox="0 0 15 15" width="100%" height="30px" preserveAspectRatio="xMaxYMin meet">
 <g id="arrow_out" transform="scale(0.3 0.3)">
  <a xlink:href="fs__walk_8h__dep__incl_org.svg" target="_base">
   <rect id="button" ry="5" rx="5" y="6" x="6" height="38" width="38"
        fill="#f2f5e9" fill-opacity="0.5" stroke="#606060" stroke-width="1.0"/>
   <path id="arrow"
     d="M 11.500037,31.436501 C 11.940474,20.09759 22.043105,11.32322 32.158766,21.979434 L 37.068811,17.246167 C 37.068811,17.246167 37.088388,32 37.088388,32 L 22.160133,31.978069 C 22.160133,31.978069 26.997745,27.140456 26.997745,27.140456 C 18.528582,18.264221 13.291696,25.230495 11.500037,31.436501 z"
     style="fill:#404040;"/>
  </a>
 </g>
</svg>

<style type='text/css'>
<![CDATA[
[data-mouse-over-selected='false'] { opacity: 0.7; }
[data-mouse-over-selected='true']  { opacity: 1.0; }
]]>
</style>
<script type="application/ecmascript"><![CDATA[
document.addEventListener('DOMContentLoaded', (event) => {
  highlightEdges();
  highlightAdjacentNodes();
});
]]></script>
</svg>
