<?xml version="1.0" encoding="UTF-8" standalone="no"?>
<!DOCTYPE svg PUBLIC "-//W3C//DTD SVG 1.1//EN"
 "http://www.w3.org/Graphics/SVG/1.1/DTD/svg11.dtd">
<!-- Generated by graphviz version 2.43.0 (0)
 -->
<!-- Title: src/protocols/gridftp/ftp_eblock.h Pages: 1 -->
<svg width="1432pt" height="236pt"
 viewBox="0.00 0.00 1432.00 236.00" xmlns="http://www.w3.org/2000/svg" xmlns:xlink="http://www.w3.org/1999/xlink">
<g id="graph0" class="graph" transform="scale(1 1) rotate(0) translate(4 232)">
<title>src/protocols/gridftp/ftp_eblock.h</title>
<!-- Node1 -->
<g id="Node000001" class="node">
<title>Node1</title>
<g id="a_Node000001"><a xlink:title=" ">
<polygon fill="#999999" stroke="#666666" points="760,-228 647,-228 647,-198 760,-198 760,-228"/>
<text text-anchor="start" x="655" y="-216" font-family="Helvetica,sans-Serif" font-size="10.00">src/protocols/gridftp</text>
<text text-anchor="middle" x="703.5" y="-205" font-family="Helvetica,sans-Serif" font-size="10.00">/ftp_eblock.h</text>
</a>
</g>
</g>
<!-- Node2 -->
<g id="Node000002" class="node">
<title>Node2</title>
<g id="a_Node000002"><a xlink:href="ftp__ev_8h.html" target="_top" xlink:title=" ">
<polygon fill="white" stroke="#666666" points="760,-162 647,-162 647,-132 760,-132 760,-162"/>
<text text-anchor="start" x="655" y="-150" font-family="Helvetica,sans-Serif" font-size="10.00">src/protocols/gridftp</text>
<text text-anchor="middle" x="703.5" y="-139" font-family="Helvetica,sans-Serif" font-size="10.00">/ev/ftp_ev.h</text>
</a>
</g>
</g>
<!-- Node1&#45;&gt;Node2 -->
<g id="edge1_Node000001_Node000002" class="edge">
<title>Node1&#45;&gt;Node2</title>
<g id="a_edge1_Node000001_Node000002"><a xlink:title=" ">
<path fill="none" stroke="#63b8ff" d="M703.5,-187.54C703.5,-178.96 703.5,-169.61 703.5,-162.16"/>
<polygon fill="#63b8ff" stroke="#63b8ff" points="700,-187.8 703.5,-197.8 707,-187.8 700,-187.8"/>
</a>
</g>
</g>
<!-- Node3 -->
<g id="Node000003" class="node">
<title>Node3</title>
<g id="a_Node000003"><a xlink:href="ftp__ev__cmd_8c.html" target="_top" xlink:title=" ">
<polygon fill="white" stroke="#666666" points="113,-96 0,-96 0,-66 113,-66 113,-96"/>
<text text-anchor="start" x="8" y="-84" font-family="Helvetica,sans-Serif" font-size="10.00">src/protocols/gridftp</text>
<text text-anchor="middle" x="56.5" y="-73" font-family="Helvetica,sans-Serif" font-size="10.00">/ev/ftp_ev_cmd.c</text>
</a>
</g>
</g>
<!-- Node2&#45;&gt;Node3 -->
<g id="edge2_Node000002_Node000003" class="edge">
<title>Node2&#45;&gt;Node3</title>
<g id="a_edge2_Node000002_Node000003"><a xlink:title=" ">
<path fill="none" stroke="#63b8ff" d="M636.47,-143C527.85,-137.52 306.83,-123.81 121.5,-96 118.76,-95.59 115.96,-95.13 113.14,-94.64"/>
<polygon fill="#63b8ff" stroke="#63b8ff" points="636.47,-146.5 646.63,-143.5 636.82,-139.51 636.47,-146.5"/>
</a>
</g>
</g>
<!-- Node4 -->
<g id="Node000004" class="node">
<title>Node4</title>
<g id="a_Node000004"><a xlink:href="ftp__ev__data_8c.html" target="_top" xlink:title=" ">
<polygon fill="white" stroke="#666666" points="244,-96 131,-96 131,-66 244,-66 244,-96"/>
<text text-anchor="start" x="139" y="-84" font-family="Helvetica,sans-Serif" font-size="10.00">src/protocols/gridftp</text>
<text text-anchor="middle" x="187.5" y="-73" font-family="Helvetica,sans-Serif" font-size="10.00">/ev/ftp_ev_data.c</text>
</a>
</g>
</g>
<!-- Node2&#45;&gt;Node4 -->
<g id="edge3_Node000002_Node000004" class="edge">
<title>Node2&#45;&gt;Node4</title>
<g id="a_edge3_Node000002_Node000004"><a xlink:title=" ">
<path fill="none" stroke="#63b8ff" d="M636.5,-140.72C548.16,-133.26 388.07,-118.06 252.5,-96 249.77,-95.56 246.97,-95.07 244.16,-94.56"/>
<polygon fill="#63b8ff" stroke="#63b8ff" points="636.39,-144.22 646.65,-141.57 636.97,-137.24 636.39,-144.22"/>
</a>
</g>
</g>
<!-- Node5 -->
<g id="Node000005" class="node">
<title>Node5</title>
<g id="a_Node000005"><a xlink:href="ftp__ev__dispatch_8c.html" target="_top" xlink:title=" ">
<polygon fill="white" stroke="#666666" points="381,-96 262,-96 262,-66 381,-66 381,-96"/>
<text text-anchor="start" x="270" y="-84" font-family="Helvetica,sans-Serif" font-size="10.00">src/protocols/gridftp</text>
<text text-anchor="middle" x="321.5" y="-73" font-family="Helvetica,sans-Serif" font-size="10.00">/ev/ftp_ev_dispatch.c</text>
</a>
</g>
</g>
<!-- Node2&#45;&gt;Node5 -->
<g id="edge4_Node000002_Node000005" class="edge">
<title>Node2&#45;&gt;Node5</title>
<g id="a_edge4_Node000002_Node000005"><a xlink:title=" ">
<path fill="none" stroke="#63b8ff" d="M637.02,-136.3C573.36,-126.81 474.68,-111.54 389.5,-96 386.77,-95.5 383.99,-94.98 381.17,-94.44"/>
<polygon fill="#63b8ff" stroke="#63b8ff" points="636.52,-139.77 646.93,-137.78 637.55,-132.85 636.52,-139.77"/>
</a>
</g>
</g>
<!-- Node6 -->
<g id="Node000006" class="node">
<title>Node6</title>
<g id="a_Node000006"><a xlink:href="ftp__ev__io_8c.html" target="_top" xlink:title=" ">
<polygon fill="white" stroke="#666666" points="512,-96 399,-96 399,-66 512,-66 512,-96"/>
<text text-anchor="start" x="407" y="-84" font-family="Helvetica,sans-Serif" font-size="10.00">src/protocols/gridftp</text>
<text text-anchor="middle" x="455.5" y="-73" font-family="Helvetica,sans-Serif" font-size="10.00">/ev/ftp_ev_io.c</text>
</a>
</g>
</g>
<!-- Node2&#45;&gt;Node6 -->
<g id="edge5_Node000002_Node000006" class="edge">
<title>Node2&#45;&gt;Node6</title>
<g id="a_edge5_Node000002_Node000006"><a xlink:title=" ">
<path fill="none" stroke="#63b8ff" d="M639.37,-129.45C599.19,-119.08 547.97,-105.86 509.8,-96.01"/>
<polygon fill="#63b8ff" stroke="#63b8ff" points="638.52,-132.85 649.08,-131.95 640.27,-126.07 638.52,-132.85"/>
</a>
</g>
</g>
<!-- Node7 -->
<g id="Node000007" class="node">
<title>Node7</title>
<g id="a_Node000007"><a xlink:href="ftp__ev__mode__e_8c.html" target="_top" xlink:title=" ">
<polygon fill="white" stroke="#666666" points="634,-30 517,-30 517,0 634,0 634,-30"/>
<text text-anchor="start" x="525" y="-18" font-family="Helvetica,sans-Serif" font-size="10.00">src/protocols/gridftp</text>
<text text-anchor="middle" x="575.5" y="-7" font-family="Helvetica,sans-Serif" font-size="10.00">/ev/ftp_ev_mode_e.c</text>
</a>
</g>
</g>
<!-- Node2&#45;&gt;Node7 -->
<g id="edge6_Node000002_Node000007" class="edge">
<title>Node2&#45;&gt;Node7</title>
<g id="a_edge6_Node000002_Node000007"><a xlink:title=" ">
<path fill="none" stroke="#63b8ff" d="M636.92,-139.84C608.2,-133.49 577.2,-120.88 559.5,-96 545.46,-76.26 557.32,-47.2 566.74,-30.07"/>
<polygon fill="#63b8ff" stroke="#63b8ff" points="636.46,-143.32 646.95,-141.83 637.83,-136.45 636.46,-143.32"/>
</a>
</g>
</g>
<!-- Node8 -->
<g id="Node000008" class="node">
<title>Node8</title>
<g id="a_Node000008"><a xlink:href="ftp__ev__mode__e__internal_8h.html" target="_top" xlink:title=" ">
<polygon fill="white" stroke="#666666" points="730,-96 569,-96 569,-66 730,-66 730,-96"/>
<text text-anchor="start" x="577" y="-84" font-family="Helvetica,sans-Serif" font-size="10.00">src/protocols/gridftp</text>
<text text-anchor="middle" x="649.5" y="-73" font-family="Helvetica,sans-Serif" font-size="10.00">/ev/ftp_ev_mode_e_internal.h</text>
</a>
</g>
</g>
<!-- Node2&#45;&gt;Node8 -->
<g id="edge7_Node000002_Node000008" class="edge">
<title>Node2&#45;&gt;Node8</title>
<g id="a_edge7_Node000002_Node000008"><a xlink:title=" ">
<path fill="none" stroke="#63b8ff" d="M685.01,-124.09C677.22,-114.85 668.37,-104.36 661.45,-96.16"/>
<polygon fill="#63b8ff" stroke="#63b8ff" points="682.39,-126.41 691.52,-131.8 687.74,-121.9 682.39,-126.41"/>
</a>
</g>
</g>
<!-- Node9 -->
<g id="Node000009" class="node">
<title>Node9</title>
<g id="a_Node000009"><a xlink:href="ftp__ev__mode__e__recv_8c.html" target="_top" xlink:title=" ">
<polygon fill="white" stroke="#666666" points="812,-30 669,-30 669,0 812,0 812,-30"/>
<text text-anchor="start" x="677" y="-18" font-family="Helvetica,sans-Serif" font-size="10.00">src/protocols/gridftp</text>
<text text-anchor="middle" x="740.5" y="-7" font-family="Helvetica,sans-Serif" font-size="10.00">/ev/ftp_ev_mode_e_recv.c</text>
</a>
</g>
</g>
<!-- Node2&#45;&gt;Node9 -->
<g id="edge10_Node000002_Node000009" class="edge">
<title>Node2&#45;&gt;Node9</title>
<g id="a_edge10_Node000002_Node000009"><a xlink:title=" ">
<path fill="none" stroke="#63b8ff" d="M723.97,-123.74C730.18,-115.61 736.22,-105.95 739.5,-96 746.8,-73.84 744.95,-46.31 742.82,-30"/>
<polygon fill="#63b8ff" stroke="#63b8ff" points="721.16,-121.65 717.55,-131.61 726.58,-126.08 721.16,-121.65"/>
</a>
</g>
</g>
<!-- Node10 -->
<g id="Node000010" class="node">
<title>Node10</title>
<g id="a_Node000010"><a xlink:href="ftp__ev__path_8c.html" target="_top" xlink:title=" ">
<polygon fill="white" stroke="#666666" points="900,-96 787,-96 787,-66 900,-66 900,-96"/>
<text text-anchor="start" x="795" y="-84" font-family="Helvetica,sans-Serif" font-size="10.00">src/protocols/gridftp</text>
<text text-anchor="middle" x="843.5" y="-73" font-family="Helvetica,sans-Serif" font-size="10.00">/ev/ftp_ev_path.c</text>
</a>
</g>
</g>
<!-- Node2&#45;&gt;Node10 -->
<g id="edge11_Node000002_Node000010" class="edge">
<title>Node2&#45;&gt;Node10</title>
<g id="a_edge11_Node000002_Node000010"><a xlink:title=" ">
<path fill="none" stroke="#63b8ff" d="M743.35,-127.78C765.42,-117.69 792.44,-105.34 812.85,-96.01"/>
<polygon fill="#63b8ff" stroke="#63b8ff" points="741.86,-124.61 734.22,-131.95 744.77,-130.98 741.86,-124.61"/>
</a>
</g>
</g>
<!-- Node11 -->
<g id="Node000011" class="node">
<title>Node11</title>
<g id="a_Node000011"><a xlink:href="ftp__ev__reply_8c.html" target="_top" xlink:title=" ">
<polygon fill="white" stroke="#666666" points="1031,-96 918,-96 918,-66 1031,-66 1031,-96"/>
<text text-anchor="start" x="926" y="-84" font-family="Helvetica,sans-Serif" font-size="10.00">src/protocols/gridftp</text>
<text text-anchor="middle" x="974.5" y="-73" font-family="Helvetica,sans-Serif" font-size="10.00">/ev/ftp_ev_reply.c</text>
</a>
</g>
</g>
<!-- Node2&#45;&gt;Node11 -->
<g id="edge12_Node000002_Node000011" class="edge">
<title>Node2&#45;&gt;Node11</title>
<g id="a_edge12_Node000002_Node000011"><a xlink:title=" ">
<path fill="none" stroke="#63b8ff" d="M770.05,-130.28C815.36,-119.58 874.69,-105.57 917.76,-95.4"/>
<polygon fill="#63b8ff" stroke="#63b8ff" points="769.24,-126.88 760.31,-132.58 770.85,-133.69 769.24,-126.88"/>
</a>
</g>
</g>
<!-- Node12 -->
<g id="Node000012" class="node">
<title>Node12</title>
<g id="a_Node000012"><a xlink:href="ftp__ev__sec_8c.html" target="_top" xlink:title=" ">
<polygon fill="white" stroke="#666666" points="1162,-96 1049,-96 1049,-66 1162,-66 1162,-96"/>
<text text-anchor="start" x="1057" y="-84" font-family="Helvetica,sans-Serif" font-size="10.00">src/protocols/gridftp</text>
<text text-anchor="middle" x="1105.5" y="-73" font-family="Helvetica,sans-Serif" font-size="10.00">/ev/ftp_ev_sec.c</text>
</a>
</g>
</g>
<!-- Node2&#45;&gt;Node12 -->
<g id="edge13_Node000002_Node000012" class="edge">
<title>Node2&#45;&gt;Node12</title>
<g id="a_edge13_Node000002_Node000012"><a xlink:title=" ">
<path fill="none" stroke="#63b8ff" d="M770.2,-137.4C838.33,-128.32 947.09,-112.97 1040.5,-96 1043.23,-95.5 1046.01,-94.98 1048.82,-94.43"/>
<polygon fill="#63b8ff" stroke="#63b8ff" points="769.48,-133.97 760.03,-138.75 770.41,-140.91 769.48,-133.97"/>
</a>
</g>
</g>
<!-- Node13 -->
<g id="Node000013" class="node">
<title>Node13</title>
<g id="a_Node000013"><a xlink:href="ftp__ev__tls_8c.html" target="_top" xlink:title=" ">
<polygon fill="white" stroke="#666666" points="1293,-96 1180,-96 1180,-66 1293,-66 1293,-96"/>
<text text-anchor="start" x="1188" y="-84" font-family="Helvetica,sans-Serif" font-size="10.00">src/protocols/gridftp</text>
<text text-anchor="middle" x="1236.5" y="-73" font-family="Helvetica,sans-Serif" font-size="10.00">/ev/ftp_ev_tls.c</text>
</a>
</g>
</g>
<!-- Node2&#45;&gt;Node13 -->
<g id="edge14_Node000002_Node000013" class="edge">
<title>Node2&#45;&gt;Node13</title>
<g id="a_edge14_Node000002_Node000013"><a xlink:title=" ">
<path fill="none" stroke="#63b8ff" d="M770.49,-141.08C861.61,-133.88 1029.53,-118.81 1171.5,-96 1174.24,-95.56 1177.03,-95.08 1179.85,-94.57"/>
<polygon fill="#63b8ff" stroke="#63b8ff" points="770,-137.61 760.31,-141.88 770.55,-144.59 770,-137.61"/>
</a>
</g>
</g>
<!-- Node14 -->
<g id="Node000014" class="node">
<title>Node14</title>
<g id="a_Node000014"><a xlink:href="ftp__ev__xfer_8c.html" target="_top" xlink:title=" ">
<polygon fill="white" stroke="#666666" points="1424,-96 1311,-96 1311,-66 1424,-66 1424,-96"/>
<text text-anchor="start" x="1319" y="-84" font-family="Helvetica,sans-Serif" font-size="10.00">src/protocols/gridftp</text>
<text text-anchor="middle" x="1367.5" y="-73" font-family="Helvetica,sans-Serif" font-size="10.00">/ev/ftp_ev_xfer.c</text>
</a>
</g>
</g>
<!-- Node2&#45;&gt;Node14 -->
<g id="edge15_Node000002_Node000014" class="edge">
<title>Node2&#45;&gt;Node14</title>
<g id="a_edge15_Node000002_Node000014"><a xlink:title=" ">
<path fill="none" stroke="#63b8ff" d="M770.4,-143.23C881.44,-138.01 1110.57,-124.56 1302.5,-96 1305.24,-95.59 1308.04,-95.14 1310.86,-94.65"/>
<polygon fill="#63b8ff" stroke="#63b8ff" points="770.18,-139.74 760.35,-143.7 770.5,-146.73 770.18,-139.74"/>
</a>
</g>
</g>
<!-- Node8&#45;&gt;Node7 -->
<g id="edge8_Node000008_Node000007" class="edge">
<title>Node8&#45;&gt;Node7</title>
<g id="a_edge8_Node000008_Node000007"><a xlink:title=" ">
<path fill="none" stroke="#63b8ff" d="M625.45,-59.2C614.47,-49.7 601.74,-38.69 591.88,-30.16"/>
<polygon fill="#63b8ff" stroke="#63b8ff" points="623.22,-61.9 633.08,-65.8 627.8,-56.61 623.22,-61.9"/>
</a>
</g>
</g>
<!-- Node8&#45;&gt;Node9 -->
<g id="edge9_Node000008_Node000009" class="edge">
<title>Node8&#45;&gt;Node9</title>
<g id="a_edge9_Node000008_Node000009"><a xlink:title=" ">
<path fill="none" stroke="#63b8ff" d="M677.9,-60.03C691.67,-50.34 707.88,-38.94 720.36,-30.16"/>
<polygon fill="#63b8ff" stroke="#63b8ff" points="675.86,-57.18 669.7,-65.8 679.89,-62.91 675.86,-57.18"/>
</a>
</g>
</g>
</g>
</svg>
