<?xml version="1.0" encoding="UTF-8" standalone="no"?>
<!DOCTYPE svg PUBLIC "-//W3C//DTD SVG 1.1//EN"
 "http://www.w3.org/Graphics/SVG/1.1/DTD/svg11.dtd">
<!-- Generated by graphviz version 2.43.0 (0)
 -->
<!-- Title: src/core/compat/host_split.h Pages: 1 -->
<svg width="554pt" height="104pt"
 viewBox="0.00 0.00 553.50 104.00" xmlns="http://www.w3.org/2000/svg" xmlns:xlink="http://www.w3.org/1999/xlink">
<g id="graph0" class="graph" transform="scale(1 1) rotate(0) translate(4 100)">
<title>src/core/compat/host_split.h</title>
<!-- Node1 -->
<g id="Node000001" class="node">
<title>Node1</title>
<g id="a_Node000001"><a xlink:title=" ">
<polygon fill="#999999" stroke="#666666" points="340.5,-96 221.5,-96 221.5,-66 340.5,-66 340.5,-96"/>
<text text-anchor="start" x="229.5" y="-84" font-family="Helvetica,sans-Serif" font-size="10.00">src/core/compat/host</text>
<text text-anchor="middle" x="281" y="-73" font-family="Helvetica,sans-Serif" font-size="10.00">_split.h</text>
</a>
</g>
</g>
<!-- Node2 -->
<g id="Node000002" class="node">
<title>Node2</title>
<g id="a_Node000002"><a xlink:href="xrdmapc_8c.html" target="_top" xlink:title=" ">
<polygon fill="white" stroke="#666666" points="148,-24.5 0,-24.5 0,-5.5 148,-5.5 148,-24.5"/>
<text text-anchor="middle" x="74" y="-12.5" font-family="Helvetica,sans-Serif" font-size="10.00">client/apps/diag/xrdmapc.c</text>
</a>
</g>
</g>
<!-- Node1&#45;&gt;Node2 -->
<g id="edge1_Node000001_Node000002" class="edge">
<title>Node1&#45;&gt;Node2</title>
<g id="a_edge1_Node000001_Node000002"><a xlink:title=" ">
<path fill="none" stroke="#63b8ff" d="M225.92,-62.97C185.81,-50.57 133.16,-34.29 101.55,-24.52"/>
<polygon fill="#63b8ff" stroke="#63b8ff" points="224.99,-66.34 235.57,-65.95 227.05,-59.66 224.99,-66.34"/>
</a>
</g>
</g>
<!-- Node3 -->
<g id="Node000003" class="node">
<title>Node3</title>
<g id="a_Node000003"><a xlink:href="url_8c.html" target="_top" xlink:title=" ">
<polygon fill="white" stroke="#666666" points="267.5,-24.5 166.5,-24.5 166.5,-5.5 267.5,-5.5 267.5,-24.5"/>
<text text-anchor="middle" x="217" y="-12.5" font-family="Helvetica,sans-Serif" font-size="10.00">client/lib/net/url.c</text>
</a>
</g>
</g>
<!-- Node1&#45;&gt;Node3 -->
<g id="edge2_Node000001_Node000003" class="edge">
<title>Node1&#45;&gt;Node3</title>
<g id="a_edge2_Node000001_Node000003"><a xlink:title=" ">
<path fill="none" stroke="#63b8ff" d="M259.6,-58.6C248.1,-47.1 234.52,-33.52 225.84,-24.84"/>
<polygon fill="#63b8ff" stroke="#63b8ff" points="257.25,-61.2 266.8,-65.8 262.2,-56.25 257.25,-61.2"/>
</a>
</g>
</g>
<!-- Node4 -->
<g id="Node000004" class="node">
<title>Node4</title>
<g id="a_Node000004"><a xlink:href="host__split_8c.html" target="_top" xlink:title=" ">
<polygon fill="white" stroke="#666666" points="404.5,-30 285.5,-30 285.5,0 404.5,0 404.5,-30"/>
<text text-anchor="start" x="293.5" y="-18" font-family="Helvetica,sans-Serif" font-size="10.00">src/core/compat/host</text>
<text text-anchor="middle" x="345" y="-7" font-family="Helvetica,sans-Serif" font-size="10.00">_split.c</text>
</a>
</g>
</g>
<!-- Node1&#45;&gt;Node4 -->
<g id="edge3_Node000001_Node000004" class="edge">
<title>Node1&#45;&gt;Node4</title>
<g id="a_edge3_Node000001_Node000004"><a xlink:title=" ">
<path fill="none" stroke="#63b8ff" d="M302.35,-58.65C311.73,-49.27 322.47,-38.53 330.84,-30.16"/>
<polygon fill="#63b8ff" stroke="#63b8ff" points="299.8,-56.25 295.2,-65.8 304.75,-61.2 299.8,-56.25"/>
</a>
</g>
</g>
<!-- Node5 -->
<g id="Node000005" class="node">
<title>Node5</title>
<g id="a_Node000005"><a xlink:href="parse_8c.html" target="_top" xlink:title=" ">
<polygon fill="white" stroke="#666666" points="545.5,-24.5 422.5,-24.5 422.5,-5.5 545.5,-5.5 545.5,-24.5"/>
<text text-anchor="middle" x="484" y="-12.5" font-family="Helvetica,sans-Serif" font-size="10.00">src/tpc/engine/parse.c</text>
</a>
</g>
</g>
<!-- Node1&#45;&gt;Node5 -->
<g id="edge4_Node000001_Node000005" class="edge">
<title>Node1&#45;&gt;Node5</title>
<g id="a_edge4_Node000001_Node000005"><a xlink:title=" ">
<path fill="none" stroke="#63b8ff" d="M335.26,-62.89C374.57,-50.5 426.05,-34.27 456.98,-24.52"/>
<polygon fill="#63b8ff" stroke="#63b8ff" points="334.03,-59.61 325.55,-65.95 336.14,-66.29 334.03,-59.61"/>
</a>
</g>
</g>
</g>
</svg>
