<?xml version="1.0" encoding="UTF-8" standalone="no"?>
<!DOCTYPE svg PUBLIC "-//W3C//DTD SVG 1.1//EN"
 "http://www.w3.org/Graphics/SVG/1.1/DTD/svg11.dtd">
<!-- Generated by graphviz version 2.43.0 (0)
 -->
<!-- Title: src/core/http/http_body.h Pages: 1 -->
<!--zoomable 170 -->

<svg id="main" version="1.1" xmlns="http://www.w3.org/2000/svg" xmlns:xlink="http://www.w3.org/1999/xlink" xml:space="preserve" onload="init(evt)">
<style type="text/css"><![CDATA[
.node, .edge {opacity: 0.7;}
.node.selected, .edge.selected {opacity: 1;}
.edge:hover path { stroke: red; }
.edge:hover polygon { stroke: red; fill: red; }
]]></style>

<defs>
  <circle id="rim" cx="0" cy="0" r="7"/>
  <circle id="rim2" cx="0" cy="0" r="3.5"/>
  <g id="zoomPlus">
    <use xlink:href="#rim" fill="#404040"><set attributeName="fill" to="#808080" begin="zoomplus.mouseover" end="zoomplus.mouseout"/></use>
    <path d="M-4,0h8M0,-4v8" fill="none" stroke="white" stroke-width="1.5" pointer-events="none"/>
  </g>
  <g id="zoomMin">
    <use xlink:href="#rim" fill="#404040"><set attributeName="fill" to="#808080" begin="zoomminus.mouseover" end="zoomminus.mouseout"/></use>
    <path d="M-4,0h8" fill="none" stroke="white" stroke-width="1.5" pointer-events="none"/>
  </g>
  <g id="arrowUp" transform="translate(30 24)">
    <use xlink:href="#rim"/>
    <path pointer-events="none" fill="none" stroke="white" stroke-width="1.5" d="M0,-3.0v7 M-2.5,-0.5L0,-3.0L2.5,-0.5"/>
  </g>
  <g id="arrowRight" transform="rotate(90) translate(36 -43)">
    <use xlink:href="#rim"/>
    <path pointer-events="none" fill="none" stroke="white" stroke-width="1.5" d="M0,-3.0v7 M-2.5,-0.5L0,-3.0L2.5,-0.5"/>
  </g>
  <g id="arrowDown" transform="rotate(180) translate(-30 -48)">
    <use xlink:href="#rim"/>
    <path pointer-events="none" fill="none" stroke="white" stroke-width="1.5" d="M0,-3.0v7 M-2.5,-0.5L0,-3.0L2.5,-0.5"/>
  </g>
  <g id="arrowLeft" transform="rotate(270) translate(-36 17)">
    <use xlink:href="#rim"/>
    <path pointer-events="none" fill="none" stroke="white" stroke-width="1.5" d="M0,-3.0v7 M-2.5,-0.5L0,-3.0L2.5,-0.5"/>
  </g>
  <g id="resetDef">
    <use xlink:href="#rim2" fill="#404040"><set attributeName="fill" to="#808080" begin="reset.mouseover" end="reset.mouseout"/></use>
  </g>
</defs>
<script type="application/ecmascript">
var viewWidth = 3694;
var viewHeight = 170;
var sectionId = 'dynsection-1';
</script>
<script type="application/ecmascript" xlink:href="svg.min.js"/>
<svg id="graph" class="graph">
<g id="viewport">
<title>src/core/http/http_body.h</title>
<!-- Node1 -->
<g id="Node000001" class="node">
<title>Node1</title>
<g id="a_Node000001"><a xlink:title=" ">
<polygon fill="#999999" stroke="#666666" points="1828,-162 1728,-162 1728,-132 1828,-132 1828,-162"/>
<text text-anchor="start" x="1736" y="-150" font-family="Helvetica,sans-Serif" font-size="10.00">src/core/http/http</text>
<text text-anchor="middle" x="1778" y="-139" font-family="Helvetica,sans-Serif" font-size="10.00">_body.h</text>
</a>
</g>
</g>
<!-- Node2 -->
<g id="Node000002" class="node">
<title>Node2</title>
<g id="a_Node000002"><a xlink:href="http__body_8c.html" target="_top" xlink:title=" ">
<polygon fill="white" stroke="#666666" points="100,-96 0,-96 0,-66 100,-66 100,-96"/>
<text text-anchor="start" x="8" y="-84" font-family="Helvetica,sans-Serif" font-size="10.00">src/core/http/http</text>
<text text-anchor="middle" x="50" y="-73" font-family="Helvetica,sans-Serif" font-size="10.00">_body.c</text>
</a>
</g>
</g>
<!-- Node1&#45;&gt;Node2 -->
<g id="edge1_Node000001_Node000002" class="edge">
<title>Node1&#45;&gt;Node2</title>
<g id="a_edge1_Node000001_Node000002"><a xlink:title=" ">
<path fill="none" stroke="#63b8ff" d="M1717.61,-145.83C1457.23,-144.86 429.31,-138.35 109,-96 106.08,-95.61 103.09,-95.14 100.08,-94.61"/>
<polygon fill="#63b8ff" stroke="#63b8ff" points="1717.98,-149.33 1727.99,-145.87 1718,-142.33 1717.98,-149.33"/>
</a>
</g>
</g>
<!-- Node3 -->
<g id="Node000003" class="node">
<title>Node3</title>
<g id="a_Node000003"><a xlink:href="http__body__decode_8c.html" target="_top" xlink:title=" ">
<polygon fill="white" stroke="#666666" points="218,-96 118,-96 118,-66 218,-66 218,-96"/>
<text text-anchor="start" x="126" y="-84" font-family="Helvetica,sans-Serif" font-size="10.00">src/core/http/http</text>
<text text-anchor="middle" x="168" y="-73" font-family="Helvetica,sans-Serif" font-size="10.00">_body_decode.c</text>
</a>
</g>
</g>
<!-- Node1&#45;&gt;Node3 -->
<g id="edge2_Node000001_Node000003" class="edge">
<title>Node1&#45;&gt;Node3</title>
<g id="a_edge2_Node000001_Node000003"><a xlink:title=" ">
<path fill="none" stroke="#63b8ff" d="M1717.43,-145.67C1468.42,-144.07 522.84,-135.46 227,-96 224.08,-95.61 221.09,-95.14 218.08,-94.61"/>
<polygon fill="#63b8ff" stroke="#63b8ff" points="1717.7,-149.17 1727.72,-145.74 1717.74,-142.17 1717.7,-149.17"/>
</a>
</g>
</g>
<!-- Node4 -->
<g id="Node000004" class="node">
<title>Node4</title>
<g id="a_Node000004"><a xlink:href="http__mirror_8c.html" target="_top" xlink:title=" ">
<polygon fill="white" stroke="#666666" points="341.5,-96 236.5,-96 236.5,-66 341.5,-66 341.5,-96"/>
<text text-anchor="start" x="244.5" y="-84" font-family="Helvetica,sans-Serif" font-size="10.00">src/net/mirror/http</text>
<text text-anchor="middle" x="289" y="-73" font-family="Helvetica,sans-Serif" font-size="10.00">_mirror.c</text>
</a>
</g>
</g>
<!-- Node1&#45;&gt;Node4 -->
<g id="edge3_Node000001_Node000004" class="edge">
<title>Node1&#45;&gt;Node4</title>
<g id="a_edge3_Node000001_Node000004"><a xlink:title=" ">
<path fill="none" stroke="#63b8ff" d="M1717.61,-145.42C1481.51,-142.91 620.69,-131.47 350,-96 347.31,-95.65 344.56,-95.23 341.79,-94.76"/>
<polygon fill="#63b8ff" stroke="#63b8ff" points="1717.68,-148.92 1727.72,-145.52 1717.76,-141.92 1717.68,-148.92"/>
</a>
</g>
</g>
<!-- Node5 -->
<g id="Node000005" class="node">
<title>Node5</title>
<g id="a_Node000005"><a xlink:href="http__mirror__request_8c.html" target="_top" xlink:title=" ">
<polygon fill="white" stroke="#666666" points="464.5,-96 359.5,-96 359.5,-66 464.5,-66 464.5,-96"/>
<text text-anchor="start" x="367.5" y="-84" font-family="Helvetica,sans-Serif" font-size="10.00">src/net/mirror/http</text>
<text text-anchor="middle" x="412" y="-73" font-family="Helvetica,sans-Serif" font-size="10.00">_mirror_request.c</text>
</a>
</g>
</g>
<!-- Node1&#45;&gt;Node5 -->
<g id="edge4_Node000001_Node000005" class="edge">
<title>Node1&#45;&gt;Node5</title>
<g id="a_edge4_Node000001_Node000005"><a xlink:title=" ">
<path fill="none" stroke="#63b8ff" d="M1717.72,-145.19C1494.96,-141.96 718.44,-128.58 473,-96 470.31,-95.64 467.56,-95.22 464.79,-94.75"/>
<polygon fill="#63b8ff" stroke="#63b8ff" points="1717.86,-148.69 1727.91,-145.34 1717.96,-141.69 1717.86,-148.69"/>
</a>
</g>
</g>
<!-- Node6 -->
<g id="Node000006" class="node">
<title>Node6</title>
<g id="a_Node000006"><a xlink:href="write__compress_8c.html" target="_top" xlink:title=" ">
<polygon fill="white" stroke="#666666" points="615.5,-96 482.5,-96 482.5,-66 615.5,-66 615.5,-96"/>
<text text-anchor="start" x="490.5" y="-84" font-family="Helvetica,sans-Serif" font-size="10.00">src/protocols/root</text>
<text text-anchor="middle" x="549" y="-73" font-family="Helvetica,sans-Serif" font-size="10.00">/write/write_compress.c</text>
</a>
</g>
</g>
<!-- Node1&#45;&gt;Node6 -->
<g id="edge5_Node000001_Node000006" class="edge">
<title>Node1&#45;&gt;Node6</title>
<g id="a_edge5_Node000001_Node000006"><a xlink:title=" ">
<path fill="none" stroke="#63b8ff" d="M1717.65,-146.38C1545.97,-146.82 1040.36,-143.64 624,-96 621.24,-95.68 618.42,-95.33 615.58,-94.93"/>
<polygon fill="#63b8ff" stroke="#63b8ff" points="1717.76,-149.88 1727.75,-146.35 1717.74,-142.88 1717.76,-149.88"/>
</a>
</g>
</g>
<!-- Node7 -->
<g id="Node000007" class="node">
<title>Node7</title>
<g id="a_Node000007"><a xlink:href="delete__objects_8c.html" target="_top" xlink:title=" ">
<polygon fill="white" stroke="#666666" points="760.5,-96 633.5,-96 633.5,-66 760.5,-66 760.5,-96"/>
<text text-anchor="start" x="641.5" y="-84" font-family="Helvetica,sans-Serif" font-size="10.00">src/protocols/s3/delete</text>
<text text-anchor="middle" x="697" y="-73" font-family="Helvetica,sans-Serif" font-size="10.00">_objects.c</text>
</a>
</g>
</g>
<!-- Node1&#45;&gt;Node7 -->
<g id="edge6_Node000001_Node000007" class="edge">
<title>Node1&#45;&gt;Node7</title>
<g id="a_edge6_Node000001_Node000007"><a xlink:title=" ">
<path fill="none" stroke="#63b8ff" d="M1717.6,-145.94C1560.7,-145.16 1127.55,-138.94 770,-96 766.92,-95.63 763.78,-95.21 760.62,-94.74"/>
<polygon fill="#63b8ff" stroke="#63b8ff" points="1717.96,-149.44 1727.97,-145.99 1717.99,-142.44 1717.96,-149.44"/>
</a>
</g>
</g>
<!-- Node8 -->
<g id="Node000008" class="node">
<title>Node8</title>
<g id="a_Node000008"><a xlink:href="protocols_2s3_2handler_8c.html" target="_top" xlink:title=" ">
<polygon fill="white" stroke="#666666" points="919,-90.5 779,-90.5 779,-71.5 919,-71.5 919,-90.5"/>
<text text-anchor="middle" x="849" y="-78.5" font-family="Helvetica,sans-Serif" font-size="10.00">src/protocols/s3/handler.c</text>
</a>
</g>
</g>
<!-- Node1&#45;&gt;Node8 -->
<g id="edge7_Node000001_Node000008" class="edge">
<title>Node1&#45;&gt;Node8</title>
<g id="a_edge7_Node000001_Node000008"><a xlink:title=" ">
<path fill="none" stroke="#63b8ff" d="M1717.45,-144.86C1577.83,-141.71 1222.69,-130.66 928,-96 916.24,-94.62 903.58,-92.61 891.92,-90.54"/>
<polygon fill="#63b8ff" stroke="#63b8ff" points="1717.45,-148.36 1727.52,-145.08 1717.6,-141.36 1717.45,-148.36"/>
</a>
</g>
</g>
<!-- Node9 -->
<g id="Node000009" class="node">
<title>Node9</title>
<g id="a_Node000009"><a xlink:href="handler__dispatch_8c.html" target="_top" xlink:title=" ">
<polygon fill="white" stroke="#666666" points="1070.5,-96 937.5,-96 937.5,-66 1070.5,-66 1070.5,-96"/>
<text text-anchor="start" x="945.5" y="-84" font-family="Helvetica,sans-Serif" font-size="10.00">src/protocols/s3/handler</text>
<text text-anchor="middle" x="1004" y="-73" font-family="Helvetica,sans-Serif" font-size="10.00">_dispatch.c</text>
</a>
</g>
</g>
<!-- Node1&#45;&gt;Node9 -->
<g id="edge8_Node000001_Node000009" class="edge">
<title>Node1&#45;&gt;Node9</title>
<g id="a_edge8_Node000001_Node000009"><a xlink:title=" ">
<path fill="none" stroke="#63b8ff" d="M1717.6,-143.98C1596.19,-139.42 1314.09,-126.25 1079,-96 1076.24,-95.64 1073.43,-95.25 1070.59,-94.84"/>
<polygon fill="#63b8ff" stroke="#63b8ff" points="1717.68,-147.49 1727.8,-144.36 1717.94,-140.49 1717.68,-147.49"/>
</a>
</g>
</g>
<!-- Node10 -->
<g id="Node000010" class="node">
<title>Node10</title>
<g id="a_Node000010"><a xlink:href="handler__object__route_8c.html" target="_top" xlink:title=" ">
<polygon fill="white" stroke="#666666" points="1221.5,-96 1088.5,-96 1088.5,-66 1221.5,-66 1221.5,-96"/>
<text text-anchor="start" x="1096.5" y="-84" font-family="Helvetica,sans-Serif" font-size="10.00">src/protocols/s3/handler</text>
<text text-anchor="middle" x="1155" y="-73" font-family="Helvetica,sans-Serif" font-size="10.00">_object_route.c</text>
</a>
</g>
</g>
<!-- Node1&#45;&gt;Node10 -->
<g id="edge9_Node000001_Node000010" class="edge">
<title>Node1&#45;&gt;Node10</title>
<g id="a_edge9_Node000001_Node000010"><a xlink:title=" ">
<path fill="none" stroke="#63b8ff" d="M1717.93,-142.37C1616.87,-135.84 1406.57,-120.48 1230,-96 1227.24,-95.62 1224.44,-95.2 1221.6,-94.77"/>
<polygon fill="#63b8ff" stroke="#63b8ff" points="1717.75,-145.86 1727.95,-143.01 1718.2,-138.87 1717.75,-145.86"/>
</a>
</g>
</g>
<!-- Node11 -->
<g id="Node000011" class="node">
<title>Node11</title>
<g id="a_Node000011"><a xlink:href="s3__post__internal_8h.html" target="_top" xlink:title=" ">
<polygon fill="white" stroke="#666666" points="1346.5,-96 1239.5,-96 1239.5,-66 1346.5,-66 1346.5,-96"/>
<text text-anchor="start" x="1247.5" y="-84" font-family="Helvetica,sans-Serif" font-size="10.00">src/protocols/s3/s3</text>
<text text-anchor="middle" x="1293" y="-73" font-family="Helvetica,sans-Serif" font-size="10.00">_post_internal.h</text>
</a>
</g>
</g>
<!-- Node1&#45;&gt;Node11 -->
<g id="edge10_Node000001_Node000011" class="edge">
<title>Node1&#45;&gt;Node11</title>
<g id="a_edge10_Node000001_Node000011"><a xlink:title=" ">
<path fill="none" stroke="#63b8ff" d="M1717.77,-140.88C1635.47,-133.42 1483.43,-118.03 1355,-96 1352.28,-95.53 1349.5,-95.02 1346.7,-94.49"/>
<polygon fill="#63b8ff" stroke="#63b8ff" points="1717.67,-144.38 1727.94,-141.79 1718.29,-137.41 1717.67,-144.38"/>
</a>
</g>
</g>
<!-- Node16 -->
<g id="Node000016" class="node">
<title>Node16</title>
<g id="a_Node000016"><a xlink:href="s3__put__internal_8h.html" target="_top" xlink:title=" ">
<polygon fill="white" stroke="#666666" points="1471.5,-96 1364.5,-96 1364.5,-66 1471.5,-66 1471.5,-96"/>
<text text-anchor="start" x="1372.5" y="-84" font-family="Helvetica,sans-Serif" font-size="10.00">src/protocols/s3/s3</text>
<text text-anchor="middle" x="1418" y="-73" font-family="Helvetica,sans-Serif" font-size="10.00">_put_internal.h</text>
</a>
</g>
</g>
<!-- Node1&#45;&gt;Node16 -->
<g id="edge15_Node000001_Node000016" class="edge">
<title>Node1&#45;&gt;Node16</title>
<g id="a_edge15_Node000001_Node000016"><a xlink:title=" ">
<path fill="none" stroke="#63b8ff" d="M1717.65,-136.89C1657.32,-127.54 1561.99,-112.12 1480,-96 1477.29,-95.47 1474.52,-94.91 1471.73,-94.33"/>
<polygon fill="#63b8ff" stroke="#63b8ff" points="1717.34,-140.38 1727.75,-138.45 1718.41,-133.46 1717.34,-140.38"/>
</a>
</g>
</g>
<!-- Node23 -->
<g id="Node000023" class="node">
<title>Node23</title>
<g id="a_Node000023"><a xlink:href="tagging_8c.html" target="_top" xlink:title=" ">
<polygon fill="white" stroke="#666666" points="1630.5,-90.5 1489.5,-90.5 1489.5,-71.5 1630.5,-71.5 1630.5,-90.5"/>
<text text-anchor="middle" x="1560" y="-78.5" font-family="Helvetica,sans-Serif" font-size="10.00">src/protocols/s3/tagging.c</text>
</a>
</g>
</g>
<!-- Node1&#45;&gt;Node23 -->
<g id="edge22_Node000001_Node000023" class="edge">
<title>Node1&#45;&gt;Node23</title>
<g id="a_edge22_Node000001_Node000023"><a xlink:title=" ">
<path fill="none" stroke="#63b8ff" d="M1720.53,-129.13C1678.22,-116.71 1622.45,-100.33 1589.01,-90.52"/>
<polygon fill="#63b8ff" stroke="#63b8ff" points="1719.58,-132.5 1730.16,-131.95 1721.55,-125.78 1719.58,-132.5"/>
</a>
</g>
</g>
<!-- Node24 -->
<g id="Node000024" class="node">
<title>Node24</title>
<g id="a_Node000024"><a xlink:href="protocols_2webdav_2delegation_8c.html" target="_top" xlink:title=" ">
<polygon fill="white" stroke="#666666" points="1769,-96 1649,-96 1649,-66 1769,-66 1769,-96"/>
<text text-anchor="start" x="1657" y="-84" font-family="Helvetica,sans-Serif" font-size="10.00">src/protocols/webdav</text>
<text text-anchor="middle" x="1709" y="-73" font-family="Helvetica,sans-Serif" font-size="10.00">/delegation.c</text>
</a>
</g>
</g>
<!-- Node1&#45;&gt;Node24 -->
<g id="edge23_Node000001_Node000024" class="edge">
<title>Node1&#45;&gt;Node24</title>
<g id="a_edge23_Node000001_Node000024"><a xlink:title=" ">
<path fill="none" stroke="#63b8ff" d="M1755.28,-124.92C1745.1,-115.49 1733.37,-104.61 1724.27,-96.16"/>
<polygon fill="#63b8ff" stroke="#63b8ff" points="1752.97,-127.56 1762.69,-131.8 1757.74,-122.43 1752.97,-127.56"/>
</a>
</g>
</g>
<!-- Node25 -->
<g id="Node000025" class="node">
<title>Node25</title>
<g id="a_Node000025"><a xlink:href="webdav_2dispatch_8c.html" target="_top" xlink:title=" ">
<polygon fill="white" stroke="#666666" points="1907,-96 1787,-96 1787,-66 1907,-66 1907,-96"/>
<text text-anchor="start" x="1795" y="-84" font-family="Helvetica,sans-Serif" font-size="10.00">src/protocols/webdav</text>
<text text-anchor="middle" x="1847" y="-73" font-family="Helvetica,sans-Serif" font-size="10.00">/dispatch.c</text>
</a>
</g>
</g>
<!-- Node1&#45;&gt;Node25 -->
<g id="edge24_Node000001_Node000025" class="edge">
<title>Node1&#45;&gt;Node25</title>
<g id="a_edge24_Node000001_Node000025"><a xlink:title=" ">
<path fill="none" stroke="#63b8ff" d="M1800.72,-124.92C1810.9,-115.49 1822.63,-104.61 1831.73,-96.16"/>
<polygon fill="#63b8ff" stroke="#63b8ff" points="1798.26,-122.43 1793.31,-131.8 1803.03,-127.56 1798.26,-122.43"/>
</a>
</g>
</g>
<!-- Node26 -->
<g id="Node000026" class="node">
<title>Node26</title>
<g id="a_Node000026"><a xlink:href="protocols_2webdav_2io_8c.html" target="_top" xlink:title=" ">
<polygon fill="white" stroke="#666666" points="2065,-90.5 1925,-90.5 1925,-71.5 2065,-71.5 2065,-90.5"/>
<text text-anchor="middle" x="1995" y="-78.5" font-family="Helvetica,sans-Serif" font-size="10.00">src/protocols/webdav/io.c</text>
</a>
</g>
</g>
<!-- Node1&#45;&gt;Node26 -->
<g id="edge25_Node000001_Node000026" class="edge">
<title>Node1&#45;&gt;Node26</title>
<g id="a_edge25_Node000001_Node000026"><a xlink:title=" ">
<path fill="none" stroke="#63b8ff" d="M1835.47,-129.05C1877.56,-116.64 1932.91,-100.31 1966.12,-90.52"/>
<polygon fill="#63b8ff" stroke="#63b8ff" points="1834.22,-125.77 1825.62,-131.95 1836.2,-132.48 1834.22,-125.77"/>
</a>
</g>
</g>
<!-- Node27 -->
<g id="Node000027" class="node">
<title>Node27</title>
<g id="a_Node000027"><a xlink:href="macaroon__endpoint_8c.html" target="_top" xlink:title=" ">
<polygon fill="white" stroke="#666666" points="2208.5,-96 2083.5,-96 2083.5,-66 2208.5,-66 2208.5,-96"/>
<text text-anchor="start" x="2091.5" y="-84" font-family="Helvetica,sans-Serif" font-size="10.00">src/protocols/webdav</text>
<text text-anchor="middle" x="2146" y="-73" font-family="Helvetica,sans-Serif" font-size="10.00">/macaroon_endpoint.c</text>
</a>
</g>
</g>
<!-- Node1&#45;&gt;Node27 -->
<g id="edge26_Node000001_Node000027" class="edge">
<title>Node1&#45;&gt;Node27</title>
<g id="a_edge26_Node000001_Node000027"><a xlink:title=" ">
<path fill="none" stroke="#63b8ff" d="M1838.11,-136.29C1897.97,-126.52 1992.44,-110.82 2074,-96 2077.01,-95.45 2080.08,-94.89 2083.19,-94.31"/>
<polygon fill="#63b8ff" stroke="#63b8ff" points="1837.39,-132.86 1828.08,-137.93 1838.51,-139.77 1837.39,-132.86"/>
</a>
</g>
</g>
<!-- Node28 -->
<g id="Node000028" class="node">
<title>Node28</title>
<g id="a_Node000028"><a xlink:href="macaroon__endpoint__oauth2_8c.html" target="_top" xlink:title=" ">
<polygon fill="white" stroke="#666666" points="2391,-96 2227,-96 2227,-66 2391,-66 2391,-96"/>
<text text-anchor="start" x="2235" y="-84" font-family="Helvetica,sans-Serif" font-size="10.00">src/protocols/webdav</text>
<text text-anchor="middle" x="2309" y="-73" font-family="Helvetica,sans-Serif" font-size="10.00">/macaroon_endpoint_oauth2.c</text>
</a>
</g>
</g>
<!-- Node1&#45;&gt;Node28 -->
<g id="edge27_Node000001_Node000028" class="edge">
<title>Node1&#45;&gt;Node28</title>
<g id="a_edge27_Node000001_Node000028"><a xlink:title=" ">
<path fill="none" stroke="#63b8ff" d="M1838.31,-139.86C1923.01,-131.06 2081.96,-113.96 2217,-96 2220.2,-95.57 2223.47,-95.13 2226.76,-94.67"/>
<polygon fill="#63b8ff" stroke="#63b8ff" points="1837.7,-136.4 1828.11,-140.91 1838.42,-143.36 1837.7,-136.4"/>
</a>
</g>
</g>
<!-- Node29 -->
<g id="Node000029" class="node">
<title>Node29</title>
<g id="a_Node000029"><a xlink:href="macaroon__endpoint__request_8c.html" target="_top" xlink:title=" ">
<polygon fill="white" stroke="#666666" points="2576.5,-96 2409.5,-96 2409.5,-66 2576.5,-66 2576.5,-96"/>
<text text-anchor="start" x="2417.5" y="-84" font-family="Helvetica,sans-Serif" font-size="10.00">src/protocols/webdav</text>
<text text-anchor="middle" x="2493" y="-73" font-family="Helvetica,sans-Serif" font-size="10.00">/macaroon_endpoint_request.c</text>
</a>
</g>
</g>
<!-- Node1&#45;&gt;Node29 -->
<g id="edge28_Node000001_Node000029" class="edge">
<title>Node1&#45;&gt;Node29</title>
<g id="a_edge28_Node000001_Node000029"><a xlink:title=" ">
<path fill="none" stroke="#63b8ff" d="M1838.12,-142.56C1949.28,-135.88 2194.4,-119.71 2400,-96 2403.08,-95.64 2406.22,-95.26 2409.38,-94.87"/>
<polygon fill="#63b8ff" stroke="#63b8ff" points="1837.88,-139.06 1828.1,-143.15 1838.29,-146.05 1837.88,-139.06"/>
</a>
</g>
</g>
<!-- Node30 -->
<g id="Node000030" class="node">
<title>Node30</title>
<g id="a_Node000030"><a xlink:href="methods__basic_8c.html" target="_top" xlink:title=" ">
<polygon fill="white" stroke="#666666" points="2714,-96 2594,-96 2594,-66 2714,-66 2714,-96"/>
<text text-anchor="start" x="2602" y="-84" font-family="Helvetica,sans-Serif" font-size="10.00">src/protocols/webdav</text>
<text text-anchor="middle" x="2654" y="-73" font-family="Helvetica,sans-Serif" font-size="10.00">/methods_basic.c</text>
</a>
</g>
</g>
<!-- Node1&#45;&gt;Node30 -->
<g id="edge29_Node000001_Node000030" class="edge">
<title>Node1&#45;&gt;Node30</title>
<g id="a_edge29_Node000001_Node000030"><a xlink:title=" ">
<path fill="none" stroke="#63b8ff" d="M1838.39,-145.11C1973,-142.5 2307.62,-132.55 2585,-96 2587.91,-95.62 2590.88,-95.18 2593.87,-94.71"/>
<polygon fill="#63b8ff" stroke="#63b8ff" points="1838.22,-141.61 1828.28,-145.3 1838.35,-148.61 1838.22,-141.61"/>
</a>
</g>
</g>
<!-- Node31 -->
<g id="Node000031" class="node">
<title>Node31</title>
<g id="a_Node000031"><a xlink:href="methods__proppatch_8c.html" target="_top" xlink:title=" ">
<polygon fill="white" stroke="#666666" points="2857.5,-96 2732.5,-96 2732.5,-66 2857.5,-66 2857.5,-96"/>
<text text-anchor="start" x="2740.5" y="-84" font-family="Helvetica,sans-Serif" font-size="10.00">src/protocols/webdav</text>
<text text-anchor="middle" x="2795" y="-73" font-family="Helvetica,sans-Serif" font-size="10.00">/methods_proppatch.c</text>
</a>
</g>
</g>
<!-- Node1&#45;&gt;Node31 -->
<g id="edge30_Node000001_Node000031" class="edge">
<title>Node1&#45;&gt;Node31</title>
<g id="a_edge30_Node000001_Node000031"><a xlink:title=" ">
<path fill="none" stroke="#63b8ff" d="M1838.54,-145.71C1988.82,-144.36 2390.79,-136.89 2723,-96 2726.03,-95.63 2729.13,-95.2 2732.25,-94.73"/>
<polygon fill="#63b8ff" stroke="#63b8ff" points="1838.13,-142.21 1828.16,-145.8 1838.19,-149.21 1838.13,-142.21"/>
</a>
</g>
</g>
<!-- Node32 -->
<g id="Node000032" class="node">
<title>Node32</title>
<g id="a_Node000032"><a xlink:href="propfind__internal_8h.html" target="_top" xlink:title=" ">
<polygon fill="white" stroke="#666666" points="2996,-96 2876,-96 2876,-66 2996,-66 2996,-96"/>
<text text-anchor="start" x="2884" y="-84" font-family="Helvetica,sans-Serif" font-size="10.00">src/protocols/webdav</text>
<text text-anchor="middle" x="2936" y="-73" font-family="Helvetica,sans-Serif" font-size="10.00">/propfind_internal.h</text>
</a>
</g>
</g>
<!-- Node1&#45;&gt;Node32 -->
<g id="edge31_Node000001_Node000032" class="edge">
<title>Node1&#45;&gt;Node32</title>
<g id="a_edge31_Node000001_Node000032"><a xlink:title=" ">
<path fill="none" stroke="#63b8ff" d="M1838.61,-146.49C2004.11,-147.11 2477.35,-144.18 2867,-96 2869.91,-95.64 2872.88,-95.22 2875.88,-94.77"/>
<polygon fill="#63b8ff" stroke="#63b8ff" points="1838.18,-142.98 1828.16,-146.44 1838.15,-149.98 1838.18,-142.98"/>
</a>
</g>
</g>
<!-- Node36 -->
<g id="Node000036" class="node">
<title>Node36</title>
<g id="a_Node000036"><a xlink:href="webdav_2put_8c.html" target="_top" xlink:title=" ">
<polygon fill="white" stroke="#666666" points="3134,-96 3014,-96 3014,-66 3134,-66 3134,-96"/>
<text text-anchor="start" x="3022" y="-84" font-family="Helvetica,sans-Serif" font-size="10.00">src/protocols/webdav</text>
<text text-anchor="middle" x="3074" y="-73" font-family="Helvetica,sans-Serif" font-size="10.00">/put.c</text>
</a>
</g>
</g>
<!-- Node1&#45;&gt;Node36 -->
<g id="edge35_Node000001_Node000036" class="edge">
<title>Node1&#45;&gt;Node36</title>
<g id="a_edge35_Node000001_Node000036"><a xlink:title=" ">
<path fill="none" stroke="#63b8ff" d="M1838.19,-144.82C2052.12,-140.42 2775.15,-123.82 3005,-96 3007.91,-95.65 3010.89,-95.24 3013.88,-94.79"/>
<polygon fill="#63b8ff" stroke="#63b8ff" points="1838.02,-141.32 1828.1,-145.03 1838.17,-148.32 1838.02,-141.32"/>
</a>
</g>
</g>
<!-- Node37 -->
<g id="Node000037" class="node">
<title>Node37</title>
<g id="a_Node000037"><a xlink:href="put__body_8c.html" target="_top" xlink:title=" ">
<polygon fill="white" stroke="#666666" points="3272,-96 3152,-96 3152,-66 3272,-66 3272,-96"/>
<text text-anchor="start" x="3160" y="-84" font-family="Helvetica,sans-Serif" font-size="10.00">src/protocols/webdav</text>
<text text-anchor="middle" x="3212" y="-73" font-family="Helvetica,sans-Serif" font-size="10.00">/put_body.c</text>
</a>
</g>
</g>
<!-- Node1&#45;&gt;Node37 -->
<g id="edge36_Node000001_Node000037" class="edge">
<title>Node1&#45;&gt;Node37</title>
<g id="a_edge36_Node000001_Node000037"><a xlink:title=" ">
<path fill="none" stroke="#63b8ff" d="M1838.34,-145.1C2067.62,-141.49 2884.85,-126.71 3143,-96 3145.91,-95.65 3148.89,-95.25 3151.88,-94.8"/>
<polygon fill="#63b8ff" stroke="#63b8ff" points="1838.13,-141.61 1828.19,-145.26 1838.24,-148.61 1838.13,-141.61"/>
</a>
</g>
</g>
<!-- Node38 -->
<g id="Node000038" class="node">
<title>Node38</title>
<g id="a_Node000038"><a xlink:href="put__setup_8c.html" target="_top" xlink:title=" ">
<polygon fill="white" stroke="#666666" points="3410,-96 3290,-96 3290,-66 3410,-66 3410,-96"/>
<text text-anchor="start" x="3298" y="-84" font-family="Helvetica,sans-Serif" font-size="10.00">src/protocols/webdav</text>
<text text-anchor="middle" x="3350" y="-73" font-family="Helvetica,sans-Serif" font-size="10.00">/put_setup.c</text>
</a>
</g>
</g>
<!-- Node1&#45;&gt;Node38 -->
<g id="edge37_Node000001_Node000038" class="edge">
<title>Node1&#45;&gt;Node38</title>
<g id="a_edge37_Node000001_Node000038"><a xlink:title=" ">
<path fill="none" stroke="#63b8ff" d="M1838.29,-145.34C2081.92,-142.46 2994.37,-129.61 3281,-96 3283.91,-95.66 3286.89,-95.26 3289.88,-94.81"/>
<polygon fill="#63b8ff" stroke="#63b8ff" points="1838.16,-141.84 1828.21,-145.46 1838.25,-148.84 1838.16,-141.84"/>
</a>
</g>
</g>
<!-- Node39 -->
<g id="Node000039" class="node">
<title>Node39</title>
<g id="a_Node000039"><a xlink:href="search_8c.html" target="_top" xlink:title=" ">
<polygon fill="white" stroke="#666666" points="3548,-96 3428,-96 3428,-66 3548,-66 3548,-96"/>
<text text-anchor="start" x="3436" y="-84" font-family="Helvetica,sans-Serif" font-size="10.00">src/protocols/webdav</text>
<text text-anchor="middle" x="3488" y="-73" font-family="Helvetica,sans-Serif" font-size="10.00">/search.c</text>
</a>
</g>
</g>
<!-- Node1&#45;&gt;Node39 -->
<g id="edge38_Node000001_Node000039" class="edge">
<title>Node1&#45;&gt;Node39</title>
<g id="a_edge38_Node000001_Node000039"><a xlink:title=" ">
<path fill="none" stroke="#63b8ff" d="M1838.63,-145.53C2096.58,-143.32 3103.96,-132.49 3419,-96 3421.91,-95.66 3424.89,-95.27 3427.89,-94.82"/>
<polygon fill="#63b8ff" stroke="#63b8ff" points="1838.31,-142.03 1828.34,-145.62 1838.36,-149.03 1838.31,-142.03"/>
</a>
</g>
</g>
<!-- Node40 -->
<g id="Node000040" class="node">
<title>Node40</title>
<g id="a_Node000040"><a xlink:href="tape__rest_8c.html" target="_top" xlink:title=" ">
<polygon fill="white" stroke="#666666" points="3686,-96 3566,-96 3566,-66 3686,-66 3686,-96"/>
<text text-anchor="start" x="3574" y="-84" font-family="Helvetica,sans-Serif" font-size="10.00">src/protocols/webdav</text>
<text text-anchor="middle" x="3626" y="-73" font-family="Helvetica,sans-Serif" font-size="10.00">/tape_rest.c</text>
</a>
</g>
</g>
<!-- Node1&#45;&gt;Node40 -->
<g id="edge39_Node000001_Node000040" class="edge">
<title>Node1&#45;&gt;Node40</title>
<g id="a_edge39_Node000001_Node000040"><a xlink:title=" ">
<path fill="none" stroke="#63b8ff" d="M1838.34,-145.7C2109.05,-144.13 3213.21,-135.41 3557,-96 3559.91,-95.67 3562.89,-95.27 3565.89,-94.83"/>
<polygon fill="#63b8ff" stroke="#63b8ff" points="1838.3,-142.2 1828.32,-145.76 1838.34,-149.2 1838.3,-142.2"/>
</a>
</g>
</g>
<!-- Node12 -->
<g id="Node000012" class="node">
<title>Node12</title>
<g id="a_Node000012"><a xlink:href="post__form_8c.html" target="_top" xlink:title=" ">
<polygon fill="white" stroke="#666666" points="867.5,-30 750.5,-30 750.5,0 867.5,0 867.5,-30"/>
<text text-anchor="start" x="758.5" y="-18" font-family="Helvetica,sans-Serif" font-size="10.00">src/protocols/s3/post</text>
<text text-anchor="middle" x="809" y="-7" font-family="Helvetica,sans-Serif" font-size="10.00">_form.c</text>
</a>
</g>
</g>
<!-- Node11&#45;&gt;Node12 -->
<g id="edge11_Node000011_Node000012" class="edge">
<title>Node11&#45;&gt;Node12</title>
<g id="a_edge11_Node000011_Node000012"><a xlink:title=" ">
<path fill="none" stroke="#63b8ff" d="M1229.43,-66.05C1072.12,-41.34 1029.08,-53.71 876,-30 873.3,-29.58 870.54,-29.13 867.76,-28.64"/>
<polygon fill="#63b8ff" stroke="#63b8ff" points="1229.04,-69.53 1239.47,-67.66 1230.14,-62.62 1229.04,-69.53"/>
</a>
</g>
</g>
<!-- Node13 -->
<g id="Node000013" class="node">
<title>Node13</title>
<g id="a_Node000013"><a xlink:href="post__object_8c.html" target="_top" xlink:title=" ">
<polygon fill="white" stroke="#666666" points="1002.5,-30 885.5,-30 885.5,0 1002.5,0 1002.5,-30"/>
<text text-anchor="start" x="893.5" y="-18" font-family="Helvetica,sans-Serif" font-size="10.00">src/protocols/s3/post</text>
<text text-anchor="middle" x="944" y="-7" font-family="Helvetica,sans-Serif" font-size="10.00">_object.c</text>
</a>
</g>
</g>
<!-- Node11&#45;&gt;Node13 -->
<g id="edge12_Node000011_Node000013" class="edge">
<title>Node11&#45;&gt;Node13</title>
<g id="a_edge12_Node000011_Node000013"><a xlink:title=" ">
<path fill="none" stroke="#63b8ff" d="M1229.4,-65.96C1131.45,-47.33 1104.84,-47.51 1011,-30 1008.31,-29.5 1005.57,-28.97 1002.8,-28.44"/>
<polygon fill="#63b8ff" stroke="#63b8ff" points="1228.95,-69.43 1239.43,-67.88 1230.27,-62.56 1228.95,-69.43"/>
</a>
</g>
</g>
<!-- Node14 -->
<g id="Node000014" class="node">
<title>Node14</title>
<g id="a_Node000014"><a xlink:href="post__policy_8c.html" target="_top" xlink:title=" ">
<polygon fill="white" stroke="#666666" points="1137.5,-30 1020.5,-30 1020.5,0 1137.5,0 1137.5,-30"/>
<text text-anchor="start" x="1028.5" y="-18" font-family="Helvetica,sans-Serif" font-size="10.00">src/protocols/s3/post</text>
<text text-anchor="middle" x="1079" y="-7" font-family="Helvetica,sans-Serif" font-size="10.00">_policy.c</text>
</a>
</g>
</g>
<!-- Node11&#45;&gt;Node14 -->
<g id="edge13_Node000011_Node000014" class="edge">
<title>Node11&#45;&gt;Node14</title>
<g id="a_edge13_Node000011_Node000014"><a xlink:title=" ">
<path fill="none" stroke="#63b8ff" d="M1236.12,-62.99C1201.69,-52.69 1158.3,-39.72 1125.85,-30.01"/>
<polygon fill="#63b8ff" stroke="#63b8ff" points="1235.45,-66.44 1246.04,-65.95 1237.46,-59.74 1235.45,-66.44"/>
</a>
</g>
</g>
<!-- Node15 -->
<g id="Node000015" class="node">
<title>Node15</title>
<g id="a_Node000015"><a xlink:href="post__response_8c.html" target="_top" xlink:title=" ">
<polygon fill="white" stroke="#666666" points="1272.5,-30 1155.5,-30 1155.5,0 1272.5,0 1272.5,-30"/>
<text text-anchor="start" x="1163.5" y="-18" font-family="Helvetica,sans-Serif" font-size="10.00">src/protocols/s3/post</text>
<text text-anchor="middle" x="1214" y="-7" font-family="Helvetica,sans-Serif" font-size="10.00">_response.c</text>
</a>
</g>
</g>
<!-- Node11&#45;&gt;Node15 -->
<g id="edge14_Node000011_Node000015" class="edge">
<title>Node11&#45;&gt;Node15</title>
<g id="a_edge14_Node000011_Node000015"><a xlink:title=" ">
<path fill="none" stroke="#63b8ff" d="M1267.67,-59.48C1255.86,-49.91 1242.11,-38.77 1231.48,-30.16"/>
<polygon fill="#63b8ff" stroke="#63b8ff" points="1265.49,-62.22 1275.47,-65.8 1269.9,-56.78 1265.49,-62.22"/>
</a>
</g>
</g>
<!-- Node17 -->
<g id="Node000017" class="node">
<title>Node17</title>
<g id="a_Node000017"><a xlink:href="s3_2put_8c.html" target="_top" xlink:title=" ">
<polygon fill="white" stroke="#666666" points="1411,-24.5 1291,-24.5 1291,-5.5 1411,-5.5 1411,-24.5"/>
<text text-anchor="middle" x="1351" y="-12.5" font-family="Helvetica,sans-Serif" font-size="10.00">src/protocols/s3/put.c</text>
</a>
</g>
</g>
<!-- Node16&#45;&gt;Node17 -->
<g id="edge16_Node000016_Node000017" class="edge">
<title>Node16&#45;&gt;Node17</title>
<g id="a_edge16_Node000016_Node000017"><a xlink:title=" ">
<path fill="none" stroke="#63b8ff" d="M1395.6,-58.6C1383.55,-47.1 1369.34,-33.52 1360.26,-24.84"/>
<polygon fill="#63b8ff" stroke="#63b8ff" points="1393.48,-61.42 1403.13,-65.8 1398.32,-56.36 1393.48,-61.42"/>
</a>
</g>
</g>
<!-- Node18 -->
<g id="Node000018" class="node">
<title>Node18</title>
<g id="a_Node000018"><a xlink:href="put__aio_8c.html" target="_top" xlink:title=" ">
<polygon fill="white" stroke="#666666" points="1541,-30 1429,-30 1429,0 1541,0 1541,-30"/>
<text text-anchor="start" x="1437" y="-18" font-family="Helvetica,sans-Serif" font-size="10.00">src/protocols/s3/put</text>
<text text-anchor="middle" x="1485" y="-7" font-family="Helvetica,sans-Serif" font-size="10.00">_aio.c</text>
</a>
</g>
</g>
<!-- Node16&#45;&gt;Node18 -->
<g id="edge17_Node000016_Node000018" class="edge">
<title>Node16&#45;&gt;Node18</title>
<g id="a_edge17_Node000016_Node000018"><a xlink:title=" ">
<path fill="none" stroke="#63b8ff" d="M1440.35,-58.65C1450.17,-49.27 1461.42,-38.53 1470.17,-30.16"/>
<polygon fill="#63b8ff" stroke="#63b8ff" points="1437.68,-56.36 1432.87,-65.8 1442.52,-61.42 1437.68,-56.36"/>
</a>
</g>
</g>
<!-- Node19 -->
<g id="Node000019" class="node">
<title>Node19</title>
<g id="a_Node000019"><a xlink:href="put__chunk_8c.html" target="_top" xlink:title=" ">
<polygon fill="white" stroke="#666666" points="1671,-30 1559,-30 1559,0 1671,0 1671,-30"/>
<text text-anchor="start" x="1567" y="-18" font-family="Helvetica,sans-Serif" font-size="10.00">src/protocols/s3/put</text>
<text text-anchor="middle" x="1615" y="-7" font-family="Helvetica,sans-Serif" font-size="10.00">_chunk.c</text>
</a>
</g>
</g>
<!-- Node16&#45;&gt;Node19 -->
<g id="edge18_Node000016_Node000019" class="edge">
<title>Node16&#45;&gt;Node19</title>
<g id="a_edge18_Node000016_Node000019"><a xlink:title=" ">
<path fill="none" stroke="#63b8ff" d="M1470.77,-62.86C1502.4,-52.58 1542.12,-39.68 1571.87,-30.01"/>
<polygon fill="#63b8ff" stroke="#63b8ff" points="1469.66,-59.54 1461.23,-65.95 1471.82,-66.19 1469.66,-59.54"/>
</a>
</g>
</g>
<!-- Node20 -->
<g id="Node000020" class="node">
<title>Node20</title>
<g id="a_Node000020"><a xlink:href="put__finalize_8c.html" target="_top" xlink:title=" ">
<polygon fill="white" stroke="#666666" points="1801,-30 1689,-30 1689,0 1801,0 1801,-30"/>
<text text-anchor="start" x="1697" y="-18" font-family="Helvetica,sans-Serif" font-size="10.00">src/protocols/s3/put</text>
<text text-anchor="middle" x="1745" y="-7" font-family="Helvetica,sans-Serif" font-size="10.00">_finalize.c</text>
</a>
</g>
</g>
<!-- Node16&#45;&gt;Node20 -->
<g id="edge19_Node000016_Node000020" class="edge">
<title>Node16&#45;&gt;Node20</title>
<g id="a_edge19_Node000016_Node000020"><a xlink:title=" ">
<path fill="none" stroke="#63b8ff" d="M1481.68,-65.71C1570.21,-47.99 1594.51,-46.9 1680,-30 1682.83,-29.44 1685.73,-28.86 1688.65,-28.26"/>
<polygon fill="#63b8ff" stroke="#63b8ff" points="1480.85,-62.31 1471.74,-67.71 1482.23,-69.17 1480.85,-62.31"/>
</a>
</g>
</g>
<!-- Node21 -->
<g id="Node000021" class="node">
<title>Node21</title>
<g id="a_Node000021"><a xlink:href="put__inner_8c.html" target="_top" xlink:title=" ">
<polygon fill="white" stroke="#666666" points="1931,-30 1819,-30 1819,0 1931,0 1931,-30"/>
<text text-anchor="start" x="1827" y="-18" font-family="Helvetica,sans-Serif" font-size="10.00">src/protocols/s3/put</text>
<text text-anchor="middle" x="1875" y="-7" font-family="Helvetica,sans-Serif" font-size="10.00">_inner.c</text>
</a>
</g>
</g>
<!-- Node16&#45;&gt;Node21 -->
<g id="edge20_Node000016_Node000021" class="edge">
<title>Node16&#45;&gt;Node21</title>
<g id="a_edge20_Node000016_Node000021"><a xlink:title=" ">
<path fill="none" stroke="#63b8ff" d="M1481.89,-65.8C1627.32,-42.23 1667.63,-53.03 1810,-30 1812.85,-29.54 1815.76,-29.03 1818.7,-28.5"/>
<polygon fill="#63b8ff" stroke="#63b8ff" points="1480.99,-62.4 1471.69,-67.48 1482.13,-69.31 1480.99,-62.4"/>
</a>
</g>
</g>
<!-- Node22 -->
<g id="Node000022" class="node">
<title>Node22</title>
<g id="a_Node000022"><a xlink:href="put__stream_8c.html" target="_top" xlink:title=" ">
<polygon fill="white" stroke="#666666" points="2061,-30 1949,-30 1949,0 2061,0 2061,-30"/>
<text text-anchor="start" x="1957" y="-18" font-family="Helvetica,sans-Serif" font-size="10.00">src/protocols/s3/put</text>
<text text-anchor="middle" x="2005" y="-7" font-family="Helvetica,sans-Serif" font-size="10.00">_stream.c</text>
</a>
</g>
</g>
<!-- Node16&#45;&gt;Node22 -->
<g id="edge21_Node000016_Node000022" class="edge">
<title>Node16&#45;&gt;Node22</title>
<g id="a_edge21_Node000016_Node000022"><a xlink:title=" ">
<path fill="none" stroke="#63b8ff" d="M1481.76,-65.88C1684.55,-36.11 1740.36,-59.18 1940,-30 1942.86,-29.58 1945.77,-29.11 1948.71,-28.61"/>
<polygon fill="#63b8ff" stroke="#63b8ff" points="1481.05,-62.44 1471.68,-67.38 1482.09,-69.37 1481.05,-62.44"/>
</a>
</g>
</g>
<!-- Node33 -->
<g id="Node000033" class="node">
<title>Node33</title>
<g id="a_Node000033"><a xlink:href="propfind_8c.html" target="_top" xlink:title=" ">
<polygon fill="white" stroke="#666666" points="2858,-30 2738,-30 2738,0 2858,0 2858,-30"/>
<text text-anchor="start" x="2746" y="-18" font-family="Helvetica,sans-Serif" font-size="10.00">src/protocols/webdav</text>
<text text-anchor="middle" x="2798" y="-7" font-family="Helvetica,sans-Serif" font-size="10.00">/propfind.c</text>
</a>
</g>
</g>
<!-- Node32&#45;&gt;Node33 -->
<g id="edge32_Node000032_Node000033" class="edge">
<title>Node32&#45;&gt;Node33</title>
<g id="a_edge32_Node000032_Node000033"><a xlink:title=" ">
<path fill="none" stroke="#63b8ff" d="M2896.43,-61.65C2874.73,-51.58 2848.24,-39.3 2828.21,-30.01"/>
<polygon fill="#63b8ff" stroke="#63b8ff" points="2895.17,-64.92 2905.72,-65.95 2898.12,-58.57 2895.17,-64.92"/>
</a>
</g>
</g>
<!-- Node34 -->
<g id="Node000034" class="node">
<title>Node34</title>
<g id="a_Node000034"><a xlink:href="propfind__props_8c.html" target="_top" xlink:title=" ">
<polygon fill="white" stroke="#666666" points="2996,-30 2876,-30 2876,0 2996,0 2996,-30"/>
<text text-anchor="start" x="2884" y="-18" font-family="Helvetica,sans-Serif" font-size="10.00">src/protocols/webdav</text>
<text text-anchor="middle" x="2936" y="-7" font-family="Helvetica,sans-Serif" font-size="10.00">/propfind_props.c</text>
</a>
</g>
</g>
<!-- Node32&#45;&gt;Node34 -->
<g id="edge33_Node000032_Node000034" class="edge">
<title>Node32&#45;&gt;Node34</title>
<g id="a_edge33_Node000032_Node000034"><a xlink:title=" ">
<path fill="none" stroke="#63b8ff" d="M2936,-55.54C2936,-46.96 2936,-37.61 2936,-30.16"/>
<polygon fill="#63b8ff" stroke="#63b8ff" points="2932.5,-55.8 2936,-65.8 2939.5,-55.8 2932.5,-55.8"/>
</a>
</g>
</g>
<!-- Node35 -->
<g id="Node000035" class="node">
<title>Node35</title>
<g id="a_Node000035"><a xlink:href="propfind__walk_8c.html" target="_top" xlink:title=" ">
<polygon fill="white" stroke="#666666" points="3134,-30 3014,-30 3014,0 3134,0 3134,-30"/>
<text text-anchor="start" x="3022" y="-18" font-family="Helvetica,sans-Serif" font-size="10.00">src/protocols/webdav</text>
<text text-anchor="middle" x="3074" y="-7" font-family="Helvetica,sans-Serif" font-size="10.00">/propfind_walk.c</text>
</a>
</g>
</g>
<!-- Node32&#45;&gt;Node35 -->
<g id="edge34_Node000032_Node000035" class="edge">
<title>Node32&#45;&gt;Node35</title>
<g id="a_edge34_Node000032_Node000035"><a xlink:title=" ">
<path fill="none" stroke="#63b8ff" d="M2975.57,-61.65C2997.27,-51.58 3023.76,-39.3 3043.79,-30.01"/>
<polygon fill="#63b8ff" stroke="#63b8ff" points="2973.88,-58.57 2966.28,-65.95 2976.83,-64.92 2973.88,-58.57"/>
</a>
</g>
</g>
</g>
</svg>

<g id="navigator" transform="translate(0 0)" fill="#404254">
  <rect fill="#f2f5e9" fill-opacity="0.5" stroke="#606060" stroke-width=".5" x="0" y="0" width="60" height="60"/>
  <use id="zoomplus" xlink:href="#zoomPlus" x="17" y="9" onmousedown="handleZoom(evt,'in')"/>
  <use id="zoomminus" xlink:href="#zoomMin" x="42" y="9" onmousedown="handleZoom(evt,'out')"/>
  <use id="reset" xlink:href="#resetDef" x="30" y="36" onmousedown="handleReset()"/>
   <use id="arrowup" xlink:href="#arrowUp" x="0" y="0" onmousedown="handlePan(0,-1)"/>
  <use id="arrowright" xlink:href="#arrowRight" x="0" y="0" onmousedown="handlePan(1,0)"/>
  <use id="arrowdown" xlink:href="#arrowDown" x="0" y="0" onmousedown="handlePan(0,1)"/>
  <use id="arrowleft" xlink:href="#arrowLeft" x="0" y="0" onmousedown="handlePan(-1,0)"/>
</g>
<svg viewBox="0 0 15 15" width="100%" height="30px" preserveAspectRatio="xMaxYMin meet">
 <g id="arrow_out" transform="scale(0.3 0.3)">
  <a xlink:href="http__body_8h__dep__incl_org.svg" target="_base">
   <rect id="button" ry="5" rx="5" y="6" x="6" height="38" width="38"
        fill="#f2f5e9" fill-opacity="0.5" stroke="#606060" stroke-width="1.0"/>
   <path id="arrow"
     d="M 11.500037,31.436501 C 11.940474,20.09759 22.043105,11.32322 32.158766,21.979434 L 37.068811,17.246167 C 37.068811,17.246167 37.088388,32 37.088388,32 L 22.160133,31.978069 C 22.160133,31.978069 26.997745,27.140456 26.997745,27.140456 C 18.528582,18.264221 13.291696,25.230495 11.500037,31.436501 z"
     style="fill:#404040;"/>
  </a>
 </g>
</svg>

<style type='text/css'>
<![CDATA[
[data-mouse-over-selected='false'] { opacity: 0.7; }
[data-mouse-over-selected='true']  { opacity: 1.0; }
]]>
</style>
<script type="application/ecmascript"><![CDATA[
document.addEventListener('DOMContentLoaded', (event) => {
  highlightEdges();
  highlightAdjacentNodes();
});
]]></script>
</svg>
