<?xml version="1.0" encoding="UTF-8" standalone="no"?>
<!DOCTYPE svg PUBLIC "-//W3C//DTD SVG 1.1//EN"
 "http://www.w3.org/Graphics/SVG/1.1/DTD/svg11.dtd">
<!-- Generated by graphviz version 2.43.0 (0)
 -->
<!-- Title: src/core/http/http_body_decode.c Pages: 1 -->
<svg width="1198pt" height="269pt"
 viewBox="0.00 0.00 1197.50 269.00" xmlns="http://www.w3.org/2000/svg" xmlns:xlink="http://www.w3.org/1999/xlink">
<g id="graph0" class="graph" transform="scale(1 1) rotate(0) translate(4 265)">
<title>src/core/http/http_body_decode.c</title>
<!-- Node1 -->
<g id="Node000001" class="node">
<title>Node1</title>
<g id="a_Node000001"><a xlink:title=" ">
<polygon fill="#999999" stroke="#666666" points="571,-261 471,-261 471,-231 571,-231 571,-261"/>
<text text-anchor="start" x="479" y="-249" font-family="Helvetica,sans-Serif" font-size="10.00">src/core/http/http</text>
<text text-anchor="middle" x="521" y="-238" font-family="Helvetica,sans-Serif" font-size="10.00">_body_decode.c</text>
</a>
</g>
</g>
<!-- Node2 -->
<g id="Node000002" class="node">
<title>Node2</title>
<g id="a_Node000002"><a xlink:href="http__body_8h.html" target="_top" xlink:title=" ">
<polygon fill="white" stroke="#666666" points="294.5,-195 221.5,-195 221.5,-176 294.5,-176 294.5,-195"/>
<text text-anchor="middle" x="258" y="-183" font-family="Helvetica,sans-Serif" font-size="10.00">http_body.h</text>
</a>
</g>
</g>
<!-- Node1&#45;&gt;Node2 -->
<g id="edge1_Node000001_Node000002" class="edge">
<title>Node1&#45;&gt;Node2</title>
<g id="a_edge1_Node000001_Node000002"><a xlink:title=" ">
<path fill="none" stroke="#63b8ff" d="M470.91,-233.86C423.01,-223.2 351.34,-207.26 304.63,-196.87"/>
<polygon fill="#63b8ff" stroke="#63b8ff" points="305.29,-193.43 294.77,-194.68 303.77,-200.27 305.29,-193.43"/>
</a>
</g>
</g>
<!-- Node6 -->
<g id="Node000006" class="node">
<title>Node6</title>
<g id="a_Node000006"><a xlink:href="codec__core_8h.html" target="_top" xlink:title=" ">
<polygon fill="white" stroke="#666666" points="144,-134.5 0,-134.5 0,-115.5 144,-115.5 144,-134.5"/>
<text text-anchor="middle" x="72" y="-122.5" font-family="Helvetica,sans-Serif" font-size="10.00">core/compat/codec_core.h</text>
</a>
</g>
</g>
<!-- Node1&#45;&gt;Node6 -->
<g id="edge11_Node000001_Node000006" class="edge">
<title>Node1&#45;&gt;Node6</title>
<g id="a_edge11_Node000001_Node000006"><a xlink:title=" ">
<path fill="none" stroke="#63b8ff" d="M470.97,-241.5C408.97,-236.12 300.65,-223.32 212,-195 168.36,-181.06 121.3,-155.44 94.37,-139.64"/>
<polygon fill="#63b8ff" stroke="#63b8ff" points="96.11,-136.61 85.72,-134.5 92.53,-142.62 96.11,-136.61"/>
</a>
</g>
</g>
<!-- Node9 -->
<g id="Node000009" class="node">
<title>Node9</title>
<g id="a_Node000009"><a xlink:href="http__body__internal_8h.html" target="_top" xlink:title=" ">
<polygon fill="white" stroke="#666666" points="579.5,-134.5 462.5,-134.5 462.5,-115.5 579.5,-115.5 579.5,-134.5"/>
<text text-anchor="middle" x="521" y="-122.5" font-family="Helvetica,sans-Serif" font-size="10.00">http_body_internal.h</text>
</a>
</g>
</g>
<!-- Node1&#45;&gt;Node9 -->
<g id="edge8_Node000001_Node000009" class="edge">
<title>Node1&#45;&gt;Node9</title>
<g id="a_edge8_Node000001_Node000009"><a xlink:title=" ">
<path fill="none" stroke="#63b8ff" d="M521,-230.88C521,-209.51 521,-168.89 521,-144.96"/>
<polygon fill="#63b8ff" stroke="#63b8ff" points="524.5,-144.71 521,-134.71 517.5,-144.71 524.5,-144.71"/>
</a>
</g>
</g>
<!-- Node10 -->
<g id="Node000010" class="node">
<title>Node10</title>
<g id="a_Node000010"><a xlink:href="src_2fs_2vfs_2vfs_8h.html" target="_top" xlink:title=" ">
<polygon fill="white" stroke="#666666" points="779.5,-195 708.5,-195 708.5,-176 779.5,-176 779.5,-195"/>
<text text-anchor="middle" x="744" y="-183" font-family="Helvetica,sans-Serif" font-size="10.00">fs/vfs/vfs.h</text>
</a>
</g>
</g>
<!-- Node1&#45;&gt;Node10 -->
<g id="edge12_Node000001_Node000010" class="edge">
<title>Node1&#45;&gt;Node10</title>
<g id="a_edge12_Node000001_Node000010"><a xlink:title=" ">
<path fill="none" stroke="#63b8ff" d="M571.05,-231.87C610.25,-221.59 664.19,-207.44 701.36,-197.69"/>
<polygon fill="#63b8ff" stroke="#63b8ff" points="702.59,-200.98 711.37,-195.06 700.81,-194.21 702.59,-200.98"/>
</a>
</g>
</g>
<!-- Node20 -->
<g id="Node000020" class="node">
<title>Node20</title>
<g id="a_Node000020"><a xlink:title=" ">
<polygon fill="#e0e0e0" stroke="#999999" points="1189.5,-74 1138.5,-74 1138.5,-55 1189.5,-55 1189.5,-74"/>
<text text-anchor="middle" x="1164" y="-62" font-family="Helvetica,sans-Serif" font-size="10.00">errno.h</text>
</a>
</g>
</g>
<!-- Node1&#45;&gt;Node20 -->
<g id="edge38_Node000001_Node000020" class="edge">
<title>Node1&#45;&gt;Node20</title>
<g id="a_edge38_Node000001_Node000020"><a xlink:title=" ">
<path fill="none" stroke="#63b8ff" d="M571.29,-242.66C702.03,-235.62 1048.49,-210.6 1135,-140 1151.85,-126.25 1158.94,-101.43 1161.9,-84.23"/>
<polygon fill="#63b8ff" stroke="#63b8ff" points="1165.38,-84.62 1163.31,-74.23 1158.45,-83.64 1165.38,-84.62"/>
</a>
</g>
</g>
<!-- Node3 -->
<g id="Node000003" class="node">
<title>Node3</title>
<g id="a_Node000003"><a xlink:title=" ">
<polygon fill="#e0e0e0" stroke="#999999" points="587,-74 509,-74 509,-55 587,-55 587,-74"/>
<text text-anchor="middle" x="548" y="-62" font-family="Helvetica,sans-Serif" font-size="10.00">ngx_config.h</text>
</a>
</g>
</g>
<!-- Node2&#45;&gt;Node3 -->
<g id="edge2_Node000002_Node000003" class="edge">
<title>Node2&#45;&gt;Node3</title>
<g id="a_edge2_Node000002_Node000003"><a xlink:title=" ">
<path fill="none" stroke="#63b8ff" d="M260.78,-175.94C266.4,-160.13 280.68,-126.45 305,-110 307.02,-108.64 428.41,-86.82 498.83,-74.25"/>
<polygon fill="#63b8ff" stroke="#63b8ff" points="499.6,-77.67 508.83,-72.47 498.37,-70.78 499.6,-77.67"/>
</a>
</g>
</g>
<!-- Node4 -->
<g id="Node000004" class="node">
<title>Node4</title>
<g id="a_Node000004"><a xlink:title=" ">
<polygon fill="#e0e0e0" stroke="#999999" points="850,-74 780,-74 780,-55 850,-55 850,-74"/>
<text text-anchor="middle" x="815" y="-62" font-family="Helvetica,sans-Serif" font-size="10.00">ngx_core.h</text>
</a>
</g>
</g>
<!-- Node2&#45;&gt;Node4 -->
<g id="edge3_Node000002_Node000004" class="edge">
<title>Node2&#45;&gt;Node4</title>
<g id="a_edge3_Node000002_Node000004"><a xlink:title=" ">
<path fill="none" stroke="#63b8ff" d="M294.52,-181.98C369.11,-176.44 536.34,-161.93 589,-140 609.19,-131.59 608.26,-119.41 628,-110 640.78,-103.91 718.78,-86.34 769.92,-75.19"/>
<polygon fill="#63b8ff" stroke="#63b8ff" points="770.74,-78.59 779.76,-73.05 769.25,-71.75 770.74,-78.59"/>
</a>
</g>
</g>
<!-- Node5 -->
<g id="Node000005" class="node">
<title>Node5</title>
<g id="a_Node000005"><a xlink:title=" ">
<polygon fill="#e0e0e0" stroke="#999999" points="230,-134.5 162,-134.5 162,-115.5 230,-115.5 230,-134.5"/>
<text text-anchor="middle" x="196" y="-122.5" font-family="Helvetica,sans-Serif" font-size="10.00">ngx_http.h</text>
</a>
</g>
</g>
<!-- Node2&#45;&gt;Node5 -->
<g id="edge4_Node000002_Node000005" class="edge">
<title>Node2&#45;&gt;Node5</title>
<g id="a_edge4_Node000002_Node000005"><a xlink:title=" ">
<path fill="none" stroke="#63b8ff" d="M248.85,-175.87C239.33,-166.88 224.2,-152.61 212.57,-141.64"/>
<polygon fill="#63b8ff" stroke="#63b8ff" points="214.86,-138.98 205.19,-134.67 210.06,-144.08 214.86,-138.98"/>
</a>
</g>
</g>
<!-- Node2&#45;&gt;Node6 -->
<g id="edge5_Node000002_Node000006" class="edge">
<title>Node2&#45;&gt;Node6</title>
<g id="a_edge5_Node000002_Node000006"><a xlink:title=" ">
<path fill="none" stroke="#63b8ff" d="M230.95,-175.99C198.72,-165.86 144.71,-148.87 108.72,-137.55"/>
<polygon fill="#63b8ff" stroke="#63b8ff" points="109.67,-134.18 99.08,-134.52 107.57,-140.86 109.67,-134.18"/>
</a>
</g>
</g>
<!-- Node7 -->
<g id="Node000007" class="node">
<title>Node7</title>
<g id="a_Node000007"><a xlink:title=" ">
<polygon fill="#e0e0e0" stroke="#999999" points="100,-74 44,-74 44,-55 100,-55 100,-74"/>
<text text-anchor="middle" x="72" y="-62" font-family="Helvetica,sans-Serif" font-size="10.00">stddef.h</text>
</a>
</g>
</g>
<!-- Node6&#45;&gt;Node7 -->
<g id="edge6_Node000006_Node000007" class="edge">
<title>Node6&#45;&gt;Node7</title>
<g id="a_edge6_Node000006_Node000007"><a xlink:title=" ">
<path fill="none" stroke="#63b8ff" d="M72,-115.37C72,-107.25 72,-94.81 72,-84.39"/>
<polygon fill="#63b8ff" stroke="#63b8ff" points="75.5,-84.17 72,-74.17 68.5,-84.17 75.5,-84.17"/>
</a>
</g>
</g>
<!-- Node8 -->
<g id="Node000008" class="node">
<title>Node8</title>
<g id="a_Node000008"><a xlink:title=" ">
<polygon fill="#e0e0e0" stroke="#999999" points="490.5,-74 437.5,-74 437.5,-55 490.5,-55 490.5,-74"/>
<text text-anchor="middle" x="464" y="-62" font-family="Helvetica,sans-Serif" font-size="10.00">stdint.h</text>
</a>
</g>
</g>
<!-- Node6&#45;&gt;Node8 -->
<g id="edge7_Node000006_Node000008" class="edge">
<title>Node6&#45;&gt;Node8</title>
<g id="a_edge7_Node000006_Node000008"><a xlink:title=" ">
<path fill="none" stroke="#63b8ff" d="M119.49,-115.46C130.48,-113.57 142.14,-111.65 153,-110 271.66,-91.99 305.01,-95.96 427.2,-73.96"/>
<polygon fill="#63b8ff" stroke="#63b8ff" points="428.12,-77.35 437.33,-72.12 426.86,-70.47 428.12,-77.35"/>
</a>
</g>
</g>
<!-- Node9&#45;&gt;Node3 -->
<g id="edge9_Node000009_Node000003" class="edge">
<title>Node9&#45;&gt;Node3</title>
<g id="a_edge9_Node000009_Node000003"><a xlink:title=" ">
<path fill="none" stroke="#63b8ff" d="M524.98,-115.37C528.85,-106.99 534.84,-94.01 539.74,-83.39"/>
<polygon fill="#63b8ff" stroke="#63b8ff" points="542.99,-84.71 544,-74.17 536.63,-81.78 542.99,-84.71"/>
</a>
</g>
</g>
<!-- Node9&#45;&gt;Node4 -->
<g id="edge10_Node000009_Node000004" class="edge">
<title>Node9&#45;&gt;Node4</title>
<g id="a_edge10_Node000009_Node000004"><a xlink:title=" ">
<path fill="none" stroke="#63b8ff" d="M563.75,-115.49C618.62,-104.57 713.43,-85.71 769.57,-74.54"/>
<polygon fill="#63b8ff" stroke="#63b8ff" points="770.46,-77.93 779.58,-72.55 769.09,-71.07 770.46,-77.93"/>
</a>
</g>
</g>
<!-- Node10&#45;&gt;Node3 -->
<g id="edge13_Node000010_Node000003" class="edge">
<title>Node10&#45;&gt;Node3</title>
<g id="a_edge13_Node000010_Node000003"><a xlink:title=" ">
<path fill="none" stroke="#63b8ff" d="M708.23,-183.48C609.91,-180.3 341.17,-169.02 315,-140 306.07,-130.1 306.5,-120.27 315,-110 317.95,-106.44 431.36,-85.99 498.84,-74.09"/>
<polygon fill="#63b8ff" stroke="#63b8ff" points="499.61,-77.5 508.85,-72.32 498.4,-70.61 499.61,-77.5"/>
</a>
</g>
</g>
<!-- Node10&#45;&gt;Node4 -->
<g id="edge14_Node000010_Node000004" class="edge">
<title>Node10&#45;&gt;Node4</title>
<g id="a_edge14_Node000010_Node000004"><a xlink:title=" ">
<path fill="none" stroke="#63b8ff" d="M779.89,-183.35C840.97,-180.55 961.05,-171.13 987,-140 995.54,-129.76 995.16,-120.54 987,-110 979.11,-99.81 908.23,-83.96 859.95,-74.18"/>
<polygon fill="#63b8ff" stroke="#63b8ff" points="860.52,-70.73 850.03,-72.19 859.15,-77.59 860.52,-70.73"/>
</a>
</g>
</g>
<!-- Node11 -->
<g id="Node000011" class="node">
<title>Node11</title>
<g id="a_Node000011"><a xlink:href="fs_2path_2unified_8h.html" target="_top" xlink:title=" ">
<polygon fill="white" stroke="#666666" points="977.5,-134.5 882.5,-134.5 882.5,-115.5 977.5,-115.5 977.5,-134.5"/>
<text text-anchor="middle" x="930" y="-122.5" font-family="Helvetica,sans-Serif" font-size="10.00">fs/path/unified.h</text>
</a>
</g>
</g>
<!-- Node10&#45;&gt;Node11 -->
<g id="edge15_Node000010_Node000011" class="edge">
<title>Node10&#45;&gt;Node11</title>
<g id="a_edge15_Node000010_Node000011"><a xlink:title=" ">
<path fill="none" stroke="#63b8ff" d="M771.05,-175.99C803.28,-165.86 857.29,-148.87 893.28,-137.55"/>
<polygon fill="#63b8ff" stroke="#63b8ff" points="894.43,-140.86 902.92,-134.52 892.33,-134.18 894.43,-140.86"/>
</a>
</g>
</g>
<!-- Node13 -->
<g id="Node000013" class="node">
<title>Node13</title>
<g id="a_Node000013"><a xlink:href="identity_8h.html" target="_top" xlink:title=" ">
<polygon fill="white" stroke="#666666" points="864,-134.5 748,-134.5 748,-115.5 864,-115.5 864,-134.5"/>
<text text-anchor="middle" x="806" y="-122.5" font-family="Helvetica,sans-Serif" font-size="10.00">core/types/identity.h</text>
</a>
</g>
</g>
<!-- Node10&#45;&gt;Node13 -->
<g id="edge19_Node000010_Node000013" class="edge">
<title>Node10&#45;&gt;Node13</title>
<g id="a_edge19_Node000010_Node000013"><a xlink:title=" ">
<path fill="none" stroke="#63b8ff" d="M753.15,-175.87C762.67,-166.88 777.8,-152.61 789.43,-141.64"/>
<polygon fill="#63b8ff" stroke="#63b8ff" points="791.94,-144.08 796.81,-134.67 787.14,-138.98 791.94,-144.08"/>
</a>
</g>
</g>
<!-- Node17 -->
<g id="Node000017" class="node">
<title>Node17</title>
<g id="a_Node000017"><a xlink:href="observability_2metrics_2unified_8h.html" target="_top" xlink:title=" ">
<polygon fill="white" stroke="#666666" points="444,-140 324,-140 324,-110 444,-110 444,-140"/>
<text text-anchor="start" x="332" y="-128" font-family="Helvetica,sans-Serif" font-size="10.00">observability/metrics</text>
<text text-anchor="middle" x="384" y="-117" font-family="Helvetica,sans-Serif" font-size="10.00">/unified.h</text>
</a>
</g>
</g>
<!-- Node10&#45;&gt;Node17 -->
<g id="edge25_Node000010_Node000017" class="edge">
<title>Node10&#45;&gt;Node17</title>
<g id="a_edge25_Node000010_Node000017"><a xlink:title=" ">
<path fill="none" stroke="#63b8ff" d="M708.07,-179.58C654.85,-172.16 551.72,-157.31 454.2,-140.16"/>
<polygon fill="#63b8ff" stroke="#63b8ff" points="454.64,-136.69 444.18,-138.39 453.41,-143.58 454.64,-136.69"/>
</a>
</g>
</g>
<!-- Node19 -->
<g id="Node000019" class="node">
<title>Node19</title>
<g id="a_Node000019"><a xlink:href="sd_8h.html" target="_top" xlink:title=" ">
<polygon fill="white" stroke="#666666" points="1126,-134.5 1034,-134.5 1034,-115.5 1126,-115.5 1126,-134.5"/>
<text text-anchor="middle" x="1080" y="-122.5" font-family="Helvetica,sans-Serif" font-size="10.00">fs/backend/sd.h</text>
</a>
</g>
</g>
<!-- Node10&#45;&gt;Node19 -->
<g id="edge29_Node000010_Node000019" class="edge">
<title>Node10&#45;&gt;Node19</title>
<g id="a_edge29_Node000010_Node000019"><a xlink:title=" ">
<path fill="none" stroke="#63b8ff" d="M779.87,-179.53C832.66,-172.03 934.28,-156.89 1020,-140 1024.99,-139.02 1030.19,-137.92 1035.36,-136.78"/>
<polygon fill="#63b8ff" stroke="#63b8ff" points="1036.21,-140.17 1045.19,-134.55 1034.66,-133.35 1036.21,-140.17"/>
</a>
</g>
</g>
<!-- Node23 -->
<g id="Node000023" class="node">
<title>Node23</title>
<g id="a_Node000023"><a xlink:href="vfs__ops_8h.html" target="_top" xlink:title=" ">
<polygon fill="white" stroke="#666666" points="729.5,-134.5 636.5,-134.5 636.5,-115.5 729.5,-115.5 729.5,-134.5"/>
<text text-anchor="middle" x="683" y="-122.5" font-family="Helvetica,sans-Serif" font-size="10.00">fs/vfs/vfs_ops.h</text>
</a>
</g>
</g>
<!-- Node10&#45;&gt;Node23 -->
<g id="edge37_Node000010_Node000023" class="edge">
<title>Node10&#45;&gt;Node23</title>
<g id="a_edge37_Node000010_Node000023"><a xlink:title=" ">
<path fill="none" stroke="#63b8ff" d="M735,-175.87C725.63,-166.88 710.75,-152.61 699.3,-141.64"/>
<polygon fill="#63b8ff" stroke="#63b8ff" points="701.68,-139.06 692.04,-134.67 696.83,-144.12 701.68,-139.06"/>
</a>
</g>
</g>
<!-- Node11&#45;&gt;Node3 -->
<g id="edge16_Node000011_Node000003" class="edge">
<title>Node11&#45;&gt;Node3</title>
<g id="a_edge16_Node000011_Node000003"><a xlink:title=" ">
<path fill="none" stroke="#63b8ff" d="M897.87,-115.49C889.79,-113.52 881.11,-111.55 873,-110 776.03,-91.5 661.36,-77.65 597.43,-70.64"/>
<polygon fill="#63b8ff" stroke="#63b8ff" points="597.56,-67.13 587.24,-69.53 596.8,-74.09 597.56,-67.13"/>
</a>
</g>
</g>
<!-- Node11&#45;&gt;Node4 -->
<g id="edge17_Node000011_Node000004" class="edge">
<title>Node11&#45;&gt;Node4</title>
<g id="a_edge17_Node000011_Node000004"><a xlink:title=" ">
<path fill="none" stroke="#63b8ff" d="M913.03,-115.37C894.09,-105.73 863.21,-90.03 841.17,-78.81"/>
<polygon fill="#63b8ff" stroke="#63b8ff" points="842.54,-75.58 832.04,-74.17 839.36,-81.82 842.54,-75.58"/>
</a>
</g>
</g>
<!-- Node12 -->
<g id="Node000012" class="node">
<title>Node12</title>
<g id="a_Node000012"><a xlink:title=" ">
<polygon fill="#e0e0e0" stroke="#999999" points="952,-74 888,-74 888,-55 952,-55 952,-74"/>
<text text-anchor="middle" x="920" y="-62" font-family="Helvetica,sans-Serif" font-size="10.00">sys/stat.h</text>
</a>
</g>
</g>
<!-- Node11&#45;&gt;Node12 -->
<g id="edge18_Node000011_Node000012" class="edge">
<title>Node11&#45;&gt;Node12</title>
<g id="a_edge18_Node000011_Node000012"><a xlink:title=" ">
<path fill="none" stroke="#63b8ff" d="M928.52,-115.37C927.12,-107.16 924.96,-94.54 923.17,-84.05"/>
<polygon fill="#63b8ff" stroke="#63b8ff" points="926.62,-83.43 921.48,-74.17 919.72,-84.61 926.62,-83.43"/>
</a>
</g>
</g>
<!-- Node13&#45;&gt;Node3 -->
<g id="edge20_Node000013_Node000003" class="edge">
<title>Node13&#45;&gt;Node3</title>
<g id="a_edge20_Node000013_Node000003"><a xlink:title=" ">
<path fill="none" stroke="#63b8ff" d="M768.48,-115.49C722.72,-105.12 645.31,-87.57 595.45,-76.26"/>
<polygon fill="#63b8ff" stroke="#63b8ff" points="596.09,-72.81 585.56,-74.02 594.54,-79.64 596.09,-72.81"/>
</a>
</g>
</g>
<!-- Node13&#45;&gt;Node4 -->
<g id="edge21_Node000013_Node000004" class="edge">
<title>Node13&#45;&gt;Node4</title>
<g id="a_edge21_Node000013_Node000004"><a xlink:title=" ">
<path fill="none" stroke="#63b8ff" d="M807.33,-115.37C808.59,-107.16 810.53,-94.54 812.15,-84.05"/>
<polygon fill="#63b8ff" stroke="#63b8ff" points="815.61,-84.58 813.67,-74.17 808.69,-83.52 815.61,-84.58"/>
</a>
</g>
</g>
<!-- Node14 -->
<g id="Node000014" class="node">
<title>Node14</title>
<g id="a_Node000014"><a xlink:href="token_8h.html" target="_top" xlink:title=" ">
<polygon fill="white" stroke="#666666" points="761.5,-74 654.5,-74 654.5,-55 761.5,-55 761.5,-74"/>
<text text-anchor="middle" x="708" y="-62" font-family="Helvetica,sans-Serif" font-size="10.00">auth/token/token.h</text>
</a>
</g>
</g>
<!-- Node13&#45;&gt;Node14 -->
<g id="edge22_Node000013_Node000014" class="edge">
<title>Node13&#45;&gt;Node14</title>
<g id="a_edge22_Node000013_Node000014"><a xlink:title=" ">
<path fill="none" stroke="#63b8ff" d="M791.54,-115.37C775.69,-105.91 750.03,-90.59 731.32,-79.42"/>
<polygon fill="#63b8ff" stroke="#63b8ff" points="732.9,-76.29 722.52,-74.17 729.31,-82.3 732.9,-76.29"/>
</a>
</g>
</g>
<!-- Node15 -->
<g id="Node000015" class="node">
<title>Node15</title>
<g id="a_Node000015"><a xlink:title=" ">
<polygon fill="#e0e0e0" stroke="#999999" points="707,-19 623,-19 623,0 707,0 707,-19"/>
<text text-anchor="middle" x="665" y="-7" font-family="Helvetica,sans-Serif" font-size="10.00">openssl/evp.h</text>
</a>
</g>
</g>
<!-- Node14&#45;&gt;Node15 -->
<g id="edge23_Node000014_Node000015" class="edge">
<title>Node14&#45;&gt;Node15</title>
<g id="a_edge23_Node000014_Node000015"><a xlink:title=" ">
<path fill="none" stroke="#63b8ff" d="M700.9,-54.75C694.83,-47.26 685.91,-36.28 678.49,-27.13"/>
<polygon fill="#63b8ff" stroke="#63b8ff" points="680.99,-24.65 671.97,-19.09 675.55,-29.06 680.99,-24.65"/>
</a>
</g>
</g>
<!-- Node16 -->
<g id="Node000016" class="node">
<title>Node16</title>
<g id="a_Node000016"><a xlink:title=" ">
<polygon fill="#e0e0e0" stroke="#999999" points="777.5,-19 724.5,-19 724.5,0 777.5,0 777.5,-19"/>
<text text-anchor="middle" x="751" y="-7" font-family="Helvetica,sans-Serif" font-size="10.00">limits.h</text>
</a>
</g>
</g>
<!-- Node14&#45;&gt;Node16 -->
<g id="edge24_Node000014_Node000016" class="edge">
<title>Node14&#45;&gt;Node16</title>
<g id="a_edge24_Node000014_Node000016"><a xlink:title=" ">
<path fill="none" stroke="#63b8ff" d="M715.1,-54.75C721.17,-47.26 730.09,-36.28 737.51,-27.13"/>
<polygon fill="#63b8ff" stroke="#63b8ff" points="740.45,-29.06 744.03,-19.09 735.01,-24.65 740.45,-29.06"/>
</a>
</g>
</g>
<!-- Node17&#45;&gt;Node3 -->
<g id="edge26_Node000017_Node000003" class="edge">
<title>Node17&#45;&gt;Node3</title>
<g id="a_edge26_Node000017_Node000003"><a xlink:title=" ">
<path fill="none" stroke="#63b8ff" d="M423.28,-109.99C451.01,-100.1 487.78,-86.98 514.2,-77.56"/>
<polygon fill="#63b8ff" stroke="#63b8ff" points="515.54,-80.8 523.78,-74.14 513.19,-74.2 515.54,-80.8"/>
</a>
</g>
</g>
<!-- Node17&#45;&gt;Node4 -->
<g id="edge27_Node000017_Node000004" class="edge">
<title>Node17&#45;&gt;Node4</title>
<g id="a_edge27_Node000017_Node000004"><a xlink:title=" ">
<path fill="none" stroke="#63b8ff" d="M444.15,-111.47C447.14,-110.95 450.1,-110.46 453,-110 590.34,-88.34 628.69,-95.18 770.07,-74.02"/>
<polygon fill="#63b8ff" stroke="#63b8ff" points="770.62,-77.48 779.98,-72.52 769.57,-70.56 770.62,-77.48"/>
</a>
</g>
</g>
<!-- Node18 -->
<g id="Node000018" class="node">
<title>Node18</title>
<g id="a_Node000018"><a xlink:href="proto__list_8h.html" target="_top" xlink:title=" ">
<polygon fill="white" stroke="#666666" points="419.5,-74 294.5,-74 294.5,-55 419.5,-55 419.5,-74"/>
<text text-anchor="middle" x="357" y="-62" font-family="Helvetica,sans-Serif" font-size="10.00">core/types/proto_list.h</text>
</a>
</g>
</g>
<!-- Node17&#45;&gt;Node18 -->
<g id="edge28_Node000017_Node000018" class="edge">
<title>Node17&#45;&gt;Node18</title>
<g id="a_edge28_Node000017_Node000018"><a xlink:title=" ">
<path fill="none" stroke="#63b8ff" d="M377.46,-109.84C373.82,-101.95 369.26,-92.05 365.36,-83.61"/>
<polygon fill="#63b8ff" stroke="#63b8ff" points="368.41,-81.88 361.05,-74.27 362.06,-84.81 368.41,-81.88"/>
</a>
</g>
</g>
<!-- Node19&#45;&gt;Node3 -->
<g id="edge30_Node000019_Node000003" class="edge">
<title>Node19&#45;&gt;Node3</title>
<g id="a_edge30_Node000019_Node000003"><a xlink:title=" ">
<path fill="none" stroke="#63b8ff" d="M1033.7,-116.58C1018.81,-114.31 1002.23,-111.92 987,-110 846.07,-92.26 678.98,-76.87 597.56,-69.74"/>
<polygon fill="#63b8ff" stroke="#63b8ff" points="597.39,-66.21 587.13,-68.83 596.78,-73.18 597.39,-66.21"/>
</a>
</g>
</g>
<!-- Node19&#45;&gt;Node4 -->
<g id="edge31_Node000019_Node000004" class="edge">
<title>Node19&#45;&gt;Node4</title>
<g id="a_edge31_Node000019_Node000004"><a xlink:title=" ">
<path fill="none" stroke="#63b8ff" d="M1043.85,-115.47C1035.99,-113.64 1027.72,-111.74 1020,-110 965.02,-97.62 901.61,-83.95 860.04,-75.07"/>
<polygon fill="#63b8ff" stroke="#63b8ff" points="860.73,-71.64 850.22,-72.97 859.27,-78.48 860.73,-71.64"/>
</a>
</g>
</g>
<!-- Node19&#45;&gt;Node8 -->
<g id="edge32_Node000019_Node000008" class="edge">
<title>Node19&#45;&gt;Node8</title>
<g id="a_edge32_Node000019_Node000008"><a xlink:title=" ">
<path fill="none" stroke="#63b8ff" d="M1033.73,-116.33C1018.84,-114.05 1002.25,-111.71 987,-110 774.58,-86.19 716.26,-106.41 500.7,-73.83"/>
<polygon fill="#63b8ff" stroke="#63b8ff" points="501.06,-70.34 490.64,-72.29 500,-77.26 501.06,-70.34"/>
</a>
</g>
</g>
<!-- Node19&#45;&gt;Node12 -->
<g id="edge34_Node000019_Node000012" class="edge">
<title>Node19&#45;&gt;Node12</title>
<g id="a_edge34_Node000019_Node000012"><a xlink:title=" ">
<path fill="none" stroke="#63b8ff" d="M1056.73,-115.49C1029.36,-105.49 983.73,-88.8 952.78,-77.49"/>
<polygon fill="#63b8ff" stroke="#63b8ff" points="953.89,-74.16 943.29,-74.02 951.48,-80.74 953.89,-74.16"/>
</a>
</g>
</g>
<!-- Node19&#45;&gt;Node20 -->
<g id="edge33_Node000019_Node000020" class="edge">
<title>Node19&#45;&gt;Node20</title>
<g id="a_edge33_Node000019_Node000020"><a xlink:title=" ">
<path fill="none" stroke="#63b8ff" d="M1092.39,-115.37C1105.79,-106.04 1127.38,-91.01 1143.35,-79.88"/>
<polygon fill="#63b8ff" stroke="#63b8ff" points="1145.35,-82.75 1151.55,-74.17 1141.35,-77.01 1145.35,-82.75"/>
</a>
</g>
</g>
<!-- Node21 -->
<g id="Node000021" class="node">
<title>Node21</title>
<g id="a_Node000021"><a xlink:title=" ">
<polygon fill="#e0e0e0" stroke="#999999" points="1042,-74 970,-74 970,-55 1042,-55 1042,-74"/>
<text text-anchor="middle" x="1006" y="-62" font-family="Helvetica,sans-Serif" font-size="10.00">sys/types.h</text>
</a>
</g>
</g>
<!-- Node19&#45;&gt;Node21 -->
<g id="edge35_Node000019_Node000021" class="edge">
<title>Node19&#45;&gt;Node21</title>
<g id="a_edge35_Node000019_Node000021"><a xlink:title=" ">
<path fill="none" stroke="#63b8ff" d="M1069.08,-115.37C1057.49,-106.21 1038.97,-91.56 1024.98,-80.51"/>
<polygon fill="#63b8ff" stroke="#63b8ff" points="1026.98,-77.62 1016.96,-74.17 1022.64,-83.11 1026.98,-77.62"/>
</a>
</g>
</g>
<!-- Node22 -->
<g id="Node000022" class="node">
<title>Node22</title>
<g id="a_Node000022"><a xlink:title=" ">
<polygon fill="#e0e0e0" stroke="#999999" points="1120,-74 1060,-74 1060,-55 1120,-55 1120,-74"/>
<text text-anchor="middle" x="1090" y="-62" font-family="Helvetica,sans-Serif" font-size="10.00">sys/uio.h</text>
</a>
</g>
</g>
<!-- Node19&#45;&gt;Node22 -->
<g id="edge36_Node000019_Node000022" class="edge">
<title>Node19&#45;&gt;Node22</title>
<g id="a_edge36_Node000019_Node000022"><a xlink:title=" ">
<path fill="none" stroke="#63b8ff" d="M1081.48,-115.37C1082.88,-107.16 1085.04,-94.54 1086.83,-84.05"/>
<polygon fill="#63b8ff" stroke="#63b8ff" points="1090.28,-84.61 1088.52,-74.17 1083.38,-83.43 1090.28,-84.61"/>
</a>
</g>
</g>
</g>
</svg>
