<?xml version="1.0" encoding="UTF-8" standalone="no"?>
<!DOCTYPE svg PUBLIC "-//W3C//DTD SVG 1.1//EN"
 "http://www.w3.org/Graphics/SVG/1.1/DTD/svg11.dtd">
<!-- Generated by graphviz version 2.43.0 (0)
 -->
<!-- Title: src/net/mirror/http_mirror.h Pages: 1 -->
<svg width="1274pt" height="170pt"
 viewBox="0.00 0.00 1273.50 170.00" xmlns="http://www.w3.org/2000/svg" xmlns:xlink="http://www.w3.org/1999/xlink">
<g id="graph0" class="graph" transform="scale(1 1) rotate(0) translate(4 166)">
<title>src/net/mirror/http_mirror.h</title>
<!-- Node1 -->
<g id="Node000001" class="node">
<title>Node1</title>
<g id="a_Node000001"><a xlink:title=" ">
<polygon fill="#999999" stroke="#666666" points="551,-162 446,-162 446,-132 551,-132 551,-162"/>
<text text-anchor="start" x="454" y="-150" font-family="Helvetica,sans-Serif" font-size="10.00">src/net/mirror/http</text>
<text text-anchor="middle" x="498.5" y="-139" font-family="Helvetica,sans-Serif" font-size="10.00">_mirror.h</text>
</a>
</g>
</g>
<!-- Node2 -->
<g id="Node000002" class="node">
<title>Node2</title>
<g id="a_Node000002"><a xlink:href="http__mirror_8c.html" target="_top" xlink:title=" ">
<polygon fill="white" stroke="#666666" points="105,-96 0,-96 0,-66 105,-66 105,-96"/>
<text text-anchor="start" x="8" y="-84" font-family="Helvetica,sans-Serif" font-size="10.00">src/net/mirror/http</text>
<text text-anchor="middle" x="52.5" y="-73" font-family="Helvetica,sans-Serif" font-size="10.00">_mirror.c</text>
</a>
</g>
</g>
<!-- Node1&#45;&gt;Node2 -->
<g id="edge1_Node000001_Node000002" class="edge">
<title>Node1&#45;&gt;Node2</title>
<g id="a_edge1_Node000001_Node000002"><a xlink:title=" ">
<path fill="none" stroke="#63b8ff" d="M435.54,-139.71C359.06,-131.63 226.29,-116.22 113.5,-96 110.72,-95.5 107.87,-94.96 105.01,-94.39"/>
<polygon fill="#63b8ff" stroke="#63b8ff" points="435.63,-143.24 445.95,-140.8 436.36,-136.28 435.63,-143.24"/>
</a>
</g>
</g>
<!-- Node3 -->
<g id="Node000003" class="node">
<title>Node3</title>
<g id="a_Node000003"><a xlink:href="http__mirror__config_8c.html" target="_top" xlink:title=" ">
<polygon fill="white" stroke="#666666" points="228,-96 123,-96 123,-66 228,-66 228,-96"/>
<text text-anchor="start" x="131" y="-84" font-family="Helvetica,sans-Serif" font-size="10.00">src/net/mirror/http</text>
<text text-anchor="middle" x="175.5" y="-73" font-family="Helvetica,sans-Serif" font-size="10.00">_mirror_config.c</text>
</a>
</g>
</g>
<!-- Node1&#45;&gt;Node3 -->
<g id="edge2_Node000001_Node000003" class="edge">
<title>Node1&#45;&gt;Node3</title>
<g id="a_edge2_Node000001_Node000003"><a xlink:title=" ">
<path fill="none" stroke="#63b8ff" d="M435.74,-134.7C382.58,-124.96 304.41,-110.27 236.5,-96 233.74,-95.42 230.9,-94.81 228.05,-94.19"/>
<polygon fill="#63b8ff" stroke="#63b8ff" points="435.23,-138.16 445.69,-136.52 436.49,-131.28 435.23,-138.16"/>
</a>
</g>
</g>
<!-- Node4 -->
<g id="Node000004" class="node">
<title>Node4</title>
<g id="a_Node000004"><a xlink:href="http__mirror__request_8c.html" target="_top" xlink:title=" ">
<polygon fill="white" stroke="#666666" points="351,-96 246,-96 246,-66 351,-66 351,-96"/>
<text text-anchor="start" x="254" y="-84" font-family="Helvetica,sans-Serif" font-size="10.00">src/net/mirror/http</text>
<text text-anchor="middle" x="298.5" y="-73" font-family="Helvetica,sans-Serif" font-size="10.00">_mirror_request.c</text>
</a>
</g>
</g>
<!-- Node1&#45;&gt;Node4 -->
<g id="edge3_Node000001_Node000004" class="edge">
<title>Node1&#45;&gt;Node4</title>
<g id="a_edge3_Node000001_Node000004"><a xlink:title=" ">
<path fill="none" stroke="#63b8ff" d="M444.93,-128.86C412.81,-118.58 372.49,-105.68 342.29,-96.01"/>
<polygon fill="#63b8ff" stroke="#63b8ff" points="444.02,-132.24 454.61,-131.95 446.15,-125.57 444.02,-132.24"/>
</a>
</g>
</g>
<!-- Node5 -->
<g id="Node000005" class="node">
<title>Node5</title>
<g id="a_Node000005"><a xlink:href="protocols_2webdav_2config_8c.html" target="_top" xlink:title=" ">
<polygon fill="white" stroke="#666666" points="489.5,-96 369.5,-96 369.5,-66 489.5,-66 489.5,-96"/>
<text text-anchor="start" x="377.5" y="-84" font-family="Helvetica,sans-Serif" font-size="10.00">src/protocols/webdav</text>
<text text-anchor="middle" x="429.5" y="-73" font-family="Helvetica,sans-Serif" font-size="10.00">/config.c</text>
</a>
</g>
</g>
<!-- Node1&#45;&gt;Node5 -->
<g id="edge4_Node000001_Node000005" class="edge">
<title>Node1&#45;&gt;Node5</title>
<g id="a_edge4_Node000001_Node000005"><a xlink:title=" ">
<path fill="none" stroke="#63b8ff" d="M475.78,-124.92C465.6,-115.49 453.87,-104.61 444.77,-96.16"/>
<polygon fill="#63b8ff" stroke="#63b8ff" points="473.47,-127.56 483.19,-131.8 478.24,-122.43 473.47,-127.56"/>
</a>
</g>
</g>
<!-- Node6 -->
<g id="Node000006" class="node">
<title>Node6</title>
<g id="a_Node000006"><a xlink:href="config__merge_8c.html" target="_top" xlink:title=" ">
<polygon fill="white" stroke="#666666" points="627.5,-96 507.5,-96 507.5,-66 627.5,-66 627.5,-96"/>
<text text-anchor="start" x="515.5" y="-84" font-family="Helvetica,sans-Serif" font-size="10.00">src/protocols/webdav</text>
<text text-anchor="middle" x="567.5" y="-73" font-family="Helvetica,sans-Serif" font-size="10.00">/config_merge.c</text>
</a>
</g>
</g>
<!-- Node1&#45;&gt;Node6 -->
<g id="edge5_Node000001_Node000006" class="edge">
<title>Node1&#45;&gt;Node6</title>
<g id="a_edge5_Node000001_Node000006"><a xlink:title=" ">
<path fill="none" stroke="#63b8ff" d="M521.22,-124.92C531.4,-115.49 543.13,-104.61 552.23,-96.16"/>
<polygon fill="#63b8ff" stroke="#63b8ff" points="518.76,-122.43 513.81,-131.8 523.53,-127.56 518.76,-122.43"/>
</a>
</g>
</g>
<!-- Node7 -->
<g id="Node000007" class="node">
<title>Node7</title>
<g id="a_Node000007"><a xlink:href="config__proxy_8c.html" target="_top" xlink:title=" ">
<polygon fill="white" stroke="#666666" points="765.5,-96 645.5,-96 645.5,-66 765.5,-66 765.5,-96"/>
<text text-anchor="start" x="653.5" y="-84" font-family="Helvetica,sans-Serif" font-size="10.00">src/protocols/webdav</text>
<text text-anchor="middle" x="705.5" y="-73" font-family="Helvetica,sans-Serif" font-size="10.00">/config_proxy.c</text>
</a>
</g>
</g>
<!-- Node1&#45;&gt;Node7 -->
<g id="edge6_Node000001_Node000007" class="edge">
<title>Node1&#45;&gt;Node7</title>
<g id="a_edge6_Node000001_Node000007"><a xlink:title=" ">
<path fill="none" stroke="#63b8ff" d="M553.52,-128.99C586.83,-118.69 628.79,-105.72 660.18,-96.01"/>
<polygon fill="#63b8ff" stroke="#63b8ff" points="552.45,-125.66 543.93,-131.95 554.51,-132.34 552.45,-125.66"/>
</a>
</g>
</g>
<!-- Node8 -->
<g id="Node000008" class="node">
<title>Node8</title>
<g id="a_Node000008"><a xlink:href="postconfig_8c.html" target="_top" xlink:title=" ">
<polygon fill="white" stroke="#666666" points="903.5,-96 783.5,-96 783.5,-66 903.5,-66 903.5,-96"/>
<text text-anchor="start" x="791.5" y="-84" font-family="Helvetica,sans-Serif" font-size="10.00">src/protocols/webdav</text>
<text text-anchor="middle" x="843.5" y="-73" font-family="Helvetica,sans-Serif" font-size="10.00">/postconfig.c</text>
</a>
</g>
</g>
<!-- Node1&#45;&gt;Node8 -->
<g id="edge7_Node000001_Node000008" class="edge">
<title>Node1&#45;&gt;Node8</title>
<g id="a_edge7_Node000001_Node000008"><a xlink:title=" ">
<path fill="none" stroke="#63b8ff" d="M561.33,-135C617.32,-125.11 701.45,-110.03 774.5,-96 777.38,-95.45 780.33,-94.87 783.3,-94.29"/>
<polygon fill="#63b8ff" stroke="#63b8ff" points="560.46,-131.6 551.22,-136.79 561.67,-138.5 560.46,-131.6"/>
</a>
</g>
</g>
<!-- Node9 -->
<g id="Node000009" class="node">
<title>Node9</title>
<g id="a_Node000009"><a xlink:href="webdav__module__internal_8h.html" target="_top" xlink:title=" ">
<polygon fill="white" stroke="#666666" points="1073.5,-96 921.5,-96 921.5,-66 1073.5,-66 1073.5,-96"/>
<text text-anchor="start" x="929.5" y="-84" font-family="Helvetica,sans-Serif" font-size="10.00">src/protocols/webdav</text>
<text text-anchor="middle" x="997.5" y="-73" font-family="Helvetica,sans-Serif" font-size="10.00">/webdav_module_internal.h</text>
</a>
</g>
</g>
<!-- Node1&#45;&gt;Node9 -->
<g id="edge8_Node000001_Node000009" class="edge">
<title>Node1&#45;&gt;Node9</title>
<g id="a_edge8_Node000001_Node000009"><a xlink:title=" ">
<path fill="none" stroke="#63b8ff" d="M561.26,-139.27C642.47,-130.37 788.27,-113.72 912.5,-96 915.31,-95.6 918.18,-95.18 921.07,-94.75"/>
<polygon fill="#63b8ff" stroke="#63b8ff" points="560.76,-135.8 551.2,-140.37 561.53,-142.76 560.76,-135.8"/>
</a>
</g>
</g>
<!-- Node10 -->
<g id="Node000010" class="node">
<title>Node10</title>
<g id="a_Node000010"><a xlink:href="protocols_2webdav_2module_8c.html" target="_top" xlink:title=" ">
<polygon fill="white" stroke="#666666" points="847.5,-30 727.5,-30 727.5,0 847.5,0 847.5,-30"/>
<text text-anchor="start" x="735.5" y="-18" font-family="Helvetica,sans-Serif" font-size="10.00">src/protocols/webdav</text>
<text text-anchor="middle" x="787.5" y="-7" font-family="Helvetica,sans-Serif" font-size="10.00">/module.c</text>
</a>
</g>
</g>
<!-- Node9&#45;&gt;Node10 -->
<g id="edge9_Node000009_Node000010" class="edge">
<title>Node9&#45;&gt;Node10</title>
<g id="a_edge9_Node000009_Node000010"><a xlink:title=" ">
<path fill="none" stroke="#63b8ff" d="M941.68,-62.99C907.89,-52.69 865.32,-39.72 833.48,-30.01"/>
<polygon fill="#63b8ff" stroke="#63b8ff" points="940.83,-66.39 951.41,-65.95 942.87,-59.69 940.83,-66.39"/>
</a>
</g>
</g>
<!-- Node11 -->
<g id="Node000011" class="node">
<title>Node11</title>
<g id="a_Node000011"><a xlink:href="module__commands_8c.html" target="_top" xlink:title=" ">
<polygon fill="white" stroke="#666666" points="989.5,-30 865.5,-30 865.5,0 989.5,0 989.5,-30"/>
<text text-anchor="start" x="873.5" y="-18" font-family="Helvetica,sans-Serif" font-size="10.00">src/protocols/webdav</text>
<text text-anchor="middle" x="927.5" y="-7" font-family="Helvetica,sans-Serif" font-size="10.00">/module_commands.c</text>
</a>
</g>
</g>
<!-- Node9&#45;&gt;Node11 -->
<g id="edge10_Node000009_Node000011" class="edge">
<title>Node9&#45;&gt;Node11</title>
<g id="a_edge10_Node000009_Node000011"><a xlink:title=" ">
<path fill="none" stroke="#63b8ff" d="M974.45,-58.92C964.13,-49.49 952.23,-38.61 942.99,-30.16"/>
<polygon fill="#63b8ff" stroke="#63b8ff" points="972.22,-61.63 981.96,-65.8 976.95,-56.47 972.22,-61.63"/>
</a>
</g>
</g>
<!-- Node12 -->
<g id="Node000012" class="node">
<title>Node12</title>
<g id="a_Node000012"><a xlink:href="module__directives_8c.html" target="_top" xlink:title=" ">
<polygon fill="white" stroke="#666666" points="1127.5,-30 1007.5,-30 1007.5,0 1127.5,0 1127.5,-30"/>
<text text-anchor="start" x="1015.5" y="-18" font-family="Helvetica,sans-Serif" font-size="10.00">src/protocols/webdav</text>
<text text-anchor="middle" x="1067.5" y="-7" font-family="Helvetica,sans-Serif" font-size="10.00">/module_directives.c</text>
</a>
</g>
</g>
<!-- Node9&#45;&gt;Node12 -->
<g id="edge11_Node000009_Node000012" class="edge">
<title>Node9&#45;&gt;Node12</title>
<g id="a_edge11_Node000009_Node000012"><a xlink:title=" ">
<path fill="none" stroke="#63b8ff" d="M1020.55,-58.92C1030.87,-49.49 1042.77,-38.61 1052.01,-30.16"/>
<polygon fill="#63b8ff" stroke="#63b8ff" points="1018.05,-56.47 1013.04,-65.8 1022.78,-61.63 1018.05,-56.47"/>
</a>
</g>
</g>
<!-- Node13 -->
<g id="Node000013" class="node">
<title>Node13</title>
<g id="a_Node000013"><a xlink:href="module__init_8c.html" target="_top" xlink:title=" ">
<polygon fill="white" stroke="#666666" points="1265.5,-30 1145.5,-30 1145.5,0 1265.5,0 1265.5,-30"/>
<text text-anchor="start" x="1153.5" y="-18" font-family="Helvetica,sans-Serif" font-size="10.00">src/protocols/webdav</text>
<text text-anchor="middle" x="1205.5" y="-7" font-family="Helvetica,sans-Serif" font-size="10.00">/module_init.c</text>
</a>
</g>
</g>
<!-- Node9&#45;&gt;Node13 -->
<g id="edge12_Node000009_Node000013" class="edge">
<title>Node9&#45;&gt;Node13</title>
<g id="a_edge12_Node000009_Node000013"><a xlink:title=" ">
<path fill="none" stroke="#63b8ff" d="M1052.79,-62.99C1086.25,-52.69 1128.42,-39.72 1159.96,-30.01"/>
<polygon fill="#63b8ff" stroke="#63b8ff" points="1051.67,-59.67 1043.15,-65.95 1053.73,-66.36 1051.67,-59.67"/>
</a>
</g>
</g>
</g>
</svg>
