<?xml version="1.0" encoding="UTF-8" standalone="no"?>
<!DOCTYPE svg PUBLIC "-//W3C//DTD SVG 1.1//EN"
 "http://www.w3.org/Graphics/SVG/1.1/DTD/svg11.dtd">
<!-- Generated by graphviz version 2.43.0 (0)
 -->
<!-- Title: src/core/http/http_body_decode.c Pages: 1 -->
<!--zoomable 269 -->

<svg id="main" version="1.1" xmlns="http://www.w3.org/2000/svg" xmlns:xlink="http://www.w3.org/1999/xlink" xml:space="preserve" onload="init(evt)">
<style type="text/css"><![CDATA[
.node, .edge {opacity: 0.7;}
.node.selected, .edge.selected {opacity: 1;}
.edge:hover path { stroke: red; }
.edge:hover polygon { stroke: red; fill: red; }
]]></style>

<defs>
  <circle id="rim" cx="0" cy="0" r="7"/>
  <circle id="rim2" cx="0" cy="0" r="3.5"/>
  <g id="zoomPlus">
    <use xlink:href="#rim" fill="#404040"><set attributeName="fill" to="#808080" begin="zoomplus.mouseover" end="zoomplus.mouseout"/></use>
    <path d="M-4,0h8M0,-4v8" fill="none" stroke="white" stroke-width="1.5" pointer-events="none"/>
  </g>
  <g id="zoomMin">
    <use xlink:href="#rim" fill="#404040"><set attributeName="fill" to="#808080" begin="zoomminus.mouseover" end="zoomminus.mouseout"/></use>
    <path d="M-4,0h8" fill="none" stroke="white" stroke-width="1.5" pointer-events="none"/>
  </g>
  <g id="arrowUp" transform="translate(30 24)">
    <use xlink:href="#rim"/>
    <path pointer-events="none" fill="none" stroke="white" stroke-width="1.5" d="M0,-3.0v7 M-2.5,-0.5L0,-3.0L2.5,-0.5"/>
  </g>
  <g id="arrowRight" transform="rotate(90) translate(36 -43)">
    <use xlink:href="#rim"/>
    <path pointer-events="none" fill="none" stroke="white" stroke-width="1.5" d="M0,-3.0v7 M-2.5,-0.5L0,-3.0L2.5,-0.5"/>
  </g>
  <g id="arrowDown" transform="rotate(180) translate(-30 -48)">
    <use xlink:href="#rim"/>
    <path pointer-events="none" fill="none" stroke="white" stroke-width="1.5" d="M0,-3.0v7 M-2.5,-0.5L0,-3.0L2.5,-0.5"/>
  </g>
  <g id="arrowLeft" transform="rotate(270) translate(-36 17)">
    <use xlink:href="#rim"/>
    <path pointer-events="none" fill="none" stroke="white" stroke-width="1.5" d="M0,-3.0v7 M-2.5,-0.5L0,-3.0L2.5,-0.5"/>
  </g>
  <g id="resetDef">
    <use xlink:href="#rim2" fill="#404040"><set attributeName="fill" to="#808080" begin="reset.mouseover" end="reset.mouseout"/></use>
  </g>
</defs>
<script type="application/ecmascript">
var viewWidth = 1200;
var viewHeight = 269;
var sectionId = 'dynsection-0';
</script>
<script type="application/ecmascript" xlink:href="svg.min.js"/>
<svg id="graph" class="graph">
<g id="viewport">
<title>src/core/http/http_body_decode.c</title>
<!-- Node1 -->
<g id="Node000001" class="node">
<title>Node1</title>
<g id="a_Node000001"><a xlink:title=" ">
<polygon fill="#999999" stroke="#666666" points="868.69,-261 768.69,-261 768.69,-231 868.69,-231 868.69,-261"/>
<text text-anchor="start" x="776.69" y="-249" font-family="Helvetica,sans-Serif" font-size="10.00">src/core/http/http</text>
<text text-anchor="middle" x="818.69" y="-238" font-family="Helvetica,sans-Serif" font-size="10.00">_body_decode.c</text>
</a>
</g>
</g>
<!-- Node2 -->
<g id="Node000002" class="node">
<title>Node2</title>
<g id="a_Node000002"><a xlink:href="http__body_8h.html" target="_top" xlink:title=" ">
<polygon fill="white" stroke="#666666" points="855.19,-195 782.19,-195 782.19,-176 855.19,-176 855.19,-195"/>
<text text-anchor="middle" x="818.69" y="-183" font-family="Helvetica,sans-Serif" font-size="10.00">http_body.h</text>
</a>
</g>
</g>
<!-- Node1&#45;&gt;Node2 -->
<g id="edge1_Node000001_Node000002" class="edge">
<title>Node1&#45;&gt;Node2</title>
<g id="a_edge1_Node000001_Node000002"><a xlink:title=" ">
<path fill="none" stroke="#63b8ff" d="M818.69,-230.84C818.69,-223.21 818.69,-213.7 818.69,-205.45"/>
<polygon fill="#63b8ff" stroke="#63b8ff" points="822.19,-205.27 818.69,-195.27 815.19,-205.27 822.19,-205.27"/>
</a>
</g>
</g>
<!-- Node6 -->
<g id="Node000006" class="node">
<title>Node6</title>
<g id="a_Node000006"><a xlink:href="codec__core_8h.html" target="_top" xlink:title=" ">
<polygon fill="white" stroke="#666666" points="1151.69,-134.5 1007.69,-134.5 1007.69,-115.5 1151.69,-115.5 1151.69,-134.5"/>
<text text-anchor="middle" x="1079.69" y="-122.5" font-family="Helvetica,sans-Serif" font-size="10.00">core/compat/codec_core.h</text>
</a>
</g>
</g>
<!-- Node1&#45;&gt;Node6 -->
<g id="edge11_Node000001_Node000006" class="edge">
<title>Node1&#45;&gt;Node6</title>
<g id="a_edge11_Node000001_Node000006"><a xlink:title=" ">
<path fill="none" stroke="#63b8ff" d="M868.7,-234.21C902.02,-225.96 946.23,-212.93 982.69,-195 1012.62,-180.28 1043.38,-156.68 1062.01,-141.26"/>
<polygon fill="#63b8ff" stroke="#63b8ff" points="1064.51,-143.74 1069.9,-134.62 1060,-138.38 1064.51,-143.74"/>
</a>
</g>
</g>
<!-- Node9 -->
<g id="Node000009" class="node">
<title>Node9</title>
<g id="a_Node000009"><a xlink:href="http__body__internal_8h.html" target="_top" xlink:title=" ">
<polygon fill="white" stroke="#666666" points="593.19,-134.5 476.19,-134.5 476.19,-115.5 593.19,-115.5 593.19,-134.5"/>
<text text-anchor="middle" x="534.69" y="-122.5" font-family="Helvetica,sans-Serif" font-size="10.00">http_body_internal.h</text>
</a>
</g>
</g>
<!-- Node1&#45;&gt;Node9 -->
<g id="edge8_Node000001_Node000009" class="edge">
<title>Node1&#45;&gt;Node9</title>
<g id="a_edge8_Node000001_Node000009"><a xlink:title=" ">
<path fill="none" stroke="#63b8ff" d="M785.27,-231C729.37,-207.57 617.77,-160.81 564.42,-138.46"/>
<polygon fill="#63b8ff" stroke="#63b8ff" points="565.74,-135.22 555.17,-134.58 563.04,-141.67 565.74,-135.22"/>
</a>
</g>
</g>
<!-- Node10 -->
<g id="Node000010" class="node">
<title>Node10</title>
<g id="a_Node000010"><a xlink:href="src_2fs_2vfs_2vfs_8h.html" target="_top" xlink:title=" ">
<polygon fill="white" stroke="#666666" points="401.19,-195 330.19,-195 330.19,-176 401.19,-176 401.19,-195"/>
<text text-anchor="middle" x="365.69" y="-183" font-family="Helvetica,sans-Serif" font-size="10.00">fs/vfs/vfs.h</text>
</a>
</g>
</g>
<!-- Node1&#45;&gt;Node10 -->
<g id="edge12_Node000001_Node000010" class="edge">
<title>Node1&#45;&gt;Node10</title>
<g id="a_edge12_Node000001_Node000010"><a xlink:title=" ">
<path fill="none" stroke="#63b8ff" d="M768.48,-238.52C679.8,-227.06 496.78,-203.43 411.41,-192.4"/>
<polygon fill="#63b8ff" stroke="#63b8ff" points="411.61,-188.9 401.25,-191.09 410.72,-195.84 411.61,-188.9"/>
</a>
</g>
</g>
<!-- Node20 -->
<g id="Node000020" class="node">
<title>Node20</title>
<g id="a_Node000020"><a xlink:title=" ">
<polygon fill="#e0e0e0" stroke="#999999" points="857.19,-19 806.19,-19 806.19,0 857.19,0 857.19,-19"/>
<text text-anchor="middle" x="831.69" y="-7" font-family="Helvetica,sans-Serif" font-size="10.00">errno.h</text>
</a>
</g>
</g>
<!-- Node1&#45;&gt;Node20 -->
<g id="edge44_Node000001_Node000020" class="edge">
<title>Node1&#45;&gt;Node20</title>
<g id="a_edge44_Node000001_Node000020"><a xlink:title=" ">
<path fill="none" stroke="#63b8ff" d="M848.98,-230.91C880.76,-214.25 928.94,-183.22 949.69,-140 955.46,-127.98 955.31,-122.09 949.69,-110 939.41,-87.88 884.09,-46.91 852.97,-25.08"/>
<polygon fill="#63b8ff" stroke="#63b8ff" points="854.74,-22.05 844.54,-19.21 850.75,-27.8 854.74,-22.05"/>
</a>
</g>
</g>
<!-- Node3 -->
<g id="Node000003" class="node">
<title>Node3</title>
<g id="a_Node000003"><a xlink:title=" ">
<polygon fill="#e0e0e0" stroke="#999999" points="573.69,-74 495.69,-74 495.69,-55 573.69,-55 573.69,-74"/>
<text text-anchor="middle" x="534.69" y="-62" font-family="Helvetica,sans-Serif" font-size="10.00">ngx_config.h</text>
</a>
</g>
</g>
<!-- Node2&#45;&gt;Node3 -->
<g id="edge2_Node000002_Node000003" class="edge">
<title>Node2&#45;&gt;Node3</title>
<g id="a_edge2_Node000002_Node000003"><a xlink:title=" ">
<path fill="none" stroke="#63b8ff" d="M805.56,-175.89C792.3,-167.11 771.31,-152.97 753.69,-140 736.36,-127.25 735.02,-119.45 715.69,-110 673.7,-89.48 621.48,-77.95 583.94,-71.79"/>
<polygon fill="#63b8ff" stroke="#63b8ff" points="584.18,-68.29 573.76,-70.2 583.1,-75.21 584.18,-68.29"/>
</a>
</g>
</g>
<!-- Node4 -->
<g id="Node000004" class="node">
<title>Node4</title>
<g id="a_Node000004"><a xlink:title=" ">
<polygon fill="#e0e0e0" stroke="#999999" points="477.69,-74 407.69,-74 407.69,-55 477.69,-55 477.69,-74"/>
<text text-anchor="middle" x="442.69" y="-62" font-family="Helvetica,sans-Serif" font-size="10.00">ngx_core.h</text>
</a>
</g>
</g>
<!-- Node2&#45;&gt;Node4 -->
<g id="edge3_Node000002_Node000004" class="edge">
<title>Node2&#45;&gt;Node4</title>
<g id="a_edge3_Node000002_Node000004"><a xlink:title=" ">
<path fill="none" stroke="#63b8ff" d="M782.03,-184.69C701.8,-184.35 514.04,-179.28 466.69,-140 450.21,-126.34 444.93,-101.29 443.3,-84.03"/>
<polygon fill="#63b8ff" stroke="#63b8ff" points="446.79,-83.78 442.67,-74.02 439.8,-84.22 446.79,-83.78"/>
</a>
</g>
</g>
<!-- Node5 -->
<g id="Node000005" class="node">
<title>Node5</title>
<g id="a_Node000005"><a xlink:title=" ">
<polygon fill="#e0e0e0" stroke="#999999" points="940.69,-134.5 872.69,-134.5 872.69,-115.5 940.69,-115.5 940.69,-134.5"/>
<text text-anchor="middle" x="906.69" y="-122.5" font-family="Helvetica,sans-Serif" font-size="10.00">ngx_http.h</text>
</a>
</g>
</g>
<!-- Node2&#45;&gt;Node5 -->
<g id="edge4_Node000002_Node000005" class="edge">
<title>Node2&#45;&gt;Node5</title>
<g id="a_edge4_Node000002_Node000005"><a xlink:title=" ">
<path fill="none" stroke="#63b8ff" d="M831.67,-175.87C845.71,-166.54 868.32,-151.51 885.05,-140.38"/>
<polygon fill="#63b8ff" stroke="#63b8ff" points="887.26,-143.12 893.65,-134.67 883.38,-137.29 887.26,-143.12"/>
</a>
</g>
</g>
<!-- Node2&#45;&gt;Node6 -->
<g id="edge5_Node000002_Node000006" class="edge">
<title>Node2&#45;&gt;Node6</title>
<g id="a_edge5_Node000002_Node000006"><a xlink:title=" ">
<path fill="none" stroke="#63b8ff" d="M855.25,-176.3C901.42,-165.96 980.95,-148.13 1031.89,-136.71"/>
<polygon fill="#63b8ff" stroke="#63b8ff" points="1032.68,-140.12 1041.68,-134.52 1031.15,-133.29 1032.68,-140.12"/>
</a>
</g>
</g>
<!-- Node7 -->
<g id="Node000007" class="node">
<title>Node7</title>
<g id="a_Node000007"><a xlink:title=" ">
<polygon fill="#e0e0e0" stroke="#999999" points="1191.69,-74 1135.69,-74 1135.69,-55 1191.69,-55 1191.69,-74"/>
<text text-anchor="middle" x="1163.69" y="-62" font-family="Helvetica,sans-Serif" font-size="10.00">stddef.h</text>
</a>
</g>
</g>
<!-- Node6&#45;&gt;Node7 -->
<g id="edge6_Node000006_Node000007" class="edge">
<title>Node6&#45;&gt;Node7</title>
<g id="a_edge6_Node000006_Node000007"><a xlink:title=" ">
<path fill="none" stroke="#63b8ff" d="M1092.08,-115.37C1105.48,-106.04 1127.06,-91.01 1143.03,-79.88"/>
<polygon fill="#63b8ff" stroke="#63b8ff" points="1145.04,-82.75 1151.24,-74.17 1141.04,-77.01 1145.04,-82.75"/>
</a>
</g>
</g>
<!-- Node8 -->
<g id="Node000008" class="node">
<title>Node8</title>
<g id="a_Node000008"><a xlink:title=" ">
<polygon fill="#e0e0e0" stroke="#999999" points="1117.19,-74 1064.19,-74 1064.19,-55 1117.19,-55 1117.19,-74"/>
<text text-anchor="middle" x="1090.69" y="-62" font-family="Helvetica,sans-Serif" font-size="10.00">stdint.h</text>
</a>
</g>
</g>
<!-- Node6&#45;&gt;Node8 -->
<g id="edge7_Node000006_Node000008" class="edge">
<title>Node6&#45;&gt;Node8</title>
<g id="a_edge7_Node000006_Node000008"><a xlink:title=" ">
<path fill="none" stroke="#63b8ff" d="M1081.31,-115.37C1082.85,-107.16 1085.23,-94.54 1087.2,-84.05"/>
<polygon fill="#63b8ff" stroke="#63b8ff" points="1090.65,-84.64 1089.06,-74.17 1083.77,-83.35 1090.65,-84.64"/>
</a>
</g>
</g>
<!-- Node9&#45;&gt;Node3 -->
<g id="edge9_Node000009_Node000003" class="edge">
<title>Node9&#45;&gt;Node3</title>
<g id="a_edge9_Node000009_Node000003"><a xlink:title=" ">
<path fill="none" stroke="#63b8ff" d="M534.69,-115.37C534.69,-107.25 534.69,-94.81 534.69,-84.39"/>
<polygon fill="#63b8ff" stroke="#63b8ff" points="538.19,-84.17 534.69,-74.17 531.19,-84.17 538.19,-84.17"/>
</a>
</g>
</g>
<!-- Node9&#45;&gt;Node4 -->
<g id="edge10_Node000009_Node000004" class="edge">
<title>Node9&#45;&gt;Node4</title>
<g id="a_edge10_Node000009_Node000004"><a xlink:title=" ">
<path fill="none" stroke="#63b8ff" d="M521.11,-115.37C506.3,-105.95 482.36,-90.73 464.82,-79.58"/>
<polygon fill="#63b8ff" stroke="#63b8ff" points="466.63,-76.58 456.32,-74.17 462.88,-82.49 466.63,-76.58"/>
</a>
</g>
</g>
<!-- Node10&#45;&gt;Node3 -->
<g id="edge13_Node000010_Node000003" class="edge">
<title>Node10&#45;&gt;Node3</title>
<g id="a_edge13_Node000010_Node000003"><a xlink:title=" ">
<path fill="none" stroke="#63b8ff" d="M377.05,-175.8C395.58,-161.67 433.59,-133.01 466.69,-110 481.75,-99.53 499.05,-88.22 512.43,-79.62"/>
<polygon fill="#63b8ff" stroke="#63b8ff" points="514.45,-82.48 520.99,-74.14 510.68,-76.58 514.45,-82.48"/>
</a>
</g>
</g>
<!-- Node10&#45;&gt;Node4 -->
<g id="edge14_Node000010_Node000004" class="edge">
<title>Node10&#45;&gt;Node4</title>
<g id="a_edge14_Node000010_Node000004"><a xlink:title=" ">
<path fill="none" stroke="#63b8ff" d="M329.89,-182.71C243.27,-178.01 27.9,-164 6.69,-140 -2.14,-130.01 -2.29,-119.86 6.69,-110 35.7,-78.16 349.98,-79.61 392.69,-74 394.19,-73.8 395.71,-73.59 397.25,-73.38"/>
<polygon fill="#63b8ff" stroke="#63b8ff" points="398.14,-76.78 407.5,-71.82 397.09,-69.86 398.14,-76.78"/>
</a>
</g>
</g>
<!-- Node11 -->
<g id="Node000011" class="node">
<title>Node11</title>
<g id="a_Node000011"><a xlink:href="fs_2path_2unified_8h.html" target="_top" xlink:title=" ">
<polygon fill="white" stroke="#666666" points="706.19,-134.5 611.19,-134.5 611.19,-115.5 706.19,-115.5 706.19,-134.5"/>
<text text-anchor="middle" x="658.69" y="-122.5" font-family="Helvetica,sans-Serif" font-size="10.00">fs/path/unified.h</text>
</a>
</g>
</g>
<!-- Node10&#45;&gt;Node11 -->
<g id="edge15_Node000010_Node000011" class="edge">
<title>Node10&#45;&gt;Node11</title>
<g id="a_edge15_Node000010_Node000011"><a xlink:title=" ">
<path fill="none" stroke="#63b8ff" d="M401.39,-178.39C447.72,-170.32 530.99,-155.34 601.69,-140 606.12,-139.04 610.74,-137.99 615.33,-136.91"/>
<polygon fill="#63b8ff" stroke="#63b8ff" points="616.39,-140.25 625.3,-134.52 614.76,-133.45 616.39,-140.25"/>
</a>
</g>
</g>
<!-- Node13 -->
<g id="Node000013" class="node">
<title>Node13</title>
<g id="a_Node000013"><a xlink:href="identity_8h.html" target="_top" xlink:title=" ">
<polygon fill="white" stroke="#666666" points="131.69,-134.5 15.69,-134.5 15.69,-115.5 131.69,-115.5 131.69,-134.5"/>
<text text-anchor="middle" x="73.69" y="-122.5" font-family="Helvetica,sans-Serif" font-size="10.00">core/types/identity.h</text>
</a>
</g>
</g>
<!-- Node10&#45;&gt;Node13 -->
<g id="edge19_Node000010_Node000013" class="edge">
<title>Node10&#45;&gt;Node13</title>
<g id="a_edge19_Node000010_Node000013"><a xlink:title=" ">
<path fill="none" stroke="#63b8ff" d="M329.81,-177.53C285.39,-168.87 207.41,-153.57 140.69,-140 135.3,-138.9 129.68,-137.75 124.07,-136.59"/>
<polygon fill="#63b8ff" stroke="#63b8ff" points="124.57,-133.12 114.06,-134.51 123.14,-139.97 124.57,-133.12"/>
</a>
</g>
</g>
<!-- Node17 -->
<g id="Node000017" class="node">
<title>Node17</title>
<g id="a_Node000017"><a xlink:href="observability_2metrics_2unified_8h.html" target="_top" xlink:title=" ">
<polygon fill="white" stroke="#666666" points="381.69,-140 261.69,-140 261.69,-110 381.69,-110 381.69,-140"/>
<text text-anchor="start" x="269.69" y="-128" font-family="Helvetica,sans-Serif" font-size="10.00">observability/metrics</text>
<text text-anchor="middle" x="321.69" y="-117" font-family="Helvetica,sans-Serif" font-size="10.00">/unified.h</text>
</a>
</g>
</g>
<!-- Node10&#45;&gt;Node17 -->
<g id="edge25_Node000010_Node000017" class="edge">
<title>Node10&#45;&gt;Node17</title>
<g id="a_edge25_Node000010_Node000017"><a xlink:title=" ">
<path fill="none" stroke="#63b8ff" d="M359.2,-175.87C353.72,-168.59 345.64,-157.85 338.39,-148.2"/>
<polygon fill="#63b8ff" stroke="#63b8ff" points="341.11,-146 332.3,-140.11 335.52,-150.21 341.11,-146"/>
</a>
</g>
</g>
<!-- Node19 -->
<g id="Node000019" class="node">
<title>Node19</title>
<g id="a_Node000019"><a xlink:href="sd_8h.html" target="_top" xlink:title=" ">
<polygon fill="white" stroke="#666666" points="854.69,-134.5 762.69,-134.5 762.69,-115.5 854.69,-115.5 854.69,-134.5"/>
<text text-anchor="middle" x="808.69" y="-122.5" font-family="Helvetica,sans-Serif" font-size="10.00">fs/backend/sd.h</text>
</a>
</g>
</g>
<!-- Node10&#45;&gt;Node19 -->
<g id="edge29_Node000010_Node000019" class="edge">
<title>Node10&#45;&gt;Node19</title>
<g id="a_edge29_Node000010_Node000019"><a xlink:title=" ">
<path fill="none" stroke="#63b8ff" d="M401.25,-180.25C464.53,-172.63 600.87,-155.94 715.69,-140 727.56,-138.35 740.28,-136.5 752.38,-134.69"/>
<polygon fill="#63b8ff" stroke="#63b8ff" points="752.99,-138.14 762.36,-133.19 751.95,-131.21 752.99,-138.14"/>
</a>
</g>
</g>
<!-- Node25 -->
<g id="Node000025" class="node">
<title>Node25</title>
<g id="a_Node000025"><a xlink:href="vfs__ops_8h.html" target="_top" xlink:title=" ">
<polygon fill="white" stroke="#666666" points="243.19,-134.5 150.19,-134.5 150.19,-115.5 243.19,-115.5 243.19,-134.5"/>
<text text-anchor="middle" x="196.69" y="-122.5" font-family="Helvetica,sans-Serif" font-size="10.00">fs/vfs/vfs_ops.h</text>
</a>
</g>
</g>
<!-- Node10&#45;&gt;Node25 -->
<g id="edge43_Node000010_Node000025" class="edge">
<title>Node10&#45;&gt;Node25</title>
<g id="a_edge43_Node000010_Node000025"><a xlink:title=" ">
<path fill="none" stroke="#63b8ff" d="M341.11,-175.99C312.08,-165.94 263.59,-149.16 230.89,-137.84"/>
<polygon fill="#63b8ff" stroke="#63b8ff" points="231.89,-134.48 221.29,-134.52 229.6,-141.1 231.89,-134.48"/>
</a>
</g>
</g>
<!-- Node11&#45;&gt;Node3 -->
<g id="edge16_Node000011_Node000003" class="edge">
<title>Node11&#45;&gt;Node3</title>
<g id="a_edge16_Node000011_Node000003"><a xlink:title=" ">
<path fill="none" stroke="#63b8ff" d="M640.66,-115.49C619.99,-105.75 585.91,-89.66 561.99,-78.38"/>
<polygon fill="#63b8ff" stroke="#63b8ff" points="563.28,-75.12 552.74,-74.02 560.29,-81.45 563.28,-75.12"/>
</a>
</g>
</g>
<!-- Node11&#45;&gt;Node4 -->
<g id="edge17_Node000011_Node000004" class="edge">
<title>Node11&#45;&gt;Node4</title>
<g id="a_edge17_Node000011_Node000004"><a xlink:title=" ">
<path fill="none" stroke="#63b8ff" d="M627.28,-115.49C589.45,-105.25 525.78,-88 484,-76.69"/>
<polygon fill="#63b8ff" stroke="#63b8ff" points="484.7,-73.25 474.13,-74.02 482.87,-80.01 484.7,-73.25"/>
</a>
</g>
</g>
<!-- Node12 -->
<g id="Node000012" class="node">
<title>Node12</title>
<g id="a_Node000012"><a xlink:title=" ">
<polygon fill="#e0e0e0" stroke="#999999" points="673.69,-74 609.69,-74 609.69,-55 673.69,-55 673.69,-74"/>
<text text-anchor="middle" x="641.69" y="-62" font-family="Helvetica,sans-Serif" font-size="10.00">sys/stat.h</text>
</a>
</g>
</g>
<!-- Node11&#45;&gt;Node12 -->
<g id="edge18_Node000011_Node000012" class="edge">
<title>Node11&#45;&gt;Node12</title>
<g id="a_edge18_Node000011_Node000012"><a xlink:title=" ">
<path fill="none" stroke="#63b8ff" d="M656.18,-115.37C653.79,-107.16 650.13,-94.54 647.08,-84.05"/>
<polygon fill="#63b8ff" stroke="#63b8ff" points="650.36,-82.79 644.21,-74.17 643.64,-84.75 650.36,-82.79"/>
</a>
</g>
</g>
<!-- Node13&#45;&gt;Node3 -->
<g id="edge20_Node000013_Node000003" class="edge">
<title>Node13&#45;&gt;Node3</title>
<g id="a_edge20_Node000013_Node000003"><a xlink:title=" ">
<path fill="none" stroke="#63b8ff" d="M111.13,-115.47C120.73,-113.48 131.06,-111.5 140.69,-110 290.16,-86.67 331.8,-95.11 485.17,-74.11"/>
<polygon fill="#63b8ff" stroke="#63b8ff" points="486.01,-77.53 495.43,-72.69 485.04,-70.6 486.01,-77.53"/>
</a>
</g>
</g>
<!-- Node13&#45;&gt;Node4 -->
<g id="edge21_Node000013_Node000004" class="edge">
<title>Node13&#45;&gt;Node4</title>
<g id="a_edge21_Node000013_Node000004"><a xlink:title=" ">
<path fill="none" stroke="#63b8ff" d="M112.58,-115.43C121.77,-113.53 131.56,-111.6 140.69,-110 252.12,-90.42 280.91,-91.48 392.69,-74 394.18,-73.77 395.7,-73.53 397.24,-73.28"/>
<polygon fill="#63b8ff" stroke="#63b8ff" points="398.16,-76.67 407.47,-71.61 397.03,-69.77 398.16,-76.67"/>
</a>
</g>
</g>
<!-- Node14 -->
<g id="Node000014" class="node">
<title>Node14</title>
<g id="a_Node000014"><a xlink:href="token_8h.html" target="_top" xlink:title=" ">
<polygon fill="white" stroke="#666666" points="127.19,-74 20.19,-74 20.19,-55 127.19,-55 127.19,-74"/>
<text text-anchor="middle" x="73.69" y="-62" font-family="Helvetica,sans-Serif" font-size="10.00">auth/token/token.h</text>
</a>
</g>
</g>
<!-- Node13&#45;&gt;Node14 -->
<g id="edge22_Node000013_Node000014" class="edge">
<title>Node13&#45;&gt;Node14</title>
<g id="a_edge22_Node000013_Node000014"><a xlink:title=" ">
<path fill="none" stroke="#63b8ff" d="M73.69,-115.37C73.69,-107.25 73.69,-94.81 73.69,-84.39"/>
<polygon fill="#63b8ff" stroke="#63b8ff" points="77.19,-84.17 73.69,-74.17 70.19,-84.17 77.19,-84.17"/>
</a>
</g>
</g>
<!-- Node15 -->
<g id="Node000015" class="node">
<title>Node15</title>
<g id="a_Node000015"><a xlink:title=" ">
<polygon fill="#e0e0e0" stroke="#999999" points="159.69,-19 75.69,-19 75.69,0 159.69,0 159.69,-19"/>
<text text-anchor="middle" x="117.69" y="-7" font-family="Helvetica,sans-Serif" font-size="10.00">openssl/evp.h</text>
</a>
</g>
</g>
<!-- Node14&#45;&gt;Node15 -->
<g id="edge23_Node000014_Node000015" class="edge">
<title>Node14&#45;&gt;Node15</title>
<g id="a_edge23_Node000014_Node000015"><a xlink:title=" ">
<path fill="none" stroke="#63b8ff" d="M80.95,-54.75C87.23,-47.18 96.48,-36.05 104.12,-26.84"/>
<polygon fill="#63b8ff" stroke="#63b8ff" points="106.86,-29.02 110.56,-19.09 101.48,-24.55 106.86,-29.02"/>
</a>
</g>
</g>
<!-- Node16 -->
<g id="Node000016" class="node">
<title>Node16</title>
<g id="a_Node000016"><a xlink:title=" ">
<polygon fill="#e0e0e0" stroke="#999999" points="57.19,-19 4.19,-19 4.19,0 57.19,0 57.19,-19"/>
<text text-anchor="middle" x="30.69" y="-7" font-family="Helvetica,sans-Serif" font-size="10.00">limits.h</text>
</a>
</g>
</g>
<!-- Node14&#45;&gt;Node16 -->
<g id="edge24_Node000014_Node000016" class="edge">
<title>Node14&#45;&gt;Node16</title>
<g id="a_edge24_Node000014_Node000016"><a xlink:title=" ">
<path fill="none" stroke="#63b8ff" d="M66.59,-54.75C60.51,-47.26 51.6,-36.28 44.18,-27.13"/>
<polygon fill="#63b8ff" stroke="#63b8ff" points="46.67,-24.65 37.66,-19.09 41.24,-29.06 46.67,-24.65"/>
</a>
</g>
</g>
<!-- Node17&#45;&gt;Node3 -->
<g id="edge26_Node000017_Node000003" class="edge">
<title>Node17&#45;&gt;Node3</title>
<g id="a_edge26_Node000017_Node000003"><a xlink:title=" ">
<path fill="none" stroke="#63b8ff" d="M372.71,-109.99C409.78,-99.8 459.31,-86.2 493.8,-76.73"/>
<polygon fill="#63b8ff" stroke="#63b8ff" points="494.83,-80.08 503.54,-74.05 492.97,-73.33 494.83,-80.08"/>
</a>
</g>
</g>
<!-- Node17&#45;&gt;Node4 -->
<g id="edge27_Node000017_Node000004" class="edge">
<title>Node17&#45;&gt;Node4</title>
<g id="a_edge27_Node000017_Node000004"><a xlink:title=" ">
<path fill="none" stroke="#63b8ff" d="M350.67,-109.99C370.41,-100.45 396.35,-87.9 415.66,-78.57"/>
<polygon fill="#63b8ff" stroke="#63b8ff" points="417.34,-81.64 424.82,-74.14 414.29,-75.34 417.34,-81.64"/>
</a>
</g>
</g>
<!-- Node18 -->
<g id="Node000018" class="node">
<title>Node18</title>
<g id="a_Node000018"><a xlink:href="proto__list_8h.html" target="_top" xlink:title=" ">
<polygon fill="white" stroke="#666666" points="384.19,-74 259.19,-74 259.19,-55 384.19,-55 384.19,-74"/>
<text text-anchor="middle" x="321.69" y="-62" font-family="Helvetica,sans-Serif" font-size="10.00">core/types/proto_list.h</text>
</a>
</g>
</g>
<!-- Node17&#45;&gt;Node18 -->
<g id="edge28_Node000017_Node000018" class="edge">
<title>Node17&#45;&gt;Node18</title>
<g id="a_edge28_Node000017_Node000018"><a xlink:title=" ">
<path fill="none" stroke="#63b8ff" d="M321.69,-109.84C321.69,-102.21 321.69,-92.7 321.69,-84.45"/>
<polygon fill="#63b8ff" stroke="#63b8ff" points="325.19,-84.27 321.69,-74.27 318.19,-84.27 325.19,-84.27"/>
</a>
</g>
</g>
<!-- Node19&#45;&gt;Node3 -->
<g id="edge30_Node000019_Node000003" class="edge">
<title>Node19&#45;&gt;Node3</title>
<g id="a_edge30_Node000019_Node000003"><a xlink:title=" ">
<path fill="none" stroke="#63b8ff" d="M772.87,-115.49C764.92,-113.65 756.52,-111.73 748.69,-110 692.25,-97.55 627.23,-84.16 583.81,-75.36"/>
<polygon fill="#63b8ff" stroke="#63b8ff" points="584.29,-71.89 573.8,-73.34 582.91,-78.75 584.29,-71.89"/>
</a>
</g>
</g>
<!-- Node19&#45;&gt;Node4 -->
<g id="edge31_Node000019_Node000004" class="edge">
<title>Node19&#45;&gt;Node4</title>
<g id="a_edge31_Node000019_Node000004"><a xlink:title=" ">
<path fill="none" stroke="#63b8ff" d="M762.48,-117.04C690.45,-106.15 553.62,-85.33 487.68,-74.11"/>
<polygon fill="#63b8ff" stroke="#63b8ff" points="488.18,-70.64 477.73,-72.39 486.99,-77.54 488.18,-70.64"/>
</a>
</g>
</g>
<!-- Node19&#45;&gt;Node8 -->
<g id="edge32_Node000019_Node000008" class="edge">
<title>Node19&#45;&gt;Node8</title>
<g id="a_edge32_Node000019_Node000008"><a xlink:title=" ">
<path fill="none" stroke="#63b8ff" d="M840.89,-115.47C848.36,-113.58 856.28,-111.66 863.69,-110 945.86,-91.61 967.13,-90.55 1049.69,-74 1050.97,-73.74 1052.28,-73.48 1053.59,-73.21"/>
<polygon fill="#63b8ff" stroke="#63b8ff" points="1054.7,-76.56 1063.79,-71.13 1053.29,-69.7 1054.7,-76.56"/>
</a>
</g>
</g>
<!-- Node19&#45;&gt;Node12 -->
<g id="edge34_Node000019_Node000012" class="edge">
<title>Node19&#45;&gt;Node12</title>
<g id="a_edge34_Node000019_Node000012"><a xlink:title=" ">
<path fill="none" stroke="#63b8ff" d="M784.4,-115.49C755.71,-105.44 707.8,-88.66 675.49,-77.34"/>
<polygon fill="#63b8ff" stroke="#63b8ff" points="676.6,-74.02 666,-74.02 674.28,-80.63 676.6,-74.02"/>
</a>
</g>
</g>
<!-- Node19&#45;&gt;Node20 -->
<g id="edge33_Node000019_Node000020" class="edge">
<title>Node19&#45;&gt;Node20</title>
<g id="a_edge33_Node000019_Node000020"><a xlink:title=" ">
<path fill="none" stroke="#63b8ff" d="M810.42,-115.47C814.11,-97.23 822.86,-54.07 827.91,-29.14"/>
<polygon fill="#63b8ff" stroke="#63b8ff" points="831.38,-29.63 829.94,-19.13 824.52,-28.24 831.38,-29.63"/>
</a>
</g>
</g>
<!-- Node21 -->
<g id="Node000021" class="node">
<title>Node21</title>
<g id="a_Node000021"><a xlink:title=" ">
<polygon fill="#e0e0e0" stroke="#999999" points="970.69,-19 898.69,-19 898.69,0 970.69,0 970.69,-19"/>
<text text-anchor="middle" x="934.69" y="-7" font-family="Helvetica,sans-Serif" font-size="10.00">sys/types.h</text>
</a>
</g>
</g>
<!-- Node19&#45;&gt;Node21 -->
<g id="edge35_Node000019_Node000021" class="edge">
<title>Node19&#45;&gt;Node21</title>
<g id="a_edge35_Node000019_Node000021"><a xlink:title=" ">
<path fill="none" stroke="#63b8ff" d="M818.16,-115.47C839.32,-96.41 890.69,-50.13 917.6,-25.89"/>
<polygon fill="#63b8ff" stroke="#63b8ff" points="920.02,-28.42 925.11,-19.13 915.33,-23.22 920.02,-28.42"/>
</a>
</g>
</g>
<!-- Node22 -->
<g id="Node000022" class="node">
<title>Node22</title>
<g id="a_Node000022"><a xlink:title=" ">
<polygon fill="#e0e0e0" stroke="#999999" points="1059.69,-19 999.69,-19 999.69,0 1059.69,0 1059.69,-19"/>
<text text-anchor="middle" x="1029.69" y="-7" font-family="Helvetica,sans-Serif" font-size="10.00">sys/uio.h</text>
</a>
</g>
</g>
<!-- Node19&#45;&gt;Node22 -->
<g id="edge36_Node000019_Node000022" class="edge">
<title>Node19&#45;&gt;Node22</title>
<g id="a_edge36_Node000019_Node000022"><a xlink:title=" ">
<path fill="none" stroke="#63b8ff" d="M841.82,-115.46C849.02,-113.64 856.61,-111.73 863.69,-110 931.54,-93.38 968.02,-124.11 1016.69,-74 1028.07,-62.28 1030.72,-43.43 1030.89,-29.31"/>
<polygon fill="#63b8ff" stroke="#63b8ff" points="1034.38,-29.12 1030.6,-19.22 1027.39,-29.31 1034.38,-29.12"/>
</a>
</g>
</g>
<!-- Node23 -->
<g id="Node000023" class="node">
<title>Node23</title>
<g id="a_Node000023"><a xlink:href="sd__cred__forward_8h.html" target="_top" xlink:title=" ">
<polygon fill="white" stroke="#666666" points="797.69,-74 691.69,-74 691.69,-55 797.69,-55 797.69,-74"/>
<text text-anchor="middle" x="744.69" y="-62" font-family="Helvetica,sans-Serif" font-size="10.00">sd_cred_forward.h</text>
</a>
</g>
</g>
<!-- Node19&#45;&gt;Node23 -->
<g id="edge37_Node000019_Node000023" class="edge">
<title>Node19&#45;&gt;Node23</title>
<g id="a_edge37_Node000019_Node000023"><a xlink:title=" ">
<path fill="none" stroke="#63b8ff" d="M799.24,-115.37C789.41,-106.38 773.8,-92.11 761.79,-81.14"/>
<polygon fill="#63b8ff" stroke="#63b8ff" points="763.91,-78.33 754.17,-74.17 759.19,-83.5 763.91,-78.33"/>
</a>
</g>
</g>
<!-- Node24 -->
<g id="Node000024" class="node">
<title>Node24</title>
<g id="a_Node000024"><a xlink:href="sd__registry_8h.html" target="_top" xlink:title=" ">
<polygon fill="white" stroke="#666666" points="1007.69,-74 929.69,-74 929.69,-55 1007.69,-55 1007.69,-74"/>
<text text-anchor="middle" x="968.69" y="-62" font-family="Helvetica,sans-Serif" font-size="10.00">sd_registry.h</text>
</a>
</g>
</g>
<!-- Node19&#45;&gt;Node24 -->
<g id="edge39_Node000019_Node000024" class="edge">
<title>Node19&#45;&gt;Node24</title>
<g id="a_edge39_Node000019_Node000024"><a xlink:title=" ">
<path fill="none" stroke="#63b8ff" d="M831.95,-115.49C859.33,-105.49 904.96,-88.8 935.9,-77.49"/>
<polygon fill="#63b8ff" stroke="#63b8ff" points="937.2,-80.74 945.39,-74.02 934.8,-74.16 937.2,-80.74"/>
</a>
</g>
</g>
<!-- Node23&#45;&gt;Node20 -->
<g id="edge38_Node000023_Node000020" class="edge">
<title>Node23&#45;&gt;Node20</title>
<g id="a_edge38_Node000023_Node000020"><a xlink:title=" ">
<path fill="none" stroke="#63b8ff" d="M758.67,-54.98C772.16,-46.77 792.82,-34.18 808.73,-24.49"/>
<polygon fill="#63b8ff" stroke="#63b8ff" points="810.74,-27.36 817.46,-19.17 807.09,-21.38 810.74,-27.36"/>
</a>
</g>
</g>
<!-- Node24&#45;&gt;Node20 -->
<g id="edge40_Node000024_Node000020" class="edge">
<title>Node24&#45;&gt;Node20</title>
<g id="a_edge40_Node000024_Node000020"><a xlink:title=" ">
<path fill="none" stroke="#63b8ff" d="M946.68,-54.98C924.24,-46.3 889.21,-32.75 863.7,-22.88"/>
<polygon fill="#63b8ff" stroke="#63b8ff" points="864.69,-19.51 854.1,-19.17 862.16,-26.04 864.69,-19.51"/>
</a>
</g>
</g>
<!-- Node24&#45;&gt;Node21 -->
<g id="edge41_Node000024_Node000021" class="edge">
<title>Node24&#45;&gt;Node21</title>
<g id="a_edge41_Node000024_Node000021"><a xlink:title=" ">
<path fill="none" stroke="#63b8ff" d="M963.07,-54.75C958.37,-47.42 951.51,-36.73 945.72,-27.7"/>
<polygon fill="#63b8ff" stroke="#63b8ff" points="948.54,-25.62 940.2,-19.09 942.65,-29.4 948.54,-25.62"/>
</a>
</g>
</g>
<!-- Node24&#45;&gt;Node22 -->
<g id="edge42_Node000024_Node000022" class="edge">
<title>Node24&#45;&gt;Node22</title>
<g id="a_edge42_Node000024_Node000022"><a xlink:title=" ">
<path fill="none" stroke="#63b8ff" d="M978.49,-54.98C987.51,-47.15 1001.09,-35.34 1012.01,-25.86"/>
<polygon fill="#63b8ff" stroke="#63b8ff" points="1014.46,-28.37 1019.71,-19.17 1009.86,-23.09 1014.46,-28.37"/>
</a>
</g>
</g>
</g>
</svg>

<g id="navigator" transform="translate(0 0)" fill="#404254">
  <rect fill="#f2f5e9" fill-opacity="0.5" stroke="#606060" stroke-width=".5" x="0" y="0" width="60" height="60"/>
  <use id="zoomplus" xlink:href="#zoomPlus" x="17" y="9" onmousedown="handleZoom(evt,'in')"/>
  <use id="zoomminus" xlink:href="#zoomMin" x="42" y="9" onmousedown="handleZoom(evt,'out')"/>
  <use id="reset" xlink:href="#resetDef" x="30" y="36" onmousedown="handleReset()"/>
   <use id="arrowup" xlink:href="#arrowUp" x="0" y="0" onmousedown="handlePan(0,-1)"/>
  <use id="arrowright" xlink:href="#arrowRight" x="0" y="0" onmousedown="handlePan(1,0)"/>
  <use id="arrowdown" xlink:href="#arrowDown" x="0" y="0" onmousedown="handlePan(0,1)"/>
  <use id="arrowleft" xlink:href="#arrowLeft" x="0" y="0" onmousedown="handlePan(-1,0)"/>
</g>
<svg viewBox="0 0 15 15" width="100%" height="30px" preserveAspectRatio="xMaxYMin meet">
 <g id="arrow_out" transform="scale(0.3 0.3)">
  <a xlink:href="http__body__decode_8c__incl_org.svg" target="_base">
   <rect id="button" ry="5" rx="5" y="6" x="6" height="38" width="38"
        fill="#f2f5e9" fill-opacity="0.5" stroke="#606060" stroke-width="1.0"/>
   <path id="arrow"
     d="M 11.500037,31.436501 C 11.940474,20.09759 22.043105,11.32322 32.158766,21.979434 L 37.068811,17.246167 C 37.068811,17.246167 37.088388,32 37.088388,32 L 22.160133,31.978069 C 22.160133,31.978069 26.997745,27.140456 26.997745,27.140456 C 18.528582,18.264221 13.291696,25.230495 11.500037,31.436501 z"
     style="fill:#404040;"/>
  </a>
 </g>
</svg>

<style type='text/css'>
<![CDATA[
[data-mouse-over-selected='false'] { opacity: 0.7; }
[data-mouse-over-selected='true']  { opacity: 1.0; }
]]>
</style>
<script type="application/ecmascript"><![CDATA[
document.addEventListener('DOMContentLoaded', (event) => {
  highlightEdges();
  highlightAdjacentNodes();
});
]]></script>
</svg>
