<?xml version="1.0" encoding="UTF-8" standalone="no"?>
<!DOCTYPE svg PUBLIC "-//W3C//DTD SVG 1.1//EN"
 "http://www.w3.org/Graphics/SVG/1.1/DTD/svg11.dtd">
<!-- Generated by graphviz version 2.43.0 (0)
 -->
<!-- Title: src/core/http/http_conditionals.h Pages: 1 -->
<!--zoomable 104 -->

<svg id="main" version="1.1" xmlns="http://www.w3.org/2000/svg" xmlns:xlink="http://www.w3.org/1999/xlink" xml:space="preserve" onload="init(evt)">
<style type="text/css"><![CDATA[
.node, .edge {opacity: 0.7;}
.node.selected, .edge.selected {opacity: 1;}
.edge:hover path { stroke: red; }
.edge:hover polygon { stroke: red; fill: red; }
]]></style>

<defs>
  <circle id="rim" cx="0" cy="0" r="7"/>
  <circle id="rim2" cx="0" cy="0" r="3.5"/>
  <g id="zoomPlus">
    <use xlink:href="#rim" fill="#404040"><set attributeName="fill" to="#808080" begin="zoomplus.mouseover" end="zoomplus.mouseout"/></use>
    <path d="M-4,0h8M0,-4v8" fill="none" stroke="white" stroke-width="1.5" pointer-events="none"/>
  </g>
  <g id="zoomMin">
    <use xlink:href="#rim" fill="#404040"><set attributeName="fill" to="#808080" begin="zoomminus.mouseover" end="zoomminus.mouseout"/></use>
    <path d="M-4,0h8" fill="none" stroke="white" stroke-width="1.5" pointer-events="none"/>
  </g>
  <g id="arrowUp" transform="translate(30 24)">
    <use xlink:href="#rim"/>
    <path pointer-events="none" fill="none" stroke="white" stroke-width="1.5" d="M0,-3.0v7 M-2.5,-0.5L0,-3.0L2.5,-0.5"/>
  </g>
  <g id="arrowRight" transform="rotate(90) translate(36 -43)">
    <use xlink:href="#rim"/>
    <path pointer-events="none" fill="none" stroke="white" stroke-width="1.5" d="M0,-3.0v7 M-2.5,-0.5L0,-3.0L2.5,-0.5"/>
  </g>
  <g id="arrowDown" transform="rotate(180) translate(-30 -48)">
    <use xlink:href="#rim"/>
    <path pointer-events="none" fill="none" stroke="white" stroke-width="1.5" d="M0,-3.0v7 M-2.5,-0.5L0,-3.0L2.5,-0.5"/>
  </g>
  <g id="arrowLeft" transform="rotate(270) translate(-36 17)">
    <use xlink:href="#rim"/>
    <path pointer-events="none" fill="none" stroke="white" stroke-width="1.5" d="M0,-3.0v7 M-2.5,-0.5L0,-3.0L2.5,-0.5"/>
  </g>
  <g id="resetDef">
    <use xlink:href="#rim2" fill="#404040"><set attributeName="fill" to="#808080" begin="reset.mouseover" end="reset.mouseout"/></use>
  </g>
</defs>
<script type="application/ecmascript">
var viewWidth = 1698;
var viewHeight = 104;
var sectionId = 'dynsection-1';
</script>
<script type="application/ecmascript" xlink:href="svg.min.js"/>
<svg id="graph" class="graph">
<g id="viewport">
<title>src/core/http/http_conditionals.h</title>
<!-- Node1 -->
<g id="Node000001" class="node">
<title>Node1</title>
<g id="a_Node000001"><a xlink:title=" ">
<polygon fill="#999999" stroke="#666666" points="889,-96 789,-96 789,-66 889,-66 889,-96"/>
<text text-anchor="start" x="797" y="-84" font-family="Helvetica,sans-Serif" font-size="10.00">src/core/http/http</text>
<text text-anchor="middle" x="839" y="-73" font-family="Helvetica,sans-Serif" font-size="10.00">_conditionals.h</text>
</a>
</g>
</g>
<!-- Node2 -->
<g id="Node000002" class="node">
<title>Node2</title>
<g id="a_Node000002"><a xlink:href="http__conditionals_8c.html" target="_top" xlink:title=" ">
<polygon fill="white" stroke="#666666" points="100,-30 0,-30 0,0 100,0 100,-30"/>
<text text-anchor="start" x="8" y="-18" font-family="Helvetica,sans-Serif" font-size="10.00">src/core/http/http</text>
<text text-anchor="middle" x="50" y="-7" font-family="Helvetica,sans-Serif" font-size="10.00">_conditionals.c</text>
</a>
</g>
</g>
<!-- Node1&#45;&gt;Node2 -->
<g id="edge1_Node000001_Node000002" class="edge">
<title>Node1&#45;&gt;Node2</title>
<g id="a_edge1_Node000001_Node000002"><a xlink:title=" ">
<path fill="none" stroke="#63b8ff" d="M778.51,-79.22C653.01,-76.85 355.46,-67.42 109,-30 106.09,-29.56 103.1,-29.04 100.1,-28.48"/>
<polygon fill="#63b8ff" stroke="#63b8ff" points="778.62,-82.72 788.68,-79.4 778.75,-75.72 778.62,-82.72"/>
</a>
</g>
</g>
<!-- Node3 -->
<g id="Node000003" class="node">
<title>Node3</title>
<g id="a_Node000003"><a xlink:href="protocols_2cvmfs_2handler_8c.html" target="_top" xlink:title=" ">
<polygon fill="white" stroke="#666666" points="230,-30 118,-30 118,0 230,0 230,-30"/>
<text text-anchor="start" x="126" y="-18" font-family="Helvetica,sans-Serif" font-size="10.00">src/protocols/cvmfs</text>
<text text-anchor="middle" x="174" y="-7" font-family="Helvetica,sans-Serif" font-size="10.00">/handler.c</text>
</a>
</g>
</g>
<!-- Node1&#45;&gt;Node3 -->
<g id="edge2_Node000001_Node000003" class="edge">
<title>Node1&#45;&gt;Node3</title>
<g id="a_edge2_Node000001_Node000003"><a xlink:title=" ">
<path fill="none" stroke="#63b8ff" d="M778.88,-77.56C670.49,-72.59 435.31,-59.2 239,-30 236.15,-29.58 233.23,-29.1 230.29,-28.59"/>
<polygon fill="#63b8ff" stroke="#63b8ff" points="778.82,-81.06 788.97,-78.01 779.14,-74.07 778.82,-81.06"/>
</a>
</g>
</g>
<!-- Node4 -->
<g id="Node000004" class="node">
<title>Node4</title>
<g id="a_Node000004"><a xlink:href="conditional_8c.html" target="_top" xlink:title=" ">
<polygon fill="white" stroke="#666666" points="406,-24.5 248,-24.5 248,-5.5 406,-5.5 406,-24.5"/>
<text text-anchor="middle" x="327" y="-12.5" font-family="Helvetica,sans-Serif" font-size="10.00">src/protocols/s3/conditional.c</text>
</a>
</g>
</g>
<!-- Node1&#45;&gt;Node4 -->
<g id="edge3_Node000001_Node000004" class="edge">
<title>Node1&#45;&gt;Node4</title>
<g id="a_edge3_Node000001_Node000004"><a xlink:title=" ">
<path fill="none" stroke="#63b8ff" d="M778.82,-73.68C696.54,-64.86 544.38,-47.91 415,-30 403.2,-28.37 390.54,-26.45 378.6,-24.57"/>
<polygon fill="#63b8ff" stroke="#63b8ff" points="778.67,-77.18 788.98,-74.76 779.41,-70.22 778.67,-77.18"/>
</a>
</g>
</g>
<!-- Node5 -->
<g id="Node000005" class="node">
<title>Node5</title>
<g id="a_Node000005"><a xlink:href="src_2protocols_2webdav_2copy_8c.html" target="_top" xlink:title=" ">
<polygon fill="white" stroke="#666666" points="544,-30 424,-30 424,0 544,0 544,-30"/>
<text text-anchor="start" x="432" y="-18" font-family="Helvetica,sans-Serif" font-size="10.00">src/protocols/webdav</text>
<text text-anchor="middle" x="484" y="-7" font-family="Helvetica,sans-Serif" font-size="10.00">/copy.c</text>
</a>
</g>
</g>
<!-- Node1&#45;&gt;Node5 -->
<g id="edge4_Node000001_Node000005" class="edge">
<title>Node1&#45;&gt;Node5</title>
<g id="a_edge4_Node000001_Node000005"><a xlink:title=" ">
<path fill="none" stroke="#63b8ff" d="M778.73,-69.95C720.79,-60.18 630.8,-44.69 553,-30 550.12,-29.46 547.17,-28.89 544.19,-28.31"/>
<polygon fill="#63b8ff" stroke="#63b8ff" points="778.37,-73.44 788.81,-71.65 779.53,-66.54 778.37,-73.44"/>
</a>
</g>
</g>
<!-- Node6 -->
<g id="Node000006" class="node">
<title>Node6</title>
<g id="a_Node000006"><a xlink:href="copy__collection_8c.html" target="_top" xlink:title=" ">
<polygon fill="white" stroke="#666666" points="682,-30 562,-30 562,0 682,0 682,-30"/>
<text text-anchor="start" x="570" y="-18" font-family="Helvetica,sans-Serif" font-size="10.00">src/protocols/webdav</text>
<text text-anchor="middle" x="622" y="-7" font-family="Helvetica,sans-Serif" font-size="10.00">/copy_collection.c</text>
</a>
</g>
</g>
<!-- Node1&#45;&gt;Node6 -->
<g id="edge5_Node000001_Node000006" class="edge">
<title>Node1&#45;&gt;Node6</title>
<g id="a_edge5_Node000001_Node000006"><a xlink:title=" ">
<path fill="none" stroke="#63b8ff" d="M781.77,-63.12C746.78,-52.8 702.56,-39.76 669.51,-30.01"/>
<polygon fill="#63b8ff" stroke="#63b8ff" points="780.8,-66.48 791.38,-65.95 782.78,-59.77 780.8,-66.48"/>
</a>
</g>
</g>
<!-- Node7 -->
<g id="Node000007" class="node">
<title>Node7</title>
<g id="a_Node000007"><a xlink:href="webdav_2get_8c.html" target="_top" xlink:title=" ">
<polygon fill="white" stroke="#666666" points="820,-30 700,-30 700,0 820,0 820,-30"/>
<text text-anchor="start" x="708" y="-18" font-family="Helvetica,sans-Serif" font-size="10.00">src/protocols/webdav</text>
<text text-anchor="middle" x="760" y="-7" font-family="Helvetica,sans-Serif" font-size="10.00">/get.c</text>
</a>
</g>
</g>
<!-- Node1&#45;&gt;Node7 -->
<g id="edge6_Node000001_Node000007" class="edge">
<title>Node1&#45;&gt;Node7</title>
<g id="a_edge6_Node000001_Node000007"><a xlink:title=" ">
<path fill="none" stroke="#63b8ff" d="M813.67,-59.48C801.86,-49.91 788.11,-38.77 777.48,-30.16"/>
<polygon fill="#63b8ff" stroke="#63b8ff" points="811.49,-62.22 821.47,-65.8 815.9,-56.78 811.49,-62.22"/>
</a>
</g>
</g>
<!-- Node8 -->
<g id="Node000008" class="node">
<title>Node8</title>
<g id="a_Node000008"><a xlink:href="copy__conditionals_8c.html" target="_top" xlink:title=" ">
<polygon fill="white" stroke="#666666" points="999.5,-30 838.5,-30 838.5,0 999.5,0 999.5,-30"/>
<text text-anchor="start" x="846.5" y="-18" font-family="Helvetica,sans-Serif" font-size="10.00">src/protocols/webdav</text>
<text text-anchor="middle" x="919" y="-7" font-family="Helvetica,sans-Serif" font-size="10.00">/methods/copy_conditionals.c</text>
</a>
</g>
</g>
<!-- Node1&#45;&gt;Node8 -->
<g id="edge7_Node000001_Node000008" class="edge">
<title>Node1&#45;&gt;Node8</title>
<g id="a_edge7_Node000001_Node000008"><a xlink:title=" ">
<path fill="none" stroke="#63b8ff" d="M864.65,-59.48C876.61,-49.91 890.53,-38.77 901.3,-30.16"/>
<polygon fill="#63b8ff" stroke="#63b8ff" points="862.38,-56.82 856.75,-65.8 866.75,-62.28 862.38,-56.82"/>
</a>
</g>
</g>
<!-- Node9 -->
<g id="Node000009" class="node">
<title>Node9</title>
<g id="a_Node000009"><a xlink:href="move_8c.html" target="_top" xlink:title=" ">
<polygon fill="white" stroke="#666666" points="1138,-30 1018,-30 1018,0 1138,0 1138,-30"/>
<text text-anchor="start" x="1026" y="-18" font-family="Helvetica,sans-Serif" font-size="10.00">src/protocols/webdav</text>
<text text-anchor="middle" x="1078" y="-7" font-family="Helvetica,sans-Serif" font-size="10.00">/move.c</text>
</a>
</g>
</g>
<!-- Node1&#45;&gt;Node9 -->
<g id="edge8_Node000001_Node000009" class="edge">
<title>Node1&#45;&gt;Node9</title>
<g id="a_edge8_Node000001_Node000009"><a xlink:title=" ">
<path fill="none" stroke="#63b8ff" d="M899.24,-63.87C938.13,-53.46 988.22,-40.04 1025.48,-30.06"/>
<polygon fill="#63b8ff" stroke="#63b8ff" points="897.86,-60.62 889.1,-66.58 899.67,-67.38 897.86,-60.62"/>
</a>
</g>
</g>
<!-- Node10 -->
<g id="Node000010" class="node">
<title>Node10</title>
<g id="a_Node000010"><a xlink:href="webdav_2put_8c.html" target="_top" xlink:title=" ">
<polygon fill="white" stroke="#666666" points="1276,-30 1156,-30 1156,0 1276,0 1276,-30"/>
<text text-anchor="start" x="1164" y="-18" font-family="Helvetica,sans-Serif" font-size="10.00">src/protocols/webdav</text>
<text text-anchor="middle" x="1216" y="-7" font-family="Helvetica,sans-Serif" font-size="10.00">/put.c</text>
</a>
</g>
</g>
<!-- Node1&#45;&gt;Node10 -->
<g id="edge9_Node000001_Node000010" class="edge">
<title>Node1&#45;&gt;Node10</title>
<g id="a_edge9_Node000001_Node000010"><a xlink:title=" ">
<path fill="none" stroke="#63b8ff" d="M899.28,-70.93C961.46,-61.41 1061.18,-45.67 1147,-30 1149.89,-29.47 1152.84,-28.92 1155.82,-28.36"/>
<polygon fill="#63b8ff" stroke="#63b8ff" points="898.61,-67.49 889.25,-72.46 899.66,-74.41 898.61,-67.49"/>
</a>
</g>
</g>
<!-- Node11 -->
<g id="Node000011" class="node">
<title>Node11</title>
<g id="a_Node000011"><a xlink:href="put__body_8c.html" target="_top" xlink:title=" ">
<polygon fill="white" stroke="#666666" points="1414,-30 1294,-30 1294,0 1414,0 1414,-30"/>
<text text-anchor="start" x="1302" y="-18" font-family="Helvetica,sans-Serif" font-size="10.00">src/protocols/webdav</text>
<text text-anchor="middle" x="1354" y="-7" font-family="Helvetica,sans-Serif" font-size="10.00">/put_body.c</text>
</a>
</g>
</g>
<!-- Node1&#45;&gt;Node11 -->
<g id="edge10_Node000001_Node000011" class="edge">
<title>Node1&#45;&gt;Node11</title>
<g id="a_edge10_Node000001_Node000011"><a xlink:title=" ">
<path fill="none" stroke="#63b8ff" d="M899.11,-74.96C984.99,-67.38 1147.61,-51.6 1285,-30 1287.9,-29.54 1290.86,-29.05 1293.85,-28.53"/>
<polygon fill="#63b8ff" stroke="#63b8ff" points="898.68,-71.49 889.02,-75.85 899.29,-78.46 898.68,-71.49"/>
</a>
</g>
</g>
<!-- Node12 -->
<g id="Node000012" class="node">
<title>Node12</title>
<g id="a_Node000012"><a xlink:href="put__body__digest_8c.html" target="_top" xlink:title=" ">
<polygon fill="white" stroke="#666666" points="1552,-30 1432,-30 1432,0 1552,0 1552,-30"/>
<text text-anchor="start" x="1440" y="-18" font-family="Helvetica,sans-Serif" font-size="10.00">src/protocols/webdav</text>
<text text-anchor="middle" x="1492" y="-7" font-family="Helvetica,sans-Serif" font-size="10.00">/put_body_digest.c</text>
</a>
</g>
</g>
<!-- Node1&#45;&gt;Node12 -->
<g id="edge11_Node000001_Node000012" class="edge">
<title>Node1&#45;&gt;Node12</title>
<g id="a_edge11_Node000001_Node000012"><a xlink:title=" ">
<path fill="none" stroke="#63b8ff" d="M899.43,-77.12C1005.72,-71.54 1232.92,-57.33 1423,-30 1425.9,-29.58 1428.87,-29.12 1431.86,-28.63"/>
<polygon fill="#63b8ff" stroke="#63b8ff" points="899.02,-73.63 889.22,-77.65 899.39,-80.62 899.02,-73.63"/>
</a>
</g>
</g>
<!-- Node13 -->
<g id="Node000013" class="node">
<title>Node13</title>
<g id="a_Node000013"><a xlink:href="put__setup_8c.html" target="_top" xlink:title=" ">
<polygon fill="white" stroke="#666666" points="1690,-30 1570,-30 1570,0 1690,0 1690,-30"/>
<text text-anchor="start" x="1578" y="-18" font-family="Helvetica,sans-Serif" font-size="10.00">src/protocols/webdav</text>
<text text-anchor="middle" x="1630" y="-7" font-family="Helvetica,sans-Serif" font-size="10.00">/put_setup.c</text>
</a>
</g>
</g>
<!-- Node1&#45;&gt;Node13 -->
<g id="edge12_Node000001_Node000013" class="edge">
<title>Node1&#45;&gt;Node13</title>
<g id="a_edge12_Node000001_Node000013"><a xlink:title=" ">
<path fill="none" stroke="#63b8ff" d="M899.19,-78.5C1023.41,-74.81 1316.97,-63.06 1561,-30 1563.91,-29.61 1566.88,-29.16 1569.87,-28.68"/>
<polygon fill="#63b8ff" stroke="#63b8ff" points="899.02,-75 889.12,-78.79 899.22,-82 899.02,-75"/>
</a>
</g>
</g>
</g>
</svg>

<g id="navigator" transform="translate(0 0)" fill="#404254">
  <rect fill="#f2f5e9" fill-opacity="0.5" stroke="#606060" stroke-width=".5" x="0" y="0" width="60" height="60"/>
  <use id="zoomplus" xlink:href="#zoomPlus" x="17" y="9" onmousedown="handleZoom(evt,'in')"/>
  <use id="zoomminus" xlink:href="#zoomMin" x="42" y="9" onmousedown="handleZoom(evt,'out')"/>
  <use id="reset" xlink:href="#resetDef" x="30" y="36" onmousedown="handleReset()"/>
   <use id="arrowup" xlink:href="#arrowUp" x="0" y="0" onmousedown="handlePan(0,-1)"/>
  <use id="arrowright" xlink:href="#arrowRight" x="0" y="0" onmousedown="handlePan(1,0)"/>
  <use id="arrowdown" xlink:href="#arrowDown" x="0" y="0" onmousedown="handlePan(0,1)"/>
  <use id="arrowleft" xlink:href="#arrowLeft" x="0" y="0" onmousedown="handlePan(-1,0)"/>
</g>
<svg viewBox="0 0 15 15" width="100%" height="30px" preserveAspectRatio="xMaxYMin meet">
 <g id="arrow_out" transform="scale(0.3 0.3)">
  <a xlink:href="http__conditionals_8h__dep__incl_org.svg" target="_base">
   <rect id="button" ry="5" rx="5" y="6" x="6" height="38" width="38"
        fill="#f2f5e9" fill-opacity="0.5" stroke="#606060" stroke-width="1.0"/>
   <path id="arrow"
     d="M 11.500037,31.436501 C 11.940474,20.09759 22.043105,11.32322 32.158766,21.979434 L 37.068811,17.246167 C 37.068811,17.246167 37.088388,32 37.088388,32 L 22.160133,31.978069 C 22.160133,31.978069 26.997745,27.140456 26.997745,27.140456 C 18.528582,18.264221 13.291696,25.230495 11.500037,31.436501 z"
     style="fill:#404040;"/>
  </a>
 </g>
</svg>

<style type='text/css'>
<![CDATA[
[data-mouse-over-selected='false'] { opacity: 0.7; }
[data-mouse-over-selected='true']  { opacity: 1.0; }
]]>
</style>
<script type="application/ecmascript"><![CDATA[
document.addEventListener('DOMContentLoaded', (event) => {
  highlightEdges();
  highlightAdjacentNodes();
});
]]></script>
</svg>
