<?xml version="1.0" encoding="UTF-8" standalone="no"?>
<!DOCTYPE svg PUBLIC "-//W3C//DTD SVG 1.1//EN"
 "http://www.w3.org/Graphics/SVG/1.1/DTD/svg11.dtd">
<!-- Generated by graphviz version 2.43.0 (0)
 -->
<!-- Title: src/core/config/http_rootfd.h Pages: 1 -->
<svg width="590pt" height="214pt"
 viewBox="0.00 0.00 589.50 214.00" xmlns="http://www.w3.org/2000/svg" xmlns:xlink="http://www.w3.org/1999/xlink">
<g id="graph0" class="graph" transform="scale(1 1) rotate(0) translate(4 210)">
<title>src/core/config/http_rootfd.h</title>
<!-- Node1 -->
<g id="Node000001" class="node">
<title>Node1</title>
<g id="a_Node000001"><a xlink:title=" ">
<polygon fill="#999999" stroke="#666666" points="326.5,-206 216.5,-206 216.5,-176 326.5,-176 326.5,-206"/>
<text text-anchor="start" x="224.5" y="-194" font-family="Helvetica,sans-Serif" font-size="10.00">src/core/config/http</text>
<text text-anchor="middle" x="271.5" y="-183" font-family="Helvetica,sans-Serif" font-size="10.00">_rootfd.h</text>
</a>
</g>
</g>
<!-- Node2 -->
<g id="Node000002" class="node">
<title>Node2</title>
<g id="a_Node000002"><a xlink:href="shared__conf_8h.html" target="_top" xlink:title=" ">
<polygon fill="white" stroke="#666666" points="313.5,-140 229.5,-140 229.5,-121 313.5,-121 313.5,-140"/>
<text text-anchor="middle" x="271.5" y="-128" font-family="Helvetica,sans-Serif" font-size="10.00">shared_conf.h</text>
</a>
</g>
</g>
<!-- Node1&#45;&gt;Node2 -->
<g id="edge1_Node000001_Node000002" class="edge">
<title>Node1&#45;&gt;Node2</title>
<g id="a_edge1_Node000001_Node000002"><a xlink:title=" ">
<path fill="none" stroke="#63b8ff" d="M271.5,-175.84C271.5,-168.21 271.5,-158.7 271.5,-150.45"/>
<polygon fill="#63b8ff" stroke="#63b8ff" points="275,-150.27 271.5,-140.27 268,-150.27 275,-150.27"/>
</a>
</g>
</g>
<!-- Node3 -->
<g id="Node000003" class="node">
<title>Node3</title>
<g id="a_Node000003"><a xlink:title=" ">
<polygon fill="#e0e0e0" stroke="#999999" points="107,-79.5 0,-79.5 0,-60.5 107,-60.5 107,-79.5"/>
<text text-anchor="middle" x="53.5" y="-67.5" font-family="Helvetica,sans-Serif" font-size="10.00">ngx_thread_pool.h</text>
</a>
</g>
</g>
<!-- Node2&#45;&gt;Node3 -->
<g id="edge2_Node000002_Node000003" class="edge">
<title>Node2&#45;&gt;Node3</title>
<g id="a_edge2_Node000002_Node000003"><a xlink:title=" ">
<path fill="none" stroke="#63b8ff" d="M239.8,-120.99C201.54,-110.73 137.09,-93.43 94.92,-82.12"/>
<polygon fill="#63b8ff" stroke="#63b8ff" points="95.8,-78.73 85.24,-79.52 93.99,-85.49 95.8,-78.73"/>
</a>
</g>
</g>
<!-- Node4 -->
<g id="Node000004" class="node">
<title>Node4</title>
<g id="a_Node000004"><a xlink:title=" ">
<polygon fill="#e0e0e0" stroke="#999999" points="178,-79.5 125,-79.5 125,-60.5 178,-60.5 178,-79.5"/>
<text text-anchor="middle" x="151.5" y="-67.5" font-family="Helvetica,sans-Serif" font-size="10.00">regex.h</text>
</a>
</g>
</g>
<!-- Node2&#45;&gt;Node4 -->
<g id="edge3_Node000002_Node000004" class="edge">
<title>Node2&#45;&gt;Node4</title>
<g id="a_edge3_Node000002_Node000004"><a xlink:title=" ">
<path fill="none" stroke="#63b8ff" d="M254.05,-120.99C234.14,-111.29 201.36,-95.31 178.23,-84.03"/>
<polygon fill="#63b8ff" stroke="#63b8ff" points="179.49,-80.75 168.97,-79.52 176.43,-87.04 179.49,-80.75"/>
</a>
</g>
</g>
<!-- Node5 -->
<g id="Node000005" class="node">
<title>Node5</title>
<g id="a_Node000005"><a xlink:title=" ">
<polygon fill="#e0e0e0" stroke="#999999" points="260.5,-79.5 196.5,-79.5 196.5,-60.5 260.5,-60.5 260.5,-79.5"/>
<text text-anchor="middle" x="228.5" y="-67.5" font-family="Helvetica,sans-Serif" font-size="10.00">sys/stat.h</text>
</a>
</g>
</g>
<!-- Node2&#45;&gt;Node5 -->
<g id="edge4_Node000002_Node000005" class="edge">
<title>Node2&#45;&gt;Node5</title>
<g id="a_edge4_Node000002_Node000005"><a xlink:title=" ">
<path fill="none" stroke="#63b8ff" d="M265.16,-120.87C258.8,-112.23 248.86,-98.7 240.93,-87.92"/>
<polygon fill="#63b8ff" stroke="#63b8ff" points="243.61,-85.65 234.87,-79.67 237.97,-89.8 243.61,-85.65"/>
</a>
</g>
</g>
<!-- Node6 -->
<g id="Node000006" class="node">
<title>Node6</title>
<g id="a_Node000006"><a xlink:title=" ">
<polygon fill="#e0e0e0" stroke="#999999" points="350.5,-79.5 278.5,-79.5 278.5,-60.5 350.5,-60.5 350.5,-79.5"/>
<text text-anchor="middle" x="314.5" y="-67.5" font-family="Helvetica,sans-Serif" font-size="10.00">sys/types.h</text>
</a>
</g>
</g>
<!-- Node2&#45;&gt;Node6 -->
<g id="edge5_Node000002_Node000006" class="edge">
<title>Node2&#45;&gt;Node6</title>
<g id="a_edge5_Node000002_Node000006"><a xlink:title=" ">
<path fill="none" stroke="#63b8ff" d="M277.84,-120.87C284.2,-112.23 294.14,-98.7 302.07,-87.92"/>
<polygon fill="#63b8ff" stroke="#63b8ff" points="305.03,-89.8 308.13,-79.67 299.39,-85.65 305.03,-89.8"/>
</a>
</g>
</g>
<!-- Node7 -->
<g id="Node000007" class="node">
<title>Node7</title>
<g id="a_Node000007"><a xlink:title=" ">
<polygon fill="#e0e0e0" stroke="#999999" points="424.5,-79.5 368.5,-79.5 368.5,-60.5 424.5,-60.5 424.5,-79.5"/>
<text text-anchor="middle" x="396.5" y="-67.5" font-family="Helvetica,sans-Serif" font-size="10.00">unistd.h</text>
</a>
</g>
</g>
<!-- Node2&#45;&gt;Node7 -->
<g id="edge6_Node000002_Node000007" class="edge">
<title>Node2&#45;&gt;Node7</title>
<g id="a_edge6_Node000002_Node000007"><a xlink:title=" ">
<path fill="none" stroke="#63b8ff" d="M289.68,-120.99C310.51,-111.25 344.87,-95.16 368.98,-83.88"/>
<polygon fill="#63b8ff" stroke="#63b8ff" points="370.73,-86.93 378.3,-79.52 367.76,-80.59 370.73,-86.93"/>
</a>
</g>
</g>
<!-- Node8 -->
<g id="Node000008" class="node">
<title>Node8</title>
<g id="a_Node000008"><a xlink:href="pmark_8h.html" target="_top" xlink:title=" ">
<polygon fill="white" stroke="#666666" points="558,-85 443,-85 443,-55 558,-55 558,-85"/>
<text text-anchor="start" x="451" y="-73" font-family="Helvetica,sans-Serif" font-size="10.00">observability/pmark</text>
<text text-anchor="middle" x="500.5" y="-62" font-family="Helvetica,sans-Serif" font-size="10.00">/pmark.h</text>
</a>
</g>
</g>
<!-- Node2&#45;&gt;Node8 -->
<g id="edge7_Node000002_Node000008" class="edge">
<title>Node2&#45;&gt;Node8</title>
<g id="a_edge7_Node000002_Node000008"><a xlink:title=" ">
<path fill="none" stroke="#63b8ff" d="M304.8,-120.99C338.98,-112.26 393.05,-98.45 435.7,-87.55"/>
<polygon fill="#63b8ff" stroke="#63b8ff" points="436.62,-90.93 445.45,-85.06 434.89,-84.15 436.62,-90.93"/>
</a>
</g>
</g>
<!-- Node9 -->
<g id="Node000009" class="node">
<title>Node9</title>
<g id="a_Node000009"><a xlink:title=" ">
<polygon fill="#e0e0e0" stroke="#999999" points="493.5,-19 415.5,-19 415.5,0 493.5,0 493.5,-19"/>
<text text-anchor="middle" x="454.5" y="-7" font-family="Helvetica,sans-Serif" font-size="10.00">ngx_config.h</text>
</a>
</g>
</g>
<!-- Node8&#45;&gt;Node9 -->
<g id="edge8_Node000008_Node000009" class="edge">
<title>Node8&#45;&gt;Node9</title>
<g id="a_edge8_Node000008_Node000009"><a xlink:title=" ">
<path fill="none" stroke="#63b8ff" d="M489.36,-54.84C482.82,-46.52 474.52,-35.96 467.66,-27.23"/>
<polygon fill="#63b8ff" stroke="#63b8ff" points="470.33,-24.96 461.39,-19.27 464.82,-29.29 470.33,-24.96"/>
</a>
</g>
</g>
<!-- Node10 -->
<g id="Node000010" class="node">
<title>Node10</title>
<g id="a_Node000010"><a xlink:title=" ">
<polygon fill="#e0e0e0" stroke="#999999" points="581.5,-19 511.5,-19 511.5,0 581.5,0 581.5,-19"/>
<text text-anchor="middle" x="546.5" y="-7" font-family="Helvetica,sans-Serif" font-size="10.00">ngx_core.h</text>
</a>
</g>
</g>
<!-- Node8&#45;&gt;Node10 -->
<g id="edge9_Node000008_Node000010" class="edge">
<title>Node8&#45;&gt;Node10</title>
<g id="a_edge9_Node000008_Node000010"><a xlink:title=" ">
<path fill="none" stroke="#63b8ff" d="M511.64,-54.84C518.18,-46.52 526.48,-35.96 533.34,-27.23"/>
<polygon fill="#63b8ff" stroke="#63b8ff" points="536.18,-29.29 539.61,-19.27 530.67,-24.96 536.18,-29.29"/>
</a>
</g>
</g>
</g>
</svg>
