<?xml version="1.0" encoding="UTF-8" standalone="no"?>
<!DOCTYPE svg PUBLIC "-//W3C//DTD SVG 1.1//EN"
 "http://www.w3.org/Graphics/SVG/1.1/DTD/svg11.dtd">
<!-- Generated by graphviz version 2.43.0 (0)
 -->
<!-- Title: src/protocols/shared/http_serve_offload.h Pages: 1 -->
<svg width="548pt" height="104pt"
 viewBox="0.00 0.00 548.00 104.00" xmlns="http://www.w3.org/2000/svg" xmlns:xlink="http://www.w3.org/1999/xlink">
<g id="graph0" class="graph" transform="scale(1 1) rotate(0) translate(4 100)">
<title>src/protocols/shared/http_serve_offload.h</title>
<!-- Node1 -->
<g id="Node000001" class="node">
<title>Node1</title>
<g id="a_Node000001"><a xlink:title=" ">
<polygon fill="#999999" stroke="#666666" points="328.5,-96 209.5,-96 209.5,-66 328.5,-66 328.5,-96"/>
<text text-anchor="start" x="217.5" y="-84" font-family="Helvetica,sans-Serif" font-size="10.00">src/protocols/shared</text>
<text text-anchor="middle" x="269" y="-73" font-family="Helvetica,sans-Serif" font-size="10.00">/http_serve_offload.h</text>
</a>
</g>
</g>
<!-- Node2 -->
<g id="Node000002" class="node">
<title>Node2</title>
<g id="a_Node000002"><a xlink:href="protocols_2cvmfs_2handler_8c.html" target="_top" xlink:title=" ">
<polygon fill="white" stroke="#666666" points="112,-30 0,-30 0,0 112,0 112,-30"/>
<text text-anchor="start" x="8" y="-18" font-family="Helvetica,sans-Serif" font-size="10.00">src/protocols/cvmfs</text>
<text text-anchor="middle" x="56" y="-7" font-family="Helvetica,sans-Serif" font-size="10.00">/handler.c</text>
</a>
</g>
</g>
<!-- Node1&#45;&gt;Node2 -->
<g id="edge1_Node000001_Node000002" class="edge">
<title>Node1&#45;&gt;Node2</title>
<g id="a_edge1_Node000001_Node000002"><a xlink:title=" ">
<path fill="none" stroke="#63b8ff" d="M212.39,-62.99C178.11,-52.69 134.93,-39.72 102.63,-30.01"/>
<polygon fill="#63b8ff" stroke="#63b8ff" points="211.67,-66.43 222.26,-65.95 213.69,-59.73 211.67,-66.43"/>
</a>
</g>
</g>
<!-- Node3 -->
<g id="Node000003" class="node">
<title>Node3</title>
<g id="a_Node000003"><a xlink:href="object_8c.html" target="_top" xlink:title=" ">
<polygon fill="white" stroke="#666666" points="264,-24.5 130,-24.5 130,-5.5 264,-5.5 264,-24.5"/>
<text text-anchor="middle" x="197" y="-12.5" font-family="Helvetica,sans-Serif" font-size="10.00">src/protocols/s3/object.c</text>
</a>
</g>
</g>
<!-- Node1&#45;&gt;Node3 -->
<g id="edge2_Node000001_Node000003" class="edge">
<title>Node1&#45;&gt;Node3</title>
<g id="a_edge2_Node000001_Node000003"><a xlink:title=" ">
<path fill="none" stroke="#63b8ff" d="M245.3,-58.93C232.27,-47.35 216.81,-33.61 206.95,-24.84"/>
<polygon fill="#63b8ff" stroke="#63b8ff" points="243.22,-61.77 253.02,-65.8 247.87,-56.54 243.22,-61.77"/>
</a>
</g>
</g>
<!-- Node4 -->
<g id="Node000004" class="node">
<title>Node4</title>
<g id="a_Node000004"><a xlink:href="http__serve__offload_8c.html" target="_top" xlink:title=" ">
<polygon fill="white" stroke="#666666" points="401.5,-30 282.5,-30 282.5,0 401.5,0 401.5,-30"/>
<text text-anchor="start" x="290.5" y="-18" font-family="Helvetica,sans-Serif" font-size="10.00">src/protocols/shared</text>
<text text-anchor="middle" x="342" y="-7" font-family="Helvetica,sans-Serif" font-size="10.00">/http_serve_offload.c</text>
</a>
</g>
</g>
<!-- Node1&#45;&gt;Node4 -->
<g id="edge3_Node000001_Node000004" class="edge">
<title>Node1&#45;&gt;Node4</title>
<g id="a_edge3_Node000001_Node000004"><a xlink:title=" ">
<path fill="none" stroke="#63b8ff" d="M292.72,-59.2C303.56,-49.7 316.12,-38.69 325.84,-30.16"/>
<polygon fill="#63b8ff" stroke="#63b8ff" points="290.41,-56.57 285.2,-65.8 295.03,-61.84 290.41,-56.57"/>
</a>
</g>
</g>
<!-- Node5 -->
<g id="Node000005" class="node">
<title>Node5</title>
<g id="a_Node000005"><a xlink:href="webdav_2get_8c.html" target="_top" xlink:title=" ">
<polygon fill="white" stroke="#666666" points="540,-30 420,-30 420,0 540,0 540,-30"/>
<text text-anchor="start" x="428" y="-18" font-family="Helvetica,sans-Serif" font-size="10.00">src/protocols/webdav</text>
<text text-anchor="middle" x="480" y="-7" font-family="Helvetica,sans-Serif" font-size="10.00">/get.c</text>
</a>
</g>
</g>
<!-- Node1&#45;&gt;Node5 -->
<g id="edge4_Node000001_Node000005" class="edge">
<title>Node1&#45;&gt;Node5</title>
<g id="a_edge4_Node000001_Node000005"><a xlink:title=" ">
<path fill="none" stroke="#63b8ff" d="M325.08,-62.99C359.03,-52.69 401.81,-39.72 433.8,-30.01"/>
<polygon fill="#63b8ff" stroke="#63b8ff" points="323.86,-59.7 315.3,-65.95 325.89,-66.4 323.86,-59.7"/>
</a>
</g>
</g>
</g>
</svg>
