<?xml version="1.0" encoding="UTF-8" standalone="no"?>
<!DOCTYPE svg PUBLIC "-//W3C//DTD SVG 1.1//EN"
 "http://www.w3.org/Graphics/SVG/1.1/DTD/svg11.dtd">
<!-- Generated by graphviz version 2.43.0 (0)
 -->
<!-- Title: src/protocols/shared/http_cache_fill_internal.h Pages: 1 -->
<svg width="1216pt" height="346pt"
 viewBox="0.00 0.00 1216.06 346.00" xmlns="http://www.w3.org/2000/svg" xmlns:xlink="http://www.w3.org/1999/xlink">
<g id="graph0" class="graph" transform="scale(1 1) rotate(0) translate(4 342)">
<title>src/protocols/shared/http_cache_fill_internal.h</title>
<!-- Node1 -->
<g id="Node000001" class="node">
<title>Node1</title>
<g id="a_Node000001"><a xlink:title=" ">
<polygon fill="#999999" stroke="#666666" points="1132.06,-338 990.06,-338 990.06,-308 1132.06,-308 1132.06,-338"/>
<text text-anchor="start" x="998.06" y="-326" font-family="Helvetica,sans-Serif" font-size="10.00">src/protocols/shared</text>
<text text-anchor="middle" x="1061.06" y="-315" font-family="Helvetica,sans-Serif" font-size="10.00">/http_cache_fill_internal.h</text>
</a>
</g>
</g>
<!-- Node2 -->
<g id="Node000002" class="node">
<title>Node2</title>
<g id="a_Node000002"><a xlink:href="http__cache__fill_8h.html" target="_top" xlink:title=" ">
<polygon fill="white" stroke="#666666" points="925.06,-272 829.06,-272 829.06,-253 925.06,-253 925.06,-272"/>
<text text-anchor="middle" x="877.06" y="-260" font-family="Helvetica,sans-Serif" font-size="10.00">http_cache_fill.h</text>
</a>
</g>
</g>
<!-- Node1&#45;&gt;Node2 -->
<g id="edge1_Node000001_Node000002" class="edge">
<title>Node1&#45;&gt;Node2</title>
<g id="a_edge1_Node000001_Node000002"><a xlink:title=" ">
<path fill="none" stroke="#63b8ff" d="M1016.99,-307.99C985.37,-297.94 943.28,-284.55 913.54,-275.1"/>
<polygon fill="#63b8ff" stroke="#63b8ff" points="914.56,-271.75 903.97,-272.05 912.44,-278.42 914.56,-271.75"/>
</a>
</g>
</g>
<!-- Node20 -->
<g id="Node000020" class="node">
<title>Node20</title>
<g id="a_Node000020"><a xlink:href="sesslog__ngx_8h.html" target="_top" xlink:title=" ">
<polygon fill="white" stroke="#666666" points="1154.06,-217 1034.06,-217 1034.06,-187 1154.06,-187 1154.06,-217"/>
<text text-anchor="start" x="1042.06" y="-205" font-family="Helvetica,sans-Serif" font-size="10.00">observability/sesslog</text>
<text text-anchor="middle" x="1094.06" y="-194" font-family="Helvetica,sans-Serif" font-size="10.00">/sesslog_ngx.h</text>
</a>
</g>
</g>
<!-- Node1&#45;&gt;Node20 -->
<g id="edge35_Node000001_Node000020" class="edge">
<title>Node1&#45;&gt;Node20</title>
<g id="a_edge35_Node000001_Node000020"><a xlink:title=" ">
<path fill="none" stroke="#63b8ff" d="M1056.16,-307.84C1052.01,-293.59 1047.69,-271.18 1054.06,-253 1057.71,-242.62 1064.51,-232.78 1071.49,-224.63"/>
<polygon fill="#63b8ff" stroke="#63b8ff" points="1074.24,-226.82 1078.42,-217.08 1069.08,-222.09 1074.24,-226.82"/>
</a>
</g>
</g>
<!-- Node23 -->
<g id="Node000023" class="node">
<title>Node23</title>
<g id="a_Node000023"><a xlink:title=" ">
<polygon fill="#e0e0e0" stroke="#999999" points="1115.56,-272 1062.56,-272 1062.56,-253 1115.56,-253 1115.56,-272"/>
<text text-anchor="middle" x="1089.06" y="-260" font-family="Helvetica,sans-Serif" font-size="10.00">limits.h</text>
</a>
</g>
</g>
<!-- Node1&#45;&gt;Node23 -->
<g id="edge41_Node000001_Node000023" class="edge">
<title>Node1&#45;&gt;Node23</title>
<g id="a_edge41_Node000001_Node000023"><a xlink:title=" ">
<path fill="none" stroke="#63b8ff" d="M1067.84,-307.84C1071.66,-299.87 1076.46,-289.84 1080.53,-281.33"/>
<polygon fill="#63b8ff" stroke="#63b8ff" points="1083.71,-282.8 1084.87,-272.27 1077.39,-279.77 1083.71,-282.8"/>
</a>
</g>
</g>
<!-- Node24 -->
<g id="Node000024" class="node">
<title>Node24</title>
<g id="a_Node000024"><a xlink:title=" ">
<polygon fill="#e0e0e0" stroke="#999999" points="1208.06,-272 1134.06,-272 1134.06,-253 1208.06,-253 1208.06,-272"/>
<text text-anchor="middle" x="1171.06" y="-260" font-family="Helvetica,sans-Serif" font-size="10.00">stdatomic.h</text>
</a>
</g>
</g>
<!-- Node1&#45;&gt;Node24 -->
<g id="edge42_Node000001_Node000024" class="edge">
<title>Node1&#45;&gt;Node24</title>
<g id="a_edge42_Node000001_Node000024"><a xlink:title=" ">
<path fill="none" stroke="#63b8ff" d="M1087.41,-307.99C1105.11,-298.58 1128.3,-286.24 1145.77,-276.95"/>
<polygon fill="#63b8ff" stroke="#63b8ff" points="1147.63,-279.92 1154.82,-272.14 1144.34,-273.74 1147.63,-279.92"/>
</a>
</g>
</g>
<!-- Node3 -->
<g id="Node000003" class="node">
<title>Node3</title>
<g id="a_Node000003"><a xlink:title=" ">
<polygon fill="#e0e0e0" stroke="#999999" points="937.06,-19 859.06,-19 859.06,0 937.06,0 937.06,-19"/>
<text text-anchor="middle" x="898.06" y="-7" font-family="Helvetica,sans-Serif" font-size="10.00">ngx_config.h</text>
</a>
</g>
</g>
<!-- Node2&#45;&gt;Node3 -->
<g id="edge2_Node000002_Node000003" class="edge">
<title>Node2&#45;&gt;Node3</title>
<g id="a_edge2_Node000002_Node000003"><a xlink:title=" ">
<path fill="none" stroke="#63b8ff" d="M879.28,-252.88C886.31,-224.63 907.39,-132.21 903.06,-55 902.58,-46.45 901.59,-37.03 900.62,-29.06"/>
<polygon fill="#63b8ff" stroke="#63b8ff" points="904.07,-28.47 899.3,-19.01 897.13,-29.38 904.07,-28.47"/>
</a>
</g>
</g>
<!-- Node4 -->
<g id="Node000004" class="node">
<title>Node4</title>
<g id="a_Node000004"><a xlink:title=" ">
<polygon fill="#e0e0e0" stroke="#999999" points="1152.06,-19 1082.06,-19 1082.06,0 1152.06,0 1152.06,-19"/>
<text text-anchor="middle" x="1117.06" y="-7" font-family="Helvetica,sans-Serif" font-size="10.00">ngx_core.h</text>
</a>
</g>
</g>
<!-- Node2&#45;&gt;Node4 -->
<g id="edge3_Node000002_Node000004" class="edge">
<title>Node2&#45;&gt;Node4</title>
<g id="a_edge3_Node000002_Node000004"><a xlink:title=" ">
<path fill="none" stroke="#63b8ff" d="M925.13,-260.43C997.51,-257.79 1129.63,-248.65 1163.06,-217 1215.54,-167.31 1209.55,-119.55 1177.06,-55 1170.37,-41.71 1157.62,-31.39 1145.59,-24.05"/>
<polygon fill="#63b8ff" stroke="#63b8ff" points="1147.08,-20.87 1136.65,-19.02 1143.65,-26.97 1147.08,-20.87"/>
</a>
</g>
</g>
<!-- Node5 -->
<g id="Node000005" class="node">
<title>Node5</title>
<g id="a_Node000005"><a xlink:title=" ">
<polygon fill="#e0e0e0" stroke="#999999" points="224.06,-211.5 156.06,-211.5 156.06,-192.5 224.06,-192.5 224.06,-211.5"/>
<text text-anchor="middle" x="190.06" y="-199.5" font-family="Helvetica,sans-Serif" font-size="10.00">ngx_http.h</text>
</a>
</g>
</g>
<!-- Node2&#45;&gt;Node5 -->
<g id="edge4_Node000002_Node000005" class="edge">
<title>Node2&#45;&gt;Node5</title>
<g id="a_edge4_Node000002_Node000005"><a xlink:title=" ">
<path fill="none" stroke="#63b8ff" d="M828.87,-262.18C721.05,-262.85 452.54,-259.64 233.06,-217 229.64,-216.34 226.12,-215.48 222.63,-214.52"/>
<polygon fill="#63b8ff" stroke="#63b8ff" points="223.58,-211.15 213,-211.62 221.56,-217.86 223.58,-211.15"/>
</a>
</g>
</g>
<!-- Node6 -->
<g id="Node000006" class="node">
<title>Node6</title>
<g id="a_Node000006"><a xlink:href="shared__conf_8h.html" target="_top" xlink:title=" ">
<polygon fill="white" stroke="#666666" points="348.06,-217 242.06,-217 242.06,-187 348.06,-187 348.06,-217"/>
<text text-anchor="start" x="250.06" y="-205" font-family="Helvetica,sans-Serif" font-size="10.00">core/config/shared</text>
<text text-anchor="middle" x="295.06" y="-194" font-family="Helvetica,sans-Serif" font-size="10.00">_conf.h</text>
</a>
</g>
</g>
<!-- Node2&#45;&gt;Node6 -->
<g id="edge5_Node000002_Node000006" class="edge">
<title>Node2&#45;&gt;Node6</title>
<g id="a_edge5_Node000002_Node000006"><a xlink:title=" ">
<path fill="none" stroke="#63b8ff" d="M828.94,-256.66C724.25,-246.14 475.83,-221.17 358.51,-209.38"/>
<polygon fill="#63b8ff" stroke="#63b8ff" points="358.55,-205.86 348.25,-208.35 357.85,-212.83 358.55,-205.86"/>
</a>
</g>
</g>
<!-- Node14 -->
<g id="Node000014" class="node">
<title>Node14</title>
<g id="a_Node000014"><a xlink:href="sd_8h.html" target="_top" xlink:title=" ">
<polygon fill="white" stroke="#666666" points="739.06,-145.5 647.06,-145.5 647.06,-126.5 739.06,-126.5 739.06,-145.5"/>
<text text-anchor="middle" x="693.06" y="-133.5" font-family="Helvetica,sans-Serif" font-size="10.00">fs/backend/sd.h</text>
</a>
</g>
</g>
<!-- Node2&#45;&gt;Node14 -->
<g id="edge21_Node000002_Node000014" class="edge">
<title>Node2&#45;&gt;Node14</title>
<g id="a_edge21_Node000002_Node000014"><a xlink:title=" ">
<path fill="none" stroke="#63b8ff" d="M864.42,-252.94C833.3,-231.89 752.75,-177.38 714.21,-151.31"/>
<polygon fill="#63b8ff" stroke="#63b8ff" points="716.04,-148.32 705.8,-145.62 712.12,-154.12 716.04,-148.32"/>
</a>
</g>
</g>
<!-- Node7 -->
<g id="Node000007" class="node">
<title>Node7</title>
<g id="a_Node000007"><a xlink:title=" ">
<polygon fill="#e0e0e0" stroke="#999999" points="122.56,-79.5 15.56,-79.5 15.56,-60.5 122.56,-60.5 122.56,-79.5"/>
<text text-anchor="middle" x="69.06" y="-67.5" font-family="Helvetica,sans-Serif" font-size="10.00">ngx_thread_pool.h</text>
</a>
</g>
</g>
<!-- Node6&#45;&gt;Node7 -->
<g id="edge6_Node000006_Node000007" class="edge">
<title>Node6&#45;&gt;Node7</title>
<g id="a_edge6_Node000006_Node000007"><a xlink:title=" ">
<path fill="none" stroke="#63b8ff" d="M263.78,-186.83C243.34,-177.29 216.24,-164.1 193.06,-151 155.68,-129.88 114.1,-102.12 89.84,-85.48"/>
<polygon fill="#63b8ff" stroke="#63b8ff" points="91.65,-82.47 81.43,-79.68 87.68,-88.24 91.65,-82.47"/>
</a>
</g>
</g>
<!-- Node8 -->
<g id="Node000008" class="node">
<title>Node8</title>
<g id="a_Node000008"><a xlink:title=" ">
<polygon fill="#e0e0e0" stroke="#999999" points="193.56,-79.5 140.56,-79.5 140.56,-60.5 193.56,-60.5 193.56,-79.5"/>
<text text-anchor="middle" x="167.06" y="-67.5" font-family="Helvetica,sans-Serif" font-size="10.00">regex.h</text>
</a>
</g>
</g>
<!-- Node6&#45;&gt;Node8 -->
<g id="edge7_Node000006_Node000008" class="edge">
<title>Node6&#45;&gt;Node8</title>
<g id="a_edge7_Node000006_Node000008"><a xlink:title=" ">
<path fill="none" stroke="#63b8ff" d="M268.11,-186.96C252.61,-178.03 233.43,-165.45 219.06,-151 200.41,-132.25 184.8,-105.77 175.69,-88.49"/>
<polygon fill="#63b8ff" stroke="#63b8ff" points="178.77,-86.83 171.1,-79.51 172.53,-90.01 178.77,-86.83"/>
</a>
</g>
</g>
<!-- Node9 -->
<g id="Node000009" class="node">
<title>Node9</title>
<g id="a_Node000009"><a xlink:title=" ">
<polygon fill="#e0e0e0" stroke="#999999" points="388.06,-79.5 324.06,-79.5 324.06,-60.5 388.06,-60.5 388.06,-79.5"/>
<text text-anchor="middle" x="356.06" y="-67.5" font-family="Helvetica,sans-Serif" font-size="10.00">sys/stat.h</text>
</a>
</g>
</g>
<!-- Node6&#45;&gt;Node9 -->
<g id="edge8_Node000006_Node000009" class="edge">
<title>Node6&#45;&gt;Node9</title>
<g id="a_edge8_Node000006_Node000009"><a xlink:title=" ">
<path fill="none" stroke="#63b8ff" d="M325.09,-186.84C339.04,-178.53 354.25,-166.57 362.06,-151 371.69,-131.8 367.54,-106.7 362.72,-89.78"/>
<polygon fill="#63b8ff" stroke="#63b8ff" points="365.97,-88.44 359.59,-79.98 359.3,-90.57 365.97,-88.44"/>
</a>
</g>
</g>
<!-- Node10 -->
<g id="Node000010" class="node">
<title>Node10</title>
<g id="a_Node000010"><a xlink:title=" ">
<polygon fill="#e0e0e0" stroke="#999999" points="392.06,-19 320.06,-19 320.06,0 392.06,0 392.06,-19"/>
<text text-anchor="middle" x="356.06" y="-7" font-family="Helvetica,sans-Serif" font-size="10.00">sys/types.h</text>
</a>
</g>
</g>
<!-- Node6&#45;&gt;Node10 -->
<g id="edge9_Node000006_Node000010" class="edge">
<title>Node6&#45;&gt;Node10</title>
<g id="a_edge9_Node000006_Node000010"><a xlink:title=" ">
<path fill="none" stroke="#63b8ff" d="M241.85,-187.65C165.71,-167.31 31.97,-126.51 6.06,-85 -1,-73.69 -2.75,-65.01 6.06,-55 25.85,-32.54 219.47,-18.43 309.93,-13.02"/>
<polygon fill="#63b8ff" stroke="#63b8ff" points="310.13,-16.51 319.91,-12.43 309.72,-9.53 310.13,-16.51"/>
</a>
</g>
</g>
<!-- Node11 -->
<g id="Node000011" class="node">
<title>Node11</title>
<g id="a_Node000011"><a xlink:title=" ">
<polygon fill="#e0e0e0" stroke="#999999" points="268.06,-79.5 212.06,-79.5 212.06,-60.5 268.06,-60.5 268.06,-79.5"/>
<text text-anchor="middle" x="240.06" y="-67.5" font-family="Helvetica,sans-Serif" font-size="10.00">unistd.h</text>
</a>
</g>
</g>
<!-- Node6&#45;&gt;Node11 -->
<g id="edge10_Node000006_Node000011" class="edge">
<title>Node6&#45;&gt;Node11</title>
<g id="a_edge10_Node000006_Node000011"><a xlink:title=" ">
<path fill="none" stroke="#63b8ff" d="M264.6,-186.94C250.44,-178.66 235,-166.69 227.06,-151 217.17,-131.45 224.12,-106.09 231.08,-89.22"/>
<polygon fill="#63b8ff" stroke="#63b8ff" points="234.35,-90.49 235.27,-79.94 227.97,-87.61 234.35,-90.49"/>
</a>
</g>
</g>
<!-- Node12 -->
<g id="Node000012" class="node">
<title>Node12</title>
<g id="a_Node000012"><a xlink:href="pmark_8h.html" target="_top" xlink:title=" ">
<polygon fill="white" stroke="#666666" points="893.56,-85 778.56,-85 778.56,-55 893.56,-55 893.56,-85"/>
<text text-anchor="start" x="786.56" y="-73" font-family="Helvetica,sans-Serif" font-size="10.00">observability/pmark</text>
<text text-anchor="middle" x="836.06" y="-62" font-family="Helvetica,sans-Serif" font-size="10.00">/pmark.h</text>
</a>
</g>
</g>
<!-- Node6&#45;&gt;Node12 -->
<g id="edge11_Node000006_Node000012" class="edge">
<title>Node6&#45;&gt;Node12</title>
<g id="a_edge11_Node000006_Node000012"><a xlink:title=" ">
<path fill="none" stroke="#63b8ff" d="M348.39,-199.22C452.29,-195.1 677.83,-182.69 748.06,-151 776.92,-137.98 802.77,-111.86 818.87,-93"/>
<polygon fill="#63b8ff" stroke="#63b8ff" points="821.67,-95.11 825.36,-85.18 816.28,-90.64 821.67,-95.11"/>
</a>
</g>
</g>
<!-- Node13 -->
<g id="Node000013" class="node">
<title>Node13</title>
<g id="a_Node000013"><a xlink:href="shared__conf__types_8h.html" target="_top" xlink:title=" ">
<polygon fill="white" stroke="#666666" points="353.56,-145.5 236.56,-145.5 236.56,-126.5 353.56,-126.5 353.56,-145.5"/>
<text text-anchor="middle" x="295.06" y="-133.5" font-family="Helvetica,sans-Serif" font-size="10.00">shared_conf_types.h</text>
</a>
</g>
</g>
<!-- Node6&#45;&gt;Node13 -->
<g id="edge14_Node000006_Node000013" class="edge">
<title>Node6&#45;&gt;Node13</title>
<g id="a_edge14_Node000006_Node000013"><a xlink:title=" ">
<path fill="none" stroke="#63b8ff" d="M295.06,-186.8C295.06,-177.7 295.06,-165.79 295.06,-155.9"/>
<polygon fill="#63b8ff" stroke="#63b8ff" points="298.56,-155.84 295.06,-145.84 291.56,-155.84 298.56,-155.84"/>
</a>
</g>
</g>
<!-- Node12&#45;&gt;Node3 -->
<g id="edge12_Node000012_Node000003" class="edge">
<title>Node12&#45;&gt;Node3</title>
<g id="a_edge12_Node000012_Node000003"><a xlink:title=" ">
<path fill="none" stroke="#63b8ff" d="M851.07,-54.84C860.25,-46.17 872.02,-35.08 881.48,-26.15"/>
<polygon fill="#63b8ff" stroke="#63b8ff" points="883.9,-28.67 888.77,-19.27 879.1,-23.58 883.9,-28.67"/>
</a>
</g>
</g>
<!-- Node12&#45;&gt;Node4 -->
<g id="edge13_Node000012_Node000004" class="edge">
<title>Node12&#45;&gt;Node4</title>
<g id="a_edge13_Node000012_Node000004"><a xlink:title=" ">
<path fill="none" stroke="#63b8ff" d="M893.6,-57.02C946.37,-46.04 1023.46,-29.99 1071.91,-19.9"/>
<polygon fill="#63b8ff" stroke="#63b8ff" points="1072.72,-23.31 1081.79,-17.84 1071.29,-16.45 1072.72,-23.31"/>
</a>
</g>
</g>
<!-- Node13&#45;&gt;Node7 -->
<g id="edge15_Node000013_Node000007" class="edge">
<title>Node13&#45;&gt;Node7</title>
<g id="a_edge15_Node000013_Node000007"><a xlink:title=" ">
<path fill="none" stroke="#63b8ff" d="M264.58,-126.37C224.45,-115 153.8,-95 109.31,-82.4"/>
<polygon fill="#63b8ff" stroke="#63b8ff" points="109.99,-78.95 99.42,-79.6 108.09,-85.69 109.99,-78.95"/>
</a>
</g>
</g>
<!-- Node13&#45;&gt;Node8 -->
<g id="edge16_Node000013_Node000008" class="edge">
<title>Node13&#45;&gt;Node8</title>
<g id="a_edge16_Node000013_Node000008"><a xlink:title=" ">
<path fill="none" stroke="#63b8ff" d="M277.8,-126.37C256.14,-115.54 218.77,-96.85 193.5,-84.22"/>
<polygon fill="#63b8ff" stroke="#63b8ff" points="194.97,-81.04 184.46,-79.7 191.84,-87.3 194.97,-81.04"/>
</a>
</g>
</g>
<!-- Node13&#45;&gt;Node9 -->
<g id="edge17_Node000013_Node000009" class="edge">
<title>Node13&#45;&gt;Node9</title>
<g id="a_edge17_Node000013_Node000009"><a xlink:title=" ">
<path fill="none" stroke="#63b8ff" d="M303.29,-126.37C312.79,-116.4 328.62,-99.79 340.47,-87.36"/>
<polygon fill="#63b8ff" stroke="#63b8ff" points="343.21,-89.56 347.57,-79.91 338.14,-84.73 343.21,-89.56"/>
</a>
</g>
</g>
<!-- Node13&#45;&gt;Node10 -->
<g id="edge18_Node000013_Node000010" class="edge">
<title>Node13&#45;&gt;Node10</title>
<g id="a_edge18_Node000013_Node000010"><a xlink:title=" ">
<path fill="none" stroke="#63b8ff" d="M295.84,-126.08C297.49,-110.73 302.28,-78.69 315.06,-55 320.82,-44.32 329.73,-34.22 337.77,-26.35"/>
<polygon fill="#63b8ff" stroke="#63b8ff" points="340.44,-28.65 345.38,-19.28 335.67,-23.53 340.44,-28.65"/>
</a>
</g>
</g>
<!-- Node13&#45;&gt;Node11 -->
<g id="edge19_Node000013_Node000011" class="edge">
<title>Node13&#45;&gt;Node11</title>
<g id="a_edge19_Node000013_Node000011"><a xlink:title=" ">
<path fill="none" stroke="#63b8ff" d="M287.64,-126.37C279.16,-116.5 265.08,-100.11 254.43,-87.72"/>
<polygon fill="#63b8ff" stroke="#63b8ff" points="256.89,-85.21 247.72,-79.91 251.58,-89.77 256.89,-85.21"/>
</a>
</g>
</g>
<!-- Node13&#45;&gt;Node12 -->
<g id="edge20_Node000013_Node000012" class="edge">
<title>Node13&#45;&gt;Node12</title>
<g id="a_edge20_Node000013_Node000012"><a xlink:title=" ">
<path fill="none" stroke="#63b8ff" d="M353.73,-128.06C454.83,-116.1 661.29,-91.68 768.33,-79.01"/>
<polygon fill="#63b8ff" stroke="#63b8ff" points="768.85,-82.48 778.37,-77.82 768.03,-75.52 768.85,-82.48"/>
</a>
</g>
</g>
<!-- Node14&#45;&gt;Node3 -->
<g id="edge22_Node000014_Node000003" class="edge">
<title>Node14&#45;&gt;Node3</title>
<g id="a_edge22_Node000014_Node000003"><a xlink:title=" ">
<path fill="none" stroke="#63b8ff" d="M699.25,-126.24C711.16,-109.98 738.89,-74.96 770.06,-55 794.09,-39.61 824.09,-28.82 849,-21.72"/>
<polygon fill="#63b8ff" stroke="#63b8ff" points="850.25,-25 858.97,-18.99 848.41,-18.25 850.25,-25"/>
</a>
</g>
</g>
<!-- Node14&#45;&gt;Node4 -->
<g id="edge23_Node000014_Node000004" class="edge">
<title>Node14&#45;&gt;Node4</title>
<g id="a_edge23_Node000014_Node000004"><a xlink:title=" ">
<path fill="none" stroke="#63b8ff" d="M736.57,-126.47C779.37,-117.65 846.36,-102.7 903.06,-85 938.12,-74.05 945.47,-67.34 980.06,-55 1013.42,-43.1 1051.79,-30.75 1079.42,-22.08"/>
<polygon fill="#63b8ff" stroke="#63b8ff" points="1080.59,-25.39 1089.09,-19.07 1078.5,-18.71 1080.59,-25.39"/>
</a>
</g>
</g>
<!-- Node14&#45;&gt;Node9 -->
<g id="edge26_Node000014_Node000009" class="edge">
<title>Node14&#45;&gt;Node9</title>
<g id="a_edge26_Node000014_Node000009"><a xlink:title=" ">
<path fill="none" stroke="#63b8ff" d="M646.84,-128.88C589.13,-120.83 487.6,-105.28 402.06,-85 398.71,-84.21 395.25,-83.3 391.79,-82.35"/>
<polygon fill="#63b8ff" stroke="#63b8ff" points="392.76,-78.99 382.18,-79.57 390.81,-85.71 392.76,-78.99"/>
</a>
</g>
</g>
<!-- Node14&#45;&gt;Node10 -->
<g id="edge27_Node000014_Node000010" class="edge">
<title>Node14&#45;&gt;Node10</title>
<g id="a_edge27_Node000014_Node000010"><a xlink:title=" ">
<path fill="none" stroke="#63b8ff" d="M646.74,-133.73C593.07,-130.58 503.27,-119.97 435.06,-85 420.54,-77.55 389.52,-46.1 370.97,-26.52"/>
<polygon fill="#63b8ff" stroke="#63b8ff" points="373.48,-24.09 364.08,-19.2 368.38,-28.88 373.48,-24.09"/>
</a>
</g>
</g>
<!-- Node15 -->
<g id="Node000015" class="node">
<title>Node15</title>
<g id="a_Node000015"><a xlink:title=" ">
<polygon fill="#e0e0e0" stroke="#999999" points="1041.56,-79.5 988.56,-79.5 988.56,-60.5 1041.56,-60.5 1041.56,-79.5"/>
<text text-anchor="middle" x="1015.06" y="-67.5" font-family="Helvetica,sans-Serif" font-size="10.00">stdint.h</text>
</a>
</g>
</g>
<!-- Node14&#45;&gt;Node15 -->
<g id="edge24_Node000014_Node000015" class="edge">
<title>Node14&#45;&gt;Node15</title>
<g id="a_edge24_Node000014_Node000015"><a xlink:title=" ">
<path fill="none" stroke="#63b8ff" d="M736.15,-126.44C799.85,-113.78 918.05,-90.28 978.05,-78.36"/>
<polygon fill="#63b8ff" stroke="#63b8ff" points="979.08,-81.72 988.21,-76.34 977.72,-74.85 979.08,-81.72"/>
</a>
</g>
</g>
<!-- Node16 -->
<g id="Node000016" class="node">
<title>Node16</title>
<g id="a_Node000016"><a xlink:title=" ">
<polygon fill="#e0e0e0" stroke="#999999" points="632.56,-19 581.56,-19 581.56,0 632.56,0 632.56,-19"/>
<text text-anchor="middle" x="607.06" y="-7" font-family="Helvetica,sans-Serif" font-size="10.00">errno.h</text>
</a>
</g>
</g>
<!-- Node14&#45;&gt;Node16 -->
<g id="edge25_Node000014_Node000016" class="edge">
<title>Node14&#45;&gt;Node16</title>
<g id="a_edge25_Node000014_Node000016"><a xlink:title=" ">
<path fill="none" stroke="#63b8ff" d="M690.24,-126.49C684.91,-111.21 672.35,-78.55 655.06,-55 646.95,-43.95 635.82,-33.43 626.32,-25.4"/>
<polygon fill="#63b8ff" stroke="#63b8ff" points="628.47,-22.63 618.51,-19.02 624.05,-28.06 628.47,-22.63"/>
</a>
</g>
</g>
<!-- Node17 -->
<g id="Node000017" class="node">
<title>Node17</title>
<g id="a_Node000017"><a xlink:title=" ">
<polygon fill="#e0e0e0" stroke="#999999" points="727.06,-19 667.06,-19 667.06,0 727.06,0 727.06,-19"/>
<text text-anchor="middle" x="697.06" y="-7" font-family="Helvetica,sans-Serif" font-size="10.00">sys/uio.h</text>
</a>
</g>
</g>
<!-- Node14&#45;&gt;Node17 -->
<g id="edge28_Node000014_Node000017" class="edge">
<title>Node14&#45;&gt;Node17</title>
<g id="a_edge28_Node000014_Node000017"><a xlink:title=" ">
<path fill="none" stroke="#63b8ff" d="M693.34,-126.44C693.98,-106.54 695.58,-56.76 696.46,-29.35"/>
<polygon fill="#63b8ff" stroke="#63b8ff" points="699.96,-29.22 696.79,-19.12 692.97,-29 699.96,-29.22"/>
</a>
</g>
</g>
<!-- Node18 -->
<g id="Node000018" class="node">
<title>Node18</title>
<g id="a_Node000018"><a xlink:href="sd__cred__forward_8h.html" target="_top" xlink:title=" ">
<polygon fill="white" stroke="#666666" points="550.06,-79.5 444.06,-79.5 444.06,-60.5 550.06,-60.5 550.06,-79.5"/>
<text text-anchor="middle" x="497.06" y="-67.5" font-family="Helvetica,sans-Serif" font-size="10.00">sd_cred_forward.h</text>
</a>
</g>
</g>
<!-- Node14&#45;&gt;Node18 -->
<g id="edge29_Node000014_Node000018" class="edge">
<title>Node14&#45;&gt;Node18</title>
<g id="a_edge29_Node000014_Node000018"><a xlink:title=" ">
<path fill="none" stroke="#63b8ff" d="M666.63,-126.37C632.19,-115.12 571.84,-95.42 533.19,-82.8"/>
<polygon fill="#63b8ff" stroke="#63b8ff" points="533.98,-79.37 523.39,-79.6 531.81,-86.03 533.98,-79.37"/>
</a>
</g>
</g>
<!-- Node19 -->
<g id="Node000019" class="node">
<title>Node19</title>
<g id="a_Node000019"><a xlink:href="sd__registry_8h.html" target="_top" xlink:title=" ">
<polygon fill="white" stroke="#666666" points="646.06,-79.5 568.06,-79.5 568.06,-60.5 646.06,-60.5 646.06,-79.5"/>
<text text-anchor="middle" x="607.06" y="-67.5" font-family="Helvetica,sans-Serif" font-size="10.00">sd_registry.h</text>
</a>
</g>
</g>
<!-- Node14&#45;&gt;Node19 -->
<g id="edge31_Node000014_Node000019" class="edge">
<title>Node14&#45;&gt;Node19</title>
<g id="a_edge31_Node000014_Node000019"><a xlink:title=" ">
<path fill="none" stroke="#63b8ff" d="M681.46,-126.37C667.49,-115.97 643.78,-98.32 626.88,-85.75"/>
<polygon fill="#63b8ff" stroke="#63b8ff" points="628.86,-82.86 618.75,-79.7 624.68,-88.48 628.86,-82.86"/>
</a>
</g>
</g>
<!-- Node18&#45;&gt;Node16 -->
<g id="edge30_Node000018_Node000016" class="edge">
<title>Node18&#45;&gt;Node16</title>
<g id="a_edge30_Node000018_Node000016"><a xlink:title=" ">
<path fill="none" stroke="#63b8ff" d="M513.29,-60.37C531.33,-50.78 560.68,-35.17 581.74,-23.97"/>
<polygon fill="#63b8ff" stroke="#63b8ff" points="583.58,-26.95 590.76,-19.17 580.29,-20.77 583.58,-26.95"/>
</a>
</g>
</g>
<!-- Node19&#45;&gt;Node10 -->
<g id="edge33_Node000019_Node000010" class="edge">
<title>Node19&#45;&gt;Node10</title>
<g id="a_edge33_Node000019_Node000010"><a xlink:title=" ">
<path fill="none" stroke="#63b8ff" d="M578.98,-60.46C572.46,-58.58 565.54,-56.65 559.06,-55 505.56,-41.35 443.48,-28.12 402.2,-19.68"/>
<polygon fill="#63b8ff" stroke="#63b8ff" points="402.67,-16.21 392.17,-17.64 401.27,-23.07 402.67,-16.21"/>
</a>
</g>
</g>
<!-- Node19&#45;&gt;Node16 -->
<g id="edge32_Node000019_Node000016" class="edge">
<title>Node19&#45;&gt;Node16</title>
<g id="a_edge32_Node000019_Node000016"><a xlink:title=" ">
<path fill="none" stroke="#63b8ff" d="M607.06,-60.37C607.06,-52.25 607.06,-39.81 607.06,-29.39"/>
<polygon fill="#63b8ff" stroke="#63b8ff" points="610.56,-29.17 607.06,-19.17 603.56,-29.17 610.56,-29.17"/>
</a>
</g>
</g>
<!-- Node19&#45;&gt;Node17 -->
<g id="edge34_Node000019_Node000017" class="edge">
<title>Node19&#45;&gt;Node17</title>
<g id="a_edge34_Node000019_Node000017"><a xlink:title=" ">
<path fill="none" stroke="#63b8ff" d="M620.34,-60.37C634.7,-51.04 657.82,-36.01 674.93,-24.88"/>
<polygon fill="#63b8ff" stroke="#63b8ff" points="677.25,-27.55 683.73,-19.17 673.44,-21.68 677.25,-27.55"/>
</a>
</g>
</g>
<!-- Node20&#45;&gt;Node3 -->
<g id="edge36_Node000020_Node000003" class="edge">
<title>Node20&#45;&gt;Node3</title>
<g id="a_edge36_Node000020_Node000003"><a xlink:title=" ">
<path fill="none" stroke="#63b8ff" d="M1105.92,-186.72C1113,-177.24 1121.31,-164.16 1125.06,-151 1136.75,-109.97 1152.18,-87.94 1125.06,-55 1102.99,-28.18 1007.09,-17.29 947.22,-13.04"/>
<polygon fill="#63b8ff" stroke="#63b8ff" points="947.43,-9.55 937.21,-12.37 946.96,-16.53 947.43,-9.55"/>
</a>
</g>
</g>
<!-- Node20&#45;&gt;Node4 -->
<g id="edge37_Node000020_Node000004" class="edge">
<title>Node20&#45;&gt;Node4</title>
<g id="a_edge37_Node000020_Node000004"><a xlink:title=" ">
<path fill="none" stroke="#63b8ff" d="M1122.11,-186.95C1135.63,-178.54 1150.52,-166.46 1158.06,-151 1176.77,-112.65 1173.58,-94.74 1158.06,-55 1153.66,-43.73 1144.92,-33.59 1136.64,-25.85"/>
<polygon fill="#63b8ff" stroke="#63b8ff" points="1138.83,-23.12 1128.99,-19.2 1134.24,-28.4 1138.83,-23.12"/>
</a>
</g>
</g>
<!-- Node21 -->
<g id="Node000021" class="node">
<title>Node21</title>
<g id="a_Node000021"><a xlink:href="sesslog_8h.html" target="_top" xlink:title=" ">
<polygon fill="white" stroke="#666666" points="1116.06,-151 996.06,-151 996.06,-121 1116.06,-121 1116.06,-151"/>
<text text-anchor="start" x="1004.06" y="-139" font-family="Helvetica,sans-Serif" font-size="10.00">observability/sesslog</text>
<text text-anchor="middle" x="1056.06" y="-128" font-family="Helvetica,sans-Serif" font-size="10.00">/sesslog.h</text>
</a>
</g>
</g>
<!-- Node20&#45;&gt;Node21 -->
<g id="edge38_Node000020_Node000021" class="edge">
<title>Node20&#45;&gt;Node21</title>
<g id="a_edge38_Node000020_Node000021"><a xlink:title=" ">
<path fill="none" stroke="#63b8ff" d="M1085.63,-186.8C1080.96,-178.92 1075.03,-168.95 1069.71,-159.99"/>
<polygon fill="#63b8ff" stroke="#63b8ff" points="1072.59,-157.98 1064.47,-151.16 1066.57,-161.55 1072.59,-157.98"/>
</a>
</g>
</g>
<!-- Node21&#45;&gt;Node15 -->
<g id="edge40_Node000021_Node000015" class="edge">
<title>Node21&#45;&gt;Node15</title>
<g id="a_edge40_Node000021_Node000015"><a xlink:title=" ">
<path fill="none" stroke="#63b8ff" d="M1046.96,-120.8C1040.82,-111.21 1032.68,-98.5 1026.16,-88.32"/>
<polygon fill="#63b8ff" stroke="#63b8ff" points="1029.07,-86.38 1020.73,-79.84 1023.18,-90.15 1029.07,-86.38"/>
</a>
</g>
</g>
<!-- Node22 -->
<g id="Node000022" class="node">
<title>Node22</title>
<g id="a_Node000022"><a xlink:title=" ">
<polygon fill="#e0e0e0" stroke="#999999" points="1116.06,-79.5 1060.06,-79.5 1060.06,-60.5 1116.06,-60.5 1116.06,-79.5"/>
<text text-anchor="middle" x="1088.06" y="-67.5" font-family="Helvetica,sans-Serif" font-size="10.00">stddef.h</text>
</a>
</g>
</g>
<!-- Node21&#45;&gt;Node22 -->
<g id="edge39_Node000021_Node000022" class="edge">
<title>Node21&#45;&gt;Node22</title>
<g id="a_edge39_Node000021_Node000022"><a xlink:title=" ">
<path fill="none" stroke="#63b8ff" d="M1063.16,-120.8C1067.86,-111.41 1074.05,-99.02 1079.09,-88.95"/>
<polygon fill="#63b8ff" stroke="#63b8ff" points="1082.3,-90.35 1083.64,-79.84 1076.04,-87.22 1082.3,-90.35"/>
</a>
</g>
</g>
</g>
</svg>
