<?xml version="1.0" encoding="UTF-8" standalone="no"?>
<!DOCTYPE svg PUBLIC "-//W3C//DTD SVG 1.1//EN"
 "http://www.w3.org/Graphics/SVG/1.1/DTD/svg11.dtd">
<!-- Generated by graphviz version 2.43.0 (0)
 -->
<!-- Title: src/core/http/http_compress.c Pages: 1 -->
<svg width="1209pt" height="269pt"
 viewBox="0.00 0.00 1209.00 269.00" xmlns="http://www.w3.org/2000/svg" xmlns:xlink="http://www.w3.org/1999/xlink">
<g id="graph0" class="graph" transform="scale(1 1) rotate(0) translate(4 265)">
<title>src/core/http/http_compress.c</title>
<!-- Node1 -->
<g id="Node000001" class="node">
<title>Node1</title>
<g id="a_Node000001"><a xlink:title=" ">
<polygon fill="#999999" stroke="#666666" points="797,-261 697,-261 697,-231 797,-231 797,-261"/>
<text text-anchor="start" x="705" y="-249" font-family="Helvetica,sans-Serif" font-size="10.00">src/core/http/http</text>
<text text-anchor="middle" x="747" y="-238" font-family="Helvetica,sans-Serif" font-size="10.00">_compress.c</text>
</a>
</g>
</g>
<!-- Node2 -->
<g id="Node000002" class="node">
<title>Node2</title>
<g id="a_Node000002"><a xlink:href="http__compress_8h.html" target="_top" xlink:title=" ">
<polygon fill="white" stroke="#666666" points="734,-195 636,-195 636,-176 734,-176 734,-195"/>
<text text-anchor="middle" x="685" y="-183" font-family="Helvetica,sans-Serif" font-size="10.00">http_compress.h</text>
</a>
</g>
</g>
<!-- Node1&#45;&gt;Node2 -->
<g id="edge1_Node000001_Node000002" class="edge">
<title>Node1&#45;&gt;Node2</title>
<g id="a_edge1_Node000001_Node000002"><a xlink:title=" ">
<path fill="none" stroke="#63b8ff" d="M731.99,-230.84C722.81,-222.17 711.05,-211.08 701.59,-202.15"/>
<polygon fill="#63b8ff" stroke="#63b8ff" points="703.97,-199.58 694.29,-195.27 699.16,-204.67 703.97,-199.58"/>
</a>
</g>
</g>
<!-- Node9 -->
<g id="Node000009" class="node">
<title>Node9</title>
<g id="a_Node000009"><a xlink:href="src_2fs_2vfs_2vfs_8h.html" target="_top" xlink:title=" ">
<polygon fill="white" stroke="#666666" points="496.5,-195 425.5,-195 425.5,-176 496.5,-176 496.5,-195"/>
<text text-anchor="middle" x="461" y="-183" font-family="Helvetica,sans-Serif" font-size="10.00">fs/vfs/vfs.h</text>
</a>
</g>
</g>
<!-- Node1&#45;&gt;Node9 -->
<g id="edge8_Node000001_Node000009" class="edge">
<title>Node1&#45;&gt;Node9</title>
<g id="a_edge8_Node000001_Node000009"><a xlink:title=" ">
<path fill="none" stroke="#63b8ff" d="M696.86,-234.74C643.09,-223.75 558.46,-206.44 506.54,-195.82"/>
<polygon fill="#63b8ff" stroke="#63b8ff" points="507.11,-192.36 496.61,-193.78 505.71,-199.22 507.11,-192.36"/>
</a>
</g>
</g>
<!-- Node21 -->
<g id="Node000021" class="node">
<title>Node21</title>
<g id="a_Node000021"><a xlink:href="http__file__response_8h.html" target="_top" xlink:title=" ">
<polygon fill="white" stroke="#666666" points="867.5,-195 752.5,-195 752.5,-176 867.5,-176 867.5,-195"/>
<text text-anchor="middle" x="810" y="-183" font-family="Helvetica,sans-Serif" font-size="10.00">http_file_response.h</text>
</a>
</g>
</g>
<!-- Node1&#45;&gt;Node21 -->
<g id="edge32_Node000001_Node000021" class="edge">
<title>Node1&#45;&gt;Node21</title>
<g id="a_edge32_Node000001_Node000021"><a xlink:title=" ">
<path fill="none" stroke="#63b8ff" d="M762.25,-230.84C771.58,-222.17 783.53,-211.08 793.15,-202.15"/>
<polygon fill="#63b8ff" stroke="#63b8ff" points="795.61,-204.64 800.56,-195.27 790.85,-199.51 795.61,-204.64"/>
</a>
</g>
</g>
<!-- Node24 -->
<g id="Node000024" class="node">
<title>Node24</title>
<g id="a_Node000024"><a xlink:title=" ">
<polygon fill="#e0e0e0" stroke="#999999" points="942,-195 886,-195 886,-176 942,-176 942,-195"/>
<text text-anchor="middle" x="914" y="-183" font-family="Helvetica,sans-Serif" font-size="10.00">unistd.h</text>
</a>
</g>
</g>
<!-- Node1&#45;&gt;Node24 -->
<g id="edge44_Node000001_Node000024" class="edge">
<title>Node1&#45;&gt;Node24</title>
<g id="a_edge44_Node000001_Node000024"><a xlink:title=" ">
<path fill="none" stroke="#63b8ff" d="M787,-230.99C815.24,-221.1 852.68,-207.98 879.58,-198.56"/>
<polygon fill="#63b8ff" stroke="#63b8ff" points="881.06,-201.75 889.34,-195.14 878.74,-195.14 881.06,-201.75"/>
</a>
</g>
</g>
<!-- Node3 -->
<g id="Node000003" class="node">
<title>Node3</title>
<g id="a_Node000003"><a xlink:title=" ">
<polygon fill="#e0e0e0" stroke="#999999" points="398,-74 320,-74 320,-55 398,-55 398,-74"/>
<text text-anchor="middle" x="359" y="-62" font-family="Helvetica,sans-Serif" font-size="10.00">ngx_config.h</text>
</a>
</g>
</g>
<!-- Node2&#45;&gt;Node3 -->
<g id="edge2_Node000002_Node000003" class="edge">
<title>Node2&#45;&gt;Node3</title>
<g id="a_edge2_Node000002_Node000003"><a xlink:title=" ">
<path fill="none" stroke="#63b8ff" d="M635.88,-180.72C552.3,-173.83 389.59,-158.24 371,-140 356.56,-125.84 355.18,-101.66 356.35,-84.7"/>
<polygon fill="#63b8ff" stroke="#63b8ff" points="359.87,-84.64 357.44,-74.33 352.91,-83.9 359.87,-84.64"/>
</a>
</g>
</g>
<!-- Node4 -->
<g id="Node000004" class="node">
<title>Node4</title>
<g id="a_Node000004"><a xlink:title=" ">
<polygon fill="#e0e0e0" stroke="#999999" points="674,-74 604,-74 604,-55 674,-55 674,-74"/>
<text text-anchor="middle" x="639" y="-62" font-family="Helvetica,sans-Serif" font-size="10.00">ngx_core.h</text>
</a>
</g>
</g>
<!-- Node2&#45;&gt;Node4 -->
<g id="edge3_Node000002_Node000004" class="edge">
<title>Node2&#45;&gt;Node4</title>
<g id="a_edge3_Node000002_Node000004"><a xlink:title=" ">
<path fill="none" stroke="#63b8ff" d="M682.6,-175.63C678.69,-161.52 670.4,-133.17 661,-110 657.36,-101.02 652.67,-91.33 648.55,-83.3"/>
<polygon fill="#63b8ff" stroke="#63b8ff" points="651.52,-81.42 643.77,-74.19 645.32,-84.67 651.52,-81.42"/>
</a>
</g>
</g>
<!-- Node5 -->
<g id="Node000005" class="node">
<title>Node5</title>
<g id="a_Node000005"><a xlink:title=" ">
<polygon fill="#e0e0e0" stroke="#999999" points="922,-74 854,-74 854,-55 922,-55 922,-74"/>
<text text-anchor="middle" x="888" y="-62" font-family="Helvetica,sans-Serif" font-size="10.00">ngx_http.h</text>
</a>
</g>
</g>
<!-- Node2&#45;&gt;Node5 -->
<g id="edge4_Node000002_Node000005" class="edge">
<title>Node2&#45;&gt;Node5</title>
<g id="a_edge4_Node000002_Node000005"><a xlink:title=" ">
<path fill="none" stroke="#63b8ff" d="M733.44,-175.95C775.42,-167.74 832.14,-154.48 850,-140 867.67,-125.67 877.95,-100.98 883.26,-83.97"/>
<polygon fill="#63b8ff" stroke="#63b8ff" points="886.7,-84.67 886.06,-74.09 879.96,-82.76 886.7,-84.67"/>
</a>
</g>
</g>
<!-- Node6 -->
<g id="Node000006" class="node">
<title>Node6</title>
<g id="a_Node000006"><a xlink:href="codec__core_8h.html" target="_top" xlink:title=" ">
<polygon fill="white" stroke="#666666" points="1041,-134.5 897,-134.5 897,-115.5 1041,-115.5 1041,-134.5"/>
<text text-anchor="middle" x="969" y="-122.5" font-family="Helvetica,sans-Serif" font-size="10.00">core/compat/codec_core.h</text>
</a>
</g>
</g>
<!-- Node2&#45;&gt;Node6 -->
<g id="edge5_Node000002_Node000006" class="edge">
<title>Node2&#45;&gt;Node6</title>
<g id="a_edge5_Node000002_Node000006"><a xlink:title=" ">
<path fill="none" stroke="#63b8ff" d="M726.3,-175.99C776.99,-165.55 862.95,-147.85 917.79,-136.55"/>
<polygon fill="#63b8ff" stroke="#63b8ff" points="918.57,-139.96 927.65,-134.52 917.15,-133.11 918.57,-139.96"/>
</a>
</g>
</g>
<!-- Node7 -->
<g id="Node000007" class="node">
<title>Node7</title>
<g id="a_Node000007"><a xlink:title=" ">
<polygon fill="#e0e0e0" stroke="#999999" points="1004,-74 948,-74 948,-55 1004,-55 1004,-74"/>
<text text-anchor="middle" x="976" y="-62" font-family="Helvetica,sans-Serif" font-size="10.00">stddef.h</text>
</a>
</g>
</g>
<!-- Node6&#45;&gt;Node7 -->
<g id="edge6_Node000006_Node000007" class="edge">
<title>Node6&#45;&gt;Node7</title>
<g id="a_edge6_Node000006_Node000007"><a xlink:title=" ">
<path fill="none" stroke="#63b8ff" d="M970.03,-115.37C971,-107.25 972.49,-94.81 973.74,-84.39"/>
<polygon fill="#63b8ff" stroke="#63b8ff" points="977.25,-84.51 974.96,-74.17 970.3,-83.68 977.25,-84.51"/>
</a>
</g>
</g>
<!-- Node8 -->
<g id="Node000008" class="node">
<title>Node8</title>
<g id="a_Node000008"><a xlink:title=" ">
<polygon fill="#e0e0e0" stroke="#999999" points="745.5,-74 692.5,-74 692.5,-55 745.5,-55 745.5,-74"/>
<text text-anchor="middle" x="719" y="-62" font-family="Helvetica,sans-Serif" font-size="10.00">stdint.h</text>
</a>
</g>
</g>
<!-- Node6&#45;&gt;Node8 -->
<g id="edge7_Node000006_Node000008" class="edge">
<title>Node6&#45;&gt;Node8</title>
<g id="a_edge7_Node000006_Node000008"><a xlink:title=" ">
<path fill="none" stroke="#63b8ff" d="M932.26,-115.44C891.63,-105.97 823.94,-90.18 755.79,-74.18"/>
<polygon fill="#63b8ff" stroke="#63b8ff" points="756.27,-70.7 745.73,-71.82 754.67,-77.51 756.27,-70.7"/>
</a>
</g>
</g>
<!-- Node9&#45;&gt;Node3 -->
<g id="edge9_Node000009_Node000003" class="edge">
<title>Node9&#45;&gt;Node3</title>
<g id="a_edge9_Node000009_Node000003"><a xlink:title=" ">
<path fill="none" stroke="#63b8ff" d="M425.35,-182.9C395.23,-179.43 353.79,-169.24 333,-140 320.41,-122.29 333.4,-97.92 345.11,-81.95"/>
<polygon fill="#63b8ff" stroke="#63b8ff" points="347.9,-84.06 351.31,-74.03 342.39,-79.75 347.9,-84.06"/>
</a>
</g>
</g>
<!-- Node9&#45;&gt;Node4 -->
<g id="edge10_Node000009_Node000004" class="edge">
<title>Node9&#45;&gt;Node4</title>
<g id="a_edge10_Node000009_Node000004"><a xlink:title=" ">
<path fill="none" stroke="#63b8ff" d="M496.83,-179.61C540.53,-172.88 610.72,-159.37 628,-140 641.44,-124.94 642.67,-100.95 641.53,-84.28"/>
<polygon fill="#63b8ff" stroke="#63b8ff" points="644.99,-83.7 640.48,-74.11 638.02,-84.41 644.99,-83.7"/>
</a>
</g>
</g>
<!-- Node10 -->
<g id="Node000010" class="node">
<title>Node10</title>
<g id="a_Node000010"><a xlink:href="fs_2path_2unified_8h.html" target="_top" xlink:title=" ">
<polygon fill="white" stroke="#666666" points="508.5,-134.5 413.5,-134.5 413.5,-115.5 508.5,-115.5 508.5,-134.5"/>
<text text-anchor="middle" x="461" y="-122.5" font-family="Helvetica,sans-Serif" font-size="10.00">fs/path/unified.h</text>
</a>
</g>
</g>
<!-- Node9&#45;&gt;Node10 -->
<g id="edge11_Node000009_Node000010" class="edge">
<title>Node9&#45;&gt;Node10</title>
<g id="a_edge11_Node000009_Node000010"><a xlink:title=" ">
<path fill="none" stroke="#63b8ff" d="M461,-175.87C461,-167.75 461,-155.31 461,-144.89"/>
<polygon fill="#63b8ff" stroke="#63b8ff" points="464.5,-144.67 461,-134.67 457.5,-144.67 464.5,-144.67"/>
</a>
</g>
</g>
<!-- Node12 -->
<g id="Node000012" class="node">
<title>Node12</title>
<g id="a_Node000012"><a xlink:href="identity_8h.html" target="_top" xlink:title=" ">
<polygon fill="white" stroke="#666666" points="143,-134.5 27,-134.5 27,-115.5 143,-115.5 143,-134.5"/>
<text text-anchor="middle" x="85" y="-122.5" font-family="Helvetica,sans-Serif" font-size="10.00">core/types/identity.h</text>
</a>
</g>
</g>
<!-- Node9&#45;&gt;Node12 -->
<g id="edge15_Node000009_Node000012" class="edge">
<title>Node9&#45;&gt;Node12</title>
<g id="a_edge15_Node000009_Node000012"><a xlink:title=" ">
<path fill="none" stroke="#63b8ff" d="M425.2,-180.09C367.51,-172.81 250.48,-157.36 152,-140 146.15,-138.97 140.03,-137.81 133.98,-136.6"/>
<polygon fill="#63b8ff" stroke="#63b8ff" points="134.39,-133.12 123.89,-134.56 133,-139.98 134.39,-133.12"/>
</a>
</g>
</g>
<!-- Node16 -->
<g id="Node000016" class="node">
<title>Node16</title>
<g id="a_Node000016"><a xlink:href="observability_2metrics_2unified_8h.html" target="_top" xlink:title=" ">
<polygon fill="white" stroke="#666666" points="281,-140 161,-140 161,-110 281,-110 281,-140"/>
<text text-anchor="start" x="169" y="-128" font-family="Helvetica,sans-Serif" font-size="10.00">observability/metrics</text>
<text text-anchor="middle" x="221" y="-117" font-family="Helvetica,sans-Serif" font-size="10.00">/unified.h</text>
</a>
</g>
</g>
<!-- Node9&#45;&gt;Node16 -->
<g id="edge21_Node000009_Node000016" class="edge">
<title>Node9&#45;&gt;Node16</title>
<g id="a_edge21_Node000009_Node000016"><a xlink:title=" ">
<path fill="none" stroke="#63b8ff" d="M426.1,-175.99C390.2,-167.24 333.37,-153.39 288.63,-142.48"/>
<polygon fill="#63b8ff" stroke="#63b8ff" points="289.24,-139.03 278.7,-140.06 287.59,-145.83 289.24,-139.03"/>
</a>
</g>
</g>
<!-- Node18 -->
<g id="Node000018" class="node">
<title>Node18</title>
<g id="a_Node000018"><a xlink:href="sd_8h.html" target="_top" xlink:title=" ">
<polygon fill="white" stroke="#666666" points="619,-134.5 527,-134.5 527,-115.5 619,-115.5 619,-134.5"/>
<text text-anchor="middle" x="573" y="-122.5" font-family="Helvetica,sans-Serif" font-size="10.00">fs/backend/sd.h</text>
</a>
</g>
</g>
<!-- Node9&#45;&gt;Node18 -->
<g id="edge25_Node000009_Node000018" class="edge">
<title>Node9&#45;&gt;Node18</title>
<g id="a_edge25_Node000009_Node000018"><a xlink:title=" ">
<path fill="none" stroke="#63b8ff" d="M477.53,-175.87C495.97,-166.23 526.04,-150.53 547.51,-139.31"/>
<polygon fill="#63b8ff" stroke="#63b8ff" points="549.16,-142.4 556.41,-134.67 545.92,-136.19 549.16,-142.4"/>
</a>
</g>
</g>
<!-- Node10&#45;&gt;Node3 -->
<g id="edge12_Node000010_Node000003" class="edge">
<title>Node10&#45;&gt;Node3</title>
<g id="a_edge12_Node000010_Node000003"><a xlink:title=" ">
<path fill="none" stroke="#63b8ff" d="M445.95,-115.37C429.38,-105.86 402.5,-90.45 383.01,-79.27"/>
<polygon fill="#63b8ff" stroke="#63b8ff" points="384.53,-76.11 374.11,-74.17 381.05,-82.18 384.53,-76.11"/>
</a>
</g>
</g>
<!-- Node10&#45;&gt;Node4 -->
<g id="edge13_Node000010_Node000004" class="edge">
<title>Node10&#45;&gt;Node4</title>
<g id="a_edge13_Node000010_Node000004"><a xlink:title=" ">
<path fill="none" stroke="#63b8ff" d="M486.88,-115.49C517.6,-105.4 568.98,-88.51 603.42,-77.19"/>
<polygon fill="#63b8ff" stroke="#63b8ff" points="604.68,-80.46 613.09,-74.02 602.49,-73.81 604.68,-80.46"/>
</a>
</g>
</g>
<!-- Node11 -->
<g id="Node000011" class="node">
<title>Node11</title>
<g id="a_Node000011"><a xlink:title=" ">
<polygon fill="#e0e0e0" stroke="#999999" points="497,-74 433,-74 433,-55 497,-55 497,-74"/>
<text text-anchor="middle" x="465" y="-62" font-family="Helvetica,sans-Serif" font-size="10.00">sys/stat.h</text>
</a>
</g>
</g>
<!-- Node10&#45;&gt;Node11 -->
<g id="edge14_Node000010_Node000011" class="edge">
<title>Node10&#45;&gt;Node11</title>
<g id="a_edge14_Node000010_Node000011"><a xlink:title=" ">
<path fill="none" stroke="#63b8ff" d="M461.59,-115.37C462.15,-107.25 463,-94.81 463.71,-84.39"/>
<polygon fill="#63b8ff" stroke="#63b8ff" points="467.22,-84.38 464.41,-74.17 460.23,-83.91 467.22,-84.38"/>
</a>
</g>
</g>
<!-- Node12&#45;&gt;Node3 -->
<g id="edge16_Node000012_Node000003" class="edge">
<title>Node12&#45;&gt;Node3</title>
<g id="a_edge16_Node000012_Node000003"><a xlink:title=" ">
<path fill="none" stroke="#63b8ff" d="M124.84,-115.49C173.92,-105.01 257.28,-87.22 310.17,-75.93"/>
<polygon fill="#63b8ff" stroke="#63b8ff" points="310.95,-79.34 320,-73.83 309.49,-72.49 310.95,-79.34"/>
</a>
</g>
</g>
<!-- Node12&#45;&gt;Node4 -->
<g id="edge17_Node000012_Node000004" class="edge">
<title>Node12&#45;&gt;Node4</title>
<g id="a_edge17_Node000012_Node000004"><a xlink:title=" ">
<path fill="none" stroke="#63b8ff" d="M121.71,-115.47C131.51,-113.43 142.12,-111.43 152,-110 344.26,-82.21 397.53,-100.16 593.92,-73.99"/>
<polygon fill="#63b8ff" stroke="#63b8ff" points="594.55,-77.43 603.99,-72.62 593.61,-70.5 594.55,-77.43"/>
</a>
</g>
</g>
<!-- Node13 -->
<g id="Node000013" class="node">
<title>Node13</title>
<g id="a_Node000013"><a xlink:href="token_8h.html" target="_top" xlink:title=" ">
<polygon fill="white" stroke="#666666" points="138.5,-74 31.5,-74 31.5,-55 138.5,-55 138.5,-74"/>
<text text-anchor="middle" x="85" y="-62" font-family="Helvetica,sans-Serif" font-size="10.00">auth/token/token.h</text>
</a>
</g>
</g>
<!-- Node12&#45;&gt;Node13 -->
<g id="edge18_Node000012_Node000013" class="edge">
<title>Node12&#45;&gt;Node13</title>
<g id="a_edge18_Node000012_Node000013"><a xlink:title=" ">
<path fill="none" stroke="#63b8ff" d="M85,-115.37C85,-107.25 85,-94.81 85,-84.39"/>
<polygon fill="#63b8ff" stroke="#63b8ff" points="88.5,-84.17 85,-74.17 81.5,-84.17 88.5,-84.17"/>
</a>
</g>
</g>
<!-- Node14 -->
<g id="Node000014" class="node">
<title>Node14</title>
<g id="a_Node000014"><a xlink:title=" ">
<polygon fill="#e0e0e0" stroke="#999999" points="84,-19 0,-19 0,0 84,0 84,-19"/>
<text text-anchor="middle" x="42" y="-7" font-family="Helvetica,sans-Serif" font-size="10.00">openssl/evp.h</text>
</a>
</g>
</g>
<!-- Node13&#45;&gt;Node14 -->
<g id="edge19_Node000013_Node000014" class="edge">
<title>Node13&#45;&gt;Node14</title>
<g id="a_edge19_Node000013_Node000014"><a xlink:title=" ">
<path fill="none" stroke="#63b8ff" d="M77.9,-54.75C71.83,-47.26 62.91,-36.28 55.49,-27.13"/>
<polygon fill="#63b8ff" stroke="#63b8ff" points="57.99,-24.65 48.97,-19.09 52.55,-29.06 57.99,-24.65"/>
</a>
</g>
</g>
<!-- Node15 -->
<g id="Node000015" class="node">
<title>Node15</title>
<g id="a_Node000015"><a xlink:title=" ">
<polygon fill="#e0e0e0" stroke="#999999" points="154.5,-19 101.5,-19 101.5,0 154.5,0 154.5,-19"/>
<text text-anchor="middle" x="128" y="-7" font-family="Helvetica,sans-Serif" font-size="10.00">limits.h</text>
</a>
</g>
</g>
<!-- Node13&#45;&gt;Node15 -->
<g id="edge20_Node000013_Node000015" class="edge">
<title>Node13&#45;&gt;Node15</title>
<g id="a_edge20_Node000013_Node000015"><a xlink:title=" ">
<path fill="none" stroke="#63b8ff" d="M92.1,-54.75C98.17,-47.26 107.09,-36.28 114.51,-27.13"/>
<polygon fill="#63b8ff" stroke="#63b8ff" points="117.45,-29.06 121.03,-19.09 112.01,-24.65 117.45,-29.06"/>
</a>
</g>
</g>
<!-- Node16&#45;&gt;Node3 -->
<g id="edge22_Node000016_Node000003" class="edge">
<title>Node16&#45;&gt;Node3</title>
<g id="a_edge22_Node000016_Node000003"><a xlink:title=" ">
<path fill="none" stroke="#63b8ff" d="M254.05,-109.99C276.98,-100.27 307.24,-87.44 329.38,-78.06"/>
<polygon fill="#63b8ff" stroke="#63b8ff" points="330.78,-81.26 338.62,-74.14 328.05,-74.82 330.78,-81.26"/>
</a>
</g>
</g>
<!-- Node16&#45;&gt;Node4 -->
<g id="edge23_Node000016_Node000004" class="edge">
<title>Node16&#45;&gt;Node4</title>
<g id="a_edge23_Node000016_Node000004"><a xlink:title=" ">
<path fill="none" stroke="#63b8ff" d="M281.07,-117.06C353,-108.5 477.32,-92.94 593.8,-74.11"/>
<polygon fill="#63b8ff" stroke="#63b8ff" points="594.66,-77.52 603.97,-72.46 593.54,-70.61 594.66,-77.52"/>
</a>
</g>
</g>
<!-- Node17 -->
<g id="Node000017" class="node">
<title>Node17</title>
<g id="a_Node000017"><a xlink:href="proto__list_8h.html" target="_top" xlink:title=" ">
<polygon fill="white" stroke="#666666" points="283.5,-74 158.5,-74 158.5,-55 283.5,-55 283.5,-74"/>
<text text-anchor="middle" x="221" y="-62" font-family="Helvetica,sans-Serif" font-size="10.00">core/types/proto_list.h</text>
</a>
</g>
</g>
<!-- Node16&#45;&gt;Node17 -->
<g id="edge24_Node000016_Node000017" class="edge">
<title>Node16&#45;&gt;Node17</title>
<g id="a_edge24_Node000016_Node000017"><a xlink:title=" ">
<path fill="none" stroke="#63b8ff" d="M221,-109.84C221,-102.21 221,-92.7 221,-84.45"/>
<polygon fill="#63b8ff" stroke="#63b8ff" points="224.5,-84.27 221,-74.27 217.5,-84.27 224.5,-84.27"/>
</a>
</g>
</g>
<!-- Node18&#45;&gt;Node3 -->
<g id="edge26_Node000018_Node000003" class="edge">
<title>Node18&#45;&gt;Node3</title>
<g id="a_edge26_Node000018_Node000003"><a xlink:title=" ">
<path fill="none" stroke="#63b8ff" d="M541.88,-115.49C504.4,-105.25 441.32,-88 399.93,-76.69"/>
<polygon fill="#63b8ff" stroke="#63b8ff" points="400.72,-73.28 390.15,-74.02 398.88,-80.03 400.72,-73.28"/>
</a>
</g>
</g>
<!-- Node18&#45;&gt;Node4 -->
<g id="edge27_Node000018_Node000004" class="edge">
<title>Node18&#45;&gt;Node4</title>
<g id="a_edge27_Node000018_Node000004"><a xlink:title=" ">
<path fill="none" stroke="#63b8ff" d="M582.74,-115.37C592.97,-106.3 609.29,-91.84 621.72,-80.82"/>
<polygon fill="#63b8ff" stroke="#63b8ff" points="624.06,-83.42 629.22,-74.17 619.42,-78.18 624.06,-83.42"/>
</a>
</g>
</g>
<!-- Node18&#45;&gt;Node8 -->
<g id="edge28_Node000018_Node000008" class="edge">
<title>Node18&#45;&gt;Node8</title>
<g id="a_edge28_Node000018_Node000008"><a xlink:title=" ">
<path fill="none" stroke="#63b8ff" d="M594.23,-115.49C618.99,-105.57 660.12,-89.09 688.35,-77.78"/>
<polygon fill="#63b8ff" stroke="#63b8ff" points="689.76,-80.99 697.74,-74.02 687.16,-74.49 689.76,-80.99"/>
</a>
</g>
</g>
<!-- Node18&#45;&gt;Node11 -->
<g id="edge29_Node000018_Node000011" class="edge">
<title>Node18&#45;&gt;Node11</title>
<g id="a_edge29_Node000018_Node000011"><a xlink:title=" ">
<path fill="none" stroke="#63b8ff" d="M557.06,-115.37C539.36,-105.78 510.54,-90.17 489.86,-78.97"/>
<polygon fill="#63b8ff" stroke="#63b8ff" points="491.46,-75.85 481,-74.17 488.13,-82.01 491.46,-75.85"/>
</a>
</g>
</g>
<!-- Node19 -->
<g id="Node000019" class="node">
<title>Node19</title>
<g id="a_Node000019"><a xlink:title=" ">
<polygon fill="#e0e0e0" stroke="#999999" points="836,-74 764,-74 764,-55 836,-55 836,-74"/>
<text text-anchor="middle" x="800" y="-62" font-family="Helvetica,sans-Serif" font-size="10.00">sys/types.h</text>
</a>
</g>
</g>
<!-- Node18&#45;&gt;Node19 -->
<g id="edge30_Node000018_Node000019" class="edge">
<title>Node18&#45;&gt;Node19</title>
<g id="a_edge30_Node000018_Node000019"><a xlink:title=" ">
<path fill="none" stroke="#63b8ff" d="M606.01,-115.49C645.94,-105.2 713.24,-87.86 757.14,-76.54"/>
<polygon fill="#63b8ff" stroke="#63b8ff" points="758.14,-79.9 766.95,-74.02 756.4,-73.12 758.14,-79.9"/>
</a>
</g>
</g>
<!-- Node20 -->
<g id="Node000020" class="node">
<title>Node20</title>
<g id="a_Node000020"><a xlink:title=" ">
<polygon fill="#e0e0e0" stroke="#999999" points="586,-74 526,-74 526,-55 586,-55 586,-74"/>
<text text-anchor="middle" x="556" y="-62" font-family="Helvetica,sans-Serif" font-size="10.00">sys/uio.h</text>
</a>
</g>
</g>
<!-- Node18&#45;&gt;Node20 -->
<g id="edge31_Node000018_Node000020" class="edge">
<title>Node18&#45;&gt;Node20</title>
<g id="a_edge31_Node000018_Node000020"><a xlink:title=" ">
<path fill="none" stroke="#63b8ff" d="M570.49,-115.37C568.11,-107.16 564.44,-94.54 561.39,-84.05"/>
<polygon fill="#63b8ff" stroke="#63b8ff" points="564.67,-82.79 558.52,-74.17 557.95,-84.75 564.67,-82.79"/>
</a>
</g>
</g>
<!-- Node21&#45;&gt;Node3 -->
<g id="edge33_Node000021_Node000003" class="edge">
<title>Node21&#45;&gt;Node3</title>
<g id="a_edge33_Node000021_Node000003"><a xlink:title=" ">
<path fill="none" stroke="#63b8ff" d="M752.27,-177.1C749.13,-176.72 746.03,-176.35 743,-176 667.97,-167.25 468.92,-180.24 405,-140 384.55,-127.12 371.76,-101.5 365,-83.94"/>
<polygon fill="#63b8ff" stroke="#63b8ff" points="368.2,-82.48 361.56,-74.23 361.6,-84.82 368.2,-82.48"/>
</a>
</g>
</g>
<!-- Node21&#45;&gt;Node4 -->
<g id="edge34_Node000021_Node000004" class="edge">
<title>Node21&#45;&gt;Node4</title>
<g id="a_edge34_Node000021_Node000004"><a xlink:title=" ">
<path fill="none" stroke="#63b8ff" d="M796.56,-175.77C782.96,-166.9 761.39,-152.69 743,-140 713.41,-119.58 679.66,-95.2 658.84,-80.03"/>
<polygon fill="#63b8ff" stroke="#63b8ff" points="660.9,-77.2 650.76,-74.13 656.77,-82.85 660.9,-77.2"/>
</a>
</g>
</g>
<!-- Node21&#45;&gt;Node5 -->
<g id="edge35_Node000021_Node000005" class="edge">
<title>Node21&#45;&gt;Node5</title>
<g id="a_edge35_Node000021_Node000005"><a xlink:title=" ">
<path fill="none" stroke="#63b8ff" d="M867.73,-176.41C941.52,-165.8 1060.58,-147.62 1067,-140 1075.59,-129.8 1075.21,-120.5 1067,-110 1058.63,-99.29 982.61,-83.21 932.37,-73.6"/>
<polygon fill="#63b8ff" stroke="#63b8ff" points="932.86,-70.13 922.38,-71.7 931.56,-77 932.86,-70.13"/>
</a>
</g>
</g>
<!-- Node21&#45;&gt;Node19 -->
<g id="edge36_Node000021_Node000019" class="edge">
<title>Node21&#45;&gt;Node19</title>
<g id="a_edge36_Node000021_Node000019"><a xlink:title=" ">
<path fill="none" stroke="#63b8ff" d="M865.99,-175.96C935.04,-165.15 1044.1,-147.1 1050,-140 1058.53,-129.75 1058.57,-120.21 1050,-110 1021.94,-76.59 904.88,-81.56 846.24,-73.93"/>
<polygon fill="#63b8ff" stroke="#63b8ff" points="846.76,-70.47 836.34,-72.41 845.69,-77.38 846.76,-70.47"/>
</a>
</g>
</g>
<!-- Node22 -->
<g id="Node000022" class="node">
<title>Node22</title>
<g id="a_Node000022"><a xlink:href="time_8h.html" target="_top" xlink:title=" ">
<polygon fill="white" stroke="#666666" points="1183,-134.5 1135,-134.5 1135,-115.5 1183,-115.5 1183,-134.5"/>
<text text-anchor="middle" x="1159" y="-122.5" font-family="Helvetica,sans-Serif" font-size="10.00">time.h</text>
</a>
</g>
</g>
<!-- Node21&#45;&gt;Node22 -->
<g id="edge37_Node000021_Node000022" class="edge">
<title>Node21&#45;&gt;Node22</title>
<g id="a_edge37_Node000021_Node000022"><a xlink:title=" ">
<path fill="none" stroke="#63b8ff" d="M867.59,-176.93C950.71,-165.9 1097.01,-146.06 1121,-140 1123.51,-139.37 1126.07,-138.63 1128.64,-137.82"/>
<polygon fill="#63b8ff" stroke="#63b8ff" points="1130.01,-141.05 1138.34,-134.51 1127.75,-134.43 1130.01,-141.05"/>
</a>
</g>
</g>
<!-- Node23 -->
<g id="Node000023" class="node">
<title>Node23</title>
<g id="a_Node000023"><a xlink:href="http__headers_8h.html" target="_top" xlink:title=" ">
<polygon fill="white" stroke="#666666" points="840.5,-134.5 751.5,-134.5 751.5,-115.5 840.5,-115.5 840.5,-134.5"/>
<text text-anchor="middle" x="796" y="-122.5" font-family="Helvetica,sans-Serif" font-size="10.00">http_headers.h</text>
</a>
</g>
</g>
<!-- Node21&#45;&gt;Node23 -->
<g id="edge40_Node000021_Node000023" class="edge">
<title>Node21&#45;&gt;Node23</title>
<g id="a_edge40_Node000021_Node000023"><a xlink:title=" ">
<path fill="none" stroke="#63b8ff" d="M807.93,-175.87C805.97,-167.66 802.95,-155.04 800.44,-144.55"/>
<polygon fill="#63b8ff" stroke="#63b8ff" points="803.81,-143.58 798.07,-134.67 797,-145.21 803.81,-143.58"/>
</a>
</g>
</g>
<!-- Node22&#45;&gt;Node7 -->
<g id="edge38_Node000022_Node000007" class="edge">
<title>Node22&#45;&gt;Node7</title>
<g id="a_edge38_Node000022_Node000007"><a xlink:title=" ">
<path fill="none" stroke="#63b8ff" d="M1136.16,-115.35C1131.18,-113.53 1125.93,-111.66 1121,-110 1084.95,-97.84 1043.41,-85.23 1014.06,-76.56"/>
<polygon fill="#63b8ff" stroke="#63b8ff" points="1014.8,-73.12 1004.22,-73.66 1012.82,-79.84 1014.8,-73.12"/>
</a>
</g>
</g>
<!-- Node22&#45;&gt;Node22 -->
<g id="edge39_Node000022_Node000022" class="edge">
<title>Node22&#45;&gt;Node22</title>
<g id="a_edge39_Node000022_Node000022"><a xlink:title=" ">
<path fill="none" stroke="#63b8ff" d="M1174.51,-134.53C1187.46,-138.61 1201,-135.43 1201,-125 1201,-117.26 1193.54,-113.51 1184.4,-113.76"/>
<polygon fill="#63b8ff" stroke="#63b8ff" points="1183.77,-110.32 1174.51,-115.47 1184.96,-117.22 1183.77,-110.32"/>
</a>
</g>
</g>
<!-- Node23&#45;&gt;Node3 -->
<g id="edge41_Node000023_Node000003" class="edge">
<title>Node23&#45;&gt;Node3</title>
<g id="a_edge41_Node000023_Node000003"><a xlink:title=" ">
<path fill="none" stroke="#63b8ff" d="M751.29,-118.01C668.93,-106.99 493.86,-83.55 408.24,-72.09"/>
<polygon fill="#63b8ff" stroke="#63b8ff" points="408.62,-68.61 398.25,-70.75 407.7,-75.55 408.62,-68.61"/>
</a>
</g>
</g>
<!-- Node23&#45;&gt;Node4 -->
<g id="edge42_Node000023_Node000004" class="edge">
<title>Node23&#45;&gt;Node4</title>
<g id="a_edge42_Node000023_Node000004"><a xlink:title=" ">
<path fill="none" stroke="#63b8ff" d="M773.17,-115.49C746.43,-105.53 701.92,-88.95 671.56,-77.63"/>
<polygon fill="#63b8ff" stroke="#63b8ff" points="672.45,-74.23 661.86,-74.02 670.01,-80.79 672.45,-74.23"/>
</a>
</g>
</g>
<!-- Node23&#45;&gt;Node5 -->
<g id="edge43_Node000023_Node000005" class="edge">
<title>Node23&#45;&gt;Node5</title>
<g id="a_edge43_Node000023_Node000005"><a xlink:title=" ">
<path fill="none" stroke="#63b8ff" d="M809.57,-115.37C824.39,-105.95 848.33,-90.73 865.86,-79.58"/>
<polygon fill="#63b8ff" stroke="#63b8ff" points="867.81,-82.49 874.37,-74.17 864.05,-76.58 867.81,-82.49"/>
</a>
</g>
</g>
</g>
</svg>
