<?xml version="1.0" encoding="UTF-8" standalone="no"?>
<!DOCTYPE svg PUBLIC "-//W3C//DTD SVG 1.1//EN"
 "http://www.w3.org/Graphics/SVG/1.1/DTD/svg11.dtd">
<!-- Generated by graphviz version 2.43.0 (0)
 -->
<!-- Title: src/protocols/shared/http_serve_offload.h Pages: 1 -->
<!--zoomable 335 -->

<svg id="main" version="1.1" xmlns="http://www.w3.org/2000/svg" xmlns:xlink="http://www.w3.org/1999/xlink" xml:space="preserve" onload="init(evt)">
<style type="text/css"><![CDATA[
.node, .edge {opacity: 0.7;}
.node.selected, .edge.selected {opacity: 1;}
.edge:hover path { stroke: red; }
.edge:hover polygon { stroke: red; fill: red; }
]]></style>

<defs>
  <circle id="rim" cx="0" cy="0" r="7"/>
  <circle id="rim2" cx="0" cy="0" r="3.5"/>
  <g id="zoomPlus">
    <use xlink:href="#rim" fill="#404040"><set attributeName="fill" to="#808080" begin="zoomplus.mouseover" end="zoomplus.mouseout"/></use>
    <path d="M-4,0h8M0,-4v8" fill="none" stroke="white" stroke-width="1.5" pointer-events="none"/>
  </g>
  <g id="zoomMin">
    <use xlink:href="#rim" fill="#404040"><set attributeName="fill" to="#808080" begin="zoomminus.mouseover" end="zoomminus.mouseout"/></use>
    <path d="M-4,0h8" fill="none" stroke="white" stroke-width="1.5" pointer-events="none"/>
  </g>
  <g id="arrowUp" transform="translate(30 24)">
    <use xlink:href="#rim"/>
    <path pointer-events="none" fill="none" stroke="white" stroke-width="1.5" d="M0,-3.0v7 M-2.5,-0.5L0,-3.0L2.5,-0.5"/>
  </g>
  <g id="arrowRight" transform="rotate(90) translate(36 -43)">
    <use xlink:href="#rim"/>
    <path pointer-events="none" fill="none" stroke="white" stroke-width="1.5" d="M0,-3.0v7 M-2.5,-0.5L0,-3.0L2.5,-0.5"/>
  </g>
  <g id="arrowDown" transform="rotate(180) translate(-30 -48)">
    <use xlink:href="#rim"/>
    <path pointer-events="none" fill="none" stroke="white" stroke-width="1.5" d="M0,-3.0v7 M-2.5,-0.5L0,-3.0L2.5,-0.5"/>
  </g>
  <g id="arrowLeft" transform="rotate(270) translate(-36 17)">
    <use xlink:href="#rim"/>
    <path pointer-events="none" fill="none" stroke="white" stroke-width="1.5" d="M0,-3.0v7 M-2.5,-0.5L0,-3.0L2.5,-0.5"/>
  </g>
  <g id="resetDef">
    <use xlink:href="#rim2" fill="#404040"><set attributeName="fill" to="#808080" begin="reset.mouseover" end="reset.mouseout"/></use>
  </g>
</defs>
<script type="application/ecmascript">
var viewWidth = 1018;
var viewHeight = 335;
var sectionId = 'dynsection-0';
</script>
<script type="application/ecmascript" xlink:href="svg.min.js"/>
<svg id="graph" class="graph">
<g id="viewport">
<title>src/protocols/shared/http_serve_offload.h</title>
<!-- Node1 -->
<g id="Node000001" class="node">
<title>Node1</title>
<g id="a_Node000001"><a xlink:title=" ">
<polygon fill="#999999" stroke="#666666" points="615.54,-327 496.54,-327 496.54,-297 615.54,-297 615.54,-327"/>
<text text-anchor="start" x="504.54" y="-315" font-family="Helvetica,sans-Serif" font-size="10.00">src/protocols/shared</text>
<text text-anchor="middle" x="556.04" y="-304" font-family="Helvetica,sans-Serif" font-size="10.00">/http_serve_offload.h</text>
</a>
</g>
</g>
<!-- Node2 -->
<g id="Node000002" class="node">
<title>Node2</title>
<g id="a_Node000002"><a xlink:title=" ">
<polygon fill="#e0e0e0" stroke="#999999" points="256.04,-74 178.04,-74 178.04,-55 256.04,-55 256.04,-74"/>
<text text-anchor="middle" x="217.04" y="-62" font-family="Helvetica,sans-Serif" font-size="10.00">ngx_config.h</text>
</a>
</g>
</g>
<!-- Node1&#45;&gt;Node2 -->
<g id="edge1_Node000001_Node000002" class="edge">
<title>Node1&#45;&gt;Node2</title>
<g id="a_edge1_Node000001_Node000002"><a xlink:title=" ">
<path fill="none" stroke="#63b8ff" d="M496.11,-309.17C366.07,-303.76 64.96,-283.01 6.04,-206 -15.26,-178.16 27.89,-116.01 35.04,-110 45.3,-101.39 117.65,-85.45 167.98,-75.17"/>
<polygon fill="#63b8ff" stroke="#63b8ff" points="168.94,-78.54 178.04,-73.13 167.55,-71.68 168.94,-78.54"/>
</a>
</g>
</g>
<!-- Node3 -->
<g id="Node000003" class="node">
<title>Node3</title>
<g id="a_Node000003"><a xlink:title=" ">
<polygon fill="#e0e0e0" stroke="#999999" points="552.04,-74 482.04,-74 482.04,-55 552.04,-55 552.04,-74"/>
<text text-anchor="middle" x="517.04" y="-62" font-family="Helvetica,sans-Serif" font-size="10.00">ngx_core.h</text>
</a>
</g>
</g>
<!-- Node1&#45;&gt;Node3 -->
<g id="edge2_Node000001_Node000003" class="edge">
<title>Node1&#45;&gt;Node3</title>
<g id="a_edge2_Node000001_Node000003"><a xlink:title=" ">
<path fill="none" stroke="#63b8ff" d="M615.7,-303.64C673.8,-292.99 759.29,-267.28 801.04,-206 825.07,-170.73 830.8,-142.41 803.04,-110 787.61,-91.98 639.28,-76.33 562.55,-69.36"/>
<polygon fill="#63b8ff" stroke="#63b8ff" points="562.49,-65.84 552.22,-68.43 561.86,-72.81 562.49,-65.84"/>
</a>
</g>
</g>
<!-- Node4 -->
<g id="Node000004" class="node">
<title>Node4</title>
<g id="a_Node000004"><a xlink:title=" ">
<polygon fill="#e0e0e0" stroke="#999999" points="83.04,-200.5 15.04,-200.5 15.04,-181.5 83.04,-181.5 83.04,-200.5"/>
<text text-anchor="middle" x="49.04" y="-188.5" font-family="Helvetica,sans-Serif" font-size="10.00">ngx_http.h</text>
</a>
</g>
</g>
<!-- Node1&#45;&gt;Node4 -->
<g id="edge3_Node000001_Node000004" class="edge">
<title>Node1&#45;&gt;Node4</title>
<g id="a_edge3_Node000001_Node000004"><a xlink:title=" ">
<path fill="none" stroke="#63b8ff" d="M496.47,-301.8C441.32,-292.87 357.19,-278.15 285.04,-261 213.23,-243.92 130.75,-218.43 84.78,-203.69"/>
<polygon fill="#63b8ff" stroke="#63b8ff" points="85.59,-200.27 75,-200.54 83.45,-206.93 85.59,-200.27"/>
</a>
</g>
</g>
<!-- Node5 -->
<g id="Node000005" class="node">
<title>Node5</title>
<g id="a_Node000005"><a xlink:href="file__serve_8h.html" target="_top" xlink:title=" ">
<polygon fill="white" stroke="#666666" points="366.54,-261 293.54,-261 293.54,-242 366.54,-242 366.54,-261"/>
<text text-anchor="middle" x="330.04" y="-249" font-family="Helvetica,sans-Serif" font-size="10.00">file_serve.h</text>
</a>
</g>
</g>
<!-- Node1&#45;&gt;Node5 -->
<g id="edge4_Node000001_Node000005" class="edge">
<title>Node1&#45;&gt;Node5</title>
<g id="a_edge4_Node000001_Node000005"><a xlink:title=" ">
<path fill="none" stroke="#63b8ff" d="M501.91,-296.99C462.4,-286.76 409.57,-273.09 372.96,-263.61"/>
<polygon fill="#63b8ff" stroke="#63b8ff" points="373.64,-260.17 363.09,-261.05 371.89,-266.95 373.64,-260.17"/>
</a>
</g>
</g>
<!-- Node15 -->
<g id="Node000015" class="node">
<title>Node15</title>
<g id="a_Node000015"><a xlink:href="sd_8h.html" target="_top" xlink:title=" ">
<polygon fill="white" stroke="#666666" points="942.04,-134.5 850.04,-134.5 850.04,-115.5 942.04,-115.5 942.04,-134.5"/>
<text text-anchor="middle" x="896.04" y="-122.5" font-family="Helvetica,sans-Serif" font-size="10.00">fs/backend/sd.h</text>
</a>
</g>
</g>
<!-- Node1&#45;&gt;Node15 -->
<g id="edge37_Node000001_Node000015" class="edge">
<title>Node1&#45;&gt;Node15</title>
<g id="a_edge37_Node000001_Node000015"><a xlink:title=" ">
<path fill="none" stroke="#63b8ff" d="M615.59,-306.87C687.37,-300.8 802.57,-287.23 836.04,-261 873.29,-231.81 888.01,-174.57 893.33,-144.88"/>
<polygon fill="#63b8ff" stroke="#63b8ff" points="896.85,-145.07 894.98,-134.64 889.94,-143.95 896.85,-145.07"/>
</a>
</g>
</g>
<!-- Node19 -->
<g id="Node000019" class="node">
<title>Node19</title>
<g id="a_Node000019"><a xlink:href="shared__conf_8h.html" target="_top" xlink:title=" ">
<polygon fill="white" stroke="#666666" points="792.04,-206 686.04,-206 686.04,-176 792.04,-176 792.04,-206"/>
<text text-anchor="start" x="694.04" y="-194" font-family="Helvetica,sans-Serif" font-size="10.00">core/config/shared</text>
<text text-anchor="middle" x="739.04" y="-183" font-family="Helvetica,sans-Serif" font-size="10.00">_conf.h</text>
</a>
</g>
</g>
<!-- Node1&#45;&gt;Node19 -->
<g id="edge32_Node000001_Node000019" class="edge">
<title>Node1&#45;&gt;Node19</title>
<g id="a_edge32_Node000001_Node000019"><a xlink:title=" ">
<path fill="none" stroke="#63b8ff" d="M577.75,-296.88C610.22,-275.77 671.55,-235.89 708.52,-211.85"/>
<polygon fill="#63b8ff" stroke="#63b8ff" points="710.88,-214.49 717.36,-206.1 707.07,-208.62 710.88,-214.49"/>
</a>
</g>
</g>
<!-- Node5&#45;&gt;Node2 -->
<g id="edge5_Node000005_Node000002" class="edge">
<title>Node5&#45;&gt;Node2</title>
<g id="a_edge5_Node000005_Node000002"><a xlink:title=" ">
<path fill="none" stroke="#63b8ff" d="M294.06,-241.96C223.97,-224.51 73.39,-182.8 44.04,-140 36.5,-129 35.87,-120.54 44.04,-110 51.76,-100.05 119.34,-84.81 167.71,-75"/>
<polygon fill="#63b8ff" stroke="#63b8ff" points="168.59,-78.39 177.71,-72.99 167.21,-71.53 168.59,-78.39"/>
</a>
</g>
</g>
<!-- Node5&#45;&gt;Node3 -->
<g id="edge6_Node000005_Node000003" class="edge">
<title>Node5&#45;&gt;Node3</title>
<g id="a_edge6_Node000005_Node000003"><a xlink:title=" ">
<path fill="none" stroke="#63b8ff" d="M366.77,-249.99C434.1,-246.82 576.13,-229.31 639.04,-140 646.72,-129.1 646.69,-120.92 639.04,-110 621.79,-85.35 589.37,-74.31 562.29,-69.38"/>
<polygon fill="#63b8ff" stroke="#63b8ff" points="562.64,-65.89 552.21,-67.78 561.54,-72.81 562.64,-65.89"/>
</a>
</g>
</g>
<!-- Node5&#45;&gt;Node4 -->
<g id="edge7_Node000005_Node000004" class="edge">
<title>Node5&#45;&gt;Node4</title>
<g id="a_edge7_Node000005_Node000004"><a xlink:title=" ">
<path fill="none" stroke="#63b8ff" d="M293.49,-244.63C247.42,-236.97 165.91,-222.58 97.04,-206 93.6,-205.17 90.05,-204.25 86.49,-203.29"/>
<polygon fill="#63b8ff" stroke="#63b8ff" points="87.16,-199.85 76.59,-200.52 85.27,-206.59 87.16,-199.85"/>
</a>
</g>
</g>
<!-- Node6 -->
<g id="Node000006" class="node">
<title>Node6</title>
<g id="a_Node000006"><a xlink:href="src_2fs_2vfs_2vfs_8h.html" target="_top" xlink:title=" ">
<polygon fill="white" stroke="#666666" points="365.54,-200.5 294.54,-200.5 294.54,-181.5 365.54,-181.5 365.54,-200.5"/>
<text text-anchor="middle" x="330.04" y="-188.5" font-family="Helvetica,sans-Serif" font-size="10.00">fs/vfs/vfs.h</text>
</a>
</g>
</g>
<!-- Node5&#45;&gt;Node6 -->
<g id="edge8_Node000005_Node000006" class="edge">
<title>Node5&#45;&gt;Node6</title>
<g id="a_edge8_Node000005_Node000006"><a xlink:title=" ">
<path fill="none" stroke="#63b8ff" d="M330.04,-241.87C330.04,-233.75 330.04,-221.31 330.04,-210.89"/>
<polygon fill="#63b8ff" stroke="#63b8ff" points="333.54,-210.67 330.04,-200.67 326.54,-210.67 333.54,-210.67"/>
</a>
</g>
</g>
<!-- Node6&#45;&gt;Node2 -->
<g id="edge9_Node000006_Node000002" class="edge">
<title>Node6&#45;&gt;Node2</title>
<g id="a_edge9_Node000006_Node000002"><a xlink:title=" ">
<path fill="none" stroke="#63b8ff" d="M294.45,-183.92C269.15,-177.57 236.79,-164.89 220.04,-140 209,-123.59 210.07,-100.24 212.73,-84.07"/>
<polygon fill="#63b8ff" stroke="#63b8ff" points="216.17,-84.69 214.69,-74.2 209.31,-83.33 216.17,-84.69"/>
</a>
</g>
</g>
<!-- Node6&#45;&gt;Node3 -->
<g id="edge10_Node000006_Node000003" class="edge">
<title>Node6&#45;&gt;Node3</title>
<g id="a_edge10_Node000006_Node000003"><a xlink:title=" ">
<path fill="none" stroke="#63b8ff" d="M334.72,-181.22C343.83,-164.92 365.5,-129.84 393.04,-110 416.53,-93.08 447.1,-82.02 472.01,-75.15"/>
<polygon fill="#63b8ff" stroke="#63b8ff" points="473.17,-78.47 481.95,-72.55 471.39,-71.7 473.17,-78.47"/>
</a>
</g>
</g>
<!-- Node7 -->
<g id="Node000007" class="node">
<title>Node7</title>
<g id="a_Node000007"><a xlink:href="fs_2path_2unified_8h.html" target="_top" xlink:title=" ">
<polygon fill="white" stroke="#666666" points="629.54,-134.5 534.54,-134.5 534.54,-115.5 629.54,-115.5 629.54,-134.5"/>
<text text-anchor="middle" x="582.04" y="-122.5" font-family="Helvetica,sans-Serif" font-size="10.00">fs/path/unified.h</text>
</a>
</g>
</g>
<!-- Node6&#45;&gt;Node7 -->
<g id="edge11_Node000006_Node000007" class="edge">
<title>Node6&#45;&gt;Node7</title>
<g id="a_edge11_Node000006_Node000007"><a xlink:title=" ">
<path fill="none" stroke="#63b8ff" d="M363.77,-181.44C408.94,-169.96 489.13,-149.6 538.72,-137"/>
<polygon fill="#63b8ff" stroke="#63b8ff" points="539.69,-140.37 548.52,-134.51 537.96,-133.58 539.69,-140.37"/>
</a>
</g>
</g>
<!-- Node9 -->
<g id="Node000009" class="node">
<title>Node9</title>
<g id="a_Node000009"><a xlink:href="identity_8h.html" target="_top" xlink:title=" ">
<polygon fill="white" stroke="#666666" points="345.04,-134.5 229.04,-134.5 229.04,-115.5 345.04,-115.5 345.04,-134.5"/>
<text text-anchor="middle" x="287.04" y="-122.5" font-family="Helvetica,sans-Serif" font-size="10.00">core/types/identity.h</text>
</a>
</g>
</g>
<!-- Node6&#45;&gt;Node9 -->
<g id="edge15_Node000006_Node000009" class="edge">
<title>Node6&#45;&gt;Node9</title>
<g id="a_edge15_Node000006_Node000009"><a xlink:title=" ">
<path fill="none" stroke="#63b8ff" d="M324.24,-181.37C317.74,-171.69 307.02,-155.74 298.76,-143.44"/>
<polygon fill="#63b8ff" stroke="#63b8ff" points="301.51,-141.25 293.03,-134.91 295.7,-145.16 301.51,-141.25"/>
</a>
</g>
</g>
<!-- Node13 -->
<g id="Node000013" class="node">
<title>Node13</title>
<g id="a_Node000013"><a xlink:href="observability_2metrics_2unified_8h.html" target="_top" xlink:title=" ">
<polygon fill="white" stroke="#666666" points="173.04,-140 53.04,-140 53.04,-110 173.04,-110 173.04,-140"/>
<text text-anchor="start" x="61.04" y="-128" font-family="Helvetica,sans-Serif" font-size="10.00">observability/metrics</text>
<text text-anchor="middle" x="113.04" y="-117" font-family="Helvetica,sans-Serif" font-size="10.00">/unified.h</text>
</a>
</g>
</g>
<!-- Node6&#45;&gt;Node13 -->
<g id="edge21_Node000006_Node000013" class="edge">
<title>Node6&#45;&gt;Node13</title>
<g id="a_edge21_Node000006_Node000013"><a xlink:title=" ">
<path fill="none" stroke="#63b8ff" d="M300.78,-181.37C267.58,-171.58 212.61,-155.37 170.71,-143.01"/>
<polygon fill="#63b8ff" stroke="#63b8ff" points="171.48,-139.59 160.9,-140.12 169.5,-146.3 171.48,-139.59"/>
</a>
</g>
</g>
<!-- Node6&#45;&gt;Node15 -->
<g id="edge25_Node000006_Node000015" class="edge">
<title>Node6&#45;&gt;Node15</title>
<g id="a_edge25_Node000006_Node000015"><a xlink:title=" ">
<path fill="none" stroke="#63b8ff" d="M365.71,-186.77C444.64,-179.51 640.05,-160.87 803.04,-140 814.94,-138.48 827.66,-136.68 839.76,-134.88"/>
<polygon fill="#63b8ff" stroke="#63b8ff" points="840.37,-138.33 849.74,-133.38 839.33,-131.41 840.37,-138.33"/>
</a>
</g>
</g>
<!-- Node7&#45;&gt;Node2 -->
<g id="edge12_Node000007_Node000002" class="edge">
<title>Node7&#45;&gt;Node2</title>
<g id="a_edge12_Node000007_Node000002"><a xlink:title=" ">
<path fill="none" stroke="#63b8ff" d="M550.49,-115.48C542.54,-113.51 534.01,-111.54 526.04,-110 411.51,-87.82 381.31,-91.97 266.04,-74 265.94,-73.98 265.84,-73.97 265.74,-73.95"/>
<polygon fill="#63b8ff" stroke="#63b8ff" points="266.5,-70.53 256.07,-72.39 265.39,-77.44 266.5,-70.53"/>
</a>
</g>
</g>
<!-- Node7&#45;&gt;Node3 -->
<g id="edge13_Node000007_Node000003" class="edge">
<title>Node7&#45;&gt;Node3</title>
<g id="a_edge13_Node000007_Node000003"><a xlink:title=" ">
<path fill="none" stroke="#63b8ff" d="M572.45,-115.37C562.47,-106.38 546.61,-92.11 534.41,-81.14"/>
<polygon fill="#63b8ff" stroke="#63b8ff" points="536.45,-78.26 526.67,-74.17 531.76,-83.46 536.45,-78.26"/>
</a>
</g>
</g>
<!-- Node8 -->
<g id="Node000008" class="node">
<title>Node8</title>
<g id="a_Node000008"><a xlink:title=" ">
<polygon fill="#e0e0e0" stroke="#999999" points="692.04,-74 628.04,-74 628.04,-55 692.04,-55 692.04,-74"/>
<text text-anchor="middle" x="660.04" y="-62" font-family="Helvetica,sans-Serif" font-size="10.00">sys/stat.h</text>
</a>
</g>
</g>
<!-- Node7&#45;&gt;Node8 -->
<g id="edge14_Node000007_Node000008" class="edge">
<title>Node7&#45;&gt;Node8</title>
<g id="a_edge14_Node000007_Node000008"><a xlink:title=" ">
<path fill="none" stroke="#63b8ff" d="M593.55,-115.37C605.88,-106.12 625.66,-91.28 640.45,-80.19"/>
<polygon fill="#63b8ff" stroke="#63b8ff" points="642.59,-82.97 648.49,-74.17 638.39,-77.37 642.59,-82.97"/>
</a>
</g>
</g>
<!-- Node9&#45;&gt;Node2 -->
<g id="edge16_Node000009_Node000002" class="edge">
<title>Node9&#45;&gt;Node2</title>
<g id="a_edge16_Node000009_Node000002"><a xlink:title=" ">
<path fill="none" stroke="#63b8ff" d="M276.71,-115.37C265.86,-106.3 248.56,-91.84 235.37,-80.82"/>
<polygon fill="#63b8ff" stroke="#63b8ff" points="237.33,-77.89 227.41,-74.17 232.84,-83.27 237.33,-77.89"/>
</a>
</g>
</g>
<!-- Node9&#45;&gt;Node3 -->
<g id="edge17_Node000009_Node000003" class="edge">
<title>Node9&#45;&gt;Node3</title>
<g id="a_edge17_Node000009_Node000003"><a xlink:title=" ">
<path fill="none" stroke="#63b8ff" d="M320.49,-115.49C360.94,-105.2 429.14,-87.86 473.62,-76.54"/>
<polygon fill="#63b8ff" stroke="#63b8ff" points="474.73,-79.87 483.56,-74.02 473,-73.09 474.73,-79.87"/>
</a>
</g>
</g>
<!-- Node10 -->
<g id="Node000010" class="node">
<title>Node10</title>
<g id="a_Node000010"><a xlink:href="token_8h.html" target="_top" xlink:title=" ">
<polygon fill="white" stroke="#666666" points="381.54,-74 274.54,-74 274.54,-55 381.54,-55 381.54,-74"/>
<text text-anchor="middle" x="328.04" y="-62" font-family="Helvetica,sans-Serif" font-size="10.00">auth/token/token.h</text>
</a>
</g>
</g>
<!-- Node9&#45;&gt;Node10 -->
<g id="edge18_Node000009_Node000010" class="edge">
<title>Node9&#45;&gt;Node10</title>
<g id="a_edge18_Node000009_Node000010"><a xlink:title=" ">
<path fill="none" stroke="#63b8ff" d="M293.09,-115.37C299.15,-106.73 308.63,-93.2 316.19,-82.42"/>
<polygon fill="#63b8ff" stroke="#63b8ff" points="319.09,-84.37 321.97,-74.17 313.36,-80.35 319.09,-84.37"/>
</a>
</g>
</g>
<!-- Node11 -->
<g id="Node000011" class="node">
<title>Node11</title>
<g id="a_Node000011"><a xlink:title=" ">
<polygon fill="#e0e0e0" stroke="#999999" points="327.04,-19 243.04,-19 243.04,0 327.04,0 327.04,-19"/>
<text text-anchor="middle" x="285.04" y="-7" font-family="Helvetica,sans-Serif" font-size="10.00">openssl/evp.h</text>
</a>
</g>
</g>
<!-- Node10&#45;&gt;Node11 -->
<g id="edge19_Node000010_Node000011" class="edge">
<title>Node10&#45;&gt;Node11</title>
<g id="a_edge19_Node000010_Node000011"><a xlink:title=" ">
<path fill="none" stroke="#63b8ff" d="M320.94,-54.75C314.87,-47.26 305.96,-36.28 298.53,-27.13"/>
<polygon fill="#63b8ff" stroke="#63b8ff" points="301.03,-24.65 292.01,-19.09 295.59,-29.06 301.03,-24.65"/>
</a>
</g>
</g>
<!-- Node12 -->
<g id="Node000012" class="node">
<title>Node12</title>
<g id="a_Node000012"><a xlink:title=" ">
<polygon fill="#e0e0e0" stroke="#999999" points="397.54,-19 344.54,-19 344.54,0 397.54,0 397.54,-19"/>
<text text-anchor="middle" x="371.04" y="-7" font-family="Helvetica,sans-Serif" font-size="10.00">limits.h</text>
</a>
</g>
</g>
<!-- Node10&#45;&gt;Node12 -->
<g id="edge20_Node000010_Node000012" class="edge">
<title>Node10&#45;&gt;Node12</title>
<g id="a_edge20_Node000010_Node000012"><a xlink:title=" ">
<path fill="none" stroke="#63b8ff" d="M335.14,-54.75C341.22,-47.26 350.13,-36.28 357.55,-27.13"/>
<polygon fill="#63b8ff" stroke="#63b8ff" points="360.49,-29.06 364.07,-19.09 355.06,-24.65 360.49,-29.06"/>
</a>
</g>
</g>
<!-- Node13&#45;&gt;Node2 -->
<g id="edge22_Node000013_Node000002" class="edge">
<title>Node13&#45;&gt;Node2</title>
<g id="a_edge22_Node000013_Node000002"><a xlink:title=" ">
<path fill="none" stroke="#63b8ff" d="M137.95,-109.99C154.53,-100.66 176.2,-88.47 192.67,-79.21"/>
<polygon fill="#63b8ff" stroke="#63b8ff" points="194.68,-82.09 201.68,-74.14 191.25,-75.99 194.68,-82.09"/>
</a>
</g>
</g>
<!-- Node13&#45;&gt;Node3 -->
<g id="edge23_Node000013_Node000003" class="edge">
<title>Node13&#45;&gt;Node3</title>
<g id="a_edge23_Node000013_Node000003"><a xlink:title=" ">
<path fill="none" stroke="#63b8ff" d="M173.09,-115.31C254.59,-103.5 398.42,-82.68 471.57,-72.08"/>
<polygon fill="#63b8ff" stroke="#63b8ff" points="472.44,-75.5 481.83,-70.6 471.43,-68.57 472.44,-75.5"/>
</a>
</g>
</g>
<!-- Node14 -->
<g id="Node000014" class="node">
<title>Node14</title>
<g id="a_Node000014"><a xlink:href="proto__list_8h.html" target="_top" xlink:title=" ">
<polygon fill="white" stroke="#666666" points="159.54,-74 34.54,-74 34.54,-55 159.54,-55 159.54,-74"/>
<text text-anchor="middle" x="97.04" y="-62" font-family="Helvetica,sans-Serif" font-size="10.00">core/types/proto_list.h</text>
</a>
</g>
</g>
<!-- Node13&#45;&gt;Node14 -->
<g id="edge24_Node000013_Node000014" class="edge">
<title>Node13&#45;&gt;Node14</title>
<g id="a_edge24_Node000013_Node000014"><a xlink:title=" ">
<path fill="none" stroke="#63b8ff" d="M109.17,-109.84C107.06,-102.13 104.42,-92.49 102.15,-84.17"/>
<polygon fill="#63b8ff" stroke="#63b8ff" points="105.45,-82.99 99.44,-74.27 98.7,-84.84 105.45,-82.99"/>
</a>
</g>
</g>
<!-- Node15&#45;&gt;Node2 -->
<g id="edge26_Node000015_Node000002" class="edge">
<title>Node15&#45;&gt;Node2</title>
<g id="a_edge26_Node000015_Node000002"><a xlink:title=" ">
<path fill="none" stroke="#63b8ff" d="M849.78,-116.27C834.89,-113.98 818.3,-111.66 803.04,-110 568.49,-84.53 505.26,-101.99 266.34,-73.88"/>
<polygon fill="#63b8ff" stroke="#63b8ff" points="266.65,-70.39 256.3,-72.68 265.82,-77.34 266.65,-70.39"/>
</a>
</g>
</g>
<!-- Node15&#45;&gt;Node3 -->
<g id="edge27_Node000015_Node000003" class="edge">
<title>Node15&#45;&gt;Node3</title>
<g id="a_edge27_Node000015_Node000003"><a xlink:title=" ">
<path fill="none" stroke="#63b8ff" d="M861.89,-115.47C853.47,-113.52 844.45,-111.56 836.04,-110 739.12,-91.97 624.4,-77.67 562.36,-70.51"/>
<polygon fill="#63b8ff" stroke="#63b8ff" points="562.47,-67 552.14,-69.34 561.68,-73.96 562.47,-67"/>
</a>
</g>
</g>
<!-- Node15&#45;&gt;Node8 -->
<g id="edge29_Node000015_Node000008" class="edge">
<title>Node15&#45;&gt;Node8</title>
<g id="a_edge29_Node000015_Node000008"><a xlink:title=" ">
<path fill="none" stroke="#63b8ff" d="M861.73,-115.49C819.41,-105.01 747.53,-87.19 701.98,-75.9"/>
<polygon fill="#63b8ff" stroke="#63b8ff" points="702.68,-72.46 692.13,-73.45 700.99,-79.26 702.68,-72.46"/>
</a>
</g>
</g>
<!-- Node16 -->
<g id="Node000016" class="node">
<title>Node16</title>
<g id="a_Node000016"><a xlink:title=" ">
<polygon fill="#e0e0e0" stroke="#999999" points="841.54,-74 788.54,-74 788.54,-55 841.54,-55 841.54,-74"/>
<text text-anchor="middle" x="815.04" y="-62" font-family="Helvetica,sans-Serif" font-size="10.00">stdint.h</text>
</a>
</g>
</g>
<!-- Node15&#45;&gt;Node16 -->
<g id="edge28_Node000015_Node000016" class="edge">
<title>Node15&#45;&gt;Node16</title>
<g id="a_edge28_Node000015_Node000016"><a xlink:title=" ">
<path fill="none" stroke="#63b8ff" d="M884.09,-115.37C871.29,-106.12 850.74,-91.28 835.39,-80.19"/>
<polygon fill="#63b8ff" stroke="#63b8ff" points="837.2,-77.18 827.04,-74.17 833.1,-82.86 837.2,-77.18"/>
</a>
</g>
</g>
<!-- Node17 -->
<g id="Node000017" class="node">
<title>Node17</title>
<g id="a_Node000017"><a xlink:title=" ">
<polygon fill="#e0e0e0" stroke="#999999" points="932.04,-74 860.04,-74 860.04,-55 932.04,-55 932.04,-74"/>
<text text-anchor="middle" x="896.04" y="-62" font-family="Helvetica,sans-Serif" font-size="10.00">sys/types.h</text>
</a>
</g>
</g>
<!-- Node15&#45;&gt;Node17 -->
<g id="edge30_Node000015_Node000017" class="edge">
<title>Node15&#45;&gt;Node17</title>
<g id="a_edge30_Node000015_Node000017"><a xlink:title=" ">
<path fill="none" stroke="#63b8ff" d="M896.04,-115.37C896.04,-107.25 896.04,-94.81 896.04,-84.39"/>
<polygon fill="#63b8ff" stroke="#63b8ff" points="899.54,-84.17 896.04,-74.17 892.54,-84.17 899.54,-84.17"/>
</a>
</g>
</g>
<!-- Node18 -->
<g id="Node000018" class="node">
<title>Node18</title>
<g id="a_Node000018"><a xlink:title=" ">
<polygon fill="#e0e0e0" stroke="#999999" points="1010.04,-74 950.04,-74 950.04,-55 1010.04,-55 1010.04,-74"/>
<text text-anchor="middle" x="980.04" y="-62" font-family="Helvetica,sans-Serif" font-size="10.00">sys/uio.h</text>
</a>
</g>
</g>
<!-- Node15&#45;&gt;Node18 -->
<g id="edge31_Node000015_Node000018" class="edge">
<title>Node15&#45;&gt;Node18</title>
<g id="a_edge31_Node000015_Node000018"><a xlink:title=" ">
<path fill="none" stroke="#63b8ff" d="M908.44,-115.37C921.84,-106.04 943.42,-91.01 959.39,-79.88"/>
<polygon fill="#63b8ff" stroke="#63b8ff" points="961.39,-82.75 967.6,-74.17 957.39,-77.01 961.39,-82.75"/>
</a>
</g>
</g>
<!-- Node20 -->
<g id="Node000020" class="node">
<title>Node20</title>
<g id="a_Node000020"><a xlink:title=" ">
<polygon fill="#e0e0e0" stroke="#999999" points="793.54,-134.5 686.54,-134.5 686.54,-115.5 793.54,-115.5 793.54,-134.5"/>
<text text-anchor="middle" x="740.04" y="-122.5" font-family="Helvetica,sans-Serif" font-size="10.00">ngx_thread_pool.h</text>
</a>
</g>
</g>
<!-- Node19&#45;&gt;Node20 -->
<g id="edge33_Node000019_Node000020" class="edge">
<title>Node19&#45;&gt;Node20</title>
<g id="a_edge33_Node000019_Node000020"><a xlink:title=" ">
<path fill="none" stroke="#63b8ff" d="M739.26,-175.8C739.41,-166.7 739.59,-154.79 739.75,-144.9"/>
<polygon fill="#63b8ff" stroke="#63b8ff" points="743.25,-144.9 739.9,-134.84 736.25,-144.79 743.25,-144.9"/>
</a>
</g>
</g>
<!-- Node21 -->
<g id="Node000021" class="node">
<title>Node21</title>
<g id="a_Node000021"><a xlink:href="pmark_8h.html" target="_top" xlink:title=" ">
<polygon fill="white" stroke="#666666" points="516.54,-140 401.54,-140 401.54,-110 516.54,-110 516.54,-140"/>
<text text-anchor="start" x="409.54" y="-128" font-family="Helvetica,sans-Serif" font-size="10.00">observability/pmark</text>
<text text-anchor="middle" x="459.04" y="-117" font-family="Helvetica,sans-Serif" font-size="10.00">/pmark.h</text>
</a>
</g>
</g>
<!-- Node19&#45;&gt;Node21 -->
<g id="edge34_Node000019_Node000021" class="edge">
<title>Node19&#45;&gt;Node21</title>
<g id="a_edge34_Node000019_Node000021"><a xlink:title=" ">
<path fill="none" stroke="#63b8ff" d="M685.72,-177.81C640.59,-167.5 575.65,-152.65 526.84,-141.5"/>
<polygon fill="#63b8ff" stroke="#63b8ff" points="527.52,-138.06 516.99,-139.25 525.96,-144.89 527.52,-138.06"/>
</a>
</g>
</g>
<!-- Node21&#45;&gt;Node2 -->
<g id="edge35_Node000021_Node000002" class="edge">
<title>Node21&#45;&gt;Node2</title>
<g id="a_edge35_Node000021_Node000002"><a xlink:title=" ">
<path fill="none" stroke="#63b8ff" d="M401.38,-110.06C358.82,-99.77 301.68,-85.96 262.36,-76.45"/>
<polygon fill="#63b8ff" stroke="#63b8ff" points="263.06,-73.02 252.52,-74.08 261.42,-79.83 263.06,-73.02"/>
</a>
</g>
</g>
<!-- Node21&#45;&gt;Node3 -->
<g id="edge36_Node000021_Node000003" class="edge">
<title>Node21&#45;&gt;Node3</title>
<g id="a_edge36_Node000021_Node000003"><a xlink:title=" ">
<path fill="none" stroke="#63b8ff" d="M473.08,-109.84C481.59,-101.26 492.46,-90.3 501.26,-81.42"/>
<polygon fill="#63b8ff" stroke="#63b8ff" points="503.8,-83.83 508.35,-74.27 498.82,-78.9 503.8,-83.83"/>
</a>
</g>
</g>
</g>
</svg>

<g id="navigator" transform="translate(0 0)" fill="#404254">
  <rect fill="#f2f5e9" fill-opacity="0.5" stroke="#606060" stroke-width=".5" x="0" y="0" width="60" height="60"/>
  <use id="zoomplus" xlink:href="#zoomPlus" x="17" y="9" onmousedown="handleZoom(evt,'in')"/>
  <use id="zoomminus" xlink:href="#zoomMin" x="42" y="9" onmousedown="handleZoom(evt,'out')"/>
  <use id="reset" xlink:href="#resetDef" x="30" y="36" onmousedown="handleReset()"/>
   <use id="arrowup" xlink:href="#arrowUp" x="0" y="0" onmousedown="handlePan(0,-1)"/>
  <use id="arrowright" xlink:href="#arrowRight" x="0" y="0" onmousedown="handlePan(1,0)"/>
  <use id="arrowdown" xlink:href="#arrowDown" x="0" y="0" onmousedown="handlePan(0,1)"/>
  <use id="arrowleft" xlink:href="#arrowLeft" x="0" y="0" onmousedown="handlePan(-1,0)"/>
</g>
<svg viewBox="0 0 15 15" width="100%" height="30px" preserveAspectRatio="xMaxYMin meet">
 <g id="arrow_out" transform="scale(0.3 0.3)">
  <a xlink:href="http__serve__offload_8h__incl_org.svg" target="_base">
   <rect id="button" ry="5" rx="5" y="6" x="6" height="38" width="38"
        fill="#f2f5e9" fill-opacity="0.5" stroke="#606060" stroke-width="1.0"/>
   <path id="arrow"
     d="M 11.500037,31.436501 C 11.940474,20.09759 22.043105,11.32322 32.158766,21.979434 L 37.068811,17.246167 C 37.068811,17.246167 37.088388,32 37.088388,32 L 22.160133,31.978069 C 22.160133,31.978069 26.997745,27.140456 26.997745,27.140456 C 18.528582,18.264221 13.291696,25.230495 11.500037,31.436501 z"
     style="fill:#404040;"/>
  </a>
 </g>
</svg>

<style type='text/css'>
<![CDATA[
[data-mouse-over-selected='false'] { opacity: 0.7; }
[data-mouse-over-selected='true']  { opacity: 1.0; }
]]>
</style>
<script type="application/ecmascript"><![CDATA[
document.addEventListener('DOMContentLoaded', (event) => {
  highlightEdges();
  highlightAdjacentNodes();
});
]]></script>
</svg>
