<?xml version="1.0" encoding="UTF-8" standalone="no"?>
<!DOCTYPE svg PUBLIC "-//W3C//DTD SVG 1.1//EN"
 "http://www.w3.org/Graphics/SVG/1.1/DTD/svg11.dtd">
<!-- Generated by graphviz version 2.43.0 (0)
 -->
<!-- Title: src/auth/impersonate/impersonate_proto.h Pages: 1 -->
<svg width="906pt" height="236pt"
 viewBox="0.00 0.00 906.00 236.00" xmlns="http://www.w3.org/2000/svg" xmlns:xlink="http://www.w3.org/1999/xlink">
<g id="graph0" class="graph" transform="scale(1 1) rotate(0) translate(4 232)">
<title>src/auth/impersonate/impersonate_proto.h</title>
<!-- Node1 -->
<g id="Node000001" class="node">
<title>Node1</title>
<g id="a_Node000001"><a xlink:title=" ">
<polygon fill="#999999" stroke="#666666" points="622.5,-228 501.5,-228 501.5,-198 622.5,-198 622.5,-228"/>
<text text-anchor="start" x="509.5" y="-216" font-family="Helvetica,sans-Serif" font-size="10.00">src/auth/impersonate</text>
<text text-anchor="middle" x="562" y="-205" font-family="Helvetica,sans-Serif" font-size="10.00">/impersonate_proto.h</text>
</a>
</g>
</g>
<!-- Node2 -->
<g id="Node000002" class="node">
<title>Node2</title>
<g id="a_Node000002"><a xlink:href="broker__internal_8h.html" target="_top" xlink:title=" ">
<polygon fill="white" stroke="#666666" points="346,-162 226,-162 226,-132 346,-132 346,-162"/>
<text text-anchor="start" x="234" y="-150" font-family="Helvetica,sans-Serif" font-size="10.00">src/auth/impersonate</text>
<text text-anchor="middle" x="286" y="-139" font-family="Helvetica,sans-Serif" font-size="10.00">/broker_internal.h</text>
</a>
</g>
</g>
<!-- Node1&#45;&gt;Node2 -->
<g id="edge1_Node000001_Node000002" class="edge">
<title>Node1&#45;&gt;Node2</title>
<g id="a_edge1_Node000001_Node000002"><a xlink:title=" ">
<path fill="none" stroke="#63b8ff" d="M491.48,-195.65C446.64,-185.25 389.18,-171.93 346.43,-162.01"/>
<polygon fill="#63b8ff" stroke="#63b8ff" points="490.9,-199.11 501.43,-197.95 492.48,-192.29 490.9,-199.11"/>
</a>
</g>
</g>
<!-- Node8 -->
<g id="Node000008" class="node">
<title>Node8</title>
<g id="a_Node000008"><a xlink:href="client_8c.html" target="_top" xlink:title=" ">
<polygon fill="white" stroke="#666666" points="484,-162 364,-162 364,-132 484,-132 484,-162"/>
<text text-anchor="start" x="372" y="-150" font-family="Helvetica,sans-Serif" font-size="10.00">src/auth/impersonate</text>
<text text-anchor="middle" x="424" y="-139" font-family="Helvetica,sans-Serif" font-size="10.00">/client.c</text>
</a>
</g>
</g>
<!-- Node1&#45;&gt;Node8 -->
<g id="edge9_Node000001_Node000008" class="edge">
<title>Node1&#45;&gt;Node8</title>
<g id="a_edge9_Node000001_Node000008"><a xlink:title=" ">
<path fill="none" stroke="#63b8ff" d="M522.43,-193.65C500.73,-183.58 474.24,-171.3 454.21,-162.01"/>
<polygon fill="#63b8ff" stroke="#63b8ff" points="521.17,-196.92 531.72,-197.95 524.12,-190.57 521.17,-196.92"/>
</a>
</g>
</g>
<!-- Node9 -->
<g id="Node000009" class="node">
<title>Node9</title>
<g id="a_Node000009"><a xlink:href="auth_2impersonate_2lifecycle_8c.html" target="_top" xlink:title=" ">
<polygon fill="white" stroke="#666666" points="622,-162 502,-162 502,-132 622,-132 622,-162"/>
<text text-anchor="start" x="510" y="-150" font-family="Helvetica,sans-Serif" font-size="10.00">src/auth/impersonate</text>
<text text-anchor="middle" x="562" y="-139" font-family="Helvetica,sans-Serif" font-size="10.00">/lifecycle.c</text>
</a>
</g>
</g>
<!-- Node1&#45;&gt;Node9 -->
<g id="edge10_Node000001_Node000009" class="edge">
<title>Node1&#45;&gt;Node9</title>
<g id="a_edge10_Node000001_Node000009"><a xlink:title=" ">
<path fill="none" stroke="#63b8ff" d="M562,-187.54C562,-178.96 562,-169.61 562,-162.16"/>
<polygon fill="#63b8ff" stroke="#63b8ff" points="558.5,-187.8 562,-197.8 565.5,-187.8 558.5,-187.8"/>
</a>
</g>
</g>
<!-- Node10 -->
<g id="Node000010" class="node">
<title>Node10</title>
<g id="a_Node000010"><a xlink:href="lifecycle__broker_8c.html" target="_top" xlink:title=" ">
<polygon fill="white" stroke="#666666" points="760,-162 640,-162 640,-132 760,-132 760,-162"/>
<text text-anchor="start" x="648" y="-150" font-family="Helvetica,sans-Serif" font-size="10.00">src/auth/impersonate</text>
<text text-anchor="middle" x="700" y="-139" font-family="Helvetica,sans-Serif" font-size="10.00">/lifecycle_broker.c</text>
</a>
</g>
</g>
<!-- Node1&#45;&gt;Node10 -->
<g id="edge11_Node000001_Node000010" class="edge">
<title>Node1&#45;&gt;Node10</title>
<g id="a_edge11_Node000001_Node000010"><a xlink:title=" ">
<path fill="none" stroke="#63b8ff" d="M601.57,-193.65C623.27,-183.58 649.76,-171.3 669.79,-162.01"/>
<polygon fill="#63b8ff" stroke="#63b8ff" points="599.88,-190.57 592.28,-197.95 602.83,-196.92 599.88,-190.57"/>
</a>
</g>
</g>
<!-- Node11 -->
<g id="Node000011" class="node">
<title>Node11</title>
<g id="a_Node000011"><a xlink:href="lifecycle__worker_8c.html" target="_top" xlink:title=" ">
<polygon fill="white" stroke="#666666" points="898,-162 778,-162 778,-132 898,-132 898,-162"/>
<text text-anchor="start" x="786" y="-150" font-family="Helvetica,sans-Serif" font-size="10.00">src/auth/impersonate</text>
<text text-anchor="middle" x="838" y="-139" font-family="Helvetica,sans-Serif" font-size="10.00">/lifecycle_worker.c</text>
</a>
</g>
</g>
<!-- Node1&#45;&gt;Node11 -->
<g id="edge12_Node000001_Node000011" class="edge">
<title>Node1&#45;&gt;Node11</title>
<g id="a_edge12_Node000001_Node000011"><a xlink:title=" ">
<path fill="none" stroke="#63b8ff" d="M632.52,-195.65C677.36,-185.25 734.82,-171.93 777.57,-162.01"/>
<polygon fill="#63b8ff" stroke="#63b8ff" points="631.52,-192.29 622.57,-197.95 633.1,-199.11 631.52,-192.29"/>
</a>
</g>
</g>
<!-- Node3 -->
<g id="Node000003" class="node">
<title>Node3</title>
<g id="a_Node000003"><a xlink:href="broker_8c.html" target="_top" xlink:title=" ">
<polygon fill="white" stroke="#666666" points="120,-96 0,-96 0,-66 120,-66 120,-96"/>
<text text-anchor="start" x="8" y="-84" font-family="Helvetica,sans-Serif" font-size="10.00">src/auth/impersonate</text>
<text text-anchor="middle" x="60" y="-73" font-family="Helvetica,sans-Serif" font-size="10.00">/broker.c</text>
</a>
</g>
</g>
<!-- Node2&#45;&gt;Node3 -->
<g id="edge2_Node000002_Node000003" class="edge">
<title>Node2&#45;&gt;Node3</title>
<g id="a_edge2_Node000002_Node000003"><a xlink:title=" ">
<path fill="none" stroke="#63b8ff" d="M226.4,-129.12C189.96,-118.8 143.9,-105.76 109.48,-96.01"/>
<polygon fill="#63b8ff" stroke="#63b8ff" points="225.83,-132.6 236.4,-131.95 227.74,-125.86 225.83,-132.6"/>
</a>
</g>
</g>
<!-- Node4 -->
<g id="Node000004" class="node">
<title>Node4</title>
<g id="a_Node000004"><a xlink:href="broker__creds_8c.html" target="_top" xlink:title=" ">
<polygon fill="white" stroke="#666666" points="258,-96 138,-96 138,-66 258,-66 258,-96"/>
<text text-anchor="start" x="146" y="-84" font-family="Helvetica,sans-Serif" font-size="10.00">src/auth/impersonate</text>
<text text-anchor="middle" x="198" y="-73" font-family="Helvetica,sans-Serif" font-size="10.00">/broker_creds.c</text>
</a>
</g>
</g>
<!-- Node2&#45;&gt;Node4 -->
<g id="edge3_Node000002_Node000004" class="edge">
<title>Node2&#45;&gt;Node4</title>
<g id="a_edge3_Node000002_Node000004"><a xlink:title=" ">
<path fill="none" stroke="#63b8ff" d="M258.16,-125.75C244.93,-116.13 229.43,-104.86 217.48,-96.16"/>
<polygon fill="#63b8ff" stroke="#63b8ff" points="256.32,-128.75 266.47,-131.8 260.44,-123.08 256.32,-128.75"/>
</a>
</g>
</g>
<!-- Node5 -->
<g id="Node000005" class="node">
<title>Node5</title>
<g id="a_Node000005"><a xlink:href="broker__ops_8c.html" target="_top" xlink:title=" ">
<polygon fill="white" stroke="#666666" points="368,-30 248,-30 248,0 368,0 368,-30"/>
<text text-anchor="start" x="256" y="-18" font-family="Helvetica,sans-Serif" font-size="10.00">src/auth/impersonate</text>
<text text-anchor="middle" x="308" y="-7" font-family="Helvetica,sans-Serif" font-size="10.00">/broker_ops.c</text>
</a>
</g>
</g>
<!-- Node2&#45;&gt;Node5 -->
<g id="edge4_Node000002_Node000005" class="edge">
<title>Node2&#45;&gt;Node5</title>
<g id="a_edge4_Node000002_Node000005"><a xlink:title=" ">
<path fill="none" stroke="#63b8ff" d="M290.12,-121.68C294.68,-94.7 301.89,-52.11 305.61,-30.14"/>
<polygon fill="#63b8ff" stroke="#63b8ff" points="286.61,-121.4 288.4,-131.84 293.52,-122.56 286.61,-121.4"/>
</a>
</g>
</g>
<!-- Node6 -->
<g id="Node000006" class="node">
<title>Node6</title>
<g id="a_Node000006"><a xlink:href="broker__ops__internal_8h.html" target="_top" xlink:title=" ">
<polygon fill="white" stroke="#666666" points="439.5,-96 314.5,-96 314.5,-66 439.5,-66 439.5,-96"/>
<text text-anchor="start" x="322.5" y="-84" font-family="Helvetica,sans-Serif" font-size="10.00">src/auth/impersonate</text>
<text text-anchor="middle" x="377" y="-73" font-family="Helvetica,sans-Serif" font-size="10.00">/broker_ops_internal.h</text>
</a>
</g>
</g>
<!-- Node2&#45;&gt;Node6 -->
<g id="edge5_Node000002_Node000006" class="edge">
<title>Node2&#45;&gt;Node6</title>
<g id="a_edge5_Node000002_Node000006"><a xlink:title=" ">
<path fill="none" stroke="#63b8ff" d="M314.4,-126.03C328.17,-116.34 344.38,-104.94 356.86,-96.16"/>
<polygon fill="#63b8ff" stroke="#63b8ff" points="312.36,-123.18 306.2,-131.8 316.39,-128.91 312.36,-123.18"/>
</a>
</g>
</g>
<!-- Node7 -->
<g id="Node000007" class="node">
<title>Node7</title>
<g id="a_Node000007"><a xlink:href="broker__ops__ns_8c.html" target="_top" xlink:title=" ">
<polygon fill="white" stroke="#666666" points="517,-30 397,-30 397,0 517,0 517,-30"/>
<text text-anchor="start" x="405" y="-18" font-family="Helvetica,sans-Serif" font-size="10.00">src/auth/impersonate</text>
<text text-anchor="middle" x="457" y="-7" font-family="Helvetica,sans-Serif" font-size="10.00">/broker_ops_ns.c</text>
</a>
</g>
</g>
<!-- Node2&#45;&gt;Node7 -->
<g id="edge8_Node000002_Node000007" class="edge">
<title>Node2&#45;&gt;Node7</title>
<g id="a_edge8_Node000002_Node000007"><a xlink:title=" ">
<path fill="none" stroke="#63b8ff" d="M351.52,-129.41C393.53,-118.16 441.42,-103.94 448,-96 463.33,-77.49 462.13,-47.74 459.68,-30.21"/>
<polygon fill="#63b8ff" stroke="#63b8ff" points="350.59,-126.04 341.83,-131.98 352.39,-132.8 350.59,-126.04"/>
</a>
</g>
</g>
<!-- Node6&#45;&gt;Node5 -->
<g id="edge6_Node000006_Node000005" class="edge">
<title>Node6&#45;&gt;Node5</title>
<g id="a_edge6_Node000006_Node000005"><a xlink:title=" ">
<path fill="none" stroke="#63b8ff" d="M354.28,-58.92C344.1,-49.49 332.37,-38.61 323.27,-30.16"/>
<polygon fill="#63b8ff" stroke="#63b8ff" points="351.97,-61.56 361.69,-65.8 356.74,-56.43 351.97,-61.56"/>
</a>
</g>
</g>
<!-- Node6&#45;&gt;Node7 -->
<g id="edge7_Node000006_Node000007" class="edge">
<title>Node6&#45;&gt;Node7</title>
<g id="a_edge7_Node000006_Node000007"><a xlink:title=" ">
<path fill="none" stroke="#63b8ff" d="M402.65,-59.48C414.61,-49.91 428.53,-38.77 439.3,-30.16"/>
<polygon fill="#63b8ff" stroke="#63b8ff" points="400.38,-56.82 394.75,-65.8 404.75,-62.28 400.38,-56.82"/>
</a>
</g>
</g>
</g>
</svg>
