<?xml version="1.0" encoding="UTF-8" standalone="no"?>
<!DOCTYPE svg PUBLIC "-//W3C//DTD SVG 1.1//EN"
 "http://www.w3.org/Graphics/SVG/1.1/DTD/svg11.dtd">
<!-- Generated by graphviz version 2.43.0 (0)
 -->
<!-- Title: src/core/compat/integrity_info.h Pages: 1 -->
<svg width="2756pt" height="181pt"
 viewBox="0.00 0.00 2755.50 181.00" xmlns="http://www.w3.org/2000/svg" xmlns:xlink="http://www.w3.org/1999/xlink">
<g id="graph0" class="graph" transform="scale(1 1) rotate(0) translate(4 177)">
<title>src/core/compat/integrity_info.h</title>
<!-- Node1 -->
<g id="Node000001" class="node">
<title>Node1</title>
<g id="a_Node000001"><a xlink:title=" ">
<polygon fill="#999999" stroke="#666666" points="1414,-173 1275,-173 1275,-143 1414,-143 1414,-173"/>
<text text-anchor="start" x="1283" y="-161" font-family="Helvetica,sans-Serif" font-size="10.00">src/core/compat/integrity</text>
<text text-anchor="middle" x="1344.5" y="-150" font-family="Helvetica,sans-Serif" font-size="10.00">_info.h</text>
</a>
</g>
</g>
<!-- Node2 -->
<g id="Node000002" class="node">
<title>Node2</title>
<g id="a_Node000002"><a xlink:href="integrity__info_8c.html" target="_top" xlink:title=" ">
<polygon fill="white" stroke="#666666" points="139,-30 0,-30 0,0 139,0 139,-30"/>
<text text-anchor="start" x="8" y="-18" font-family="Helvetica,sans-Serif" font-size="10.00">src/core/compat/integrity</text>
<text text-anchor="middle" x="69.5" y="-7" font-family="Helvetica,sans-Serif" font-size="10.00">_info.c</text>
</a>
</g>
</g>
<!-- Node1&#45;&gt;Node2 -->
<g id="edge1_Node000001_Node000002" class="edge">
<title>Node1&#45;&gt;Node2</title>
<g id="a_edge1_Node000001_Node000002"><a xlink:title=" ">
<path fill="none" stroke="#63b8ff" d="M1264.5,-156.7C993.07,-155.32 121.71,-147.73 78.5,-107 57.71,-87.4 61.7,-50.37 65.91,-30.12"/>
<polygon fill="#63b8ff" stroke="#63b8ff" points="1264.65,-160.2 1274.67,-156.75 1264.68,-153.2 1264.65,-160.2"/>
</a>
</g>
</g>
<!-- Node3 -->
<g id="Node000003" class="node">
<title>Node3</title>
<g id="a_Node000003"><a xlink:href="integrity__info__internal_8h.html" target="_top" xlink:title=" ">
<polygon fill="white" stroke="#666666" points="227,-101.5 88,-101.5 88,-71.5 227,-71.5 227,-101.5"/>
<text text-anchor="start" x="96" y="-89.5" font-family="Helvetica,sans-Serif" font-size="10.00">src/core/compat/integrity</text>
<text text-anchor="middle" x="157.5" y="-78.5" font-family="Helvetica,sans-Serif" font-size="10.00">_info_internal.h</text>
</a>
</g>
</g>
<!-- Node1&#45;&gt;Node3 -->
<g id="edge2_Node000001_Node000003" class="edge">
<title>Node1&#45;&gt;Node3</title>
<g id="a_edge2_Node000001_Node000003"><a xlink:title=" ">
<path fill="none" stroke="#63b8ff" d="M1264.55,-155.27C1045.57,-150.24 439.3,-134.21 241.5,-107 231.71,-105.65 221.39,-103.71 211.45,-101.55"/>
<polygon fill="#63b8ff" stroke="#63b8ff" points="1264.6,-158.78 1274.68,-155.51 1264.76,-151.78 1264.6,-158.78"/>
</a>
</g>
</g>
<!-- Node4 -->
<g id="Node000004" class="node">
<title>Node4</title>
<g id="a_Node000004"><a xlink:href="integrity__info__record_8c.html" target="_top" xlink:title=" ">
<polygon fill="white" stroke="#666666" points="306,-30 167,-30 167,0 306,0 306,-30"/>
<text text-anchor="start" x="175" y="-18" font-family="Helvetica,sans-Serif" font-size="10.00">src/core/compat/integrity</text>
<text text-anchor="middle" x="236.5" y="-7" font-family="Helvetica,sans-Serif" font-size="10.00">_info_record.c</text>
</a>
</g>
</g>
<!-- Node1&#45;&gt;Node4 -->
<g id="edge5_Node000001_Node000004" class="edge">
<title>Node1&#45;&gt;Node4</title>
<g id="a_edge5_Node000001_Node000004"><a xlink:title=" ">
<path fill="none" stroke="#63b8ff" d="M1264.81,-155.6C1023.52,-151.04 314.9,-135.3 274.5,-107 249.12,-89.22 240.63,-51.09 237.84,-30.28"/>
<polygon fill="#63b8ff" stroke="#63b8ff" points="1264.85,-159.1 1274.91,-155.78 1264.98,-152.1 1264.85,-159.1"/>
</a>
</g>
</g>
<!-- Node5 -->
<g id="Node000005" class="node">
<title>Node5</title>
<g id="a_Node000005"><a xlink:href="scan__engine_8c.html" target="_top" xlink:title=" ">
<polygon fill="white" stroke="#666666" points="423.5,-96 283.5,-96 283.5,-77 423.5,-77 423.5,-96"/>
<text text-anchor="middle" x="353.5" y="-84" font-family="Helvetica,sans-Serif" font-size="10.00">src/fs/scan/scan_engine.c</text>
</a>
</g>
</g>
<!-- Node1&#45;&gt;Node5 -->
<g id="edge6_Node000001_Node000005" class="edge">
<title>Node1&#45;&gt;Node5</title>
<g id="a_edge6_Node000001_Node000005"><a xlink:title=" ">
<path fill="none" stroke="#63b8ff" d="M1264.65,-157.62C1105.43,-157.77 737.5,-152.59 432.5,-107 415.73,-104.49 397.33,-100.05 382.5,-96.04"/>
<polygon fill="#63b8ff" stroke="#63b8ff" points="1264.84,-161.12 1274.83,-157.61 1264.83,-154.12 1264.84,-161.12"/>
</a>
</g>
</g>
<!-- Node6 -->
<g id="Node000006" class="node">
<title>Node6</title>
<g id="a_Node000006"><a xlink:href="scan__engine__catalog_8c.html" target="_top" xlink:title=" ">
<polygon fill="white" stroke="#666666" points="573.5,-101.5 441.5,-101.5 441.5,-71.5 573.5,-71.5 573.5,-101.5"/>
<text text-anchor="start" x="449.5" y="-89.5" font-family="Helvetica,sans-Serif" font-size="10.00">src/fs/scan/scan_engine</text>
<text text-anchor="middle" x="507.5" y="-78.5" font-family="Helvetica,sans-Serif" font-size="10.00">_catalog.c</text>
</a>
</g>
</g>
<!-- Node1&#45;&gt;Node6 -->
<g id="edge7_Node000001_Node000006" class="edge">
<title>Node1&#45;&gt;Node6</title>
<g id="a_edge7_Node000001_Node000006"><a xlink:title=" ">
<path fill="none" stroke="#63b8ff" d="M1264.77,-156.7C1125.46,-155.09 829.1,-146.78 582.5,-107 573.87,-105.61 564.78,-103.66 556.03,-101.54"/>
<polygon fill="#63b8ff" stroke="#63b8ff" points="1264.89,-160.21 1274.93,-156.81 1264.96,-153.21 1264.89,-160.21"/>
</a>
</g>
</g>
<!-- Node7 -->
<g id="Node000007" class="node">
<title>Node7</title>
<g id="a_Node000007"><a xlink:href="dcksm_8c.html" target="_top" xlink:title=" ">
<polygon fill="white" stroke="#666666" points="693,-101.5 592,-101.5 592,-71.5 693,-71.5 693,-101.5"/>
<text text-anchor="start" x="600" y="-89.5" font-family="Helvetica,sans-Serif" font-size="10.00">src/protocols/root</text>
<text text-anchor="middle" x="642.5" y="-78.5" font-family="Helvetica,sans-Serif" font-size="10.00">/dirlist/dcksm.c</text>
</a>
</g>
</g>
<!-- Node1&#45;&gt;Node7 -->
<g id="edge8_Node000001_Node000007" class="edge">
<title>Node1&#45;&gt;Node7</title>
<g id="a_edge8_Node000001_Node000007"><a xlink:title=" ">
<path fill="none" stroke="#63b8ff" d="M1264.87,-156.82C1142.71,-155.19 902.22,-146.65 702.5,-107 695.52,-105.61 688.21,-103.67 681.2,-101.55"/>
<polygon fill="#63b8ff" stroke="#63b8ff" points="1264.85,-160.32 1274.89,-156.94 1264.93,-153.32 1264.85,-160.32"/>
</a>
</g>
</g>
<!-- Node8 -->
<g id="Node000008" class="node">
<title>Node8</title>
<g id="a_Node000008"><a xlink:href="checksum__qcksum_8c.html" target="_top" xlink:title=" ">
<polygon fill="white" stroke="#666666" points="863.5,-101.5 711.5,-101.5 711.5,-71.5 863.5,-71.5 863.5,-101.5"/>
<text text-anchor="start" x="719.5" y="-89.5" font-family="Helvetica,sans-Serif" font-size="10.00">src/protocols/root</text>
<text text-anchor="middle" x="787.5" y="-78.5" font-family="Helvetica,sans-Serif" font-size="10.00">/query/checksum_qcksum.c</text>
</a>
</g>
</g>
<!-- Node1&#45;&gt;Node8 -->
<g id="edge9_Node000001_Node000008" class="edge">
<title>Node1&#45;&gt;Node8</title>
<g id="a_edge9_Node000001_Node000008"><a xlink:title=" ">
<path fill="none" stroke="#63b8ff" d="M1264.95,-151.5C1170.81,-144.32 1009.54,-129.89 872.5,-107 863.39,-105.48 853.8,-103.57 844.47,-101.56"/>
<polygon fill="#63b8ff" stroke="#63b8ff" points="1264.73,-154.99 1274.97,-152.26 1265.26,-148.01 1264.73,-154.99"/>
</a>
</g>
</g>
<!-- Node9 -->
<g id="Node000009" class="node">
<title>Node9</title>
<g id="a_Node000009"><a xlink:href="checksum__qcksum__async_8c.html" target="_top" xlink:title=" ">
<polygon fill="white" stroke="#666666" points="1025,-107 882,-107 882,-66 1025,-66 1025,-107"/>
<text text-anchor="start" x="890" y="-95" font-family="Helvetica,sans-Serif" font-size="10.00">src/protocols/root</text>
<text text-anchor="start" x="890" y="-84" font-family="Helvetica,sans-Serif" font-size="10.00">/query/checksum_qcksum</text>
<text text-anchor="middle" x="953.5" y="-73" font-family="Helvetica,sans-Serif" font-size="10.00">_async.c</text>
</a>
</g>
</g>
<!-- Node1&#45;&gt;Node9 -->
<g id="edge10_Node000001_Node000009" class="edge">
<title>Node1&#45;&gt;Node9</title>
<g id="a_edge10_Node000001_Node000009"><a xlink:title=" ">
<path fill="none" stroke="#63b8ff" d="M1264.74,-145.85C1201.95,-136.65 1112.34,-122.62 1034.5,-107 1031.52,-106.4 1028.49,-105.77 1025.43,-105.12"/>
<polygon fill="#63b8ff" stroke="#63b8ff" points="1264.57,-149.36 1274.97,-147.34 1265.58,-142.43 1264.57,-149.36"/>
</a>
</g>
</g>
<!-- Node10 -->
<g id="Node000010" class="node">
<title>Node10</title>
<g id="a_Node000010"><a xlink:href="src_2protocols_2s3_2checksum_8c.html" target="_top" xlink:title=" ">
<polygon fill="white" stroke="#666666" points="1197.5,-96 1043.5,-96 1043.5,-77 1197.5,-77 1197.5,-96"/>
<text text-anchor="middle" x="1120.5" y="-84" font-family="Helvetica,sans-Serif" font-size="10.00">src/protocols/s3/checksum.c</text>
</a>
</g>
</g>
<!-- Node1&#45;&gt;Node10 -->
<g id="edge11_Node000001_Node000010" class="edge">
<title>Node1&#45;&gt;Node10</title>
<g id="a_edge11_Node000001_Node000010"><a xlink:title=" ">
<path fill="none" stroke="#63b8ff" d="M1289.59,-139.96C1244.75,-126.05 1183.25,-106.97 1148.11,-96.07"/>
<polygon fill="#63b8ff" stroke="#63b8ff" points="1288.58,-143.32 1299.17,-142.94 1290.66,-136.63 1288.58,-143.32"/>
</a>
</g>
</g>
<!-- Node11 -->
<g id="Node000011" class="node">
<title>Node11</title>
<g id="a_Node000011"><a xlink:href="s3_2util_8c.html" target="_top" xlink:title=" ">
<polygon fill="white" stroke="#666666" points="1335.5,-96 1215.5,-96 1215.5,-77 1335.5,-77 1335.5,-96"/>
<text text-anchor="middle" x="1275.5" y="-84" font-family="Helvetica,sans-Serif" font-size="10.00">src/protocols/s3/util.c</text>
</a>
</g>
</g>
<!-- Node1&#45;&gt;Node11 -->
<g id="edge12_Node000001_Node000011" class="edge">
<title>Node1&#45;&gt;Node11</title>
<g id="a_edge12_Node000001_Node000011"><a xlink:title=" ">
<path fill="none" stroke="#63b8ff" d="M1323.22,-135.57C1310.09,-122.34 1293.95,-106.08 1284.2,-96.27"/>
<polygon fill="#63b8ff" stroke="#63b8ff" points="1321.01,-138.3 1330.54,-142.94 1325.98,-133.37 1321.01,-138.3"/>
</a>
</g>
</g>
<!-- Node12 -->
<g id="Node000012" class="node">
<title>Node12</title>
<g id="a_Node000012"><a xlink:href="protocols_2webdav_2config_8c.html" target="_top" xlink:title=" ">
<polygon fill="white" stroke="#666666" points="1473.5,-101.5 1353.5,-101.5 1353.5,-71.5 1473.5,-71.5 1473.5,-101.5"/>
<text text-anchor="start" x="1361.5" y="-89.5" font-family="Helvetica,sans-Serif" font-size="10.00">src/protocols/webdav</text>
<text text-anchor="middle" x="1413.5" y="-78.5" font-family="Helvetica,sans-Serif" font-size="10.00">/config.c</text>
</a>
</g>
</g>
<!-- Node1&#45;&gt;Node12 -->
<g id="edge13_Node000001_Node000012" class="edge">
<title>Node1&#45;&gt;Node12</title>
<g id="a_edge13_Node000001_Node000012"><a xlink:title=" ">
<path fill="none" stroke="#63b8ff" d="M1365.68,-135.67C1376.69,-124.58 1389.84,-111.34 1399.56,-101.54"/>
<polygon fill="#63b8ff" stroke="#63b8ff" points="1363.02,-133.37 1358.46,-142.94 1367.99,-138.3 1363.02,-133.37"/>
</a>
</g>
</g>
<!-- Node13 -->
<g id="Node000013" class="node">
<title>Node13</title>
<g id="a_Node000013"><a xlink:href="config__merge_8c.html" target="_top" xlink:title=" ">
<polygon fill="white" stroke="#666666" points="1611.5,-101.5 1491.5,-101.5 1491.5,-71.5 1611.5,-71.5 1611.5,-101.5"/>
<text text-anchor="start" x="1499.5" y="-89.5" font-family="Helvetica,sans-Serif" font-size="10.00">src/protocols/webdav</text>
<text text-anchor="middle" x="1551.5" y="-78.5" font-family="Helvetica,sans-Serif" font-size="10.00">/config_merge.c</text>
</a>
</g>
</g>
<!-- Node1&#45;&gt;Node13 -->
<g id="edge14_Node000001_Node000013" class="edge">
<title>Node1&#45;&gt;Node13</title>
<g id="a_edge14_Node000001_Node000013"><a xlink:title=" ">
<path fill="none" stroke="#63b8ff" d="M1395.97,-139.72C1431.04,-127.95 1476.86,-112.56 1509.67,-101.54"/>
<polygon fill="#63b8ff" stroke="#63b8ff" points="1394.76,-136.43 1386.39,-142.94 1396.98,-143.07 1394.76,-136.43"/>
</a>
</g>
</g>
<!-- Node14 -->
<g id="Node000014" class="node">
<title>Node14</title>
<g id="a_Node000014"><a xlink:href="config__proxy_8c.html" target="_top" xlink:title=" ">
<polygon fill="white" stroke="#666666" points="1749.5,-101.5 1629.5,-101.5 1629.5,-71.5 1749.5,-71.5 1749.5,-101.5"/>
<text text-anchor="start" x="1637.5" y="-89.5" font-family="Helvetica,sans-Serif" font-size="10.00">src/protocols/webdav</text>
<text text-anchor="middle" x="1689.5" y="-78.5" font-family="Helvetica,sans-Serif" font-size="10.00">/config_proxy.c</text>
</a>
</g>
</g>
<!-- Node1&#45;&gt;Node14 -->
<g id="edge15_Node000001_Node000014" class="edge">
<title>Node1&#45;&gt;Node14</title>
<g id="a_edge15_Node000001_Node000014"><a xlink:title=" ">
<path fill="none" stroke="#63b8ff" d="M1424.16,-144.65C1479.52,-135.57 1554.84,-122.19 1620.5,-107 1627.53,-105.37 1634.92,-103.48 1642.14,-101.53"/>
<polygon fill="#63b8ff" stroke="#63b8ff" points="1423.37,-141.24 1414.07,-146.3 1424.5,-148.14 1423.37,-141.24"/>
</a>
</g>
</g>
<!-- Node15 -->
<g id="Node000015" class="node">
<title>Node15</title>
<g id="a_Node000015"><a xlink:href="webdav_2put_8c.html" target="_top" xlink:title=" ">
<polygon fill="white" stroke="#666666" points="1887.5,-101.5 1767.5,-101.5 1767.5,-71.5 1887.5,-71.5 1887.5,-101.5"/>
<text text-anchor="start" x="1775.5" y="-89.5" font-family="Helvetica,sans-Serif" font-size="10.00">src/protocols/webdav</text>
<text text-anchor="middle" x="1827.5" y="-78.5" font-family="Helvetica,sans-Serif" font-size="10.00">/put.c</text>
</a>
</g>
</g>
<!-- Node1&#45;&gt;Node15 -->
<g id="edge16_Node000001_Node000015" class="edge">
<title>Node1&#45;&gt;Node15</title>
<g id="a_edge16_Node000001_Node000015"><a xlink:title=" ">
<path fill="none" stroke="#63b8ff" d="M1424.46,-151.05C1508.27,-143.95 1643.51,-130.05 1758.5,-107 1766.07,-105.48 1774.02,-103.56 1781.72,-101.51"/>
<polygon fill="#63b8ff" stroke="#63b8ff" points="1423.92,-147.58 1414.25,-151.9 1424.5,-154.56 1423.92,-147.58"/>
</a>
</g>
</g>
<!-- Node16 -->
<g id="Node000016" class="node">
<title>Node16</title>
<g id="a_Node000016"><a xlink:href="put__body_8c.html" target="_top" xlink:title=" ">
<polygon fill="white" stroke="#666666" points="2025.5,-101.5 1905.5,-101.5 1905.5,-71.5 2025.5,-71.5 2025.5,-101.5"/>
<text text-anchor="start" x="1913.5" y="-89.5" font-family="Helvetica,sans-Serif" font-size="10.00">src/protocols/webdav</text>
<text text-anchor="middle" x="1965.5" y="-78.5" font-family="Helvetica,sans-Serif" font-size="10.00">/put_body.c</text>
</a>
</g>
</g>
<!-- Node1&#45;&gt;Node16 -->
<g id="edge17_Node000001_Node000016" class="edge">
<title>Node1&#45;&gt;Node16</title>
<g id="a_edge17_Node000001_Node000016"><a xlink:title=" ">
<path fill="none" stroke="#63b8ff" d="M1424.5,-154.39C1532.44,-149.83 1730.36,-137.73 1896.5,-107 1904.33,-105.55 1912.56,-103.61 1920.5,-101.51"/>
<polygon fill="#63b8ff" stroke="#63b8ff" points="1424.19,-150.9 1414.34,-154.81 1424.48,-157.9 1424.19,-150.9"/>
</a>
</g>
</g>
<!-- Node17 -->
<g id="Node000017" class="node">
<title>Node17</title>
<g id="a_Node000017"><a xlink:href="put__setup_8c.html" target="_top" xlink:title=" ">
<polygon fill="white" stroke="#666666" points="2163.5,-101.5 2043.5,-101.5 2043.5,-71.5 2163.5,-71.5 2163.5,-101.5"/>
<text text-anchor="start" x="2051.5" y="-89.5" font-family="Helvetica,sans-Serif" font-size="10.00">src/protocols/webdav</text>
<text text-anchor="middle" x="2103.5" y="-78.5" font-family="Helvetica,sans-Serif" font-size="10.00">/put_setup.c</text>
</a>
</g>
</g>
<!-- Node1&#45;&gt;Node17 -->
<g id="edge18_Node000001_Node000017" class="edge">
<title>Node1&#45;&gt;Node17</title>
<g id="a_edge18_Node000001_Node000017"><a xlink:title=" ">
<path fill="none" stroke="#63b8ff" d="M1424.31,-156.46C1553.49,-154.41 1815.95,-145.39 2034.5,-107 2042.47,-105.6 2050.84,-103.65 2058.89,-101.53"/>
<polygon fill="#63b8ff" stroke="#63b8ff" points="1424.06,-152.96 1414.12,-156.61 1424.17,-159.96 1424.06,-152.96"/>
</a>
</g>
</g>
<!-- Node18 -->
<g id="Node000018" class="node">
<title>Node18</title>
<g id="a_Node000018"><a xlink:href="webdav__module__internal_8h.html" target="_top" xlink:title=" ">
<polygon fill="white" stroke="#666666" points="2333.5,-101.5 2181.5,-101.5 2181.5,-71.5 2333.5,-71.5 2333.5,-101.5"/>
<text text-anchor="start" x="2189.5" y="-89.5" font-family="Helvetica,sans-Serif" font-size="10.00">src/protocols/webdav</text>
<text text-anchor="middle" x="2257.5" y="-78.5" font-family="Helvetica,sans-Serif" font-size="10.00">/webdav_module_internal.h</text>
</a>
</g>
</g>
<!-- Node1&#45;&gt;Node18 -->
<g id="edge19_Node000001_Node000018" class="edge">
<title>Node1&#45;&gt;Node18</title>
<g id="a_edge19_Node000001_Node000018"><a xlink:title=" ">
<path fill="none" stroke="#63b8ff" d="M1424.5,-156.55C1572.78,-154.74 1900.01,-146.21 2172.5,-107 2182.24,-105.6 2192.52,-103.65 2202.42,-101.53"/>
<polygon fill="#63b8ff" stroke="#63b8ff" points="1424.09,-153.05 1414.14,-156.67 1424.17,-160.05 1424.09,-153.05"/>
</a>
</g>
</g>
<!-- Node23 -->
<g id="Node000023" class="node">
<title>Node23</title>
<g id="a_Node000023"><a xlink:href="xrdhttp_8c.html" target="_top" xlink:title=" ">
<polygon fill="white" stroke="#666666" points="2471.5,-101.5 2351.5,-101.5 2351.5,-71.5 2471.5,-71.5 2471.5,-101.5"/>
<text text-anchor="start" x="2359.5" y="-89.5" font-family="Helvetica,sans-Serif" font-size="10.00">src/protocols/webdav</text>
<text text-anchor="middle" x="2411.5" y="-78.5" font-family="Helvetica,sans-Serif" font-size="10.00">/xrdhttp.c</text>
</a>
</g>
</g>
<!-- Node1&#45;&gt;Node23 -->
<g id="edge24_Node000001_Node000023" class="edge">
<title>Node1&#45;&gt;Node23</title>
<g id="a_edge24_Node000001_Node000023"><a xlink:title=" ">
<path fill="none" stroke="#63b8ff" d="M1424.33,-155.32C1628.57,-150.65 2166.37,-135.92 2342.5,-107 2350.61,-105.67 2359.12,-103.73 2367.29,-101.58"/>
<polygon fill="#63b8ff" stroke="#63b8ff" points="1424.19,-151.82 1414.27,-155.55 1424.35,-158.82 1424.19,-151.82"/>
</a>
</g>
</g>
<!-- Node24 -->
<g id="Node000024" class="node">
<title>Node24</title>
<g id="a_Node000024"><a xlink:href="xrdhttp__response_8c.html" target="_top" xlink:title=" ">
<polygon fill="white" stroke="#666666" points="2609.5,-101.5 2489.5,-101.5 2489.5,-71.5 2609.5,-71.5 2609.5,-101.5"/>
<text text-anchor="start" x="2497.5" y="-89.5" font-family="Helvetica,sans-Serif" font-size="10.00">src/protocols/webdav</text>
<text text-anchor="middle" x="2549.5" y="-78.5" font-family="Helvetica,sans-Serif" font-size="10.00">/xrdhttp_response.c</text>
</a>
</g>
</g>
<!-- Node1&#45;&gt;Node24 -->
<g id="edge25_Node000001_Node000024" class="edge">
<title>Node1&#45;&gt;Node24</title>
<g id="a_edge25_Node000001_Node000024"><a xlink:title=" ">
<path fill="none" stroke="#63b8ff" d="M1424.2,-155.89C1647.58,-152.39 2276.67,-139.83 2480.5,-107 2488.73,-105.67 2497.38,-103.71 2505.67,-101.52"/>
<polygon fill="#63b8ff" stroke="#63b8ff" points="1424.14,-152.39 1414.19,-156.04 1424.25,-159.39 1424.14,-152.39"/>
</a>
</g>
</g>
<!-- Node25 -->
<g id="Node000025" class="node">
<title>Node25</title>
<g id="a_Node000025"><a xlink:href="xrdhttp__tpc_8c.html" target="_top" xlink:title=" ">
<polygon fill="white" stroke="#666666" points="2747.5,-101.5 2627.5,-101.5 2627.5,-71.5 2747.5,-71.5 2747.5,-101.5"/>
<text text-anchor="start" x="2635.5" y="-89.5" font-family="Helvetica,sans-Serif" font-size="10.00">src/protocols/webdav</text>
<text text-anchor="middle" x="2687.5" y="-78.5" font-family="Helvetica,sans-Serif" font-size="10.00">/xrdhttp_tpc.c</text>
</a>
</g>
</g>
<!-- Node1&#45;&gt;Node25 -->
<g id="edge26_Node000001_Node000025" class="edge">
<title>Node1&#45;&gt;Node25</title>
<g id="a_edge26_Node000001_Node000025"><a xlink:title=" ">
<path fill="none" stroke="#63b8ff" d="M1424.5,-156.33C1666.28,-153.91 2386.95,-143.73 2618.5,-107 2626.74,-105.69 2635.39,-103.73 2643.67,-101.56"/>
<polygon fill="#63b8ff" stroke="#63b8ff" points="1424.35,-152.83 1414.39,-156.43 1424.42,-159.83 1424.35,-152.83"/>
</a>
</g>
</g>
<!-- Node3&#45;&gt;Node2 -->
<g id="edge3_Node000003_Node000002" class="edge">
<title>Node3&#45;&gt;Node2</title>
<g id="a_edge3_Node000003_Node000002"><a xlink:title=" ">
<path fill="none" stroke="#63b8ff" d="M131.7,-65.13C117.42,-53.85 100.04,-40.12 87.28,-30.04"/>
<polygon fill="#63b8ff" stroke="#63b8ff" points="129.67,-67.98 139.69,-71.44 134.01,-62.49 129.67,-67.98"/>
</a>
</g>
</g>
<!-- Node3&#45;&gt;Node4 -->
<g id="edge4_Node000003_Node000004" class="edge">
<title>Node3&#45;&gt;Node4</title>
<g id="a_edge4_Node000003_Node000004"><a xlink:title=" ">
<path fill="none" stroke="#63b8ff" d="M181.02,-64.81C193.77,-53.59 209.19,-40.02 220.54,-30.04"/>
<polygon fill="#63b8ff" stroke="#63b8ff" points="178.68,-62.2 173.49,-71.44 183.31,-67.46 178.68,-62.2"/>
</a>
</g>
</g>
<!-- Node19 -->
<g id="Node000019" class="node">
<title>Node19</title>
<g id="a_Node000019"><a xlink:href="protocols_2webdav_2module_8c.html" target="_top" xlink:title=" ">
<polygon fill="white" stroke="#666666" points="2107.5,-30 1987.5,-30 1987.5,0 2107.5,0 2107.5,-30"/>
<text text-anchor="start" x="1995.5" y="-18" font-family="Helvetica,sans-Serif" font-size="10.00">src/protocols/webdav</text>
<text text-anchor="middle" x="2047.5" y="-7" font-family="Helvetica,sans-Serif" font-size="10.00">/module.c</text>
</a>
</g>
</g>
<!-- Node18&#45;&gt;Node19 -->
<g id="edge20_Node000018_Node000019" class="edge">
<title>Node18&#45;&gt;Node19</title>
<g id="a_edge20_Node000018_Node000019"><a xlink:title=" ">
<path fill="none" stroke="#63b8ff" d="M2205.28,-68.22C2169.71,-56.45 2123.22,-41.06 2089.93,-30.04"/>
<polygon fill="#63b8ff" stroke="#63b8ff" points="2204.41,-71.62 2215,-71.44 2206.61,-64.97 2204.41,-71.62"/>
</a>
</g>
</g>
<!-- Node20 -->
<g id="Node000020" class="node">
<title>Node20</title>
<g id="a_Node000020"><a xlink:href="module__commands_8c.html" target="_top" xlink:title=" ">
<polygon fill="white" stroke="#666666" points="2249.5,-30 2125.5,-30 2125.5,0 2249.5,0 2249.5,-30"/>
<text text-anchor="start" x="2133.5" y="-18" font-family="Helvetica,sans-Serif" font-size="10.00">src/protocols/webdav</text>
<text text-anchor="middle" x="2187.5" y="-7" font-family="Helvetica,sans-Serif" font-size="10.00">/module_commands.c</text>
</a>
</g>
</g>
<!-- Node18&#45;&gt;Node20 -->
<g id="edge21_Node000018_Node000020" class="edge">
<title>Node18&#45;&gt;Node20</title>
<g id="a_edge21_Node000018_Node000020"><a xlink:title=" ">
<path fill="none" stroke="#63b8ff" d="M2236.02,-64.17C2224.85,-53.08 2211.51,-39.84 2201.64,-30.04"/>
<polygon fill="#63b8ff" stroke="#63b8ff" points="2233.77,-66.87 2243.33,-71.44 2238.7,-61.91 2233.77,-66.87"/>
</a>
</g>
</g>
<!-- Node21 -->
<g id="Node000021" class="node">
<title>Node21</title>
<g id="a_Node000021"><a xlink:href="module__directives_8c.html" target="_top" xlink:title=" ">
<polygon fill="white" stroke="#666666" points="2387.5,-30 2267.5,-30 2267.5,0 2387.5,0 2387.5,-30"/>
<text text-anchor="start" x="2275.5" y="-18" font-family="Helvetica,sans-Serif" font-size="10.00">src/protocols/webdav</text>
<text text-anchor="middle" x="2327.5" y="-7" font-family="Helvetica,sans-Serif" font-size="10.00">/module_directives.c</text>
</a>
</g>
</g>
<!-- Node18&#45;&gt;Node21 -->
<g id="edge22_Node000018_Node000021" class="edge">
<title>Node18&#45;&gt;Node21</title>
<g id="a_edge22_Node000018_Node000021"><a xlink:title=" ">
<path fill="none" stroke="#63b8ff" d="M2278.98,-64.17C2290.15,-53.08 2303.49,-39.84 2313.36,-30.04"/>
<polygon fill="#63b8ff" stroke="#63b8ff" points="2276.3,-61.91 2271.67,-71.44 2281.23,-66.87 2276.3,-61.91"/>
</a>
</g>
</g>
<!-- Node22 -->
<g id="Node000022" class="node">
<title>Node22</title>
<g id="a_Node000022"><a xlink:href="module__init_8c.html" target="_top" xlink:title=" ">
<polygon fill="white" stroke="#666666" points="2525.5,-30 2405.5,-30 2405.5,0 2525.5,0 2525.5,-30"/>
<text text-anchor="start" x="2413.5" y="-18" font-family="Helvetica,sans-Serif" font-size="10.00">src/protocols/webdav</text>
<text text-anchor="middle" x="2465.5" y="-7" font-family="Helvetica,sans-Serif" font-size="10.00">/module_init.c</text>
</a>
</g>
</g>
<!-- Node18&#45;&gt;Node22 -->
<g id="edge23_Node000018_Node000022" class="edge">
<title>Node18&#45;&gt;Node22</title>
<g id="a_edge23_Node000018_Node000022"><a xlink:title=" ">
<path fill="none" stroke="#63b8ff" d="M2309.22,-68.22C2344.45,-56.45 2390.5,-41.06 2423.47,-30.04"/>
<polygon fill="#63b8ff" stroke="#63b8ff" points="2307.97,-64.95 2299.59,-71.44 2310.19,-71.59 2307.97,-64.95"/>
</a>
</g>
</g>
</g>
</svg>
