<?xml version="1.0" encoding="UTF-8" standalone="no"?>
<!DOCTYPE svg PUBLIC "-//W3C//DTD SVG 1.1//EN"
 "http://www.w3.org/Graphics/SVG/1.1/DTD/svg11.dtd">
<!-- Generated by graphviz version 2.43.0 (0)
 -->
<!-- Title: src/auth/token/issuer_registry.h Pages: 1 -->
<!--zoomable 104 -->

<svg id="main" version="1.1" xmlns="http://www.w3.org/2000/svg" xmlns:xlink="http://www.w3.org/1999/xlink" xml:space="preserve" onload="init(evt)">
<style type="text/css"><![CDATA[
.node, .edge {opacity: 0.7;}
.node.selected, .edge.selected {opacity: 1;}
.edge:hover path { stroke: red; }
.edge:hover polygon { stroke: red; fill: red; }
]]></style>

<defs>
  <circle id="rim" cx="0" cy="0" r="7"/>
  <circle id="rim2" cx="0" cy="0" r="3.5"/>
  <g id="zoomPlus">
    <use xlink:href="#rim" fill="#404040"><set attributeName="fill" to="#808080" begin="zoomplus.mouseover" end="zoomplus.mouseout"/></use>
    <path d="M-4,0h8M0,-4v8" fill="none" stroke="white" stroke-width="1.5" pointer-events="none"/>
  </g>
  <g id="zoomMin">
    <use xlink:href="#rim" fill="#404040"><set attributeName="fill" to="#808080" begin="zoomminus.mouseover" end="zoomminus.mouseout"/></use>
    <path d="M-4,0h8" fill="none" stroke="white" stroke-width="1.5" pointer-events="none"/>
  </g>
  <g id="arrowUp" transform="translate(30 24)">
    <use xlink:href="#rim"/>
    <path pointer-events="none" fill="none" stroke="white" stroke-width="1.5" d="M0,-3.0v7 M-2.5,-0.5L0,-3.0L2.5,-0.5"/>
  </g>
  <g id="arrowRight" transform="rotate(90) translate(36 -43)">
    <use xlink:href="#rim"/>
    <path pointer-events="none" fill="none" stroke="white" stroke-width="1.5" d="M0,-3.0v7 M-2.5,-0.5L0,-3.0L2.5,-0.5"/>
  </g>
  <g id="arrowDown" transform="rotate(180) translate(-30 -48)">
    <use xlink:href="#rim"/>
    <path pointer-events="none" fill="none" stroke="white" stroke-width="1.5" d="M0,-3.0v7 M-2.5,-0.5L0,-3.0L2.5,-0.5"/>
  </g>
  <g id="arrowLeft" transform="rotate(270) translate(-36 17)">
    <use xlink:href="#rim"/>
    <path pointer-events="none" fill="none" stroke="white" stroke-width="1.5" d="M0,-3.0v7 M-2.5,-0.5L0,-3.0L2.5,-0.5"/>
  </g>
  <g id="resetDef">
    <use xlink:href="#rim2" fill="#404040"><set attributeName="fill" to="#808080" begin="reset.mouseover" end="reset.mouseout"/></use>
  </g>
</defs>
<script type="application/ecmascript">
var viewWidth = 1974;
var viewHeight = 104;
var sectionId = 'dynsection-1';
</script>
<script type="application/ecmascript" xlink:href="svg.min.js"/>
<svg id="graph" class="graph">
<g id="viewport">
<title>src/auth/token/issuer_registry.h</title>
<!-- Node1 -->
<g id="Node000001" class="node">
<title>Node1</title>
<g id="a_Node000001"><a xlink:title=" ">
<polygon fill="#999999" stroke="#666666" points="1063.5,-96 945.5,-96 945.5,-66 1063.5,-66 1063.5,-96"/>
<text text-anchor="start" x="953.5" y="-84" font-family="Helvetica,sans-Serif" font-size="10.00">src/auth/token/issuer</text>
<text text-anchor="middle" x="1004.5" y="-73" font-family="Helvetica,sans-Serif" font-size="10.00">_registry.h</text>
</a>
</g>
</g>
<!-- Node2 -->
<g id="Node000002" class="node">
<title>Node2</title>
<g id="a_Node000002"><a xlink:href="token_8c.html" target="_top" xlink:title=" ">
<polygon fill="white" stroke="#666666" points="111,-24.5 0,-24.5 0,-5.5 111,-5.5 111,-24.5"/>
<text text-anchor="middle" x="55.5" y="-12.5" font-family="Helvetica,sans-Serif" font-size="10.00">src/auth/gsi/token.c</text>
</a>
</g>
</g>
<!-- Node1&#45;&gt;Node2 -->
<g id="edge1_Node000001_Node000002" class="edge">
<title>Node1&#45;&gt;Node2</title>
<g id="a_edge1_Node000001_Node000002"><a xlink:title=" ">
<path fill="none" stroke="#63b8ff" d="M935.1,-79.74C785.53,-78.37 421.93,-70.73 120.5,-30 110.66,-28.67 100.1,-26.65 90.41,-24.56"/>
<polygon fill="#63b8ff" stroke="#63b8ff" points="935.46,-83.24 945.49,-79.83 935.52,-76.24 935.46,-83.24"/>
</a>
</g>
</g>
<!-- Node3 -->
<g id="Node000003" class="node">
<title>Node3</title>
<g id="a_Node000003"><a xlink:href="auth_2token_2config_8c.html" target="_top" xlink:title=" ">
<polygon fill="white" stroke="#666666" points="255.5,-24.5 129.5,-24.5 129.5,-5.5 255.5,-5.5 255.5,-24.5"/>
<text text-anchor="middle" x="192.5" y="-12.5" font-family="Helvetica,sans-Serif" font-size="10.00">src/auth/token/config.c</text>
</a>
</g>
</g>
<!-- Node1&#45;&gt;Node3 -->
<g id="edge2_Node000001_Node000003" class="edge">
<title>Node1&#45;&gt;Node3</title>
<g id="a_edge2_Node000001_Node000003"><a xlink:title=" ">
<path fill="none" stroke="#63b8ff" d="M934.94,-78.19C803.48,-74.13 509.71,-62 264.5,-30 253.77,-28.6 242.22,-26.59 231.59,-24.52"/>
<polygon fill="#63b8ff" stroke="#63b8ff" points="935.16,-81.7 945.26,-78.5 935.37,-74.7 935.16,-81.7"/>
</a>
</g>
</g>
<!-- Node4 -->
<g id="Node000004" class="node">
<title>Node4</title>
<g id="a_Node000004"><a xlink:href="issuer__registry_8c.html" target="_top" xlink:title=" ">
<polygon fill="white" stroke="#666666" points="391.5,-30 273.5,-30 273.5,0 391.5,0 391.5,-30"/>
<text text-anchor="start" x="281.5" y="-18" font-family="Helvetica,sans-Serif" font-size="10.00">src/auth/token/issuer</text>
<text text-anchor="middle" x="332.5" y="-7" font-family="Helvetica,sans-Serif" font-size="10.00">_registry.c</text>
</a>
</g>
</g>
<!-- Node1&#45;&gt;Node4 -->
<g id="edge3_Node000001_Node000004" class="edge">
<title>Node1&#45;&gt;Node4</title>
<g id="a_edge3_Node000001_Node000004"><a xlink:title=" ">
<path fill="none" stroke="#63b8ff" d="M934.87,-76.96C822.14,-71.44 592.9,-57.67 400.5,-30 397.64,-29.59 394.71,-29.13 391.76,-28.64"/>
<polygon fill="#63b8ff" stroke="#63b8ff" points="934.92,-80.47 945.08,-77.46 935.26,-73.48 934.92,-80.47"/>
</a>
</g>
</g>
<!-- Node5 -->
<g id="Node000005" class="node">
<title>Node5</title>
<g id="a_Node000005"><a xlink:href="validate__registry_8c.html" target="_top" xlink:title=" ">
<polygon fill="white" stroke="#666666" points="537.5,-30 409.5,-30 409.5,0 537.5,0 537.5,-30"/>
<text text-anchor="start" x="417.5" y="-18" font-family="Helvetica,sans-Serif" font-size="10.00">src/auth/token/validate</text>
<text text-anchor="middle" x="473.5" y="-7" font-family="Helvetica,sans-Serif" font-size="10.00">_registry.c</text>
</a>
</g>
</g>
<!-- Node1&#45;&gt;Node5 -->
<g id="edge4_Node000001_Node000005" class="edge">
<title>Node1&#45;&gt;Node5</title>
<g id="a_edge4_Node000001_Node000005"><a xlink:title=" ">
<path fill="none" stroke="#63b8ff" d="M935.31,-74.2C845.44,-66.27 683.78,-50.62 546.5,-30 543.56,-29.56 540.57,-29.08 537.54,-28.59"/>
<polygon fill="#63b8ff" stroke="#63b8ff" points="935.11,-77.7 945.38,-75.08 935.72,-70.72 935.11,-77.7"/>
</a>
</g>
</g>
<!-- Node6 -->
<g id="Node000006" class="node">
<title>Node6</title>
<g id="a_Node000006"><a xlink:href="identity_8c.html" target="_top" xlink:title=" ">
<polygon fill="white" stroke="#666666" points="687.5,-24.5 555.5,-24.5 555.5,-5.5 687.5,-5.5 687.5,-24.5"/>
<text text-anchor="middle" x="621.5" y="-12.5" font-family="Helvetica,sans-Serif" font-size="10.00">src/core/types/identity.c</text>
</a>
</g>
</g>
<!-- Node1&#45;&gt;Node6 -->
<g id="edge5_Node000001_Node000006" class="edge">
<title>Node1&#45;&gt;Node6</title>
<g id="a_edge5_Node000001_Node000006"><a xlink:title=" ">
<path fill="none" stroke="#63b8ff" d="M935.26,-69.24C872.78,-59.41 778.39,-44.29 696.5,-30 686.71,-28.29 676.22,-26.38 666.28,-24.54"/>
<polygon fill="#63b8ff" stroke="#63b8ff" points="934.96,-72.73 945.38,-70.83 936.05,-65.82 934.96,-72.73"/>
</a>
</g>
</g>
<!-- Node7 -->
<g id="Node000007" class="node">
<title>Node7</title>
<g id="a_Node000007"><a xlink:href="cvmfs__module__build_8c.html" target="_top" xlink:title=" ">
<polygon fill="white" stroke="#666666" points="835,-30 706,-30 706,0 835,0 835,-30"/>
<text text-anchor="start" x="714" y="-18" font-family="Helvetica,sans-Serif" font-size="10.00">src/protocols/cvmfs</text>
<text text-anchor="middle" x="770.5" y="-7" font-family="Helvetica,sans-Serif" font-size="10.00">/cvmfs_module_build.c</text>
</a>
</g>
</g>
<!-- Node1&#45;&gt;Node7 -->
<g id="edge6_Node000001_Node000007" class="edge">
<title>Node1&#45;&gt;Node7</title>
<g id="a_edge6_Node000001_Node000007"><a xlink:title=" ">
<path fill="none" stroke="#63b8ff" d="M943.27,-63.25C905.47,-52.91 857.52,-39.8 821.73,-30.01"/>
<polygon fill="#63b8ff" stroke="#63b8ff" points="942.58,-66.69 953.15,-65.95 944.43,-59.94 942.58,-66.69"/>
</a>
</g>
</g>
<!-- Node8 -->
<g id="Node000008" class="node">
<title>Node8</title>
<g id="a_Node000008"><a xlink:href="cvmfs__module__georank_8c.html" target="_top" xlink:title=" ">
<polygon fill="white" stroke="#666666" points="998,-30 853,-30 853,0 998,0 998,-30"/>
<text text-anchor="start" x="861" y="-18" font-family="Helvetica,sans-Serif" font-size="10.00">src/protocols/cvmfs</text>
<text text-anchor="middle" x="925.5" y="-7" font-family="Helvetica,sans-Serif" font-size="10.00">/cvmfs_module_georank.c</text>
</a>
</g>
</g>
<!-- Node1&#45;&gt;Node8 -->
<g id="edge7_Node000001_Node000008" class="edge">
<title>Node1&#45;&gt;Node8</title>
<g id="a_edge7_Node000001_Node000008"><a xlink:title=" ">
<path fill="none" stroke="#63b8ff" d="M979.17,-59.48C967.36,-49.91 953.61,-38.77 942.98,-30.16"/>
<polygon fill="#63b8ff" stroke="#63b8ff" points="976.99,-62.22 986.97,-65.8 981.4,-56.78 976.99,-62.22"/>
</a>
</g>
</g>
<!-- Node9 -->
<g id="Node000009" class="node">
<title>Node9</title>
<g id="a_Node000009"><a xlink:href="cvmfs__module__merge_8c.html" target="_top" xlink:title=" ">
<polygon fill="white" stroke="#666666" points="1153,-30 1016,-30 1016,0 1153,0 1153,-30"/>
<text text-anchor="start" x="1024" y="-18" font-family="Helvetica,sans-Serif" font-size="10.00">src/protocols/cvmfs</text>
<text text-anchor="middle" x="1084.5" y="-7" font-family="Helvetica,sans-Serif" font-size="10.00">/cvmfs_module_merge.c</text>
</a>
</g>
</g>
<!-- Node1&#45;&gt;Node9 -->
<g id="edge8_Node000001_Node000009" class="edge">
<title>Node1&#45;&gt;Node9</title>
<g id="a_edge8_Node000001_Node000009"><a xlink:title=" ">
<path fill="none" stroke="#63b8ff" d="M1030.15,-59.48C1042.11,-49.91 1056.03,-38.77 1066.8,-30.16"/>
<polygon fill="#63b8ff" stroke="#63b8ff" points="1027.88,-56.82 1022.25,-65.8 1032.25,-62.28 1027.88,-56.82"/>
</a>
</g>
</g>
<!-- Node10 -->
<g id="Node000010" class="node">
<title>Node10</title>
<g id="a_Node000010"><a xlink:href="protocols_2cvmfs_2module_8c.html" target="_top" xlink:title=" ">
<polygon fill="white" stroke="#666666" points="1283.5,-30 1171.5,-30 1171.5,0 1283.5,0 1283.5,-30"/>
<text text-anchor="start" x="1179.5" y="-18" font-family="Helvetica,sans-Serif" font-size="10.00">src/protocols/cvmfs</text>
<text text-anchor="middle" x="1227.5" y="-7" font-family="Helvetica,sans-Serif" font-size="10.00">/module.c</text>
</a>
</g>
</g>
<!-- Node1&#45;&gt;Node10 -->
<g id="edge9_Node000001_Node000010" class="edge">
<title>Node1&#45;&gt;Node10</title>
<g id="a_edge9_Node000001_Node000010"><a xlink:title=" ">
<path fill="none" stroke="#63b8ff" d="M1063.31,-63.12C1099.27,-52.8 1144.72,-39.76 1178.68,-30.01"/>
<polygon fill="#63b8ff" stroke="#63b8ff" points="1062.08,-59.83 1053.44,-65.95 1064.02,-66.56 1062.08,-59.83"/>
</a>
</g>
</g>
<!-- Node11 -->
<g id="Node000011" class="node">
<title>Node11</title>
<g id="a_Node000011"><a xlink:href="secure_8c.html" target="_top" xlink:title=" ">
<polygon fill="white" stroke="#666666" points="1413.5,-30 1301.5,-30 1301.5,0 1413.5,0 1413.5,-30"/>
<text text-anchor="start" x="1309.5" y="-18" font-family="Helvetica,sans-Serif" font-size="10.00">src/protocols/cvmfs</text>
<text text-anchor="middle" x="1357.5" y="-7" font-family="Helvetica,sans-Serif" font-size="10.00">/secure.c</text>
</a>
</g>
</g>
<!-- Node1&#45;&gt;Node11 -->
<g id="edge10_Node000001_Node000011" class="edge">
<title>Node1&#45;&gt;Node11</title>
<g id="a_edge10_Node000001_Node000011"><a xlink:title=" ">
<path fill="none" stroke="#63b8ff" d="M1073.87,-68.76C1132.29,-59.1 1218.02,-44.48 1292.5,-30 1295.33,-29.45 1298.23,-28.87 1301.16,-28.28"/>
<polygon fill="#63b8ff" stroke="#63b8ff" points="1072.94,-65.37 1063.65,-70.45 1074.08,-72.27 1072.94,-65.37"/>
</a>
</g>
</g>
<!-- Node12 -->
<g id="Node000012" class="node">
<title>Node12</title>
<g id="a_Node000012"><a xlink:href="auth__token_8c.html" target="_top" xlink:title=" ">
<polygon fill="white" stroke="#666666" points="1551.5,-30 1431.5,-30 1431.5,0 1551.5,0 1551.5,-30"/>
<text text-anchor="start" x="1439.5" y="-18" font-family="Helvetica,sans-Serif" font-size="10.00">src/protocols/webdav</text>
<text text-anchor="middle" x="1491.5" y="-7" font-family="Helvetica,sans-Serif" font-size="10.00">/auth_token.c</text>
</a>
</g>
</g>
<!-- Node1&#45;&gt;Node12 -->
<g id="edge11_Node000001_Node000012" class="edge">
<title>Node1&#45;&gt;Node12</title>
<g id="a_edge11_Node000001_Node000012"><a xlink:title=" ">
<path fill="none" stroke="#63b8ff" d="M1073.63,-73.47C1156.71,-65.21 1300.24,-49.68 1422.5,-30 1425.4,-29.53 1428.36,-29.03 1431.34,-28.51"/>
<polygon fill="#63b8ff" stroke="#63b8ff" points="1073.16,-70 1063.55,-74.46 1073.85,-76.96 1073.16,-70"/>
</a>
</g>
</g>
<!-- Node13 -->
<g id="Node000013" class="node">
<title>Node13</title>
<g id="a_Node000013"><a xlink:href="protocols_2webdav_2config_8c.html" target="_top" xlink:title=" ">
<polygon fill="white" stroke="#666666" points="1689.5,-30 1569.5,-30 1569.5,0 1689.5,0 1689.5,-30"/>
<text text-anchor="start" x="1577.5" y="-18" font-family="Helvetica,sans-Serif" font-size="10.00">src/protocols/webdav</text>
<text text-anchor="middle" x="1629.5" y="-7" font-family="Helvetica,sans-Serif" font-size="10.00">/config.c</text>
</a>
</g>
</g>
<!-- Node1&#45;&gt;Node13 -->
<g id="edge12_Node000001_Node000013" class="edge">
<title>Node1&#45;&gt;Node13</title>
<g id="a_edge12_Node000001_Node000013"><a xlink:title=" ">
<path fill="none" stroke="#63b8ff" d="M1073.79,-76.24C1179.26,-69.95 1386.25,-55.43 1560.5,-30 1563.4,-29.58 1566.37,-29.11 1569.36,-28.61"/>
<polygon fill="#63b8ff" stroke="#63b8ff" points="1073.37,-72.76 1063.59,-76.84 1073.78,-79.74 1073.37,-72.76"/>
</a>
</g>
</g>
<!-- Node14 -->
<g id="Node000014" class="node">
<title>Node14</title>
<g id="a_Node000014"><a xlink:href="config__merge_8c.html" target="_top" xlink:title=" ">
<polygon fill="white" stroke="#666666" points="1827.5,-30 1707.5,-30 1707.5,0 1827.5,0 1827.5,-30"/>
<text text-anchor="start" x="1715.5" y="-18" font-family="Helvetica,sans-Serif" font-size="10.00">src/protocols/webdav</text>
<text text-anchor="middle" x="1767.5" y="-7" font-family="Helvetica,sans-Serif" font-size="10.00">/config_merge.c</text>
</a>
</g>
</g>
<!-- Node1&#45;&gt;Node14 -->
<g id="edge13_Node000001_Node000014" class="edge">
<title>Node1&#45;&gt;Node14</title>
<g id="a_edge13_Node000001_Node000014"><a xlink:title=" ">
<path fill="none" stroke="#63b8ff" d="M1073.93,-77.94C1199.22,-73.58 1471.21,-61.12 1698.5,-30 1701.41,-29.6 1704.37,-29.16 1707.37,-28.67"/>
<polygon fill="#63b8ff" stroke="#63b8ff" points="1073.59,-74.45 1063.72,-78.29 1073.83,-81.45 1073.59,-74.45"/>
</a>
</g>
</g>
<!-- Node15 -->
<g id="Node000015" class="node">
<title>Node15</title>
<g id="a_Node000015"><a xlink:href="config__proxy_8c.html" target="_top" xlink:title=" ">
<polygon fill="white" stroke="#666666" points="1965.5,-30 1845.5,-30 1845.5,0 1965.5,0 1965.5,-30"/>
<text text-anchor="start" x="1853.5" y="-18" font-family="Helvetica,sans-Serif" font-size="10.00">src/protocols/webdav</text>
<text text-anchor="middle" x="1905.5" y="-7" font-family="Helvetica,sans-Serif" font-size="10.00">/config_proxy.c</text>
</a>
</g>
</g>
<!-- Node1&#45;&gt;Node15 -->
<g id="edge14_Node000001_Node000015" class="edge">
<title>Node1&#45;&gt;Node15</title>
<g id="a_edge14_Node000001_Node000015"><a xlink:title=" ">
<path fill="none" stroke="#63b8ff" d="M1073.91,-79.11C1217.07,-76.55 1555.32,-66.79 1836.5,-30 1839.41,-29.62 1842.38,-29.19 1845.37,-28.72"/>
<polygon fill="#63b8ff" stroke="#63b8ff" points="1073.47,-75.62 1063.53,-79.29 1073.59,-82.62 1073.47,-75.62"/>
</a>
</g>
</g>
</g>
</svg>

<g id="navigator" transform="translate(0 0)" fill="#404254">
  <rect fill="#f2f5e9" fill-opacity="0.5" stroke="#606060" stroke-width=".5" x="0" y="0" width="60" height="60"/>
  <use id="zoomplus" xlink:href="#zoomPlus" x="17" y="9" onmousedown="handleZoom(evt,'in')"/>
  <use id="zoomminus" xlink:href="#zoomMin" x="42" y="9" onmousedown="handleZoom(evt,'out')"/>
  <use id="reset" xlink:href="#resetDef" x="30" y="36" onmousedown="handleReset()"/>
   <use id="arrowup" xlink:href="#arrowUp" x="0" y="0" onmousedown="handlePan(0,-1)"/>
  <use id="arrowright" xlink:href="#arrowRight" x="0" y="0" onmousedown="handlePan(1,0)"/>
  <use id="arrowdown" xlink:href="#arrowDown" x="0" y="0" onmousedown="handlePan(0,1)"/>
  <use id="arrowleft" xlink:href="#arrowLeft" x="0" y="0" onmousedown="handlePan(-1,0)"/>
</g>
<svg viewBox="0 0 15 15" width="100%" height="30px" preserveAspectRatio="xMaxYMin meet">
 <g id="arrow_out" transform="scale(0.3 0.3)">
  <a xlink:href="issuer__registry_8h__dep__incl_org.svg" target="_base">
   <rect id="button" ry="5" rx="5" y="6" x="6" height="38" width="38"
        fill="#f2f5e9" fill-opacity="0.5" stroke="#606060" stroke-width="1.0"/>
   <path id="arrow"
     d="M 11.500037,31.436501 C 11.940474,20.09759 22.043105,11.32322 32.158766,21.979434 L 37.068811,17.246167 C 37.068811,17.246167 37.088388,32 37.088388,32 L 22.160133,31.978069 C 22.160133,31.978069 26.997745,27.140456 26.997745,27.140456 C 18.528582,18.264221 13.291696,25.230495 11.500037,31.436501 z"
     style="fill:#404040;"/>
  </a>
 </g>
</svg>

<style type='text/css'>
<![CDATA[
[data-mouse-over-selected='false'] { opacity: 0.7; }
[data-mouse-over-selected='true']  { opacity: 1.0; }
]]>
</style>
<script type="application/ecmascript"><![CDATA[
document.addEventListener('DOMContentLoaded', (event) => {
  highlightEdges();
  highlightAdjacentNodes();
});
]]></script>
</svg>
