<?xml version="1.0" encoding="UTF-8" standalone="no"?>
<!DOCTYPE svg PUBLIC "-//W3C//DTD SVG 1.1//EN"
 "http://www.w3.org/Graphics/SVG/1.1/DTD/svg11.dtd">
<!-- Generated by graphviz version 2.43.0 (0)
 -->
<!-- Title: src/auth/token/jwks.c Pages: 1 -->
<svg width="761pt" height="192pt"
 viewBox="0.00 0.00 761.00 192.00" xmlns="http://www.w3.org/2000/svg" xmlns:xlink="http://www.w3.org/1999/xlink">
<g id="graph0" class="graph" transform="scale(1 1) rotate(0) translate(4 188)">
<title>src/auth/token/jwks.c</title>
<!-- Node1 -->
<g id="Node000001" class="node">
<title>Node1</title>
<g id="a_Node000001"><a xlink:title=" ">
<polygon fill="#999999" stroke="#666666" points="531,-184 412,-184 412,-165 531,-165 531,-184"/>
<text text-anchor="middle" x="471.5" y="-172" font-family="Helvetica,sans-Serif" font-size="10.00">src/auth/token/jwks.c</text>
</a>
</g>
</g>
<!-- Node2 -->
<g id="Node000002" class="node">
<title>Node2</title>
<g id="a_Node000002"><a xlink:href="token__internal_8h.html" target="_top" xlink:title=" ">
<polygon fill="white" stroke="#666666" points="397,-129 302,-129 302,-110 397,-110 397,-129"/>
<text text-anchor="middle" x="349.5" y="-117" font-family="Helvetica,sans-Serif" font-size="10.00">token_internal.h</text>
</a>
</g>
</g>
<!-- Node1&#45;&gt;Node2 -->
<g id="edge1_Node000001_Node000002" class="edge">
<title>Node1&#45;&gt;Node2</title>
<g id="a_edge1_Node000001_Node000002"><a xlink:title=" ">
<path fill="none" stroke="#63b8ff" d="M451.9,-164.98C432.18,-156.42 401.55,-143.11 378.92,-133.28"/>
<polygon fill="#63b8ff" stroke="#63b8ff" points="380.02,-129.94 369.46,-129.17 377.24,-136.37 380.02,-129.94"/>
</a>
</g>
</g>
<!-- Node8 -->
<g id="Node000008" class="node">
<title>Node8</title>
<g id="a_Node000008"><a xlink:href="json_8h.html" target="_top" xlink:title=" ">
<polygon fill="white" stroke="#666666" points="461.5,-129 415.5,-129 415.5,-110 461.5,-110 461.5,-129"/>
<text text-anchor="middle" x="438.5" y="-117" font-family="Helvetica,sans-Serif" font-size="10.00">json.h</text>
</a>
</g>
</g>
<!-- Node1&#45;&gt;Node8 -->
<g id="edge8_Node000001_Node000008" class="edge">
<title>Node1&#45;&gt;Node8</title>
<g id="a_edge8_Node000001_Node000008"><a xlink:title=" ">
<path fill="none" stroke="#63b8ff" d="M466.05,-164.75C461.49,-157.42 454.83,-146.73 449.21,-137.7"/>
<polygon fill="#63b8ff" stroke="#63b8ff" points="452.1,-135.73 443.85,-129.09 446.16,-139.43 452.1,-135.73"/>
</a>
</g>
</g>
<!-- Node12 -->
<g id="Node000012" class="node">
<title>Node12</title>
<g id="a_Node000012"><a xlink:href="log__diag_8h.html" target="_top" xlink:title=" ">
<polygon fill="white" stroke="#666666" points="131,-129 0,-129 0,-110 131,-110 131,-129"/>
<text text-anchor="middle" x="65.5" y="-117" font-family="Helvetica,sans-Serif" font-size="10.00">core/compat/log_diag.h</text>
</a>
</g>
</g>
<!-- Node1&#45;&gt;Node12 -->
<g id="edge12_Node000001_Node000012" class="edge">
<title>Node1&#45;&gt;Node12</title>
<g id="a_edge12_Node000001_Node000012"><a xlink:title=" ">
<path fill="none" stroke="#63b8ff" d="M411.59,-165.68C339.71,-156.3 219.13,-140.56 140.96,-130.35"/>
<polygon fill="#63b8ff" stroke="#63b8ff" points="141.07,-126.84 130.7,-129.01 140.16,-133.78 141.07,-126.84"/>
</a>
</g>
</g>
<!-- Node13 -->
<g id="Node000013" class="node">
<title>Node13</title>
<g id="a_Node000013"><a xlink:href="safe__size_8h.html" target="_top" xlink:title=" ">
<polygon fill="white" stroke="#666666" points="284,-129 149,-129 149,-110 284,-110 284,-129"/>
<text text-anchor="middle" x="216.5" y="-117" font-family="Helvetica,sans-Serif" font-size="10.00">core/compat/safe_size.h</text>
</a>
</g>
</g>
<!-- Node1&#45;&gt;Node13 -->
<g id="edge14_Node000001_Node000013" class="edge">
<title>Node1&#45;&gt;Node13</title>
<g id="a_edge14_Node000001_Node000013"><a xlink:title=" ">
<path fill="none" stroke="#63b8ff" d="M430.53,-164.98C386.24,-155.78 315.56,-141.09 267.65,-131.13"/>
<polygon fill="#63b8ff" stroke="#63b8ff" points="268.29,-127.69 257.79,-129.08 266.87,-134.54 268.29,-127.69"/>
</a>
</g>
</g>
<!-- Node14 -->
<g id="Node000014" class="node">
<title>Node14</title>
<g id="a_Node000014"><a xlink:title=" ">
<polygon fill="#e0e0e0" stroke="#999999" points="529.5,-129 479.5,-129 479.5,-110 529.5,-110 529.5,-129"/>
<text text-anchor="middle" x="504.5" y="-117" font-family="Helvetica,sans-Serif" font-size="10.00">stdio.h</text>
</a>
</g>
</g>
<!-- Node1&#45;&gt;Node14 -->
<g id="edge17_Node000001_Node000014" class="edge">
<title>Node1&#45;&gt;Node14</title>
<g id="a_edge17_Node000001_Node000014"><a xlink:title=" ">
<path fill="none" stroke="#63b8ff" d="M476.95,-164.75C481.51,-157.42 488.17,-146.73 493.79,-137.7"/>
<polygon fill="#63b8ff" stroke="#63b8ff" points="496.84,-139.43 499.15,-129.09 490.9,-135.73 496.84,-139.43"/>
</a>
</g>
</g>
<!-- Node15 -->
<g id="Node000015" class="node">
<title>Node15</title>
<g id="a_Node000015"><a xlink:title=" ">
<polygon fill="#e0e0e0" stroke="#999999" points="601,-129 548,-129 548,-110 601,-110 601,-129"/>
<text text-anchor="middle" x="574.5" y="-117" font-family="Helvetica,sans-Serif" font-size="10.00">stdlib.h</text>
</a>
</g>
</g>
<!-- Node1&#45;&gt;Node15 -->
<g id="edge18_Node000001_Node000015" class="edge">
<title>Node1&#45;&gt;Node15</title>
<g id="a_edge18_Node000001_Node000015"><a xlink:title=" ">
<path fill="none" stroke="#63b8ff" d="M488.05,-164.98C504.39,-156.57 529.63,-143.59 548.63,-133.81"/>
<polygon fill="#63b8ff" stroke="#63b8ff" points="550.36,-136.86 557.65,-129.17 547.16,-130.63 550.36,-136.86"/>
</a>
</g>
</g>
<!-- Node16 -->
<g id="Node000016" class="node">
<title>Node16</title>
<g id="a_Node000016"><a xlink:title=" ">
<polygon fill="#e0e0e0" stroke="#999999" points="672,-129 619,-129 619,-110 672,-110 672,-129"/>
<text text-anchor="middle" x="645.5" y="-117" font-family="Helvetica,sans-Serif" font-size="10.00">string.h</text>
</a>
</g>
</g>
<!-- Node1&#45;&gt;Node16 -->
<g id="edge19_Node000001_Node000016" class="edge">
<title>Node1&#45;&gt;Node16</title>
<g id="a_edge19_Node000001_Node000016"><a xlink:title=" ">
<path fill="none" stroke="#63b8ff" d="M499.46,-164.98C529.23,-155.92 576.47,-141.53 609.13,-131.58"/>
<polygon fill="#63b8ff" stroke="#63b8ff" points="610.21,-134.91 618.76,-128.65 608.17,-128.21 610.21,-134.91"/>
</a>
</g>
</g>
<!-- Node17 -->
<g id="Node000017" class="node">
<title>Node17</title>
<g id="a_Node000017"><a xlink:title=" ">
<polygon fill="#e0e0e0" stroke="#999999" points="753,-129 690,-129 690,-110 753,-110 753,-129"/>
<text text-anchor="middle" x="721.5" y="-117" font-family="Helvetica,sans-Serif" font-size="10.00">jansson.h</text>
</a>
</g>
</g>
<!-- Node1&#45;&gt;Node17 -->
<g id="edge20_Node000001_Node000017" class="edge">
<title>Node1&#45;&gt;Node17</title>
<g id="a_edge20_Node000001_Node000017"><a xlink:title=" ">
<path fill="none" stroke="#63b8ff" d="M511.76,-164.98C551.97,-156.46 615.82,-142.93 679.78,-129.36"/>
<polygon fill="#63b8ff" stroke="#63b8ff" points="680.57,-132.78 689.62,-127.28 679.11,-125.93 680.57,-132.78"/>
</a>
</g>
</g>
<!-- Node3 -->
<g id="Node000003" class="node">
<title>Node3</title>
<g id="a_Node000003"><a xlink:title=" ">
<polygon fill="#e0e0e0" stroke="#999999" points="268.5,-74 190.5,-74 190.5,-55 268.5,-55 268.5,-74"/>
<text text-anchor="middle" x="229.5" y="-62" font-family="Helvetica,sans-Serif" font-size="10.00">ngx_config.h</text>
</a>
</g>
</g>
<!-- Node2&#45;&gt;Node3 -->
<g id="edge2_Node000002_Node000003" class="edge">
<title>Node2&#45;&gt;Node3</title>
<g id="a_edge2_Node000002_Node000003"><a xlink:title=" ">
<path fill="none" stroke="#63b8ff" d="M330.22,-109.98C310.83,-101.42 280.69,-88.11 258.43,-78.28"/>
<polygon fill="#63b8ff" stroke="#63b8ff" points="259.69,-75.01 249.13,-74.17 256.86,-81.41 259.69,-75.01"/>
</a>
</g>
</g>
<!-- Node4 -->
<g id="Node000004" class="node">
<title>Node4</title>
<g id="a_Node000004"><a xlink:title=" ">
<polygon fill="#e0e0e0" stroke="#999999" points="172.5,-74 102.5,-74 102.5,-55 172.5,-55 172.5,-74"/>
<text text-anchor="middle" x="137.5" y="-62" font-family="Helvetica,sans-Serif" font-size="10.00">ngx_core.h</text>
</a>
</g>
</g>
<!-- Node2&#45;&gt;Node4 -->
<g id="edge3_Node000002_Node000004" class="edge">
<title>Node2&#45;&gt;Node4</title>
<g id="a_edge3_Node000002_Node000004"><a xlink:title=" ">
<path fill="none" stroke="#63b8ff" d="M315.44,-109.98C279.08,-100.89 221.33,-86.46 181.53,-76.51"/>
<polygon fill="#63b8ff" stroke="#63b8ff" points="182.38,-73.11 171.83,-74.08 180.68,-79.9 182.38,-73.11"/>
</a>
</g>
</g>
<!-- Node5 -->
<g id="Node000005" class="node">
<title>Node5</title>
<g id="a_Node000005"><a xlink:title=" ">
<polygon fill="#e0e0e0" stroke="#999999" points="410.5,-19 326.5,-19 326.5,0 410.5,0 410.5,-19"/>
<text text-anchor="middle" x="368.5" y="-7" font-family="Helvetica,sans-Serif" font-size="10.00">openssl/evp.h</text>
</a>
</g>
</g>
<!-- Node2&#45;&gt;Node5 -->
<g id="edge4_Node000002_Node000005" class="edge">
<title>Node2&#45;&gt;Node5</title>
<g id="a_edge4_Node000002_Node000005"><a xlink:title=" ">
<path fill="none" stroke="#63b8ff" d="M351.05,-109.66C354.13,-92.17 361.06,-52.8 365.2,-29.27"/>
<polygon fill="#63b8ff" stroke="#63b8ff" points="368.69,-29.61 366.98,-19.16 361.8,-28.4 368.69,-29.61"/>
</a>
</g>
</g>
<!-- Node6 -->
<g id="Node000006" class="node">
<title>Node6</title>
<g id="a_Node000006"><a xlink:href="token_8h.html" target="_top" xlink:title=" ">
<polygon fill="white" stroke="#666666" points="340,-74 287,-74 287,-55 340,-55 340,-74"/>
<text text-anchor="middle" x="313.5" y="-62" font-family="Helvetica,sans-Serif" font-size="10.00">token.h</text>
</a>
</g>
</g>
<!-- Node2&#45;&gt;Node6 -->
<g id="edge5_Node000002_Node000006" class="edge">
<title>Node2&#45;&gt;Node6</title>
<g id="a_edge5_Node000002_Node000006"><a xlink:title=" ">
<path fill="none" stroke="#63b8ff" d="M343.56,-109.75C338.52,-102.34 331.16,-91.5 324.99,-82.41"/>
<polygon fill="#63b8ff" stroke="#63b8ff" points="327.85,-80.39 319.33,-74.09 322.06,-84.33 327.85,-80.39"/>
</a>
</g>
</g>
<!-- Node6&#45;&gt;Node5 -->
<g id="edge6_Node000006_Node000005" class="edge">
<title>Node6&#45;&gt;Node5</title>
<g id="a_edge6_Node000006_Node000005"><a xlink:title=" ">
<path fill="none" stroke="#63b8ff" d="M322.58,-54.75C330.59,-47.03 342.46,-35.6 352.12,-26.28"/>
<polygon fill="#63b8ff" stroke="#63b8ff" points="354.81,-28.55 359.59,-19.09 349.96,-23.51 354.81,-28.55"/>
</a>
</g>
</g>
<!-- Node7 -->
<g id="Node000007" class="node">
<title>Node7</title>
<g id="a_Node000007"><a xlink:title=" ">
<polygon fill="#e0e0e0" stroke="#999999" points="308,-19 255,-19 255,0 308,0 308,-19"/>
<text text-anchor="middle" x="281.5" y="-7" font-family="Helvetica,sans-Serif" font-size="10.00">limits.h</text>
</a>
</g>
</g>
<!-- Node6&#45;&gt;Node7 -->
<g id="edge7_Node000006_Node000007" class="edge">
<title>Node6&#45;&gt;Node7</title>
<g id="a_edge7_Node000006_Node000007"><a xlink:title=" ">
<path fill="none" stroke="#63b8ff" d="M308.22,-54.75C303.79,-47.42 297.34,-36.73 291.88,-27.7"/>
<polygon fill="#63b8ff" stroke="#63b8ff" points="294.85,-25.84 286.69,-19.09 288.86,-29.46 294.85,-25.84"/>
</a>
</g>
</g>
<!-- Node9 -->
<g id="Node000009" class="node">
<title>Node9</title>
<g id="a_Node000009"><a xlink:title=" ">
<polygon fill="#e0e0e0" stroke="#999999" points="452.5,-74 396.5,-74 396.5,-55 452.5,-55 452.5,-74"/>
<text text-anchor="middle" x="424.5" y="-62" font-family="Helvetica,sans-Serif" font-size="10.00">stddef.h</text>
</a>
</g>
</g>
<!-- Node8&#45;&gt;Node9 -->
<g id="edge9_Node000008_Node000009" class="edge">
<title>Node8&#45;&gt;Node9</title>
<g id="a_edge9_Node000008_Node000009"><a xlink:title=" ">
<path fill="none" stroke="#63b8ff" d="M436.19,-109.75C434.33,-102.72 431.66,-92.62 429.35,-83.84"/>
<polygon fill="#63b8ff" stroke="#63b8ff" points="432.71,-82.86 426.77,-74.09 425.94,-84.65 432.71,-82.86"/>
</a>
</g>
</g>
<!-- Node10 -->
<g id="Node000010" class="node">
<title>Node10</title>
<g id="a_Node000010"><a xlink:title=" ">
<polygon fill="#e0e0e0" stroke="#999999" points="524,-74 471,-74 471,-55 524,-55 524,-74"/>
<text text-anchor="middle" x="497.5" y="-62" font-family="Helvetica,sans-Serif" font-size="10.00">stdint.h</text>
</a>
</g>
</g>
<!-- Node8&#45;&gt;Node10 -->
<g id="edge10_Node000008_Node000010" class="edge">
<title>Node8&#45;&gt;Node10</title>
<g id="a_edge10_Node000008_Node000010"><a xlink:title=" ">
<path fill="none" stroke="#63b8ff" d="M447.98,-109.98C456.7,-102.15 469.84,-90.34 480.4,-80.86"/>
<polygon fill="#63b8ff" stroke="#63b8ff" points="482.75,-83.46 487.85,-74.17 478.07,-78.25 482.75,-83.46"/>
</a>
</g>
</g>
<!-- Node11 -->
<g id="Node000011" class="node">
<title>Node11</title>
<g id="a_Node000011"><a xlink:title=" ">
<polygon fill="#e0e0e0" stroke="#999999" points="614.5,-74 542.5,-74 542.5,-55 614.5,-55 614.5,-74"/>
<text text-anchor="middle" x="578.5" y="-62" font-family="Helvetica,sans-Serif" font-size="10.00">sys/types.h</text>
</a>
</g>
</g>
<!-- Node8&#45;&gt;Node11 -->
<g id="edge11_Node000008_Node000011" class="edge">
<title>Node8&#45;&gt;Node11</title>
<g id="a_edge11_Node000008_Node000011"><a xlink:title=" ">
<path fill="none" stroke="#63b8ff" d="M460.99,-109.98C484.02,-101.27 520.04,-87.63 546.13,-77.75"/>
<polygon fill="#63b8ff" stroke="#63b8ff" points="547.48,-80.98 555.6,-74.17 545.01,-74.44 547.48,-80.98"/>
</a>
</g>
</g>
<!-- Node12&#45;&gt;Node4 -->
<g id="edge13_Node000012_Node000004" class="edge">
<title>Node12&#45;&gt;Node4</title>
<g id="a_edge13_Node000012_Node000004"><a xlink:title=" ">
<path fill="none" stroke="#63b8ff" d="M77.07,-109.98C87.92,-102 104.38,-89.88 117.38,-80.31"/>
<polygon fill="#63b8ff" stroke="#63b8ff" points="119.74,-82.92 125.72,-74.17 115.59,-77.28 119.74,-82.92"/>
</a>
</g>
</g>
<!-- Node13&#45;&gt;Node3 -->
<g id="edge15_Node000013_Node000003" class="edge">
<title>Node13&#45;&gt;Node3</title>
<g id="a_edge15_Node000013_Node000003"><a xlink:title=" ">
<path fill="none" stroke="#63b8ff" d="M218.65,-109.75C220.37,-102.72 222.85,-92.62 225,-83.84"/>
<polygon fill="#63b8ff" stroke="#63b8ff" points="228.41,-84.63 227.39,-74.09 221.61,-82.97 228.41,-84.63"/>
</a>
</g>
</g>
<!-- Node13&#45;&gt;Node4 -->
<g id="edge16_Node000013_Node000004" class="edge">
<title>Node13&#45;&gt;Node4</title>
<g id="a_edge16_Node000013_Node000004"><a xlink:title=" ">
<path fill="none" stroke="#63b8ff" d="M203.81,-109.98C191.67,-101.84 173.14,-89.41 158.75,-79.76"/>
<polygon fill="#63b8ff" stroke="#63b8ff" points="160.68,-76.84 150.42,-74.17 156.78,-82.65 160.68,-76.84"/>
</a>
</g>
</g>
</g>
</svg>
