<?xml version="1.0" encoding="UTF-8" standalone="no"?>
<!DOCTYPE svg PUBLIC "-//W3C//DTD SVG 1.1//EN"
 "http://www.w3.org/Graphics/SVG/1.1/DTD/svg11.dtd">
<!-- Generated by graphviz version 2.43.0 (0)
 -->
<!-- Title: src/core/shm/kv_internal.h Pages: 1 -->
<svg width="264pt" height="82pt"
 viewBox="0.00 0.00 264.00 82.00" xmlns="http://www.w3.org/2000/svg" xmlns:xlink="http://www.w3.org/1999/xlink">
<g id="graph0" class="graph" transform="scale(1 1) rotate(0) translate(4 78)">
<title>src/core/shm/kv_internal.h</title>
<!-- Node1 -->
<g id="Node000001" class="node">
<title>Node1</title>
<g id="a_Node000001"><a xlink:title=" ">
<polygon fill="#999999" stroke="#666666" points="191.5,-74 45.5,-74 45.5,-55 191.5,-55 191.5,-74"/>
<text text-anchor="middle" x="118.5" y="-62" font-family="Helvetica,sans-Serif" font-size="10.00">src/core/shm/kv_internal.h</text>
</a>
</g>
</g>
<!-- Node2 -->
<g id="Node000002" class="node">
<title>Node2</title>
<g id="a_Node000002"><a xlink:href="kv_8c.html" target="_top" xlink:title=" ">
<polygon fill="white" stroke="#666666" points="101,-19 0,-19 0,0 101,0 101,-19"/>
<text text-anchor="middle" x="50.5" y="-7" font-family="Helvetica,sans-Serif" font-size="10.00">src/core/shm/kv.c</text>
</a>
</g>
</g>
<!-- Node1&#45;&gt;Node2 -->
<g id="edge1_Node000001_Node000002" class="edge">
<title>Node1&#45;&gt;Node2</title>
<g id="a_edge1_Node000001_Node000002"><a xlink:title=" ">
<path fill="none" stroke="#63b8ff" d="M99.38,-48.6C87.2,-39.11 71.84,-27.13 61.62,-19.17"/>
<polygon fill="#63b8ff" stroke="#63b8ff" points="97.54,-51.6 107.57,-54.98 101.84,-46.08 97.54,-51.6"/>
</a>
</g>
</g>
<!-- Node3 -->
<g id="Node000003" class="node">
<title>Node3</title>
<g id="a_Node000003"><a xlink:href="kv__config_8c.html" target="_top" xlink:title=" ">
<polygon fill="white" stroke="#666666" points="256,-19 119,-19 119,0 256,0 256,-19"/>
<text text-anchor="middle" x="187.5" y="-7" font-family="Helvetica,sans-Serif" font-size="10.00">src/core/shm/kv_config.c</text>
</a>
</g>
</g>
<!-- Node1&#45;&gt;Node3 -->
<g id="edge2_Node000001_Node000003" class="edge">
<title>Node1&#45;&gt;Node3</title>
<g id="a_edge2_Node000001_Node000003"><a xlink:title=" ">
<path fill="none" stroke="#63b8ff" d="M137.54,-48.88C149.96,-39.34 165.74,-27.21 176.21,-19.17"/>
<polygon fill="#63b8ff" stroke="#63b8ff" points="135.38,-46.12 129.59,-54.98 139.65,-51.67 135.38,-46.12"/>
</a>
</g>
</g>
</g>
</svg>
