<?xml version="1.0" encoding="UTF-8" standalone="no"?>
<!DOCTYPE svg PUBLIC "-//W3C//DTD SVG 1.1//EN"
 "http://www.w3.org/Graphics/SVG/1.1/DTD/svg11.dtd">
<!-- Generated by graphviz version 2.43.0 (0)
 -->
<!-- Title: src/core/compat/kxr_names.c Pages: 1 -->
<svg width="234pt" height="104pt"
 viewBox="0.00 0.00 233.50 104.00" xmlns="http://www.w3.org/2000/svg" xmlns:xlink="http://www.w3.org/1999/xlink">
<g id="graph0" class="graph" transform="scale(1 1) rotate(0) translate(4 100)">
<title>src/core/compat/kxr_names.c</title>
<!-- Node1 -->
<g id="Node000001" class="node">
<title>Node1</title>
<g id="a_Node000001"><a xlink:title=" ">
<polygon fill="#999999" stroke="#666666" points="157.5,-96 44.5,-96 44.5,-66 157.5,-66 157.5,-96"/>
<text text-anchor="start" x="52.5" y="-84" font-family="Helvetica,sans-Serif" font-size="10.00">src/core/compat/kxr</text>
<text text-anchor="middle" x="101" y="-73" font-family="Helvetica,sans-Serif" font-size="10.00">_names.c</text>
</a>
</g>
</g>
<!-- Node2 -->
<g id="Node000002" class="node">
<title>Node2</title>
<g id="a_Node000002"><a xlink:href="kxr__names_8h.html" target="_top" xlink:title=" ">
<polygon fill="white" stroke="#666666" points="80,-24.5 0,-24.5 0,-5.5 80,-5.5 80,-24.5"/>
<text text-anchor="middle" x="40" y="-12.5" font-family="Helvetica,sans-Serif" font-size="10.00">kxr_names.h</text>
</a>
</g>
</g>
<!-- Node1&#45;&gt;Node2 -->
<g id="edge1_Node000001_Node000002" class="edge">
<title>Node1&#45;&gt;Node2</title>
<g id="a_edge1_Node000001_Node000002"><a xlink:title=" ">
<path fill="none" stroke="#63b8ff" d="M87.46,-65.8C77.95,-55.82 65.22,-42.46 55.33,-32.09"/>
<polygon fill="#63b8ff" stroke="#63b8ff" points="57.86,-29.67 48.43,-24.84 52.8,-34.5 57.86,-29.67"/>
</a>
</g>
</g>
<!-- Node3 -->
<g id="Node000003" class="node">
<title>Node3</title>
<g id="a_Node000003"><a xlink:href="opcodes_8h.html" target="_top" xlink:title=" ">
<polygon fill="white" stroke="#666666" points="225.5,-30 98.5,-30 98.5,0 225.5,0 225.5,-30"/>
<text text-anchor="start" x="106.5" y="-18" font-family="Helvetica,sans-Serif" font-size="10.00">protocols/root/protocol</text>
<text text-anchor="middle" x="162" y="-7" font-family="Helvetica,sans-Serif" font-size="10.00">/opcodes.h</text>
</a>
</g>
</g>
<!-- Node1&#45;&gt;Node3 -->
<g id="edge2_Node000001_Node000003" class="edge">
<title>Node1&#45;&gt;Node3</title>
<g id="a_edge2_Node000001_Node000003"><a xlink:title=" ">
<path fill="none" stroke="#63b8ff" d="M114.54,-65.8C122.44,-57.51 132.56,-46.89 141.42,-37.59"/>
<polygon fill="#63b8ff" stroke="#63b8ff" points="144.13,-39.82 148.5,-30.16 139.07,-34.99 144.13,-39.82"/>
</a>
</g>
</g>
</g>
</svg>
