<?xml version="1.0" encoding="UTF-8" standalone="no"?>
<!DOCTYPE svg PUBLIC "-//W3C//DTD SVG 1.1//EN"
 "http://www.w3.org/Graphics/SVG/1.1/DTD/svg11.dtd">
<!-- Generated by graphviz version 2.43.0 (0)
 -->
<!-- Title: src/auth/impersonate/lifecycle.h Pages: 1 -->
<!--zoomable 170 -->

<svg id="main" version="1.1" xmlns="http://www.w3.org/2000/svg" xmlns:xlink="http://www.w3.org/1999/xlink" xml:space="preserve" onload="init(evt)">
<style type="text/css"><![CDATA[
.node, .edge {opacity: 0.7;}
.node.selected, .edge.selected {opacity: 1;}
.edge:hover path { stroke: red; }
.edge:hover polygon { stroke: red; fill: red; }
]]></style>

<defs>
  <circle id="rim" cx="0" cy="0" r="7"/>
  <circle id="rim2" cx="0" cy="0" r="3.5"/>
  <g id="zoomPlus">
    <use xlink:href="#rim" fill="#404040"><set attributeName="fill" to="#808080" begin="zoomplus.mouseover" end="zoomplus.mouseout"/></use>
    <path d="M-4,0h8M0,-4v8" fill="none" stroke="white" stroke-width="1.5" pointer-events="none"/>
  </g>
  <g id="zoomMin">
    <use xlink:href="#rim" fill="#404040"><set attributeName="fill" to="#808080" begin="zoomminus.mouseover" end="zoomminus.mouseout"/></use>
    <path d="M-4,0h8" fill="none" stroke="white" stroke-width="1.5" pointer-events="none"/>
  </g>
  <g id="arrowUp" transform="translate(30 24)">
    <use xlink:href="#rim"/>
    <path pointer-events="none" fill="none" stroke="white" stroke-width="1.5" d="M0,-3.0v7 M-2.5,-0.5L0,-3.0L2.5,-0.5"/>
  </g>
  <g id="arrowRight" transform="rotate(90) translate(36 -43)">
    <use xlink:href="#rim"/>
    <path pointer-events="none" fill="none" stroke="white" stroke-width="1.5" d="M0,-3.0v7 M-2.5,-0.5L0,-3.0L2.5,-0.5"/>
  </g>
  <g id="arrowDown" transform="rotate(180) translate(-30 -48)">
    <use xlink:href="#rim"/>
    <path pointer-events="none" fill="none" stroke="white" stroke-width="1.5" d="M0,-3.0v7 M-2.5,-0.5L0,-3.0L2.5,-0.5"/>
  </g>
  <g id="arrowLeft" transform="rotate(270) translate(-36 17)">
    <use xlink:href="#rim"/>
    <path pointer-events="none" fill="none" stroke="white" stroke-width="1.5" d="M0,-3.0v7 M-2.5,-0.5L0,-3.0L2.5,-0.5"/>
  </g>
  <g id="resetDef">
    <use xlink:href="#rim2" fill="#404040"><set attributeName="fill" to="#808080" begin="reset.mouseover" end="reset.mouseout"/></use>
  </g>
</defs>
<script type="application/ecmascript">
var viewWidth = 4138;
var viewHeight = 170;
var sectionId = 'dynsection-1';
</script>
<script type="application/ecmascript" xlink:href="svg.min.js"/>
<svg id="graph" class="graph">
<g id="viewport">
<title>src/auth/impersonate/lifecycle.h</title>
<!-- Node1 -->
<g id="Node000001" class="node">
<title>Node1</title>
<g id="a_Node000001"><a xlink:title=" ">
<polygon fill="#999999" stroke="#666666" points="2207,-162 2087,-162 2087,-132 2207,-132 2207,-162"/>
<text text-anchor="start" x="2095" y="-150" font-family="Helvetica,sans-Serif" font-size="10.00">src/auth/impersonate</text>
<text text-anchor="middle" x="2147" y="-139" font-family="Helvetica,sans-Serif" font-size="10.00">/lifecycle.h</text>
</a>
</g>
</g>
<!-- Node2 -->
<g id="Node000002" class="node">
<title>Node2</title>
<g id="a_Node000002"><a xlink:href="auth_2impersonate_2lifecycle_8c.html" target="_top" xlink:title=" ">
<polygon fill="white" stroke="#666666" points="120,-96 0,-96 0,-66 120,-66 120,-96"/>
<text text-anchor="start" x="8" y="-84" font-family="Helvetica,sans-Serif" font-size="10.00">src/auth/impersonate</text>
<text text-anchor="middle" x="60" y="-73" font-family="Helvetica,sans-Serif" font-size="10.00">/lifecycle.c</text>
</a>
</g>
</g>
<!-- Node1&#45;&gt;Node2 -->
<g id="edge1_Node000001_Node000002" class="edge">
<title>Node1&#45;&gt;Node2</title>
<g id="a_edge1_Node000001_Node000002"><a xlink:title=" ">
<path fill="none" stroke="#63b8ff" d="M2076.34,-145.91C1765.53,-145.27 518.09,-139.95 129,-96 126.08,-95.67 123.11,-95.28 120.11,-94.84"/>
<polygon fill="#63b8ff" stroke="#63b8ff" points="2076.56,-149.41 2086.57,-145.93 2076.58,-142.41 2076.56,-149.41"/>
</a>
</g>
</g>
<!-- Node3 -->
<g id="Node000003" class="node">
<title>Node3</title>
<g id="a_Node000003"><a xlink:href="lifecycle__broker_8c.html" target="_top" xlink:title=" ">
<polygon fill="white" stroke="#666666" points="258,-96 138,-96 138,-66 258,-66 258,-96"/>
<text text-anchor="start" x="146" y="-84" font-family="Helvetica,sans-Serif" font-size="10.00">src/auth/impersonate</text>
<text text-anchor="middle" x="198" y="-73" font-family="Helvetica,sans-Serif" font-size="10.00">/lifecycle_broker.c</text>
</a>
</g>
</g>
<!-- Node1&#45;&gt;Node3 -->
<g id="edge2_Node000001_Node000003" class="edge">
<title>Node1&#45;&gt;Node3</title>
<g id="a_edge2_Node000001_Node000003"><a xlink:title=" ">
<path fill="none" stroke="#63b8ff" d="M2076.34,-145.76C1778.92,-144.51 627.48,-137.05 267,-96 264.09,-95.67 261.11,-95.28 258.11,-94.84"/>
<polygon fill="#63b8ff" stroke="#63b8ff" points="2076.55,-149.26 2086.56,-145.8 2076.58,-142.26 2076.55,-149.26"/>
</a>
</g>
</g>
<!-- Node4 -->
<g id="Node000004" class="node">
<title>Node4</title>
<g id="a_Node000004"><a xlink:href="lifecycle__worker_8c.html" target="_top" xlink:title=" ">
<polygon fill="white" stroke="#666666" points="396,-96 276,-96 276,-66 396,-66 396,-96"/>
<text text-anchor="start" x="284" y="-84" font-family="Helvetica,sans-Serif" font-size="10.00">src/auth/impersonate</text>
<text text-anchor="middle" x="336" y="-73" font-family="Helvetica,sans-Serif" font-size="10.00">/lifecycle_worker.c</text>
</a>
</g>
</g>
<!-- Node1&#45;&gt;Node4 -->
<g id="edge3_Node000001_Node000004" class="edge">
<title>Node1&#45;&gt;Node4</title>
<g id="a_edge3_Node000001_Node000004"><a xlink:title=" ">
<path fill="none" stroke="#63b8ff" d="M2076.44,-145.59C1793.05,-143.69 736.98,-134.16 405,-96 402.09,-95.67 399.11,-95.27 396.11,-94.83"/>
<polygon fill="#63b8ff" stroke="#63b8ff" points="2076.57,-149.09 2086.59,-145.66 2076.61,-142.09 2076.57,-149.09"/>
</a>
</g>
</g>
<!-- Node5 -->
<g id="Node000005" class="node">
<title>Node5</title>
<g id="a_Node000005"><a xlink:href="http__common_8c.html" target="_top" xlink:title=" ">
<polygon fill="white" stroke="#666666" points="524,-96 414,-96 414,-66 524,-66 524,-96"/>
<text text-anchor="start" x="422" y="-84" font-family="Helvetica,sans-Serif" font-size="10.00">src/core/config/http</text>
<text text-anchor="middle" x="469" y="-73" font-family="Helvetica,sans-Serif" font-size="10.00">_common.c</text>
</a>
</g>
</g>
<!-- Node1&#45;&gt;Node5 -->
<g id="edge4_Node000001_Node000005" class="edge">
<title>Node1&#45;&gt;Node5</title>
<g id="a_edge4_Node000001_Node000005"><a xlink:title=" ">
<path fill="none" stroke="#63b8ff" d="M2076.74,-145.55C1807.1,-143.54 838.42,-133.81 533,-96 530.07,-95.64 527.07,-95.2 524.05,-94.72"/>
<polygon fill="#63b8ff" stroke="#63b8ff" points="2076.76,-149.05 2086.79,-145.62 2076.82,-142.05 2076.76,-149.05"/>
</a>
</g>
</g>
<!-- Node6 -->
<g id="Node000006" class="node">
<title>Node6</title>
<g id="a_Node000006"><a xlink:href="postconfiguration_8c.html" target="_top" xlink:title=" ">
<polygon fill="white" stroke="#666666" points="725.5,-90.5 542.5,-90.5 542.5,-71.5 725.5,-71.5 725.5,-90.5"/>
<text text-anchor="middle" x="634" y="-78.5" font-family="Helvetica,sans-Serif" font-size="10.00">src/core/config/postconfiguration.c</text>
</a>
</g>
</g>
<!-- Node1&#45;&gt;Node6 -->
<g id="edge5_Node000001_Node000006" class="edge">
<title>Node1&#45;&gt;Node6</title>
<g id="a_edge5_Node000001_Node000006"><a xlink:title=" ">
<path fill="none" stroke="#63b8ff" d="M2076.92,-146.05C1870.77,-145.66 1248.68,-140.58 735,-96 719.66,-94.67 703.08,-92.63 687.87,-90.51"/>
<polygon fill="#63b8ff" stroke="#63b8ff" points="2076.99,-149.55 2087,-146.07 2077,-142.55 2076.99,-149.55"/>
</a>
</g>
</g>
<!-- Node7 -->
<g id="Node000007" class="node">
<title>Node7</title>
<g id="a_Node000007"><a xlink:href="process_8c.html" target="_top" xlink:title=" ">
<polygon fill="white" stroke="#666666" points="880,-90.5 744,-90.5 744,-71.5 880,-71.5 880,-90.5"/>
<text text-anchor="middle" x="812" y="-78.5" font-family="Helvetica,sans-Serif" font-size="10.00">src/core/config/process.c</text>
</a>
</g>
</g>
<!-- Node1&#45;&gt;Node7 -->
<g id="edge6_Node000001_Node000007" class="edge">
<title>Node1&#45;&gt;Node7</title>
<g id="a_edge6_Node000001_Node000007"><a xlink:title=" ">
<path fill="none" stroke="#63b8ff" d="M2076.67,-146.65C1885.31,-147.68 1339.4,-145.65 889,-96 877.25,-94.7 864.59,-92.67 853,-90.55"/>
<polygon fill="#63b8ff" stroke="#63b8ff" points="2076.89,-150.15 2086.87,-146.59 2076.85,-143.15 2076.89,-150.15"/>
</a>
</g>
</g>
<!-- Node8 -->
<g id="Node000008" class="node">
<title>Node8</title>
<g id="a_Node000008"><a xlink:href="tier__build_8c.html" target="_top" xlink:title=" ">
<polygon fill="white" stroke="#666666" points="1017.5,-90.5 898.5,-90.5 898.5,-71.5 1017.5,-71.5 1017.5,-90.5"/>
<text text-anchor="middle" x="958" y="-78.5" font-family="Helvetica,sans-Serif" font-size="10.00">src/fs/tier/tier_build.c</text>
</a>
</g>
</g>
<!-- Node1&#45;&gt;Node8 -->
<g id="edge7_Node000001_Node000008" class="edge">
<title>Node1&#45;&gt;Node8</title>
<g id="a_edge7_Node000001_Node000008"><a xlink:title=" ">
<path fill="none" stroke="#63b8ff" d="M2076.64,-146.72C1899.49,-147.7 1420.96,-145.15 1026,-96 1015.59,-94.71 1004.41,-92.67 994.17,-90.56"/>
<polygon fill="#63b8ff" stroke="#63b8ff" points="2076.89,-150.22 2086.87,-146.66 2076.85,-143.22 2076.89,-150.22"/>
</a>
</g>
</g>
<!-- Node9 -->
<g id="Node000009" class="node">
<title>Node9</title>
<g id="a_Node000009"><a xlink:href="root_2handshake_2dispatch_8c.html" target="_top" xlink:title=" ">
<polygon fill="white" stroke="#666666" points="1160.5,-96 1035.5,-96 1035.5,-66 1160.5,-66 1160.5,-96"/>
<text text-anchor="start" x="1043.5" y="-84" font-family="Helvetica,sans-Serif" font-size="10.00">src/protocols/root</text>
<text text-anchor="middle" x="1098" y="-73" font-family="Helvetica,sans-Serif" font-size="10.00">/handshake/dispatch.c</text>
</a>
</g>
</g>
<!-- Node1&#45;&gt;Node9 -->
<g id="edge8_Node000001_Node000009" class="edge">
<title>Node1&#45;&gt;Node9</title>
<g id="a_edge8_Node000001_Node000009"><a xlink:title=" ">
<path fill="none" stroke="#63b8ff" d="M2076.75,-145.79C1915.75,-144.58 1507.97,-137.3 1170,-96 1166.97,-95.63 1163.87,-95.21 1160.75,-94.74"/>
<polygon fill="#63b8ff" stroke="#63b8ff" points="2076.97,-149.29 2086.99,-145.86 2077.02,-142.29 2076.97,-149.29"/>
</a>
</g>
</g>
<!-- Node10 -->
<g id="Node000010" class="node">
<title>Node10</title>
<g id="a_Node000010"><a xlink:href="protocols_2root_2stream_2module_8c.html" target="_top" xlink:title=" ">
<polygon fill="white" stroke="#666666" points="1281,-96 1179,-96 1179,-66 1281,-66 1281,-96"/>
<text text-anchor="start" x="1187" y="-84" font-family="Helvetica,sans-Serif" font-size="10.00">src/protocols/root</text>
<text text-anchor="middle" x="1230" y="-73" font-family="Helvetica,sans-Serif" font-size="10.00">/stream/module.c</text>
</a>
</g>
</g>
<!-- Node1&#45;&gt;Node10 -->
<g id="edge9_Node000001_Node000010" class="edge">
<title>Node1&#45;&gt;Node10</title>
<g id="a_edge9_Node000001_Node000010"><a xlink:title=" ">
<path fill="none" stroke="#63b8ff" d="M2076.68,-145.95C1929.77,-144.96 1579.89,-137.96 1290,-96 1287.14,-95.59 1284.22,-95.1 1281.28,-94.57"/>
<polygon fill="#63b8ff" stroke="#63b8ff" points="2076.88,-149.45 2086.9,-146.01 2076.92,-142.45 2076.88,-149.45"/>
</a>
</g>
</g>
<!-- Node11 -->
<g id="Node000011" class="node">
<title>Node11</title>
<g id="a_Node000011"><a xlink:href="module__definition_8c.html" target="_top" xlink:title=" ">
<polygon fill="white" stroke="#666666" points="1452.5,-96 1299.5,-96 1299.5,-66 1452.5,-66 1452.5,-96"/>
<text text-anchor="start" x="1307.5" y="-84" font-family="Helvetica,sans-Serif" font-size="10.00">src/protocols/root</text>
<text text-anchor="middle" x="1376" y="-73" font-family="Helvetica,sans-Serif" font-size="10.00">/stream/module_definition.c</text>
</a>
</g>
</g>
<!-- Node1&#45;&gt;Node11 -->
<g id="edge10_Node000001_Node000011" class="edge">
<title>Node1&#45;&gt;Node11</title>
<g id="a_edge10_Node000001_Node000011"><a xlink:title=" ">
<path fill="none" stroke="#63b8ff" d="M2076.56,-142.97C1952.05,-137.15 1685.05,-122.56 1461,-96 1458.33,-95.68 1455.61,-95.34 1452.87,-94.98"/>
<polygon fill="#63b8ff" stroke="#63b8ff" points="2076.57,-146.48 2086.72,-143.44 2076.89,-139.48 2076.57,-146.48"/>
</a>
</g>
</g>
<!-- Node12 -->
<g id="Node000012" class="node">
<title>Node12</title>
<g id="a_Node000012"><a xlink:href="delete__objects_8c.html" target="_top" xlink:title=" ">
<polygon fill="white" stroke="#666666" points="1597.5,-96 1470.5,-96 1470.5,-66 1597.5,-66 1597.5,-96"/>
<text text-anchor="start" x="1478.5" y="-84" font-family="Helvetica,sans-Serif" font-size="10.00">src/protocols/s3/delete</text>
<text text-anchor="middle" x="1534" y="-73" font-family="Helvetica,sans-Serif" font-size="10.00">_objects.c</text>
</a>
</g>
</g>
<!-- Node1&#45;&gt;Node12 -->
<g id="edge11_Node000001_Node000012" class="edge">
<title>Node1&#45;&gt;Node12</title>
<g id="a_edge11_Node000001_Node000012"><a xlink:title=" ">
<path fill="none" stroke="#63b8ff" d="M2076.85,-141.69C1973.61,-134.85 1774.8,-119.8 1607,-96 1603.93,-95.57 1600.8,-95.09 1597.64,-94.58"/>
<polygon fill="#63b8ff" stroke="#63b8ff" points="2076.64,-145.18 2086.85,-142.35 2077.1,-138.2 2076.64,-145.18"/>
</a>
</g>
</g>
<!-- Node13 -->
<g id="Node000013" class="node">
<title>Node13</title>
<g id="a_Node000013"><a xlink:href="protocols_2s3_2handler_8c.html" target="_top" xlink:title=" ">
<polygon fill="white" stroke="#666666" points="1756,-90.5 1616,-90.5 1616,-71.5 1756,-71.5 1756,-90.5"/>
<text text-anchor="middle" x="1686" y="-78.5" font-family="Helvetica,sans-Serif" font-size="10.00">src/protocols/s3/handler.c</text>
</a>
</g>
</g>
<!-- Node1&#45;&gt;Node13 -->
<g id="edge12_Node000001_Node000013" class="edge">
<title>Node1&#45;&gt;Node13</title>
<g id="a_edge12_Node000001_Node000013"><a xlink:title=" ">
<path fill="none" stroke="#63b8ff" d="M2076.64,-137.76C1999.9,-128.54 1873.5,-112.71 1765,-96 1754.4,-94.37 1743.03,-92.45 1732.31,-90.57"/>
<polygon fill="#63b8ff" stroke="#63b8ff" points="2076.33,-141.25 2086.67,-138.96 2077.16,-134.3 2076.33,-141.25"/>
</a>
</g>
</g>
<!-- Node14 -->
<g id="Node000014" class="node">
<title>Node14</title>
<g id="a_Node000014"><a xlink:href="handler__dispatch_8c.html" target="_top" xlink:title=" ">
<polygon fill="white" stroke="#666666" points="1907.5,-96 1774.5,-96 1774.5,-66 1907.5,-66 1907.5,-96"/>
<text text-anchor="start" x="1782.5" y="-84" font-family="Helvetica,sans-Serif" font-size="10.00">src/protocols/s3/handler</text>
<text text-anchor="middle" x="1841" y="-73" font-family="Helvetica,sans-Serif" font-size="10.00">_dispatch.c</text>
</a>
</g>
</g>
<!-- Node1&#45;&gt;Node14 -->
<g id="edge13_Node000001_Node000014" class="edge">
<title>Node1&#45;&gt;Node14</title>
<g id="a_edge13_Node000001_Node000014"><a xlink:title=" ">
<path fill="none" stroke="#63b8ff" d="M2076.98,-131.35C2026.1,-120.71 1957.66,-106.4 1907.59,-95.93"/>
<polygon fill="#63b8ff" stroke="#63b8ff" points="2076.4,-134.81 2086.91,-133.43 2077.84,-127.96 2076.4,-134.81"/>
</a>
</g>
</g>
<!-- Node15 -->
<g id="Node000015" class="node">
<title>Node15</title>
<g id="a_Node000015"><a xlink:href="handler__object__route_8c.html" target="_top" xlink:title=" ">
<polygon fill="white" stroke="#666666" points="2058.5,-96 1925.5,-96 1925.5,-66 2058.5,-66 2058.5,-96"/>
<text text-anchor="start" x="1933.5" y="-84" font-family="Helvetica,sans-Serif" font-size="10.00">src/protocols/s3/handler</text>
<text text-anchor="middle" x="1992" y="-73" font-family="Helvetica,sans-Serif" font-size="10.00">_object_route.c</text>
</a>
</g>
</g>
<!-- Node1&#45;&gt;Node15 -->
<g id="edge14_Node000001_Node000015" class="edge">
<title>Node1&#45;&gt;Node15</title>
<g id="a_edge14_Node000001_Node000015"><a xlink:title=" ">
<path fill="none" stroke="#63b8ff" d="M2103.54,-128.05C2078.98,-117.91 2048.73,-105.43 2025.94,-96.01"/>
<polygon fill="#63b8ff" stroke="#63b8ff" points="2102.41,-131.37 2112.98,-131.95 2105.08,-124.9 2102.41,-131.37"/>
</a>
</g>
</g>
<!-- Node16 -->
<g id="Node000016" class="node">
<title>Node16</title>
<g id="a_Node000016"><a xlink:href="multipart__complete__body_8c.html" target="_top" xlink:title=" ">
<polygon fill="white" stroke="#666666" points="2217.5,-96 2076.5,-96 2076.5,-66 2217.5,-66 2217.5,-96"/>
<text text-anchor="start" x="2084.5" y="-84" font-family="Helvetica,sans-Serif" font-size="10.00">src/protocols/s3/multipart</text>
<text text-anchor="middle" x="2147" y="-73" font-family="Helvetica,sans-Serif" font-size="10.00">_complete_body.c</text>
</a>
</g>
</g>
<!-- Node1&#45;&gt;Node16 -->
<g id="edge15_Node000001_Node000016" class="edge">
<title>Node1&#45;&gt;Node16</title>
<g id="a_edge15_Node000001_Node000016"><a xlink:title=" ">
<path fill="none" stroke="#63b8ff" d="M2147,-121.54C2147,-112.96 2147,-103.61 2147,-96.16"/>
<polygon fill="#63b8ff" stroke="#63b8ff" points="2143.5,-121.8 2147,-131.8 2150.5,-121.8 2143.5,-121.8"/>
</a>
</g>
</g>
<!-- Node17 -->
<g id="Node000017" class="node">
<title>Node17</title>
<g id="a_Node000017"><a xlink:href="s3__post__internal_8h.html" target="_top" xlink:title=" ">
<polygon fill="white" stroke="#666666" points="2342.5,-96 2235.5,-96 2235.5,-66 2342.5,-66 2342.5,-96"/>
<text text-anchor="start" x="2243.5" y="-84" font-family="Helvetica,sans-Serif" font-size="10.00">src/protocols/s3/s3</text>
<text text-anchor="middle" x="2289" y="-73" font-family="Helvetica,sans-Serif" font-size="10.00">_post_internal.h</text>
</a>
</g>
</g>
<!-- Node1&#45;&gt;Node17 -->
<g id="edge16_Node000001_Node000017" class="edge">
<title>Node1&#45;&gt;Node17</title>
<g id="a_edge16_Node000001_Node000017"><a xlink:title=" ">
<path fill="none" stroke="#63b8ff" d="M2187.42,-127.78C2209.8,-117.69 2237.21,-105.34 2257.91,-96.01"/>
<polygon fill="#63b8ff" stroke="#63b8ff" points="2185.84,-124.65 2178.16,-131.95 2188.72,-131.04 2185.84,-124.65"/>
</a>
</g>
</g>
<!-- Node24 -->
<g id="Node000024" class="node">
<title>Node24</title>
<g id="a_Node000024"><a xlink:href="s3__put__internal_8h.html" target="_top" xlink:title=" ">
<polygon fill="white" stroke="#666666" points="2467.5,-96 2360.5,-96 2360.5,-66 2467.5,-66 2467.5,-96"/>
<text text-anchor="start" x="2368.5" y="-84" font-family="Helvetica,sans-Serif" font-size="10.00">src/protocols/s3/s3</text>
<text text-anchor="middle" x="2414" y="-73" font-family="Helvetica,sans-Serif" font-size="10.00">_put_internal.h</text>
</a>
</g>
</g>
<!-- Node1&#45;&gt;Node24 -->
<g id="edge23_Node000001_Node000024" class="edge">
<title>Node1&#45;&gt;Node24</title>
<g id="a_edge23_Node000001_Node000024"><a xlink:title=" ">
<path fill="none" stroke="#63b8ff" d="M2215.56,-129.57C2260.5,-118.79 2318.43,-104.91 2360.08,-94.92"/>
<polygon fill="#63b8ff" stroke="#63b8ff" points="2214.5,-126.22 2205.59,-131.95 2216.13,-133.03 2214.5,-126.22"/>
</a>
</g>
</g>
<!-- Node31 -->
<g id="Node000031" class="node">
<title>Node31</title>
<g id="a_Node000031"><a xlink:href="webdav_2dispatch_8c.html" target="_top" xlink:title=" ">
<polygon fill="white" stroke="#666666" points="2606,-96 2486,-96 2486,-66 2606,-66 2606,-96"/>
<text text-anchor="start" x="2494" y="-84" font-family="Helvetica,sans-Serif" font-size="10.00">src/protocols/webdav</text>
<text text-anchor="middle" x="2546" y="-73" font-family="Helvetica,sans-Serif" font-size="10.00">/dispatch.c</text>
</a>
</g>
</g>
<!-- Node1&#45;&gt;Node31 -->
<g id="edge30_Node000001_Node000031" class="edge">
<title>Node1&#45;&gt;Node31</title>
<g id="a_edge30_Node000001_Node000031"><a xlink:title=" ">
<path fill="none" stroke="#63b8ff" d="M2217.15,-136.3C2283.87,-126.86 2386.97,-111.66 2476,-96 2479.17,-95.44 2482.42,-94.85 2485.7,-94.24"/>
<polygon fill="#63b8ff" stroke="#63b8ff" points="2216.58,-132.85 2207.17,-137.71 2217.56,-139.78 2216.58,-132.85"/>
</a>
</g>
</g>
<!-- Node32 -->
<g id="Node000032" class="node">
<title>Node32</title>
<g id="a_Node000032"><a xlink:href="protocols_2webdav_2lock_8c.html" target="_top" xlink:title=" ">
<polygon fill="white" stroke="#666666" points="2744,-96 2624,-96 2624,-66 2744,-66 2744,-96"/>
<text text-anchor="start" x="2632" y="-84" font-family="Helvetica,sans-Serif" font-size="10.00">src/protocols/webdav</text>
<text text-anchor="middle" x="2684" y="-73" font-family="Helvetica,sans-Serif" font-size="10.00">/lock.c</text>
</a>
</g>
</g>
<!-- Node1&#45;&gt;Node32 -->
<g id="edge31_Node000001_Node000032" class="edge">
<title>Node1&#45;&gt;Node32</title>
<g id="a_edge31_Node000001_Node000032"><a xlink:title=" ">
<path fill="none" stroke="#63b8ff" d="M2217.07,-140.58C2308.82,-133 2474.51,-117.71 2615,-96 2617.9,-95.55 2620.86,-95.06 2623.85,-94.55"/>
<polygon fill="#63b8ff" stroke="#63b8ff" points="2216.75,-137.09 2207.07,-141.4 2217.33,-144.07 2216.75,-137.09"/>
</a>
</g>
</g>
<!-- Node33 -->
<g id="Node000033" class="node">
<title>Node33</title>
<g id="a_Node000033"><a xlink:href="lock__check_8c.html" target="_top" xlink:title=" ">
<polygon fill="white" stroke="#666666" points="2882,-96 2762,-96 2762,-66 2882,-66 2882,-96"/>
<text text-anchor="start" x="2770" y="-84" font-family="Helvetica,sans-Serif" font-size="10.00">src/protocols/webdav</text>
<text text-anchor="middle" x="2822" y="-73" font-family="Helvetica,sans-Serif" font-size="10.00">/lock_check.c</text>
</a>
</g>
</g>
<!-- Node1&#45;&gt;Node33 -->
<g id="edge32_Node000001_Node000033" class="edge">
<title>Node1&#45;&gt;Node33</title>
<g id="a_edge32_Node000001_Node000033"><a xlink:title=" ">
<path fill="none" stroke="#63b8ff" d="M2217.3,-142.89C2330.55,-137.29 2560.18,-123.42 2753,-96 2755.9,-95.59 2758.87,-95.13 2761.86,-94.64"/>
<polygon fill="#63b8ff" stroke="#63b8ff" points="2216.86,-139.41 2207.04,-143.39 2217.2,-146.4 2216.86,-139.41"/>
</a>
</g>
</g>
<!-- Node34 -->
<g id="Node000034" class="node">
<title>Node34</title>
<g id="a_Node000034"><a xlink:href="lock__discovery_8c.html" target="_top" xlink:title=" ">
<polygon fill="white" stroke="#666666" points="3020,-96 2900,-96 2900,-66 3020,-66 3020,-96"/>
<text text-anchor="start" x="2908" y="-84" font-family="Helvetica,sans-Serif" font-size="10.00">src/protocols/webdav</text>
<text text-anchor="middle" x="2960" y="-73" font-family="Helvetica,sans-Serif" font-size="10.00">/lock_discovery.c</text>
</a>
</g>
</g>
<!-- Node1&#45;&gt;Node34 -->
<g id="edge33_Node000001_Node000034" class="edge">
<title>Node1&#45;&gt;Node34</title>
<g id="a_edge33_Node000001_Node000034"><a xlink:title=" ">
<path fill="none" stroke="#63b8ff" d="M2217.06,-144.4C2349.33,-140.68 2644.66,-129.12 2891,-96 2893.91,-95.61 2896.88,-95.17 2899.87,-94.69"/>
<polygon fill="#63b8ff" stroke="#63b8ff" points="2216.96,-140.9 2207.06,-144.67 2217.16,-147.9 2216.96,-140.9"/>
</a>
</g>
</g>
<!-- Node35 -->
<g id="Node000035" class="node">
<title>Node35</title>
<g id="a_Node000035"><a xlink:href="methods__basic_8c.html" target="_top" xlink:title=" ">
<polygon fill="white" stroke="#666666" points="3158,-96 3038,-96 3038,-66 3158,-66 3158,-96"/>
<text text-anchor="start" x="3046" y="-84" font-family="Helvetica,sans-Serif" font-size="10.00">src/protocols/webdav</text>
<text text-anchor="middle" x="3098" y="-73" font-family="Helvetica,sans-Serif" font-size="10.00">/methods_basic.c</text>
</a>
</g>
</g>
<!-- Node1&#45;&gt;Node35 -->
<g id="edge34_Node000001_Node000035" class="edge">
<title>Node1&#45;&gt;Node35</title>
<g id="a_edge34_Node000001_Node000035"><a xlink:title=" ">
<path fill="none" stroke="#63b8ff" d="M2217.59,-145.43C2367.6,-143.47 2728.94,-134.74 3029,-96 3031.91,-95.62 3034.88,-95.2 3037.87,-94.73"/>
<polygon fill="#63b8ff" stroke="#63b8ff" points="2217.12,-141.94 2207.16,-145.56 2217.21,-148.93 2217.12,-141.94"/>
</a>
</g>
</g>
<!-- Node36 -->
<g id="Node000036" class="node">
<title>Node36</title>
<g id="a_Node000036"><a xlink:href="methods__proppatch_8c.html" target="_top" xlink:title=" ">
<polygon fill="white" stroke="#666666" points="3301.5,-96 3176.5,-96 3176.5,-66 3301.5,-66 3301.5,-96"/>
<text text-anchor="start" x="3184.5" y="-84" font-family="Helvetica,sans-Serif" font-size="10.00">src/protocols/webdav</text>
<text text-anchor="middle" x="3239" y="-73" font-family="Helvetica,sans-Serif" font-size="10.00">/methods_proppatch.c</text>
</a>
</g>
</g>
<!-- Node1&#45;&gt;Node36 -->
<g id="edge35_Node000001_Node000036" class="edge">
<title>Node1&#45;&gt;Node36</title>
<g id="a_edge35_Node000001_Node000036"><a xlink:title=" ">
<path fill="none" stroke="#63b8ff" d="M2217.1,-146.01C2382.89,-145.28 2811.86,-139.01 3167,-96 3170.03,-95.63 3173.13,-95.21 3176.26,-94.75"/>
<polygon fill="#63b8ff" stroke="#63b8ff" points="2217.02,-142.51 2207.04,-146.05 2217.05,-149.51 2217.02,-142.51"/>
</a>
</g>
</g>
<!-- Node37 -->
<g id="Node000037" class="node">
<title>Node37</title>
<g id="a_Node000037"><a xlink:href="propfind__internal_8h.html" target="_top" xlink:title=" ">
<polygon fill="white" stroke="#666666" points="3440,-96 3320,-96 3320,-66 3440,-66 3440,-96"/>
<text text-anchor="start" x="3328" y="-84" font-family="Helvetica,sans-Serif" font-size="10.00">src/protocols/webdav</text>
<text text-anchor="middle" x="3380" y="-73" font-family="Helvetica,sans-Serif" font-size="10.00">/propfind_internal.h</text>
</a>
</g>
</g>
<!-- Node1&#45;&gt;Node37 -->
<g id="edge36_Node000001_Node000037" class="edge">
<title>Node1&#45;&gt;Node37</title>
<g id="a_edge36_Node000001_Node000037"><a xlink:title=" ">
<path fill="none" stroke="#63b8ff" d="M2217.16,-144.43C2434.93,-139.35 3097.43,-122.09 3311,-96 3313.91,-95.64 3316.88,-95.23 3319.88,-94.78"/>
<polygon fill="#63b8ff" stroke="#63b8ff" points="2217.05,-140.94 2207.13,-144.67 2217.21,-147.93 2217.05,-140.94"/>
</a>
</g>
</g>
<!-- Node42 -->
<g id="Node000042" class="node">
<title>Node42</title>
<g id="a_Node000042"><a xlink:href="webdav_2put_8c.html" target="_top" xlink:title=" ">
<polygon fill="white" stroke="#666666" points="3578,-96 3458,-96 3458,-66 3578,-66 3578,-96"/>
<text text-anchor="start" x="3466" y="-84" font-family="Helvetica,sans-Serif" font-size="10.00">src/protocols/webdav</text>
<text text-anchor="middle" x="3518" y="-73" font-family="Helvetica,sans-Serif" font-size="10.00">/put.c</text>
</a>
</g>
</g>
<!-- Node1&#45;&gt;Node42 -->
<g id="edge41_Node000001_Node000042" class="edge">
<title>Node1&#45;&gt;Node42</title>
<g id="a_edge41_Node000001_Node000042"><a xlink:title=" ">
<path fill="none" stroke="#63b8ff" d="M2217.33,-144.8C2452.08,-140.56 3207.36,-124.96 3449,-96 3451.91,-95.65 3454.89,-95.24 3457.88,-94.79"/>
<polygon fill="#63b8ff" stroke="#63b8ff" points="2217.15,-141.3 2207.21,-144.98 2217.28,-148.3 2217.15,-141.3"/>
</a>
</g>
</g>
<!-- Node43 -->
<g id="Node000043" class="node">
<title>Node43</title>
<g id="a_Node000043"><a xlink:href="put__body_8c.html" target="_top" xlink:title=" ">
<polygon fill="white" stroke="#666666" points="3716,-96 3596,-96 3596,-66 3716,-66 3716,-96"/>
<text text-anchor="start" x="3604" y="-84" font-family="Helvetica,sans-Serif" font-size="10.00">src/protocols/webdav</text>
<text text-anchor="middle" x="3656" y="-73" font-family="Helvetica,sans-Serif" font-size="10.00">/put_body.c</text>
</a>
</g>
</g>
<!-- Node1&#45;&gt;Node43 -->
<g id="edge42_Node000001_Node000043" class="edge">
<title>Node1&#45;&gt;Node43</title>
<g id="a_edge42_Node000001_Node000043"><a xlink:title=" ">
<path fill="none" stroke="#63b8ff" d="M2217.48,-145.1C2468.34,-141.65 3317.16,-127.84 3587,-96 3589.91,-95.66 3592.89,-95.25 3595.88,-94.81"/>
<polygon fill="#63b8ff" stroke="#63b8ff" points="2217.35,-141.6 2207.4,-145.24 2217.44,-148.6 2217.35,-141.6"/>
</a>
</g>
</g>
<!-- Node44 -->
<g id="Node000044" class="node">
<title>Node44</title>
<g id="a_Node000044"><a xlink:href="put__body__digest_8c.html" target="_top" xlink:title=" ">
<polygon fill="white" stroke="#666666" points="3854,-96 3734,-96 3734,-66 3854,-66 3854,-96"/>
<text text-anchor="start" x="3742" y="-84" font-family="Helvetica,sans-Serif" font-size="10.00">src/protocols/webdav</text>
<text text-anchor="middle" x="3794" y="-73" font-family="Helvetica,sans-Serif" font-size="10.00">/put_body_digest.c</text>
</a>
</g>
</g>
<!-- Node1&#45;&gt;Node44 -->
<g id="edge43_Node000001_Node000044" class="edge">
<title>Node1&#45;&gt;Node44</title>
<g id="a_edge43_Node000001_Node000044"><a xlink:title=" ">
<path fill="none" stroke="#63b8ff" d="M2217.41,-145.35C2483.37,-142.63 3426.78,-130.73 3725,-96 3727.91,-95.66 3730.89,-95.26 3733.89,-94.82"/>
<polygon fill="#63b8ff" stroke="#63b8ff" points="2217.08,-141.85 2207.12,-145.45 2217.15,-148.85 2217.08,-141.85"/>
</a>
</g>
</g>
<!-- Node45 -->
<g id="Node000045" class="node">
<title>Node45</title>
<g id="a_Node000045"><a xlink:href="put__setup_8c.html" target="_top" xlink:title=" ">
<polygon fill="white" stroke="#666666" points="3992,-96 3872,-96 3872,-66 3992,-66 3992,-96"/>
<text text-anchor="start" x="3880" y="-84" font-family="Helvetica,sans-Serif" font-size="10.00">src/protocols/webdav</text>
<text text-anchor="middle" x="3932" y="-73" font-family="Helvetica,sans-Serif" font-size="10.00">/put_setup.c</text>
</a>
</g>
</g>
<!-- Node1&#45;&gt;Node45 -->
<g id="edge44_Node000001_Node000045" class="edge">
<title>Node1&#45;&gt;Node45</title>
<g id="a_edge44_Node000001_Node000045"><a xlink:title=" ">
<path fill="none" stroke="#63b8ff" d="M2217.45,-145.55C2497.99,-143.53 3536.35,-133.62 3863,-96 3865.91,-95.66 3868.89,-95.27 3871.89,-94.83"/>
<polygon fill="#63b8ff" stroke="#63b8ff" points="2217.37,-142.06 2207.39,-145.63 2217.42,-149.06 2217.37,-142.06"/>
</a>
</g>
</g>
<!-- Node46 -->
<g id="Node000046" class="node">
<title>Node46</title>
<g id="a_Node000046"><a xlink:href="search_8c.html" target="_top" xlink:title=" ">
<polygon fill="white" stroke="#666666" points="4130,-96 4010,-96 4010,-66 4130,-66 4130,-96"/>
<text text-anchor="start" x="4018" y="-84" font-family="Helvetica,sans-Serif" font-size="10.00">src/protocols/webdav</text>
<text text-anchor="middle" x="4070" y="-73" font-family="Helvetica,sans-Serif" font-size="10.00">/search.c</text>
</a>
</g>
</g>
<!-- Node1&#45;&gt;Node46 -->
<g id="edge45_Node000001_Node000046" class="edge">
<title>Node1&#45;&gt;Node46</title>
<g id="a_edge45_Node000001_Node000046"><a xlink:title=" ">
<path fill="none" stroke="#63b8ff" d="M2217.17,-145.73C2511.25,-144.37 3645.71,-136.53 4001,-96 4003.91,-95.67 4006.89,-95.27 4009.89,-94.83"/>
<polygon fill="#63b8ff" stroke="#63b8ff" points="2217.05,-142.23 2207.06,-145.78 2217.08,-149.23 2217.05,-142.23"/>
</a>
</g>
</g>
<!-- Node18 -->
<g id="Node000018" class="node">
<title>Node18</title>
<g id="a_Node000018"><a xlink:href="post__form_8c.html" target="_top" xlink:title=" ">
<polygon fill="white" stroke="#666666" points="1666.5,-30 1549.5,-30 1549.5,0 1666.5,0 1666.5,-30"/>
<text text-anchor="start" x="1557.5" y="-18" font-family="Helvetica,sans-Serif" font-size="10.00">src/protocols/s3/post</text>
<text text-anchor="middle" x="1608" y="-7" font-family="Helvetica,sans-Serif" font-size="10.00">_form.c</text>
</a>
</g>
</g>
<!-- Node17&#45;&gt;Node18 -->
<g id="edge17_Node000017_Node000018" class="edge">
<title>Node17&#45;&gt;Node18</title>
<g id="a_edge17_Node000017_Node000018"><a xlink:title=" ">
<path fill="none" stroke="#63b8ff" d="M2225.24,-66.07C1981.25,-32.14 1914.83,-62.73 1675,-30 1672.29,-29.63 1669.53,-29.21 1666.74,-28.76"/>
<polygon fill="#63b8ff" stroke="#63b8ff" points="2225.1,-69.59 2235.49,-67.52 2226.07,-62.66 2225.1,-69.59"/>
</a>
</g>
</g>
<!-- Node19 -->
<g id="Node000019" class="node">
<title>Node19</title>
<g id="a_Node000019"><a xlink:href="post__form__multipart_8c.html" target="_top" xlink:title=" ">
<polygon fill="white" stroke="#666666" points="1801.5,-30 1684.5,-30 1684.5,0 1801.5,0 1801.5,-30"/>
<text text-anchor="start" x="1692.5" y="-18" font-family="Helvetica,sans-Serif" font-size="10.00">src/protocols/s3/post</text>
<text text-anchor="middle" x="1743" y="-7" font-family="Helvetica,sans-Serif" font-size="10.00">_form_multipart.c</text>
</a>
</g>
</g>
<!-- Node17&#45;&gt;Node19 -->
<g id="edge18_Node000017_Node000019" class="edge">
<title>Node17&#45;&gt;Node19</title>
<g id="a_edge18_Node000017_Node000019"><a xlink:title=" ">
<path fill="none" stroke="#63b8ff" d="M2225.43,-66.07C2040.81,-38.47 1990.37,-56.55 1810,-30 1807.3,-29.6 1804.54,-29.16 1801.75,-28.69"/>
<polygon fill="#63b8ff" stroke="#63b8ff" points="2225.06,-69.56 2235.47,-67.6 2226.11,-62.64 2225.06,-69.56"/>
</a>
</g>
</g>
<!-- Node20 -->
<g id="Node000020" class="node">
<title>Node20</title>
<g id="a_Node000020"><a xlink:href="post__object_8c.html" target="_top" xlink:title=" ">
<polygon fill="white" stroke="#666666" points="1936.5,-30 1819.5,-30 1819.5,0 1936.5,0 1936.5,-30"/>
<text text-anchor="start" x="1827.5" y="-18" font-family="Helvetica,sans-Serif" font-size="10.00">src/protocols/s3/post</text>
<text text-anchor="middle" x="1878" y="-7" font-family="Helvetica,sans-Serif" font-size="10.00">_object.c</text>
</a>
</g>
</g>
<!-- Node17&#45;&gt;Node20 -->
<g id="edge19_Node000017_Node000020" class="edge">
<title>Node17&#45;&gt;Node20</title>
<g id="a_edge19_Node000017_Node000020"><a xlink:title=" ">
<path fill="none" stroke="#63b8ff" d="M2225.47,-66.02C2100.25,-44.64 2066.01,-50.36 1945,-30 1942.3,-29.55 1939.55,-29.06 1936.78,-28.55"/>
<polygon fill="#63b8ff" stroke="#63b8ff" points="2225,-69.49 2235.45,-67.75 2226.19,-62.6 2225,-69.49"/>
</a>
</g>
</g>
<!-- Node21 -->
<g id="Node000021" class="node">
<title>Node21</title>
<g id="a_Node000021"><a xlink:href="post__policy_8c.html" target="_top" xlink:title=" ">
<polygon fill="white" stroke="#666666" points="2071.5,-30 1954.5,-30 1954.5,0 2071.5,0 2071.5,-30"/>
<text text-anchor="start" x="1962.5" y="-18" font-family="Helvetica,sans-Serif" font-size="10.00">src/protocols/s3/post</text>
<text text-anchor="middle" x="2013" y="-7" font-family="Helvetica,sans-Serif" font-size="10.00">_policy.c</text>
</a>
</g>
</g>
<!-- Node17&#45;&gt;Node21 -->
<g id="edge20_Node000017_Node000021" class="edge">
<title>Node17&#45;&gt;Node21</title>
<g id="a_edge20_Node000017_Node000021"><a xlink:title=" ">
<path fill="none" stroke="#63b8ff" d="M2225.53,-65.28C2179.18,-54.54 2116.82,-40.07 2071.65,-29.6"/>
<polygon fill="#63b8ff" stroke="#63b8ff" points="2224.92,-68.73 2235.46,-67.58 2226.51,-61.92 2224.92,-68.73"/>
</a>
</g>
</g>
<!-- Node22 -->
<g id="Node000022" class="node">
<title>Node22</title>
<g id="a_Node000022"><a xlink:href="post__policy__conditions_8c.html" target="_top" xlink:title=" ">
<polygon fill="white" stroke="#666666" points="2206.5,-30 2089.5,-30 2089.5,0 2206.5,0 2206.5,-30"/>
<text text-anchor="start" x="2097.5" y="-18" font-family="Helvetica,sans-Serif" font-size="10.00">src/protocols/s3/post</text>
<text text-anchor="middle" x="2148" y="-7" font-family="Helvetica,sans-Serif" font-size="10.00">_policy_conditions.c</text>
</a>
</g>
</g>
<!-- Node17&#45;&gt;Node22 -->
<g id="edge21_Node000017_Node000022" class="edge">
<title>Node17&#45;&gt;Node22</title>
<g id="a_edge21_Node000017_Node000022"><a xlink:title=" ">
<path fill="none" stroke="#63b8ff" d="M2248.87,-61.78C2226.64,-51.69 2199.43,-39.34 2178.87,-30.01"/>
<polygon fill="#63b8ff" stroke="#63b8ff" points="2247.5,-65.01 2258.06,-65.95 2250.4,-58.63 2247.5,-65.01"/>
</a>
</g>
</g>
<!-- Node23 -->
<g id="Node000023" class="node">
<title>Node23</title>
<g id="a_Node000023"><a xlink:href="post__response_8c.html" target="_top" xlink:title=" ">
<polygon fill="white" stroke="#666666" points="2341.5,-30 2224.5,-30 2224.5,0 2341.5,0 2341.5,-30"/>
<text text-anchor="start" x="2232.5" y="-18" font-family="Helvetica,sans-Serif" font-size="10.00">src/protocols/s3/post</text>
<text text-anchor="middle" x="2283" y="-7" font-family="Helvetica,sans-Serif" font-size="10.00">_response.c</text>
</a>
</g>
</g>
<!-- Node17&#45;&gt;Node23 -->
<g id="edge22_Node000017_Node000023" class="edge">
<title>Node17&#45;&gt;Node23</title>
<g id="a_edge22_Node000017_Node000023"><a xlink:title=" ">
<path fill="none" stroke="#63b8ff" d="M2286.73,-55.83C2285.92,-47.17 2285.03,-37.7 2284.33,-30.16"/>
<polygon fill="#63b8ff" stroke="#63b8ff" points="2283.25,-56.17 2287.67,-65.8 2290.22,-55.51 2283.25,-56.17"/>
</a>
</g>
</g>
<!-- Node25 -->
<g id="Node000025" class="node">
<title>Node25</title>
<g id="a_Node000025"><a xlink:href="s3_2put_8c.html" target="_top" xlink:title=" ">
<polygon fill="white" stroke="#666666" points="2480,-24.5 2360,-24.5 2360,-5.5 2480,-5.5 2480,-24.5"/>
<text text-anchor="middle" x="2420" y="-12.5" font-family="Helvetica,sans-Serif" font-size="10.00">src/protocols/s3/put.c</text>
</a>
</g>
</g>
<!-- Node24&#45;&gt;Node25 -->
<g id="edge24_Node000024_Node000025" class="edge">
<title>Node24&#45;&gt;Node25</title>
<g id="a_edge24_Node000024_Node000025"><a xlink:title=" ">
<path fill="none" stroke="#63b8ff" d="M2416.29,-55.6C2417.3,-44.8 2418.43,-32.78 2419.17,-24.84"/>
<polygon fill="#63b8ff" stroke="#63b8ff" points="2412.78,-55.51 2415.33,-65.8 2419.75,-56.17 2412.78,-55.51"/>
</a>
</g>
</g>
<!-- Node26 -->
<g id="Node000026" class="node">
<title>Node26</title>
<g id="a_Node000026"><a xlink:href="put__aio_8c.html" target="_top" xlink:title=" ">
<polygon fill="white" stroke="#666666" points="2610,-30 2498,-30 2498,0 2610,0 2610,-30"/>
<text text-anchor="start" x="2506" y="-18" font-family="Helvetica,sans-Serif" font-size="10.00">src/protocols/s3/put</text>
<text text-anchor="middle" x="2554" y="-7" font-family="Helvetica,sans-Serif" font-size="10.00">_aio.c</text>
</a>
</g>
</g>
<!-- Node24&#45;&gt;Node26 -->
<g id="edge25_Node000024_Node000026" class="edge">
<title>Node24&#45;&gt;Node26</title>
<g id="a_edge25_Node000024_Node000026"><a xlink:title=" ">
<path fill="none" stroke="#63b8ff" d="M2453.85,-61.78C2475.92,-51.69 2502.94,-39.34 2523.35,-30.01"/>
<polygon fill="#63b8ff" stroke="#63b8ff" points="2452.36,-58.61 2444.72,-65.95 2455.27,-64.98 2452.36,-58.61"/>
</a>
</g>
</g>
<!-- Node27 -->
<g id="Node000027" class="node">
<title>Node27</title>
<g id="a_Node000027"><a xlink:href="put__chunk_8c.html" target="_top" xlink:title=" ">
<polygon fill="white" stroke="#666666" points="2740,-30 2628,-30 2628,0 2740,0 2740,-30"/>
<text text-anchor="start" x="2636" y="-18" font-family="Helvetica,sans-Serif" font-size="10.00">src/protocols/s3/put</text>
<text text-anchor="middle" x="2684" y="-7" font-family="Helvetica,sans-Serif" font-size="10.00">_chunk.c</text>
</a>
</g>
</g>
<!-- Node24&#45;&gt;Node27 -->
<g id="edge26_Node000024_Node000027" class="edge">
<title>Node24&#45;&gt;Node27</title>
<g id="a_edge26_Node000024_Node000027"><a xlink:title=" ">
<path fill="none" stroke="#63b8ff" d="M2477.43,-64.96C2522.98,-54.17 2583.8,-39.75 2627.65,-29.36"/>
<polygon fill="#63b8ff" stroke="#63b8ff" points="2476.59,-61.57 2467.67,-67.28 2478.2,-68.38 2476.59,-61.57"/>
</a>
</g>
</g>
<!-- Node28 -->
<g id="Node000028" class="node">
<title>Node28</title>
<g id="a_Node000028"><a xlink:href="put__finalize_8c.html" target="_top" xlink:title=" ">
<polygon fill="white" stroke="#666666" points="2870,-30 2758,-30 2758,0 2870,0 2870,-30"/>
<text text-anchor="start" x="2766" y="-18" font-family="Helvetica,sans-Serif" font-size="10.00">src/protocols/s3/put</text>
<text text-anchor="middle" x="2814" y="-7" font-family="Helvetica,sans-Serif" font-size="10.00">_finalize.c</text>
</a>
</g>
</g>
<!-- Node24&#45;&gt;Node28 -->
<g id="edge27_Node000024_Node000028" class="edge">
<title>Node24&#45;&gt;Node28</title>
<g id="a_edge27_Node000024_Node000028"><a xlink:title=" ">
<path fill="none" stroke="#63b8ff" d="M2477.6,-66.01C2598.81,-45.06 2632.02,-50.3 2749,-30 2751.84,-29.51 2754.75,-28.98 2757.68,-28.42"/>
<polygon fill="#63b8ff" stroke="#63b8ff" points="2476.8,-62.59 2467.55,-67.77 2478.01,-69.49 2476.8,-62.59"/>
</a>
</g>
</g>
<!-- Node29 -->
<g id="Node000029" class="node">
<title>Node29</title>
<g id="a_Node000029"><a xlink:href="put__inner_8c.html" target="_top" xlink:title=" ">
<polygon fill="white" stroke="#666666" points="3000,-30 2888,-30 2888,0 3000,0 3000,-30"/>
<text text-anchor="start" x="2896" y="-18" font-family="Helvetica,sans-Serif" font-size="10.00">src/protocols/s3/put</text>
<text text-anchor="middle" x="2944" y="-7" font-family="Helvetica,sans-Serif" font-size="10.00">_inner.c</text>
</a>
</g>
</g>
<!-- Node24&#45;&gt;Node29 -->
<g id="edge28_Node000024_Node000029" class="edge">
<title>Node24&#45;&gt;Node29</title>
<g id="a_edge28_Node000024_Node000029"><a xlink:title=" ">
<path fill="none" stroke="#63b8ff" d="M2477.51,-66.08C2656.01,-39.14 2704.86,-56.45 2879,-30 2881.85,-29.57 2884.77,-29.08 2887.71,-28.57"/>
<polygon fill="#63b8ff" stroke="#63b8ff" points="2476.88,-62.63 2467.53,-67.61 2477.94,-69.55 2476.88,-62.63"/>
</a>
</g>
</g>
<!-- Node30 -->
<g id="Node000030" class="node">
<title>Node30</title>
<g id="a_Node000030"><a xlink:href="put__stream_8c.html" target="_top" xlink:title=" ">
<polygon fill="white" stroke="#666666" points="3130,-30 3018,-30 3018,0 3130,0 3130,-30"/>
<text text-anchor="start" x="3026" y="-18" font-family="Helvetica,sans-Serif" font-size="10.00">src/protocols/s3/put</text>
<text text-anchor="middle" x="3074" y="-7" font-family="Helvetica,sans-Serif" font-size="10.00">_stream.c</text>
</a>
</g>
</g>
<!-- Node24&#45;&gt;Node30 -->
<g id="edge29_Node000024_Node000030" class="edge">
<title>Node24&#45;&gt;Node30</title>
<g id="a_edge29_Node000024_Node000030"><a xlink:title=" ">
<path fill="none" stroke="#63b8ff" d="M2477.42,-66.12C2713.31,-33.03 2777.54,-62.58 3009,-30 3011.86,-29.6 3014.78,-29.14 3017.72,-28.64"/>
<polygon fill="#63b8ff" stroke="#63b8ff" points="2476.92,-62.65 2467.51,-67.53 2477.91,-69.58 2476.92,-62.65"/>
</a>
</g>
</g>
<!-- Node38 -->
<g id="Node000038" class="node">
<title>Node38</title>
<g id="a_Node000038"><a xlink:href="propfind_8c.html" target="_top" xlink:title=" ">
<polygon fill="white" stroke="#666666" points="3288,-30 3168,-30 3168,0 3288,0 3288,-30"/>
<text text-anchor="start" x="3176" y="-18" font-family="Helvetica,sans-Serif" font-size="10.00">src/protocols/webdav</text>
<text text-anchor="middle" x="3228" y="-7" font-family="Helvetica,sans-Serif" font-size="10.00">/propfind.c</text>
</a>
</g>
</g>
<!-- Node37&#45;&gt;Node38 -->
<g id="edge37_Node000037_Node000038" class="edge">
<title>Node37&#45;&gt;Node38</title>
<g id="a_edge37_Node000037_Node000038"><a xlink:title=" ">
<path fill="none" stroke="#63b8ff" d="M3337.38,-62.05C3313.3,-51.91 3283.64,-39.43 3261.28,-30.01"/>
<polygon fill="#63b8ff" stroke="#63b8ff" points="3336.07,-65.3 3346.64,-65.95 3338.78,-58.85 3336.07,-65.3"/>
</a>
</g>
</g>
<!-- Node39 -->
<g id="Node000039" class="node">
<title>Node39</title>
<g id="a_Node000039"><a xlink:href="propfind__props_8c.html" target="_top" xlink:title=" ">
<polygon fill="white" stroke="#666666" points="3426,-30 3306,-30 3306,0 3426,0 3426,-30"/>
<text text-anchor="start" x="3314" y="-18" font-family="Helvetica,sans-Serif" font-size="10.00">src/protocols/webdav</text>
<text text-anchor="middle" x="3366" y="-7" font-family="Helvetica,sans-Serif" font-size="10.00">/propfind_props.c</text>
</a>
</g>
</g>
<!-- Node37&#45;&gt;Node39 -->
<g id="edge38_Node000037_Node000039" class="edge">
<title>Node37&#45;&gt;Node39</title>
<g id="a_edge38_Node000037_Node000039"><a xlink:title=" ">
<path fill="none" stroke="#63b8ff" d="M3374.71,-55.83C3372.82,-47.17 3370.75,-37.7 3369.1,-30.16"/>
<polygon fill="#63b8ff" stroke="#63b8ff" points="3371.34,-56.78 3376.89,-65.8 3378.18,-55.28 3371.34,-56.78"/>
</a>
</g>
</g>
<!-- Node40 -->
<g id="Node000040" class="node">
<title>Node40</title>
<g id="a_Node000040"><a xlink:href="propfind__props__acl_8c.html" target="_top" xlink:title=" ">
<polygon fill="white" stroke="#666666" points="3564,-30 3444,-30 3444,0 3564,0 3564,-30"/>
<text text-anchor="start" x="3452" y="-18" font-family="Helvetica,sans-Serif" font-size="10.00">src/protocols/webdav</text>
<text text-anchor="middle" x="3504" y="-7" font-family="Helvetica,sans-Serif" font-size="10.00">/propfind_props_acl.c</text>
</a>
</g>
</g>
<!-- Node37&#45;&gt;Node40 -->
<g id="edge39_Node000037_Node000040" class="edge">
<title>Node37&#45;&gt;Node40</title>
<g id="a_edge39_Node000037_Node000040"><a xlink:title=" ">
<path fill="none" stroke="#63b8ff" d="M3416.34,-61.24C3435.7,-51.25 3459.1,-39.18 3476.85,-30.01"/>
<polygon fill="#63b8ff" stroke="#63b8ff" points="3414.49,-58.26 3407.21,-65.95 3417.7,-64.48 3414.49,-58.26"/>
</a>
</g>
</g>
<!-- Node41 -->
<g id="Node000041" class="node">
<title>Node41</title>
<g id="a_Node000041"><a xlink:href="propfind__walk_8c.html" target="_top" xlink:title=" ">
<polygon fill="white" stroke="#666666" points="3702,-30 3582,-30 3582,0 3702,0 3702,-30"/>
<text text-anchor="start" x="3590" y="-18" font-family="Helvetica,sans-Serif" font-size="10.00">src/protocols/webdav</text>
<text text-anchor="middle" x="3642" y="-7" font-family="Helvetica,sans-Serif" font-size="10.00">/propfind_walk.c</text>
</a>
</g>
</g>
<!-- Node37&#45;&gt;Node41 -->
<g id="edge40_Node000037_Node000041" class="edge">
<title>Node37&#45;&gt;Node41</title>
<g id="a_edge40_Node000037_Node000041"><a xlink:title=" ">
<path fill="none" stroke="#63b8ff" d="M3447.48,-63.52C3489.97,-53.14 3544.23,-39.88 3584.64,-30.01"/>
<polygon fill="#63b8ff" stroke="#63b8ff" points="3446.38,-60.18 3437.5,-65.95 3448.04,-66.98 3446.38,-60.18"/>
</a>
</g>
</g>
</g>
</svg>

<g id="navigator" transform="translate(0 0)" fill="#404254">
  <rect fill="#f2f5e9" fill-opacity="0.5" stroke="#606060" stroke-width=".5" x="0" y="0" width="60" height="60"/>
  <use id="zoomplus" xlink:href="#zoomPlus" x="17" y="9" onmousedown="handleZoom(evt,'in')"/>
  <use id="zoomminus" xlink:href="#zoomMin" x="42" y="9" onmousedown="handleZoom(evt,'out')"/>
  <use id="reset" xlink:href="#resetDef" x="30" y="36" onmousedown="handleReset()"/>
   <use id="arrowup" xlink:href="#arrowUp" x="0" y="0" onmousedown="handlePan(0,-1)"/>
  <use id="arrowright" xlink:href="#arrowRight" x="0" y="0" onmousedown="handlePan(1,0)"/>
  <use id="arrowdown" xlink:href="#arrowDown" x="0" y="0" onmousedown="handlePan(0,1)"/>
  <use id="arrowleft" xlink:href="#arrowLeft" x="0" y="0" onmousedown="handlePan(-1,0)"/>
</g>
<svg viewBox="0 0 15 15" width="100%" height="30px" preserveAspectRatio="xMaxYMin meet">
 <g id="arrow_out" transform="scale(0.3 0.3)">
  <a xlink:href="lifecycle_8h__dep__incl_org.svg" target="_base">
   <rect id="button" ry="5" rx="5" y="6" x="6" height="38" width="38"
        fill="#f2f5e9" fill-opacity="0.5" stroke="#606060" stroke-width="1.0"/>
   <path id="arrow"
     d="M 11.500037,31.436501 C 11.940474,20.09759 22.043105,11.32322 32.158766,21.979434 L 37.068811,17.246167 C 37.068811,17.246167 37.088388,32 37.088388,32 L 22.160133,31.978069 C 22.160133,31.978069 26.997745,27.140456 26.997745,27.140456 C 18.528582,18.264221 13.291696,25.230495 11.500037,31.436501 z"
     style="fill:#404040;"/>
  </a>
 </g>
</svg>

<style type='text/css'>
<![CDATA[
[data-mouse-over-selected='false'] { opacity: 0.7; }
[data-mouse-over-selected='true']  { opacity: 1.0; }
]]>
</style>
<script type="application/ecmascript"><![CDATA[
document.addEventListener('DOMContentLoaded', (event) => {
  highlightEdges();
  highlightAdjacentNodes();
});
]]></script>
</svg>
