<?xml version="1.0" encoding="UTF-8" standalone="no"?>
<!DOCTYPE svg PUBLIC "-//W3C//DTD SVG 1.1//EN"
 "http://www.w3.org/Graphics/SVG/1.1/DTD/svg11.dtd">
<!-- Generated by graphviz version 2.43.0 (0)
 -->
<!-- Title: src/net/manager/loc_cache.h Pages: 1 -->
<svg width="717pt" height="104pt"
 viewBox="0.00 0.00 717.00 104.00" xmlns="http://www.w3.org/2000/svg" xmlns:xlink="http://www.w3.org/1999/xlink">
<g id="graph0" class="graph" transform="scale(1 1) rotate(0) translate(4 100)">
<title>src/net/manager/loc_cache.h</title>
<!-- Node1 -->
<g id="Node000001" class="node">
<title>Node1</title>
<g id="a_Node000001"><a xlink:title=" ">
<polygon fill="#999999" stroke="#666666" points="449,-96 336,-96 336,-66 449,-66 449,-96"/>
<text text-anchor="start" x="344" y="-84" font-family="Helvetica,sans-Serif" font-size="10.00">src/net/manager/loc</text>
<text text-anchor="middle" x="392.5" y="-73" font-family="Helvetica,sans-Serif" font-size="10.00">_cache.h</text>
</a>
</g>
</g>
<!-- Node2 -->
<g id="Node000002" class="node">
<title>Node2</title>
<g id="a_Node000002"><a xlink:href="postconfiguration_8c.html" target="_top" xlink:title=" ">
<polygon fill="white" stroke="#666666" points="183,-24.5 0,-24.5 0,-5.5 183,-5.5 183,-24.5"/>
<text text-anchor="middle" x="91.5" y="-12.5" font-family="Helvetica,sans-Serif" font-size="10.00">src/core/config/postconfiguration.c</text>
</a>
</g>
</g>
<!-- Node1&#45;&gt;Node2 -->
<g id="edge1_Node000001_Node000002" class="edge">
<title>Node1&#45;&gt;Node2</title>
<g id="a_edge1_Node000001_Node000002"><a xlink:title=" ">
<path fill="none" stroke="#63b8ff" d="M325.82,-65.82C266.3,-53.17 181.1,-35.05 131.51,-24.51"/>
<polygon fill="#63b8ff" stroke="#63b8ff" points="325.37,-69.31 335.88,-67.96 326.83,-62.46 325.37,-69.31"/>
</a>
</g>
</g>
<!-- Node3 -->
<g id="Node000003" class="node">
<title>Node3</title>
<g id="a_Node000003"><a xlink:href="server__recv__frame_8c.html" target="_top" xlink:title=" ">
<polygon fill="white" stroke="#666666" points="308,-30 201,-30 201,0 308,0 308,-30"/>
<text text-anchor="start" x="209" y="-18" font-family="Helvetica,sans-Serif" font-size="10.00">src/net/cms/server</text>
<text text-anchor="middle" x="254.5" y="-7" font-family="Helvetica,sans-Serif" font-size="10.00">_recv_frame.c</text>
</a>
</g>
</g>
<!-- Node1&#45;&gt;Node3 -->
<g id="edge2_Node000001_Node000003" class="edge">
<title>Node1&#45;&gt;Node3</title>
<g id="a_edge2_Node000001_Node000003"><a xlink:title=" ">
<path fill="none" stroke="#63b8ff" d="M352.93,-61.65C331.23,-51.58 304.74,-39.3 284.71,-30.01"/>
<polygon fill="#63b8ff" stroke="#63b8ff" points="351.67,-64.92 362.22,-65.95 354.62,-58.57 351.67,-64.92"/>
</a>
</g>
</g>
<!-- Node4 -->
<g id="Node000004" class="node">
<title>Node4</title>
<g id="a_Node000004"><a xlink:href="server__recv__frame__handlers_8c.html" target="_top" xlink:title=" ">
<polygon fill="white" stroke="#666666" points="459,-30 326,-30 326,0 459,0 459,-30"/>
<text text-anchor="start" x="334" y="-18" font-family="Helvetica,sans-Serif" font-size="10.00">src/net/cms/server</text>
<text text-anchor="middle" x="392.5" y="-7" font-family="Helvetica,sans-Serif" font-size="10.00">_recv_frame_handlers.c</text>
</a>
</g>
</g>
<!-- Node1&#45;&gt;Node4 -->
<g id="edge3_Node000001_Node000004" class="edge">
<title>Node1&#45;&gt;Node4</title>
<g id="a_edge3_Node000001_Node000004"><a xlink:title=" ">
<path fill="none" stroke="#63b8ff" d="M392.5,-55.54C392.5,-46.96 392.5,-37.61 392.5,-30.16"/>
<polygon fill="#63b8ff" stroke="#63b8ff" points="389,-55.8 392.5,-65.8 396,-55.8 389,-55.8"/>
</a>
</g>
</g>
<!-- Node5 -->
<g id="Node000005" class="node">
<title>Node5</title>
<g id="a_Node000005"><a xlink:href="loc__cache_8c.html" target="_top" xlink:title=" ">
<polygon fill="white" stroke="#666666" points="590,-30 477,-30 477,0 590,0 590,-30"/>
<text text-anchor="start" x="485" y="-18" font-family="Helvetica,sans-Serif" font-size="10.00">src/net/manager/loc</text>
<text text-anchor="middle" x="533.5" y="-7" font-family="Helvetica,sans-Serif" font-size="10.00">_cache.c</text>
</a>
</g>
</g>
<!-- Node1&#45;&gt;Node5 -->
<g id="edge4_Node000001_Node000005" class="edge">
<title>Node1&#45;&gt;Node5</title>
<g id="a_edge4_Node000001_Node000005"><a xlink:title=" ">
<path fill="none" stroke="#63b8ff" d="M432.63,-61.78C454.86,-51.69 482.07,-39.34 502.63,-30.01"/>
<polygon fill="#63b8ff" stroke="#63b8ff" points="431.1,-58.63 423.44,-65.95 434,-65.01 431.1,-58.63"/>
</a>
</g>
</g>
<!-- Node6 -->
<g id="Node000006" class="node">
<title>Node6</title>
<g id="a_Node000006"><a xlink:href="locate_8c.html" target="_top" xlink:title=" ">
<polygon fill="white" stroke="#666666" points="709,-30 608,-30 608,0 709,0 709,-30"/>
<text text-anchor="start" x="616" y="-18" font-family="Helvetica,sans-Serif" font-size="10.00">src/protocols/root</text>
<text text-anchor="middle" x="658.5" y="-7" font-family="Helvetica,sans-Serif" font-size="10.00">/read/locate.c</text>
</a>
</g>
</g>
<!-- Node1&#45;&gt;Node6 -->
<g id="edge5_Node000001_Node000006" class="edge">
<title>Node1&#45;&gt;Node6</title>
<g id="a_edge5_Node000001_Node000006"><a xlink:title=" ">
<path fill="none" stroke="#63b8ff" d="M459.13,-63.97C505.18,-52.89 565.51,-38.37 607.69,-28.22"/>
<polygon fill="#63b8ff" stroke="#63b8ff" points="458.14,-60.61 449.24,-66.35 459.78,-67.41 458.14,-60.61"/>
</a>
</g>
</g>
</g>
</svg>
