<?xml version="1.0" encoding="UTF-8" standalone="no"?>
<!DOCTYPE svg PUBLIC "-//W3C//DTD SVG 1.1//EN"
 "http://www.w3.org/Graphics/SVG/1.1/DTD/svg11.dtd">
<!-- Generated by graphviz version 2.43.0 (0)
 -->
<!-- Title: src/auth/token/macaroon_issue.h Pages: 1 -->
<svg width="656pt" height="104pt"
 viewBox="0.00 0.00 656.00 104.00" xmlns="http://www.w3.org/2000/svg" xmlns:xlink="http://www.w3.org/1999/xlink">
<g id="graph0" class="graph" transform="scale(1 1) rotate(0) translate(4 100)">
<title>src/auth/token/macaroon_issue.h</title>
<!-- Node1 -->
<g id="Node000001" class="node">
<title>Node1</title>
<g id="a_Node000001"><a xlink:title=" ">
<polygon fill="#999999" stroke="#666666" points="367,-96 230,-96 230,-66 367,-66 367,-96"/>
<text text-anchor="start" x="238" y="-84" font-family="Helvetica,sans-Serif" font-size="10.00">src/auth/token/macaroon</text>
<text text-anchor="middle" x="298.5" y="-73" font-family="Helvetica,sans-Serif" font-size="10.00">_issue.h</text>
</a>
</g>
</g>
<!-- Node2 -->
<g id="Node000002" class="node">
<title>Node2</title>
<g id="a_Node000002"><a xlink:href="macaroon__issue_8c.html" target="_top" xlink:title=" ">
<polygon fill="white" stroke="#666666" points="137,-30 0,-30 0,0 137,0 137,-30"/>
<text text-anchor="start" x="8" y="-18" font-family="Helvetica,sans-Serif" font-size="10.00">src/auth/token/macaroon</text>
<text text-anchor="middle" x="68.5" y="-7" font-family="Helvetica,sans-Serif" font-size="10.00">_issue.c</text>
</a>
</g>
</g>
<!-- Node1&#45;&gt;Node2 -->
<g id="edge1_Node000001_Node000002" class="edge">
<title>Node1&#45;&gt;Node2</title>
<g id="a_edge1_Node000001_Node000002"><a xlink:title=" ">
<path fill="none" stroke="#63b8ff" d="M238.32,-63.25C201.16,-52.91 154.03,-39.8 118.86,-30.01"/>
<polygon fill="#63b8ff" stroke="#63b8ff" points="237.45,-66.65 248.03,-65.95 239.33,-59.9 237.45,-66.65"/>
</a>
</g>
</g>
<!-- Node3 -->
<g id="Node000003" class="node">
<title>Node3</title>
<g id="a_Node000003"><a xlink:href="macaroon__endpoint_8c.html" target="_top" xlink:title=" ">
<polygon fill="white" stroke="#666666" points="280,-30 155,-30 155,0 280,0 280,-30"/>
<text text-anchor="start" x="163" y="-18" font-family="Helvetica,sans-Serif" font-size="10.00">src/protocols/webdav</text>
<text text-anchor="middle" x="217.5" y="-7" font-family="Helvetica,sans-Serif" font-size="10.00">/macaroon_endpoint.c</text>
</a>
</g>
</g>
<!-- Node1&#45;&gt;Node3 -->
<g id="edge2_Node000001_Node000003" class="edge">
<title>Node1&#45;&gt;Node3</title>
<g id="a_edge2_Node000001_Node000003"><a xlink:title=" ">
<path fill="none" stroke="#63b8ff" d="M272.53,-59.48C260.42,-49.91 246.32,-38.77 235.43,-30.16"/>
<polygon fill="#63b8ff" stroke="#63b8ff" points="270.51,-62.34 280.52,-65.8 274.85,-56.85 270.51,-62.34"/>
</a>
</g>
</g>
<!-- Node4 -->
<g id="Node000004" class="node">
<title>Node4</title>
<g id="a_Node000004"><a xlink:href="macaroon__endpoint__oauth2_8c.html" target="_top" xlink:title=" ">
<polygon fill="white" stroke="#666666" points="462.5,-30 298.5,-30 298.5,0 462.5,0 462.5,-30"/>
<text text-anchor="start" x="306.5" y="-18" font-family="Helvetica,sans-Serif" font-size="10.00">src/protocols/webdav</text>
<text text-anchor="middle" x="380.5" y="-7" font-family="Helvetica,sans-Serif" font-size="10.00">/macaroon_endpoint_oauth2.c</text>
</a>
</g>
</g>
<!-- Node1&#45;&gt;Node4 -->
<g id="edge3_Node000001_Node000004" class="edge">
<title>Node1&#45;&gt;Node4</title>
<g id="a_edge3_Node000001_Node000004"><a xlink:title=" ">
<path fill="none" stroke="#63b8ff" d="M324.79,-59.48C337.05,-49.91 351.32,-38.77 362.35,-30.16"/>
<polygon fill="#63b8ff" stroke="#63b8ff" points="322.43,-56.88 316.7,-65.8 326.74,-62.4 322.43,-56.88"/>
</a>
</g>
</g>
<!-- Node5 -->
<g id="Node000005" class="node">
<title>Node5</title>
<g id="a_Node000005"><a xlink:href="macaroon__endpoint__request_8c.html" target="_top" xlink:title=" ">
<polygon fill="white" stroke="#666666" points="648,-30 481,-30 481,0 648,0 648,-30"/>
<text text-anchor="start" x="489" y="-18" font-family="Helvetica,sans-Serif" font-size="10.00">src/protocols/webdav</text>
<text text-anchor="middle" x="564.5" y="-7" font-family="Helvetica,sans-Serif" font-size="10.00">/macaroon_endpoint_request.c</text>
</a>
</g>
</g>
<!-- Node1&#45;&gt;Node5 -->
<g id="edge4_Node000001_Node000005" class="edge">
<title>Node1&#45;&gt;Node5</title>
<g id="a_edge4_Node000001_Node000005"><a xlink:title=" ">
<path fill="none" stroke="#63b8ff" d="M366.73,-63.58C409.92,-53.19 465.15,-39.9 506.26,-30.01"/>
<polygon fill="#63b8ff" stroke="#63b8ff" points="365.78,-60.21 356.87,-65.95 367.42,-67.02 365.78,-60.21"/>
</a>
</g>
</g>
</g>
</svg>
