<?xml version="1.0" encoding="UTF-8" standalone="no"?>
<!DOCTYPE svg PUBLIC "-//W3C//DTD SVG 1.1//EN"
 "http://www.w3.org/Graphics/SVG/1.1/DTD/svg11.dtd">
<!-- Generated by graphviz version 2.43.0 (0)
 -->
<!-- Title: src/auth/token/macaroon.c Pages: 1 -->
<svg width="870pt" height="247pt"
 viewBox="0.00 0.00 869.50 247.00" xmlns="http://www.w3.org/2000/svg" xmlns:xlink="http://www.w3.org/1999/xlink">
<g id="graph0" class="graph" transform="scale(1 1) rotate(0) translate(4 243)">
<title>src/auth/token/macaroon.c</title>
<!-- Node1 -->
<g id="Node000001" class="node">
<title>Node1</title>
<g id="a_Node000001"><a xlink:title=" ">
<polygon fill="#999999" stroke="#666666" points="427,-239 281,-239 281,-220 427,-220 427,-239"/>
<text text-anchor="middle" x="354" y="-227" font-family="Helvetica,sans-Serif" font-size="10.00">src/auth/token/macaroon.c</text>
</a>
</g>
</g>
<!-- Node2 -->
<g id="Node000002" class="node">
<title>Node2</title>
<g id="a_Node000002"><a xlink:href="token__internal_8h.html" target="_top" xlink:title=" ">
<polygon fill="white" stroke="#666666" points="152.5,-129 57.5,-129 57.5,-110 152.5,-110 152.5,-129"/>
<text text-anchor="middle" x="105" y="-117" font-family="Helvetica,sans-Serif" font-size="10.00">token_internal.h</text>
</a>
</g>
</g>
<!-- Node1&#45;&gt;Node2 -->
<g id="edge1_Node000001_Node000002" class="edge">
<title>Node1&#45;&gt;Node2</title>
<g id="a_edge1_Node000001_Node000002"><a xlink:title=" ">
<path fill="none" stroke="#63b8ff" d="M280.76,-222.7C222.01,-216.58 145.72,-204.85 123,-184 110.74,-172.75 106.6,-153.84 105.31,-139.57"/>
<polygon fill="#63b8ff" stroke="#63b8ff" points="108.79,-139.17 104.78,-129.36 101.8,-139.53 108.79,-139.17"/>
</a>
</g>
</g>
<!-- Node5 -->
<g id="Node000005" class="node">
<title>Node5</title>
<g id="a_Node000005"><a xlink:title=" ">
<polygon fill="#e0e0e0" stroke="#999999" points="84,-19 0,-19 0,0 84,0 84,-19"/>
<text text-anchor="middle" x="42" y="-7" font-family="Helvetica,sans-Serif" font-size="10.00">openssl/evp.h</text>
</a>
</g>
</g>
<!-- Node1&#45;&gt;Node5 -->
<g id="edge25_Node000001_Node000005" class="edge">
<title>Node1&#45;&gt;Node5</title>
<g id="a_edge25_Node000001_Node000005"><a xlink:title=" ">
<path fill="none" stroke="#63b8ff" d="M280.96,-225.93C230.17,-221.66 162.14,-210.86 108,-184 75.59,-167.93 63.4,-161.73 48,-129 32.71,-96.5 35.47,-53.29 38.78,-29.04"/>
<polygon fill="#63b8ff" stroke="#63b8ff" points="42.25,-29.49 40.32,-19.07 35.33,-28.41 42.25,-29.49"/>
</a>
</g>
</g>
<!-- Node8 -->
<g id="Node000008" class="node">
<title>Node8</title>
<g id="a_Node000008"><a xlink:href="macaroon_8h.html" target="_top" xlink:title=" ">
<polygon fill="white" stroke="#666666" points="245,-129 171,-129 171,-110 245,-110 245,-129"/>
<text text-anchor="middle" x="208" y="-117" font-family="Helvetica,sans-Serif" font-size="10.00">macaroon.h</text>
</a>
</g>
</g>
<!-- Node1&#45;&gt;Node8 -->
<g id="edge8_Node000001_Node000008" class="edge">
<title>Node1&#45;&gt;Node8</title>
<g id="a_edge8_Node000001_Node000008"><a xlink:title=" ">
<path fill="none" stroke="#63b8ff" d="M342.3,-219.84C317.42,-201.44 259.01,-158.23 228.06,-135.34"/>
<polygon fill="#63b8ff" stroke="#63b8ff" points="229.88,-132.33 219.76,-129.2 225.71,-137.96 229.88,-132.33"/>
</a>
</g>
</g>
<!-- Node9 -->
<g id="Node000009" class="node">
<title>Node9</title>
<g id="a_Node000009"><a xlink:href="macaroon__internal_8h.html" target="_top" xlink:title=" ">
<polygon fill="white" stroke="#666666" points="249.5,-184 132.5,-184 132.5,-165 249.5,-165 249.5,-184"/>
<text text-anchor="middle" x="191" y="-172" font-family="Helvetica,sans-Serif" font-size="10.00">macaroon_internal.h</text>
</a>
</g>
</g>
<!-- Node1&#45;&gt;Node9 -->
<g id="edge12_Node000001_Node000009" class="edge">
<title>Node1&#45;&gt;Node9</title>
<g id="a_edge12_Node000001_Node000009"><a xlink:title=" ">
<path fill="none" stroke="#63b8ff" d="M327.81,-219.98C300.56,-211.13 257.7,-197.19 227.22,-187.28"/>
<polygon fill="#63b8ff" stroke="#63b8ff" points="227.99,-183.85 217.39,-184.08 225.82,-190.5 227.99,-183.85"/>
</a>
</g>
</g>
<!-- Node10 -->
<g id="Node000010" class="node">
<title>Node10</title>
<g id="a_Node000010"><a xlink:href="scopes_8h.html" target="_top" xlink:title=" ">
<polygon fill="white" stroke="#666666" points="322.5,-129 263.5,-129 263.5,-110 322.5,-110 322.5,-129"/>
<text text-anchor="middle" x="293" y="-117" font-family="Helvetica,sans-Serif" font-size="10.00">scopes.h</text>
</a>
</g>
</g>
<!-- Node1&#45;&gt;Node10 -->
<g id="edge21_Node000001_Node000010" class="edge">
<title>Node1&#45;&gt;Node10</title>
<g id="a_edge21_Node000001_Node000010"><a xlink:title=" ">
<path fill="none" stroke="#63b8ff" d="M349.01,-219.66C338.95,-201.85 316.08,-161.37 302.89,-138.01"/>
<polygon fill="#63b8ff" stroke="#63b8ff" points="305.86,-136.14 297.89,-129.16 299.76,-139.59 305.86,-136.14"/>
</a>
</g>
</g>
<!-- Node12 -->
<g id="Node000012" class="node">
<title>Node12</title>
<g id="a_Node000012"><a xlink:href="b64url_8h.html" target="_top" xlink:title=" ">
<polygon fill="white" stroke="#666666" points="564,-184 508,-184 508,-165 564,-165 564,-184"/>
<text text-anchor="middle" x="536" y="-172" font-family="Helvetica,sans-Serif" font-size="10.00">b64url.h</text>
</a>
</g>
</g>
<!-- Node1&#45;&gt;Node12 -->
<g id="edge17_Node000001_Node000012" class="edge">
<title>Node1&#45;&gt;Node12</title>
<g id="a_edge17_Node000001_Node000012"><a xlink:title=" ">
<path fill="none" stroke="#63b8ff" d="M383.24,-219.98C414.43,-210.9 463.94,-196.49 498.09,-186.54"/>
<polygon fill="#63b8ff" stroke="#63b8ff" points="499.11,-189.89 507.73,-183.73 497.15,-183.17 499.11,-189.89"/>
</a>
</g>
</g>
<!-- Node15 -->
<g id="Node000015" class="node">
<title>Node15</title>
<g id="a_Node000015"><a xlink:href="hex_8h.html" target="_top" xlink:title=" ">
<polygon fill="white" stroke="#666666" points="489.5,-184 382.5,-184 382.5,-165 489.5,-165 489.5,-184"/>
<text text-anchor="middle" x="436" y="-172" font-family="Helvetica,sans-Serif" font-size="10.00">core/compat/hex.h</text>
</a>
</g>
</g>
<!-- Node1&#45;&gt;Node15 -->
<g id="edge22_Node000001_Node000015" class="edge">
<title>Node1&#45;&gt;Node15</title>
<g id="a_edge22_Node000001_Node000015"><a xlink:title=" ">
<path fill="none" stroke="#63b8ff" d="M367.17,-219.98C379.77,-211.84 399,-199.41 413.94,-189.76"/>
<polygon fill="#63b8ff" stroke="#63b8ff" points="416.09,-192.54 422.59,-184.17 412.29,-186.66 416.09,-192.54"/>
</a>
</g>
</g>
<!-- Node16 -->
<g id="Node000016" class="node">
<title>Node16</title>
<g id="a_Node000016"><a xlink:title=" ">
<polygon fill="#e0e0e0" stroke="#999999" points="675.5,-184 582.5,-184 582.5,-165 675.5,-165 675.5,-184"/>
<text text-anchor="middle" x="629" y="-172" font-family="Helvetica,sans-Serif" font-size="10.00">openssl/hmac.h</text>
</a>
</g>
</g>
<!-- Node1&#45;&gt;Node16 -->
<g id="edge26_Node000001_Node000016" class="edge">
<title>Node1&#45;&gt;Node16</title>
<g id="a_edge26_Node000001_Node000016"><a xlink:title=" ">
<path fill="none" stroke="#63b8ff" d="M398.18,-219.98C446.15,-210.74 522.81,-195.97 574.48,-186.01"/>
<polygon fill="#63b8ff" stroke="#63b8ff" points="575.31,-189.41 584.47,-184.08 573.99,-182.54 575.31,-189.41"/>
</a>
</g>
</g>
<!-- Node17 -->
<g id="Node000017" class="node">
<title>Node17</title>
<g id="a_Node000017"><a xlink:title=" ">
<polygon fill="#e0e0e0" stroke="#999999" points="790.5,-184 693.5,-184 693.5,-165 790.5,-165 790.5,-184"/>
<text text-anchor="middle" x="742" y="-172" font-family="Helvetica,sans-Serif" font-size="10.00">openssl/crypto.h</text>
</a>
</g>
</g>
<!-- Node1&#45;&gt;Node17 -->
<g id="edge27_Node000001_Node000017" class="edge">
<title>Node1&#45;&gt;Node17</title>
<g id="a_edge27_Node000001_Node000017"><a xlink:title=" ">
<path fill="none" stroke="#63b8ff" d="M419.35,-220C483.93,-211.53 585.82,-198 683.45,-184.2"/>
<polygon fill="#63b8ff" stroke="#63b8ff" points="684.09,-187.65 693.5,-182.78 683.11,-180.72 684.09,-187.65"/>
</a>
</g>
</g>
<!-- Node18 -->
<g id="Node000018" class="node">
<title>Node18</title>
<g id="a_Node000018"><a xlink:title=" ">
<polygon fill="#e0e0e0" stroke="#999999" points="861.5,-184 808.5,-184 808.5,-165 861.5,-165 861.5,-184"/>
<text text-anchor="middle" x="835" y="-172" font-family="Helvetica,sans-Serif" font-size="10.00">string.h</text>
</a>
</g>
</g>
<!-- Node1&#45;&gt;Node18 -->
<g id="edge28_Node000001_Node000018" class="edge">
<title>Node1&#45;&gt;Node18</title>
<g id="a_edge28_Node000001_Node000018"><a xlink:title=" ">
<path fill="none" stroke="#63b8ff" d="M427.03,-224.33C513.54,-218.7 662.12,-206.83 798.14,-184.11"/>
<polygon fill="#63b8ff" stroke="#63b8ff" points="799.05,-187.5 808.33,-182.38 797.88,-180.6 799.05,-187.5"/>
</a>
</g>
</g>
<!-- Node19 -->
<g id="Node000019" class="node">
<title>Node19</title>
<g id="a_Node000019"><a xlink:href="time_8h.html" target="_top" xlink:title=" ">
<polygon fill="white" stroke="#666666" points="389,-129 341,-129 341,-110 389,-110 389,-129"/>
<text text-anchor="middle" x="365" y="-117" font-family="Helvetica,sans-Serif" font-size="10.00">time.h</text>
</a>
</g>
</g>
<!-- Node1&#45;&gt;Node19 -->
<g id="edge29_Node000001_Node000019" class="edge">
<title>Node1&#45;&gt;Node19</title>
<g id="a_edge29_Node000001_Node000019"><a xlink:title=" ">
<path fill="none" stroke="#63b8ff" d="M354.9,-219.66C356.68,-202.17 360.69,-162.8 363.09,-139.27"/>
<polygon fill="#63b8ff" stroke="#63b8ff" points="366.59,-139.46 364.12,-129.16 359.62,-138.75 366.59,-139.46"/>
</a>
</g>
</g>
<!-- Node3 -->
<g id="Node000003" class="node">
<title>Node3</title>
<g id="a_Node000003"><a xlink:title=" ">
<polygon fill="#e0e0e0" stroke="#999999" points="308,-74 230,-74 230,-55 308,-55 308,-74"/>
<text text-anchor="middle" x="269" y="-62" font-family="Helvetica,sans-Serif" font-size="10.00">ngx_config.h</text>
</a>
</g>
</g>
<!-- Node2&#45;&gt;Node3 -->
<g id="edge2_Node000002_Node000003" class="edge">
<title>Node2&#45;&gt;Node3</title>
<g id="a_edge2_Node000002_Node000003"><a xlink:title=" ">
<path fill="none" stroke="#63b8ff" d="M131.35,-109.98C158.76,-101.13 201.89,-87.19 232.56,-77.28"/>
<polygon fill="#63b8ff" stroke="#63b8ff" points="234,-80.49 242.44,-74.08 231.85,-73.83 234,-80.49"/>
</a>
</g>
</g>
<!-- Node4 -->
<g id="Node000004" class="node">
<title>Node4</title>
<g id="a_Node000004"><a xlink:title=" ">
<polygon fill="#e0e0e0" stroke="#999999" points="140,-74 70,-74 70,-55 140,-55 140,-74"/>
<text text-anchor="middle" x="105" y="-62" font-family="Helvetica,sans-Serif" font-size="10.00">ngx_core.h</text>
</a>
</g>
</g>
<!-- Node2&#45;&gt;Node4 -->
<g id="edge3_Node000002_Node000004" class="edge">
<title>Node2&#45;&gt;Node4</title>
<g id="a_edge3_Node000002_Node000004"><a xlink:title=" ">
<path fill="none" stroke="#63b8ff" d="M105,-109.75C105,-102.8 105,-92.85 105,-84.13"/>
<polygon fill="#63b8ff" stroke="#63b8ff" points="108.5,-84.09 105,-74.09 101.5,-84.09 108.5,-84.09"/>
</a>
</g>
</g>
<!-- Node2&#45;&gt;Node5 -->
<g id="edge4_Node000002_Node000005" class="edge">
<title>Node2&#45;&gt;Node5</title>
<g id="a_edge4_Node000002_Node000005"><a xlink:title=" ">
<path fill="none" stroke="#63b8ff" d="M93.68,-109.79C83.72,-101.57 69.53,-88.39 61,-74 52.83,-60.22 47.93,-42.65 45.15,-29.48"/>
<polygon fill="#63b8ff" stroke="#63b8ff" points="48.52,-28.44 43.24,-19.26 41.64,-29.73 48.52,-28.44"/>
</a>
</g>
</g>
<!-- Node6 -->
<g id="Node000006" class="node">
<title>Node6</title>
<g id="a_Node000006"><a xlink:href="token_8h.html" target="_top" xlink:title=" ">
<polygon fill="white" stroke="#666666" points="211.5,-74 158.5,-74 158.5,-55 211.5,-55 211.5,-74"/>
<text text-anchor="middle" x="185" y="-62" font-family="Helvetica,sans-Serif" font-size="10.00">token.h</text>
</a>
</g>
</g>
<!-- Node2&#45;&gt;Node6 -->
<g id="edge5_Node000002_Node000006" class="edge">
<title>Node2&#45;&gt;Node6</title>
<g id="a_edge5_Node000002_Node000006"><a xlink:title=" ">
<path fill="none" stroke="#63b8ff" d="M117.85,-109.98C130.14,-101.84 148.91,-89.41 163.48,-79.76"/>
<polygon fill="#63b8ff" stroke="#63b8ff" points="165.51,-82.61 171.91,-74.17 161.64,-76.78 165.51,-82.61"/>
</a>
</g>
</g>
<!-- Node6&#45;&gt;Node5 -->
<g id="edge6_Node000006_Node000005" class="edge">
<title>Node6&#45;&gt;Node5</title>
<g id="a_edge6_Node000006_Node000005"><a xlink:title=" ">
<path fill="none" stroke="#63b8ff" d="M162.02,-54.98C138.5,-46.27 101.71,-32.63 75.06,-22.75"/>
<polygon fill="#63b8ff" stroke="#63b8ff" points="75.99,-19.36 65.39,-19.17 73.55,-25.93 75.99,-19.36"/>
</a>
</g>
</g>
<!-- Node7 -->
<g id="Node000007" class="node">
<title>Node7</title>
<g id="a_Node000007"><a xlink:title=" ">
<polygon fill="#e0e0e0" stroke="#999999" points="286.5,-19 233.5,-19 233.5,0 286.5,0 286.5,-19"/>
<text text-anchor="middle" x="260" y="-7" font-family="Helvetica,sans-Serif" font-size="10.00">limits.h</text>
</a>
</g>
</g>
<!-- Node6&#45;&gt;Node7 -->
<g id="edge7_Node000006_Node000007" class="edge">
<title>Node6&#45;&gt;Node7</title>
<g id="a_edge7_Node000006_Node000007"><a xlink:title=" ">
<path fill="none" stroke="#63b8ff" d="M197.05,-54.98C208.46,-46.92 225.83,-34.65 239.43,-25.03"/>
<polygon fill="#63b8ff" stroke="#63b8ff" points="241.58,-27.8 247.73,-19.17 237.54,-22.08 241.58,-27.8"/>
</a>
</g>
</g>
<!-- Node8&#45;&gt;Node3 -->
<g id="edge9_Node000008_Node000003" class="edge">
<title>Node8&#45;&gt;Node3</title>
<g id="a_edge9_Node000008_Node000003"><a xlink:title=" ">
<path fill="none" stroke="#63b8ff" d="M217.8,-109.98C226.82,-102.15 240.41,-90.34 251.32,-80.86"/>
<polygon fill="#63b8ff" stroke="#63b8ff" points="253.77,-83.37 259.02,-74.17 249.18,-78.09 253.77,-83.37"/>
</a>
</g>
</g>
<!-- Node8&#45;&gt;Node4 -->
<g id="edge10_Node000008_Node000004" class="edge">
<title>Node8&#45;&gt;Node4</title>
<g id="a_edge10_Node000008_Node000004"><a xlink:title=" ">
<path fill="none" stroke="#63b8ff" d="M191.45,-109.98C175.11,-101.57 149.87,-88.59 130.87,-78.81"/>
<polygon fill="#63b8ff" stroke="#63b8ff" points="132.34,-75.63 121.85,-74.17 129.14,-81.86 132.34,-75.63"/>
</a>
</g>
</g>
<!-- Node8&#45;&gt;Node6 -->
<g id="edge11_Node000008_Node000006" class="edge">
<title>Node8&#45;&gt;Node6</title>
<g id="a_edge11_Node000008_Node000006"><a xlink:title=" ">
<path fill="none" stroke="#63b8ff" d="M204.2,-109.75C201.09,-102.57 196.58,-92.18 192.71,-83.27"/>
<polygon fill="#63b8ff" stroke="#63b8ff" points="195.92,-81.87 188.73,-74.09 189.5,-84.66 195.92,-81.87"/>
</a>
</g>
</g>
<!-- Node9&#45;&gt;Node2 -->
<g id="edge13_Node000009_Node000002" class="edge">
<title>Node9&#45;&gt;Node2</title>
<g id="a_edge13_Node000009_Node000002"><a xlink:title=" ">
<path fill="none" stroke="#63b8ff" d="M177.18,-164.98C163.85,-156.77 143.42,-144.18 127.69,-134.49"/>
<polygon fill="#63b8ff" stroke="#63b8ff" points="129.42,-131.44 119.07,-129.17 125.75,-137.4 129.42,-131.44"/>
</a>
</g>
</g>
<!-- Node9&#45;&gt;Node10 -->
<g id="edge14_Node000009_Node000010" class="edge">
<title>Node9&#45;&gt;Node10</title>
<g id="a_edge14_Node000009_Node000010"><a xlink:title=" ">
<path fill="none" stroke="#63b8ff" d="M207.39,-164.98C223.57,-156.57 248.57,-143.59 267.38,-133.81"/>
<polygon fill="#63b8ff" stroke="#63b8ff" points="269.05,-136.89 276.31,-129.17 265.83,-130.68 269.05,-136.89"/>
</a>
</g>
</g>
<!-- Node10&#45;&gt;Node7 -->
<g id="edge15_Node000010_Node000007" class="edge">
<title>Node10&#45;&gt;Node7</title>
<g id="a_edge15_Node000010_Node000007"><a xlink:title=" ">
<path fill="none" stroke="#63b8ff" d="M300.89,-109.66C311,-97.19 326.2,-73.85 317,-55 310.7,-42.09 298.65,-31.83 287.24,-24.43"/>
<polygon fill="#63b8ff" stroke="#63b8ff" points="288.73,-21.25 278.35,-19.12 285.14,-27.25 288.73,-21.25"/>
</a>
</g>
</g>
<!-- Node11 -->
<g id="Node000011" class="node">
<title>Node11</title>
<g id="a_Node000011"><a xlink:title=" ">
<polygon fill="#e0e0e0" stroke="#999999" points="441,-74 385,-74 385,-55 441,-55 441,-74"/>
<text text-anchor="middle" x="413" y="-62" font-family="Helvetica,sans-Serif" font-size="10.00">stddef.h</text>
</a>
</g>
</g>
<!-- Node10&#45;&gt;Node11 -->
<g id="edge16_Node000010_Node000011" class="edge">
<title>Node10&#45;&gt;Node11</title>
<g id="a_edge16_Node000010_Node000011"><a xlink:title=" ">
<path fill="none" stroke="#63b8ff" d="M312.28,-109.98C331.67,-101.42 361.81,-88.11 384.07,-78.28"/>
<polygon fill="#63b8ff" stroke="#63b8ff" points="385.64,-81.41 393.37,-74.17 382.81,-75.01 385.64,-81.41"/>
</a>
</g>
</g>
<!-- Node12&#45;&gt;Node11 -->
<g id="edge18_Node000012_Node000011" class="edge">
<title>Node12&#45;&gt;Node11</title>
<g id="a_edge18_Node000012_Node000011"><a xlink:title=" ">
<path fill="none" stroke="#63b8ff" d="M562.89,-164.96C592.93,-154.02 635.01,-133.63 616,-110 595.7,-84.77 504.03,-73.04 451.08,-68.28"/>
<polygon fill="#63b8ff" stroke="#63b8ff" points="451.3,-64.79 441.04,-67.43 450.71,-71.77 451.3,-64.79"/>
</a>
</g>
</g>
<!-- Node13 -->
<g id="Node000013" class="node">
<title>Node13</title>
<g id="a_Node000013"><a xlink:title=" ">
<polygon fill="#e0e0e0" stroke="#999999" points="516.5,-129 463.5,-129 463.5,-110 516.5,-110 516.5,-129"/>
<text text-anchor="middle" x="490" y="-117" font-family="Helvetica,sans-Serif" font-size="10.00">stdint.h</text>
</a>
</g>
</g>
<!-- Node12&#45;&gt;Node13 -->
<g id="edge19_Node000012_Node000013" class="edge">
<title>Node12&#45;&gt;Node13</title>
<g id="a_edge19_Node000012_Node000013"><a xlink:title=" ">
<path fill="none" stroke="#63b8ff" d="M528.4,-164.75C521.84,-157.18 512.18,-146.05 504.19,-136.84"/>
<polygon fill="#63b8ff" stroke="#63b8ff" points="506.65,-134.35 497.45,-129.09 501.37,-138.94 506.65,-134.35"/>
</a>
</g>
</g>
<!-- Node14 -->
<g id="Node000014" class="node">
<title>Node14</title>
<g id="a_Node000014"><a xlink:title=" ">
<polygon fill="#e0e0e0" stroke="#999999" points="607,-129 535,-129 535,-110 607,-110 607,-129"/>
<text text-anchor="middle" x="571" y="-117" font-family="Helvetica,sans-Serif" font-size="10.00">sys/types.h</text>
</a>
</g>
</g>
<!-- Node12&#45;&gt;Node14 -->
<g id="edge20_Node000012_Node000014" class="edge">
<title>Node12&#45;&gt;Node14</title>
<g id="a_edge20_Node000012_Node000014"><a xlink:title=" ">
<path fill="none" stroke="#63b8ff" d="M541.78,-164.75C546.62,-157.42 553.68,-146.73 559.64,-137.7"/>
<polygon fill="#63b8ff" stroke="#63b8ff" points="562.74,-139.36 565.33,-129.09 556.9,-135.5 562.74,-139.36"/>
</a>
</g>
</g>
<!-- Node15&#45;&gt;Node11 -->
<g id="edge23_Node000015_Node000011" class="edge">
<title>Node15&#45;&gt;Node11</title>
<g id="a_edge23_Node000015_Node000011"><a xlink:title=" ">
<path fill="none" stroke="#63b8ff" d="M434.12,-164.66C430.38,-147.09 421.93,-107.45 416.93,-83.95"/>
<polygon fill="#63b8ff" stroke="#63b8ff" points="420.35,-83.21 414.84,-74.16 413.5,-84.67 420.35,-83.21"/>
</a>
</g>
</g>
<!-- Node15&#45;&gt;Node13 -->
<g id="edge24_Node000015_Node000013" class="edge">
<title>Node15&#45;&gt;Node13</title>
<g id="a_edge24_Node000015_Node000013"><a xlink:title=" ">
<path fill="none" stroke="#63b8ff" d="M444.92,-164.75C452.78,-157.03 464.43,-145.6 473.92,-136.28"/>
<polygon fill="#63b8ff" stroke="#63b8ff" points="476.56,-138.59 481.25,-129.09 471.66,-133.6 476.56,-138.59"/>
</a>
</g>
</g>
<!-- Node19&#45;&gt;Node11 -->
<g id="edge30_Node000019_Node000011" class="edge">
<title>Node19&#45;&gt;Node11</title>
<g id="a_edge30_Node000019_Node000011"><a xlink:title=" ">
<path fill="none" stroke="#63b8ff" d="M372.93,-109.75C379.85,-102.11 390.07,-90.82 398.45,-81.56"/>
<polygon fill="#63b8ff" stroke="#63b8ff" points="401.1,-83.85 405.22,-74.09 395.91,-79.15 401.1,-83.85"/>
</a>
</g>
</g>
<!-- Node19&#45;&gt;Node19 -->
<g id="edge31_Node000019_Node000019" class="edge">
<title>Node19&#45;&gt;Node19</title>
<g id="a_edge31_Node000019_Node000019"><a xlink:title=" ">
<path fill="none" stroke="#63b8ff" d="M384.88,-129.07C396.33,-131.02 407,-127.83 407,-119.5 407,-113.77 401.96,-110.47 395.08,-109.61"/>
<polygon fill="#63b8ff" stroke="#63b8ff" points="394.76,-106.12 384.88,-109.93 394.98,-113.11 394.76,-106.12"/>
</a>
</g>
</g>
</g>
</svg>
