<?xml version="1.0" encoding="UTF-8" standalone="no"?>
<!DOCTYPE svg PUBLIC "-//W3C//DTD SVG 1.1//EN"
 "http://www.w3.org/Graphics/SVG/1.1/DTD/svg11.dtd">
<!-- Generated by graphviz version 2.43.0 (0)
 -->
<!-- Title: src/protocols/root/stream/module_enums.h Pages: 1 -->
<svg width="396pt" height="104pt"
 viewBox="0.00 0.00 396.00 104.00" xmlns="http://www.w3.org/2000/svg" xmlns:xlink="http://www.w3.org/1999/xlink">
<g id="graph0" class="graph" transform="scale(1 1) rotate(0) translate(4 100)">
<title>src/protocols/root/stream/module_enums.h</title>
<!-- Node1 -->
<g id="Node000001" class="node">
<title>Node1</title>
<g id="a_Node000001"><a xlink:title=" ">
<polygon fill="#999999" stroke="#666666" points="249.5,-96 108.5,-96 108.5,-66 249.5,-66 249.5,-96"/>
<text text-anchor="start" x="116.5" y="-84" font-family="Helvetica,sans-Serif" font-size="10.00">src/protocols/root</text>
<text text-anchor="middle" x="179" y="-73" font-family="Helvetica,sans-Serif" font-size="10.00">/stream/module_enums.h</text>
</a>
</g>
</g>
<!-- Node2 -->
<g id="Node000002" class="node">
<title>Node2</title>
<g id="a_Node000002"><a xlink:href="http__common_8c.html" target="_top" xlink:title=" ">
<polygon fill="white" stroke="#666666" points="110,-30 0,-30 0,0 110,0 110,-30"/>
<text text-anchor="start" x="8" y="-18" font-family="Helvetica,sans-Serif" font-size="10.00">src/core/config/http</text>
<text text-anchor="middle" x="55" y="-7" font-family="Helvetica,sans-Serif" font-size="10.00">_common.c</text>
</a>
</g>
</g>
<!-- Node1&#45;&gt;Node2 -->
<g id="edge1_Node000001_Node000002" class="edge">
<title>Node1&#45;&gt;Node2</title>
<g id="a_edge1_Node000001_Node000002"><a xlink:title=" ">
<path fill="none" stroke="#63b8ff" d="M142.66,-61.24C123.3,-51.25 99.9,-39.18 82.15,-30.01"/>
<polygon fill="#63b8ff" stroke="#63b8ff" points="141.3,-64.48 151.79,-65.95 144.51,-58.26 141.3,-64.48"/>
</a>
</g>
</g>
<!-- Node3 -->
<g id="Node000003" class="node">
<title>Node3</title>
<g id="a_Node000003"><a xlink:href="protocols_2root_2stream_2module_8c.html" target="_top" xlink:title=" ">
<polygon fill="white" stroke="#666666" points="230,-30 128,-30 128,0 230,0 230,-30"/>
<text text-anchor="start" x="136" y="-18" font-family="Helvetica,sans-Serif" font-size="10.00">src/protocols/root</text>
<text text-anchor="middle" x="179" y="-7" font-family="Helvetica,sans-Serif" font-size="10.00">/stream/module.c</text>
</a>
</g>
</g>
<!-- Node1&#45;&gt;Node3 -->
<g id="edge2_Node000001_Node000003" class="edge">
<title>Node1&#45;&gt;Node3</title>
<g id="a_edge2_Node000001_Node000003"><a xlink:title=" ">
<path fill="none" stroke="#63b8ff" d="M179,-55.54C179,-46.96 179,-37.61 179,-30.16"/>
<polygon fill="#63b8ff" stroke="#63b8ff" points="175.5,-55.8 179,-65.8 182.5,-55.8 175.5,-55.8"/>
</a>
</g>
</g>
<!-- Node4 -->
<g id="Node000004" class="node">
<title>Node4</title>
<g id="a_Node000004"><a xlink:href="module__enums_8c.html" target="_top" xlink:title=" ">
<polygon fill="white" stroke="#666666" points="388,-30 248,-30 248,0 388,0 388,-30"/>
<text text-anchor="start" x="256" y="-18" font-family="Helvetica,sans-Serif" font-size="10.00">src/protocols/root</text>
<text text-anchor="middle" x="318" y="-7" font-family="Helvetica,sans-Serif" font-size="10.00">/stream/module_enums.c</text>
</a>
</g>
</g>
<!-- Node1&#45;&gt;Node4 -->
<g id="edge3_Node000001_Node000004" class="edge">
<title>Node1&#45;&gt;Node4</title>
<g id="a_edge3_Node000001_Node000004"><a xlink:title=" ">
<path fill="none" stroke="#63b8ff" d="M218.86,-61.65C240.72,-51.58 267.39,-39.3 287.57,-30.01"/>
<polygon fill="#63b8ff" stroke="#63b8ff" points="217.12,-58.59 209.5,-65.95 220.05,-64.95 217.12,-58.59"/>
</a>
</g>
</g>
</g>
</svg>
