<?xml version="1.0" encoding="UTF-8" standalone="no"?>
<!DOCTYPE svg PUBLIC "-//W3C//DTD SVG 1.1//EN"
 "http://www.w3.org/Graphics/SVG/1.1/DTD/svg11.dtd">
<!-- Generated by graphviz version 2.43.0 (0)
 -->
<!-- Title: src/core/compat/net_target.h Pages: 1 -->
<!--zoomable 170 -->

<svg id="main" version="1.1" xmlns="http://www.w3.org/2000/svg" xmlns:xlink="http://www.w3.org/1999/xlink" xml:space="preserve" onload="init(evt)">
<style type="text/css"><![CDATA[
.node, .edge {opacity: 0.7;}
.node.selected, .edge.selected {opacity: 1;}
.edge:hover path { stroke: red; }
.edge:hover polygon { stroke: red; fill: red; }
]]></style>

<defs>
  <circle id="rim" cx="0" cy="0" r="7"/>
  <circle id="rim2" cx="0" cy="0" r="3.5"/>
  <g id="zoomPlus">
    <use xlink:href="#rim" fill="#404040"><set attributeName="fill" to="#808080" begin="zoomplus.mouseover" end="zoomplus.mouseout"/></use>
    <path d="M-4,0h8M0,-4v8" fill="none" stroke="white" stroke-width="1.5" pointer-events="none"/>
  </g>
  <g id="zoomMin">
    <use xlink:href="#rim" fill="#404040"><set attributeName="fill" to="#808080" begin="zoomminus.mouseover" end="zoomminus.mouseout"/></use>
    <path d="M-4,0h8" fill="none" stroke="white" stroke-width="1.5" pointer-events="none"/>
  </g>
  <g id="arrowUp" transform="translate(30 24)">
    <use xlink:href="#rim"/>
    <path pointer-events="none" fill="none" stroke="white" stroke-width="1.5" d="M0,-3.0v7 M-2.5,-0.5L0,-3.0L2.5,-0.5"/>
  </g>
  <g id="arrowRight" transform="rotate(90) translate(36 -43)">
    <use xlink:href="#rim"/>
    <path pointer-events="none" fill="none" stroke="white" stroke-width="1.5" d="M0,-3.0v7 M-2.5,-0.5L0,-3.0L2.5,-0.5"/>
  </g>
  <g id="arrowDown" transform="rotate(180) translate(-30 -48)">
    <use xlink:href="#rim"/>
    <path pointer-events="none" fill="none" stroke="white" stroke-width="1.5" d="M0,-3.0v7 M-2.5,-0.5L0,-3.0L2.5,-0.5"/>
  </g>
  <g id="arrowLeft" transform="rotate(270) translate(-36 17)">
    <use xlink:href="#rim"/>
    <path pointer-events="none" fill="none" stroke="white" stroke-width="1.5" d="M0,-3.0v7 M-2.5,-0.5L0,-3.0L2.5,-0.5"/>
  </g>
  <g id="resetDef">
    <use xlink:href="#rim2" fill="#404040"><set attributeName="fill" to="#808080" begin="reset.mouseover" end="reset.mouseout"/></use>
  </g>
</defs>
<script type="application/ecmascript">
var viewWidth = 2092;
var viewHeight = 170;
var sectionId = 'dynsection-1';
</script>
<script type="application/ecmascript" xlink:href="svg.min.js"/>
<svg id="graph" class="graph">
<g id="viewport">
<title>src/core/compat/net_target.h</title>
<!-- Node1 -->
<g id="Node000001" class="node">
<title>Node1</title>
<g id="a_Node000001"><a xlink:title=" ">
<polygon fill="#999999" stroke="#666666" points="1019,-162 906,-162 906,-132 1019,-132 1019,-162"/>
<text text-anchor="start" x="914" y="-150" font-family="Helvetica,sans-Serif" font-size="10.00">src/core/compat/net</text>
<text text-anchor="middle" x="962.5" y="-139" font-family="Helvetica,sans-Serif" font-size="10.00">_target.h</text>
</a>
</g>
</g>
<!-- Node2 -->
<g id="Node000002" class="node">
<title>Node2</title>
<g id="a_Node000002"><a xlink:href="net__target_8c.html" target="_top" xlink:title=" ">
<polygon fill="white" stroke="#666666" points="113,-30 0,-30 0,0 113,0 113,-30"/>
<text text-anchor="start" x="8" y="-18" font-family="Helvetica,sans-Serif" font-size="10.00">src/core/compat/net</text>
<text text-anchor="middle" x="56.5" y="-7" font-family="Helvetica,sans-Serif" font-size="10.00">_target.c</text>
</a>
</g>
</g>
<!-- Node1&#45;&gt;Node2 -->
<g id="edge1_Node000001_Node000002" class="edge">
<title>Node1&#45;&gt;Node2</title>
<g id="a_edge1_Node000001_Node000002"><a xlink:title=" ">
<path fill="none" stroke="#63b8ff" d="M895.72,-145.04C709.16,-141.95 191.69,-130.34 123.5,-96 94.86,-81.58 73.8,-48.85 63.52,-30.03"/>
<polygon fill="#63b8ff" stroke="#63b8ff" points="895.88,-148.55 905.94,-145.21 895.99,-141.55 895.88,-148.55"/>
</a>
</g>
</g>
<!-- Node3 -->
<g id="Node000003" class="node">
<title>Node3</title>
<g id="a_Node000003"><a xlink:href="net__target__dns_8c.html" target="_top" xlink:title=" ">
<polygon fill="white" stroke="#666666" points="244,-30 131,-30 131,0 244,0 244,-30"/>
<text text-anchor="start" x="139" y="-18" font-family="Helvetica,sans-Serif" font-size="10.00">src/core/compat/net</text>
<text text-anchor="middle" x="187.5" y="-7" font-family="Helvetica,sans-Serif" font-size="10.00">_target_dns.c</text>
</a>
</g>
</g>
<!-- Node1&#45;&gt;Node3 -->
<g id="edge2_Node000001_Node000003" class="edge">
<title>Node1&#45;&gt;Node3</title>
<g id="a_edge2_Node000001_Node000003"><a xlink:title=" ">
<path fill="none" stroke="#63b8ff" d="M895.43,-143.65C758.76,-138.34 452.41,-123.68 351.5,-96 297.58,-81.21 240.05,-48.78 209.52,-30.07"/>
<polygon fill="#63b8ff" stroke="#63b8ff" points="895.64,-147.16 905.76,-144.04 895.9,-140.16 895.64,-147.16"/>
</a>
</g>
</g>
<!-- Node4 -->
<g id="Node000004" class="node">
<title>Node4</title>
<g id="a_Node000004"><a xlink:href="net__target__internal_8h.html" target="_top" xlink:title=" ">
<polygon fill="white" stroke="#666666" points="246,-96 133,-96 133,-66 246,-66 246,-96"/>
<text text-anchor="start" x="141" y="-84" font-family="Helvetica,sans-Serif" font-size="10.00">src/core/compat/net</text>
<text text-anchor="middle" x="189.5" y="-73" font-family="Helvetica,sans-Serif" font-size="10.00">_target_internal.h</text>
</a>
</g>
</g>
<!-- Node1&#45;&gt;Node4 -->
<g id="edge3_Node000001_Node000004" class="edge">
<title>Node1&#45;&gt;Node4</title>
<g id="a_edge3_Node000001_Node000004"><a xlink:title=" ">
<path fill="none" stroke="#63b8ff" d="M895.44,-142.86C773.01,-136.72 505.16,-121.48 280.5,-96 269.38,-94.74 257.54,-93.12 246.2,-91.44"/>
<polygon fill="#63b8ff" stroke="#63b8ff" points="895.61,-146.37 905.77,-143.37 895.96,-139.38 895.61,-146.37"/>
</a>
</g>
</g>
<!-- Node5 -->
<g id="Node000005" class="node">
<title>Node5</title>
<g id="a_Node000005"><a xlink:href="net__target__parse_8c.html" target="_top" xlink:title=" ">
<polygon fill="white" stroke="#666666" points="375,-30 262,-30 262,0 375,0 375,-30"/>
<text text-anchor="start" x="270" y="-18" font-family="Helvetica,sans-Serif" font-size="10.00">src/core/compat/net</text>
<text text-anchor="middle" x="318.5" y="-7" font-family="Helvetica,sans-Serif" font-size="10.00">_target_parse.c</text>
</a>
</g>
</g>
<!-- Node1&#45;&gt;Node5 -->
<g id="edge7_Node000001_Node000005" class="edge">
<title>Node1&#45;&gt;Node5</title>
<g id="a_edge7_Node000001_Node000005"><a xlink:title=" ">
<path fill="none" stroke="#63b8ff" d="M895.44,-146.16C764.16,-145.5 478.46,-139 391.5,-96 361.84,-81.33 338.46,-49.02 326.74,-30.26"/>
<polygon fill="#63b8ff" stroke="#63b8ff" points="895.75,-149.66 905.76,-146.2 895.78,-142.66 895.75,-149.66"/>
</a>
</g>
</g>
<!-- Node6 -->
<g id="Node000006" class="node">
<title>Node6</title>
<g id="a_Node000006"><a xlink:href="net_2cms_2recv__frame_8c.html" target="_top" xlink:title=" ">
<polygon fill="white" stroke="#666666" points="540.5,-90.5 400.5,-90.5 400.5,-71.5 540.5,-71.5 540.5,-90.5"/>
<text text-anchor="middle" x="470.5" y="-78.5" font-family="Helvetica,sans-Serif" font-size="10.00">src/net/cms/recv_frame.c</text>
</a>
</g>
</g>
<!-- Node1&#45;&gt;Node6 -->
<g id="edge8_Node000001_Node000006" class="edge">
<title>Node1&#45;&gt;Node6</title>
<g id="a_edge8_Node000001_Node000006"><a xlink:title=" ">
<path fill="none" stroke="#63b8ff" d="M895.77,-139.06C813.99,-130.3 671.27,-114.15 549.5,-96 538.75,-94.4 527.22,-92.47 516.38,-90.57"/>
<polygon fill="#63b8ff" stroke="#63b8ff" points="895.6,-142.56 905.92,-140.15 896.35,-135.6 895.6,-142.56"/>
</a>
</g>
</g>
<!-- Node7 -->
<g id="Node000007" class="node">
<title>Node7</title>
<g id="a_Node000007"><a xlink:href="server__auth_8c.html" target="_top" xlink:title=" ">
<polygon fill="white" stroke="#666666" points="666,-96 559,-96 559,-66 666,-66 666,-96"/>
<text text-anchor="start" x="567" y="-84" font-family="Helvetica,sans-Serif" font-size="10.00">src/net/cms/server</text>
<text text-anchor="middle" x="612.5" y="-73" font-family="Helvetica,sans-Serif" font-size="10.00">_auth.c</text>
</a>
</g>
</g>
<!-- Node1&#45;&gt;Node7 -->
<g id="edge9_Node000001_Node000007" class="edge">
<title>Node1&#45;&gt;Node7</title>
<g id="a_edge9_Node000001_Node000007"><a xlink:title=" ">
<path fill="none" stroke="#63b8ff" d="M895.57,-135.36C837.08,-125.82 749.97,-111.06 674.5,-96 671.79,-95.46 669.03,-94.89 666.23,-94.31"/>
<polygon fill="#63b8ff" stroke="#63b8ff" points="895.35,-138.87 905.78,-137.02 896.47,-131.96 895.35,-138.87"/>
</a>
</g>
</g>
<!-- Node8 -->
<g id="Node000008" class="node">
<title>Node8</title>
<g id="a_Node000008"><a xlink:href="registry__internal_8h.html" target="_top" xlink:title=" ">
<polygon fill="white" stroke="#666666" points="821,-96 684,-96 684,-66 821,-66 821,-96"/>
<text text-anchor="start" x="692" y="-84" font-family="Helvetica,sans-Serif" font-size="10.00">src/net/manager/registry</text>
<text text-anchor="middle" x="752.5" y="-73" font-family="Helvetica,sans-Serif" font-size="10.00">_internal.h</text>
</a>
</g>
</g>
<!-- Node1&#45;&gt;Node8 -->
<g id="edge10_Node000001_Node000008" class="edge">
<title>Node1&#45;&gt;Node8</title>
<g id="a_edge10_Node000001_Node000008"><a xlink:title=" ">
<path fill="none" stroke="#63b8ff" d="M906.68,-128.99C872.89,-118.69 830.32,-105.72 798.48,-96.01"/>
<polygon fill="#63b8ff" stroke="#63b8ff" points="905.83,-132.39 916.41,-131.95 907.87,-125.69 905.83,-132.39"/>
</a>
</g>
</g>
<!-- Node13 -->
<g id="Node000013" class="node">
<title>Node13</title>
<g id="a_Node000013"><a xlink:href="ftp__ev__data_8c.html" target="_top" xlink:title=" ">
<polygon fill="white" stroke="#666666" points="952,-96 839,-96 839,-66 952,-66 952,-96"/>
<text text-anchor="start" x="847" y="-84" font-family="Helvetica,sans-Serif" font-size="10.00">src/protocols/gridftp</text>
<text text-anchor="middle" x="895.5" y="-73" font-family="Helvetica,sans-Serif" font-size="10.00">/ev/ftp_ev_data.c</text>
</a>
</g>
</g>
<!-- Node1&#45;&gt;Node13 -->
<g id="edge15_Node000001_Node000013" class="edge">
<title>Node1&#45;&gt;Node13</title>
<g id="a_edge15_Node000001_Node000013"><a xlink:title=" ">
<path fill="none" stroke="#63b8ff" d="M940.15,-124.65C930.33,-115.27 919.08,-104.53 910.33,-96.16"/>
<polygon fill="#63b8ff" stroke="#63b8ff" points="937.98,-127.42 947.63,-131.8 942.82,-122.36 937.98,-127.42"/>
</a>
</g>
</g>
<!-- Node14 -->
<g id="Node000014" class="node">
<title>Node14</title>
<g id="a_Node000014"><a xlink:href="tpc__curl__internal_8h.html" target="_top" xlink:title=" ">
<polygon fill="white" stroke="#666666" points="1090.5,-96 970.5,-96 970.5,-66 1090.5,-66 1090.5,-96"/>
<text text-anchor="start" x="978.5" y="-84" font-family="Helvetica,sans-Serif" font-size="10.00">src/protocols/webdav</text>
<text text-anchor="middle" x="1030.5" y="-73" font-family="Helvetica,sans-Serif" font-size="10.00">/tpc_curl_internal.h</text>
</a>
</g>
</g>
<!-- Node1&#45;&gt;Node14 -->
<g id="edge16_Node000001_Node000014" class="edge">
<title>Node1&#45;&gt;Node14</title>
<g id="a_edge16_Node000001_Node000014"><a xlink:title=" ">
<path fill="none" stroke="#63b8ff" d="M984.89,-124.92C994.92,-115.49 1006.48,-104.61 1015.45,-96.16"/>
<polygon fill="#63b8ff" stroke="#63b8ff" points="982.47,-122.39 977.59,-131.8 987.27,-127.49 982.47,-122.39"/>
</a>
</g>
</g>
<!-- Node19 -->
<g id="Node000019" class="node">
<title>Node19</title>
<g id="a_Node000019"><a xlink:href="tpc__marker_8c.html" target="_top" xlink:title=" ">
<polygon fill="white" stroke="#666666" points="1228.5,-96 1108.5,-96 1108.5,-66 1228.5,-66 1228.5,-96"/>
<text text-anchor="start" x="1116.5" y="-84" font-family="Helvetica,sans-Serif" font-size="10.00">src/protocols/webdav</text>
<text text-anchor="middle" x="1168.5" y="-73" font-family="Helvetica,sans-Serif" font-size="10.00">/tpc_marker.c</text>
</a>
</g>
</g>
<!-- Node1&#45;&gt;Node19 -->
<g id="edge21_Node000001_Node000019" class="edge">
<title>Node1&#45;&gt;Node19</title>
<g id="a_edge21_Node000001_Node000019"><a xlink:title=" ">
<path fill="none" stroke="#63b8ff" d="M1017.68,-128.86C1050.76,-118.58 1092.29,-105.68 1123.4,-96.01"/>
<polygon fill="#63b8ff" stroke="#63b8ff" points="1016.22,-125.65 1007.71,-131.95 1018.3,-132.33 1016.22,-125.65"/>
</a>
</g>
</g>
<!-- Node20 -->
<g id="Node000020" class="node">
<title>Node20</title>
<g id="a_Node000020"><a xlink:href="tpc__marker__start_8c.html" target="_top" xlink:title=" ">
<polygon fill="white" stroke="#666666" points="1366.5,-96 1246.5,-96 1246.5,-66 1366.5,-66 1366.5,-96"/>
<text text-anchor="start" x="1254.5" y="-84" font-family="Helvetica,sans-Serif" font-size="10.00">src/protocols/webdav</text>
<text text-anchor="middle" x="1306.5" y="-73" font-family="Helvetica,sans-Serif" font-size="10.00">/tpc_marker_start.c</text>
</a>
</g>
</g>
<!-- Node1&#45;&gt;Node20 -->
<g id="edge22_Node000001_Node000020" class="edge">
<title>Node1&#45;&gt;Node20</title>
<g id="a_edge22_Node000001_Node000020"><a xlink:title=" ">
<path fill="none" stroke="#63b8ff" d="M1029.28,-134.25C1085.01,-124.35 1166.51,-109.65 1237.5,-96 1240.38,-95.45 1243.33,-94.87 1246.3,-94.29"/>
<polygon fill="#63b8ff" stroke="#63b8ff" points="1028.42,-130.85 1019.18,-136.04 1029.64,-137.74 1028.42,-130.85"/>
</a>
</g>
</g>
<!-- Node21 -->
<g id="Node000021" class="node">
<title>Node21</title>
<g id="a_Node000021"><a xlink:href="tpc__thread_8c.html" target="_top" xlink:title=" ">
<polygon fill="white" stroke="#666666" points="1504.5,-96 1384.5,-96 1384.5,-66 1504.5,-66 1504.5,-96"/>
<text text-anchor="start" x="1392.5" y="-84" font-family="Helvetica,sans-Serif" font-size="10.00">src/protocols/webdav</text>
<text text-anchor="middle" x="1444.5" y="-73" font-family="Helvetica,sans-Serif" font-size="10.00">/tpc_thread.c</text>
</a>
</g>
</g>
<!-- Node1&#45;&gt;Node21 -->
<g id="edge23_Node000001_Node000021" class="edge">
<title>Node1&#45;&gt;Node21</title>
<g id="a_edge23_Node000001_Node000021"><a xlink:title=" ">
<path fill="none" stroke="#63b8ff" d="M1029.31,-139.57C1111.17,-131.3 1253.96,-115.65 1375.5,-96 1378.4,-95.53 1381.36,-95.03 1384.34,-94.5"/>
<polygon fill="#63b8ff" stroke="#63b8ff" points="1028.75,-136.11 1019.15,-140.59 1029.45,-143.07 1028.75,-136.11"/>
</a>
</g>
</g>
<!-- Node22 -->
<g id="Node000022" class="node">
<title>Node22</title>
<g id="a_Node000022"><a xlink:href="xrdhttp_8c.html" target="_top" xlink:title=" ">
<polygon fill="white" stroke="#666666" points="1642.5,-96 1522.5,-96 1522.5,-66 1642.5,-66 1642.5,-96"/>
<text text-anchor="start" x="1530.5" y="-84" font-family="Helvetica,sans-Serif" font-size="10.00">src/protocols/webdav</text>
<text text-anchor="middle" x="1582.5" y="-73" font-family="Helvetica,sans-Serif" font-size="10.00">/xrdhttp.c</text>
</a>
</g>
</g>
<!-- Node1&#45;&gt;Node22 -->
<g id="edge24_Node000001_Node000022" class="edge">
<title>Node1&#45;&gt;Node22</title>
<g id="a_edge24_Node000001_Node000022"><a xlink:title=" ">
<path fill="none" stroke="#63b8ff" d="M1029.09,-142.32C1132.95,-136.05 1339.66,-121.44 1513.5,-96 1516.4,-95.58 1519.37,-95.11 1522.36,-94.61"/>
<polygon fill="#63b8ff" stroke="#63b8ff" points="1028.83,-138.83 1019.06,-142.92 1029.25,-145.82 1028.83,-138.83"/>
</a>
</g>
</g>
<!-- Node23 -->
<g id="Node000023" class="node">
<title>Node23</title>
<g id="a_Node000023"><a xlink:href="xrdhttp__response_8c.html" target="_top" xlink:title=" ">
<polygon fill="white" stroke="#666666" points="1780.5,-96 1660.5,-96 1660.5,-66 1780.5,-66 1780.5,-96"/>
<text text-anchor="start" x="1668.5" y="-84" font-family="Helvetica,sans-Serif" font-size="10.00">src/protocols/webdav</text>
<text text-anchor="middle" x="1720.5" y="-73" font-family="Helvetica,sans-Serif" font-size="10.00">/xrdhttp_response.c</text>
</a>
</g>
</g>
<!-- Node1&#45;&gt;Node23 -->
<g id="edge25_Node000001_Node000023" class="edge">
<title>Node1&#45;&gt;Node23</title>
<g id="a_edge25_Node000001_Node000023"><a xlink:title=" ">
<path fill="none" stroke="#63b8ff" d="M1029.06,-144C1152.36,-139.66 1424.4,-127.15 1651.5,-96 1654.41,-95.6 1657.37,-95.15 1660.37,-94.67"/>
<polygon fill="#63b8ff" stroke="#63b8ff" points="1028.89,-140.5 1019.02,-144.34 1029.13,-147.5 1028.89,-140.5"/>
</a>
</g>
</g>
<!-- Node24 -->
<g id="Node000024" class="node">
<title>Node24</title>
<g id="a_Node000024"><a xlink:href="xrdhttp__tpc_8c.html" target="_top" xlink:title=" ">
<polygon fill="white" stroke="#666666" points="1918.5,-96 1798.5,-96 1798.5,-66 1918.5,-66 1918.5,-96"/>
<text text-anchor="start" x="1806.5" y="-84" font-family="Helvetica,sans-Serif" font-size="10.00">src/protocols/webdav</text>
<text text-anchor="middle" x="1858.5" y="-73" font-family="Helvetica,sans-Serif" font-size="10.00">/xrdhttp_tpc.c</text>
</a>
</g>
</g>
<!-- Node1&#45;&gt;Node24 -->
<g id="edge26_Node000001_Node000024" class="edge">
<title>Node1&#45;&gt;Node24</title>
<g id="a_edge26_Node000001_Node000024"><a xlink:title=" ">
<path fill="none" stroke="#63b8ff" d="M1029.38,-145.12C1170.45,-142.57 1508.62,-132.8 1789.5,-96 1792.41,-95.62 1795.38,-95.19 1798.37,-94.71"/>
<polygon fill="#63b8ff" stroke="#63b8ff" points="1029.1,-141.63 1019.16,-145.3 1029.22,-148.62 1029.1,-141.63"/>
</a>
</g>
</g>
<!-- Node25 -->
<g id="Node000025" class="node">
<title>Node25</title>
<g id="a_Node000025"><a xlink:href="tpc_2outbound_2connect_8c.html" target="_top" xlink:title=" ">
<polygon fill="white" stroke="#666666" points="2084,-90.5 1937,-90.5 1937,-71.5 2084,-71.5 2084,-90.5"/>
<text text-anchor="middle" x="2010.5" y="-78.5" font-family="Helvetica,sans-Serif" font-size="10.00">src/tpc/outbound/connect.c</text>
</a>
</g>
</g>
<!-- Node1&#45;&gt;Node25 -->
<g id="edge27_Node000001_Node000025" class="edge">
<title>Node1&#45;&gt;Node25</title>
<g id="a_edge27_Node000001_Node000025"><a xlink:title=" ">
<path fill="none" stroke="#63b8ff" d="M1029.7,-145.18C1187.08,-142.68 1591.7,-132.9 1927.5,-96 1939.99,-94.63 1953.46,-92.6 1965.83,-90.51"/>
<polygon fill="#63b8ff" stroke="#63b8ff" points="1029.19,-141.69 1019.24,-145.34 1029.3,-148.69 1029.19,-141.69"/>
</a>
</g>
</g>
<!-- Node4&#45;&gt;Node2 -->
<g id="edge4_Node000004_Node000002" class="edge">
<title>Node4&#45;&gt;Node2</title>
<g id="a_edge4_Node000004_Node000002"><a xlink:title=" ">
<path fill="none" stroke="#63b8ff" d="M151.08,-61.51C130.22,-51.47 104.83,-39.26 85.62,-30.01"/>
<polygon fill="#63b8ff" stroke="#63b8ff" points="149.78,-64.77 160.31,-65.95 152.82,-58.46 149.78,-64.77"/>
</a>
</g>
</g>
<!-- Node4&#45;&gt;Node3 -->
<g id="edge5_Node000004_Node000003" class="edge">
<title>Node4&#45;&gt;Node3</title>
<g id="a_edge5_Node000004_Node000003"><a xlink:title=" ">
<path fill="none" stroke="#63b8ff" d="M188.74,-55.54C188.47,-46.96 188.18,-37.61 187.94,-30.16"/>
<polygon fill="#63b8ff" stroke="#63b8ff" points="185.25,-55.91 189.06,-65.8 192.24,-55.69 185.25,-55.91"/>
</a>
</g>
</g>
<!-- Node4&#45;&gt;Node5 -->
<g id="edge6_Node000004_Node000005" class="edge">
<title>Node4&#45;&gt;Node5</title>
<g id="a_edge6_Node000004_Node000005"><a xlink:title=" ">
<path fill="none" stroke="#63b8ff" d="M227.04,-61.38C247.22,-51.36 271.7,-39.22 290.26,-30.01"/>
<polygon fill="#63b8ff" stroke="#63b8ff" points="225.21,-58.38 217.81,-65.95 228.32,-64.65 225.21,-58.38"/>
</a>
</g>
</g>
<!-- Node9 -->
<g id="Node000009" class="node">
<title>Node9</title>
<g id="a_Node000009"><a xlink:href="net_2manager_2registry_8c.html" target="_top" xlink:title=" ">
<polygon fill="white" stroke="#666666" points="1001,-24.5 858,-24.5 858,-5.5 1001,-5.5 1001,-24.5"/>
<text text-anchor="middle" x="929.5" y="-12.5" font-family="Helvetica,sans-Serif" font-size="10.00">src/net/manager/registry.c</text>
</a>
</g>
</g>
<!-- Node8&#45;&gt;Node9 -->
<g id="edge11_Node000008_Node000009" class="edge">
<title>Node8&#45;&gt;Node9</title>
<g id="a_edge11_Node000008_Node000009"><a xlink:title=" ">
<path fill="none" stroke="#63b8ff" d="M801.12,-62.42C835.22,-50.09 879.31,-34.15 905.94,-24.52"/>
<polygon fill="#63b8ff" stroke="#63b8ff" points="799.56,-59.26 791.34,-65.95 801.94,-65.85 799.56,-59.26"/>
</a>
</g>
</g>
<!-- Node10 -->
<g id="Node000010" class="node">
<title>Node10</title>
<g id="a_Node000010"><a xlink:href="registry__health_8c.html" target="_top" xlink:title=" ">
<polygon fill="white" stroke="#666666" points="530,-30 393,-30 393,0 530,0 530,-30"/>
<text text-anchor="start" x="401" y="-18" font-family="Helvetica,sans-Serif" font-size="10.00">src/net/manager/registry</text>
<text text-anchor="middle" x="461.5" y="-7" font-family="Helvetica,sans-Serif" font-size="10.00">_health.c</text>
</a>
</g>
</g>
<!-- Node8&#45;&gt;Node10 -->
<g id="edge12_Node000008_Node000010" class="edge">
<title>Node8&#45;&gt;Node10</title>
<g id="a_edge12_Node000008_Node000010"><a xlink:title=" ">
<path fill="none" stroke="#63b8ff" d="M678.75,-63.78C631.38,-53.36 570.47,-39.97 525.21,-30.01"/>
<polygon fill="#63b8ff" stroke="#63b8ff" points="678.12,-67.23 688.64,-65.95 679.62,-60.39 678.12,-67.23"/>
</a>
</g>
</g>
<!-- Node11 -->
<g id="Node000011" class="node">
<title>Node11</title>
<g id="a_Node000011"><a xlink:href="registry__select_8c.html" target="_top" xlink:title=" ">
<polygon fill="white" stroke="#666666" points="685,-30 548,-30 548,0 685,0 685,-30"/>
<text text-anchor="start" x="556" y="-18" font-family="Helvetica,sans-Serif" font-size="10.00">src/net/manager/registry</text>
<text text-anchor="middle" x="616.5" y="-7" font-family="Helvetica,sans-Serif" font-size="10.00">_select.c</text>
</a>
</g>
</g>
<!-- Node8&#45;&gt;Node11 -->
<g id="edge13_Node000008_Node000011" class="edge">
<title>Node8&#45;&gt;Node11</title>
<g id="a_edge13_Node000008_Node000011"><a xlink:title=" ">
<path fill="none" stroke="#63b8ff" d="M713.5,-61.65C692.11,-51.58 666.01,-39.3 646.28,-30.01"/>
<polygon fill="#63b8ff" stroke="#63b8ff" points="712.12,-64.86 722.65,-65.95 715.1,-58.53 712.12,-64.86"/>
</a>
</g>
</g>
<!-- Node12 -->
<g id="Node000012" class="node">
<title>Node12</title>
<g id="a_Node000012"><a xlink:href="registry__select__blacklist_8c.html" target="_top" xlink:title=" ">
<polygon fill="white" stroke="#666666" points="840,-30 703,-30 703,0 840,0 840,-30"/>
<text text-anchor="start" x="711" y="-18" font-family="Helvetica,sans-Serif" font-size="10.00">src/net/manager/registry</text>
<text text-anchor="middle" x="771.5" y="-7" font-family="Helvetica,sans-Serif" font-size="10.00">_select_blacklist.c</text>
</a>
</g>
</g>
<!-- Node8&#45;&gt;Node12 -->
<g id="edge14_Node000008_Node000012" class="edge">
<title>Node8&#45;&gt;Node12</title>
<g id="a_edge14_Node000008_Node000012"><a xlink:title=" ">
<path fill="none" stroke="#63b8ff" d="M759.59,-56.11C762.19,-47.38 765.03,-37.78 767.3,-30.16"/>
<polygon fill="#63b8ff" stroke="#63b8ff" points="756.21,-55.21 756.72,-65.8 762.92,-57.21 756.21,-55.21"/>
</a>
</g>
</g>
<!-- Node15 -->
<g id="Node000015" class="node">
<title>Node15</title>
<g id="a_Node000015"><a xlink:href="tpc__curl_8c.html" target="_top" xlink:title=" ">
<polygon fill="white" stroke="#666666" points="1553.5,-30 1433.5,-30 1433.5,0 1553.5,0 1553.5,-30"/>
<text text-anchor="start" x="1441.5" y="-18" font-family="Helvetica,sans-Serif" font-size="10.00">src/protocols/webdav</text>
<text text-anchor="middle" x="1493.5" y="-7" font-family="Helvetica,sans-Serif" font-size="10.00">/tpc_curl.c</text>
</a>
</g>
</g>
<!-- Node14&#45;&gt;Node15 -->
<g id="edge17_Node000014_Node000015" class="edge">
<title>Node14&#45;&gt;Node15</title>
<g id="a_edge17_Node000014_Node000015"><a xlink:title=" ">
<path fill="none" stroke="#63b8ff" d="M1100.75,-65.9C1244.83,-43.91 1284.14,-51.97 1424.5,-30 1427.4,-29.55 1430.36,-29.05 1433.35,-28.54"/>
<polygon fill="#63b8ff" stroke="#63b8ff" points="1100,-62.47 1090.65,-67.46 1101.07,-69.39 1100,-62.47"/>
</a>
</g>
</g>
<!-- Node16 -->
<g id="Node000016" class="node">
<title>Node16</title>
<g id="a_Node000016"><a xlink:href="tpc__curl__multi_8c.html" target="_top" xlink:title=" ">
<polygon fill="white" stroke="#666666" points="1139.5,-30 1019.5,-30 1019.5,0 1139.5,0 1139.5,-30"/>
<text text-anchor="start" x="1027.5" y="-18" font-family="Helvetica,sans-Serif" font-size="10.00">src/protocols/webdav</text>
<text text-anchor="middle" x="1079.5" y="-7" font-family="Helvetica,sans-Serif" font-size="10.00">/tpc_curl_multi.c</text>
</a>
</g>
</g>
<!-- Node14&#45;&gt;Node16 -->
<g id="edge18_Node000014_Node000016" class="edge">
<title>Node14&#45;&gt;Node16</title>
<g id="a_edge18_Node000014_Node000016"><a xlink:title=" ">
<path fill="none" stroke="#63b8ff" d="M1047.49,-57.81C1054.51,-48.64 1062.44,-38.28 1068.66,-30.16"/>
<polygon fill="#63b8ff" stroke="#63b8ff" points="1044.67,-55.73 1041.37,-65.8 1050.23,-59.98 1044.67,-55.73"/>
</a>
</g>
</g>
<!-- Node17 -->
<g id="Node000017" class="node">
<title>Node17</title>
<g id="a_Node000017"><a xlink:href="tpc__curl__pmark_8c.html" target="_top" xlink:title=" ">
<polygon fill="white" stroke="#666666" points="1277.5,-30 1157.5,-30 1157.5,0 1277.5,0 1277.5,-30"/>
<text text-anchor="start" x="1165.5" y="-18" font-family="Helvetica,sans-Serif" font-size="10.00">src/protocols/webdav</text>
<text text-anchor="middle" x="1217.5" y="-7" font-family="Helvetica,sans-Serif" font-size="10.00">/tpc_curl_pmark.c</text>
</a>
</g>
</g>
<!-- Node14&#45;&gt;Node17 -->
<g id="edge19_Node000014_Node000017" class="edge">
<title>Node14&#45;&gt;Node17</title>
<g id="a_edge19_Node000014_Node000017"><a xlink:title=" ">
<path fill="none" stroke="#63b8ff" d="M1081.37,-62.59C1111.27,-52.36 1148.57,-39.59 1176.56,-30.01"/>
<polygon fill="#63b8ff" stroke="#63b8ff" points="1079.87,-59.41 1071.54,-65.95 1082.13,-66.03 1079.87,-59.41"/>
</a>
</g>
</g>
<!-- Node18 -->
<g id="Node000018" class="node">
<title>Node18</title>
<g id="a_Node000018"><a xlink:href="tpc__curl__setup_8c.html" target="_top" xlink:title=" ">
<polygon fill="white" stroke="#666666" points="1415.5,-30 1295.5,-30 1295.5,0 1415.5,0 1415.5,-30"/>
<text text-anchor="start" x="1303.5" y="-18" font-family="Helvetica,sans-Serif" font-size="10.00">src/protocols/webdav</text>
<text text-anchor="middle" x="1355.5" y="-7" font-family="Helvetica,sans-Serif" font-size="10.00">/tpc_curl_setup.c</text>
</a>
</g>
</g>
<!-- Node14&#45;&gt;Node18 -->
<g id="edge20_Node000014_Node000018" class="edge">
<title>Node14&#45;&gt;Node18</title>
<g id="a_edge20_Node000014_Node000018"><a xlink:title=" ">
<path fill="none" stroke="#63b8ff" d="M1100.64,-65.79C1184.17,-49.33 1206.55,-45.81 1286.5,-30 1289.38,-29.43 1292.32,-28.85 1295.3,-28.25"/>
<polygon fill="#63b8ff" stroke="#63b8ff" points="1099.84,-62.38 1090.7,-67.75 1101.19,-69.24 1099.84,-62.38"/>
</a>
</g>
</g>
</g>
</svg>

<g id="navigator" transform="translate(0 0)" fill="#404254">
  <rect fill="#f2f5e9" fill-opacity="0.5" stroke="#606060" stroke-width=".5" x="0" y="0" width="60" height="60"/>
  <use id="zoomplus" xlink:href="#zoomPlus" x="17" y="9" onmousedown="handleZoom(evt,'in')"/>
  <use id="zoomminus" xlink:href="#zoomMin" x="42" y="9" onmousedown="handleZoom(evt,'out')"/>
  <use id="reset" xlink:href="#resetDef" x="30" y="36" onmousedown="handleReset()"/>
   <use id="arrowup" xlink:href="#arrowUp" x="0" y="0" onmousedown="handlePan(0,-1)"/>
  <use id="arrowright" xlink:href="#arrowRight" x="0" y="0" onmousedown="handlePan(1,0)"/>
  <use id="arrowdown" xlink:href="#arrowDown" x="0" y="0" onmousedown="handlePan(0,1)"/>
  <use id="arrowleft" xlink:href="#arrowLeft" x="0" y="0" onmousedown="handlePan(-1,0)"/>
</g>
<svg viewBox="0 0 15 15" width="100%" height="30px" preserveAspectRatio="xMaxYMin meet">
 <g id="arrow_out" transform="scale(0.3 0.3)">
  <a xlink:href="net__target_8h__dep__incl_org.svg" target="_base">
   <rect id="button" ry="5" rx="5" y="6" x="6" height="38" width="38"
        fill="#f2f5e9" fill-opacity="0.5" stroke="#606060" stroke-width="1.0"/>
   <path id="arrow"
     d="M 11.500037,31.436501 C 11.940474,20.09759 22.043105,11.32322 32.158766,21.979434 L 37.068811,17.246167 C 37.068811,17.246167 37.088388,32 37.088388,32 L 22.160133,31.978069 C 22.160133,31.978069 26.997745,27.140456 26.997745,27.140456 C 18.528582,18.264221 13.291696,25.230495 11.500037,31.436501 z"
     style="fill:#404040;"/>
  </a>
 </g>
</svg>

<style type='text/css'>
<![CDATA[
[data-mouse-over-selected='false'] { opacity: 0.7; }
[data-mouse-over-selected='true']  { opacity: 1.0; }
]]>
</style>
<script type="application/ecmascript"><![CDATA[
document.addEventListener('DOMContentLoaded', (event) => {
  highlightEdges();
  highlightAdjacentNodes();
});
]]></script>
</svg>
