<?xml version="1.0" encoding="UTF-8" standalone="no"?>
<!DOCTYPE svg PUBLIC "-//W3C//DTD SVG 1.1//EN"
 "http://www.w3.org/Graphics/SVG/1.1/DTD/svg11.dtd">
<!-- Generated by graphviz version 2.43.0 (0)
 -->
<!-- Title: src/protocols/root/connection/netconnect.h Pages: 1 -->
<svg width="711pt" height="104pt"
 viewBox="0.00 0.00 711.00 104.00" xmlns="http://www.w3.org/2000/svg" xmlns:xlink="http://www.w3.org/1999/xlink">
<g id="graph0" class="graph" transform="scale(1 1) rotate(0) translate(4 100)">
<title>src/protocols/root/connection/netconnect.h</title>
<!-- Node1 -->
<g id="Node000001" class="node">
<title>Node1</title>
<g id="a_Node000001"><a xlink:title=" ">
<polygon fill="#999999" stroke="#666666" points="395,-96 256,-96 256,-66 395,-66 395,-96"/>
<text text-anchor="start" x="264" y="-84" font-family="Helvetica,sans-Serif" font-size="10.00">src/protocols/root</text>
<text text-anchor="middle" x="325.5" y="-73" font-family="Helvetica,sans-Serif" font-size="10.00">/connection/netconnect.h</text>
</a>
</g>
</g>
<!-- Node2 -->
<g id="Node000002" class="node">
<title>Node2</title>
<g id="a_Node000002"><a xlink:href="ocsp_8c.html" target="_top" xlink:title=" ">
<polygon fill="white" stroke="#666666" points="123,-24.5 0,-24.5 0,-5.5 123,-5.5 123,-24.5"/>
<text text-anchor="middle" x="61.5" y="-12.5" font-family="Helvetica,sans-Serif" font-size="10.00">src/auth/crypto/ocsp.c</text>
</a>
</g>
</g>
<!-- Node1&#45;&gt;Node2 -->
<g id="edge1_Node000001_Node000002" class="edge">
<title>Node1&#45;&gt;Node2</title>
<g id="a_edge1_Node000001_Node000002"><a xlink:title=" ">
<path fill="none" stroke="#63b8ff" d="M257.84,-63.6C206.38,-51.12 137.64,-34.46 96.63,-24.52"/>
<polygon fill="#63b8ff" stroke="#63b8ff" points="257.02,-67 267.56,-65.95 258.67,-60.2 257.02,-67"/>
</a>
</g>
</g>
<!-- Node3 -->
<g id="Node000003" class="node">
<title>Node3</title>
<g id="a_Node000003"><a xlink:href="origin__connection_8c.html" target="_top" xlink:title=" ">
<polygon fill="white" stroke="#666666" points="246,-30 141,-30 141,0 246,0 246,-30"/>
<text text-anchor="start" x="149" y="-18" font-family="Helvetica,sans-Serif" font-size="10.00">src/fs/cache/origin</text>
<text text-anchor="middle" x="193.5" y="-7" font-family="Helvetica,sans-Serif" font-size="10.00">_connection.c</text>
</a>
</g>
</g>
<!-- Node1&#45;&gt;Node3 -->
<g id="edge2_Node000001_Node000003" class="edge">
<title>Node1&#45;&gt;Node3</title>
<g id="a_edge2_Node000001_Node000003"><a xlink:title=" ">
<path fill="none" stroke="#63b8ff" d="M287.37,-61.51C266.66,-51.47 241.47,-39.26 222.4,-30.01"/>
<polygon fill="#63b8ff" stroke="#63b8ff" points="286.01,-64.74 296.53,-65.95 289.06,-58.44 286.01,-64.74"/>
</a>
</g>
</g>
<!-- Node4 -->
<g id="Node000004" class="node">
<title>Node4</title>
<g id="a_Node000004"><a xlink:href="connect__upstream_8c.html" target="_top" xlink:title=" ">
<polygon fill="white" stroke="#666666" points="386.5,-30 264.5,-30 264.5,0 386.5,0 386.5,-30"/>
<text text-anchor="start" x="272.5" y="-18" font-family="Helvetica,sans-Serif" font-size="10.00">src/net/proxy/connect</text>
<text text-anchor="middle" x="325.5" y="-7" font-family="Helvetica,sans-Serif" font-size="10.00">_upstream.c</text>
</a>
</g>
</g>
<!-- Node1&#45;&gt;Node4 -->
<g id="edge3_Node000001_Node000004" class="edge">
<title>Node1&#45;&gt;Node4</title>
<g id="a_edge3_Node000001_Node000004"><a xlink:title=" ">
<path fill="none" stroke="#63b8ff" d="M325.5,-55.54C325.5,-46.96 325.5,-37.61 325.5,-30.16"/>
<polygon fill="#63b8ff" stroke="#63b8ff" points="322,-55.8 325.5,-65.8 329,-55.8 322,-55.8"/>
</a>
</g>
</g>
<!-- Node5 -->
<g id="Node000005" class="node">
<title>Node5</title>
<g id="a_Node000005"><a xlink:href="start_8c.html" target="_top" xlink:title=" ">
<polygon fill="white" stroke="#666666" points="538,-24.5 405,-24.5 405,-5.5 538,-5.5 538,-24.5"/>
<text text-anchor="middle" x="471.5" y="-12.5" font-family="Helvetica,sans-Serif" font-size="10.00">src/net/upstream/start.c</text>
</a>
</g>
</g>
<!-- Node1&#45;&gt;Node5 -->
<g id="edge4_Node000001_Node000005" class="edge">
<title>Node1&#45;&gt;Node5</title>
<g id="a_edge4_Node000001_Node000005"><a xlink:title=" ">
<path fill="none" stroke="#63b8ff" d="M367.06,-61.78C394.98,-49.54 430.48,-33.98 452.07,-24.52"/>
<polygon fill="#63b8ff" stroke="#63b8ff" points="365.29,-58.73 357.54,-65.95 368.1,-65.15 365.29,-58.73"/>
</a>
</g>
</g>
<!-- Node6 -->
<g id="Node000006" class="node">
<title>Node6</title>
<g id="a_Node000006"><a xlink:href="tpc_2outbound_2connect_8c.html" target="_top" xlink:title=" ">
<polygon fill="white" stroke="#666666" points="703,-24.5 556,-24.5 556,-5.5 703,-5.5 703,-24.5"/>
<text text-anchor="middle" x="629.5" y="-12.5" font-family="Helvetica,sans-Serif" font-size="10.00">src/tpc/outbound/connect.c</text>
</a>
</g>
</g>
<!-- Node1&#45;&gt;Node6 -->
<g id="edge5_Node000001_Node000006" class="edge">
<title>Node1&#45;&gt;Node6</title>
<g id="a_edge5_Node000001_Node000006"><a xlink:title=" ">
<path fill="none" stroke="#63b8ff" d="M402.3,-63.83C461.69,-51.33 541.53,-34.52 589.04,-24.52"/>
<polygon fill="#63b8ff" stroke="#63b8ff" points="401.28,-60.47 392.21,-65.95 402.72,-67.32 401.28,-60.47"/>
</a>
</g>
</g>
</g>
</svg>
