<?xml version="1.0" encoding="UTF-8" standalone="no"?>
<!DOCTYPE svg PUBLIC "-//W3C//DTD SVG 1.1//EN"
 "http://www.w3.org/Graphics/SVG/1.1/DTD/svg11.dtd">
<!-- Generated by graphviz version 2.43.0 (0)
 -->
<!-- Title: src/observability/pmark/config.c Pages: 1 -->
<svg width="564pt" height="269pt"
 viewBox="0.00 0.00 564.00 269.00" xmlns="http://www.w3.org/2000/svg" xmlns:xlink="http://www.w3.org/1999/xlink">
<g id="graph0" class="graph" transform="scale(1 1) rotate(0) translate(4 265)">
<title>src/observability/pmark/config.c</title>
<!-- Node1 -->
<g id="Node000001" class="node">
<title>Node1</title>
<g id="a_Node000001"><a xlink:title=" ">
<polygon fill="#999999" stroke="#666666" points="214,-261 82,-261 82,-231 214,-231 214,-261"/>
<text text-anchor="start" x="90" y="-249" font-family="Helvetica,sans-Serif" font-size="10.00">src/observability/pmark</text>
<text text-anchor="middle" x="148" y="-238" font-family="Helvetica,sans-Serif" font-size="10.00">/config.c</text>
</a>
</g>
</g>
<!-- Node2 -->
<g id="Node000002" class="node">
<title>Node2</title>
<g id="a_Node000002"><a xlink:href="pmark_8h.html" target="_top" xlink:title=" ">
<polygon fill="white" stroke="#666666" points="113.5,-74 56.5,-74 56.5,-55 113.5,-55 113.5,-74"/>
<text text-anchor="middle" x="85" y="-62" font-family="Helvetica,sans-Serif" font-size="10.00">pmark.h</text>
</a>
</g>
</g>
<!-- Node1&#45;&gt;Node2 -->
<g id="edge1_Node000001_Node000002" class="edge">
<title>Node1&#45;&gt;Node2</title>
<g id="a_edge1_Node000001_Node000002"><a xlink:title=" ">
<path fill="none" stroke="#63b8ff" d="M143.06,-230.91C131.75,-198.71 104.02,-119.7 91.42,-83.8"/>
<polygon fill="#63b8ff" stroke="#63b8ff" points="94.64,-82.41 88.03,-74.13 88.04,-84.73 94.64,-82.41"/>
</a>
</g>
</g>
<!-- Node5 -->
<g id="Node000005" class="node">
<title>Node5</title>
<g id="a_Node000005"><a xlink:href="shared__conf_8h.html" target="_top" xlink:title=" ">
<polygon fill="white" stroke="#666666" points="319,-195 213,-195 213,-165 319,-165 319,-195"/>
<text text-anchor="start" x="221" y="-183" font-family="Helvetica,sans-Serif" font-size="10.00">core/config/shared</text>
<text text-anchor="middle" x="266" y="-172" font-family="Helvetica,sans-Serif" font-size="10.00">_conf.h</text>
</a>
</g>
</g>
<!-- Node1&#45;&gt;Node5 -->
<g id="edge4_Node000001_Node000005" class="edge">
<title>Node1&#45;&gt;Node5</title>
<g id="a_edge4_Node000001_Node000005"><a xlink:title=" ">
<path fill="none" stroke="#63b8ff" d="M173.9,-230.95C190.73,-221.83 212.87,-209.82 231.23,-199.86"/>
<polygon fill="#63b8ff" stroke="#63b8ff" points="233.04,-202.86 240.16,-195.01 229.71,-196.7 233.04,-202.86"/>
</a>
</g>
</g>
<!-- Node3 -->
<g id="Node000003" class="node">
<title>Node3</title>
<g id="a_Node000003"><a xlink:title=" ">
<polygon fill="#e0e0e0" stroke="#999999" points="78,-19 0,-19 0,0 78,0 78,-19"/>
<text text-anchor="middle" x="39" y="-7" font-family="Helvetica,sans-Serif" font-size="10.00">ngx_config.h</text>
</a>
</g>
</g>
<!-- Node2&#45;&gt;Node3 -->
<g id="edge2_Node000002_Node000003" class="edge">
<title>Node2&#45;&gt;Node3</title>
<g id="a_edge2_Node000002_Node000003"><a xlink:title=" ">
<path fill="none" stroke="#63b8ff" d="M77.4,-54.75C70.84,-47.18 61.18,-36.05 53.19,-26.84"/>
<polygon fill="#63b8ff" stroke="#63b8ff" points="55.65,-24.35 46.45,-19.09 50.37,-28.94 55.65,-24.35"/>
</a>
</g>
</g>
<!-- Node4 -->
<g id="Node000004" class="node">
<title>Node4</title>
<g id="a_Node000004"><a xlink:title=" ">
<polygon fill="#e0e0e0" stroke="#999999" points="166,-19 96,-19 96,0 166,0 166,-19"/>
<text text-anchor="middle" x="131" y="-7" font-family="Helvetica,sans-Serif" font-size="10.00">ngx_core.h</text>
</a>
</g>
</g>
<!-- Node2&#45;&gt;Node4 -->
<g id="edge3_Node000002_Node000004" class="edge">
<title>Node2&#45;&gt;Node4</title>
<g id="a_edge3_Node000002_Node000004"><a xlink:title=" ">
<path fill="none" stroke="#63b8ff" d="M92.6,-54.75C99.16,-47.18 108.82,-36.05 116.81,-26.84"/>
<polygon fill="#63b8ff" stroke="#63b8ff" points="119.63,-28.94 123.55,-19.09 114.35,-24.35 119.63,-28.94"/>
</a>
</g>
</g>
<!-- Node5&#45;&gt;Node2 -->
<g id="edge10_Node000005_Node000002" class="edge">
<title>Node5&#45;&gt;Node2</title>
<g id="a_edge10_Node000005_Node000002"><a xlink:title=" ">
<path fill="none" stroke="#63b8ff" d="M243.44,-164.85C208.65,-143.03 142.27,-101.41 107.5,-79.61"/>
<polygon fill="#63b8ff" stroke="#63b8ff" points="109.32,-76.62 98.99,-74.27 105.6,-82.55 109.32,-76.62"/>
</a>
</g>
</g>
<!-- Node6 -->
<g id="Node000006" class="node">
<title>Node6</title>
<g id="a_Node000006"><a xlink:title=" ">
<polygon fill="#e0e0e0" stroke="#999999" points="238.5,-74 131.5,-74 131.5,-55 238.5,-55 238.5,-74"/>
<text text-anchor="middle" x="185" y="-62" font-family="Helvetica,sans-Serif" font-size="10.00">ngx_thread_pool.h</text>
</a>
</g>
</g>
<!-- Node5&#45;&gt;Node6 -->
<g id="edge5_Node000005_Node000006" class="edge">
<title>Node5&#45;&gt;Node6</title>
<g id="a_edge5_Node000005_Node000006"><a xlink:title=" ">
<path fill="none" stroke="#63b8ff" d="M255.74,-164.63C240.78,-143.65 213.01,-104.75 197.08,-82.42"/>
<polygon fill="#63b8ff" stroke="#63b8ff" points="199.89,-80.34 191.23,-74.23 194.19,-84.4 199.89,-80.34"/>
</a>
</g>
</g>
<!-- Node7 -->
<g id="Node000007" class="node">
<title>Node7</title>
<g id="a_Node000007"><a xlink:title=" ">
<polygon fill="#e0e0e0" stroke="#999999" points="309.5,-74 256.5,-74 256.5,-55 309.5,-55 309.5,-74"/>
<text text-anchor="middle" x="283" y="-62" font-family="Helvetica,sans-Serif" font-size="10.00">regex.h</text>
</a>
</g>
</g>
<!-- Node5&#45;&gt;Node7 -->
<g id="edge6_Node000005_Node000007" class="edge">
<title>Node5&#45;&gt;Node7</title>
<g id="a_edge6_Node000005_Node000007"><a xlink:title=" ">
<path fill="none" stroke="#63b8ff" d="M255.12,-164.88C245.7,-150.85 234.67,-128.79 242,-110 246.4,-98.73 255.14,-88.59 263.43,-80.85"/>
<polygon fill="#63b8ff" stroke="#63b8ff" points="265.82,-83.4 271.07,-74.2 261.23,-78.12 265.82,-83.4"/>
</a>
</g>
</g>
<!-- Node8 -->
<g id="Node000008" class="node">
<title>Node8</title>
<g id="a_Node000008"><a xlink:title=" ">
<polygon fill="#e0e0e0" stroke="#999999" points="392,-74 328,-74 328,-55 392,-55 392,-74"/>
<text text-anchor="middle" x="360" y="-62" font-family="Helvetica,sans-Serif" font-size="10.00">sys/stat.h</text>
</a>
</g>
</g>
<!-- Node5&#45;&gt;Node8 -->
<g id="edge7_Node000005_Node000008" class="edge">
<title>Node5&#45;&gt;Node8</title>
<g id="a_edge7_Node000005_Node000008"><a xlink:title=" ">
<path fill="none" stroke="#63b8ff" d="M319.08,-168.4C340.89,-161.15 364.04,-149.06 377,-129 385.97,-115.12 379.35,-96.62 371.91,-83.17"/>
<polygon fill="#63b8ff" stroke="#63b8ff" points="374.75,-81.11 366.55,-74.41 368.78,-84.76 374.75,-81.11"/>
</a>
</g>
</g>
<!-- Node9 -->
<g id="Node000009" class="node">
<title>Node9</title>
<g id="a_Node000009"><a xlink:title=" ">
<polygon fill="#e0e0e0" stroke="#999999" points="482,-74 410,-74 410,-55 482,-55 482,-74"/>
<text text-anchor="middle" x="446" y="-62" font-family="Helvetica,sans-Serif" font-size="10.00">sys/types.h</text>
</a>
</g>
</g>
<!-- Node5&#45;&gt;Node9 -->
<g id="edge8_Node000005_Node000009" class="edge">
<title>Node5&#45;&gt;Node9</title>
<g id="a_edge8_Node000005_Node000009"><a xlink:title=" ">
<path fill="none" stroke="#63b8ff" d="M319.2,-164.99C343.48,-156.96 371.71,-145.2 394,-129 411.23,-116.48 426.07,-96.92 435.44,-82.82"/>
<polygon fill="#63b8ff" stroke="#63b8ff" points="438.58,-84.4 441.01,-74.09 432.68,-80.64 438.58,-84.4"/>
</a>
</g>
</g>
<!-- Node10 -->
<g id="Node000010" class="node">
<title>Node10</title>
<g id="a_Node000010"><a xlink:title=" ">
<polygon fill="#e0e0e0" stroke="#999999" points="556,-74 500,-74 500,-55 556,-55 556,-74"/>
<text text-anchor="middle" x="528" y="-62" font-family="Helvetica,sans-Serif" font-size="10.00">unistd.h</text>
</a>
</g>
</g>
<!-- Node5&#45;&gt;Node10 -->
<g id="edge9_Node000005_Node000010" class="edge">
<title>Node5&#45;&gt;Node10</title>
<g id="a_edge9_Node000005_Node000010"><a xlink:title=" ">
<path fill="none" stroke="#63b8ff" d="M317.31,-164.99C347.24,-156.12 385.42,-143.58 418,-129 450.23,-114.58 485.18,-93.36 506.83,-79.48"/>
<polygon fill="#63b8ff" stroke="#63b8ff" points="508.76,-82.4 515.25,-74.03 504.96,-76.53 508.76,-82.4"/>
</a>
</g>
</g>
<!-- Node11 -->
<g id="Node000011" class="node">
<title>Node11</title>
<g id="a_Node000011"><a xlink:href="shared__conf__types_8h.html" target="_top" xlink:title=" ">
<polygon fill="white" stroke="#666666" points="368.5,-129 251.5,-129 251.5,-110 368.5,-110 368.5,-129"/>
<text text-anchor="middle" x="310" y="-117" font-family="Helvetica,sans-Serif" font-size="10.00">shared_conf_types.h</text>
</a>
</g>
</g>
<!-- Node5&#45;&gt;Node11 -->
<g id="edge11_Node000005_Node000011" class="edge">
<title>Node5&#45;&gt;Node11</title>
<g id="a_edge11_Node000005_Node000011"><a xlink:title=" ">
<path fill="none" stroke="#63b8ff" d="M276.65,-164.84C282.84,-156.61 290.69,-146.18 297.21,-137.51"/>
<polygon fill="#63b8ff" stroke="#63b8ff" points="300.19,-139.36 303.41,-129.27 294.6,-135.15 300.19,-139.36"/>
</a>
</g>
</g>
<!-- Node11&#45;&gt;Node2 -->
<g id="edge17_Node000011_Node000002" class="edge">
<title>Node11&#45;&gt;Node2</title>
<g id="a_edge17_Node000011_Node000002"><a xlink:title=" ">
<path fill="none" stroke="#63b8ff" d="M273.85,-109.98C232.65,-100.28 165.59,-84.48 123.45,-74.56"/>
<polygon fill="#63b8ff" stroke="#63b8ff" points="124.1,-71.11 113.57,-72.23 122.5,-77.93 124.1,-71.11"/>
</a>
</g>
</g>
<!-- Node11&#45;&gt;Node6 -->
<g id="edge12_Node000011_Node000006" class="edge">
<title>Node11&#45;&gt;Node6</title>
<g id="a_edge12_Node000011_Node000006"><a xlink:title=" ">
<path fill="none" stroke="#63b8ff" d="M289.92,-109.98C269.63,-101.38 238.04,-87.99 214.83,-78.15"/>
<polygon fill="#63b8ff" stroke="#63b8ff" points="216.02,-74.85 205.45,-74.17 213.29,-81.3 216.02,-74.85"/>
</a>
</g>
</g>
<!-- Node11&#45;&gt;Node7 -->
<g id="edge13_Node000011_Node000007" class="edge">
<title>Node11&#45;&gt;Node7</title>
<g id="a_edge13_Node000011_Node000007"><a xlink:title=" ">
<path fill="none" stroke="#63b8ff" d="M305.54,-109.75C301.88,-102.57 296.59,-92.18 292.05,-83.27"/>
<polygon fill="#63b8ff" stroke="#63b8ff" points="295.03,-81.41 287.38,-74.09 288.8,-84.59 295.03,-81.41"/>
</a>
</g>
</g>
<!-- Node11&#45;&gt;Node8 -->
<g id="edge14_Node000011_Node000008" class="edge">
<title>Node11&#45;&gt;Node8</title>
<g id="a_edge14_Node000011_Node000008"><a xlink:title=" ">
<path fill="none" stroke="#63b8ff" d="M318.26,-109.75C325.46,-102.11 336.11,-90.82 344.85,-81.56"/>
<polygon fill="#63b8ff" stroke="#63b8ff" points="347.58,-83.76 351.9,-74.09 342.49,-78.96 347.58,-83.76"/>
</a>
</g>
</g>
<!-- Node11&#45;&gt;Node9 -->
<g id="edge15_Node000011_Node000009" class="edge">
<title>Node11&#45;&gt;Node9</title>
<g id="a_edge15_Node000011_Node000009"><a xlink:title=" ">
<path fill="none" stroke="#63b8ff" d="M331.85,-109.98C354.12,-101.3 388.9,-87.75 414.22,-77.88"/>
<polygon fill="#63b8ff" stroke="#63b8ff" points="415.71,-81.06 423.75,-74.17 413.16,-74.54 415.71,-81.06"/>
</a>
</g>
</g>
<!-- Node11&#45;&gt;Node10 -->
<g id="edge16_Node000011_Node000010" class="edge">
<title>Node11&#45;&gt;Node10</title>
<g id="a_edge16_Node000011_Node000010"><a xlink:title=" ">
<path fill="none" stroke="#63b8ff" d="M345.03,-109.98C384.75,-100.33 449.29,-84.64 490.14,-74.7"/>
<polygon fill="#63b8ff" stroke="#63b8ff" points="491.1,-78.07 499.99,-72.31 489.45,-71.27 491.1,-78.07"/>
</a>
</g>
</g>
</g>
</svg>
