<?xml version="1.0" encoding="UTF-8" standalone="no"?>
<!DOCTYPE svg PUBLIC "-//W3C//DTD SVG 1.1//EN"
 "http://www.w3.org/Graphics/SVG/1.1/DTD/svg11.dtd">
<!-- Generated by graphviz version 2.43.0 (0)
 -->
<!-- Title: src/auth/crypto/ocsp.h Pages: 1 -->
<svg width="508pt" height="159pt"
 viewBox="0.00 0.00 507.50 159.00" xmlns="http://www.w3.org/2000/svg" xmlns:xlink="http://www.w3.org/1999/xlink">
<g id="graph0" class="graph" transform="scale(1 1) rotate(0) translate(4 155)">
<title>src/auth/crypto/ocsp.h</title>
<!-- Node1 -->
<g id="Node000001" class="node">
<title>Node1</title>
<g id="a_Node000001"><a xlink:title=" ">
<polygon fill="#999999" stroke="#666666" points="311.5,-151 187.5,-151 187.5,-132 311.5,-132 311.5,-151"/>
<text text-anchor="middle" x="249.5" y="-139" font-family="Helvetica,sans-Serif" font-size="10.00">src/auth/crypto/ocsp.h</text>
</a>
</g>
</g>
<!-- Node2 -->
<g id="Node000002" class="node">
<title>Node2</title>
<g id="a_Node000002"><a xlink:href="ocsp_8c.html" target="_top" xlink:title=" ">
<polygon fill="white" stroke="#666666" points="123,-24.5 0,-24.5 0,-5.5 123,-5.5 123,-24.5"/>
<text text-anchor="middle" x="61.5" y="-12.5" font-family="Helvetica,sans-Serif" font-size="10.00">src/auth/crypto/ocsp.c</text>
</a>
</g>
</g>
<!-- Node1&#45;&gt;Node2 -->
<g id="edge1_Node000001_Node000002" class="edge">
<title>Node1&#45;&gt;Node2</title>
<g id="a_edge1_Node000001_Node000002"><a xlink:title=" ">
<path fill="none" stroke="#63b8ff" d="M192.31,-129.35C167.89,-122.59 140.1,-112.07 118.5,-96 92.23,-76.46 73.3,-41.23 65.48,-24.84"/>
<polygon fill="#63b8ff" stroke="#63b8ff" points="191.63,-132.79 202.19,-131.94 193.4,-126.02 191.63,-132.79"/>
</a>
</g>
</g>
<!-- Node3 -->
<g id="Node000003" class="node">
<title>Node3</title>
<g id="a_Node000003"><a xlink:href="ocsp__internal_8h.html" target="_top" xlink:title=" ">
<polygon fill="white" stroke="#666666" points="243,-96 128,-96 128,-66 243,-66 243,-96"/>
<text text-anchor="start" x="136" y="-84" font-family="Helvetica,sans-Serif" font-size="10.00">src/auth/crypto/ocsp</text>
<text text-anchor="middle" x="185.5" y="-73" font-family="Helvetica,sans-Serif" font-size="10.00">_internal.h</text>
</a>
</g>
</g>
<!-- Node1&#45;&gt;Node3 -->
<g id="edge2_Node000001_Node000003" class="edge">
<title>Node1&#45;&gt;Node3</title>
<g id="a_edge2_Node000001_Node000003"><a xlink:title=" ">
<path fill="none" stroke="#63b8ff" d="M232.51,-124.97C222.7,-116.01 210.47,-104.82 200.94,-96.11"/>
<polygon fill="#63b8ff" stroke="#63b8ff" points="230.31,-127.7 240.06,-131.87 235.04,-122.54 230.31,-127.7"/>
</a>
</g>
</g>
<!-- Node6 -->
<g id="Node000006" class="node">
<title>Node6</title>
<g id="a_Node000006"><a xlink:href="src_2auth_2gsi_2auth_8c.html" target="_top" xlink:title=" ">
<polygon fill="white" stroke="#666666" points="367.5,-90.5 261.5,-90.5 261.5,-71.5 367.5,-71.5 367.5,-90.5"/>
<text text-anchor="middle" x="314.5" y="-78.5" font-family="Helvetica,sans-Serif" font-size="10.00">src/auth/gsi/auth.c</text>
</a>
</g>
</g>
<!-- Node1&#45;&gt;Node6 -->
<g id="edge6_Node000001_Node000006" class="edge">
<title>Node1&#45;&gt;Node6</title>
<g id="a_edge6_Node000001_Node000006"><a xlink:title=" ">
<path fill="none" stroke="#63b8ff" d="M266.82,-124.91C279.01,-113.94 294.87,-99.67 304.87,-90.67"/>
<polygon fill="#63b8ff" stroke="#63b8ff" points="264.18,-122.58 259.09,-131.87 268.87,-127.78 264.18,-122.58"/>
</a>
</g>
</g>
<!-- Node7 -->
<g id="Node000007" class="node">
<title>Node7</title>
<g id="a_Node000007"><a xlink:href="tls__config_8c.html" target="_top" xlink:title=" ">
<polygon fill="white" stroke="#666666" points="499.5,-96 385.5,-96 385.5,-66 499.5,-66 499.5,-96"/>
<text text-anchor="start" x="393.5" y="-84" font-family="Helvetica,sans-Serif" font-size="10.00">src/protocols/root</text>
<text text-anchor="middle" x="442.5" y="-73" font-family="Helvetica,sans-Serif" font-size="10.00">/session/tls_config.c</text>
</a>
</g>
</g>
<!-- Node1&#45;&gt;Node7 -->
<g id="edge7_Node000001_Node000007" class="edge">
<title>Node1&#45;&gt;Node7</title>
<g id="a_edge7_Node000001_Node000007"><a xlink:title=" ">
<path fill="none" stroke="#63b8ff" d="M287.19,-129.08C318.35,-119.63 362.75,-106.17 396.1,-96.06"/>
<polygon fill="#63b8ff" stroke="#63b8ff" points="286.12,-125.74 277.56,-131.99 288.15,-132.44 286.12,-125.74"/>
</a>
</g>
</g>
<!-- Node3&#45;&gt;Node2 -->
<g id="edge3_Node000003_Node000002" class="edge">
<title>Node3&#45;&gt;Node2</title>
<g id="a_edge3_Node000003_Node000002"><a xlink:title=" ">
<path fill="none" stroke="#63b8ff" d="M149.26,-61.3C125.7,-49.14 96.1,-33.86 78,-24.52"/>
<polygon fill="#63b8ff" stroke="#63b8ff" points="147.8,-64.48 158.29,-65.95 151.01,-58.26 147.8,-64.48"/>
</a>
</g>
</g>
<!-- Node4 -->
<g id="Node000004" class="node">
<title>Node4</title>
<g id="a_Node000004"><a xlink:href="ocsp__request_8c.html" target="_top" xlink:title=" ">
<polygon fill="white" stroke="#666666" points="256,-30 141,-30 141,0 256,0 256,-30"/>
<text text-anchor="start" x="149" y="-18" font-family="Helvetica,sans-Serif" font-size="10.00">src/auth/crypto/ocsp</text>
<text text-anchor="middle" x="198.5" y="-7" font-family="Helvetica,sans-Serif" font-size="10.00">_request.c</text>
</a>
</g>
</g>
<!-- Node3&#45;&gt;Node4 -->
<g id="edge4_Node000003_Node000004" class="edge">
<title>Node3&#45;&gt;Node4</title>
<g id="a_edge4_Node000003_Node000004"><a xlink:title=" ">
<path fill="none" stroke="#63b8ff" d="M190.41,-55.83C192.17,-47.17 194.09,-37.7 195.62,-30.16"/>
<polygon fill="#63b8ff" stroke="#63b8ff" points="186.95,-55.3 188.39,-65.8 193.81,-56.69 186.95,-55.3"/>
</a>
</g>
</g>
<!-- Node5 -->
<g id="Node000005" class="node">
<title>Node5</title>
<g id="a_Node000005"><a xlink:href="ocsp__transport_8c.html" target="_top" xlink:title=" ">
<polygon fill="white" stroke="#666666" points="389,-30 274,-30 274,0 389,0 389,-30"/>
<text text-anchor="start" x="282" y="-18" font-family="Helvetica,sans-Serif" font-size="10.00">src/auth/crypto/ocsp</text>
<text text-anchor="middle" x="331.5" y="-7" font-family="Helvetica,sans-Serif" font-size="10.00">_transport.c</text>
</a>
</g>
</g>
<!-- Node3&#45;&gt;Node5 -->
<g id="edge5_Node000003_Node000005" class="edge">
<title>Node3&#45;&gt;Node5</title>
<g id="a_edge5_Node000003_Node000005"><a xlink:title=" ">
<path fill="none" stroke="#63b8ff" d="M226.75,-61.92C249.82,-51.8 278.16,-39.38 299.53,-30.01"/>
<polygon fill="#63b8ff" stroke="#63b8ff" points="225.29,-58.73 217.54,-65.95 228.1,-65.15 225.29,-58.73"/>
</a>
</g>
</g>
</g>
</svg>
