<?xml version="1.0" encoding="UTF-8" standalone="no"?>
<!DOCTYPE svg PUBLIC "-//W3C//DTD SVG 1.1//EN"
 "http://www.w3.org/Graphics/SVG/1.1/DTD/svg11.dtd">
<!-- Generated by graphviz version 2.43.0 (0)
 -->
<!-- Title: client/lib/protocols/root/ops_ext.c Pages: 1 -->
<svg width="1273pt" height="412pt"
 viewBox="0.00 0.00 1273.00 412.00" xmlns="http://www.w3.org/2000/svg" xmlns:xlink="http://www.w3.org/1999/xlink">
<g id="graph0" class="graph" transform="scale(1 1) rotate(0) translate(4 408)">
<title>client/lib/protocols/root/ops_ext.c</title>
<!-- Node1 -->
<g id="Node000001" class="node">
<title>Node1</title>
<g id="a_Node000001"><a xlink:title=" ">
<polygon fill="#999999" stroke="#666666" points="1060,-404 953,-404 953,-374 1060,-374 1060,-404"/>
<text text-anchor="start" x="961" y="-392" font-family="Helvetica,sans-Serif" font-size="10.00">client/lib/protocols</text>
<text text-anchor="middle" x="1006.5" y="-381" font-family="Helvetica,sans-Serif" font-size="10.00">/root/ops_ext.c</text>
</a>
</g>
</g>
<!-- Node2 -->
<g id="Node000002" class="node">
<title>Node2</title>
<g id="a_Node000002"><a xlink:href="brix_8h.html" target="_top" xlink:title=" ">
<polygon fill="white" stroke="#666666" points="650.5,-338 606.5,-338 606.5,-319 650.5,-319 650.5,-338"/>
<text text-anchor="middle" x="628.5" y="-326" font-family="Helvetica,sans-Serif" font-size="10.00">brix.h</text>
</a>
</g>
</g>
<!-- Node1&#45;&gt;Node2 -->
<g id="edge1_Node000001_Node000002" class="edge">
<title>Node1&#45;&gt;Node2</title>
<g id="a_edge1_Node000001_Node000002"><a xlink:title=" ">
<path fill="none" stroke="#63b8ff" d="M952.74,-379.68C873,-367.34 725.81,-344.56 660.81,-334.5"/>
<polygon fill="#63b8ff" stroke="#63b8ff" points="661.16,-331.01 650.74,-332.94 660.09,-337.93 661.16,-331.01"/>
</a>
</g>
</g>
<!-- Node6 -->
<g id="Node000006" class="node">
<title>Node6</title>
<g id="a_Node000006"><a xlink:href="time_8h.html" target="_top" xlink:title=" ">
<polygon fill="white" stroke="#666666" points="902.5,-277.5 854.5,-277.5 854.5,-258.5 902.5,-258.5 902.5,-277.5"/>
<text text-anchor="middle" x="878.5" y="-265.5" font-family="Helvetica,sans-Serif" font-size="10.00">time.h</text>
</a>
</g>
</g>
<!-- Node1&#45;&gt;Node6 -->
<g id="edge35_Node000001_Node000006" class="edge">
<title>Node1&#45;&gt;Node6</title>
<g id="a_edge35_Node000001_Node000006"><a xlink:title=" ">
<path fill="none" stroke="#63b8ff" d="M982.88,-374C968.19,-364.73 949.34,-351.77 934.5,-338 917.27,-322.01 900.71,-300.61 890.13,-285.9"/>
<polygon fill="#63b8ff" stroke="#63b8ff" points="892.98,-283.88 884.36,-277.72 887.26,-287.91 892.98,-283.88"/>
</a>
</g>
</g>
<!-- Node21 -->
<g id="Node000021" class="node">
<title>Node21</title>
<g id="a_Node000021"><a xlink:href="vendor__ext_8h.html" target="_top" xlink:title=" ">
<polygon fill="white" stroke="#666666" points="901.5,-85 787.5,-85 787.5,-55 901.5,-55 901.5,-85"/>
<text text-anchor="start" x="795.5" y="-73" font-family="Helvetica,sans-Serif" font-size="10.00">core/compat/vendor</text>
<text text-anchor="middle" x="844.5" y="-62" font-family="Helvetica,sans-Serif" font-size="10.00">_ext.h</text>
</a>
</g>
</g>
<!-- Node1&#45;&gt;Node21 -->
<g id="edge29_Node000001_Node000021" class="edge">
<title>Node1&#45;&gt;Node21</title>
<g id="a_edge29_Node000001_Node000021"><a xlink:title=" ">
<path fill="none" stroke="#63b8ff" d="M992.88,-373.74C984.5,-364.26 974.12,-351.18 967.5,-338 953.22,-309.58 948.5,-300.81 948.5,-269 948.5,-269 948.5,-269 948.5,-201 948.5,-153.71 906.02,-113.77 875.36,-91.09"/>
<polygon fill="#63b8ff" stroke="#63b8ff" points="877.24,-88.14 867.07,-85.17 873.16,-93.83 877.24,-88.14"/>
</a>
</g>
</g>
<!-- Node22 -->
<g id="Node000022" class="node">
<title>Node22</title>
<g id="a_Node000022"><a xlink:title=" ">
<polygon fill="#e0e0e0" stroke="#999999" points="1036,-338 977,-338 977,-319 1036,-319 1036,-338"/>
<text text-anchor="middle" x="1006.5" y="-326" font-family="Helvetica,sans-Serif" font-size="10.00">endian.h</text>
</a>
</g>
</g>
<!-- Node1&#45;&gt;Node22 -->
<g id="edge31_Node000001_Node000022" class="edge">
<title>Node1&#45;&gt;Node22</title>
<g id="a_edge31_Node000001_Node000022"><a xlink:title=" ">
<path fill="none" stroke="#63b8ff" d="M1006.5,-373.84C1006.5,-366.21 1006.5,-356.7 1006.5,-348.45"/>
<polygon fill="#63b8ff" stroke="#63b8ff" points="1010,-348.27 1006.5,-338.27 1003,-348.27 1010,-348.27"/>
</a>
</g>
</g>
<!-- Node23 -->
<g id="Node000023" class="node">
<title>Node23</title>
<g id="a_Node000023"><a xlink:title=" ">
<polygon fill="#e0e0e0" stroke="#999999" points="1123,-338 1054,-338 1054,-319 1123,-319 1123,-338"/>
<text text-anchor="middle" x="1088.5" y="-326" font-family="Helvetica,sans-Serif" font-size="10.00">arpa/inet.h</text>
</a>
</g>
</g>
<!-- Node1&#45;&gt;Node23 -->
<g id="edge32_Node000001_Node000023" class="edge">
<title>Node1&#45;&gt;Node23</title>
<g id="a_edge32_Node000001_Node000023"><a xlink:title=" ">
<path fill="none" stroke="#63b8ff" d="M1026.35,-373.84C1038.98,-364.83 1055.3,-353.18 1068.05,-344.09"/>
<polygon fill="#63b8ff" stroke="#63b8ff" points="1070.1,-346.92 1076.21,-338.27 1066.04,-341.22 1070.1,-346.92"/>
</a>
</g>
</g>
<!-- Node24 -->
<g id="Node000024" class="node">
<title>Node24</title>
<g id="a_Node000024"><a xlink:title=" ">
<polygon fill="#e0e0e0" stroke="#999999" points="1194,-338 1141,-338 1141,-319 1194,-319 1194,-338"/>
<text text-anchor="middle" x="1167.5" y="-326" font-family="Helvetica,sans-Serif" font-size="10.00">stdlib.h</text>
</a>
</g>
</g>
<!-- Node1&#45;&gt;Node24 -->
<g id="edge33_Node000001_Node000024" class="edge">
<title>Node1&#45;&gt;Node24</title>
<g id="a_edge33_Node000001_Node000024"><a xlink:title=" ">
<path fill="none" stroke="#63b8ff" d="M1045.06,-373.99C1072.29,-364.1 1108.38,-350.98 1134.32,-341.56"/>
<polygon fill="#63b8ff" stroke="#63b8ff" points="1135.52,-344.84 1143.72,-338.14 1133.13,-338.26 1135.52,-344.84"/>
</a>
</g>
</g>
<!-- Node25 -->
<g id="Node000025" class="node">
<title>Node25</title>
<g id="a_Node000025"><a xlink:title=" ">
<polygon fill="#e0e0e0" stroke="#999999" points="1265,-338 1212,-338 1212,-319 1265,-319 1265,-338"/>
<text text-anchor="middle" x="1238.5" y="-326" font-family="Helvetica,sans-Serif" font-size="10.00">string.h</text>
</a>
</g>
</g>
<!-- Node1&#45;&gt;Node25 -->
<g id="edge34_Node000001_Node000025" class="edge">
<title>Node1&#45;&gt;Node25</title>
<g id="a_edge34_Node000001_Node000025"><a xlink:title=" ">
<path fill="none" stroke="#63b8ff" d="M1060.02,-374.51C1103.44,-363.56 1163.51,-348.41 1201.69,-338.78"/>
<polygon fill="#63b8ff" stroke="#63b8ff" points="1203,-342.06 1211.85,-336.22 1201.29,-335.27 1203,-342.06"/>
</a>
</g>
</g>
<!-- Node3 -->
<g id="Node000003" class="node">
<title>Node3</title>
<g id="a_Node000003"><a xlink:title=" ">
<polygon fill="#e0e0e0" stroke="#999999" points="655,-19 602,-19 602,0 655,0 655,-19"/>
<text text-anchor="middle" x="628.5" y="-7" font-family="Helvetica,sans-Serif" font-size="10.00">stdint.h</text>
</a>
</g>
</g>
<!-- Node2&#45;&gt;Node3 -->
<g id="edge2_Node000002_Node000003" class="edge">
<title>Node2&#45;&gt;Node3</title>
<g id="a_edge2_Node000002_Node000003"><a xlink:title=" ">
<path fill="none" stroke="#63b8ff" d="M606.15,-327.44C540.47,-326.09 345.31,-313.72 228.5,-217 193.03,-187.63 165.29,-160.18 189.5,-121 223.98,-65.2 258.91,-74.62 321.5,-55 416.08,-25.35 533.34,-15.33 591.79,-12.04"/>
<polygon fill="#63b8ff" stroke="#63b8ff" points="592.2,-15.53 602,-11.5 591.83,-8.54 592.2,-15.53"/>
</a>
</g>
</g>
<!-- Node4 -->
<g id="Node000004" class="node">
<title>Node4</title>
<g id="a_Node000004"><a xlink:title=" ">
<polygon fill="#e0e0e0" stroke="#999999" points="830.5,-145.5 774.5,-145.5 774.5,-126.5 830.5,-126.5 830.5,-145.5"/>
<text text-anchor="middle" x="802.5" y="-133.5" font-family="Helvetica,sans-Serif" font-size="10.00">stddef.h</text>
</a>
</g>
</g>
<!-- Node2&#45;&gt;Node4 -->
<g id="edge3_Node000002_Node000004" class="edge">
<title>Node2&#45;&gt;Node4</title>
<g id="a_edge3_Node000002_Node000004"><a xlink:title=" ">
<path fill="none" stroke="#63b8ff" d="M641.93,-318.84C654.42,-310.46 673.2,-297 687.5,-283 730.58,-240.81 772.05,-182.42 791.3,-153.96"/>
<polygon fill="#63b8ff" stroke="#63b8ff" points="794.29,-155.78 796.94,-145.52 788.47,-151.88 794.29,-155.78"/>
</a>
</g>
</g>
<!-- Node5 -->
<g id="Node000005" class="node">
<title>Node5</title>
<g id="a_Node000005"><a xlink:title=" ">
<polygon fill="#e0e0e0" stroke="#999999" points="836.5,-277.5 786.5,-277.5 786.5,-258.5 836.5,-258.5 836.5,-277.5"/>
<text text-anchor="middle" x="811.5" y="-265.5" font-family="Helvetica,sans-Serif" font-size="10.00">stdio.h</text>
</a>
</g>
</g>
<!-- Node2&#45;&gt;Node5 -->
<g id="edge4_Node000002_Node000005" class="edge">
<title>Node2&#45;&gt;Node5</title>
<g id="a_edge4_Node000002_Node000005"><a xlink:title=" ">
<path fill="none" stroke="#63b8ff" d="M650.55,-321.02C678.89,-312.62 729.56,-297.33 772.5,-283 774.39,-282.37 776.33,-281.71 778.29,-281.03"/>
<polygon fill="#63b8ff" stroke="#63b8ff" points="779.77,-284.22 788.05,-277.61 777.45,-277.62 779.77,-284.22"/>
</a>
</g>
</g>
<!-- Node2&#45;&gt;Node6 -->
<g id="edge5_Node000002_Node000006" class="edge">
<title>Node2&#45;&gt;Node6</title>
<g id="a_edge5_Node000002_Node000006"><a xlink:title=" ">
<path fill="none" stroke="#63b8ff" d="M650.73,-324.44C690.44,-318.64 775.92,-304.66 845.5,-283 847.17,-282.48 848.88,-281.9 850.59,-281.29"/>
<polygon fill="#63b8ff" stroke="#63b8ff" points="852.21,-284.42 860.24,-277.51 849.65,-277.9 852.21,-284.42"/>
</a>
</g>
</g>
<!-- Node7 -->
<g id="Node000007" class="node">
<title>Node7</title>
<g id="a_Node000007"><a xlink:title=" ">
<polygon fill="#e0e0e0" stroke="#999999" points="756.5,-145.5 684.5,-145.5 684.5,-126.5 756.5,-126.5 756.5,-145.5"/>
<text text-anchor="middle" x="720.5" y="-133.5" font-family="Helvetica,sans-Serif" font-size="10.00">sys/types.h</text>
</a>
</g>
</g>
<!-- Node2&#45;&gt;Node7 -->
<g id="edge8_Node000002_Node000007" class="edge">
<title>Node2&#45;&gt;Node7</title>
<g id="a_edge8_Node000002_Node000007"><a xlink:title=" ">
<path fill="none" stroke="#63b8ff" d="M635.55,-318.91C649.89,-301.06 682.56,-258.14 700.5,-217 709.24,-196.95 714.67,-172.35 717.63,-155.76"/>
<polygon fill="#63b8ff" stroke="#63b8ff" points="721.11,-156.15 719.29,-145.71 714.21,-155.01 721.11,-156.15"/>
</a>
</g>
</g>
<!-- Node8 -->
<g id="Node000008" class="node">
<title>Node8</title>
<g id="a_Node000008"><a xlink:href="root_2protocol_2protocol_8h.html" target="_top" xlink:title=" ">
<polygon fill="white" stroke="#666666" points="548,-283 421,-283 421,-253 548,-253 548,-283"/>
<text text-anchor="start" x="429" y="-271" font-family="Helvetica,sans-Serif" font-size="10.00">protocols/root/protocol</text>
<text text-anchor="middle" x="484.5" y="-260" font-family="Helvetica,sans-Serif" font-size="10.00">/protocol.h</text>
</a>
</g>
</g>
<!-- Node2&#45;&gt;Node8 -->
<g id="edge9_Node000002_Node000008" class="edge">
<title>Node2&#45;&gt;Node8</title>
<g id="a_edge9_Node000002_Node000008"><a xlink:title=" ">
<path fill="none" stroke="#63b8ff" d="M607.56,-318.99C586.93,-310.61 554.77,-297.55 528.5,-286.87"/>
<polygon fill="#63b8ff" stroke="#63b8ff" points="529.7,-283.59 519.12,-283.06 527.07,-290.07 529.7,-283.59"/>
</a>
</g>
</g>
<!-- Node16 -->
<g id="Node000016" class="node">
<title>Node16</title>
<g id="a_Node000016"><a xlink:href="wire__codec_8h.html" target="_top" xlink:title=" ">
<polygon fill="white" stroke="#666666" points="692,-217 565,-217 565,-187 692,-187 692,-217"/>
<text text-anchor="start" x="573" y="-205" font-family="Helvetica,sans-Serif" font-size="10.00">protocols/root/protocol</text>
<text text-anchor="middle" x="628.5" y="-194" font-family="Helvetica,sans-Serif" font-size="10.00">/codec/wire_codec.h</text>
</a>
</g>
</g>
<!-- Node2&#45;&gt;Node16 -->
<g id="edge25_Node000002_Node000016" class="edge">
<title>Node2&#45;&gt;Node16</title>
<g id="a_edge25_Node000002_Node000016"><a xlink:title=" ">
<path fill="none" stroke="#63b8ff" d="M628.5,-318.94C628.5,-300.32 628.5,-255.53 628.5,-227.39"/>
<polygon fill="#63b8ff" stroke="#63b8ff" points="632,-227.16 628.5,-217.16 625,-227.16 632,-227.16"/>
</a>
</g>
</g>
<!-- Node18 -->
<g id="Node000018" class="node">
<title>Node18</title>
<g id="a_Node000018"><a xlink:href="brix__net_8h.html" target="_top" xlink:title=" ">
<polygon fill="white" stroke="#666666" points="65,-277.5 0,-277.5 0,-258.5 65,-258.5 65,-277.5"/>
<text text-anchor="middle" x="32.5" y="-265.5" font-family="Helvetica,sans-Serif" font-size="10.00">brix_net.h</text>
</a>
</g>
</g>
<!-- Node2&#45;&gt;Node18 -->
<g id="edge26_Node000002_Node000018" class="edge">
<title>Node2&#45;&gt;Node18</title>
<g id="a_edge26_Node000002_Node000018"><a xlink:title=" ">
<path fill="none" stroke="#63b8ff" d="M606.28,-327.69C530.73,-327.91 277.23,-325.26 73.5,-283 70.43,-282.36 67.28,-281.56 64.14,-280.67"/>
<polygon fill="#63b8ff" stroke="#63b8ff" points="64.94,-277.25 54.35,-277.58 62.83,-283.93 64.94,-277.25"/>
</a>
</g>
</g>
<!-- Node19 -->
<g id="Node000019" class="node">
<title>Node19</title>
<g id="a_Node000019"><a xlink:href="brix__auth_8h.html" target="_top" xlink:title=" ">
<polygon fill="white" stroke="#666666" points="154,-277.5 83,-277.5 83,-258.5 154,-258.5 154,-277.5"/>
<text text-anchor="middle" x="118.5" y="-265.5" font-family="Helvetica,sans-Serif" font-size="10.00">brix_auth.h</text>
</a>
</g>
</g>
<!-- Node2&#45;&gt;Node19 -->
<g id="edge27_Node000002_Node000019" class="edge">
<title>Node2&#45;&gt;Node19</title>
<g id="a_edge27_Node000002_Node000019"><a xlink:title=" ">
<path fill="none" stroke="#63b8ff" d="M606.42,-327.05C539.12,-325.34 330.91,-317.42 162.5,-283 159.1,-282.3 155.59,-281.44 152.1,-280.49"/>
<polygon fill="#63b8ff" stroke="#63b8ff" points="153.04,-277.12 142.46,-277.64 151.06,-283.83 153.04,-277.12"/>
</a>
</g>
</g>
<!-- Node20 -->
<g id="Node000020" class="node">
<title>Node20</title>
<g id="a_Node000020"><a xlink:href="brix__ops_8h.html" target="_top" xlink:title=" ">
<polygon fill="white" stroke="#666666" points="239,-277.5 172,-277.5 172,-258.5 239,-258.5 239,-277.5"/>
<text text-anchor="middle" x="205.5" y="-265.5" font-family="Helvetica,sans-Serif" font-size="10.00">brix_ops.h</text>
</a>
</g>
</g>
<!-- Node2&#45;&gt;Node20 -->
<g id="edge28_Node000002_Node000020" class="edge">
<title>Node2&#45;&gt;Node20</title>
<g id="a_edge28_Node000002_Node000020"><a xlink:title=" ">
<path fill="none" stroke="#63b8ff" d="M606.32,-326.16C548.02,-322.35 385.84,-309.96 253.5,-283 249.64,-282.21 245.64,-281.27 241.67,-280.24"/>
<polygon fill="#63b8ff" stroke="#63b8ff" points="242.53,-276.85 231.96,-277.57 240.68,-283.6 242.53,-276.85"/>
</a>
</g>
</g>
<!-- Node6&#45;&gt;Node4 -->
<g id="edge6_Node000006_Node000004" class="edge">
<title>Node6&#45;&gt;Node4</title>
<g id="a_edge6_Node000006_Node000004"><a xlink:title=" ">
<path fill="none" stroke="#63b8ff" d="M873.51,-258.47C861.22,-237.45 829.29,-182.82 812.75,-154.54"/>
<polygon fill="#63b8ff" stroke="#63b8ff" points="815.67,-152.6 807.6,-145.73 809.63,-156.13 815.67,-152.6"/>
</a>
</g>
</g>
<!-- Node6&#45;&gt;Node6 -->
<g id="edge7_Node000006_Node000006" class="edge">
<title>Node6&#45;&gt;Node6</title>
<g id="a_edge7_Node000006_Node000006"><a xlink:title=" ">
<path fill="none" stroke="#63b8ff" d="M894.01,-277.53C906.96,-281.61 920.5,-278.43 920.5,-268 920.5,-260.26 913.04,-256.51 903.9,-256.76"/>
<polygon fill="#63b8ff" stroke="#63b8ff" points="903.27,-253.32 894.01,-258.47 904.46,-260.22 903.27,-253.32"/>
</a>
</g>
</g>
<!-- Node9 -->
<g id="Node000009" class="node">
<title>Node9</title>
<g id="a_Node000009"><a xlink:href="types_8h.html" target="_top" xlink:title=" ">
<polygon fill="white" stroke="#666666" points="628,-79.5 575,-79.5 575,-60.5 628,-60.5 628,-79.5"/>
<text text-anchor="middle" x="601.5" y="-67.5" font-family="Helvetica,sans-Serif" font-size="10.00">types.h</text>
</a>
</g>
</g>
<!-- Node8&#45;&gt;Node9 -->
<g id="edge10_Node000008_Node000009" class="edge">
<title>Node8&#45;&gt;Node9</title>
<g id="a_edge10_Node000008_Node000009"><a xlink:title=" ">
<path fill="none" stroke="#63b8ff" d="M495.93,-252.8C509.46,-236.31 533,-208.61 555.5,-187 573.72,-169.5 588.4,-173.7 599.5,-151 608.83,-131.94 607.74,-107.14 605.34,-90.24"/>
<polygon fill="#63b8ff" stroke="#63b8ff" points="608.72,-89.24 603.58,-79.97 601.82,-90.42 608.72,-89.24"/>
</a>
</g>
</g>
<!-- Node10 -->
<g id="Node000010" class="node">
<title>Node10</title>
<g id="a_Node000010"><a xlink:href="opcodes_8h.html" target="_top" xlink:title=" ">
<polygon fill="white" stroke="#666666" points="396.5,-79.5 330.5,-79.5 330.5,-60.5 396.5,-60.5 396.5,-79.5"/>
<text text-anchor="middle" x="363.5" y="-67.5" font-family="Helvetica,sans-Serif" font-size="10.00">opcodes.h</text>
</a>
</g>
</g>
<!-- Node8&#45;&gt;Node10 -->
<g id="edge12_Node000008_Node000010" class="edge">
<title>Node8&#45;&gt;Node10</title>
<g id="a_edge12_Node000008_Node000010"><a xlink:title=" ">
<path fill="none" stroke="#63b8ff" d="M420.79,-262.27C351.62,-253.26 244.86,-227.06 198.5,-151 168.73,-102.15 262.06,-82.46 320.34,-75.06"/>
<polygon fill="#63b8ff" stroke="#63b8ff" points="320.91,-78.52 330.42,-73.86 320.08,-71.57 320.91,-78.52"/>
</a>
</g>
</g>
<!-- Node11 -->
<g id="Node000011" class="node">
<title>Node11</title>
<g id="a_Node000011"><a xlink:href="flags_8h.html" target="_top" xlink:title=" ">
<polygon fill="white" stroke="#666666" points="443,-211.5 394,-211.5 394,-192.5 443,-192.5 443,-211.5"/>
<text text-anchor="middle" x="418.5" y="-199.5" font-family="Helvetica,sans-Serif" font-size="10.00">flags.h</text>
</a>
</g>
</g>
<!-- Node8&#45;&gt;Node11 -->
<g id="edge13_Node000008_Node000011" class="edge">
<title>Node8&#45;&gt;Node11</title>
<g id="a_edge13_Node000008_Node000011"><a xlink:title=" ">
<path fill="none" stroke="#63b8ff" d="M469.85,-252.8C459.56,-242.82 445.78,-229.46 435.09,-219.09"/>
<polygon fill="#63b8ff" stroke="#63b8ff" points="437.24,-216.29 427.62,-211.84 432.36,-221.32 437.24,-216.29"/>
</a>
</g>
</g>
<!-- Node12 -->
<g id="Node000012" class="node">
<title>Node12</title>
<g id="a_Node000012"><a xlink:href="wire_8h.html" target="_top" xlink:title=" ">
<polygon fill="white" stroke="#666666" points="508,-211.5 461,-211.5 461,-192.5 508,-192.5 508,-211.5"/>
<text text-anchor="middle" x="484.5" y="-199.5" font-family="Helvetica,sans-Serif" font-size="10.00">wire.h</text>
</a>
</g>
</g>
<!-- Node8&#45;&gt;Node12 -->
<g id="edge14_Node000008_Node000012" class="edge">
<title>Node8&#45;&gt;Node12</title>
<g id="a_edge14_Node000008_Node000012"><a xlink:title=" ">
<path fill="none" stroke="#63b8ff" d="M484.5,-252.8C484.5,-243.7 484.5,-231.79 484.5,-221.9"/>
<polygon fill="#63b8ff" stroke="#63b8ff" points="488,-221.84 484.5,-211.84 481,-221.84 488,-221.84"/>
</a>
</g>
</g>
<!-- Node8&#45;&gt;Node16 -->
<g id="edge20_Node000008_Node000016" class="edge">
<title>Node8&#45;&gt;Node16</title>
<g id="a_edge20_Node000008_Node000016"><a xlink:title=" ">
<path fill="none" stroke="#63b8ff" d="M516.1,-252.95C537.11,-243.62 564.9,-231.27 587.59,-221.18"/>
<polygon fill="#63b8ff" stroke="#63b8ff" points="589.26,-224.27 596.97,-217.01 586.41,-217.88 589.26,-224.27"/>
</a>
</g>
</g>
<!-- Node17 -->
<g id="Node000017" class="node">
<title>Node17</title>
<g id="a_Node000017"><a xlink:href="gsi_8h.html" target="_top" xlink:title=" ">
<polygon fill="white" stroke="#666666" points="375.5,-211.5 335.5,-211.5 335.5,-192.5 375.5,-192.5 375.5,-211.5"/>
<text text-anchor="middle" x="355.5" y="-199.5" font-family="Helvetica,sans-Serif" font-size="10.00">gsi.h</text>
</a>
</g>
</g>
<!-- Node8&#45;&gt;Node17 -->
<g id="edge24_Node000008_Node000017" class="edge">
<title>Node8&#45;&gt;Node17</title>
<g id="a_edge24_Node000008_Node000017"><a xlink:title=" ">
<path fill="none" stroke="#63b8ff" d="M456.19,-252.95C434.07,-241.98 403.54,-226.83 381.92,-216.11"/>
<polygon fill="#63b8ff" stroke="#63b8ff" points="383.18,-212.83 372.67,-211.52 380.07,-219.1 383.18,-212.83"/>
</a>
</g>
</g>
<!-- Node9&#45;&gt;Node3 -->
<g id="edge11_Node000009_Node000003" class="edge">
<title>Node9&#45;&gt;Node3</title>
<g id="a_edge11_Node000009_Node000003"><a xlink:title=" ">
<path fill="none" stroke="#63b8ff" d="M605.48,-60.37C609.35,-51.99 615.34,-39.01 620.24,-28.39"/>
<polygon fill="#63b8ff" stroke="#63b8ff" points="623.49,-29.71 624.5,-19.17 617.13,-26.78 623.49,-29.71"/>
</a>
</g>
</g>
<!-- Node13 -->
<g id="Node000013" class="node">
<title>Node13</title>
<g id="a_Node000013"><a xlink:href="wire__core__requests_8h.html" target="_top" xlink:title=" ">
<polygon fill="white" stroke="#666666" points="590.5,-145.5 470.5,-145.5 470.5,-126.5 590.5,-126.5 590.5,-145.5"/>
<text text-anchor="middle" x="530.5" y="-133.5" font-family="Helvetica,sans-Serif" font-size="10.00">wire_core_requests.h</text>
</a>
</g>
</g>
<!-- Node12&#45;&gt;Node13 -->
<g id="edge15_Node000012_Node000013" class="edge">
<title>Node12&#45;&gt;Node13</title>
<g id="a_edge15_Node000012_Node000013"><a xlink:title=" ">
<path fill="none" stroke="#63b8ff" d="M490.7,-192.37C497.73,-182.59 509.35,-166.42 518.23,-154.08"/>
<polygon fill="#63b8ff" stroke="#63b8ff" points="521.11,-156.07 524.1,-145.91 515.42,-151.98 521.11,-156.07"/>
</a>
</g>
</g>
<!-- Node14 -->
<g id="Node000014" class="node">
<title>Node14</title>
<g id="a_Node000014"><a xlink:href="wire__write__extended__requests_8h.html" target="_top" xlink:title=" ">
<polygon fill="white" stroke="#666666" points="452,-151 333,-151 333,-121 452,-121 452,-151"/>
<text text-anchor="start" x="341" y="-139" font-family="Helvetica,sans-Serif" font-size="10.00">wire_write_extended</text>
<text text-anchor="middle" x="392.5" y="-128" font-family="Helvetica,sans-Serif" font-size="10.00">_requests.h</text>
</a>
</g>
</g>
<!-- Node12&#45;&gt;Node14 -->
<g id="edge18_Node000012_Node000014" class="edge">
<title>Node12&#45;&gt;Node14</title>
<g id="a_edge18_Node000012_Node000014"><a xlink:title=" ">
<path fill="none" stroke="#63b8ff" d="M472.09,-192.37C459.14,-183.36 438.39,-168.92 421.32,-157.05"/>
<polygon fill="#63b8ff" stroke="#63b8ff" points="423,-153.95 412.79,-151.12 419,-159.7 423,-153.95"/>
</a>
</g>
</g>
<!-- Node15 -->
<g id="Node000015" class="node">
<title>Node15</title>
<g id="a_Node000015"><a xlink:href="wire__vendor__ext_8h.html" target="_top" xlink:title=" ">
<polygon fill="white" stroke="#666666" points="315,-145.5 208,-145.5 208,-126.5 315,-126.5 315,-145.5"/>
<text text-anchor="middle" x="261.5" y="-133.5" font-family="Helvetica,sans-Serif" font-size="10.00">wire_vendor_ext.h</text>
</a>
</g>
</g>
<!-- Node12&#45;&gt;Node15 -->
<g id="edge19_Node000012_Node000015" class="edge">
<title>Node12&#45;&gt;Node15</title>
<g id="a_edge19_Node000012_Node000015"><a xlink:title=" ">
<path fill="none" stroke="#63b8ff" d="M465.49,-192.38C460.95,-190.48 456.09,-188.57 451.5,-187 424.89,-177.91 353.73,-159.78 306.45,-148.03"/>
<polygon fill="#63b8ff" stroke="#63b8ff" points="307,-144.57 296.45,-145.56 305.32,-151.36 307,-144.57"/>
</a>
</g>
</g>
<!-- Node13&#45;&gt;Node9 -->
<g id="edge16_Node000013_Node000009" class="edge">
<title>Node13&#45;&gt;Node9</title>
<g id="a_edge16_Node000013_Node000009"><a xlink:title=" ">
<path fill="none" stroke="#63b8ff" d="M540.08,-126.37C551.34,-116.21 570.26,-99.16 584.13,-86.65"/>
<polygon fill="#63b8ff" stroke="#63b8ff" points="586.54,-89.2 591.62,-79.91 581.85,-84 586.54,-89.2"/>
</a>
</g>
</g>
<!-- Node13&#45;&gt;Node10 -->
<g id="edge17_Node000013_Node000010" class="edge">
<title>Node13&#45;&gt;Node10</title>
<g id="a_edge17_Node000013_Node000010"><a xlink:title=" ">
<path fill="none" stroke="#63b8ff" d="M507.98,-126.37C479.01,-115.27 428.52,-95.92 395.56,-83.28"/>
<polygon fill="#63b8ff" stroke="#63b8ff" points="396.52,-79.91 385.93,-79.6 394.02,-86.44 396.52,-79.91"/>
</a>
</g>
</g>
<!-- Node16&#45;&gt;Node3 -->
<g id="edge21_Node000016_Node000003" class="edge">
<title>Node16&#45;&gt;Node3</title>
<g id="a_edge21_Node000016_Node000003"><a xlink:title=" ">
<path fill="none" stroke="#63b8ff" d="M630.62,-186.88C634.23,-160.8 640.81,-103.29 636.5,-55 635.74,-46.5 634.18,-37.19 632.64,-29.29"/>
<polygon fill="#63b8ff" stroke="#63b8ff" points="636.03,-28.38 630.56,-19.3 629.18,-29.81 636.03,-28.38"/>
</a>
</g>
</g>
<!-- Node16&#45;&gt;Node4 -->
<g id="edge22_Node000016_Node000004" class="edge">
<title>Node16&#45;&gt;Node4</title>
<g id="a_edge22_Node000016_Node000004"><a xlink:title=" ">
<path fill="none" stroke="#63b8ff" d="M667.52,-186.9C694.96,-176.95 732.51,-163.26 765.5,-151 767.09,-150.41 768.72,-149.8 770.37,-149.18"/>
<polygon fill="#63b8ff" stroke="#63b8ff" points="771.69,-152.43 779.82,-145.63 769.23,-145.87 771.69,-152.43"/>
</a>
</g>
</g>
<!-- Node16&#45;&gt;Node7 -->
<g id="edge23_Node000016_Node000007" class="edge">
<title>Node16&#45;&gt;Node7</title>
<g id="a_edge23_Node000016_Node000007"><a xlink:title=" ">
<path fill="none" stroke="#63b8ff" d="M648.92,-186.8C664.05,-176.27 684.6,-161.97 699.8,-151.4"/>
<polygon fill="#63b8ff" stroke="#63b8ff" points="701.84,-154.24 708.05,-145.66 697.85,-148.5 701.84,-154.24"/>
</a>
</g>
</g>
<!-- Node21&#45;&gt;Node3 -->
<g id="edge30_Node000021_Node000003" class="edge">
<title>Node21&#45;&gt;Node3</title>
<g id="a_edge30_Node000021_Node000003"><a xlink:title=" ">
<path fill="none" stroke="#63b8ff" d="M792.76,-54.99C753.35,-44.31 700.06,-29.88 665.01,-20.39"/>
<polygon fill="#63b8ff" stroke="#63b8ff" points="665.76,-16.96 655.19,-17.73 663.93,-23.72 665.76,-16.96"/>
</a>
</g>
</g>
</g>
</svg>
