<?xml version="1.0" encoding="UTF-8" standalone="no"?>
<!DOCTYPE svg PUBLIC "-//W3C//DTD SVG 1.1//EN"
 "http://www.w3.org/Graphics/SVG/1.1/DTD/svg11.dtd">
<!-- Generated by graphviz version 2.43.0 (0)
 -->
<!-- Title: src/fs/backend/pblock/pblock_hist.c Pages: 1 -->
<svg width="565pt" height="148pt"
 viewBox="0.00 0.00 565.00 148.00" xmlns="http://www.w3.org/2000/svg" xmlns:xlink="http://www.w3.org/1999/xlink">
<g id="graph0" class="graph" transform="scale(1 1) rotate(0) translate(4 144)">
<title>src/fs/backend/pblock/pblock_hist.c</title>
<!-- Node1 -->
<g id="Node000001" class="node">
<title>Node1</title>
<g id="a_Node000001"><a xlink:title=" ">
<polygon fill="#999999" stroke="#666666" points="342,-140 220,-140 220,-110 342,-110 342,-140"/>
<text text-anchor="start" x="228" y="-128" font-family="Helvetica,sans-Serif" font-size="10.00">src/fs/backend/pblock</text>
<text text-anchor="middle" x="281" y="-117" font-family="Helvetica,sans-Serif" font-size="10.00">/pblock_hist.c</text>
</a>
</g>
</g>
<!-- Node2 -->
<g id="Node000002" class="node">
<title>Node2</title>
<g id="a_Node000002"><a xlink:href="sd_8h.html" target="_top" xlink:title=" ">
<polygon fill="white" stroke="#666666" points="327,-74 235,-74 235,-55 327,-55 327,-74"/>
<text text-anchor="middle" x="281" y="-62" font-family="Helvetica,sans-Serif" font-size="10.00">fs/backend/sd.h</text>
</a>
</g>
</g>
<!-- Node1&#45;&gt;Node2 -->
<g id="edge1_Node000001_Node000002" class="edge">
<title>Node1&#45;&gt;Node2</title>
<g id="a_edge1_Node000001_Node000002"><a xlink:title=" ">
<path fill="none" stroke="#63b8ff" d="M281,-109.84C281,-102.21 281,-92.7 281,-84.45"/>
<polygon fill="#63b8ff" stroke="#63b8ff" points="284.5,-84.27 281,-74.27 277.5,-84.27 284.5,-84.27"/>
</a>
</g>
</g>
<!-- Node3 -->
<g id="Node000003" class="node">
<title>Node3</title>
<g id="a_Node000003"><a xlink:title=" ">
<polygon fill="#e0e0e0" stroke="#999999" points="78,-19 0,-19 0,0 78,0 78,-19"/>
<text text-anchor="middle" x="39" y="-7" font-family="Helvetica,sans-Serif" font-size="10.00">ngx_config.h</text>
</a>
</g>
</g>
<!-- Node2&#45;&gt;Node3 -->
<g id="edge2_Node000002_Node000003" class="edge">
<title>Node2&#45;&gt;Node3</title>
<g id="a_edge2_Node000002_Node000003"><a xlink:title=" ">
<path fill="none" stroke="#63b8ff" d="M242.12,-54.98C200.26,-45.82 133.57,-31.21 88.12,-21.26"/>
<polygon fill="#63b8ff" stroke="#63b8ff" points="88.7,-17.8 78.19,-19.08 87.21,-24.64 88.7,-17.8"/>
</a>
</g>
</g>
<!-- Node4 -->
<g id="Node000004" class="node">
<title>Node4</title>
<g id="a_Node000004"><a xlink:title=" ">
<polygon fill="#e0e0e0" stroke="#999999" points="166,-19 96,-19 96,0 166,0 166,-19"/>
<text text-anchor="middle" x="131" y="-7" font-family="Helvetica,sans-Serif" font-size="10.00">ngx_core.h</text>
</a>
</g>
</g>
<!-- Node2&#45;&gt;Node4 -->
<g id="edge3_Node000002_Node000004" class="edge">
<title>Node2&#45;&gt;Node4</title>
<g id="a_edge3_Node000002_Node000004"><a xlink:title=" ">
<path fill="none" stroke="#63b8ff" d="M256.9,-54.98C232.12,-46.23 193.3,-32.51 165.31,-22.62"/>
<polygon fill="#63b8ff" stroke="#63b8ff" points="166.13,-19.2 155.54,-19.17 163.8,-25.8 166.13,-19.2"/>
</a>
</g>
</g>
<!-- Node5 -->
<g id="Node000005" class="node">
<title>Node5</title>
<g id="a_Node000005"><a xlink:title=" ">
<polygon fill="#e0e0e0" stroke="#999999" points="237.5,-19 184.5,-19 184.5,0 237.5,0 237.5,-19"/>
<text text-anchor="middle" x="211" y="-7" font-family="Helvetica,sans-Serif" font-size="10.00">stdint.h</text>
</a>
</g>
</g>
<!-- Node2&#45;&gt;Node5 -->
<g id="edge4_Node000002_Node000005" class="edge">
<title>Node2&#45;&gt;Node5</title>
<g id="a_edge4_Node000002_Node000005"><a xlink:title=" ">
<path fill="none" stroke="#63b8ff" d="M269.75,-54.98C259.2,-47 243.2,-34.88 230.56,-25.31"/>
<polygon fill="#63b8ff" stroke="#63b8ff" points="232.54,-22.42 222.45,-19.17 228.31,-28 232.54,-22.42"/>
</a>
</g>
</g>
<!-- Node6 -->
<g id="Node000006" class="node">
<title>Node6</title>
<g id="a_Node000006"><a xlink:title=" ">
<polygon fill="#e0e0e0" stroke="#999999" points="306.5,-19 255.5,-19 255.5,0 306.5,0 306.5,-19"/>
<text text-anchor="middle" x="281" y="-7" font-family="Helvetica,sans-Serif" font-size="10.00">errno.h</text>
</a>
</g>
</g>
<!-- Node2&#45;&gt;Node6 -->
<g id="edge5_Node000002_Node000006" class="edge">
<title>Node2&#45;&gt;Node6</title>
<g id="a_edge5_Node000002_Node000006"><a xlink:title=" ">
<path fill="none" stroke="#63b8ff" d="M281,-54.75C281,-47.8 281,-37.85 281,-29.13"/>
<polygon fill="#63b8ff" stroke="#63b8ff" points="284.5,-29.09 281,-19.09 277.5,-29.09 284.5,-29.09"/>
</a>
</g>
</g>
<!-- Node7 -->
<g id="Node000007" class="node">
<title>Node7</title>
<g id="a_Node000007"><a xlink:title=" ">
<polygon fill="#e0e0e0" stroke="#999999" points="389,-19 325,-19 325,0 389,0 389,-19"/>
<text text-anchor="middle" x="357" y="-7" font-family="Helvetica,sans-Serif" font-size="10.00">sys/stat.h</text>
</a>
</g>
</g>
<!-- Node2&#45;&gt;Node7 -->
<g id="edge6_Node000002_Node000007" class="edge">
<title>Node2&#45;&gt;Node7</title>
<g id="a_edge6_Node000002_Node000007"><a xlink:title=" ">
<path fill="none" stroke="#63b8ff" d="M293.21,-54.98C304.78,-46.92 322.38,-34.65 336.16,-25.03"/>
<polygon fill="#63b8ff" stroke="#63b8ff" points="338.37,-27.76 344.57,-19.17 334.36,-22.02 338.37,-27.76"/>
</a>
</g>
</g>
<!-- Node8 -->
<g id="Node000008" class="node">
<title>Node8</title>
<g id="a_Node000008"><a xlink:title=" ">
<polygon fill="#e0e0e0" stroke="#999999" points="479,-19 407,-19 407,0 479,0 479,-19"/>
<text text-anchor="middle" x="443" y="-7" font-family="Helvetica,sans-Serif" font-size="10.00">sys/types.h</text>
</a>
</g>
</g>
<!-- Node2&#45;&gt;Node8 -->
<g id="edge7_Node000002_Node000008" class="edge">
<title>Node2&#45;&gt;Node8</title>
<g id="a_edge7_Node000002_Node000008"><a xlink:title=" ">
<path fill="none" stroke="#63b8ff" d="M307.03,-54.98C334.11,-46.13 376.71,-32.19 407.01,-22.28"/>
<polygon fill="#63b8ff" stroke="#63b8ff" points="408.35,-25.52 416.77,-19.08 406.18,-18.87 408.35,-25.52"/>
</a>
</g>
</g>
<!-- Node9 -->
<g id="Node000009" class="node">
<title>Node9</title>
<g id="a_Node000009"><a xlink:title=" ">
<polygon fill="#e0e0e0" stroke="#999999" points="557,-19 497,-19 497,0 557,0 557,-19"/>
<text text-anchor="middle" x="527" y="-7" font-family="Helvetica,sans-Serif" font-size="10.00">sys/uio.h</text>
</a>
</g>
</g>
<!-- Node2&#45;&gt;Node9 -->
<g id="edge8_Node000002_Node000009" class="edge">
<title>Node2&#45;&gt;Node9</title>
<g id="a_edge8_Node000002_Node000009"><a xlink:title=" ">
<path fill="none" stroke="#63b8ff" d="M321.08,-54.92C360.75,-46.42 423.48,-32.95 486.98,-19.22"/>
<polygon fill="#63b8ff" stroke="#63b8ff" points="487.73,-22.63 496.77,-17.1 486.25,-15.79 487.73,-22.63"/>
</a>
</g>
</g>
</g>
</svg>
