<?xml version="1.0" encoding="UTF-8" standalone="no"?>
<!DOCTYPE svg PUBLIC "-//W3C//DTD SVG 1.1//EN"
 "http://www.w3.org/Graphics/SVG/1.1/DTD/svg11.dtd">
<!-- Generated by graphviz version 2.43.0 (0)
 -->
<!-- Title: src/core/compat/pgio.c Pages: 1 -->
<svg width="540pt" height="148pt"
 viewBox="0.00 0.00 539.50 148.00" xmlns="http://www.w3.org/2000/svg" xmlns:xlink="http://www.w3.org/1999/xlink">
<g id="graph0" class="graph" transform="scale(1 1) rotate(0) translate(4 144)">
<title>src/core/compat/pgio.c</title>
<!-- Node1 -->
<g id="Node000001" class="node">
<title>Node1</title>
<g id="a_Node000001"><a xlink:title=" ">
<polygon fill="#999999" stroke="#666666" points="327.5,-140 200.5,-140 200.5,-121 327.5,-121 327.5,-140"/>
<text text-anchor="middle" x="264" y="-128" font-family="Helvetica,sans-Serif" font-size="10.00">src/core/compat/pgio.c</text>
</a>
</g>
</g>
<!-- Node2 -->
<g id="Node000002" class="node">
<title>Node2</title>
<g id="a_Node000002"><a xlink:href="pgio_8h.html" target="_top" xlink:title=" ">
<polygon fill="white" stroke="#666666" points="114.5,-79.5 67.5,-79.5 67.5,-60.5 114.5,-60.5 114.5,-79.5"/>
<text text-anchor="middle" x="91" y="-67.5" font-family="Helvetica,sans-Serif" font-size="10.00">pgio.h</text>
</a>
</g>
</g>
<!-- Node1&#45;&gt;Node2 -->
<g id="edge1_Node000001_Node000002" class="edge">
<title>Node1&#45;&gt;Node2</title>
<g id="a_edge1_Node000001_Node000002"><a xlink:title=" ">
<path fill="none" stroke="#63b8ff" d="M233.7,-120.96C204.93,-112.6 160.61,-99.12 123,-85 121.79,-84.54 120.55,-84.07 119.31,-83.58"/>
<polygon fill="#63b8ff" stroke="#63b8ff" points="120.39,-80.24 109.81,-79.63 117.71,-86.7 120.39,-80.24"/>
</a>
</g>
</g>
<!-- Node4 -->
<g id="Node000004" class="node">
<title>Node4</title>
<g id="a_Node000004"><a xlink:title=" ">
<polygon fill="#e0e0e0" stroke="#999999" points="217.5,-19 164.5,-19 164.5,0 217.5,0 217.5,-19"/>
<text text-anchor="middle" x="191" y="-7" font-family="Helvetica,sans-Serif" font-size="10.00">stdint.h</text>
</a>
</g>
</g>
<!-- Node1&#45;&gt;Node4 -->
<g id="edge10_Node000001_Node000004" class="edge">
<title>Node1&#45;&gt;Node4</title>
<g id="a_edge10_Node000001_Node000004"><a xlink:title=" ">
<path fill="none" stroke="#63b8ff" d="M258.75,-120.94C246.86,-101.57 217.7,-54.02 201.79,-28.08"/>
<polygon fill="#63b8ff" stroke="#63b8ff" points="204.61,-26 196.4,-19.3 198.65,-29.66 204.61,-26"/>
</a>
</g>
</g>
<!-- Node6 -->
<g id="Node000006" class="node">
<title>Node6</title>
<g id="a_Node000006"><a xlink:href="crc32c_8h.html" target="_top" xlink:title=" ">
<polygon fill="white" stroke="#666666" points="189.5,-79.5 132.5,-79.5 132.5,-60.5 189.5,-60.5 189.5,-79.5"/>
<text text-anchor="middle" x="161" y="-67.5" font-family="Helvetica,sans-Serif" font-size="10.00">crc32c.h</text>
</a>
</g>
</g>
<!-- Node1&#45;&gt;Node6 -->
<g id="edge5_Node000001_Node000006" class="edge">
<title>Node1&#45;&gt;Node6</title>
<g id="a_edge5_Node000001_Node000006"><a xlink:title=" ">
<path fill="none" stroke="#63b8ff" d="M248.8,-120.87C231.99,-111.32 204.68,-95.81 184.98,-84.62"/>
<polygon fill="#63b8ff" stroke="#63b8ff" points="186.68,-81.56 176.26,-79.67 183.23,-87.65 186.68,-81.56"/>
</a>
</g>
</g>
<!-- Node7 -->
<g id="Node000007" class="node">
<title>Node7</title>
<g id="a_Node000007"><a xlink:href="flags_8h.html" target="_top" xlink:title=" ">
<polygon fill="white" stroke="#666666" points="373.5,-85 246.5,-85 246.5,-55 373.5,-55 373.5,-85"/>
<text text-anchor="start" x="254.5" y="-73" font-family="Helvetica,sans-Serif" font-size="10.00">protocols/root/protocol</text>
<text text-anchor="middle" x="310" y="-62" font-family="Helvetica,sans-Serif" font-size="10.00">/flags.h</text>
</a>
</g>
</g>
<!-- Node1&#45;&gt;Node7 -->
<g id="edge8_Node000001_Node000007" class="edge">
<title>Node1&#45;&gt;Node7</title>
<g id="a_edge8_Node000001_Node000007"><a xlink:title=" ">
<path fill="none" stroke="#63b8ff" d="M270.79,-120.87C276.51,-113.59 284.95,-102.85 292.54,-93.2"/>
<polygon fill="#63b8ff" stroke="#63b8ff" points="295.47,-95.14 298.9,-85.11 289.97,-90.81 295.47,-95.14"/>
</a>
</g>
</g>
<!-- Node8 -->
<g id="Node000008" class="node">
<title>Node8</title>
<g id="a_Node000008"><a xlink:title=" ">
<polygon fill="#e0e0e0" stroke="#999999" points="444.5,-79.5 391.5,-79.5 391.5,-60.5 444.5,-60.5 444.5,-79.5"/>
<text text-anchor="middle" x="418" y="-67.5" font-family="Helvetica,sans-Serif" font-size="10.00">string.h</text>
</a>
</g>
</g>
<!-- Node1&#45;&gt;Node8 -->
<g id="edge9_Node000001_Node000008" class="edge">
<title>Node1&#45;&gt;Node8</title>
<g id="a_edge9_Node000001_Node000008"><a xlink:title=" ">
<path fill="none" stroke="#63b8ff" d="M287.32,-120.96C311.35,-112.11 349.88,-97.81 383,-85 384.41,-84.45 385.85,-83.89 387.31,-83.32"/>
<polygon fill="#63b8ff" stroke="#63b8ff" points="388.92,-86.45 396.93,-79.52 386.34,-79.94 388.92,-86.45"/>
</a>
</g>
</g>
<!-- Node9 -->
<g id="Node000009" class="node">
<title>Node9</title>
<g id="a_Node000009"><a xlink:title=" ">
<polygon fill="#e0e0e0" stroke="#999999" points="531.5,-79.5 462.5,-79.5 462.5,-60.5 531.5,-60.5 531.5,-79.5"/>
<text text-anchor="middle" x="497" y="-67.5" font-family="Helvetica,sans-Serif" font-size="10.00">arpa/inet.h</text>
</a>
</g>
</g>
<!-- Node1&#45;&gt;Node9 -->
<g id="edge11_Node000001_Node000009" class="edge">
<title>Node1&#45;&gt;Node9</title>
<g id="a_edge11_Node000001_Node000009"><a xlink:title=" ">
<path fill="none" stroke="#63b8ff" d="M305.02,-120.94C343.68,-112.63 403.1,-99.22 454,-85 456.76,-84.23 459.62,-83.39 462.47,-82.52"/>
<polygon fill="#63b8ff" stroke="#63b8ff" points="463.6,-85.84 472.1,-79.5 461.51,-79.16 463.6,-85.84"/>
</a>
</g>
</g>
<!-- Node3 -->
<g id="Node000003" class="node">
<title>Node3</title>
<g id="a_Node000003"><a xlink:title=" ">
<polygon fill="#e0e0e0" stroke="#999999" points="146,-19 90,-19 90,0 146,0 146,-19"/>
<text text-anchor="middle" x="118" y="-7" font-family="Helvetica,sans-Serif" font-size="10.00">stddef.h</text>
</a>
</g>
</g>
<!-- Node2&#45;&gt;Node3 -->
<g id="edge2_Node000002_Node000003" class="edge">
<title>Node2&#45;&gt;Node3</title>
<g id="a_edge2_Node000002_Node000003"><a xlink:title=" ">
<path fill="none" stroke="#63b8ff" d="M94.98,-60.37C98.85,-51.99 104.84,-39.01 109.74,-28.39"/>
<polygon fill="#63b8ff" stroke="#63b8ff" points="112.99,-29.71 114,-19.17 106.63,-26.78 112.99,-29.71"/>
</a>
</g>
</g>
<!-- Node2&#45;&gt;Node4 -->
<g id="edge3_Node000002_Node000004" class="edge">
<title>Node2&#45;&gt;Node4</title>
<g id="a_edge3_Node000002_Node000004"><a xlink:title=" ">
<path fill="none" stroke="#63b8ff" d="M105.76,-60.37C122,-50.86 148.35,-35.45 167.46,-24.27"/>
<polygon fill="#63b8ff" stroke="#63b8ff" points="169.32,-27.24 176.18,-19.17 165.79,-21.2 169.32,-27.24"/>
</a>
</g>
</g>
<!-- Node5 -->
<g id="Node000005" class="node">
<title>Node5</title>
<g id="a_Node000005"><a xlink:title=" ">
<polygon fill="#e0e0e0" stroke="#999999" points="72,-19 0,-19 0,0 72,0 72,-19"/>
<text text-anchor="middle" x="36" y="-7" font-family="Helvetica,sans-Serif" font-size="10.00">sys/types.h</text>
</a>
</g>
</g>
<!-- Node2&#45;&gt;Node5 -->
<g id="edge4_Node000002_Node000005" class="edge">
<title>Node2&#45;&gt;Node5</title>
<g id="a_edge4_Node000002_Node000005"><a xlink:title=" ">
<path fill="none" stroke="#63b8ff" d="M82.88,-60.37C74.6,-51.55 61.53,-37.66 51.3,-26.77"/>
<polygon fill="#63b8ff" stroke="#63b8ff" points="53.55,-24.06 44.15,-19.17 48.45,-28.85 53.55,-24.06"/>
</a>
</g>
</g>
<!-- Node6&#45;&gt;Node3 -->
<g id="edge6_Node000006_Node000003" class="edge">
<title>Node6&#45;&gt;Node3</title>
<g id="a_edge6_Node000006_Node000003"><a xlink:title=" ">
<path fill="none" stroke="#63b8ff" d="M154.66,-60.37C148.3,-51.73 138.36,-38.2 130.43,-27.42"/>
<polygon fill="#63b8ff" stroke="#63b8ff" points="133.11,-25.15 124.37,-19.17 127.47,-29.3 133.11,-25.15"/>
</a>
</g>
</g>
<!-- Node6&#45;&gt;Node4 -->
<g id="edge7_Node000006_Node000004" class="edge">
<title>Node6&#45;&gt;Node4</title>
<g id="a_edge7_Node000006_Node000004"><a xlink:title=" ">
<path fill="none" stroke="#63b8ff" d="M165.43,-60.37C169.77,-51.9 176.52,-38.74 181.99,-28.07"/>
<polygon fill="#63b8ff" stroke="#63b8ff" points="185.11,-29.66 186.56,-19.17 178.88,-26.47 185.11,-29.66"/>
</a>
</g>
</g>
</g>
</svg>
