<?xml version="1.0" encoding="UTF-8" standalone="no"?>
<!DOCTYPE svg PUBLIC "-//W3C//DTD SVG 1.1//EN"
 "http://www.w3.org/Graphics/SVG/1.1/DTD/svg11.dtd">
<!-- Generated by graphviz version 2.43.0 (0)
 -->
<!-- Title: src/protocols/root/write/pgw_fob.h Pages: 1 -->
<svg width="624pt" height="115pt"
 viewBox="0.00 0.00 623.50 115.00" xmlns="http://www.w3.org/2000/svg" xmlns:xlink="http://www.w3.org/1999/xlink">
<g id="graph0" class="graph" transform="scale(1 1) rotate(0) translate(4 111)">
<title>src/protocols/root/write/pgw_fob.h</title>
<!-- Node1 -->
<g id="Node000001" class="node">
<title>Node1</title>
<g id="a_Node000001"><a xlink:title=" ">
<polygon fill="#999999" stroke="#666666" points="377.5,-107 276.5,-107 276.5,-77 377.5,-77 377.5,-107"/>
<text text-anchor="start" x="284.5" y="-95" font-family="Helvetica,sans-Serif" font-size="10.00">src/protocols/root</text>
<text text-anchor="middle" x="327" y="-84" font-family="Helvetica,sans-Serif" font-size="10.00">/write/pgw_fob.h</text>
</a>
</g>
</g>
<!-- Node2 -->
<g id="Node000002" class="node">
<title>Node2</title>
<g id="a_Node000002"><a xlink:href="fd__table_8c.html" target="_top" xlink:title=" ">
<polygon fill="white" stroke="#666666" points="124,-35.5 0,-35.5 0,-5.5 124,-5.5 124,-35.5"/>
<text text-anchor="start" x="8" y="-23.5" font-family="Helvetica,sans-Serif" font-size="10.00">src/protocols/root</text>
<text text-anchor="middle" x="62" y="-12.5" font-family="Helvetica,sans-Serif" font-size="10.00">/connection/fd_table.c</text>
</a>
</g>
</g>
<!-- Node1&#45;&gt;Node2 -->
<g id="edge1_Node000001_Node000002" class="edge">
<title>Node1&#45;&gt;Node2</title>
<g id="a_edge1_Node000001_Node000002"><a xlink:title=" ">
<path fill="none" stroke="#63b8ff" d="M266.33,-75.63C228.05,-65.86 177.58,-52.87 133,-41 126.45,-39.26 119.57,-37.4 112.78,-35.55"/>
<polygon fill="#63b8ff" stroke="#63b8ff" points="265.74,-79.09 276.29,-78.16 267.47,-72.3 265.74,-79.09"/>
</a>
</g>
</g>
<!-- Node3 -->
<g id="Node000003" class="node">
<title>Node3</title>
<g id="a_Node000003"><a xlink:href="fd__table__teardown_8c.html" target="_top" xlink:title=" ">
<polygon fill="white" stroke="#666666" points="258,-41 142,-41 142,0 258,0 258,-41"/>
<text text-anchor="start" x="150" y="-29" font-family="Helvetica,sans-Serif" font-size="10.00">src/protocols/root</text>
<text text-anchor="start" x="150" y="-18" font-family="Helvetica,sans-Serif" font-size="10.00">/connection/fd_table</text>
<text text-anchor="middle" x="200" y="-7" font-family="Helvetica,sans-Serif" font-size="10.00">_teardown.c</text>
</a>
</g>
</g>
<!-- Node1&#45;&gt;Node3 -->
<g id="edge2_Node000001_Node000003" class="edge">
<title>Node1&#45;&gt;Node3</title>
<g id="a_edge2_Node000001_Node000003"><a xlink:title=" ">
<path fill="none" stroke="#63b8ff" d="M292.49,-72.11C274.9,-62.49 253.53,-50.79 235.77,-41.07"/>
<polygon fill="#63b8ff" stroke="#63b8ff" points="290.85,-75.21 301.3,-76.94 294.21,-69.06 290.85,-75.21"/>
</a>
</g>
</g>
<!-- Node4 -->
<g id="Node000004" class="node">
<title>Node4</title>
<g id="a_Node000004"><a xlink:href="close_8c.html" target="_top" xlink:title=" ">
<polygon fill="white" stroke="#666666" points="377.5,-35.5 276.5,-35.5 276.5,-5.5 377.5,-5.5 377.5,-35.5"/>
<text text-anchor="start" x="284.5" y="-23.5" font-family="Helvetica,sans-Serif" font-size="10.00">src/protocols/root</text>
<text text-anchor="middle" x="327" y="-12.5" font-family="Helvetica,sans-Serif" font-size="10.00">/read/close.c</text>
</a>
</g>
</g>
<!-- Node1&#45;&gt;Node4 -->
<g id="edge3_Node000001_Node000004" class="edge">
<title>Node1&#45;&gt;Node4</title>
<g id="a_edge3_Node000001_Node000004"><a xlink:title=" ">
<path fill="none" stroke="#63b8ff" d="M327,-66.75C327,-56.31 327,-44.49 327,-35.54"/>
<polygon fill="#63b8ff" stroke="#63b8ff" points="323.5,-66.94 327,-76.94 330.5,-66.94 323.5,-66.94"/>
</a>
</g>
</g>
<!-- Node5 -->
<g id="Node000005" class="node">
<title>Node5</title>
<g id="a_Node000005"><a xlink:href="pgw__fob_8c.html" target="_top" xlink:title=" ">
<polygon fill="white" stroke="#666666" points="496.5,-35.5 395.5,-35.5 395.5,-5.5 496.5,-5.5 496.5,-35.5"/>
<text text-anchor="start" x="403.5" y="-23.5" font-family="Helvetica,sans-Serif" font-size="10.00">src/protocols/root</text>
<text text-anchor="middle" x="446" y="-12.5" font-family="Helvetica,sans-Serif" font-size="10.00">/write/pgw_fob.c</text>
</a>
</g>
</g>
<!-- Node1&#45;&gt;Node5 -->
<g id="edge4_Node000001_Node000005" class="edge">
<title>Node1&#45;&gt;Node5</title>
<g id="a_edge4_Node000001_Node000005"><a xlink:title=" ">
<path fill="none" stroke="#63b8ff" d="M359.74,-71.88C379.43,-60.38 404.06,-45.99 421.95,-35.54"/>
<polygon fill="#63b8ff" stroke="#63b8ff" points="357.95,-68.87 351.08,-76.94 361.48,-74.91 357.95,-68.87"/>
</a>
</g>
</g>
<!-- Node6 -->
<g id="Node000006" class="node">
<title>Node6</title>
<g id="a_Node000006"><a xlink:href="pgwrite_8c.html" target="_top" xlink:title=" ">
<polygon fill="white" stroke="#666666" points="615.5,-35.5 514.5,-35.5 514.5,-5.5 615.5,-5.5 615.5,-35.5"/>
<text text-anchor="start" x="522.5" y="-23.5" font-family="Helvetica,sans-Serif" font-size="10.00">src/protocols/root</text>
<text text-anchor="middle" x="565" y="-12.5" font-family="Helvetica,sans-Serif" font-size="10.00">/write/pgwrite.c</text>
</a>
</g>
</g>
<!-- Node1&#45;&gt;Node6 -->
<g id="edge5_Node000001_Node000006" class="edge">
<title>Node1&#45;&gt;Node6</title>
<g id="a_edge5_Node000001_Node000006"><a xlink:title=" ">
<path fill="none" stroke="#63b8ff" d="M387.72,-74.8C422.47,-65.34 466.81,-52.94 506,-41 511.57,-39.3 517.42,-37.45 523.18,-35.59"/>
<polygon fill="#63b8ff" stroke="#63b8ff" points="386.45,-71.51 377.72,-77.51 388.29,-78.27 386.45,-71.51"/>
</a>
</g>
</g>
</g>
</svg>
