<?xml version="1.0" encoding="UTF-8" standalone="no"?>
<!DOCTYPE svg PUBLIC "-//W3C//DTD SVG 1.1//EN"
 "http://www.w3.org/Graphics/SVG/1.1/DTD/svg11.dtd">
<!-- Generated by graphviz version 2.43.0 (0)
 -->
<!-- Title: src/protocols/root/write/pgw_fob.h Pages: 1 -->
<svg width="743pt" height="115pt"
 viewBox="0.00 0.00 742.50 115.00" xmlns="http://www.w3.org/2000/svg" xmlns:xlink="http://www.w3.org/1999/xlink">
<g id="graph0" class="graph" transform="scale(1 1) rotate(0) translate(4 111)">
<title>src/protocols/root/write/pgw_fob.h</title>
<!-- Node1 -->
<g id="Node000001" class="node">
<title>Node1</title>
<g id="a_Node000001"><a xlink:title=" ">
<polygon fill="#999999" stroke="#666666" points="436.5,-107 335.5,-107 335.5,-77 436.5,-77 436.5,-107"/>
<text text-anchor="start" x="343.5" y="-95" font-family="Helvetica,sans-Serif" font-size="10.00">src/protocols/root</text>
<text text-anchor="middle" x="386" y="-84" font-family="Helvetica,sans-Serif" font-size="10.00">/write/pgw_fob.h</text>
</a>
</g>
</g>
<!-- Node2 -->
<g id="Node000002" class="node">
<title>Node2</title>
<g id="a_Node000002"><a xlink:href="fd__table_8c.html" target="_top" xlink:title=" ">
<polygon fill="white" stroke="#666666" points="124,-35.5 0,-35.5 0,-5.5 124,-5.5 124,-35.5"/>
<text text-anchor="start" x="8" y="-23.5" font-family="Helvetica,sans-Serif" font-size="10.00">src/protocols/root</text>
<text text-anchor="middle" x="62" y="-12.5" font-family="Helvetica,sans-Serif" font-size="10.00">/connection/fd_table.c</text>
</a>
</g>
</g>
<!-- Node1&#45;&gt;Node2 -->
<g id="edge1_Node000001_Node000002" class="edge">
<title>Node1&#45;&gt;Node2</title>
<g id="a_edge1_Node000001_Node000002"><a xlink:title=" ">
<path fill="none" stroke="#63b8ff" d="M325.41,-80.31C273.99,-70.93 198.37,-56.41 133,-41 126.03,-39.36 118.72,-37.5 111.54,-35.6"/>
<polygon fill="#63b8ff" stroke="#63b8ff" points="324.9,-83.77 335.36,-82.12 326.15,-76.89 324.9,-83.77"/>
</a>
</g>
</g>
<!-- Node3 -->
<g id="Node000003" class="node">
<title>Node3</title>
<g id="a_Node000003"><a xlink:href="fd__table__teardown_8c.html" target="_top" xlink:title=" ">
<polygon fill="white" stroke="#666666" points="258,-41 142,-41 142,0 258,0 258,-41"/>
<text text-anchor="start" x="150" y="-29" font-family="Helvetica,sans-Serif" font-size="10.00">src/protocols/root</text>
<text text-anchor="start" x="150" y="-18" font-family="Helvetica,sans-Serif" font-size="10.00">/connection/fd_table</text>
<text text-anchor="middle" x="200" y="-7" font-family="Helvetica,sans-Serif" font-size="10.00">_teardown.c</text>
</a>
</g>
</g>
<!-- Node1&#45;&gt;Node3 -->
<g id="edge2_Node000001_Node000003" class="edge">
<title>Node1&#45;&gt;Node3</title>
<g id="a_edge2_Node000001_Node000003"><a xlink:title=" ">
<path fill="none" stroke="#63b8ff" d="M338.96,-73.42C312.57,-63.56 279.59,-51.24 252.38,-41.07"/>
<polygon fill="#63b8ff" stroke="#63b8ff" points="337.77,-76.71 348.36,-76.94 340.22,-70.16 337.77,-76.71"/>
</a>
</g>
</g>
<!-- Node4 -->
<g id="Node000004" class="node">
<title>Node4</title>
<g id="a_Node000004"><a xlink:href="close_8c.html" target="_top" xlink:title=" ">
<polygon fill="white" stroke="#666666" points="377.5,-35.5 276.5,-35.5 276.5,-5.5 377.5,-5.5 377.5,-35.5"/>
<text text-anchor="start" x="284.5" y="-23.5" font-family="Helvetica,sans-Serif" font-size="10.00">src/protocols/root</text>
<text text-anchor="middle" x="327" y="-12.5" font-family="Helvetica,sans-Serif" font-size="10.00">/read/close.c</text>
</a>
</g>
</g>
<!-- Node1&#45;&gt;Node4 -->
<g id="edge3_Node000001_Node000004" class="edge">
<title>Node1&#45;&gt;Node4</title>
<g id="a_edge3_Node000001_Node000004"><a xlink:title=" ">
<path fill="none" stroke="#63b8ff" d="M367.35,-69.03C358.05,-58.07 347.07,-45.15 338.92,-35.54"/>
<polygon fill="#63b8ff" stroke="#63b8ff" points="364.92,-71.58 374.06,-76.94 370.26,-67.05 364.92,-71.58"/>
</a>
</g>
</g>
<!-- Node5 -->
<g id="Node000005" class="node">
<title>Node5</title>
<g id="a_Node000005"><a xlink:href="pgw__fob_8c.html" target="_top" xlink:title=" ">
<polygon fill="white" stroke="#666666" points="496.5,-35.5 395.5,-35.5 395.5,-5.5 496.5,-5.5 496.5,-35.5"/>
<text text-anchor="start" x="403.5" y="-23.5" font-family="Helvetica,sans-Serif" font-size="10.00">src/protocols/root</text>
<text text-anchor="middle" x="446" y="-12.5" font-family="Helvetica,sans-Serif" font-size="10.00">/write/pgw_fob.c</text>
</a>
</g>
</g>
<!-- Node1&#45;&gt;Node5 -->
<g id="edge4_Node000001_Node000005" class="edge">
<title>Node1&#45;&gt;Node5</title>
<g id="a_edge4_Node000001_Node000005"><a xlink:title=" ">
<path fill="none" stroke="#63b8ff" d="M404.69,-69.35C414.21,-58.33 425.5,-45.24 433.88,-35.54"/>
<polygon fill="#63b8ff" stroke="#63b8ff" points="402.03,-67.08 398.14,-76.94 407.33,-71.65 402.03,-67.08"/>
</a>
</g>
</g>
<!-- Node6 -->
<g id="Node000006" class="node">
<title>Node6</title>
<g id="a_Node000006"><a xlink:href="pgwrite_8c.html" target="_top" xlink:title=" ">
<polygon fill="white" stroke="#666666" points="615.5,-35.5 514.5,-35.5 514.5,-5.5 615.5,-5.5 615.5,-35.5"/>
<text text-anchor="start" x="522.5" y="-23.5" font-family="Helvetica,sans-Serif" font-size="10.00">src/protocols/root</text>
<text text-anchor="middle" x="565" y="-12.5" font-family="Helvetica,sans-Serif" font-size="10.00">/write/pgwrite.c</text>
</a>
</g>
</g>
<!-- Node1&#45;&gt;Node6 -->
<g id="edge5_Node000001_Node000006" class="edge">
<title>Node1&#45;&gt;Node6</title>
<g id="a_edge5_Node000001_Node000006"><a xlink:title=" ">
<path fill="none" stroke="#63b8ff" d="M431.68,-73.26C461.84,-61.55 500.82,-46.42 528.83,-35.54"/>
<polygon fill="#63b8ff" stroke="#63b8ff" points="430.28,-70.05 422.22,-76.94 432.81,-76.58 430.28,-70.05"/>
</a>
</g>
</g>
<!-- Node7 -->
<g id="Node000007" class="node">
<title>Node7</title>
<g id="a_Node000007"><a xlink:href="sync_8c.html" target="_top" xlink:title=" ">
<polygon fill="white" stroke="#666666" points="734.5,-35.5 633.5,-35.5 633.5,-5.5 734.5,-5.5 734.5,-35.5"/>
<text text-anchor="start" x="641.5" y="-23.5" font-family="Helvetica,sans-Serif" font-size="10.00">src/protocols/root</text>
<text text-anchor="middle" x="684" y="-12.5" font-family="Helvetica,sans-Serif" font-size="10.00">/write/sync.c</text>
</a>
</g>
</g>
<!-- Node1&#45;&gt;Node7 -->
<g id="edge6_Node000001_Node000007" class="edge">
<title>Node1&#45;&gt;Node7</title>
<g id="a_edge6_Node000001_Node000007"><a xlink:title=" ">
<path fill="none" stroke="#63b8ff" d="M446.78,-80.25C495.36,-71.19 565,-57.14 625,-41 631.04,-39.38 637.38,-37.49 643.56,-35.53"/>
<polygon fill="#63b8ff" stroke="#63b8ff" points="445.94,-76.84 436.75,-82.11 447.22,-83.73 445.94,-76.84"/>
</a>
</g>
</g>
</g>
</svg>
