<?xml version="1.0" encoding="UTF-8" standalone="no"?>
<!DOCTYPE svg PUBLIC "-//W3C//DTD SVG 1.1//EN"
 "http://www.w3.org/Graphics/SVG/1.1/DTD/svg11.dtd">
<!-- Generated by graphviz version 2.43.0 (0)
 -->
<!-- Title: src/auth/crypto/pki_build.h Pages: 1 -->
<svg width="388pt" height="214pt"
 viewBox="0.00 0.00 388.00 214.00" xmlns="http://www.w3.org/2000/svg" xmlns:xlink="http://www.w3.org/1999/xlink">
<g id="graph0" class="graph" transform="scale(1 1) rotate(0) translate(4 210)">
<title>src/auth/crypto/pki_build.h</title>
<!-- Node1 -->
<g id="Node000001" class="node">
<title>Node1</title>
<g id="a_Node000001"><a xlink:title=" ">
<polygon fill="#999999" stroke="#666666" points="200.5,-206 93.5,-206 93.5,-176 200.5,-176 200.5,-206"/>
<text text-anchor="start" x="101.5" y="-194" font-family="Helvetica,sans-Serif" font-size="10.00">src/auth/crypto/pki</text>
<text text-anchor="middle" x="147" y="-183" font-family="Helvetica,sans-Serif" font-size="10.00">_build.h</text>
</a>
</g>
</g>
<!-- Node2 -->
<g id="Node000002" class="node">
<title>Node2</title>
<g id="a_Node000002"><a xlink:title=" ">
<polygon fill="#e0e0e0" stroke="#999999" points="70,-140 0,-140 0,-121 70,-121 70,-140"/>
<text text-anchor="middle" x="35" y="-128" font-family="Helvetica,sans-Serif" font-size="10.00">ngx_core.h</text>
</a>
</g>
</g>
<!-- Node1&#45;&gt;Node2 -->
<g id="edge1_Node000001_Node000002" class="edge">
<title>Node1&#45;&gt;Node2</title>
<g id="a_edge1_Node000001_Node000002"><a xlink:title=" ">
<path fill="none" stroke="#63b8ff" d="M120.17,-175.99C102.15,-166.58 78.54,-154.24 60.75,-144.95"/>
<polygon fill="#63b8ff" stroke="#63b8ff" points="62.02,-141.67 51.54,-140.14 58.78,-147.87 62.02,-141.67"/>
</a>
</g>
</g>
<!-- Node3 -->
<g id="Node000003" class="node">
<title>Node3</title>
<g id="a_Node000003"><a xlink:title=" ">
<polygon fill="#e0e0e0" stroke="#999999" points="124,-79.5 34,-79.5 34,-60.5 124,-60.5 124,-79.5"/>
<text text-anchor="middle" x="79" y="-67.5" font-family="Helvetica,sans-Serif" font-size="10.00">openssl/x509.h</text>
</a>
</g>
</g>
<!-- Node1&#45;&gt;Node3 -->
<g id="edge2_Node000001_Node000003" class="edge">
<title>Node1&#45;&gt;Node3</title>
<g id="a_edge2_Node000001_Node000003"><a xlink:title=" ">
<path fill="none" stroke="#63b8ff" d="M138.19,-175.64C132.14,-165.69 123.96,-152.11 117,-140 107.02,-122.64 96.02,-102.56 88.43,-88.55"/>
<polygon fill="#63b8ff" stroke="#63b8ff" points="91.41,-86.69 83.58,-79.55 85.25,-90.02 91.41,-86.69"/>
</a>
</g>
</g>
<!-- Node4 -->
<g id="Node000004" class="node">
<title>Node4</title>
<g id="a_Node000004"><a xlink:href="signing__policy_8h.html" target="_top" xlink:title=" ">
<polygon fill="white" stroke="#666666" points="380,-85 270,-85 270,-55 380,-55 380,-85"/>
<text text-anchor="start" x="278" y="-73" font-family="Helvetica,sans-Serif" font-size="10.00">auth/crypto/signing</text>
<text text-anchor="middle" x="325" y="-62" font-family="Helvetica,sans-Serif" font-size="10.00">_policy.h</text>
</a>
</g>
</g>
<!-- Node1&#45;&gt;Node4 -->
<g id="edge3_Node000001_Node000004" class="edge">
<title>Node1&#45;&gt;Node4</title>
<g id="a_edge3_Node000001_Node000004"><a xlink:title=" ">
<path fill="none" stroke="#63b8ff" d="M200.67,-177.23C225.67,-169.4 254.74,-157.46 277,-140 292.64,-127.74 305.22,-109 313.57,-94.14"/>
<polygon fill="#63b8ff" stroke="#63b8ff" points="316.81,-95.51 318.44,-85.05 310.64,-92.21 316.81,-95.51"/>
</a>
</g>
</g>
<!-- Node6 -->
<g id="Node000006" class="node">
<title>Node6</title>
<g id="a_Node000006"><a xlink:href="store__policy_8h.html" target="_top" xlink:title=" ">
<polygon fill="white" stroke="#666666" points="268,-140 126,-140 126,-121 268,-121 268,-140"/>
<text text-anchor="middle" x="197" y="-128" font-family="Helvetica,sans-Serif" font-size="10.00">auth/crypto/store_policy.h</text>
</a>
</g>
</g>
<!-- Node1&#45;&gt;Node6 -->
<g id="edge5_Node000001_Node000006" class="edge">
<title>Node1&#45;&gt;Node6</title>
<g id="a_edge5_Node000001_Node000006"><a xlink:title=" ">
<path fill="none" stroke="#63b8ff" d="M159.1,-175.84C166.29,-167.43 175.43,-156.74 182.93,-147.96"/>
<polygon fill="#63b8ff" stroke="#63b8ff" points="185.67,-150.14 189.51,-140.27 180.35,-145.59 185.67,-150.14"/>
</a>
</g>
</g>
<!-- Node5 -->
<g id="Node000005" class="node">
<title>Node5</title>
<g id="a_Node000005"><a xlink:title=" ">
<polygon fill="#e0e0e0" stroke="#999999" points="353,-19 297,-19 297,0 353,0 353,-19"/>
<text text-anchor="middle" x="325" y="-7" font-family="Helvetica,sans-Serif" font-size="10.00">stddef.h</text>
</a>
</g>
</g>
<!-- Node4&#45;&gt;Node5 -->
<g id="edge4_Node000004_Node000005" class="edge">
<title>Node4&#45;&gt;Node5</title>
<g id="a_edge4_Node000004_Node000005"><a xlink:title=" ">
<path fill="none" stroke="#63b8ff" d="M325,-54.84C325,-47.21 325,-37.7 325,-29.45"/>
<polygon fill="#63b8ff" stroke="#63b8ff" points="328.5,-29.27 325,-19.27 321.5,-29.27 328.5,-29.27"/>
</a>
</g>
</g>
<!-- Node6&#45;&gt;Node3 -->
<g id="edge7_Node000006_Node000003" class="edge">
<title>Node6&#45;&gt;Node3</title>
<g id="a_edge7_Node000006_Node000003"><a xlink:title=" ">
<path fill="none" stroke="#63b8ff" d="M179.84,-120.99C160.27,-111.29 128.03,-95.31 105.28,-84.03"/>
<polygon fill="#63b8ff" stroke="#63b8ff" points="106.69,-80.82 96.18,-79.52 103.58,-87.09 106.69,-80.82"/>
</a>
</g>
</g>
<!-- Node6&#45;&gt;Node4 -->
<g id="edge6_Node000006_Node000004" class="edge">
<title>Node6&#45;&gt;Node4</title>
<g id="a_edge6_Node000006_Node000004"><a xlink:title=" ">
<path fill="none" stroke="#63b8ff" d="M215.61,-120.99C233.65,-112.75 261.6,-99.98 284.73,-89.4"/>
<polygon fill="#63b8ff" stroke="#63b8ff" points="286.34,-92.52 293.98,-85.18 283.43,-86.15 286.34,-92.52"/>
</a>
</g>
</g>
<!-- Node7 -->
<g id="Node000007" class="node">
<title>Node7</title>
<g id="a_Node000007"><a xlink:title=" ">
<polygon fill="#e0e0e0" stroke="#999999" points="251.5,-79.5 142.5,-79.5 142.5,-60.5 251.5,-60.5 251.5,-79.5"/>
<text text-anchor="middle" x="197" y="-67.5" font-family="Helvetica,sans-Serif" font-size="10.00">openssl/x509_vfy.h</text>
</a>
</g>
</g>
<!-- Node6&#45;&gt;Node7 -->
<g id="edge8_Node000006_Node000007" class="edge">
<title>Node6&#45;&gt;Node7</title>
<g id="a_edge8_Node000006_Node000007"><a xlink:title=" ">
<path fill="none" stroke="#63b8ff" d="M197,-120.87C197,-112.75 197,-100.31 197,-89.89"/>
<polygon fill="#63b8ff" stroke="#63b8ff" points="200.5,-89.67 197,-79.67 193.5,-89.67 200.5,-89.67"/>
</a>
</g>
</g>
</g>
</svg>
