<?xml version="1.0" encoding="UTF-8" standalone="no"?>
<!DOCTYPE svg PUBLIC "-//W3C//DTD SVG 1.1//EN"
 "http://www.w3.org/Graphics/SVG/1.1/DTD/svg11.dtd">
<!-- Generated by graphviz version 2.43.0 (0)
 -->
<!-- Title: src/protocols/ssi/registry.h Pages: 1 -->
<svg width="392pt" height="247pt"
 viewBox="0.00 0.00 391.50 247.00" xmlns="http://www.w3.org/2000/svg" xmlns:xlink="http://www.w3.org/1999/xlink">

<svg id="main" version="1.1" xmlns="http://www.w3.org/2000/svg" xmlns:xlink="http://www.w3.org/1999/xlink" xml:space="preserve" onload="init(evt)">
<style type="text/css"><![CDATA[
.node, .edge {opacity: 0.7;}
.node.selected, .edge.selected {opacity: 1;}
.edge:hover path { stroke: red; }
.edge:hover polygon { stroke: red; fill: red; }
]]></style>
<script type="application/ecmascript" xlink:href="svg.min.js"/>
<svg id="graph" class="graph">
<g id="graph0" class="graph" transform="scale(1 1) rotate(0) translate(4 243)">
<title>src/protocols/ssi/registry.h</title>
<!-- Node1 -->
<g id="Node000001" class="node">
<title>Node1</title>
<g id="a_Node000001"><a xlink:title=" ">
<polygon fill="#999999" stroke="#666666" points="227.5,-239 84.5,-239 84.5,-220 227.5,-220 227.5,-239"/>
<text text-anchor="middle" x="156" y="-227" font-family="Helvetica,sans-Serif" font-size="10.00">src/protocols/ssi/registry.h</text>
</a>
</g>
</g>
<!-- Node2 -->
<g id="Node000002" class="node">
<title>Node2</title>
<g id="a_Node000002"><a xlink:href="ssi_2session_8h.html" target="_top" xlink:title=" ">
<polygon fill="white" stroke="#666666" points="187,-184 125,-184 125,-165 187,-165 187,-184"/>
<text text-anchor="middle" x="156" y="-172" font-family="Helvetica,sans-Serif" font-size="10.00">session.h</text>
</a>
</g>
</g>
<!-- Node1&#45;&gt;Node2 -->
<g id="edge1_Node000001_Node000002" class="edge">
<title>Node1&#45;&gt;Node2</title>
<g id="a_edge1_Node000001_Node000002"><a xlink:title=" ">
<path fill="none" stroke="#63b8ff" d="M156,-219.75C156,-212.8 156,-202.85 156,-194.13"/>
<polygon fill="#63b8ff" stroke="#63b8ff" points="159.5,-194.09 156,-184.09 152.5,-194.09 159.5,-194.09"/>
</a>
</g>
</g>
<!-- Node3 -->
<g id="Node000003" class="node">
<title>Node3</title>
<g id="a_Node000003"><a xlink:title=" ">
<polygon fill="#e0e0e0" stroke="#999999" points="145,-19 89,-19 89,0 145,0 145,-19"/>
<text text-anchor="middle" x="117" y="-7" font-family="Helvetica,sans-Serif" font-size="10.00">stddef.h</text>
</a>
</g>
</g>
<!-- Node2&#45;&gt;Node3 -->
<g id="edge2_Node000002_Node000003" class="edge">
<title>Node2&#45;&gt;Node3</title>
<g id="a_edge2_Node000002_Node000003"><a xlink:title=" ">
<path fill="none" stroke="#63b8ff" d="M153.9,-164.74C147.79,-139.2 129.9,-64.43 121.48,-29.23"/>
<polygon fill="#63b8ff" stroke="#63b8ff" points="124.84,-28.22 119.11,-19.31 118.03,-29.85 124.84,-28.22"/>
</a>
</g>
</g>
<!-- Node4 -->
<g id="Node000004" class="node">
<title>Node4</title>
<g id="a_Node000004"><a xlink:title=" ">
<polygon fill="#e0e0e0" stroke="#999999" points="383.5,-74 330.5,-74 330.5,-55 383.5,-55 383.5,-74"/>
<text text-anchor="middle" x="357" y="-62" font-family="Helvetica,sans-Serif" font-size="10.00">stdint.h</text>
</a>
</g>
</g>
<!-- Node2&#45;&gt;Node4 -->
<g id="edge3_Node000002_Node000004" class="edge">
<title>Node2&#45;&gt;Node4</title>
<g id="a_edge3_Node000002_Node000004"><a xlink:title=" ">
<path fill="none" stroke="#63b8ff" d="M182.35,-164.9C205.34,-156.93 239.27,-144.07 267,-129 293.04,-114.85 320.54,-94.56 338.18,-80.75"/>
<polygon fill="#63b8ff" stroke="#63b8ff" points="340.8,-83.14 346.45,-74.18 336.44,-77.66 340.8,-83.14"/>
</a>
</g>
</g>
<!-- Node5 -->
<g id="Node000005" class="node">
<title>Node5</title>
<g id="a_Node000005"><a xlink:href="ssi__req_8h.html" target="_top" xlink:title=" ">
<polygon fill="white" stroke="#666666" points="258,-129 198,-129 198,-110 258,-110 258,-129"/>
<text text-anchor="middle" x="228" y="-117" font-family="Helvetica,sans-Serif" font-size="10.00">ssi_req.h</text>
</a>
</g>
</g>
<!-- Node2&#45;&gt;Node5 -->
<g id="edge4_Node000002_Node000005" class="edge">
<title>Node2&#45;&gt;Node5</title>
<g id="a_edge4_Node000002_Node000005"><a xlink:title=" ">
<path fill="none" stroke="#63b8ff" d="M167.57,-164.98C178.42,-157 194.88,-144.88 207.88,-135.31"/>
<polygon fill="#63b8ff" stroke="#63b8ff" points="210.24,-137.92 216.22,-129.17 206.09,-132.28 210.24,-137.92"/>
</a>
</g>
</g>
<!-- Node9 -->
<g id="Node000009" class="node">
<title>Node9</title>
<g id="a_Node000009"><a xlink:href="provider_8h.html" target="_top" xlink:title=" ">
<polygon fill="white" stroke="#666666" points="76.5,-129 11.5,-129 11.5,-110 76.5,-110 76.5,-129"/>
<text text-anchor="middle" x="44" y="-117" font-family="Helvetica,sans-Serif" font-size="10.00">provider.h</text>
</a>
</g>
</g>
<!-- Node2&#45;&gt;Node9 -->
<g id="edge13_Node000002_Node000009" class="edge">
<title>Node2&#45;&gt;Node9</title>
<g id="a_edge13_Node000002_Node000009"><a xlink:title=" ">
<path fill="none" stroke="#63b8ff" d="M138.01,-164.98C120.07,-156.5 92.28,-143.35 71.57,-133.54"/>
<polygon fill="#63b8ff" stroke="#63b8ff" points="72.86,-130.28 62.32,-129.17 69.86,-136.61 72.86,-130.28"/>
</a>
</g>
</g>
<!-- Node5&#45;&gt;Node3 -->
<g id="edge5_Node000005_Node000003" class="edge">
<title>Node5&#45;&gt;Node3</title>
<g id="a_edge5_Node000005_Node000003"><a xlink:title=" ">
<path fill="none" stroke="#63b8ff" d="M213.28,-109.93C199.86,-101.71 179.91,-88.44 165,-74 150.62,-60.08 137.15,-41.58 128.16,-28.14"/>
<polygon fill="#63b8ff" stroke="#63b8ff" points="130.85,-25.86 122.45,-19.39 124.98,-29.68 130.85,-25.86"/>
</a>
</g>
</g>
<!-- Node5&#45;&gt;Node4 -->
<g id="edge6_Node000005_Node000004" class="edge">
<title>Node5&#45;&gt;Node4</title>
<g id="a_edge6_Node000005_Node000004"><a xlink:title=" ">
<path fill="none" stroke="#63b8ff" d="M248.73,-109.98C269.76,-101.34 302.55,-87.87 326.54,-78.02"/>
<polygon fill="#63b8ff" stroke="#63b8ff" points="327.98,-81.21 335.9,-74.17 325.32,-74.73 327.98,-81.21"/>
</a>
</g>
</g>
<!-- Node6 -->
<g id="Node000006" class="node">
<title>Node6</title>
<g id="a_Node000006"><a xlink:title=" ">
<polygon fill="#e0e0e0" stroke="#999999" points="339,-19 261,-19 261,0 339,0 339,-19"/>
<text text-anchor="middle" x="300" y="-7" font-family="Helvetica,sans-Serif" font-size="10.00">ngx_config.h</text>
</a>
</g>
</g>
<!-- Node5&#45;&gt;Node6 -->
<g id="edge7_Node000005_Node000006" class="edge">
<title>Node5&#45;&gt;Node6</title>
<g id="a_edge7_Node000005_Node000006"><a xlink:title=" ">
<path fill="none" stroke="#63b8ff" d="M234.54,-109.75C241.12,-100.85 251.49,-86.63 260,-74 270.32,-58.67 281.49,-40.84 289.39,-27.98"/>
<polygon fill="#63b8ff" stroke="#63b8ff" points="292.5,-29.59 294.73,-19.24 286.53,-25.94 292.5,-29.59"/>
</a>
</g>
</g>
<!-- Node7 -->
<g id="Node000007" class="node">
<title>Node7</title>
<g id="a_Node000007"><a xlink:title=" ">
<polygon fill="#e0e0e0" stroke="#999999" points="241,-19 171,-19 171,0 241,0 241,-19"/>
<text text-anchor="middle" x="206" y="-7" font-family="Helvetica,sans-Serif" font-size="10.00">ngx_core.h</text>
</a>
</g>
</g>
<!-- Node5&#45;&gt;Node7 -->
<g id="edge8_Node000005_Node000007" class="edge">
<title>Node5&#45;&gt;Node7</title>
<g id="a_edge8_Node000005_Node000007"><a xlink:title=" ">
<path fill="none" stroke="#63b8ff" d="M233.76,-109.7C241.14,-97.29 252.15,-74.01 245,-55 240.82,-43.89 232.48,-33.75 224.57,-25.96"/>
<polygon fill="#63b8ff" stroke="#63b8ff" points="226.72,-23.19 216.99,-19.01 221.99,-28.35 226.72,-23.19"/>
</a>
</g>
</g>
<!-- Node8 -->
<g id="Node000008" class="node">
<title>Node8</title>
<g id="a_Node000008"><a xlink:href="respbuf_8h.html" target="_top" xlink:title=" ">
<polygon fill="white" stroke="#666666" points="236,-74 174,-74 174,-55 236,-55 236,-74"/>
<text text-anchor="middle" x="205" y="-62" font-family="Helvetica,sans-Serif" font-size="10.00">respbuf.h</text>
</a>
</g>
</g>
<!-- Node5&#45;&gt;Node8 -->
<g id="edge9_Node000005_Node000008" class="edge">
<title>Node5&#45;&gt;Node8</title>
<g id="a_edge9_Node000005_Node000008"><a xlink:title=" ">
<path fill="none" stroke="#63b8ff" d="M224.2,-109.75C221.09,-102.57 216.58,-92.18 212.71,-83.27"/>
<polygon fill="#63b8ff" stroke="#63b8ff" points="215.92,-81.87 208.73,-74.09 209.5,-84.66 215.92,-81.87"/>
</a>
</g>
</g>
<!-- Node8&#45;&gt;Node3 -->
<g id="edge10_Node000008_Node000003" class="edge">
<title>Node8&#45;&gt;Node3</title>
<g id="a_edge10_Node000008_Node000003"><a xlink:title=" ">
<path fill="none" stroke="#63b8ff" d="M190.86,-54.98C177.21,-46.77 156.31,-34.18 140.22,-24.49"/>
<polygon fill="#63b8ff" stroke="#63b8ff" points="141.77,-21.33 131.4,-19.17 138.16,-27.33 141.77,-21.33"/>
</a>
</g>
</g>
<!-- Node8&#45;&gt;Node6 -->
<g id="edge11_Node000008_Node000006" class="edge">
<title>Node8&#45;&gt;Node6</title>
<g id="a_edge11_Node000008_Node000006"><a xlink:title=" ">
<path fill="none" stroke="#63b8ff" d="M220.26,-54.98C235.13,-46.69 257.98,-33.94 275.42,-24.22"/>
<polygon fill="#63b8ff" stroke="#63b8ff" points="277.43,-27.1 284.46,-19.17 274.02,-20.99 277.43,-27.1"/>
</a>
</g>
</g>
<!-- Node8&#45;&gt;Node7 -->
<g id="edge12_Node000008_Node000007" class="edge">
<title>Node8&#45;&gt;Node7</title>
<g id="a_edge12_Node000008_Node000007"><a xlink:title=" ">
<path fill="none" stroke="#63b8ff" d="M205.17,-54.75C205.3,-47.8 205.48,-37.85 205.65,-29.13"/>
<polygon fill="#63b8ff" stroke="#63b8ff" points="209.15,-29.15 205.84,-19.09 202.15,-29.02 209.15,-29.15"/>
</a>
</g>
</g>
<!-- Node10 -->
<g id="Node000010" class="node">
<title>Node10</title>
<g id="a_Node000010"><a xlink:href="ssi__service_8h.html" target="_top" xlink:title=" ">
<polygon fill="white" stroke="#666666" points="80,-74 0,-74 0,-55 80,-55 80,-74"/>
<text text-anchor="middle" x="40" y="-62" font-family="Helvetica,sans-Serif" font-size="10.00">ssi_service.h</text>
</a>
</g>
</g>
<!-- Node9&#45;&gt;Node10 -->
<g id="edge14_Node000009_Node000010" class="edge">
<title>Node9&#45;&gt;Node10</title>
<g id="a_edge14_Node000009_Node000010"><a xlink:title=" ">
<path fill="none" stroke="#63b8ff" d="M43.34,-109.75C42.82,-102.8 42.06,-92.85 41.41,-84.13"/>
<polygon fill="#63b8ff" stroke="#63b8ff" points="44.89,-83.8 40.65,-74.09 37.91,-84.32 44.89,-83.8"/>
</a>
</g>
</g>
<!-- Node10&#45;&gt;Node3 -->
<g id="edge15_Node000010_Node000003" class="edge">
<title>Node10&#45;&gt;Node3</title>
<g id="a_edge15_Node000010_Node000003"><a xlink:title=" ">
<path fill="none" stroke="#63b8ff" d="M52.37,-54.98C64.09,-46.92 81.92,-34.65 95.89,-25.03"/>
<polygon fill="#63b8ff" stroke="#63b8ff" points="98.15,-27.72 104.4,-19.17 94.18,-21.96 98.15,-27.72"/>
</a>
</g>
</g>
</g>
</svg>
</svg>

<style type='text/css'>
<![CDATA[
[data-mouse-over-selected='false'] { opacity: 0.7; }
[data-mouse-over-selected='true']  { opacity: 1.0; }
]]>
</style>
<script type="application/ecmascript"><![CDATA[
document.addEventListener('DOMContentLoaded', (event) => {
  highlightEdges();
  highlightAdjacentNodes();
});
]]></script>
</svg>
