<?xml version="1.0" encoding="UTF-8" standalone="no"?>
<!DOCTYPE svg PUBLIC "-//W3C//DTD SVG 1.1//EN"
 "http://www.w3.org/Graphics/SVG/1.1/DTD/svg11.dtd">
<!-- Generated by graphviz version 2.43.0 (0)
 -->
<!-- Title: src/net/proxy/proxy.h Pages: 1 -->
<!--zoomable 236 -->

<svg id="main" version="1.1" xmlns="http://www.w3.org/2000/svg" xmlns:xlink="http://www.w3.org/1999/xlink" xml:space="preserve" onload="init(evt)">
<style type="text/css"><![CDATA[
.node, .edge {opacity: 0.7;}
.node.selected, .edge.selected {opacity: 1;}
.edge:hover path { stroke: red; }
.edge:hover polygon { stroke: red; fill: red; }
]]></style>

<defs>
  <circle id="rim" cx="0" cy="0" r="7"/>
  <circle id="rim2" cx="0" cy="0" r="3.5"/>
  <g id="zoomPlus">
    <use xlink:href="#rim" fill="#404040"><set attributeName="fill" to="#808080" begin="zoomplus.mouseover" end="zoomplus.mouseout"/></use>
    <path d="M-4,0h8M0,-4v8" fill="none" stroke="white" stroke-width="1.5" pointer-events="none"/>
  </g>
  <g id="zoomMin">
    <use xlink:href="#rim" fill="#404040"><set attributeName="fill" to="#808080" begin="zoomminus.mouseover" end="zoomminus.mouseout"/></use>
    <path d="M-4,0h8" fill="none" stroke="white" stroke-width="1.5" pointer-events="none"/>
  </g>
  <g id="arrowUp" transform="translate(30 24)">
    <use xlink:href="#rim"/>
    <path pointer-events="none" fill="none" stroke="white" stroke-width="1.5" d="M0,-3.0v7 M-2.5,-0.5L0,-3.0L2.5,-0.5"/>
  </g>
  <g id="arrowRight" transform="rotate(90) translate(36 -43)">
    <use xlink:href="#rim"/>
    <path pointer-events="none" fill="none" stroke="white" stroke-width="1.5" d="M0,-3.0v7 M-2.5,-0.5L0,-3.0L2.5,-0.5"/>
  </g>
  <g id="arrowDown" transform="rotate(180) translate(-30 -48)">
    <use xlink:href="#rim"/>
    <path pointer-events="none" fill="none" stroke="white" stroke-width="1.5" d="M0,-3.0v7 M-2.5,-0.5L0,-3.0L2.5,-0.5"/>
  </g>
  <g id="arrowLeft" transform="rotate(270) translate(-36 17)">
    <use xlink:href="#rim"/>
    <path pointer-events="none" fill="none" stroke="white" stroke-width="1.5" d="M0,-3.0v7 M-2.5,-0.5L0,-3.0L2.5,-0.5"/>
  </g>
  <g id="resetDef">
    <use xlink:href="#rim2" fill="#404040"><set attributeName="fill" to="#808080" begin="reset.mouseover" end="reset.mouseout"/></use>
  </g>
</defs>
<script type="application/ecmascript">
var viewWidth = 3178;
var viewHeight = 236;
var sectionId = 'dynsection-1';
</script>
<script type="application/ecmascript" xlink:href="svg.min.js"/>
<svg id="graph" class="graph">
<g id="viewport">
<title>src/net/proxy/proxy.h</title>
<!-- Node1 -->
<g id="Node000001" class="node">
<title>Node1</title>
<g id="a_Node000001"><a xlink:title=" ">
<polygon fill="#999999" stroke="#666666" points="2754.5,-228 2635.5,-228 2635.5,-209 2754.5,-209 2754.5,-228"/>
<text text-anchor="middle" x="2695" y="-216" font-family="Helvetica,sans-Serif" font-size="10.00">src/net/proxy/proxy.h</text>
</a>
</g>
</g>
<!-- Node2 -->
<g id="Node000002" class="node">
<title>Node2</title>
<g id="a_Node000002"><a xlink:href="process_8c.html" target="_top" xlink:title=" ">
<polygon fill="white" stroke="#666666" points="136,-90.5 0,-90.5 0,-71.5 136,-71.5 136,-90.5"/>
<text text-anchor="middle" x="68" y="-78.5" font-family="Helvetica,sans-Serif" font-size="10.00">src/core/config/process.c</text>
</a>
</g>
</g>
<!-- Node1&#45;&gt;Node2 -->
<g id="edge1_Node000001_Node000002" class="edge">
<title>Node1&#45;&gt;Node2</title>
<g id="a_edge1_Node000001_Node000002"><a xlink:title=" ">
<path fill="none" stroke="#63b8ff" d="M2624.93,-216.72C2327.33,-212.87 1138.85,-191.97 168,-96 153.35,-94.55 137.54,-92.55 122.92,-90.51"/>
<polygon fill="#63b8ff" stroke="#63b8ff" points="2625.1,-220.22 2635.14,-216.85 2625.19,-213.22 2625.1,-220.22"/>
</a>
</g>
</g>
<!-- Node3 -->
<g id="Node000003" class="node">
<title>Node3</title>
<g id="a_Node000003"><a xlink:href="net_2proxy_2proxy__internal_8h.html" target="_top" xlink:title=" ">
<polygon fill="white" stroke="#666666" points="1615.5,-167.5 1504.5,-167.5 1504.5,-137.5 1615.5,-137.5 1615.5,-167.5"/>
<text text-anchor="start" x="1512.5" y="-155.5" font-family="Helvetica,sans-Serif" font-size="10.00">src/net/proxy/proxy</text>
<text text-anchor="middle" x="1560" y="-144.5" font-family="Helvetica,sans-Serif" font-size="10.00">_internal.h</text>
</a>
</g>
</g>
<!-- Node1&#45;&gt;Node3 -->
<g id="edge2_Node000001_Node000003" class="edge">
<title>Node1&#45;&gt;Node3</title>
<g id="a_edge2_Node000001_Node000003"><a xlink:title=" ">
<path fill="none" stroke="#63b8ff" d="M2624.98,-213.55C2416.74,-201.81 1804.11,-167.26 1615.75,-156.64"/>
<polygon fill="#63b8ff" stroke="#63b8ff" points="2625,-217.06 2635.18,-214.13 2625.39,-210.07 2625,-217.06"/>
</a>
</g>
</g>
<!-- Node24 -->
<g id="Node000024" class="node">
<title>Node24</title>
<g id="a_Node000024"><a xlink:href="protocols_2root_2session_2lifecycle_8c.html" target="_top" xlink:title=" ">
<polygon fill="white" stroke="#666666" points="2692.5,-96 2583.5,-96 2583.5,-66 2692.5,-66 2692.5,-96"/>
<text text-anchor="start" x="2591.5" y="-84" font-family="Helvetica,sans-Serif" font-size="10.00">src/protocols/root</text>
<text text-anchor="middle" x="2638" y="-73" font-family="Helvetica,sans-Serif" font-size="10.00">/session/lifecycle.c</text>
</a>
</g>
</g>
<!-- Node1&#45;&gt;Node24 -->
<g id="edge34_Node000001_Node000024" class="edge">
<title>Node1&#45;&gt;Node24</title>
<g id="a_edge34_Node000001_Node000024"><a xlink:title=" ">
<path fill="none" stroke="#63b8ff" d="M2680.53,-201.16C2674.07,-193.14 2666.83,-183.06 2662,-173 2649.69,-147.38 2643.02,-114.54 2640.02,-96.14"/>
<polygon fill="#63b8ff" stroke="#63b8ff" points="2677.97,-203.56 2687.09,-208.95 2683.32,-199.05 2677.97,-203.56"/>
</a>
</g>
</g>
<!-- Node25 -->
<g id="Node000025" class="node">
<title>Node25</title>
<g id="a_Node000025"><a xlink:href="protocols_2root_2stream_2module_8c.html" target="_top" xlink:title=" ">
<polygon fill="white" stroke="#666666" points="2813,-96 2711,-96 2711,-66 2813,-66 2813,-96"/>
<text text-anchor="start" x="2719" y="-84" font-family="Helvetica,sans-Serif" font-size="10.00">src/protocols/root</text>
<text text-anchor="middle" x="2762" y="-73" font-family="Helvetica,sans-Serif" font-size="10.00">/stream/module.c</text>
</a>
</g>
</g>
<!-- Node1&#45;&gt;Node25 -->
<g id="edge35_Node000001_Node000025" class="edge">
<title>Node1&#45;&gt;Node25</title>
<g id="a_edge35_Node000001_Node000025"><a xlink:title=" ">
<path fill="none" stroke="#63b8ff" d="M2691.92,-198.77C2689.87,-180.65 2689.23,-152.92 2700,-132 2707.85,-116.75 2722.64,-104.55 2735.81,-96.01"/>
<polygon fill="#63b8ff" stroke="#63b8ff" points="2688.49,-199.48 2693.33,-208.9 2695.42,-198.51 2688.49,-199.48"/>
</a>
</g>
</g>
<!-- Node26 -->
<g id="Node000026" class="node">
<title>Node26</title>
<g id="a_Node000026"><a xlink:href="module__definition_8c.html" target="_top" xlink:title=" ">
<polygon fill="white" stroke="#666666" points="2984.5,-96 2831.5,-96 2831.5,-66 2984.5,-66 2984.5,-96"/>
<text text-anchor="start" x="2839.5" y="-84" font-family="Helvetica,sans-Serif" font-size="10.00">src/protocols/root</text>
<text text-anchor="middle" x="2908" y="-73" font-family="Helvetica,sans-Serif" font-size="10.00">/stream/module_definition.c</text>
</a>
</g>
</g>
<!-- Node1&#45;&gt;Node26 -->
<g id="edge36_Node000001_Node000026" class="edge">
<title>Node1&#45;&gt;Node26</title>
<g id="a_edge36_Node000001_Node000026"><a xlink:title=" ">
<path fill="none" stroke="#63b8ff" d="M2698.66,-199C2703.46,-179.56 2713.76,-149.44 2734,-132 2749.83,-118.35 2796.18,-105.39 2837.06,-96.09"/>
<polygon fill="#63b8ff" stroke="#63b8ff" points="2695.23,-198.27 2696.48,-208.79 2702.07,-199.78 2695.23,-198.27"/>
</a>
</g>
</g>
<!-- Node27 -->
<g id="Node000027" class="node">
<title>Node27</title>
<g id="a_Node000027"><a xlink:href="disconnect_8c.html" target="_top" xlink:title=" ">
<polygon fill="white" stroke="#666666" points="2879.5,-167.5 2742.5,-167.5 2742.5,-137.5 2879.5,-137.5 2879.5,-167.5"/>
<text text-anchor="start" x="2750.5" y="-155.5" font-family="Helvetica,sans-Serif" font-size="10.00">src/protocols/root</text>
<text text-anchor="middle" x="2811" y="-144.5" font-family="Helvetica,sans-Serif" font-size="10.00">/connection/disconnect.c</text>
</a>
</g>
</g>
<!-- Node1&#45;&gt;Node27 -->
<g id="edge31_Node000001_Node000027" class="edge">
<title>Node1&#45;&gt;Node27</title>
<g id="a_edge31_Node000001_Node000027"><a xlink:title=" ">
<path fill="none" stroke="#63b8ff" d="M2719.47,-204C2738.83,-193.32 2765.77,-178.45 2785.42,-167.62"/>
<polygon fill="#63b8ff" stroke="#63b8ff" points="2717.71,-200.97 2710.64,-208.87 2721.09,-207.1 2717.71,-200.97"/>
</a>
</g>
</g>
<!-- Node28 -->
<g id="Node000028" class="node">
<title>Node28</title>
<g id="a_Node000028"><a xlink:href="disconnect__report_8c.html" target="_top" xlink:title=" ">
<polygon fill="white" stroke="#666666" points="3026,-173 2898,-173 2898,-132 3026,-132 3026,-173"/>
<text text-anchor="start" x="2906" y="-161" font-family="Helvetica,sans-Serif" font-size="10.00">src/protocols/root</text>
<text text-anchor="start" x="2906" y="-150" font-family="Helvetica,sans-Serif" font-size="10.00">/connection/disconnect</text>
<text text-anchor="middle" x="2962" y="-139" font-family="Helvetica,sans-Serif" font-size="10.00">_report.c</text>
</a>
</g>
</g>
<!-- Node1&#45;&gt;Node28 -->
<g id="edge32_Node000001_Node000028" class="edge">
<title>Node1&#45;&gt;Node28</title>
<g id="a_edge32_Node000001_Node000028"><a xlink:title=" ">
<path fill="none" stroke="#63b8ff" d="M2743.97,-206.77C2783.26,-198.04 2839.79,-185.21 2889,-173 2891.93,-172.27 2894.92,-171.52 2897.94,-170.75"/>
<polygon fill="#63b8ff" stroke="#63b8ff" points="2743.12,-203.38 2734.11,-208.96 2744.63,-210.21 2743.12,-203.38"/>
</a>
</g>
</g>
<!-- Node29 -->
<g id="Node000029" class="node">
<title>Node29</title>
<g id="a_Node000029"><a xlink:href="root_2handshake_2dispatch_8c.html" target="_top" xlink:title=" ">
<polygon fill="white" stroke="#666666" points="3169.5,-167.5 3044.5,-167.5 3044.5,-137.5 3169.5,-137.5 3169.5,-167.5"/>
<text text-anchor="start" x="3052.5" y="-155.5" font-family="Helvetica,sans-Serif" font-size="10.00">src/protocols/root</text>
<text text-anchor="middle" x="3107" y="-144.5" font-family="Helvetica,sans-Serif" font-size="10.00">/handshake/dispatch.c</text>
</a>
</g>
</g>
<!-- Node1&#45;&gt;Node29 -->
<g id="edge33_Node000001_Node000029" class="edge">
<title>Node1&#45;&gt;Node29</title>
<g id="a_edge33_Node000001_Node000029"><a xlink:title=" ">
<path fill="none" stroke="#63b8ff" d="M2764.98,-211.12C2834.04,-204.17 2942.41,-191.51 3035,-173 3042.75,-171.45 3050.89,-169.53 3058.8,-167.51"/>
<polygon fill="#63b8ff" stroke="#63b8ff" points="2764.27,-207.67 2754.67,-212.14 2764.96,-214.63 2764.27,-207.67"/>
</a>
</g>
</g>
<!-- Node3&#45;&gt;Node2 -->
<g id="edge3_Node000003_Node000002" class="edge">
<title>Node3&#45;&gt;Node2</title>
<g id="a_edge3_Node000003_Node000002"><a xlink:title=" ">
<path fill="none" stroke="#63b8ff" d="M1494.37,-150.05C1253.16,-144.54 415.87,-123.81 150,-96 137.5,-94.69 124.03,-92.66 111.69,-90.54"/>
<polygon fill="#63b8ff" stroke="#63b8ff" points="1494.32,-153.55 1504.4,-150.28 1494.48,-146.55 1494.32,-153.55"/>
</a>
</g>
</g>
<!-- Node4 -->
<g id="Node000004" class="node">
<title>Node4</title>
<g id="a_Node000004"><a xlink:href="connect__lifecycle_8c.html" target="_top" xlink:title=" ">
<polygon fill="white" stroke="#666666" points="1234,-96 1112,-96 1112,-66 1234,-66 1234,-96"/>
<text text-anchor="start" x="1120" y="-84" font-family="Helvetica,sans-Serif" font-size="10.00">src/net/proxy/connect</text>
<text text-anchor="middle" x="1173" y="-73" font-family="Helvetica,sans-Serif" font-size="10.00">_lifecycle.c</text>
</a>
</g>
</g>
<!-- Node3&#45;&gt;Node4 -->
<g id="edge4_Node000003_Node000004" class="edge">
<title>Node3&#45;&gt;Node4</title>
<g id="a_edge4_Node000003_Node000004"><a xlink:title=" ">
<path fill="none" stroke="#63b8ff" d="M1494.4,-140.49C1430.24,-129.61 1329.79,-112.27 1243,-96 1240.08,-95.45 1237.09,-94.88 1234.07,-94.3"/>
<polygon fill="#63b8ff" stroke="#63b8ff" points="1493.94,-143.96 1504.38,-142.18 1495.11,-137.06 1493.94,-143.96"/>
</a>
</g>
</g>
<!-- Node5 -->
<g id="Node000005" class="node">
<title>Node5</title>
<g id="a_Node000005"><a xlink:href="connect__upstream_8c.html" target="_top" xlink:title=" ">
<polygon fill="white" stroke="#666666" points="1374,-96 1252,-96 1252,-66 1374,-66 1374,-96"/>
<text text-anchor="start" x="1260" y="-84" font-family="Helvetica,sans-Serif" font-size="10.00">src/net/proxy/connect</text>
<text text-anchor="middle" x="1313" y="-73" font-family="Helvetica,sans-Serif" font-size="10.00">_upstream.c</text>
</a>
</g>
</g>
<!-- Node3&#45;&gt;Node5 -->
<g id="edge5_Node000003_Node000005" class="edge">
<title>Node3&#45;&gt;Node5</title>
<g id="a_edge5_Node000003_Node000005"><a xlink:title=" ">
<path fill="none" stroke="#63b8ff" d="M1500.18,-134.67C1458.15,-122.84 1402.56,-107.2 1362.91,-96.04"/>
<polygon fill="#63b8ff" stroke="#63b8ff" points="1499.44,-138.1 1510.02,-137.44 1501.34,-131.36 1499.44,-138.1"/>
</a>
</g>
</g>
<!-- Node6 -->
<g id="Node000006" class="node">
<title>Node6</title>
<g id="a_Node000006"><a xlink:href="net_2proxy_2directives_8c.html" target="_top" xlink:title=" ">
<polygon fill="white" stroke="#666666" points="1532,-90.5 1392,-90.5 1392,-71.5 1532,-71.5 1532,-90.5"/>
<text text-anchor="middle" x="1462" y="-78.5" font-family="Helvetica,sans-Serif" font-size="10.00">src/net/proxy/directives.c</text>
</a>
</g>
</g>
<!-- Node3&#45;&gt;Node6 -->
<g id="edge6_Node000003_Node000006" class="edge">
<title>Node3&#45;&gt;Node6</title>
<g id="a_edge6_Node000003_Node000006"><a xlink:title=" ">
<path fill="none" stroke="#63b8ff" d="M1531.81,-131.5C1512.69,-117.95 1488.39,-100.71 1474.08,-90.57"/>
<polygon fill="#63b8ff" stroke="#63b8ff" points="1529.99,-134.51 1540.17,-137.44 1534.04,-128.8 1529.99,-134.51"/>
</a>
</g>
</g>
<!-- Node7 -->
<g id="Node000007" class="node">
<title>Node7</title>
<g id="a_Node000007"><a xlink:href="events__bootstrap_8c.html" target="_top" xlink:title=" ">
<polygon fill="white" stroke="#666666" points="1628,-30 1512,-30 1512,0 1628,0 1628,-30"/>
<text text-anchor="start" x="1520" y="-18" font-family="Helvetica,sans-Serif" font-size="10.00">src/net/proxy/events</text>
<text text-anchor="middle" x="1570" y="-7" font-family="Helvetica,sans-Serif" font-size="10.00">_bootstrap.c</text>
</a>
</g>
</g>
<!-- Node3&#45;&gt;Node7 -->
<g id="edge7_Node000003_Node000007" class="edge">
<title>Node3&#45;&gt;Node7</title>
<g id="a_edge7_Node000003_Node000007"><a xlink:title=" ">
<path fill="none" stroke="#63b8ff" d="M1561.81,-126.98C1563.9,-98.64 1567.27,-52.96 1568.96,-30.05"/>
<polygon fill="#63b8ff" stroke="#63b8ff" points="1558.3,-127.02 1561.05,-137.26 1565.28,-127.54 1558.3,-127.02"/>
</a>
</g>
</g>
<!-- Node8 -->
<g id="Node000008" class="node">
<title>Node8</title>
<g id="a_Node000008"><a xlink:href="events__bootstrap__auth_8c.html" target="_top" xlink:title=" ">
<polygon fill="white" stroke="#666666" points="1783,-30 1667,-30 1667,0 1783,0 1783,-30"/>
<text text-anchor="start" x="1675" y="-18" font-family="Helvetica,sans-Serif" font-size="10.00">src/net/proxy/events</text>
<text text-anchor="middle" x="1725" y="-7" font-family="Helvetica,sans-Serif" font-size="10.00">_bootstrap_auth.c</text>
</a>
</g>
</g>
<!-- Node3&#45;&gt;Node8 -->
<g id="edge8_Node000003_Node000008" class="edge">
<title>Node3&#45;&gt;Node8</title>
<g id="a_edge8_Node000003_Node000008"><a xlink:title=" ">
<path fill="none" stroke="#63b8ff" d="M1625.48,-144.74C1658.07,-137.83 1695.08,-123.93 1717,-96 1731.82,-77.11 1730.34,-47.49 1727.77,-30.09"/>
<polygon fill="#63b8ff" stroke="#63b8ff" points="1624.69,-141.33 1615.53,-146.67 1626.02,-148.2 1624.69,-141.33"/>
</a>
</g>
</g>
<!-- Node9 -->
<g id="Node000009" class="node">
<title>Node9</title>
<g id="a_Node000009"><a xlink:href="events__bootstrap__internal_8h.html" target="_top" xlink:title=" ">
<polygon fill="white" stroke="#666666" points="1708,-96 1588,-96 1588,-66 1708,-66 1708,-96"/>
<text text-anchor="start" x="1596" y="-84" font-family="Helvetica,sans-Serif" font-size="10.00">src/net/proxy/events</text>
<text text-anchor="middle" x="1648" y="-73" font-family="Helvetica,sans-Serif" font-size="10.00">_bootstrap_internal.h</text>
</a>
</g>
</g>
<!-- Node3&#45;&gt;Node9 -->
<g id="edge9_Node000003_Node000009" class="edge">
<title>Node3&#45;&gt;Node9</title>
<g id="a_edge9_Node000003_Node000009"><a xlink:title=" ">
<path fill="none" stroke="#63b8ff" d="M1585.8,-131.13C1600.08,-119.85 1617.46,-106.12 1630.22,-96.04"/>
<polygon fill="#63b8ff" stroke="#63b8ff" points="1583.49,-128.49 1577.81,-137.44 1587.83,-133.98 1583.49,-128.49"/>
</a>
</g>
</g>
<!-- Node10 -->
<g id="Node000010" class="node">
<title>Node10</title>
<g id="a_Node000010"><a xlink:href="events__read_8c.html" target="_top" xlink:title=" ">
<polygon fill="white" stroke="#666666" points="1880,-96 1764,-96 1764,-66 1880,-66 1880,-96"/>
<text text-anchor="start" x="1772" y="-84" font-family="Helvetica,sans-Serif" font-size="10.00">src/net/proxy/events</text>
<text text-anchor="middle" x="1822" y="-73" font-family="Helvetica,sans-Serif" font-size="10.00">_read.c</text>
</a>
</g>
</g>
<!-- Node3&#45;&gt;Node10 -->
<g id="edge12_Node000003_Node000010" class="edge">
<title>Node3&#45;&gt;Node10</title>
<g id="a_edge12_Node000003_Node000010"><a xlink:title=" ">
<path fill="none" stroke="#63b8ff" d="M1622.89,-134.82C1667.54,-122.97 1726.82,-107.25 1769.06,-96.04"/>
<polygon fill="#63b8ff" stroke="#63b8ff" points="1621.79,-131.49 1613.02,-137.44 1623.58,-138.25 1621.79,-131.49"/>
</a>
</g>
</g>
<!-- Node11 -->
<g id="Node000011" class="node">
<title>Node11</title>
<g id="a_Node000011"><a xlink:href="events__splice_8c.html" target="_top" xlink:title=" ">
<polygon fill="white" stroke="#666666" points="2014,-96 1898,-96 1898,-66 2014,-66 2014,-96"/>
<text text-anchor="start" x="1906" y="-84" font-family="Helvetica,sans-Serif" font-size="10.00">src/net/proxy/events</text>
<text text-anchor="middle" x="1956" y="-73" font-family="Helvetica,sans-Serif" font-size="10.00">_splice.c</text>
</a>
</g>
</g>
<!-- Node3&#45;&gt;Node11 -->
<g id="edge13_Node000003_Node000011" class="edge">
<title>Node3&#45;&gt;Node11</title>
<g id="a_edge13_Node000003_Node000011"><a xlink:title=" ">
<path fill="none" stroke="#63b8ff" d="M1625.63,-141.2C1692.13,-130.58 1797.91,-113.19 1889,-96 1891.92,-95.45 1894.91,-94.87 1897.92,-94.28"/>
<polygon fill="#63b8ff" stroke="#63b8ff" points="1625.03,-137.75 1615.71,-142.78 1626.14,-144.66 1625.03,-137.75"/>
</a>
</g>
</g>
<!-- Node12 -->
<g id="Node000012" class="node">
<title>Node12</title>
<g id="a_Node000012"><a xlink:href="events__write_8c.html" target="_top" xlink:title=" ">
<polygon fill="white" stroke="#666666" points="2148,-96 2032,-96 2032,-66 2148,-66 2148,-96"/>
<text text-anchor="start" x="2040" y="-84" font-family="Helvetica,sans-Serif" font-size="10.00">src/net/proxy/events</text>
<text text-anchor="middle" x="2090" y="-73" font-family="Helvetica,sans-Serif" font-size="10.00">_write.c</text>
</a>
</g>
</g>
<!-- Node3&#45;&gt;Node12 -->
<g id="edge14_Node000003_Node000012" class="edge">
<title>Node3&#45;&gt;Node12</title>
<g id="a_edge14_Node000003_Node000012"><a xlink:title=" ">
<path fill="none" stroke="#63b8ff" d="M1625.87,-145.42C1715.89,-136.69 1882.23,-119.1 2023,-96 2025.93,-95.52 2028.93,-95 2031.95,-94.45"/>
<polygon fill="#63b8ff" stroke="#63b8ff" points="1625.43,-141.94 1615.81,-146.39 1626.1,-148.91 1625.43,-141.94"/>
</a>
</g>
</g>
<!-- Node13 -->
<g id="Node000013" class="node">
<title>Node13</title>
<g id="a_Node000013"><a xlink:href="forward__fh__translate_8c.html" target="_top" xlink:title=" ">
<polygon fill="white" stroke="#666666" points="2287.5,-96 2166.5,-96 2166.5,-66 2287.5,-66 2287.5,-96"/>
<text text-anchor="start" x="2174.5" y="-84" font-family="Helvetica,sans-Serif" font-size="10.00">src/net/proxy/forward</text>
<text text-anchor="middle" x="2227" y="-73" font-family="Helvetica,sans-Serif" font-size="10.00">_fh_translate.c</text>
</a>
</g>
</g>
<!-- Node3&#45;&gt;Node13 -->
<g id="edge15_Node000003_Node000013" class="edge">
<title>Node3&#45;&gt;Node13</title>
<g id="a_edge15_Node000003_Node000013"><a xlink:title=" ">
<path fill="none" stroke="#63b8ff" d="M1626.1,-147.62C1736.48,-140.65 1965.17,-124.02 2157,-96 2160.07,-95.55 2163.2,-95.06 2166.36,-94.53"/>
<polygon fill="#63b8ff" stroke="#63b8ff" points="1625.55,-144.15 1615.79,-148.27 1625.99,-151.14 1625.55,-144.15"/>
</a>
</g>
</g>
<!-- Node14 -->
<g id="Node000014" class="node">
<title>Node14</title>
<g id="a_Node000014"><a xlink:href="forward__relay__audit_8c.html" target="_top" xlink:title=" ">
<polygon fill="white" stroke="#666666" points="2426.5,-96 2305.5,-96 2305.5,-66 2426.5,-66 2426.5,-96"/>
<text text-anchor="start" x="2313.5" y="-84" font-family="Helvetica,sans-Serif" font-size="10.00">src/net/proxy/forward</text>
<text text-anchor="middle" x="2366" y="-73" font-family="Helvetica,sans-Serif" font-size="10.00">_relay_audit.c</text>
</a>
</g>
</g>
<!-- Node3&#45;&gt;Node14 -->
<g id="edge16_Node000003_Node000014" class="edge">
<title>Node3&#45;&gt;Node14</title>
<g id="a_edge16_Node000003_Node000014"><a xlink:title=" ">
<path fill="none" stroke="#63b8ff" d="M1625.75,-149.24C1754.79,-144.2 2050.03,-129.74 2296,-96 2299.07,-95.58 2302.21,-95.11 2305.37,-94.6"/>
<polygon fill="#63b8ff" stroke="#63b8ff" points="1625.5,-145.74 1615.64,-149.63 1625.77,-152.74 1625.5,-145.74"/>
</a>
</g>
</g>
<!-- Node15 -->
<g id="Node000015" class="node">
<title>Node15</title>
<g id="a_Node000015"><a xlink:href="forward__relay__dispatch_8c.html" target="_top" xlink:title=" ">
<polygon fill="white" stroke="#666666" points="2565.5,-96 2444.5,-96 2444.5,-66 2565.5,-66 2565.5,-96"/>
<text text-anchor="start" x="2452.5" y="-84" font-family="Helvetica,sans-Serif" font-size="10.00">src/net/proxy/forward</text>
<text text-anchor="middle" x="2505" y="-73" font-family="Helvetica,sans-Serif" font-size="10.00">_relay_dispatch.c</text>
</a>
</g>
</g>
<!-- Node3&#45;&gt;Node15 -->
<g id="edge17_Node000003_Node000015" class="edge">
<title>Node3&#45;&gt;Node15</title>
<g id="a_edge17_Node000003_Node000015"><a xlink:title=" ">
<path fill="none" stroke="#63b8ff" d="M1625.67,-150.34C1771.73,-147.1 2134.33,-135.42 2435,-96 2438.07,-95.6 2441.21,-95.14 2444.38,-94.64"/>
<polygon fill="#63b8ff" stroke="#63b8ff" points="1625.45,-146.84 1615.53,-150.56 1625.6,-153.84 1625.45,-146.84"/>
</a>
</g>
</g>
<!-- Node16 -->
<g id="Node000016" class="node">
<title>Node16</title>
<g id="a_Node000016"><a xlink:href="forward__relay__response_8c.html" target="_top" xlink:title=" ">
<polygon fill="white" stroke="#666666" points="240.5,-30 119.5,-30 119.5,0 240.5,0 240.5,-30"/>
<text text-anchor="start" x="127.5" y="-18" font-family="Helvetica,sans-Serif" font-size="10.00">src/net/proxy/forward</text>
<text text-anchor="middle" x="180" y="-7" font-family="Helvetica,sans-Serif" font-size="10.00">_relay_response.c</text>
</a>
</g>
</g>
<!-- Node3&#45;&gt;Node16 -->
<g id="edge18_Node000003_Node000016" class="edge">
<title>Node3&#45;&gt;Node16</title>
<g id="a_edge18_Node000003_Node000016"><a xlink:title=" ">
<path fill="none" stroke="#63b8ff" d="M1494,-150.05C1222.67,-143.93 206.42,-119.48 183,-96 165.92,-78.88 170.67,-48.07 175.47,-30.09"/>
<polygon fill="#63b8ff" stroke="#63b8ff" points="1494.01,-153.55 1504.09,-150.28 1494.17,-146.55 1494.01,-153.55"/>
</a>
</g>
</g>
<!-- Node17 -->
<g id="Node000017" class="node">
<title>Node17</title>
<g id="a_Node000017"><a xlink:href="forward__relay__response__internal_8h.html" target="_top" xlink:title=" ">
<polygon fill="white" stroke="#666666" points="340,-96 192,-96 192,-66 340,-66 340,-96"/>
<text text-anchor="start" x="200" y="-84" font-family="Helvetica,sans-Serif" font-size="10.00">src/net/proxy/forward</text>
<text text-anchor="middle" x="266" y="-73" font-family="Helvetica,sans-Serif" font-size="10.00">_relay_response_internal.h</text>
</a>
</g>
</g>
<!-- Node3&#45;&gt;Node17 -->
<g id="edge19_Node000003_Node000017" class="edge">
<title>Node3&#45;&gt;Node17</title>
<g id="a_edge19_Node000003_Node000017"><a xlink:title=" ">
<path fill="none" stroke="#63b8ff" d="M1494.03,-151.05C1311.98,-149.25 787.37,-140.3 354,-96 349.54,-95.54 344.96,-95.01 340.34,-94.43"/>
<polygon fill="#63b8ff" stroke="#63b8ff" points="1494.21,-154.55 1504.24,-151.15 1494.27,-147.55 1494.21,-154.55"/>
</a>
</g>
</g>
<!-- Node18 -->
<g id="Node000018" class="node">
<title>Node18</title>
<g id="a_Node000018"><a xlink:href="forward__relay__response__lazy_8c.html" target="_top" xlink:title=" ">
<polygon fill="white" stroke="#666666" points="402,-30 274,-30 274,0 402,0 402,-30"/>
<text text-anchor="start" x="282" y="-18" font-family="Helvetica,sans-Serif" font-size="10.00">src/net/proxy/forward</text>
<text text-anchor="middle" x="338" y="-7" font-family="Helvetica,sans-Serif" font-size="10.00">_relay_response_lazy.c</text>
</a>
</g>
</g>
<!-- Node3&#45;&gt;Node18 -->
<g id="edge22_Node000003_Node000018" class="edge">
<title>Node3&#45;&gt;Node18</title>
<g id="a_edge22_Node000003_Node000018"><a xlink:title=" ">
<path fill="none" stroke="#63b8ff" d="M1494.14,-150.08C1253.72,-144.69 434.87,-124.32 387,-96 362.33,-81.4 348.42,-49.06 342.14,-30.28"/>
<polygon fill="#63b8ff" stroke="#63b8ff" points="1494.4,-153.59 1504.48,-150.31 1494.56,-146.59 1494.4,-153.59"/>
</a>
</g>
</g>
<!-- Node19 -->
<g id="Node000019" class="node">
<title>Node19</title>
<g id="a_Node000019"><a xlink:href="forward__request_8c.html" target="_top" xlink:title=" ">
<polygon fill="white" stroke="#666666" points="517.5,-96 396.5,-96 396.5,-66 517.5,-66 517.5,-96"/>
<text text-anchor="start" x="404.5" y="-84" font-family="Helvetica,sans-Serif" font-size="10.00">src/net/proxy/forward</text>
<text text-anchor="middle" x="457" y="-73" font-family="Helvetica,sans-Serif" font-size="10.00">_request.c</text>
</a>
</g>
</g>
<!-- Node3&#45;&gt;Node19 -->
<g id="edge23_Node000003_Node000019" class="edge">
<title>Node3&#45;&gt;Node19</title>
<g id="a_edge23_Node000003_Node000019"><a xlink:title=" ">
<path fill="none" stroke="#63b8ff" d="M1493.83,-151.3C1329.42,-150.08 889.39,-142.36 526,-96 523.33,-95.66 520.61,-95.27 517.87,-94.85"/>
<polygon fill="#63b8ff" stroke="#63b8ff" points="1494.24,-154.8 1504.26,-151.37 1494.28,-147.8 1494.24,-154.8"/>
</a>
</g>
</g>
<!-- Node20 -->
<g id="Node000020" class="node">
<title>Node20</title>
<g id="a_Node000020"><a xlink:href="forward__rewrite__helpers_8c.html" target="_top" xlink:title=" ">
<polygon fill="white" stroke="#666666" points="656.5,-96 535.5,-96 535.5,-66 656.5,-66 656.5,-96"/>
<text text-anchor="start" x="543.5" y="-84" font-family="Helvetica,sans-Serif" font-size="10.00">src/net/proxy/forward</text>
<text text-anchor="middle" x="596" y="-73" font-family="Helvetica,sans-Serif" font-size="10.00">_rewrite_helpers.c</text>
</a>
</g>
</g>
<!-- Node3&#45;&gt;Node20 -->
<g id="edge24_Node000003_Node000020" class="edge">
<title>Node3&#45;&gt;Node20</title>
<g id="a_edge24_Node000003_Node000020"><a xlink:title=" ">
<path fill="none" stroke="#63b8ff" d="M1494.19,-150.53C1345.68,-147.66 973.43,-136.65 665,-96 662.21,-95.63 659.37,-95.22 656.5,-94.77"/>
<polygon fill="#63b8ff" stroke="#63b8ff" points="1494.43,-154.03 1504.49,-150.72 1494.56,-147.03 1494.43,-154.03"/>
</a>
</g>
</g>
<!-- Node21 -->
<g id="Node000021" class="node">
<title>Node21</title>
<g id="a_Node000021"><a xlink:href="forward__session__helpers_8c.html" target="_top" xlink:title=" ">
<polygon fill="white" stroke="#666666" points="795.5,-96 674.5,-96 674.5,-66 795.5,-66 795.5,-96"/>
<text text-anchor="start" x="682.5" y="-84" font-family="Helvetica,sans-Serif" font-size="10.00">src/net/proxy/forward</text>
<text text-anchor="middle" x="735" y="-73" font-family="Helvetica,sans-Serif" font-size="10.00">_session_helpers.c</text>
</a>
</g>
</g>
<!-- Node3&#45;&gt;Node21 -->
<g id="edge25_Node000003_Node000021" class="edge">
<title>Node3&#45;&gt;Node21</title>
<g id="a_edge25_Node000003_Node000021"><a xlink:title=" ">
<path fill="none" stroke="#63b8ff" d="M1493.94,-149.47C1362.18,-144.8 1057.56,-130.89 804,-96 801.21,-95.62 798.37,-95.19 795.51,-94.73"/>
<polygon fill="#63b8ff" stroke="#63b8ff" points="1494.15,-152.98 1504.26,-149.83 1494.39,-145.98 1494.15,-152.98"/>
</a>
</g>
</g>
<!-- Node22 -->
<g id="Node000022" class="node">
<title>Node22</title>
<g id="a_Node000022"><a xlink:href="gsi__upstream__login_8c.html" target="_top" xlink:title=" ">
<polygon fill="white" stroke="#666666" points="962.5,-96 813.5,-96 813.5,-66 962.5,-66 962.5,-96"/>
<text text-anchor="start" x="821.5" y="-84" font-family="Helvetica,sans-Serif" font-size="10.00">src/net/proxy/gsi_upstream</text>
<text text-anchor="middle" x="888" y="-73" font-family="Helvetica,sans-Serif" font-size="10.00">_login.c</text>
</a>
</g>
</g>
<!-- Node3&#45;&gt;Node22 -->
<g id="edge26_Node000003_Node000022" class="edge">
<title>Node3&#45;&gt;Node22</title>
<g id="a_edge26_Node000003_Node000022"><a xlink:title=" ">
<path fill="none" stroke="#63b8ff" d="M1494.03,-146.87C1384.93,-138.85 1160.17,-120.83 971,-96 968.25,-95.64 965.45,-95.25 962.62,-94.85"/>
<polygon fill="#63b8ff" stroke="#63b8ff" points="1493.99,-150.37 1504.22,-147.61 1494.5,-143.39 1493.99,-150.37"/>
</a>
</g>
</g>
<!-- Node23 -->
<g id="Node000023" class="node">
<title>Node23</title>
<g id="a_Node000023"><a xlink:href="src_2net_2proxy_2pool_8c.html" target="_top" xlink:title=" ">
<polygon fill="white" stroke="#666666" points="1093.5,-90.5 980.5,-90.5 980.5,-71.5 1093.5,-71.5 1093.5,-90.5"/>
<text text-anchor="middle" x="1037" y="-78.5" font-family="Helvetica,sans-Serif" font-size="10.00">src/net/proxy/pool.c</text>
</a>
</g>
</g>
<!-- Node3&#45;&gt;Node23 -->
<g id="edge27_Node000003_Node000023" class="edge">
<title>Node3&#45;&gt;Node23</title>
<g id="a_edge27_Node000003_Node000023"><a xlink:title=" ">
<path fill="none" stroke="#63b8ff" d="M1494.24,-145.35C1405.22,-136.61 1241.54,-119.06 1103,-96 1093.76,-94.46 1083.84,-92.52 1074.59,-90.57"/>
<polygon fill="#63b8ff" stroke="#63b8ff" points="1493.91,-148.84 1504.2,-146.32 1494.59,-141.87 1493.91,-148.84"/>
</a>
</g>
</g>
<!-- Node3&#45;&gt;Node24 -->
<g id="edge28_Node000003_Node000024" class="edge">
<title>Node3&#45;&gt;Node24</title>
<g id="a_edge28_Node000003_Node000024"><a xlink:title=" ">
<path fill="none" stroke="#63b8ff" d="M1625.81,-151.55C1787.82,-150.87 2218.64,-144.27 2574,-96 2577.04,-95.59 2580.16,-95.1 2583.29,-94.57"/>
<polygon fill="#63b8ff" stroke="#63b8ff" points="1625.52,-148.05 1615.53,-151.58 1625.54,-155.05 1625.52,-148.05"/>
</a>
</g>
</g>
<!-- Node3&#45;&gt;Node25 -->
<g id="edge29_Node000003_Node000025" class="edge">
<title>Node3&#45;&gt;Node25</title>
<g id="a_edge29_Node000003_Node000025"><a xlink:title=" ">
<path fill="none" stroke="#63b8ff" d="M1625.83,-149.87C1836.39,-144.39 2491.88,-125.37 2702,-96 2704.86,-95.6 2707.78,-95.13 2710.73,-94.61"/>
<polygon fill="#63b8ff" stroke="#63b8ff" points="1625.46,-146.37 1615.55,-150.13 1625.64,-153.37 1625.46,-146.37"/>
</a>
</g>
</g>
<!-- Node3&#45;&gt;Node26 -->
<g id="edge30_Node000003_Node000026" class="edge">
<title>Node3&#45;&gt;Node26</title>
<g id="a_edge30_Node000003_Node000026"><a xlink:title=" ">
<path fill="none" stroke="#63b8ff" d="M1625.76,-151.33C1813.18,-150.24 2365.95,-142.98 2822,-96 2825.01,-95.69 2828.07,-95.34 2831.17,-94.97"/>
<polygon fill="#63b8ff" stroke="#63b8ff" points="1625.51,-147.83 1615.53,-151.38 1625.54,-154.83 1625.51,-147.83"/>
</a>
</g>
</g>
<!-- Node9&#45;&gt;Node7 -->
<g id="edge10_Node000009_Node000007" class="edge">
<title>Node9&#45;&gt;Node7</title>
<g id="a_edge10_Node000009_Node000007"><a xlink:title=" ">
<path fill="none" stroke="#63b8ff" d="M1622.65,-59.2C1611.07,-49.7 1597.65,-38.69 1587.26,-30.16"/>
<polygon fill="#63b8ff" stroke="#63b8ff" points="1620.74,-62.16 1630.69,-65.8 1625.18,-56.75 1620.74,-62.16"/>
</a>
</g>
</g>
<!-- Node9&#45;&gt;Node8 -->
<g id="edge11_Node000009_Node000008" class="edge">
<title>Node9&#45;&gt;Node8</title>
<g id="a_edge11_Node000009_Node000008"><a xlink:title=" ">
<path fill="none" stroke="#63b8ff" d="M1673.02,-59.2C1684.45,-49.7 1697.7,-38.69 1707.96,-30.16"/>
<polygon fill="#63b8ff" stroke="#63b8ff" points="1670.54,-56.71 1665.09,-65.8 1675.02,-62.1 1670.54,-56.71"/>
</a>
</g>
</g>
<!-- Node17&#45;&gt;Node16 -->
<g id="edge20_Node000017_Node000016" class="edge">
<title>Node17&#45;&gt;Node16</title>
<g id="a_edge20_Node000017_Node000016"><a xlink:title=" ">
<path fill="none" stroke="#63b8ff" d="M238.79,-59.75C225.86,-50.13 210.71,-38.86 199.03,-30.16"/>
<polygon fill="#63b8ff" stroke="#63b8ff" points="236.8,-62.63 246.91,-65.8 240.98,-57.02 236.8,-62.63"/>
</a>
</g>
</g>
<!-- Node17&#45;&gt;Node18 -->
<g id="edge21_Node000017_Node000018" class="edge">
<title>Node17&#45;&gt;Node18</title>
<g id="a_edge21_Node000017_Node000018"><a xlink:title=" ">
<path fill="none" stroke="#63b8ff" d="M289.71,-58.92C300.33,-49.49 312.57,-38.61 322.07,-30.16"/>
<polygon fill="#63b8ff" stroke="#63b8ff" points="287.13,-56.54 281.98,-65.8 291.78,-61.77 287.13,-56.54"/>
</a>
</g>
</g>
</g>
</svg>

<g id="navigator" transform="translate(0 0)" fill="#404254">
  <rect fill="#f2f5e9" fill-opacity="0.5" stroke="#606060" stroke-width=".5" x="0" y="0" width="60" height="60"/>
  <use id="zoomplus" xlink:href="#zoomPlus" x="17" y="9" onmousedown="handleZoom(evt,'in')"/>
  <use id="zoomminus" xlink:href="#zoomMin" x="42" y="9" onmousedown="handleZoom(evt,'out')"/>
  <use id="reset" xlink:href="#resetDef" x="30" y="36" onmousedown="handleReset()"/>
   <use id="arrowup" xlink:href="#arrowUp" x="0" y="0" onmousedown="handlePan(0,-1)"/>
  <use id="arrowright" xlink:href="#arrowRight" x="0" y="0" onmousedown="handlePan(1,0)"/>
  <use id="arrowdown" xlink:href="#arrowDown" x="0" y="0" onmousedown="handlePan(0,1)"/>
  <use id="arrowleft" xlink:href="#arrowLeft" x="0" y="0" onmousedown="handlePan(-1,0)"/>
</g>
<svg viewBox="0 0 15 15" width="100%" height="30px" preserveAspectRatio="xMaxYMin meet">
 <g id="arrow_out" transform="scale(0.3 0.3)">
  <a xlink:href="proxy_8h__dep__incl_org.svg" target="_base">
   <rect id="button" ry="5" rx="5" y="6" x="6" height="38" width="38"
        fill="#f2f5e9" fill-opacity="0.5" stroke="#606060" stroke-width="1.0"/>
   <path id="arrow"
     d="M 11.500037,31.436501 C 11.940474,20.09759 22.043105,11.32322 32.158766,21.979434 L 37.068811,17.246167 C 37.068811,17.246167 37.088388,32 37.088388,32 L 22.160133,31.978069 C 22.160133,31.978069 26.997745,27.140456 26.997745,27.140456 C 18.528582,18.264221 13.291696,25.230495 11.500037,31.436501 z"
     style="fill:#404040;"/>
  </a>
 </g>
</svg>

<style type='text/css'>
<![CDATA[
[data-mouse-over-selected='false'] { opacity: 0.7; }
[data-mouse-over-selected='true']  { opacity: 1.0; }
]]>
</style>
<script type="application/ecmascript"><![CDATA[
document.addEventListener('DOMContentLoaded', (event) => {
  highlightEdges();
  highlightAdjacentNodes();
});
]]></script>
</svg>
