<?xml version="1.0" encoding="UTF-8" standalone="no"?>
<!DOCTYPE svg PUBLIC "-//W3C//DTD SVG 1.1//EN"
 "http://www.w3.org/Graphics/SVG/1.1/DTD/svg11.dtd">
<!-- Generated by graphviz version 2.43.0 (0)
 -->
<!-- Title: src/protocols/root/query/query_internal.h Pages: 1 -->
<!--zoomable 115 -->

<svg id="main" version="1.1" xmlns="http://www.w3.org/2000/svg" xmlns:xlink="http://www.w3.org/1999/xlink" xml:space="preserve" onload="init(evt)">
<style type="text/css"><![CDATA[
.node, .edge {opacity: 0.7;}
.node.selected, .edge.selected {opacity: 1;}
.edge:hover path { stroke: red; }
.edge:hover polygon { stroke: red; fill: red; }
]]></style>

<defs>
  <circle id="rim" cx="0" cy="0" r="7"/>
  <circle id="rim2" cx="0" cy="0" r="3.5"/>
  <g id="zoomPlus">
    <use xlink:href="#rim" fill="#404040"><set attributeName="fill" to="#808080" begin="zoomplus.mouseover" end="zoomplus.mouseout"/></use>
    <path d="M-4,0h8M0,-4v8" fill="none" stroke="white" stroke-width="1.5" pointer-events="none"/>
  </g>
  <g id="zoomMin">
    <use xlink:href="#rim" fill="#404040"><set attributeName="fill" to="#808080" begin="zoomminus.mouseover" end="zoomminus.mouseout"/></use>
    <path d="M-4,0h8" fill="none" stroke="white" stroke-width="1.5" pointer-events="none"/>
  </g>
  <g id="arrowUp" transform="translate(30 24)">
    <use xlink:href="#rim"/>
    <path pointer-events="none" fill="none" stroke="white" stroke-width="1.5" d="M0,-3.0v7 M-2.5,-0.5L0,-3.0L2.5,-0.5"/>
  </g>
  <g id="arrowRight" transform="rotate(90) translate(36 -43)">
    <use xlink:href="#rim"/>
    <path pointer-events="none" fill="none" stroke="white" stroke-width="1.5" d="M0,-3.0v7 M-2.5,-0.5L0,-3.0L2.5,-0.5"/>
  </g>
  <g id="arrowDown" transform="rotate(180) translate(-30 -48)">
    <use xlink:href="#rim"/>
    <path pointer-events="none" fill="none" stroke="white" stroke-width="1.5" d="M0,-3.0v7 M-2.5,-0.5L0,-3.0L2.5,-0.5"/>
  </g>
  <g id="arrowLeft" transform="rotate(270) translate(-36 17)">
    <use xlink:href="#rim"/>
    <path pointer-events="none" fill="none" stroke="white" stroke-width="1.5" d="M0,-3.0v7 M-2.5,-0.5L0,-3.0L2.5,-0.5"/>
  </g>
  <g id="resetDef">
    <use xlink:href="#rim2" fill="#404040"><set attributeName="fill" to="#808080" begin="reset.mouseover" end="reset.mouseout"/></use>
  </g>
</defs>
<script type="application/ecmascript">
var viewWidth = 1801;
var viewHeight = 115;
var sectionId = 'dynsection-1';
</script>
<script type="application/ecmascript" xlink:href="svg.min.js"/>
<svg id="graph" class="graph">
<g id="viewport">
<title>src/protocols/root/query/query_internal.h</title>
<!-- Node1 -->
<g id="Node000001" class="node">
<title>Node1</title>
<g id="a_Node000001"><a xlink:title=" ">
<polygon fill="#999999" stroke="#666666" points="1037.5,-107 907.5,-107 907.5,-77 1037.5,-77 1037.5,-107"/>
<text text-anchor="start" x="915.5" y="-95" font-family="Helvetica,sans-Serif" font-size="10.00">src/protocols/root</text>
<text text-anchor="middle" x="972.5" y="-84" font-family="Helvetica,sans-Serif" font-size="10.00">/query/query_internal.h</text>
</a>
</g>
</g>
<!-- Node2 -->
<g id="Node000002" class="node">
<title>Node2</title>
<g id="a_Node000002"><a xlink:href="checksum__ckscan__async_8c.html" target="_top" xlink:title=" ">
<polygon fill="white" stroke="#666666" points="139,-41 0,-41 0,0 139,0 139,-41"/>
<text text-anchor="start" x="8" y="-29" font-family="Helvetica,sans-Serif" font-size="10.00">src/protocols/root</text>
<text text-anchor="start" x="8" y="-18" font-family="Helvetica,sans-Serif" font-size="10.00">/query/checksum_ckscan</text>
<text text-anchor="middle" x="69.5" y="-7" font-family="Helvetica,sans-Serif" font-size="10.00">_async.c</text>
</a>
</g>
</g>
<!-- Node1&#45;&gt;Node2 -->
<g id="edge1_Node000001_Node000002" class="edge">
<title>Node1&#45;&gt;Node2</title>
<g id="a_edge1_Node000001_Node000002"><a xlink:title=" ">
<path fill="none" stroke="#63b8ff" d="M897.19,-91.06C751.52,-90.17 421.38,-83.16 147.5,-41 144.74,-40.58 141.94,-40.1 139.11,-39.58"/>
<polygon fill="#63b8ff" stroke="#63b8ff" points="897.34,-94.56 907.36,-91.12 897.38,-87.56 897.34,-94.56"/>
</a>
</g>
</g>
<!-- Node3 -->
<g id="Node000003" class="node">
<title>Node3</title>
<g id="a_Node000003"><a xlink:href="checksum__ckscan__common_8c.html" target="_top" xlink:title=" ">
<polygon fill="white" stroke="#666666" points="296,-41 157,-41 157,0 296,0 296,-41"/>
<text text-anchor="start" x="165" y="-29" font-family="Helvetica,sans-Serif" font-size="10.00">src/protocols/root</text>
<text text-anchor="start" x="165" y="-18" font-family="Helvetica,sans-Serif" font-size="10.00">/query/checksum_ckscan</text>
<text text-anchor="middle" x="226.5" y="-7" font-family="Helvetica,sans-Serif" font-size="10.00">_common.c</text>
</a>
</g>
</g>
<!-- Node1&#45;&gt;Node3 -->
<g id="edge2_Node000001_Node000003" class="edge">
<title>Node1&#45;&gt;Node3</title>
<g id="a_edge2_Node000001_Node000003"><a xlink:title=" ">
<path fill="none" stroke="#63b8ff" d="M896.95,-89.53C772.64,-86.17 517.52,-75.34 304.5,-41 301.74,-40.56 298.94,-40.06 296.12,-39.53"/>
<polygon fill="#63b8ff" stroke="#63b8ff" points="897.03,-93.03 907.12,-89.79 897.21,-86.03 897.03,-93.03"/>
</a>
</g>
</g>
<!-- Node4 -->
<g id="Node000004" class="node">
<title>Node4</title>
<g id="a_Node000004"><a xlink:href="checksum__ckscan__dispatch_8c.html" target="_top" xlink:title=" ">
<polygon fill="white" stroke="#666666" points="453,-41 314,-41 314,0 453,0 453,-41"/>
<text text-anchor="start" x="322" y="-29" font-family="Helvetica,sans-Serif" font-size="10.00">src/protocols/root</text>
<text text-anchor="start" x="322" y="-18" font-family="Helvetica,sans-Serif" font-size="10.00">/query/checksum_ckscan</text>
<text text-anchor="middle" x="383.5" y="-7" font-family="Helvetica,sans-Serif" font-size="10.00">_dispatch.c</text>
</a>
</g>
</g>
<!-- Node1&#45;&gt;Node4 -->
<g id="edge3_Node000001_Node000004" class="edge">
<title>Node1&#45;&gt;Node4</title>
<g id="a_edge3_Node000001_Node000004"><a xlink:title=" ">
<path fill="none" stroke="#63b8ff" d="M897.29,-87.03C797.41,-80.98 615.73,-67.28 462.5,-41 459.44,-40.47 456.32,-39.9 453.17,-39.28"/>
<polygon fill="#63b8ff" stroke="#63b8ff" points="897.1,-90.52 907.29,-87.63 897.52,-83.54 897.1,-90.52"/>
</a>
</g>
</g>
<!-- Node5 -->
<g id="Node000005" class="node">
<title>Node5</title>
<g id="a_Node000005"><a xlink:href="checksum__qcksum_8c.html" target="_top" xlink:title=" ">
<polygon fill="white" stroke="#666666" points="623.5,-35.5 471.5,-35.5 471.5,-5.5 623.5,-5.5 623.5,-35.5"/>
<text text-anchor="start" x="479.5" y="-23.5" font-family="Helvetica,sans-Serif" font-size="10.00">src/protocols/root</text>
<text text-anchor="middle" x="547.5" y="-12.5" font-family="Helvetica,sans-Serif" font-size="10.00">/query/checksum_qcksum.c</text>
</a>
</g>
</g>
<!-- Node1&#45;&gt;Node5 -->
<g id="edge4_Node000001_Node000005" class="edge">
<title>Node1&#45;&gt;Node5</title>
<g id="a_edge4_Node000001_Node000005"><a xlink:title=" ">
<path fill="none" stroke="#63b8ff" d="M897.46,-81.71C828.37,-72.74 723.18,-58.04 632.5,-41 623.87,-39.38 614.79,-37.49 605.9,-35.54"/>
<polygon fill="#63b8ff" stroke="#63b8ff" points="897.01,-85.18 907.38,-82.99 897.91,-78.24 897.01,-85.18"/>
</a>
</g>
</g>
<!-- Node6 -->
<g id="Node000006" class="node">
<title>Node6</title>
<g id="a_Node000006"><a xlink:href="checksum__qcksum__async_8c.html" target="_top" xlink:title=" ">
<polygon fill="white" stroke="#666666" points="785,-41 642,-41 642,0 785,0 785,-41"/>
<text text-anchor="start" x="650" y="-29" font-family="Helvetica,sans-Serif" font-size="10.00">src/protocols/root</text>
<text text-anchor="start" x="650" y="-18" font-family="Helvetica,sans-Serif" font-size="10.00">/query/checksum_qcksum</text>
<text text-anchor="middle" x="713.5" y="-7" font-family="Helvetica,sans-Serif" font-size="10.00">_async.c</text>
</a>
</g>
</g>
<!-- Node1&#45;&gt;Node6 -->
<g id="edge5_Node000001_Node000006" class="edge">
<title>Node1&#45;&gt;Node6</title>
<g id="a_edge5_Node000001_Node000006"><a xlink:title=" ">
<path fill="none" stroke="#63b8ff" d="M910.28,-74.3C872.7,-64.22 824.67,-51.33 785.46,-40.81"/>
<polygon fill="#63b8ff" stroke="#63b8ff" points="909.52,-77.72 920.09,-76.94 911.34,-70.96 909.52,-77.72"/>
</a>
</g>
</g>
<!-- Node7 -->
<g id="Node000007" class="node">
<title>Node7</title>
<g id="a_Node000007"><a xlink:href="protocols_2root_2query_2config_8c.html" target="_top" xlink:title=" ">
<polygon fill="white" stroke="#666666" points="904,-35.5 803,-35.5 803,-5.5 904,-5.5 904,-35.5"/>
<text text-anchor="start" x="811" y="-23.5" font-family="Helvetica,sans-Serif" font-size="10.00">src/protocols/root</text>
<text text-anchor="middle" x="853.5" y="-12.5" font-family="Helvetica,sans-Serif" font-size="10.00">/query/config.c</text>
</a>
</g>
</g>
<!-- Node1&#45;&gt;Node7 -->
<g id="edge6_Node000001_Node000007" class="edge">
<title>Node1&#45;&gt;Node7</title>
<g id="a_edge6_Node000001_Node000007"><a xlink:title=" ">
<path fill="none" stroke="#63b8ff" d="M939.76,-71.88C920.07,-60.38 895.44,-45.99 877.55,-35.54"/>
<polygon fill="#63b8ff" stroke="#63b8ff" points="938.02,-74.91 948.42,-76.94 941.55,-68.87 938.02,-74.91"/>
</a>
</g>
</g>
<!-- Node8 -->
<g id="Node000008" class="node">
<title>Node8</title>
<g id="a_Node000008"><a xlink:href="root_2query_2dispatch_8c.html" target="_top" xlink:title=" ">
<polygon fill="white" stroke="#666666" points="1023,-35.5 922,-35.5 922,-5.5 1023,-5.5 1023,-35.5"/>
<text text-anchor="start" x="930" y="-23.5" font-family="Helvetica,sans-Serif" font-size="10.00">src/protocols/root</text>
<text text-anchor="middle" x="972.5" y="-12.5" font-family="Helvetica,sans-Serif" font-size="10.00">/query/dispatch.c</text>
</a>
</g>
</g>
<!-- Node1&#45;&gt;Node8 -->
<g id="edge7_Node000001_Node000008" class="edge">
<title>Node1&#45;&gt;Node8</title>
<g id="a_edge7_Node000001_Node000008"><a xlink:title=" ">
<path fill="none" stroke="#63b8ff" d="M972.5,-66.75C972.5,-56.31 972.5,-44.49 972.5,-35.54"/>
<polygon fill="#63b8ff" stroke="#63b8ff" points="969,-66.94 972.5,-76.94 976,-66.94 969,-66.94"/>
</a>
</g>
</g>
<!-- Node9 -->
<g id="Node000009" class="node">
<title>Node9</title>
<g id="a_Node000009"><a xlink:href="metadata_8c.html" target="_top" xlink:title=" ">
<polygon fill="white" stroke="#666666" points="1147.5,-35.5 1041.5,-35.5 1041.5,-5.5 1147.5,-5.5 1147.5,-35.5"/>
<text text-anchor="start" x="1049.5" y="-23.5" font-family="Helvetica,sans-Serif" font-size="10.00">src/protocols/root</text>
<text text-anchor="middle" x="1094.5" y="-12.5" font-family="Helvetica,sans-Serif" font-size="10.00">/query/metadata.c</text>
</a>
</g>
</g>
<!-- Node1&#45;&gt;Node9 -->
<g id="edge8_Node000001_Node000009" class="edge">
<title>Node1&#45;&gt;Node9</title>
<g id="a_edge8_Node000001_Node000009"><a xlink:title=" ">
<path fill="none" stroke="#63b8ff" d="M1006.06,-71.88C1026.25,-60.38 1051.5,-45.99 1069.85,-35.54"/>
<polygon fill="#63b8ff" stroke="#63b8ff" points="1004.15,-68.94 997.19,-76.94 1007.61,-75.03 1004.15,-68.94"/>
</a>
</g>
</g>
<!-- Node10 -->
<g id="Node000010" class="node">
<title>Node10</title>
<g id="a_Node000010"><a xlink:href="prepare_8c.html" target="_top" xlink:title=" ">
<polygon fill="white" stroke="#666666" points="1267,-35.5 1166,-35.5 1166,-5.5 1267,-5.5 1267,-35.5"/>
<text text-anchor="start" x="1174" y="-23.5" font-family="Helvetica,sans-Serif" font-size="10.00">src/protocols/root</text>
<text text-anchor="middle" x="1216.5" y="-12.5" font-family="Helvetica,sans-Serif" font-size="10.00">/query/prepare.c</text>
</a>
</g>
</g>
<!-- Node1&#45;&gt;Node10 -->
<g id="edge9_Node000001_Node000010" class="edge">
<title>Node1&#45;&gt;Node10</title>
<g id="a_edge9_Node000001_Node000010"><a xlink:title=" ">
<path fill="none" stroke="#63b8ff" d="M1036.78,-74.36C1072.21,-64.98 1116.92,-52.8 1156.5,-41 1162.27,-39.28 1168.33,-37.4 1174.3,-35.5"/>
<polygon fill="#63b8ff" stroke="#63b8ff" points="1035.82,-70.99 1027.04,-76.93 1037.61,-77.76 1035.82,-70.99"/>
</a>
</g>
</g>
<!-- Node11 -->
<g id="Node000011" class="node">
<title>Node11</title>
<g id="a_Node000011"><a xlink:href="prepare__cmd_8c.html" target="_top" xlink:title=" ">
<polygon fill="white" stroke="#666666" points="1407.5,-35.5 1285.5,-35.5 1285.5,-5.5 1407.5,-5.5 1407.5,-35.5"/>
<text text-anchor="start" x="1293.5" y="-23.5" font-family="Helvetica,sans-Serif" font-size="10.00">src/protocols/root</text>
<text text-anchor="middle" x="1346.5" y="-12.5" font-family="Helvetica,sans-Serif" font-size="10.00">/query/prepare_cmd.c</text>
</a>
</g>
</g>
<!-- Node1&#45;&gt;Node11 -->
<g id="edge10_Node000001_Node000011" class="edge">
<title>Node1&#45;&gt;Node11</title>
<g id="a_edge10_Node000001_Node000011"><a xlink:title=" ">
<path fill="none" stroke="#63b8ff" d="M1047.58,-80.97C1109.38,-72.16 1199.07,-58.1 1276.5,-41 1283.77,-39.39 1291.4,-37.49 1298.85,-35.52"/>
<polygon fill="#63b8ff" stroke="#63b8ff" points="1046.94,-77.53 1037.53,-82.39 1047.92,-84.46 1046.94,-77.53"/>
</a>
</g>
</g>
<!-- Node12 -->
<g id="Node000012" class="node">
<title>Node12</title>
<g id="a_Node000012"><a xlink:href="prepare__qprep_8c.html" target="_top" xlink:title=" ">
<polygon fill="white" stroke="#666666" points="1555,-35.5 1426,-35.5 1426,-5.5 1555,-5.5 1555,-35.5"/>
<text text-anchor="start" x="1434" y="-23.5" font-family="Helvetica,sans-Serif" font-size="10.00">src/protocols/root</text>
<text text-anchor="middle" x="1490.5" y="-12.5" font-family="Helvetica,sans-Serif" font-size="10.00">/query/prepare_qprep.c</text>
</a>
</g>
</g>
<!-- Node1&#45;&gt;Node12 -->
<g id="edge11_Node000001_Node000012" class="edge">
<title>Node1&#45;&gt;Node12</title>
<g id="a_edge11_Node000001_Node000012"><a xlink:title=" ">
<path fill="none" stroke="#63b8ff" d="M1047.89,-85.87C1136.62,-79.06 1288.15,-65.01 1416.5,-41 1424.6,-39.49 1433.11,-37.56 1441.37,-35.51"/>
<polygon fill="#63b8ff" stroke="#63b8ff" points="1047.35,-82.4 1037.65,-86.65 1047.88,-89.38 1047.35,-82.4"/>
</a>
</g>
</g>
<!-- Node13 -->
<g id="Node000013" class="node">
<title>Node13</title>
<g id="a_Node000013"><a xlink:href="protocols_2root_2query_2space_8c.html" target="_top" xlink:title=" ">
<polygon fill="white" stroke="#666666" points="1674,-35.5 1573,-35.5 1573,-5.5 1674,-5.5 1674,-35.5"/>
<text text-anchor="start" x="1581" y="-23.5" font-family="Helvetica,sans-Serif" font-size="10.00">src/protocols/root</text>
<text text-anchor="middle" x="1623.5" y="-12.5" font-family="Helvetica,sans-Serif" font-size="10.00">/query/space.c</text>
</a>
</g>
</g>
<!-- Node1&#45;&gt;Node13 -->
<g id="edge12_Node000001_Node000013" class="edge">
<title>Node1&#45;&gt;Node13</title>
<g id="a_edge12_Node000001_Node000013"><a xlink:title=" ">
<path fill="none" stroke="#63b8ff" d="M1047.89,-90.28C1161.16,-87.92 1381.5,-78.43 1564.5,-41 1571.37,-39.59 1578.55,-37.65 1585.45,-35.52"/>
<polygon fill="#63b8ff" stroke="#63b8ff" points="1047.52,-86.78 1037.59,-90.48 1047.66,-93.78 1047.52,-86.78"/>
</a>
</g>
</g>
<!-- Node14 -->
<g id="Node000014" class="node">
<title>Node14</title>
<g id="a_Node000014"><a xlink:href="root_2query_2util_8c.html" target="_top" xlink:title=" ">
<polygon fill="white" stroke="#666666" points="1793,-35.5 1692,-35.5 1692,-5.5 1793,-5.5 1793,-35.5"/>
<text text-anchor="start" x="1700" y="-23.5" font-family="Helvetica,sans-Serif" font-size="10.00">src/protocols/root</text>
<text text-anchor="middle" x="1742.5" y="-12.5" font-family="Helvetica,sans-Serif" font-size="10.00">/query/util.c</text>
</a>
</g>
</g>
<!-- Node1&#45;&gt;Node14 -->
<g id="edge13_Node000001_Node000014" class="edge">
<title>Node1&#45;&gt;Node14</title>
<g id="a_edge13_Node000001_Node000014"><a xlink:title=" ">
<path fill="none" stroke="#63b8ff" d="M1048.22,-91.82C1179.06,-91.87 1455.37,-85.99 1683.5,-41 1690.49,-39.62 1697.79,-37.66 1704.79,-35.5"/>
<polygon fill="#63b8ff" stroke="#63b8ff" points="1047.92,-88.32 1037.91,-91.8 1047.91,-95.32 1047.92,-88.32"/>
</a>
</g>
</g>
</g>
</svg>

<g id="navigator" transform="translate(0 0)" fill="#404254">
  <rect fill="#f2f5e9" fill-opacity="0.5" stroke="#606060" stroke-width=".5" x="0" y="0" width="60" height="60"/>
  <use id="zoomplus" xlink:href="#zoomPlus" x="17" y="9" onmousedown="handleZoom(evt,'in')"/>
  <use id="zoomminus" xlink:href="#zoomMin" x="42" y="9" onmousedown="handleZoom(evt,'out')"/>
  <use id="reset" xlink:href="#resetDef" x="30" y="36" onmousedown="handleReset()"/>
   <use id="arrowup" xlink:href="#arrowUp" x="0" y="0" onmousedown="handlePan(0,-1)"/>
  <use id="arrowright" xlink:href="#arrowRight" x="0" y="0" onmousedown="handlePan(1,0)"/>
  <use id="arrowdown" xlink:href="#arrowDown" x="0" y="0" onmousedown="handlePan(0,1)"/>
  <use id="arrowleft" xlink:href="#arrowLeft" x="0" y="0" onmousedown="handlePan(-1,0)"/>
</g>
<svg viewBox="0 0 15 15" width="100%" height="30px" preserveAspectRatio="xMaxYMin meet">
 <g id="arrow_out" transform="scale(0.3 0.3)">
  <a xlink:href="query__internal_8h__dep__incl_org.svg" target="_base">
   <rect id="button" ry="5" rx="5" y="6" x="6" height="38" width="38"
        fill="#f2f5e9" fill-opacity="0.5" stroke="#606060" stroke-width="1.0"/>
   <path id="arrow"
     d="M 11.500037,31.436501 C 11.940474,20.09759 22.043105,11.32322 32.158766,21.979434 L 37.068811,17.246167 C 37.068811,17.246167 37.088388,32 37.088388,32 L 22.160133,31.978069 C 22.160133,31.978069 26.997745,27.140456 26.997745,27.140456 C 18.528582,18.264221 13.291696,25.230495 11.500037,31.436501 z"
     style="fill:#404040;"/>
  </a>
 </g>
</svg>

<style type='text/css'>
<![CDATA[
[data-mouse-over-selected='false'] { opacity: 0.7; }
[data-mouse-over-selected='true']  { opacity: 1.0; }
]]>
</style>
<script type="application/ecmascript"><![CDATA[
document.addEventListener('DOMContentLoaded', (event) => {
  highlightEdges();
  highlightAdjacentNodes();
});
]]></script>
</svg>
