<?xml version="1.0" encoding="UTF-8" standalone="no"?>
<!DOCTYPE svg PUBLIC "-//W3C//DTD SVG 1.1//EN"
 "http://www.w3.org/Graphics/SVG/1.1/DTD/svg11.dtd">
<!-- Generated by graphviz version 2.43.0 (0)
 -->
<!-- Title: src/core/compat/range_vector.c Pages: 1 -->
<svg width="308pt" height="148pt"
 viewBox="0.00 0.00 308.00 148.00" xmlns="http://www.w3.org/2000/svg" xmlns:xlink="http://www.w3.org/1999/xlink">
<g id="graph0" class="graph" transform="scale(1 1) rotate(0) translate(4 144)">
<title>src/core/compat/range_vector.c</title>
<!-- Node1 -->
<g id="Node000001" class="node">
<title>Node1</title>
<g id="a_Node000001"><a xlink:title=" ">
<polygon fill="#999999" stroke="#666666" points="230,-140 105,-140 105,-110 230,-110 230,-140"/>
<text text-anchor="start" x="113" y="-128" font-family="Helvetica,sans-Serif" font-size="10.00">src/core/compat/range</text>
<text text-anchor="middle" x="167.5" y="-117" font-family="Helvetica,sans-Serif" font-size="10.00">_vector.c</text>
</a>
</g>
</g>
<!-- Node2 -->
<g id="Node000002" class="node">
<title>Node2</title>
<g id="a_Node000002"><a xlink:href="range__vector_8h.html" target="_top" xlink:title=" ">
<polygon fill="white" stroke="#666666" points="89,-74 0,-74 0,-55 89,-55 89,-74"/>
<text text-anchor="middle" x="44.5" y="-62" font-family="Helvetica,sans-Serif" font-size="10.00">range_vector.h</text>
</a>
</g>
</g>
<!-- Node1&#45;&gt;Node2 -->
<g id="edge1_Node000001_Node000002" class="edge">
<title>Node1&#45;&gt;Node2</title>
<g id="a_edge1_Node000001_Node000002"><a xlink:title=" ">
<path fill="none" stroke="#63b8ff" d="M138.04,-109.99C117.88,-100.4 91.36,-87.79 71.7,-78.44"/>
<polygon fill="#63b8ff" stroke="#63b8ff" points="73.2,-75.27 62.66,-74.14 70.19,-81.6 73.2,-75.27"/>
</a>
</g>
</g>
<!-- Node4 -->
<g id="Node000004" class="node">
<title>Node4</title>
<g id="a_Node000004"><a xlink:title=" ">
<polygon fill="#e0e0e0" stroke="#999999" points="158,-74 107,-74 107,-55 158,-55 158,-74"/>
<text text-anchor="middle" x="132.5" y="-62" font-family="Helvetica,sans-Serif" font-size="10.00">errno.h</text>
</a>
</g>
</g>
<!-- Node1&#45;&gt;Node4 -->
<g id="edge3_Node000001_Node000004" class="edge">
<title>Node1&#45;&gt;Node4</title>
<g id="a_edge3_Node000001_Node000004"><a xlink:title=" ">
<path fill="none" stroke="#63b8ff" d="M159.03,-109.84C154.21,-101.78 148.13,-91.62 143,-83.06"/>
<polygon fill="#63b8ff" stroke="#63b8ff" points="145.88,-81.05 137.74,-74.27 139.88,-84.64 145.88,-81.05"/>
</a>
</g>
</g>
<!-- Node5 -->
<g id="Node000005" class="node">
<title>Node5</title>
<g id="a_Node000005"><a xlink:title=" ">
<polygon fill="#e0e0e0" stroke="#999999" points="229,-74 176,-74 176,-55 229,-55 229,-74"/>
<text text-anchor="middle" x="202.5" y="-62" font-family="Helvetica,sans-Serif" font-size="10.00">stdlib.h</text>
</a>
</g>
</g>
<!-- Node1&#45;&gt;Node5 -->
<g id="edge4_Node000001_Node000005" class="edge">
<title>Node1&#45;&gt;Node5</title>
<g id="a_edge4_Node000001_Node000005"><a xlink:title=" ">
<path fill="none" stroke="#63b8ff" d="M175.97,-109.84C180.79,-101.78 186.87,-91.62 192,-83.06"/>
<polygon fill="#63b8ff" stroke="#63b8ff" points="195.12,-84.64 197.26,-74.27 189.12,-81.05 195.12,-84.64"/>
</a>
</g>
</g>
<!-- Node6 -->
<g id="Node000006" class="node">
<title>Node6</title>
<g id="a_Node000006"><a xlink:title=" ">
<polygon fill="#e0e0e0" stroke="#999999" points="300,-74 247,-74 247,-55 300,-55 300,-74"/>
<text text-anchor="middle" x="273.5" y="-62" font-family="Helvetica,sans-Serif" font-size="10.00">string.h</text>
</a>
</g>
</g>
<!-- Node1&#45;&gt;Node6 -->
<g id="edge5_Node000001_Node000006" class="edge">
<title>Node1&#45;&gt;Node6</title>
<g id="a_edge5_Node000001_Node000006"><a xlink:title=" ">
<path fill="none" stroke="#63b8ff" d="M192.89,-109.99C209.79,-100.66 231.88,-88.47 248.66,-79.21"/>
<polygon fill="#63b8ff" stroke="#63b8ff" points="250.78,-82.04 257.85,-74.14 247.4,-75.91 250.78,-82.04"/>
</a>
</g>
</g>
<!-- Node3 -->
<g id="Node000003" class="node">
<title>Node3</title>
<g id="a_Node000003"><a xlink:title=" ">
<polygon fill="#e0e0e0" stroke="#999999" points="78.5,-19 10.5,-19 10.5,0 78.5,0 78.5,-19"/>
<text text-anchor="middle" x="44.5" y="-7" font-family="Helvetica,sans-Serif" font-size="10.00">ngx_http.h</text>
</a>
</g>
</g>
<!-- Node2&#45;&gt;Node3 -->
<g id="edge2_Node000002_Node000003" class="edge">
<title>Node2&#45;&gt;Node3</title>
<g id="a_edge2_Node000002_Node000003"><a xlink:title=" ">
<path fill="none" stroke="#63b8ff" d="M44.5,-54.75C44.5,-47.8 44.5,-37.85 44.5,-29.13"/>
<polygon fill="#63b8ff" stroke="#63b8ff" points="48,-29.09 44.5,-19.09 41,-29.09 48,-29.09"/>
</a>
</g>
</g>
</g>
</svg>
