<?xml version="1.0" encoding="UTF-8" standalone="no"?>
<!DOCTYPE svg PUBLIC "-//W3C//DTD SVG 1.1//EN"
 "http://www.w3.org/Graphics/SVG/1.1/DTD/svg11.dtd">
<!-- Generated by graphviz version 2.43.0 (0)
 -->
<!-- Title: src/core/compat/range_vector.h Pages: 1 -->
<svg width="680pt" height="104pt"
 viewBox="0.00 0.00 680.00 104.00" xmlns="http://www.w3.org/2000/svg" xmlns:xlink="http://www.w3.org/1999/xlink">
<g id="graph0" class="graph" transform="scale(1 1) rotate(0) translate(4 100)">
<title>src/core/compat/range_vector.h</title>
<!-- Node1 -->
<g id="Node000001" class="node">
<title>Node1</title>
<g id="a_Node000001"><a xlink:title=" ">
<polygon fill="#999999" stroke="#666666" points="408.5,-96 283.5,-96 283.5,-66 408.5,-66 408.5,-96"/>
<text text-anchor="start" x="291.5" y="-84" font-family="Helvetica,sans-Serif" font-size="10.00">src/core/compat/range</text>
<text text-anchor="middle" x="346" y="-73" font-family="Helvetica,sans-Serif" font-size="10.00">_vector.h</text>
</a>
</g>
</g>
<!-- Node2 -->
<g id="Node000002" class="node">
<title>Node2</title>
<g id="a_Node000002"><a xlink:href="range_8c.html" target="_top" xlink:title=" ">
<polygon fill="white" stroke="#666666" points="134,-24.5 0,-24.5 0,-5.5 134,-5.5 134,-24.5"/>
<text text-anchor="middle" x="67" y="-12.5" font-family="Helvetica,sans-Serif" font-size="10.00">src/core/compat/range.c</text>
</a>
</g>
</g>
<!-- Node1&#45;&gt;Node2 -->
<g id="edge1_Node000001_Node000002" class="edge">
<title>Node1&#45;&gt;Node2</title>
<g id="a_edge1_Node000001_Node000002"><a xlink:title=" ">
<path fill="none" stroke="#63b8ff" d="M274.84,-63.68C220.41,-51.19 147.55,-34.48 104.13,-24.52"/>
<polygon fill="#63b8ff" stroke="#63b8ff" points="274.24,-67.13 284.77,-65.95 275.81,-60.31 274.24,-67.13"/>
</a>
</g>
</g>
<!-- Node3 -->
<g id="Node000003" class="node">
<title>Node3</title>
<g id="a_Node000003"><a xlink:href="range__vector_8c.html" target="_top" xlink:title=" ">
<polygon fill="white" stroke="#666666" points="277.5,-30 152.5,-30 152.5,0 277.5,0 277.5,-30"/>
<text text-anchor="start" x="160.5" y="-18" font-family="Helvetica,sans-Serif" font-size="10.00">src/core/compat/range</text>
<text text-anchor="middle" x="215" y="-7" font-family="Helvetica,sans-Serif" font-size="10.00">_vector.c</text>
</a>
</g>
</g>
<!-- Node1&#45;&gt;Node3 -->
<g id="edge2_Node000001_Node000003" class="edge">
<title>Node1&#45;&gt;Node3</title>
<g id="a_edge2_Node000001_Node000003"><a xlink:title=" ">
<path fill="none" stroke="#63b8ff" d="M308.16,-61.51C287.61,-51.47 262.61,-39.26 243.68,-30.01"/>
<polygon fill="#63b8ff" stroke="#63b8ff" points="306.73,-64.71 317.25,-65.95 309.8,-58.42 306.73,-64.71"/>
</a>
</g>
</g>
<!-- Node4 -->
<g id="Node000004" class="node">
<title>Node4</title>
<g id="a_Node000004"><a xlink:href="protocols_2root_2read_2readv_8c.html" target="_top" xlink:title=" ">
<polygon fill="white" stroke="#666666" points="396.5,-30 295.5,-30 295.5,0 396.5,0 396.5,-30"/>
<text text-anchor="start" x="303.5" y="-18" font-family="Helvetica,sans-Serif" font-size="10.00">src/protocols/root</text>
<text text-anchor="middle" x="346" y="-7" font-family="Helvetica,sans-Serif" font-size="10.00">/read/readv.c</text>
</a>
</g>
</g>
<!-- Node1&#45;&gt;Node4 -->
<g id="edge3_Node000001_Node000004" class="edge">
<title>Node1&#45;&gt;Node4</title>
<g id="a_edge3_Node000001_Node000004"><a xlink:title=" ">
<path fill="none" stroke="#63b8ff" d="M346,-55.54C346,-46.96 346,-37.61 346,-30.16"/>
<polygon fill="#63b8ff" stroke="#63b8ff" points="342.5,-55.8 346,-65.8 349.5,-55.8 342.5,-55.8"/>
</a>
</g>
</g>
<!-- Node5 -->
<g id="Node000005" class="node">
<title>Node5</title>
<g id="a_Node000005"><a xlink:href="readv__engine_8c.html" target="_top" xlink:title=" ">
<polygon fill="white" stroke="#666666" points="533.5,-30 414.5,-30 414.5,0 533.5,0 533.5,-30"/>
<text text-anchor="start" x="422.5" y="-18" font-family="Helvetica,sans-Serif" font-size="10.00">src/protocols/root</text>
<text text-anchor="middle" x="474" y="-7" font-family="Helvetica,sans-Serif" font-size="10.00">/read/readv_engine.c</text>
</a>
</g>
</g>
<!-- Node1&#45;&gt;Node5 -->
<g id="edge4_Node000001_Node000005" class="edge">
<title>Node1&#45;&gt;Node5</title>
<g id="a_edge4_Node000001_Node000005"><a xlink:title=" ">
<path fill="none" stroke="#63b8ff" d="M383.24,-61.38C403.27,-51.36 427.57,-39.22 445.98,-30.01"/>
<polygon fill="#63b8ff" stroke="#63b8ff" points="381.47,-58.35 374.09,-65.95 384.6,-64.61 381.47,-58.35"/>
</a>
</g>
</g>
<!-- Node6 -->
<g id="Node000006" class="node">
<title>Node6</title>
<g id="a_Node000006"><a xlink:href="xrdhttp__multipart_8c.html" target="_top" xlink:title=" ">
<polygon fill="white" stroke="#666666" points="672,-30 552,-30 552,0 672,0 672,-30"/>
<text text-anchor="start" x="560" y="-18" font-family="Helvetica,sans-Serif" font-size="10.00">src/protocols/webdav</text>
<text text-anchor="middle" x="612" y="-7" font-family="Helvetica,sans-Serif" font-size="10.00">/xrdhttp_multipart.c</text>
</a>
</g>
</g>
<!-- Node1&#45;&gt;Node6 -->
<g id="edge5_Node000001_Node000006" class="edge">
<title>Node1&#45;&gt;Node6</title>
<g id="a_edge5_Node000001_Node000006"><a xlink:title=" ">
<path fill="none" stroke="#63b8ff" d="M414.23,-63.58C457.42,-53.19 512.65,-39.9 553.76,-30.01"/>
<polygon fill="#63b8ff" stroke="#63b8ff" points="413.28,-60.21 404.37,-65.95 414.92,-67.02 413.28,-60.21"/>
</a>
</g>
</g>
</g>
</svg>
