<?xml version="1.0" encoding="UTF-8" standalone="no"?>
<!DOCTYPE svg PUBLIC "-//W3C//DTD SVG 1.1//EN"
 "http://www.w3.org/Graphics/SVG/1.1/DTD/svg11.dtd">
<!-- Generated by graphviz version 2.43.0 (0)
 -->
<!-- Title: src/net/ratelimit/ratelimit.h Pages: 1 -->
<svg width="3708pt" height="170pt"
 viewBox="0.00 0.00 3707.50 170.00" xmlns="http://www.w3.org/2000/svg" xmlns:xlink="http://www.w3.org/1999/xlink">
<g id="graph0" class="graph" transform="scale(1 1) rotate(0) translate(4 166)">
<title>src/net/ratelimit/ratelimit.h</title>
<!-- Node1 -->
<g id="Node000001" class="node">
<title>Node1</title>
<g id="a_Node000001"><a xlink:title=" ">
<polygon fill="#999999" stroke="#666666" points="1108,-162 959,-162 959,-143 1108,-143 1108,-162"/>
<text text-anchor="middle" x="1033.5" y="-150" font-family="Helvetica,sans-Serif" font-size="10.00">src/net/ratelimit/ratelimit.h</text>
</a>
</g>
</g>
<!-- Node2 -->
<g id="Node000002" class="node">
<title>Node2</title>
<g id="a_Node000002"><a xlink:href="server__conf_8c.html" target="_top" xlink:title=" ">
<polygon fill="white" stroke="#666666" points="121,-107 0,-107 0,-77 121,-77 121,-107"/>
<text text-anchor="start" x="8" y="-95" font-family="Helvetica,sans-Serif" font-size="10.00">src/core/config/server</text>
<text text-anchor="middle" x="60.5" y="-84" font-family="Helvetica,sans-Serif" font-size="10.00">_conf.c</text>
</a>
</g>
</g>
<!-- Node1&#45;&gt;Node2 -->
<g id="edge1_Node000001_Node000002" class="edge">
<title>Node1&#45;&gt;Node2</title>
<g id="a_edge1_Node000001_Node000002"><a xlink:title=" ">
<path fill="none" stroke="#63b8ff" d="M948.46,-151.58C787.8,-150.79 428.91,-144.53 129.5,-107 126.83,-106.67 124.11,-106.29 121.37,-105.87"/>
<polygon fill="#63b8ff" stroke="#63b8ff" points="948.74,-155.08 958.76,-151.63 948.77,-148.08 948.74,-155.08"/>
</a>
</g>
</g>
<!-- Node3 -->
<g id="Node000003" class="node">
<title>Node3</title>
<g id="a_Node000003"><a xlink:href="server__conf__merge__security_8c.html" target="_top" xlink:title=" ">
<polygon fill="white" stroke="#666666" points="270,-107 139,-107 139,-77 270,-77 270,-107"/>
<text text-anchor="start" x="147" y="-95" font-family="Helvetica,sans-Serif" font-size="10.00">src/core/config/server</text>
<text text-anchor="middle" x="204.5" y="-84" font-family="Helvetica,sans-Serif" font-size="10.00">_conf_merge_security.c</text>
</a>
</g>
</g>
<!-- Node1&#45;&gt;Node3 -->
<g id="edge2_Node000001_Node000003" class="edge">
<title>Node1&#45;&gt;Node3</title>
<g id="a_edge2_Node000001_Node000003"><a xlink:title=" ">
<path fill="none" stroke="#63b8ff" d="M948.62,-149.96C808.7,-146.65 521.08,-136.56 279.5,-107 276.48,-106.63 273.39,-106.21 270.28,-105.76"/>
<polygon fill="#63b8ff" stroke="#63b8ff" points="948.76,-153.47 958.84,-150.2 948.92,-146.47 948.76,-153.47"/>
</a>
</g>
</g>
<!-- Node4 -->
<g id="Node000004" class="node">
<title>Node4</title>
<g id="a_Node000004"><a xlink:href="net_2ratelimit_2ratelimit_8c.html" target="_top" xlink:title=" ">
<polygon fill="white" stroke="#666666" points="436.5,-101.5 288.5,-101.5 288.5,-82.5 436.5,-82.5 436.5,-101.5"/>
<text text-anchor="middle" x="362.5" y="-89.5" font-family="Helvetica,sans-Serif" font-size="10.00">src/net/ratelimit/ratelimit.c</text>
</a>
</g>
</g>
<!-- Node1&#45;&gt;Node4 -->
<g id="edge3_Node000001_Node000004" class="edge">
<title>Node1&#45;&gt;Node4</title>
<g id="a_edge3_Node000001_Node000004"><a xlink:title=" ">
<path fill="none" stroke="#63b8ff" d="M948.46,-147.51C833.9,-141.58 623.8,-128.74 445.5,-107 433.46,-105.53 420.5,-103.54 408.49,-101.53"/>
<polygon fill="#63b8ff" stroke="#63b8ff" points="948.4,-151.01 958.56,-148.03 948.76,-144.02 948.4,-151.01"/>
</a>
</g>
</g>
<!-- Node5 -->
<g id="Node000005" class="node">
<title>Node5</title>
<g id="a_Node000005"><a xlink:href="ratelimit__http_8c.html" target="_top" xlink:title=" ">
<polygon fill="white" stroke="#666666" points="594.5,-107 454.5,-107 454.5,-77 594.5,-77 594.5,-107"/>
<text text-anchor="start" x="462.5" y="-95" font-family="Helvetica,sans-Serif" font-size="10.00">src/net/ratelimit/ratelimit</text>
<text text-anchor="middle" x="524.5" y="-84" font-family="Helvetica,sans-Serif" font-size="10.00">_http.c</text>
</a>
</g>
</g>
<!-- Node1&#45;&gt;Node5 -->
<g id="edge4_Node000001_Node000005" class="edge">
<title>Node1&#45;&gt;Node5</title>
<g id="a_edge4_Node000001_Node000005"><a xlink:title=" ">
<path fill="none" stroke="#63b8ff" d="M948.91,-144.17C863.01,-136.37 726.24,-122.96 608.5,-107 603.96,-106.38 599.28,-105.71 594.58,-105.01"/>
<polygon fill="#63b8ff" stroke="#63b8ff" points="948.59,-147.66 958.87,-145.07 949.22,-140.68 948.59,-147.66"/>
</a>
</g>
</g>
<!-- Node6 -->
<g id="Node000006" class="node">
<title>Node6</title>
<g id="a_Node000006"><a xlink:href="ratelimit__keys_8c.html" target="_top" xlink:title=" ">
<polygon fill="white" stroke="#666666" points="563.5,-35.5 423.5,-35.5 423.5,-5.5 563.5,-5.5 563.5,-35.5"/>
<text text-anchor="start" x="431.5" y="-23.5" font-family="Helvetica,sans-Serif" font-size="10.00">src/net/ratelimit/ratelimit</text>
<text text-anchor="middle" x="493.5" y="-12.5" font-family="Helvetica,sans-Serif" font-size="10.00">_keys.c</text>
</a>
</g>
</g>
<!-- Node1&#45;&gt;Node6 -->
<g id="edge5_Node000001_Node000006" class="edge">
<title>Node1&#45;&gt;Node6</title>
<g id="a_edge5_Node000001_Node000006"><a xlink:title=" ">
<path fill="none" stroke="#63b8ff" d="M948.71,-147.31C850.5,-141.52 695.33,-129.17 641.5,-107 621.6,-98.81 621.64,-88.57 603.5,-77 578.43,-61.01 548.16,-46.02 525.72,-35.66"/>
<polygon fill="#63b8ff" stroke="#63b8ff" points="948.72,-150.82 958.91,-147.9 949.13,-143.83 948.72,-150.82"/>
</a>
</g>
</g>
<!-- Node7 -->
<g id="Node000007" class="node">
<title>Node7</title>
<g id="a_Node000007"><a xlink:href="ratelimit__keys__internal_8h.html" target="_top" xlink:title=" ">
<polygon fill="white" stroke="#666666" points="790.5,-107 650.5,-107 650.5,-77 790.5,-77 790.5,-107"/>
<text text-anchor="start" x="658.5" y="-95" font-family="Helvetica,sans-Serif" font-size="10.00">src/net/ratelimit/ratelimit</text>
<text text-anchor="middle" x="720.5" y="-84" font-family="Helvetica,sans-Serif" font-size="10.00">_keys_internal.h</text>
</a>
</g>
</g>
<!-- Node1&#45;&gt;Node7 -->
<g id="edge6_Node000001_Node000007" class="edge">
<title>Node1&#45;&gt;Node7</title>
<g id="a_edge6_Node000001_Node000007"><a xlink:title=" ">
<path fill="none" stroke="#63b8ff" d="M977.9,-141.11C925.63,-131.34 847.2,-116.68 790.66,-106.11"/>
<polygon fill="#63b8ff" stroke="#63b8ff" points="977.51,-144.6 987.99,-142.99 978.8,-137.72 977.51,-144.6"/>
</a>
</g>
</g>
<!-- Node8 -->
<g id="Node000008" class="node">
<title>Node8</title>
<g id="a_Node000008"><a xlink:href="ratelimit__keys__parse_8c.html" target="_top" xlink:title=" ">
<polygon fill="white" stroke="#666666" points="721.5,-35.5 581.5,-35.5 581.5,-5.5 721.5,-5.5 721.5,-35.5"/>
<text text-anchor="start" x="589.5" y="-23.5" font-family="Helvetica,sans-Serif" font-size="10.00">src/net/ratelimit/ratelimit</text>
<text text-anchor="middle" x="651.5" y="-12.5" font-family="Helvetica,sans-Serif" font-size="10.00">_keys_parse.c</text>
</a>
</g>
</g>
<!-- Node1&#45;&gt;Node8 -->
<g id="edge10_Node000001_Node000008" class="edge">
<title>Node1&#45;&gt;Node8</title>
<g id="a_edge10_Node000001_Node000008"><a xlink:title=" ">
<path fill="none" stroke="#63b8ff" d="M960,-141.12C923.6,-134.31 879.6,-123.52 842.5,-107 821.21,-97.52 820.13,-87.84 799.5,-77 766.83,-59.83 727.64,-45.38 697.79,-35.53"/>
<polygon fill="#63b8ff" stroke="#63b8ff" points="959.6,-144.6 970.06,-142.94 960.84,-137.71 959.6,-144.6"/>
</a>
</g>
</g>
<!-- Node9 -->
<g id="Node000009" class="node">
<title>Node9</title>
<g id="a_Node000009"><a xlink:href="ratelimit__keys__rules_8c.html" target="_top" xlink:title=" ">
<polygon fill="white" stroke="#666666" points="879.5,-35.5 739.5,-35.5 739.5,-5.5 879.5,-5.5 879.5,-35.5"/>
<text text-anchor="start" x="747.5" y="-23.5" font-family="Helvetica,sans-Serif" font-size="10.00">src/net/ratelimit/ratelimit</text>
<text text-anchor="middle" x="809.5" y="-12.5" font-family="Helvetica,sans-Serif" font-size="10.00">_keys_rules.c</text>
</a>
</g>
</g>
<!-- Node1&#45;&gt;Node9 -->
<g id="edge11_Node000001_Node000009" class="edge">
<title>Node1&#45;&gt;Node9</title>
<g id="a_edge11_Node000001_Node000009"><a xlink:title=" ">
<path fill="none" stroke="#63b8ff" d="M959.04,-140.73C931.13,-134.17 900.21,-123.69 875.5,-107 847.99,-88.42 826.97,-54.66 816.62,-35.59"/>
<polygon fill="#63b8ff" stroke="#63b8ff" points="958.65,-144.23 969.17,-142.97 960.16,-137.39 958.65,-144.23"/>
</a>
</g>
</g>
<!-- Node10 -->
<g id="Node000010" class="node">
<title>Node10</title>
<g id="a_Node000010"><a xlink:href="ratelimit__stream_8c.html" target="_top" xlink:title=" ">
<polygon fill="white" stroke="#666666" points="1024.5,-107 884.5,-107 884.5,-77 1024.5,-77 1024.5,-107"/>
<text text-anchor="start" x="892.5" y="-95" font-family="Helvetica,sans-Serif" font-size="10.00">src/net/ratelimit/ratelimit</text>
<text text-anchor="middle" x="954.5" y="-84" font-family="Helvetica,sans-Serif" font-size="10.00">_stream.c</text>
</a>
</g>
</g>
<!-- Node1&#45;&gt;Node10 -->
<g id="edge12_Node000001_Node000010" class="edge">
<title>Node1&#45;&gt;Node10</title>
<g id="a_edge12_Node000001_Node000010"><a xlink:title=" ">
<path fill="none" stroke="#63b8ff" d="M1013.6,-136.77C1001.33,-127.68 985.68,-116.09 973.56,-107.11"/>
<polygon fill="#63b8ff" stroke="#63b8ff" points="1011.72,-139.73 1021.84,-142.87 1015.89,-134.1 1011.72,-139.73"/>
</a>
</g>
</g>
<!-- Node11 -->
<g id="Node000011" class="node">
<title>Node11</title>
<g id="a_Node000011"><a xlink:href="ratelimit__zone_8c.html" target="_top" xlink:title=" ">
<polygon fill="white" stroke="#666666" points="1182.5,-107 1042.5,-107 1042.5,-77 1182.5,-77 1182.5,-107"/>
<text text-anchor="start" x="1050.5" y="-95" font-family="Helvetica,sans-Serif" font-size="10.00">src/net/ratelimit/ratelimit</text>
<text text-anchor="middle" x="1112.5" y="-84" font-family="Helvetica,sans-Serif" font-size="10.00">_zone.c</text>
</a>
</g>
</g>
<!-- Node1&#45;&gt;Node11 -->
<g id="edge13_Node000001_Node000011" class="edge">
<title>Node1&#45;&gt;Node11</title>
<g id="a_edge13_Node000001_Node000011"><a xlink:title=" ">
<path fill="none" stroke="#63b8ff" d="M1053.4,-136.77C1065.67,-127.68 1081.32,-116.09 1093.44,-107.11"/>
<polygon fill="#63b8ff" stroke="#63b8ff" points="1051.11,-134.1 1045.16,-142.87 1055.28,-139.73 1051.11,-134.1"/>
</a>
</g>
</g>
<!-- Node12 -->
<g id="Node000012" class="node">
<title>Node12</title>
<g id="a_Node000012"><a xlink:href="throttle__compat_8h.html" target="_top" xlink:title=" ">
<polygon fill="white" stroke="#666666" points="1525.5,-107 1391.5,-107 1391.5,-77 1525.5,-77 1525.5,-107"/>
<text text-anchor="start" x="1399.5" y="-95" font-family="Helvetica,sans-Serif" font-size="10.00">src/net/ratelimit/throttle</text>
<text text-anchor="middle" x="1458.5" y="-84" font-family="Helvetica,sans-Serif" font-size="10.00">_compat.h</text>
</a>
</g>
</g>
<!-- Node1&#45;&gt;Node12 -->
<g id="edge14_Node000001_Node000012" class="edge">
<title>Node1&#45;&gt;Node12</title>
<g id="a_edge14_Node000001_Node000012"><a xlink:title=" ">
<path fill="none" stroke="#63b8ff" d="M1105.28,-141.62C1185.2,-130.62 1313.37,-112.98 1391.36,-102.24"/>
<polygon fill="#63b8ff" stroke="#63b8ff" points="1104.73,-138.16 1095.3,-142.99 1105.68,-145.1 1104.73,-138.16"/>
</a>
</g>
</g>
<!-- Node14 -->
<g id="Node000014" class="node">
<title>Node14</title>
<g id="a_Node000014"><a xlink:href="disconnect_8c.html" target="_top" xlink:title=" ">
<polygon fill="white" stroke="#666666" points="1035,-35.5 898,-35.5 898,-5.5 1035,-5.5 1035,-35.5"/>
<text text-anchor="start" x="906" y="-23.5" font-family="Helvetica,sans-Serif" font-size="10.00">src/protocols/root</text>
<text text-anchor="middle" x="966.5" y="-12.5" font-family="Helvetica,sans-Serif" font-size="10.00">/connection/disconnect.c</text>
</a>
</g>
</g>
<!-- Node1&#45;&gt;Node14 -->
<g id="edge31_Node000001_Node000014" class="edge">
<title>Node1&#45;&gt;Node14</title>
<g id="a_edge31_Node000001_Node000014"><a xlink:title=" ">
<path fill="none" stroke="#63b8ff" d="M1112.26,-141.12C1164.42,-130.88 1218.63,-111.57 1191.5,-77 1149.98,-24.08 1109.79,-57.16 1044.5,-41 1037.45,-39.26 1030.05,-37.42 1022.73,-35.59"/>
<polygon fill="#63b8ff" stroke="#63b8ff" points="1111.41,-137.72 1102.22,-142.99 1112.7,-144.6 1111.41,-137.72"/>
</a>
</g>
</g>
<!-- Node15 -->
<g id="Node000015" class="node">
<title>Node15</title>
<g id="a_Node000015"><a xlink:href="disconnect__report_8c.html" target="_top" xlink:title=" ">
<polygon fill="white" stroke="#666666" points="1181.5,-41 1053.5,-41 1053.5,0 1181.5,0 1181.5,-41"/>
<text text-anchor="start" x="1061.5" y="-29" font-family="Helvetica,sans-Serif" font-size="10.00">src/protocols/root</text>
<text text-anchor="start" x="1061.5" y="-18" font-family="Helvetica,sans-Serif" font-size="10.00">/connection/disconnect</text>
<text text-anchor="middle" x="1117.5" y="-7" font-family="Helvetica,sans-Serif" font-size="10.00">_report.c</text>
</a>
</g>
</g>
<!-- Node1&#45;&gt;Node15 -->
<g id="edge32_Node000001_Node000015" class="edge">
<title>Node1&#45;&gt;Node15</title>
<g id="a_edge32_Node000001_Node000015"><a xlink:title=" ">
<path fill="none" stroke="#63b8ff" d="M1111.81,-141.26C1152.82,-134.11 1197.07,-122.97 1209.5,-107 1229.19,-81.71 1195.93,-57.27 1164.04,-41.05"/>
<polygon fill="#63b8ff" stroke="#63b8ff" points="1111.04,-137.84 1101.75,-142.94 1112.19,-144.74 1111.04,-137.84"/>
</a>
</g>
</g>
<!-- Node22 -->
<g id="Node000022" class="node">
<title>Node22</title>
<g id="a_Node000022"><a xlink:href="dashboard__api__internal_8h.html" target="_top" xlink:title=" ">
<polygon fill="white" stroke="#666666" points="2378.5,-107 2226.5,-107 2226.5,-77 2378.5,-77 2378.5,-107"/>
<text text-anchor="start" x="2234.5" y="-95" font-family="Helvetica,sans-Serif" font-size="10.00">src/observability/dashboard</text>
<text text-anchor="middle" x="2302.5" y="-84" font-family="Helvetica,sans-Serif" font-size="10.00">/dashboard_api_internal.h</text>
</a>
</g>
</g>
<!-- Node1&#45;&gt;Node22 -->
<g id="edge24_Node000001_Node000022" class="edge">
<title>Node1&#45;&gt;Node22</title>
<g id="a_edge24_Node000001_Node000022"><a xlink:title=" ">
<path fill="none" stroke="#63b8ff" d="M1118.29,-147.59C1352.07,-136.81 2003.23,-106.8 2226.35,-96.51"/>
<polygon fill="#63b8ff" stroke="#63b8ff" points="1117.97,-144.1 1108.14,-148.06 1118.29,-151.09 1117.97,-144.1"/>
</a>
</g>
</g>
<!-- Node29 -->
<g id="Node000029" class="node">
<title>Node29</title>
<g id="a_Node000029"><a xlink:href="root_2handshake_2dispatch_8c.html" target="_top" xlink:title=" ">
<polygon fill="white" stroke="#666666" points="2522,-107 2397,-107 2397,-77 2522,-77 2522,-107"/>
<text text-anchor="start" x="2405" y="-95" font-family="Helvetica,sans-Serif" font-size="10.00">src/protocols/root</text>
<text text-anchor="middle" x="2459.5" y="-84" font-family="Helvetica,sans-Serif" font-size="10.00">/handshake/dispatch.c</text>
</a>
</g>
</g>
<!-- Node1&#45;&gt;Node29 -->
<g id="edge33_Node000001_Node000029" class="edge">
<title>Node1&#45;&gt;Node29</title>
<g id="a_edge33_Node000001_Node000029"><a xlink:title=" ">
<path fill="none" stroke="#63b8ff" d="M1118.47,-150.48C1375.12,-147.11 2139.98,-134.95 2387.5,-107 2390.54,-106.66 2393.64,-106.26 2396.76,-105.81"/>
<polygon fill="#63b8ff" stroke="#63b8ff" points="1118.04,-146.98 1108.09,-150.61 1118.13,-153.98 1118.04,-146.98"/>
</a>
</g>
</g>
<!-- Node30 -->
<g id="Node000030" class="node">
<title>Node30</title>
<g id="a_Node000030"><a xlink:href="protocols_2root_2stream_2module_8c.html" target="_top" xlink:title=" ">
<polygon fill="white" stroke="#666666" points="2642.5,-107 2540.5,-107 2540.5,-77 2642.5,-77 2642.5,-107"/>
<text text-anchor="start" x="2548.5" y="-95" font-family="Helvetica,sans-Serif" font-size="10.00">src/protocols/root</text>
<text text-anchor="middle" x="2591.5" y="-84" font-family="Helvetica,sans-Serif" font-size="10.00">/stream/module.c</text>
</a>
</g>
</g>
<!-- Node1&#45;&gt;Node30 -->
<g id="edge34_Node000001_Node000030" class="edge">
<title>Node1&#45;&gt;Node30</title>
<g id="a_edge34_Node000001_Node000030"><a xlink:title=" ">
<path fill="none" stroke="#63b8ff" d="M1118.41,-151.16C1392.88,-149.73 2254.4,-142.44 2530.5,-107 2533.73,-106.59 2537.05,-106.08 2540.38,-105.5"/>
<polygon fill="#63b8ff" stroke="#63b8ff" points="1118.1,-147.66 1108.11,-151.21 1118.13,-154.66 1118.1,-147.66"/>
</a>
</g>
</g>
<!-- Node31 -->
<g id="Node000031" class="node">
<title>Node31</title>
<g id="a_Node000031"><a xlink:href="postconfig_8c.html" target="_top" xlink:title=" ">
<polygon fill="white" stroke="#666666" points="2780.5,-107 2660.5,-107 2660.5,-77 2780.5,-77 2780.5,-107"/>
<text text-anchor="start" x="2668.5" y="-95" font-family="Helvetica,sans-Serif" font-size="10.00">src/protocols/webdav</text>
<text text-anchor="middle" x="2720.5" y="-84" font-family="Helvetica,sans-Serif" font-size="10.00">/postconfig.c</text>
</a>
</g>
</g>
<!-- Node1&#45;&gt;Node31 -->
<g id="edge35_Node000001_Node000031" class="edge">
<title>Node1&#45;&gt;Node31</title>
<g id="a_edge35_Node000001_Node000031"><a xlink:title=" ">
<path fill="none" stroke="#63b8ff" d="M1118.74,-151.1C1407.94,-149.43 2350.38,-141.43 2651.5,-107 2654.41,-106.67 2657.39,-106.27 2660.39,-105.83"/>
<polygon fill="#63b8ff" stroke="#63b8ff" points="1118.3,-147.6 1108.32,-151.16 1118.34,-154.6 1118.3,-147.6"/>
</a>
</g>
</g>
<!-- Node32 -->
<g id="Node000032" class="node">
<title>Node32</title>
<g id="a_Node000032"><a xlink:href="webdav__module__internal_8h.html" target="_top" xlink:title=" ">
<polygon fill="white" stroke="#666666" points="3435.5,-107 3283.5,-107 3283.5,-77 3435.5,-77 3435.5,-107"/>
<text text-anchor="start" x="3291.5" y="-95" font-family="Helvetica,sans-Serif" font-size="10.00">src/protocols/webdav</text>
<text text-anchor="middle" x="3359.5" y="-84" font-family="Helvetica,sans-Serif" font-size="10.00">/webdav_module_internal.h</text>
</a>
</g>
</g>
<!-- Node1&#45;&gt;Node32 -->
<g id="edge36_Node000001_Node000032" class="edge">
<title>Node1&#45;&gt;Node32</title>
<g id="a_edge36_Node000001_Node000032"><a xlink:title=" ">
<path fill="none" stroke="#63b8ff" d="M1118.28,-149.37C1485.2,-140.14 2933.67,-103.71 3283.27,-94.92"/>
<polygon fill="#63b8ff" stroke="#63b8ff" points="1118.16,-145.87 1108.26,-149.62 1118.34,-152.87 1118.16,-145.87"/>
</a>
</g>
</g>
<!-- Node7&#45;&gt;Node6 -->
<g id="edge7_Node000007_Node000006" class="edge">
<title>Node7&#45;&gt;Node6</title>
<g id="a_edge7_Node000007_Node000006"><a xlink:title=" ">
<path fill="none" stroke="#63b8ff" d="M664.55,-73.87C626.03,-62.08 575.5,-46.61 539.37,-35.54"/>
<polygon fill="#63b8ff" stroke="#63b8ff" points="663.98,-77.35 674.56,-76.94 666.03,-70.66 663.98,-77.35"/>
</a>
</g>
</g>
<!-- Node7&#45;&gt;Node8 -->
<g id="edge8_Node000007_Node000008" class="edge">
<title>Node7&#45;&gt;Node8</title>
<g id="a_edge8_Node000007_Node000008"><a xlink:title=" ">
<path fill="none" stroke="#63b8ff" d="M699.32,-69.67C688.31,-58.58 675.16,-45.34 665.44,-35.54"/>
<polygon fill="#63b8ff" stroke="#63b8ff" points="697.01,-72.3 706.54,-76.94 701.98,-67.37 697.01,-72.3"/>
</a>
</g>
</g>
<!-- Node7&#45;&gt;Node9 -->
<g id="edge9_Node000007_Node000009" class="edge">
<title>Node7&#45;&gt;Node9</title>
<g id="a_edge9_Node000007_Node000009"><a xlink:title=" ">
<path fill="none" stroke="#63b8ff" d="M746.59,-70.63C761.03,-59.35 778.61,-45.62 791.52,-35.54"/>
<polygon fill="#63b8ff" stroke="#63b8ff" points="744.24,-68.02 738.51,-76.94 748.55,-73.54 744.24,-68.02"/>
</a>
</g>
</g>
<!-- Node13 -->
<g id="Node000013" class="node">
<title>Node13</title>
<g id="a_Node000013"><a xlink:href="throttle__compat_8c.html" target="_top" xlink:title=" ">
<polygon fill="white" stroke="#666666" points="1869.5,-35.5 1735.5,-35.5 1735.5,-5.5 1869.5,-5.5 1869.5,-35.5"/>
<text text-anchor="start" x="1743.5" y="-23.5" font-family="Helvetica,sans-Serif" font-size="10.00">src/net/ratelimit/throttle</text>
<text text-anchor="middle" x="1802.5" y="-12.5" font-family="Helvetica,sans-Serif" font-size="10.00">_compat.c</text>
</a>
</g>
</g>
<!-- Node12&#45;&gt;Node13 -->
<g id="edge15_Node000012_Node000013" class="edge">
<title>Node12&#45;&gt;Node13</title>
<g id="a_edge15_Node000012_Node000013"><a xlink:title=" ">
<path fill="none" stroke="#63b8ff" d="M1535.79,-77.99C1589.48,-68.61 1662.57,-55.15 1726.5,-41 1733.95,-39.35 1741.77,-37.49 1749.46,-35.59"/>
<polygon fill="#63b8ff" stroke="#63b8ff" points="1534.91,-74.59 1525.66,-79.75 1536.11,-81.48 1534.91,-74.59"/>
</a>
</g>
</g>
<!-- Node12&#45;&gt;Node14 -->
<g id="edge16_Node000012_Node000014" class="edge">
<title>Node12&#45;&gt;Node14</title>
<g id="a_edge16_Node000012_Node000014"><a xlink:title=" ">
<path fill="none" stroke="#63b8ff" d="M1381.26,-84.58C1297.78,-76.96 1161.03,-62.52 1044.5,-41 1036.13,-39.45 1027.32,-37.54 1018.75,-35.52"/>
<polygon fill="#63b8ff" stroke="#63b8ff" points="1381.15,-88.08 1391.43,-85.49 1381.78,-81.11 1381.15,-88.08"/>
</a>
</g>
</g>
<!-- Node12&#45;&gt;Node15 -->
<g id="edge17_Node000012_Node000015" class="edge">
<title>Node12&#45;&gt;Node15</title>
<g id="a_edge17_Node000012_Node000015"><a xlink:title=" ">
<path fill="none" stroke="#63b8ff" d="M1381.16,-78.19C1327.46,-68.9 1254.36,-55.46 1190.5,-41 1187.56,-40.33 1184.55,-39.63 1181.53,-38.9"/>
<polygon fill="#63b8ff" stroke="#63b8ff" points="1380.85,-81.69 1391.3,-79.93 1382.04,-74.79 1380.85,-81.69"/>
</a>
</g>
</g>
<!-- Node16 -->
<g id="Node000016" class="node">
<title>Node16</title>
<g id="a_Node000016"><a xlink:href="close_8c.html" target="_top" xlink:title=" ">
<polygon fill="white" stroke="#666666" points="1989,-35.5 1888,-35.5 1888,-5.5 1989,-5.5 1989,-35.5"/>
<text text-anchor="start" x="1896" y="-23.5" font-family="Helvetica,sans-Serif" font-size="10.00">src/protocols/root</text>
<text text-anchor="middle" x="1938.5" y="-12.5" font-family="Helvetica,sans-Serif" font-size="10.00">/read/close.c</text>
</a>
</g>
</g>
<!-- Node12&#45;&gt;Node16 -->
<g id="edge18_Node000012_Node000016" class="edge">
<title>Node12&#45;&gt;Node16</title>
<g id="a_edge18_Node000012_Node000016"><a xlink:title=" ">
<path fill="none" stroke="#63b8ff" d="M1535.8,-86.35C1620.64,-80.19 1760.48,-66.94 1878.5,-41 1885.24,-39.52 1892.3,-37.59 1899.1,-35.51"/>
<polygon fill="#63b8ff" stroke="#63b8ff" points="1535.46,-82.86 1525.73,-87.06 1535.96,-89.85 1535.46,-82.86"/>
</a>
</g>
</g>
<!-- Node17 -->
<g id="Node000017" class="node">
<title>Node17</title>
<g id="a_Node000017"><a xlink:href="open__resolved__file_8c.html" target="_top" xlink:title=" ">
<polygon fill="white" stroke="#666666" points="2123.5,-41 2007.5,-41 2007.5,0 2123.5,0 2123.5,-41"/>
<text text-anchor="start" x="2015.5" y="-29" font-family="Helvetica,sans-Serif" font-size="10.00">src/protocols/root</text>
<text text-anchor="start" x="2015.5" y="-18" font-family="Helvetica,sans-Serif" font-size="10.00">/read/open_resolved</text>
<text text-anchor="middle" x="2065.5" y="-7" font-family="Helvetica,sans-Serif" font-size="10.00">_file.c</text>
</a>
</g>
</g>
<!-- Node12&#45;&gt;Node17 -->
<g id="edge19_Node000012_Node000017" class="edge">
<title>Node12&#45;&gt;Node17</title>
<g id="a_edge19_Node000012_Node000017"><a xlink:title=" ">
<path fill="none" stroke="#63b8ff" d="M1536.08,-88.35C1641.38,-83.72 1835.05,-71.55 1997.5,-41 2000.76,-40.39 2004.09,-39.69 2007.43,-38.92"/>
<polygon fill="#63b8ff" stroke="#63b8ff" points="1535.7,-84.86 1525.86,-88.79 1536,-91.86 1535.7,-84.86"/>
</a>
</g>
</g>
<!-- Node18 -->
<g id="Node000018" class="node">
<title>Node18</title>
<g id="a_Node000018"><a xlink:href="open__resolved__file__dispatch_8c.html" target="_top" xlink:title=" ">
<polygon fill="white" stroke="#666666" points="1315.5,-41 1199.5,-41 1199.5,0 1315.5,0 1315.5,-41"/>
<text text-anchor="start" x="1207.5" y="-29" font-family="Helvetica,sans-Serif" font-size="10.00">src/protocols/root</text>
<text text-anchor="start" x="1207.5" y="-18" font-family="Helvetica,sans-Serif" font-size="10.00">/read/open_resolved</text>
<text text-anchor="middle" x="1257.5" y="-7" font-family="Helvetica,sans-Serif" font-size="10.00">_file_dispatch.c</text>
</a>
</g>
</g>
<!-- Node12&#45;&gt;Node18 -->
<g id="edge20_Node000012_Node000018" class="edge">
<title>Node12&#45;&gt;Node18</title>
<g id="a_edge20_Node000012_Node000018"><a xlink:title=" ">
<path fill="none" stroke="#63b8ff" d="M1408.04,-73.55C1379.46,-63.67 1343.64,-51.28 1314.11,-41.07"/>
<polygon fill="#63b8ff" stroke="#63b8ff" points="1407.23,-76.98 1417.82,-76.94 1409.52,-70.36 1407.23,-76.98"/>
</a>
</g>
</g>
<!-- Node19 -->
<g id="Node000019" class="node">
<title>Node19</title>
<g id="a_Node000019"><a xlink:href="open__resolved__file__finalize_8c.html" target="_top" xlink:title=" ">
<polygon fill="white" stroke="#666666" points="1449.5,-41 1333.5,-41 1333.5,0 1449.5,0 1449.5,-41"/>
<text text-anchor="start" x="1341.5" y="-29" font-family="Helvetica,sans-Serif" font-size="10.00">src/protocols/root</text>
<text text-anchor="start" x="1341.5" y="-18" font-family="Helvetica,sans-Serif" font-size="10.00">/read/open_resolved</text>
<text text-anchor="middle" x="1391.5" y="-7" font-family="Helvetica,sans-Serif" font-size="10.00">_file_finalize.c</text>
</a>
</g>
</g>
<!-- Node12&#45;&gt;Node19 -->
<g id="edge21_Node000012_Node000019" class="edge">
<title>Node12&#45;&gt;Node19</title>
<g id="a_edge21_Node000012_Node000019"><a xlink:title=" ">
<path fill="none" stroke="#63b8ff" d="M1437.95,-69.69C1429.16,-60.57 1418.97,-49.99 1410.37,-41.07"/>
<polygon fill="#63b8ff" stroke="#63b8ff" points="1435.48,-72.17 1444.94,-76.94 1440.52,-67.31 1435.48,-72.17"/>
</a>
</g>
</g>
<!-- Node20 -->
<g id="Node000020" class="node">
<title>Node20</title>
<g id="a_Node000020"><a xlink:href="open__resolved__file__open_8c.html" target="_top" xlink:title=" ">
<polygon fill="white" stroke="#666666" points="1583.5,-41 1467.5,-41 1467.5,0 1583.5,0 1583.5,-41"/>
<text text-anchor="start" x="1475.5" y="-29" font-family="Helvetica,sans-Serif" font-size="10.00">src/protocols/root</text>
<text text-anchor="start" x="1475.5" y="-18" font-family="Helvetica,sans-Serif" font-size="10.00">/read/open_resolved</text>
<text text-anchor="middle" x="1525.5" y="-7" font-family="Helvetica,sans-Serif" font-size="10.00">_file_open.c</text>
</a>
</g>
</g>
<!-- Node12&#45;&gt;Node20 -->
<g id="edge22_Node000012_Node000020" class="edge">
<title>Node12&#45;&gt;Node20</title>
<g id="a_edge22_Node000012_Node000020"><a xlink:title=" ">
<path fill="none" stroke="#63b8ff" d="M1479.05,-69.69C1487.84,-60.57 1498.03,-49.99 1506.63,-41.07"/>
<polygon fill="#63b8ff" stroke="#63b8ff" points="1476.48,-67.31 1472.06,-76.94 1481.52,-72.17 1476.48,-67.31"/>
</a>
</g>
</g>
<!-- Node21 -->
<g id="Node000021" class="node">
<title>Node21</title>
<g id="a_Node000021"><a xlink:href="open__resolved__file__staging_8c.html" target="_top" xlink:title=" ">
<polygon fill="white" stroke="#666666" points="1717.5,-41 1601.5,-41 1601.5,0 1717.5,0 1717.5,-41"/>
<text text-anchor="start" x="1609.5" y="-29" font-family="Helvetica,sans-Serif" font-size="10.00">src/protocols/root</text>
<text text-anchor="start" x="1609.5" y="-18" font-family="Helvetica,sans-Serif" font-size="10.00">/read/open_resolved</text>
<text text-anchor="middle" x="1659.5" y="-7" font-family="Helvetica,sans-Serif" font-size="10.00">_file_staging.c</text>
</a>
</g>
</g>
<!-- Node12&#45;&gt;Node21 -->
<g id="edge23_Node000012_Node000021" class="edge">
<title>Node12&#45;&gt;Node21</title>
<g id="a_edge23_Node000012_Node000021"><a xlink:title=" ">
<path fill="none" stroke="#63b8ff" d="M1508.96,-73.55C1537.54,-63.67 1573.36,-51.28 1602.89,-41.07"/>
<polygon fill="#63b8ff" stroke="#63b8ff" points="1507.48,-70.36 1499.18,-76.94 1509.77,-76.98 1507.48,-70.36"/>
</a>
</g>
</g>
<!-- Node23 -->
<g id="Node000023" class="node">
<title>Node23</title>
<g id="a_Node000023"><a xlink:href="api_8c.html" target="_top" xlink:title=" ">
<polygon fill="white" stroke="#666666" points="2293.5,-35.5 2141.5,-35.5 2141.5,-5.5 2293.5,-5.5 2293.5,-35.5"/>
<text text-anchor="start" x="2149.5" y="-23.5" font-family="Helvetica,sans-Serif" font-size="10.00">src/observability/dashboard</text>
<text text-anchor="middle" x="2217.5" y="-12.5" font-family="Helvetica,sans-Serif" font-size="10.00">/api.c</text>
</a>
</g>
</g>
<!-- Node22&#45;&gt;Node23 -->
<g id="edge25_Node000022_Node000023" class="edge">
<title>Node22&#45;&gt;Node23</title>
<g id="a_edge25_Node000022_Node000023"><a xlink:title=" ">
<path fill="none" stroke="#63b8ff" d="M2277.19,-70.31C2263.48,-59.09 2246.88,-45.52 2234.68,-35.54"/>
<polygon fill="#63b8ff" stroke="#63b8ff" points="2275.34,-73.32 2285.3,-76.94 2279.77,-67.9 2275.34,-73.32"/>
</a>
</g>
</g>
<!-- Node24 -->
<g id="Node000024" class="node">
<title>Node24</title>
<g id="a_Node000024"><a xlink:href="api__cvmfs_8c.html" target="_top" xlink:title=" ">
<polygon fill="white" stroke="#666666" points="2463.5,-35.5 2311.5,-35.5 2311.5,-5.5 2463.5,-5.5 2463.5,-35.5"/>
<text text-anchor="start" x="2319.5" y="-23.5" font-family="Helvetica,sans-Serif" font-size="10.00">src/observability/dashboard</text>
<text text-anchor="middle" x="2387.5" y="-12.5" font-family="Helvetica,sans-Serif" font-size="10.00">/api_cvmfs.c</text>
</a>
</g>
</g>
<!-- Node22&#45;&gt;Node24 -->
<g id="edge26_Node000022_Node000024" class="edge">
<title>Node22&#45;&gt;Node24</title>
<g id="a_edge26_Node000022_Node000024"><a xlink:title=" ">
<path fill="none" stroke="#63b8ff" d="M2327.81,-70.31C2341.52,-59.09 2358.12,-45.52 2370.32,-35.54"/>
<polygon fill="#63b8ff" stroke="#63b8ff" points="2325.23,-67.9 2319.7,-76.94 2329.66,-73.32 2325.23,-67.9"/>
</a>
</g>
</g>
<!-- Node25 -->
<g id="Node000025" class="node">
<title>Node25</title>
<g id="a_Node000025"><a xlink:href="api__ratelimit_8c.html" target="_top" xlink:title=" ">
<polygon fill="white" stroke="#666666" points="2633.5,-35.5 2481.5,-35.5 2481.5,-5.5 2633.5,-5.5 2633.5,-35.5"/>
<text text-anchor="start" x="2489.5" y="-23.5" font-family="Helvetica,sans-Serif" font-size="10.00">src/observability/dashboard</text>
<text text-anchor="middle" x="2557.5" y="-12.5" font-family="Helvetica,sans-Serif" font-size="10.00">/api_ratelimit.c</text>
</a>
</g>
</g>
<!-- Node22&#45;&gt;Node25 -->
<g id="edge27_Node000022_Node000025" class="edge">
<title>Node22&#45;&gt;Node25</title>
<g id="a_edge27_Node000022_Node000025"><a xlink:title=" ">
<path fill="none" stroke="#63b8ff" d="M2363.98,-74.24C2407.41,-62.41 2464.95,-46.72 2505.97,-35.54"/>
<polygon fill="#63b8ff" stroke="#63b8ff" points="2362.83,-70.93 2354.1,-76.94 2364.67,-77.68 2362.83,-70.93"/>
</a>
</g>
</g>
<!-- Node26 -->
<g id="Node000026" class="node">
<title>Node26</title>
<g id="a_Node000026"><a xlink:href="api__snapshot_8c.html" target="_top" xlink:title=" ">
<polygon fill="white" stroke="#666666" points="2803.5,-35.5 2651.5,-35.5 2651.5,-5.5 2803.5,-5.5 2803.5,-35.5"/>
<text text-anchor="start" x="2659.5" y="-23.5" font-family="Helvetica,sans-Serif" font-size="10.00">src/observability/dashboard</text>
<text text-anchor="middle" x="2727.5" y="-12.5" font-family="Helvetica,sans-Serif" font-size="10.00">/api_snapshot.c</text>
</a>
</g>
</g>
<!-- Node22&#45;&gt;Node26 -->
<g id="edge28_Node000022_Node000026" class="edge">
<title>Node22&#45;&gt;Node26</title>
<g id="a_edge28_Node000022_Node000026"><a xlink:title=" ">
<path fill="none" stroke="#63b8ff" d="M2389.06,-76.79C2502.37,-59.8 2533.14,-61.23 2642.5,-41 2651.13,-39.4 2660.22,-37.53 2669.11,-35.58"/>
<polygon fill="#63b8ff" stroke="#63b8ff" points="2388.31,-73.37 2378.94,-78.32 2389.35,-80.29 2388.31,-73.37"/>
</a>
</g>
</g>
<!-- Node27 -->
<g id="Node000027" class="node">
<title>Node27</title>
<g id="a_Node000027"><a xlink:href="api__snapshot__panels_8c.html" target="_top" xlink:title=" ">
<polygon fill="white" stroke="#666666" points="2973.5,-35.5 2821.5,-35.5 2821.5,-5.5 2973.5,-5.5 2973.5,-35.5"/>
<text text-anchor="start" x="2829.5" y="-23.5" font-family="Helvetica,sans-Serif" font-size="10.00">src/observability/dashboard</text>
<text text-anchor="middle" x="2897.5" y="-12.5" font-family="Helvetica,sans-Serif" font-size="10.00">/api_snapshot_panels.c</text>
</a>
</g>
</g>
<!-- Node22&#45;&gt;Node27 -->
<g id="edge29_Node000022_Node000027" class="edge">
<title>Node22&#45;&gt;Node27</title>
<g id="a_edge29_Node000022_Node000027"><a xlink:title=" ">
<path fill="none" stroke="#63b8ff" d="M2388.87,-76.9C2577.35,-54.14 2628.41,-69.77 2812.5,-41 2821.92,-39.53 2831.86,-37.6 2841.48,-35.53"/>
<polygon fill="#63b8ff" stroke="#63b8ff" points="2388.41,-73.43 2378.91,-78.12 2389.27,-80.38 2388.41,-73.43"/>
</a>
</g>
</g>
<!-- Node28 -->
<g id="Node000028" class="node">
<title>Node28</title>
<g id="a_Node000028"><a xlink:href="api__transfers_8c.html" target="_top" xlink:title=" ">
<polygon fill="white" stroke="#666666" points="3143.5,-35.5 2991.5,-35.5 2991.5,-5.5 3143.5,-5.5 3143.5,-35.5"/>
<text text-anchor="start" x="2999.5" y="-23.5" font-family="Helvetica,sans-Serif" font-size="10.00">src/observability/dashboard</text>
<text text-anchor="middle" x="3067.5" y="-12.5" font-family="Helvetica,sans-Serif" font-size="10.00">/api_transfers.c</text>
</a>
</g>
</g>
<!-- Node22&#45;&gt;Node28 -->
<g id="edge30_Node000022_Node000028" class="edge">
<title>Node22&#45;&gt;Node28</title>
<g id="a_edge30_Node000022_Node000028"><a xlink:title=" ">
<path fill="none" stroke="#63b8ff" d="M2389.16,-76.9C2652.57,-48.22 2723.6,-78.27 2982.5,-41 2992.24,-39.6 3002.51,-37.65 3012.42,-35.53"/>
<polygon fill="#63b8ff" stroke="#63b8ff" points="2388.46,-73.46 2378.9,-78.04 2389.23,-80.41 2388.46,-73.46"/>
</a>
</g>
</g>
<!-- Node33 -->
<g id="Node000033" class="node">
<title>Node33</title>
<g id="a_Node000033"><a xlink:href="protocols_2webdav_2module_8c.html" target="_top" xlink:title=" ">
<polygon fill="white" stroke="#666666" points="3557.5,-35.5 3437.5,-35.5 3437.5,-5.5 3557.5,-5.5 3557.5,-35.5"/>
<text text-anchor="start" x="3445.5" y="-23.5" font-family="Helvetica,sans-Serif" font-size="10.00">src/protocols/webdav</text>
<text text-anchor="middle" x="3497.5" y="-12.5" font-family="Helvetica,sans-Serif" font-size="10.00">/module.c</text>
</a>
</g>
</g>
<!-- Node32&#45;&gt;Node33 -->
<g id="edge37_Node000032_Node000033" class="edge">
<title>Node32&#45;&gt;Node33</title>
<g id="a_edge37_Node000032_Node000033"><a xlink:title=" ">
<path fill="none" stroke="#63b8ff" d="M3396.54,-72.34C3419.53,-60.77 3448.58,-46.14 3469.62,-35.54"/>
<polygon fill="#63b8ff" stroke="#63b8ff" points="3394.78,-69.31 3387.43,-76.94 3397.93,-75.56 3394.78,-69.31"/>
</a>
</g>
</g>
<!-- Node34 -->
<g id="Node000034" class="node">
<title>Node34</title>
<g id="a_Node000034"><a xlink:href="module__commands_8c.html" target="_top" xlink:title=" ">
<polygon fill="white" stroke="#666666" points="3699.5,-35.5 3575.5,-35.5 3575.5,-5.5 3699.5,-5.5 3699.5,-35.5"/>
<text text-anchor="start" x="3583.5" y="-23.5" font-family="Helvetica,sans-Serif" font-size="10.00">src/protocols/webdav</text>
<text text-anchor="middle" x="3637.5" y="-12.5" font-family="Helvetica,sans-Serif" font-size="10.00">/module_commands.c</text>
</a>
</g>
</g>
<!-- Node32&#45;&gt;Node34 -->
<g id="edge38_Node000032_Node000034" class="edge">
<title>Node32&#45;&gt;Node34</title>
<g id="a_edge38_Node000032_Node000034"><a xlink:title=" ">
<path fill="none" stroke="#63b8ff" d="M3429.81,-74.59C3469.93,-65.08 3521.12,-52.71 3566.5,-41 3573.18,-39.28 3580.21,-37.41 3587.13,-35.54"/>
<polygon fill="#63b8ff" stroke="#63b8ff" points="3428.78,-71.23 3419.86,-76.94 3430.4,-78.05 3428.78,-71.23"/>
</a>
</g>
</g>
<!-- Node35 -->
<g id="Node000035" class="node">
<title>Node35</title>
<g id="a_Node000035"><a xlink:href="module__directives_8c.html" target="_top" xlink:title=" ">
<polygon fill="white" stroke="#666666" points="3281.5,-35.5 3161.5,-35.5 3161.5,-5.5 3281.5,-5.5 3281.5,-35.5"/>
<text text-anchor="start" x="3169.5" y="-23.5" font-family="Helvetica,sans-Serif" font-size="10.00">src/protocols/webdav</text>
<text text-anchor="middle" x="3221.5" y="-12.5" font-family="Helvetica,sans-Serif" font-size="10.00">/module_directives.c</text>
</a>
</g>
</g>
<!-- Node32&#45;&gt;Node35 -->
<g id="edge39_Node000032_Node000035" class="edge">
<title>Node32&#45;&gt;Node35</title>
<g id="a_edge39_Node000032_Node000035"><a xlink:title=" ">
<path fill="none" stroke="#63b8ff" d="M3322.46,-72.34C3299.47,-60.77 3270.42,-46.14 3249.38,-35.54"/>
<polygon fill="#63b8ff" stroke="#63b8ff" points="3321.07,-75.56 3331.57,-76.94 3324.22,-69.31 3321.07,-75.56"/>
</a>
</g>
</g>
<!-- Node36 -->
<g id="Node000036" class="node">
<title>Node36</title>
<g id="a_Node000036"><a xlink:href="module__init_8c.html" target="_top" xlink:title=" ">
<polygon fill="white" stroke="#666666" points="3419.5,-35.5 3299.5,-35.5 3299.5,-5.5 3419.5,-5.5 3419.5,-35.5"/>
<text text-anchor="start" x="3307.5" y="-23.5" font-family="Helvetica,sans-Serif" font-size="10.00">src/protocols/webdav</text>
<text text-anchor="middle" x="3359.5" y="-12.5" font-family="Helvetica,sans-Serif" font-size="10.00">/module_init.c</text>
</a>
</g>
</g>
<!-- Node32&#45;&gt;Node36 -->
<g id="edge40_Node000032_Node000036" class="edge">
<title>Node32&#45;&gt;Node36</title>
<g id="a_edge40_Node000032_Node000036"><a xlink:title=" ">
<path fill="none" stroke="#63b8ff" d="M3359.5,-66.75C3359.5,-56.31 3359.5,-44.49 3359.5,-35.54"/>
<polygon fill="#63b8ff" stroke="#63b8ff" points="3356,-66.94 3359.5,-76.94 3363,-66.94 3356,-66.94"/>
</a>
</g>
</g>
</g>
</svg>
