<?xml version="1.0" encoding="UTF-8" standalone="no"?>
<!DOCTYPE svg PUBLIC "-//W3C//DTD SVG 1.1//EN"
 "http://www.w3.org/Graphics/SVG/1.1/DTD/svg11.dtd">
<!-- Generated by graphviz version 2.43.0 (0)
 -->
<!-- Title: src/protocols/root/protocol/readv_seg.h Pages: 1 -->
<svg width="294pt" height="148pt"
 viewBox="0.00 0.00 294.00 148.00" xmlns="http://www.w3.org/2000/svg" xmlns:xlink="http://www.w3.org/1999/xlink">
<g id="graph0" class="graph" transform="scale(1 1) rotate(0) translate(4 144)">
<title>src/protocols/root/protocol/readv_seg.h</title>
<!-- Node1 -->
<g id="Node000001" class="node">
<title>Node1</title>
<g id="a_Node000001"><a xlink:title=" ">
<polygon fill="#999999" stroke="#666666" points="182.5,-140 60.5,-140 60.5,-110 182.5,-110 182.5,-140"/>
<text text-anchor="start" x="68.5" y="-128" font-family="Helvetica,sans-Serif" font-size="10.00">src/protocols/root</text>
<text text-anchor="middle" x="121.5" y="-117" font-family="Helvetica,sans-Serif" font-size="10.00">/protocol/readv_seg.h</text>
</a>
</g>
</g>
<!-- Node2 -->
<g id="Node000002" class="node">
<title>Node2</title>
<g id="a_Node000002"><a xlink:title=" ">
<polygon fill="#e0e0e0" stroke="#999999" points="53,-19 0,-19 0,0 53,0 53,-19"/>
<text text-anchor="middle" x="26.5" y="-7" font-family="Helvetica,sans-Serif" font-size="10.00">stdint.h</text>
</a>
</g>
</g>
<!-- Node1&#45;&gt;Node2 -->
<g id="edge1_Node000001_Node000002" class="edge">
<title>Node1&#45;&gt;Node2</title>
<g id="a_edge1_Node000001_Node000002"><a xlink:title=" ">
<path fill="none" stroke="#63b8ff" d="M109.47,-109.63C91.84,-88.56 59.06,-49.4 40.42,-27.13"/>
<polygon fill="#63b8ff" stroke="#63b8ff" points="42.91,-24.65 33.81,-19.23 37.54,-29.14 42.91,-24.65"/>
</a>
</g>
</g>
<!-- Node3 -->
<g id="Node000003" class="node">
<title>Node3</title>
<g id="a_Node000003"><a xlink:title=" ">
<polygon fill="#e0e0e0" stroke="#999999" points="124,-19 71,-19 71,0 124,0 124,-19"/>
<text text-anchor="middle" x="97.5" y="-7" font-family="Helvetica,sans-Serif" font-size="10.00">string.h</text>
</a>
</g>
</g>
<!-- Node1&#45;&gt;Node3 -->
<g id="edge2_Node000001_Node000003" class="edge">
<title>Node1&#45;&gt;Node3</title>
<g id="a_edge2_Node000001_Node000003"><a xlink:title=" ">
<path fill="none" stroke="#63b8ff" d="M117.43,-109.63C114.69,-99.68 111.12,-86.1 108.5,-74 105.28,-59.1 102.37,-42.07 100.35,-29.4"/>
<polygon fill="#63b8ff" stroke="#63b8ff" points="103.76,-28.52 98.77,-19.17 96.84,-29.59 103.76,-28.52"/>
</a>
</g>
</g>
<!-- Node4 -->
<g id="Node000004" class="node">
<title>Node4</title>
<g id="a_Node000004"><a xlink:href="frame__hdr_8h.html" target="_top" xlink:title=" ">
<polygon fill="white" stroke="#666666" points="192,-74 117,-74 117,-55 192,-55 192,-74"/>
<text text-anchor="middle" x="154.5" y="-62" font-family="Helvetica,sans-Serif" font-size="10.00">frame_hdr.h</text>
</a>
</g>
</g>
<!-- Node1&#45;&gt;Node4 -->
<g id="edge3_Node000001_Node000004" class="edge">
<title>Node1&#45;&gt;Node4</title>
<g id="a_edge3_Node000001_Node000004"><a xlink:title=" ">
<path fill="none" stroke="#63b8ff" d="M129.49,-109.84C134.03,-101.78 139.77,-91.62 144.6,-83.06"/>
<polygon fill="#63b8ff" stroke="#63b8ff" points="147.69,-84.7 149.56,-74.27 141.59,-81.26 147.69,-84.7"/>
</a>
</g>
</g>
<!-- Node7 -->
<g id="Node000007" class="node">
<title>Node7</title>
<g id="a_Node000007"><a xlink:href="flags_8h.html" target="_top" xlink:title=" ">
<polygon fill="white" stroke="#666666" points="259,-74 210,-74 210,-55 259,-55 259,-74"/>
<text text-anchor="middle" x="234.5" y="-62" font-family="Helvetica,sans-Serif" font-size="10.00">flags.h</text>
</a>
</g>
</g>
<!-- Node1&#45;&gt;Node7 -->
<g id="edge8_Node000001_Node000007" class="edge">
<title>Node1&#45;&gt;Node7</title>
<g id="a_edge8_Node000001_Node000007"><a xlink:title=" ">
<path fill="none" stroke="#63b8ff" d="M148.57,-109.99C166.75,-100.58 190.57,-88.24 208.52,-78.95"/>
<polygon fill="#63b8ff" stroke="#63b8ff" points="210.54,-81.84 217.81,-74.14 207.32,-75.63 210.54,-81.84"/>
</a>
</g>
</g>
<!-- Node4&#45;&gt;Node2 -->
<g id="edge5_Node000004_Node000002" class="edge">
<title>Node4&#45;&gt;Node2</title>
<g id="a_edge5_Node000004_Node000002"><a xlink:title=" ">
<path fill="none" stroke="#63b8ff" d="M133.93,-54.98C113.07,-46.34 80.53,-32.87 56.73,-23.02"/>
<polygon fill="#63b8ff" stroke="#63b8ff" points="58.02,-19.76 47.44,-19.17 55.34,-26.23 58.02,-19.76"/>
</a>
</g>
</g>
<!-- Node4&#45;&gt;Node3 -->
<g id="edge6_Node000004_Node000003" class="edge">
<title>Node4&#45;&gt;Node3</title>
<g id="a_edge6_Node000004_Node000003"><a xlink:title=" ">
<path fill="none" stroke="#63b8ff" d="M145.34,-54.98C137,-47.23 124.47,-35.58 114.32,-26.14"/>
<polygon fill="#63b8ff" stroke="#63b8ff" points="116.53,-23.42 106.82,-19.17 111.76,-28.54 116.53,-23.42"/>
</a>
</g>
</g>
<!-- Node5 -->
<g id="Node000005" class="node">
<title>Node5</title>
<g id="a_Node000005"><a xlink:title=" ">
<polygon fill="#e0e0e0" stroke="#999999" points="198.5,-19 142.5,-19 142.5,0 198.5,0 198.5,-19"/>
<text text-anchor="middle" x="170.5" y="-7" font-family="Helvetica,sans-Serif" font-size="10.00">stddef.h</text>
</a>
</g>
</g>
<!-- Node4&#45;&gt;Node5 -->
<g id="edge4_Node000004_Node000005" class="edge">
<title>Node4&#45;&gt;Node5</title>
<g id="a_edge4_Node000004_Node000005"><a xlink:title=" ">
<path fill="none" stroke="#63b8ff" d="M157.14,-54.75C159.26,-47.72 162.31,-37.62 164.96,-28.84"/>
<polygon fill="#63b8ff" stroke="#63b8ff" points="168.37,-29.67 167.91,-19.09 161.67,-27.65 168.37,-29.67"/>
</a>
</g>
</g>
<!-- Node6 -->
<g id="Node000006" class="node">
<title>Node6</title>
<g id="a_Node000006"><a xlink:title=" ">
<polygon fill="#e0e0e0" stroke="#999999" points="286,-19 217,-19 217,0 286,0 286,-19"/>
<text text-anchor="middle" x="251.5" y="-7" font-family="Helvetica,sans-Serif" font-size="10.00">arpa/inet.h</text>
</a>
</g>
</g>
<!-- Node4&#45;&gt;Node6 -->
<g id="edge7_Node000004_Node000006" class="edge">
<title>Node4&#45;&gt;Node6</title>
<g id="a_edge7_Node000004_Node000006"><a xlink:title=" ">
<path fill="none" stroke="#63b8ff" d="M170.08,-54.98C185.27,-46.69 208.6,-33.94 226.4,-24.22"/>
<polygon fill="#63b8ff" stroke="#63b8ff" points="228.53,-27.04 235.63,-19.17 225.18,-20.89 228.53,-27.04"/>
</a>
</g>
</g>
</g>
</svg>
