<?xml version="1.0" encoding="UTF-8" standalone="no"?>
<!DOCTYPE svg PUBLIC "-//W3C//DTD SVG 1.1//EN"
 "http://www.w3.org/Graphics/SVG/1.1/DTD/svg11.dtd">
<!-- Generated by graphviz version 2.43.0 (0)
 -->
<!-- Title: src/net/cms/recv_internal.h Pages: 1 -->
<svg width="1013pt" height="93pt"
 viewBox="0.00 0.00 1012.50 93.00" xmlns="http://www.w3.org/2000/svg" xmlns:xlink="http://www.w3.org/1999/xlink">
<g id="graph0" class="graph" transform="scale(1 1) rotate(0) translate(4 89)">
<title>src/net/cms/recv_internal.h</title>
<!-- Node1 -->
<g id="Node000001" class="node">
<title>Node1</title>
<g id="a_Node000001"><a xlink:title=" ">
<polygon fill="#999999" stroke="#666666" points="566.5,-85 417.5,-85 417.5,-66 566.5,-66 566.5,-85"/>
<text text-anchor="middle" x="492" y="-73" font-family="Helvetica,sans-Serif" font-size="10.00">src/net/cms/recv_internal.h</text>
</a>
</g>
</g>
<!-- Node2 -->
<g id="Node000002" class="node">
<title>Node2</title>
<g id="a_Node000002"><a xlink:href="fanout_8c.html" target="_top" xlink:title=" ">
<polygon fill="white" stroke="#666666" points="116,-24.5 0,-24.5 0,-5.5 116,-5.5 116,-24.5"/>
<text text-anchor="middle" x="58" y="-12.5" font-family="Helvetica,sans-Serif" font-size="10.00">src/net/cms/fanout.c</text>
</a>
</g>
</g>
<!-- Node1&#45;&gt;Node2 -->
<g id="edge1_Node000001_Node000002" class="edge">
<title>Node1&#45;&gt;Node2</title>
<g id="a_edge1_Node000001_Node000002"><a xlink:title=" ">
<path fill="none" stroke="#63b8ff" d="M406.95,-66.27C332.38,-58.55 221.17,-45.85 125,-30 115.62,-28.45 105.56,-26.51 96.16,-24.56"/>
<polygon fill="#63b8ff" stroke="#63b8ff" points="406.92,-69.78 417.23,-67.32 407.64,-62.82 406.92,-69.78"/>
</a>
</g>
</g>
<!-- Node3 -->
<g id="Node000003" class="node">
<title>Node3</title>
<g id="a_Node000003"><a xlink:href="net_2cms_2recv_8c.html" target="_top" xlink:title=" ">
<polygon fill="white" stroke="#666666" points="238,-24.5 134,-24.5 134,-5.5 238,-5.5 238,-24.5"/>
<text text-anchor="middle" x="186" y="-12.5" font-family="Helvetica,sans-Serif" font-size="10.00">src/net/cms/recv.c</text>
</a>
</g>
</g>
<!-- Node1&#45;&gt;Node3 -->
<g id="edge2_Node000001_Node000003" class="edge">
<title>Node1&#45;&gt;Node3</title>
<g id="a_edge2_Node000001_Node000003"><a xlink:title=" ">
<path fill="none" stroke="#63b8ff" d="M431.26,-64.27C381.59,-55.71 309.59,-42.86 247,-30 238.91,-28.34 230.25,-26.43 222.07,-24.57"/>
<polygon fill="#63b8ff" stroke="#63b8ff" points="430.74,-67.73 441.19,-65.97 431.93,-60.83 430.74,-67.73"/>
</a>
</g>
</g>
<!-- Node4 -->
<g id="Node000004" class="node">
<title>Node4</title>
<g id="a_Node000004"><a xlink:href="recv__forward_8c.html" target="_top" xlink:title=" ">
<polygon fill="white" stroke="#666666" points="404,-24.5 256,-24.5 256,-5.5 404,-5.5 404,-24.5"/>
<text text-anchor="middle" x="330" y="-12.5" font-family="Helvetica,sans-Serif" font-size="10.00">src/net/cms/recv_forward.c</text>
</a>
</g>
</g>
<!-- Node1&#45;&gt;Node4 -->
<g id="edge3_Node000001_Node000004" class="edge">
<title>Node1&#45;&gt;Node4</title>
<g id="a_edge3_Node000001_Node000004"><a xlink:title=" ">
<path fill="none" stroke="#63b8ff" d="M458.84,-62.52C427.51,-51.21 381.31,-34.53 353.58,-24.52"/>
<polygon fill="#63b8ff" stroke="#63b8ff" points="457.85,-65.89 468.44,-65.99 460.23,-59.31 457.85,-65.89"/>
</a>
</g>
</g>
<!-- Node5 -->
<g id="Node000005" class="node">
<title>Node5</title>
<g id="a_Node000005"><a xlink:href="net_2cms_2recv__frame_8c.html" target="_top" xlink:title=" ">
<polygon fill="white" stroke="#666666" points="562,-24.5 422,-24.5 422,-5.5 562,-5.5 562,-24.5"/>
<text text-anchor="middle" x="492" y="-12.5" font-family="Helvetica,sans-Serif" font-size="10.00">src/net/cms/recv_frame.c</text>
</a>
</g>
</g>
<!-- Node1&#45;&gt;Node5 -->
<g id="edge4_Node000001_Node000005" class="edge">
<title>Node1&#45;&gt;Node5</title>
<g id="a_edge4_Node000001_Node000005"><a xlink:title=" ">
<path fill="none" stroke="#63b8ff" d="M492,-55.66C492,-45.24 492,-32.8 492,-24.67"/>
<polygon fill="#63b8ff" stroke="#63b8ff" points="488.5,-55.87 492,-65.87 495.5,-55.87 488.5,-55.87"/>
</a>
</g>
</g>
<!-- Node6 -->
<g id="Node000006" class="node">
<title>Node6</title>
<g id="a_Node000006"><a xlink:href="recv__prepare_8c.html" target="_top" xlink:title=" ">
<polygon fill="white" stroke="#666666" points="728,-24.5 580,-24.5 580,-5.5 728,-5.5 728,-24.5"/>
<text text-anchor="middle" x="654" y="-12.5" font-family="Helvetica,sans-Serif" font-size="10.00">src/net/cms/recv_prepare.c</text>
</a>
</g>
</g>
<!-- Node1&#45;&gt;Node6 -->
<g id="edge5_Node000001_Node000006" class="edge">
<title>Node1&#45;&gt;Node6</title>
<g id="a_edge5_Node000001_Node000006"><a xlink:title=" ">
<path fill="none" stroke="#63b8ff" d="M525.16,-62.52C556.49,-51.21 602.69,-34.53 630.42,-24.52"/>
<polygon fill="#63b8ff" stroke="#63b8ff" points="523.77,-59.31 515.56,-65.99 526.15,-65.89 523.77,-59.31"/>
</a>
</g>
</g>
<!-- Node7 -->
<g id="Node000007" class="node">
<title>Node7</title>
<g id="a_Node000007"><a xlink:href="server__recv__frame_8c.html" target="_top" xlink:title=" ">
<polygon fill="white" stroke="#666666" points="853.5,-30 746.5,-30 746.5,0 853.5,0 853.5,-30"/>
<text text-anchor="start" x="754.5" y="-18" font-family="Helvetica,sans-Serif" font-size="10.00">src/net/cms/server</text>
<text text-anchor="middle" x="800" y="-7" font-family="Helvetica,sans-Serif" font-size="10.00">_recv_frame.c</text>
</a>
</g>
</g>
<!-- Node1&#45;&gt;Node7 -->
<g id="edge6_Node000001_Node000007" class="edge">
<title>Node1&#45;&gt;Node7</title>
<g id="a_edge6_Node000001_Node000007"><a xlink:title=" ">
<path fill="none" stroke="#63b8ff" d="M552.25,-64.23C601.92,-55.6 674.16,-42.68 737,-30 740.08,-29.38 743.23,-28.73 746.41,-28.06"/>
<polygon fill="#63b8ff" stroke="#63b8ff" points="551.57,-60.8 542.32,-65.95 552.77,-67.69 551.57,-60.8"/>
</a>
</g>
</g>
<!-- Node8 -->
<g id="Node000008" class="node">
<title>Node8</title>
<g id="a_Node000008"><a xlink:href="server__recv__frame__handlers_8c.html" target="_top" xlink:title=" ">
<polygon fill="white" stroke="#666666" points="1004.5,-30 871.5,-30 871.5,0 1004.5,0 1004.5,-30"/>
<text text-anchor="start" x="879.5" y="-18" font-family="Helvetica,sans-Serif" font-size="10.00">src/net/cms/server</text>
<text text-anchor="middle" x="938" y="-7" font-family="Helvetica,sans-Serif" font-size="10.00">_recv_frame_handlers.c</text>
</a>
</g>
</g>
<!-- Node1&#45;&gt;Node8 -->
<g id="edge7_Node000001_Node000008" class="edge">
<title>Node1&#45;&gt;Node8</title>
<g id="a_edge7_Node000001_Node000008"><a xlink:title=" ">
<path fill="none" stroke="#63b8ff" d="M577.18,-65.88C652.52,-57.87 765.32,-44.96 863,-30 865.75,-29.58 868.55,-29.13 871.38,-28.67"/>
<polygon fill="#63b8ff" stroke="#63b8ff" points="576.38,-62.44 566.81,-66.97 577.12,-69.4 576.38,-62.44"/>
</a>
</g>
</g>
</g>
</svg>
