<?xml version="1.0" encoding="UTF-8" standalone="no"?>
<!DOCTYPE svg PUBLIC "-//W3C//DTD SVG 1.1//EN"
 "http://www.w3.org/Graphics/SVG/1.1/DTD/svg11.dtd">
<!-- Generated by graphviz version 2.43.0 (0)
 -->
<!-- Title: src/net/manager/registry_internal.h Pages: 1 -->
<svg width="616pt" height="104pt"
 viewBox="0.00 0.00 616.00 104.00" xmlns="http://www.w3.org/2000/svg" xmlns:xlink="http://www.w3.org/1999/xlink">
<g id="graph0" class="graph" transform="scale(1 1) rotate(0) translate(4 100)">
<title>src/net/manager/registry_internal.h</title>
<!-- Node1 -->
<g id="Node000001" class="node">
<title>Node1</title>
<g id="a_Node000001"><a xlink:title=" ">
<polygon fill="#999999" stroke="#666666" points="375,-96 238,-96 238,-66 375,-66 375,-96"/>
<text text-anchor="start" x="246" y="-84" font-family="Helvetica,sans-Serif" font-size="10.00">src/net/manager/registry</text>
<text text-anchor="middle" x="306.5" y="-73" font-family="Helvetica,sans-Serif" font-size="10.00">_internal.h</text>
</a>
</g>
</g>
<!-- Node2 -->
<g id="Node000002" class="node">
<title>Node2</title>
<g id="a_Node000002"><a xlink:href="net_2manager_2registry_8c.html" target="_top" xlink:title=" ">
<polygon fill="white" stroke="#666666" points="143,-24.5 0,-24.5 0,-5.5 143,-5.5 143,-24.5"/>
<text text-anchor="middle" x="71.5" y="-12.5" font-family="Helvetica,sans-Serif" font-size="10.00">src/net/manager/registry.c</text>
</a>
</g>
</g>
<!-- Node1&#45;&gt;Node2 -->
<g id="edge1_Node000001_Node000002" class="edge">
<title>Node1&#45;&gt;Node2</title>
<g id="a_edge1_Node000001_Node000002"><a xlink:title=" ">
<path fill="none" stroke="#63b8ff" d="M245.13,-63.29C199.44,-50.84 138.97,-34.37 102.77,-24.52"/>
<polygon fill="#63b8ff" stroke="#63b8ff" points="244.36,-66.7 254.93,-65.95 246.2,-59.95 244.36,-66.7"/>
</a>
</g>
</g>
<!-- Node3 -->
<g id="Node000003" class="node">
<title>Node3</title>
<g id="a_Node000003"><a xlink:href="registry__health_8c.html" target="_top" xlink:title=" ">
<polygon fill="white" stroke="#666666" points="298,-30 161,-30 161,0 298,0 298,-30"/>
<text text-anchor="start" x="169" y="-18" font-family="Helvetica,sans-Serif" font-size="10.00">src/net/manager/registry</text>
<text text-anchor="middle" x="229.5" y="-7" font-family="Helvetica,sans-Serif" font-size="10.00">_health.c</text>
</a>
</g>
</g>
<!-- Node1&#45;&gt;Node3 -->
<g id="edge2_Node000001_Node000003" class="edge">
<title>Node1&#45;&gt;Node3</title>
<g id="a_edge2_Node000001_Node000003"><a xlink:title=" ">
<path fill="none" stroke="#63b8ff" d="M281.48,-59.2C270.05,-49.7 256.8,-38.69 246.54,-30.16"/>
<polygon fill="#63b8ff" stroke="#63b8ff" points="279.48,-62.1 289.41,-65.8 283.96,-56.71 279.48,-62.1"/>
</a>
</g>
</g>
<!-- Node4 -->
<g id="Node000004" class="node">
<title>Node4</title>
<g id="a_Node000004"><a xlink:href="registry__select_8c.html" target="_top" xlink:title=" ">
<polygon fill="white" stroke="#666666" points="453,-30 316,-30 316,0 453,0 453,-30"/>
<text text-anchor="start" x="324" y="-18" font-family="Helvetica,sans-Serif" font-size="10.00">src/net/manager/registry</text>
<text text-anchor="middle" x="384.5" y="-7" font-family="Helvetica,sans-Serif" font-size="10.00">_select.c</text>
</a>
</g>
</g>
<!-- Node1&#45;&gt;Node4 -->
<g id="edge3_Node000001_Node000004" class="edge">
<title>Node1&#45;&gt;Node4</title>
<g id="a_edge3_Node000001_Node000004"><a xlink:title=" ">
<path fill="none" stroke="#63b8ff" d="M331.85,-59.2C343.43,-49.7 356.85,-38.69 367.24,-30.16"/>
<polygon fill="#63b8ff" stroke="#63b8ff" points="329.32,-56.75 323.81,-65.8 333.76,-62.16 329.32,-56.75"/>
</a>
</g>
</g>
<!-- Node5 -->
<g id="Node000005" class="node">
<title>Node5</title>
<g id="a_Node000005"><a xlink:href="registry__select__blacklist_8c.html" target="_top" xlink:title=" ">
<polygon fill="white" stroke="#666666" points="608,-30 471,-30 471,0 608,0 608,-30"/>
<text text-anchor="start" x="479" y="-18" font-family="Helvetica,sans-Serif" font-size="10.00">src/net/manager/registry</text>
<text text-anchor="middle" x="539.5" y="-7" font-family="Helvetica,sans-Serif" font-size="10.00">_select_blacklist.c</text>
</a>
</g>
</g>
<!-- Node1&#45;&gt;Node5 -->
<g id="edge4_Node000001_Node000005" class="edge">
<title>Node1&#45;&gt;Node5</title>
<g id="a_edge4_Node000001_Node000005"><a xlink:title=" ">
<path fill="none" stroke="#63b8ff" d="M367.47,-63.25C405.11,-52.91 452.85,-39.8 488.49,-30.01"/>
<polygon fill="#63b8ff" stroke="#63b8ff" points="366.35,-59.93 357.63,-65.95 368.2,-66.68 366.35,-59.93"/>
</a>
</g>
</g>
</g>
</svg>
