<?xml version="1.0" encoding="UTF-8" standalone="no"?>
<!DOCTYPE svg PUBLIC "-//W3C//DTD SVG 1.1//EN"
 "http://www.w3.org/Graphics/SVG/1.1/DTD/svg11.dtd">
<!-- Generated by graphviz version 2.43.0 (0)
 -->
<!-- Title: src/net/cms/reqid_map.h Pages: 1 -->
<svg width="512pt" height="82pt"
 viewBox="0.00 0.00 511.50 82.00" xmlns="http://www.w3.org/2000/svg" xmlns:xlink="http://www.w3.org/1999/xlink">
<g id="graph0" class="graph" transform="scale(1 1) rotate(0) translate(4 78)">
<title>src/net/cms/reqid_map.h</title>
<!-- Node1 -->
<g id="Node000001" class="node">
<title>Node1</title>
<g id="a_Node000001"><a xlink:title=" ">
<polygon fill="#999999" stroke="#666666" points="344,-74 207,-74 207,-55 344,-55 344,-74"/>
<text text-anchor="middle" x="275.5" y="-62" font-family="Helvetica,sans-Serif" font-size="10.00">src/net/cms/reqid_map.h</text>
</a>
</g>
</g>
<!-- Node2 -->
<g id="Node000002" class="node">
<title>Node2</title>
<g id="a_Node000002"><a xlink:href="postconfiguration_8c.html" target="_top" xlink:title=" ">
<polygon fill="white" stroke="#666666" points="183,-19 0,-19 0,0 183,0 183,-19"/>
<text text-anchor="middle" x="91.5" y="-7" font-family="Helvetica,sans-Serif" font-size="10.00">src/core/config/postconfiguration.c</text>
</a>
</g>
</g>
<!-- Node1&#45;&gt;Node2 -->
<g id="edge1_Node000001_Node000002" class="edge">
<title>Node1&#45;&gt;Node2</title>
<g id="a_edge1_Node000001_Node000002"><a xlink:title=" ">
<path fill="none" stroke="#63b8ff" d="M236.21,-52.18C201.8,-42.27 152.54,-28.08 121.29,-19.08"/>
<polygon fill="#63b8ff" stroke="#63b8ff" points="235.36,-55.58 245.94,-54.98 237.3,-48.85 235.36,-55.58"/>
</a>
</g>
</g>
<!-- Node3 -->
<g id="Node000003" class="node">
<title>Node3</title>
<g id="a_Node000003"><a xlink:href="recv__prepare_8c.html" target="_top" xlink:title=" ">
<polygon fill="white" stroke="#666666" points="349.5,-19 201.5,-19 201.5,0 349.5,0 349.5,-19"/>
<text text-anchor="middle" x="275.5" y="-7" font-family="Helvetica,sans-Serif" font-size="10.00">src/net/cms/recv_prepare.c</text>
</a>
</g>
</g>
<!-- Node1&#45;&gt;Node3 -->
<g id="edge2_Node000001_Node000003" class="edge">
<title>Node1&#45;&gt;Node3</title>
<g id="a_edge2_Node000001_Node000003"><a xlink:title=" ">
<path fill="none" stroke="#63b8ff" d="M275.5,-44.66C275.5,-35.93 275.5,-25.99 275.5,-19.09"/>
<polygon fill="#63b8ff" stroke="#63b8ff" points="272,-44.75 275.5,-54.75 279,-44.75 272,-44.75"/>
</a>
</g>
</g>
<!-- Node4 -->
<g id="Node000004" class="node">
<title>Node4</title>
<g id="a_Node000004"><a xlink:href="reqid__map_8c.html" target="_top" xlink:title=" ">
<polygon fill="white" stroke="#666666" points="503.5,-19 367.5,-19 367.5,0 503.5,0 503.5,-19"/>
<text text-anchor="middle" x="435.5" y="-7" font-family="Helvetica,sans-Serif" font-size="10.00">src/net/cms/reqid_map.c</text>
</a>
</g>
</g>
<!-- Node1&#45;&gt;Node4 -->
<g id="edge3_Node000001_Node000004" class="edge">
<title>Node1&#45;&gt;Node4</title>
<g id="a_edge3_Node000001_Node000004"><a xlink:title=" ">
<path fill="none" stroke="#63b8ff" d="M310.83,-51.8C340.69,-41.91 382.77,-27.97 409.59,-19.08"/>
<polygon fill="#63b8ff" stroke="#63b8ff" points="309.6,-48.52 301.21,-54.98 311.8,-55.16 309.6,-48.52"/>
</a>
</g>
</g>
</g>
</svg>
