<?xml version="1.0" encoding="UTF-8" standalone="no"?>
<!DOCTYPE svg PUBLIC "-//W3C//DTD SVG 1.1//EN"
 "http://www.w3.org/Graphics/SVG/1.1/DTD/svg11.dtd">
<!-- Generated by graphviz version 2.43.0 (0)
 -->
<!-- Title: src/fs/path/reserved_names.h Pages: 1 -->
<!--zoomable 104 -->

<svg id="main" version="1.1" xmlns="http://www.w3.org/2000/svg" xmlns:xlink="http://www.w3.org/1999/xlink" xml:space="preserve" onload="init(evt)">
<style type="text/css"><![CDATA[
.node, .edge {opacity: 0.7;}
.node.selected, .edge.selected {opacity: 1;}
.edge:hover path { stroke: red; }
.edge:hover polygon { stroke: red; fill: red; }
]]></style>

<defs>
  <circle id="rim" cx="0" cy="0" r="7"/>
  <circle id="rim2" cx="0" cy="0" r="3.5"/>
  <g id="zoomPlus">
    <use xlink:href="#rim" fill="#404040"><set attributeName="fill" to="#808080" begin="zoomplus.mouseover" end="zoomplus.mouseout"/></use>
    <path d="M-4,0h8M0,-4v8" fill="none" stroke="white" stroke-width="1.5" pointer-events="none"/>
  </g>
  <g id="zoomMin">
    <use xlink:href="#rim" fill="#404040"><set attributeName="fill" to="#808080" begin="zoomminus.mouseover" end="zoomminus.mouseout"/></use>
    <path d="M-4,0h8" fill="none" stroke="white" stroke-width="1.5" pointer-events="none"/>
  </g>
  <g id="arrowUp" transform="translate(30 24)">
    <use xlink:href="#rim"/>
    <path pointer-events="none" fill="none" stroke="white" stroke-width="1.5" d="M0,-3.0v7 M-2.5,-0.5L0,-3.0L2.5,-0.5"/>
  </g>
  <g id="arrowRight" transform="rotate(90) translate(36 -43)">
    <use xlink:href="#rim"/>
    <path pointer-events="none" fill="none" stroke="white" stroke-width="1.5" d="M0,-3.0v7 M-2.5,-0.5L0,-3.0L2.5,-0.5"/>
  </g>
  <g id="arrowDown" transform="rotate(180) translate(-30 -48)">
    <use xlink:href="#rim"/>
    <path pointer-events="none" fill="none" stroke="white" stroke-width="1.5" d="M0,-3.0v7 M-2.5,-0.5L0,-3.0L2.5,-0.5"/>
  </g>
  <g id="arrowLeft" transform="rotate(270) translate(-36 17)">
    <use xlink:href="#rim"/>
    <path pointer-events="none" fill="none" stroke="white" stroke-width="1.5" d="M0,-3.0v7 M-2.5,-0.5L0,-3.0L2.5,-0.5"/>
  </g>
  <g id="resetDef">
    <use xlink:href="#rim2" fill="#404040"><set attributeName="fill" to="#808080" begin="reset.mouseover" end="reset.mouseout"/></use>
  </g>
</defs>
<script type="application/ecmascript">
var viewWidth = 1505;
var viewHeight = 104;
var sectionId = 'dynsection-1';
</script>
<script type="application/ecmascript" xlink:href="svg.min.js"/>
<svg id="graph" class="graph">
<g id="viewport">
<title>src/fs/path/reserved_names.h</title>
<!-- Node1 -->
<g id="Node000001" class="node">
<title>Node1</title>
<g id="a_Node000001"><a xlink:title=" ">
<polygon fill="#999999" stroke="#666666" points="841.5,-96 728.5,-96 728.5,-66 841.5,-66 841.5,-96"/>
<text text-anchor="start" x="736.5" y="-84" font-family="Helvetica,sans-Serif" font-size="10.00">src/fs/path/reserved</text>
<text text-anchor="middle" x="785" y="-73" font-family="Helvetica,sans-Serif" font-size="10.00">_names.h</text>
</a>
</g>
</g>
<!-- Node2 -->
<g id="Node000002" class="node">
<title>Node2</title>
<g id="a_Node000002"><a xlink:href="src_2core_2compat_2path_8c.html" target="_top" xlink:title=" ">
<polygon fill="white" stroke="#666666" points="128,-24.5 0,-24.5 0,-5.5 128,-5.5 128,-24.5"/>
<text text-anchor="middle" x="64" y="-12.5" font-family="Helvetica,sans-Serif" font-size="10.00">src/core/compat/path.c</text>
</a>
</g>
</g>
<!-- Node1&#45;&gt;Node2 -->
<g id="edge1_Node000001_Node000002" class="edge">
<title>Node1&#45;&gt;Node2</title>
<g id="a_edge1_Node000001_Node000002"><a xlink:title=" ">
<path fill="none" stroke="#63b8ff" d="M718.14,-77.32C600.31,-72.05 348.15,-58.3 137,-30 126.26,-28.56 114.7,-26.56 104.03,-24.52"/>
<polygon fill="#63b8ff" stroke="#63b8ff" points="718.29,-80.83 728.44,-77.78 718.6,-73.84 718.29,-80.83"/>
</a>
</g>
</g>
<!-- Node3 -->
<g id="Node000003" class="node">
<title>Node3</title>
<g id="a_Node000003"><a xlink:href="protocols_2root_2dirlist_2handler_8c.html" target="_top" xlink:title=" ">
<polygon fill="white" stroke="#666666" points="247.5,-30 146.5,-30 146.5,0 247.5,0 247.5,-30"/>
<text text-anchor="start" x="154.5" y="-18" font-family="Helvetica,sans-Serif" font-size="10.00">src/protocols/root</text>
<text text-anchor="middle" x="197" y="-7" font-family="Helvetica,sans-Serif" font-size="10.00">/dirlist/handler.c</text>
</a>
</g>
</g>
<!-- Node1&#45;&gt;Node3 -->
<g id="edge2_Node000001_Node000003" class="edge">
<title>Node1&#45;&gt;Node3</title>
<g id="a_edge2_Node000001_Node000003"><a xlink:title=" ">
<path fill="none" stroke="#63b8ff" d="M718.27,-76.67C617.57,-70.97 420.99,-57.24 256,-30 253.3,-29.55 250.54,-29.05 247.76,-28.52"/>
<polygon fill="#63b8ff" stroke="#63b8ff" points="718.12,-80.17 728.3,-77.23 718.51,-73.18 718.12,-80.17"/>
</a>
</g>
</g>
<!-- Node4 -->
<g id="Node000004" class="node">
<title>Node4</title>
<g id="a_Node000004"><a xlink:href="handler__stream_8c.html" target="_top" xlink:title=" ">
<polygon fill="white" stroke="#666666" points="400.5,-30 265.5,-30 265.5,0 400.5,0 400.5,-30"/>
<text text-anchor="start" x="273.5" y="-18" font-family="Helvetica,sans-Serif" font-size="10.00">src/protocols/root</text>
<text text-anchor="middle" x="333" y="-7" font-family="Helvetica,sans-Serif" font-size="10.00">/dirlist/handler_stream.c</text>
</a>
</g>
</g>
<!-- Node1&#45;&gt;Node4 -->
<g id="edge3_Node000001_Node000004" class="edge">
<title>Node1&#45;&gt;Node4</title>
<g id="a_edge3_Node000001_Node000004"><a xlink:title=" ">
<path fill="none" stroke="#63b8ff" d="M718.22,-72.14C642.93,-63.04 516.93,-47.11 409,-30 406.22,-29.56 403.38,-29.1 400.51,-28.62"/>
<polygon fill="#63b8ff" stroke="#63b8ff" points="718.15,-75.66 728.5,-73.38 718.99,-68.71 718.15,-75.66"/>
</a>
</g>
</g>
<!-- Node5 -->
<g id="Node000005" class="node">
<title>Node5</title>
<g id="a_Node000005"><a xlink:href="open__request_8c.html" target="_top" xlink:title=" ">
<polygon fill="white" stroke="#666666" points="537.5,-30 418.5,-30 418.5,0 537.5,0 537.5,-30"/>
<text text-anchor="start" x="426.5" y="-18" font-family="Helvetica,sans-Serif" font-size="10.00">src/protocols/root</text>
<text text-anchor="middle" x="478" y="-7" font-family="Helvetica,sans-Serif" font-size="10.00">/read/open_request.c</text>
</a>
</g>
</g>
<!-- Node1&#45;&gt;Node5 -->
<g id="edge4_Node000001_Node000005" class="edge">
<title>Node1&#45;&gt;Node5</title>
<g id="a_edge4_Node000001_Node000005"><a xlink:title=" ">
<path fill="none" stroke="#63b8ff" d="M718.21,-66.08C664.44,-54.87 589.55,-39.25 537.74,-28.45"/>
<polygon fill="#63b8ff" stroke="#63b8ff" points="717.83,-69.57 728.33,-68.19 719.26,-62.72 717.83,-69.57"/>
</a>
</g>
</g>
<!-- Node6 -->
<g id="Node000006" class="node">
<title>Node6</title>
<g id="a_Node000006"><a xlink:href="open__request__resolve_8c.html" target="_top" xlink:title=" ">
<polygon fill="white" stroke="#666666" points="716,-30 556,-30 556,0 716,0 716,-30"/>
<text text-anchor="start" x="564" y="-18" font-family="Helvetica,sans-Serif" font-size="10.00">src/protocols/root</text>
<text text-anchor="middle" x="636" y="-7" font-family="Helvetica,sans-Serif" font-size="10.00">/read/open_request_resolve.c</text>
</a>
</g>
</g>
<!-- Node1&#45;&gt;Node6 -->
<g id="edge5_Node000001_Node000006" class="edge">
<title>Node1&#45;&gt;Node6</title>
<g id="a_edge5_Node000001_Node000006"><a xlink:title=" ">
<path fill="none" stroke="#63b8ff" d="M742.91,-61.92C719.36,-51.8 690.44,-39.38 668.62,-30.01"/>
<polygon fill="#63b8ff" stroke="#63b8ff" points="741.73,-65.22 752.3,-65.95 744.49,-58.79 741.73,-65.22"/>
</a>
</g>
</g>
<!-- Node7 -->
<g id="Node000007" class="node">
<title>Node7</title>
<g id="a_Node000007"><a xlink:href="stat_8c.html" target="_top" xlink:title=" ">
<polygon fill="white" stroke="#666666" points="835.5,-30 734.5,-30 734.5,0 835.5,0 835.5,-30"/>
<text text-anchor="start" x="742.5" y="-18" font-family="Helvetica,sans-Serif" font-size="10.00">src/protocols/root</text>
<text text-anchor="middle" x="785" y="-7" font-family="Helvetica,sans-Serif" font-size="10.00">/read/stat.c</text>
</a>
</g>
</g>
<!-- Node1&#45;&gt;Node7 -->
<g id="edge6_Node000001_Node000007" class="edge">
<title>Node1&#45;&gt;Node7</title>
<g id="a_edge6_Node000001_Node000007"><a xlink:title=" ">
<path fill="none" stroke="#63b8ff" d="M785,-55.54C785,-46.96 785,-37.61 785,-30.16"/>
<polygon fill="#63b8ff" stroke="#63b8ff" points="781.5,-55.8 785,-65.8 788.5,-55.8 781.5,-55.8"/>
</a>
</g>
</g>
<!-- Node8 -->
<g id="Node000008" class="node">
<title>Node8</title>
<g id="a_Node000008"><a xlink:href="stat__manager_8c.html" target="_top" xlink:title=" ">
<polygon fill="white" stroke="#666666" points="972.5,-30 853.5,-30 853.5,0 972.5,0 972.5,-30"/>
<text text-anchor="start" x="861.5" y="-18" font-family="Helvetica,sans-Serif" font-size="10.00">src/protocols/root</text>
<text text-anchor="middle" x="913" y="-7" font-family="Helvetica,sans-Serif" font-size="10.00">/read/stat_manager.c</text>
</a>
</g>
</g>
<!-- Node1&#45;&gt;Node8 -->
<g id="edge7_Node000001_Node000008" class="edge">
<title>Node1&#45;&gt;Node8</title>
<g id="a_edge7_Node000001_Node000008"><a xlink:title=" ">
<path fill="none" stroke="#63b8ff" d="M822.24,-61.38C842.27,-51.36 866.57,-39.22 884.98,-30.01"/>
<polygon fill="#63b8ff" stroke="#63b8ff" points="820.47,-58.35 813.09,-65.95 823.6,-64.61 820.47,-58.35"/>
</a>
</g>
</g>
<!-- Node9 -->
<g id="Node000009" class="node">
<title>Node9</title>
<g id="a_Node000009"><a xlink:href="statx_8c.html" target="_top" xlink:title=" ">
<polygon fill="white" stroke="#666666" points="1091.5,-30 990.5,-30 990.5,0 1091.5,0 1091.5,-30"/>
<text text-anchor="start" x="998.5" y="-18" font-family="Helvetica,sans-Serif" font-size="10.00">src/protocols/root</text>
<text text-anchor="middle" x="1041" y="-7" font-family="Helvetica,sans-Serif" font-size="10.00">/read/statx.c</text>
</a>
</g>
</g>
<!-- Node1&#45;&gt;Node9 -->
<g id="edge8_Node000001_Node000009" class="edge">
<title>Node1&#45;&gt;Node9</title>
<g id="a_edge8_Node000001_Node000009"><a xlink:title=" ">
<path fill="none" stroke="#63b8ff" d="M851.07,-63.48C894.43,-52.64 950.27,-38.68 990.16,-28.71"/>
<polygon fill="#63b8ff" stroke="#63b8ff" points="850.03,-60.13 841.18,-65.95 851.73,-66.92 850.03,-60.13"/>
</a>
</g>
</g>
<!-- Node10 -->
<g id="Node000010" class="node">
<title>Node10</title>
<g id="a_Node000010"><a xlink:href="list__walk_8c.html" target="_top" xlink:title=" ">
<polygon fill="white" stroke="#666666" points="1220.5,-30 1109.5,-30 1109.5,0 1220.5,0 1220.5,-30"/>
<text text-anchor="start" x="1117.5" y="-18" font-family="Helvetica,sans-Serif" font-size="10.00">src/protocols/s3/list</text>
<text text-anchor="middle" x="1165" y="-7" font-family="Helvetica,sans-Serif" font-size="10.00">_walk.c</text>
</a>
</g>
</g>
<!-- Node1&#45;&gt;Node10 -->
<g id="edge9_Node000001_Node000010" class="edge">
<title>Node1&#45;&gt;Node10</title>
<g id="a_edge9_Node000001_Node000010"><a xlink:title=" ">
<path fill="none" stroke="#63b8ff" d="M851.66,-70.61C915.75,-61.31 1015.25,-46.15 1101,-30 1103.68,-29.49 1106.42,-28.96 1109.19,-28.41"/>
<polygon fill="#63b8ff" stroke="#63b8ff" points="851.08,-67.16 841.68,-72.05 852.08,-74.08 851.08,-67.16"/>
</a>
</g>
</g>
<!-- Node11 -->
<g id="Node000011" class="node">
<title>Node11</title>
<g id="a_Node000011"><a xlink:href="propfind__walk_8c.html" target="_top" xlink:title=" ">
<polygon fill="white" stroke="#666666" points="1359,-30 1239,-30 1239,0 1359,0 1359,-30"/>
<text text-anchor="start" x="1247" y="-18" font-family="Helvetica,sans-Serif" font-size="10.00">src/protocols/webdav</text>
<text text-anchor="middle" x="1299" y="-7" font-family="Helvetica,sans-Serif" font-size="10.00">/propfind_walk.c</text>
</a>
</g>
</g>
<!-- Node1&#45;&gt;Node11 -->
<g id="edge10_Node000001_Node000011" class="edge">
<title>Node1&#45;&gt;Node11</title>
<g id="a_edge10_Node000001_Node000011"><a xlink:title=" ">
<path fill="none" stroke="#63b8ff" d="M851.79,-74.35C939.06,-66.54 1096.47,-51.01 1230,-30 1232.9,-29.54 1235.86,-29.05 1238.85,-28.53"/>
<polygon fill="#63b8ff" stroke="#63b8ff" points="851.41,-70.87 841.76,-75.24 852.03,-77.84 851.41,-70.87"/>
</a>
</g>
</g>
<!-- Node12 -->
<g id="Node000012" class="node">
<title>Node12</title>
<g id="a_Node000012"><a xlink:href="search_8c.html" target="_top" xlink:title=" ">
<polygon fill="white" stroke="#666666" points="1497,-30 1377,-30 1377,0 1497,0 1497,-30"/>
<text text-anchor="start" x="1385" y="-18" font-family="Helvetica,sans-Serif" font-size="10.00">src/protocols/webdav</text>
<text text-anchor="middle" x="1437" y="-7" font-family="Helvetica,sans-Serif" font-size="10.00">/search.c</text>
</a>
</g>
</g>
<!-- Node1&#45;&gt;Node12 -->
<g id="edge11_Node000001_Node000012" class="edge">
<title>Node1&#45;&gt;Node12</title>
<g id="a_edge11_Node000001_Node000012"><a xlink:title=" ">
<path fill="none" stroke="#63b8ff" d="M851.68,-76.77C960.28,-70.96 1181.95,-56.76 1368,-30 1370.9,-29.58 1373.87,-29.12 1376.86,-28.62"/>
<polygon fill="#63b8ff" stroke="#63b8ff" points="851.33,-73.29 841.52,-77.31 851.7,-80.28 851.33,-73.29"/>
</a>
</g>
</g>
</g>
</svg>

<g id="navigator" transform="translate(0 0)" fill="#404254">
  <rect fill="#f2f5e9" fill-opacity="0.5" stroke="#606060" stroke-width=".5" x="0" y="0" width="60" height="60"/>
  <use id="zoomplus" xlink:href="#zoomPlus" x="17" y="9" onmousedown="handleZoom(evt,'in')"/>
  <use id="zoomminus" xlink:href="#zoomMin" x="42" y="9" onmousedown="handleZoom(evt,'out')"/>
  <use id="reset" xlink:href="#resetDef" x="30" y="36" onmousedown="handleReset()"/>
   <use id="arrowup" xlink:href="#arrowUp" x="0" y="0" onmousedown="handlePan(0,-1)"/>
  <use id="arrowright" xlink:href="#arrowRight" x="0" y="0" onmousedown="handlePan(1,0)"/>
  <use id="arrowdown" xlink:href="#arrowDown" x="0" y="0" onmousedown="handlePan(0,1)"/>
  <use id="arrowleft" xlink:href="#arrowLeft" x="0" y="0" onmousedown="handlePan(-1,0)"/>
</g>
<svg viewBox="0 0 15 15" width="100%" height="30px" preserveAspectRatio="xMaxYMin meet">
 <g id="arrow_out" transform="scale(0.3 0.3)">
  <a xlink:href="reserved__names_8h__dep__incl_org.svg" target="_base">
   <rect id="button" ry="5" rx="5" y="6" x="6" height="38" width="38"
        fill="#f2f5e9" fill-opacity="0.5" stroke="#606060" stroke-width="1.0"/>
   <path id="arrow"
     d="M 11.500037,31.436501 C 11.940474,20.09759 22.043105,11.32322 32.158766,21.979434 L 37.068811,17.246167 C 37.068811,17.246167 37.088388,32 37.088388,32 L 22.160133,31.978069 C 22.160133,31.978069 26.997745,27.140456 26.997745,27.140456 C 18.528582,18.264221 13.291696,25.230495 11.500037,31.436501 z"
     style="fill:#404040;"/>
  </a>
 </g>
</svg>

<style type='text/css'>
<![CDATA[
[data-mouse-over-selected='false'] { opacity: 0.7; }
[data-mouse-over-selected='true']  { opacity: 1.0; }
]]>
</style>
<script type="application/ecmascript"><![CDATA[
document.addEventListener('DOMContentLoaded', (event) => {
  highlightEdges();
  highlightAdjacentNodes();
});
]]></script>
</svg>
