<?xml version="1.0" encoding="UTF-8" standalone="no"?>
<!DOCTYPE svg PUBLIC "-//W3C//DTD SVG 1.1//EN"
 "http://www.w3.org/Graphics/SVG/1.1/DTD/svg11.dtd">
<!-- Generated by graphviz version 2.43.0 (0)
 -->
<!-- Title: src/core/config/root_prepare.h Pages: 1 -->
<!--zoomable 104 -->

<svg id="main" version="1.1" xmlns="http://www.w3.org/2000/svg" xmlns:xlink="http://www.w3.org/1999/xlink" xml:space="preserve" onload="init(evt)">
<style type="text/css"><![CDATA[
.node, .edge {opacity: 0.7;}
.node.selected, .edge.selected {opacity: 1;}
.edge:hover path { stroke: red; }
.edge:hover polygon { stroke: red; fill: red; }
]]></style>

<defs>
  <circle id="rim" cx="0" cy="0" r="7"/>
  <circle id="rim2" cx="0" cy="0" r="3.5"/>
  <g id="zoomPlus">
    <use xlink:href="#rim" fill="#404040"><set attributeName="fill" to="#808080" begin="zoomplus.mouseover" end="zoomplus.mouseout"/></use>
    <path d="M-4,0h8M0,-4v8" fill="none" stroke="white" stroke-width="1.5" pointer-events="none"/>
  </g>
  <g id="zoomMin">
    <use xlink:href="#rim" fill="#404040"><set attributeName="fill" to="#808080" begin="zoomminus.mouseover" end="zoomminus.mouseout"/></use>
    <path d="M-4,0h8" fill="none" stroke="white" stroke-width="1.5" pointer-events="none"/>
  </g>
  <g id="arrowUp" transform="translate(30 24)">
    <use xlink:href="#rim"/>
    <path pointer-events="none" fill="none" stroke="white" stroke-width="1.5" d="M0,-3.0v7 M-2.5,-0.5L0,-3.0L2.5,-0.5"/>
  </g>
  <g id="arrowRight" transform="rotate(90) translate(36 -43)">
    <use xlink:href="#rim"/>
    <path pointer-events="none" fill="none" stroke="white" stroke-width="1.5" d="M0,-3.0v7 M-2.5,-0.5L0,-3.0L2.5,-0.5"/>
  </g>
  <g id="arrowDown" transform="rotate(180) translate(-30 -48)">
    <use xlink:href="#rim"/>
    <path pointer-events="none" fill="none" stroke="white" stroke-width="1.5" d="M0,-3.0v7 M-2.5,-0.5L0,-3.0L2.5,-0.5"/>
  </g>
  <g id="arrowLeft" transform="rotate(270) translate(-36 17)">
    <use xlink:href="#rim"/>
    <path pointer-events="none" fill="none" stroke="white" stroke-width="1.5" d="M0,-3.0v7 M-2.5,-0.5L0,-3.0L2.5,-0.5"/>
  </g>
  <g id="resetDef">
    <use xlink:href="#rim2" fill="#404040"><set attributeName="fill" to="#808080" begin="reset.mouseover" end="reset.mouseout"/></use>
  </g>
</defs>
<script type="application/ecmascript">
var viewWidth = 1874;
var viewHeight = 104;
var sectionId = 'dynsection-1';
</script>
<script type="application/ecmascript" xlink:href="svg.min.js"/>
<svg id="graph" class="graph">
<g id="viewport">
<title>src/core/config/root_prepare.h</title>
<!-- Node1 -->
<g id="Node000001" class="node">
<title>Node1</title>
<g id="a_Node000001"><a xlink:title=" ">
<polygon fill="#999999" stroke="#666666" points="997,-96 887,-96 887,-66 997,-66 997,-96"/>
<text text-anchor="start" x="895" y="-84" font-family="Helvetica,sans-Serif" font-size="10.00">src/core/config/root</text>
<text text-anchor="middle" x="942" y="-73" font-family="Helvetica,sans-Serif" font-size="10.00">_prepare.h</text>
</a>
</g>
</g>
<!-- Node2 -->
<g id="Node000002" class="node">
<title>Node2</title>
<g id="a_Node000002"><a xlink:href="root__prepare_8c.html" target="_top" xlink:title=" ">
<polygon fill="white" stroke="#666666" points="110,-30 0,-30 0,0 110,0 110,-30"/>
<text text-anchor="start" x="8" y="-18" font-family="Helvetica,sans-Serif" font-size="10.00">src/core/config/root</text>
<text text-anchor="middle" x="55" y="-7" font-family="Helvetica,sans-Serif" font-size="10.00">_prepare.c</text>
</a>
</g>
</g>
<!-- Node1&#45;&gt;Node2 -->
<g id="edge1_Node000001_Node000002" class="edge">
<title>Node1&#45;&gt;Node2</title>
<g id="a_edge1_Node000001_Node000002"><a xlink:title=" ">
<path fill="none" stroke="#63b8ff" d="M876.7,-79.46C737.01,-77.54 399.1,-68.91 119,-30 116.07,-29.59 113.08,-29.12 110.06,-28.61"/>
<polygon fill="#63b8ff" stroke="#63b8ff" points="876.77,-82.96 886.81,-79.59 876.86,-75.96 876.77,-82.96"/>
</a>
</g>
</g>
<!-- Node3 -->
<g id="Node000003" class="node">
<title>Node3</title>
<g id="a_Node000003"><a xlink:href="runtime__server_8c.html" target="_top" xlink:title=" ">
<polygon fill="white" stroke="#666666" points="256,-30 128,-30 128,0 256,0 256,-30"/>
<text text-anchor="start" x="136" y="-18" font-family="Helvetica,sans-Serif" font-size="10.00">src/core/config/runtime</text>
<text text-anchor="middle" x="192" y="-7" font-family="Helvetica,sans-Serif" font-size="10.00">_server.c</text>
</a>
</g>
</g>
<!-- Node1&#45;&gt;Node3 -->
<g id="edge2_Node000001_Node000003" class="edge">
<title>Node1&#45;&gt;Node3</title>
<g id="a_edge2_Node000001_Node000003"><a xlink:title=" ">
<path fill="none" stroke="#63b8ff" d="M876.73,-77.69C755.68,-72.86 488.36,-59.57 265,-30 262.06,-29.61 259.05,-29.18 256.03,-28.71"/>
<polygon fill="#63b8ff" stroke="#63b8ff" points="876.8,-81.2 886.93,-78.09 877.08,-74.2 876.8,-81.2"/>
</a>
</g>
</g>
<!-- Node4 -->
<g id="Node000004" class="node">
<title>Node4</title>
<g id="a_Node000004"><a xlink:href="runtime__server__backend_8c.html" target="_top" xlink:title=" ">
<polygon fill="white" stroke="#666666" points="402,-30 274,-30 274,0 402,0 402,-30"/>
<text text-anchor="start" x="282" y="-18" font-family="Helvetica,sans-Serif" font-size="10.00">src/core/config/runtime</text>
<text text-anchor="middle" x="338" y="-7" font-family="Helvetica,sans-Serif" font-size="10.00">_server_backend.c</text>
</a>
</g>
</g>
<!-- Node1&#45;&gt;Node4 -->
<g id="edge3_Node000001_Node000004" class="edge">
<title>Node1&#45;&gt;Node4</title>
<g id="a_edge3_Node000001_Node000004"><a xlink:title=" ">
<path fill="none" stroke="#63b8ff" d="M876.76,-75.87C776.36,-69.07 578.06,-53.83 411,-30 408.06,-29.58 405.06,-29.12 402.04,-28.64"/>
<polygon fill="#63b8ff" stroke="#63b8ff" points="876.54,-79.37 886.76,-76.55 877.01,-72.38 876.54,-79.37"/>
</a>
</g>
</g>
<!-- Node5 -->
<g id="Node000005" class="node">
<title>Node5</title>
<g id="a_Node000005"><a xlink:href="tier__config_8c.html" target="_top" xlink:title=" ">
<polygon fill="white" stroke="#666666" points="545.5,-24.5 420.5,-24.5 420.5,-5.5 545.5,-5.5 545.5,-24.5"/>
<text text-anchor="middle" x="483" y="-12.5" font-family="Helvetica,sans-Serif" font-size="10.00">src/fs/tier/tier_config.c</text>
</a>
</g>
</g>
<!-- Node1&#45;&gt;Node5 -->
<g id="edge4_Node000001_Node000005" class="edge">
<title>Node1&#45;&gt;Node5</title>
<g id="a_edge4_Node000001_Node000005"><a xlink:title=" ">
<path fill="none" stroke="#63b8ff" d="M876.83,-72.94C799.59,-64.27 667.07,-48.41 554,-30 544.2,-28.4 533.69,-26.46 523.84,-24.54"/>
<polygon fill="#63b8ff" stroke="#63b8ff" points="876.57,-76.44 886.9,-74.07 877.35,-69.48 876.57,-76.44"/>
</a>
</g>
</g>
<!-- Node6 -->
<g id="Node000006" class="node">
<title>Node6</title>
<g id="a_Node000006"><a xlink:href="cvmfs__module__build_8c.html" target="_top" xlink:title=" ">
<polygon fill="white" stroke="#666666" points="692.5,-30 563.5,-30 563.5,0 692.5,0 692.5,-30"/>
<text text-anchor="start" x="571.5" y="-18" font-family="Helvetica,sans-Serif" font-size="10.00">src/protocols/cvmfs</text>
<text text-anchor="middle" x="628" y="-7" font-family="Helvetica,sans-Serif" font-size="10.00">/cvmfs_module_build.c</text>
</a>
</g>
</g>
<!-- Node1&#45;&gt;Node6 -->
<g id="edge5_Node000001_Node000006" class="edge">
<title>Node1&#45;&gt;Node6</title>
<g id="a_edge5_Node000001_Node000006"><a xlink:title=" ">
<path fill="none" stroke="#63b8ff" d="M877.14,-66.78C823.17,-55.78 746.71,-40.2 692.77,-29.2"/>
<polygon fill="#63b8ff" stroke="#63b8ff" points="876.45,-70.21 886.95,-68.78 877.85,-63.35 876.45,-70.21"/>
</a>
</g>
</g>
<!-- Node7 -->
<g id="Node000007" class="node">
<title>Node7</title>
<g id="a_Node000007"><a xlink:href="cvmfs__module__georank_8c.html" target="_top" xlink:title=" ">
<polygon fill="white" stroke="#666666" points="855.5,-30 710.5,-30 710.5,0 855.5,0 855.5,-30"/>
<text text-anchor="start" x="718.5" y="-18" font-family="Helvetica,sans-Serif" font-size="10.00">src/protocols/cvmfs</text>
<text text-anchor="middle" x="783" y="-7" font-family="Helvetica,sans-Serif" font-size="10.00">/cvmfs_module_georank.c</text>
</a>
</g>
</g>
<!-- Node1&#45;&gt;Node7 -->
<g id="edge6_Node000001_Node000007" class="edge">
<title>Node1&#45;&gt;Node7</title>
<g id="a_edge6_Node000001_Node000007"><a xlink:title=" ">
<path fill="none" stroke="#63b8ff" d="M897.75,-62.19C872.5,-52.02 841.3,-39.47 817.81,-30.01"/>
<polygon fill="#63b8ff" stroke="#63b8ff" points="896.52,-65.47 907.11,-65.95 899.14,-58.97 896.52,-65.47"/>
</a>
</g>
</g>
<!-- Node8 -->
<g id="Node000008" class="node">
<title>Node8</title>
<g id="a_Node000008"><a xlink:href="cvmfs__module__merge_8c.html" target="_top" xlink:title=" ">
<polygon fill="white" stroke="#666666" points="1010.5,-30 873.5,-30 873.5,0 1010.5,0 1010.5,-30"/>
<text text-anchor="start" x="881.5" y="-18" font-family="Helvetica,sans-Serif" font-size="10.00">src/protocols/cvmfs</text>
<text text-anchor="middle" x="942" y="-7" font-family="Helvetica,sans-Serif" font-size="10.00">/cvmfs_module_merge.c</text>
</a>
</g>
</g>
<!-- Node1&#45;&gt;Node8 -->
<g id="edge7_Node000001_Node000008" class="edge">
<title>Node1&#45;&gt;Node8</title>
<g id="a_edge7_Node000001_Node000008"><a xlink:title=" ">
<path fill="none" stroke="#63b8ff" d="M942,-55.54C942,-46.96 942,-37.61 942,-30.16"/>
<polygon fill="#63b8ff" stroke="#63b8ff" points="938.5,-55.8 942,-65.8 945.5,-55.8 938.5,-55.8"/>
</a>
</g>
</g>
<!-- Node9 -->
<g id="Node000009" class="node">
<title>Node9</title>
<g id="a_Node000009"><a xlink:href="protocols_2cvmfs_2module_8c.html" target="_top" xlink:title=" ">
<polygon fill="white" stroke="#666666" points="1141,-30 1029,-30 1029,0 1141,0 1141,-30"/>
<text text-anchor="start" x="1037" y="-18" font-family="Helvetica,sans-Serif" font-size="10.00">src/protocols/cvmfs</text>
<text text-anchor="middle" x="1085" y="-7" font-family="Helvetica,sans-Serif" font-size="10.00">/module.c</text>
</a>
</g>
</g>
<!-- Node1&#45;&gt;Node9 -->
<g id="edge8_Node000001_Node000009" class="edge">
<title>Node1&#45;&gt;Node9</title>
<g id="a_edge8_Node000001_Node000009"><a xlink:title=" ">
<path fill="none" stroke="#63b8ff" d="M982.7,-61.78C1005.25,-51.69 1032.84,-39.34 1053.69,-30.01"/>
<polygon fill="#63b8ff" stroke="#63b8ff" points="981.08,-58.68 973.38,-65.95 983.94,-65.06 981.08,-58.68"/>
</a>
</g>
</g>
<!-- Node10 -->
<g id="Node000010" class="node">
<title>Node10</title>
<g id="a_Node000010"><a xlink:href="protocols_2s3_2module_8c.html" target="_top" xlink:title=" ">
<polygon fill="white" stroke="#666666" points="1300.5,-24.5 1159.5,-24.5 1159.5,-5.5 1300.5,-5.5 1300.5,-24.5"/>
<text text-anchor="middle" x="1230" y="-12.5" font-family="Helvetica,sans-Serif" font-size="10.00">src/protocols/s3/module.c</text>
</a>
</g>
</g>
<!-- Node1&#45;&gt;Node10 -->
<g id="edge9_Node000001_Node000010" class="edge">
<title>Node1&#45;&gt;Node10</title>
<g id="a_edge9_Node000001_Node000010"><a xlink:title=" ">
<path fill="none" stroke="#63b8ff" d="M1007.16,-65.52C1063.98,-52.89 1144.48,-35 1191.57,-24.54"/>
<polygon fill="#63b8ff" stroke="#63b8ff" points="1006.19,-62.15 997.19,-67.74 1007.71,-68.98 1006.19,-62.15"/>
</a>
</g>
</g>
<!-- Node11 -->
<g id="Node000011" class="node">
<title>Node11</title>
<g id="a_Node000011"><a xlink:href="module__merge_8c.html" target="_top" xlink:title=" ">
<polygon fill="white" stroke="#666666" points="1451.5,-30 1318.5,-30 1318.5,0 1451.5,0 1451.5,-30"/>
<text text-anchor="start" x="1326.5" y="-18" font-family="Helvetica,sans-Serif" font-size="10.00">src/protocols/s3/module</text>
<text text-anchor="middle" x="1385" y="-7" font-family="Helvetica,sans-Serif" font-size="10.00">_merge.c</text>
</a>
</g>
</g>
<!-- Node1&#45;&gt;Node11 -->
<g id="edge10_Node000001_Node000011" class="edge">
<title>Node1&#45;&gt;Node11</title>
<g id="a_edge10_Node000001_Node000011"><a xlink:title=" ">
<path fill="none" stroke="#63b8ff" d="M1007.36,-72.11C1081.05,-62.99 1204.37,-47.02 1310,-30 1312.75,-29.56 1315.55,-29.09 1318.37,-28.61"/>
<polygon fill="#63b8ff" stroke="#63b8ff" points="1006.8,-68.65 997.3,-73.35 1007.66,-75.6 1006.8,-68.65"/>
</a>
</g>
</g>
<!-- Node12 -->
<g id="Node000012" class="node">
<title>Node12</title>
<g id="a_Node000012"><a xlink:href="protocols_2webdav_2config_8c.html" target="_top" xlink:title=" ">
<polygon fill="white" stroke="#666666" points="1590,-30 1470,-30 1470,0 1590,0 1590,-30"/>
<text text-anchor="start" x="1478" y="-18" font-family="Helvetica,sans-Serif" font-size="10.00">src/protocols/webdav</text>
<text text-anchor="middle" x="1530" y="-7" font-family="Helvetica,sans-Serif" font-size="10.00">/config.c</text>
</a>
</g>
</g>
<!-- Node1&#45;&gt;Node12 -->
<g id="edge11_Node000001_Node000012" class="edge">
<title>Node1&#45;&gt;Node12</title>
<g id="a_edge11_Node000001_Node000012"><a xlink:title=" ">
<path fill="none" stroke="#63b8ff" d="M1007.27,-75.9C1105.9,-69.22 1298.65,-54.22 1461,-30 1463.9,-29.57 1466.87,-29.09 1469.85,-28.59"/>
<polygon fill="#63b8ff" stroke="#63b8ff" points="1006.9,-72.42 997.15,-76.58 1007.37,-79.4 1006.9,-72.42"/>
</a>
</g>
</g>
<!-- Node13 -->
<g id="Node000013" class="node">
<title>Node13</title>
<g id="a_Node000013"><a xlink:href="config__merge_8c.html" target="_top" xlink:title=" ">
<polygon fill="white" stroke="#666666" points="1728,-30 1608,-30 1608,0 1728,0 1728,-30"/>
<text text-anchor="start" x="1616" y="-18" font-family="Helvetica,sans-Serif" font-size="10.00">src/protocols/webdav</text>
<text text-anchor="middle" x="1668" y="-7" font-family="Helvetica,sans-Serif" font-size="10.00">/config_merge.c</text>
</a>
</g>
</g>
<!-- Node1&#45;&gt;Node13 -->
<g id="edge12_Node000001_Node000013" class="edge">
<title>Node1&#45;&gt;Node13</title>
<g id="a_edge12_Node000001_Node000013"><a xlink:title=" ">
<path fill="none" stroke="#63b8ff" d="M1007.54,-77.71C1126.05,-72.97 1383.71,-59.92 1599,-30 1601.91,-29.6 1604.87,-29.15 1607.86,-28.66"/>
<polygon fill="#63b8ff" stroke="#63b8ff" points="1007.04,-74.23 997.19,-78.12 1007.32,-81.22 1007.04,-74.23"/>
</a>
</g>
</g>
<!-- Node14 -->
<g id="Node000014" class="node">
<title>Node14</title>
<g id="a_Node000014"><a xlink:href="config__proxy_8c.html" target="_top" xlink:title=" ">
<polygon fill="white" stroke="#666666" points="1866,-30 1746,-30 1746,0 1866,0 1866,-30"/>
<text text-anchor="start" x="1754" y="-18" font-family="Helvetica,sans-Serif" font-size="10.00">src/protocols/webdav</text>
<text text-anchor="middle" x="1806" y="-7" font-family="Helvetica,sans-Serif" font-size="10.00">/config_proxy.c</text>
</a>
</g>
</g>
<!-- Node1&#45;&gt;Node14 -->
<g id="edge13_Node000001_Node000014" class="edge">
<title>Node1&#45;&gt;Node14</title>
<g id="a_edge13_Node000001_Node000014"><a xlink:title=" ">
<path fill="none" stroke="#63b8ff" d="M1007.46,-78.92C1143.76,-76.01 1467.76,-65.61 1737,-30 1739.91,-29.62 1742.88,-29.18 1745.87,-28.71"/>
<polygon fill="#63b8ff" stroke="#63b8ff" points="1007.12,-75.43 997.19,-79.13 1007.26,-82.43 1007.12,-75.43"/>
</a>
</g>
</g>
</g>
</svg>

<g id="navigator" transform="translate(0 0)" fill="#404254">
  <rect fill="#f2f5e9" fill-opacity="0.5" stroke="#606060" stroke-width=".5" x="0" y="0" width="60" height="60"/>
  <use id="zoomplus" xlink:href="#zoomPlus" x="17" y="9" onmousedown="handleZoom(evt,'in')"/>
  <use id="zoomminus" xlink:href="#zoomMin" x="42" y="9" onmousedown="handleZoom(evt,'out')"/>
  <use id="reset" xlink:href="#resetDef" x="30" y="36" onmousedown="handleReset()"/>
   <use id="arrowup" xlink:href="#arrowUp" x="0" y="0" onmousedown="handlePan(0,-1)"/>
  <use id="arrowright" xlink:href="#arrowRight" x="0" y="0" onmousedown="handlePan(1,0)"/>
  <use id="arrowdown" xlink:href="#arrowDown" x="0" y="0" onmousedown="handlePan(0,1)"/>
  <use id="arrowleft" xlink:href="#arrowLeft" x="0" y="0" onmousedown="handlePan(-1,0)"/>
</g>
<svg viewBox="0 0 15 15" width="100%" height="30px" preserveAspectRatio="xMaxYMin meet">
 <g id="arrow_out" transform="scale(0.3 0.3)">
  <a xlink:href="root__prepare_8h__dep__incl_org.svg" target="_base">
   <rect id="button" ry="5" rx="5" y="6" x="6" height="38" width="38"
        fill="#f2f5e9" fill-opacity="0.5" stroke="#606060" stroke-width="1.0"/>
   <path id="arrow"
     d="M 11.500037,31.436501 C 11.940474,20.09759 22.043105,11.32322 32.158766,21.979434 L 37.068811,17.246167 C 37.068811,17.246167 37.088388,32 37.088388,32 L 22.160133,31.978069 C 22.160133,31.978069 26.997745,27.140456 26.997745,27.140456 C 18.528582,18.264221 13.291696,25.230495 11.500037,31.436501 z"
     style="fill:#404040;"/>
  </a>
 </g>
</svg>

<style type='text/css'>
<![CDATA[
[data-mouse-over-selected='false'] { opacity: 0.7; }
[data-mouse-over-selected='true']  { opacity: 1.0; }
]]>
</style>
<script type="application/ecmascript"><![CDATA[
document.addEventListener('DOMContentLoaded', (event) => {
  highlightEdges();
  highlightAdjacentNodes();
});
]]></script>
</svg>
