<?xml version="1.0" encoding="UTF-8" standalone="no"?>
<!DOCTYPE svg PUBLIC "-//W3C//DTD SVG 1.1//EN"
 "http://www.w3.org/Graphics/SVG/1.1/DTD/svg11.dtd">
<!-- Generated by graphviz version 2.43.0 (0)
 -->
<!-- Title: src/core/config/root_prepare.h Pages: 1 -->
<svg width="2189pt" height="104pt"
 viewBox="0.00 0.00 2189.00 104.00" xmlns="http://www.w3.org/2000/svg" xmlns:xlink="http://www.w3.org/1999/xlink">
<g id="graph0" class="graph" transform="scale(1 1) rotate(0) translate(4 100)">
<title>src/core/config/root_prepare.h</title>
<!-- Node1 -->
<g id="Node000001" class="node">
<title>Node1</title>
<g id="a_Node000001"><a xlink:title=" ">
<polygon fill="#999999" stroke="#666666" points="1153,-96 1043,-96 1043,-66 1153,-66 1153,-96"/>
<text text-anchor="start" x="1051" y="-84" font-family="Helvetica,sans-Serif" font-size="10.00">src/core/config/root</text>
<text text-anchor="middle" x="1098" y="-73" font-family="Helvetica,sans-Serif" font-size="10.00">_prepare.h</text>
</a>
</g>
</g>
<!-- Node2 -->
<g id="Node000002" class="node">
<title>Node2</title>
<g id="a_Node000002"><a xlink:href="root__prepare_8c.html" target="_top" xlink:title=" ">
<polygon fill="white" stroke="#666666" points="110,-30 0,-30 0,0 110,0 110,-30"/>
<text text-anchor="start" x="8" y="-18" font-family="Helvetica,sans-Serif" font-size="10.00">src/core/config/root</text>
<text text-anchor="middle" x="55" y="-7" font-family="Helvetica,sans-Serif" font-size="10.00">_prepare.c</text>
</a>
</g>
</g>
<!-- Node1&#45;&gt;Node2 -->
<g id="edge1_Node000001_Node000002" class="edge">
<title>Node1&#45;&gt;Node2</title>
<g id="a_edge1_Node000001_Node000002"><a xlink:title=" ">
<path fill="none" stroke="#63b8ff" d="M1032.76,-80.36C875.05,-80.42 460.87,-75.81 119,-30 116.07,-29.61 113.07,-29.15 110.06,-28.65"/>
<polygon fill="#63b8ff" stroke="#63b8ff" points="1032.78,-83.86 1042.78,-80.35 1032.77,-76.86 1032.78,-83.86"/>
</a>
</g>
</g>
<!-- Node3 -->
<g id="Node000003" class="node">
<title>Node3</title>
<g id="a_Node000003"><a xlink:href="runtime__server_8c.html" target="_top" xlink:title=" ">
<polygon fill="white" stroke="#666666" points="256,-30 128,-30 128,0 256,0 256,-30"/>
<text text-anchor="start" x="136" y="-18" font-family="Helvetica,sans-Serif" font-size="10.00">src/core/config/runtime</text>
<text text-anchor="middle" x="192" y="-7" font-family="Helvetica,sans-Serif" font-size="10.00">_server.c</text>
</a>
</g>
</g>
<!-- Node1&#45;&gt;Node3 -->
<g id="edge2_Node000001_Node000003" class="edge">
<title>Node1&#45;&gt;Node3</title>
<g id="a_edge2_Node000001_Node000003"><a xlink:title=" ">
<path fill="none" stroke="#63b8ff" d="M1032.5,-78.95C891.59,-76.06 549.34,-65.65 265,-30 262.06,-29.63 259.05,-29.21 256.02,-28.76"/>
<polygon fill="#63b8ff" stroke="#63b8ff" points="1032.63,-82.45 1042.7,-79.15 1032.77,-75.45 1032.63,-82.45"/>
</a>
</g>
</g>
<!-- Node4 -->
<g id="Node000004" class="node">
<title>Node4</title>
<g id="a_Node000004"><a xlink:href="runtime__server__backend_8c.html" target="_top" xlink:title=" ">
<polygon fill="white" stroke="#666666" points="402,-30 274,-30 274,0 402,0 402,-30"/>
<text text-anchor="start" x="282" y="-18" font-family="Helvetica,sans-Serif" font-size="10.00">src/core/config/runtime</text>
<text text-anchor="middle" x="338" y="-7" font-family="Helvetica,sans-Serif" font-size="10.00">_server_backend.c</text>
</a>
</g>
</g>
<!-- Node1&#45;&gt;Node4 -->
<g id="edge3_Node000001_Node000004" class="edge">
<title>Node1&#45;&gt;Node4</title>
<g id="a_edge3_Node000001_Node000004"><a xlink:title=" ">
<path fill="none" stroke="#63b8ff" d="M1032.23,-77.77C909.61,-73.05 637.95,-59.92 411,-30 408.06,-29.61 405.05,-29.18 402.03,-28.72"/>
<polygon fill="#63b8ff" stroke="#63b8ff" points="1032.44,-81.28 1042.57,-78.16 1032.71,-74.29 1032.44,-81.28"/>
</a>
</g>
</g>
<!-- Node5 -->
<g id="Node000005" class="node">
<title>Node5</title>
<g id="a_Node000005"><a xlink:href="runtime__server__backend__cache_8c.html" target="_top" xlink:title=" ">
<polygon fill="white" stroke="#666666" points="560,-30 420,-30 420,0 560,0 560,-30"/>
<text text-anchor="start" x="428" y="-18" font-family="Helvetica,sans-Serif" font-size="10.00">src/core/config/runtime</text>
<text text-anchor="middle" x="490" y="-7" font-family="Helvetica,sans-Serif" font-size="10.00">_server_backend_cache.c</text>
</a>
</g>
</g>
<!-- Node1&#45;&gt;Node5 -->
<g id="edge4_Node000001_Node000005" class="edge">
<title>Node1&#45;&gt;Node5</title>
<g id="a_edge4_Node000001_Node000005"><a xlink:title=" ">
<path fill="none" stroke="#63b8ff" d="M1032.35,-75.52C932.16,-68.29 735.2,-52.54 569,-30 566.1,-29.61 563.15,-29.18 560.16,-28.74"/>
<polygon fill="#63b8ff" stroke="#63b8ff" points="1032.39,-79.03 1042.62,-76.25 1032.89,-72.05 1032.39,-79.03"/>
</a>
</g>
</g>
<!-- Node6 -->
<g id="Node000006" class="node">
<title>Node6</title>
<g id="a_Node000006"><a xlink:href="runtime__server__backend__stage_8c.html" target="_top" xlink:title=" ">
<polygon fill="white" stroke="#666666" points="717.5,-30 578.5,-30 578.5,0 717.5,0 717.5,-30"/>
<text text-anchor="start" x="586.5" y="-18" font-family="Helvetica,sans-Serif" font-size="10.00">src/core/config/runtime</text>
<text text-anchor="middle" x="648" y="-7" font-family="Helvetica,sans-Serif" font-size="10.00">_server_backend_stage.c</text>
</a>
</g>
</g>
<!-- Node1&#45;&gt;Node6 -->
<g id="edge5_Node000001_Node000006" class="edge">
<title>Node1&#45;&gt;Node6</title>
<g id="a_edge5_Node000001_Node000006"><a xlink:title=" ">
<path fill="none" stroke="#63b8ff" d="M1032.59,-72.09C958.19,-62.89 833.14,-46.81 726,-30 723.28,-29.57 720.51,-29.13 717.72,-28.67"/>
<polygon fill="#63b8ff" stroke="#63b8ff" points="1032.39,-75.59 1042.74,-73.34 1033.24,-68.65 1032.39,-75.59"/>
</a>
</g>
</g>
<!-- Node7 -->
<g id="Node000007" class="node">
<title>Node7</title>
<g id="a_Node000007"><a xlink:href="tier__config_8c.html" target="_top" xlink:title=" ">
<polygon fill="white" stroke="#666666" points="860.5,-24.5 735.5,-24.5 735.5,-5.5 860.5,-5.5 860.5,-24.5"/>
<text text-anchor="middle" x="798" y="-12.5" font-family="Helvetica,sans-Serif" font-size="10.00">src/fs/tier/tier_config.c</text>
</a>
</g>
</g>
<!-- Node1&#45;&gt;Node7 -->
<g id="edge6_Node000001_Node000007" class="edge">
<title>Node1&#45;&gt;Node7</title>
<g id="a_edge6_Node000001_Node000007"><a xlink:title=" ">
<path fill="none" stroke="#63b8ff" d="M1032.97,-66.13C973.75,-53.49 888.15,-35.23 838.27,-24.59"/>
<polygon fill="#63b8ff" stroke="#63b8ff" points="1032.47,-69.6 1042.98,-68.26 1033.93,-62.75 1032.47,-69.6"/>
</a>
</g>
</g>
<!-- Node8 -->
<g id="Node000008" class="node">
<title>Node8</title>
<g id="a_Node000008"><a xlink:href="cvmfs__module__build_8c.html" target="_top" xlink:title=" ">
<polygon fill="white" stroke="#666666" points="1007.5,-30 878.5,-30 878.5,0 1007.5,0 1007.5,-30"/>
<text text-anchor="start" x="886.5" y="-18" font-family="Helvetica,sans-Serif" font-size="10.00">src/protocols/cvmfs</text>
<text text-anchor="middle" x="943" y="-7" font-family="Helvetica,sans-Serif" font-size="10.00">/cvmfs_module_build.c</text>
</a>
</g>
</g>
<!-- Node1&#45;&gt;Node8 -->
<g id="edge7_Node000001_Node000008" class="edge">
<title>Node1&#45;&gt;Node8</title>
<g id="a_edge7_Node000001_Node000008"><a xlink:title=" ">
<path fill="none" stroke="#63b8ff" d="M1054.54,-62.05C1029.98,-51.91 999.73,-39.43 976.94,-30.01"/>
<polygon fill="#63b8ff" stroke="#63b8ff" points="1053.41,-65.37 1063.98,-65.95 1056.08,-58.9 1053.41,-65.37"/>
</a>
</g>
</g>
<!-- Node9 -->
<g id="Node000009" class="node">
<title>Node9</title>
<g id="a_Node000009"><a xlink:href="cvmfs__module__georank_8c.html" target="_top" xlink:title=" ">
<polygon fill="white" stroke="#666666" points="1170.5,-30 1025.5,-30 1025.5,0 1170.5,0 1170.5,-30"/>
<text text-anchor="start" x="1033.5" y="-18" font-family="Helvetica,sans-Serif" font-size="10.00">src/protocols/cvmfs</text>
<text text-anchor="middle" x="1098" y="-7" font-family="Helvetica,sans-Serif" font-size="10.00">/cvmfs_module_georank.c</text>
</a>
</g>
</g>
<!-- Node1&#45;&gt;Node9 -->
<g id="edge8_Node000001_Node000009" class="edge">
<title>Node1&#45;&gt;Node9</title>
<g id="a_edge8_Node000001_Node000009"><a xlink:title=" ">
<path fill="none" stroke="#63b8ff" d="M1098,-55.54C1098,-46.96 1098,-37.61 1098,-30.16"/>
<polygon fill="#63b8ff" stroke="#63b8ff" points="1094.5,-55.8 1098,-65.8 1101.5,-55.8 1094.5,-55.8"/>
</a>
</g>
</g>
<!-- Node10 -->
<g id="Node000010" class="node">
<title>Node10</title>
<g id="a_Node000010"><a xlink:href="cvmfs__module__merge_8c.html" target="_top" xlink:title=" ">
<polygon fill="white" stroke="#666666" points="1325.5,-30 1188.5,-30 1188.5,0 1325.5,0 1325.5,-30"/>
<text text-anchor="start" x="1196.5" y="-18" font-family="Helvetica,sans-Serif" font-size="10.00">src/protocols/cvmfs</text>
<text text-anchor="middle" x="1257" y="-7" font-family="Helvetica,sans-Serif" font-size="10.00">/cvmfs_module_merge.c</text>
</a>
</g>
</g>
<!-- Node1&#45;&gt;Node10 -->
<g id="edge9_Node000001_Node000010" class="edge">
<title>Node1&#45;&gt;Node10</title>
<g id="a_edge9_Node000001_Node000010"><a xlink:title=" ">
<path fill="none" stroke="#63b8ff" d="M1142.25,-62.19C1167.5,-52.02 1198.7,-39.47 1222.19,-30.01"/>
<polygon fill="#63b8ff" stroke="#63b8ff" points="1140.86,-58.97 1132.89,-65.95 1143.48,-65.47 1140.86,-58.97"/>
</a>
</g>
</g>
<!-- Node11 -->
<g id="Node000011" class="node">
<title>Node11</title>
<g id="a_Node000011"><a xlink:href="protocols_2cvmfs_2module_8c.html" target="_top" xlink:title=" ">
<polygon fill="white" stroke="#666666" points="1456,-30 1344,-30 1344,0 1456,0 1456,-30"/>
<text text-anchor="start" x="1352" y="-18" font-family="Helvetica,sans-Serif" font-size="10.00">src/protocols/cvmfs</text>
<text text-anchor="middle" x="1400" y="-7" font-family="Helvetica,sans-Serif" font-size="10.00">/module.c</text>
</a>
</g>
</g>
<!-- Node1&#45;&gt;Node11 -->
<g id="edge10_Node000001_Node000011" class="edge">
<title>Node1&#45;&gt;Node11</title>
<g id="a_edge10_Node000001_Node000011"><a xlink:title=" ">
<path fill="none" stroke="#63b8ff" d="M1162.96,-66.37C1210.59,-56.36 1276.83,-42.4 1335,-30 1337.94,-29.37 1340.94,-28.73 1343.98,-28.08"/>
<polygon fill="#63b8ff" stroke="#63b8ff" points="1162.15,-62.97 1153.09,-68.45 1163.59,-69.82 1162.15,-62.97"/>
</a>
</g>
</g>
<!-- Node12 -->
<g id="Node000012" class="node">
<title>Node12</title>
<g id="a_Node000012"><a xlink:href="protocols_2s3_2module_8c.html" target="_top" xlink:title=" ">
<polygon fill="white" stroke="#666666" points="1615.5,-24.5 1474.5,-24.5 1474.5,-5.5 1615.5,-5.5 1615.5,-24.5"/>
<text text-anchor="middle" x="1545" y="-12.5" font-family="Helvetica,sans-Serif" font-size="10.00">src/protocols/s3/module.c</text>
</a>
</g>
</g>
<!-- Node1&#45;&gt;Node12 -->
<g id="edge11_Node000001_Node000012" class="edge">
<title>Node1&#45;&gt;Node12</title>
<g id="a_edge11_Node000001_Node000012"><a xlink:title=" ">
<path fill="none" stroke="#63b8ff" d="M1163.15,-71.88C1236.61,-62.55 1359.56,-46.4 1465,-30 1475.73,-28.33 1487.24,-26.4 1498.09,-24.51"/>
<polygon fill="#63b8ff" stroke="#63b8ff" points="1162.6,-68.42 1153.12,-73.15 1163.48,-75.37 1162.6,-68.42"/>
</a>
</g>
</g>
<!-- Node13 -->
<g id="Node000013" class="node">
<title>Node13</title>
<g id="a_Node000013"><a xlink:href="module__merge_8c.html" target="_top" xlink:title=" ">
<polygon fill="white" stroke="#666666" points="1766.5,-30 1633.5,-30 1633.5,0 1766.5,0 1766.5,-30"/>
<text text-anchor="start" x="1641.5" y="-18" font-family="Helvetica,sans-Serif" font-size="10.00">src/protocols/s3/module</text>
<text text-anchor="middle" x="1700" y="-7" font-family="Helvetica,sans-Serif" font-size="10.00">_merge.c</text>
</a>
</g>
</g>
<!-- Node1&#45;&gt;Node13 -->
<g id="edge12_Node000001_Node000013" class="edge">
<title>Node1&#45;&gt;Node13</title>
<g id="a_edge12_Node000001_Node000013"><a xlink:title=" ">
<path fill="none" stroke="#63b8ff" d="M1163.43,-75.69C1263.28,-68.69 1459.53,-53.25 1625,-30 1627.75,-29.61 1630.56,-29.2 1633.39,-28.75"/>
<polygon fill="#63b8ff" stroke="#63b8ff" points="1162.93,-72.22 1153.2,-76.4 1163.41,-79.2 1162.93,-72.22"/>
</a>
</g>
</g>
<!-- Node14 -->
<g id="Node000014" class="node">
<title>Node14</title>
<g id="a_Node000014"><a xlink:href="protocols_2webdav_2config_8c.html" target="_top" xlink:title=" ">
<polygon fill="white" stroke="#666666" points="1905,-30 1785,-30 1785,0 1905,0 1905,-30"/>
<text text-anchor="start" x="1793" y="-18" font-family="Helvetica,sans-Serif" font-size="10.00">src/protocols/webdav</text>
<text text-anchor="middle" x="1845" y="-7" font-family="Helvetica,sans-Serif" font-size="10.00">/config.c</text>
</a>
</g>
</g>
<!-- Node1&#45;&gt;Node14 -->
<g id="edge13_Node000001_Node000014" class="edge">
<title>Node1&#45;&gt;Node14</title>
<g id="a_edge13_Node000001_Node000014"><a xlink:title=" ">
<path fill="none" stroke="#63b8ff" d="M1163.4,-77.93C1284.68,-73.48 1552.47,-60.79 1776,-30 1778.91,-29.6 1781.87,-29.15 1784.87,-28.67"/>
<polygon fill="#63b8ff" stroke="#63b8ff" points="1163.04,-74.44 1153.17,-78.3 1163.29,-81.44 1163.04,-74.44"/>
</a>
</g>
</g>
<!-- Node15 -->
<g id="Node000015" class="node">
<title>Node15</title>
<g id="a_Node000015"><a xlink:href="config__merge_8c.html" target="_top" xlink:title=" ">
<polygon fill="white" stroke="#666666" points="2043,-30 1923,-30 1923,0 2043,0 2043,-30"/>
<text text-anchor="start" x="1931" y="-18" font-family="Helvetica,sans-Serif" font-size="10.00">src/protocols/webdav</text>
<text text-anchor="middle" x="1983" y="-7" font-family="Helvetica,sans-Serif" font-size="10.00">/config_merge.c</text>
</a>
</g>
</g>
<!-- Node1&#45;&gt;Node15 -->
<g id="edge14_Node000001_Node000015" class="edge">
<title>Node1&#45;&gt;Node15</title>
<g id="a_edge14_Node000001_Node000015"><a xlink:title=" ">
<path fill="none" stroke="#63b8ff" d="M1163.21,-79.08C1301.94,-76.44 1636.34,-66.5 1914,-30 1916.91,-29.62 1919.88,-29.18 1922.87,-28.71"/>
<polygon fill="#63b8ff" stroke="#63b8ff" points="1163.11,-75.58 1153.17,-79.26 1163.23,-82.58 1163.11,-75.58"/>
</a>
</g>
</g>
<!-- Node16 -->
<g id="Node000016" class="node">
<title>Node16</title>
<g id="a_Node000016"><a xlink:href="config__proxy_8c.html" target="_top" xlink:title=" ">
<polygon fill="white" stroke="#666666" points="2181,-30 2061,-30 2061,0 2181,0 2181,-30"/>
<text text-anchor="start" x="2069" y="-18" font-family="Helvetica,sans-Serif" font-size="10.00">src/protocols/webdav</text>
<text text-anchor="middle" x="2121" y="-7" font-family="Helvetica,sans-Serif" font-size="10.00">/config_proxy.c</text>
</a>
</g>
</g>
<!-- Node1&#45;&gt;Node16 -->
<g id="edge15_Node000001_Node000016" class="edge">
<title>Node1&#45;&gt;Node16</title>
<g id="a_edge15_Node000001_Node000016"><a xlink:title=" ">
<path fill="none" stroke="#63b8ff" d="M1163.39,-79.89C1318.36,-78.92 1719.87,-72.16 2052,-30 2054.91,-29.63 2057.88,-29.21 2060.88,-28.74"/>
<polygon fill="#63b8ff" stroke="#63b8ff" points="1163.08,-76.4 1153.1,-79.95 1163.12,-83.4 1163.08,-76.4"/>
</a>
</g>
</g>
</g>
</svg>
