<?xml version="1.0" encoding="UTF-8" standalone="no"?>
<!DOCTYPE svg PUBLIC "-//W3C//DTD SVG 1.1//EN"
 "http://www.w3.org/Graphics/SVG/1.1/DTD/svg11.dtd">
<!-- Generated by graphviz version 2.43.0 (0)
 -->
<!-- Title: src/net/cms/rrdata.h Pages: 1 -->
<svg width="721pt" height="159pt"
 viewBox="0.00 0.00 721.00 159.00" xmlns="http://www.w3.org/2000/svg" xmlns:xlink="http://www.w3.org/1999/xlink">
<g id="graph0" class="graph" transform="scale(1 1) rotate(0) translate(4 155)">
<title>src/net/cms/rrdata.h</title>
<!-- Node1 -->
<g id="Node000001" class="node">
<title>Node1</title>
<g id="a_Node000001"><a xlink:title=" ">
<polygon fill="#999999" stroke="#666666" points="422.5,-151 308.5,-151 308.5,-132 422.5,-132 422.5,-151"/>
<text text-anchor="middle" x="365.5" y="-139" font-family="Helvetica,sans-Serif" font-size="10.00">src/net/cms/rrdata.h</text>
</a>
</g>
</g>
<!-- Node2 -->
<g id="Node000002" class="node">
<title>Node2</title>
<g id="a_Node000002"><a xlink:href="forward_8c.html" target="_top" xlink:title=" ">
<polygon fill="white" stroke="#666666" points="145.5,-90.5 23.5,-90.5 23.5,-71.5 145.5,-71.5 145.5,-90.5"/>
<text text-anchor="middle" x="84.5" y="-78.5" font-family="Helvetica,sans-Serif" font-size="10.00">src/net/cms/forward.c</text>
</a>
</g>
</g>
<!-- Node1&#45;&gt;Node2 -->
<g id="edge1_Node000001_Node000002" class="edge">
<title>Node1&#45;&gt;Node2</title>
<g id="a_edge1_Node000001_Node000002"><a xlink:title=" ">
<path fill="none" stroke="#63b8ff" d="M314.55,-129.89C260.29,-118.6 175.48,-100.94 125.41,-90.52"/>
<polygon fill="#63b8ff" stroke="#63b8ff" points="314.14,-133.38 324.64,-131.99 315.56,-126.53 314.14,-133.38"/>
</a>
</g>
</g>
<!-- Node3 -->
<g id="Node000003" class="node">
<title>Node3</title>
<g id="a_Node000003"><a xlink:href="node__ops_8h.html" target="_top" xlink:title=" ">
<polygon fill="white" stroke="#666666" points="295,-90.5 164,-90.5 164,-71.5 295,-71.5 295,-90.5"/>
<text text-anchor="middle" x="229.5" y="-78.5" font-family="Helvetica,sans-Serif" font-size="10.00">src/net/cms/node_ops.h</text>
</a>
</g>
</g>
<!-- Node1&#45;&gt;Node3 -->
<g id="edge2_Node000001_Node000003" class="edge">
<title>Node1&#45;&gt;Node3</title>
<g id="a_edge2_Node000001_Node000003"><a xlink:title=" ">
<path fill="none" stroke="#63b8ff" d="M336.28,-127.93C310.02,-116.64 272.17,-100.36 249.3,-90.52"/>
<polygon fill="#63b8ff" stroke="#63b8ff" points="335.16,-131.26 345.72,-131.99 337.92,-124.83 335.16,-131.26"/>
</a>
</g>
</g>
<!-- Node6 -->
<g id="Node000006" class="node">
<title>Node6</title>
<g id="a_Node000006"><a xlink:href="net_2cms_2recv_8c.html" target="_top" xlink:title=" ">
<polygon fill="white" stroke="#666666" points="393.5,-24.5 289.5,-24.5 289.5,-5.5 393.5,-5.5 393.5,-24.5"/>
<text text-anchor="middle" x="341.5" y="-12.5" font-family="Helvetica,sans-Serif" font-size="10.00">src/net/cms/recv.c</text>
</a>
</g>
</g>
<!-- Node1&#45;&gt;Node6 -->
<g id="edge6_Node000001_Node000006" class="edge">
<title>Node1&#45;&gt;Node6</title>
<g id="a_edge6_Node000001_Node000006"><a xlink:title=" ">
<path fill="none" stroke="#63b8ff" d="M354.68,-123.06C350.34,-115.12 345.82,-105.4 343.5,-96 337.24,-70.64 339.1,-39.38 340.52,-24.57"/>
<polygon fill="#63b8ff" stroke="#63b8ff" points="351.68,-124.86 359.73,-131.74 357.73,-121.34 351.68,-124.86"/>
</a>
</g>
</g>
<!-- Node7 -->
<g id="Node000007" class="node">
<title>Node7</title>
<g id="a_Node000007"><a xlink:href="rrdata_8c.html" target="_top" xlink:title=" ">
<polygon fill="white" stroke="#666666" points="465,-90.5 352,-90.5 352,-71.5 465,-71.5 465,-90.5"/>
<text text-anchor="middle" x="408.5" y="-78.5" font-family="Helvetica,sans-Serif" font-size="10.00">src/net/cms/rrdata.c</text>
</a>
</g>
</g>
<!-- Node1&#45;&gt;Node7 -->
<g id="edge7_Node000001_Node000007" class="edge">
<title>Node1&#45;&gt;Node7</title>
<g id="a_edge7_Node000001_Node000007"><a xlink:title=" ">
<path fill="none" stroke="#63b8ff" d="M377.9,-123.63C385.82,-112.85 395.77,-99.32 402.13,-90.67"/>
<polygon fill="#63b8ff" stroke="#63b8ff" points="374.95,-121.74 371.84,-131.87 380.59,-125.88 374.95,-121.74"/>
</a>
</g>
</g>
<!-- Node8 -->
<g id="Node000008" class="node">
<title>Node8</title>
<g id="a_Node000008"><a xlink:href="rrdata__unittest_8c.html" target="_top" xlink:title=" ">
<polygon fill="white" stroke="#666666" points="588,-96 483,-96 483,-66 588,-66 588,-96"/>
<text text-anchor="start" x="491" y="-84" font-family="Helvetica,sans-Serif" font-size="10.00">src/net/cms/rrdata</text>
<text text-anchor="middle" x="535.5" y="-73" font-family="Helvetica,sans-Serif" font-size="10.00">_unittest.c</text>
</a>
</g>
</g>
<!-- Node1&#45;&gt;Node8 -->
<g id="edge8_Node000001_Node000008" class="edge">
<title>Node1&#45;&gt;Node8</title>
<g id="a_edge8_Node000001_Node000008"><a xlink:title=" ">
<path fill="none" stroke="#63b8ff" d="M399.77,-128.71C427.16,-119.28 465.64,-106.04 494.63,-96.06"/>
<polygon fill="#63b8ff" stroke="#63b8ff" points="398.54,-125.43 390.22,-131.99 400.81,-132.05 398.54,-125.43"/>
</a>
</g>
</g>
<!-- Node9 -->
<g id="Node000009" class="node">
<title>Node9</title>
<g id="a_Node000009"><a xlink:href="server__recv_8c.html" target="_top" xlink:title=" ">
<polygon fill="white" stroke="#666666" points="713,-96 606,-96 606,-66 713,-66 713,-96"/>
<text text-anchor="start" x="614" y="-84" font-family="Helvetica,sans-Serif" font-size="10.00">src/net/cms/server</text>
<text text-anchor="middle" x="659.5" y="-73" font-family="Helvetica,sans-Serif" font-size="10.00">_recv.c</text>
</a>
</g>
</g>
<!-- Node1&#45;&gt;Node9 -->
<g id="edge9_Node000001_Node000009" class="edge">
<title>Node1&#45;&gt;Node9</title>
<g id="a_edge9_Node000001_Node000009"><a xlink:title=" ">
<path fill="none" stroke="#63b8ff" d="M422.24,-130.15C469.28,-121.44 537.84,-108.45 597.5,-96 600.2,-95.44 602.96,-94.85 605.75,-94.25"/>
<polygon fill="#63b8ff" stroke="#63b8ff" points="421.45,-126.74 412.25,-132 422.72,-133.62 421.45,-126.74"/>
</a>
</g>
</g>
<!-- Node4 -->
<g id="Node000004" class="node">
<title>Node4</title>
<g id="a_Node000004"><a xlink:href="node__ops_8c.html" target="_top" xlink:title=" ">
<polygon fill="white" stroke="#666666" points="131,-24.5 0,-24.5 0,-5.5 131,-5.5 131,-24.5"/>
<text text-anchor="middle" x="65.5" y="-12.5" font-family="Helvetica,sans-Serif" font-size="10.00">src/net/cms/node_ops.c</text>
</a>
</g>
</g>
<!-- Node3&#45;&gt;Node4 -->
<g id="edge3_Node000003_Node000004" class="edge">
<title>Node3&#45;&gt;Node4</title>
<g id="a_edge3_Node000003_Node000004"><a xlink:title=" ">
<path fill="none" stroke="#63b8ff" d="M197.92,-67.68C165.51,-55.03 115.93,-35.68 87.53,-24.6"/>
<polygon fill="#63b8ff" stroke="#63b8ff" points="196.79,-70.99 207.38,-71.37 199.34,-64.47 196.79,-70.99"/>
</a>
</g>
</g>
<!-- Node5 -->
<g id="Node000005" class="node">
<title>Node5</title>
<g id="a_Node000005"><a xlink:href="node__ops__unittest_8c.html" target="_top" xlink:title=" ">
<polygon fill="white" stroke="#666666" points="271.5,-30 149.5,-30 149.5,0 271.5,0 271.5,-30"/>
<text text-anchor="start" x="157.5" y="-18" font-family="Helvetica,sans-Serif" font-size="10.00">src/net/cms/node_ops</text>
<text text-anchor="middle" x="210.5" y="-7" font-family="Helvetica,sans-Serif" font-size="10.00">_unittest.c</text>
</a>
</g>
</g>
<!-- Node3&#45;&gt;Node5 -->
<g id="edge4_Node000003_Node000005" class="edge">
<title>Node3&#45;&gt;Node5</title>
<g id="a_edge4_Node000003_Node000005"><a xlink:title=" ">
<path fill="none" stroke="#63b8ff" d="M224.06,-61.67C221.11,-51.72 217.51,-39.61 214.76,-30.36"/>
<polygon fill="#63b8ff" stroke="#63b8ff" points="220.74,-62.78 226.94,-71.37 227.45,-60.79 220.74,-62.78"/>
</a>
</g>
</g>
<!-- Node3&#45;&gt;Node6 -->
<g id="edge5_Node000003_Node000006" class="edge">
<title>Node3&#45;&gt;Node6</title>
<g id="a_edge5_Node000003_Node000006"><a xlink:title=" ">
<path fill="none" stroke="#63b8ff" d="M253.37,-66.36C275.42,-53.76 307.52,-35.42 326.28,-24.7"/>
<polygon fill="#63b8ff" stroke="#63b8ff" points="251.55,-63.37 244.6,-71.37 255.02,-69.45 251.55,-63.37"/>
</a>
</g>
</g>
</g>
</svg>
