<?xml version="1.0" encoding="UTF-8" standalone="no"?>
<!DOCTYPE svg PUBLIC "-//W3C//DTD SVG 1.1//EN"
 "http://www.w3.org/Graphics/SVG/1.1/DTD/svg11.dtd">
<!-- Generated by graphviz version 2.43.0 (0)
 -->
<!-- Title: src/protocols/s3/s3_auth_internal.h Pages: 1 -->
<!--zoomable 170 -->

<svg id="main" version="1.1" xmlns="http://www.w3.org/2000/svg" xmlns:xlink="http://www.w3.org/1999/xlink" xml:space="preserve" onload="init(evt)">
<style type="text/css"><![CDATA[
.node, .edge {opacity: 0.7;}
.node.selected, .edge.selected {opacity: 1;}
.edge:hover path { stroke: red; }
.edge:hover polygon { stroke: red; fill: red; }
]]></style>

<defs>
  <circle id="rim" cx="0" cy="0" r="7"/>
  <circle id="rim2" cx="0" cy="0" r="3.5"/>
  <g id="zoomPlus">
    <use xlink:href="#rim" fill="#404040"><set attributeName="fill" to="#808080" begin="zoomplus.mouseover" end="zoomplus.mouseout"/></use>
    <path d="M-4,0h8M0,-4v8" fill="none" stroke="white" stroke-width="1.5" pointer-events="none"/>
  </g>
  <g id="zoomMin">
    <use xlink:href="#rim" fill="#404040"><set attributeName="fill" to="#808080" begin="zoomminus.mouseover" end="zoomminus.mouseout"/></use>
    <path d="M-4,0h8" fill="none" stroke="white" stroke-width="1.5" pointer-events="none"/>
  </g>
  <g id="arrowUp" transform="translate(30 24)">
    <use xlink:href="#rim"/>
    <path pointer-events="none" fill="none" stroke="white" stroke-width="1.5" d="M0,-3.0v7 M-2.5,-0.5L0,-3.0L2.5,-0.5"/>
  </g>
  <g id="arrowRight" transform="rotate(90) translate(36 -43)">
    <use xlink:href="#rim"/>
    <path pointer-events="none" fill="none" stroke="white" stroke-width="1.5" d="M0,-3.0v7 M-2.5,-0.5L0,-3.0L2.5,-0.5"/>
  </g>
  <g id="arrowDown" transform="rotate(180) translate(-30 -48)">
    <use xlink:href="#rim"/>
    <path pointer-events="none" fill="none" stroke="white" stroke-width="1.5" d="M0,-3.0v7 M-2.5,-0.5L0,-3.0L2.5,-0.5"/>
  </g>
  <g id="arrowLeft" transform="rotate(270) translate(-36 17)">
    <use xlink:href="#rim"/>
    <path pointer-events="none" fill="none" stroke="white" stroke-width="1.5" d="M0,-3.0v7 M-2.5,-0.5L0,-3.0L2.5,-0.5"/>
  </g>
  <g id="resetDef">
    <use xlink:href="#rim2" fill="#404040"><set attributeName="fill" to="#808080" begin="reset.mouseover" end="reset.mouseout"/></use>
  </g>
</defs>
<script type="application/ecmascript">
var viewWidth = 989;
var viewHeight = 170;
var sectionId = 'dynsection-0';
</script>
<script type="application/ecmascript" xlink:href="svg.min.js"/>
<svg id="graph" class="graph">
<g id="viewport">
<title>src/protocols/s3/s3_auth_internal.h</title>
<!-- Node1 -->
<g id="Node000001" class="node">
<title>Node1</title>
<g id="a_Node000001"><a xlink:title=" ">
<polygon fill="#999999" stroke="#666666" points="341.5,-162 234.5,-162 234.5,-132 341.5,-132 341.5,-162"/>
<text text-anchor="start" x="242.5" y="-150" font-family="Helvetica,sans-Serif" font-size="10.00">src/protocols/s3/s3</text>
<text text-anchor="middle" x="288" y="-139" font-family="Helvetica,sans-Serif" font-size="10.00">_auth_internal.h</text>
</a>
</g>
</g>
<!-- Node2 -->
<g id="Node000002" class="node">
<title>Node2</title>
<g id="a_Node000002"><a xlink:href="auth__sigv4__parse_8c.html" target="_top" xlink:title=" ">
<polygon fill="white" stroke="#666666" points="118,-96 0,-96 0,-66 118,-66 118,-96"/>
<text text-anchor="start" x="8" y="-84" font-family="Helvetica,sans-Serif" font-size="10.00">src/protocols/s3/auth</text>
<text text-anchor="middle" x="59" y="-73" font-family="Helvetica,sans-Serif" font-size="10.00">_sigv4_parse.c</text>
</a>
</g>
</g>
<!-- Node1&#45;&gt;Node2 -->
<g id="edge1_Node000001_Node000002" class="edge">
<title>Node1&#45;&gt;Node2</title>
<g id="a_edge1_Node000001_Node000002"><a xlink:title=" ">
<path fill="none" stroke="#63b8ff" d="M228.08,-129.25C191.08,-118.91 144.16,-105.8 109.14,-96.01"/>
<polygon fill="#63b8ff" stroke="#63b8ff" points="227.17,-132.63 237.74,-131.95 229.06,-125.89 227.17,-132.63"/>
</a>
</g>
</g>
<!-- Node3 -->
<g id="Node000003" class="node">
<title>Node3</title>
<g id="a_Node000003"><a xlink:href="auth__sigv4__verify_8c.html" target="_top" xlink:title=" ">
<polygon fill="white" stroke="#666666" points="160,-30 42,-30 42,0 160,0 160,-30"/>
<text text-anchor="start" x="50" y="-18" font-family="Helvetica,sans-Serif" font-size="10.00">src/protocols/s3/auth</text>
<text text-anchor="middle" x="101" y="-7" font-family="Helvetica,sans-Serif" font-size="10.00">_sigv4_verify.c</text>
</a>
</g>
</g>
<!-- Node1&#45;&gt;Node3 -->
<g id="edge2_Node000001_Node000003" class="edge">
<title>Node1&#45;&gt;Node3</title>
<g id="a_edge2_Node000001_Node000003"><a xlink:title=" ">
<path fill="none" stroke="#63b8ff" d="M227.87,-128.53C206.75,-120.65 183.66,-109.93 165,-96 140.48,-77.7 120.02,-47.88 109.23,-30.28"/>
<polygon fill="#63b8ff" stroke="#63b8ff" points="226.81,-131.87 237.41,-131.95 229.18,-125.28 226.81,-131.87"/>
</a>
</g>
</g>
<!-- Node4 -->
<g id="Node000004" class="node">
<title>Node4</title>
<g id="a_Node000004"><a xlink:href="auth__sigv4__verify__crypto_8c.html" target="_top" xlink:title=" ">
<polygon fill="white" stroke="#666666" points="303.5,-30 178.5,-30 178.5,0 303.5,0 303.5,-30"/>
<text text-anchor="start" x="186.5" y="-18" font-family="Helvetica,sans-Serif" font-size="10.00">src/protocols/s3/auth</text>
<text text-anchor="middle" x="241" y="-7" font-family="Helvetica,sans-Serif" font-size="10.00">_sigv4_verify_crypto.c</text>
</a>
</g>
</g>
<!-- Node1&#45;&gt;Node4 -->
<g id="edge3_Node000001_Node000004" class="edge">
<title>Node1&#45;&gt;Node4</title>
<g id="a_edge3_Node000001_Node000004"><a xlink:title=" ">
<path fill="none" stroke="#63b8ff" d="M305.63,-123.41C316.2,-106.94 325.84,-84.39 316,-66 307.43,-50 291.23,-38.23 276.07,-30.15"/>
<polygon fill="#63b8ff" stroke="#63b8ff" points="302.59,-121.65 299.79,-131.87 308.35,-125.63 302.59,-121.65"/>
</a>
</g>
</g>
<!-- Node5 -->
<g id="Node000005" class="node">
<title>Node5</title>
<g id="a_Node000005"><a xlink:href="auth__sigv4__verify__internal_8h.html" target="_top" xlink:title=" ">
<polygon fill="white" stroke="#666666" points="307.5,-96 174.5,-96 174.5,-66 307.5,-66 307.5,-96"/>
<text text-anchor="start" x="182.5" y="-84" font-family="Helvetica,sans-Serif" font-size="10.00">src/protocols/s3/auth</text>
<text text-anchor="middle" x="241" y="-73" font-family="Helvetica,sans-Serif" font-size="10.00">_sigv4_verify_internal.h</text>
</a>
</g>
</g>
<!-- Node1&#45;&gt;Node5 -->
<g id="edge4_Node000001_Node000005" class="edge">
<title>Node1&#45;&gt;Node5</title>
<g id="a_edge4_Node000001_Node000005"><a xlink:title=" ">
<path fill="none" stroke="#63b8ff" d="M271.5,-123.53C264.81,-114.43 257.3,-104.19 251.4,-96.16"/>
<polygon fill="#63b8ff" stroke="#63b8ff" points="268.83,-125.81 277.57,-131.8 274.47,-121.66 268.83,-125.81"/>
</a>
</g>
</g>
<!-- Node6 -->
<g id="Node000006" class="node">
<title>Node6</title>
<g id="a_Node000006"><a xlink:href="auth__sigv4__verify__time_8c.html" target="_top" xlink:title=" ">
<polygon fill="white" stroke="#666666" points="440,-30 322,-30 322,0 440,0 440,-30"/>
<text text-anchor="start" x="330" y="-18" font-family="Helvetica,sans-Serif" font-size="10.00">src/protocols/s3/auth</text>
<text text-anchor="middle" x="381" y="-7" font-family="Helvetica,sans-Serif" font-size="10.00">_sigv4_verify_time.c</text>
</a>
</g>
</g>
<!-- Node1&#45;&gt;Node6 -->
<g id="edge8_Node000001_Node000006" class="edge">
<title>Node1&#45;&gt;Node6</title>
<g id="a_edge8_Node000001_Node000006"><a xlink:title=" ">
<path fill="none" stroke="#63b8ff" d="M309.09,-124.41C316.98,-115.87 325.77,-105.78 333,-96 349.18,-74.12 364.79,-46.5 373.62,-30.1"/>
<polygon fill="#63b8ff" stroke="#63b8ff" points="306.48,-122.08 302.17,-131.76 311.57,-126.88 306.48,-122.08"/>
</a>
</g>
</g>
<!-- Node7 -->
<g id="Node000007" class="node">
<title>Node7</title>
<g id="a_Node000007"><a xlink:href="s3__post__internal_8h.html" target="_top" xlink:title=" ">
<polygon fill="white" stroke="#666666" points="705.5,-96 598.5,-96 598.5,-66 705.5,-66 705.5,-96"/>
<text text-anchor="start" x="606.5" y="-84" font-family="Helvetica,sans-Serif" font-size="10.00">src/protocols/s3/s3</text>
<text text-anchor="middle" x="652" y="-73" font-family="Helvetica,sans-Serif" font-size="10.00">_post_internal.h</text>
</a>
</g>
</g>
<!-- Node1&#45;&gt;Node7 -->
<g id="edge9_Node000001_Node000007" class="edge">
<title>Node1&#45;&gt;Node7</title>
<g id="a_edge9_Node000001_Node000007"><a xlink:title=" ">
<path fill="none" stroke="#63b8ff" d="M351.72,-134.8C421.66,-122.5 532.71,-102.97 598.37,-91.43"/>
<polygon fill="#63b8ff" stroke="#63b8ff" points="350.95,-131.38 341.71,-136.56 352.16,-138.27 350.95,-131.38"/>
</a>
</g>
</g>
<!-- Node5&#45;&gt;Node3 -->
<g id="edge5_Node000005_Node000003" class="edge">
<title>Node5&#45;&gt;Node3</title>
<g id="a_edge5_Node000005_Node000003"><a xlink:title=" ">
<path fill="none" stroke="#63b8ff" d="M201.15,-61.78C179.08,-51.69 152.06,-39.34 131.65,-30.01"/>
<polygon fill="#63b8ff" stroke="#63b8ff" points="199.73,-64.98 210.28,-65.95 202.64,-58.61 199.73,-64.98"/>
</a>
</g>
</g>
<!-- Node5&#45;&gt;Node4 -->
<g id="edge6_Node000005_Node000004" class="edge">
<title>Node5&#45;&gt;Node4</title>
<g id="a_edge6_Node000005_Node000004"><a xlink:title=" ">
<path fill="none" stroke="#63b8ff" d="M241,-55.54C241,-46.96 241,-37.61 241,-30.16"/>
<polygon fill="#63b8ff" stroke="#63b8ff" points="237.5,-55.8 241,-65.8 244.5,-55.8 237.5,-55.8"/>
</a>
</g>
</g>
<!-- Node5&#45;&gt;Node6 -->
<g id="edge7_Node000005_Node000006" class="edge">
<title>Node5&#45;&gt;Node6</title>
<g id="a_edge7_Node000005_Node000006"><a xlink:title=" ">
<path fill="none" stroke="#63b8ff" d="M280.85,-61.78C302.92,-51.69 329.94,-39.34 350.35,-30.01"/>
<polygon fill="#63b8ff" stroke="#63b8ff" points="279.36,-58.61 271.72,-65.95 282.27,-64.98 279.36,-58.61"/>
</a>
</g>
</g>
<!-- Node8 -->
<g id="Node000008" class="node">
<title>Node8</title>
<g id="a_Node000008"><a xlink:href="post__form_8c.html" target="_top" xlink:title=" ">
<polygon fill="white" stroke="#666666" points="980.5,-30 863.5,-30 863.5,0 980.5,0 980.5,-30"/>
<text text-anchor="start" x="871.5" y="-18" font-family="Helvetica,sans-Serif" font-size="10.00">src/protocols/s3/post</text>
<text text-anchor="middle" x="922" y="-7" font-family="Helvetica,sans-Serif" font-size="10.00">_form.c</text>
</a>
</g>
</g>
<!-- Node7&#45;&gt;Node8 -->
<g id="edge10_Node000007_Node000008" class="edge">
<title>Node7&#45;&gt;Node8</title>
<g id="a_edge10_Node000007_Node000008"><a xlink:title=" ">
<path fill="none" stroke="#63b8ff" d="M715.55,-64.94C760.27,-54.34 819.68,-40.25 863.28,-29.92"/>
<polygon fill="#63b8ff" stroke="#63b8ff" points="714.59,-61.57 705.67,-67.28 716.2,-68.38 714.59,-61.57"/>
</a>
</g>
</g>
<!-- Node9 -->
<g id="Node000009" class="node">
<title>Node9</title>
<g id="a_Node000009"><a xlink:href="post__object_8c.html" target="_top" xlink:title=" ">
<polygon fill="white" stroke="#666666" points="575.5,-30 458.5,-30 458.5,0 575.5,0 575.5,-30"/>
<text text-anchor="start" x="466.5" y="-18" font-family="Helvetica,sans-Serif" font-size="10.00">src/protocols/s3/post</text>
<text text-anchor="middle" x="517" y="-7" font-family="Helvetica,sans-Serif" font-size="10.00">_object.c</text>
</a>
</g>
</g>
<!-- Node7&#45;&gt;Node9 -->
<g id="edge11_Node000007_Node000009" class="edge">
<title>Node7&#45;&gt;Node9</title>
<g id="a_edge11_Node000007_Node000009"><a xlink:title=" ">
<path fill="none" stroke="#63b8ff" d="M613.29,-61.65C592.06,-51.58 566.15,-39.3 546.56,-30.01"/>
<polygon fill="#63b8ff" stroke="#63b8ff" points="611.84,-64.83 622.37,-65.95 614.84,-58.51 611.84,-64.83"/>
</a>
</g>
</g>
<!-- Node10 -->
<g id="Node000010" class="node">
<title>Node10</title>
<g id="a_Node000010"><a xlink:href="post__policy_8c.html" target="_top" xlink:title=" ">
<polygon fill="white" stroke="#666666" points="710.5,-30 593.5,-30 593.5,0 710.5,0 710.5,-30"/>
<text text-anchor="start" x="601.5" y="-18" font-family="Helvetica,sans-Serif" font-size="10.00">src/protocols/s3/post</text>
<text text-anchor="middle" x="652" y="-7" font-family="Helvetica,sans-Serif" font-size="10.00">_policy.c</text>
</a>
</g>
</g>
<!-- Node7&#45;&gt;Node10 -->
<g id="edge12_Node000007_Node000010" class="edge">
<title>Node7&#45;&gt;Node10</title>
<g id="a_edge12_Node000007_Node000010"><a xlink:title=" ">
<path fill="none" stroke="#63b8ff" d="M652,-55.54C652,-46.96 652,-37.61 652,-30.16"/>
<polygon fill="#63b8ff" stroke="#63b8ff" points="648.5,-55.8 652,-65.8 655.5,-55.8 648.5,-55.8"/>
</a>
</g>
</g>
<!-- Node11 -->
<g id="Node000011" class="node">
<title>Node11</title>
<g id="a_Node000011"><a xlink:href="post__response_8c.html" target="_top" xlink:title=" ">
<polygon fill="white" stroke="#666666" points="845.5,-30 728.5,-30 728.5,0 845.5,0 845.5,-30"/>
<text text-anchor="start" x="736.5" y="-18" font-family="Helvetica,sans-Serif" font-size="10.00">src/protocols/s3/post</text>
<text text-anchor="middle" x="787" y="-7" font-family="Helvetica,sans-Serif" font-size="10.00">_response.c</text>
</a>
</g>
</g>
<!-- Node7&#45;&gt;Node11 -->
<g id="edge13_Node000007_Node000011" class="edge">
<title>Node7&#45;&gt;Node11</title>
<g id="a_edge13_Node000007_Node000011"><a xlink:title=" ">
<path fill="none" stroke="#63b8ff" d="M690.71,-61.65C711.94,-51.58 737.85,-39.3 757.44,-30.01"/>
<polygon fill="#63b8ff" stroke="#63b8ff" points="689.16,-58.51 681.63,-65.95 692.16,-64.83 689.16,-58.51"/>
</a>
</g>
</g>
</g>
</svg>

<g id="navigator" transform="translate(0 0)" fill="#404254">
  <rect fill="#f2f5e9" fill-opacity="0.5" stroke="#606060" stroke-width=".5" x="0" y="0" width="60" height="60"/>
  <use id="zoomplus" xlink:href="#zoomPlus" x="17" y="9" onmousedown="handleZoom(evt,'in')"/>
  <use id="zoomminus" xlink:href="#zoomMin" x="42" y="9" onmousedown="handleZoom(evt,'out')"/>
  <use id="reset" xlink:href="#resetDef" x="30" y="36" onmousedown="handleReset()"/>
   <use id="arrowup" xlink:href="#arrowUp" x="0" y="0" onmousedown="handlePan(0,-1)"/>
  <use id="arrowright" xlink:href="#arrowRight" x="0" y="0" onmousedown="handlePan(1,0)"/>
  <use id="arrowdown" xlink:href="#arrowDown" x="0" y="0" onmousedown="handlePan(0,1)"/>
  <use id="arrowleft" xlink:href="#arrowLeft" x="0" y="0" onmousedown="handlePan(-1,0)"/>
</g>
<svg viewBox="0 0 15 15" width="100%" height="30px" preserveAspectRatio="xMaxYMin meet">
 <g id="arrow_out" transform="scale(0.3 0.3)">
  <a xlink:href="s3__auth__internal_8h__dep__incl_org.svg" target="_base">
   <rect id="button" ry="5" rx="5" y="6" x="6" height="38" width="38"
        fill="#f2f5e9" fill-opacity="0.5" stroke="#606060" stroke-width="1.0"/>
   <path id="arrow"
     d="M 11.500037,31.436501 C 11.940474,20.09759 22.043105,11.32322 32.158766,21.979434 L 37.068811,17.246167 C 37.068811,17.246167 37.088388,32 37.088388,32 L 22.160133,31.978069 C 22.160133,31.978069 26.997745,27.140456 26.997745,27.140456 C 18.528582,18.264221 13.291696,25.230495 11.500037,31.436501 z"
     style="fill:#404040;"/>
  </a>
 </g>
</svg>

<style type='text/css'>
<![CDATA[
[data-mouse-over-selected='false'] { opacity: 0.7; }
[data-mouse-over-selected='true']  { opacity: 1.0; }
]]>
</style>
<script type="application/ecmascript"><![CDATA[
document.addEventListener('DOMContentLoaded', (event) => {
  highlightEdges();
  highlightAdjacentNodes();
});
]]></script>
</svg>
