<?xml version="1.0" encoding="UTF-8" standalone="no"?>
<!DOCTYPE svg PUBLIC "-//W3C//DTD SVG 1.1//EN"
 "http://www.w3.org/Graphics/SVG/1.1/DTD/svg11.dtd">
<!-- Generated by graphviz version 2.43.0 (0)
 -->
<!-- Title: src/fs/cache/origin/s3_transport_internal.h Pages: 1 -->
<svg width="252pt" height="104pt"
 viewBox="0.00 0.00 252.00 104.00" xmlns="http://www.w3.org/2000/svg" xmlns:xlink="http://www.w3.org/1999/xlink">
<g id="graph0" class="graph" transform="scale(1 1) rotate(0) translate(4 100)">
<title>src/fs/cache/origin/s3_transport_internal.h</title>
<!-- Node1 -->
<g id="Node000001" class="node">
<title>Node1</title>
<g id="a_Node000001"><a xlink:title=" ">
<polygon fill="#999999" stroke="#666666" points="183.5,-96 51.5,-96 51.5,-66 183.5,-66 183.5,-96"/>
<text text-anchor="start" x="59.5" y="-84" font-family="Helvetica,sans-Serif" font-size="10.00">src/fs/cache/origin</text>
<text text-anchor="middle" x="117.5" y="-73" font-family="Helvetica,sans-Serif" font-size="10.00">/s3_transport_internal.h</text>
</a>
</g>
</g>
<!-- Node2 -->
<g id="Node000002" class="node">
<title>Node2</title>
<g id="a_Node000002"><a xlink:href="s3__transport_8c.html" target="_top" xlink:title=" ">
<polygon fill="white" stroke="#666666" points="105,-30 0,-30 0,0 105,0 105,-30"/>
<text text-anchor="start" x="8" y="-18" font-family="Helvetica,sans-Serif" font-size="10.00">src/fs/cache/origin</text>
<text text-anchor="middle" x="52.5" y="-7" font-family="Helvetica,sans-Serif" font-size="10.00">/s3_transport.c</text>
</a>
</g>
</g>
<!-- Node1&#45;&gt;Node2 -->
<g id="edge1_Node000001_Node000002" class="edge">
<title>Node1&#45;&gt;Node2</title>
<g id="a_edge1_Node000001_Node000002"><a xlink:title=" ">
<path fill="none" stroke="#63b8ff" d="M95.81,-58.65C86.29,-49.27 75.38,-38.53 66.89,-30.16"/>
<polygon fill="#63b8ff" stroke="#63b8ff" points="93.49,-61.27 103.07,-65.8 98.4,-56.29 93.49,-61.27"/>
</a>
</g>
</g>
<!-- Node3 -->
<g id="Node000003" class="node">
<title>Node3</title>
<g id="a_Node000003"><a xlink:href="s3__transport__setup_8c.html" target="_top" xlink:title=" ">
<polygon fill="white" stroke="#666666" points="244,-30 123,-30 123,0 244,0 244,-30"/>
<text text-anchor="start" x="131" y="-18" font-family="Helvetica,sans-Serif" font-size="10.00">src/fs/cache/origin</text>
<text text-anchor="middle" x="183.5" y="-7" font-family="Helvetica,sans-Serif" font-size="10.00">/s3_transport_setup.c</text>
</a>
</g>
</g>
<!-- Node1&#45;&gt;Node3 -->
<g id="edge2_Node000001_Node000003" class="edge">
<title>Node1&#45;&gt;Node3</title>
<g id="a_edge2_Node000001_Node000003"><a xlink:title=" ">
<path fill="none" stroke="#63b8ff" d="M139.52,-58.65C149.19,-49.27 160.27,-38.53 168.89,-30.16"/>
<polygon fill="#63b8ff" stroke="#63b8ff" points="136.89,-56.32 132.15,-65.8 141.76,-61.35 136.89,-56.32"/>
</a>
</g>
</g>
</g>
</svg>
