<?xml version="1.0" encoding="UTF-8" standalone="no"?>
<!DOCTYPE svg PUBLIC "-//W3C//DTD SVG 1.1//EN"
 "http://www.w3.org/Graphics/SVG/1.1/DTD/svg11.dtd">
<!-- Generated by graphviz version 2.43.0 (0)
 -->
<!-- Title: src/protocols/s3/s3_auth_internal.h Pages: 1 -->
<svg width="1259pt" height="170pt"
 viewBox="0.00 0.00 1258.50 170.00" xmlns="http://www.w3.org/2000/svg" xmlns:xlink="http://www.w3.org/1999/xlink">
<g id="graph0" class="graph" transform="scale(1 1) rotate(0) translate(4 166)">
<title>src/protocols/s3/s3_auth_internal.h</title>
<!-- Node1 -->
<g id="Node000001" class="node">
<title>Node1</title>
<g id="a_Node000001"><a xlink:title=" ">
<polygon fill="#999999" stroke="#666666" points="341.5,-162 234.5,-162 234.5,-132 341.5,-132 341.5,-162"/>
<text text-anchor="start" x="242.5" y="-150" font-family="Helvetica,sans-Serif" font-size="10.00">src/protocols/s3/s3</text>
<text text-anchor="middle" x="288" y="-139" font-family="Helvetica,sans-Serif" font-size="10.00">_auth_internal.h</text>
</a>
</g>
</g>
<!-- Node2 -->
<g id="Node000002" class="node">
<title>Node2</title>
<g id="a_Node000002"><a xlink:href="auth__sigv4__parse_8c.html" target="_top" xlink:title=" ">
<polygon fill="white" stroke="#666666" points="118,-96 0,-96 0,-66 118,-66 118,-96"/>
<text text-anchor="start" x="8" y="-84" font-family="Helvetica,sans-Serif" font-size="10.00">src/protocols/s3/auth</text>
<text text-anchor="middle" x="59" y="-73" font-family="Helvetica,sans-Serif" font-size="10.00">_sigv4_parse.c</text>
</a>
</g>
</g>
<!-- Node1&#45;&gt;Node2 -->
<g id="edge1_Node000001_Node000002" class="edge">
<title>Node1&#45;&gt;Node2</title>
<g id="a_edge1_Node000001_Node000002"><a xlink:title=" ">
<path fill="none" stroke="#63b8ff" d="M228.08,-129.25C191.08,-118.91 144.16,-105.8 109.14,-96.01"/>
<polygon fill="#63b8ff" stroke="#63b8ff" points="227.17,-132.63 237.74,-131.95 229.06,-125.89 227.17,-132.63"/>
</a>
</g>
</g>
<!-- Node3 -->
<g id="Node000003" class="node">
<title>Node3</title>
<g id="a_Node000003"><a xlink:href="auth__sigv4__verify_8c.html" target="_top" xlink:title=" ">
<polygon fill="white" stroke="#666666" points="160,-30 42,-30 42,0 160,0 160,-30"/>
<text text-anchor="start" x="50" y="-18" font-family="Helvetica,sans-Serif" font-size="10.00">src/protocols/s3/auth</text>
<text text-anchor="middle" x="101" y="-7" font-family="Helvetica,sans-Serif" font-size="10.00">_sigv4_verify.c</text>
</a>
</g>
</g>
<!-- Node1&#45;&gt;Node3 -->
<g id="edge2_Node000001_Node000003" class="edge">
<title>Node1&#45;&gt;Node3</title>
<g id="a_edge2_Node000001_Node000003"><a xlink:title=" ">
<path fill="none" stroke="#63b8ff" d="M227.87,-128.53C206.75,-120.65 183.66,-109.93 165,-96 140.48,-77.7 120.02,-47.88 109.23,-30.28"/>
<polygon fill="#63b8ff" stroke="#63b8ff" points="226.81,-131.87 237.41,-131.95 229.18,-125.28 226.81,-131.87"/>
</a>
</g>
</g>
<!-- Node4 -->
<g id="Node000004" class="node">
<title>Node4</title>
<g id="a_Node000004"><a xlink:href="auth__sigv4__verify__crypto_8c.html" target="_top" xlink:title=" ">
<polygon fill="white" stroke="#666666" points="303.5,-30 178.5,-30 178.5,0 303.5,0 303.5,-30"/>
<text text-anchor="start" x="186.5" y="-18" font-family="Helvetica,sans-Serif" font-size="10.00">src/protocols/s3/auth</text>
<text text-anchor="middle" x="241" y="-7" font-family="Helvetica,sans-Serif" font-size="10.00">_sigv4_verify_crypto.c</text>
</a>
</g>
</g>
<!-- Node1&#45;&gt;Node4 -->
<g id="edge3_Node000001_Node000004" class="edge">
<title>Node1&#45;&gt;Node4</title>
<g id="a_edge3_Node000001_Node000004"><a xlink:title=" ">
<path fill="none" stroke="#63b8ff" d="M305.63,-123.41C316.2,-106.94 325.84,-84.39 316,-66 307.43,-50 291.23,-38.23 276.07,-30.15"/>
<polygon fill="#63b8ff" stroke="#63b8ff" points="302.59,-121.65 299.79,-131.87 308.35,-125.63 302.59,-121.65"/>
</a>
</g>
</g>
<!-- Node5 -->
<g id="Node000005" class="node">
<title>Node5</title>
<g id="a_Node000005"><a xlink:href="auth__sigv4__verify__internal_8h.html" target="_top" xlink:title=" ">
<polygon fill="white" stroke="#666666" points="307.5,-96 174.5,-96 174.5,-66 307.5,-66 307.5,-96"/>
<text text-anchor="start" x="182.5" y="-84" font-family="Helvetica,sans-Serif" font-size="10.00">src/protocols/s3/auth</text>
<text text-anchor="middle" x="241" y="-73" font-family="Helvetica,sans-Serif" font-size="10.00">_sigv4_verify_internal.h</text>
</a>
</g>
</g>
<!-- Node1&#45;&gt;Node5 -->
<g id="edge4_Node000001_Node000005" class="edge">
<title>Node1&#45;&gt;Node5</title>
<g id="a_edge4_Node000001_Node000005"><a xlink:title=" ">
<path fill="none" stroke="#63b8ff" d="M271.5,-123.53C264.81,-114.43 257.3,-104.19 251.4,-96.16"/>
<polygon fill="#63b8ff" stroke="#63b8ff" points="268.83,-125.81 277.57,-131.8 274.47,-121.66 268.83,-125.81"/>
</a>
</g>
</g>
<!-- Node6 -->
<g id="Node000006" class="node">
<title>Node6</title>
<g id="a_Node000006"><a xlink:href="auth__sigv4__verify__time_8c.html" target="_top" xlink:title=" ">
<polygon fill="white" stroke="#666666" points="440,-30 322,-30 322,0 440,0 440,-30"/>
<text text-anchor="start" x="330" y="-18" font-family="Helvetica,sans-Serif" font-size="10.00">src/protocols/s3/auth</text>
<text text-anchor="middle" x="381" y="-7" font-family="Helvetica,sans-Serif" font-size="10.00">_sigv4_verify_time.c</text>
</a>
</g>
</g>
<!-- Node1&#45;&gt;Node6 -->
<g id="edge8_Node000001_Node000006" class="edge">
<title>Node1&#45;&gt;Node6</title>
<g id="a_edge8_Node000001_Node000006"><a xlink:title=" ">
<path fill="none" stroke="#63b8ff" d="M309.09,-124.41C316.98,-115.87 325.77,-105.78 333,-96 349.18,-74.12 364.79,-46.5 373.62,-30.1"/>
<polygon fill="#63b8ff" stroke="#63b8ff" points="306.48,-122.08 302.17,-131.76 311.57,-126.88 306.48,-122.08"/>
</a>
</g>
</g>
<!-- Node7 -->
<g id="Node000007" class="node">
<title>Node7</title>
<g id="a_Node000007"><a xlink:href="s3__post__internal_8h.html" target="_top" xlink:title=" ">
<polygon fill="white" stroke="#666666" points="840.5,-96 733.5,-96 733.5,-66 840.5,-66 840.5,-96"/>
<text text-anchor="start" x="741.5" y="-84" font-family="Helvetica,sans-Serif" font-size="10.00">src/protocols/s3/s3</text>
<text text-anchor="middle" x="787" y="-73" font-family="Helvetica,sans-Serif" font-size="10.00">_post_internal.h</text>
</a>
</g>
</g>
<!-- Node1&#45;&gt;Node7 -->
<g id="edge9_Node000001_Node000007" class="edge">
<title>Node1&#45;&gt;Node7</title>
<g id="a_edge9_Node000001_Node000007"><a xlink:title=" ">
<path fill="none" stroke="#63b8ff" d="M352.08,-137.78C451.42,-125.04 640.77,-100.75 733.35,-88.88"/>
<polygon fill="#63b8ff" stroke="#63b8ff" points="351.35,-134.35 341.88,-139.09 352.24,-141.29 351.35,-134.35"/>
</a>
</g>
</g>
<!-- Node5&#45;&gt;Node3 -->
<g id="edge5_Node000005_Node000003" class="edge">
<title>Node5&#45;&gt;Node3</title>
<g id="a_edge5_Node000005_Node000003"><a xlink:title=" ">
<path fill="none" stroke="#63b8ff" d="M201.15,-61.78C179.08,-51.69 152.06,-39.34 131.65,-30.01"/>
<polygon fill="#63b8ff" stroke="#63b8ff" points="199.73,-64.98 210.28,-65.95 202.64,-58.61 199.73,-64.98"/>
</a>
</g>
</g>
<!-- Node5&#45;&gt;Node4 -->
<g id="edge6_Node000005_Node000004" class="edge">
<title>Node5&#45;&gt;Node4</title>
<g id="a_edge6_Node000005_Node000004"><a xlink:title=" ">
<path fill="none" stroke="#63b8ff" d="M241,-55.54C241,-46.96 241,-37.61 241,-30.16"/>
<polygon fill="#63b8ff" stroke="#63b8ff" points="237.5,-55.8 241,-65.8 244.5,-55.8 237.5,-55.8"/>
</a>
</g>
</g>
<!-- Node5&#45;&gt;Node6 -->
<g id="edge7_Node000005_Node000006" class="edge">
<title>Node5&#45;&gt;Node6</title>
<g id="a_edge7_Node000005_Node000006"><a xlink:title=" ">
<path fill="none" stroke="#63b8ff" d="M280.85,-61.78C302.92,-51.69 329.94,-39.34 350.35,-30.01"/>
<polygon fill="#63b8ff" stroke="#63b8ff" points="279.36,-58.61 271.72,-65.95 282.27,-64.98 279.36,-58.61"/>
</a>
</g>
</g>
<!-- Node8 -->
<g id="Node000008" class="node">
<title>Node8</title>
<g id="a_Node000008"><a xlink:href="post__form_8c.html" target="_top" xlink:title=" ">
<polygon fill="white" stroke="#666666" points="980.5,-30 863.5,-30 863.5,0 980.5,0 980.5,-30"/>
<text text-anchor="start" x="871.5" y="-18" font-family="Helvetica,sans-Serif" font-size="10.00">src/protocols/s3/post</text>
<text text-anchor="middle" x="922" y="-7" font-family="Helvetica,sans-Serif" font-size="10.00">_form.c</text>
</a>
</g>
</g>
<!-- Node7&#45;&gt;Node8 -->
<g id="edge10_Node000007_Node000008" class="edge">
<title>Node7&#45;&gt;Node8</title>
<g id="a_edge10_Node000007_Node000008"><a xlink:title=" ">
<path fill="none" stroke="#63b8ff" d="M825.71,-61.65C846.94,-51.58 872.85,-39.3 892.44,-30.01"/>
<polygon fill="#63b8ff" stroke="#63b8ff" points="824.16,-58.51 816.63,-65.95 827.16,-64.83 824.16,-58.51"/>
</a>
</g>
</g>
<!-- Node9 -->
<g id="Node000009" class="node">
<title>Node9</title>
<g id="a_Node000009"><a xlink:href="post__form__multipart_8c.html" target="_top" xlink:title=" ">
<polygon fill="white" stroke="#666666" points="1115.5,-30 998.5,-30 998.5,0 1115.5,0 1115.5,-30"/>
<text text-anchor="start" x="1006.5" y="-18" font-family="Helvetica,sans-Serif" font-size="10.00">src/protocols/s3/post</text>
<text text-anchor="middle" x="1057" y="-7" font-family="Helvetica,sans-Serif" font-size="10.00">_form_multipart.c</text>
</a>
</g>
</g>
<!-- Node7&#45;&gt;Node9 -->
<g id="edge11_Node000007_Node000009" class="edge">
<title>Node7&#45;&gt;Node9</title>
<g id="a_edge11_Node000007_Node000009"><a xlink:title=" ">
<path fill="none" stroke="#63b8ff" d="M850.55,-64.94C895.27,-54.34 954.68,-40.25 998.28,-29.92"/>
<polygon fill="#63b8ff" stroke="#63b8ff" points="849.59,-61.57 840.67,-67.28 851.2,-68.38 849.59,-61.57"/>
</a>
</g>
</g>
<!-- Node10 -->
<g id="Node000010" class="node">
<title>Node10</title>
<g id="a_Node000010"><a xlink:href="post__object_8c.html" target="_top" xlink:title=" ">
<polygon fill="white" stroke="#666666" points="1250.5,-30 1133.5,-30 1133.5,0 1250.5,0 1250.5,-30"/>
<text text-anchor="start" x="1141.5" y="-18" font-family="Helvetica,sans-Serif" font-size="10.00">src/protocols/s3/post</text>
<text text-anchor="middle" x="1192" y="-7" font-family="Helvetica,sans-Serif" font-size="10.00">_object.c</text>
</a>
</g>
</g>
<!-- Node7&#45;&gt;Node10 -->
<g id="edge12_Node000007_Node000010" class="edge">
<title>Node7&#45;&gt;Node10</title>
<g id="a_edge12_Node000007_Node000010"><a xlink:title=" ">
<path fill="none" stroke="#63b8ff" d="M850.86,-71.7C918.96,-62.58 1029.88,-46.96 1125,-30 1127.69,-29.52 1130.44,-29.01 1133.21,-28.49"/>
<polygon fill="#63b8ff" stroke="#63b8ff" points="850.17,-68.26 840.72,-73.05 851.1,-75.2 850.17,-68.26"/>
</a>
</g>
</g>
<!-- Node11 -->
<g id="Node000011" class="node">
<title>Node11</title>
<g id="a_Node000011"><a xlink:href="post__policy_8c.html" target="_top" xlink:title=" ">
<polygon fill="white" stroke="#666666" points="575.5,-30 458.5,-30 458.5,0 575.5,0 575.5,-30"/>
<text text-anchor="start" x="466.5" y="-18" font-family="Helvetica,sans-Serif" font-size="10.00">src/protocols/s3/post</text>
<text text-anchor="middle" x="517" y="-7" font-family="Helvetica,sans-Serif" font-size="10.00">_policy.c</text>
</a>
</g>
</g>
<!-- Node7&#45;&gt;Node11 -->
<g id="edge13_Node000007_Node000011" class="edge">
<title>Node7&#45;&gt;Node11</title>
<g id="a_edge13_Node000007_Node000011"><a xlink:title=" ">
<path fill="none" stroke="#63b8ff" d="M723.45,-64.94C678.73,-54.34 619.32,-40.25 575.72,-29.92"/>
<polygon fill="#63b8ff" stroke="#63b8ff" points="722.8,-68.38 733.33,-67.28 724.41,-61.57 722.8,-68.38"/>
</a>
</g>
</g>
<!-- Node12 -->
<g id="Node000012" class="node">
<title>Node12</title>
<g id="a_Node000012"><a xlink:href="post__policy__conditions_8c.html" target="_top" xlink:title=" ">
<polygon fill="white" stroke="#666666" points="710.5,-30 593.5,-30 593.5,0 710.5,0 710.5,-30"/>
<text text-anchor="start" x="601.5" y="-18" font-family="Helvetica,sans-Serif" font-size="10.00">src/protocols/s3/post</text>
<text text-anchor="middle" x="652" y="-7" font-family="Helvetica,sans-Serif" font-size="10.00">_policy_conditions.c</text>
</a>
</g>
</g>
<!-- Node7&#45;&gt;Node12 -->
<g id="edge14_Node000007_Node000012" class="edge">
<title>Node7&#45;&gt;Node12</title>
<g id="a_edge14_Node000007_Node000012"><a xlink:title=" ">
<path fill="none" stroke="#63b8ff" d="M748.29,-61.65C727.06,-51.58 701.15,-39.3 681.56,-30.01"/>
<polygon fill="#63b8ff" stroke="#63b8ff" points="746.84,-64.83 757.37,-65.95 749.84,-58.51 746.84,-64.83"/>
</a>
</g>
</g>
<!-- Node13 -->
<g id="Node000013" class="node">
<title>Node13</title>
<g id="a_Node000013"><a xlink:href="post__response_8c.html" target="_top" xlink:title=" ">
<polygon fill="white" stroke="#666666" points="845.5,-30 728.5,-30 728.5,0 845.5,0 845.5,-30"/>
<text text-anchor="start" x="736.5" y="-18" font-family="Helvetica,sans-Serif" font-size="10.00">src/protocols/s3/post</text>
<text text-anchor="middle" x="787" y="-7" font-family="Helvetica,sans-Serif" font-size="10.00">_response.c</text>
</a>
</g>
</g>
<!-- Node7&#45;&gt;Node13 -->
<g id="edge15_Node000007_Node000013" class="edge">
<title>Node7&#45;&gt;Node13</title>
<g id="a_edge15_Node000007_Node000013"><a xlink:title=" ">
<path fill="none" stroke="#63b8ff" d="M787,-55.54C787,-46.96 787,-37.61 787,-30.16"/>
<polygon fill="#63b8ff" stroke="#63b8ff" points="783.5,-55.8 787,-65.8 790.5,-55.8 783.5,-55.8"/>
</a>
</g>
</g>
</g>
</svg>
