<?xml version="1.0" encoding="UTF-8" standalone="no"?>
<!DOCTYPE svg PUBLIC "-//W3C//DTD SVG 1.1//EN"
 "http://www.w3.org/Graphics/SVG/1.1/DTD/svg11.dtd">
<!-- Generated by graphviz version 2.43.0 (0)
 -->
<!-- Title: src/fs/scan/scan_engine.h Pages: 1 -->
<svg width="736pt" height="192pt"
 viewBox="0.00 0.00 736.00 192.00" xmlns="http://www.w3.org/2000/svg" xmlns:xlink="http://www.w3.org/1999/xlink">
<g id="graph0" class="graph" transform="scale(1 1) rotate(0) translate(4 188)">
<title>src/fs/scan/scan_engine.h</title>
<!-- Node1 -->
<g id="Node000001" class="node">
<title>Node1</title>
<g id="a_Node000001"><a xlink:title=" ">
<polygon fill="#999999" stroke="#666666" points="305.5,-184 164.5,-184 164.5,-165 305.5,-165 305.5,-184"/>
<text text-anchor="middle" x="235" y="-172" font-family="Helvetica,sans-Serif" font-size="10.00">src/fs/scan/scan_engine.h</text>
</a>
</g>
</g>
<!-- Node2 -->
<g id="Node000002" class="node">
<title>Node2</title>
<g id="a_Node000002"><a xlink:title=" ">
<polygon fill="#e0e0e0" stroke="#999999" points="224,-74 146,-74 146,-55 224,-55 224,-74"/>
<text text-anchor="middle" x="185" y="-62" font-family="Helvetica,sans-Serif" font-size="10.00">ngx_config.h</text>
</a>
</g>
</g>
<!-- Node1&#45;&gt;Node2 -->
<g id="edge1_Node000001_Node000002" class="edge">
<title>Node1&#45;&gt;Node2</title>
<g id="a_edge1_Node000001_Node000002"><a xlink:title=" ">
<path fill="none" stroke="#63b8ff" d="M230.91,-164.66C222.7,-146.93 204.09,-106.73 193.25,-83.32"/>
<polygon fill="#63b8ff" stroke="#63b8ff" points="196.39,-81.76 189.01,-74.16 190.03,-84.7 196.39,-81.76"/>
</a>
</g>
</g>
<!-- Node3 -->
<g id="Node000003" class="node">
<title>Node3</title>
<g id="a_Node000003"><a xlink:title=" ">
<polygon fill="#e0e0e0" stroke="#999999" points="312,-74 242,-74 242,-55 312,-55 312,-74"/>
<text text-anchor="middle" x="277" y="-62" font-family="Helvetica,sans-Serif" font-size="10.00">ngx_core.h</text>
</a>
</g>
</g>
<!-- Node1&#45;&gt;Node3 -->
<g id="edge2_Node000001_Node000003" class="edge">
<title>Node1&#45;&gt;Node3</title>
<g id="a_edge2_Node000001_Node000003"><a xlink:title=" ">
<path fill="none" stroke="#63b8ff" d="M238.44,-164.66C245.3,-147.01 260.83,-107.09 269.95,-83.64"/>
<polygon fill="#63b8ff" stroke="#63b8ff" points="273.27,-84.75 273.63,-74.16 266.75,-82.21 273.27,-84.75"/>
</a>
</g>
</g>
<!-- Node4 -->
<g id="Node000004" class="node">
<title>Node4</title>
<g id="a_Node000004"><a xlink:href="scan__record_8h.html" target="_top" xlink:title=" ">
<polygon fill="white" stroke="#666666" points="143,-129 59,-129 59,-110 143,-110 143,-129"/>
<text text-anchor="middle" x="101" y="-117" font-family="Helvetica,sans-Serif" font-size="10.00">scan_record.h</text>
</a>
</g>
</g>
<!-- Node1&#45;&gt;Node4 -->
<g id="edge3_Node000001_Node000004" class="edge">
<title>Node1&#45;&gt;Node4</title>
<g id="a_edge3_Node000001_Node000004"><a xlink:title=" ">
<path fill="none" stroke="#63b8ff" d="M213.47,-164.98C191.53,-156.3 157.26,-142.75 132.31,-132.88"/>
<polygon fill="#63b8ff" stroke="#63b8ff" points="133.51,-129.59 122.92,-129.17 130.93,-136.1 133.51,-129.59"/>
</a>
</g>
</g>
<!-- Node7 -->
<g id="Node000007" class="node">
<title>Node7</title>
<g id="a_Node000007"><a xlink:href="sd_8h.html" target="_top" xlink:title=" ">
<polygon fill="white" stroke="#666666" points="401,-129 309,-129 309,-110 401,-110 401,-129"/>
<text text-anchor="middle" x="355" y="-117" font-family="Helvetica,sans-Serif" font-size="10.00">fs/backend/sd.h</text>
</a>
</g>
</g>
<!-- Node1&#45;&gt;Node7 -->
<g id="edge6_Node000001_Node000007" class="edge">
<title>Node1&#45;&gt;Node7</title>
<g id="a_edge6_Node000001_Node000007"><a xlink:title=" ">
<path fill="none" stroke="#63b8ff" d="M254.28,-164.98C273.67,-156.42 303.81,-143.11 326.07,-133.28"/>
<polygon fill="#63b8ff" stroke="#63b8ff" points="327.64,-136.41 335.37,-129.17 324.81,-130.01 327.64,-136.41"/>
</a>
</g>
</g>
<!-- Node5 -->
<g id="Node000005" class="node">
<title>Node5</title>
<g id="a_Node000005"><a xlink:title=" ">
<polygon fill="#e0e0e0" stroke="#999999" points="56,-74 0,-74 0,-55 56,-55 56,-74"/>
<text text-anchor="middle" x="28" y="-62" font-family="Helvetica,sans-Serif" font-size="10.00">stddef.h</text>
</a>
</g>
</g>
<!-- Node4&#45;&gt;Node5 -->
<g id="edge4_Node000004_Node000005" class="edge">
<title>Node4&#45;&gt;Node5</title>
<g id="a_edge4_Node000004_Node000005"><a xlink:title=" ">
<path fill="none" stroke="#63b8ff" d="M89.27,-109.98C78.27,-102 61.58,-89.88 48.4,-80.31"/>
<polygon fill="#63b8ff" stroke="#63b8ff" points="50.09,-77.21 39.94,-74.17 45.98,-82.88 50.09,-77.21"/>
</a>
</g>
</g>
<!-- Node6 -->
<g id="Node000006" class="node">
<title>Node6</title>
<g id="a_Node000006"><a xlink:title=" ">
<polygon fill="#e0e0e0" stroke="#999999" points="127.5,-74 74.5,-74 74.5,-55 127.5,-55 127.5,-74"/>
<text text-anchor="middle" x="101" y="-62" font-family="Helvetica,sans-Serif" font-size="10.00">stdint.h</text>
</a>
</g>
</g>
<!-- Node4&#45;&gt;Node6 -->
<g id="edge5_Node000004_Node000006" class="edge">
<title>Node4&#45;&gt;Node6</title>
<g id="a_edge5_Node000004_Node000006"><a xlink:title=" ">
<path fill="none" stroke="#63b8ff" d="M101,-109.75C101,-102.8 101,-92.85 101,-84.13"/>
<polygon fill="#63b8ff" stroke="#63b8ff" points="104.5,-84.09 101,-74.09 97.5,-84.09 104.5,-84.09"/>
</a>
</g>
</g>
<!-- Node7&#45;&gt;Node2 -->
<g id="edge7_Node000007_Node000002" class="edge">
<title>Node7&#45;&gt;Node2</title>
<g id="a_edge7_Node000007_Node000002"><a xlink:title=" ">
<path fill="none" stroke="#63b8ff" d="M327.69,-109.98C299.15,-101.09 254.17,-87.07 222.36,-77.15"/>
<polygon fill="#63b8ff" stroke="#63b8ff" points="223.12,-73.72 212.53,-74.08 221.03,-80.4 223.12,-73.72"/>
</a>
</g>
</g>
<!-- Node7&#45;&gt;Node3 -->
<g id="edge8_Node000007_Node000003" class="edge">
<title>Node7&#45;&gt;Node3</title>
<g id="a_edge8_Node000007_Node000003"><a xlink:title=" ">
<path fill="none" stroke="#63b8ff" d="M342.47,-109.98C330.6,-101.92 312.54,-89.65 298.39,-80.03"/>
<polygon fill="#63b8ff" stroke="#63b8ff" points="300,-76.9 289.76,-74.17 296.06,-82.69 300,-76.9"/>
</a>
</g>
</g>
<!-- Node7&#45;&gt;Node6 -->
<g id="edge9_Node000007_Node000006" class="edge">
<title>Node7&#45;&gt;Node6</title>
<g id="a_edge9_Node000007_Node000006"><a xlink:title=" ">
<path fill="none" stroke="#63b8ff" d="M311.07,-109.94C269.05,-101.66 203.66,-88.54 137.48,-74.05"/>
<polygon fill="#63b8ff" stroke="#63b8ff" points="138.23,-70.63 127.72,-71.9 136.73,-77.47 138.23,-70.63"/>
</a>
</g>
</g>
<!-- Node8 -->
<g id="Node000008" class="node">
<title>Node8</title>
<g id="a_Node000008"><a xlink:title=" ">
<polygon fill="#e0e0e0" stroke="#999999" points="446.5,-19 395.5,-19 395.5,0 446.5,0 446.5,-19"/>
<text text-anchor="middle" x="421" y="-7" font-family="Helvetica,sans-Serif" font-size="10.00">errno.h</text>
</a>
</g>
</g>
<!-- Node7&#45;&gt;Node8 -->
<g id="edge10_Node000007_Node000008" class="edge">
<title>Node7&#45;&gt;Node8</title>
<g id="a_edge10_Node000007_Node000008"><a xlink:title=" ">
<path fill="none" stroke="#63b8ff" d="M353.3,-109.63C351.3,-96.72 349.37,-72.4 359,-55 366.44,-41.57 379.84,-31.18 392.29,-23.83"/>
<polygon fill="#63b8ff" stroke="#63b8ff" points="394,-26.89 401.09,-19.01 390.64,-20.75 394,-26.89"/>
</a>
</g>
</g>
<!-- Node9 -->
<g id="Node000009" class="node">
<title>Node9</title>
<g id="a_Node000009"><a xlink:title=" ">
<polygon fill="#e0e0e0" stroke="#999999" points="728,-74 664,-74 664,-55 728,-55 728,-74"/>
<text text-anchor="middle" x="696" y="-62" font-family="Helvetica,sans-Serif" font-size="10.00">sys/stat.h</text>
</a>
</g>
</g>
<!-- Node7&#45;&gt;Node9 -->
<g id="edge11_Node000007_Node000009" class="edge">
<title>Node7&#45;&gt;Node9</title>
<g id="a_edge11_Node000007_Node000009"><a xlink:title=" ">
<path fill="none" stroke="#63b8ff" d="M401.06,-112.03C459.17,-103.76 562.14,-88.74 650,-74 651.26,-73.79 652.54,-73.57 653.83,-73.35"/>
<polygon fill="#63b8ff" stroke="#63b8ff" points="654.61,-76.76 663.85,-71.58 653.4,-69.87 654.61,-76.76"/>
</a>
</g>
</g>
<!-- Node10 -->
<g id="Node000010" class="node">
<title>Node10</title>
<g id="a_Node000010"><a xlink:title=" ">
<polygon fill="#e0e0e0" stroke="#999999" points="550,-19 478,-19 478,0 550,0 550,-19"/>
<text text-anchor="middle" x="514" y="-7" font-family="Helvetica,sans-Serif" font-size="10.00">sys/types.h</text>
</a>
</g>
</g>
<!-- Node7&#45;&gt;Node10 -->
<g id="edge12_Node000007_Node000010" class="edge">
<title>Node7&#45;&gt;Node10</title>
<g id="a_edge12_Node000007_Node000010"><a xlink:title=" ">
<path fill="none" stroke="#63b8ff" d="M401.18,-111.45C427.72,-105.37 460.21,-94.22 483,-74 496.46,-62.06 504.67,-42.97 509.23,-28.83"/>
<polygon fill="#63b8ff" stroke="#63b8ff" points="512.6,-29.77 512.03,-19.19 505.88,-27.82 512.6,-29.77"/>
</a>
</g>
</g>
<!-- Node11 -->
<g id="Node000011" class="node">
<title>Node11</title>
<g id="a_Node000011"><a xlink:title=" ">
<polygon fill="#e0e0e0" stroke="#999999" points="653,-19 593,-19 593,0 653,0 653,-19"/>
<text text-anchor="middle" x="623" y="-7" font-family="Helvetica,sans-Serif" font-size="10.00">sys/uio.h</text>
</a>
</g>
</g>
<!-- Node7&#45;&gt;Node11 -->
<g id="edge13_Node000007_Node000011" class="edge">
<title>Node7&#45;&gt;Node11</title>
<g id="a_edge13_Node000007_Node000011"><a xlink:title=" ">
<path fill="none" stroke="#63b8ff" d="M401.14,-117.19C468.39,-114.25 588.47,-104.72 617,-74 627.94,-62.22 628.4,-43.38 626.75,-29.27"/>
<polygon fill="#63b8ff" stroke="#63b8ff" points="630.17,-28.52 625.13,-19.2 623.26,-29.63 630.17,-28.52"/>
</a>
</g>
</g>
<!-- Node12 -->
<g id="Node000012" class="node">
<title>Node12</title>
<g id="a_Node000012"><a xlink:href="sd__cred__forward_8h.html" target="_top" xlink:title=" ">
<polygon fill="white" stroke="#666666" points="474,-74 368,-74 368,-55 474,-55 474,-74"/>
<text text-anchor="middle" x="421" y="-62" font-family="Helvetica,sans-Serif" font-size="10.00">sd_cred_forward.h</text>
</a>
</g>
</g>
<!-- Node7&#45;&gt;Node12 -->
<g id="edge14_Node000007_Node000012" class="edge">
<title>Node7&#45;&gt;Node12</title>
<g id="a_edge14_Node000007_Node000012"><a xlink:title=" ">
<path fill="none" stroke="#63b8ff" d="M365.6,-109.98C375.46,-102.07 390.35,-90.11 402.22,-80.58"/>
<polygon fill="#63b8ff" stroke="#63b8ff" points="404.6,-83.16 410.2,-74.17 400.21,-77.7 404.6,-83.16"/>
</a>
</g>
</g>
<!-- Node13 -->
<g id="Node000013" class="node">
<title>Node13</title>
<g id="a_Node000013"><a xlink:href="sd__registry_8h.html" target="_top" xlink:title=" ">
<polygon fill="white" stroke="#666666" points="608,-74 530,-74 530,-55 608,-55 608,-74"/>
<text text-anchor="middle" x="569" y="-62" font-family="Helvetica,sans-Serif" font-size="10.00">sd_registry.h</text>
</a>
</g>
</g>
<!-- Node7&#45;&gt;Node13 -->
<g id="edge16_Node000007_Node000013" class="edge">
<title>Node7&#45;&gt;Node13</title>
<g id="a_edge16_Node000007_Node000013"><a xlink:title=" ">
<path fill="none" stroke="#63b8ff" d="M389.38,-109.98C426.09,-100.89 484.38,-86.46 524.55,-76.51"/>
<polygon fill="#63b8ff" stroke="#63b8ff" points="525.48,-79.88 534.35,-74.08 523.8,-73.09 525.48,-79.88"/>
</a>
</g>
</g>
<!-- Node12&#45;&gt;Node8 -->
<g id="edge15_Node000012_Node000008" class="edge">
<title>Node12&#45;&gt;Node8</title>
<g id="a_edge15_Node000012_Node000008"><a xlink:title=" ">
<path fill="none" stroke="#63b8ff" d="M421,-54.75C421,-47.8 421,-37.85 421,-29.13"/>
<polygon fill="#63b8ff" stroke="#63b8ff" points="424.5,-29.09 421,-19.09 417.5,-29.09 424.5,-29.09"/>
</a>
</g>
</g>
<!-- Node13&#45;&gt;Node8 -->
<g id="edge17_Node000013_Node000008" class="edge">
<title>Node13&#45;&gt;Node8</title>
<g id="a_edge17_Node000013_Node000008"><a xlink:title=" ">
<path fill="none" stroke="#63b8ff" d="M545.22,-54.98C520.77,-46.23 482.47,-32.51 454.85,-22.62"/>
<polygon fill="#63b8ff" stroke="#63b8ff" points="455.81,-19.25 445.21,-19.17 453.45,-25.84 455.81,-19.25"/>
</a>
</g>
</g>
<!-- Node13&#45;&gt;Node10 -->
<g id="edge18_Node000013_Node000010" class="edge">
<title>Node13&#45;&gt;Node10</title>
<g id="a_edge18_Node000013_Node000010"><a xlink:title=" ">
<path fill="none" stroke="#63b8ff" d="M559.92,-54.75C551.91,-47.03 540.04,-35.6 530.38,-26.28"/>
<polygon fill="#63b8ff" stroke="#63b8ff" points="532.54,-23.51 522.91,-19.09 527.69,-28.55 532.54,-23.51"/>
</a>
</g>
</g>
<!-- Node13&#45;&gt;Node11 -->
<g id="edge19_Node000013_Node000011" class="edge">
<title>Node13&#45;&gt;Node11</title>
<g id="a_edge19_Node000013_Node000011"><a xlink:title=" ">
<path fill="none" stroke="#63b8ff" d="M577.92,-54.75C585.78,-47.03 597.43,-35.6 606.92,-26.28"/>
<polygon fill="#63b8ff" stroke="#63b8ff" points="609.56,-28.59 614.25,-19.09 604.66,-23.6 609.56,-28.59"/>
</a>
</g>
</g>
</g>
</svg>
