<?xml version="1.0" encoding="UTF-8" standalone="no"?>
<!DOCTYPE svg PUBLIC "-//W3C//DTD SVG 1.1//EN"
 "http://www.w3.org/Graphics/SVG/1.1/DTD/svg11.dtd">
<!-- Generated by graphviz version 2.43.0 (0)
 -->
<!-- Title: src/fs/backend/pblock/sd_pblock_catalog.h Pages: 1 -->
<svg width="450pt" height="170pt"
 viewBox="0.00 0.00 450.00 170.00" xmlns="http://www.w3.org/2000/svg" xmlns:xlink="http://www.w3.org/1999/xlink">
<g id="graph0" class="graph" transform="scale(1 1) rotate(0) translate(4 166)">
<title>src/fs/backend/pblock/sd_pblock_catalog.h</title>
<!-- Node1 -->
<g id="Node000001" class="node">
<title>Node1</title>
<g id="a_Node000001"><a xlink:title=" ">
<polygon fill="#999999" stroke="#666666" points="282,-162 160,-162 160,-132 282,-132 282,-162"/>
<text text-anchor="start" x="168" y="-150" font-family="Helvetica,sans-Serif" font-size="10.00">src/fs/backend/pblock</text>
<text text-anchor="middle" x="221" y="-139" font-family="Helvetica,sans-Serif" font-size="10.00">/sd_pblock_catalog.h</text>
</a>
</g>
</g>
<!-- Node2 -->
<g id="Node000002" class="node">
<title>Node2</title>
<g id="a_Node000002"><a xlink:href="pblock__store_8h.html" target="_top" xlink:title=" ">
<polygon fill="white" stroke="#666666" points="122,-96 0,-96 0,-66 122,-66 122,-96"/>
<text text-anchor="start" x="8" y="-84" font-family="Helvetica,sans-Serif" font-size="10.00">src/fs/backend/pblock</text>
<text text-anchor="middle" x="61" y="-73" font-family="Helvetica,sans-Serif" font-size="10.00">/pblock_store.h</text>
</a>
</g>
</g>
<!-- Node1&#45;&gt;Node2 -->
<g id="edge1_Node000001_Node000002" class="edge">
<title>Node1&#45;&gt;Node2</title>
<g id="a_edge1_Node000001_Node000002"><a xlink:title=" ">
<path fill="none" stroke="#63b8ff" d="M176.47,-128.19C151.06,-118.02 119.67,-105.47 96.03,-96.01"/>
<polygon fill="#63b8ff" stroke="#63b8ff" points="175.3,-131.49 185.89,-131.95 177.9,-124.99 175.3,-131.49"/>
</a>
</g>
</g>
<!-- Node4 -->
<g id="Node000004" class="node">
<title>Node4</title>
<g id="a_Node000004"><a xlink:href="sd__pblock__catalog__unittest_8c.html" target="_top" xlink:title=" ">
<polygon fill="white" stroke="#666666" points="301.5,-96 140.5,-96 140.5,-66 301.5,-66 301.5,-96"/>
<text text-anchor="start" x="148.5" y="-84" font-family="Helvetica,sans-Serif" font-size="10.00">src/fs/backend/pblock</text>
<text text-anchor="middle" x="221" y="-73" font-family="Helvetica,sans-Serif" font-size="10.00">/sd_pblock_catalog_unittest.c</text>
</a>
</g>
</g>
<!-- Node1&#45;&gt;Node4 -->
<g id="edge3_Node000001_Node000004" class="edge">
<title>Node1&#45;&gt;Node4</title>
<g id="a_edge3_Node000001_Node000004"><a xlink:title=" ">
<path fill="none" stroke="#63b8ff" d="M221,-121.54C221,-112.96 221,-103.61 221,-96.16"/>
<polygon fill="#63b8ff" stroke="#63b8ff" points="217.5,-121.8 221,-131.8 224.5,-121.8 217.5,-121.8"/>
</a>
</g>
</g>
<!-- Node5 -->
<g id="Node000005" class="node">
<title>Node5</title>
<g id="a_Node000005"><a xlink:href="sd__pblock__unittest_8c.html" target="_top" xlink:title=" ">
<polygon fill="white" stroke="#666666" points="442,-96 320,-96 320,-66 442,-66 442,-96"/>
<text text-anchor="start" x="328" y="-84" font-family="Helvetica,sans-Serif" font-size="10.00">src/fs/backend/pblock</text>
<text text-anchor="middle" x="381" y="-73" font-family="Helvetica,sans-Serif" font-size="10.00">/sd_pblock_unittest.c</text>
</a>
</g>
</g>
<!-- Node1&#45;&gt;Node5 -->
<g id="edge4_Node000001_Node000005" class="edge">
<title>Node1&#45;&gt;Node5</title>
<g id="a_edge4_Node000001_Node000005"><a xlink:title=" ">
<path fill="none" stroke="#63b8ff" d="M265.53,-128.19C290.94,-118.02 322.33,-105.47 345.97,-96.01"/>
<polygon fill="#63b8ff" stroke="#63b8ff" points="264.1,-124.99 256.11,-131.95 266.7,-131.49 264.1,-124.99"/>
</a>
</g>
</g>
<!-- Node3 -->
<g id="Node000003" class="node">
<title>Node3</title>
<g id="a_Node000003"><a xlink:href="pblock__store_8c.html" target="_top" xlink:title=" ">
<polygon fill="white" stroke="#666666" points="122,-30 0,-30 0,0 122,0 122,-30"/>
<text text-anchor="start" x="8" y="-18" font-family="Helvetica,sans-Serif" font-size="10.00">src/fs/backend/pblock</text>
<text text-anchor="middle" x="61" y="-7" font-family="Helvetica,sans-Serif" font-size="10.00">/pblock_store.c</text>
</a>
</g>
</g>
<!-- Node2&#45;&gt;Node3 -->
<g id="edge2_Node000002_Node000003" class="edge">
<title>Node2&#45;&gt;Node3</title>
<g id="a_edge2_Node000002_Node000003"><a xlink:title=" ">
<path fill="none" stroke="#63b8ff" d="M61,-55.54C61,-46.96 61,-37.61 61,-30.16"/>
<polygon fill="#63b8ff" stroke="#63b8ff" points="57.5,-55.8 61,-65.8 64.5,-55.8 57.5,-55.8"/>
</a>
</g>
</g>
</g>
</svg>
