<?xml version="1.0" encoding="UTF-8" standalone="no"?>
<!DOCTYPE svg PUBLIC "-//W3C//DTD SVG 1.1//EN"
 "http://www.w3.org/Graphics/SVG/1.1/DTD/svg11.dtd">
<!-- Generated by graphviz version 2.43.0 (0)
 -->
<!-- Title: src/fs/backend/frm/sd_frm_stub.c Pages: 1 -->
<svg width="1004pt" height="258pt"
 viewBox="0.00 0.00 1004.00 258.00" xmlns="http://www.w3.org/2000/svg" xmlns:xlink="http://www.w3.org/1999/xlink">
<g id="graph0" class="graph" transform="scale(1 1) rotate(0) translate(4 254)">
<title>src/fs/backend/frm/sd_frm_stub.c</title>
<!-- Node1 -->
<g id="Node000001" class="node">
<title>Node1</title>
<g id="a_Node000001"><a xlink:title=" ">
<polygon fill="#999999" stroke="#666666" points="688.5,-250 581.5,-250 581.5,-220 688.5,-220 688.5,-250"/>
<text text-anchor="start" x="589.5" y="-238" font-family="Helvetica,sans-Serif" font-size="10.00">src/fs/backend/frm</text>
<text text-anchor="middle" x="635" y="-227" font-family="Helvetica,sans-Serif" font-size="10.00">/sd_frm_stub.c</text>
</a>
</g>
</g>
<!-- Node2 -->
<g id="Node000002" class="node">
<title>Node2</title>
<g id="a_Node000002"><a xlink:href="sd__frm__mss_8h.html" target="_top" xlink:title=" ">
<polygon fill="white" stroke="#666666" points="381.5,-184 296.5,-184 296.5,-165 381.5,-165 381.5,-184"/>
<text text-anchor="middle" x="339" y="-172" font-family="Helvetica,sans-Serif" font-size="10.00">sd_frm_mss.h</text>
</a>
</g>
</g>
<!-- Node1&#45;&gt;Node2 -->
<g id="edge1_Node000001_Node000002" class="edge">
<title>Node1&#45;&gt;Node2</title>
<g id="a_edge1_Node000001_Node000002"><a xlink:title=" ">
<path fill="none" stroke="#63b8ff" d="M581.4,-223.41C527.56,-212.77 445.11,-196.47 391.62,-185.9"/>
<polygon fill="#63b8ff" stroke="#63b8ff" points="392.14,-182.44 381.66,-183.93 390.79,-189.3 392.14,-182.44"/>
</a>
</g>
</g>
<!-- Node8 -->
<g id="Node000008" class="node">
<title>Node8</title>
<g id="a_Node000008"><a xlink:title=" ">
<polygon fill="#e0e0e0" stroke="#999999" points="488,-19 424,-19 424,0 488,0 488,-19"/>
<text text-anchor="middle" x="456" y="-7" font-family="Helvetica,sans-Serif" font-size="10.00">sys/stat.h</text>
</a>
</g>
</g>
<!-- Node1&#45;&gt;Node8 -->
<g id="edge16_Node000001_Node000008" class="edge">
<title>Node1&#45;&gt;Node8</title>
<g id="a_edge16_Node000001_Node000008"><a xlink:title=" ">
<path fill="none" stroke="#63b8ff" d="M581.29,-228.36C526.99,-221.42 448.5,-207.55 430,-184 393.53,-137.56 427.21,-61.96 445.7,-28"/>
<polygon fill="#63b8ff" stroke="#63b8ff" points="448.79,-29.65 450.65,-19.22 442.69,-26.21 448.79,-29.65"/>
</a>
</g>
</g>
<!-- Node11 -->
<g id="Node000011" class="node">
<title>Node11</title>
<g id="a_Node000011"><a xlink:title=" ">
<polygon fill="#e0e0e0" stroke="#999999" points="490.5,-184 439.5,-184 439.5,-165 490.5,-165 490.5,-184"/>
<text text-anchor="middle" x="465" y="-172" font-family="Helvetica,sans-Serif" font-size="10.00">errno.h</text>
</a>
</g>
</g>
<!-- Node1&#45;&gt;Node11 -->
<g id="edge10_Node000001_Node000011" class="edge">
<title>Node1&#45;&gt;Node11</title>
<g id="a_edge10_Node000001_Node000011"><a xlink:title=" ">
<path fill="none" stroke="#63b8ff" d="M594.28,-219.99C565.41,-210.05 527.09,-196.86 499.67,-187.43"/>
<polygon fill="#63b8ff" stroke="#63b8ff" points="500.7,-184.08 490.11,-184.14 498.42,-190.7 500.7,-184.08"/>
</a>
</g>
</g>
<!-- Node12 -->
<g id="Node000012" class="node">
<title>Node12</title>
<g id="a_Node000012"><a xlink:title=" ">
<polygon fill="#e0e0e0" stroke="#999999" points="555.5,-184 508.5,-184 508.5,-165 555.5,-165 555.5,-184"/>
<text text-anchor="middle" x="532" y="-172" font-family="Helvetica,sans-Serif" font-size="10.00">fcntl.h</text>
</a>
</g>
</g>
<!-- Node1&#45;&gt;Node12 -->
<g id="edge11_Node000001_Node000012" class="edge">
<title>Node1&#45;&gt;Node12</title>
<g id="a_edge11_Node000001_Node000012"><a xlink:title=" ">
<path fill="none" stroke="#63b8ff" d="M610.33,-219.99C593.91,-210.66 572.45,-198.47 556.14,-189.21"/>
<polygon fill="#63b8ff" stroke="#63b8ff" points="557.63,-186.03 547.21,-184.14 554.18,-192.12 557.63,-186.03"/>
</a>
</g>
</g>
<!-- Node13 -->
<g id="Node000013" class="node">
<title>Node13</title>
<g id="a_Node000013"><a xlink:title=" ">
<polygon fill="#e0e0e0" stroke="#999999" points="626.5,-184 573.5,-184 573.5,-165 626.5,-165 626.5,-184"/>
<text text-anchor="middle" x="600" y="-172" font-family="Helvetica,sans-Serif" font-size="10.00">limits.h</text>
</a>
</g>
</g>
<!-- Node1&#45;&gt;Node13 -->
<g id="edge12_Node000001_Node000013" class="edge">
<title>Node1&#45;&gt;Node13</title>
<g id="a_edge12_Node000001_Node000013"><a xlink:title=" ">
<path fill="none" stroke="#63b8ff" d="M626.53,-219.84C621.71,-211.78 615.63,-201.62 610.5,-193.06"/>
<polygon fill="#63b8ff" stroke="#63b8ff" points="613.38,-191.05 605.24,-184.27 607.38,-194.64 613.38,-191.05"/>
</a>
</g>
</g>
<!-- Node14 -->
<g id="Node000014" class="node">
<title>Node14</title>
<g id="a_Node000014"><a xlink:title=" ">
<polygon fill="#e0e0e0" stroke="#999999" points="695,-184 645,-184 645,-165 695,-165 695,-184"/>
<text text-anchor="middle" x="670" y="-172" font-family="Helvetica,sans-Serif" font-size="10.00">stdio.h</text>
</a>
</g>
</g>
<!-- Node1&#45;&gt;Node14 -->
<g id="edge13_Node000001_Node000014" class="edge">
<title>Node1&#45;&gt;Node14</title>
<g id="a_edge13_Node000001_Node000014"><a xlink:title=" ">
<path fill="none" stroke="#63b8ff" d="M643.47,-219.84C648.29,-211.78 654.37,-201.62 659.5,-193.06"/>
<polygon fill="#63b8ff" stroke="#63b8ff" points="662.62,-194.64 664.76,-184.27 656.62,-191.05 662.62,-194.64"/>
</a>
</g>
</g>
<!-- Node15 -->
<g id="Node000015" class="node">
<title>Node15</title>
<g id="a_Node000015"><a xlink:title=" ">
<polygon fill="#e0e0e0" stroke="#999999" points="766.5,-184 713.5,-184 713.5,-165 766.5,-165 766.5,-184"/>
<text text-anchor="middle" x="740" y="-172" font-family="Helvetica,sans-Serif" font-size="10.00">stdlib.h</text>
</a>
</g>
</g>
<!-- Node1&#45;&gt;Node15 -->
<g id="edge14_Node000001_Node000015" class="edge">
<title>Node1&#45;&gt;Node15</title>
<g id="a_edge14_Node000001_Node000015"><a xlink:title=" ">
<path fill="none" stroke="#63b8ff" d="M660.15,-219.99C676.89,-210.66 698.77,-198.47 715.39,-189.21"/>
<polygon fill="#63b8ff" stroke="#63b8ff" points="717.46,-192.06 724.49,-184.14 714.05,-185.95 717.46,-192.06"/>
</a>
</g>
</g>
<!-- Node16 -->
<g id="Node000016" class="node">
<title>Node16</title>
<g id="a_Node000016"><a xlink:title=" ">
<polygon fill="#e0e0e0" stroke="#999999" points="837.5,-184 784.5,-184 784.5,-165 837.5,-165 837.5,-184"/>
<text text-anchor="middle" x="811" y="-172" font-family="Helvetica,sans-Serif" font-size="10.00">string.h</text>
</a>
</g>
</g>
<!-- Node1&#45;&gt;Node16 -->
<g id="edge15_Node000001_Node000016" class="edge">
<title>Node1&#45;&gt;Node16</title>
<g id="a_edge15_Node000001_Node000016"><a xlink:title=" ">
<path fill="none" stroke="#63b8ff" d="M677.16,-219.99C707.27,-209.98 747.31,-196.67 775.73,-187.22"/>
<polygon fill="#63b8ff" stroke="#63b8ff" points="776.88,-190.53 785.27,-184.05 774.67,-183.89 776.88,-190.53"/>
</a>
</g>
</g>
<!-- Node17 -->
<g id="Node000017" class="node">
<title>Node17</title>
<g id="a_Node000017"><a xlink:href="time_8h.html" target="_top" xlink:title=" ">
<polygon fill="white" stroke="#666666" points="904,-184 856,-184 856,-165 904,-165 904,-184"/>
<text text-anchor="middle" x="880" y="-172" font-family="Helvetica,sans-Serif" font-size="10.00">time.h</text>
</a>
</g>
</g>
<!-- Node1&#45;&gt;Node17 -->
<g id="edge17_Node000001_Node000017" class="edge">
<title>Node1&#45;&gt;Node17</title>
<g id="a_edge17_Node000001_Node000017"><a xlink:title=" ">
<path fill="none" stroke="#63b8ff" d="M688.81,-221.44C731.48,-211.44 792.6,-197 846,-184 846.1,-183.98 846.2,-183.95 846.3,-183.93"/>
<polygon fill="#63b8ff" stroke="#63b8ff" points="846.99,-187.36 855.86,-181.57 845.32,-180.56 846.99,-187.36"/>
</a>
</g>
</g>
<!-- Node19 -->
<g id="Node000019" class="node">
<title>Node19</title>
<g id="a_Node000019"><a xlink:title=" ">
<polygon fill="#e0e0e0" stroke="#999999" points="996,-184 940,-184 940,-165 996,-165 996,-184"/>
<text text-anchor="middle" x="968" y="-172" font-family="Helvetica,sans-Serif" font-size="10.00">unistd.h</text>
</a>
</g>
</g>
<!-- Node1&#45;&gt;Node19 -->
<g id="edge20_Node000001_Node000019" class="edge">
<title>Node1&#45;&gt;Node19</title>
<g id="a_edge20_Node000001_Node000019"><a xlink:title=" ">
<path fill="none" stroke="#63b8ff" d="M688.65,-225.9C745.99,-217.03 839.78,-201.91 929.92,-184.12"/>
<polygon fill="#63b8ff" stroke="#63b8ff" points="930.63,-187.55 939.75,-182.17 929.26,-180.68 930.63,-187.55"/>
</a>
</g>
</g>
<!-- Node3 -->
<g id="Node000003" class="node">
<title>Node3</title>
<g id="a_Node000003"><a xlink:href="sd__frm_8h.html" target="_top" xlink:title=" ">
<polygon fill="white" stroke="#666666" points="367.5,-129 308.5,-129 308.5,-110 367.5,-110 367.5,-129"/>
<text text-anchor="middle" x="338" y="-117" font-family="Helvetica,sans-Serif" font-size="10.00">sd_frm.h</text>
</a>
</g>
</g>
<!-- Node2&#45;&gt;Node3 -->
<g id="edge2_Node000002_Node000003" class="edge">
<title>Node2&#45;&gt;Node3</title>
<g id="a_edge2_Node000002_Node000003"><a xlink:title=" ">
<path fill="none" stroke="#63b8ff" d="M338.83,-164.75C338.7,-157.8 338.52,-147.85 338.35,-139.13"/>
<polygon fill="#63b8ff" stroke="#63b8ff" points="341.85,-139.02 338.16,-129.09 334.85,-139.15 341.85,-139.02"/>
</a>
</g>
</g>
<!-- Node4 -->
<g id="Node000004" class="node">
<title>Node4</title>
<g id="a_Node000004"><a xlink:href="sd_8h.html" target="_top" xlink:title=" ">
<polygon fill="white" stroke="#666666" points="338,-74 246,-74 246,-55 338,-55 338,-74"/>
<text text-anchor="middle" x="292" y="-62" font-family="Helvetica,sans-Serif" font-size="10.00">fs/backend/sd.h</text>
</a>
</g>
</g>
<!-- Node3&#45;&gt;Node4 -->
<g id="edge3_Node000003_Node000004" class="edge">
<title>Node3&#45;&gt;Node4</title>
<g id="a_edge3_Node000003_Node000004"><a xlink:title=" ">
<path fill="none" stroke="#63b8ff" d="M330.4,-109.75C323.84,-102.18 314.18,-91.05 306.19,-81.84"/>
<polygon fill="#63b8ff" stroke="#63b8ff" points="308.65,-79.35 299.45,-74.09 303.37,-83.94 308.65,-79.35"/>
</a>
</g>
</g>
<!-- Node5 -->
<g id="Node000005" class="node">
<title>Node5</title>
<g id="a_Node000005"><a xlink:title=" ">
<polygon fill="#e0e0e0" stroke="#999999" points="78,-19 0,-19 0,0 78,0 78,-19"/>
<text text-anchor="middle" x="39" y="-7" font-family="Helvetica,sans-Serif" font-size="10.00">ngx_config.h</text>
</a>
</g>
</g>
<!-- Node4&#45;&gt;Node5 -->
<g id="edge4_Node000004_Node000005" class="edge">
<title>Node4&#45;&gt;Node5</title>
<g id="a_edge4_Node000004_Node000005"><a xlink:title=" ">
<path fill="none" stroke="#63b8ff" d="M251.35,-54.98C206.98,-45.69 135.91,-30.8 88.37,-20.84"/>
<polygon fill="#63b8ff" stroke="#63b8ff" points="88.8,-17.36 78.3,-18.73 87.37,-24.21 88.8,-17.36"/>
</a>
</g>
</g>
<!-- Node6 -->
<g id="Node000006" class="node">
<title>Node6</title>
<g id="a_Node000006"><a xlink:title=" ">
<polygon fill="#e0e0e0" stroke="#999999" points="166,-19 96,-19 96,0 166,0 166,-19"/>
<text text-anchor="middle" x="131" y="-7" font-family="Helvetica,sans-Serif" font-size="10.00">ngx_core.h</text>
</a>
</g>
</g>
<!-- Node4&#45;&gt;Node6 -->
<g id="edge5_Node000004_Node000006" class="edge">
<title>Node4&#45;&gt;Node6</title>
<g id="a_edge5_Node000004_Node000006"><a xlink:title=" ">
<path fill="none" stroke="#63b8ff" d="M266.13,-54.98C239.22,-46.13 196.88,-32.19 166.77,-22.28"/>
<polygon fill="#63b8ff" stroke="#63b8ff" points="167.66,-18.88 157.07,-19.08 165.47,-25.53 167.66,-18.88"/>
</a>
</g>
</g>
<!-- Node7 -->
<g id="Node000007" class="node">
<title>Node7</title>
<g id="a_Node000007"><a xlink:title=" ">
<polygon fill="#e0e0e0" stroke="#999999" points="237.5,-19 184.5,-19 184.5,0 237.5,0 237.5,-19"/>
<text text-anchor="middle" x="211" y="-7" font-family="Helvetica,sans-Serif" font-size="10.00">stdint.h</text>
</a>
</g>
</g>
<!-- Node4&#45;&gt;Node7 -->
<g id="edge6_Node000004_Node000007" class="edge">
<title>Node4&#45;&gt;Node7</title>
<g id="a_edge6_Node000004_Node000007"><a xlink:title=" ">
<path fill="none" stroke="#63b8ff" d="M278.99,-54.98C266.54,-46.84 247.54,-34.41 232.79,-24.76"/>
<polygon fill="#63b8ff" stroke="#63b8ff" points="234.54,-21.72 224.25,-19.17 230.7,-27.57 234.54,-21.72"/>
</a>
</g>
</g>
<!-- Node4&#45;&gt;Node8 -->
<g id="edge7_Node000004_Node000008" class="edge">
<title>Node4&#45;&gt;Node8</title>
<g id="a_edge7_Node000004_Node000008"><a xlink:title=" ">
<path fill="none" stroke="#63b8ff" d="M318.35,-54.98C345.76,-46.13 388.89,-32.19 419.56,-22.28"/>
<polygon fill="#63b8ff" stroke="#63b8ff" points="421,-25.49 429.44,-19.08 418.85,-18.83 421,-25.49"/>
</a>
</g>
</g>
<!-- Node9 -->
<g id="Node000009" class="node">
<title>Node9</title>
<g id="a_Node000009"><a xlink:title=" ">
<polygon fill="#e0e0e0" stroke="#999999" points="328,-19 256,-19 256,0 328,0 328,-19"/>
<text text-anchor="middle" x="292" y="-7" font-family="Helvetica,sans-Serif" font-size="10.00">sys/types.h</text>
</a>
</g>
</g>
<!-- Node4&#45;&gt;Node9 -->
<g id="edge8_Node000004_Node000009" class="edge">
<title>Node4&#45;&gt;Node9</title>
<g id="a_edge8_Node000004_Node000009"><a xlink:title=" ">
<path fill="none" stroke="#63b8ff" d="M292,-54.75C292,-47.8 292,-37.85 292,-29.13"/>
<polygon fill="#63b8ff" stroke="#63b8ff" points="295.5,-29.09 292,-19.09 288.5,-29.09 295.5,-29.09"/>
</a>
</g>
</g>
<!-- Node10 -->
<g id="Node000010" class="node">
<title>Node10</title>
<g id="a_Node000010"><a xlink:title=" ">
<polygon fill="#e0e0e0" stroke="#999999" points="406,-19 346,-19 346,0 406,0 406,-19"/>
<text text-anchor="middle" x="376" y="-7" font-family="Helvetica,sans-Serif" font-size="10.00">sys/uio.h</text>
</a>
</g>
</g>
<!-- Node4&#45;&gt;Node10 -->
<g id="edge9_Node000004_Node000010" class="edge">
<title>Node4&#45;&gt;Node10</title>
<g id="a_edge9_Node000004_Node000010"><a xlink:title=" ">
<path fill="none" stroke="#63b8ff" d="M305.5,-54.98C318.4,-46.84 338.1,-34.41 353.4,-24.76"/>
<polygon fill="#63b8ff" stroke="#63b8ff" points="355.67,-27.47 362.26,-19.17 351.93,-21.55 355.67,-27.47"/>
</a>
</g>
</g>
<!-- Node17&#45;&gt;Node17 -->
<g id="edge19_Node000017_Node000017" class="edge">
<title>Node17&#45;&gt;Node17</title>
<g id="a_edge19_Node000017_Node000017"><a xlink:title=" ">
<path fill="none" stroke="#63b8ff" d="M899.88,-184.07C911.33,-186.02 922,-182.83 922,-174.5 922,-168.77 916.96,-165.47 910.08,-164.61"/>
<polygon fill="#63b8ff" stroke="#63b8ff" points="909.76,-161.12 899.88,-164.93 909.98,-168.11 909.76,-161.12"/>
</a>
</g>
</g>
<!-- Node18 -->
<g id="Node000018" class="node">
<title>Node18</title>
<g id="a_Node000018"><a xlink:title=" ">
<polygon fill="#e0e0e0" stroke="#999999" points="908,-129 852,-129 852,-110 908,-110 908,-129"/>
<text text-anchor="middle" x="880" y="-117" font-family="Helvetica,sans-Serif" font-size="10.00">stddef.h</text>
</a>
</g>
</g>
<!-- Node17&#45;&gt;Node18 -->
<g id="edge18_Node000017_Node000018" class="edge">
<title>Node17&#45;&gt;Node18</title>
<g id="a_edge18_Node000017_Node000018"><a xlink:title=" ">
<path fill="none" stroke="#63b8ff" d="M880,-164.75C880,-157.8 880,-147.85 880,-139.13"/>
<polygon fill="#63b8ff" stroke="#63b8ff" points="883.5,-139.09 880,-129.09 876.5,-139.09 883.5,-139.09"/>
</a>
</g>
</g>
</g>
</svg>
