<?xml version="1.0" encoding="UTF-8" standalone="no"?>
<!DOCTYPE svg PUBLIC "-//W3C//DTD SVG 1.1//EN"
 "http://www.w3.org/Graphics/SVG/1.1/DTD/svg11.dtd">
<!-- Generated by graphviz version 2.43.0 (0)
 -->
<!-- Title: src/fs/backend/pblock/sd_pblock_catalog.h Pages: 1 -->
<svg width="947pt" height="170pt"
 viewBox="0.00 0.00 947.00 170.00" xmlns="http://www.w3.org/2000/svg" xmlns:xlink="http://www.w3.org/1999/xlink">
<g id="graph0" class="graph" transform="scale(1 1) rotate(0) translate(4 166)">
<title>src/fs/backend/pblock/sd_pblock_catalog.h</title>
<!-- Node1 -->
<g id="Node000001" class="node">
<title>Node1</title>
<g id="a_Node000001"><a xlink:title=" ">
<polygon fill="#999999" stroke="#666666" points="491,-162 369,-162 369,-132 491,-132 491,-162"/>
<text text-anchor="start" x="377" y="-150" font-family="Helvetica,sans-Serif" font-size="10.00">src/fs/backend/pblock</text>
<text text-anchor="middle" x="430" y="-139" font-family="Helvetica,sans-Serif" font-size="10.00">/sd_pblock_catalog.h</text>
</a>
</g>
</g>
<!-- Node2 -->
<g id="Node000002" class="node">
<title>Node2</title>
<g id="a_Node000002"><a xlink:href="pblock__ctl_8h.html" target="_top" xlink:title=" ">
<polygon fill="white" stroke="#666666" points="122,-96 0,-96 0,-66 122,-66 122,-96"/>
<text text-anchor="start" x="8" y="-84" font-family="Helvetica,sans-Serif" font-size="10.00">src/fs/backend/pblock</text>
<text text-anchor="middle" x="61" y="-73" font-family="Helvetica,sans-Serif" font-size="10.00">/pblock_ctl.h</text>
</a>
</g>
</g>
<!-- Node1&#45;&gt;Node2 -->
<g id="edge1_Node000001_Node000002" class="edge">
<title>Node1&#45;&gt;Node2</title>
<g id="a_edge1_Node000001_Node000002"><a xlink:title=" ">
<path fill="none" stroke="#63b8ff" d="M358.68,-134.73C298.04,-124.98 208.68,-110.26 131,-96 128.07,-95.46 125.08,-94.9 122.06,-94.33"/>
<polygon fill="#63b8ff" stroke="#63b8ff" points="358.49,-138.24 368.91,-136.37 359.59,-131.33 358.49,-138.24"/>
</a>
</g>
</g>
<!-- Node3 -->
<g id="Node000003" class="node">
<title>Node3</title>
<g id="a_Node000003"><a xlink:href="pblock__fault_8h.html" target="_top" xlink:title=" ">
<polygon fill="white" stroke="#666666" points="262,-96 140,-96 140,-66 262,-66 262,-96"/>
<text text-anchor="start" x="148" y="-84" font-family="Helvetica,sans-Serif" font-size="10.00">src/fs/backend/pblock</text>
<text text-anchor="middle" x="201" y="-73" font-family="Helvetica,sans-Serif" font-size="10.00">/pblock_fault.h</text>
</a>
</g>
</g>
<!-- Node1&#45;&gt;Node3 -->
<g id="edge2_Node000001_Node000003" class="edge">
<title>Node1&#45;&gt;Node3</title>
<g id="a_edge2_Node000001_Node000003"><a xlink:title=" ">
<path fill="none" stroke="#63b8ff" d="M370.08,-129.25C333.08,-118.91 286.16,-105.8 251.14,-96.01"/>
<polygon fill="#63b8ff" stroke="#63b8ff" points="369.17,-132.63 379.74,-131.95 371.06,-125.89 369.17,-132.63"/>
</a>
</g>
</g>
<!-- Node4 -->
<g id="Node000004" class="node">
<title>Node4</title>
<g id="a_Node000004"><a xlink:href="pblock__store_8h.html" target="_top" xlink:title=" ">
<polygon fill="white" stroke="#666666" points="402,-96 280,-96 280,-66 402,-66 402,-96"/>
<text text-anchor="start" x="288" y="-84" font-family="Helvetica,sans-Serif" font-size="10.00">src/fs/backend/pblock</text>
<text text-anchor="middle" x="341" y="-73" font-family="Helvetica,sans-Serif" font-size="10.00">/pblock_store.h</text>
</a>
</g>
</g>
<!-- Node1&#45;&gt;Node4 -->
<g id="edge3_Node000001_Node000004" class="edge">
<title>Node1&#45;&gt;Node4</title>
<g id="a_edge3_Node000001_Node000004"><a xlink:title=" ">
<path fill="none" stroke="#63b8ff" d="M401.84,-125.75C388.46,-116.13 372.78,-104.86 360.7,-96.16"/>
<polygon fill="#63b8ff" stroke="#63b8ff" points="400.09,-128.8 410.25,-131.8 404.17,-123.12 400.09,-128.8"/>
</a>
</g>
</g>
<!-- Node7 -->
<g id="Node000007" class="node">
<title>Node7</title>
<g id="a_Node000007"><a xlink:href="sd__pblock__internal_8h.html" target="_top" xlink:title=" ">
<polygon fill="white" stroke="#666666" points="516,-30 394,-30 394,0 516,0 516,-30"/>
<text text-anchor="start" x="402" y="-18" font-family="Helvetica,sans-Serif" font-size="10.00">src/fs/backend/pblock</text>
<text text-anchor="middle" x="455" y="-7" font-family="Helvetica,sans-Serif" font-size="10.00">/sd_pblock_internal.h</text>
</a>
</g>
</g>
<!-- Node1&#45;&gt;Node7 -->
<g id="edge9_Node000001_Node000007" class="edge">
<title>Node1&#45;&gt;Node7</title>
<g id="a_edge9_Node000001_Node000007"><a xlink:title=" ">
<path fill="none" stroke="#63b8ff" d="M434.68,-121.68C439.86,-94.7 448.06,-52.11 452.28,-30.14"/>
<polygon fill="#63b8ff" stroke="#63b8ff" points="431.17,-121.36 432.72,-131.84 438.05,-122.68 431.17,-121.36"/>
</a>
</g>
</g>
<!-- Node8 -->
<g id="Node000008" class="node">
<title>Node8</title>
<g id="a_Node000008"><a xlink:href="sd__pblock__catalog__internal_8h.html" target="_top" xlink:title=" ">
<polygon fill="white" stroke="#666666" points="619.5,-96 458.5,-96 458.5,-66 619.5,-66 619.5,-96"/>
<text text-anchor="start" x="466.5" y="-84" font-family="Helvetica,sans-Serif" font-size="10.00">src/fs/backend/pblock</text>
<text text-anchor="middle" x="539" y="-73" font-family="Helvetica,sans-Serif" font-size="10.00">/sd_pblock_catalog_internal.h</text>
</a>
</g>
</g>
<!-- Node1&#45;&gt;Node8 -->
<g id="edge7_Node000001_Node000008" class="edge">
<title>Node1&#45;&gt;Node8</title>
<g id="a_edge7_Node000001_Node000008"><a xlink:title=" ">
<path fill="none" stroke="#63b8ff" d="M462.88,-126.69C479.71,-116.82 499.81,-105.01 515.14,-96.01"/>
<polygon fill="#63b8ff" stroke="#63b8ff" points="460.77,-123.87 453.92,-131.95 464.32,-129.91 460.77,-123.87"/>
</a>
</g>
</g>
<!-- Node9 -->
<g id="Node000009" class="node">
<title>Node9</title>
<g id="a_Node000009"><a xlink:href="sd__pblock__catalog__unittest_8c.html" target="_top" xlink:title=" ">
<polygon fill="white" stroke="#666666" points="798.5,-96 637.5,-96 637.5,-66 798.5,-66 798.5,-96"/>
<text text-anchor="start" x="645.5" y="-84" font-family="Helvetica,sans-Serif" font-size="10.00">src/fs/backend/pblock</text>
<text text-anchor="middle" x="718" y="-73" font-family="Helvetica,sans-Serif" font-size="10.00">/sd_pblock_catalog_unittest.c</text>
</a>
</g>
</g>
<!-- Node1&#45;&gt;Node9 -->
<g id="edge8_Node000001_Node000009" class="edge">
<title>Node1&#45;&gt;Node9</title>
<g id="a_edge8_Node000001_Node000009"><a xlink:title=" ">
<path fill="none" stroke="#63b8ff" d="M500.9,-130.24C548.01,-119.78 609.32,-106.15 654.77,-96.05"/>
<polygon fill="#63b8ff" stroke="#63b8ff" points="500.08,-126.84 491.08,-132.43 501.6,-133.67 500.08,-126.84"/>
</a>
</g>
</g>
<!-- Node10 -->
<g id="Node000010" class="node">
<title>Node10</title>
<g id="a_Node000010"><a xlink:href="sd__pblock__unittest_8c.html" target="_top" xlink:title=" ">
<polygon fill="white" stroke="#666666" points="939,-96 817,-96 817,-66 939,-66 939,-96"/>
<text text-anchor="start" x="825" y="-84" font-family="Helvetica,sans-Serif" font-size="10.00">src/fs/backend/pblock</text>
<text text-anchor="middle" x="878" y="-73" font-family="Helvetica,sans-Serif" font-size="10.00">/sd_pblock_unittest.c</text>
</a>
</g>
</g>
<!-- Node1&#45;&gt;Node10 -->
<g id="edge10_Node000001_Node000010" class="edge">
<title>Node1&#45;&gt;Node10</title>
<g id="a_edge10_Node000001_Node000010"><a xlink:title=" ">
<path fill="none" stroke="#63b8ff" d="M501.03,-138.02C577.15,-129.14 701.44,-113.68 808,-96 810.93,-95.51 813.93,-94.99 816.96,-94.45"/>
<polygon fill="#63b8ff" stroke="#63b8ff" points="500.6,-134.55 491.07,-139.18 501.41,-141.5 500.6,-134.55"/>
</a>
</g>
</g>
<!-- Node5 -->
<g id="Node000005" class="node">
<title>Node5</title>
<g id="a_Node000005"><a xlink:href="pblock__snap_8h.html" target="_top" xlink:title=" ">
<polygon fill="white" stroke="#666666" points="236,-30 114,-30 114,0 236,0 236,-30"/>
<text text-anchor="start" x="122" y="-18" font-family="Helvetica,sans-Serif" font-size="10.00">src/fs/backend/pblock</text>
<text text-anchor="middle" x="175" y="-7" font-family="Helvetica,sans-Serif" font-size="10.00">/pblock_snap.h</text>
</a>
</g>
</g>
<!-- Node4&#45;&gt;Node5 -->
<g id="edge4_Node000004_Node000005" class="edge">
<title>Node4&#45;&gt;Node5</title>
<g id="a_edge4_Node000004_Node000005"><a xlink:title=" ">
<path fill="none" stroke="#63b8ff" d="M295.15,-62.32C268.73,-52.14 235.98,-39.51 211.34,-30.01"/>
<polygon fill="#63b8ff" stroke="#63b8ff" points="293.98,-65.62 304.57,-65.95 296.5,-59.09 293.98,-65.62"/>
</a>
</g>
</g>
<!-- Node6 -->
<g id="Node000006" class="node">
<title>Node6</title>
<g id="a_Node000006"><a xlink:href="pblock__store_8c.html" target="_top" xlink:title=" ">
<polygon fill="white" stroke="#666666" points="376,-30 254,-30 254,0 376,0 376,-30"/>
<text text-anchor="start" x="262" y="-18" font-family="Helvetica,sans-Serif" font-size="10.00">src/fs/backend/pblock</text>
<text text-anchor="middle" x="315" y="-7" font-family="Helvetica,sans-Serif" font-size="10.00">/pblock_store.c</text>
</a>
</g>
</g>
<!-- Node4&#45;&gt;Node6 -->
<g id="edge5_Node000004_Node000006" class="edge">
<title>Node4&#45;&gt;Node6</title>
<g id="a_edge5_Node000004_Node000006"><a xlink:title=" ">
<path fill="none" stroke="#63b8ff" d="M331.41,-56.39C327.83,-47.59 323.88,-37.86 320.75,-30.16"/>
<polygon fill="#63b8ff" stroke="#63b8ff" points="328.22,-57.85 335.23,-65.8 334.71,-55.21 328.22,-57.85"/>
</a>
</g>
</g>
<!-- Node4&#45;&gt;Node7 -->
<g id="edge6_Node000004_Node000007" class="edge">
<title>Node4&#45;&gt;Node7</title>
<g id="a_edge6_Node000004_Node000007"><a xlink:title=" ">
<path fill="none" stroke="#63b8ff" d="M374.9,-60.97C392.6,-51.03 413.87,-39.09 430.04,-30.01"/>
<polygon fill="#63b8ff" stroke="#63b8ff" points="373.02,-58.01 366.02,-65.95 376.45,-64.11 373.02,-58.01"/>
</a>
</g>
</g>
</g>
</svg>
