<?xml version="1.0" encoding="UTF-8" standalone="no"?>
<!DOCTYPE svg PUBLIC "-//W3C//DTD SVG 1.1//EN"
 "http://www.w3.org/Graphics/SVG/1.1/DTD/svg11.dtd">
<!-- Generated by graphviz version 2.43.0 (0)
 -->
<!-- Title: src/fs/backend/xroot/sd_xroot.h Pages: 1 -->
<svg width="904pt" height="203pt"
 viewBox="0.00 0.00 903.50 203.00" xmlns="http://www.w3.org/2000/svg" xmlns:xlink="http://www.w3.org/1999/xlink">
<g id="graph0" class="graph" transform="scale(1 1) rotate(0) translate(4 199)">
<title>src/fs/backend/xroot/sd_xroot.h</title>
<!-- Node1 -->
<g id="Node000001" class="node">
<title>Node1</title>
<g id="a_Node000001"><a xlink:title=" ">
<polygon fill="#999999" stroke="#666666" points="586.5,-195 471.5,-195 471.5,-165 586.5,-165 586.5,-195"/>
<text text-anchor="start" x="479.5" y="-183" font-family="Helvetica,sans-Serif" font-size="10.00">src/fs/backend/xroot</text>
<text text-anchor="middle" x="529" y="-172" font-family="Helvetica,sans-Serif" font-size="10.00">/sd_xroot.h</text>
</a>
</g>
</g>
<!-- Node2 -->
<g id="Node000002" class="node">
<title>Node2</title>
<g id="a_Node000002"><a xlink:href="sd_8h.html" target="_top" xlink:title=" ">
<polygon fill="white" stroke="#666666" points="448,-129 356,-129 356,-110 448,-110 448,-129"/>
<text text-anchor="middle" x="402" y="-117" font-family="Helvetica,sans-Serif" font-size="10.00">fs/backend/sd.h</text>
</a>
</g>
</g>
<!-- Node1&#45;&gt;Node2 -->
<g id="edge1_Node000001_Node000002" class="edge">
<title>Node1&#45;&gt;Node2</title>
<g id="a_edge1_Node000001_Node000002"><a xlink:title=" ">
<path fill="none" stroke="#63b8ff" d="M498.58,-164.99C477.77,-155.4 450.38,-142.79 430.09,-133.44"/>
<polygon fill="#63b8ff" stroke="#63b8ff" points="431.3,-130.14 420.76,-129.14 428.37,-136.5 431.3,-130.14"/>
</a>
</g>
</g>
<!-- Node12 -->
<g id="Node000012" class="node">
<title>Node12</title>
<g id="a_Node000012"><a xlink:href="af__policy_8h.html" target="_top" xlink:title=" ">
<polygon fill="white" stroke="#666666" points="819,-129 687,-129 687,-110 819,-110 819,-129"/>
<text text-anchor="middle" x="753" y="-117" font-family="Helvetica,sans-Serif" font-size="10.00">core/compat/af_policy.h</text>
</a>
</g>
</g>
<!-- Node1&#45;&gt;Node12 -->
<g id="edge15_Node000001_Node000012" class="edge">
<title>Node1&#45;&gt;Node12</title>
<g id="a_edge15_Node000001_Node000012"><a xlink:title=" ">
<path fill="none" stroke="#63b8ff" d="M582.65,-164.99C621.81,-154.76 674.18,-141.09 710.46,-131.61"/>
<polygon fill="#63b8ff" stroke="#63b8ff" points="711.46,-134.97 720.25,-129.05 709.69,-128.19 711.46,-134.97"/>
</a>
</g>
</g>
<!-- Node3 -->
<g id="Node000003" class="node">
<title>Node3</title>
<g id="a_Node000003"><a xlink:title=" ">
<polygon fill="#e0e0e0" stroke="#999999" points="78,-74 0,-74 0,-55 78,-55 78,-74"/>
<text text-anchor="middle" x="39" y="-62" font-family="Helvetica,sans-Serif" font-size="10.00">ngx_config.h</text>
</a>
</g>
</g>
<!-- Node2&#45;&gt;Node3 -->
<g id="edge2_Node000002_Node000003" class="edge">
<title>Node2&#45;&gt;Node3</title>
<g id="a_edge2_Node000002_Node000003"><a xlink:title=" ">
<path fill="none" stroke="#63b8ff" d="M355.75,-112.48C296.26,-104.62 189.48,-90.14 88.12,-74.13"/>
<polygon fill="#63b8ff" stroke="#63b8ff" points="88.44,-70.64 78.01,-72.53 87.34,-77.55 88.44,-70.64"/>
</a>
</g>
</g>
<!-- Node4 -->
<g id="Node000004" class="node">
<title>Node4</title>
<g id="a_Node000004"><a xlink:title=" ">
<polygon fill="#e0e0e0" stroke="#999999" points="166,-74 96,-74 96,-55 166,-55 166,-74"/>
<text text-anchor="middle" x="131" y="-62" font-family="Helvetica,sans-Serif" font-size="10.00">ngx_core.h</text>
</a>
</g>
</g>
<!-- Node2&#45;&gt;Node4 -->
<g id="edge3_Node000002_Node000004" class="edge">
<title>Node2&#45;&gt;Node4</title>
<g id="a_edge3_Node000002_Node000004"><a xlink:title=" ">
<path fill="none" stroke="#63b8ff" d="M358.46,-109.98C308.49,-100.21 226.92,-84.26 176.24,-74.35"/>
<polygon fill="#63b8ff" stroke="#63b8ff" points="176.72,-70.87 166.23,-72.39 175.37,-77.74 176.72,-70.87"/>
</a>
</g>
</g>
<!-- Node5 -->
<g id="Node000005" class="node">
<title>Node5</title>
<g id="a_Node000005"><a xlink:title=" ">
<polygon fill="#e0e0e0" stroke="#999999" points="237.5,-74 184.5,-74 184.5,-55 237.5,-55 237.5,-74"/>
<text text-anchor="middle" x="211" y="-62" font-family="Helvetica,sans-Serif" font-size="10.00">stdint.h</text>
</a>
</g>
</g>
<!-- Node2&#45;&gt;Node5 -->
<g id="edge4_Node000002_Node000005" class="edge">
<title>Node2&#45;&gt;Node5</title>
<g id="a_edge4_Node000002_Node000005"><a xlink:title=" ">
<path fill="none" stroke="#63b8ff" d="M371.31,-109.98C337.62,-100.64 283.56,-85.64 247.67,-75.67"/>
<polygon fill="#63b8ff" stroke="#63b8ff" points="248.18,-72.18 237.61,-72.88 246.31,-78.93 248.18,-72.18"/>
</a>
</g>
</g>
<!-- Node6 -->
<g id="Node000006" class="node">
<title>Node6</title>
<g id="a_Node000006"><a xlink:title=" ">
<polygon fill="#e0e0e0" stroke="#999999" points="372.5,-19 321.5,-19 321.5,0 372.5,0 372.5,-19"/>
<text text-anchor="middle" x="347" y="-7" font-family="Helvetica,sans-Serif" font-size="10.00">errno.h</text>
</a>
</g>
</g>
<!-- Node2&#45;&gt;Node6 -->
<g id="edge5_Node000002_Node000006" class="edge">
<title>Node2&#45;&gt;Node6</title>
<g id="a_edge5_Node000002_Node000006"><a xlink:title=" ">
<path fill="none" stroke="#63b8ff" d="M355.94,-113.55C330.5,-108.2 300.91,-97.08 285,-74 271.68,-54.69 296.14,-35.89 318.14,-23.82"/>
<polygon fill="#63b8ff" stroke="#63b8ff" points="320.03,-26.78 327.31,-19.08 316.82,-20.56 320.03,-26.78"/>
</a>
</g>
</g>
<!-- Node7 -->
<g id="Node000007" class="node">
<title>Node7</title>
<g id="a_Node000007"><a xlink:title=" ">
<polygon fill="#e0e0e0" stroke="#999999" points="654,-74 590,-74 590,-55 654,-55 654,-74"/>
<text text-anchor="middle" x="622" y="-62" font-family="Helvetica,sans-Serif" font-size="10.00">sys/stat.h</text>
</a>
</g>
</g>
<!-- Node2&#45;&gt;Node7 -->
<g id="edge6_Node000002_Node000007" class="edge">
<title>Node2&#45;&gt;Node7</title>
<g id="a_edge6_Node000002_Node000007"><a xlink:title=" ">
<path fill="none" stroke="#63b8ff" d="M437.35,-109.98C476.28,-100.6 538.85,-85.53 580.19,-75.57"/>
<polygon fill="#63b8ff" stroke="#63b8ff" points="581.06,-78.96 589.96,-73.22 579.42,-72.16 581.06,-78.96"/>
</a>
</g>
</g>
<!-- Node8 -->
<g id="Node000008" class="node">
<title>Node8</title>
<g id="a_Node000008"><a xlink:title=" ">
<polygon fill="#e0e0e0" stroke="#999999" points="498,-19 426,-19 426,0 498,0 498,-19"/>
<text text-anchor="middle" x="462" y="-7" font-family="Helvetica,sans-Serif" font-size="10.00">sys/types.h</text>
</a>
</g>
</g>
<!-- Node2&#45;&gt;Node8 -->
<g id="edge7_Node000002_Node000008" class="edge">
<title>Node2&#45;&gt;Node8</title>
<g id="a_edge7_Node000002_Node000008"><a xlink:title=" ">
<path fill="none" stroke="#63b8ff" d="M448.25,-110.47C469.31,-104.26 492.32,-93.29 505,-74 516.08,-57.14 498.97,-37.98 483.16,-25.16"/>
<polygon fill="#63b8ff" stroke="#63b8ff" points="485.25,-22.35 475.17,-19.08 481.01,-27.92 485.25,-22.35"/>
</a>
</g>
</g>
<!-- Node9 -->
<g id="Node000009" class="node">
<title>Node9</title>
<g id="a_Node000009"><a xlink:title=" ">
<polygon fill="#e0e0e0" stroke="#999999" points="586,-19 526,-19 526,0 586,0 586,-19"/>
<text text-anchor="middle" x="556" y="-7" font-family="Helvetica,sans-Serif" font-size="10.00">sys/uio.h</text>
</a>
</g>
</g>
<!-- Node2&#45;&gt;Node9 -->
<g id="edge8_Node000002_Node000009" class="edge">
<title>Node2&#45;&gt;Node9</title>
<g id="a_edge8_Node000002_Node000009"><a xlink:title=" ">
<path fill="none" stroke="#63b8ff" d="M446.05,-109.94C470.35,-103.41 499.8,-92.31 521,-74 534.97,-61.93 544.42,-42.86 549.94,-28.76"/>
<polygon fill="#63b8ff" stroke="#63b8ff" points="553.31,-29.74 553.41,-19.15 546.72,-27.37 553.31,-29.74"/>
</a>
</g>
</g>
<!-- Node10 -->
<g id="Node000010" class="node">
<title>Node10</title>
<g id="a_Node000010"><a xlink:href="sd__cred__forward_8h.html" target="_top" xlink:title=" ">
<polygon fill="white" stroke="#666666" points="400,-74 294,-74 294,-55 400,-55 400,-74"/>
<text text-anchor="middle" x="347" y="-62" font-family="Helvetica,sans-Serif" font-size="10.00">sd_cred_forward.h</text>
</a>
</g>
</g>
<!-- Node2&#45;&gt;Node10 -->
<g id="edge9_Node000002_Node000010" class="edge">
<title>Node2&#45;&gt;Node10</title>
<g id="a_edge9_Node000002_Node000010"><a xlink:title=" ">
<path fill="none" stroke="#63b8ff" d="M392.92,-109.75C384.91,-102.03 373.04,-90.6 363.38,-81.28"/>
<polygon fill="#63b8ff" stroke="#63b8ff" points="365.54,-78.51 355.91,-74.09 360.69,-83.55 365.54,-78.51"/>
</a>
</g>
</g>
<!-- Node11 -->
<g id="Node000011" class="node">
<title>Node11</title>
<g id="a_Node000011"><a xlink:href="sd__registry_8h.html" target="_top" xlink:title=" ">
<polygon fill="white" stroke="#666666" points="496,-74 418,-74 418,-55 496,-55 496,-74"/>
<text text-anchor="middle" x="457" y="-62" font-family="Helvetica,sans-Serif" font-size="10.00">sd_registry.h</text>
</a>
</g>
</g>
<!-- Node2&#45;&gt;Node11 -->
<g id="edge11_Node000002_Node000011" class="edge">
<title>Node2&#45;&gt;Node11</title>
<g id="a_edge11_Node000002_Node000011"><a xlink:title=" ">
<path fill="none" stroke="#63b8ff" d="M411.08,-109.75C419.09,-102.03 430.96,-90.6 440.62,-81.28"/>
<polygon fill="#63b8ff" stroke="#63b8ff" points="443.31,-83.55 448.09,-74.09 438.46,-78.51 443.31,-83.55"/>
</a>
</g>
</g>
<!-- Node10&#45;&gt;Node6 -->
<g id="edge10_Node000010_Node000006" class="edge">
<title>Node10&#45;&gt;Node6</title>
<g id="a_edge10_Node000010_Node000006"><a xlink:title=" ">
<path fill="none" stroke="#63b8ff" d="M347,-54.75C347,-47.8 347,-37.85 347,-29.13"/>
<polygon fill="#63b8ff" stroke="#63b8ff" points="350.5,-29.09 347,-19.09 343.5,-29.09 350.5,-29.09"/>
</a>
</g>
</g>
<!-- Node11&#45;&gt;Node6 -->
<g id="edge12_Node000011_Node000006" class="edge">
<title>Node11&#45;&gt;Node6</title>
<g id="a_edge12_Node000011_Node000006"><a xlink:title=" ">
<path fill="none" stroke="#63b8ff" d="M439.33,-54.98C421.71,-46.5 394.42,-33.35 374.07,-23.54"/>
<polygon fill="#63b8ff" stroke="#63b8ff" points="375.52,-20.36 364.99,-19.17 372.48,-26.66 375.52,-20.36"/>
</a>
</g>
</g>
<!-- Node11&#45;&gt;Node8 -->
<g id="edge13_Node000011_Node000008" class="edge">
<title>Node11&#45;&gt;Node8</title>
<g id="a_edge13_Node000011_Node000008"><a xlink:title=" ">
<path fill="none" stroke="#63b8ff" d="M457.83,-54.75C458.48,-47.8 459.42,-37.85 460.24,-29.13"/>
<polygon fill="#63b8ff" stroke="#63b8ff" points="463.73,-29.37 461.19,-19.09 456.77,-28.72 463.73,-29.37"/>
</a>
</g>
</g>
<!-- Node11&#45;&gt;Node9 -->
<g id="edge14_Node000011_Node000009" class="edge">
<title>Node11&#45;&gt;Node9</title>
<g id="a_edge14_Node000011_Node000009"><a xlink:title=" ">
<path fill="none" stroke="#63b8ff" d="M472.91,-54.98C488.55,-46.61 512.66,-33.7 530.88,-23.95"/>
<polygon fill="#63b8ff" stroke="#63b8ff" points="532.64,-26.98 539.8,-19.17 529.34,-20.8 532.64,-26.98"/>
</a>
</g>
</g>
<!-- Node13 -->
<g id="Node000013" class="node">
<title>Node13</title>
<g id="a_Node000013"><a xlink:title=" ">
<polygon fill="#e0e0e0" stroke="#999999" points="749.5,-74 672.5,-74 672.5,-55 749.5,-55 749.5,-74"/>
<text text-anchor="middle" x="711" y="-62" font-family="Helvetica,sans-Serif" font-size="10.00">sys/socket.h</text>
</a>
</g>
</g>
<!-- Node12&#45;&gt;Node13 -->
<g id="edge16_Node000012_Node000013" class="edge">
<title>Node12&#45;&gt;Node13</title>
<g id="a_edge16_Node000012_Node000013"><a xlink:title=" ">
<path fill="none" stroke="#63b8ff" d="M746.06,-109.75C740.13,-102.26 731.43,-91.28 724.18,-82.13"/>
<polygon fill="#63b8ff" stroke="#63b8ff" points="726.76,-79.75 717.81,-74.09 721.27,-84.1 726.76,-79.75"/>
</a>
</g>
</g>
<!-- Node14 -->
<g id="Node000014" class="node">
<title>Node14</title>
<g id="a_Node000014"><a xlink:title=" ">
<polygon fill="#e0e0e0" stroke="#999999" points="824,-74 768,-74 768,-55 824,-55 824,-74"/>
<text text-anchor="middle" x="796" y="-62" font-family="Helvetica,sans-Serif" font-size="10.00">stddef.h</text>
</a>
</g>
</g>
<!-- Node12&#45;&gt;Node14 -->
<g id="edge17_Node000012_Node000014" class="edge">
<title>Node12&#45;&gt;Node14</title>
<g id="a_edge17_Node000012_Node000014"><a xlink:title=" ">
<path fill="none" stroke="#63b8ff" d="M760.1,-109.75C766.17,-102.26 775.09,-91.28 782.51,-82.13"/>
<polygon fill="#63b8ff" stroke="#63b8ff" points="785.45,-84.06 789.03,-74.09 780.01,-79.65 785.45,-84.06"/>
</a>
</g>
</g>
<!-- Node15 -->
<g id="Node000015" class="node">
<title>Node15</title>
<g id="a_Node000015"><a xlink:title=" ">
<polygon fill="#e0e0e0" stroke="#999999" points="895.5,-74 842.5,-74 842.5,-55 895.5,-55 895.5,-74"/>
<text text-anchor="middle" x="869" y="-62" font-family="Helvetica,sans-Serif" font-size="10.00">string.h</text>
</a>
</g>
</g>
<!-- Node12&#45;&gt;Node15 -->
<g id="edge18_Node000012_Node000015" class="edge">
<title>Node12&#45;&gt;Node15</title>
<g id="a_edge18_Node000012_Node000015"><a xlink:title=" ">
<path fill="none" stroke="#63b8ff" d="M771.64,-109.98C790.3,-101.46 819.25,-88.23 840.74,-78.41"/>
<polygon fill="#63b8ff" stroke="#63b8ff" points="842.38,-81.51 850.02,-74.17 839.47,-75.14 842.38,-81.51"/>
</a>
</g>
</g>
</g>
</svg>
