<?xml version="1.0" encoding="UTF-8" standalone="no"?>
<!DOCTYPE svg PUBLIC "-//W3C//DTD SVG 1.1//EN"
 "http://www.w3.org/Graphics/SVG/1.1/DTD/svg11.dtd">
<!-- Generated by graphviz version 2.43.0 (0)
 -->
<!-- Title: src/fs/backend/pblock/sd_pblock_unittest_internal.h Pages: 1 -->
<svg width="675pt" height="203pt"
 viewBox="0.00 0.00 674.62 203.00" xmlns="http://www.w3.org/2000/svg" xmlns:xlink="http://www.w3.org/1999/xlink">
<g id="graph0" class="graph" transform="scale(1 1) rotate(0) translate(4 199)">
<title>src/fs/backend/pblock/sd_pblock_unittest_internal.h</title>
<!-- Node1 -->
<g id="Node000001" class="node">
<title>Node1</title>
<g id="a_Node000001"><a xlink:title=" ">
<polygon fill="#999999" stroke="#666666" points="271.12,-195 108.12,-195 108.12,-165 271.12,-165 271.12,-195"/>
<text text-anchor="start" x="116.12" y="-183" font-family="Helvetica,sans-Serif" font-size="10.00">src/fs/backend/pblock</text>
<text text-anchor="middle" x="189.62" y="-172" font-family="Helvetica,sans-Serif" font-size="10.00">/sd_pblock_unittest_internal.h</text>
</a>
</g>
</g>
<!-- Node2 -->
<g id="Node000002" class="node">
<title>Node2</title>
<g id="a_Node000002"><a xlink:href="sd_8h.html" target="_top" xlink:title=" ">
<polygon fill="white" stroke="#666666" points="285.62,-129 193.62,-129 193.62,-110 285.62,-110 285.62,-129"/>
<text text-anchor="middle" x="239.62" y="-117" font-family="Helvetica,sans-Serif" font-size="10.00">fs/backend/sd.h</text>
</a>
</g>
</g>
<!-- Node1&#45;&gt;Node2 -->
<g id="edge1_Node000001_Node000002" class="edge">
<title>Node1&#45;&gt;Node2</title>
<g id="a_edge1_Node000001_Node000002"><a xlink:title=" ">
<path fill="none" stroke="#63b8ff" d="M201.73,-164.84C208.91,-156.43 218.05,-145.74 225.55,-136.96"/>
<polygon fill="#63b8ff" stroke="#63b8ff" points="228.29,-139.14 232.13,-129.27 222.97,-134.59 228.29,-139.14"/>
</a>
</g>
</g>
<!-- Node5 -->
<g id="Node000005" class="node">
<title>Node5</title>
<g id="a_Node000005"><a xlink:title=" ">
<polygon fill="#e0e0e0" stroke="#999999" points="66.12,-74 13.12,-74 13.12,-55 66.12,-55 66.12,-74"/>
<text text-anchor="middle" x="39.62" y="-62" font-family="Helvetica,sans-Serif" font-size="10.00">stdint.h</text>
</a>
</g>
</g>
<!-- Node1&#45;&gt;Node5 -->
<g id="edge15_Node000001_Node000005" class="edge">
<title>Node1&#45;&gt;Node5</title>
<g id="a_edge15_Node000001_Node000005"><a xlink:title=" ">
<path fill="none" stroke="#63b8ff" d="M170.93,-164.85C142.46,-143.31 88.48,-102.47 59.39,-80.46"/>
<polygon fill="#63b8ff" stroke="#63b8ff" points="61.3,-77.51 51.21,-74.27 57.07,-83.1 61.3,-77.51"/>
</a>
</g>
</g>
<!-- Node8 -->
<g id="Node000008" class="node">
<title>Node8</title>
<g id="a_Node000008"><a xlink:title=" ">
<polygon fill="#e0e0e0" stroke="#999999" points="130.62,-19 58.62,-19 58.62,0 130.62,0 130.62,-19"/>
<text text-anchor="middle" x="94.62" y="-7" font-family="Helvetica,sans-Serif" font-size="10.00">sys/types.h</text>
</a>
</g>
</g>
<!-- Node1&#45;&gt;Node8 -->
<g id="edge17_Node000001_Node000008" class="edge">
<title>Node1&#45;&gt;Node8</title>
<g id="a_edge17_Node000001_Node000008"><a xlink:title=" ">
<path fill="none" stroke="#63b8ff" d="M135.04,-164.87C90.79,-150.19 31.39,-122.41 3.62,-74 -10.35,-49.65 21.08,-32.44 50.74,-22.14"/>
<polygon fill="#63b8ff" stroke="#63b8ff" points="51.83,-25.47 60.25,-19.04 49.66,-18.81 51.83,-25.47"/>
</a>
</g>
</g>
<!-- Node12 -->
<g id="Node000012" class="node">
<title>Node12</title>
<g id="a_Node000012"><a xlink:title=" ">
<polygon fill="#e0e0e0" stroke="#999999" points="353.62,-129 303.62,-129 303.62,-110 353.62,-110 353.62,-129"/>
<text text-anchor="middle" x="328.62" y="-117" font-family="Helvetica,sans-Serif" font-size="10.00">stdio.h</text>
</a>
</g>
</g>
<!-- Node1&#45;&gt;Node12 -->
<g id="edge16_Node000001_Node000012" class="edge">
<title>Node1&#45;&gt;Node12</title>
<g id="a_edge16_Node000001_Node000012"><a xlink:title=" ">
<path fill="none" stroke="#63b8ff" d="M222.92,-164.99C246,-155.27 276.49,-142.44 298.78,-133.06"/>
<polygon fill="#63b8ff" stroke="#63b8ff" points="300.23,-136.24 308.09,-129.14 297.52,-129.79 300.23,-136.24"/>
</a>
</g>
</g>
<!-- Node3 -->
<g id="Node000003" class="node">
<title>Node3</title>
<g id="a_Node000003"><a xlink:title=" ">
<polygon fill="#e0e0e0" stroke="#999999" points="666.62,-74 588.62,-74 588.62,-55 666.62,-55 666.62,-74"/>
<text text-anchor="middle" x="627.62" y="-62" font-family="Helvetica,sans-Serif" font-size="10.00">ngx_config.h</text>
</a>
</g>
</g>
<!-- Node2&#45;&gt;Node3 -->
<g id="edge2_Node000002_Node000003" class="edge">
<title>Node2&#45;&gt;Node3</title>
<g id="a_edge2_Node000002_Node000003"><a xlink:title=" ">
<path fill="none" stroke="#63b8ff" d="M285.82,-111.27C288.8,-110.83 291.75,-110.4 294.62,-110 417.84,-92.7 451.69,-93.1 578.51,-74.1"/>
<polygon fill="#63b8ff" stroke="#63b8ff" points="579.25,-77.53 588.62,-72.57 578.2,-70.61 579.25,-77.53"/>
</a>
</g>
</g>
<!-- Node4 -->
<g id="Node000004" class="node">
<title>Node4</title>
<g id="a_Node000004"><a xlink:title=" ">
<polygon fill="#e0e0e0" stroke="#999999" points="274.62,-74 204.62,-74 204.62,-55 274.62,-55 274.62,-74"/>
<text text-anchor="middle" x="239.62" y="-62" font-family="Helvetica,sans-Serif" font-size="10.00">ngx_core.h</text>
</a>
</g>
</g>
<!-- Node2&#45;&gt;Node4 -->
<g id="edge3_Node000002_Node000004" class="edge">
<title>Node2&#45;&gt;Node4</title>
<g id="a_edge3_Node000002_Node000004"><a xlink:title=" ">
<path fill="none" stroke="#63b8ff" d="M239.62,-109.75C239.62,-102.8 239.62,-92.85 239.62,-84.13"/>
<polygon fill="#63b8ff" stroke="#63b8ff" points="243.12,-84.09 239.62,-74.09 236.12,-84.09 243.12,-84.09"/>
</a>
</g>
</g>
<!-- Node2&#45;&gt;Node5 -->
<g id="edge4_Node000002_Node000005" class="edge">
<title>Node2&#45;&gt;Node5</title>
<g id="a_edge4_Node000002_Node000005"><a xlink:title=" ">
<path fill="none" stroke="#63b8ff" d="M207.49,-109.98C171.66,-100.49 113.82,-85.16 76.26,-75.21"/>
<polygon fill="#63b8ff" stroke="#63b8ff" points="76.8,-71.73 66.24,-72.55 75.01,-78.5 76.8,-71.73"/>
</a>
</g>
</g>
<!-- Node6 -->
<g id="Node000006" class="node">
<title>Node6</title>
<g id="a_Node000006"><a xlink:title=" ">
<polygon fill="#e0e0e0" stroke="#999999" points="462.12,-19 411.12,-19 411.12,0 462.12,0 462.12,-19"/>
<text text-anchor="middle" x="436.62" y="-7" font-family="Helvetica,sans-Serif" font-size="10.00">errno.h</text>
</a>
</g>
</g>
<!-- Node2&#45;&gt;Node6 -->
<g id="edge5_Node000002_Node000006" class="edge">
<title>Node2&#45;&gt;Node6</title>
<g id="a_edge5_Node000002_Node000006"><a xlink:title=" ">
<path fill="none" stroke="#63b8ff" d="M281.72,-110C321.46,-101.36 377.57,-87.37 395.62,-74 411.23,-62.43 422.5,-43 429.23,-28.68"/>
<polygon fill="#63b8ff" stroke="#63b8ff" points="432.51,-29.9 433.32,-19.33 426.1,-27.09 432.51,-29.9"/>
</a>
</g>
</g>
<!-- Node7 -->
<g id="Node000007" class="node">
<title>Node7</title>
<g id="a_Node000007"><a xlink:title=" ">
<polygon fill="#e0e0e0" stroke="#999999" points="186.62,-74 122.62,-74 122.62,-55 186.62,-55 186.62,-74"/>
<text text-anchor="middle" x="154.62" y="-62" font-family="Helvetica,sans-Serif" font-size="10.00">sys/stat.h</text>
</a>
</g>
</g>
<!-- Node2&#45;&gt;Node7 -->
<g id="edge6_Node000002_Node000007" class="edge">
<title>Node2&#45;&gt;Node7</title>
<g id="a_edge6_Node000002_Node000007"><a xlink:title=" ">
<path fill="none" stroke="#63b8ff" d="M225.96,-109.98C212.78,-101.77 192.59,-89.18 177.05,-79.49"/>
<polygon fill="#63b8ff" stroke="#63b8ff" points="178.86,-76.49 168.53,-74.17 175.16,-82.43 178.86,-76.49"/>
</a>
</g>
</g>
<!-- Node2&#45;&gt;Node8 -->
<g id="edge7_Node000002_Node000008" class="edge">
<title>Node2&#45;&gt;Node8</title>
<g id="a_edge7_Node000002_Node000008"><a xlink:title=" ">
<path fill="none" stroke="#63b8ff" d="M193.52,-112.71C166.84,-107.06 134.5,-95.92 113.62,-74 102.1,-61.9 97.54,-43.1 95.74,-29.09"/>
<polygon fill="#63b8ff" stroke="#63b8ff" points="99.23,-28.74 94.82,-19.11 92.25,-29.38 99.23,-28.74"/>
</a>
</g>
</g>
<!-- Node9 -->
<g id="Node000009" class="node">
<title>Node9</title>
<g id="a_Node000009"><a xlink:title=" ">
<polygon fill="#e0e0e0" stroke="#999999" points="376.62,-19 316.62,-19 316.62,0 376.62,0 376.62,-19"/>
<text text-anchor="middle" x="346.62" y="-7" font-family="Helvetica,sans-Serif" font-size="10.00">sys/uio.h</text>
</a>
</g>
</g>
<!-- Node2&#45;&gt;Node9 -->
<g id="edge8_Node000002_Node000009" class="edge">
<title>Node2&#45;&gt;Node9</title>
<g id="a_edge8_Node000002_Node000009"><a xlink:title=" ">
<path fill="none" stroke="#63b8ff" d="M285.58,-109.95C321.9,-102.15 368.29,-89.49 379.62,-74 390.66,-58.91 377.32,-39.62 364.45,-26.28"/>
<polygon fill="#63b8ff" stroke="#63b8ff" points="366.73,-23.63 357.11,-19.19 361.87,-28.66 366.73,-23.63"/>
</a>
</g>
</g>
<!-- Node10 -->
<g id="Node000010" class="node">
<title>Node10</title>
<g id="a_Node000010"><a xlink:href="sd__cred__forward_8h.html" target="_top" xlink:title=" ">
<polygon fill="white" stroke="#666666" points="570.62,-74 464.62,-74 464.62,-55 570.62,-55 570.62,-74"/>
<text text-anchor="middle" x="517.62" y="-62" font-family="Helvetica,sans-Serif" font-size="10.00">sd_cred_forward.h</text>
</a>
</g>
</g>
<!-- Node2&#45;&gt;Node10 -->
<g id="edge9_Node000002_Node000010" class="edge">
<title>Node2&#45;&gt;Node10</title>
<g id="a_edge9_Node000002_Node000010"><a xlink:title=" ">
<path fill="none" stroke="#63b8ff" d="M284.29,-109.98C332.78,-100.74 410.27,-85.97 462.51,-76.01"/>
<polygon fill="#63b8ff" stroke="#63b8ff" points="463.44,-79.39 472.61,-74.08 462.13,-72.52 463.44,-79.39"/>
</a>
</g>
</g>
<!-- Node11 -->
<g id="Node000011" class="node">
<title>Node11</title>
<g id="a_Node000011"><a xlink:href="sd__registry_8h.html" target="_top" xlink:title=" ">
<polygon fill="white" stroke="#666666" points="370.62,-74 292.62,-74 292.62,-55 370.62,-55 370.62,-74"/>
<text text-anchor="middle" x="331.62" y="-62" font-family="Helvetica,sans-Serif" font-size="10.00">sd_registry.h</text>
</a>
</g>
</g>
<!-- Node2&#45;&gt;Node11 -->
<g id="edge11_Node000002_Node000011" class="edge">
<title>Node2&#45;&gt;Node11</title>
<g id="a_edge11_Node000002_Node000011"><a xlink:title=" ">
<path fill="none" stroke="#63b8ff" d="M254.4,-109.98C268.8,-101.69 290.93,-88.94 307.81,-79.22"/>
<polygon fill="#63b8ff" stroke="#63b8ff" points="309.65,-82.19 316.57,-74.17 306.16,-76.13 309.65,-82.19"/>
</a>
</g>
</g>
<!-- Node10&#45;&gt;Node6 -->
<g id="edge10_Node000010_Node000006" class="edge">
<title>Node10&#45;&gt;Node6</title>
<g id="a_edge10_Node000010_Node000006"><a xlink:title=" ">
<path fill="none" stroke="#63b8ff" d="M504.61,-54.98C492.16,-46.84 473.17,-34.41 458.41,-24.76"/>
<polygon fill="#63b8ff" stroke="#63b8ff" points="460.16,-21.72 449.87,-19.17 456.32,-27.57 460.16,-21.72"/>
</a>
</g>
</g>
<!-- Node11&#45;&gt;Node6 -->
<g id="edge12_Node000011_Node000006" class="edge">
<title>Node11&#45;&gt;Node6</title>
<g id="a_edge12_Node000011_Node000006"><a xlink:title=" ">
<path fill="none" stroke="#63b8ff" d="M348.49,-54.98C365.23,-46.54 391.12,-33.47 410.51,-23.68"/>
<polygon fill="#63b8ff" stroke="#63b8ff" points="412.09,-26.8 419.44,-19.17 408.94,-20.55 412.09,-26.8"/>
</a>
</g>
</g>
<!-- Node11&#45;&gt;Node8 -->
<g id="edge13_Node000011_Node000008" class="edge">
<title>Node11&#45;&gt;Node8</title>
<g id="a_edge13_Node000011_Node000008"><a xlink:title=" ">
<path fill="none" stroke="#63b8ff" d="M293.54,-54.98C251.91,-45.67 185.19,-30.75 140.65,-20.79"/>
<polygon fill="#63b8ff" stroke="#63b8ff" points="141.19,-17.33 130.66,-18.56 139.66,-24.16 141.19,-17.33"/>
</a>
</g>
</g>
<!-- Node11&#45;&gt;Node9 -->
<g id="edge14_Node000011_Node000009" class="edge">
<title>Node11&#45;&gt;Node9</title>
<g id="a_edge14_Node000011_Node000009"><a xlink:title=" ">
<path fill="none" stroke="#63b8ff" d="M334.1,-54.75C336.09,-47.72 338.94,-37.62 341.43,-28.84"/>
<polygon fill="#63b8ff" stroke="#63b8ff" points="344.84,-29.66 344.19,-19.09 338.1,-27.76 344.84,-29.66"/>
</a>
</g>
</g>
</g>
</svg>
