<?xml version="1.0" encoding="UTF-8" standalone="no"?>
<!DOCTYPE svg PUBLIC "-//W3C//DTD SVG 1.1//EN"
 "http://www.w3.org/Graphics/SVG/1.1/DTD/svg11.dtd">
<!-- Generated by graphviz version 2.43.0 (0)
 -->
<!-- Title: src/fs/backend/http/sd_http.c Pages: 1 -->
<svg width="952pt" height="324pt"
 viewBox="0.00 0.00 952.00 324.00" xmlns="http://www.w3.org/2000/svg" xmlns:xlink="http://www.w3.org/1999/xlink">
<g id="graph0" class="graph" transform="scale(1 1) rotate(0) translate(4 320)">
<title>src/fs/backend/http/sd_http.c</title>
<!-- Node1 -->
<g id="Node000001" class="node">
<title>Node1</title>
<g id="a_Node000001"><a xlink:title=" ">
<polygon fill="#999999" stroke="#666666" points="848.5,-316 739.5,-316 739.5,-286 848.5,-286 848.5,-316"/>
<text text-anchor="start" x="747.5" y="-304" font-family="Helvetica,sans-Serif" font-size="10.00">src/fs/backend/http</text>
<text text-anchor="middle" x="794" y="-293" font-family="Helvetica,sans-Serif" font-size="10.00">/sd_http.c</text>
</a>
</g>
</g>
<!-- Node2 -->
<g id="Node000002" class="node">
<title>Node2</title>
<g id="a_Node000002"><a xlink:href="sd__http_8h.html" target="_top" xlink:title=" ">
<polygon fill="white" stroke="#666666" points="497,-195 435,-195 435,-176 497,-176 497,-195"/>
<text text-anchor="middle" x="466" y="-183" font-family="Helvetica,sans-Serif" font-size="10.00">sd_http.h</text>
</a>
</g>
</g>
<!-- Node1&#45;&gt;Node2 -->
<g id="edge1_Node000001_Node000002" class="edge">
<title>Node1&#45;&gt;Node2</title>
<g id="a_edge1_Node000001_Node000002"><a xlink:title=" ">
<path fill="none" stroke="#63b8ff" d="M739.22,-296.51C687.15,-291.5 607.7,-279.34 545,-250 519.99,-238.3 495.95,-217.08 481.1,-202.41"/>
<polygon fill="#63b8ff" stroke="#63b8ff" points="483.35,-199.71 473.84,-195.04 478.36,-204.62 483.35,-199.71"/>
</a>
</g>
</g>
<!-- Node7 -->
<g id="Node000007" class="node">
<title>Node7</title>
<g id="a_Node000007"><a xlink:title=" ">
<polygon fill="#e0e0e0" stroke="#999999" points="697.5,-19 646.5,-19 646.5,0 697.5,0 697.5,-19"/>
<text text-anchor="middle" x="672" y="-7" font-family="Helvetica,sans-Serif" font-size="10.00">errno.h</text>
</a>
</g>
</g>
<!-- Node1&#45;&gt;Node7 -->
<g id="edge22_Node000001_Node000007" class="edge">
<title>Node1&#45;&gt;Node7</title>
<g id="a_edge22_Node000001_Node000007"><a xlink:title=" ">
<path fill="none" stroke="#63b8ff" d="M794,-285.67C794,-264.14 794,-222.17 794,-186.5 794,-186.5 794,-186.5 794,-124 794,-92.19 795.87,-79 775,-55 757.71,-35.12 729.93,-23.82 707.57,-17.59"/>
<polygon fill="#63b8ff" stroke="#63b8ff" points="708.3,-14.16 697.74,-15.07 706.56,-20.94 708.3,-14.16"/>
</a>
</g>
</g>
<!-- Node15 -->
<g id="Node000015" class="node">
<title>Node15</title>
<g id="a_Node000015"><a xlink:href="sd__http__internal_8h.html" target="_top" xlink:title=" ">
<polygon fill="white" stroke="#666666" points="658,-250 554,-250 554,-231 658,-231 658,-250"/>
<text text-anchor="middle" x="606" y="-238" font-family="Helvetica,sans-Serif" font-size="10.00">sd_http_internal.h</text>
</a>
</g>
</g>
<!-- Node1&#45;&gt;Node15 -->
<g id="edge19_Node000001_Node000015" class="edge">
<title>Node1&#45;&gt;Node15</title>
<g id="a_edge19_Node000001_Node000015"><a xlink:title=" ">
<path fill="none" stroke="#63b8ff" d="M748.97,-285.99C716.66,-275.94 673.66,-262.55 643.27,-253.1"/>
<polygon fill="#63b8ff" stroke="#63b8ff" points="644.08,-249.68 633.49,-250.05 642,-256.37 644.08,-249.68"/>
</a>
</g>
</g>
<!-- Node17 -->
<g id="Node000017" class="node">
<title>Node17</title>
<g id="a_Node000017"><a xlink:title=" ">
<polygon fill="#e0e0e0" stroke="#999999" points="875.5,-250 822.5,-250 822.5,-231 875.5,-231 875.5,-250"/>
<text text-anchor="middle" x="849" y="-238" font-family="Helvetica,sans-Serif" font-size="10.00">stdlib.h</text>
</a>
</g>
</g>
<!-- Node1&#45;&gt;Node17 -->
<g id="edge23_Node000001_Node000017" class="edge">
<title>Node1&#45;&gt;Node17</title>
<g id="a_edge23_Node000001_Node000017"><a xlink:title=" ">
<path fill="none" stroke="#63b8ff" d="M807.31,-285.84C815.3,-277.35 825.48,-266.52 833.78,-257.69"/>
<polygon fill="#63b8ff" stroke="#63b8ff" points="836.46,-259.95 840.76,-250.27 831.36,-255.15 836.46,-259.95"/>
</a>
</g>
</g>
<!-- Node18 -->
<g id="Node000018" class="node">
<title>Node18</title>
<g id="a_Node000018"><a xlink:title=" ">
<polygon fill="#e0e0e0" stroke="#999999" points="944,-250 894,-250 894,-231 944,-231 944,-250"/>
<text text-anchor="middle" x="919" y="-238" font-family="Helvetica,sans-Serif" font-size="10.00">stdio.h</text>
</a>
</g>
</g>
<!-- Node1&#45;&gt;Node18 -->
<g id="edge24_Node000001_Node000018" class="edge">
<title>Node1&#45;&gt;Node18</title>
<g id="a_edge24_Node000001_Node000018"><a xlink:title=" ">
<path fill="none" stroke="#63b8ff" d="M823.94,-285.99C844.42,-276.4 871.38,-263.79 891.35,-254.44"/>
<polygon fill="#63b8ff" stroke="#63b8ff" points="892.97,-257.55 900.54,-250.14 890,-251.21 892.97,-257.55"/>
</a>
</g>
</g>
<!-- Node3 -->
<g id="Node000003" class="node">
<title>Node3</title>
<g id="a_Node000003"><a xlink:href="sd_8h.html" target="_top" xlink:title=" ">
<polygon fill="white" stroke="#666666" points="485,-134.5 393,-134.5 393,-115.5 485,-115.5 485,-134.5"/>
<text text-anchor="middle" x="439" y="-122.5" font-family="Helvetica,sans-Serif" font-size="10.00">fs/backend/sd.h</text>
</a>
</g>
</g>
<!-- Node2&#45;&gt;Node3 -->
<g id="edge2_Node000002_Node000003" class="edge">
<title>Node2&#45;&gt;Node3</title>
<g id="a_edge2_Node000002_Node000003"><a xlink:title=" ">
<path fill="none" stroke="#63b8ff" d="M462.02,-175.87C458.15,-167.49 452.16,-154.51 447.26,-143.89"/>
<polygon fill="#63b8ff" stroke="#63b8ff" points="450.37,-142.28 443,-134.67 444.01,-145.21 450.37,-142.28"/>
</a>
</g>
</g>
<!-- Node13 -->
<g id="Node000013" class="node">
<title>Node13</title>
<g id="a_Node000013"><a xlink:href="sd__s3__transport_8h.html" target="_top" xlink:title=" ">
<polygon fill="white" stroke="#666666" points="141,-140 27,-140 27,-110 141,-110 141,-140"/>
<text text-anchor="start" x="35" y="-128" font-family="Helvetica,sans-Serif" font-size="10.00">fs/backend/s3/sd_s3</text>
<text text-anchor="middle" x="84" y="-117" font-family="Helvetica,sans-Serif" font-size="10.00">_transport.h</text>
</a>
</g>
</g>
<!-- Node2&#45;&gt;Node13 -->
<g id="edge16_Node000002_Node000013" class="edge">
<title>Node2&#45;&gt;Node13</title>
<g id="a_edge16_Node000002_Node000013"><a xlink:title=" ">
<path fill="none" stroke="#63b8ff" d="M434.74,-179.71C373.07,-170.27 234.53,-149.05 151.21,-136.29"/>
<polygon fill="#63b8ff" stroke="#63b8ff" points="151.5,-132.8 141.08,-134.74 150.44,-139.72 151.5,-132.8"/>
</a>
</g>
</g>
<!-- Node4 -->
<g id="Node000004" class="node">
<title>Node4</title>
<g id="a_Node000004"><a xlink:title=" ">
<polygon fill="#e0e0e0" stroke="#999999" points="266,-74 188,-74 188,-55 266,-55 266,-74"/>
<text text-anchor="middle" x="227" y="-62" font-family="Helvetica,sans-Serif" font-size="10.00">ngx_config.h</text>
</a>
</g>
</g>
<!-- Node3&#45;&gt;Node4 -->
<g id="edge3_Node000003_Node000004" class="edge">
<title>Node3&#45;&gt;Node4</title>
<g id="a_edge3_Node000003_Node000004"><a xlink:title=" ">
<path fill="none" stroke="#63b8ff" d="M408.17,-115.49C371.04,-105.25 308.55,-88 267.54,-76.69"/>
<polygon fill="#63b8ff" stroke="#63b8ff" points="268.43,-73.3 257.86,-74.02 266.57,-80.05 268.43,-73.3"/>
</a>
</g>
</g>
<!-- Node5 -->
<g id="Node000005" class="node">
<title>Node5</title>
<g id="a_Node000005"><a xlink:title=" ">
<polygon fill="#e0e0e0" stroke="#999999" points="532,-74 462,-74 462,-55 532,-55 532,-74"/>
<text text-anchor="middle" x="497" y="-62" font-family="Helvetica,sans-Serif" font-size="10.00">ngx_core.h</text>
</a>
</g>
</g>
<!-- Node3&#45;&gt;Node5 -->
<g id="edge4_Node000003_Node000005" class="edge">
<title>Node3&#45;&gt;Node5</title>
<g id="a_edge4_Node000003_Node000005"><a xlink:title=" ">
<path fill="none" stroke="#63b8ff" d="M447.56,-115.37C456.38,-106.47 470.34,-92.39 481.18,-81.45"/>
<polygon fill="#63b8ff" stroke="#63b8ff" points="483.85,-83.73 488.41,-74.17 478.88,-78.8 483.85,-83.73"/>
</a>
</g>
</g>
<!-- Node6 -->
<g id="Node000006" class="node">
<title>Node6</title>
<g id="a_Node000006"><a xlink:title=" ">
<polygon fill="#e0e0e0" stroke="#999999" points="603.5,-74 550.5,-74 550.5,-55 603.5,-55 603.5,-74"/>
<text text-anchor="middle" x="577" y="-62" font-family="Helvetica,sans-Serif" font-size="10.00">stdint.h</text>
</a>
</g>
</g>
<!-- Node3&#45;&gt;Node6 -->
<g id="edge5_Node000003_Node000006" class="edge">
<title>Node3&#45;&gt;Node6</title>
<g id="a_edge5_Node000003_Node000006"><a xlink:title=" ">
<path fill="none" stroke="#63b8ff" d="M459.07,-115.49C482.37,-105.62 521.01,-89.23 547.68,-77.93"/>
<polygon fill="#63b8ff" stroke="#63b8ff" points="549.07,-81.14 556.91,-74.02 546.34,-74.7 549.07,-81.14"/>
</a>
</g>
</g>
<!-- Node3&#45;&gt;Node7 -->
<g id="edge6_Node000003_Node000007" class="edge">
<title>Node3&#45;&gt;Node7</title>
<g id="a_edge6_Node000003_Node000007"><a xlink:title=" ">
<path fill="none" stroke="#63b8ff" d="M485.04,-117.54C521.54,-110.86 572.76,-97.93 612,-74 631.73,-61.97 649.23,-41.76 660.17,-27.38"/>
<polygon fill="#63b8ff" stroke="#63b8ff" points="663,-29.43 666.09,-19.3 657.35,-25.29 663,-29.43"/>
</a>
</g>
</g>
<!-- Node8 -->
<g id="Node000008" class="node">
<title>Node8</title>
<g id="a_Node000008"><a xlink:title=" ">
<polygon fill="#e0e0e0" stroke="#999999" points="444,-74 380,-74 380,-55 444,-55 444,-74"/>
<text text-anchor="middle" x="412" y="-62" font-family="Helvetica,sans-Serif" font-size="10.00">sys/stat.h</text>
</a>
</g>
</g>
<!-- Node3&#45;&gt;Node8 -->
<g id="edge7_Node000003_Node000008" class="edge">
<title>Node3&#45;&gt;Node8</title>
<g id="a_edge7_Node000003_Node000008"><a xlink:title=" ">
<path fill="none" stroke="#63b8ff" d="M435.02,-115.37C431.15,-106.99 425.16,-94.01 420.26,-83.39"/>
<polygon fill="#63b8ff" stroke="#63b8ff" points="423.37,-81.78 416,-74.17 417.01,-84.71 423.37,-81.78"/>
</a>
</g>
</g>
<!-- Node9 -->
<g id="Node000009" class="node">
<title>Node9</title>
<g id="a_Node000009"><a xlink:title=" ">
<polygon fill="#e0e0e0" stroke="#999999" points="158,-19 86,-19 86,0 158,0 158,-19"/>
<text text-anchor="middle" x="122" y="-7" font-family="Helvetica,sans-Serif" font-size="10.00">sys/types.h</text>
</a>
</g>
</g>
<!-- Node3&#45;&gt;Node9 -->
<g id="edge8_Node000003_Node000009" class="edge">
<title>Node3&#45;&gt;Node9</title>
<g id="a_edge8_Node000003_Node000009"><a xlink:title=" ">
<path fill="none" stroke="#63b8ff" d="M392.96,-119.49C326.23,-112.28 206.62,-96.63 170,-74 152.24,-63.02 138.72,-42.87 130.62,-28.21"/>
<polygon fill="#63b8ff" stroke="#63b8ff" points="133.61,-26.38 125.9,-19.12 127.4,-29.6 133.61,-26.38"/>
</a>
</g>
</g>
<!-- Node10 -->
<g id="Node000010" class="node">
<title>Node10</title>
<g id="a_Node000010"><a xlink:title=" ">
<polygon fill="#e0e0e0" stroke="#999999" points="295,-19 235,-19 235,0 295,0 295,-19"/>
<text text-anchor="middle" x="265" y="-7" font-family="Helvetica,sans-Serif" font-size="10.00">sys/uio.h</text>
</a>
</g>
</g>
<!-- Node3&#45;&gt;Node10 -->
<g id="edge9_Node000003_Node000010" class="edge">
<title>Node3&#45;&gt;Node10</title>
<g id="a_edge9_Node000003_Node000010"><a xlink:title=" ">
<path fill="none" stroke="#63b8ff" d="M392.79,-121.95C325.48,-117.88 205.6,-106.21 179,-74 160.92,-52.11 195.14,-33.71 225.62,-22.45"/>
<polygon fill="#63b8ff" stroke="#63b8ff" points="227.04,-25.66 235.32,-19.04 224.72,-19.05 227.04,-25.66"/>
</a>
</g>
</g>
<!-- Node11 -->
<g id="Node000011" class="node">
<title>Node11</title>
<g id="a_Node000011"><a xlink:href="sd__cred__forward_8h.html" target="_top" xlink:title=" ">
<polygon fill="white" stroke="#666666" points="766,-74 660,-74 660,-55 766,-55 766,-74"/>
<text text-anchor="middle" x="713" y="-62" font-family="Helvetica,sans-Serif" font-size="10.00">sd_cred_forward.h</text>
</a>
</g>
</g>
<!-- Node3&#45;&gt;Node11 -->
<g id="edge10_Node000003_Node000011" class="edge">
<title>Node3&#45;&gt;Node11</title>
<g id="a_edge10_Node000003_Node000011"><a xlink:title=" ">
<path fill="none" stroke="#63b8ff" d="M478.84,-115.49C527.65,-105.07 610.34,-87.42 663.26,-76.12"/>
<polygon fill="#63b8ff" stroke="#63b8ff" points="664.06,-79.53 673.11,-74.02 662.6,-72.68 664.06,-79.53"/>
</a>
</g>
</g>
<!-- Node12 -->
<g id="Node000012" class="node">
<title>Node12</title>
<g id="a_Node000012"><a xlink:href="sd__registry_8h.html" target="_top" xlink:title=" ">
<polygon fill="white" stroke="#666666" points="362,-74 284,-74 284,-55 362,-55 362,-74"/>
<text text-anchor="middle" x="323" y="-62" font-family="Helvetica,sans-Serif" font-size="10.00">sd_registry.h</text>
</a>
</g>
</g>
<!-- Node3&#45;&gt;Node12 -->
<g id="edge12_Node000003_Node000012" class="edge">
<title>Node3&#45;&gt;Node12</title>
<g id="a_edge12_Node000003_Node000012"><a xlink:title=" ">
<path fill="none" stroke="#63b8ff" d="M421.88,-115.37C402.78,-105.73 371.63,-90.03 349.4,-78.81"/>
<polygon fill="#63b8ff" stroke="#63b8ff" points="350.69,-75.55 340.19,-74.17 347.54,-81.8 350.69,-75.55"/>
</a>
</g>
</g>
<!-- Node11&#45;&gt;Node7 -->
<g id="edge11_Node000011_Node000007" class="edge">
<title>Node11&#45;&gt;Node7</title>
<g id="a_edge11_Node000011_Node000007"><a xlink:title=" ">
<path fill="none" stroke="#63b8ff" d="M706.23,-54.75C700.44,-47.26 691.94,-36.28 684.86,-27.13"/>
<polygon fill="#63b8ff" stroke="#63b8ff" points="687.53,-24.86 678.64,-19.09 681.99,-29.14 687.53,-24.86"/>
</a>
</g>
</g>
<!-- Node12&#45;&gt;Node7 -->
<g id="edge13_Node000012_Node000007" class="edge">
<title>Node12&#45;&gt;Node7</title>
<g id="a_edge13_Node000012_Node000007"><a xlink:title=" ">
<path fill="none" stroke="#63b8ff" d="M362.02,-56.49C365.05,-55.98 368.08,-55.47 371,-55 466.52,-39.48 579.47,-23.39 635.99,-15.49"/>
<polygon fill="#63b8ff" stroke="#63b8ff" points="636.77,-18.91 646.19,-14.06 635.81,-11.98 636.77,-18.91"/>
</a>
</g>
</g>
<!-- Node12&#45;&gt;Node9 -->
<g id="edge14_Node000012_Node000009" class="edge">
<title>Node12&#45;&gt;Node9</title>
<g id="a_edge14_Node000012_Node000009"><a xlink:title=" ">
<path fill="none" stroke="#63b8ff" d="M290.71,-54.98C256.38,-45.93 201.94,-31.58 164.23,-21.64"/>
<polygon fill="#63b8ff" stroke="#63b8ff" points="165.11,-18.25 154.55,-19.08 163.32,-25.02 165.11,-18.25"/>
</a>
</g>
</g>
<!-- Node12&#45;&gt;Node10 -->
<g id="edge15_Node000012_Node000010" class="edge">
<title>Node12&#45;&gt;Node10</title>
<g id="a_edge15_Node000012_Node000010"><a xlink:title=" ">
<path fill="none" stroke="#63b8ff" d="M313.68,-54.98C305.19,-47.23 292.44,-35.58 282.12,-26.14"/>
<polygon fill="#63b8ff" stroke="#63b8ff" points="284.23,-23.33 274.49,-19.17 279.51,-28.5 284.23,-23.33"/>
</a>
</g>
</g>
<!-- Node13&#45;&gt;Node9 -->
<g id="edge18_Node000013_Node000009" class="edge">
<title>Node13&#45;&gt;Node9</title>
<g id="a_edge18_Node000013_Node000009"><a xlink:title=" ">
<path fill="none" stroke="#63b8ff" d="M88.81,-109.63C95.68,-89.12 108.28,-51.47 115.83,-28.93"/>
<polygon fill="#63b8ff" stroke="#63b8ff" points="119.22,-29.82 119.08,-19.23 112.58,-27.6 119.22,-29.82"/>
</a>
</g>
</g>
<!-- Node14 -->
<g id="Node000014" class="node">
<title>Node14</title>
<g id="a_Node000014"><a xlink:title=" ">
<polygon fill="#e0e0e0" stroke="#999999" points="56,-74 0,-74 0,-55 56,-55 56,-74"/>
<text text-anchor="middle" x="28" y="-62" font-family="Helvetica,sans-Serif" font-size="10.00">stddef.h</text>
</a>
</g>
</g>
<!-- Node13&#45;&gt;Node14 -->
<g id="edge17_Node000013_Node000014" class="edge">
<title>Node13&#45;&gt;Node14</title>
<g id="a_edge17_Node000013_Node000014"><a xlink:title=" ">
<path fill="none" stroke="#63b8ff" d="M70.44,-109.84C62.32,-101.35 51.95,-90.52 43.5,-81.69"/>
<polygon fill="#63b8ff" stroke="#63b8ff" points="45.83,-79.07 36.39,-74.27 40.78,-83.91 45.83,-79.07"/>
</a>
</g>
</g>
<!-- Node15&#45;&gt;Node2 -->
<g id="edge20_Node000015_Node000002" class="edge">
<title>Node15&#45;&gt;Node2</title>
<g id="a_edge20_Node000015_Node000002"><a xlink:title=" ">
<path fill="none" stroke="#63b8ff" d="M583.51,-230.98C560.48,-222.27 524.46,-208.63 498.37,-198.75"/>
<polygon fill="#63b8ff" stroke="#63b8ff" points="499.49,-195.44 488.9,-195.17 497.02,-201.98 499.49,-195.44"/>
</a>
</g>
</g>
<!-- Node16 -->
<g id="Node000016" class="node">
<title>Node16</title>
<g id="a_Node000016"><a xlink:title=" ">
<polygon fill="#e0e0e0" stroke="#999999" points="643,-195 569,-195 569,-176 643,-176 643,-195"/>
<text text-anchor="middle" x="606" y="-183" font-family="Helvetica,sans-Serif" font-size="10.00">stdatomic.h</text>
</a>
</g>
</g>
<!-- Node15&#45;&gt;Node16 -->
<g id="edge21_Node000015_Node000016" class="edge">
<title>Node15&#45;&gt;Node16</title>
<g id="a_edge21_Node000015_Node000016"><a xlink:title=" ">
<path fill="none" stroke="#63b8ff" d="M606,-230.75C606,-223.8 606,-213.85 606,-205.13"/>
<polygon fill="#63b8ff" stroke="#63b8ff" points="609.5,-205.09 606,-195.09 602.5,-205.09 609.5,-205.09"/>
</a>
</g>
</g>
</g>
</svg>
