<?xml version="1.0" encoding="UTF-8" standalone="no"?>
<!DOCTYPE svg PUBLIC "-//W3C//DTD SVG 1.1//EN"
 "http://www.w3.org/Graphics/SVG/1.1/DTD/svg11.dtd">
<!-- Generated by graphviz version 2.43.0 (0)
 -->
<!-- Title: src/fs/backend/sd_registry.c Pages: 1 -->
<!--zoomable 203 -->

<svg id="main" version="1.1" xmlns="http://www.w3.org/2000/svg" xmlns:xlink="http://www.w3.org/1999/xlink" xml:space="preserve" onload="init(evt)">
<style type="text/css"><![CDATA[
.node, .edge {opacity: 0.7;}
.node.selected, .edge.selected {opacity: 1;}
.edge:hover path { stroke: red; }
.edge:hover polygon { stroke: red; fill: red; }
]]></style>

<defs>
  <circle id="rim" cx="0" cy="0" r="7"/>
  <circle id="rim2" cx="0" cy="0" r="3.5"/>
  <g id="zoomPlus">
    <use xlink:href="#rim" fill="#404040"><set attributeName="fill" to="#808080" begin="zoomplus.mouseover" end="zoomplus.mouseout"/></use>
    <path d="M-4,0h8M0,-4v8" fill="none" stroke="white" stroke-width="1.5" pointer-events="none"/>
  </g>
  <g id="zoomMin">
    <use xlink:href="#rim" fill="#404040"><set attributeName="fill" to="#808080" begin="zoomminus.mouseover" end="zoomminus.mouseout"/></use>
    <path d="M-4,0h8" fill="none" stroke="white" stroke-width="1.5" pointer-events="none"/>
  </g>
  <g id="arrowUp" transform="translate(30 24)">
    <use xlink:href="#rim"/>
    <path pointer-events="none" fill="none" stroke="white" stroke-width="1.5" d="M0,-3.0v7 M-2.5,-0.5L0,-3.0L2.5,-0.5"/>
  </g>
  <g id="arrowRight" transform="rotate(90) translate(36 -43)">
    <use xlink:href="#rim"/>
    <path pointer-events="none" fill="none" stroke="white" stroke-width="1.5" d="M0,-3.0v7 M-2.5,-0.5L0,-3.0L2.5,-0.5"/>
  </g>
  <g id="arrowDown" transform="rotate(180) translate(-30 -48)">
    <use xlink:href="#rim"/>
    <path pointer-events="none" fill="none" stroke="white" stroke-width="1.5" d="M0,-3.0v7 M-2.5,-0.5L0,-3.0L2.5,-0.5"/>
  </g>
  <g id="arrowLeft" transform="rotate(270) translate(-36 17)">
    <use xlink:href="#rim"/>
    <path pointer-events="none" fill="none" stroke="white" stroke-width="1.5" d="M0,-3.0v7 M-2.5,-0.5L0,-3.0L2.5,-0.5"/>
  </g>
  <g id="resetDef">
    <use xlink:href="#rim2" fill="#404040"><set attributeName="fill" to="#808080" begin="reset.mouseover" end="reset.mouseout"/></use>
  </g>
</defs>
<script type="application/ecmascript">
var viewWidth = 832;
var viewHeight = 203;
var sectionId = 'dynsection-0';
</script>
<script type="application/ecmascript" xlink:href="svg.min.js"/>
<svg id="graph" class="graph">
<g id="viewport">
<title>src/fs/backend/sd_registry.c</title>
<!-- Node1 -->
<g id="Node000001" class="node">
<title>Node1</title>
<g id="a_Node000001"><a xlink:title=" ">
<polygon fill="#999999" stroke="#666666" points="627.04,-195 477.04,-195 477.04,-176 627.04,-176 627.04,-195"/>
<text text-anchor="middle" x="552.04" y="-183" font-family="Helvetica,sans-Serif" font-size="10.00">src/fs/backend/sd_registry.c</text>
</a>
</g>
</g>
<!-- Node2 -->
<g id="Node000002" class="node">
<title>Node2</title>
<g id="a_Node000002"><a xlink:href="sd_8h.html" target="_top" xlink:title=" ">
<polygon fill="white" stroke="#666666" points="449.54,-134.5 412.54,-134.5 412.54,-115.5 449.54,-115.5 449.54,-134.5"/>
<text text-anchor="middle" x="431.04" y="-122.5" font-family="Helvetica,sans-Serif" font-size="10.00">sd.h</text>
</a>
</g>
</g>
<!-- Node1&#45;&gt;Node2 -->
<g id="edge1_Node000001_Node000002" class="edge">
<title>Node1&#45;&gt;Node2</title>
<g id="a_edge1_Node000001_Node000002"><a xlink:title=" ">
<path fill="none" stroke="#63b8ff" d="M534.45,-175.99C514.28,-166.25 481.02,-150.16 457.68,-138.88"/>
<polygon fill="#63b8ff" stroke="#63b8ff" points="459.18,-135.72 448.66,-134.52 456.14,-142.02 459.18,-135.72"/>
</a>
</g>
</g>
<!-- Node6 -->
<g id="Node000006" class="node">
<title>Node6</title>
<g id="a_Node000006"><a xlink:title=" ">
<polygon fill="#e0e0e0" stroke="#999999" points="273.54,-19 222.54,-19 222.54,0 273.54,0 273.54,-19"/>
<text text-anchor="middle" x="248.04" y="-7" font-family="Helvetica,sans-Serif" font-size="10.00">errno.h</text>
</a>
</g>
</g>
<!-- Node1&#45;&gt;Node6 -->
<g id="edge20_Node000001_Node000006" class="edge">
<title>Node1&#45;&gt;Node6</title>
<g id="a_edge20_Node000001_Node000006"><a xlink:title=" ">
<path fill="none" stroke="#63b8ff" d="M476.95,-180.72C341.07,-172.14 62.98,-146.01 4.04,-74 -1.31,-67.47 -1.37,-61.48 4.04,-55 30.13,-23.73 150.86,-14.37 212.15,-11.62"/>
<polygon fill="#63b8ff" stroke="#63b8ff" points="212.66,-15.1 222.51,-11.19 212.37,-8.11 212.66,-15.1"/>
</a>
</g>
</g>
<!-- Node12 -->
<g id="Node000012" class="node">
<title>Node12</title>
<g id="a_Node000012"><a xlink:href="fs__list_8h.html" target="_top" xlink:title=" ">
<polygon fill="white" stroke="#666666" points="823.54,-134.5 714.54,-134.5 714.54,-115.5 823.54,-115.5 823.54,-134.5"/>
<text text-anchor="middle" x="769.04" y="-122.5" font-family="Helvetica,sans-Serif" font-size="10.00">core/types/fs_list.h</text>
</a>
</g>
</g>
<!-- Node1&#45;&gt;Node12 -->
<g id="edge15_Node000001_Node000012" class="edge">
<title>Node1&#45;&gt;Node12</title>
<g id="a_edge15_Node000001_Node000012"><a xlink:title=" ">
<path fill="none" stroke="#63b8ff" d="M583.6,-175.99C621.6,-165.75 685.57,-148.5 727.54,-137.19"/>
<polygon fill="#63b8ff" stroke="#63b8ff" points="728.71,-140.5 737.45,-134.52 726.88,-133.74 728.71,-140.5"/>
</a>
</g>
</g>
<!-- Node13 -->
<g id="Node000013" class="node">
<title>Node13</title>
<g id="a_Node000013"><a xlink:href="sd__ceph_8h.html" target="_top" xlink:title=" ">
<polygon fill="white" stroke="#666666" points="696.54,-140 583.54,-140 583.54,-110 696.54,-110 696.54,-140"/>
<text text-anchor="start" x="591.54" y="-128" font-family="Helvetica,sans-Serif" font-size="10.00">fs/backend/rados/sd</text>
<text text-anchor="middle" x="640.04" y="-117" font-family="Helvetica,sans-Serif" font-size="10.00">_ceph.h</text>
</a>
</g>
</g>
<!-- Node1&#45;&gt;Node13 -->
<g id="edge16_Node000001_Node000013" class="edge">
<title>Node1&#45;&gt;Node13</title>
<g id="a_edge16_Node000001_Node000013"><a xlink:title=" ">
<path fill="none" stroke="#63b8ff" d="M565.03,-175.87C576.86,-168 594.77,-156.09 610.13,-145.89"/>
<polygon fill="#63b8ff" stroke="#63b8ff" points="612.42,-148.57 618.81,-140.11 608.54,-142.74 612.42,-148.57"/>
</a>
</g>
</g>
<!-- Node3 -->
<g id="Node000003" class="node">
<title>Node3</title>
<g id="a_Node000003"><a xlink:title=" ">
<polygon fill="#e0e0e0" stroke="#999999" points="91.04,-74 13.04,-74 13.04,-55 91.04,-55 91.04,-74"/>
<text text-anchor="middle" x="52.04" y="-62" font-family="Helvetica,sans-Serif" font-size="10.00">ngx_config.h</text>
</a>
</g>
</g>
<!-- Node2&#45;&gt;Node3 -->
<g id="edge2_Node000002_Node000003" class="edge">
<title>Node2&#45;&gt;Node3</title>
<g id="a_edge2_Node000002_Node000003"><a xlink:title=" ">
<path fill="none" stroke="#63b8ff" d="M412.35,-121.35C363.23,-114.34 226.24,-94.56 101.19,-74.15"/>
<polygon fill="#63b8ff" stroke="#63b8ff" points="101.49,-70.66 91.06,-72.49 100.36,-77.56 101.49,-70.66"/>
</a>
</g>
</g>
<!-- Node4 -->
<g id="Node000004" class="node">
<title>Node4</title>
<g id="a_Node000004"><a xlink:title=" ">
<polygon fill="#e0e0e0" stroke="#999999" points="179.04,-74 109.04,-74 109.04,-55 179.04,-55 179.04,-74"/>
<text text-anchor="middle" x="144.04" y="-62" font-family="Helvetica,sans-Serif" font-size="10.00">ngx_core.h</text>
</a>
</g>
</g>
<!-- Node2&#45;&gt;Node4 -->
<g id="edge3_Node000002_Node000004" class="edge">
<title>Node2&#45;&gt;Node4</title>
<g id="a_edge3_Node000002_Node000004"><a xlink:title=" ">
<path fill="none" stroke="#63b8ff" d="M412.21,-120.16C367.35,-111.02 253.13,-87.74 189.17,-74.7"/>
<polygon fill="#63b8ff" stroke="#63b8ff" points="189.86,-71.27 179.36,-72.7 188.46,-78.13 189.86,-71.27"/>
</a>
</g>
</g>
<!-- Node5 -->
<g id="Node000005" class="node">
<title>Node5</title>
<g id="a_Node000005"><a xlink:title=" ">
<polygon fill="#e0e0e0" stroke="#999999" points="666.54,-74 613.54,-74 613.54,-55 666.54,-55 666.54,-74"/>
<text text-anchor="middle" x="640.04" y="-62" font-family="Helvetica,sans-Serif" font-size="10.00">stdint.h</text>
</a>
</g>
</g>
<!-- Node2&#45;&gt;Node5 -->
<g id="edge4_Node000002_Node000005" class="edge">
<title>Node2&#45;&gt;Node5</title>
<g id="a_edge4_Node000002_Node000005"><a xlink:title=" ">
<path fill="none" stroke="#63b8ff" d="M449.59,-118.81C484.14,-109.14 558.91,-88.21 603.8,-75.64"/>
<polygon fill="#63b8ff" stroke="#63b8ff" points="604.76,-79.01 613.45,-72.94 602.87,-72.27 604.76,-79.01"/>
</a>
</g>
</g>
<!-- Node2&#45;&gt;Node6 -->
<g id="edge5_Node000002_Node000006" class="edge">
<title>Node2&#45;&gt;Node6</title>
<g id="a_edge5_Node000002_Node000006"><a xlink:title=" ">
<path fill="none" stroke="#63b8ff" d="M412.3,-122.32C366.17,-117.76 249.18,-103.46 226.04,-74 215.28,-60.3 224.56,-40.98 234.15,-27.26"/>
<polygon fill="#63b8ff" stroke="#63b8ff" points="237.04,-29.24 240.3,-19.16 231.47,-25.01 237.04,-29.24"/>
</a>
</g>
</g>
<!-- Node7 -->
<g id="Node000007" class="node">
<title>Node7</title>
<g id="a_Node000007"><a xlink:title=" ">
<polygon fill="#e0e0e0" stroke="#999999" points="557.04,-74 493.04,-74 493.04,-55 557.04,-55 557.04,-74"/>
<text text-anchor="middle" x="525.04" y="-62" font-family="Helvetica,sans-Serif" font-size="10.00">sys/stat.h</text>
</a>
</g>
</g>
<!-- Node2&#45;&gt;Node7 -->
<g id="edge6_Node000002_Node000007" class="edge">
<title>Node2&#45;&gt;Node7</title>
<g id="a_edge6_Node000002_Node000007"><a xlink:title=" ">
<path fill="none" stroke="#63b8ff" d="M444.91,-115.37C460.05,-105.95 484.5,-90.73 502.42,-79.58"/>
<polygon fill="#63b8ff" stroke="#63b8ff" points="504.47,-82.42 511.11,-74.17 500.78,-76.48 504.47,-82.42"/>
</a>
</g>
</g>
<!-- Node8 -->
<g id="Node000008" class="node">
<title>Node8</title>
<g id="a_Node000008"><a xlink:title=" ">
<polygon fill="#e0e0e0" stroke="#999999" points="621.04,-19 549.04,-19 549.04,0 621.04,0 621.04,-19"/>
<text text-anchor="middle" x="585.04" y="-7" font-family="Helvetica,sans-Serif" font-size="10.00">sys/types.h</text>
</a>
</g>
</g>
<!-- Node2&#45;&gt;Node8 -->
<g id="edge7_Node000002_Node000008" class="edge">
<title>Node2&#45;&gt;Node8</title>
<g id="a_edge7_Node000002_Node000008"><a xlink:title=" ">
<path fill="none" stroke="#63b8ff" d="M449.6,-122.32C478.6,-118.7 534.58,-107.54 566.04,-74 577.47,-61.81 582.05,-43.03 583.87,-29.04"/>
<polygon fill="#63b8ff" stroke="#63b8ff" points="587.35,-29.37 584.82,-19.08 580.38,-28.7 587.35,-29.37"/>
</a>
</g>
</g>
<!-- Node9 -->
<g id="Node000009" class="node">
<title>Node9</title>
<g id="a_Node000009"><a xlink:title=" ">
<polygon fill="#e0e0e0" stroke="#999999" points="461.04,-19 401.04,-19 401.04,0 461.04,0 461.04,-19"/>
<text text-anchor="middle" x="431.04" y="-7" font-family="Helvetica,sans-Serif" font-size="10.00">sys/uio.h</text>
</a>
</g>
</g>
<!-- Node2&#45;&gt;Node9 -->
<g id="edge8_Node000002_Node000009" class="edge">
<title>Node2&#45;&gt;Node9</title>
<g id="a_edge8_Node000002_Node000009"><a xlink:title=" ">
<path fill="none" stroke="#63b8ff" d="M435.17,-115.12C440.75,-102.04 449.61,-76.78 446.04,-55 444.57,-46.05 441.55,-36.47 438.6,-28.51"/>
<polygon fill="#63b8ff" stroke="#63b8ff" points="441.83,-27.16 434.9,-19.15 435.32,-29.74 441.83,-27.16"/>
</a>
</g>
</g>
<!-- Node10 -->
<g id="Node000010" class="node">
<title>Node10</title>
<g id="a_Node000010"><a xlink:href="sd__cred__forward_8h.html" target="_top" xlink:title=" ">
<polygon fill="white" stroke="#666666" points="341.04,-74 235.04,-74 235.04,-55 341.04,-55 341.04,-74"/>
<text text-anchor="middle" x="288.04" y="-62" font-family="Helvetica,sans-Serif" font-size="10.00">sd_cred_forward.h</text>
</a>
</g>
</g>
<!-- Node2&#45;&gt;Node10 -->
<g id="edge9_Node000002_Node000010" class="edge">
<title>Node2&#45;&gt;Node10</title>
<g id="a_edge9_Node000002_Node000010"><a xlink:title=" ">
<path fill="none" stroke="#63b8ff" d="M412.35,-116.35C388.51,-106.6 346.98,-89.61 318.53,-77.97"/>
<polygon fill="#63b8ff" stroke="#63b8ff" points="319.65,-74.65 309.06,-74.1 317,-81.13 319.65,-74.65"/>
</a>
</g>
</g>
<!-- Node11 -->
<g id="Node000011" class="node">
<title>Node11</title>
<g id="a_Node000011"><a xlink:href="sd__registry_8h.html" target="_top" xlink:title=" ">
<polygon fill="white" stroke="#666666" points="437.04,-74 359.04,-74 359.04,-55 437.04,-55 437.04,-74"/>
<text text-anchor="middle" x="398.04" y="-62" font-family="Helvetica,sans-Serif" font-size="10.00">sd_registry.h</text>
</a>
</g>
</g>
<!-- Node2&#45;&gt;Node11 -->
<g id="edge11_Node000002_Node000011" class="edge">
<title>Node2&#45;&gt;Node11</title>
<g id="a_edge11_Node000002_Node000011"><a xlink:title=" ">
<path fill="none" stroke="#63b8ff" d="M426.17,-115.37C421.4,-106.9 413.97,-93.74 407.95,-83.07"/>
<polygon fill="#63b8ff" stroke="#63b8ff" points="410.89,-81.16 402.93,-74.17 404.8,-84.6 410.89,-81.16"/>
</a>
</g>
</g>
<!-- Node10&#45;&gt;Node6 -->
<g id="edge10_Node000010_Node000006" class="edge">
<title>Node10&#45;&gt;Node6</title>
<g id="a_edge10_Node000010_Node000006"><a xlink:title=" ">
<path fill="none" stroke="#63b8ff" d="M281.44,-54.75C275.79,-47.26 267.5,-36.28 260.59,-27.13"/>
<polygon fill="#63b8ff" stroke="#63b8ff" points="263.34,-24.96 254.52,-19.09 257.75,-29.18 263.34,-24.96"/>
</a>
</g>
</g>
<!-- Node11&#45;&gt;Node6 -->
<g id="edge12_Node000011_Node000006" class="edge">
<title>Node11&#45;&gt;Node6</title>
<g id="a_edge12_Node000011_Node000006"><a xlink:title=" ">
<path fill="none" stroke="#63b8ff" d="M373.94,-54.98C349.16,-46.23 310.34,-32.51 282.35,-22.62"/>
<polygon fill="#63b8ff" stroke="#63b8ff" points="283.18,-19.2 272.58,-19.17 280.84,-25.8 283.18,-19.2"/>
</a>
</g>
</g>
<!-- Node11&#45;&gt;Node8 -->
<g id="edge13_Node000011_Node000008" class="edge">
<title>Node11&#45;&gt;Node8</title>
<g id="a_edge13_Node000011_Node000008"><a xlink:title=" ">
<path fill="none" stroke="#63b8ff" d="M428.09,-54.98C459.75,-46.01 509.81,-31.82 544.85,-21.89"/>
<polygon fill="#63b8ff" stroke="#63b8ff" points="546.09,-25.18 554.76,-19.08 544.19,-18.44 546.09,-25.18"/>
</a>
</g>
</g>
<!-- Node11&#45;&gt;Node9 -->
<g id="edge14_Node000011_Node000009" class="edge">
<title>Node11&#45;&gt;Node9</title>
<g id="a_edge14_Node000011_Node000009"><a xlink:title=" ">
<path fill="none" stroke="#63b8ff" d="M403.49,-54.75C408.06,-47.42 414.71,-36.73 420.34,-27.7"/>
<polygon fill="#63b8ff" stroke="#63b8ff" points="423.38,-29.43 425.69,-19.09 417.44,-25.73 423.38,-29.43"/>
</a>
</g>
</g>
<!-- Node13&#45;&gt;Node5 -->
<g id="edge18_Node000013_Node000005" class="edge">
<title>Node13&#45;&gt;Node5</title>
<g id="a_edge18_Node000013_Node000005"><a xlink:title=" ">
<path fill="none" stroke="#63b8ff" d="M640.04,-109.84C640.04,-102.21 640.04,-92.7 640.04,-84.45"/>
<polygon fill="#63b8ff" stroke="#63b8ff" points="643.54,-84.27 640.04,-74.27 636.54,-84.27 643.54,-84.27"/>
</a>
</g>
</g>
<!-- Node13&#45;&gt;Node8 -->
<g id="edge19_Node000013_Node000008" class="edge">
<title>Node13&#45;&gt;Node8</title>
<g id="a_edge19_Node000013_Node000008"><a xlink:title=" ">
<path fill="none" stroke="#63b8ff" d="M696.88,-110.5C733.03,-99.12 769.65,-80.59 750.04,-55 735.64,-36.19 674.99,-23.53 631.41,-16.67"/>
<polygon fill="#63b8ff" stroke="#63b8ff" points="631.7,-13.17 621.29,-15.13 630.65,-20.09 631.7,-13.17"/>
</a>
</g>
</g>
<!-- Node14 -->
<g id="Node000014" class="node">
<title>Node14</title>
<g id="a_Node000014"><a xlink:title=" ">
<polygon fill="#e0e0e0" stroke="#999999" points="741.04,-74 685.04,-74 685.04,-55 741.04,-55 741.04,-74"/>
<text text-anchor="middle" x="713.04" y="-62" font-family="Helvetica,sans-Serif" font-size="10.00">stddef.h</text>
</a>
</g>
</g>
<!-- Node13&#45;&gt;Node14 -->
<g id="edge17_Node000013_Node000014" class="edge">
<title>Node13&#45;&gt;Node14</title>
<g id="a_edge17_Node000013_Node000014"><a xlink:title=" ">
<path fill="none" stroke="#63b8ff" d="M657.71,-109.84C668.74,-101 682.93,-89.63 694.18,-80.62"/>
<polygon fill="#63b8ff" stroke="#63b8ff" points="696.49,-83.25 702.1,-74.27 692.11,-77.79 696.49,-83.25"/>
</a>
</g>
</g>
</g>
</svg>

<g id="navigator" transform="translate(0 0)" fill="#404254">
  <rect fill="#f2f5e9" fill-opacity="0.5" stroke="#606060" stroke-width=".5" x="0" y="0" width="60" height="60"/>
  <use id="zoomplus" xlink:href="#zoomPlus" x="17" y="9" onmousedown="handleZoom(evt,'in')"/>
  <use id="zoomminus" xlink:href="#zoomMin" x="42" y="9" onmousedown="handleZoom(evt,'out')"/>
  <use id="reset" xlink:href="#resetDef" x="30" y="36" onmousedown="handleReset()"/>
   <use id="arrowup" xlink:href="#arrowUp" x="0" y="0" onmousedown="handlePan(0,-1)"/>
  <use id="arrowright" xlink:href="#arrowRight" x="0" y="0" onmousedown="handlePan(1,0)"/>
  <use id="arrowdown" xlink:href="#arrowDown" x="0" y="0" onmousedown="handlePan(0,1)"/>
  <use id="arrowleft" xlink:href="#arrowLeft" x="0" y="0" onmousedown="handlePan(-1,0)"/>
</g>
<svg viewBox="0 0 15 15" width="100%" height="30px" preserveAspectRatio="xMaxYMin meet">
 <g id="arrow_out" transform="scale(0.3 0.3)">
  <a xlink:href="sd__registry_8c__incl_org.svg" target="_base">
   <rect id="button" ry="5" rx="5" y="6" x="6" height="38" width="38"
        fill="#f2f5e9" fill-opacity="0.5" stroke="#606060" stroke-width="1.0"/>
   <path id="arrow"
     d="M 11.500037,31.436501 C 11.940474,20.09759 22.043105,11.32322 32.158766,21.979434 L 37.068811,17.246167 C 37.068811,17.246167 37.088388,32 37.088388,32 L 22.160133,31.978069 C 22.160133,31.978069 26.997745,27.140456 26.997745,27.140456 C 18.528582,18.264221 13.291696,25.230495 11.500037,31.436501 z"
     style="fill:#404040;"/>
  </a>
 </g>
</svg>

<style type='text/css'>
<![CDATA[
[data-mouse-over-selected='false'] { opacity: 0.7; }
[data-mouse-over-selected='true']  { opacity: 1.0; }
]]>
</style>
<script type="application/ecmascript"><![CDATA[
document.addEventListener('DOMContentLoaded', (event) => {
  highlightEdges();
  highlightAdjacentNodes();
});
]]></script>
</svg>
