<?xml version="1.0" encoding="UTF-8" standalone="no"?>
<!DOCTYPE svg PUBLIC "-//W3C//DTD SVG 1.1//EN"
 "http://www.w3.org/Graphics/SVG/1.1/DTD/svg11.dtd">
<!-- Generated by graphviz version 2.43.0 (0)
 -->
<!-- Title: src/fs/backend/s3/sd_s3.h Pages: 1 -->
<!--zoomable 159 -->

<svg id="main" version="1.1" xmlns="http://www.w3.org/2000/svg" xmlns:xlink="http://www.w3.org/1999/xlink" xml:space="preserve" onload="init(evt)">
<style type="text/css"><![CDATA[
.node, .edge {opacity: 0.7;}
.node.selected, .edge.selected {opacity: 1;}
.edge:hover path { stroke: red; }
.edge:hover polygon { stroke: red; fill: red; }
]]></style>

<defs>
  <circle id="rim" cx="0" cy="0" r="7"/>
  <circle id="rim2" cx="0" cy="0" r="3.5"/>
  <g id="zoomPlus">
    <use xlink:href="#rim" fill="#404040"><set attributeName="fill" to="#808080" begin="zoomplus.mouseover" end="zoomplus.mouseout"/></use>
    <path d="M-4,0h8M0,-4v8" fill="none" stroke="white" stroke-width="1.5" pointer-events="none"/>
  </g>
  <g id="zoomMin">
    <use xlink:href="#rim" fill="#404040"><set attributeName="fill" to="#808080" begin="zoomminus.mouseover" end="zoomminus.mouseout"/></use>
    <path d="M-4,0h8" fill="none" stroke="white" stroke-width="1.5" pointer-events="none"/>
  </g>
  <g id="arrowUp" transform="translate(30 24)">
    <use xlink:href="#rim"/>
    <path pointer-events="none" fill="none" stroke="white" stroke-width="1.5" d="M0,-3.0v7 M-2.5,-0.5L0,-3.0L2.5,-0.5"/>
  </g>
  <g id="arrowRight" transform="rotate(90) translate(36 -43)">
    <use xlink:href="#rim"/>
    <path pointer-events="none" fill="none" stroke="white" stroke-width="1.5" d="M0,-3.0v7 M-2.5,-0.5L0,-3.0L2.5,-0.5"/>
  </g>
  <g id="arrowDown" transform="rotate(180) translate(-30 -48)">
    <use xlink:href="#rim"/>
    <path pointer-events="none" fill="none" stroke="white" stroke-width="1.5" d="M0,-3.0v7 M-2.5,-0.5L0,-3.0L2.5,-0.5"/>
  </g>
  <g id="arrowLeft" transform="rotate(270) translate(-36 17)">
    <use xlink:href="#rim"/>
    <path pointer-events="none" fill="none" stroke="white" stroke-width="1.5" d="M0,-3.0v7 M-2.5,-0.5L0,-3.0L2.5,-0.5"/>
  </g>
  <g id="resetDef">
    <use xlink:href="#rim2" fill="#404040"><set attributeName="fill" to="#808080" begin="reset.mouseover" end="reset.mouseout"/></use>
  </g>
</defs>
<script type="application/ecmascript">
var viewWidth = 1086;
var viewHeight = 159;
var sectionId = 'dynsection-1';
</script>
<script type="application/ecmascript" xlink:href="svg.min.js"/>
<svg id="graph" class="graph">
<g id="viewport">
<title>src/fs/backend/s3/sd_s3.h</title>
<!-- Node1 -->
<g id="Node000001" class="node">
<title>Node1</title>
<g id="a_Node000001"><a xlink:title=" ">
<polygon fill="#999999" stroke="#666666" points="793,-151 653,-151 653,-132 793,-132 793,-151"/>
<text text-anchor="middle" x="723" y="-139" font-family="Helvetica,sans-Serif" font-size="10.00">src/fs/backend/s3/sd_s3.h</text>
</a>
</g>
</g>
<!-- Node2 -->
<g id="Node000002" class="node">
<title>Node2</title>
<g id="a_Node000002"><a xlink:href="vfs__s3__internal_8h.html" target="_top" xlink:title=" ">
<polygon fill="white" stroke="#666666" points="379.5,-96 262.5,-96 262.5,-66 379.5,-66 379.5,-96"/>
<text text-anchor="start" x="270.5" y="-84" font-family="Helvetica,sans-Serif" font-size="10.00">client/lib/fs/backend</text>
<text text-anchor="middle" x="321" y="-73" font-family="Helvetica,sans-Serif" font-size="10.00">/s3/vfs_s3_internal.h</text>
</a>
</g>
</g>
<!-- Node1&#45;&gt;Node2 -->
<g id="edge1_Node000001_Node000002" class="edge">
<title>Node1&#45;&gt;Node2</title>
<g id="a_edge1_Node000001_Node000002"><a xlink:title=" ">
<path fill="none" stroke="#63b8ff" d="M654.42,-130.52C577.04,-119.26 452.5,-101.14 379.52,-90.52"/>
<polygon fill="#63b8ff" stroke="#63b8ff" points="654.15,-134.02 664.55,-131.99 655.15,-127.09 654.15,-134.02"/>
</a>
</g>
</g>
<!-- Node7 -->
<g id="Node000007" class="node">
<title>Node7</title>
<g id="a_Node000007"><a xlink:href="sd__remote_8c.html" target="_top" xlink:title=" ">
<polygon fill="white" stroke="#666666" points="651.5,-96 526.5,-96 526.5,-66 651.5,-66 651.5,-96"/>
<text text-anchor="start" x="534.5" y="-84" font-family="Helvetica,sans-Serif" font-size="10.00">src/fs/backend/remote</text>
<text text-anchor="middle" x="589" y="-73" font-family="Helvetica,sans-Serif" font-size="10.00">/sd_remote.c</text>
</a>
</g>
</g>
<!-- Node1&#45;&gt;Node7 -->
<g id="edge6_Node000001_Node000007" class="edge">
<title>Node1&#45;&gt;Node7</title>
<g id="a_edge6_Node000001_Node000007"><a xlink:title=" ">
<path fill="none" stroke="#63b8ff" d="M694.26,-127.95C672.8,-118.59 643.47,-105.78 621.22,-96.06"/>
<polygon fill="#63b8ff" stroke="#63b8ff" points="692.95,-131.2 703.52,-131.99 695.75,-124.78 692.95,-131.2"/>
</a>
</g>
</g>
<!-- Node8 -->
<g id="Node000008" class="node">
<title>Node8</title>
<g id="a_Node000008"><a xlink:href="sd__s3_8c.html" target="_top" xlink:title=" ">
<polygon fill="white" stroke="#666666" points="678,-24.5 538,-24.5 538,-5.5 678,-5.5 678,-24.5"/>
<text text-anchor="middle" x="608" y="-12.5" font-family="Helvetica,sans-Serif" font-size="10.00">src/fs/backend/s3/sd_s3.c</text>
</a>
</g>
</g>
<!-- Node1&#45;&gt;Node8 -->
<g id="edge7_Node000001_Node000008" class="edge">
<title>Node1&#45;&gt;Node8</title>
<g id="a_edge7_Node000001_Node000008"><a xlink:title=" ">
<path fill="none" stroke="#63b8ff" d="M709.82,-123.95C697.39,-108.57 678.02,-85.21 660,-66 645.78,-50.84 628.13,-34.32 617.49,-24.57"/>
<polygon fill="#63b8ff" stroke="#63b8ff" points="707.29,-126.38 716.28,-131.99 712.75,-122 707.29,-126.38"/>
</a>
</g>
</g>
<!-- Node9 -->
<g id="Node000009" class="node">
<title>Node9</title>
<g id="a_Node000009"><a xlink:href="sd__s3__internal_8h.html" target="_top" xlink:title=" ">
<polygon fill="white" stroke="#666666" points="823.5,-96 708.5,-96 708.5,-66 823.5,-66 823.5,-96"/>
<text text-anchor="start" x="716.5" y="-84" font-family="Helvetica,sans-Serif" font-size="10.00">src/fs/backend/s3/sd</text>
<text text-anchor="middle" x="766" y="-73" font-family="Helvetica,sans-Serif" font-size="10.00">_s3_internal.h</text>
</a>
</g>
</g>
<!-- Node1&#45;&gt;Node9 -->
<g id="edge8_Node000001_Node000009" class="edge">
<title>Node1&#45;&gt;Node9</title>
<g id="a_edge8_Node000001_Node000009"><a xlink:title=" ">
<path fill="none" stroke="#63b8ff" d="M735.42,-123.61C741.82,-114.89 749.54,-104.39 755.63,-96.11"/>
<polygon fill="#63b8ff" stroke="#63b8ff" points="732.45,-121.74 729.34,-131.87 738.09,-125.88 732.45,-121.74"/>
</a>
</g>
</g>
<!-- Node11 -->
<g id="Node000011" class="node">
<title>Node11</title>
<g id="a_Node000011"><a xlink:href="sd__s3__sign_8c.html" target="_top" xlink:title=" ">
<polygon fill="white" stroke="#666666" points="944.5,-30 829.5,-30 829.5,0 944.5,0 944.5,-30"/>
<text text-anchor="start" x="837.5" y="-18" font-family="Helvetica,sans-Serif" font-size="10.00">src/fs/backend/s3/sd</text>
<text text-anchor="middle" x="887" y="-7" font-family="Helvetica,sans-Serif" font-size="10.00">_s3_sign.c</text>
</a>
</g>
</g>
<!-- Node1&#45;&gt;Node11 -->
<g id="edge13_Node000001_Node000011" class="edge">
<title>Node1&#45;&gt;Node11</title>
<g id="a_edge13_Node000001_Node000011"><a xlink:title=" ">
<path fill="none" stroke="#63b8ff" d="M767.35,-128.89C788.48,-121.81 813.17,-111.16 832,-96 854.71,-77.71 871.84,-47.61 880.57,-30.01"/>
<polygon fill="#63b8ff" stroke="#63b8ff" points="766.09,-125.61 757.62,-131.98 768.21,-132.28 766.09,-125.61"/>
</a>
</g>
</g>
<!-- Node12 -->
<g id="Node000012" class="node">
<title>Node12</title>
<g id="a_Node000012"><a xlink:href="sd__s3__write_8c.html" target="_top" xlink:title=" ">
<polygon fill="white" stroke="#666666" points="1077.5,-30 962.5,-30 962.5,0 1077.5,0 1077.5,-30"/>
<text text-anchor="start" x="970.5" y="-18" font-family="Helvetica,sans-Serif" font-size="10.00">src/fs/backend/s3/sd</text>
<text text-anchor="middle" x="1020" y="-7" font-family="Helvetica,sans-Serif" font-size="10.00">_s3_write.c</text>
</a>
</g>
</g>
<!-- Node1&#45;&gt;Node12 -->
<g id="edge14_Node000001_Node000012" class="edge">
<title>Node1&#45;&gt;Node12</title>
<g id="a_edge14_Node000001_Node000012"><a xlink:title=" ">
<path fill="none" stroke="#63b8ff" d="M763.37,-129.12C790.97,-120.92 828.16,-109.05 860,-96 909,-75.92 963.7,-47.1 994.78,-30.09"/>
<polygon fill="#63b8ff" stroke="#63b8ff" points="762.28,-125.79 753.67,-131.97 764.25,-132.51 762.28,-125.79"/>
</a>
</g>
</g>
<!-- Node3 -->
<g id="Node000003" class="node">
<title>Node3</title>
<g id="a_Node000003"><a xlink:href="vfs__s3_8c.html" target="_top" xlink:title=" ">
<polygon fill="white" stroke="#666666" points="114,-30 0,-30 0,0 114,0 114,-30"/>
<text text-anchor="start" x="8" y="-18" font-family="Helvetica,sans-Serif" font-size="10.00">client/lib/fs/backend</text>
<text text-anchor="middle" x="57" y="-7" font-family="Helvetica,sans-Serif" font-size="10.00">/s3/vfs_s3.c</text>
</a>
</g>
</g>
<!-- Node2&#45;&gt;Node3 -->
<g id="edge2_Node000002_Node000003" class="edge">
<title>Node2&#45;&gt;Node3</title>
<g id="a_edge2_Node000002_Node000003"><a xlink:title=" ">
<path fill="none" stroke="#63b8ff" d="M253.24,-63.57C210.23,-53.15 155.19,-39.8 114.35,-29.9"/>
<polygon fill="#63b8ff" stroke="#63b8ff" points="252.52,-67 263.06,-65.95 254.17,-60.2 252.52,-67"/>
</a>
</g>
</g>
<!-- Node4 -->
<g id="Node000004" class="node">
<title>Node4</title>
<g id="a_Node000004"><a xlink:href="vfs__s3__http_8c.html" target="_top" xlink:title=" ">
<polygon fill="white" stroke="#666666" points="246,-30 132,-30 132,0 246,0 246,-30"/>
<text text-anchor="start" x="140" y="-18" font-family="Helvetica,sans-Serif" font-size="10.00">client/lib/fs/backend</text>
<text text-anchor="middle" x="189" y="-7" font-family="Helvetica,sans-Serif" font-size="10.00">/s3/vfs_s3_http.c</text>
</a>
</g>
</g>
<!-- Node2&#45;&gt;Node4 -->
<g id="edge3_Node000002_Node000004" class="edge">
<title>Node2&#45;&gt;Node4</title>
<g id="a_edge3_Node000002_Node000004"><a xlink:title=" ">
<path fill="none" stroke="#63b8ff" d="M282.87,-61.51C262.16,-51.47 236.97,-39.26 217.9,-30.01"/>
<polygon fill="#63b8ff" stroke="#63b8ff" points="281.51,-64.74 292.03,-65.95 284.56,-58.44 281.51,-64.74"/>
</a>
</g>
</g>
<!-- Node5 -->
<g id="Node000005" class="node">
<title>Node5</title>
<g id="a_Node000005"><a xlink:href="vfs__s3__io_8c.html" target="_top" xlink:title=" ">
<polygon fill="white" stroke="#666666" points="378,-30 264,-30 264,0 378,0 378,-30"/>
<text text-anchor="start" x="272" y="-18" font-family="Helvetica,sans-Serif" font-size="10.00">client/lib/fs/backend</text>
<text text-anchor="middle" x="321" y="-7" font-family="Helvetica,sans-Serif" font-size="10.00">/s3/vfs_s3_io.c</text>
</a>
</g>
</g>
<!-- Node2&#45;&gt;Node5 -->
<g id="edge4_Node000002_Node000005" class="edge">
<title>Node2&#45;&gt;Node5</title>
<g id="a_edge4_Node000002_Node000005"><a xlink:title=" ">
<path fill="none" stroke="#63b8ff" d="M321,-55.54C321,-46.96 321,-37.61 321,-30.16"/>
<polygon fill="#63b8ff" stroke="#63b8ff" points="317.5,-55.8 321,-65.8 324.5,-55.8 317.5,-55.8"/>
</a>
</g>
</g>
<!-- Node6 -->
<g id="Node000006" class="node">
<title>Node6</title>
<g id="a_Node000006"><a xlink:href="vfs__s3__transport_8c.html" target="_top" xlink:title=" ">
<polygon fill="white" stroke="#666666" points="519.5,-30 396.5,-30 396.5,0 519.5,0 519.5,-30"/>
<text text-anchor="start" x="404.5" y="-18" font-family="Helvetica,sans-Serif" font-size="10.00">client/lib/fs/backend</text>
<text text-anchor="middle" x="458" y="-7" font-family="Helvetica,sans-Serif" font-size="10.00">/s3/vfs_s3_transport.c</text>
</a>
</g>
</g>
<!-- Node2&#45;&gt;Node6 -->
<g id="edge5_Node000002_Node000006" class="edge">
<title>Node2&#45;&gt;Node6</title>
<g id="a_edge5_Node000002_Node000006"><a xlink:title=" ">
<path fill="none" stroke="#63b8ff" d="M360.28,-61.65C381.83,-51.58 408.12,-39.3 428,-30.01"/>
<polygon fill="#63b8ff" stroke="#63b8ff" points="358.64,-58.55 351.07,-65.95 361.61,-64.89 358.64,-58.55"/>
</a>
</g>
</g>
<!-- Node9&#45;&gt;Node8 -->
<g id="edge9_Node000009_Node000008" class="edge">
<title>Node9&#45;&gt;Node8</title>
<g id="a_edge9_Node000009_Node000008"><a xlink:title=" ">
<path fill="none" stroke="#63b8ff" d="M721.81,-62.1C691.48,-49.82 652.6,-34.06 629.03,-24.52"/>
<polygon fill="#63b8ff" stroke="#63b8ff" points="720.74,-65.44 731.33,-65.95 723.37,-58.96 720.74,-65.44"/>
</a>
</g>
</g>
<!-- Node10 -->
<g id="Node000010" class="node">
<title>Node10</title>
<g id="a_Node000010"><a xlink:href="sd__s3__meta_8c.html" target="_top" xlink:title=" ">
<polygon fill="white" stroke="#666666" points="811.5,-30 696.5,-30 696.5,0 811.5,0 811.5,-30"/>
<text text-anchor="start" x="704.5" y="-18" font-family="Helvetica,sans-Serif" font-size="10.00">src/fs/backend/s3/sd</text>
<text text-anchor="middle" x="754" y="-7" font-family="Helvetica,sans-Serif" font-size="10.00">_s3_meta.c</text>
</a>
</g>
</g>
<!-- Node9&#45;&gt;Node10 -->
<g id="edge10_Node000009_Node000010" class="edge">
<title>Node9&#45;&gt;Node10</title>
<g id="a_edge10_Node000009_Node000010"><a xlink:title=" ">
<path fill="none" stroke="#63b8ff" d="M761.47,-55.83C759.84,-47.17 758.07,-37.7 756.66,-30.16"/>
<polygon fill="#63b8ff" stroke="#63b8ff" points="758.05,-56.61 763.34,-65.8 764.93,-55.32 758.05,-56.61"/>
</a>
</g>
</g>
<!-- Node9&#45;&gt;Node11 -->
<g id="edge11_Node000009_Node000011" class="edge">
<title>Node9&#45;&gt;Node11</title>
<g id="a_edge11_Node000009_Node000011"><a xlink:title=" ">
<path fill="none" stroke="#63b8ff" d="M801.47,-61.24C820.35,-51.25 843.18,-39.18 860.51,-30.01"/>
<polygon fill="#63b8ff" stroke="#63b8ff" points="799.76,-58.19 792.55,-65.95 803.03,-64.37 799.76,-58.19"/>
</a>
</g>
</g>
<!-- Node9&#45;&gt;Node12 -->
<g id="edge12_Node000009_Node000012" class="edge">
<title>Node9&#45;&gt;Node12</title>
<g id="a_edge12_Node000009_Node000012"><a xlink:title=" ">
<path fill="none" stroke="#63b8ff" d="M831.68,-63.45C872.83,-53.08 925.29,-39.86 964.39,-30.01"/>
<polygon fill="#63b8ff" stroke="#63b8ff" points="830.58,-60.12 821.74,-65.95 832.29,-66.91 830.58,-60.12"/>
</a>
</g>
</g>
</g>
</svg>

<g id="navigator" transform="translate(0 0)" fill="#404254">
  <rect fill="#f2f5e9" fill-opacity="0.5" stroke="#606060" stroke-width=".5" x="0" y="0" width="60" height="60"/>
  <use id="zoomplus" xlink:href="#zoomPlus" x="17" y="9" onmousedown="handleZoom(evt,'in')"/>
  <use id="zoomminus" xlink:href="#zoomMin" x="42" y="9" onmousedown="handleZoom(evt,'out')"/>
  <use id="reset" xlink:href="#resetDef" x="30" y="36" onmousedown="handleReset()"/>
   <use id="arrowup" xlink:href="#arrowUp" x="0" y="0" onmousedown="handlePan(0,-1)"/>
  <use id="arrowright" xlink:href="#arrowRight" x="0" y="0" onmousedown="handlePan(1,0)"/>
  <use id="arrowdown" xlink:href="#arrowDown" x="0" y="0" onmousedown="handlePan(0,1)"/>
  <use id="arrowleft" xlink:href="#arrowLeft" x="0" y="0" onmousedown="handlePan(-1,0)"/>
</g>
<svg viewBox="0 0 15 15" width="100%" height="30px" preserveAspectRatio="xMaxYMin meet">
 <g id="arrow_out" transform="scale(0.3 0.3)">
  <a xlink:href="sd__s3_8h__dep__incl_org.svg" target="_base">
   <rect id="button" ry="5" rx="5" y="6" x="6" height="38" width="38"
        fill="#f2f5e9" fill-opacity="0.5" stroke="#606060" stroke-width="1.0"/>
   <path id="arrow"
     d="M 11.500037,31.436501 C 11.940474,20.09759 22.043105,11.32322 32.158766,21.979434 L 37.068811,17.246167 C 37.068811,17.246167 37.088388,32 37.088388,32 L 22.160133,31.978069 C 22.160133,31.978069 26.997745,27.140456 26.997745,27.140456 C 18.528582,18.264221 13.291696,25.230495 11.500037,31.436501 z"
     style="fill:#404040;"/>
  </a>
 </g>
</svg>

<style type='text/css'>
<![CDATA[
[data-mouse-over-selected='false'] { opacity: 0.7; }
[data-mouse-over-selected='true']  { opacity: 1.0; }
]]>
</style>
<script type="application/ecmascript"><![CDATA[
document.addEventListener('DOMContentLoaded', (event) => {
  highlightEdges();
  highlightAdjacentNodes();
});
]]></script>
</svg>
