<?xml version="1.0" encoding="UTF-8" standalone="no"?>
<!DOCTYPE svg PUBLIC "-//W3C//DTD SVG 1.1//EN"
 "http://www.w3.org/Graphics/SVG/1.1/DTD/svg11.dtd">
<!-- Generated by graphviz version 2.43.0 (0)
 -->
<!-- Title: src/fs/backend/remote/sd_remote.h Pages: 1 -->
<svg width="685pt" height="104pt"
 viewBox="0.00 0.00 685.00 104.00" xmlns="http://www.w3.org/2000/svg" xmlns:xlink="http://www.w3.org/1999/xlink">
<g id="graph0" class="graph" transform="scale(1 1) rotate(0) translate(4 100)">
<title>src/fs/backend/remote/sd_remote.h</title>
<!-- Node1 -->
<g id="Node000001" class="node">
<title>Node1</title>
<g id="a_Node000001"><a xlink:title=" ">
<polygon fill="#999999" stroke="#666666" points="394,-96 269,-96 269,-66 394,-66 394,-96"/>
<text text-anchor="start" x="277" y="-84" font-family="Helvetica,sans-Serif" font-size="10.00">src/fs/backend/remote</text>
<text text-anchor="middle" x="331.5" y="-73" font-family="Helvetica,sans-Serif" font-size="10.00">/sd_remote.h</text>
</a>
</g>
</g>
<!-- Node2 -->
<g id="Node000002" class="node">
<title>Node2</title>
<g id="a_Node000002"><a xlink:href="sd__remote_8c.html" target="_top" xlink:title=" ">
<polygon fill="white" stroke="#666666" points="125,-30 0,-30 0,0 125,0 125,-30"/>
<text text-anchor="start" x="8" y="-18" font-family="Helvetica,sans-Serif" font-size="10.00">src/fs/backend/remote</text>
<text text-anchor="middle" x="62.5" y="-7" font-family="Helvetica,sans-Serif" font-size="10.00">/sd_remote.c</text>
</a>
</g>
</g>
<!-- Node1&#45;&gt;Node2 -->
<g id="edge1_Node000001_Node000002" class="edge">
<title>Node1&#45;&gt;Node2</title>
<g id="a_edge1_Node000001_Node000002"><a xlink:title=" ">
<path fill="none" stroke="#63b8ff" d="M262.5,-63.58C218.83,-53.19 162.97,-39.9 121.4,-30.01"/>
<polygon fill="#63b8ff" stroke="#63b8ff" points="261.93,-67.05 272.47,-65.95 263.55,-60.24 261.93,-67.05"/>
</a>
</g>
</g>
<!-- Node3 -->
<g id="Node000003" class="node">
<title>Node3</title>
<g id="a_Node000003"><a xlink:href="fetch_8c.html" target="_top" xlink:title=" ">
<polygon fill="white" stroke="#666666" points="253.5,-24.5 143.5,-24.5 143.5,-5.5 253.5,-5.5 253.5,-24.5"/>
<text text-anchor="middle" x="198.5" y="-12.5" font-family="Helvetica,sans-Serif" font-size="10.00">src/fs/cache/fetch.c</text>
</a>
</g>
</g>
<!-- Node1&#45;&gt;Node3 -->
<g id="edge2_Node000001_Node000003" class="edge">
<title>Node1&#45;&gt;Node3</title>
<g id="a_edge2_Node000001_Node000003"><a xlink:title=" ">
<path fill="none" stroke="#63b8ff" d="M292.97,-61.46C267.64,-49.27 235.7,-33.9 216.2,-24.52"/>
<polygon fill="#63b8ff" stroke="#63b8ff" points="291.78,-64.77 302.31,-65.95 294.82,-58.46 291.78,-64.77"/>
</a>
</g>
</g>
<!-- Node4 -->
<g id="Node000004" class="node">
<title>Node4</title>
<g id="a_Node000004"><a xlink:href="tier__build_8c.html" target="_top" xlink:title=" ">
<polygon fill="white" stroke="#666666" points="391,-24.5 272,-24.5 272,-5.5 391,-5.5 391,-24.5"/>
<text text-anchor="middle" x="331.5" y="-12.5" font-family="Helvetica,sans-Serif" font-size="10.00">src/fs/tier/tier_build.c</text>
</a>
</g>
</g>
<!-- Node1&#45;&gt;Node4 -->
<g id="edge3_Node000001_Node000004" class="edge">
<title>Node1&#45;&gt;Node4</title>
<g id="a_edge3_Node000001_Node000004"><a xlink:title=" ">
<path fill="none" stroke="#63b8ff" d="M331.5,-55.6C331.5,-44.8 331.5,-32.78 331.5,-24.84"/>
<polygon fill="#63b8ff" stroke="#63b8ff" points="328,-55.8 331.5,-65.8 335,-55.8 328,-55.8"/>
</a>
</g>
</g>
<!-- Node5 -->
<g id="Node000005" class="node">
<title>Node5</title>
<g id="a_Node000005"><a xlink:href="vfs__backend__registry_8c.html" target="_top" xlink:title=" ">
<polygon fill="white" stroke="#666666" points="534,-30 409,-30 409,0 534,0 534,-30"/>
<text text-anchor="start" x="417" y="-18" font-family="Helvetica,sans-Serif" font-size="10.00">src/fs/vfs/vfs_backend</text>
<text text-anchor="middle" x="471.5" y="-7" font-family="Helvetica,sans-Serif" font-size="10.00">_registry.c</text>
</a>
</g>
</g>
<!-- Node1&#45;&gt;Node5 -->
<g id="edge4_Node000001_Node000005" class="edge">
<title>Node1&#45;&gt;Node5</title>
<g id="a_edge4_Node000001_Node000005"><a xlink:title=" ">
<path fill="none" stroke="#63b8ff" d="M371.35,-61.78C393.42,-51.69 420.44,-39.34 440.85,-30.01"/>
<polygon fill="#63b8ff" stroke="#63b8ff" points="369.86,-58.61 362.22,-65.95 372.77,-64.98 369.86,-58.61"/>
</a>
</g>
</g>
<!-- Node6 -->
<g id="Node000006" class="node">
<title>Node6</title>
<g id="a_Node000006"><a xlink:href="vfs__backend__registry__source_8c.html" target="_top" xlink:title=" ">
<polygon fill="white" stroke="#666666" points="677,-30 552,-30 552,0 677,0 677,-30"/>
<text text-anchor="start" x="560" y="-18" font-family="Helvetica,sans-Serif" font-size="10.00">src/fs/vfs/vfs_backend</text>
<text text-anchor="middle" x="614.5" y="-7" font-family="Helvetica,sans-Serif" font-size="10.00">_registry_source.c</text>
</a>
</g>
</g>
<!-- Node1&#45;&gt;Node6 -->
<g id="edge5_Node000001_Node000006" class="edge">
<title>Node1&#45;&gt;Node6</title>
<g id="a_edge5_Node000001_Node000006"><a xlink:title=" ">
<path fill="none" stroke="#63b8ff" d="M403.52,-63.71C449.54,-53.31 508.61,-39.95 552.54,-30.01"/>
<polygon fill="#63b8ff" stroke="#63b8ff" points="402.59,-60.34 393.61,-65.95 404.13,-67.16 402.59,-60.34"/>
</a>
</g>
</g>
</g>
</svg>
