<?xml version="1.0" encoding="UTF-8" standalone="no"?>
<!DOCTYPE svg PUBLIC "-//W3C//DTD SVG 1.1//EN"
 "http://www.w3.org/Graphics/SVG/1.1/DTD/svg11.dtd">
<!-- Generated by graphviz version 2.43.0 (0)
 -->
<!-- Title: src/fs/backend/http/sd_http.h Pages: 1 -->
<svg width="2854pt" height="170pt"
 viewBox="0.00 0.00 2854.00 170.00" xmlns="http://www.w3.org/2000/svg" xmlns:xlink="http://www.w3.org/1999/xlink">
<g id="graph0" class="graph" transform="scale(1 1) rotate(0) translate(4 166)">
<title>src/fs/backend/http/sd_http.h</title>
<!-- Node1 -->
<g id="Node000001" class="node">
<title>Node1</title>
<g id="a_Node000001"><a xlink:title=" ">
<polygon fill="#999999" stroke="#666666" points="1368.5,-162 1259.5,-162 1259.5,-132 1368.5,-132 1368.5,-162"/>
<text text-anchor="start" x="1267.5" y="-150" font-family="Helvetica,sans-Serif" font-size="10.00">src/fs/backend/http</text>
<text text-anchor="middle" x="1314" y="-139" font-family="Helvetica,sans-Serif" font-size="10.00">/sd_http.h</text>
</a>
</g>
</g>
<!-- Node2 -->
<g id="Node000002" class="node">
<title>Node2</title>
<g id="a_Node000002"><a xlink:href="sd__cache_8c.html" target="_top" xlink:title=" ">
<polygon fill="white" stroke="#666666" points="118,-96 0,-96 0,-66 118,-66 118,-96"/>
<text text-anchor="start" x="8" y="-84" font-family="Helvetica,sans-Serif" font-size="10.00">src/fs/backend/cache</text>
<text text-anchor="middle" x="59" y="-73" font-family="Helvetica,sans-Serif" font-size="10.00">/sd_cache.c</text>
</a>
</g>
</g>
<!-- Node1&#45;&gt;Node2 -->
<g id="edge1_Node000001_Node000002" class="edge">
<title>Node1&#45;&gt;Node2</title>
<g id="a_edge1_Node000001_Node000002"><a xlink:title=" ">
<path fill="none" stroke="#63b8ff" d="M1249.28,-144.65C1034.59,-139.95 347.04,-123.11 127,-96 124.13,-95.65 121.2,-95.24 118.25,-94.78"/>
<polygon fill="#63b8ff" stroke="#63b8ff" points="1249.37,-148.15 1259.45,-144.87 1249.53,-141.15 1249.37,-148.15"/>
</a>
</g>
</g>
<!-- Node3 -->
<g id="Node000003" class="node">
<title>Node3</title>
<g id="a_Node000003"><a xlink:href="sd__cache__fill_8c.html" target="_top" xlink:title=" ">
<polygon fill="white" stroke="#666666" points="254,-96 136,-96 136,-66 254,-66 254,-96"/>
<text text-anchor="start" x="144" y="-84" font-family="Helvetica,sans-Serif" font-size="10.00">src/fs/backend/cache</text>
<text text-anchor="middle" x="195" y="-73" font-family="Helvetica,sans-Serif" font-size="10.00">/sd_cache_fill.c</text>
</a>
</g>
</g>
<!-- Node1&#45;&gt;Node3 -->
<g id="edge2_Node000001_Node000003" class="edge">
<title>Node1&#45;&gt;Node3</title>
<g id="a_edge2_Node000001_Node000003"><a xlink:title=" ">
<path fill="none" stroke="#63b8ff" d="M1248.83,-146.41C1083.37,-146.69 633.87,-142.71 263,-96 260.13,-95.64 257.2,-95.22 254.25,-94.76"/>
<polygon fill="#63b8ff" stroke="#63b8ff" points="1249.32,-149.91 1259.31,-146.39 1249.31,-142.91 1249.32,-149.91"/>
</a>
</g>
</g>
<!-- Node4 -->
<g id="Node000004" class="node">
<title>Node4</title>
<g id="a_Node000004"><a xlink:href="sd__cache__fill__verify_8c.html" target="_top" xlink:title=" ">
<polygon fill="white" stroke="#666666" points="394,-96 272,-96 272,-66 394,-66 394,-96"/>
<text text-anchor="start" x="280" y="-84" font-family="Helvetica,sans-Serif" font-size="10.00">src/fs/backend/cache</text>
<text text-anchor="middle" x="333" y="-73" font-family="Helvetica,sans-Serif" font-size="10.00">/sd_cache_fill_verify.c</text>
</a>
</g>
</g>
<!-- Node1&#45;&gt;Node4 -->
<g id="edge3_Node000001_Node000004" class="edge">
<title>Node1&#45;&gt;Node4</title>
<g id="a_edge3_Node000001_Node000004"><a xlink:title=" ">
<path fill="none" stroke="#63b8ff" d="M1248.95,-145.61C1099.12,-144.01 718.35,-135.98 403,-96 400.17,-95.64 397.29,-95.23 394.38,-94.79"/>
<polygon fill="#63b8ff" stroke="#63b8ff" points="1249.3,-149.11 1259.33,-145.71 1249.37,-142.11 1249.3,-149.11"/>
</a>
</g>
</g>
<!-- Node5 -->
<g id="Node000005" class="node">
<title>Node5</title>
<g id="a_Node000005"><a xlink:href="sd__cache__forward_8c.html" target="_top" xlink:title=" ">
<polygon fill="white" stroke="#666666" points="530,-96 412,-96 412,-66 530,-66 530,-96"/>
<text text-anchor="start" x="420" y="-84" font-family="Helvetica,sans-Serif" font-size="10.00">src/fs/backend/cache</text>
<text text-anchor="middle" x="471" y="-73" font-family="Helvetica,sans-Serif" font-size="10.00">/sd_cache_forward.c</text>
</a>
</g>
</g>
<!-- Node1&#45;&gt;Node5 -->
<g id="edge4_Node000001_Node000005" class="edge">
<title>Node1&#45;&gt;Node5</title>
<g id="a_edge4_Node000001_Node000005"><a xlink:title=" ">
<path fill="none" stroke="#63b8ff" d="M1249.19,-144.85C1115.73,-141.81 800.77,-131.22 539,-96 536.13,-95.61 533.21,-95.18 530.26,-94.7"/>
<polygon fill="#63b8ff" stroke="#63b8ff" points="1249.17,-148.35 1259.25,-145.07 1249.33,-141.35 1249.17,-148.35"/>
</a>
</g>
</g>
<!-- Node6 -->
<g id="Node000006" class="node">
<title>Node6</title>
<g id="a_Node000006"><a xlink:href="sd__cache__partial_8c.html" target="_top" xlink:title=" ">
<polygon fill="white" stroke="#666666" points="666,-96 548,-96 548,-66 666,-66 666,-96"/>
<text text-anchor="start" x="556" y="-84" font-family="Helvetica,sans-Serif" font-size="10.00">src/fs/backend/cache</text>
<text text-anchor="middle" x="607" y="-73" font-family="Helvetica,sans-Serif" font-size="10.00">/sd_cache_partial.c</text>
</a>
</g>
</g>
<!-- Node1&#45;&gt;Node6 -->
<g id="edge5_Node000001_Node000006" class="edge">
<title>Node1&#45;&gt;Node6</title>
<g id="a_edge5_Node000001_Node000006"><a xlink:title=" ">
<path fill="none" stroke="#63b8ff" d="M1249.37,-143.61C1133.69,-138.75 883.82,-125.55 675,-96 672.14,-95.59 669.21,-95.14 666.26,-94.66"/>
<polygon fill="#63b8ff" stroke="#63b8ff" points="1249.33,-147.12 1259.47,-144.03 1249.62,-140.12 1249.33,-147.12"/>
</a>
</g>
</g>
<!-- Node7 -->
<g id="Node000007" class="node">
<title>Node7</title>
<g id="a_Node000007"><a xlink:href="sd__cache__policy_8c.html" target="_top" xlink:title=" ">
<polygon fill="white" stroke="#666666" points="802,-96 684,-96 684,-66 802,-66 802,-96"/>
<text text-anchor="start" x="692" y="-84" font-family="Helvetica,sans-Serif" font-size="10.00">src/fs/backend/cache</text>
<text text-anchor="middle" x="743" y="-73" font-family="Helvetica,sans-Serif" font-size="10.00">/sd_cache_policy.c</text>
</a>
</g>
</g>
<!-- Node1&#45;&gt;Node7 -->
<g id="edge6_Node000001_Node000007" class="edge">
<title>Node1&#45;&gt;Node7</title>
<g id="a_edge6_Node000001_Node000007"><a xlink:title=" ">
<path fill="none" stroke="#63b8ff" d="M1249.22,-141.36C1153.98,-134.11 970.72,-118.56 816,-96 811.53,-95.35 806.92,-94.61 802.29,-93.83"/>
<polygon fill="#63b8ff" stroke="#63b8ff" points="1249.04,-144.85 1259.27,-142.11 1249.57,-137.87 1249.04,-144.85"/>
</a>
</g>
</g>
<!-- Node8 -->
<g id="Node000008" class="node">
<title>Node8</title>
<g id="a_Node000008"><a xlink:href="sd__http_8c.html" target="_top" xlink:title=" ">
<polygon fill="white" stroke="#666666" points="769.5,-30 660.5,-30 660.5,0 769.5,0 769.5,-30"/>
<text text-anchor="start" x="668.5" y="-18" font-family="Helvetica,sans-Serif" font-size="10.00">src/fs/backend/http</text>
<text text-anchor="middle" x="715" y="-7" font-family="Helvetica,sans-Serif" font-size="10.00">/sd_http.c</text>
</a>
</g>
</g>
<!-- Node1&#45;&gt;Node8 -->
<g id="edge7_Node000001_Node000008" class="edge">
<title>Node1&#45;&gt;Node8</title>
<g id="a_edge7_Node000001_Node000008"><a xlink:title=" ">
<path fill="none" stroke="#63b8ff" d="M1248.88,-143.33C1138.76,-138.09 920.84,-124.42 850,-96 829.7,-87.86 829.44,-77.76 811,-66 789.77,-52.46 764.46,-39.39 745.16,-30.02"/>
<polygon fill="#63b8ff" stroke="#63b8ff" points="1249.04,-146.84 1259.19,-143.81 1249.37,-139.85 1249.04,-146.84"/>
</a>
</g>
</g>
<!-- Node9 -->
<g id="Node000009" class="node">
<title>Node9</title>
<g id="a_Node000009"><a xlink:href="sd__http__internal_8h.html" target="_top" xlink:title=" ">
<polygon fill="white" stroke="#666666" points="967.5,-96 858.5,-96 858.5,-66 967.5,-66 967.5,-96"/>
<text text-anchor="start" x="866.5" y="-84" font-family="Helvetica,sans-Serif" font-size="10.00">src/fs/backend/http</text>
<text text-anchor="middle" x="913" y="-73" font-family="Helvetica,sans-Serif" font-size="10.00">/sd_http_internal.h</text>
</a>
</g>
</g>
<!-- Node1&#45;&gt;Node9 -->
<g id="edge8_Node000001_Node000009" class="edge">
<title>Node1&#45;&gt;Node9</title>
<g id="a_edge8_Node000001_Node000009"><a xlink:title=" ">
<path fill="none" stroke="#63b8ff" d="M1249.1,-137.71C1181.08,-128.7 1071.21,-113.27 977,-96 973.98,-95.45 970.88,-94.85 967.76,-94.24"/>
<polygon fill="#63b8ff" stroke="#63b8ff" points="1248.86,-141.2 1259.24,-139.04 1249.78,-134.26 1248.86,-141.2"/>
</a>
</g>
</g>
<!-- Node14 -->
<g id="Node000014" class="node">
<title>Node14</title>
<g id="a_Node000014"><a xlink:href="fetch_8c.html" target="_top" xlink:title=" ">
<polygon fill="white" stroke="#666666" points="1096,-90.5 986,-90.5 986,-71.5 1096,-71.5 1096,-90.5"/>
<text text-anchor="middle" x="1041" y="-78.5" font-family="Helvetica,sans-Serif" font-size="10.00">src/fs/cache/fetch.c</text>
</a>
</g>
</g>
<!-- Node1&#45;&gt;Node14 -->
<g id="edge14_Node000001_Node000014" class="edge">
<title>Node1&#45;&gt;Node14</title>
<g id="a_edge14_Node000001_Node000014"><a xlink:title=" ">
<path fill="none" stroke="#63b8ff" d="M1249.65,-130.91C1196.03,-118.34 1121.55,-100.88 1077.61,-90.58"/>
<polygon fill="#63b8ff" stroke="#63b8ff" points="1248.88,-134.33 1259.41,-133.2 1250.47,-127.51 1248.88,-134.33"/>
</a>
</g>
</g>
<!-- Node15 -->
<g id="Node000015" class="node">
<title>Node15</title>
<g id="a_Node000015"><a xlink:href="tier__build_8c.html" target="_top" xlink:title=" ">
<polygon fill="white" stroke="#666666" points="1233.5,-90.5 1114.5,-90.5 1114.5,-71.5 1233.5,-71.5 1233.5,-90.5"/>
<text text-anchor="middle" x="1174" y="-78.5" font-family="Helvetica,sans-Serif" font-size="10.00">src/fs/tier/tier_build.c</text>
</a>
</g>
</g>
<!-- Node1&#45;&gt;Node15 -->
<g id="edge15_Node000001_Node000015" class="edge">
<title>Node1&#45;&gt;Node15</title>
<g id="a_edge15_Node000001_Node000015"><a xlink:title=" ">
<path fill="none" stroke="#63b8ff" d="M1274.14,-127.78C1247.38,-115.54 1213.34,-99.98 1192.63,-90.52"/>
<polygon fill="#63b8ff" stroke="#63b8ff" points="1272.73,-130.98 1283.28,-131.95 1275.64,-124.61 1272.73,-130.98"/>
</a>
</g>
</g>
<!-- Node16 -->
<g id="Node000016" class="node">
<title>Node16</title>
<g id="a_Node000016"><a xlink:href="vfs__backend__registry_8c.html" target="_top" xlink:title=" ">
<polygon fill="white" stroke="#666666" points="1376.5,-96 1251.5,-96 1251.5,-66 1376.5,-66 1376.5,-96"/>
<text text-anchor="start" x="1259.5" y="-84" font-family="Helvetica,sans-Serif" font-size="10.00">src/fs/vfs/vfs_backend</text>
<text text-anchor="middle" x="1314" y="-73" font-family="Helvetica,sans-Serif" font-size="10.00">_registry.c</text>
</a>
</g>
</g>
<!-- Node1&#45;&gt;Node16 -->
<g id="edge16_Node000001_Node000016" class="edge">
<title>Node1&#45;&gt;Node16</title>
<g id="a_edge16_Node000001_Node000016"><a xlink:title=" ">
<path fill="none" stroke="#63b8ff" d="M1314,-121.54C1314,-112.96 1314,-103.61 1314,-96.16"/>
<polygon fill="#63b8ff" stroke="#63b8ff" points="1310.5,-121.8 1314,-131.8 1317.5,-121.8 1310.5,-121.8"/>
</a>
</g>
</g>
<!-- Node17 -->
<g id="Node000017" class="node">
<title>Node17</title>
<g id="a_Node000017"><a xlink:href="vfs__backend__registry__source_8c.html" target="_top" xlink:title=" ">
<polygon fill="white" stroke="#666666" points="1519.5,-96 1394.5,-96 1394.5,-66 1519.5,-66 1519.5,-96"/>
<text text-anchor="start" x="1402.5" y="-84" font-family="Helvetica,sans-Serif" font-size="10.00">src/fs/vfs/vfs_backend</text>
<text text-anchor="middle" x="1457" y="-73" font-family="Helvetica,sans-Serif" font-size="10.00">_registry_source.c</text>
</a>
</g>
</g>
<!-- Node1&#45;&gt;Node17 -->
<g id="edge17_Node000001_Node000017" class="edge">
<title>Node1&#45;&gt;Node17</title>
<g id="a_edge17_Node000001_Node000017"><a xlink:title=" ">
<path fill="none" stroke="#63b8ff" d="M1354.7,-127.78C1377.25,-117.69 1404.84,-105.34 1425.69,-96.01"/>
<polygon fill="#63b8ff" stroke="#63b8ff" points="1353.08,-124.68 1345.38,-131.95 1355.94,-131.06 1353.08,-124.68"/>
</a>
</g>
</g>
<!-- Node18 -->
<g id="Node000018" class="node">
<title>Node18</title>
<g id="a_Node000018"><a xlink:href="health_8c.html" target="_top" xlink:title=" ">
<polygon fill="white" stroke="#666666" points="1674.5,-96 1537.5,-96 1537.5,-66 1674.5,-66 1674.5,-96"/>
<text text-anchor="start" x="1545.5" y="-84" font-family="Helvetica,sans-Serif" font-size="10.00">src/observability/metrics</text>
<text text-anchor="middle" x="1606" y="-73" font-family="Helvetica,sans-Serif" font-size="10.00">/health.c</text>
</a>
</g>
</g>
<!-- Node1&#45;&gt;Node18 -->
<g id="edge18_Node000001_Node000018" class="edge">
<title>Node1&#45;&gt;Node18</title>
<g id="a_edge18_Node000001_Node000018"><a xlink:title=" ">
<path fill="none" stroke="#63b8ff" d="M1378.37,-131.89C1427.01,-121.23 1493.47,-106.66 1542.02,-96.02"/>
<polygon fill="#63b8ff" stroke="#63b8ff" points="1377.6,-128.48 1368.58,-134.04 1379.1,-135.31 1377.6,-128.48"/>
</a>
</g>
</g>
<!-- Node19 -->
<g id="Node000019" class="node">
<title>Node19</title>
<g id="a_Node000019"><a xlink:href="cvmfs__module__build_8c.html" target="_top" xlink:title=" ">
<polygon fill="white" stroke="#666666" points="1821.5,-96 1692.5,-96 1692.5,-66 1821.5,-66 1821.5,-96"/>
<text text-anchor="start" x="1700.5" y="-84" font-family="Helvetica,sans-Serif" font-size="10.00">src/protocols/cvmfs</text>
<text text-anchor="middle" x="1757" y="-73" font-family="Helvetica,sans-Serif" font-size="10.00">/cvmfs_module_build.c</text>
</a>
</g>
</g>
<!-- Node1&#45;&gt;Node19 -->
<g id="edge19_Node000001_Node000019" class="edge">
<title>Node1&#45;&gt;Node19</title>
<g id="a_edge19_Node000001_Node000019"><a xlink:title=" ">
<path fill="none" stroke="#63b8ff" d="M1378.78,-138.34C1452.77,-129.35 1577.38,-113.41 1684,-96 1686.67,-95.56 1689.4,-95.1 1692.15,-94.63"/>
<polygon fill="#63b8ff" stroke="#63b8ff" points="1378.19,-134.89 1368.68,-139.57 1379.03,-141.84 1378.19,-134.89"/>
</a>
</g>
</g>
<!-- Node20 -->
<g id="Node000020" class="node">
<title>Node20</title>
<g id="a_Node000020"><a xlink:href="cvmfs__module__georank_8c.html" target="_top" xlink:title=" ">
<polygon fill="white" stroke="#666666" points="1984.5,-96 1839.5,-96 1839.5,-66 1984.5,-66 1984.5,-96"/>
<text text-anchor="start" x="1847.5" y="-84" font-family="Helvetica,sans-Serif" font-size="10.00">src/protocols/cvmfs</text>
<text text-anchor="middle" x="1912" y="-73" font-family="Helvetica,sans-Serif" font-size="10.00">/cvmfs_module_georank.c</text>
</a>
</g>
</g>
<!-- Node1&#45;&gt;Node20 -->
<g id="edge20_Node000001_Node000020" class="edge">
<title>Node1&#45;&gt;Node20</title>
<g id="a_edge20_Node000001_Node000020"><a xlink:title=" ">
<path fill="none" stroke="#63b8ff" d="M1378.93,-141.29C1477.07,-133.81 1668.94,-117.81 1831,-96 1833.69,-95.64 1836.42,-95.25 1839.18,-94.85"/>
<polygon fill="#63b8ff" stroke="#63b8ff" points="1378.58,-137.8 1368.87,-142.05 1379.1,-144.78 1378.58,-137.8"/>
</a>
</g>
</g>
<!-- Node21 -->
<g id="Node000021" class="node">
<title>Node21</title>
<g id="a_Node000021"><a xlink:href="cvmfs__module__merge_8c.html" target="_top" xlink:title=" ">
<polygon fill="white" stroke="#666666" points="2139.5,-96 2002.5,-96 2002.5,-66 2139.5,-66 2139.5,-96"/>
<text text-anchor="start" x="2010.5" y="-84" font-family="Helvetica,sans-Serif" font-size="10.00">src/protocols/cvmfs</text>
<text text-anchor="middle" x="2071" y="-73" font-family="Helvetica,sans-Serif" font-size="10.00">/cvmfs_module_merge.c</text>
</a>
</g>
</g>
<!-- Node1&#45;&gt;Node21 -->
<g id="edge21_Node000001_Node000021" class="edge">
<title>Node1&#45;&gt;Node21</title>
<g id="a_edge21_Node000001_Node000021"><a xlink:title=" ">
<path fill="none" stroke="#63b8ff" d="M1379.07,-143.52C1500.4,-138.39 1769.22,-124.62 1994,-96 1996.7,-95.66 1999.44,-95.28 2002.21,-94.88"/>
<polygon fill="#63b8ff" stroke="#63b8ff" points="1378.69,-140.04 1368.85,-143.95 1378.98,-147.03 1378.69,-140.04"/>
</a>
</g>
</g>
<!-- Node22 -->
<g id="Node000022" class="node">
<title>Node22</title>
<g id="a_Node000022"><a xlink:href="protocols_2cvmfs_2module_8c.html" target="_top" xlink:title=" ">
<polygon fill="white" stroke="#666666" points="2270,-96 2158,-96 2158,-66 2270,-66 2270,-96"/>
<text text-anchor="start" x="2166" y="-84" font-family="Helvetica,sans-Serif" font-size="10.00">src/protocols/cvmfs</text>
<text text-anchor="middle" x="2214" y="-73" font-family="Helvetica,sans-Serif" font-size="10.00">/module.c</text>
</a>
</g>
</g>
<!-- Node1&#45;&gt;Node22 -->
<g id="edge22_Node000001_Node000022" class="edge">
<title>Node1&#45;&gt;Node22</title>
<g id="a_edge22_Node000001_Node000022"><a xlink:title=" ">
<path fill="none" stroke="#63b8ff" d="M1379.2,-145.47C1520.25,-143.58 1864.05,-134.99 2149,-96 2151.86,-95.61 2154.78,-95.16 2157.72,-94.67"/>
<polygon fill="#63b8ff" stroke="#63b8ff" points="1378.95,-141.97 1368.99,-145.6 1379.04,-148.97 1378.95,-141.97"/>
</a>
</g>
</g>
<!-- Node23 -->
<g id="Node000023" class="node">
<title>Node23</title>
<g id="a_Node000023"><a xlink:href="origin__probe_8c.html" target="_top" xlink:title=" ">
<polygon fill="white" stroke="#666666" points="2400,-96 2288,-96 2288,-66 2400,-66 2400,-96"/>
<text text-anchor="start" x="2296" y="-84" font-family="Helvetica,sans-Serif" font-size="10.00">src/protocols/cvmfs</text>
<text text-anchor="middle" x="2344" y="-73" font-family="Helvetica,sans-Serif" font-size="10.00">/origin_probe.c</text>
</a>
</g>
</g>
<!-- Node1&#45;&gt;Node23 -->
<g id="edge23_Node000001_Node000023" class="edge">
<title>Node1&#45;&gt;Node23</title>
<g id="a_edge23_Node000001_Node000023"><a xlink:title=" ">
<path fill="none" stroke="#63b8ff" d="M1379.04,-146.22C1535.04,-145.96 1942.49,-140.66 2279,-96 2281.86,-95.62 2284.78,-95.18 2287.73,-94.7"/>
<polygon fill="#63b8ff" stroke="#63b8ff" points="1378.69,-142.72 1368.69,-146.23 1378.7,-149.72 1378.69,-142.72"/>
</a>
</g>
</g>
<!-- Node24 -->
<g id="Node000024" class="node">
<title>Node24</title>
<g id="a_Node000024"><a xlink:href="http__cache__fill_8c.html" target="_top" xlink:title=" ">
<polygon fill="white" stroke="#666666" points="2533.5,-96 2418.5,-96 2418.5,-66 2533.5,-66 2533.5,-96"/>
<text text-anchor="start" x="2426.5" y="-84" font-family="Helvetica,sans-Serif" font-size="10.00">src/protocols/shared</text>
<text text-anchor="middle" x="2476" y="-73" font-family="Helvetica,sans-Serif" font-size="10.00">/http_cache_fill.c</text>
</a>
</g>
</g>
<!-- Node1&#45;&gt;Node24 -->
<g id="edge24_Node000001_Node000024" class="edge">
<title>Node1&#45;&gt;Node24</title>
<g id="a_edge24_Node000001_Node000024"><a xlink:title=" ">
<path fill="none" stroke="#63b8ff" d="M1378.69,-146.65C1548.41,-147.59 2020.23,-145.17 2409,-96 2412.07,-95.61 2415.2,-95.16 2418.36,-94.66"/>
<polygon fill="#63b8ff" stroke="#63b8ff" points="1378.69,-143.15 1368.67,-146.59 1378.65,-150.15 1378.69,-143.15"/>
</a>
</g>
</g>
<!-- Node25 -->
<g id="Node000025" class="node">
<title>Node25</title>
<g id="a_Node000025"><a xlink:href="http__cache__fill__registry_8c.html" target="_top" xlink:title=" ">
<polygon fill="white" stroke="#666666" points="2692,-96 2552,-96 2552,-66 2692,-66 2692,-96"/>
<text text-anchor="start" x="2560" y="-84" font-family="Helvetica,sans-Serif" font-size="10.00">src/protocols/shared</text>
<text text-anchor="middle" x="2622" y="-73" font-family="Helvetica,sans-Serif" font-size="10.00">/http_cache_fill_registry.c</text>
</a>
</g>
</g>
<!-- Node1&#45;&gt;Node25 -->
<g id="edge25_Node000001_Node000025" class="edge">
<title>Node1&#45;&gt;Node25</title>
<g id="a_edge25_Node000001_Node000025"><a xlink:title=" ">
<path fill="none" stroke="#63b8ff" d="M1378.72,-146.43C1561.94,-146.99 2099.71,-144.07 2543,-96 2545.91,-95.68 2548.87,-95.33 2551.86,-94.94"/>
<polygon fill="#63b8ff" stroke="#63b8ff" points="1378.72,-142.93 1368.71,-146.4 1378.7,-149.93 1378.72,-142.93"/>
</a>
</g>
</g>
<!-- Node26 -->
<g id="Node000026" class="node">
<title>Node26</title>
<g id="a_Node000026"><a xlink:href="http__cache__fill__worker_8c.html" target="_top" xlink:title=" ">
<polygon fill="white" stroke="#666666" points="2846,-96 2710,-96 2710,-66 2846,-66 2846,-96"/>
<text text-anchor="start" x="2718" y="-84" font-family="Helvetica,sans-Serif" font-size="10.00">src/protocols/shared</text>
<text text-anchor="middle" x="2778" y="-73" font-family="Helvetica,sans-Serif" font-size="10.00">/http_cache_fill_worker.c</text>
</a>
</g>
</g>
<!-- Node1&#45;&gt;Node26 -->
<g id="edge26_Node000001_Node000026" class="edge">
<title>Node1&#45;&gt;Node26</title>
<g id="a_edge26_Node000001_Node000026"><a xlink:title=" ">
<path fill="none" stroke="#63b8ff" d="M1378.92,-144.9C1616.69,-140.68 2439.73,-124.31 2701,-96 2703.84,-95.69 2706.73,-95.34 2709.64,-94.96"/>
<polygon fill="#63b8ff" stroke="#63b8ff" points="1378.64,-141.4 1368.7,-145.08 1378.76,-148.4 1378.64,-141.4"/>
</a>
</g>
</g>
<!-- Node9&#45;&gt;Node8 -->
<g id="edge9_Node000009_Node000008" class="edge">
<title>Node9&#45;&gt;Node8</title>
<g id="a_edge9_Node000009_Node000008"><a xlink:title=" ">
<path fill="none" stroke="#63b8ff" d="M859.96,-62.86C828.17,-52.58 788.25,-39.68 758.35,-30.01"/>
<polygon fill="#63b8ff" stroke="#63b8ff" points="858.96,-66.21 869.55,-65.95 861.11,-59.55 858.96,-66.21"/>
</a>
</g>
</g>
<!-- Node10 -->
<g id="Node000010" class="node">
<title>Node10</title>
<g id="a_Node000010"><a xlink:href="sd__http__introspect_8c.html" target="_top" xlink:title=" ">
<polygon fill="white" stroke="#666666" points="906,-30 788,-30 788,0 906,0 906,-30"/>
<text text-anchor="start" x="796" y="-18" font-family="Helvetica,sans-Serif" font-size="10.00">src/fs/backend/http</text>
<text text-anchor="middle" x="847" y="-7" font-family="Helvetica,sans-Serif" font-size="10.00">/sd_http_introspect.c</text>
</a>
</g>
</g>
<!-- Node9&#45;&gt;Node10 -->
<g id="edge10_Node000009_Node000010" class="edge">
<title>Node9&#45;&gt;Node10</title>
<g id="a_edge10_Node000009_Node000010"><a xlink:title=" ">
<path fill="none" stroke="#63b8ff" d="M890.98,-58.65C881.31,-49.27 870.23,-38.53 861.61,-30.16"/>
<polygon fill="#63b8ff" stroke="#63b8ff" points="888.74,-61.35 898.35,-65.8 893.61,-56.32 888.74,-61.35"/>
</a>
</g>
</g>
<!-- Node11 -->
<g id="Node000011" class="node">
<title>Node11</title>
<g id="a_Node000011"><a xlink:href="sd__http__read_8c.html" target="_top" xlink:title=" ">
<polygon fill="white" stroke="#666666" points="1033.5,-30 924.5,-30 924.5,0 1033.5,0 1033.5,-30"/>
<text text-anchor="start" x="932.5" y="-18" font-family="Helvetica,sans-Serif" font-size="10.00">src/fs/backend/http</text>
<text text-anchor="middle" x="979" y="-7" font-family="Helvetica,sans-Serif" font-size="10.00">/sd_http_read.c</text>
</a>
</g>
</g>
<!-- Node9&#45;&gt;Node11 -->
<g id="edge11_Node000009_Node000011" class="edge">
<title>Node9&#45;&gt;Node11</title>
<g id="a_edge11_Node000009_Node000011"><a xlink:title=" ">
<path fill="none" stroke="#63b8ff" d="M935.02,-58.65C944.69,-49.27 955.77,-38.53 964.39,-30.16"/>
<polygon fill="#63b8ff" stroke="#63b8ff" points="932.39,-56.32 927.65,-65.8 937.26,-61.35 932.39,-56.32"/>
</a>
</g>
</g>
<!-- Node12 -->
<g id="Node000012" class="node">
<title>Node12</title>
<g id="a_Node000012"><a xlink:href="sd__http__select_8c.html" target="_top" xlink:title=" ">
<polygon fill="white" stroke="#666666" points="1160.5,-30 1051.5,-30 1051.5,0 1160.5,0 1160.5,-30"/>
<text text-anchor="start" x="1059.5" y="-18" font-family="Helvetica,sans-Serif" font-size="10.00">src/fs/backend/http</text>
<text text-anchor="middle" x="1106" y="-7" font-family="Helvetica,sans-Serif" font-size="10.00">/sd_http_select.c</text>
</a>
</g>
</g>
<!-- Node9&#45;&gt;Node12 -->
<g id="edge12_Node000009_Node000012" class="edge">
<title>Node9&#45;&gt;Node12</title>
<g id="a_edge12_Node000009_Node000012"><a xlink:title=" ">
<path fill="none" stroke="#63b8ff" d="M965.1,-62.72C996.02,-52.47 1034.73,-39.63 1063.74,-30.01"/>
<polygon fill="#63b8ff" stroke="#63b8ff" points="963.74,-59.49 955.35,-65.95 965.95,-66.13 963.74,-59.49"/>
</a>
</g>
</g>
<!-- Node13 -->
<g id="Node000013" class="node">
<title>Node13</title>
<g id="a_Node000013"><a xlink:href="sd__http__write_8c.html" target="_top" xlink:title=" ">
<polygon fill="white" stroke="#666666" points="1287.5,-30 1178.5,-30 1178.5,0 1287.5,0 1287.5,-30"/>
<text text-anchor="start" x="1186.5" y="-18" font-family="Helvetica,sans-Serif" font-size="10.00">src/fs/backend/http</text>
<text text-anchor="middle" x="1233" y="-7" font-family="Helvetica,sans-Serif" font-size="10.00">/sd_http_write.c</text>
</a>
</g>
</g>
<!-- Node9&#45;&gt;Node13 -->
<g id="edge13_Node000009_Node000013" class="edge">
<title>Node9&#45;&gt;Node13</title>
<g id="a_edge13_Node000009_Node000013"><a xlink:title=" ">
<path fill="none" stroke="#63b8ff" d="M977.78,-65.88C1064.19,-48.57 1087.6,-46.84 1170,-30 1172.74,-29.44 1175.55,-28.85 1178.39,-28.26"/>
<polygon fill="#63b8ff" stroke="#63b8ff" points="976.9,-62.49 967.79,-67.9 978.28,-69.35 976.9,-62.49"/>
</a>
</g>
</g>
</g>
</svg>
