<?xml version="1.0" encoding="UTF-8" standalone="no"?>
<!DOCTYPE svg PUBLIC "-//W3C//DTD SVG 1.1//EN"
 "http://www.w3.org/Graphics/SVG/1.1/DTD/svg11.dtd">
<!-- Generated by graphviz version 2.43.0 (0)
 -->
<!-- Title: src/fs/backend/s3/sd_s3.c Pages: 1 -->
<svg width="1159pt" height="247pt"
 viewBox="0.00 0.00 1158.68 247.00" xmlns="http://www.w3.org/2000/svg" xmlns:xlink="http://www.w3.org/1999/xlink">
<g id="graph0" class="graph" transform="scale(1 1) rotate(0) translate(4 243)">
<title>src/fs/backend/s3/sd_s3.c</title>
<!-- Node1 -->
<g id="Node000001" class="node">
<title>Node1</title>
<g id="a_Node000001"><a xlink:title=" ">
<polygon fill="#999999" stroke="#666666" points="750.68,-239 610.68,-239 610.68,-220 750.68,-220 750.68,-239"/>
<text text-anchor="middle" x="680.68" y="-227" font-family="Helvetica,sans-Serif" font-size="10.00">src/fs/backend/s3/sd_s3.c</text>
</a>
</g>
</g>
<!-- Node2 -->
<g id="Node000002" class="node">
<title>Node2</title>
<g id="a_Node000002"><a xlink:href="sd__s3_8h.html" target="_top" xlink:title=" ">
<polygon fill="white" stroke="#666666" points="343.18,-129 290.18,-129 290.18,-110 343.18,-110 343.18,-129"/>
<text text-anchor="middle" x="316.68" y="-117" font-family="Helvetica,sans-Serif" font-size="10.00">sd_s3.h</text>
</a>
</g>
</g>
<!-- Node1&#45;&gt;Node2 -->
<g id="edge1_Node000001_Node000002" class="edge">
<title>Node1&#45;&gt;Node2</title>
<g id="a_edge1_Node000001_Node000002"><a xlink:title=" ">
<path fill="none" stroke="#63b8ff" d="M610.63,-228.22C521.96,-226.42 375.89,-218.16 335.68,-184 322.81,-173.07 318.45,-153.8 317.07,-139.35"/>
<polygon fill="#63b8ff" stroke="#63b8ff" points="320.55,-138.83 316.5,-129.04 313.56,-139.22 320.55,-138.83"/>
</a>
</g>
</g>
<!-- Node7 -->
<g id="Node000007" class="node">
<title>Node7</title>
<g id="a_Node000007"><a xlink:title=" ">
<polygon fill="#e0e0e0" stroke="#999999" points="612.18,-74 559.18,-74 559.18,-55 612.18,-55 612.18,-74"/>
<text text-anchor="middle" x="585.68" y="-62" font-family="Helvetica,sans-Serif" font-size="10.00">stdint.h</text>
</a>
</g>
</g>
<!-- Node1&#45;&gt;Node7 -->
<g id="edge33_Node000001_Node000007" class="edge">
<title>Node1&#45;&gt;Node7</title>
<g id="a_edge33_Node000001_Node000007"><a xlink:title=" ">
<path fill="none" stroke="#63b8ff" d="M672.29,-219.99C656.75,-203.74 623.46,-166.54 605.68,-129 598.87,-114.62 593.6,-97.34 590.18,-84.44"/>
<polygon fill="#63b8ff" stroke="#63b8ff" points="593.49,-83.26 587.66,-74.41 586.7,-84.97 593.49,-83.26"/>
</a>
</g>
</g>
<!-- Node8 -->
<g id="Node000008" class="node">
<title>Node8</title>
<g id="a_Node000008"><a xlink:href="sd__s3__internal_8h.html" target="_top" xlink:title=" ">
<polygon fill="white" stroke="#666666" points="440.68,-184 344.68,-184 344.68,-165 440.68,-165 440.68,-184"/>
<text text-anchor="middle" x="392.68" y="-172" font-family="Helvetica,sans-Serif" font-size="10.00">sd_s3_internal.h</text>
</a>
</g>
</g>
<!-- Node1&#45;&gt;Node8 -->
<g id="edge11_Node000001_Node000008" class="edge">
<title>Node1&#45;&gt;Node8</title>
<g id="a_edge11_Node000001_Node000008"><a xlink:title=" ">
<path fill="none" stroke="#63b8ff" d="M634.41,-219.98C584.06,-210.72 503.55,-195.9 449.43,-185.94"/>
<polygon fill="#63b8ff" stroke="#63b8ff" points="449.78,-182.45 439.31,-184.08 448.51,-189.33 449.78,-182.45"/>
</a>
</g>
</g>
<!-- Node9 -->
<g id="Node000009" class="node">
<title>Node9</title>
<g id="a_Node000009"><a xlink:href="crypto_8h.html" target="_top" xlink:title=" ">
<polygon fill="white" stroke="#666666" points="519.68,-129 399.68,-129 399.68,-110 519.68,-110 519.68,-129"/>
<text text-anchor="middle" x="459.68" y="-117" font-family="Helvetica,sans-Serif" font-size="10.00">core/compat/crypto.h</text>
</a>
</g>
</g>
<!-- Node1&#45;&gt;Node9 -->
<g id="edge16_Node000001_Node000009" class="edge">
<title>Node1&#45;&gt;Node9</title>
<g id="a_edge16_Node000001_Node000009"><a xlink:title=" ">
<path fill="none" stroke="#63b8ff" d="M657.34,-219.97C635,-211.57 600.55,-198.01 571.68,-184 539.83,-168.55 504.52,-147.91 482.22,-134.42"/>
<polygon fill="#63b8ff" stroke="#63b8ff" points="483.87,-131.33 473.51,-129.11 480.23,-137.3 483.87,-131.33"/>
</a>
</g>
</g>
<!-- Node10 -->
<g id="Node000010" class="node">
<title>Node10</title>
<g id="a_Node000010"><a xlink:href="hex_8h.html" target="_top" xlink:title=" ">
<polygon fill="white" stroke="#666666" points="721.18,-129 614.18,-129 614.18,-110 721.18,-110 721.18,-129"/>
<text text-anchor="middle" x="667.68" y="-117" font-family="Helvetica,sans-Serif" font-size="10.00">core/compat/hex.h</text>
</a>
</g>
</g>
<!-- Node1&#45;&gt;Node10 -->
<g id="edge19_Node000001_Node000010" class="edge">
<title>Node1&#45;&gt;Node10</title>
<g id="a_edge19_Node000001_Node000010"><a xlink:title=" ">
<path fill="none" stroke="#63b8ff" d="M671.66,-219.96C663.61,-211.66 652.38,-198.25 647.68,-184 642.54,-168.43 649.23,-150.62 656.23,-137.83"/>
<polygon fill="#63b8ff" stroke="#63b8ff" points="659.29,-139.53 661.44,-129.15 653.29,-135.92 659.29,-139.53"/>
</a>
</g>
</g>
<!-- Node11 -->
<g id="Node000011" class="node">
<title>Node11</title>
<g id="a_Node000011"><a xlink:href="sigv4_8h.html" target="_top" xlink:title=" ">
<polygon fill="white" stroke="#666666" points="855.68,-129 739.68,-129 739.68,-110 855.68,-110 855.68,-129"/>
<text text-anchor="middle" x="797.68" y="-117" font-family="Helvetica,sans-Serif" font-size="10.00">core/compat/sigv4.h</text>
</a>
</g>
</g>
<!-- Node1&#45;&gt;Node11 -->
<g id="edge22_Node000001_Node000011" class="edge">
<title>Node1&#45;&gt;Node11</title>
<g id="a_edge22_Node000001_Node000011"><a xlink:title=" ">
<path fill="none" stroke="#63b8ff" d="M678.69,-219.71C676.24,-206.46 673.73,-181.2 685.68,-165 697.52,-148.94 716.09,-138.67 734.72,-132.11"/>
<polygon fill="#63b8ff" stroke="#63b8ff" points="735.98,-135.38 744.44,-129 733.85,-128.71 735.98,-135.38"/>
</a>
</g>
</g>
<!-- Node12 -->
<g id="Node000012" class="node">
<title>Node12</title>
<g id="a_Node000012"><a xlink:href="core_2compat_2uri_8h.html" target="_top" xlink:title=" ">
<polygon fill="white" stroke="#666666" points="117.68,-74 15.68,-74 15.68,-55 117.68,-55 117.68,-74"/>
<text text-anchor="middle" x="66.68" y="-62" font-family="Helvetica,sans-Serif" font-size="10.00">core/compat/uri.h</text>
</a>
</g>
</g>
<!-- Node1&#45;&gt;Node12 -->
<g id="edge25_Node000001_Node000012" class="edge">
<title>Node1&#45;&gt;Node12</title>
<g id="a_edge25_Node000001_Node000012"><a xlink:title=" ">
<path fill="none" stroke="#63b8ff" d="M610.51,-226.37C536.8,-222.64 418.14,-212.35 319.68,-184 230.23,-158.24 132.7,-104.51 89.48,-79.22"/>
<polygon fill="#63b8ff" stroke="#63b8ff" points="91.26,-76.2 80.87,-74.13 87.7,-82.23 91.26,-76.2"/>
</a>
</g>
</g>
<!-- Node13 -->
<g id="Node000013" class="node">
<title>Node13</title>
<g id="a_Node000013"><a xlink:href="host__format_8h.html" target="_top" xlink:title=" ">
<polygon fill="white" stroke="#666666" points="1023.18,-129 874.18,-129 874.18,-110 1023.18,-110 1023.18,-129"/>
<text text-anchor="middle" x="948.68" y="-117" font-family="Helvetica,sans-Serif" font-size="10.00">core/compat/host_format.h</text>
</a>
</g>
</g>
<!-- Node1&#45;&gt;Node13 -->
<g id="edge28_Node000001_Node000013" class="edge">
<title>Node1&#45;&gt;Node13</title>
<g id="a_edge28_Node000001_Node000013"><a xlink:title=" ">
<path fill="none" stroke="#63b8ff" d="M683.39,-219.93C688.27,-206.02 699.9,-178.71 719.68,-165 742.87,-148.93 808.65,-137.17 863.79,-129.79"/>
<polygon fill="#63b8ff" stroke="#63b8ff" points="864.49,-133.23 873.95,-128.46 863.58,-126.29 864.49,-133.23"/>
</a>
</g>
</g>
<!-- Node14 -->
<g id="Node000014" class="node">
<title>Node14</title>
<g id="a_Node000014"><a xlink:title=" ">
<polygon fill="#e0e0e0" stroke="#999999" points="779.18,-184 728.18,-184 728.18,-165 779.18,-165 779.18,-184"/>
<text text-anchor="middle" x="753.68" y="-172" font-family="Helvetica,sans-Serif" font-size="10.00">errno.h</text>
</a>
</g>
</g>
<!-- Node1&#45;&gt;Node14 -->
<g id="edge31_Node000001_Node000014" class="edge">
<title>Node1&#45;&gt;Node14</title>
<g id="a_edge31_Node000001_Node000014"><a xlink:title=" ">
<path fill="none" stroke="#63b8ff" d="M692.41,-219.98C703.41,-212 720.1,-199.88 733.28,-190.31"/>
<polygon fill="#63b8ff" stroke="#63b8ff" points="735.7,-192.88 741.74,-184.17 731.59,-187.21 735.7,-192.88"/>
</a>
</g>
</g>
<!-- Node15 -->
<g id="Node000015" class="node">
<title>Node15</title>
<g id="a_Node000015"><a xlink:title=" ">
<polygon fill="#e0e0e0" stroke="#999999" points="853.68,-184 797.68,-184 797.68,-165 853.68,-165 853.68,-184"/>
<text text-anchor="middle" x="825.68" y="-172" font-family="Helvetica,sans-Serif" font-size="10.00">stdarg.h</text>
</a>
</g>
</g>
<!-- Node1&#45;&gt;Node15 -->
<g id="edge32_Node000001_Node000015" class="edge">
<title>Node1&#45;&gt;Node15</title>
<g id="a_edge32_Node000001_Node000015"><a xlink:title=" ">
<path fill="none" stroke="#63b8ff" d="M703.97,-219.98C727.93,-211.23 765.46,-197.51 792.51,-187.62"/>
<polygon fill="#63b8ff" stroke="#63b8ff" points="793.77,-190.89 801.96,-184.17 791.36,-184.32 793.77,-190.89"/>
</a>
</g>
</g>
<!-- Node16 -->
<g id="Node000016" class="node">
<title>Node16</title>
<g id="a_Node000016"><a xlink:title=" ">
<polygon fill="#e0e0e0" stroke="#999999" points="921.68,-184 871.68,-184 871.68,-165 921.68,-165 921.68,-184"/>
<text text-anchor="middle" x="896.68" y="-172" font-family="Helvetica,sans-Serif" font-size="10.00">stdio.h</text>
</a>
</g>
</g>
<!-- Node1&#45;&gt;Node16 -->
<g id="edge34_Node000001_Node000016" class="edge">
<title>Node1&#45;&gt;Node16</title>
<g id="a_edge34_Node000001_Node000016"><a xlink:title=" ">
<path fill="none" stroke="#63b8ff" d="M715.92,-219.94C750.59,-211.51 805.28,-198.17 861.64,-184.25"/>
<polygon fill="#63b8ff" stroke="#63b8ff" points="862.56,-187.62 871.43,-181.83 860.88,-180.83 862.56,-187.62"/>
</a>
</g>
</g>
<!-- Node17 -->
<g id="Node000017" class="node">
<title>Node17</title>
<g id="a_Node000017"><a xlink:title=" ">
<polygon fill="#e0e0e0" stroke="#999999" points="993.18,-184 940.18,-184 940.18,-165 993.18,-165 993.18,-184"/>
<text text-anchor="middle" x="966.68" y="-172" font-family="Helvetica,sans-Serif" font-size="10.00">stdlib.h</text>
</a>
</g>
</g>
<!-- Node1&#45;&gt;Node17 -->
<g id="edge35_Node000001_Node000017" class="edge">
<title>Node1&#45;&gt;Node17</title>
<g id="a_edge35_Node000001_Node000017"><a xlink:title=" ">
<path fill="none" stroke="#63b8ff" d="M733.51,-219.97C782.05,-211.94 856.19,-199.18 930.04,-184.03"/>
<polygon fill="#63b8ff" stroke="#63b8ff" points="930.89,-187.43 939.98,-181.98 929.48,-180.57 930.89,-187.43"/>
</a>
</g>
</g>
<!-- Node18 -->
<g id="Node000018" class="node">
<title>Node18</title>
<g id="a_Node000018"><a xlink:title=" ">
<polygon fill="#e0e0e0" stroke="#999999" points="1064.18,-184 1011.18,-184 1011.18,-165 1064.18,-165 1064.18,-184"/>
<text text-anchor="middle" x="1037.68" y="-172" font-family="Helvetica,sans-Serif" font-size="10.00">string.h</text>
</a>
</g>
</g>
<!-- Node1&#45;&gt;Node18 -->
<g id="edge36_Node000001_Node000018" class="edge">
<title>Node1&#45;&gt;Node18</title>
<g id="a_edge36_Node000001_Node000018"><a xlink:title=" ">
<path fill="none" stroke="#63b8ff" d="M750.73,-220.88C813.88,-213.55 909.46,-201.28 1001,-184.17"/>
<polygon fill="#63b8ff" stroke="#63b8ff" points="1001.81,-187.57 1010.98,-182.28 1000.51,-180.7 1001.81,-187.57"/>
</a>
</g>
</g>
<!-- Node19 -->
<g id="Node000019" class="node">
<title>Node19</title>
<g id="a_Node000019"><a xlink:title=" ">
<polygon fill="#e0e0e0" stroke="#999999" points="1150.68,-184 1082.68,-184 1082.68,-165 1150.68,-165 1150.68,-184"/>
<text text-anchor="middle" x="1116.68" y="-172" font-family="Helvetica,sans-Serif" font-size="10.00">sys/time.h</text>
</a>
</g>
</g>
<!-- Node1&#45;&gt;Node19 -->
<g id="edge37_Node000001_Node000019" class="edge">
<title>Node1&#45;&gt;Node19</title>
<g id="a_edge37_Node000001_Node000019"><a xlink:title=" ">
<path fill="none" stroke="#63b8ff" d="M750.84,-222.31C827.48,-215.16 954.05,-202.19 1072.49,-184.07"/>
<polygon fill="#63b8ff" stroke="#63b8ff" points="1073.11,-187.52 1082.45,-182.53 1072.04,-180.6 1073.11,-187.52"/>
</a>
</g>
</g>
<!-- Node3 -->
<g id="Node000003" class="node">
<title>Node3</title>
<g id="a_Node000003"><a xlink:href="sd__s3__transport_8h.html" target="_top" xlink:title=" ">
<polygon fill="white" stroke="#666666" points="239.18,-74 136.18,-74 136.18,-55 239.18,-55 239.18,-74"/>
<text text-anchor="middle" x="187.68" y="-62" font-family="Helvetica,sans-Serif" font-size="10.00">sd_s3_transport.h</text>
</a>
</g>
</g>
<!-- Node2&#45;&gt;Node3 -->
<g id="edge2_Node000002_Node000003" class="edge">
<title>Node2&#45;&gt;Node3</title>
<g id="a_edge2_Node000002_Node000003"><a xlink:title=" ">
<path fill="none" stroke="#63b8ff" d="M295.95,-109.98C274.92,-101.34 242.13,-87.87 218.14,-78.02"/>
<polygon fill="#63b8ff" stroke="#63b8ff" points="219.36,-74.73 208.78,-74.17 216.7,-81.21 219.36,-74.73"/>
</a>
</g>
</g>
<!-- Node4 -->
<g id="Node000004" class="node">
<title>Node4</title>
<g id="a_Node000004"><a xlink:title=" ">
<polygon fill="#e0e0e0" stroke="#999999" points="503.68,-19 447.68,-19 447.68,0 503.68,0 503.68,-19"/>
<text text-anchor="middle" x="475.68" y="-7" font-family="Helvetica,sans-Serif" font-size="10.00">stddef.h</text>
</a>
</g>
</g>
<!-- Node2&#45;&gt;Node4 -->
<g id="edge8_Node000002_Node000004" class="edge">
<title>Node2&#45;&gt;Node4</title>
<g id="a_edge8_Node000002_Node000004"><a xlink:title=" ">
<path fill="none" stroke="#63b8ff" d="M343.44,-110.36C365.03,-103 395.49,-90.74 418.68,-74 436.61,-61.05 453.01,-41.61 463.57,-27.65"/>
<polygon fill="#63b8ff" stroke="#63b8ff" points="466.53,-29.53 469.62,-19.39 460.89,-25.39 466.53,-29.53"/>
</a>
</g>
</g>
<!-- Node5 -->
<g id="Node000005" class="node">
<title>Node5</title>
<g id="a_Node000005"><a xlink:title=" ">
<polygon fill="#e0e0e0" stroke="#999999" points="163.68,-19 91.68,-19 91.68,0 163.68,0 163.68,-19"/>
<text text-anchor="middle" x="127.68" y="-7" font-family="Helvetica,sans-Serif" font-size="10.00">sys/types.h</text>
</a>
</g>
</g>
<!-- Node2&#45;&gt;Node5 -->
<g id="edge10_Node000002_Node000005" class="edge">
<title>Node2&#45;&gt;Node5</title>
<g id="a_edge10_Node000002_Node000005"><a xlink:title=" ">
<path fill="none" stroke="#63b8ff" d="M290.02,-118.91C221.74,-119.35 43.36,-116.32 6.68,-74 -18.69,-44.73 37.52,-26.96 81.57,-17.94"/>
<polygon fill="#63b8ff" stroke="#63b8ff" points="82.45,-21.33 91.6,-15.98 81.12,-14.46 82.45,-21.33"/>
</a>
</g>
</g>
<!-- Node6 -->
<g id="Node000006" class="node">
<title>Node6</title>
<g id="a_Node000006"><a xlink:href="meta__advisory_8h.html" target="_top" xlink:title=" ">
<polygon fill="white" stroke="#666666" points="409.68,-74 257.68,-74 257.68,-55 409.68,-55 409.68,-74"/>
<text text-anchor="middle" x="333.68" y="-62" font-family="Helvetica,sans-Serif" font-size="10.00">fs/backend/meta_advisory.h</text>
</a>
</g>
</g>
<!-- Node2&#45;&gt;Node6 -->
<g id="edge5_Node000002_Node000006" class="edge">
<title>Node2&#45;&gt;Node6</title>
<g id="a_edge5_Node000002_Node000006"><a xlink:title=" ">
<path fill="none" stroke="#63b8ff" d="M319.48,-109.75C321.74,-102.72 324.98,-92.62 327.79,-83.84"/>
<polygon fill="#63b8ff" stroke="#63b8ff" points="331.2,-84.68 330.92,-74.09 324.54,-82.54 331.2,-84.68"/>
</a>
</g>
</g>
<!-- Node2&#45;&gt;Node7 -->
<g id="edge9_Node000002_Node000007" class="edge">
<title>Node2&#45;&gt;Node7</title>
<g id="a_edge9_Node000002_Node000007"><a xlink:title=" ">
<path fill="none" stroke="#63b8ff" d="M343.45,-113.22C391.89,-103.68 494.13,-83.54 549.02,-72.72"/>
<polygon fill="#63b8ff" stroke="#63b8ff" points="549.87,-76.12 559.01,-70.75 548.52,-69.25 549.87,-76.12"/>
</a>
</g>
</g>
<!-- Node3&#45;&gt;Node4 -->
<g id="edge3_Node000003_Node000004" class="edge">
<title>Node3&#45;&gt;Node4</title>
<g id="a_edge3_Node000003_Node000004"><a xlink:title=" ">
<path fill="none" stroke="#63b8ff" d="M233.95,-54.98C290.45,-44.59 384.94,-27.2 437.49,-17.53"/>
<polygon fill="#63b8ff" stroke="#63b8ff" points="438.22,-20.95 447.42,-15.7 436.95,-14.07 438.22,-20.95"/>
</a>
</g>
</g>
<!-- Node3&#45;&gt;Node5 -->
<g id="edge4_Node000003_Node000005" class="edge">
<title>Node3&#45;&gt;Node5</title>
<g id="a_edge4_Node000003_Node000005"><a xlink:title=" ">
<path fill="none" stroke="#63b8ff" d="M178.04,-54.98C169.17,-47.15 155.8,-35.34 145.07,-25.86"/>
<polygon fill="#63b8ff" stroke="#63b8ff" points="147.3,-23.17 137.49,-19.17 142.67,-28.41 147.3,-23.17"/>
</a>
</g>
</g>
<!-- Node6&#45;&gt;Node4 -->
<g id="edge7_Node000006_Node000004" class="edge">
<title>Node6&#45;&gt;Node4</title>
<g id="a_edge7_Node000006_Node000004"><a xlink:title=" ">
<path fill="none" stroke="#63b8ff" d="M356.49,-54.98C379.85,-46.27 416.38,-32.63 442.85,-22.75"/>
<polygon fill="#63b8ff" stroke="#63b8ff" points="444.3,-25.95 452.45,-19.17 441.85,-19.39 444.3,-25.95"/>
</a>
</g>
</g>
<!-- Node6&#45;&gt;Node5 -->
<g id="edge6_Node000006_Node000005" class="edge">
<title>Node6&#45;&gt;Node5</title>
<g id="a_edge6_Node000006_Node000005"><a xlink:title=" ">
<path fill="none" stroke="#63b8ff" d="M300.58,-54.98C265.4,-45.93 209.61,-31.58 170.96,-21.64"/>
<polygon fill="#63b8ff" stroke="#63b8ff" points="171.59,-18.18 161.03,-19.08 169.85,-24.96 171.59,-18.18"/>
</a>
</g>
</g>
<!-- Node8&#45;&gt;Node2 -->
<g id="edge12_Node000008_Node000002" class="edge">
<title>Node8&#45;&gt;Node2</title>
<g id="a_edge12_Node000008_Node000002"><a xlink:title=" ">
<path fill="none" stroke="#63b8ff" d="M380.47,-164.98C368.9,-156.92 351.3,-144.65 337.52,-135.03"/>
<polygon fill="#63b8ff" stroke="#63b8ff" points="339.31,-132.02 329.11,-129.17 335.31,-137.76 339.31,-132.02"/>
</a>
</g>
</g>
<!-- Node8&#45;&gt;Node3 -->
<g id="edge13_Node000008_Node000003" class="edge">
<title>Node8&#45;&gt;Node3</title>
<g id="a_edge13_Node000008_Node000003"><a xlink:title=" ">
<path fill="none" stroke="#63b8ff" d="M366.6,-164.98C343.43,-156.99 308.94,-144.03 280.68,-129 253.68,-114.65 224.96,-94.13 206.69,-80.34"/>
<polygon fill="#63b8ff" stroke="#63b8ff" points="208.69,-77.46 198.62,-74.16 204.44,-83.02 208.69,-77.46"/>
</a>
</g>
</g>
<!-- Node8&#45;&gt;Node4 -->
<g id="edge15_Node000008_Node000004" class="edge">
<title>Node8&#45;&gt;Node4</title>
<g id="a_edge15_Node000008_Node000004"><a xlink:title=" ">
<path fill="none" stroke="#63b8ff" d="M389.82,-164.68C386.2,-151.84 381.46,-127.59 390.68,-110 403.72,-85.1 424.09,-95.09 442.68,-74 454.47,-60.61 463.42,-42.26 469,-28.73"/>
<polygon fill="#63b8ff" stroke="#63b8ff" points="472.38,-29.69 472.75,-19.1 465.86,-27.15 472.38,-29.69"/>
</a>
</g>
</g>
<!-- Node8&#45;&gt;Node7 -->
<g id="edge14_Node000008_Node000007" class="edge">
<title>Node8&#45;&gt;Node7</title>
<g id="a_edge14_Node000008_Node000007"><a xlink:title=" ">
<path fill="none" stroke="#63b8ff" d="M437.84,-164.97C465.64,-158.27 501.1,-146.98 528.68,-129 547.41,-116.79 563.87,-96.9 574.22,-82.64"/>
<polygon fill="#63b8ff" stroke="#63b8ff" points="577.25,-84.41 580.11,-74.21 571.51,-80.4 577.25,-84.41"/>
</a>
</g>
</g>
<!-- Node9&#45;&gt;Node4 -->
<g id="edge17_Node000009_Node000004" class="edge">
<title>Node9&#45;&gt;Node4</title>
<g id="a_edge17_Node000009_Node000004"><a xlink:title=" ">
<path fill="none" stroke="#63b8ff" d="M467.89,-109.8C475.22,-101.38 485.43,-87.9 489.68,-74 494.27,-58.99 489.74,-41.55 484.64,-28.75"/>
<polygon fill="#63b8ff" stroke="#63b8ff" points="487.68,-26.96 480.42,-19.24 481.28,-29.8 487.68,-26.96"/>
</a>
</g>
</g>
<!-- Node9&#45;&gt;Node7 -->
<g id="edge18_Node000009_Node000007" class="edge">
<title>Node9&#45;&gt;Node7</title>
<g id="a_edge18_Node000009_Node000007"><a xlink:title=" ">
<path fill="none" stroke="#63b8ff" d="M479.92,-109.98C500.37,-101.38 532.21,-87.99 555.61,-78.15"/>
<polygon fill="#63b8ff" stroke="#63b8ff" points="557.2,-81.27 565.07,-74.17 554.49,-74.82 557.2,-81.27"/>
</a>
</g>
</g>
<!-- Node10&#45;&gt;Node4 -->
<g id="edge20_Node000010_Node000004" class="edge">
<title>Node10&#45;&gt;Node4</title>
<g id="a_edge20_Node000010_Node000004"><a xlink:title=" ">
<path fill="none" stroke="#63b8ff" d="M663.65,-109.71C656.91,-95.99 642.07,-69.55 621.68,-55 589.51,-32.04 545.27,-20.73 513.94,-15.29"/>
<polygon fill="#63b8ff" stroke="#63b8ff" points="514.28,-11.8 503.85,-13.66 513.16,-18.71 514.28,-11.8"/>
</a>
</g>
</g>
<!-- Node10&#45;&gt;Node7 -->
<g id="edge21_Node000010_Node000007" class="edge">
<title>Node10&#45;&gt;Node7</title>
<g id="a_edge21_Node000010_Node000007"><a xlink:title=" ">
<path fill="none" stroke="#63b8ff" d="M654.5,-109.98C641.91,-101.84 622.67,-89.41 607.74,-79.76"/>
<polygon fill="#63b8ff" stroke="#63b8ff" points="609.39,-76.66 599.09,-74.17 605.59,-82.54 609.39,-76.66"/>
</a>
</g>
</g>
<!-- Node11&#45;&gt;Node4 -->
<g id="edge23_Node000011_Node000004" class="edge">
<title>Node11&#45;&gt;Node4</title>
<g id="a_edge23_Node000011_Node000004"><a xlink:title=" ">
<path fill="none" stroke="#63b8ff" d="M779.15,-109.84C750.68,-96.77 694.27,-71.73 644.68,-55 600.52,-40.1 548.51,-27.06 513.96,-19.01"/>
<polygon fill="#63b8ff" stroke="#63b8ff" points="514.36,-15.51 503.83,-16.68 512.79,-22.33 514.36,-15.51"/>
</a>
</g>
</g>
<!-- Node11&#45;&gt;Node7 -->
<g id="edge24_Node000011_Node000007" class="edge">
<title>Node11&#45;&gt;Node7</title>
<g id="a_edge24_Node000011_Node000007"><a xlink:title=" ">
<path fill="none" stroke="#63b8ff" d="M763.62,-109.98C724.85,-100.29 661.79,-84.53 622.08,-74.6"/>
<polygon fill="#63b8ff" stroke="#63b8ff" points="622.82,-71.18 612.27,-72.15 621.13,-77.97 622.82,-71.18"/>
</a>
</g>
</g>
<!-- Node12&#45;&gt;Node4 -->
<g id="edge26_Node000012_Node000004" class="edge">
<title>Node12&#45;&gt;Node4</title>
<g id="a_edge26_Node000012_Node000004"><a xlink:title=" ">
<path fill="none" stroke="#63b8ff" d="M117.73,-56.22C120.76,-55.8 123.76,-55.39 126.68,-55 239.64,-39.8 373.36,-23.11 437.55,-15.18"/>
<polygon fill="#63b8ff" stroke="#63b8ff" points="438.12,-18.64 447.61,-13.94 437.26,-11.69 438.12,-18.64"/>
</a>
</g>
</g>
<!-- Node12&#45;&gt;Node5 -->
<g id="edge27_Node000012_Node000005" class="edge">
<title>Node12&#45;&gt;Node5</title>
<g id="a_edge27_Node000012_Node000005"><a xlink:title=" ">
<path fill="none" stroke="#63b8ff" d="M76.48,-54.98C85.5,-47.15 99.08,-35.34 110,-25.86"/>
<polygon fill="#63b8ff" stroke="#63b8ff" points="112.45,-28.37 117.7,-19.17 107.85,-23.09 112.45,-28.37"/>
</a>
</g>
</g>
<!-- Node13&#45;&gt;Node4 -->
<g id="edge29_Node000013_Node000004" class="edge">
<title>Node13&#45;&gt;Node4</title>
<g id="a_edge29_Node000013_Node000004"><a xlink:title=" ">
<path fill="none" stroke="#63b8ff" d="M913.74,-109.95C862.79,-97.53 765.08,-73.92 681.68,-55 623.13,-41.71 555,-27.18 513.63,-18.45"/>
<polygon fill="#63b8ff" stroke="#63b8ff" points="514.21,-15 503.71,-16.36 512.77,-21.85 514.21,-15"/>
</a>
</g>
</g>
<!-- Node13&#45;&gt;Node7 -->
<g id="edge30_Node000013_Node000007" class="edge">
<title>Node13&#45;&gt;Node7</title>
<g id="a_edge30_Node000013_Node000007"><a xlink:title=" ">
<path fill="none" stroke="#63b8ff" d="M890.36,-109.98C814.95,-98.98 685.85,-80.13 622.68,-70.9"/>
<polygon fill="#63b8ff" stroke="#63b8ff" points="622.8,-67.38 612.4,-69.4 621.79,-74.31 622.8,-67.38"/>
</a>
</g>
</g>
</g>
</svg>
