<?xml version="1.0" encoding="UTF-8" standalone="no"?>
<!DOCTYPE svg PUBLIC "-//W3C//DTD SVG 1.1//EN"
 "http://www.w3.org/Graphics/SVG/1.1/DTD/svg11.dtd">
<!-- Generated by graphviz version 2.43.0 (0)
 -->
<!-- Title: src/fs/backend/remote/sd_remote_write.c Pages: 1 -->
<svg width="1046pt" height="324pt"
 viewBox="0.00 0.00 1046.00 324.00" xmlns="http://www.w3.org/2000/svg" xmlns:xlink="http://www.w3.org/1999/xlink">
<g id="graph0" class="graph" transform="scale(1 1) rotate(0) translate(4 320)">
<title>src/fs/backend/remote/sd_remote_write.c</title>
<!-- Node1 -->
<g id="Node000001" class="node">
<title>Node1</title>
<g id="a_Node000001"><a xlink:title=" ">
<polygon fill="#999999" stroke="#666666" points="862.63,-316 737.63,-316 737.63,-286 862.63,-286 862.63,-316"/>
<text text-anchor="start" x="745.63" y="-304" font-family="Helvetica,sans-Serif" font-size="10.00">src/fs/backend/remote</text>
<text text-anchor="middle" x="800.13" y="-293" font-family="Helvetica,sans-Serif" font-size="10.00">/sd_remote_write.c</text>
</a>
</g>
</g>
<!-- Node2 -->
<g id="Node000002" class="node">
<title>Node2</title>
<g id="a_Node000002"><a xlink:href="sd__remote__internal_8h.html" target="_top" xlink:title=" ">
<polygon fill="white" stroke="#666666" points="772.13,-250 652.13,-250 652.13,-231 772.13,-231 772.13,-250"/>
<text text-anchor="middle" x="712.13" y="-238" font-family="Helvetica,sans-Serif" font-size="10.00">sd_remote_internal.h</text>
</a>
</g>
</g>
<!-- Node1&#45;&gt;Node2 -->
<g id="edge1_Node000001_Node000002" class="edge">
<title>Node1&#45;&gt;Node2</title>
<g id="a_edge1_Node000001_Node000002"><a xlink:title=" ">
<path fill="none" stroke="#63b8ff" d="M778.82,-285.84C765.05,-276.68 747.2,-264.82 733.43,-255.66"/>
<polygon fill="#63b8ff" stroke="#63b8ff" points="735.32,-252.72 725.05,-250.09 731.44,-258.55 735.32,-252.72"/>
</a>
</g>
</g>
<!-- Node8 -->
<g id="Node000008" class="node">
<title>Node8</title>
<g id="a_Node000008"><a xlink:title=" ">
<polygon fill="#e0e0e0" stroke="#999999" points="187.63,-19 136.63,-19 136.63,0 187.63,0 187.63,-19"/>
<text text-anchor="middle" x="162.13" y="-7" font-family="Helvetica,sans-Serif" font-size="10.00">errno.h</text>
</a>
</g>
</g>
<!-- Node1&#45;&gt;Node8 -->
<g id="edge29_Node000001_Node000008" class="edge">
<title>Node1&#45;&gt;Node8</title>
<g id="a_edge29_Node000001_Node000008"><a xlink:title=" ">
<path fill="none" stroke="#63b8ff" d="M737.43,-297.67C549.07,-289.86 1.13,-260.76 1.13,-186.5 1.13,-186.5 1.13,-186.5 1.13,-129.5 1.13,-95.33 -3.38,-79.81 20.13,-55 47.66,-25.93 93.9,-15.75 126.11,-12.24"/>
<polygon fill="#63b8ff" stroke="#63b8ff" points="126.81,-15.69 136.44,-11.29 126.16,-8.72 126.81,-15.69"/>
</a>
</g>
</g>
<!-- Node16 -->
<g id="Node000016" class="node">
<title>Node16</title>
<g id="a_Node000016"><a xlink:href="sd__s3_8h.html" target="_top" xlink:title=" ">
<polygon fill="white" stroke="#666666" points="861.63,-140 738.63,-140 738.63,-121 861.63,-121 861.63,-140"/>
<text text-anchor="middle" x="800.13" y="-128" font-family="Helvetica,sans-Serif" font-size="10.00">fs/backend/s3/sd_s3.h</text>
</a>
</g>
</g>
<!-- Node1&#45;&gt;Node16 -->
<g id="edge28_Node000001_Node000016" class="edge">
<title>Node1&#45;&gt;Node16</title>
<g id="a_edge28_Node000001_Node000016"><a xlink:title=" ">
<path fill="none" stroke="#63b8ff" d="M800.13,-285.92C800.13,-255.65 800.13,-184.35 800.13,-150.27"/>
<polygon fill="#63b8ff" stroke="#63b8ff" points="803.63,-150.25 800.13,-140.25 796.63,-150.25 803.63,-150.25"/>
</a>
</g>
</g>
<!-- Node18 -->
<g id="Node000018" class="node">
<title>Node18</title>
<g id="a_Node000018"><a xlink:title=" ">
<polygon fill="#e0e0e0" stroke="#999999" points="881.63,-250 828.63,-250 828.63,-231 881.63,-231 881.63,-250"/>
<text text-anchor="middle" x="855.13" y="-238" font-family="Helvetica,sans-Serif" font-size="10.00">stdlib.h</text>
</a>
</g>
</g>
<!-- Node1&#45;&gt;Node18 -->
<g id="edge30_Node000001_Node000018" class="edge">
<title>Node1&#45;&gt;Node18</title>
<g id="a_edge30_Node000001_Node000018"><a xlink:title=" ">
<path fill="none" stroke="#63b8ff" d="M813.44,-285.84C821.42,-277.35 831.6,-266.52 839.91,-257.69"/>
<polygon fill="#63b8ff" stroke="#63b8ff" points="842.58,-259.95 846.88,-250.27 837.48,-255.15 842.58,-259.95"/>
</a>
</g>
</g>
<!-- Node19 -->
<g id="Node000019" class="node">
<title>Node19</title>
<g id="a_Node000019"><a xlink:title=" ">
<polygon fill="#e0e0e0" stroke="#999999" points="952.63,-250 899.63,-250 899.63,-231 952.63,-231 952.63,-250"/>
<text text-anchor="middle" x="926.13" y="-238" font-family="Helvetica,sans-Serif" font-size="10.00">string.h</text>
</a>
</g>
</g>
<!-- Node1&#45;&gt;Node19 -->
<g id="edge31_Node000001_Node000019" class="edge">
<title>Node1&#45;&gt;Node19</title>
<g id="a_edge31_Node000001_Node000019"><a xlink:title=" ">
<path fill="none" stroke="#63b8ff" d="M830.31,-285.99C850.95,-276.4 878.12,-263.79 898.26,-254.44"/>
<polygon fill="#63b8ff" stroke="#63b8ff" points="899.92,-257.52 907.52,-250.14 896.97,-251.18 899.92,-257.52"/>
</a>
</g>
</g>
<!-- Node3 -->
<g id="Node000003" class="node">
<title>Node3</title>
<g id="a_Node000003"><a xlink:href="sd__remote_8h.html" target="_top" xlink:title=" ">
<polygon fill="white" stroke="#666666" points="733.63,-195 656.63,-195 656.63,-176 733.63,-176 733.63,-195"/>
<text text-anchor="middle" x="695.13" y="-183" font-family="Helvetica,sans-Serif" font-size="10.00">sd_remote.h</text>
</a>
</g>
</g>
<!-- Node2&#45;&gt;Node3 -->
<g id="edge2_Node000002_Node000003" class="edge">
<title>Node2&#45;&gt;Node3</title>
<g id="a_edge2_Node000002_Node000003"><a xlink:title=" ">
<path fill="none" stroke="#63b8ff" d="M709.32,-230.75C707.07,-223.72 703.83,-213.62 701.01,-204.84"/>
<polygon fill="#63b8ff" stroke="#63b8ff" points="704.27,-203.54 697.88,-195.09 697.6,-205.68 704.27,-203.54"/>
</a>
</g>
</g>
<!-- Node2&#45;&gt;Node16 -->
<g id="edge20_Node000002_Node000016" class="edge">
<title>Node2&#45;&gt;Node16</title>
<g id="a_edge20_Node000002_Node000016"><a xlink:title=" ">
<path fill="none" stroke="#63b8ff" d="M719.33,-230.66C734.03,-212.61 767.71,-171.28 786.62,-148.08"/>
<polygon fill="#63b8ff" stroke="#63b8ff" points="789.47,-150.12 793.07,-140.16 784.04,-145.7 789.47,-150.12"/>
</a>
</g>
</g>
<!-- Node4 -->
<g id="Node000004" class="node">
<title>Node4</title>
<g id="a_Node000004"><a xlink:href="sd_8h.html" target="_top" xlink:title=" ">
<polygon fill="white" stroke="#666666" points="451.13,-140 359.13,-140 359.13,-121 451.13,-121 451.13,-140"/>
<text text-anchor="middle" x="405.13" y="-128" font-family="Helvetica,sans-Serif" font-size="10.00">fs/backend/sd.h</text>
</a>
</g>
</g>
<!-- Node3&#45;&gt;Node4 -->
<g id="edge3_Node000003_Node000004" class="edge">
<title>Node3&#45;&gt;Node4</title>
<g id="a_edge3_Node000003_Node000004"><a xlink:title=" ">
<path fill="none" stroke="#63b8ff" d="M656.62,-177.46C606.62,-168.32 518.97,-152.31 461.48,-141.8"/>
<polygon fill="#63b8ff" stroke="#63b8ff" points="461.93,-138.32 451.47,-139.97 460.68,-145.21 461.93,-138.32"/>
</a>
</g>
</g>
<!-- Node14 -->
<g id="Node000014" class="node">
<title>Node14</title>
<g id="a_Node000014"><a xlink:href="sd__s3__transport_8h.html" target="_top" xlink:title=" ">
<polygon fill="white" stroke="#666666" points="815.13,-85 701.13,-85 701.13,-55 815.13,-55 815.13,-85"/>
<text text-anchor="start" x="709.13" y="-73" font-family="Helvetica,sans-Serif" font-size="10.00">fs/backend/s3/sd_s3</text>
<text text-anchor="middle" x="758.13" y="-62" font-family="Helvetica,sans-Serif" font-size="10.00">_transport.h</text>
</a>
</g>
</g>
<!-- Node3&#45;&gt;Node14 -->
<g id="edge17_Node000003_Node000014" class="edge">
<title>Node3&#45;&gt;Node14</title>
<g id="a_edge17_Node000003_Node000014"><a xlink:title=" ">
<path fill="none" stroke="#63b8ff" d="M699.65,-175.82C706.08,-163.55 718.29,-140.44 729.13,-121 734.02,-112.21 739.54,-102.64 744.43,-94.24"/>
<polygon fill="#63b8ff" stroke="#63b8ff" points="747.59,-95.77 749.62,-85.37 741.55,-92.23 747.59,-95.77"/>
</a>
</g>
</g>
<!-- Node5 -->
<g id="Node000005" class="node">
<title>Node5</title>
<g id="a_Node000005"><a xlink:title=" ">
<polygon fill="#e0e0e0" stroke="#999999" points="573.13,-79.5 495.13,-79.5 495.13,-60.5 573.13,-60.5 573.13,-79.5"/>
<text text-anchor="middle" x="534.13" y="-67.5" font-family="Helvetica,sans-Serif" font-size="10.00">ngx_config.h</text>
</a>
</g>
</g>
<!-- Node4&#45;&gt;Node5 -->
<g id="edge4_Node000004_Node000005" class="edge">
<title>Node4&#45;&gt;Node5</title>
<g id="a_edge4_Node000004_Node000005"><a xlink:title=" ">
<path fill="none" stroke="#63b8ff" d="M423.88,-120.99C445.47,-111.2 481.16,-95.02 506.06,-83.73"/>
<polygon fill="#63b8ff" stroke="#63b8ff" points="507.68,-86.83 515.35,-79.52 504.79,-80.46 507.68,-86.83"/>
</a>
</g>
</g>
<!-- Node6 -->
<g id="Node000006" class="node">
<title>Node6</title>
<g id="a_Node000006"><a xlink:title=" ">
<polygon fill="#e0e0e0" stroke="#999999" points="343.13,-79.5 273.13,-79.5 273.13,-60.5 343.13,-60.5 343.13,-79.5"/>
<text text-anchor="middle" x="308.13" y="-67.5" font-family="Helvetica,sans-Serif" font-size="10.00">ngx_core.h</text>
</a>
</g>
</g>
<!-- Node4&#45;&gt;Node6 -->
<g id="edge5_Node000004_Node000006" class="edge">
<title>Node4&#45;&gt;Node6</title>
<g id="a_edge5_Node000004_Node000006"><a xlink:title=" ">
<path fill="none" stroke="#63b8ff" d="M390.81,-120.87C375.12,-111.41 349.72,-96.09 331.21,-84.92"/>
<polygon fill="#63b8ff" stroke="#63b8ff" points="332.87,-81.83 322.5,-79.67 329.25,-87.83 332.87,-81.83"/>
</a>
</g>
</g>
<!-- Node7 -->
<g id="Node000007" class="node">
<title>Node7</title>
<g id="a_Node000007"><a xlink:title=" ">
<polygon fill="#e0e0e0" stroke="#999999" points="682.63,-79.5 629.63,-79.5 629.63,-60.5 682.63,-60.5 682.63,-79.5"/>
<text text-anchor="middle" x="656.13" y="-67.5" font-family="Helvetica,sans-Serif" font-size="10.00">stdint.h</text>
</a>
</g>
</g>
<!-- Node4&#45;&gt;Node7 -->
<g id="edge6_Node000004_Node000007" class="edge">
<title>Node4&#45;&gt;Node7</title>
<g id="a_edge6_Node000004_Node000007"><a xlink:title=" ">
<path fill="none" stroke="#63b8ff" d="M451.39,-121.35C494.2,-113.42 559.44,-100.35 615.13,-85 617.6,-84.32 620.14,-83.57 622.69,-82.78"/>
<polygon fill="#63b8ff" stroke="#63b8ff" points="623.99,-86.04 632.43,-79.63 621.84,-79.38 623.99,-86.04"/>
</a>
</g>
</g>
<!-- Node4&#45;&gt;Node8 -->
<g id="edge7_Node000004_Node000008" class="edge">
<title>Node4&#45;&gt;Node8</title>
<g id="a_edge7_Node000004_Node000008"><a xlink:title=" ">
<path fill="none" stroke="#63b8ff" d="M358.94,-128.64C290.59,-126.28 167.62,-117.5 140.13,-85 126.31,-68.67 138.06,-43.97 149,-27.55"/>
<polygon fill="#63b8ff" stroke="#63b8ff" points="151.87,-29.55 154.83,-19.38 146.17,-25.49 151.87,-29.55"/>
</a>
</g>
</g>
<!-- Node9 -->
<g id="Node000009" class="node">
<title>Node9</title>
<g id="a_Node000009"><a xlink:title=" ">
<polygon fill="#e0e0e0" stroke="#999999" points="93.13,-79.5 29.13,-79.5 29.13,-60.5 93.13,-60.5 93.13,-79.5"/>
<text text-anchor="middle" x="61.13" y="-67.5" font-family="Helvetica,sans-Serif" font-size="10.00">sys/stat.h</text>
</a>
</g>
</g>
<!-- Node4&#45;&gt;Node9 -->
<g id="edge8_Node000004_Node000009" class="edge">
<title>Node4&#45;&gt;Node9</title>
<g id="a_edge8_Node000004_Node000009"><a xlink:title=" ">
<path fill="none" stroke="#63b8ff" d="M359.05,-124.75C300.16,-118.19 195.28,-104.88 107.13,-85 103.68,-84.22 100.12,-83.32 96.58,-82.36"/>
<polygon fill="#63b8ff" stroke="#63b8ff" points="97.31,-78.93 86.74,-79.52 95.38,-85.65 97.31,-78.93"/>
</a>
</g>
</g>
<!-- Node10 -->
<g id="Node000010" class="node">
<title>Node10</title>
<g id="a_Node000010"><a xlink:title=" ">
<polygon fill="#e0e0e0" stroke="#999999" points="794.13,-19 722.13,-19 722.13,0 794.13,0 794.13,-19"/>
<text text-anchor="middle" x="758.13" y="-7" font-family="Helvetica,sans-Serif" font-size="10.00">sys/types.h</text>
</a>
</g>
</g>
<!-- Node4&#45;&gt;Node10 -->
<g id="edge9_Node000004_Node000010" class="edge">
<title>Node4&#45;&gt;Node10</title>
<g id="a_edge9_Node000004_Node000010"><a xlink:title=" ">
<path fill="none" stroke="#63b8ff" d="M451.34,-123.35C488.18,-117.19 540.33,-105.57 582.13,-85 601.43,-75.5 601.14,-65.13 620.13,-55 649.1,-39.54 684.39,-28.28 712.03,-20.95"/>
<polygon fill="#63b8ff" stroke="#63b8ff" points="713.03,-24.31 721.84,-18.43 711.28,-17.53 713.03,-24.31"/>
</a>
</g>
</g>
<!-- Node11 -->
<g id="Node000011" class="node">
<title>Node11</title>
<g id="a_Node000011"><a xlink:title=" ">
<polygon fill="#e0e0e0" stroke="#999999" points="434.13,-19 374.13,-19 374.13,0 434.13,0 434.13,-19"/>
<text text-anchor="middle" x="404.13" y="-7" font-family="Helvetica,sans-Serif" font-size="10.00">sys/uio.h</text>
</a>
</g>
</g>
<!-- Node4&#45;&gt;Node11 -->
<g id="edge10_Node000004_Node000011" class="edge">
<title>Node4&#45;&gt;Node11</title>
<g id="a_edge10_Node000004_Node000011"><a xlink:title=" ">
<path fill="none" stroke="#63b8ff" d="M401.27,-120.85C397.57,-112.04 392.24,-97.87 390.13,-85 387.97,-71.84 388.1,-68.18 390.13,-55 391.48,-46.19 394.25,-36.74 396.98,-28.82"/>
<polygon fill="#63b8ff" stroke="#63b8ff" points="400.36,-29.77 400.53,-19.18 393.79,-27.35 400.36,-29.77"/>
</a>
</g>
</g>
<!-- Node12 -->
<g id="Node000012" class="node">
<title>Node12</title>
<g id="a_Node000012"><a xlink:href="sd__cred__forward_8h.html" target="_top" xlink:title=" ">
<polygon fill="white" stroke="#666666" points="255.13,-79.5 149.13,-79.5 149.13,-60.5 255.13,-60.5 255.13,-79.5"/>
<text text-anchor="middle" x="202.13" y="-67.5" font-family="Helvetica,sans-Serif" font-size="10.00">sd_cred_forward.h</text>
</a>
</g>
</g>
<!-- Node4&#45;&gt;Node12 -->
<g id="edge11_Node000004_Node000012" class="edge">
<title>Node4&#45;&gt;Node12</title>
<g id="a_edge11_Node000004_Node000012"><a xlink:title=" ">
<path fill="none" stroke="#63b8ff" d="M375.61,-120.99C340.2,-110.79 280.72,-93.65 241.45,-82.33"/>
<polygon fill="#63b8ff" stroke="#63b8ff" points="242.26,-78.92 231.68,-79.52 240.32,-85.65 242.26,-78.92"/>
</a>
</g>
</g>
<!-- Node13 -->
<g id="Node000013" class="node">
<title>Node13</title>
<g id="a_Node000013"><a xlink:href="sd__registry_8h.html" target="_top" xlink:title=" ">
<polygon fill="white" stroke="#666666" points="477.13,-79.5 399.13,-79.5 399.13,-60.5 477.13,-60.5 477.13,-79.5"/>
<text text-anchor="middle" x="438.13" y="-67.5" font-family="Helvetica,sans-Serif" font-size="10.00">sd_registry.h</text>
</a>
</g>
</g>
<!-- Node4&#45;&gt;Node13 -->
<g id="edge13_Node000004_Node000013" class="edge">
<title>Node4&#45;&gt;Node13</title>
<g id="a_edge13_Node000004_Node000013"><a xlink:title=" ">
<path fill="none" stroke="#63b8ff" d="M409.99,-120.87C414.77,-112.4 422.19,-99.24 428.22,-88.57"/>
<polygon fill="#63b8ff" stroke="#63b8ff" points="431.37,-90.1 433.24,-79.67 425.27,-86.66 431.37,-90.1"/>
</a>
</g>
</g>
<!-- Node12&#45;&gt;Node8 -->
<g id="edge12_Node000012_Node000008" class="edge">
<title>Node12&#45;&gt;Node8</title>
<g id="a_edge12_Node000012_Node000008"><a xlink:title=" ">
<path fill="none" stroke="#63b8ff" d="M196.22,-60.37C190.37,-51.81 181.25,-38.47 173.91,-27.74"/>
<polygon fill="#63b8ff" stroke="#63b8ff" points="176.59,-25.45 168.05,-19.17 170.81,-29.4 176.59,-25.45"/>
</a>
</g>
</g>
<!-- Node13&#45;&gt;Node8 -->
<g id="edge14_Node000013_Node000008" class="edge">
<title>Node13&#45;&gt;Node8</title>
<g id="a_edge14_Node000013_Node000008"><a xlink:title=" ">
<path fill="none" stroke="#63b8ff" d="M398.87,-60.68C345.13,-49.29 249.42,-29 197.68,-18.04"/>
<polygon fill="#63b8ff" stroke="#63b8ff" points="198.15,-14.56 187.65,-15.91 196.7,-21.41 198.15,-14.56"/>
</a>
</g>
</g>
<!-- Node13&#45;&gt;Node10 -->
<g id="edge15_Node000013_Node000010" class="edge">
<title>Node13&#45;&gt;Node10</title>
<g id="a_edge15_Node000013_Node000010"><a xlink:title=" ">
<path fill="none" stroke="#63b8ff" d="M465.14,-60.5C471.94,-58.53 479.27,-56.55 486.13,-55 564.6,-37.21 657.34,-23.59 711.75,-16.34"/>
<polygon fill="#63b8ff" stroke="#63b8ff" points="712.32,-19.79 721.78,-15.02 711.4,-12.85 712.32,-19.79"/>
</a>
</g>
</g>
<!-- Node13&#45;&gt;Node11 -->
<g id="edge16_Node000013_Node000011" class="edge">
<title>Node13&#45;&gt;Node11</title>
<g id="a_edge16_Node000013_Node000011"><a xlink:title=" ">
<path fill="none" stroke="#63b8ff" d="M433.11,-60.37C428.19,-51.9 420.54,-38.74 414.33,-28.07"/>
<polygon fill="#63b8ff" stroke="#63b8ff" points="417.21,-26.05 409.16,-19.17 411.16,-29.57 417.21,-26.05"/>
</a>
</g>
</g>
<!-- Node14&#45;&gt;Node10 -->
<g id="edge19_Node000014_Node000010" class="edge">
<title>Node14&#45;&gt;Node10</title>
<g id="a_edge19_Node000014_Node000010"><a xlink:title=" ">
<path fill="none" stroke="#63b8ff" d="M758.13,-54.84C758.13,-47.21 758.13,-37.7 758.13,-29.45"/>
<polygon fill="#63b8ff" stroke="#63b8ff" points="761.63,-29.27 758.13,-19.27 754.63,-29.27 761.63,-29.27"/>
</a>
</g>
</g>
<!-- Node15 -->
<g id="Node000015" class="node">
<title>Node15</title>
<g id="a_Node000015"><a xlink:title=" ">
<polygon fill="#e0e0e0" stroke="#999999" points="975.13,-19 919.13,-19 919.13,0 975.13,0 975.13,-19"/>
<text text-anchor="middle" x="947.13" y="-7" font-family="Helvetica,sans-Serif" font-size="10.00">stddef.h</text>
</a>
</g>
</g>
<!-- Node14&#45;&gt;Node15 -->
<g id="edge18_Node000014_Node000015" class="edge">
<title>Node14&#45;&gt;Node15</title>
<g id="a_edge18_Node000014_Node000015"><a xlink:title=" ">
<path fill="none" stroke="#63b8ff" d="M803.4,-54.99C835.87,-44.94 879.11,-31.55 909.65,-22.1"/>
<polygon fill="#63b8ff" stroke="#63b8ff" points="910.97,-25.35 919.49,-19.05 908.9,-18.67 910.97,-25.35"/>
</a>
</g>
</g>
<!-- Node16&#45;&gt;Node7 -->
<g id="edge26_Node000016_Node000007" class="edge">
<title>Node16&#45;&gt;Node7</title>
<g id="a_edge26_Node000016_Node000007"><a xlink:title=" ">
<path fill="none" stroke="#63b8ff" d="M779.19,-120.99C754.76,-111.07 714.19,-94.59 686.36,-83.28"/>
<polygon fill="#63b8ff" stroke="#63b8ff" points="687.67,-80.04 677.09,-79.52 685.04,-86.52 687.67,-80.04"/>
</a>
</g>
</g>
<!-- Node16&#45;&gt;Node10 -->
<g id="edge27_Node000016_Node000010" class="edge">
<title>Node16&#45;&gt;Node10</title>
<g id="a_edge27_Node000016_Node000010"><a xlink:title=" ">
<path fill="none" stroke="#63b8ff" d="M807.19,-120.84C817.95,-106.53 835.99,-77.32 824.13,-55 816.82,-41.25 803.16,-30.99 790.15,-23.8"/>
<polygon fill="#63b8ff" stroke="#63b8ff" points="791.4,-20.51 780.9,-19.11 788.24,-26.75 791.4,-20.51"/>
</a>
</g>
</g>
<!-- Node16&#45;&gt;Node14 -->
<g id="edge21_Node000016_Node000014" class="edge">
<title>Node16&#45;&gt;Node14</title>
<g id="a_edge21_Node000016_Node000014"><a xlink:title=" ">
<path fill="none" stroke="#63b8ff" d="M793.93,-120.87C788.76,-113.67 781.15,-103.07 774.27,-93.49"/>
<polygon fill="#63b8ff" stroke="#63b8ff" points="776.93,-91.2 768.26,-85.11 771.25,-95.28 776.93,-91.2"/>
</a>
</g>
</g>
<!-- Node16&#45;&gt;Node15 -->
<g id="edge25_Node000016_Node000015" class="edge">
<title>Node16&#45;&gt;Node15</title>
<g id="a_edge25_Node000016_Node000015"><a xlink:title=" ">
<path fill="none" stroke="#63b8ff" d="M861.87,-126.31C923.14,-121.69 1010.9,-110.69 1032.13,-85 1040.62,-74.72 1039.03,-66.41 1032.13,-55 1021.79,-37.93 1002.51,-27.09 984.92,-20.39"/>
<polygon fill="#63b8ff" stroke="#63b8ff" points="985.99,-17.05 975.39,-17.08 983.69,-23.66 985.99,-17.05"/>
</a>
</g>
</g>
<!-- Node17 -->
<g id="Node000017" class="node">
<title>Node17</title>
<g id="a_Node000017"><a xlink:href="meta__advisory_8h.html" target="_top" xlink:title=" ">
<polygon fill="white" stroke="#666666" points="1023.13,-79.5 871.13,-79.5 871.13,-60.5 1023.13,-60.5 1023.13,-79.5"/>
<text text-anchor="middle" x="947.13" y="-67.5" font-family="Helvetica,sans-Serif" font-size="10.00">fs/backend/meta_advisory.h</text>
</a>
</g>
</g>
<!-- Node16&#45;&gt;Node17 -->
<g id="edge22_Node000016_Node000017" class="edge">
<title>Node16&#45;&gt;Node17</title>
<g id="a_edge22_Node000016_Node000017"><a xlink:title=" ">
<path fill="none" stroke="#63b8ff" d="M821.5,-120.99C846.43,-111.07 887.85,-94.59 916.26,-83.28"/>
<polygon fill="#63b8ff" stroke="#63b8ff" points="917.73,-86.47 925.72,-79.52 915.14,-79.96 917.73,-86.47"/>
</a>
</g>
</g>
<!-- Node17&#45;&gt;Node10 -->
<g id="edge23_Node000017_Node000010" class="edge">
<title>Node17&#45;&gt;Node10</title>
<g id="a_edge23_Node000017_Node000010"><a xlink:title=" ">
<path fill="none" stroke="#63b8ff" d="M919.64,-60.49C886.89,-50.36 832.01,-33.37 795.44,-22.05"/>
<polygon fill="#63b8ff" stroke="#63b8ff" points="796.23,-18.63 785.64,-19.02 794.16,-25.32 796.23,-18.63"/>
</a>
</g>
</g>
<!-- Node17&#45;&gt;Node15 -->
<g id="edge24_Node000017_Node000015" class="edge">
<title>Node17&#45;&gt;Node15</title>
<g id="a_edge24_Node000017_Node000015"><a xlink:title=" ">
<path fill="none" stroke="#63b8ff" d="M947.13,-60.37C947.13,-52.25 947.13,-39.81 947.13,-29.39"/>
<polygon fill="#63b8ff" stroke="#63b8ff" points="950.63,-29.17 947.13,-19.17 943.63,-29.17 950.63,-29.17"/>
</a>
</g>
</g>
</g>
</svg>
