<?xml version="1.0" encoding="UTF-8" standalone="no"?>
<!DOCTYPE svg PUBLIC "-//W3C//DTD SVG 1.1//EN"
 "http://www.w3.org/Graphics/SVG/1.1/DTD/svg11.dtd">
<!-- Generated by graphviz version 2.43.0 (0)
 -->
<!-- Title: src/fs/backend/s3/sd_s3_internal.h Pages: 1 -->
<svg width="442pt" height="203pt"
 viewBox="0.00 0.00 441.62 203.00" xmlns="http://www.w3.org/2000/svg" xmlns:xlink="http://www.w3.org/1999/xlink">

<svg id="main" version="1.1" xmlns="http://www.w3.org/2000/svg" xmlns:xlink="http://www.w3.org/1999/xlink" xml:space="preserve" onload="init(evt)">
<style type="text/css"><![CDATA[
.node, .edge {opacity: 0.7;}
.node.selected, .edge.selected {opacity: 1;}
.edge:hover path { stroke: red; }
.edge:hover polygon { stroke: red; fill: red; }
]]></style>
<script type="application/ecmascript" xlink:href="svg.min.js"/>
<svg id="graph" class="graph">
<g id="graph0" class="graph" transform="scale(1 1) rotate(0) translate(4 199)">
<title>src/fs/backend/s3/sd_s3_internal.h</title>
<!-- Node1 -->
<g id="Node000001" class="node">
<title>Node1</title>
<g id="a_Node000001"><a xlink:title=" ">
<polygon fill="#999999" stroke="#666666" points="199.62,-195 84.62,-195 84.62,-165 199.62,-165 199.62,-195"/>
<text text-anchor="start" x="92.62" y="-183" font-family="Helvetica,sans-Serif" font-size="10.00">src/fs/backend/s3/sd</text>
<text text-anchor="middle" x="142.12" y="-172" font-family="Helvetica,sans-Serif" font-size="10.00">_s3_internal.h</text>
</a>
</g>
</g>
<!-- Node2 -->
<g id="Node000002" class="node">
<title>Node2</title>
<g id="a_Node000002"><a xlink:href="sd__s3_8h.html" target="_top" xlink:title=" ">
<polygon fill="white" stroke="#666666" points="222.62,-129 169.62,-129 169.62,-110 222.62,-110 222.62,-129"/>
<text text-anchor="middle" x="196.12" y="-117" font-family="Helvetica,sans-Serif" font-size="10.00">sd_s3.h</text>
</a>
</g>
</g>
<!-- Node1&#45;&gt;Node2 -->
<g id="edge1_Node000001_Node000002" class="edge">
<title>Node1&#45;&gt;Node2</title>
<g id="a_edge1_Node000001_Node000002"><a xlink:title=" ">
<path fill="none" stroke="#63b8ff" d="M155.19,-164.84C163.03,-156.35 173.03,-145.52 181.18,-136.69"/>
<polygon fill="#63b8ff" stroke="#63b8ff" points="183.82,-138.99 188.03,-129.27 178.67,-134.24 183.82,-138.99"/>
</a>
</g>
</g>
<!-- Node3 -->
<g id="Node000003" class="node">
<title>Node3</title>
<g id="a_Node000003"><a xlink:href="sd__s3__transport_8h.html" target="_top" xlink:title=" ">
<polygon fill="white" stroke="#666666" points="115.62,-74 12.62,-74 12.62,-55 115.62,-55 115.62,-74"/>
<text text-anchor="middle" x="64.12" y="-62" font-family="Helvetica,sans-Serif" font-size="10.00">sd_s3_transport.h</text>
</a>
</g>
</g>
<!-- Node1&#45;&gt;Node3 -->
<g id="edge11_Node000001_Node000003" class="edge">
<title>Node1&#45;&gt;Node3</title>
<g id="a_edge11_Node000001_Node000003"><a xlink:title=" ">
<path fill="none" stroke="#63b8ff" d="M132.24,-164.63C117.89,-143.75 91.33,-105.09 75.95,-82.72"/>
<polygon fill="#63b8ff" stroke="#63b8ff" points="78.67,-80.49 70.12,-74.23 72.9,-84.45 78.67,-80.49"/>
</a>
</g>
</g>
<!-- Node4 -->
<g id="Node000004" class="node">
<title>Node4</title>
<g id="a_Node000004"><a xlink:title=" ">
<polygon fill="#e0e0e0" stroke="#999999" points="132.12,-19 76.12,-19 76.12,0 132.12,0 132.12,-19"/>
<text text-anchor="middle" x="104.12" y="-7" font-family="Helvetica,sans-Serif" font-size="10.00">stddef.h</text>
</a>
</g>
</g>
<!-- Node1&#45;&gt;Node4 -->
<g id="edge13_Node000001_Node000004" class="edge">
<title>Node1&#45;&gt;Node4</title>
<g id="a_edge13_Node000001_Node000004"><a xlink:title=" ">
<path fill="none" stroke="#63b8ff" d="M109.11,-164.97C75.43,-148.63 25.09,-118.13 3.12,-74 -11.67,-44.3 31.6,-26.9 66.05,-18.05"/>
<polygon fill="#63b8ff" stroke="#63b8ff" points="67.03,-21.41 75.93,-15.67 65.39,-14.6 67.03,-21.41"/>
</a>
</g>
</g>
<!-- Node7 -->
<g id="Node000007" class="node">
<title>Node7</title>
<g id="a_Node000007"><a xlink:title=" ">
<polygon fill="#e0e0e0" stroke="#999999" points="433.62,-74 380.62,-74 380.62,-55 433.62,-55 433.62,-74"/>
<text text-anchor="middle" x="407.12" y="-62" font-family="Helvetica,sans-Serif" font-size="10.00">stdint.h</text>
</a>
</g>
</g>
<!-- Node1&#45;&gt;Node7 -->
<g id="edge12_Node000001_Node000007" class="edge">
<title>Node1&#45;&gt;Node7</title>
<g id="a_edge12_Node000001_Node000007"><a xlink:title=" ">
<path fill="none" stroke="#63b8ff" d="M174.88,-164.97C226.94,-142.67 327.76,-99.49 377.66,-78.12"/>
<polygon fill="#63b8ff" stroke="#63b8ff" points="379.12,-81.3 386.94,-74.14 376.37,-74.86 379.12,-81.3"/>
</a>
</g>
</g>
<!-- Node2&#45;&gt;Node3 -->
<g id="edge2_Node000002_Node000003" class="edge">
<title>Node2&#45;&gt;Node3</title>
<g id="a_edge2_Node000002_Node000003"><a xlink:title=" ">
<path fill="none" stroke="#63b8ff" d="M174.91,-109.98C153.39,-101.34 119.84,-87.87 95.29,-78.02"/>
<polygon fill="#63b8ff" stroke="#63b8ff" points="96.3,-74.65 85.71,-74.17 93.69,-81.14 96.3,-74.65"/>
</a>
</g>
</g>
<!-- Node2&#45;&gt;Node4 -->
<g id="edge8_Node000002_Node000004" class="edge">
<title>Node2&#45;&gt;Node4</title>
<g id="a_edge8_Node000002_Node000004"><a xlink:title=" ">
<path fill="none" stroke="#63b8ff" d="M188.59,-109.66C173.22,-91.61 138,-50.28 118.24,-27.08"/>
<polygon fill="#63b8ff" stroke="#63b8ff" points="120.64,-24.5 111.49,-19.16 115.32,-29.04 120.64,-24.5"/>
</a>
</g>
</g>
<!-- Node5 -->
<g id="Node000005" class="node">
<title>Node5</title>
<g id="a_Node000005"><a xlink:title=" ">
<polygon fill="#e0e0e0" stroke="#999999" points="284.12,-19 212.12,-19 212.12,0 284.12,0 284.12,-19"/>
<text text-anchor="middle" x="248.12" y="-7" font-family="Helvetica,sans-Serif" font-size="10.00">sys/types.h</text>
</a>
</g>
</g>
<!-- Node2&#45;&gt;Node5 -->
<g id="edge10_Node000002_Node000005" class="edge">
<title>Node2&#45;&gt;Node5</title>
<g id="a_edge10_Node000002_Node000005"><a xlink:title=" ">
<path fill="none" stroke="#63b8ff" d="M222.8,-118.5C254.99,-116.88 307.91,-108.7 333.12,-74 349.41,-51.57 317.18,-33.57 287.84,-22.54"/>
<polygon fill="#63b8ff" stroke="#63b8ff" points="288.67,-19.12 278.07,-19.07 286.32,-25.72 288.67,-19.12"/>
</a>
</g>
</g>
<!-- Node6 -->
<g id="Node000006" class="node">
<title>Node6</title>
<g id="a_Node000006"><a xlink:href="meta__advisory_8h.html" target="_top" xlink:title=" ">
<polygon fill="white" stroke="#666666" points="324.12,-74 172.12,-74 172.12,-55 324.12,-55 324.12,-74"/>
<text text-anchor="middle" x="248.12" y="-62" font-family="Helvetica,sans-Serif" font-size="10.00">fs/backend/meta_advisory.h</text>
</a>
</g>
</g>
<!-- Node2&#45;&gt;Node6 -->
<g id="edge5_Node000002_Node000006" class="edge">
<title>Node2&#45;&gt;Node6</title>
<g id="a_edge5_Node000002_Node000006"><a xlink:title=" ">
<path fill="none" stroke="#63b8ff" d="M204.71,-109.75C212.28,-102.03 223.5,-90.6 232.63,-81.28"/>
<polygon fill="#63b8ff" stroke="#63b8ff" points="235.19,-83.68 239.69,-74.09 230.19,-78.78 235.19,-83.68"/>
</a>
</g>
</g>
<!-- Node2&#45;&gt;Node7 -->
<g id="edge9_Node000002_Node000007" class="edge">
<title>Node2&#45;&gt;Node7</title>
<g id="a_edge9_Node000002_Node000007"><a xlink:title=" ">
<path fill="none" stroke="#63b8ff" d="M222.84,-111.79C260.34,-102.37 328.68,-85.2 370.77,-74.63"/>
<polygon fill="#63b8ff" stroke="#63b8ff" points="371.77,-77.99 380.61,-72.16 370.06,-71.2 371.77,-77.99"/>
</a>
</g>
</g>
<!-- Node3&#45;&gt;Node4 -->
<g id="edge3_Node000003_Node000004" class="edge">
<title>Node3&#45;&gt;Node4</title>
<g id="a_edge3_Node000003_Node000004"><a xlink:title=" ">
<path fill="none" stroke="#63b8ff" d="M70.72,-54.75C76.37,-47.26 84.66,-36.28 91.57,-27.13"/>
<polygon fill="#63b8ff" stroke="#63b8ff" points="94.41,-29.18 97.64,-19.09 88.82,-24.96 94.41,-29.18"/>
</a>
</g>
</g>
<!-- Node3&#45;&gt;Node5 -->
<g id="edge4_Node000003_Node000005" class="edge">
<title>Node3&#45;&gt;Node5</title>
<g id="a_edge4_Node000003_Node000005"><a xlink:title=" ">
<path fill="none" stroke="#63b8ff" d="M93.68,-54.98C124.84,-46.01 174.09,-31.82 208.58,-21.89"/>
<polygon fill="#63b8ff" stroke="#63b8ff" points="209.68,-25.21 218.32,-19.08 207.75,-18.49 209.68,-25.21"/>
</a>
</g>
</g>
<!-- Node6&#45;&gt;Node4 -->
<g id="edge7_Node000006_Node000004" class="edge">
<title>Node6&#45;&gt;Node4</title>
<g id="a_edge7_Node000006_Node000004"><a xlink:title=" ">
<path fill="none" stroke="#63b8ff" d="M224.98,-54.98C201.3,-46.27 164.25,-32.63 137.41,-22.75"/>
<polygon fill="#63b8ff" stroke="#63b8ff" points="138.27,-19.34 127.68,-19.17 135.85,-25.91 138.27,-19.34"/>
</a>
</g>
</g>
<!-- Node6&#45;&gt;Node5 -->
<g id="edge6_Node000006_Node000005" class="edge">
<title>Node6&#45;&gt;Node5</title>
<g id="a_edge6_Node000006_Node000005"><a xlink:title=" ">
<path fill="none" stroke="#63b8ff" d="M248.12,-54.75C248.12,-47.8 248.12,-37.85 248.12,-29.13"/>
<polygon fill="#63b8ff" stroke="#63b8ff" points="251.62,-29.09 248.12,-19.09 244.62,-29.09 251.62,-29.09"/>
</a>
</g>
</g>
</g>
</svg>
</svg>

<style type='text/css'>
<![CDATA[
[data-mouse-over-selected='false'] { opacity: 0.7; }
[data-mouse-over-selected='true']  { opacity: 1.0; }
]]>
</style>
<script type="application/ecmascript"><![CDATA[
document.addEventListener('DOMContentLoaded', (event) => {
  highlightEdges();
  highlightAdjacentNodes();
});
]]></script>
</svg>
