<?xml version="1.0" encoding="UTF-8" standalone="no"?>
<!DOCTYPE svg PUBLIC "-//W3C//DTD SVG 1.1//EN"
 "http://www.w3.org/Graphics/SVG/1.1/DTD/svg11.dtd">
<!-- Generated by graphviz version 2.43.0 (0)
 -->
<!-- Title: src/fs/backend/xroot/sd_xroot.h Pages: 1 -->
<!--zoomable 170 -->

<svg id="main" version="1.1" xmlns="http://www.w3.org/2000/svg" xmlns:xlink="http://www.w3.org/1999/xlink" xml:space="preserve" onload="init(evt)">
<style type="text/css"><![CDATA[
.node, .edge {opacity: 0.7;}
.node.selected, .edge.selected {opacity: 1;}
.edge:hover path { stroke: red; }
.edge:hover polygon { stroke: red; fill: red; }
]]></style>

<defs>
  <circle id="rim" cx="0" cy="0" r="7"/>
  <circle id="rim2" cx="0" cy="0" r="3.5"/>
  <g id="zoomPlus">
    <use xlink:href="#rim" fill="#404040"><set attributeName="fill" to="#808080" begin="zoomplus.mouseover" end="zoomplus.mouseout"/></use>
    <path d="M-4,0h8M0,-4v8" fill="none" stroke="white" stroke-width="1.5" pointer-events="none"/>
  </g>
  <g id="zoomMin">
    <use xlink:href="#rim" fill="#404040"><set attributeName="fill" to="#808080" begin="zoomminus.mouseover" end="zoomminus.mouseout"/></use>
    <path d="M-4,0h8" fill="none" stroke="white" stroke-width="1.5" pointer-events="none"/>
  </g>
  <g id="arrowUp" transform="translate(30 24)">
    <use xlink:href="#rim"/>
    <path pointer-events="none" fill="none" stroke="white" stroke-width="1.5" d="M0,-3.0v7 M-2.5,-0.5L0,-3.0L2.5,-0.5"/>
  </g>
  <g id="arrowRight" transform="rotate(90) translate(36 -43)">
    <use xlink:href="#rim"/>
    <path pointer-events="none" fill="none" stroke="white" stroke-width="1.5" d="M0,-3.0v7 M-2.5,-0.5L0,-3.0L2.5,-0.5"/>
  </g>
  <g id="arrowDown" transform="rotate(180) translate(-30 -48)">
    <use xlink:href="#rim"/>
    <path pointer-events="none" fill="none" stroke="white" stroke-width="1.5" d="M0,-3.0v7 M-2.5,-0.5L0,-3.0L2.5,-0.5"/>
  </g>
  <g id="arrowLeft" transform="rotate(270) translate(-36 17)">
    <use xlink:href="#rim"/>
    <path pointer-events="none" fill="none" stroke="white" stroke-width="1.5" d="M0,-3.0v7 M-2.5,-0.5L0,-3.0L2.5,-0.5"/>
  </g>
  <g id="resetDef">
    <use xlink:href="#rim2" fill="#404040"><set attributeName="fill" to="#808080" begin="reset.mouseover" end="reset.mouseout"/></use>
  </g>
</defs>
<script type="application/ecmascript">
var viewWidth = 974;
var viewHeight = 170;
var sectionId = 'dynsection-1';
</script>
<script type="application/ecmascript" xlink:href="svg.min.js"/>
<svg id="graph" class="graph">
<g id="viewport">
<title>src/fs/backend/xroot/sd_xroot.h</title>
<!-- Node1 -->
<g id="Node000001" class="node">
<title>Node1</title>
<g id="a_Node000001"><a xlink:title=" ">
<polygon fill="#999999" stroke="#666666" points="481.5,-162 366.5,-162 366.5,-132 481.5,-132 481.5,-162"/>
<text text-anchor="start" x="374.5" y="-150" font-family="Helvetica,sans-Serif" font-size="10.00">src/fs/backend/xroot</text>
<text text-anchor="middle" x="424" y="-139" font-family="Helvetica,sans-Serif" font-size="10.00">/sd_xroot.h</text>
</a>
</g>
</g>
<!-- Node2 -->
<g id="Node000002" class="node">
<title>Node2</title>
<g id="a_Node000002"><a xlink:href="sd__cache__fill_8c.html" target="_top" xlink:title=" ">
<polygon fill="white" stroke="#666666" points="118,-96 0,-96 0,-66 118,-66 118,-96"/>
<text text-anchor="start" x="8" y="-84" font-family="Helvetica,sans-Serif" font-size="10.00">src/fs/backend/cache</text>
<text text-anchor="middle" x="59" y="-73" font-family="Helvetica,sans-Serif" font-size="10.00">/sd_cache_fill.c</text>
</a>
</g>
</g>
<!-- Node1&#45;&gt;Node2 -->
<g id="edge1_Node000001_Node000002" class="edge">
<title>Node1&#45;&gt;Node2</title>
<g id="a_edge1_Node000001_Node000002"><a xlink:title=" ">
<path fill="none" stroke="#63b8ff" d="M356.34,-134.81C297.12,-124.91 208.78,-109.93 132,-96 127.56,-95.19 122.96,-94.35 118.34,-93.48"/>
<polygon fill="#63b8ff" stroke="#63b8ff" points="355.88,-138.28 366.32,-136.47 357.03,-131.37 355.88,-138.28"/>
</a>
</g>
</g>
<!-- Node3 -->
<g id="Node000003" class="node">
<title>Node3</title>
<g id="a_Node000003"><a xlink:href="sd__xroot_8c.html" target="_top" xlink:title=" ">
<polygon fill="white" stroke="#666666" points="156.5,-30 41.5,-30 41.5,0 156.5,0 156.5,-30"/>
<text text-anchor="start" x="49.5" y="-18" font-family="Helvetica,sans-Serif" font-size="10.00">src/fs/backend/xroot</text>
<text text-anchor="middle" x="99" y="-7" font-family="Helvetica,sans-Serif" font-size="10.00">/sd_xroot.c</text>
</a>
</g>
</g>
<!-- Node1&#45;&gt;Node3 -->
<g id="edge2_Node000001_Node000003" class="edge">
<title>Node1&#45;&gt;Node3</title>
<g id="a_edge2_Node000001_Node000003"><a xlink:title=" ">
<path fill="none" stroke="#63b8ff" d="M356.28,-145.32C301.27,-141.99 223.48,-130.72 165,-96 137.91,-79.91 117.01,-48.44 106.5,-30.13"/>
<polygon fill="#63b8ff" stroke="#63b8ff" points="356.11,-148.82 366.28,-145.86 356.48,-141.83 356.11,-148.82"/>
</a>
</g>
</g>
<!-- Node4 -->
<g id="Node000004" class="node">
<title>Node4</title>
<g id="a_Node000004"><a xlink:href="sd__xroot__internal_8h.html" target="_top" xlink:title=" ">
<polygon fill="white" stroke="#666666" points="289.5,-96 174.5,-96 174.5,-66 289.5,-66 289.5,-96"/>
<text text-anchor="start" x="182.5" y="-84" font-family="Helvetica,sans-Serif" font-size="10.00">src/fs/backend/xroot</text>
<text text-anchor="middle" x="232" y="-73" font-family="Helvetica,sans-Serif" font-size="10.00">/sd_xroot_internal.h</text>
</a>
</g>
</g>
<!-- Node1&#45;&gt;Node4 -->
<g id="edge3_Node000001_Node000004" class="edge">
<title>Node1&#45;&gt;Node4</title>
<g id="a_edge3_Node000001_Node000004"><a xlink:title=" ">
<path fill="none" stroke="#63b8ff" d="M372.17,-128.72C341.41,-118.47 302.9,-105.63 274.04,-96.01"/>
<polygon fill="#63b8ff" stroke="#63b8ff" points="371.27,-132.11 381.86,-131.95 373.48,-125.47 371.27,-132.11"/>
</a>
</g>
</g>
<!-- Node8 -->
<g id="Node000008" class="node">
<title>Node8</title>
<g id="a_Node000008"><a xlink:href="cache__storage_8c.html" target="_top" xlink:title=" ">
<polygon fill="white" stroke="#666666" points="414,-96 308,-96 308,-66 414,-66 414,-96"/>
<text text-anchor="start" x="316" y="-84" font-family="Helvetica,sans-Serif" font-size="10.00">src/fs/cache/cache</text>
<text text-anchor="middle" x="361" y="-73" font-family="Helvetica,sans-Serif" font-size="10.00">_storage.c</text>
</a>
</g>
</g>
<!-- Node1&#45;&gt;Node8 -->
<g id="edge8_Node000001_Node000008" class="edge">
<title>Node1&#45;&gt;Node8</title>
<g id="a_edge8_Node000001_Node000008"><a xlink:title=" ">
<path fill="none" stroke="#63b8ff" d="M402.98,-124.65C393.75,-115.27 383.17,-104.53 374.94,-96.16"/>
<polygon fill="#63b8ff" stroke="#63b8ff" points="400.51,-127.13 410.02,-131.8 405.5,-122.21 400.51,-127.13"/>
</a>
</g>
</g>
<!-- Node9 -->
<g id="Node000009" class="node">
<title>Node9</title>
<g id="a_Node000009"><a xlink:href="fetch_8c.html" target="_top" xlink:title=" ">
<polygon fill="white" stroke="#666666" points="542,-90.5 432,-90.5 432,-71.5 542,-71.5 542,-90.5"/>
<text text-anchor="middle" x="487" y="-78.5" font-family="Helvetica,sans-Serif" font-size="10.00">src/fs/cache/fetch.c</text>
</a>
</g>
</g>
<!-- Node1&#45;&gt;Node9 -->
<g id="edge9_Node000001_Node000009" class="edge">
<title>Node1&#45;&gt;Node9</title>
<g id="a_edge9_Node000001_Node000009"><a xlink:title=" ">
<path fill="none" stroke="#63b8ff" d="M445.06,-124.6C456.39,-113.1 469.75,-99.52 478.29,-90.84"/>
<polygon fill="#63b8ff" stroke="#63b8ff" points="442.5,-122.21 437.98,-131.8 447.49,-127.13 442.5,-122.21"/>
</a>
</g>
</g>
<!-- Node10 -->
<g id="Node000010" class="node">
<title>Node10</title>
<g id="a_Node000010"><a xlink:href="tier__build_8c.html" target="_top" xlink:title=" ">
<polygon fill="white" stroke="#666666" points="679.5,-90.5 560.5,-90.5 560.5,-71.5 679.5,-71.5 679.5,-90.5"/>
<text text-anchor="middle" x="620" y="-78.5" font-family="Helvetica,sans-Serif" font-size="10.00">src/fs/tier/tier_build.c</text>
</a>
</g>
</g>
<!-- Node1&#45;&gt;Node10 -->
<g id="edge10_Node000001_Node000010" class="edge">
<title>Node1&#45;&gt;Node10</title>
<g id="a_edge10_Node000001_Node000010"><a xlink:title=" ">
<path fill="none" stroke="#63b8ff" d="M476.87,-128.74C514.76,-116.36 564.17,-100.23 593.92,-90.52"/>
<polygon fill="#63b8ff" stroke="#63b8ff" points="475.43,-125.52 467.01,-131.95 477.61,-132.18 475.43,-125.52"/>
</a>
</g>
</g>
<!-- Node11 -->
<g id="Node000011" class="node">
<title>Node11</title>
<g id="a_Node000011"><a xlink:href="vfs__backend__registry_8c.html" target="_top" xlink:title=" ">
<polygon fill="white" stroke="#666666" points="822.5,-96 697.5,-96 697.5,-66 822.5,-66 822.5,-96"/>
<text text-anchor="start" x="705.5" y="-84" font-family="Helvetica,sans-Serif" font-size="10.00">src/fs/vfs/vfs_backend</text>
<text text-anchor="middle" x="760" y="-73" font-family="Helvetica,sans-Serif" font-size="10.00">_registry.c</text>
</a>
</g>
</g>
<!-- Node1&#45;&gt;Node11 -->
<g id="edge11_Node000001_Node000011" class="edge">
<title>Node1&#45;&gt;Node11</title>
<g id="a_edge11_Node000001_Node000011"><a xlink:title=" ">
<path fill="none" stroke="#63b8ff" d="M491.72,-133.38C545.29,-123.36 621.95,-108.94 689,-96 691.71,-95.48 694.49,-94.94 697.29,-94.4"/>
<polygon fill="#63b8ff" stroke="#63b8ff" points="490.85,-129.98 481.66,-135.26 492.14,-136.86 490.85,-129.98"/>
</a>
</g>
</g>
<!-- Node12 -->
<g id="Node000012" class="node">
<title>Node12</title>
<g id="a_Node000012"><a xlink:href="vfs__backend__registry__source_8c.html" target="_top" xlink:title=" ">
<polygon fill="white" stroke="#666666" points="965.5,-96 840.5,-96 840.5,-66 965.5,-66 965.5,-96"/>
<text text-anchor="start" x="848.5" y="-84" font-family="Helvetica,sans-Serif" font-size="10.00">src/fs/vfs/vfs_backend</text>
<text text-anchor="middle" x="903" y="-73" font-family="Helvetica,sans-Serif" font-size="10.00">_registry_source.c</text>
</a>
</g>
</g>
<!-- Node1&#45;&gt;Node12 -->
<g id="edge12_Node000001_Node000012" class="edge">
<title>Node1&#45;&gt;Node12</title>
<g id="a_edge12_Node000001_Node000012"><a xlink:title=" ">
<path fill="none" stroke="#63b8ff" d="M491.7,-139.23C572.81,-130.76 712.72,-115.04 832,-96 834.73,-95.56 837.51,-95.1 840.32,-94.62"/>
<polygon fill="#63b8ff" stroke="#63b8ff" points="491.2,-135.76 481.62,-140.27 491.93,-142.72 491.2,-135.76"/>
</a>
</g>
</g>
<!-- Node4&#45;&gt;Node3 -->
<g id="edge4_Node000004_Node000003" class="edge">
<title>Node4&#45;&gt;Node3</title>
<g id="a_edge4_Node000004_Node000003"><a xlink:title=" ">
<path fill="none" stroke="#63b8ff" d="M193.58,-61.51C172.72,-51.47 147.33,-39.26 128.12,-30.01"/>
<polygon fill="#63b8ff" stroke="#63b8ff" points="192.28,-64.77 202.81,-65.95 195.32,-58.46 192.28,-64.77"/>
</a>
</g>
</g>
<!-- Node5 -->
<g id="Node000005" class="node">
<title>Node5</title>
<g id="a_Node000005"><a xlink:href="sd__xroot__io_8c.html" target="_top" xlink:title=" ">
<polygon fill="white" stroke="#666666" points="289.5,-30 174.5,-30 174.5,0 289.5,0 289.5,-30"/>
<text text-anchor="start" x="182.5" y="-18" font-family="Helvetica,sans-Serif" font-size="10.00">src/fs/backend/xroot</text>
<text text-anchor="middle" x="232" y="-7" font-family="Helvetica,sans-Serif" font-size="10.00">/sd_xroot_io.c</text>
</a>
</g>
</g>
<!-- Node4&#45;&gt;Node5 -->
<g id="edge5_Node000004_Node000005" class="edge">
<title>Node4&#45;&gt;Node5</title>
<g id="a_edge5_Node000004_Node000005"><a xlink:title=" ">
<path fill="none" stroke="#63b8ff" d="M232,-55.54C232,-46.96 232,-37.61 232,-30.16"/>
<polygon fill="#63b8ff" stroke="#63b8ff" points="228.5,-55.8 232,-65.8 235.5,-55.8 228.5,-55.8"/>
</a>
</g>
</g>
<!-- Node6 -->
<g id="Node000006" class="node">
<title>Node6</title>
<g id="a_Node000006"><a xlink:href="sd__xroot__ns_8c.html" target="_top" xlink:title=" ">
<polygon fill="white" stroke="#666666" points="422.5,-30 307.5,-30 307.5,0 422.5,0 422.5,-30"/>
<text text-anchor="start" x="315.5" y="-18" font-family="Helvetica,sans-Serif" font-size="10.00">src/fs/backend/xroot</text>
<text text-anchor="middle" x="365" y="-7" font-family="Helvetica,sans-Serif" font-size="10.00">/sd_xroot_ns.c</text>
</a>
</g>
</g>
<!-- Node4&#45;&gt;Node6 -->
<g id="edge6_Node000004_Node000006" class="edge">
<title>Node4&#45;&gt;Node6</title>
<g id="a_edge6_Node000004_Node000006"><a xlink:title=" ">
<path fill="none" stroke="#63b8ff" d="M270.42,-61.51C291.28,-51.47 316.67,-39.26 335.88,-30.01"/>
<polygon fill="#63b8ff" stroke="#63b8ff" points="268.68,-58.46 261.19,-65.95 271.72,-64.77 268.68,-58.46"/>
</a>
</g>
</g>
<!-- Node7 -->
<g id="Node000007" class="node">
<title>Node7</title>
<g id="a_Node000007"><a xlink:href="sd__xroot__staged_8c.html" target="_top" xlink:title=" ">
<polygon fill="white" stroke="#666666" points="555.5,-30 440.5,-30 440.5,0 555.5,0 555.5,-30"/>
<text text-anchor="start" x="448.5" y="-18" font-family="Helvetica,sans-Serif" font-size="10.00">src/fs/backend/xroot</text>
<text text-anchor="middle" x="498" y="-7" font-family="Helvetica,sans-Serif" font-size="10.00">/sd_xroot_staged.c</text>
</a>
</g>
</g>
<!-- Node4&#45;&gt;Node7 -->
<g id="edge7_Node000004_Node000007" class="edge">
<title>Node4&#45;&gt;Node7</title>
<g id="a_edge7_Node000004_Node000007"><a xlink:title=" ">
<path fill="none" stroke="#63b8ff" d="M299.64,-63.73C343.13,-53.26 399.03,-39.81 440.39,-29.86"/>
<polygon fill="#63b8ff" stroke="#63b8ff" points="298.62,-60.37 289.72,-66.11 300.26,-67.18 298.62,-60.37"/>
</a>
</g>
</g>
</g>
</svg>

<g id="navigator" transform="translate(0 0)" fill="#404254">
  <rect fill="#f2f5e9" fill-opacity="0.5" stroke="#606060" stroke-width=".5" x="0" y="0" width="60" height="60"/>
  <use id="zoomplus" xlink:href="#zoomPlus" x="17" y="9" onmousedown="handleZoom(evt,'in')"/>
  <use id="zoomminus" xlink:href="#zoomMin" x="42" y="9" onmousedown="handleZoom(evt,'out')"/>
  <use id="reset" xlink:href="#resetDef" x="30" y="36" onmousedown="handleReset()"/>
   <use id="arrowup" xlink:href="#arrowUp" x="0" y="0" onmousedown="handlePan(0,-1)"/>
  <use id="arrowright" xlink:href="#arrowRight" x="0" y="0" onmousedown="handlePan(1,0)"/>
  <use id="arrowdown" xlink:href="#arrowDown" x="0" y="0" onmousedown="handlePan(0,1)"/>
  <use id="arrowleft" xlink:href="#arrowLeft" x="0" y="0" onmousedown="handlePan(-1,0)"/>
</g>
<svg viewBox="0 0 15 15" width="100%" height="30px" preserveAspectRatio="xMaxYMin meet">
 <g id="arrow_out" transform="scale(0.3 0.3)">
  <a xlink:href="sd__xroot_8h__dep__incl_org.svg" target="_base">
   <rect id="button" ry="5" rx="5" y="6" x="6" height="38" width="38"
        fill="#f2f5e9" fill-opacity="0.5" stroke="#606060" stroke-width="1.0"/>
   <path id="arrow"
     d="M 11.500037,31.436501 C 11.940474,20.09759 22.043105,11.32322 32.158766,21.979434 L 37.068811,17.246167 C 37.068811,17.246167 37.088388,32 37.088388,32 L 22.160133,31.978069 C 22.160133,31.978069 26.997745,27.140456 26.997745,27.140456 C 18.528582,18.264221 13.291696,25.230495 11.500037,31.436501 z"
     style="fill:#404040;"/>
  </a>
 </g>
</svg>

<style type='text/css'>
<![CDATA[
[data-mouse-over-selected='false'] { opacity: 0.7; }
[data-mouse-over-selected='true']  { opacity: 1.0; }
]]>
</style>
<script type="application/ecmascript"><![CDATA[
document.addEventListener('DOMContentLoaded', (event) => {
  highlightEdges();
  highlightAdjacentNodes();
});
]]></script>
</svg>
