<?xml version="1.0" encoding="UTF-8" standalone="no"?>
<!DOCTYPE svg PUBLIC "-//W3C//DTD SVG 1.1//EN"
 "http://www.w3.org/Graphics/SVG/1.1/DTD/svg11.dtd">
<!-- Generated by graphviz version 2.43.0 (0)
 -->
<!-- Title: src/fs/backend/cache/sd_cache_internal.h Pages: 1 -->
<svg width="670pt" height="170pt"
 viewBox="0.00 0.00 670.00 170.00" xmlns="http://www.w3.org/2000/svg" xmlns:xlink="http://www.w3.org/1999/xlink">
<g id="graph0" class="graph" transform="scale(1 1) rotate(0) translate(4 166)">
<title>src/fs/backend/cache/sd_cache_internal.h</title>
<!-- Node1 -->
<g id="Node000001" class="node">
<title>Node1</title>
<g id="a_Node000001"><a xlink:title=" ">
<polygon fill="#999999" stroke="#666666" points="433,-162 315,-162 315,-132 433,-132 433,-162"/>
<text text-anchor="start" x="323" y="-150" font-family="Helvetica,sans-Serif" font-size="10.00">src/fs/backend/cache</text>
<text text-anchor="middle" x="374" y="-139" font-family="Helvetica,sans-Serif" font-size="10.00">/sd_cache_internal.h</text>
</a>
</g>
</g>
<!-- Node2 -->
<g id="Node000002" class="node">
<title>Node2</title>
<g id="a_Node000002"><a xlink:href="sd__cache_8c.html" target="_top" xlink:title=" ">
<polygon fill="white" stroke="#666666" points="118,-30 0,-30 0,0 118,0 118,-30"/>
<text text-anchor="start" x="8" y="-18" font-family="Helvetica,sans-Serif" font-size="10.00">src/fs/backend/cache</text>
<text text-anchor="middle" x="59" y="-7" font-family="Helvetica,sans-Serif" font-size="10.00">/sd_cache.c</text>
</a>
</g>
</g>
<!-- Node1&#45;&gt;Node2 -->
<g id="edge1_Node000001_Node000002" class="edge">
<title>Node1&#45;&gt;Node2</title>
<g id="a_edge1_Node000001_Node000002"><a xlink:title=" ">
<path fill="none" stroke="#63b8ff" d="M318.59,-128.84C290.81,-119.82 256.82,-108.12 227,-96 176.13,-75.32 118.73,-46.83 85.92,-30.02"/>
<polygon fill="#63b8ff" stroke="#63b8ff" points="317.54,-132.18 328.13,-131.92 319.69,-125.52 317.54,-132.18"/>
</a>
</g>
</g>
<!-- Node3 -->
<g id="Node000003" class="node">
<title>Node3</title>
<g id="a_Node000003"><a xlink:href="sd__cache__fill_8c.html" target="_top" xlink:title=" ">
<polygon fill="white" stroke="#666666" points="254,-30 136,-30 136,0 254,0 254,-30"/>
<text text-anchor="start" x="144" y="-18" font-family="Helvetica,sans-Serif" font-size="10.00">src/fs/backend/cache</text>
<text text-anchor="middle" x="195" y="-7" font-family="Helvetica,sans-Serif" font-size="10.00">/sd_cache_fill.c</text>
</a>
</g>
</g>
<!-- Node1&#45;&gt;Node3 -->
<g id="edge2_Node000001_Node000003" class="edge">
<title>Node1&#45;&gt;Node3</title>
<g id="a_edge2_Node000001_Node000003"><a xlink:title=" ">
<path fill="none" stroke="#63b8ff" d="M322.13,-128.22C302.53,-120.11 280.71,-109.32 263,-96 237.94,-77.16 215.86,-47.52 204.07,-30.1"/>
<polygon fill="#63b8ff" stroke="#63b8ff" points="320.96,-131.52 331.54,-131.98 323.55,-125.02 320.96,-131.52"/>
</a>
</g>
</g>
<!-- Node4 -->
<g id="Node000004" class="node">
<title>Node4</title>
<g id="a_Node000004"><a xlink:href="sd__cache__forward_8c.html" target="_top" xlink:title=" ">
<polygon fill="white" stroke="#666666" points="526,-30 408,-30 408,0 526,0 526,-30"/>
<text text-anchor="start" x="416" y="-18" font-family="Helvetica,sans-Serif" font-size="10.00">src/fs/backend/cache</text>
<text text-anchor="middle" x="467" y="-7" font-family="Helvetica,sans-Serif" font-size="10.00">/sd_cache_forward.c</text>
</a>
</g>
</g>
<!-- Node1&#45;&gt;Node4 -->
<g id="edge3_Node000001_Node000004" class="edge">
<title>Node1&#45;&gt;Node4</title>
<g id="a_edge3_Node000001_Node000004"><a xlink:title=" ">
<path fill="none" stroke="#63b8ff" d="M390.13,-123.45C409.33,-96.61 440.82,-52.6 456.88,-30.14"/>
<polygon fill="#63b8ff" stroke="#63b8ff" points="387.1,-121.67 384.13,-131.84 392.79,-125.74 387.1,-121.67"/>
</a>
</g>
</g>
<!-- Node5 -->
<g id="Node000005" class="node">
<title>Node5</title>
<g id="a_Node000005"><a xlink:href="sd__cache__manifest_8c.html" target="_top" xlink:title=" ">
<polygon fill="white" stroke="#666666" points="606,-96 484,-96 484,-66 606,-66 606,-96"/>
<text text-anchor="start" x="492" y="-84" font-family="Helvetica,sans-Serif" font-size="10.00">src/fs/backend/cache</text>
<text text-anchor="middle" x="545" y="-73" font-family="Helvetica,sans-Serif" font-size="10.00">/sd_cache_manifest.c</text>
</a>
</g>
</g>
<!-- Node1&#45;&gt;Node5 -->
<g id="edge4_Node000001_Node000005" class="edge">
<title>Node1&#45;&gt;Node5</title>
<g id="a_edge4_Node000001_Node000005"><a xlink:title=" ">
<path fill="none" stroke="#63b8ff" d="M421.23,-128.32C448.45,-118.14 482.19,-105.51 507.56,-96.01"/>
<polygon fill="#63b8ff" stroke="#63b8ff" points="419.67,-125.17 411.53,-131.95 422.12,-131.73 419.67,-125.17"/>
</a>
</g>
</g>
<!-- Node6 -->
<g id="Node000006" class="node">
<title>Node6</title>
<g id="a_Node000006"><a xlink:href="sd__cache__partial_8c.html" target="_top" xlink:title=" ">
<polygon fill="white" stroke="#666666" points="662,-30 544,-30 544,0 662,0 662,-30"/>
<text text-anchor="start" x="552" y="-18" font-family="Helvetica,sans-Serif" font-size="10.00">src/fs/backend/cache</text>
<text text-anchor="middle" x="603" y="-7" font-family="Helvetica,sans-Serif" font-size="10.00">/sd_cache_partial.c</text>
</a>
</g>
</g>
<!-- Node1&#45;&gt;Node6 -->
<g id="edge5_Node000001_Node000006" class="edge">
<title>Node1&#45;&gt;Node6</title>
<g id="a_edge5_Node000001_Node000006"><a xlink:title=" ">
<path fill="none" stroke="#63b8ff" d="M398.62,-125.1C423.14,-104.56 459.31,-75.01 475,-66 501.07,-51.03 532.49,-38.69 557.67,-30.01"/>
<polygon fill="#63b8ff" stroke="#63b8ff" points="396.2,-122.57 390.8,-131.68 400.71,-127.92 396.2,-122.57"/>
</a>
</g>
</g>
<!-- Node7 -->
<g id="Node000007" class="node">
<title>Node7</title>
<g id="a_Node000007"><a xlink:href="sd__cache__policy_8h.html" target="_top" xlink:title=" ">
<polygon fill="white" stroke="#666666" points="390,-96 272,-96 272,-66 390,-66 390,-96"/>
<text text-anchor="start" x="280" y="-84" font-family="Helvetica,sans-Serif" font-size="10.00">src/fs/backend/cache</text>
<text text-anchor="middle" x="331" y="-73" font-family="Helvetica,sans-Serif" font-size="10.00">/sd_cache_policy.h</text>
</a>
</g>
</g>
<!-- Node1&#45;&gt;Node7 -->
<g id="edge6_Node000001_Node000007" class="edge">
<title>Node1&#45;&gt;Node7</title>
<g id="a_edge6_Node000001_Node000007"><a xlink:title=" ">
<path fill="none" stroke="#63b8ff" d="M358.71,-123.24C352.64,-114.21 345.86,-104.11 340.52,-96.16"/>
<polygon fill="#63b8ff" stroke="#63b8ff" points="355.97,-125.45 364.46,-131.8 361.79,-121.54 355.97,-125.45"/>
</a>
</g>
</g>
<!-- Node7&#45;&gt;Node2 -->
<g id="edge7_Node000007_Node000002" class="edge">
<title>Node7&#45;&gt;Node2</title>
<g id="a_edge7_Node000007_Node000002"><a xlink:title=" ">
<path fill="none" stroke="#63b8ff" d="M262.15,-63.8C217.8,-53.36 160.73,-39.94 118.37,-29.97"/>
<polygon fill="#63b8ff" stroke="#63b8ff" points="261.44,-67.23 271.98,-66.11 263.05,-60.42 261.44,-67.23"/>
</a>
</g>
</g>
<!-- Node7&#45;&gt;Node3 -->
<g id="edge8_Node000007_Node000003" class="edge">
<title>Node7&#45;&gt;Node3</title>
<g id="a_edge8_Node000007_Node000003"><a xlink:title=" ">
<path fill="none" stroke="#63b8ff" d="M292,-61.65C270.61,-51.58 244.51,-39.3 224.78,-30.01"/>
<polygon fill="#63b8ff" stroke="#63b8ff" points="290.62,-64.86 301.15,-65.95 293.6,-58.53 290.62,-64.86"/>
</a>
</g>
</g>
<!-- Node7&#45;&gt;Node4 -->
<g id="edge9_Node000007_Node000004" class="edge">
<title>Node7&#45;&gt;Node4</title>
<g id="a_edge9_Node000007_Node000004"><a xlink:title=" ">
<path fill="none" stroke="#63b8ff" d="M370,-61.65C391.39,-51.58 417.49,-39.3 437.22,-30.01"/>
<polygon fill="#63b8ff" stroke="#63b8ff" points="368.4,-58.53 360.85,-65.95 371.38,-64.86 368.4,-58.53"/>
</a>
</g>
</g>
<!-- Node7&#45;&gt;Node6 -->
<g id="edge10_Node000007_Node000006" class="edge">
<title>Node7&#45;&gt;Node6</title>
<g id="a_edge10_Node000007_Node000006"><a xlink:title=" ">
<path fill="none" stroke="#63b8ff" d="M399.85,-63.8C444.2,-53.36 501.27,-39.94 543.63,-29.97"/>
<polygon fill="#63b8ff" stroke="#63b8ff" points="398.95,-60.42 390.02,-66.11 400.56,-67.23 398.95,-60.42"/>
</a>
</g>
</g>
<!-- Node8 -->
<g id="Node000008" class="node">
<title>Node8</title>
<g id="a_Node000008"><a xlink:href="sd__cache__policy_8c.html" target="_top" xlink:title=" ">
<polygon fill="white" stroke="#666666" points="390,-30 272,-30 272,0 390,0 390,-30"/>
<text text-anchor="start" x="280" y="-18" font-family="Helvetica,sans-Serif" font-size="10.00">src/fs/backend/cache</text>
<text text-anchor="middle" x="331" y="-7" font-family="Helvetica,sans-Serif" font-size="10.00">/sd_cache_policy.c</text>
</a>
</g>
</g>
<!-- Node7&#45;&gt;Node8 -->
<g id="edge11_Node000007_Node000008" class="edge">
<title>Node7&#45;&gt;Node8</title>
<g id="a_edge11_Node000007_Node000008"><a xlink:title=" ">
<path fill="none" stroke="#63b8ff" d="M331,-55.54C331,-46.96 331,-37.61 331,-30.16"/>
<polygon fill="#63b8ff" stroke="#63b8ff" points="327.5,-55.8 331,-65.8 334.5,-55.8 327.5,-55.8"/>
</a>
</g>
</g>
</g>
</svg>
