<?xml version="1.0" encoding="UTF-8" standalone="no"?>
<!DOCTYPE svg PUBLIC "-//W3C//DTD SVG 1.1//EN"
 "http://www.w3.org/Graphics/SVG/1.1/DTD/svg11.dtd">
<!-- Generated by graphviz version 2.43.0 (0)
 -->
<!-- Title: src/fs/backend/http/sd_http.h Pages: 1 -->
<svg width="2714pt" height="170pt"
 viewBox="0.00 0.00 2714.00 170.00" xmlns="http://www.w3.org/2000/svg" xmlns:xlink="http://www.w3.org/1999/xlink">
<g id="graph0" class="graph" transform="scale(1 1) rotate(0) translate(4 166)">
<title>src/fs/backend/http/sd_http.h</title>
<!-- Node1 -->
<g id="Node000001" class="node">
<title>Node1</title>
<g id="a_Node000001"><a xlink:title=" ">
<polygon fill="#999999" stroke="#666666" points="1299.5,-162 1190.5,-162 1190.5,-132 1299.5,-132 1299.5,-162"/>
<text text-anchor="start" x="1198.5" y="-150" font-family="Helvetica,sans-Serif" font-size="10.00">src/fs/backend/http</text>
<text text-anchor="middle" x="1245" y="-139" font-family="Helvetica,sans-Serif" font-size="10.00">/sd_http.h</text>
</a>
</g>
</g>
<!-- Node2 -->
<g id="Node000002" class="node">
<title>Node2</title>
<g id="a_Node000002"><a xlink:href="sd__cache_8c.html" target="_top" xlink:title=" ">
<polygon fill="white" stroke="#666666" points="118,-96 0,-96 0,-66 118,-66 118,-96"/>
<text text-anchor="start" x="8" y="-84" font-family="Helvetica,sans-Serif" font-size="10.00">src/fs/backend/cache</text>
<text text-anchor="middle" x="59" y="-73" font-family="Helvetica,sans-Serif" font-size="10.00">/sd_cache.c</text>
</a>
</g>
</g>
<!-- Node1&#45;&gt;Node2 -->
<g id="edge1_Node000001_Node000002" class="edge">
<title>Node1&#45;&gt;Node2</title>
<g id="a_edge1_Node000001_Node000002"><a xlink:title=" ">
<path fill="none" stroke="#63b8ff" d="M1180.19,-146.68C1007.99,-147.7 524.96,-145.55 127,-96 124.13,-95.64 121.2,-95.23 118.25,-94.77"/>
<polygon fill="#63b8ff" stroke="#63b8ff" points="1180.38,-150.18 1190.35,-146.61 1180.33,-143.18 1180.38,-150.18"/>
</a>
</g>
</g>
<!-- Node3 -->
<g id="Node000003" class="node">
<title>Node3</title>
<g id="a_Node000003"><a xlink:href="sd__cache__fill_8c.html" target="_top" xlink:title=" ">
<polygon fill="white" stroke="#666666" points="254,-96 136,-96 136,-66 254,-66 254,-96"/>
<text text-anchor="start" x="144" y="-84" font-family="Helvetica,sans-Serif" font-size="10.00">src/fs/backend/cache</text>
<text text-anchor="middle" x="195" y="-73" font-family="Helvetica,sans-Serif" font-size="10.00">/sd_cache_fill.c</text>
</a>
</g>
</g>
<!-- Node1&#45;&gt;Node3 -->
<g id="edge2_Node000001_Node000003" class="edge">
<title>Node1&#45;&gt;Node3</title>
<g id="a_edge2_Node000001_Node000003"><a xlink:title=" ">
<path fill="none" stroke="#63b8ff" d="M1179.98,-146.1C1022.15,-145.6 606.47,-139.84 263,-96 260.13,-95.63 257.2,-95.21 254.25,-94.75"/>
<polygon fill="#63b8ff" stroke="#63b8ff" points="1180.44,-149.6 1190.45,-146.13 1180.46,-142.6 1180.44,-149.6"/>
</a>
</g>
</g>
<!-- Node4 -->
<g id="Node000004" class="node">
<title>Node4</title>
<g id="a_Node000004"><a xlink:href="sd__cache__forward_8c.html" target="_top" xlink:title=" ">
<polygon fill="white" stroke="#666666" points="390,-96 272,-96 272,-66 390,-66 390,-96"/>
<text text-anchor="start" x="280" y="-84" font-family="Helvetica,sans-Serif" font-size="10.00">src/fs/backend/cache</text>
<text text-anchor="middle" x="331" y="-73" font-family="Helvetica,sans-Serif" font-size="10.00">/sd_cache_forward.c</text>
</a>
</g>
</g>
<!-- Node1&#45;&gt;Node4 -->
<g id="edge3_Node000001_Node000004" class="edge">
<title>Node1&#45;&gt;Node4</title>
<g id="a_edge3_Node000001_Node000004"><a xlink:title=" ">
<path fill="none" stroke="#63b8ff" d="M1180.02,-145.34C1037.82,-143.21 688.6,-134.17 399,-96 396.13,-95.62 393.2,-95.19 390.25,-94.72"/>
<polygon fill="#63b8ff" stroke="#63b8ff" points="1180.26,-148.85 1190.31,-145.49 1180.36,-141.85 1180.26,-148.85"/>
</a>
</g>
</g>
<!-- Node5 -->
<g id="Node000005" class="node">
<title>Node5</title>
<g id="a_Node000005"><a xlink:href="sd__cache__partial_8c.html" target="_top" xlink:title=" ">
<polygon fill="white" stroke="#666666" points="526,-96 408,-96 408,-66 526,-66 526,-96"/>
<text text-anchor="start" x="416" y="-84" font-family="Helvetica,sans-Serif" font-size="10.00">src/fs/backend/cache</text>
<text text-anchor="middle" x="467" y="-73" font-family="Helvetica,sans-Serif" font-size="10.00">/sd_cache_partial.c</text>
</a>
</g>
</g>
<!-- Node1&#45;&gt;Node5 -->
<g id="edge4_Node000001_Node000005" class="edge">
<title>Node1&#45;&gt;Node5</title>
<g id="a_edge4_Node000001_Node000005"><a xlink:title=" ">
<path fill="none" stroke="#63b8ff" d="M1180.23,-144.31C1055.04,-140.42 771.35,-128.51 535,-96 532.13,-95.61 529.21,-95.16 526.26,-94.68"/>
<polygon fill="#63b8ff" stroke="#63b8ff" points="1180.31,-147.82 1190.41,-144.62 1180.52,-140.82 1180.31,-147.82"/>
</a>
</g>
</g>
<!-- Node6 -->
<g id="Node000006" class="node">
<title>Node6</title>
<g id="a_Node000006"><a xlink:href="sd__cache__policy_8c.html" target="_top" xlink:title=" ">
<polygon fill="white" stroke="#666666" points="662,-96 544,-96 544,-66 662,-66 662,-96"/>
<text text-anchor="start" x="552" y="-84" font-family="Helvetica,sans-Serif" font-size="10.00">src/fs/backend/cache</text>
<text text-anchor="middle" x="603" y="-73" font-family="Helvetica,sans-Serif" font-size="10.00">/sd_cache_policy.c</text>
</a>
</g>
</g>
<!-- Node1&#45;&gt;Node6 -->
<g id="edge5_Node000001_Node000006" class="edge">
<title>Node1&#45;&gt;Node6</title>
<g id="a_edge5_Node000001_Node000006"><a xlink:title=" ">
<path fill="none" stroke="#63b8ff" d="M1180.05,-142.45C1074.14,-136.18 857.78,-121.35 676,-96 671.53,-95.38 666.91,-94.66 662.28,-93.89"/>
<polygon fill="#63b8ff" stroke="#63b8ff" points="1180.07,-145.96 1190.26,-143.05 1180.48,-138.97 1180.07,-145.96"/>
</a>
</g>
</g>
<!-- Node7 -->
<g id="Node000007" class="node">
<title>Node7</title>
<g id="a_Node000007"><a xlink:href="sd__http_8c.html" target="_top" xlink:title=" ">
<polygon fill="white" stroke="#666666" points="629.5,-30 520.5,-30 520.5,0 629.5,0 629.5,-30"/>
<text text-anchor="start" x="528.5" y="-18" font-family="Helvetica,sans-Serif" font-size="10.00">src/fs/backend/http</text>
<text text-anchor="middle" x="575" y="-7" font-family="Helvetica,sans-Serif" font-size="10.00">/sd_http.c</text>
</a>
</g>
</g>
<!-- Node1&#45;&gt;Node7 -->
<g id="edge6_Node000001_Node000007" class="edge">
<title>Node1&#45;&gt;Node7</title>
<g id="a_edge6_Node000001_Node000007"><a xlink:title=" ">
<path fill="none" stroke="#63b8ff" d="M1180.04,-144.42C1056.83,-140.69 794.03,-129.02 710,-96 689.65,-88 689.44,-77.76 671,-66 649.77,-52.46 624.46,-39.39 605.16,-30.02"/>
<polygon fill="#63b8ff" stroke="#63b8ff" points="1179.99,-147.92 1190.09,-144.72 1180.2,-140.92 1179.99,-147.92"/>
</a>
</g>
</g>
<!-- Node8 -->
<g id="Node000008" class="node">
<title>Node8</title>
<g id="a_Node000008"><a xlink:href="sd__http__internal_8h.html" target="_top" xlink:title=" ">
<polygon fill="white" stroke="#666666" points="827.5,-96 718.5,-96 718.5,-66 827.5,-66 827.5,-96"/>
<text text-anchor="start" x="726.5" y="-84" font-family="Helvetica,sans-Serif" font-size="10.00">src/fs/backend/http</text>
<text text-anchor="middle" x="773" y="-73" font-family="Helvetica,sans-Serif" font-size="10.00">/sd_http_internal.h</text>
</a>
</g>
</g>
<!-- Node1&#45;&gt;Node8 -->
<g id="edge7_Node000001_Node000008" class="edge">
<title>Node1&#45;&gt;Node8</title>
<g id="a_edge7_Node000001_Node000008"><a xlink:title=" ">
<path fill="none" stroke="#63b8ff" d="M1180.31,-139.96C1099.62,-131.99 957.59,-116.53 837,-96 833.97,-95.48 830.87,-94.92 827.75,-94.33"/>
<polygon fill="#63b8ff" stroke="#63b8ff" points="1180.03,-143.45 1190.32,-140.94 1180.71,-136.48 1180.03,-143.45"/>
</a>
</g>
</g>
<!-- Node13 -->
<g id="Node000013" class="node">
<title>Node13</title>
<g id="a_Node000013"><a xlink:href="fetch_8c.html" target="_top" xlink:title=" ">
<polygon fill="white" stroke="#666666" points="956,-90.5 846,-90.5 846,-71.5 956,-71.5 956,-90.5"/>
<text text-anchor="middle" x="901" y="-78.5" font-family="Helvetica,sans-Serif" font-size="10.00">src/fs/cache/fetch.c</text>
</a>
</g>
</g>
<!-- Node1&#45;&gt;Node13 -->
<g id="edge13_Node000001_Node000013" class="edge">
<title>Node1&#45;&gt;Node13</title>
<g id="a_edge13_Node000001_Node000013"><a xlink:title=" ">
<path fill="none" stroke="#63b8ff" d="M1180.48,-135.09C1123.85,-125.36 1039.33,-110.46 966,-96 957.39,-94.3 948.17,-92.38 939.45,-90.51"/>
<polygon fill="#63b8ff" stroke="#63b8ff" points="1179.92,-138.55 1190.36,-136.79 1181.1,-131.65 1179.92,-138.55"/>
</a>
</g>
</g>
<!-- Node14 -->
<g id="Node000014" class="node">
<title>Node14</title>
<g id="a_Node000014"><a xlink:href="tier__build_8c.html" target="_top" xlink:title=" ">
<polygon fill="white" stroke="#666666" points="1093.5,-90.5 974.5,-90.5 974.5,-71.5 1093.5,-71.5 1093.5,-90.5"/>
<text text-anchor="middle" x="1034" y="-78.5" font-family="Helvetica,sans-Serif" font-size="10.00">src/fs/tier/tier_build.c</text>
</a>
</g>
</g>
<!-- Node1&#45;&gt;Node14 -->
<g id="edge14_Node000001_Node000014" class="edge">
<title>Node1&#45;&gt;Node14</title>
<g id="a_edge14_Node000001_Node000014"><a xlink:title=" ">
<path fill="none" stroke="#63b8ff" d="M1189.12,-129.05C1148.2,-116.64 1094.37,-100.31 1062.08,-90.52"/>
<polygon fill="#63b8ff" stroke="#63b8ff" points="1188.11,-132.4 1198.7,-131.95 1190.14,-125.7 1188.11,-132.4"/>
</a>
</g>
</g>
<!-- Node15 -->
<g id="Node000015" class="node">
<title>Node15</title>
<g id="a_Node000015"><a xlink:href="vfs__backend__registry_8c.html" target="_top" xlink:title=" ">
<polygon fill="white" stroke="#666666" points="1236.5,-96 1111.5,-96 1111.5,-66 1236.5,-66 1236.5,-96"/>
<text text-anchor="start" x="1119.5" y="-84" font-family="Helvetica,sans-Serif" font-size="10.00">src/fs/vfs/vfs_backend</text>
<text text-anchor="middle" x="1174" y="-73" font-family="Helvetica,sans-Serif" font-size="10.00">_registry.c</text>
</a>
</g>
</g>
<!-- Node1&#45;&gt;Node15 -->
<g id="edge15_Node000001_Node000015" class="edge">
<title>Node1&#45;&gt;Node15</title>
<g id="a_edge15_Node000001_Node000015"><a xlink:title=" ">
<path fill="none" stroke="#63b8ff" d="M1221.62,-124.92C1211.15,-115.49 1199.08,-104.61 1189.71,-96.16"/>
<polygon fill="#63b8ff" stroke="#63b8ff" points="1219.47,-127.7 1229.24,-131.8 1224.16,-122.5 1219.47,-127.7"/>
</a>
</g>
</g>
<!-- Node16 -->
<g id="Node000016" class="node">
<title>Node16</title>
<g id="a_Node000016"><a xlink:href="vfs__backend__registry__source_8c.html" target="_top" xlink:title=" ">
<polygon fill="white" stroke="#666666" points="1379.5,-96 1254.5,-96 1254.5,-66 1379.5,-66 1379.5,-96"/>
<text text-anchor="start" x="1262.5" y="-84" font-family="Helvetica,sans-Serif" font-size="10.00">src/fs/vfs/vfs_backend</text>
<text text-anchor="middle" x="1317" y="-73" font-family="Helvetica,sans-Serif" font-size="10.00">_registry_source.c</text>
</a>
</g>
</g>
<!-- Node1&#45;&gt;Node16 -->
<g id="edge16_Node000001_Node000016" class="edge">
<title>Node1&#45;&gt;Node16</title>
<g id="a_edge16_Node000001_Node000016"><a xlink:title=" ">
<path fill="none" stroke="#63b8ff" d="M1268.71,-124.92C1279.33,-115.49 1291.57,-104.61 1301.07,-96.16"/>
<polygon fill="#63b8ff" stroke="#63b8ff" points="1266.13,-122.54 1260.98,-131.8 1270.78,-127.77 1266.13,-122.54"/>
</a>
</g>
</g>
<!-- Node17 -->
<g id="Node000017" class="node">
<title>Node17</title>
<g id="a_Node000017"><a xlink:href="health_8c.html" target="_top" xlink:title=" ">
<polygon fill="white" stroke="#666666" points="1534.5,-96 1397.5,-96 1397.5,-66 1534.5,-66 1534.5,-96"/>
<text text-anchor="start" x="1405.5" y="-84" font-family="Helvetica,sans-Serif" font-size="10.00">src/observability/metrics</text>
<text text-anchor="middle" x="1466" y="-73" font-family="Helvetica,sans-Serif" font-size="10.00">/health.c</text>
</a>
</g>
</g>
<!-- Node1&#45;&gt;Node17 -->
<g id="edge17_Node000001_Node000017" class="edge">
<title>Node1&#45;&gt;Node17</title>
<g id="a_edge17_Node000001_Node000017"><a xlink:title=" ">
<path fill="none" stroke="#63b8ff" d="M1303.28,-129.12C1338.92,-118.8 1383.96,-105.76 1417.61,-96.01"/>
<polygon fill="#63b8ff" stroke="#63b8ff" points="1302.13,-125.81 1293.5,-131.95 1304.08,-132.54 1302.13,-125.81"/>
</a>
</g>
</g>
<!-- Node18 -->
<g id="Node000018" class="node">
<title>Node18</title>
<g id="a_Node000018"><a xlink:href="cvmfs__module__build_8c.html" target="_top" xlink:title=" ">
<polygon fill="white" stroke="#666666" points="1681.5,-96 1552.5,-96 1552.5,-66 1681.5,-66 1681.5,-96"/>
<text text-anchor="start" x="1560.5" y="-84" font-family="Helvetica,sans-Serif" font-size="10.00">src/protocols/cvmfs</text>
<text text-anchor="middle" x="1617" y="-73" font-family="Helvetica,sans-Serif" font-size="10.00">/cvmfs_module_build.c</text>
</a>
</g>
</g>
<!-- Node1&#45;&gt;Node18 -->
<g id="edge18_Node000001_Node000018" class="edge">
<title>Node1&#45;&gt;Node18</title>
<g id="a_edge18_Node000001_Node000018"><a xlink:title=" ">
<path fill="none" stroke="#63b8ff" d="M1309.81,-135.62C1370.43,-125.8 1463.44,-110.46 1544,-96 1546.67,-95.52 1549.39,-95.03 1552.14,-94.52"/>
<polygon fill="#63b8ff" stroke="#63b8ff" points="1308.94,-132.21 1299.63,-137.27 1310.06,-139.12 1308.94,-132.21"/>
</a>
</g>
</g>
<!-- Node19 -->
<g id="Node000019" class="node">
<title>Node19</title>
<g id="a_Node000019"><a xlink:href="cvmfs__module__georank_8c.html" target="_top" xlink:title=" ">
<polygon fill="white" stroke="#666666" points="1844.5,-96 1699.5,-96 1699.5,-66 1844.5,-66 1844.5,-96"/>
<text text-anchor="start" x="1707.5" y="-84" font-family="Helvetica,sans-Serif" font-size="10.00">src/protocols/cvmfs</text>
<text text-anchor="middle" x="1772" y="-73" font-family="Helvetica,sans-Serif" font-size="10.00">/cvmfs_module_georank.c</text>
</a>
</g>
</g>
<!-- Node1&#45;&gt;Node19 -->
<g id="edge19_Node000001_Node000019" class="edge">
<title>Node1&#45;&gt;Node19</title>
<g id="a_edge19_Node000001_Node000019"><a xlink:title=" ">
<path fill="none" stroke="#63b8ff" d="M1309.69,-139.97C1396.6,-131.58 1555.77,-115.25 1691,-96 1693.68,-95.62 1696.42,-95.22 1699.17,-94.8"/>
<polygon fill="#63b8ff" stroke="#63b8ff" points="1309.34,-136.48 1299.72,-140.92 1310,-143.45 1309.34,-136.48"/>
</a>
</g>
</g>
<!-- Node20 -->
<g id="Node000020" class="node">
<title>Node20</title>
<g id="a_Node000020"><a xlink:href="cvmfs__module__merge_8c.html" target="_top" xlink:title=" ">
<polygon fill="white" stroke="#666666" points="1999.5,-96 1862.5,-96 1862.5,-66 1999.5,-66 1999.5,-96"/>
<text text-anchor="start" x="1870.5" y="-84" font-family="Helvetica,sans-Serif" font-size="10.00">src/protocols/cvmfs</text>
<text text-anchor="middle" x="1931" y="-73" font-family="Helvetica,sans-Serif" font-size="10.00">/cvmfs_module_merge.c</text>
</a>
</g>
</g>
<!-- Node1&#45;&gt;Node20 -->
<g id="edge20_Node000001_Node000020" class="edge">
<title>Node1&#45;&gt;Node20</title>
<g id="a_edge20_Node000001_Node000020"><a xlink:title=" ">
<path fill="none" stroke="#63b8ff" d="M1309.86,-142.77C1421.41,-136.74 1656.64,-121.98 1854,-96 1856.69,-95.65 1859.44,-95.26 1862.21,-94.85"/>
<polygon fill="#63b8ff" stroke="#63b8ff" points="1309.58,-139.28 1299.78,-143.31 1309.95,-146.27 1309.58,-139.28"/>
</a>
</g>
</g>
<!-- Node21 -->
<g id="Node000021" class="node">
<title>Node21</title>
<g id="a_Node000021"><a xlink:href="protocols_2cvmfs_2module_8c.html" target="_top" xlink:title=" ">
<polygon fill="white" stroke="#666666" points="2130,-96 2018,-96 2018,-66 2130,-66 2130,-96"/>
<text text-anchor="start" x="2026" y="-84" font-family="Helvetica,sans-Serif" font-size="10.00">src/protocols/cvmfs</text>
<text text-anchor="middle" x="2074" y="-73" font-family="Helvetica,sans-Serif" font-size="10.00">/module.c</text>
</a>
</g>
</g>
<!-- Node1&#45;&gt;Node21 -->
<g id="edge21_Node000001_Node000021" class="edge">
<title>Node1&#45;&gt;Node21</title>
<g id="a_edge21_Node000001_Node000021"><a xlink:title=" ">
<path fill="none" stroke="#63b8ff" d="M1310.3,-144.95C1442.7,-142.12 1752.01,-131.89 2009,-96 2011.86,-95.6 2014.78,-95.15 2017.72,-94.65"/>
<polygon fill="#63b8ff" stroke="#63b8ff" points="1309.86,-141.46 1299.94,-145.17 1310.01,-148.46 1309.86,-141.46"/>
</a>
</g>
</g>
<!-- Node22 -->
<g id="Node000022" class="node">
<title>Node22</title>
<g id="a_Node000022"><a xlink:href="origin__probe_8c.html" target="_top" xlink:title=" ">
<polygon fill="white" stroke="#666666" points="2260,-96 2148,-96 2148,-66 2260,-66 2260,-96"/>
<text text-anchor="start" x="2156" y="-84" font-family="Helvetica,sans-Serif" font-size="10.00">src/protocols/cvmfs</text>
<text text-anchor="middle" x="2204" y="-73" font-family="Helvetica,sans-Serif" font-size="10.00">/origin_probe.c</text>
</a>
</g>
</g>
<!-- Node1&#45;&gt;Node22 -->
<g id="edge22_Node000001_Node000022" class="edge">
<title>Node1&#45;&gt;Node22</title>
<g id="a_edge22_Node000001_Node000022"><a xlink:title=" ">
<path fill="none" stroke="#63b8ff" d="M1309.96,-145.84C1457.82,-144.7 1830.58,-137.58 2139,-96 2141.86,-95.61 2144.78,-95.17 2147.72,-94.68"/>
<polygon fill="#63b8ff" stroke="#63b8ff" points="1309.68,-142.34 1299.7,-145.91 1309.73,-149.34 1309.68,-142.34"/>
</a>
</g>
</g>
<!-- Node23 -->
<g id="Node000023" class="node">
<title>Node23</title>
<g id="a_Node000023"><a xlink:href="http__cache__fill_8c.html" target="_top" xlink:title=" ">
<polygon fill="white" stroke="#666666" points="2393.5,-96 2278.5,-96 2278.5,-66 2393.5,-66 2393.5,-96"/>
<text text-anchor="start" x="2286.5" y="-84" font-family="Helvetica,sans-Serif" font-size="10.00">src/protocols/shared</text>
<text text-anchor="middle" x="2336" y="-73" font-family="Helvetica,sans-Serif" font-size="10.00">/http_cache_fill.c</text>
</a>
</g>
</g>
<!-- Node1&#45;&gt;Node23 -->
<g id="edge23_Node000001_Node000023" class="edge">
<title>Node1&#45;&gt;Node23</title>
<g id="a_edge23_Node000001_Node000023"><a xlink:title=" ">
<path fill="none" stroke="#63b8ff" d="M1309.96,-146.36C1472.35,-146.49 1908.81,-142.13 2269,-96 2272.06,-95.61 2275.2,-95.15 2278.35,-94.65"/>
<polygon fill="#63b8ff" stroke="#63b8ff" points="1309.67,-142.86 1299.66,-146.34 1309.66,-149.86 1309.67,-142.86"/>
</a>
</g>
</g>
<!-- Node24 -->
<g id="Node000024" class="node">
<title>Node24</title>
<g id="a_Node000024"><a xlink:href="http__cache__fill__registry_8c.html" target="_top" xlink:title=" ">
<polygon fill="white" stroke="#666666" points="2552,-96 2412,-96 2412,-66 2552,-66 2552,-96"/>
<text text-anchor="start" x="2420" y="-84" font-family="Helvetica,sans-Serif" font-size="10.00">src/protocols/shared</text>
<text text-anchor="middle" x="2482" y="-73" font-family="Helvetica,sans-Serif" font-size="10.00">/http_cache_fill_registry.c</text>
</a>
</g>
</g>
<!-- Node1&#45;&gt;Node24 -->
<g id="edge24_Node000001_Node000024" class="edge">
<title>Node1&#45;&gt;Node24</title>
<g id="a_edge24_Node000001_Node000024"><a xlink:title=" ">
<path fill="none" stroke="#63b8ff" d="M1309.89,-146.2C1486.17,-146.09 1988.45,-141.48 2403,-96 2405.91,-95.68 2408.87,-95.32 2411.86,-94.93"/>
<polygon fill="#63b8ff" stroke="#63b8ff" points="1309.75,-142.7 1299.75,-146.2 1309.75,-149.7 1309.75,-142.7"/>
</a>
</g>
</g>
<!-- Node25 -->
<g id="Node000025" class="node">
<title>Node25</title>
<g id="a_Node000025"><a xlink:href="http__cache__fill__worker_8c.html" target="_top" xlink:title=" ">
<polygon fill="white" stroke="#666666" points="2706,-96 2570,-96 2570,-66 2706,-66 2706,-96"/>
<text text-anchor="start" x="2578" y="-84" font-family="Helvetica,sans-Serif" font-size="10.00">src/protocols/shared</text>
<text text-anchor="middle" x="2638" y="-73" font-family="Helvetica,sans-Serif" font-size="10.00">/http_cache_fill_worker.c</text>
</a>
</g>
</g>
<!-- Node1&#45;&gt;Node25 -->
<g id="edge25_Node000001_Node000025" class="edge">
<title>Node1&#45;&gt;Node25</title>
<g id="a_edge25_Node000001_Node000025"><a xlink:title=" ">
<path fill="none" stroke="#63b8ff" d="M1310.03,-144.75C1540.01,-140.15 2314.35,-122.97 2561,-96 2563.84,-95.69 2566.73,-95.34 2569.64,-94.95"/>
<polygon fill="#63b8ff" stroke="#63b8ff" points="1309.74,-141.26 1299.81,-144.96 1309.88,-148.26 1309.74,-141.26"/>
</a>
</g>
</g>
<!-- Node8&#45;&gt;Node7 -->
<g id="edge8_Node000008_Node000007" class="edge">
<title>Node8&#45;&gt;Node7</title>
<g id="a_edge8_Node000008_Node000007"><a xlink:title=" ">
<path fill="none" stroke="#63b8ff" d="M719.96,-62.86C688.17,-52.58 648.25,-39.68 618.35,-30.01"/>
<polygon fill="#63b8ff" stroke="#63b8ff" points="718.96,-66.21 729.55,-65.95 721.11,-59.55 718.96,-66.21"/>
</a>
</g>
</g>
<!-- Node9 -->
<g id="Node000009" class="node">
<title>Node9</title>
<g id="a_Node000009"><a xlink:href="sd__http__introspect_8c.html" target="_top" xlink:title=" ">
<polygon fill="white" stroke="#666666" points="766,-30 648,-30 648,0 766,0 766,-30"/>
<text text-anchor="start" x="656" y="-18" font-family="Helvetica,sans-Serif" font-size="10.00">src/fs/backend/http</text>
<text text-anchor="middle" x="707" y="-7" font-family="Helvetica,sans-Serif" font-size="10.00">/sd_http_introspect.c</text>
</a>
</g>
</g>
<!-- Node8&#45;&gt;Node9 -->
<g id="edge9_Node000008_Node000009" class="edge">
<title>Node8&#45;&gt;Node9</title>
<g id="a_edge9_Node000008_Node000009"><a xlink:title=" ">
<path fill="none" stroke="#63b8ff" d="M750.98,-58.65C741.31,-49.27 730.23,-38.53 721.61,-30.16"/>
<polygon fill="#63b8ff" stroke="#63b8ff" points="748.74,-61.35 758.35,-65.8 753.61,-56.32 748.74,-61.35"/>
</a>
</g>
</g>
<!-- Node10 -->
<g id="Node000010" class="node">
<title>Node10</title>
<g id="a_Node000010"><a xlink:href="sd__http__read_8c.html" target="_top" xlink:title=" ">
<polygon fill="white" stroke="#666666" points="893.5,-30 784.5,-30 784.5,0 893.5,0 893.5,-30"/>
<text text-anchor="start" x="792.5" y="-18" font-family="Helvetica,sans-Serif" font-size="10.00">src/fs/backend/http</text>
<text text-anchor="middle" x="839" y="-7" font-family="Helvetica,sans-Serif" font-size="10.00">/sd_http_read.c</text>
</a>
</g>
</g>
<!-- Node8&#45;&gt;Node10 -->
<g id="edge10_Node000008_Node000010" class="edge">
<title>Node8&#45;&gt;Node10</title>
<g id="a_edge10_Node000008_Node000010"><a xlink:title=" ">
<path fill="none" stroke="#63b8ff" d="M795.02,-58.65C804.69,-49.27 815.77,-38.53 824.39,-30.16"/>
<polygon fill="#63b8ff" stroke="#63b8ff" points="792.39,-56.32 787.65,-65.8 797.26,-61.35 792.39,-56.32"/>
</a>
</g>
</g>
<!-- Node11 -->
<g id="Node000011" class="node">
<title>Node11</title>
<g id="a_Node000011"><a xlink:href="sd__http__select_8c.html" target="_top" xlink:title=" ">
<polygon fill="white" stroke="#666666" points="1020.5,-30 911.5,-30 911.5,0 1020.5,0 1020.5,-30"/>
<text text-anchor="start" x="919.5" y="-18" font-family="Helvetica,sans-Serif" font-size="10.00">src/fs/backend/http</text>
<text text-anchor="middle" x="966" y="-7" font-family="Helvetica,sans-Serif" font-size="10.00">/sd_http_select.c</text>
</a>
</g>
</g>
<!-- Node8&#45;&gt;Node11 -->
<g id="edge11_Node000008_Node000011" class="edge">
<title>Node8&#45;&gt;Node11</title>
<g id="a_edge11_Node000008_Node000011"><a xlink:title=" ">
<path fill="none" stroke="#63b8ff" d="M825.1,-62.72C856.02,-52.47 894.73,-39.63 923.74,-30.01"/>
<polygon fill="#63b8ff" stroke="#63b8ff" points="823.74,-59.49 815.35,-65.95 825.95,-66.13 823.74,-59.49"/>
</a>
</g>
</g>
<!-- Node12 -->
<g id="Node000012" class="node">
<title>Node12</title>
<g id="a_Node000012"><a xlink:href="sd__http__write_8c.html" target="_top" xlink:title=" ">
<polygon fill="white" stroke="#666666" points="1147.5,-30 1038.5,-30 1038.5,0 1147.5,0 1147.5,-30"/>
<text text-anchor="start" x="1046.5" y="-18" font-family="Helvetica,sans-Serif" font-size="10.00">src/fs/backend/http</text>
<text text-anchor="middle" x="1093" y="-7" font-family="Helvetica,sans-Serif" font-size="10.00">/sd_http_write.c</text>
</a>
</g>
</g>
<!-- Node8&#45;&gt;Node12 -->
<g id="edge12_Node000008_Node000012" class="edge">
<title>Node8&#45;&gt;Node12</title>
<g id="a_edge12_Node000008_Node000012"><a xlink:title=" ">
<path fill="none" stroke="#63b8ff" d="M837.78,-65.88C924.19,-48.57 947.6,-46.84 1030,-30 1032.74,-29.44 1035.55,-28.85 1038.39,-28.26"/>
<polygon fill="#63b8ff" stroke="#63b8ff" points="836.9,-62.49 827.79,-67.9 838.28,-69.35 836.9,-62.49"/>
</a>
</g>
</g>
</g>
</svg>
