<?xml version="1.0" encoding="UTF-8" standalone="no"?>
<!DOCTYPE svg PUBLIC "-//W3C//DTD SVG 1.1//EN"
 "http://www.w3.org/Graphics/SVG/1.1/DTD/svg11.dtd">
<!-- Generated by graphviz version 2.43.0 (0)
 -->
<!-- Title: src/core/seccomp/seccomp.c Pages: 1 -->
<svg width="525pt" height="203pt"
 viewBox="0.00 0.00 524.50 203.00" xmlns="http://www.w3.org/2000/svg" xmlns:xlink="http://www.w3.org/1999/xlink">
<g id="graph0" class="graph" transform="scale(1 1) rotate(0) translate(4 199)">
<title>src/core/seccomp/seccomp.c</title>
<!-- Node1 -->
<g id="Node000001" class="node">
<title>Node1</title>
<g id="a_Node000001"><a xlink:title=" ">
<polygon fill="#999999" stroke="#666666" points="389,-195 233,-195 233,-176 389,-176 389,-195"/>
<text text-anchor="middle" x="311" y="-183" font-family="Helvetica,sans-Serif" font-size="10.00">src/core/seccomp/seccomp.c</text>
</a>
</g>
</g>
<!-- Node2 -->
<g id="Node000002" class="node">
<title>Node2</title>
<g id="a_Node000002"><a xlink:href="seccomp_8h.html" target="_top" xlink:title=" ">
<polygon fill="white" stroke="#666666" points="155,-134.5 15,-134.5 15,-115.5 155,-115.5 155,-134.5"/>
<text text-anchor="middle" x="85" y="-122.5" font-family="Helvetica,sans-Serif" font-size="10.00">core/seccomp/seccomp.h</text>
</a>
</g>
</g>
<!-- Node1&#45;&gt;Node2 -->
<g id="edge1_Node000001_Node000002" class="edge">
<title>Node1&#45;&gt;Node2</title>
<g id="a_edge1_Node000001_Node000002"><a xlink:title=" ">
<path fill="none" stroke="#63b8ff" d="M278.14,-175.99C238.39,-165.7 171.37,-148.36 127.67,-137.04"/>
<polygon fill="#63b8ff" stroke="#63b8ff" points="128.46,-133.63 117.9,-134.52 126.71,-140.41 128.46,-133.63"/>
</a>
</g>
</g>
<!-- Node5 -->
<g id="Node000005" class="node">
<title>Node5</title>
<g id="a_Node000005"><a xlink:href="seccomp__core_8h.html" target="_top" xlink:title=" ">
<polygon fill="white" stroke="#666666" points="304.5,-140 173.5,-140 173.5,-110 304.5,-110 304.5,-140"/>
<text text-anchor="start" x="181.5" y="-128" font-family="Helvetica,sans-Serif" font-size="10.00">core/seccomp/seccomp</text>
<text text-anchor="middle" x="239" y="-117" font-family="Helvetica,sans-Serif" font-size="10.00">_core.h</text>
</a>
</g>
</g>
<!-- Node1&#45;&gt;Node5 -->
<g id="edge4_Node000001_Node000005" class="edge">
<title>Node1&#45;&gt;Node5</title>
<g id="a_edge4_Node000001_Node000005"><a xlink:title=" ">
<path fill="none" stroke="#63b8ff" d="M300.38,-175.87C290.88,-168.15 276.58,-156.54 264.18,-146.46"/>
<polygon fill="#63b8ff" stroke="#63b8ff" points="266.34,-143.7 256.37,-140.11 261.93,-149.14 266.34,-143.7"/>
</a>
</g>
</g>
<!-- Node6 -->
<g id="Node000006" class="node">
<title>Node6</title>
<g id="a_Node000006"><a xlink:href="tunables_8h.html" target="_top" xlink:title=" ">
<polygon fill="white" stroke="#666666" points="445,-134.5 323,-134.5 323,-115.5 445,-115.5 445,-134.5"/>
<text text-anchor="middle" x="384" y="-122.5" font-family="Helvetica,sans-Serif" font-size="10.00">core/types/tunables.h</text>
</a>
</g>
</g>
<!-- Node1&#45;&gt;Node6 -->
<g id="edge5_Node000001_Node000006" class="edge">
<title>Node1&#45;&gt;Node6</title>
<g id="a_edge5_Node000001_Node000006"><a xlink:title=" ">
<path fill="none" stroke="#63b8ff" d="M321.77,-175.87C333.2,-166.71 351.48,-152.06 365.28,-141.01"/>
<polygon fill="#63b8ff" stroke="#63b8ff" points="367.57,-143.65 373.18,-134.67 363.19,-138.19 367.57,-143.65"/>
</a>
</g>
</g>
<!-- Node9 -->
<g id="Node000009" class="node">
<title>Node9</title>
<g id="a_Node000009"><a xlink:title=" ">
<polygon fill="#e0e0e0" stroke="#999999" points="516.5,-134.5 463.5,-134.5 463.5,-115.5 516.5,-115.5 516.5,-134.5"/>
<text text-anchor="middle" x="490" y="-122.5" font-family="Helvetica,sans-Serif" font-size="10.00">string.h</text>
</a>
</g>
</g>
<!-- Node1&#45;&gt;Node9 -->
<g id="edge8_Node000001_Node000009" class="edge">
<title>Node1&#45;&gt;Node9</title>
<g id="a_edge8_Node000001_Node000009"><a xlink:title=" ">
<path fill="none" stroke="#63b8ff" d="M340.5,-175.97C369.55,-167.42 415.1,-153.6 454,-140 455.65,-139.42 457.34,-138.82 459.05,-138.19"/>
<polygon fill="#63b8ff" stroke="#63b8ff" points="460.64,-141.33 468.77,-134.54 458.18,-134.78 460.64,-141.33"/>
</a>
</g>
</g>
<!-- Node3 -->
<g id="Node000003" class="node">
<title>Node3</title>
<g id="a_Node000003"><a xlink:title=" ">
<polygon fill="#e0e0e0" stroke="#999999" points="78,-74 0,-74 0,-55 78,-55 78,-74"/>
<text text-anchor="middle" x="39" y="-62" font-family="Helvetica,sans-Serif" font-size="10.00">ngx_config.h</text>
</a>
</g>
</g>
<!-- Node2&#45;&gt;Node3 -->
<g id="edge2_Node000002_Node000003" class="edge">
<title>Node2&#45;&gt;Node3</title>
<g id="a_edge2_Node000002_Node000003"><a xlink:title=" ">
<path fill="none" stroke="#63b8ff" d="M78.21,-115.37C71.35,-106.64 60.57,-92.93 52.05,-82.09"/>
<polygon fill="#63b8ff" stroke="#63b8ff" points="54.75,-79.86 45.82,-74.17 49.25,-84.19 54.75,-79.86"/>
</a>
</g>
</g>
<!-- Node4 -->
<g id="Node000004" class="node">
<title>Node4</title>
<g id="a_Node000004"><a xlink:title=" ">
<polygon fill="#e0e0e0" stroke="#999999" points="166,-74 96,-74 96,-55 166,-55 166,-74"/>
<text text-anchor="middle" x="131" y="-62" font-family="Helvetica,sans-Serif" font-size="10.00">ngx_core.h</text>
</a>
</g>
</g>
<!-- Node2&#45;&gt;Node4 -->
<g id="edge3_Node000002_Node000004" class="edge">
<title>Node2&#45;&gt;Node4</title>
<g id="a_edge3_Node000002_Node000004"><a xlink:title=" ">
<path fill="none" stroke="#63b8ff" d="M91.79,-115.37C98.65,-106.64 109.43,-92.93 117.95,-82.09"/>
<polygon fill="#63b8ff" stroke="#63b8ff" points="120.75,-84.19 124.18,-74.17 115.25,-79.86 120.75,-84.19"/>
</a>
</g>
</g>
<!-- Node7 -->
<g id="Node000007" class="node">
<title>Node7</title>
<g id="a_Node000007"><a xlink:href="core_2compat_2path_8h.html" target="_top" xlink:title=" ">
<polygon fill="white" stroke="#666666" points="439.5,-74 328.5,-74 328.5,-55 439.5,-55 439.5,-74"/>
<text text-anchor="middle" x="384" y="-62" font-family="Helvetica,sans-Serif" font-size="10.00">core/compat/path.h</text>
</a>
</g>
</g>
<!-- Node6&#45;&gt;Node7 -->
<g id="edge6_Node000006_Node000007" class="edge">
<title>Node6&#45;&gt;Node7</title>
<g id="a_edge6_Node000006_Node000007"><a xlink:title=" ">
<path fill="none" stroke="#63b8ff" d="M384,-115.37C384,-107.25 384,-94.81 384,-84.39"/>
<polygon fill="#63b8ff" stroke="#63b8ff" points="387.5,-84.17 384,-74.17 380.5,-84.17 387.5,-84.17"/>
</a>
</g>
</g>
<!-- Node8 -->
<g id="Node000008" class="node">
<title>Node8</title>
<g id="a_Node000008"><a xlink:title=" ">
<polygon fill="#e0e0e0" stroke="#999999" points="412,-19 356,-19 356,0 412,0 412,-19"/>
<text text-anchor="middle" x="384" y="-7" font-family="Helvetica,sans-Serif" font-size="10.00">stddef.h</text>
</a>
</g>
</g>
<!-- Node7&#45;&gt;Node8 -->
<g id="edge7_Node000007_Node000008" class="edge">
<title>Node7&#45;&gt;Node8</title>
<g id="a_edge7_Node000007_Node000008"><a xlink:title=" ">
<path fill="none" stroke="#63b8ff" d="M384,-54.75C384,-47.8 384,-37.85 384,-29.13"/>
<polygon fill="#63b8ff" stroke="#63b8ff" points="387.5,-29.09 384,-19.09 380.5,-29.09 387.5,-29.09"/>
</a>
</g>
</g>
</g>
</svg>
