<?xml version="1.0" encoding="UTF-8" standalone="no"?>
<!DOCTYPE svg PUBLIC "-//W3C//DTD SVG 1.1//EN"
 "http://www.w3.org/Graphics/SVG/1.1/DTD/svg11.dtd">
<!-- Generated by graphviz version 2.43.0 (0)
 -->
<!-- Title: src/protocols/cvmfs/secure.c Pages: 1 -->
<!--zoomable 280 -->

<svg id="main" version="1.1" xmlns="http://www.w3.org/2000/svg" xmlns:xlink="http://www.w3.org/1999/xlink" xml:space="preserve" onload="init(evt)">
<style type="text/css"><![CDATA[
.node, .edge {opacity: 0.7;}
.node.selected, .edge.selected {opacity: 1;}
.edge:hover path { stroke: red; }
.edge:hover polygon { stroke: red; fill: red; }
]]></style>

<defs>
  <circle id="rim" cx="0" cy="0" r="7"/>
  <circle id="rim2" cx="0" cy="0" r="3.5"/>
  <g id="zoomPlus">
    <use xlink:href="#rim" fill="#404040"><set attributeName="fill" to="#808080" begin="zoomplus.mouseover" end="zoomplus.mouseout"/></use>
    <path d="M-4,0h8M0,-4v8" fill="none" stroke="white" stroke-width="1.5" pointer-events="none"/>
  </g>
  <g id="zoomMin">
    <use xlink:href="#rim" fill="#404040"><set attributeName="fill" to="#808080" begin="zoomminus.mouseover" end="zoomminus.mouseout"/></use>
    <path d="M-4,0h8" fill="none" stroke="white" stroke-width="1.5" pointer-events="none"/>
  </g>
  <g id="arrowUp" transform="translate(30 24)">
    <use xlink:href="#rim"/>
    <path pointer-events="none" fill="none" stroke="white" stroke-width="1.5" d="M0,-3.0v7 M-2.5,-0.5L0,-3.0L2.5,-0.5"/>
  </g>
  <g id="arrowRight" transform="rotate(90) translate(36 -43)">
    <use xlink:href="#rim"/>
    <path pointer-events="none" fill="none" stroke="white" stroke-width="1.5" d="M0,-3.0v7 M-2.5,-0.5L0,-3.0L2.5,-0.5"/>
  </g>
  <g id="arrowDown" transform="rotate(180) translate(-30 -48)">
    <use xlink:href="#rim"/>
    <path pointer-events="none" fill="none" stroke="white" stroke-width="1.5" d="M0,-3.0v7 M-2.5,-0.5L0,-3.0L2.5,-0.5"/>
  </g>
  <g id="arrowLeft" transform="rotate(270) translate(-36 17)">
    <use xlink:href="#rim"/>
    <path pointer-events="none" fill="none" stroke="white" stroke-width="1.5" d="M0,-3.0v7 M-2.5,-0.5L0,-3.0L2.5,-0.5"/>
  </g>
  <g id="resetDef">
    <use xlink:href="#rim2" fill="#404040"><set attributeName="fill" to="#808080" begin="reset.mouseover" end="reset.mouseout"/></use>
  </g>
</defs>
<script type="application/ecmascript">
var viewWidth = 2230;
var viewHeight = 280;
var sectionId = 'dynsection-0';
</script>
<script type="application/ecmascript" xlink:href="svg.min.js"/>
<svg id="graph" class="graph">
<g id="viewport">
<title>src/protocols/cvmfs/secure.c</title>
<!-- Node1 -->
<g id="Node000001" class="node">
<title>Node1</title>
<g id="a_Node000001"><a xlink:title=" ">
<polygon fill="#999999" stroke="#666666" points="2002.55,-272 1890.55,-272 1890.55,-242 2002.55,-242 2002.55,-272"/>
<text text-anchor="start" x="1898.55" y="-260" font-family="Helvetica,sans-Serif" font-size="10.00">src/protocols/cvmfs</text>
<text text-anchor="middle" x="1946.55" y="-249" font-family="Helvetica,sans-Serif" font-size="10.00">/secure.c</text>
</a>
</g>
</g>
<!-- Node2 -->
<g id="Node000002" class="node">
<title>Node2</title>
<g id="a_Node000002"><a xlink:href="cvmfs_8h.html" target="_top" xlink:title=" ">
<polygon fill="white" stroke="#666666" points="474.55,-206 418.55,-206 418.55,-187 474.55,-187 474.55,-206"/>
<text text-anchor="middle" x="446.55" y="-194" font-family="Helvetica,sans-Serif" font-size="10.00">cvmfs.h</text>
</a>
</g>
</g>
<!-- Node1&#45;&gt;Node2 -->
<g id="edge1_Node000001_Node000002" class="edge">
<title>Node1&#45;&gt;Node2</title>
<g id="a_edge1_Node000001_Node000002"><a xlink:title=" ">
<path fill="none" stroke="#63b8ff" d="M1890.48,-253.81C1647.52,-244.34 688.62,-206.94 484.77,-198.99"/>
<polygon fill="#63b8ff" stroke="#63b8ff" points="484.69,-195.49 474.57,-198.59 484.42,-202.48 484.69,-195.49"/>
</a>
</g>
</g>
<!-- Node17 -->
<g id="Node000017" class="node">
<title>Node17</title>
<g id="a_Node000017"><a xlink:title=" ">
<polygon fill="#e0e0e0" stroke="#999999" points="1918.05,-79.5 1865.05,-79.5 1865.05,-60.5 1918.05,-60.5 1918.05,-79.5"/>
<text text-anchor="middle" x="1891.55" y="-67.5" font-family="Helvetica,sans-Serif" font-size="10.00">limits.h</text>
</a>
</g>
</g>
<!-- Node1&#45;&gt;Node17 -->
<g id="edge54_Node000001_Node000017" class="edge">
<title>Node1&#45;&gt;Node17</title>
<g id="a_edge54_Node000001_Node000017"><a xlink:title=" ">
<path fill="none" stroke="#63b8ff" d="M1946.56,-241.65C1946.12,-216.36 1943.11,-162.6 1926.55,-121 1921.74,-108.91 1913.49,-96.92 1906.21,-87.71"/>
<polygon fill="#63b8ff" stroke="#63b8ff" points="1908.75,-85.29 1899.67,-79.82 1903.36,-89.76 1908.75,-85.29"/>
</a>
</g>
</g>
<!-- Node28 -->
<g id="Node000028" class="node">
<title>Node28</title>
<g id="a_Node000028"><a xlink:href="issuer__registry_8h.html" target="_top" xlink:title=" ">
<polygon fill="white" stroke="#666666" points="1915.05,-206 1764.05,-206 1764.05,-187 1915.05,-187 1915.05,-206"/>
<text text-anchor="middle" x="1839.55" y="-194" font-family="Helvetica,sans-Serif" font-size="10.00">auth/token/issuer_registry.h</text>
</a>
</g>
</g>
<!-- Node1&#45;&gt;Node28 -->
<g id="edge42_Node000001_Node000028" class="edge">
<title>Node1&#45;&gt;Node28</title>
<g id="a_edge42_Node000001_Node000028"><a xlink:title=" ">
<path fill="none" stroke="#63b8ff" d="M1920.92,-241.99C1903.71,-232.58 1881.15,-220.24 1864.15,-210.95"/>
<polygon fill="#63b8ff" stroke="#63b8ff" points="1865.8,-207.87 1855.35,-206.14 1862.45,-214.01 1865.8,-207.87"/>
</a>
</g>
</g>
<!-- Node31 -->
<g id="Node000031" class="node">
<title>Node31</title>
<g id="a_Node000031"><a xlink:href="cstr_8h.html" target="_top" xlink:title=" ">
<polygon fill="white" stroke="#666666" points="2222.05,-206 2115.05,-206 2115.05,-187 2222.05,-187 2222.05,-206"/>
<text text-anchor="middle" x="2168.55" y="-194" font-family="Helvetica,sans-Serif" font-size="10.00">core/compat/cstr.h</text>
</a>
</g>
</g>
<!-- Node1&#45;&gt;Node31 -->
<g id="edge48_Node000001_Node000031" class="edge">
<title>Node1&#45;&gt;Node31</title>
<g id="a_edge48_Node000001_Node000031"><a xlink:title=" ">
<path fill="none" stroke="#63b8ff" d="M1999.72,-241.99C2038.53,-231.76 2090.43,-218.09 2126.39,-208.61"/>
<polygon fill="#63b8ff" stroke="#63b8ff" points="2127.31,-211.99 2136.09,-206.05 2125.53,-205.22 2127.31,-211.99"/>
</a>
</g>
</g>
<!-- Node34 -->
<g id="Node000034" class="node">
<title>Node34</title>
<g id="a_Node000034"><a xlink:href="tunables_8h.html" target="_top" xlink:title=" ">
<polygon fill="white" stroke="#666666" points="2096.55,-206 1974.55,-206 1974.55,-187 2096.55,-187 2096.55,-206"/>
<text text-anchor="middle" x="2035.55" y="-194" font-family="Helvetica,sans-Serif" font-size="10.00">core/types/tunables.h</text>
</a>
</g>
</g>
<!-- Node1&#45;&gt;Node34 -->
<g id="edge51_Node000001_Node000034" class="edge">
<title>Node1&#45;&gt;Node34</title>
<g id="a_edge51_Node000001_Node000034"><a xlink:title=" ">
<path fill="none" stroke="#63b8ff" d="M1968.09,-241.84C1982.02,-232.68 2000.08,-220.82 2014,-211.66"/>
<polygon fill="#63b8ff" stroke="#63b8ff" points="2016.04,-214.51 2022.47,-206.09 2012.19,-208.66 2016.04,-214.51"/>
</a>
</g>
</g>
<!-- Node3 -->
<g id="Node000003" class="node">
<title>Node3</title>
<g id="a_Node000003"><a xlink:title=" ">
<polygon fill="#e0e0e0" stroke="#999999" points="435.55,-19 357.55,-19 357.55,0 435.55,0 435.55,-19"/>
<text text-anchor="middle" x="396.55" y="-7" font-family="Helvetica,sans-Serif" font-size="10.00">ngx_config.h</text>
</a>
</g>
</g>
<!-- Node2&#45;&gt;Node3 -->
<g id="edge2_Node000002_Node000003" class="edge">
<title>Node2&#45;&gt;Node3</title>
<g id="a_edge2_Node000002_Node000003"><a xlink:title=" ">
<path fill="none" stroke="#63b8ff" d="M418.3,-194.35C342.71,-190.94 137.44,-179.25 76.55,-151 37.47,-132.87 22.76,-124.5 5.55,-85 0.22,-72.78 -3.33,-64.95 5.55,-55 27.93,-29.93 246.94,-17.11 347.06,-12.52"/>
<polygon fill="#63b8ff" stroke="#63b8ff" points="347.4,-16.01 357.23,-12.06 347.08,-9.01 347.4,-16.01"/>
</a>
</g>
</g>
<!-- Node4 -->
<g id="Node000004" class="node">
<title>Node4</title>
<g id="a_Node000004"><a xlink:title=" ">
<polygon fill="#e0e0e0" stroke="#999999" points="1425.55,-19 1355.55,-19 1355.55,0 1425.55,0 1425.55,-19"/>
<text text-anchor="middle" x="1390.55" y="-7" font-family="Helvetica,sans-Serif" font-size="10.00">ngx_core.h</text>
</a>
</g>
</g>
<!-- Node2&#45;&gt;Node4 -->
<g id="edge3_Node000002_Node000004" class="edge">
<title>Node2&#45;&gt;Node4</title>
<g id="a_edge3_Node000002_Node000004"><a xlink:title=" ">
<path fill="none" stroke="#63b8ff" d="M474.56,-195.09C607.58,-193.01 1176.19,-182.41 1350.55,-151 1446,-133.81 1501.27,-163.27 1558.55,-85 1592.3,-38.88 1496.56,-20.82 1436.02,-14.14"/>
<polygon fill="#63b8ff" stroke="#63b8ff" points="1436.2,-10.64 1425.9,-13.09 1435.48,-17.6 1436.2,-10.64"/>
</a>
</g>
</g>
<!-- Node5 -->
<g id="Node000005" class="node">
<title>Node5</title>
<g id="a_Node000005"><a xlink:title=" ">
<polygon fill="#e0e0e0" stroke="#999999" points="294.55,-145.5 226.55,-145.5 226.55,-126.5 294.55,-126.5 294.55,-145.5"/>
<text text-anchor="middle" x="260.55" y="-133.5" font-family="Helvetica,sans-Serif" font-size="10.00">ngx_http.h</text>
</a>
</g>
</g>
<!-- Node2&#45;&gt;Node5 -->
<g id="edge4_Node000002_Node000005" class="edge">
<title>Node2&#45;&gt;Node5</title>
<g id="a_edge4_Node000002_Node000005"><a xlink:title=" ">
<path fill="none" stroke="#63b8ff" d="M418.83,-186.99C390,-178.12 343.56,-163.74 303.55,-151 301.28,-150.28 298.94,-149.53 296.58,-148.77"/>
<polygon fill="#63b8ff" stroke="#63b8ff" points="297.5,-145.39 286.91,-145.64 295.35,-152.05 297.5,-145.39"/>
</a>
</g>
</g>
<!-- Node6 -->
<g id="Node000006" class="node">
<title>Node6</title>
<g id="a_Node000006"><a xlink:href="classify_8h.html" target="_top" xlink:title=" ">
<polygon fill="white" stroke="#666666" points="147.05,-145.5 86.05,-145.5 86.05,-126.5 147.05,-126.5 147.05,-145.5"/>
<text text-anchor="middle" x="116.55" y="-133.5" font-family="Helvetica,sans-Serif" font-size="10.00">classify.h</text>
</a>
</g>
</g>
<!-- Node2&#45;&gt;Node6 -->
<g id="edge5_Node000002_Node000006" class="edge">
<title>Node2&#45;&gt;Node6</title>
<g id="a_edge5_Node000002_Node000006"><a xlink:title=" ">
<path fill="none" stroke="#63b8ff" d="M418.41,-190.51C360,-180.16 225.37,-156.29 157.4,-144.24"/>
<polygon fill="#63b8ff" stroke="#63b8ff" points="157.93,-140.78 147.47,-142.48 156.71,-147.67 157.93,-140.78"/>
</a>
</g>
</g>
<!-- Node8 -->
<g id="Node000008" class="node">
<title>Node8</title>
<g id="a_Node000008"><a xlink:href="shared__conf_8h.html" target="_top" xlink:title=" ">
<polygon fill="white" stroke="#666666" points="418.55,-151 312.55,-151 312.55,-121 418.55,-121 418.55,-151"/>
<text text-anchor="start" x="320.55" y="-139" font-family="Helvetica,sans-Serif" font-size="10.00">core/config/shared</text>
<text text-anchor="middle" x="365.55" y="-128" font-family="Helvetica,sans-Serif" font-size="10.00">_conf.h</text>
</a>
</g>
</g>
<!-- Node2&#45;&gt;Node8 -->
<g id="edge7_Node000002_Node000008" class="edge">
<title>Node2&#45;&gt;Node8</title>
<g id="a_edge7_Node000002_Node000008"><a xlink:title=" ">
<path fill="none" stroke="#63b8ff" d="M434.6,-186.87C423.81,-179.08 407.53,-167.32 393.48,-157.17"/>
<polygon fill="#63b8ff" stroke="#63b8ff" points="395.25,-154.13 385.09,-151.11 391.15,-159.81 395.25,-154.13"/>
</a>
</g>
</g>
<!-- Node11 -->
<g id="Node000011" class="node">
<title>Node11</title>
<g id="a_Node000011"><a xlink:href="sd_8h.html" target="_top" xlink:title=" ">
<polygon fill="white" stroke="#666666" points="674.55,-145.5 582.55,-145.5 582.55,-126.5 674.55,-126.5 674.55,-145.5"/>
<text text-anchor="middle" x="628.55" y="-133.5" font-family="Helvetica,sans-Serif" font-size="10.00">fs/backend/sd.h</text>
</a>
</g>
</g>
<!-- Node2&#45;&gt;Node11 -->
<g id="edge12_Node000002_Node000011" class="edge">
<title>Node2&#45;&gt;Node11</title>
<g id="a_edge12_Node000002_Node000011"><a xlink:title=" ">
<path fill="none" stroke="#63b8ff" d="M473.01,-186.99C504.42,-176.9 556.95,-160.01 592.17,-148.69"/>
<polygon fill="#63b8ff" stroke="#63b8ff" points="593.6,-151.91 602.05,-145.52 591.46,-145.24 593.6,-151.91"/>
</a>
</g>
</g>
<!-- Node16 -->
<g id="Node000016" class="node">
<title>Node16</title>
<g id="a_Node000016"><a xlink:href="observability_2metrics_2metrics_8h.html" target="_top" xlink:title=" ">
<polygon fill="white" stroke="#666666" points="1341.55,-151 1221.55,-151 1221.55,-121 1341.55,-121 1341.55,-151"/>
<text text-anchor="start" x="1229.55" y="-139" font-family="Helvetica,sans-Serif" font-size="10.00">observability/metrics</text>
<text text-anchor="middle" x="1281.55" y="-128" font-family="Helvetica,sans-Serif" font-size="10.00">/metrics.h</text>
</a>
</g>
</g>
<!-- Node2&#45;&gt;Node16 -->
<g id="edge19_Node000002_Node000016" class="edge">
<title>Node2&#45;&gt;Node16</title>
<g id="a_edge19_Node000002_Node000016"><a xlink:title=" ">
<path fill="none" stroke="#63b8ff" d="M474.81,-193.52C591.42,-185.35 1037.24,-154.12 1211.33,-141.92"/>
<polygon fill="#63b8ff" stroke="#63b8ff" points="1211.67,-145.4 1221.4,-141.21 1211.18,-138.42 1211.67,-145.4"/>
</a>
</g>
</g>
<!-- Node27 -->
<g id="Node000027" class="node">
<title>Node27</title>
<g id="a_Node000027"><a xlink:href="metrics__macros_8h.html" target="_top" xlink:title=" ">
<polygon fill="white" stroke="#666666" points="786.55,-79.5 682.55,-79.5 682.55,-60.5 786.55,-60.5 786.55,-79.5"/>
<text text-anchor="middle" x="734.55" y="-67.5" font-family="Helvetica,sans-Serif" font-size="10.00">metrics_macros.h</text>
</a>
</g>
</g>
<!-- Node2&#45;&gt;Node27 -->
<g id="edge41_Node000002_Node000027" class="edge">
<title>Node2&#45;&gt;Node27</title>
<g id="a_edge41_Node000002_Node000027"><a xlink:title=" ">
<path fill="none" stroke="#63b8ff" d="M459.01,-186.87C481.19,-171.82 529.35,-140.52 573.55,-121 611.28,-104.34 656.26,-90.87 689.07,-82.13"/>
<polygon fill="#63b8ff" stroke="#63b8ff" points="690.06,-85.49 698.84,-79.57 688.28,-78.72 690.06,-85.49"/>
</a>
</g>
</g>
<!-- Node7 -->
<g id="Node000007" class="node">
<title>Node7</title>
<g id="a_Node000007"><a xlink:title=" ">
<polygon fill="#e0e0e0" stroke="#999999" points="156.55,-79.5 14.55,-79.5 14.55,-60.5 156.55,-60.5 156.55,-79.5"/>
<text text-anchor="middle" x="85.55" y="-67.5" font-family="Helvetica,sans-Serif" font-size="10.00">cvmfs/grammar/classify.h</text>
</a>
</g>
</g>
<!-- Node6&#45;&gt;Node7 -->
<g id="edge6_Node000006_Node000007" class="edge">
<title>Node6&#45;&gt;Node7</title>
<g id="a_edge6_Node000006_Node000007"><a xlink:title=" ">
<path fill="none" stroke="#63b8ff" d="M112.37,-126.37C107.77,-116.88 100.26,-101.36 94.35,-89.16"/>
<polygon fill="#63b8ff" stroke="#63b8ff" points="97.37,-87.38 89.86,-79.91 91.07,-90.43 97.37,-87.38"/>
</a>
</g>
</g>
<!-- Node9 -->
<g id="Node000009" class="node">
<title>Node9</title>
<g id="a_Node000009"><a xlink:title=" ">
<polygon fill="#e0e0e0" stroke="#999999" points="282.05,-79.5 175.05,-79.5 175.05,-60.5 282.05,-60.5 282.05,-79.5"/>
<text text-anchor="middle" x="228.55" y="-67.5" font-family="Helvetica,sans-Serif" font-size="10.00">ngx_thread_pool.h</text>
</a>
</g>
</g>
<!-- Node8&#45;&gt;Node9 -->
<g id="edge8_Node000008_Node000009" class="edge">
<title>Node8&#45;&gt;Node9</title>
<g id="a_edge8_Node000008_Node000009"><a xlink:title=" ">
<path fill="none" stroke="#63b8ff" d="M335.48,-120.95C311.78,-109.88 278.98,-94.56 255.98,-83.82"/>
<polygon fill="#63b8ff" stroke="#63b8ff" points="257.32,-80.58 246.78,-79.52 254.36,-86.92 257.32,-80.58"/>
</a>
</g>
</g>
<!-- Node10 -->
<g id="Node000010" class="node">
<title>Node10</title>
<g id="a_Node000010"><a xlink:href="pmark_8h.html" target="_top" xlink:title=" ">
<polygon fill="white" stroke="#666666" points="454.05,-85 339.05,-85 339.05,-55 454.05,-55 454.05,-85"/>
<text text-anchor="start" x="347.05" y="-73" font-family="Helvetica,sans-Serif" font-size="10.00">observability/pmark</text>
<text text-anchor="middle" x="396.55" y="-62" font-family="Helvetica,sans-Serif" font-size="10.00">/pmark.h</text>
</a>
</g>
</g>
<!-- Node8&#45;&gt;Node10 -->
<g id="edge9_Node000008_Node000010" class="edge">
<title>Node8&#45;&gt;Node10</title>
<g id="a_edge9_Node000008_Node000010"><a xlink:title=" ">
<path fill="none" stroke="#63b8ff" d="M372.43,-120.8C376.2,-113.01 380.97,-103.16 385.27,-94.28"/>
<polygon fill="#63b8ff" stroke="#63b8ff" points="388.48,-95.69 389.69,-85.16 382.18,-92.64 388.48,-95.69"/>
</a>
</g>
</g>
<!-- Node10&#45;&gt;Node3 -->
<g id="edge10_Node000010_Node000003" class="edge">
<title>Node10&#45;&gt;Node3</title>
<g id="a_edge10_Node000010_Node000003"><a xlink:title=" ">
<path fill="none" stroke="#63b8ff" d="M396.55,-54.84C396.55,-47.21 396.55,-37.7 396.55,-29.45"/>
<polygon fill="#63b8ff" stroke="#63b8ff" points="400.05,-29.27 396.55,-19.27 393.05,-29.27 400.05,-29.27"/>
</a>
</g>
</g>
<!-- Node10&#45;&gt;Node4 -->
<g id="edge11_Node000010_Node000004" class="edge">
<title>Node10&#45;&gt;Node4</title>
<g id="a_edge11_Node000010_Node000004"><a xlink:title=" ">
<path fill="none" stroke="#63b8ff" d="M454.22,-60.44C469.57,-58.4 486.17,-56.41 501.55,-55 824.06,-25.48 1214.32,-14.47 1345.26,-11.45"/>
<polygon fill="#63b8ff" stroke="#63b8ff" points="1345.41,-14.94 1355.32,-11.22 1345.25,-7.95 1345.41,-14.94"/>
</a>
</g>
</g>
<!-- Node11&#45;&gt;Node3 -->
<g id="edge13_Node000011_Node000003" class="edge">
<title>Node11&#45;&gt;Node3</title>
<g id="a_edge13_Node000011_Node000003"><a xlink:title=" ">
<path fill="none" stroke="#63b8ff" d="M600.53,-126.49C574.09,-117.89 533.82,-103.28 501.55,-85 482.52,-74.22 480.29,-67.79 462.55,-55 448.11,-44.6 431.5,-33.4 418.56,-24.84"/>
<polygon fill="#63b8ff" stroke="#63b8ff" points="420.14,-21.7 409.86,-19.13 416.3,-27.54 420.14,-21.7"/>
</a>
</g>
</g>
<!-- Node11&#45;&gt;Node4 -->
<g id="edge14_Node000011_Node000004" class="edge">
<title>Node11&#45;&gt;Node4</title>
<g id="a_edge14_Node000011_Node000004"><a xlink:title=" ">
<path fill="none" stroke="#63b8ff" d="M674.64,-132.17C764.48,-126.15 959.63,-110.53 1021.55,-85 1041.77,-76.66 1040.36,-63.41 1060.55,-55 1111.11,-33.93 1267.63,-19.67 1345.54,-13.68"/>
<polygon fill="#63b8ff" stroke="#63b8ff" points="1345.83,-17.17 1355.54,-12.93 1345.31,-10.19 1345.83,-17.17"/>
</a>
</g>
</g>
<!-- Node12 -->
<g id="Node000012" class="node">
<title>Node12</title>
<g id="a_Node000012"><a xlink:title=" ">
<polygon fill="#e0e0e0" stroke="#999999" points="936.05,-79.5 883.05,-79.5 883.05,-60.5 936.05,-60.5 936.05,-79.5"/>
<text text-anchor="middle" x="909.55" y="-67.5" font-family="Helvetica,sans-Serif" font-size="10.00">stdint.h</text>
</a>
</g>
</g>
<!-- Node11&#45;&gt;Node12 -->
<g id="edge15_Node000011_Node000012" class="edge">
<title>Node11&#45;&gt;Node12</title>
<g id="a_edge15_Node000011_Node000012"><a xlink:title=" ">
<path fill="none" stroke="#63b8ff" d="M674.72,-127.98C724.41,-119.87 805.46,-105.03 873.55,-85 875.48,-84.43 877.45,-83.81 879.43,-83.14"/>
<polygon fill="#63b8ff" stroke="#63b8ff" points="880.98,-86.3 889.2,-79.61 878.6,-79.72 880.98,-86.3"/>
</a>
</g>
</g>
<!-- Node13 -->
<g id="Node000013" class="node">
<title>Node13</title>
<g id="a_Node000013"><a xlink:title=" ">
<polygon fill="#e0e0e0" stroke="#999999" points="574.55,-79.5 510.55,-79.5 510.55,-60.5 574.55,-60.5 574.55,-79.5"/>
<text text-anchor="middle" x="542.55" y="-67.5" font-family="Helvetica,sans-Serif" font-size="10.00">sys/stat.h</text>
</a>
</g>
</g>
<!-- Node11&#45;&gt;Node13 -->
<g id="edge16_Node000011_Node000013" class="edge">
<title>Node11&#45;&gt;Node13</title>
<g id="a_edge16_Node000011_Node000013"><a xlink:title=" ">
<path fill="none" stroke="#63b8ff" d="M616.95,-126.37C602.97,-115.97 579.26,-98.32 562.37,-85.75"/>
<polygon fill="#63b8ff" stroke="#63b8ff" points="564.35,-82.86 554.24,-79.7 560.17,-88.48 564.35,-82.86"/>
</a>
</g>
</g>
<!-- Node14 -->
<g id="Node000014" class="node">
<title>Node14</title>
<g id="a_Node000014"><a xlink:title=" ">
<polygon fill="#e0e0e0" stroke="#999999" points="664.55,-79.5 592.55,-79.5 592.55,-60.5 664.55,-60.5 664.55,-79.5"/>
<text text-anchor="middle" x="628.55" y="-67.5" font-family="Helvetica,sans-Serif" font-size="10.00">sys/types.h</text>
</a>
</g>
</g>
<!-- Node11&#45;&gt;Node14 -->
<g id="edge17_Node000011_Node000014" class="edge">
<title>Node11&#45;&gt;Node14</title>
<g id="a_edge17_Node000011_Node000014"><a xlink:title=" ">
<path fill="none" stroke="#63b8ff" d="M628.55,-126.37C628.55,-117.16 628.55,-102.29 628.55,-90.27"/>
<polygon fill="#63b8ff" stroke="#63b8ff" points="632.05,-89.91 628.55,-79.91 625.05,-89.91 632.05,-89.91"/>
</a>
</g>
</g>
<!-- Node15 -->
<g id="Node000015" class="node">
<title>Node15</title>
<g id="a_Node000015"><a xlink:title=" ">
<polygon fill="#e0e0e0" stroke="#999999" points="864.55,-79.5 804.55,-79.5 804.55,-60.5 864.55,-60.5 864.55,-79.5"/>
<text text-anchor="middle" x="834.55" y="-67.5" font-family="Helvetica,sans-Serif" font-size="10.00">sys/uio.h</text>
</a>
</g>
</g>
<!-- Node11&#45;&gt;Node15 -->
<g id="edge18_Node000011_Node000015" class="edge">
<title>Node11&#45;&gt;Node15</title>
<g id="a_edge18_Node000011_Node000015"><a xlink:title=" ">
<path fill="none" stroke="#63b8ff" d="M658.87,-126.45C692.45,-116.86 748.11,-100.6 795.55,-85 797.45,-84.38 799.39,-83.72 801.35,-83.05"/>
<polygon fill="#63b8ff" stroke="#63b8ff" points="802.82,-86.25 811.11,-79.64 800.51,-79.64 802.82,-86.25"/>
</a>
</g>
</g>
<!-- Node16&#45;&gt;Node4 -->
<g id="edge22_Node000016_Node000004" class="edge">
<title>Node16&#45;&gt;Node4</title>
<g id="a_edge22_Node000016_Node000004"><a xlink:title=" ">
<path fill="none" stroke="#63b8ff" d="M1290.08,-120.93C1300.48,-104.32 1319.09,-76.26 1338.55,-55 1348.32,-44.32 1360.58,-33.72 1370.73,-25.55"/>
<polygon fill="#63b8ff" stroke="#63b8ff" points="1372.97,-28.24 1378.67,-19.31 1368.65,-22.74 1372.97,-28.24"/>
</a>
</g>
</g>
<!-- Node16&#45;&gt;Node12 -->
<g id="edge21_Node000016_Node000012" class="edge">
<title>Node16&#45;&gt;Node12</title>
<g id="a_edge21_Node000016_Node000012"><a xlink:title=" ">
<path fill="none" stroke="#63b8ff" d="M1221.33,-130.33C1153.24,-124.07 1039.48,-110.65 944.55,-85 942.39,-84.42 940.19,-83.74 937.99,-83.01"/>
<polygon fill="#63b8ff" stroke="#63b8ff" points="939.12,-79.69 928.53,-79.53 936.71,-86.26 939.12,-79.69"/>
</a>
</g>
</g>
<!-- Node16&#45;&gt;Node17 -->
<g id="edge20_Node000016_Node000017" class="edge">
<title>Node16&#45;&gt;Node17</title>
<g id="a_edge20_Node000016_Node000017"><a xlink:title=" ">
<path fill="none" stroke="#63b8ff" d="M1341.93,-131.16C1441.25,-124.45 1645.17,-108.95 1816.55,-85 1829.15,-83.24 1842.86,-80.83 1855.07,-78.5"/>
<polygon fill="#63b8ff" stroke="#63b8ff" points="1855.77,-81.93 1864.92,-76.58 1854.43,-75.06 1855.77,-81.93"/>
</a>
</g>
</g>
<!-- Node18 -->
<g id="Node000018" class="node">
<title>Node18</title>
<g id="a_Node000018"><a xlink:href="fs__list_8h.html" target="_top" xlink:title=" ">
<polygon fill="white" stroke="#666666" points="1179.05,-79.5 1070.05,-79.5 1070.05,-60.5 1179.05,-60.5 1179.05,-79.5"/>
<text text-anchor="middle" x="1124.55" y="-67.5" font-family="Helvetica,sans-Serif" font-size="10.00">core/types/fs_list.h</text>
</a>
</g>
</g>
<!-- Node16&#45;&gt;Node18 -->
<g id="edge23_Node000016_Node000018" class="edge">
<title>Node16&#45;&gt;Node18</title>
<g id="a_edge23_Node000016_Node000018"><a xlink:title=" ">
<path fill="none" stroke="#63b8ff" d="M1247.09,-120.95C1219.56,-109.73 1181.34,-94.15 1154.94,-83.39"/>
<polygon fill="#63b8ff" stroke="#63b8ff" points="1156.02,-80.05 1145.44,-79.52 1153.38,-86.53 1156.02,-80.05"/>
</a>
</g>
</g>
<!-- Node19 -->
<g id="Node000019" class="node">
<title>Node19</title>
<g id="a_Node000019"><a xlink:href="observability_2metrics_2unified_8h.html" target="_top" xlink:title=" ">
<polygon fill="white" stroke="#666666" points="1013.05,-79.5 954.05,-79.5 954.05,-60.5 1013.05,-60.5 1013.05,-79.5"/>
<text text-anchor="middle" x="983.55" y="-67.5" font-family="Helvetica,sans-Serif" font-size="10.00">unified.h</text>
</a>
</g>
</g>
<!-- Node16&#45;&gt;Node19 -->
<g id="edge24_Node000016_Node000019" class="edge">
<title>Node16&#45;&gt;Node19</title>
<g id="a_edge24_Node000016_Node000019"><a xlink:title=" ">
<path fill="none" stroke="#63b8ff" d="M1221.24,-122.05C1162.21,-109.37 1073.98,-90.42 1023.27,-79.53"/>
<polygon fill="#63b8ff" stroke="#63b8ff" points="1023.86,-76.08 1013.34,-77.4 1022.39,-82.92 1023.86,-76.08"/>
</a>
</g>
</g>
<!-- Node21 -->
<g id="Node000021" class="node">
<title>Node21</title>
<g id="a_Node000021"><a xlink:href="metrics__webdav_8h.html" target="_top" xlink:title=" ">
<polygon fill="white" stroke="#666666" points="1808.05,-79.5 1703.05,-79.5 1703.05,-60.5 1808.05,-60.5 1808.05,-79.5"/>
<text text-anchor="middle" x="1755.55" y="-67.5" font-family="Helvetica,sans-Serif" font-size="10.00">metrics_webdav.h</text>
</a>
</g>
</g>
<!-- Node16&#45;&gt;Node21 -->
<g id="edge28_Node000016_Node000021" class="edge">
<title>Node16&#45;&gt;Node21</title>
<g id="a_edge28_Node000016_Node000021"><a xlink:title=" ">
<path fill="none" stroke="#63b8ff" d="M1341.87,-129.61C1422.4,-121.98 1569.31,-106.51 1693.55,-85 1699.05,-84.05 1704.81,-82.92 1710.49,-81.73"/>
<polygon fill="#63b8ff" stroke="#63b8ff" points="1711.56,-85.08 1720.59,-79.54 1710.07,-78.24 1711.56,-85.08"/>
</a>
</g>
</g>
<!-- Node23 -->
<g id="Node000023" class="node">
<title>Node23</title>
<g id="a_Node000023"><a xlink:href="metrics__s3_8h.html" target="_top" xlink:title=" ">
<polygon fill="white" stroke="#666666" points="1685.05,-79.5 1606.05,-79.5 1606.05,-60.5 1685.05,-60.5 1685.05,-79.5"/>
<text text-anchor="middle" x="1645.55" y="-67.5" font-family="Helvetica,sans-Serif" font-size="10.00">metrics_s3.h</text>
</a>
</g>
</g>
<!-- Node16&#45;&gt;Node23 -->
<g id="edge31_Node000016_Node000023" class="edge">
<title>Node16&#45;&gt;Node23</title>
<g id="a_edge31_Node000016_Node000023"><a xlink:title=" ">
<path fill="none" stroke="#63b8ff" d="M1341.66,-124.43C1412.67,-111.95 1529.51,-91.4 1595.71,-79.76"/>
<polygon fill="#63b8ff" stroke="#63b8ff" points="1596.65,-83.15 1605.89,-77.97 1595.43,-76.26 1596.65,-83.15"/>
</a>
</g>
</g>
<!-- Node24 -->
<g id="Node000024" class="node">
<title>Node24</title>
<g id="a_Node000024"><a xlink:href="metrics__frm_8h.html" target="_top" xlink:title=" ">
<polygon fill="white" stroke="#666666" points="1433.05,-79.5 1348.05,-79.5 1348.05,-60.5 1433.05,-60.5 1433.05,-79.5"/>
<text text-anchor="middle" x="1390.55" y="-67.5" font-family="Helvetica,sans-Serif" font-size="10.00">metrics_frm.h</text>
</a>
</g>
</g>
<!-- Node16&#45;&gt;Node24 -->
<g id="edge34_Node000016_Node000024" class="edge">
<title>Node16&#45;&gt;Node24</title>
<g id="a_edge34_Node000016_Node000024"><a xlink:title=" ">
<path fill="none" stroke="#63b8ff" d="M1305.47,-120.95C1323.83,-110.18 1349.03,-95.38 1367.23,-84.69"/>
<polygon fill="#63b8ff" stroke="#63b8ff" points="1369.19,-87.6 1376.04,-79.52 1365.65,-81.56 1369.19,-87.6"/>
</a>
</g>
</g>
<!-- Node25 -->
<g id="Node000025" class="node">
<title>Node25</title>
<g id="a_Node000025"><a xlink:href="metrics__cvmfs_8h.html" target="_top" xlink:title=" ">
<polygon fill="white" stroke="#666666" points="1549.55,-79.5 1451.55,-79.5 1451.55,-60.5 1549.55,-60.5 1549.55,-79.5"/>
<text text-anchor="middle" x="1500.55" y="-67.5" font-family="Helvetica,sans-Serif" font-size="10.00">metrics_cvmfs.h</text>
</a>
</g>
</g>
<!-- Node16&#45;&gt;Node25 -->
<g id="edge36_Node000016_Node000025" class="edge">
<title>Node16&#45;&gt;Node25</title>
<g id="a_edge36_Node000016_Node000025"><a xlink:title=" ">
<path fill="none" stroke="#63b8ff" d="M1329.61,-120.95C1369.2,-109.38 1424.64,-93.18 1461.52,-82.41"/>
<polygon fill="#63b8ff" stroke="#63b8ff" points="1462.79,-85.68 1471.4,-79.52 1460.82,-78.96 1462.79,-85.68"/>
</a>
</g>
</g>
<!-- Node26 -->
<g id="Node000026" class="node">
<title>Node26</title>
<g id="a_Node000026"><a xlink:href="metrics__proxy_8h.html" target="_top" xlink:title=" ">
<polygon fill="white" stroke="#666666" points="1291.55,-79.5 1197.55,-79.5 1197.55,-60.5 1291.55,-60.5 1291.55,-79.5"/>
<text text-anchor="middle" x="1244.55" y="-67.5" font-family="Helvetica,sans-Serif" font-size="10.00">metrics_proxy.h</text>
</a>
</g>
</g>
<!-- Node16&#45;&gt;Node26 -->
<g id="edge38_Node000016_Node000026" class="edge">
<title>Node16&#45;&gt;Node26</title>
<g id="a_edge38_Node000016_Node000026"><a xlink:title=" ">
<path fill="none" stroke="#63b8ff" d="M1273.34,-120.8C1267.85,-111.31 1260.6,-98.76 1254.74,-88.63"/>
<polygon fill="#63b8ff" stroke="#63b8ff" points="1257.7,-86.75 1249.66,-79.84 1251.64,-90.25 1257.7,-86.75"/>
</a>
</g>
</g>
<!-- Node16&#45;&gt;Node27 -->
<g id="edge40_Node000016_Node000027" class="edge">
<title>Node16&#45;&gt;Node27</title>
<g id="a_edge40_Node000016_Node000027"><a xlink:title=" ">
<path fill="none" stroke="#63b8ff" d="M1221.38,-131.2C1129.24,-124.85 947.85,-110.21 795.55,-85 789.99,-84.08 784.18,-82.96 778.44,-81.75"/>
<polygon fill="#63b8ff" stroke="#63b8ff" points="778.8,-78.25 768.28,-79.52 777.3,-85.08 778.8,-78.25"/>
</a>
</g>
</g>
<!-- Node19&#45;&gt;Node3 -->
<g id="edge25_Node000019_Node000003" class="edge">
<title>Node19&#45;&gt;Node3</title>
<g id="a_edge25_Node000019_Node000003"><a xlink:title=" ">
<path fill="none" stroke="#63b8ff" d="M962.8,-60.41C956.98,-58.32 950.6,-56.31 944.55,-55 763.61,-15.9 542.32,-10.5 445.66,-10.18"/>
<polygon fill="#63b8ff" stroke="#63b8ff" points="445.6,-6.68 435.6,-10.17 445.59,-13.68 445.6,-6.68"/>
</a>
</g>
</g>
<!-- Node19&#45;&gt;Node4 -->
<g id="edge26_Node000019_Node000004" class="edge">
<title>Node19&#45;&gt;Node4</title>
<g id="a_edge26_Node000019_Node000004"><a xlink:title=" ">
<path fill="none" stroke="#63b8ff" d="M1007.54,-60.48C1013.97,-58.44 1020.97,-56.44 1027.55,-55 1140.39,-30.36 1276.16,-18.27 1345.29,-13.33"/>
<polygon fill="#63b8ff" stroke="#63b8ff" points="1345.66,-16.81 1355.4,-12.63 1345.18,-9.83 1345.66,-16.81"/>
</a>
</g>
</g>
<!-- Node20 -->
<g id="Node000020" class="node">
<title>Node20</title>
<g id="a_Node000020"><a xlink:href="proto__list_8h.html" target="_top" xlink:title=" ">
<polygon fill="white" stroke="#666666" points="1046.05,-19 921.05,-19 921.05,0 1046.05,0 1046.05,-19"/>
<text text-anchor="middle" x="983.55" y="-7" font-family="Helvetica,sans-Serif" font-size="10.00">core/types/proto_list.h</text>
</a>
</g>
</g>
<!-- Node19&#45;&gt;Node20 -->
<g id="edge27_Node000019_Node000020" class="edge">
<title>Node19&#45;&gt;Node20</title>
<g id="a_edge27_Node000019_Node000020"><a xlink:title=" ">
<path fill="none" stroke="#63b8ff" d="M983.55,-60.37C983.55,-52.25 983.55,-39.81 983.55,-29.39"/>
<polygon fill="#63b8ff" stroke="#63b8ff" points="987.05,-29.17 983.55,-19.17 980.05,-29.17 987.05,-29.17"/>
</a>
</g>
</g>
<!-- Node21&#45;&gt;Node4 -->
<g id="edge29_Node000021_Node000004" class="edge">
<title>Node21&#45;&gt;Node4</title>
<g id="a_edge29_Node000021_Node000004"><a xlink:title=" ">
<path fill="none" stroke="#63b8ff" d="M1719.91,-60.46C1711.3,-58.54 1702.12,-56.59 1693.55,-55 1602.57,-38.07 1495.24,-23.59 1435.85,-16.06"/>
<polygon fill="#63b8ff" stroke="#63b8ff" points="1436.04,-12.55 1425.69,-14.78 1435.17,-19.5 1436.04,-12.55"/>
</a>
</g>
</g>
<!-- Node22 -->
<g id="Node000022" class="node">
<title>Node22</title>
<g id="a_Node000022"><a xlink:href="metrics__http__labels_8h.html" target="_top" xlink:title=" ">
<polygon fill="white" stroke="#666666" points="1761.55,-19 1639.55,-19 1639.55,0 1761.55,0 1761.55,-19"/>
<text text-anchor="middle" x="1700.55" y="-7" font-family="Helvetica,sans-Serif" font-size="10.00">metrics_http_labels.h</text>
</a>
</g>
</g>
<!-- Node21&#45;&gt;Node22 -->
<g id="edge30_Node000021_Node000022" class="edge">
<title>Node21&#45;&gt;Node22</title>
<g id="a_edge30_Node000021_Node000022"><a xlink:title=" ">
<path fill="none" stroke="#63b8ff" d="M1747.43,-60.37C1739.15,-51.55 1726.08,-37.66 1715.85,-26.77"/>
<polygon fill="#63b8ff" stroke="#63b8ff" points="1718.1,-24.06 1708.7,-19.17 1713,-28.85 1718.1,-24.06"/>
</a>
</g>
</g>
<!-- Node23&#45;&gt;Node4 -->
<g id="edge32_Node000023_Node000004" class="edge">
<title>Node23&#45;&gt;Node4</title>
<g id="a_edge32_Node000023_Node000004"><a xlink:title=" ">
<path fill="none" stroke="#63b8ff" d="M1613.33,-60.45C1606.17,-58.6 1598.61,-56.7 1591.55,-55 1538.21,-42.18 1476.57,-28.74 1435.77,-20.03"/>
<polygon fill="#63b8ff" stroke="#63b8ff" points="1436.37,-16.58 1425.86,-17.92 1434.91,-23.42 1436.37,-16.58"/>
</a>
</g>
</g>
<!-- Node23&#45;&gt;Node22 -->
<g id="edge33_Node000023_Node000022" class="edge">
<title>Node23&#45;&gt;Node22</title>
<g id="a_edge33_Node000023_Node000022"><a xlink:title=" ">
<path fill="none" stroke="#63b8ff" d="M1653.66,-60.37C1661.95,-51.55 1675.02,-37.66 1685.25,-26.77"/>
<polygon fill="#63b8ff" stroke="#63b8ff" points="1688.1,-28.85 1692.4,-19.17 1683,-24.06 1688.1,-28.85"/>
</a>
</g>
</g>
<!-- Node24&#45;&gt;Node4 -->
<g id="edge35_Node000024_Node000004" class="edge">
<title>Node24&#45;&gt;Node4</title>
<g id="a_edge35_Node000024_Node000004"><a xlink:title=" ">
<path fill="none" stroke="#63b8ff" d="M1390.55,-60.37C1390.55,-52.25 1390.55,-39.81 1390.55,-29.39"/>
<polygon fill="#63b8ff" stroke="#63b8ff" points="1394.05,-29.17 1390.55,-19.17 1387.05,-29.17 1394.05,-29.17"/>
</a>
</g>
</g>
<!-- Node25&#45;&gt;Node4 -->
<g id="edge37_Node000025_Node000004" class="edge">
<title>Node25&#45;&gt;Node4</title>
<g id="a_edge37_Node000025_Node000004"><a xlink:title=" ">
<path fill="none" stroke="#63b8ff" d="M1484.32,-60.37C1466.28,-50.78 1436.93,-35.17 1415.87,-23.97"/>
<polygon fill="#63b8ff" stroke="#63b8ff" points="1417.32,-20.77 1406.85,-19.17 1414.03,-26.95 1417.32,-20.77"/>
</a>
</g>
</g>
<!-- Node26&#45;&gt;Node4 -->
<g id="edge39_Node000026_Node000004" class="edge">
<title>Node26&#45;&gt;Node4</title>
<g id="a_edge39_Node000026_Node000004"><a xlink:title=" ">
<path fill="none" stroke="#63b8ff" d="M1265.78,-60.49C1290.54,-50.57 1331.67,-34.09 1359.9,-22.78"/>
<polygon fill="#63b8ff" stroke="#63b8ff" points="1361.31,-25.99 1369.29,-19.02 1358.71,-19.49 1361.31,-25.99"/>
</a>
</g>
</g>
<!-- Node28&#45;&gt;Node3 -->
<g id="edge43_Node000028_Node000003" class="edge">
<title>Node28&#45;&gt;Node3</title>
<g id="a_edge43_Node000028_Node000003"><a xlink:title=" ">
<path fill="none" stroke="#63b8ff" d="M1764,-195.11C1527.78,-193.54 805.15,-185.92 573.55,-151 545.78,-146.81 346.62,-107.3 329.55,-85 321.44,-74.41 323.25,-66.75 329.55,-55 337.06,-41 351.12,-30.66 364.43,-23.48"/>
<polygon fill="#63b8ff" stroke="#63b8ff" points="366.03,-26.6 373.44,-19.02 362.92,-20.33 366.03,-26.6"/>
</a>
</g>
</g>
<!-- Node28&#45;&gt;Node4 -->
<g id="edge44_Node000028_Node000004" class="edge">
<title>Node28&#45;&gt;Node4</title>
<g id="a_edge44_Node000028_Node000004"><a xlink:title=" ">
<path fill="none" stroke="#63b8ff" d="M1841.25,-186.97C1845.59,-162.35 1854.3,-90.62 1816.55,-55 1789.26,-29.25 1540.24,-16.44 1436.05,-12.18"/>
<polygon fill="#63b8ff" stroke="#63b8ff" points="1435.98,-8.67 1425.84,-11.77 1435.7,-15.66 1435.98,-8.67"/>
</a>
</g>
</g>
<!-- Node29 -->
<g id="Node000029" class="node">
<title>Node29</title>
<g id="a_Node000029"><a xlink:href="token_8h.html" target="_top" xlink:title=" ">
<polygon fill="white" stroke="#666666" points="1918.05,-145.5 1865.05,-145.5 1865.05,-126.5 1918.05,-126.5 1918.05,-145.5"/>
<text text-anchor="middle" x="1891.55" y="-133.5" font-family="Helvetica,sans-Serif" font-size="10.00">token.h</text>
</a>
</g>
</g>
<!-- Node28&#45;&gt;Node29 -->
<g id="edge45_Node000028_Node000029" class="edge">
<title>Node28&#45;&gt;Node29</title>
<g id="a_edge45_Node000028_Node000029"><a xlink:title=" ">
<path fill="none" stroke="#63b8ff" d="M1847.22,-186.87C1855.06,-178.05 1867.41,-164.16 1877.08,-153.27"/>
<polygon fill="#63b8ff" stroke="#63b8ff" points="1879.82,-155.47 1883.84,-145.67 1874.59,-150.82 1879.82,-155.47"/>
</a>
</g>
</g>
<!-- Node29&#45;&gt;Node17 -->
<g id="edge47_Node000029_Node000017" class="edge">
<title>Node29&#45;&gt;Node17</title>
<g id="a_edge47_Node000029_Node000017"><a xlink:title=" ">
<path fill="none" stroke="#63b8ff" d="M1891.55,-126.37C1891.55,-117.16 1891.55,-102.29 1891.55,-90.27"/>
<polygon fill="#63b8ff" stroke="#63b8ff" points="1895.05,-89.91 1891.55,-79.91 1888.05,-89.91 1895.05,-89.91"/>
</a>
</g>
</g>
<!-- Node30 -->
<g id="Node000030" class="node">
<title>Node30</title>
<g id="a_Node000030"><a xlink:title=" ">
<polygon fill="#e0e0e0" stroke="#999999" points="2020.55,-79.5 1936.55,-79.5 1936.55,-60.5 2020.55,-60.5 2020.55,-79.5"/>
<text text-anchor="middle" x="1978.55" y="-67.5" font-family="Helvetica,sans-Serif" font-size="10.00">openssl/evp.h</text>
</a>
</g>
</g>
<!-- Node29&#45;&gt;Node30 -->
<g id="edge46_Node000029_Node000030" class="edge">
<title>Node29&#45;&gt;Node30</title>
<g id="a_edge46_Node000029_Node000030"><a xlink:title=" ">
<path fill="none" stroke="#63b8ff" d="M1903.28,-126.37C1917.42,-115.97 1941.41,-98.32 1958.5,-85.75"/>
<polygon fill="#63b8ff" stroke="#63b8ff" points="1960.74,-88.44 1966.72,-79.7 1956.59,-82.81 1960.74,-88.44"/>
</a>
</g>
</g>
<!-- Node32 -->
<g id="Node000032" class="node">
<title>Node32</title>
<g id="a_Node000032"><a xlink:title=" ">
<polygon fill="#e0e0e0" stroke="#999999" points="2156.55,-79.5 2100.55,-79.5 2100.55,-60.5 2156.55,-60.5 2156.55,-79.5"/>
<text text-anchor="middle" x="2128.55" y="-67.5" font-family="Helvetica,sans-Serif" font-size="10.00">stddef.h</text>
</a>
</g>
</g>
<!-- Node31&#45;&gt;Node32 -->
<g id="edge49_Node000031_Node000032" class="edge">
<title>Node31&#45;&gt;Node32</title>
<g id="a_edge49_Node000031_Node000032"><a xlink:title=" ">
<path fill="none" stroke="#63b8ff" d="M2170.76,-186.91C2174,-172.69 2178.79,-143.61 2170.55,-121 2165.75,-107.82 2155.77,-95.7 2146.75,-86.69"/>
<polygon fill="#63b8ff" stroke="#63b8ff" points="2148.91,-83.92 2139.22,-79.63 2144.12,-89.02 2148.91,-83.92"/>
</a>
</g>
</g>
<!-- Node33 -->
<g id="Node000033" class="node">
<title>Node33</title>
<g id="a_Node000033"><a xlink:title=" ">
<polygon fill="#e0e0e0" stroke="#999999" points="2162.05,-145.5 2109.05,-145.5 2109.05,-126.5 2162.05,-126.5 2162.05,-145.5"/>
<text text-anchor="middle" x="2135.55" y="-133.5" font-family="Helvetica,sans-Serif" font-size="10.00">string.h</text>
</a>
</g>
</g>
<!-- Node31&#45;&gt;Node33 -->
<g id="edge50_Node000031_Node000033" class="edge">
<title>Node31&#45;&gt;Node33</title>
<g id="a_edge50_Node000031_Node000033"><a xlink:title=" ">
<path fill="none" stroke="#63b8ff" d="M2163.68,-186.87C2158.9,-178.4 2151.48,-165.24 2145.46,-154.57"/>
<polygon fill="#63b8ff" stroke="#63b8ff" points="2148.4,-152.66 2140.44,-145.67 2142.3,-156.1 2148.4,-152.66"/>
</a>
</g>
</g>
<!-- Node35 -->
<g id="Node000035" class="node">
<title>Node35</title>
<g id="a_Node000035"><a xlink:href="core_2compat_2path_8h.html" target="_top" xlink:title=" ">
<polygon fill="white" stroke="#666666" points="2091.05,-145.5 1980.05,-145.5 1980.05,-126.5 2091.05,-126.5 2091.05,-145.5"/>
<text text-anchor="middle" x="2035.55" y="-133.5" font-family="Helvetica,sans-Serif" font-size="10.00">core/compat/path.h</text>
</a>
</g>
</g>
<!-- Node34&#45;&gt;Node35 -->
<g id="edge52_Node000034_Node000035" class="edge">
<title>Node34&#45;&gt;Node35</title>
<g id="a_edge52_Node000034_Node000035"><a xlink:title=" ">
<path fill="none" stroke="#63b8ff" d="M2035.55,-186.87C2035.55,-178.75 2035.55,-166.31 2035.55,-155.89"/>
<polygon fill="#63b8ff" stroke="#63b8ff" points="2039.05,-155.67 2035.55,-145.67 2032.05,-155.67 2039.05,-155.67"/>
</a>
</g>
</g>
<!-- Node35&#45;&gt;Node32 -->
<g id="edge53_Node000035_Node000032" class="edge">
<title>Node35&#45;&gt;Node32</title>
<g id="a_edge53_Node000035_Node000032"><a xlink:title=" ">
<path fill="none" stroke="#63b8ff" d="M2048.09,-126.37C2063.35,-115.87 2089.32,-98 2107.62,-85.4"/>
<polygon fill="#63b8ff" stroke="#63b8ff" points="2109.65,-88.25 2115.91,-79.7 2105.69,-82.48 2109.65,-88.25"/>
</a>
</g>
</g>
</g>
</svg>

<g id="navigator" transform="translate(0 0)" fill="#404254">
  <rect fill="#f2f5e9" fill-opacity="0.5" stroke="#606060" stroke-width=".5" x="0" y="0" width="60" height="60"/>
  <use id="zoomplus" xlink:href="#zoomPlus" x="17" y="9" onmousedown="handleZoom(evt,'in')"/>
  <use id="zoomminus" xlink:href="#zoomMin" x="42" y="9" onmousedown="handleZoom(evt,'out')"/>
  <use id="reset" xlink:href="#resetDef" x="30" y="36" onmousedown="handleReset()"/>
   <use id="arrowup" xlink:href="#arrowUp" x="0" y="0" onmousedown="handlePan(0,-1)"/>
  <use id="arrowright" xlink:href="#arrowRight" x="0" y="0" onmousedown="handlePan(1,0)"/>
  <use id="arrowdown" xlink:href="#arrowDown" x="0" y="0" onmousedown="handlePan(0,1)"/>
  <use id="arrowleft" xlink:href="#arrowLeft" x="0" y="0" onmousedown="handlePan(-1,0)"/>
</g>
<svg viewBox="0 0 15 15" width="100%" height="30px" preserveAspectRatio="xMaxYMin meet">
 <g id="arrow_out" transform="scale(0.3 0.3)">
  <a xlink:href="secure_8c__incl_org.svg" target="_base">
   <rect id="button" ry="5" rx="5" y="6" x="6" height="38" width="38"
        fill="#f2f5e9" fill-opacity="0.5" stroke="#606060" stroke-width="1.0"/>
   <path id="arrow"
     d="M 11.500037,31.436501 C 11.940474,20.09759 22.043105,11.32322 32.158766,21.979434 L 37.068811,17.246167 C 37.068811,17.246167 37.088388,32 37.088388,32 L 22.160133,31.978069 C 22.160133,31.978069 26.997745,27.140456 26.997745,27.140456 C 18.528582,18.264221 13.291696,25.230495 11.500037,31.436501 z"
     style="fill:#404040;"/>
  </a>
 </g>
</svg>

<style type='text/css'>
<![CDATA[
[data-mouse-over-selected='false'] { opacity: 0.7; }
[data-mouse-over-selected='true']  { opacity: 1.0; }
]]>
</style>
<script type="application/ecmascript"><![CDATA[
document.addEventListener('DOMContentLoaded', (event) => {
  highlightEdges();
  highlightAdjacentNodes();
});
]]></script>
</svg>
