<?xml version="1.0" encoding="UTF-8" standalone="no"?>
<!DOCTYPE svg PUBLIC "-//W3C//DTD SVG 1.1//EN"
 "http://www.w3.org/Graphics/SVG/1.1/DTD/svg11.dtd">
<!-- Generated by graphviz version 2.43.0 (0)
 -->
<!-- Title: src/net/cms/server.h Pages: 1 -->
<svg width="769pt" height="159pt"
 viewBox="0.00 0.00 769.00 159.00" xmlns="http://www.w3.org/2000/svg" xmlns:xlink="http://www.w3.org/1999/xlink">
<g id="graph0" class="graph" transform="scale(1 1) rotate(0) translate(4 155)">
<title>src/net/cms/server.h</title>
<!-- Node1 -->
<g id="Node000001" class="node">
<title>Node1</title>
<g id="a_Node000001"><a xlink:title=" ">
<polygon fill="#999999" stroke="#666666" points="481,-151 366,-151 366,-132 481,-132 481,-151"/>
<text text-anchor="middle" x="423.5" y="-139" font-family="Helvetica,sans-Serif" font-size="10.00">src/net/cms/server.h</text>
</a>
</g>
</g>
<!-- Node2 -->
<g id="Node000002" class="node">
<title>Node2</title>
<g id="a_Node000002"><a xlink:href="server__auth_8c.html" target="_top" xlink:title=" ">
<polygon fill="white" stroke="#666666" points="107,-96 0,-96 0,-66 107,-66 107,-96"/>
<text text-anchor="start" x="8" y="-84" font-family="Helvetica,sans-Serif" font-size="10.00">src/net/cms/server</text>
<text text-anchor="middle" x="53.5" y="-73" font-family="Helvetica,sans-Serif" font-size="10.00">_auth.c</text>
</a>
</g>
</g>
<!-- Node1&#45;&gt;Node2 -->
<g id="edge1_Node000001_Node000002" class="edge">
<title>Node1&#45;&gt;Node2</title>
<g id="a_edge1_Node000001_Node000002"><a xlink:title=" ">
<path fill="none" stroke="#63b8ff" d="M355.81,-132.27C293.24,-124.3 197.78,-111.21 115.5,-96 112.79,-95.5 110.01,-94.96 107.22,-94.4"/>
<polygon fill="#63b8ff" stroke="#63b8ff" points="355.59,-135.77 365.95,-133.56 356.46,-128.83 355.59,-135.77"/>
</a>
</g>
</g>
<!-- Node3 -->
<g id="Node000003" class="node">
<title>Node3</title>
<g id="a_Node000003"><a xlink:href="server__handler_8c.html" target="_top" xlink:title=" ">
<polygon fill="white" stroke="#666666" points="232,-96 125,-96 125,-66 232,-66 232,-96"/>
<text text-anchor="start" x="133" y="-84" font-family="Helvetica,sans-Serif" font-size="10.00">src/net/cms/server</text>
<text text-anchor="middle" x="178.5" y="-73" font-family="Helvetica,sans-Serif" font-size="10.00">_handler.c</text>
</a>
</g>
</g>
<!-- Node1&#45;&gt;Node3 -->
<g id="edge2_Node000001_Node000003" class="edge">
<title>Node1&#45;&gt;Node3</title>
<g id="a_edge2_Node000001_Node000003"><a xlink:title=" ">
<path fill="none" stroke="#63b8ff" d="M378.09,-129.66C336.84,-119.81 275.93,-105.26 232.26,-94.84"/>
<polygon fill="#63b8ff" stroke="#63b8ff" points="377.34,-133.08 387.87,-131.99 378.96,-126.27 377.34,-133.08"/>
</a>
</g>
</g>
<!-- Node4 -->
<g id="Node000004" class="node">
<title>Node4</title>
<g id="a_Node000004"><a xlink:href="server__module_8c.html" target="_top" xlink:title=" ">
<polygon fill="white" stroke="#666666" points="357,-96 250,-96 250,-66 357,-66 357,-96"/>
<text text-anchor="start" x="258" y="-84" font-family="Helvetica,sans-Serif" font-size="10.00">src/net/cms/server</text>
<text text-anchor="middle" x="303.5" y="-73" font-family="Helvetica,sans-Serif" font-size="10.00">_module.c</text>
</a>
</g>
</g>
<!-- Node1&#45;&gt;Node4 -->
<g id="edge3_Node000001_Node000004" class="edge">
<title>Node1&#45;&gt;Node4</title>
<g id="a_edge3_Node000001_Node000004"><a xlink:title=" ">
<path fill="none" stroke="#63b8ff" d="M397.02,-127.59C377.94,-118.29 352.22,-105.75 332.58,-96.18"/>
<polygon fill="#63b8ff" stroke="#63b8ff" points="395.53,-130.76 406.05,-131.99 398.6,-124.47 395.53,-130.76"/>
</a>
</g>
</g>
<!-- Node5 -->
<g id="Node000005" class="node">
<title>Node5</title>
<g id="a_Node000005"><a xlink:href="server__recv_8c.html" target="_top" xlink:title=" ">
<polygon fill="white" stroke="#666666" points="371,-30 264,-30 264,0 371,0 371,-30"/>
<text text-anchor="start" x="272" y="-18" font-family="Helvetica,sans-Serif" font-size="10.00">src/net/cms/server</text>
<text text-anchor="middle" x="317.5" y="-7" font-family="Helvetica,sans-Serif" font-size="10.00">_recv.c</text>
</a>
</g>
</g>
<!-- Node1&#45;&gt;Node5 -->
<g id="edge4_Node000001_Node000005" class="edge">
<title>Node1&#45;&gt;Node5</title>
<g id="a_edge4_Node000001_Node000005"><a xlink:title=" ">
<path fill="none" stroke="#63b8ff" d="M411.04,-123.48C399.61,-108.12 382,-85.07 365.5,-66 354.63,-53.44 341.54,-39.89 331.77,-30.07"/>
<polygon fill="#63b8ff" stroke="#63b8ff" points="408.24,-125.58 417,-131.55 413.87,-121.43 408.24,-125.58"/>
</a>
</g>
</g>
<!-- Node6 -->
<g id="Node000006" class="node">
<title>Node6</title>
<g id="a_Node000006"><a xlink:href="server__recv__frame_8c.html" target="_top" xlink:title=" ">
<polygon fill="white" stroke="#666666" points="496,-30 389,-30 389,0 496,0 496,-30"/>
<text text-anchor="start" x="397" y="-18" font-family="Helvetica,sans-Serif" font-size="10.00">src/net/cms/server</text>
<text text-anchor="middle" x="442.5" y="-7" font-family="Helvetica,sans-Serif" font-size="10.00">_recv_frame.c</text>
</a>
</g>
</g>
<!-- Node1&#45;&gt;Node6 -->
<g id="edge5_Node000001_Node000006" class="edge">
<title>Node1&#45;&gt;Node6</title>
<g id="a_edge5_Node000001_Node000006"><a xlink:title=" ">
<path fill="none" stroke="#63b8ff" d="M426.34,-121.91C430.16,-96.83 436.9,-52.72 440.34,-30.16"/>
<polygon fill="#63b8ff" stroke="#63b8ff" points="422.85,-121.53 424.81,-131.94 429.77,-122.59 422.85,-121.53"/>
</a>
</g>
</g>
<!-- Node7 -->
<g id="Node000007" class="node">
<title>Node7</title>
<g id="a_Node000007"><a xlink:href="server__recv__internal_8h.html" target="_top" xlink:title=" ">
<polygon fill="white" stroke="#666666" points="559,-96 452,-96 452,-66 559,-66 559,-96"/>
<text text-anchor="start" x="460" y="-84" font-family="Helvetica,sans-Serif" font-size="10.00">src/net/cms/server</text>
<text text-anchor="middle" x="505.5" y="-73" font-family="Helvetica,sans-Serif" font-size="10.00">_recv_internal.h</text>
</a>
</g>
</g>
<!-- Node1&#45;&gt;Node7 -->
<g id="edge6_Node000001_Node000007" class="edge">
<title>Node1&#45;&gt;Node7</title>
<g id="a_edge6_Node000001_Node000007"><a xlink:title=" ">
<path fill="none" stroke="#63b8ff" d="M443.78,-126.03C456.58,-116.9 473.02,-105.17 485.72,-96.11"/>
<polygon fill="#63b8ff" stroke="#63b8ff" points="441.71,-123.21 435.6,-131.87 445.77,-128.91 441.71,-123.21"/>
</a>
</g>
</g>
<!-- Node8 -->
<g id="Node000008" class="node">
<title>Node8</title>
<g id="a_Node000008"><a xlink:href="server__recv__lifecycle_8c.html" target="_top" xlink:title=" ">
<polygon fill="white" stroke="#666666" points="621,-30 514,-30 514,0 621,0 621,-30"/>
<text text-anchor="start" x="522" y="-18" font-family="Helvetica,sans-Serif" font-size="10.00">src/net/cms/server</text>
<text text-anchor="middle" x="567.5" y="-7" font-family="Helvetica,sans-Serif" font-size="10.00">_recv_lifecycle.c</text>
</a>
</g>
</g>
<!-- Node1&#45;&gt;Node8 -->
<g id="edge11_Node000001_Node000008" class="edge">
<title>Node1&#45;&gt;Node8</title>
<g id="a_edge11_Node000001_Node000008"><a xlink:title=" ">
<path fill="none" stroke="#63b8ff" d="M491.34,-136.9C519.92,-131.62 550.65,-120.15 568.5,-96 582.62,-76.9 577.43,-47.62 572.43,-30.28"/>
<polygon fill="#63b8ff" stroke="#63b8ff" points="490.65,-133.47 481.34,-138.53 491.77,-140.38 490.65,-133.47"/>
</a>
</g>
</g>
<!-- Node9 -->
<g id="Node000009" class="node">
<title>Node9</title>
<g id="a_Node000009"><a xlink:href="server__recv__parse_8c.html" target="_top" xlink:title=" ">
<polygon fill="white" stroke="#666666" points="746,-30 639,-30 639,0 746,0 746,-30"/>
<text text-anchor="start" x="647" y="-18" font-family="Helvetica,sans-Serif" font-size="10.00">src/net/cms/server</text>
<text text-anchor="middle" x="692.5" y="-7" font-family="Helvetica,sans-Serif" font-size="10.00">_recv_parse.c</text>
</a>
</g>
</g>
<!-- Node1&#45;&gt;Node9 -->
<g id="edge12_Node000001_Node000009" class="edge">
<title>Node1&#45;&gt;Node9</title>
<g id="a_edge12_Node000001_Node000009"><a xlink:title=" ">
<path fill="none" stroke="#63b8ff" d="M483.77,-129.78C515.4,-122.75 554.19,-111.87 586.5,-96 622.3,-78.42 658.12,-48.06 677.59,-30.23"/>
<polygon fill="#63b8ff" stroke="#63b8ff" points="482.81,-126.4 473.76,-131.93 484.28,-133.25 482.81,-126.4"/>
</a>
</g>
</g>
<!-- Node10 -->
<g id="Node000010" class="node">
<title>Node10</title>
<g id="a_Node000010"><a xlink:href="server__send_8c.html" target="_top" xlink:title=" ">
<polygon fill="white" stroke="#666666" points="761,-96 654,-96 654,-66 761,-66 761,-96"/>
<text text-anchor="start" x="662" y="-84" font-family="Helvetica,sans-Serif" font-size="10.00">src/net/cms/server</text>
<text text-anchor="middle" x="707.5" y="-73" font-family="Helvetica,sans-Serif" font-size="10.00">_send.c</text>
</a>
</g>
</g>
<!-- Node1&#45;&gt;Node10 -->
<g id="edge13_Node000001_Node000010" class="edge">
<title>Node1&#45;&gt;Node10</title>
<g id="a_edge13_Node000001_Node000010"><a xlink:title=" ">
<path fill="none" stroke="#63b8ff" d="M474.86,-129.92C525.44,-119.5 602.39,-103.65 653.78,-93.07"/>
<polygon fill="#63b8ff" stroke="#63b8ff" points="473.88,-126.55 464.8,-131.99 475.3,-133.4 473.88,-126.55"/>
</a>
</g>
</g>
<!-- Node7&#45;&gt;Node5 -->
<g id="edge7_Node000007_Node000005" class="edge">
<title>Node7&#45;&gt;Node5</title>
<g id="a_edge7_Node000007_Node000005"><a xlink:title=" ">
<path fill="none" stroke="#63b8ff" d="M454.75,-62.72C424.63,-52.47 386.92,-39.63 358.66,-30.01"/>
<polygon fill="#63b8ff" stroke="#63b8ff" points="453.65,-66.05 464.24,-65.95 455.9,-59.42 453.65,-66.05"/>
</a>
</g>
</g>
<!-- Node7&#45;&gt;Node6 -->
<g id="edge8_Node000007_Node000006" class="edge">
<title>Node7&#45;&gt;Node6</title>
<g id="a_edge8_Node000007_Node000006"><a xlink:title=" ">
<path fill="none" stroke="#63b8ff" d="M484.48,-58.65C475.25,-49.27 464.67,-38.53 456.44,-30.16"/>
<polygon fill="#63b8ff" stroke="#63b8ff" points="482.01,-61.13 491.52,-65.8 487,-56.21 482.01,-61.13"/>
</a>
</g>
</g>
<!-- Node7&#45;&gt;Node8 -->
<g id="edge9_Node000007_Node000008" class="edge">
<title>Node7&#45;&gt;Node8</title>
<g id="a_edge9_Node000007_Node000008"><a xlink:title=" ">
<path fill="none" stroke="#63b8ff" d="M526.46,-58.37C535.47,-49.06 545.76,-38.44 553.78,-30.16"/>
<polygon fill="#63b8ff" stroke="#63b8ff" points="523.7,-56.18 519.26,-65.8 528.73,-61.05 523.7,-56.18"/>
</a>
</g>
</g>
<!-- Node7&#45;&gt;Node9 -->
<g id="edge10_Node000007_Node000009" class="edge">
<title>Node7&#45;&gt;Node9</title>
<g id="a_edge10_Node000007_Node000009"><a xlink:title=" ">
<path fill="none" stroke="#63b8ff" d="M556.37,-62.59C586.27,-52.36 623.57,-39.59 651.56,-30.01"/>
<polygon fill="#63b8ff" stroke="#63b8ff" points="554.87,-59.41 546.54,-65.95 557.13,-66.03 554.87,-59.41"/>
</a>
</g>
</g>
</g>
</svg>
