<?xml version="1.0" encoding="UTF-8" standalone="no"?>
<!DOCTYPE svg PUBLIC "-//W3C//DTD SVG 1.1//EN"
 "http://www.w3.org/Graphics/SVG/1.1/DTD/svg11.dtd">
<!-- Generated by graphviz version 2.43.0 (0)
 -->
<!-- Title: src/observability/sesslog/sesslog_ngx.h Pages: 1 -->
<svg width="3561pt" height="192pt"
 viewBox="0.00 0.00 3561.00 192.00" xmlns="http://www.w3.org/2000/svg" xmlns:xlink="http://www.w3.org/1999/xlink">
<g id="graph0" class="graph" transform="scale(1 1) rotate(0) translate(4 188)">
<title>src/observability/sesslog/sesslog_ngx.h</title>
<!-- Node1 -->
<g id="Node000001" class="node">
<title>Node1</title>
<g id="a_Node000001"><a xlink:title=" ">
<polygon fill="#999999" stroke="#666666" points="1927.5,-184 1790.5,-184 1790.5,-154 1927.5,-154 1927.5,-184"/>
<text text-anchor="start" x="1798.5" y="-172" font-family="Helvetica,sans-Serif" font-size="10.00">src/observability/sesslog</text>
<text text-anchor="middle" x="1859" y="-161" font-family="Helvetica,sans-Serif" font-size="10.00">/sesslog_ngx.h</text>
</a>
</g>
</g>
<!-- Node2 -->
<g id="Node000002" class="node">
<title>Node2</title>
<g id="a_Node000002"><a xlink:href="process_8c.html" target="_top" xlink:title=" ">
<polygon fill="white" stroke="#666666" points="186,-107 50,-107 50,-88 186,-88 186,-107"/>
<text text-anchor="middle" x="118" y="-95" font-family="Helvetica,sans-Serif" font-size="10.00">src/core/config/process.c</text>
</a>
</g>
</g>
<!-- Node1&#45;&gt;Node2 -->
<g id="edge1_Node000001_Node000002" class="edge">
<title>Node1&#45;&gt;Node2</title>
<g id="a_edge1_Node000001_Node000002"><a xlink:title=" ">
<path fill="none" stroke="#63b8ff" d="M1779.76,-167.91C1492.55,-167.21 506.72,-161.62 195,-118 178.34,-115.67 160.07,-111.13 145.51,-107.02"/>
<polygon fill="#63b8ff" stroke="#63b8ff" points="1780.08,-171.41 1790.08,-167.93 1780.09,-164.41 1780.08,-171.41"/>
</a>
</g>
</g>
<!-- Node3 -->
<g id="Node000003" class="node">
<title>Node3</title>
<g id="a_Node000003"><a xlink:href="sesslog__conn_8h.html" target="_top" xlink:title=" ">
<polygon fill="white" stroke="#666666" points="321.5,-112.5 204.5,-112.5 204.5,-82.5 321.5,-82.5 321.5,-112.5"/>
<text text-anchor="start" x="212.5" y="-100.5" font-family="Helvetica,sans-Serif" font-size="10.00">src/core/http/sesslog</text>
<text text-anchor="middle" x="263" y="-89.5" font-family="Helvetica,sans-Serif" font-size="10.00">_conn.h</text>
</a>
</g>
</g>
<!-- Node1&#45;&gt;Node3 -->
<g id="edge2_Node000001_Node000003" class="edge">
<title>Node1&#45;&gt;Node3</title>
<g id="a_edge2_Node000001_Node000003"><a xlink:title=" ">
<path fill="none" stroke="#63b8ff" d="M1780.31,-167.98C1509.11,-167.52 614.46,-162.58 331,-118 322.75,-116.7 314.09,-114.72 305.81,-112.5"/>
<polygon fill="#63b8ff" stroke="#63b8ff" points="1780.46,-171.48 1790.46,-168 1780.47,-164.48 1780.46,-171.48"/>
</a>
</g>
</g>
<!-- Node8 -->
<g id="Node000008" class="node">
<title>Node8</title>
<g id="a_Node000008"><a xlink:href="net_2cms_2connect_8c.html" target="_top" xlink:title=" ">
<polygon fill="white" stroke="#666666" points="462,-107 340,-107 340,-88 462,-88 462,-107"/>
<text text-anchor="middle" x="401" y="-95" font-family="Helvetica,sans-Serif" font-size="10.00">src/net/cms/connect.c</text>
</a>
</g>
</g>
<!-- Node1&#45;&gt;Node8 -->
<g id="edge7_Node000001_Node000008" class="edge">
<title>Node1&#45;&gt;Node8</title>
<g id="a_edge7_Node000001_Node000008"><a xlink:title=" ">
<path fill="none" stroke="#63b8ff" d="M1779.89,-167.6C1524.83,-165.92 726,-157.54 471,-118 455.92,-115.66 439.45,-111.18 426.28,-107.1"/>
<polygon fill="#63b8ff" stroke="#63b8ff" points="1780.15,-171.1 1790.18,-167.66 1780.2,-164.1 1780.15,-171.1"/>
</a>
</g>
</g>
<!-- Node9 -->
<g id="Node000009" class="node">
<title>Node9</title>
<g id="a_Node000009"><a xlink:href="server__handler_8c.html" target="_top" xlink:title=" ">
<polygon fill="white" stroke="#666666" points="587.5,-112.5 480.5,-112.5 480.5,-82.5 587.5,-82.5 587.5,-112.5"/>
<text text-anchor="start" x="488.5" y="-100.5" font-family="Helvetica,sans-Serif" font-size="10.00">src/net/cms/server</text>
<text text-anchor="middle" x="534" y="-89.5" font-family="Helvetica,sans-Serif" font-size="10.00">_handler.c</text>
</a>
</g>
</g>
<!-- Node1&#45;&gt;Node9 -->
<g id="edge8_Node000001_Node000009" class="edge">
<title>Node1&#45;&gt;Node9</title>
<g id="a_edge8_Node000001_Node000009"><a xlink:title=" ">
<path fill="none" stroke="#63b8ff" d="M1780.47,-167.61C1541.46,-165.99 825.26,-157.86 596,-118 588.55,-116.7 580.76,-114.75 573.3,-112.57"/>
<polygon fill="#63b8ff" stroke="#63b8ff" points="1780.45,-171.11 1790.47,-167.68 1780.49,-164.11 1780.45,-171.11"/>
</a>
</g>
</g>
<!-- Node10 -->
<g id="Node000010" class="node">
<title>Node10</title>
<g id="a_Node000010"><a xlink:href="server__recv__lifecycle_8c.html" target="_top" xlink:title=" ">
<polygon fill="white" stroke="#666666" points="712.5,-112.5 605.5,-112.5 605.5,-82.5 712.5,-82.5 712.5,-112.5"/>
<text text-anchor="start" x="613.5" y="-100.5" font-family="Helvetica,sans-Serif" font-size="10.00">src/net/cms/server</text>
<text text-anchor="middle" x="659" y="-89.5" font-family="Helvetica,sans-Serif" font-size="10.00">_recv_lifecycle.c</text>
</a>
</g>
</g>
<!-- Node1&#45;&gt;Node10 -->
<g id="edge9_Node000001_Node000010" class="edge">
<title>Node1&#45;&gt;Node10</title>
<g id="a_edge9_Node000001_Node000010"><a xlink:title=" ">
<path fill="none" stroke="#63b8ff" d="M1779.96,-167.2C1556.8,-164.53 924.94,-153.91 721,-118 713.55,-116.69 705.76,-114.73 698.31,-112.55"/>
<polygon fill="#63b8ff" stroke="#63b8ff" points="1780.23,-170.71 1790.27,-167.32 1780.31,-163.71 1780.23,-170.71"/>
</a>
</g>
</g>
<!-- Node11 -->
<g id="Node000011" class="node">
<title>Node11</title>
<g id="a_Node000011"><a xlink:href="accesslog_2access__log_8c.html" target="_top" xlink:title=" ">
<polygon fill="white" stroke="#666666" points="879.5,-112.5 730.5,-112.5 730.5,-82.5 879.5,-82.5 879.5,-112.5"/>
<text text-anchor="start" x="738.5" y="-100.5" font-family="Helvetica,sans-Serif" font-size="10.00">src/observability/accesslog</text>
<text text-anchor="middle" x="805" y="-89.5" font-family="Helvetica,sans-Serif" font-size="10.00">/access_log.c</text>
</a>
</g>
</g>
<!-- Node1&#45;&gt;Node11 -->
<g id="edge10_Node000001_Node000011" class="edge">
<title>Node1&#45;&gt;Node11</title>
<g id="a_edge10_Node000001_Node000011"><a xlink:title=" ">
<path fill="none" stroke="#63b8ff" d="M1780.2,-168.71C1614.27,-169.16 1217.03,-164.74 888,-118 878.33,-116.63 868.13,-114.66 858.31,-112.51"/>
<polygon fill="#63b8ff" stroke="#63b8ff" points="1780.33,-172.21 1790.32,-168.68 1780.3,-165.21 1780.33,-172.21"/>
</a>
</g>
</g>
<!-- Node12 -->
<g id="Node000012" class="node">
<title>Node12</title>
<g id="a_Node000012"><a xlink:href="sesslog__ngx_8c.html" target="_top" xlink:title=" ">
<polygon fill="white" stroke="#666666" points="1034.5,-112.5 897.5,-112.5 897.5,-82.5 1034.5,-82.5 1034.5,-112.5"/>
<text text-anchor="start" x="905.5" y="-100.5" font-family="Helvetica,sans-Serif" font-size="10.00">src/observability/sesslog</text>
<text text-anchor="middle" x="966" y="-89.5" font-family="Helvetica,sans-Serif" font-size="10.00">/sesslog_ngx.c</text>
</a>
</g>
</g>
<!-- Node1&#45;&gt;Node12 -->
<g id="edge11_Node000001_Node000012" class="edge">
<title>Node1&#45;&gt;Node12</title>
<g id="a_edge11_Node000001_Node000012"><a xlink:title=" ">
<path fill="none" stroke="#63b8ff" d="M1780.16,-167.55C1634.81,-165.73 1315.12,-157.19 1049,-118 1039.48,-116.6 1029.45,-114.65 1019.77,-112.53"/>
<polygon fill="#63b8ff" stroke="#63b8ff" points="1780.28,-171.05 1790.32,-167.67 1780.37,-164.05 1780.28,-171.05"/>
</a>
</g>
</g>
<!-- Node13 -->
<g id="Node000013" class="node">
<title>Node13</title>
<g id="a_Node000013"><a xlink:href="disconnect_8c.html" target="_top" xlink:title=" ">
<polygon fill="white" stroke="#666666" points="1139.5,-35.5 1002.5,-35.5 1002.5,-5.5 1139.5,-5.5 1139.5,-35.5"/>
<text text-anchor="start" x="1010.5" y="-23.5" font-family="Helvetica,sans-Serif" font-size="10.00">src/protocols/root</text>
<text text-anchor="middle" x="1071" y="-12.5" font-family="Helvetica,sans-Serif" font-size="10.00">/connection/disconnect.c</text>
</a>
</g>
</g>
<!-- Node1&#45;&gt;Node13 -->
<g id="edge12_Node000001_Node000013" class="edge">
<title>Node1&#45;&gt;Node13</title>
<g id="a_edge12_Node000001_Node000013"><a xlink:title=" ">
<path fill="none" stroke="#63b8ff" d="M1780.33,-168.54C1592.89,-169.04 1131.78,-165.39 1082,-118 1059.77,-96.84 1063.59,-56.99 1067.65,-35.72"/>
<polygon fill="#63b8ff" stroke="#63b8ff" points="1780.4,-172.04 1790.39,-168.51 1780.38,-165.04 1780.4,-172.04"/>
</a>
</g>
</g>
<!-- Node14 -->
<g id="Node000014" class="node">
<title>Node14</title>
<g id="a_Node000014"><a xlink:href="disconnect__internal_8h.html" target="_top" xlink:title=" ">
<polygon fill="white" stroke="#666666" points="1219,-118 1091,-118 1091,-77 1219,-77 1219,-118"/>
<text text-anchor="start" x="1099" y="-106" font-family="Helvetica,sans-Serif" font-size="10.00">src/protocols/root</text>
<text text-anchor="start" x="1099" y="-95" font-family="Helvetica,sans-Serif" font-size="10.00">/connection/disconnect</text>
<text text-anchor="middle" x="1155" y="-84" font-family="Helvetica,sans-Serif" font-size="10.00">_internal.h</text>
</a>
</g>
</g>
<!-- Node1&#45;&gt;Node14 -->
<g id="edge13_Node000001_Node000014" class="edge">
<title>Node1&#45;&gt;Node14</title>
<g id="a_edge13_Node000001_Node000014"><a xlink:title=" ">
<path fill="none" stroke="#63b8ff" d="M1780.35,-165.88C1661.22,-161.74 1428.24,-149.98 1233,-118 1228.45,-117.26 1223.78,-116.38 1219.1,-115.42"/>
<polygon fill="#63b8ff" stroke="#63b8ff" points="1780.36,-169.39 1790.47,-166.23 1780.59,-162.39 1780.36,-169.39"/>
</a>
</g>
</g>
<!-- Node15 -->
<g id="Node000015" class="node">
<title>Node15</title>
<g id="a_Node000015"><a xlink:href="disconnect__report_8c.html" target="_top" xlink:title=" ">
<polygon fill="white" stroke="#666666" points="1295,-41 1167,-41 1167,0 1295,0 1295,-41"/>
<text text-anchor="start" x="1175" y="-29" font-family="Helvetica,sans-Serif" font-size="10.00">src/protocols/root</text>
<text text-anchor="start" x="1175" y="-18" font-family="Helvetica,sans-Serif" font-size="10.00">/connection/disconnect</text>
<text text-anchor="middle" x="1231" y="-7" font-family="Helvetica,sans-Serif" font-size="10.00">_report.c</text>
</a>
</g>
</g>
<!-- Node1&#45;&gt;Node15 -->
<g id="edge16_Node000001_Node000015" class="edge">
<title>Node1&#45;&gt;Node15</title>
<g id="a_edge16_Node000001_Node000015"><a xlink:title=" ">
<path fill="none" stroke="#63b8ff" d="M1780.04,-166.03C1627.97,-161.56 1305.92,-148.57 1266,-118 1242.09,-99.69 1234.49,-63.5 1232.09,-41.02"/>
<polygon fill="#63b8ff" stroke="#63b8ff" points="1780.15,-169.53 1790.24,-166.32 1780.35,-162.54 1780.15,-169.53"/>
</a>
</g>
</g>
<!-- Node16 -->
<g id="Node000016" class="node">
<title>Node16</title>
<g id="a_Node000016"><a xlink:href="protocols_2root_2connection_2handler_8c.html" target="_top" xlink:title=" ">
<polygon fill="white" stroke="#666666" points="1395,-112.5 1275,-112.5 1275,-82.5 1395,-82.5 1395,-112.5"/>
<text text-anchor="start" x="1283" y="-100.5" font-family="Helvetica,sans-Serif" font-size="10.00">src/protocols/root</text>
<text text-anchor="middle" x="1335" y="-89.5" font-family="Helvetica,sans-Serif" font-size="10.00">/connection/handler.c</text>
</a>
</g>
</g>
<!-- Node1&#45;&gt;Node16 -->
<g id="edge17_Node000001_Node000016" class="edge">
<title>Node1&#45;&gt;Node16</title>
<g id="a_edge17_Node000001_Node000016"><a xlink:title=" ">
<path fill="none" stroke="#63b8ff" d="M1780.26,-163.33C1689.07,-157 1534.63,-143.45 1404,-118 1396.42,-116.52 1388.47,-114.62 1380.77,-112.58"/>
<polygon fill="#63b8ff" stroke="#63b8ff" points="1780.03,-166.82 1790.25,-164.01 1780.51,-159.84 1780.03,-166.82"/>
</a>
</g>
</g>
<!-- Node17 -->
<g id="Node000017" class="node">
<title>Node17</title>
<g id="a_Node000017"><a xlink:href="close_8c.html" target="_top" xlink:title=" ">
<polygon fill="white" stroke="#666666" points="1514.5,-112.5 1413.5,-112.5 1413.5,-82.5 1514.5,-82.5 1514.5,-112.5"/>
<text text-anchor="start" x="1421.5" y="-100.5" font-family="Helvetica,sans-Serif" font-size="10.00">src/protocols/root</text>
<text text-anchor="middle" x="1464" y="-89.5" font-family="Helvetica,sans-Serif" font-size="10.00">/read/close.c</text>
</a>
</g>
</g>
<!-- Node1&#45;&gt;Node17 -->
<g id="edge18_Node000001_Node000017" class="edge">
<title>Node1&#45;&gt;Node17</title>
<g id="a_edge18_Node000001_Node000017"><a xlink:title=" ">
<path fill="none" stroke="#63b8ff" d="M1780.1,-159.97C1711.77,-152.13 1610.57,-138.38 1524,-118 1517.5,-116.47 1510.69,-114.56 1504.08,-112.54"/>
<polygon fill="#63b8ff" stroke="#63b8ff" points="1780.03,-163.49 1790.36,-161.13 1780.82,-156.53 1780.03,-163.49"/>
</a>
</g>
</g>
<!-- Node18 -->
<g id="Node000018" class="node">
<title>Node18</title>
<g id="a_Node000018"><a xlink:href="open__resolved__file_8c.html" target="_top" xlink:title=" ">
<polygon fill="white" stroke="#666666" points="1649,-118 1533,-118 1533,-77 1649,-77 1649,-118"/>
<text text-anchor="start" x="1541" y="-106" font-family="Helvetica,sans-Serif" font-size="10.00">src/protocols/root</text>
<text text-anchor="start" x="1541" y="-95" font-family="Helvetica,sans-Serif" font-size="10.00">/read/open_resolved</text>
<text text-anchor="middle" x="1591" y="-84" font-family="Helvetica,sans-Serif" font-size="10.00">_file.c</text>
</a>
</g>
</g>
<!-- Node1&#45;&gt;Node18 -->
<g id="edge19_Node000001_Node000018" class="edge">
<title>Node1&#45;&gt;Node18</title>
<g id="a_edge19_Node000001_Node000018"><a xlink:title=" ">
<path fill="none" stroke="#63b8ff" d="M1789.77,-151.49C1750.93,-142.05 1701.66,-129.78 1658,-118 1655.08,-117.21 1652.08,-116.39 1649.07,-115.55"/>
<polygon fill="#63b8ff" stroke="#63b8ff" points="1789.37,-155 1799.91,-153.95 1791.02,-148.19 1789.37,-155"/>
</a>
</g>
</g>
<!-- Node19 -->
<g id="Node000019" class="node">
<title>Node19</title>
<g id="a_Node000019"><a xlink:href="open__resolved__file__dispatch_8c.html" target="_top" xlink:title=" ">
<polygon fill="white" stroke="#666666" points="1783,-118 1667,-118 1667,-77 1783,-77 1783,-118"/>
<text text-anchor="start" x="1675" y="-106" font-family="Helvetica,sans-Serif" font-size="10.00">src/protocols/root</text>
<text text-anchor="start" x="1675" y="-95" font-family="Helvetica,sans-Serif" font-size="10.00">/read/open_resolved</text>
<text text-anchor="middle" x="1725" y="-84" font-family="Helvetica,sans-Serif" font-size="10.00">_file_dispatch.c</text>
</a>
</g>
</g>
<!-- Node1&#45;&gt;Node19 -->
<g id="edge20_Node000001_Node000019" class="edge">
<title>Node1&#45;&gt;Node19</title>
<g id="a_edge20_Node000001_Node000019"><a xlink:title=" ">
<path fill="none" stroke="#63b8ff" d="M1822.84,-149.24C1804.23,-139.59 1781.57,-127.84 1762.74,-118.07"/>
<polygon fill="#63b8ff" stroke="#63b8ff" points="1821.39,-152.44 1831.88,-153.94 1824.62,-146.22 1821.39,-152.44"/>
</a>
</g>
</g>
<!-- Node20 -->
<g id="Node000020" class="node">
<title>Node20</title>
<g id="a_Node000020"><a xlink:href="open__resolved__file__finalize_8c.html" target="_top" xlink:title=" ">
<polygon fill="white" stroke="#666666" points="1917,-118 1801,-118 1801,-77 1917,-77 1917,-118"/>
<text text-anchor="start" x="1809" y="-106" font-family="Helvetica,sans-Serif" font-size="10.00">src/protocols/root</text>
<text text-anchor="start" x="1809" y="-95" font-family="Helvetica,sans-Serif" font-size="10.00">/read/open_resolved</text>
<text text-anchor="middle" x="1859" y="-84" font-family="Helvetica,sans-Serif" font-size="10.00">_file_finalize.c</text>
</a>
</g>
</g>
<!-- Node1&#45;&gt;Node20 -->
<g id="edge21_Node000001_Node000020" class="edge">
<title>Node1&#45;&gt;Node20</title>
<g id="a_edge21_Node000001_Node000020"><a xlink:title=" ">
<path fill="none" stroke="#63b8ff" d="M1859,-143.91C1859,-135.47 1859,-126.1 1859,-118.07"/>
<polygon fill="#63b8ff" stroke="#63b8ff" points="1855.5,-143.94 1859,-153.94 1862.5,-143.94 1855.5,-143.94"/>
</a>
</g>
</g>
<!-- Node21 -->
<g id="Node000021" class="node">
<title>Node21</title>
<g id="a_Node000021"><a xlink:href="open__resolved__file__open_8c.html" target="_top" xlink:title=" ">
<polygon fill="white" stroke="#666666" points="2051,-118 1935,-118 1935,-77 2051,-77 2051,-118"/>
<text text-anchor="start" x="1943" y="-106" font-family="Helvetica,sans-Serif" font-size="10.00">src/protocols/root</text>
<text text-anchor="start" x="1943" y="-95" font-family="Helvetica,sans-Serif" font-size="10.00">/read/open_resolved</text>
<text text-anchor="middle" x="1993" y="-84" font-family="Helvetica,sans-Serif" font-size="10.00">_file_open.c</text>
</a>
</g>
</g>
<!-- Node1&#45;&gt;Node21 -->
<g id="edge22_Node000001_Node000021" class="edge">
<title>Node1&#45;&gt;Node21</title>
<g id="a_edge22_Node000001_Node000021"><a xlink:title=" ">
<path fill="none" stroke="#63b8ff" d="M1895.16,-149.24C1913.77,-139.59 1936.43,-127.84 1955.26,-118.07"/>
<polygon fill="#63b8ff" stroke="#63b8ff" points="1893.38,-146.22 1886.12,-153.94 1896.61,-152.44 1893.38,-146.22"/>
</a>
</g>
</g>
<!-- Node22 -->
<g id="Node000022" class="node">
<title>Node22</title>
<g id="a_Node000022"><a xlink:href="open__resolved__file__staging_8c.html" target="_top" xlink:title=" ">
<polygon fill="white" stroke="#666666" points="2185,-118 2069,-118 2069,-77 2185,-77 2185,-118"/>
<text text-anchor="start" x="2077" y="-106" font-family="Helvetica,sans-Serif" font-size="10.00">src/protocols/root</text>
<text text-anchor="start" x="2077" y="-95" font-family="Helvetica,sans-Serif" font-size="10.00">/read/open_resolved</text>
<text text-anchor="middle" x="2127" y="-84" font-family="Helvetica,sans-Serif" font-size="10.00">_file_staging.c</text>
</a>
</g>
</g>
<!-- Node1&#45;&gt;Node22 -->
<g id="edge23_Node000001_Node000022" class="edge">
<title>Node1&#45;&gt;Node22</title>
<g id="a_edge23_Node000001_Node000022"><a xlink:title=" ">
<path fill="none" stroke="#63b8ff" d="M1928.23,-151.49C1967.07,-142.05 2016.34,-129.78 2060,-118 2062.92,-117.21 2065.92,-116.39 2068.93,-115.55"/>
<polygon fill="#63b8ff" stroke="#63b8ff" points="1926.98,-148.19 1918.09,-153.95 1928.63,-155 1926.98,-148.19"/>
</a>
</g>
</g>
<!-- Node23 -->
<g id="Node000023" class="node">
<title>Node23</title>
<g id="a_Node000023"><a xlink:href="login_8c.html" target="_top" xlink:title=" ">
<polygon fill="white" stroke="#666666" points="2304.5,-112.5 2203.5,-112.5 2203.5,-82.5 2304.5,-82.5 2304.5,-112.5"/>
<text text-anchor="start" x="2211.5" y="-100.5" font-family="Helvetica,sans-Serif" font-size="10.00">src/protocols/root</text>
<text text-anchor="middle" x="2254" y="-89.5" font-family="Helvetica,sans-Serif" font-size="10.00">/session/login.c</text>
</a>
</g>
</g>
<!-- Node1&#45;&gt;Node23 -->
<g id="edge24_Node000001_Node000023" class="edge">
<title>Node1&#45;&gt;Node23</title>
<g id="a_edge24_Node000001_Node000023"><a xlink:title=" ">
<path fill="none" stroke="#63b8ff" d="M1937.9,-159.97C2006.23,-152.13 2107.43,-138.38 2194,-118 2200.5,-116.47 2207.31,-114.56 2213.92,-112.54"/>
<polygon fill="#63b8ff" stroke="#63b8ff" points="1937.18,-156.53 1927.64,-161.13 1937.97,-163.49 1937.18,-156.53"/>
</a>
</g>
</g>
<!-- Node24 -->
<g id="Node000024" class="node">
<title>Node24</title>
<g id="a_Node000024"><a xlink:href="http__cache__fill_8c.html" target="_top" xlink:title=" ">
<polygon fill="white" stroke="#666666" points="2352.5,-35.5 2237.5,-35.5 2237.5,-5.5 2352.5,-5.5 2352.5,-35.5"/>
<text text-anchor="start" x="2245.5" y="-23.5" font-family="Helvetica,sans-Serif" font-size="10.00">src/protocols/shared</text>
<text text-anchor="middle" x="2295" y="-12.5" font-family="Helvetica,sans-Serif" font-size="10.00">/http_cache_fill.c</text>
</a>
</g>
</g>
<!-- Node1&#45;&gt;Node24 -->
<g id="edge25_Node000001_Node000024" class="edge">
<title>Node1&#45;&gt;Node24</title>
<g id="a_edge25_Node000001_Node000024"><a xlink:title=" ">
<path fill="none" stroke="#63b8ff" d="M1937.68,-164.95C2061.02,-159.34 2288.46,-145.39 2313,-118 2333.58,-95.03 2316.06,-56.3 2304.03,-35.58"/>
<polygon fill="#63b8ff" stroke="#63b8ff" points="1937.36,-161.46 1927.53,-165.4 1937.68,-168.45 1937.36,-161.46"/>
</a>
</g>
</g>
<!-- Node25 -->
<g id="Node000025" class="node">
<title>Node25</title>
<g id="a_Node000025"><a xlink:href="http__cache__fill__internal_8h.html" target="_top" xlink:title=" ">
<polygon fill="white" stroke="#666666" points="2541,-112.5 2399,-112.5 2399,-82.5 2541,-82.5 2541,-112.5"/>
<text text-anchor="start" x="2407" y="-100.5" font-family="Helvetica,sans-Serif" font-size="10.00">src/protocols/shared</text>
<text text-anchor="middle" x="2470" y="-89.5" font-family="Helvetica,sans-Serif" font-size="10.00">/http_cache_fill_internal.h</text>
</a>
</g>
</g>
<!-- Node1&#45;&gt;Node25 -->
<g id="edge26_Node000001_Node000025" class="edge">
<title>Node1&#45;&gt;Node25</title>
<g id="a_edge26_Node000001_Node000025"><a xlink:title=" ">
<path fill="none" stroke="#63b8ff" d="M1937.91,-163.73C2041.15,-157.4 2227.47,-143.45 2385,-118 2394.27,-116.5 2404.03,-114.59 2413.51,-112.54"/>
<polygon fill="#63b8ff" stroke="#63b8ff" points="1937.64,-160.24 1927.87,-164.33 1938.07,-167.22 1937.64,-160.24"/>
</a>
</g>
</g>
<!-- Node26 -->
<g id="Node000026" class="node">
<title>Node26</title>
<g id="a_Node000026"><a xlink:href="http__cache__fill__registry_8c.html" target="_top" xlink:title=" ">
<polygon fill="white" stroke="#666666" points="2511,-35.5 2371,-35.5 2371,-5.5 2511,-5.5 2511,-35.5"/>
<text text-anchor="start" x="2379" y="-23.5" font-family="Helvetica,sans-Serif" font-size="10.00">src/protocols/shared</text>
<text text-anchor="middle" x="2441" y="-12.5" font-family="Helvetica,sans-Serif" font-size="10.00">/http_cache_fill_registry.c</text>
</a>
</g>
</g>
<!-- Node1&#45;&gt;Node26 -->
<g id="edge30_Node000001_Node000026" class="edge">
<title>Node1&#45;&gt;Node26</title>
<g id="a_edge30_Node000001_Node000026"><a xlink:title=" ">
<path fill="none" stroke="#63b8ff" d="M1937.93,-165.46C2053.72,-160.75 2263.32,-148.26 2332,-118 2353.97,-108.32 2403.37,-59.85 2427.38,-35.5"/>
<polygon fill="#63b8ff" stroke="#63b8ff" points="1937.56,-161.97 1927.71,-165.86 1937.84,-168.96 1937.56,-161.97"/>
</a>
</g>
</g>
<!-- Node27 -->
<g id="Node000027" class="node">
<title>Node27</title>
<g id="a_Node000027"><a xlink:href="http__cache__fill__worker_8c.html" target="_top" xlink:title=" ">
<polygon fill="white" stroke="#666666" points="2665,-35.5 2529,-35.5 2529,-5.5 2665,-5.5 2665,-35.5"/>
<text text-anchor="start" x="2537" y="-23.5" font-family="Helvetica,sans-Serif" font-size="10.00">src/protocols/shared</text>
<text text-anchor="middle" x="2597" y="-12.5" font-family="Helvetica,sans-Serif" font-size="10.00">/http_cache_fill_worker.c</text>
</a>
</g>
</g>
<!-- Node1&#45;&gt;Node27 -->
<g id="edge31_Node000001_Node000027" class="edge">
<title>Node1&#45;&gt;Node27</title>
<g id="a_edge31_Node000001_Node000027"><a xlink:title=" ">
<path fill="none" stroke="#63b8ff" d="M1937.73,-166.68C2108.23,-163.21 2500.3,-151.63 2550,-118 2578.4,-98.78 2590.25,-57.34 2594.68,-35.55"/>
<polygon fill="#63b8ff" stroke="#63b8ff" points="1937.5,-163.19 1927.57,-166.89 1937.63,-170.19 1937.5,-163.19"/>
</a>
</g>
</g>
<!-- Node28 -->
<g id="Node000028" class="node">
<title>Node28</title>
<g id="a_Node000028"><a xlink:href="tpc_8c.html" target="_top" xlink:title=" ">
<polygon fill="white" stroke="#666666" points="2717,-112.5 2597,-112.5 2597,-82.5 2717,-82.5 2717,-112.5"/>
<text text-anchor="start" x="2605" y="-100.5" font-family="Helvetica,sans-Serif" font-size="10.00">src/protocols/webdav</text>
<text text-anchor="middle" x="2657" y="-89.5" font-family="Helvetica,sans-Serif" font-size="10.00">/tpc.c</text>
</a>
</g>
</g>
<!-- Node1&#45;&gt;Node28 -->
<g id="edge32_Node000001_Node000028" class="edge">
<title>Node1&#45;&gt;Node28</title>
<g id="a_edge32_Node000001_Node000028"><a xlink:title=" ">
<path fill="none" stroke="#63b8ff" d="M1937.76,-167.41C2071.36,-165.33 2350.52,-156.31 2583,-118 2591.52,-116.6 2600.49,-114.65 2609.12,-112.52"/>
<polygon fill="#63b8ff" stroke="#63b8ff" points="1937.57,-163.91 1927.62,-167.56 1937.67,-170.91 1937.57,-163.91"/>
</a>
</g>
</g>
<!-- Node29 -->
<g id="Node000029" class="node">
<title>Node29</title>
<g id="a_Node000029"><a xlink:href="tpc__copy_8c.html" target="_top" xlink:title=" ">
<polygon fill="white" stroke="#666666" points="2855,-112.5 2735,-112.5 2735,-82.5 2855,-82.5 2855,-112.5"/>
<text text-anchor="start" x="2743" y="-100.5" font-family="Helvetica,sans-Serif" font-size="10.00">src/protocols/webdav</text>
<text text-anchor="middle" x="2795" y="-89.5" font-family="Helvetica,sans-Serif" font-size="10.00">/tpc_copy.c</text>
</a>
</g>
</g>
<!-- Node1&#45;&gt;Node29 -->
<g id="edge33_Node000001_Node000029" class="edge">
<title>Node1&#45;&gt;Node29</title>
<g id="a_edge33_Node000001_Node000029"><a xlink:title=" ">
<path fill="none" stroke="#63b8ff" d="M1937.92,-165.65C2122.04,-159.81 2575.7,-143.26 2726,-118 2734.1,-116.64 2742.61,-114.68 2750.78,-112.53"/>
<polygon fill="#63b8ff" stroke="#63b8ff" points="1937.66,-162.16 1927.77,-165.97 1937.88,-169.15 1937.66,-162.16"/>
</a>
</g>
</g>
<!-- Node30 -->
<g id="Node000030" class="node">
<title>Node30</title>
<g id="a_Node000030"><a xlink:href="tpc__pull_8c.html" target="_top" xlink:title=" ">
<polygon fill="white" stroke="#666666" points="2993,-112.5 2873,-112.5 2873,-82.5 2993,-82.5 2993,-112.5"/>
<text text-anchor="start" x="2881" y="-100.5" font-family="Helvetica,sans-Serif" font-size="10.00">src/protocols/webdav</text>
<text text-anchor="middle" x="2933" y="-89.5" font-family="Helvetica,sans-Serif" font-size="10.00">/tpc_pull.c</text>
</a>
</g>
</g>
<!-- Node1&#45;&gt;Node30 -->
<g id="edge34_Node000001_Node000030" class="edge">
<title>Node1&#45;&gt;Node30</title>
<g id="a_edge34_Node000001_Node000030"><a xlink:title=" ">
<path fill="none" stroke="#63b8ff" d="M1937.55,-166.38C2141.82,-161.81 2686.1,-147.18 2864,-118 2872.11,-116.67 2880.62,-114.73 2888.79,-112.58"/>
<polygon fill="#63b8ff" stroke="#63b8ff" points="1937.42,-162.88 1927.5,-166.61 1937.58,-169.88 1937.42,-162.88"/>
</a>
</g>
</g>
<!-- Node31 -->
<g id="Node000031" class="node">
<title>Node31</title>
<g id="a_Node000031"><a xlink:href="tpc__push_8c.html" target="_top" xlink:title=" ">
<polygon fill="white" stroke="#666666" points="3131,-112.5 3011,-112.5 3011,-82.5 3131,-82.5 3131,-112.5"/>
<text text-anchor="start" x="3019" y="-100.5" font-family="Helvetica,sans-Serif" font-size="10.00">src/protocols/webdav</text>
<text text-anchor="middle" x="3071" y="-89.5" font-family="Helvetica,sans-Serif" font-size="10.00">/tpc_push.c</text>
</a>
</g>
</g>
<!-- Node1&#45;&gt;Node31 -->
<g id="edge35_Node000001_Node000031" class="edge">
<title>Node1&#45;&gt;Node31</title>
<g id="a_edge35_Node000001_Node000031"><a xlink:title=" ">
<path fill="none" stroke="#63b8ff" d="M1937.61,-166.93C2160.97,-163.51 2796.43,-151.08 3002,-118 3010.23,-116.67 3018.88,-114.71 3027.17,-112.53"/>
<polygon fill="#63b8ff" stroke="#63b8ff" points="1937.56,-163.43 1927.61,-167.08 1937.66,-170.43 1937.56,-163.43"/>
</a>
</g>
</g>
<!-- Node32 -->
<g id="Node000032" class="node">
<title>Node32</title>
<g id="a_Node000032"><a xlink:href="done_8c.html" target="_top" xlink:title=" ">
<polygon fill="white" stroke="#666666" points="3269,-107 3149,-107 3149,-88 3269,-88 3269,-107"/>
<text text-anchor="middle" x="3209" y="-95" font-family="Helvetica,sans-Serif" font-size="10.00">src/tpc/engine/done.c</text>
</a>
</g>
</g>
<!-- Node1&#45;&gt;Node32 -->
<g id="edge36_Node000001_Node000032" class="edge">
<title>Node1&#45;&gt;Node32</title>
<g id="a_edge36_Node000001_Node000032"><a xlink:title=" ">
<path fill="none" stroke="#63b8ff" d="M1937.76,-167.36C2179.18,-165.02 2906.63,-155 3140,-118 3154.88,-115.64 3171.11,-111.16 3184.08,-107.08"/>
<polygon fill="#63b8ff" stroke="#63b8ff" points="1937.62,-163.86 1927.66,-167.46 1937.69,-170.86 1937.62,-163.86"/>
</a>
</g>
</g>
<!-- Node33 -->
<g id="Node000033" class="node">
<title>Node33</title>
<g id="a_Node000033"><a xlink:href="launch_8c.html" target="_top" xlink:title=" ">
<polygon fill="white" stroke="#666666" points="3415,-107 3287,-107 3287,-88 3415,-88 3415,-107"/>
<text text-anchor="middle" x="3351" y="-95" font-family="Helvetica,sans-Serif" font-size="10.00">src/tpc/engine/launch.c</text>
</a>
</g>
</g>
<!-- Node1&#45;&gt;Node33 -->
<g id="edge37_Node000001_Node000033" class="edge">
<title>Node1&#45;&gt;Node33</title>
<g id="a_edge37_Node000001_Node000033"><a xlink:title=" ">
<path fill="none" stroke="#63b8ff" d="M1937.69,-167.56C2195.98,-165.76 3016.35,-157.04 3278,-118 3293.7,-115.66 3310.87,-111.17 3324.61,-107.09"/>
<polygon fill="#63b8ff" stroke="#63b8ff" points="1937.61,-164.06 1927.64,-167.63 1937.66,-171.06 1937.61,-164.06"/>
</a>
</g>
</g>
<!-- Node34 -->
<g id="Node000034" class="node">
<title>Node34</title>
<g id="a_Node000034"><a xlink:href="launch__prepare_8c.html" target="_top" xlink:title=" ">
<polygon fill="white" stroke="#666666" points="3553,-112.5 3433,-112.5 3433,-82.5 3553,-82.5 3553,-112.5"/>
<text text-anchor="start" x="3441" y="-100.5" font-family="Helvetica,sans-Serif" font-size="10.00">src/tpc/engine/launch</text>
<text text-anchor="middle" x="3493" y="-89.5" font-family="Helvetica,sans-Serif" font-size="10.00">_prepare.c</text>
</a>
</g>
</g>
<!-- Node1&#45;&gt;Node34 -->
<g id="edge38_Node000001_Node000034" class="edge">
<title>Node1&#45;&gt;Node34</title>
<g id="a_edge38_Node000001_Node000034"><a xlink:title=" ">
<path fill="none" stroke="#63b8ff" d="M1938.16,-168.01C2214.19,-167.67 3133.08,-163.06 3424,-118 3432.37,-116.7 3441.15,-114.72 3449.55,-112.51"/>
<polygon fill="#63b8ff" stroke="#63b8ff" points="1937.83,-164.51 1927.84,-168.03 1937.84,-171.51 1937.83,-164.51"/>
</a>
</g>
</g>
<!-- Node4 -->
<g id="Node000004" class="node">
<title>Node4</title>
<g id="a_Node000004"><a xlink:href="sesslog__conn_8c.html" target="_top" xlink:title=" ">
<polygon fill="white" stroke="#666666" points="255.5,-35.5 138.5,-35.5 138.5,-5.5 255.5,-5.5 255.5,-35.5"/>
<text text-anchor="start" x="146.5" y="-23.5" font-family="Helvetica,sans-Serif" font-size="10.00">src/core/http/sesslog</text>
<text text-anchor="middle" x="197" y="-12.5" font-family="Helvetica,sans-Serif" font-size="10.00">_conn.c</text>
</a>
</g>
</g>
<!-- Node3&#45;&gt;Node4 -->
<g id="edge3_Node000003_Node000004" class="edge">
<title>Node3&#45;&gt;Node4</title>
<g id="a_edge3_Node000003_Node000004"><a xlink:title=" ">
<path fill="none" stroke="#63b8ff" d="M243.73,-74.6C232.63,-61.99 219.02,-46.53 209.36,-35.54"/>
<polygon fill="#63b8ff" stroke="#63b8ff" points="241.35,-77.2 250.59,-82.39 246.61,-72.57 241.35,-77.2"/>
</a>
</g>
</g>
<!-- Node5 -->
<g id="Node000005" class="node">
<title>Node5</title>
<g id="a_Node000005"><a xlink:href="protocols_2cvmfs_2handler_8c.html" target="_top" xlink:title=" ">
<polygon fill="white" stroke="#666666" points="386,-35.5 274,-35.5 274,-5.5 386,-5.5 386,-35.5"/>
<text text-anchor="start" x="282" y="-23.5" font-family="Helvetica,sans-Serif" font-size="10.00">src/protocols/cvmfs</text>
<text text-anchor="middle" x="330" y="-12.5" font-family="Helvetica,sans-Serif" font-size="10.00">/handler.c</text>
</a>
</g>
</g>
<!-- Node3&#45;&gt;Node5 -->
<g id="edge4_Node000003_Node000005" class="edge">
<title>Node3&#45;&gt;Node5</title>
<g id="a_edge4_Node000003_Node000005"><a xlink:title=" ">
<path fill="none" stroke="#63b8ff" d="M282.57,-74.6C293.83,-61.99 307.64,-46.53 317.45,-35.54"/>
<polygon fill="#63b8ff" stroke="#63b8ff" points="279.65,-72.6 275.6,-82.39 284.87,-77.27 279.65,-72.6"/>
</a>
</g>
</g>
<!-- Node6 -->
<g id="Node000006" class="node">
<title>Node6</title>
<g id="a_Node000006"><a xlink:href="protocols_2s3_2metrics_8c.html" target="_top" xlink:title=" ">
<polygon fill="white" stroke="#666666" points="545.5,-30 404.5,-30 404.5,-11 545.5,-11 545.5,-30"/>
<text text-anchor="middle" x="475" y="-18" font-family="Helvetica,sans-Serif" font-size="10.00">src/protocols/s3/metrics.c</text>
</a>
</g>
</g>
<!-- Node3&#45;&gt;Node6 -->
<g id="edge5_Node000003_Node000006" class="edge">
<title>Node3&#45;&gt;Node6</title>
<g id="a_edge5_Node000003_Node000006"><a xlink:title=" ">
<path fill="none" stroke="#63b8ff" d="M312.41,-79.02C355.86,-63.65 417.27,-41.92 450.81,-30.06"/>
<polygon fill="#63b8ff" stroke="#63b8ff" points="311.14,-75.76 302.88,-82.39 313.47,-82.36 311.14,-75.76"/>
</a>
</g>
</g>
<!-- Node7 -->
<g id="Node000007" class="node">
<title>Node7</title>
<g id="a_Node000007"><a xlink:href="protocols_2webdav_2metrics_8c.html" target="_top" xlink:title=" ">
<polygon fill="white" stroke="#666666" points="120,-35.5 0,-35.5 0,-5.5 120,-5.5 120,-35.5"/>
<text text-anchor="start" x="8" y="-23.5" font-family="Helvetica,sans-Serif" font-size="10.00">src/protocols/webdav</text>
<text text-anchor="middle" x="60" y="-12.5" font-family="Helvetica,sans-Serif" font-size="10.00">/metrics.c</text>
</a>
</g>
</g>
<!-- Node3&#45;&gt;Node7 -->
<g id="edge6_Node000003_Node000007" class="edge">
<title>Node3&#45;&gt;Node7</title>
<g id="a_edge6_Node000003_Node000007"><a xlink:title=" ">
<path fill="none" stroke="#63b8ff" d="M215.08,-78.8C179.33,-65.59 131.13,-47.78 98.01,-35.54"/>
<polygon fill="#63b8ff" stroke="#63b8ff" points="214.22,-82.21 224.82,-82.39 216.65,-75.64 214.22,-82.21"/>
</a>
</g>
</g>
<!-- Node14&#45;&gt;Node13 -->
<g id="edge14_Node000014_Node000013" class="edge">
<title>Node14&#45;&gt;Node13</title>
<g id="a_edge14_Node000014_Node000013"><a xlink:title=" ">
<path fill="none" stroke="#63b8ff" d="M1125.15,-69.84C1112.21,-58.3 1097.6,-45.25 1086.82,-35.63"/>
<polygon fill="#63b8ff" stroke="#63b8ff" points="1123.14,-72.75 1132.93,-76.79 1127.8,-67.52 1123.14,-72.75"/>
</a>
</g>
</g>
<!-- Node14&#45;&gt;Node15 -->
<g id="edge15_Node000014_Node000015" class="edge">
<title>Node14&#45;&gt;Node15</title>
<g id="a_edge15_Node000014_Node000015"><a xlink:title=" ">
<path fill="none" stroke="#63b8ff" d="M1182.35,-69.51C1191.87,-60.11 1202.37,-49.76 1211.17,-41.07"/>
<polygon fill="#63b8ff" stroke="#63b8ff" points="1179.63,-67.28 1174.97,-76.79 1184.54,-72.26 1179.63,-67.28"/>
</a>
</g>
</g>
<!-- Node25&#45;&gt;Node24 -->
<g id="edge27_Node000025_Node000024" class="edge">
<title>Node25&#45;&gt;Node24</title>
<g id="a_edge27_Node000025_Node000024"><a xlink:title=" ">
<path fill="none" stroke="#63b8ff" d="M2427.5,-78.29C2396.81,-65.13 2355.96,-47.62 2327.77,-35.54"/>
<polygon fill="#63b8ff" stroke="#63b8ff" points="2426.51,-81.67 2437.08,-82.39 2429.27,-75.24 2426.51,-81.67"/>
</a>
</g>
</g>
<!-- Node25&#45;&gt;Node26 -->
<g id="edge28_Node000025_Node000026" class="edge">
<title>Node25&#45;&gt;Node26</title>
<g id="a_edge28_Node000025_Node000026"><a xlink:title=" ">
<path fill="none" stroke="#63b8ff" d="M2460.83,-72.78C2456.09,-60.53 2450.47,-46 2446.43,-35.54"/>
<polygon fill="#63b8ff" stroke="#63b8ff" points="2457.67,-74.33 2464.55,-82.39 2464.2,-71.8 2457.67,-74.33"/>
</a>
</g>
</g>
<!-- Node25&#45;&gt;Node27 -->
<g id="edge29_Node000025_Node000027" class="edge">
<title>Node25&#45;&gt;Node27</title>
<g id="a_edge29_Node000025_Node000027"><a xlink:title=" ">
<path fill="none" stroke="#63b8ff" d="M2502.59,-77.25C2524.65,-64.23 2553.29,-47.31 2573.22,-35.54"/>
<polygon fill="#63b8ff" stroke="#63b8ff" points="2500.72,-74.29 2493.89,-82.39 2504.28,-80.32 2500.72,-74.29"/>
</a>
</g>
</g>
</g>
</svg>
