<?xml version="1.0" encoding="UTF-8" standalone="no"?>
<!DOCTYPE svg PUBLIC "-//W3C//DTD SVG 1.1//EN"
 "http://www.w3.org/Graphics/SVG/1.1/DTD/svg11.dtd">
<!-- Generated by graphviz version 2.43.0 (0)
 -->
<!-- Title: src/observability/sesslog/sesslog.c Pages: 1 -->
<svg width="561pt" height="159pt"
 viewBox="0.00 0.00 560.50 159.00" xmlns="http://www.w3.org/2000/svg" xmlns:xlink="http://www.w3.org/1999/xlink">
<g id="graph0" class="graph" transform="scale(1 1) rotate(0) translate(4 155)">
<title>src/observability/sesslog/sesslog.c</title>
<!-- Node1 -->
<g id="Node000001" class="node">
<title>Node1</title>
<g id="a_Node000001"><a xlink:title=" ">
<polygon fill="#999999" stroke="#666666" points="417.5,-151 280.5,-151 280.5,-121 417.5,-121 417.5,-151"/>
<text text-anchor="start" x="288.5" y="-139" font-family="Helvetica,sans-Serif" font-size="10.00">src/observability/sesslog</text>
<text text-anchor="middle" x="349" y="-128" font-family="Helvetica,sans-Serif" font-size="10.00">/sesslog.c</text>
</a>
</g>
</g>
<!-- Node2 -->
<g id="Node000002" class="node">
<title>Node2</title>
<g id="a_Node000002"><a xlink:href="sesslog_8h.html" target="_top" xlink:title=" ">
<polygon fill="white" stroke="#666666" points="124,-85 4,-85 4,-55 124,-55 124,-85"/>
<text text-anchor="start" x="12" y="-73" font-family="Helvetica,sans-Serif" font-size="10.00">observability/sesslog</text>
<text text-anchor="middle" x="64" y="-62" font-family="Helvetica,sans-Serif" font-size="10.00">/sesslog.h</text>
</a>
</g>
</g>
<!-- Node1&#45;&gt;Node2 -->
<g id="edge1_Node000001_Node000002" class="edge">
<title>Node1&#45;&gt;Node2</title>
<g id="a_edge1_Node000001_Node000002"><a xlink:title=" ">
<path fill="none" stroke="#63b8ff" d="M286.46,-120.95C241.57,-110.88 181.05,-97.28 134.46,-86.82"/>
<polygon fill="#63b8ff" stroke="#63b8ff" points="134.97,-83.35 124.44,-84.57 133.43,-90.18 134.97,-83.35"/>
</a>
</g>
</g>
<!-- Node5 -->
<g id="Node000005" class="node">
<title>Node5</title>
<g id="a_Node000005"><a xlink:href="opcodes_8h.html" target="_top" xlink:title=" ">
<polygon fill="white" stroke="#666666" points="269.5,-85 142.5,-85 142.5,-55 269.5,-55 269.5,-85"/>
<text text-anchor="start" x="150.5" y="-73" font-family="Helvetica,sans-Serif" font-size="10.00">protocols/root/protocol</text>
<text text-anchor="middle" x="206" y="-62" font-family="Helvetica,sans-Serif" font-size="10.00">/opcodes.h</text>
</a>
</g>
</g>
<!-- Node1&#45;&gt;Node5 -->
<g id="edge4_Node000001_Node000005" class="edge">
<title>Node1&#45;&gt;Node5</title>
<g id="a_edge4_Node000001_Node000005"><a xlink:title=" ">
<path fill="none" stroke="#63b8ff" d="M317.62,-120.95C296.76,-111.62 269.16,-99.27 246.62,-89.18"/>
<polygon fill="#63b8ff" stroke="#63b8ff" points="247.87,-85.9 237.31,-85.01 245.01,-92.29 247.87,-85.9"/>
</a>
</g>
</g>
<!-- Node6 -->
<g id="Node000006" class="node">
<title>Node6</title>
<g id="a_Node000006"><a xlink:title=" ">
<polygon fill="#e0e0e0" stroke="#999999" points="338.5,-79.5 287.5,-79.5 287.5,-60.5 338.5,-60.5 338.5,-79.5"/>
<text text-anchor="middle" x="313" y="-67.5" font-family="Helvetica,sans-Serif" font-size="10.00">errno.h</text>
</a>
</g>
</g>
<!-- Node1&#45;&gt;Node6 -->
<g id="edge5_Node000001_Node000006" class="edge">
<title>Node1&#45;&gt;Node6</title>
<g id="a_edge5_Node000001_Node000006"><a xlink:title=" ">
<path fill="none" stroke="#63b8ff" d="M341.01,-120.8C335.67,-111.31 328.61,-98.76 322.92,-88.63"/>
<polygon fill="#63b8ff" stroke="#63b8ff" points="325.93,-86.84 317.97,-79.84 319.83,-90.28 325.93,-86.84"/>
</a>
</g>
</g>
<!-- Node7 -->
<g id="Node000007" class="node">
<title>Node7</title>
<g id="a_Node000007"><a xlink:title=" ">
<polygon fill="#e0e0e0" stroke="#999999" points="413,-79.5 357,-79.5 357,-60.5 413,-60.5 413,-79.5"/>
<text text-anchor="middle" x="385" y="-67.5" font-family="Helvetica,sans-Serif" font-size="10.00">stdarg.h</text>
</a>
</g>
</g>
<!-- Node1&#45;&gt;Node7 -->
<g id="edge6_Node000001_Node000007" class="edge">
<title>Node1&#45;&gt;Node7</title>
<g id="a_edge6_Node000001_Node000007"><a xlink:title=" ">
<path fill="none" stroke="#63b8ff" d="M356.99,-120.8C362.33,-111.31 369.39,-98.76 375.08,-88.63"/>
<polygon fill="#63b8ff" stroke="#63b8ff" points="378.17,-90.28 380.03,-79.84 372.07,-86.84 378.17,-90.28"/>
</a>
</g>
</g>
<!-- Node8 -->
<g id="Node000008" class="node">
<title>Node8</title>
<g id="a_Node000008"><a xlink:title=" ">
<polygon fill="#e0e0e0" stroke="#999999" points="481,-79.5 431,-79.5 431,-60.5 481,-60.5 481,-79.5"/>
<text text-anchor="middle" x="456" y="-67.5" font-family="Helvetica,sans-Serif" font-size="10.00">stdio.h</text>
</a>
</g>
</g>
<!-- Node1&#45;&gt;Node8 -->
<g id="edge7_Node000001_Node000008" class="edge">
<title>Node1&#45;&gt;Node8</title>
<g id="a_edge7_Node000001_Node000008"><a xlink:title=" ">
<path fill="none" stroke="#63b8ff" d="M372.48,-120.95C390.5,-110.18 415.24,-95.38 433.11,-84.69"/>
<polygon fill="#63b8ff" stroke="#63b8ff" points="434.97,-87.65 441.76,-79.52 431.38,-81.65 434.97,-87.65"/>
</a>
</g>
</g>
<!-- Node9 -->
<g id="Node000009" class="node">
<title>Node9</title>
<g id="a_Node000009"><a xlink:title=" ">
<polygon fill="#e0e0e0" stroke="#999999" points="552.5,-79.5 499.5,-79.5 499.5,-60.5 552.5,-60.5 552.5,-79.5"/>
<text text-anchor="middle" x="526" y="-67.5" font-family="Helvetica,sans-Serif" font-size="10.00">string.h</text>
</a>
</g>
</g>
<!-- Node1&#45;&gt;Node9 -->
<g id="edge8_Node000001_Node000009" class="edge">
<title>Node1&#45;&gt;Node9</title>
<g id="a_edge8_Node000001_Node000009"><a xlink:title=" ">
<path fill="none" stroke="#63b8ff" d="M389.53,-120.99C417.78,-111.14 456.28,-97.53 490,-85 491.6,-84.41 493.24,-83.79 494.89,-83.17"/>
<polygon fill="#63b8ff" stroke="#63b8ff" points="496.25,-86.39 504.34,-79.55 493.75,-79.85 496.25,-86.39"/>
</a>
</g>
</g>
<!-- Node3 -->
<g id="Node000003" class="node">
<title>Node3</title>
<g id="a_Node000003"><a xlink:title=" ">
<polygon fill="#e0e0e0" stroke="#999999" points="56,-19 0,-19 0,0 56,0 56,-19"/>
<text text-anchor="middle" x="28" y="-7" font-family="Helvetica,sans-Serif" font-size="10.00">stddef.h</text>
</a>
</g>
</g>
<!-- Node2&#45;&gt;Node3 -->
<g id="edge2_Node000002_Node000003" class="edge">
<title>Node2&#45;&gt;Node3</title>
<g id="a_edge2_Node000002_Node000003"><a xlink:title=" ">
<path fill="none" stroke="#63b8ff" d="M55.29,-54.84C50.33,-46.78 44.07,-36.62 38.8,-28.06"/>
<polygon fill="#63b8ff" stroke="#63b8ff" points="41.62,-25.95 33.39,-19.27 35.65,-29.62 41.62,-25.95"/>
</a>
</g>
</g>
<!-- Node4 -->
<g id="Node000004" class="node">
<title>Node4</title>
<g id="a_Node000004"><a xlink:title=" ">
<polygon fill="#e0e0e0" stroke="#999999" points="127.5,-19 74.5,-19 74.5,0 127.5,0 127.5,-19"/>
<text text-anchor="middle" x="101" y="-7" font-family="Helvetica,sans-Serif" font-size="10.00">stdint.h</text>
</a>
</g>
</g>
<!-- Node2&#45;&gt;Node4 -->
<g id="edge3_Node000002_Node000004" class="edge">
<title>Node2&#45;&gt;Node4</title>
<g id="a_edge3_Node000002_Node000004"><a xlink:title=" ">
<path fill="none" stroke="#63b8ff" d="M72.96,-54.84C78.11,-46.69 84.62,-36.4 90.07,-27.78"/>
<polygon fill="#63b8ff" stroke="#63b8ff" points="93.07,-29.59 95.46,-19.27 87.15,-25.85 93.07,-29.59"/>
</a>
</g>
</g>
</g>
</svg>
