<?xml version="1.0" encoding="UTF-8" standalone="no"?>
<!DOCTYPE svg PUBLIC "-//W3C//DTD SVG 1.1//EN"
 "http://www.w3.org/Graphics/SVG/1.1/DTD/svg11.dtd">
<!-- Generated by graphviz version 2.43.0 (0)
 -->
<!-- Title: src/core/http/sesslog_conn.c Pages: 1 -->
<svg width="928pt" height="401pt"
 viewBox="0.00 0.00 928.00 401.00" xmlns="http://www.w3.org/2000/svg" xmlns:xlink="http://www.w3.org/1999/xlink">
<g id="graph0" class="graph" transform="scale(1 1) rotate(0) translate(4 397)">
<title>src/core/http/sesslog_conn.c</title>
<!-- Node1 -->
<g id="Node000001" class="node">
<title>Node1</title>
<g id="a_Node000001"><a xlink:title=" ">
<polygon fill="#999999" stroke="#666666" points="597.5,-393 480.5,-393 480.5,-363 597.5,-363 597.5,-393"/>
<text text-anchor="start" x="488.5" y="-381" font-family="Helvetica,sans-Serif" font-size="10.00">src/core/http/sesslog</text>
<text text-anchor="middle" x="539" y="-370" font-family="Helvetica,sans-Serif" font-size="10.00">_conn.c</text>
</a>
</g>
</g>
<!-- Node2 -->
<g id="Node000002" class="node">
<title>Node2</title>
<g id="a_Node000002"><a xlink:href="sesslog__conn_8h.html" target="_top" xlink:title=" ">
<polygon fill="white" stroke="#666666" points="607.5,-327 470.5,-327 470.5,-308 607.5,-308 607.5,-327"/>
<text text-anchor="middle" x="539" y="-315" font-family="Helvetica,sans-Serif" font-size="10.00">core/http/sesslog_conn.h</text>
</a>
</g>
</g>
<!-- Node1&#45;&gt;Node2 -->
<g id="edge1_Node000001_Node000002" class="edge">
<title>Node1&#45;&gt;Node2</title>
<g id="a_edge1_Node000001_Node000002"><a xlink:title=" ">
<path fill="none" stroke="#63b8ff" d="M539,-362.84C539,-355.21 539,-345.7 539,-337.45"/>
<polygon fill="#63b8ff" stroke="#63b8ff" points="542.5,-337.27 539,-327.27 535.5,-337.27 542.5,-337.27"/>
</a>
</g>
</g>
<!-- Node3 -->
<g id="Node000003" class="node">
<title>Node3</title>
<g id="a_Node000003"><a xlink:title=" ">
<polygon fill="#e0e0e0" stroke="#999999" points="220,-79.5 142,-79.5 142,-60.5 220,-60.5 220,-79.5"/>
<text text-anchor="middle" x="181" y="-67.5" font-family="Helvetica,sans-Serif" font-size="10.00">ngx_config.h</text>
</a>
</g>
</g>
<!-- Node2&#45;&gt;Node3 -->
<g id="edge2_Node000002_Node000003" class="edge">
<title>Node2&#45;&gt;Node3</title>
<g id="a_edge2_Node000002_Node000003"><a xlink:title=" ">
<path fill="none" stroke="#63b8ff" d="M470.39,-314.66C366.9,-307.7 174.03,-277.45 90,-151 82.62,-139.9 83.21,-132.48 90,-121 100.71,-102.9 120.55,-90.91 138.99,-83.23"/>
<polygon fill="#63b8ff" stroke="#63b8ff" points="140.37,-86.45 148.44,-79.59 137.85,-79.91 140.37,-86.45"/>
</a>
</g>
</g>
<!-- Node4 -->
<g id="Node000004" class="node">
<title>Node4</title>
<g id="a_Node000004"><a xlink:title=" ">
<polygon fill="#e0e0e0" stroke="#999999" points="330,-79.5 260,-79.5 260,-60.5 330,-60.5 330,-79.5"/>
<text text-anchor="middle" x="295" y="-67.5" font-family="Helvetica,sans-Serif" font-size="10.00">ngx_core.h</text>
</a>
</g>
</g>
<!-- Node2&#45;&gt;Node4 -->
<g id="edge3_Node000002_Node000004" class="edge">
<title>Node2&#45;&gt;Node4</title>
<g id="a_edge3_Node000002_Node000004"><a xlink:title=" ">
<path fill="none" stroke="#63b8ff" d="M571.37,-307.95C658.34,-283.53 885.27,-209.52 805,-121 774.07,-86.89 459.7,-75.25 340.5,-72.05"/>
<polygon fill="#63b8ff" stroke="#63b8ff" points="340.34,-68.54 330.25,-71.78 340.16,-75.54 340.34,-68.54"/>
</a>
</g>
</g>
<!-- Node5 -->
<g id="Node000005" class="node">
<title>Node5</title>
<g id="a_Node000005"><a xlink:title=" ">
<polygon fill="#e0e0e0" stroke="#999999" points="920,-266.5 852,-266.5 852,-247.5 920,-247.5 920,-266.5"/>
<text text-anchor="middle" x="886" y="-254.5" font-family="Helvetica,sans-Serif" font-size="10.00">ngx_http.h</text>
</a>
</g>
</g>
<!-- Node2&#45;&gt;Node5 -->
<g id="edge4_Node000002_Node000005" class="edge">
<title>Node2&#45;&gt;Node5</title>
<g id="a_edge4_Node000002_Node000005"><a xlink:title=" ">
<path fill="none" stroke="#63b8ff" d="M607.77,-308.96C668.68,-301.65 759.82,-289.14 838,-272 841.65,-271.2 845.43,-270.27 849.19,-269.29"/>
<polygon fill="#63b8ff" stroke="#63b8ff" points="850.3,-272.61 859,-266.57 848.43,-265.86 850.3,-272.61"/>
</a>
</g>
</g>
<!-- Node6 -->
<g id="Node000006" class="node">
<title>Node6</title>
<g id="a_Node000006"><a xlink:href="shared__conf_8h.html" target="_top" xlink:title=" ">
<polygon fill="white" stroke="#666666" points="592,-272 486,-272 486,-242 592,-242 592,-272"/>
<text text-anchor="start" x="494" y="-260" font-family="Helvetica,sans-Serif" font-size="10.00">core/config/shared</text>
<text text-anchor="middle" x="539" y="-249" font-family="Helvetica,sans-Serif" font-size="10.00">_conf.h</text>
</a>
</g>
</g>
<!-- Node2&#45;&gt;Node6 -->
<g id="edge5_Node000002_Node000006" class="edge">
<title>Node2&#45;&gt;Node6</title>
<g id="a_edge5_Node000002_Node000006"><a xlink:title=" ">
<path fill="none" stroke="#63b8ff" d="M539,-307.87C539,-301.11 539,-291.35 539,-282.26"/>
<polygon fill="#63b8ff" stroke="#63b8ff" points="542.5,-282.11 539,-272.11 535.5,-282.11 542.5,-282.11"/>
</a>
</g>
</g>
<!-- Node14 -->
<g id="Node000014" class="node">
<title>Node14</title>
<g id="a_Node000014"><a xlink:href="sesslog__ngx_8h.html" target="_top" xlink:title=" ">
<polygon fill="white" stroke="#666666" points="219,-151 99,-151 99,-121 219,-121 219,-151"/>
<text text-anchor="start" x="107" y="-139" font-family="Helvetica,sans-Serif" font-size="10.00">observability/sesslog</text>
<text text-anchor="middle" x="159" y="-128" font-family="Helvetica,sans-Serif" font-size="10.00">/sesslog_ngx.h</text>
</a>
</g>
</g>
<!-- Node2&#45;&gt;Node14 -->
<g id="edge21_Node000002_Node000014" class="edge">
<title>Node2&#45;&gt;Node14</title>
<g id="a_edge21_Node000002_Node000014"><a xlink:title=" ">
<path fill="none" stroke="#63b8ff" d="M520.93,-307.96C462.75,-280.48 279.38,-193.87 198.26,-155.55"/>
<polygon fill="#63b8ff" stroke="#63b8ff" points="199.43,-152.23 188.89,-151.12 196.44,-158.56 199.43,-152.23"/>
</a>
</g>
</g>
<!-- Node7 -->
<g id="Node000007" class="node">
<title>Node7</title>
<g id="a_Node000007"><a xlink:title=" ">
<polygon fill="#e0e0e0" stroke="#999999" points="724.5,-145.5 617.5,-145.5 617.5,-126.5 724.5,-126.5 724.5,-145.5"/>
<text text-anchor="middle" x="671" y="-133.5" font-family="Helvetica,sans-Serif" font-size="10.00">ngx_thread_pool.h</text>
</a>
</g>
</g>
<!-- Node6&#45;&gt;Node7 -->
<g id="edge6_Node000006_Node000007" class="edge">
<title>Node6&#45;&gt;Node7</title>
<g id="a_edge6_Node000006_Node000007"><a xlink:title=" ">
<path fill="none" stroke="#63b8ff" d="M568.66,-241.98C585.46,-233.14 606.21,-220.64 622,-206 638.26,-190.92 652.38,-169.64 661.23,-154.71"/>
<polygon fill="#63b8ff" stroke="#63b8ff" points="664.32,-156.36 666.26,-145.94 658.25,-152.88 664.32,-156.36"/>
</a>
</g>
</g>
<!-- Node8 -->
<g id="Node000008" class="node">
<title>Node8</title>
<g id="a_Node000008"><a xlink:title=" ">
<polygon fill="#e0e0e0" stroke="#999999" points="795.5,-145.5 742.5,-145.5 742.5,-126.5 795.5,-126.5 795.5,-145.5"/>
<text text-anchor="middle" x="769" y="-133.5" font-family="Helvetica,sans-Serif" font-size="10.00">regex.h</text>
</a>
</g>
</g>
<!-- Node6&#45;&gt;Node8 -->
<g id="edge7_Node000006_Node000008" class="edge">
<title>Node6&#45;&gt;Node8</title>
<g id="a_edge7_Node000006_Node000008"><a xlink:title=" ">
<path fill="none" stroke="#63b8ff" d="M570.02,-241.82C591.05,-232.07 619.39,-218.64 644,-206 679.78,-187.63 720.42,-164.82 745.39,-150.59"/>
<polygon fill="#63b8ff" stroke="#63b8ff" points="747.21,-153.58 754.15,-145.58 743.73,-147.5 747.21,-153.58"/>
</a>
</g>
</g>
<!-- Node9 -->
<g id="Node000009" class="node">
<title>Node9</title>
<g id="a_Node000009"><a xlink:title=" ">
<polygon fill="#e0e0e0" stroke="#999999" points="435,-145.5 371,-145.5 371,-126.5 435,-126.5 435,-145.5"/>
<text text-anchor="middle" x="403" y="-133.5" font-family="Helvetica,sans-Serif" font-size="10.00">sys/stat.h</text>
</a>
</g>
</g>
<!-- Node6&#45;&gt;Node9 -->
<g id="edge8_Node000006_Node000009" class="edge">
<title>Node6&#45;&gt;Node9</title>
<g id="a_edge8_Node000006_Node000009"><a xlink:title=" ">
<path fill="none" stroke="#63b8ff" d="M514.56,-241.94C499.31,-232.64 479.68,-219.68 464,-206 445.64,-189.98 427.53,-168.59 415.87,-153.89"/>
<polygon fill="#63b8ff" stroke="#63b8ff" points="418.41,-151.45 409.5,-145.71 412.88,-155.75 418.41,-151.45"/>
</a>
</g>
</g>
<!-- Node10 -->
<g id="Node000010" class="node">
<title>Node10</title>
<g id="a_Node000010"><a xlink:title=" ">
<polygon fill="#e0e0e0" stroke="#999999" points="525,-145.5 453,-145.5 453,-126.5 525,-126.5 525,-145.5"/>
<text text-anchor="middle" x="489" y="-133.5" font-family="Helvetica,sans-Serif" font-size="10.00">sys/types.h</text>
</a>
</g>
</g>
<!-- Node6&#45;&gt;Node10 -->
<g id="edge9_Node000006_Node000010" class="edge">
<title>Node6&#45;&gt;Node10</title>
<g id="a_edge9_Node000006_Node000010"><a xlink:title=" ">
<path fill="none" stroke="#63b8ff" d="M508.97,-241.84C495.02,-233.53 479.81,-221.57 472,-206 463.82,-189.69 470.76,-169.2 478.09,-154.8"/>
<polygon fill="#63b8ff" stroke="#63b8ff" points="481.22,-156.37 483.04,-145.93 475.11,-152.96 481.22,-156.37"/>
</a>
</g>
</g>
<!-- Node11 -->
<g id="Node000011" class="node">
<title>Node11</title>
<g id="a_Node000011"><a xlink:title=" ">
<polygon fill="#e0e0e0" stroke="#999999" points="599,-145.5 543,-145.5 543,-126.5 599,-126.5 599,-145.5"/>
<text text-anchor="middle" x="571" y="-133.5" font-family="Helvetica,sans-Serif" font-size="10.00">unistd.h</text>
</a>
</g>
</g>
<!-- Node6&#45;&gt;Node11 -->
<g id="edge10_Node000006_Node000011" class="edge">
<title>Node6&#45;&gt;Node11</title>
<g id="a_edge10_Node000006_Node000011"><a xlink:title=" ">
<path fill="none" stroke="#63b8ff" d="M569.46,-241.94C583.62,-233.66 599.06,-221.69 607,-206 616.18,-187.86 602.13,-167.21 588.99,-153.26"/>
<polygon fill="#63b8ff" stroke="#63b8ff" points="591.11,-150.44 581.54,-145.9 586.19,-155.41 591.11,-150.44"/>
</a>
</g>
</g>
<!-- Node12 -->
<g id="Node000012" class="node">
<title>Node12</title>
<g id="a_Node000012"><a xlink:href="pmark_8h.html" target="_top" xlink:title=" ">
<polygon fill="white" stroke="#666666" points="352.5,-151 237.5,-151 237.5,-121 352.5,-121 352.5,-151"/>
<text text-anchor="start" x="245.5" y="-139" font-family="Helvetica,sans-Serif" font-size="10.00">observability/pmark</text>
<text text-anchor="middle" x="295" y="-128" font-family="Helvetica,sans-Serif" font-size="10.00">/pmark.h</text>
</a>
</g>
</g>
<!-- Node6&#45;&gt;Node12 -->
<g id="edge11_Node000006_Node000012" class="edge">
<title>Node6&#45;&gt;Node12</title>
<g id="a_edge11_Node000006_Node000012"><a xlink:title=" ">
<path fill="none" stroke="#63b8ff" d="M510.05,-241.88C465.94,-220.37 381.85,-179.36 332.91,-155.49"/>
<polygon fill="#63b8ff" stroke="#63b8ff" points="334.43,-152.34 323.91,-151.1 331.36,-158.63 334.43,-152.34"/>
</a>
</g>
</g>
<!-- Node13 -->
<g id="Node000013" class="node">
<title>Node13</title>
<g id="a_Node000013"><a xlink:href="shared__conf__types_8h.html" target="_top" xlink:title=" ">
<polygon fill="white" stroke="#666666" points="597.5,-206 480.5,-206 480.5,-187 597.5,-187 597.5,-206"/>
<text text-anchor="middle" x="539" y="-194" font-family="Helvetica,sans-Serif" font-size="10.00">shared_conf_types.h</text>
</a>
</g>
</g>
<!-- Node6&#45;&gt;Node13 -->
<g id="edge14_Node000006_Node000013" class="edge">
<title>Node6&#45;&gt;Node13</title>
<g id="a_edge14_Node000006_Node000013"><a xlink:title=" ">
<path fill="none" stroke="#63b8ff" d="M539,-241.84C539,-234.21 539,-224.7 539,-216.45"/>
<polygon fill="#63b8ff" stroke="#63b8ff" points="542.5,-216.27 539,-206.27 535.5,-216.27 542.5,-216.27"/>
</a>
</g>
</g>
<!-- Node12&#45;&gt;Node3 -->
<g id="edge12_Node000012_Node000003" class="edge">
<title>Node12&#45;&gt;Node3</title>
<g id="a_edge12_Node000012_Node000003"><a xlink:title=" ">
<path fill="none" stroke="#63b8ff" d="M269.98,-120.95C250.69,-110.13 224.18,-95.24 205.12,-84.54"/>
<polygon fill="#63b8ff" stroke="#63b8ff" points="206.6,-81.36 196.17,-79.52 203.18,-87.46 206.6,-81.36"/>
</a>
</g>
</g>
<!-- Node12&#45;&gt;Node4 -->
<g id="edge13_Node000012_Node000004" class="edge">
<title>Node12&#45;&gt;Node4</title>
<g id="a_edge13_Node000012_Node000004"><a xlink:title=" ">
<path fill="none" stroke="#63b8ff" d="M295,-120.8C295,-111.7 295,-99.79 295,-89.9"/>
<polygon fill="#63b8ff" stroke="#63b8ff" points="298.5,-89.84 295,-79.84 291.5,-89.84 298.5,-89.84"/>
</a>
</g>
</g>
<!-- Node13&#45;&gt;Node7 -->
<g id="edge15_Node000013_Node000007" class="edge">
<title>Node13&#45;&gt;Node7</title>
<g id="a_edge15_Node000013_Node000007"><a xlink:title=" ">
<path fill="none" stroke="#63b8ff" d="M558.19,-186.99C580.39,-177.16 617.12,-160.88 642.62,-149.58"/>
<polygon fill="#63b8ff" stroke="#63b8ff" points="644.06,-152.77 651.78,-145.52 641.22,-146.37 644.06,-152.77"/>
</a>
</g>
</g>
<!-- Node13&#45;&gt;Node8 -->
<g id="edge16_Node000013_Node000008" class="edge">
<title>Node13&#45;&gt;Node8</title>
<g id="a_edge16_Node000013_Node000008"><a xlink:title=" ">
<path fill="none" stroke="#63b8ff" d="M585.64,-186.99C625.49,-179.21 684.11,-166.57 734,-151 735.87,-150.42 737.79,-149.78 739.71,-149.1"/>
<polygon fill="#63b8ff" stroke="#63b8ff" points="741.07,-152.33 749.2,-145.54 738.61,-145.78 741.07,-152.33"/>
</a>
</g>
</g>
<!-- Node13&#45;&gt;Node9 -->
<g id="edge17_Node000013_Node000009" class="edge">
<title>Node13&#45;&gt;Node9</title>
<g id="a_edge17_Node000013_Node000009"><a xlink:title=" ">
<path fill="none" stroke="#63b8ff" d="M519.22,-186.99C496.36,-177.16 458.51,-160.88 432.24,-149.58"/>
<polygon fill="#63b8ff" stroke="#63b8ff" points="433.37,-146.25 422.8,-145.52 430.6,-152.68 433.37,-146.25"/>
</a>
</g>
</g>
<!-- Node13&#45;&gt;Node10 -->
<g id="edge18_Node000013_Node000010" class="edge">
<title>Node13&#45;&gt;Node10</title>
<g id="a_edge18_Node000013_Node000010"><a xlink:title=" ">
<path fill="none" stroke="#63b8ff" d="M531.62,-186.87C524.09,-178.05 512.21,-164.16 502.91,-153.27"/>
<polygon fill="#63b8ff" stroke="#63b8ff" points="505.57,-151 496.41,-145.67 500.24,-155.54 505.57,-151"/>
</a>
</g>
</g>
<!-- Node13&#45;&gt;Node11 -->
<g id="edge19_Node000013_Node000011" class="edge">
<title>Node13&#45;&gt;Node11</title>
<g id="a_edge19_Node000013_Node000011"><a xlink:title=" ">
<path fill="none" stroke="#63b8ff" d="M543.72,-186.87C548.35,-178.4 555.55,-165.24 561.39,-154.57"/>
<polygon fill="#63b8ff" stroke="#63b8ff" points="564.53,-156.12 566.26,-145.67 558.39,-152.76 564.53,-156.12"/>
</a>
</g>
</g>
<!-- Node13&#45;&gt;Node12 -->
<g id="edge20_Node000013_Node000012" class="edge">
<title>Node13&#45;&gt;Node12</title>
<g id="a_edge20_Node000013_Node000012"><a xlink:title=" ">
<path fill="none" stroke="#63b8ff" d="M503.52,-186.99C466.7,-178.17 408.22,-164.15 362.55,-153.2"/>
<polygon fill="#63b8ff" stroke="#63b8ff" points="363.26,-149.77 352.72,-150.84 361.63,-156.57 363.26,-149.77"/>
</a>
</g>
</g>
<!-- Node14&#45;&gt;Node3 -->
<g id="edge22_Node000014_Node000003" class="edge">
<title>Node14&#45;&gt;Node3</title>
<g id="a_edge22_Node000014_Node000003"><a xlink:title=" ">
<path fill="none" stroke="#63b8ff" d="M163.88,-120.8C167.04,-111.6 171.19,-99.53 174.61,-89.58"/>
<polygon fill="#63b8ff" stroke="#63b8ff" points="178.02,-90.44 177.96,-79.84 171.4,-88.16 178.02,-90.44"/>
</a>
</g>
</g>
<!-- Node14&#45;&gt;Node4 -->
<g id="edge23_Node000014_Node000004" class="edge">
<title>Node14&#45;&gt;Node4</title>
<g id="a_edge23_Node000014_Node000004"><a xlink:title=" ">
<path fill="none" stroke="#63b8ff" d="M188.85,-120.95C212.38,-109.88 244.93,-94.56 267.77,-83.82"/>
<polygon fill="#63b8ff" stroke="#63b8ff" points="269.34,-86.94 276.9,-79.52 266.36,-80.61 269.34,-86.94"/>
</a>
</g>
</g>
<!-- Node15 -->
<g id="Node000015" class="node">
<title>Node15</title>
<g id="a_Node000015"><a xlink:href="sesslog_8h.html" target="_top" xlink:title=" ">
<polygon fill="white" stroke="#666666" points="124,-85 4,-85 4,-55 124,-55 124,-85"/>
<text text-anchor="start" x="12" y="-73" font-family="Helvetica,sans-Serif" font-size="10.00">observability/sesslog</text>
<text text-anchor="middle" x="64" y="-62" font-family="Helvetica,sans-Serif" font-size="10.00">/sesslog.h</text>
</a>
</g>
</g>
<!-- Node14&#45;&gt;Node15 -->
<g id="edge24_Node000014_Node000015" class="edge">
<title>Node14&#45;&gt;Node15</title>
<g id="a_edge24_Node000014_Node000015"><a xlink:title=" ">
<path fill="none" stroke="#63b8ff" d="M137.92,-120.8C124.88,-112.01 107.95,-100.61 93.58,-90.93"/>
<polygon fill="#63b8ff" stroke="#63b8ff" points="95.27,-87.85 85.02,-85.16 91.36,-93.65 95.27,-87.85"/>
</a>
</g>
</g>
<!-- Node16 -->
<g id="Node000016" class="node">
<title>Node16</title>
<g id="a_Node000016"><a xlink:title=" ">
<polygon fill="#e0e0e0" stroke="#999999" points="56,-19 0,-19 0,0 56,0 56,-19"/>
<text text-anchor="middle" x="28" y="-7" font-family="Helvetica,sans-Serif" font-size="10.00">stddef.h</text>
</a>
</g>
</g>
<!-- Node15&#45;&gt;Node16 -->
<g id="edge25_Node000015_Node000016" class="edge">
<title>Node15&#45;&gt;Node16</title>
<g id="a_edge25_Node000015_Node000016"><a xlink:title=" ">
<path fill="none" stroke="#63b8ff" d="M55.29,-54.84C50.33,-46.78 44.07,-36.62 38.8,-28.06"/>
<polygon fill="#63b8ff" stroke="#63b8ff" points="41.62,-25.95 33.39,-19.27 35.65,-29.62 41.62,-25.95"/>
</a>
</g>
</g>
<!-- Node17 -->
<g id="Node000017" class="node">
<title>Node17</title>
<g id="a_Node000017"><a xlink:title=" ">
<polygon fill="#e0e0e0" stroke="#999999" points="127.5,-19 74.5,-19 74.5,0 127.5,0 127.5,-19"/>
<text text-anchor="middle" x="101" y="-7" font-family="Helvetica,sans-Serif" font-size="10.00">stdint.h</text>
</a>
</g>
</g>
<!-- Node15&#45;&gt;Node17 -->
<g id="edge26_Node000015_Node000017" class="edge">
<title>Node15&#45;&gt;Node17</title>
<g id="a_edge26_Node000015_Node000017"><a xlink:title=" ">
<path fill="none" stroke="#63b8ff" d="M72.96,-54.84C78.11,-46.69 84.62,-36.4 90.07,-27.78"/>
<polygon fill="#63b8ff" stroke="#63b8ff" points="93.07,-29.59 95.46,-19.27 87.15,-25.85 93.07,-29.59"/>
</a>
</g>
</g>
</g>
</svg>
