<?xml version="1.0" encoding="UTF-8" standalone="no"?>
<!DOCTYPE svg PUBLIC "-//W3C//DTD SVG 1.1//EN"
 "http://www.w3.org/Graphics/SVG/1.1/DTD/svg11.dtd">
<!-- Generated by graphviz version 2.43.0 (0)
 -->
<!-- Title: src/observability/sesslog/sesslog_ngx.h Pages: 1 -->
<svg width="3728pt" height="192pt"
 viewBox="0.00 0.00 3728.00 192.00" xmlns="http://www.w3.org/2000/svg" xmlns:xlink="http://www.w3.org/1999/xlink">
<g id="graph0" class="graph" transform="scale(1 1) rotate(0) translate(4 188)">
<title>src/observability/sesslog/sesslog_ngx.h</title>
<!-- Node1 -->
<g id="Node000001" class="node">
<title>Node1</title>
<g id="a_Node000001"><a xlink:title=" ">
<polygon fill="#999999" stroke="#666666" points="2027.5,-184 1890.5,-184 1890.5,-154 2027.5,-154 2027.5,-184"/>
<text text-anchor="start" x="1898.5" y="-172" font-family="Helvetica,sans-Serif" font-size="10.00">src/observability/sesslog</text>
<text text-anchor="middle" x="1959" y="-161" font-family="Helvetica,sans-Serif" font-size="10.00">/sesslog_ngx.h</text>
</a>
</g>
</g>
<!-- Node2 -->
<g id="Node000002" class="node">
<title>Node2</title>
<g id="a_Node000002"><a xlink:href="process_8c.html" target="_top" xlink:title=" ">
<polygon fill="white" stroke="#666666" points="186,-107 50,-107 50,-88 186,-88 186,-107"/>
<text text-anchor="middle" x="118" y="-95" font-family="Helvetica,sans-Serif" font-size="10.00">src/core/config/process.c</text>
</a>
</g>
</g>
<!-- Node1&#45;&gt;Node2 -->
<g id="edge1_Node000001_Node000002" class="edge">
<title>Node1&#45;&gt;Node2</title>
<g id="a_edge1_Node000001_Node000002"><a xlink:title=" ">
<path fill="none" stroke="#63b8ff" d="M1880.04,-168.06C1582.26,-167.95 527.32,-164.22 195,-118 178.34,-115.68 160.07,-111.15 145.51,-107.03"/>
<polygon fill="#63b8ff" stroke="#63b8ff" points="1880.31,-171.56 1890.31,-168.07 1880.31,-164.56 1880.31,-171.56"/>
</a>
</g>
</g>
<!-- Node3 -->
<g id="Node000003" class="node">
<title>Node3</title>
<g id="a_Node000003"><a xlink:href="sesslog__conn_8h.html" target="_top" xlink:title=" ">
<polygon fill="white" stroke="#666666" points="321.5,-112.5 204.5,-112.5 204.5,-82.5 321.5,-82.5 321.5,-112.5"/>
<text text-anchor="start" x="212.5" y="-100.5" font-family="Helvetica,sans-Serif" font-size="10.00">src/core/http/sesslog</text>
<text text-anchor="middle" x="263" y="-89.5" font-family="Helvetica,sans-Serif" font-size="10.00">_conn.h</text>
</a>
</g>
</g>
<!-- Node1&#45;&gt;Node3 -->
<g id="edge2_Node000001_Node000003" class="edge">
<title>Node1&#45;&gt;Node3</title>
<g id="a_edge2_Node000001_Node000003"><a xlink:title=" ">
<path fill="none" stroke="#63b8ff" d="M1879.99,-168.17C1596.99,-168.37 634.74,-165.46 331,-118 322.75,-116.71 314.08,-114.73 305.81,-112.52"/>
<polygon fill="#63b8ff" stroke="#63b8ff" points="1880.17,-171.67 1890.16,-168.16 1880.16,-164.67 1880.17,-171.67"/>
</a>
</g>
</g>
<!-- Node8 -->
<g id="Node000008" class="node">
<title>Node8</title>
<g id="a_Node000008"><a xlink:href="net_2cms_2connect_8c.html" target="_top" xlink:title=" ">
<polygon fill="white" stroke="#666666" points="462,-107 340,-107 340,-88 462,-88 462,-107"/>
<text text-anchor="middle" x="401" y="-95" font-family="Helvetica,sans-Serif" font-size="10.00">src/net/cms/connect.c</text>
</a>
</g>
</g>
<!-- Node1&#45;&gt;Node8 -->
<g id="edge7_Node000001_Node000008" class="edge">
<title>Node1&#45;&gt;Node8</title>
<g id="a_edge7_Node000001_Node000008"><a xlink:title=" ">
<path fill="none" stroke="#63b8ff" d="M1879.71,-167.82C1612.5,-166.83 746.27,-160.35 471,-118 455.79,-115.66 439.18,-111.12 425.96,-107.01"/>
<polygon fill="#63b8ff" stroke="#63b8ff" points="1880.09,-171.32 1890.1,-167.86 1880.11,-164.32 1880.09,-171.32"/>
</a>
</g>
</g>
<!-- Node9 -->
<g id="Node000009" class="node">
<title>Node9</title>
<g id="a_Node000009"><a xlink:href="server__handler_8c.html" target="_top" xlink:title=" ">
<polygon fill="white" stroke="#666666" points="587.5,-112.5 480.5,-112.5 480.5,-82.5 587.5,-82.5 587.5,-112.5"/>
<text text-anchor="start" x="488.5" y="-100.5" font-family="Helvetica,sans-Serif" font-size="10.00">src/net/cms/server</text>
<text text-anchor="middle" x="534" y="-89.5" font-family="Helvetica,sans-Serif" font-size="10.00">_handler.c</text>
</a>
</g>
</g>
<!-- Node1&#45;&gt;Node9 -->
<g id="edge8_Node000001_Node000009" class="edge">
<title>Node1&#45;&gt;Node9</title>
<g id="a_edge8_Node000001_Node000009"><a xlink:title=" ">
<path fill="none" stroke="#63b8ff" d="M1879.95,-167.88C1627.91,-167.04 845.29,-160.97 596,-118 588.55,-116.72 580.75,-114.77 573.3,-112.59"/>
<polygon fill="#63b8ff" stroke="#63b8ff" points="1880.11,-171.38 1890.12,-167.91 1880.13,-164.38 1880.11,-171.38"/>
</a>
</g>
</g>
<!-- Node10 -->
<g id="Node000010" class="node">
<title>Node10</title>
<g id="a_Node000010"><a xlink:href="server__recv__lifecycle_8c.html" target="_top" xlink:title=" ">
<polygon fill="white" stroke="#666666" points="712.5,-112.5 605.5,-112.5 605.5,-82.5 712.5,-82.5 712.5,-112.5"/>
<text text-anchor="start" x="613.5" y="-100.5" font-family="Helvetica,sans-Serif" font-size="10.00">src/net/cms/server</text>
<text text-anchor="middle" x="659" y="-89.5" font-family="Helvetica,sans-Serif" font-size="10.00">_recv_lifecycle.c</text>
</a>
</g>
</g>
<!-- Node1&#45;&gt;Node10 -->
<g id="edge9_Node000001_Node000010" class="edge">
<title>Node1&#45;&gt;Node10</title>
<g id="a_edge9_Node000001_Node000010"><a xlink:title=" ">
<path fill="none" stroke="#63b8ff" d="M1880.03,-167.53C1643.79,-165.7 945.08,-157.05 721,-118 713.55,-116.7 705.76,-114.75 698.3,-112.57"/>
<polygon fill="#63b8ff" stroke="#63b8ff" points="1880.23,-171.03 1890.26,-167.61 1880.29,-164.03 1880.23,-171.03"/>
</a>
</g>
</g>
<!-- Node11 -->
<g id="Node000011" class="node">
<title>Node11</title>
<g id="a_Node000011"><a xlink:href="accesslog_2access__log_8c.html" target="_top" xlink:title=" ">
<polygon fill="white" stroke="#666666" points="879.5,-112.5 730.5,-112.5 730.5,-82.5 879.5,-82.5 879.5,-112.5"/>
<text text-anchor="start" x="738.5" y="-100.5" font-family="Helvetica,sans-Serif" font-size="10.00">src/observability/accesslog</text>
<text text-anchor="middle" x="805" y="-89.5" font-family="Helvetica,sans-Serif" font-size="10.00">/access_log.c</text>
</a>
</g>
</g>
<!-- Node1&#45;&gt;Node11 -->
<g id="edge10_Node000001_Node000011" class="edge">
<title>Node1&#45;&gt;Node11</title>
<g id="a_edge10_Node000001_Node000011"><a xlink:title=" ">
<path fill="none" stroke="#63b8ff" d="M1880.29,-166.21C1666.75,-161.04 1079.7,-144.76 888,-118 878.32,-116.65 868.12,-114.7 858.31,-112.55"/>
<polygon fill="#63b8ff" stroke="#63b8ff" points="1880.39,-169.71 1890.48,-166.45 1880.56,-162.71 1880.39,-169.71"/>
</a>
</g>
</g>
<!-- Node12 -->
<g id="Node000012" class="node">
<title>Node12</title>
<g id="a_Node000012"><a xlink:href="access__log__sesslog_8c.html" target="_top" xlink:title=" ">
<polygon fill="white" stroke="#666666" points="1046.5,-112.5 897.5,-112.5 897.5,-82.5 1046.5,-82.5 1046.5,-112.5"/>
<text text-anchor="start" x="905.5" y="-100.5" font-family="Helvetica,sans-Serif" font-size="10.00">src/observability/accesslog</text>
<text text-anchor="middle" x="972" y="-89.5" font-family="Helvetica,sans-Serif" font-size="10.00">/access_log_sesslog.c</text>
</a>
</g>
</g>
<!-- Node1&#45;&gt;Node12 -->
<g id="edge11_Node000001_Node000012" class="edge">
<title>Node1&#45;&gt;Node12</title>
<g id="a_edge11_Node000001_Node000012"><a xlink:title=" ">
<path fill="none" stroke="#63b8ff" d="M1880.19,-168.27C1722.6,-167.8 1357.76,-161.59 1055,-118 1045.48,-116.63 1035.44,-114.7 1025.76,-112.58"/>
<polygon fill="#63b8ff" stroke="#63b8ff" points="1880.26,-171.77 1890.27,-168.3 1880.28,-164.77 1880.26,-171.77"/>
</a>
</g>
</g>
<!-- Node13 -->
<g id="Node000013" class="node">
<title>Node13</title>
<g id="a_Node000013"><a xlink:href="sesslog__ngx_8c.html" target="_top" xlink:title=" ">
<polygon fill="white" stroke="#666666" points="1201.5,-112.5 1064.5,-112.5 1064.5,-82.5 1201.5,-82.5 1201.5,-112.5"/>
<text text-anchor="start" x="1072.5" y="-100.5" font-family="Helvetica,sans-Serif" font-size="10.00">src/observability/sesslog</text>
<text text-anchor="middle" x="1133" y="-89.5" font-family="Helvetica,sans-Serif" font-size="10.00">/sesslog_ngx.c</text>
</a>
</g>
</g>
<!-- Node1&#45;&gt;Node13 -->
<g id="edge12_Node000001_Node000013" class="edge">
<title>Node1&#45;&gt;Node13</title>
<g id="a_edge12_Node000001_Node000013"><a xlink:title=" ">
<path fill="none" stroke="#63b8ff" d="M1880.14,-166.92C1743.96,-164.11 1456.18,-154.05 1216,-118 1206.63,-116.59 1196.76,-114.67 1187.22,-112.58"/>
<polygon fill="#63b8ff" stroke="#63b8ff" points="1880.41,-170.43 1890.48,-167.13 1880.55,-163.43 1880.41,-170.43"/>
</a>
</g>
</g>
<!-- Node14 -->
<g id="Node000014" class="node">
<title>Node14</title>
<g id="a_Node000014"><a xlink:href="disconnect_8c.html" target="_top" xlink:title=" ">
<polygon fill="white" stroke="#666666" points="1306.5,-35.5 1169.5,-35.5 1169.5,-5.5 1306.5,-5.5 1306.5,-35.5"/>
<text text-anchor="start" x="1177.5" y="-23.5" font-family="Helvetica,sans-Serif" font-size="10.00">src/protocols/root</text>
<text text-anchor="middle" x="1238" y="-12.5" font-family="Helvetica,sans-Serif" font-size="10.00">/connection/disconnect.c</text>
</a>
</g>
</g>
<!-- Node1&#45;&gt;Node14 -->
<g id="edge13_Node000001_Node000014" class="edge">
<title>Node1&#45;&gt;Node14</title>
<g id="a_edge13_Node000001_Node000014"><a xlink:title=" ">
<path fill="none" stroke="#63b8ff" d="M1880,-168.01C1704.44,-167.25 1293.76,-160.87 1249,-118 1226.84,-96.77 1230.63,-56.95 1234.67,-35.71"/>
<polygon fill="#63b8ff" stroke="#63b8ff" points="1880.2,-171.51 1890.21,-168.05 1880.22,-164.51 1880.2,-171.51"/>
</a>
</g>
</g>
<!-- Node15 -->
<g id="Node000015" class="node">
<title>Node15</title>
<g id="a_Node000015"><a xlink:href="disconnect__internal_8h.html" target="_top" xlink:title=" ">
<polygon fill="white" stroke="#666666" points="1386,-118 1258,-118 1258,-77 1386,-77 1386,-118"/>
<text text-anchor="start" x="1266" y="-106" font-family="Helvetica,sans-Serif" font-size="10.00">src/protocols/root</text>
<text text-anchor="start" x="1266" y="-95" font-family="Helvetica,sans-Serif" font-size="10.00">/connection/disconnect</text>
<text text-anchor="middle" x="1322" y="-84" font-family="Helvetica,sans-Serif" font-size="10.00">_internal.h</text>
</a>
</g>
</g>
<!-- Node1&#45;&gt;Node15 -->
<g id="edge14_Node000001_Node000015" class="edge">
<title>Node1&#45;&gt;Node15</title>
<g id="a_edge14_Node000001_Node000015"><a xlink:title=" ">
<path fill="none" stroke="#63b8ff" d="M1879.92,-164.81C1771.17,-159.54 1569.63,-146.61 1400,-118 1395.46,-117.23 1390.79,-116.34 1386.11,-115.37"/>
<polygon fill="#63b8ff" stroke="#63b8ff" points="1879.99,-168.32 1890.15,-165.3 1880.33,-161.32 1879.99,-168.32"/>
</a>
</g>
</g>
<!-- Node16 -->
<g id="Node000016" class="node">
<title>Node16</title>
<g id="a_Node000016"><a xlink:href="disconnect__report_8c.html" target="_top" xlink:title=" ">
<polygon fill="white" stroke="#666666" points="1462,-41 1334,-41 1334,0 1462,0 1462,-41"/>
<text text-anchor="start" x="1342" y="-29" font-family="Helvetica,sans-Serif" font-size="10.00">src/protocols/root</text>
<text text-anchor="start" x="1342" y="-18" font-family="Helvetica,sans-Serif" font-size="10.00">/connection/disconnect</text>
<text text-anchor="middle" x="1398" y="-7" font-family="Helvetica,sans-Serif" font-size="10.00">_report.c</text>
</a>
</g>
</g>
<!-- Node1&#45;&gt;Node16 -->
<g id="edge17_Node000001_Node000016" class="edge">
<title>Node1&#45;&gt;Node16</title>
<g id="a_edge17_Node000001_Node000016"><a xlink:title=" ">
<path fill="none" stroke="#63b8ff" d="M1880.33,-165.12C1742.25,-159.39 1467.56,-144.76 1433,-118 1409.33,-99.67 1401.65,-63.84 1399.17,-41.37"/>
<polygon fill="#63b8ff" stroke="#63b8ff" points="1880.3,-168.62 1890.43,-165.53 1880.59,-161.62 1880.3,-168.62"/>
</a>
</g>
</g>
<!-- Node17 -->
<g id="Node000017" class="node">
<title>Node17</title>
<g id="a_Node000017"><a xlink:href="protocols_2root_2connection_2handler_8c.html" target="_top" xlink:title=" ">
<polygon fill="white" stroke="#666666" points="1562,-112.5 1442,-112.5 1442,-82.5 1562,-82.5 1562,-112.5"/>
<text text-anchor="start" x="1450" y="-100.5" font-family="Helvetica,sans-Serif" font-size="10.00">src/protocols/root</text>
<text text-anchor="middle" x="1502" y="-89.5" font-family="Helvetica,sans-Serif" font-size="10.00">/connection/handler.c</text>
</a>
</g>
</g>
<!-- Node1&#45;&gt;Node17 -->
<g id="edge18_Node000001_Node000017" class="edge">
<title>Node1&#45;&gt;Node17</title>
<g id="a_edge18_Node000001_Node000017"><a xlink:title=" ">
<path fill="none" stroke="#63b8ff" d="M1879.83,-161.24C1801.02,-153.71 1676.87,-139.66 1571,-118 1563.56,-116.48 1555.75,-114.57 1548.16,-112.56"/>
<polygon fill="#63b8ff" stroke="#63b8ff" points="1879.88,-164.76 1890.16,-162.22 1880.53,-157.79 1879.88,-164.76"/>
</a>
</g>
</g>
<!-- Node18 -->
<g id="Node000018" class="node">
<title>Node18</title>
<g id="a_Node000018"><a xlink:href="close_8c.html" target="_top" xlink:title=" ">
<polygon fill="white" stroke="#666666" points="1681.5,-112.5 1580.5,-112.5 1580.5,-82.5 1681.5,-82.5 1681.5,-112.5"/>
<text text-anchor="start" x="1588.5" y="-100.5" font-family="Helvetica,sans-Serif" font-size="10.00">src/protocols/root</text>
<text text-anchor="middle" x="1631" y="-89.5" font-family="Helvetica,sans-Serif" font-size="10.00">/read/close.c</text>
</a>
</g>
</g>
<!-- Node1&#45;&gt;Node18 -->
<g id="edge19_Node000001_Node000018" class="edge">
<title>Node1&#45;&gt;Node18</title>
<g id="a_edge19_Node000001_Node000018"><a xlink:title=" ">
<path fill="none" stroke="#63b8ff" d="M1880.31,-156.08C1826.59,-147.27 1754.02,-134.05 1691,-118 1684.74,-116.41 1678.17,-114.51 1671.78,-112.54"/>
<polygon fill="#63b8ff" stroke="#63b8ff" points="1880.02,-159.58 1890.45,-157.73 1881.14,-152.67 1880.02,-159.58"/>
</a>
</g>
</g>
<!-- Node19 -->
<g id="Node000019" class="node">
<title>Node19</title>
<g id="a_Node000019"><a xlink:href="open__resolved__file_8c.html" target="_top" xlink:title=" ">
<polygon fill="white" stroke="#666666" points="1816,-118 1700,-118 1700,-77 1816,-77 1816,-118"/>
<text text-anchor="start" x="1708" y="-106" font-family="Helvetica,sans-Serif" font-size="10.00">src/protocols/root</text>
<text text-anchor="start" x="1708" y="-95" font-family="Helvetica,sans-Serif" font-size="10.00">/read/open_resolved</text>
<text text-anchor="middle" x="1758" y="-84" font-family="Helvetica,sans-Serif" font-size="10.00">_file.c</text>
</a>
</g>
</g>
<!-- Node1&#45;&gt;Node19 -->
<g id="edge20_Node000001_Node000019" class="edge">
<title>Node1&#45;&gt;Node19</title>
<g id="a_edge20_Node000001_Node000019"><a xlink:title=" ">
<path fill="none" stroke="#63b8ff" d="M1908.54,-150.55C1879.96,-140.67 1844.14,-128.28 1814.61,-118.07"/>
<polygon fill="#63b8ff" stroke="#63b8ff" points="1907.73,-153.98 1918.32,-153.94 1910.02,-147.36 1907.73,-153.98"/>
</a>
</g>
</g>
<!-- Node20 -->
<g id="Node000020" class="node">
<title>Node20</title>
<g id="a_Node000020"><a xlink:href="open__resolved__file__dispatch_8c.html" target="_top" xlink:title=" ">
<polygon fill="white" stroke="#666666" points="1950,-118 1834,-118 1834,-77 1950,-77 1950,-118"/>
<text text-anchor="start" x="1842" y="-106" font-family="Helvetica,sans-Serif" font-size="10.00">src/protocols/root</text>
<text text-anchor="start" x="1842" y="-95" font-family="Helvetica,sans-Serif" font-size="10.00">/read/open_resolved</text>
<text text-anchor="middle" x="1892" y="-84" font-family="Helvetica,sans-Serif" font-size="10.00">_file_dispatch.c</text>
</a>
</g>
</g>
<!-- Node1&#45;&gt;Node20 -->
<g id="edge21_Node000001_Node000020" class="edge">
<title>Node1&#45;&gt;Node20</title>
<g id="a_edge21_Node000001_Node000020"><a xlink:title=" ">
<path fill="none" stroke="#63b8ff" d="M1938.45,-146.69C1929.66,-137.57 1919.47,-126.99 1910.87,-118.07"/>
<polygon fill="#63b8ff" stroke="#63b8ff" points="1935.98,-149.17 1945.44,-153.94 1941.02,-144.31 1935.98,-149.17"/>
</a>
</g>
</g>
<!-- Node21 -->
<g id="Node000021" class="node">
<title>Node21</title>
<g id="a_Node000021"><a xlink:href="open__resolved__file__finalize_8c.html" target="_top" xlink:title=" ">
<polygon fill="white" stroke="#666666" points="2084,-118 1968,-118 1968,-77 2084,-77 2084,-118"/>
<text text-anchor="start" x="1976" y="-106" font-family="Helvetica,sans-Serif" font-size="10.00">src/protocols/root</text>
<text text-anchor="start" x="1976" y="-95" font-family="Helvetica,sans-Serif" font-size="10.00">/read/open_resolved</text>
<text text-anchor="middle" x="2026" y="-84" font-family="Helvetica,sans-Serif" font-size="10.00">_file_finalize.c</text>
</a>
</g>
</g>
<!-- Node1&#45;&gt;Node21 -->
<g id="edge22_Node000001_Node000021" class="edge">
<title>Node1&#45;&gt;Node21</title>
<g id="a_edge22_Node000001_Node000021"><a xlink:title=" ">
<path fill="none" stroke="#63b8ff" d="M1979.55,-146.69C1988.34,-137.57 1998.53,-126.99 2007.13,-118.07"/>
<polygon fill="#63b8ff" stroke="#63b8ff" points="1976.98,-144.31 1972.56,-153.94 1982.02,-149.17 1976.98,-144.31"/>
</a>
</g>
</g>
<!-- Node22 -->
<g id="Node000022" class="node">
<title>Node22</title>
<g id="a_Node000022"><a xlink:href="open__resolved__file__open_8c.html" target="_top" xlink:title=" ">
<polygon fill="white" stroke="#666666" points="2218,-118 2102,-118 2102,-77 2218,-77 2218,-118"/>
<text text-anchor="start" x="2110" y="-106" font-family="Helvetica,sans-Serif" font-size="10.00">src/protocols/root</text>
<text text-anchor="start" x="2110" y="-95" font-family="Helvetica,sans-Serif" font-size="10.00">/read/open_resolved</text>
<text text-anchor="middle" x="2160" y="-84" font-family="Helvetica,sans-Serif" font-size="10.00">_file_open.c</text>
</a>
</g>
</g>
<!-- Node1&#45;&gt;Node22 -->
<g id="edge23_Node000001_Node000022" class="edge">
<title>Node1&#45;&gt;Node22</title>
<g id="a_edge23_Node000001_Node000022"><a xlink:title=" ">
<path fill="none" stroke="#63b8ff" d="M2009.46,-150.55C2038.04,-140.67 2073.86,-128.28 2103.39,-118.07"/>
<polygon fill="#63b8ff" stroke="#63b8ff" points="2007.98,-147.36 1999.68,-153.94 2010.27,-153.98 2007.98,-147.36"/>
</a>
</g>
</g>
<!-- Node23 -->
<g id="Node000023" class="node">
<title>Node23</title>
<g id="a_Node000023"><a xlink:href="open__resolved__file__staging_8c.html" target="_top" xlink:title=" ">
<polygon fill="white" stroke="#666666" points="2352,-118 2236,-118 2236,-77 2352,-77 2352,-118"/>
<text text-anchor="start" x="2244" y="-106" font-family="Helvetica,sans-Serif" font-size="10.00">src/protocols/root</text>
<text text-anchor="start" x="2244" y="-95" font-family="Helvetica,sans-Serif" font-size="10.00">/read/open_resolved</text>
<text text-anchor="middle" x="2294" y="-84" font-family="Helvetica,sans-Serif" font-size="10.00">_file_staging.c</text>
</a>
</g>
</g>
<!-- Node1&#45;&gt;Node23 -->
<g id="edge24_Node000001_Node000023" class="edge">
<title>Node1&#45;&gt;Node23</title>
<g id="a_edge24_Node000001_Node000023"><a xlink:title=" ">
<path fill="none" stroke="#63b8ff" d="M2037.81,-155.4C2091.43,-146.32 2163.85,-133.04 2227,-118 2229.95,-117.3 2232.96,-116.55 2235.99,-115.76"/>
<polygon fill="#63b8ff" stroke="#63b8ff" points="2036.97,-152 2027.69,-157.11 2038.13,-158.9 2036.97,-152"/>
</a>
</g>
</g>
<!-- Node24 -->
<g id="Node000024" class="node">
<title>Node24</title>
<g id="a_Node000024"><a xlink:href="login_8c.html" target="_top" xlink:title=" ">
<polygon fill="white" stroke="#666666" points="2471.5,-112.5 2370.5,-112.5 2370.5,-82.5 2471.5,-82.5 2471.5,-112.5"/>
<text text-anchor="start" x="2378.5" y="-100.5" font-family="Helvetica,sans-Serif" font-size="10.00">src/protocols/root</text>
<text text-anchor="middle" x="2421" y="-89.5" font-family="Helvetica,sans-Serif" font-size="10.00">/session/login.c</text>
</a>
</g>
</g>
<!-- Node1&#45;&gt;Node24 -->
<g id="edge25_Node000001_Node000024" class="edge">
<title>Node1&#45;&gt;Node24</title>
<g id="a_edge25_Node000001_Node000024"><a xlink:title=" ">
<path fill="none" stroke="#63b8ff" d="M2037.8,-162.66C2119.4,-156.09 2250.23,-142.65 2361,-118 2367.63,-116.52 2374.57,-114.62 2381.27,-112.58"/>
<polygon fill="#63b8ff" stroke="#63b8ff" points="2037.3,-159.19 2027.6,-163.46 2037.85,-166.17 2037.3,-159.19"/>
</a>
</g>
</g>
<!-- Node25 -->
<g id="Node000025" class="node">
<title>Node25</title>
<g id="a_Node000025"><a xlink:href="http__cache__fill_8c.html" target="_top" xlink:title=" ">
<polygon fill="white" stroke="#666666" points="2533.5,-35.5 2418.5,-35.5 2418.5,-5.5 2533.5,-5.5 2533.5,-35.5"/>
<text text-anchor="start" x="2426.5" y="-23.5" font-family="Helvetica,sans-Serif" font-size="10.00">src/protocols/shared</text>
<text text-anchor="middle" x="2476" y="-12.5" font-family="Helvetica,sans-Serif" font-size="10.00">/http_cache_fill.c</text>
</a>
</g>
</g>
<!-- Node1&#45;&gt;Node25 -->
<g id="edge26_Node000001_Node000025" class="edge">
<title>Node1&#45;&gt;Node25</title>
<g id="a_edge26_Node000001_Node000025"><a xlink:title=" ">
<path fill="none" stroke="#63b8ff" d="M2037.66,-166.16C2175.95,-162.11 2450.86,-150.07 2480,-118 2500.41,-95.54 2489.96,-56.6 2482.08,-35.71"/>
<polygon fill="#63b8ff" stroke="#63b8ff" points="2037.43,-162.66 2027.54,-166.45 2037.63,-169.66 2037.43,-162.66"/>
</a>
</g>
</g>
<!-- Node26 -->
<g id="Node000026" class="node">
<title>Node26</title>
<g id="a_Node000026"><a xlink:href="http__cache__fill__internal_8h.html" target="_top" xlink:title=" ">
<polygon fill="white" stroke="#666666" points="2670,-112.5 2528,-112.5 2528,-82.5 2670,-82.5 2670,-112.5"/>
<text text-anchor="start" x="2536" y="-100.5" font-family="Helvetica,sans-Serif" font-size="10.00">src/protocols/shared</text>
<text text-anchor="middle" x="2599" y="-89.5" font-family="Helvetica,sans-Serif" font-size="10.00">/http_cache_fill_internal.h</text>
</a>
</g>
</g>
<!-- Node1&#45;&gt;Node26 -->
<g id="edge27_Node000001_Node000026" class="edge">
<title>Node1&#45;&gt;Node26</title>
<g id="a_edge27_Node000001_Node000026"><a xlink:title=" ">
<path fill="none" stroke="#63b8ff" d="M2037.88,-164.27C2145.87,-158.39 2345.54,-144.78 2514,-118 2523.27,-116.53 2533.04,-114.62 2542.51,-112.58"/>
<polygon fill="#63b8ff" stroke="#63b8ff" points="2037.52,-160.78 2027.72,-164.81 2037.9,-167.77 2037.52,-160.78"/>
</a>
</g>
</g>
<!-- Node27 -->
<g id="Node000027" class="node">
<title>Node27</title>
<g id="a_Node000027"><a xlink:href="http__cache__fill__registry_8c.html" target="_top" xlink:title=" ">
<polygon fill="white" stroke="#666666" points="2692,-35.5 2552,-35.5 2552,-5.5 2692,-5.5 2692,-35.5"/>
<text text-anchor="start" x="2560" y="-23.5" font-family="Helvetica,sans-Serif" font-size="10.00">src/protocols/shared</text>
<text text-anchor="middle" x="2622" y="-12.5" font-family="Helvetica,sans-Serif" font-size="10.00">/http_cache_fill_registry.c</text>
</a>
</g>
</g>
<!-- Node1&#45;&gt;Node27 -->
<g id="edge31_Node000001_Node000027" class="edge">
<title>Node1&#45;&gt;Node27</title>
<g id="a_edge31_Node000001_Node000027"><a xlink:title=" ">
<path fill="none" stroke="#63b8ff" d="M2037.89,-168.44C2215.77,-168.62 2636,-164.09 2679,-118 2702.76,-92.53 2665.43,-55.5 2640.82,-35.53"/>
<polygon fill="#63b8ff" stroke="#63b8ff" points="2037.82,-164.94 2027.81,-168.43 2037.81,-171.94 2037.82,-164.94"/>
</a>
</g>
</g>
<!-- Node28 -->
<g id="Node000028" class="node">
<title>Node28</title>
<g id="a_Node000028"><a xlink:href="http__cache__fill__worker_8c.html" target="_top" xlink:title=" ">
<polygon fill="white" stroke="#666666" points="2846,-35.5 2710,-35.5 2710,-5.5 2846,-5.5 2846,-35.5"/>
<text text-anchor="start" x="2718" y="-23.5" font-family="Helvetica,sans-Serif" font-size="10.00">src/protocols/shared</text>
<text text-anchor="middle" x="2778" y="-12.5" font-family="Helvetica,sans-Serif" font-size="10.00">/http_cache_fill_worker.c</text>
</a>
</g>
</g>
<!-- Node1&#45;&gt;Node28 -->
<g id="edge32_Node000001_Node000028" class="edge">
<title>Node1&#45;&gt;Node28</title>
<g id="a_edge32_Node000001_Node000028"><a xlink:title=" ">
<path fill="none" stroke="#63b8ff" d="M2037.89,-166.1C2216.02,-161.32 2638.4,-147.05 2696,-118 2732.12,-99.78 2758.68,-57.9 2770.76,-35.78"/>
<polygon fill="#63b8ff" stroke="#63b8ff" points="2037.7,-162.61 2027.79,-166.37 2037.88,-169.6 2037.7,-162.61"/>
</a>
</g>
</g>
<!-- Node29 -->
<g id="Node000029" class="node">
<title>Node29</title>
<g id="a_Node000029"><a xlink:href="tpc_8c.html" target="_top" xlink:title=" ">
<polygon fill="white" stroke="#666666" points="2884,-112.5 2764,-112.5 2764,-82.5 2884,-82.5 2884,-112.5"/>
<text text-anchor="start" x="2772" y="-100.5" font-family="Helvetica,sans-Serif" font-size="10.00">src/protocols/webdav</text>
<text text-anchor="middle" x="2824" y="-89.5" font-family="Helvetica,sans-Serif" font-size="10.00">/tpc.c</text>
</a>
</g>
</g>
<!-- Node1&#45;&gt;Node29 -->
<g id="edge33_Node000001_Node000029" class="edge">
<title>Node1&#45;&gt;Node29</title>
<g id="a_edge33_Node000001_Node000029"><a xlink:title=" ">
<path fill="none" stroke="#63b8ff" d="M2038.17,-168.07C2181.22,-167.07 2491.92,-159.75 2750,-118 2758.52,-116.62 2767.49,-114.68 2776.13,-112.56"/>
<polygon fill="#63b8ff" stroke="#63b8ff" points="2037.72,-164.57 2027.74,-168.13 2037.76,-171.57 2037.72,-164.57"/>
</a>
</g>
</g>
<!-- Node30 -->
<g id="Node000030" class="node">
<title>Node30</title>
<g id="a_Node000030"><a xlink:href="tpc__copy_8c.html" target="_top" xlink:title=" ">
<polygon fill="white" stroke="#666666" points="3022,-112.5 2902,-112.5 2902,-82.5 3022,-82.5 3022,-112.5"/>
<text text-anchor="start" x="2910" y="-100.5" font-family="Helvetica,sans-Serif" font-size="10.00">src/protocols/webdav</text>
<text text-anchor="middle" x="2962" y="-89.5" font-family="Helvetica,sans-Serif" font-size="10.00">/tpc_copy.c</text>
</a>
</g>
</g>
<!-- Node1&#45;&gt;Node30 -->
<g id="edge34_Node000001_Node000030" class="edge">
<title>Node1&#45;&gt;Node30</title>
<g id="a_edge34_Node000001_Node000030"><a xlink:title=" ">
<path fill="none" stroke="#63b8ff" d="M2037.75,-166.03C2231.85,-160.82 2729.33,-145.16 2893,-118 2901.11,-116.65 2909.62,-114.71 2917.79,-112.56"/>
<polygon fill="#63b8ff" stroke="#63b8ff" points="2037.53,-162.54 2027.62,-166.3 2037.71,-169.53 2037.53,-162.54"/>
</a>
</g>
</g>
<!-- Node31 -->
<g id="Node000031" class="node">
<title>Node31</title>
<g id="a_Node000031"><a xlink:href="tpc__pull_8c.html" target="_top" xlink:title=" ">
<polygon fill="white" stroke="#666666" points="3160,-112.5 3040,-112.5 3040,-82.5 3160,-82.5 3160,-112.5"/>
<text text-anchor="start" x="3048" y="-100.5" font-family="Helvetica,sans-Serif" font-size="10.00">src/protocols/webdav</text>
<text text-anchor="middle" x="3100" y="-89.5" font-family="Helvetica,sans-Serif" font-size="10.00">/tpc_pull.c</text>
</a>
</g>
</g>
<!-- Node1&#45;&gt;Node31 -->
<g id="edge35_Node000001_Node000031" class="edge">
<title>Node1&#45;&gt;Node31</title>
<g id="a_edge35_Node000001_Node000031"><a xlink:title=" ">
<path fill="none" stroke="#63b8ff" d="M2037.85,-166.66C2251.77,-162.65 2839.77,-149.06 3031,-118 3039.23,-116.66 3047.88,-114.69 3056.17,-112.51"/>
<polygon fill="#63b8ff" stroke="#63b8ff" points="2037.58,-163.16 2027.65,-166.85 2037.71,-170.16 2037.58,-163.16"/>
</a>
</g>
</g>
<!-- Node32 -->
<g id="Node000032" class="node">
<title>Node32</title>
<g id="a_Node000032"><a xlink:href="tpc__push_8c.html" target="_top" xlink:title=" ">
<polygon fill="white" stroke="#666666" points="3298,-112.5 3178,-112.5 3178,-82.5 3298,-82.5 3298,-112.5"/>
<text text-anchor="start" x="3186" y="-100.5" font-family="Helvetica,sans-Serif" font-size="10.00">src/protocols/webdav</text>
<text text-anchor="middle" x="3238" y="-89.5" font-family="Helvetica,sans-Serif" font-size="10.00">/tpc_push.c</text>
</a>
</g>
</g>
<!-- Node1&#45;&gt;Node32 -->
<g id="edge36_Node000001_Node000032" class="edge">
<title>Node1&#45;&gt;Node32</title>
<g id="a_edge36_Node000001_Node000032"><a xlink:title=" ">
<path fill="none" stroke="#63b8ff" d="M2037.75,-167.15C2270.07,-164.26 2949.98,-152.98 3169,-118 3177.24,-116.68 3185.89,-114.72 3194.17,-112.54"/>
<polygon fill="#63b8ff" stroke="#63b8ff" points="2037.65,-163.65 2027.69,-167.27 2037.73,-170.65 2037.65,-163.65"/>
</a>
</g>
</g>
<!-- Node33 -->
<g id="Node000033" class="node">
<title>Node33</title>
<g id="a_Node000033"><a xlink:href="done_8c.html" target="_top" xlink:title=" ">
<polygon fill="white" stroke="#666666" points="3436,-107 3316,-107 3316,-88 3436,-88 3436,-107"/>
<text text-anchor="middle" x="3376" y="-95" font-family="Helvetica,sans-Serif" font-size="10.00">src/tpc/engine/done.c</text>
</a>
</g>
</g>
<!-- Node1&#45;&gt;Node33 -->
<g id="edge37_Node000001_Node000033" class="edge">
<title>Node1&#45;&gt;Node33</title>
<g id="a_edge37_Node000001_Node000033"><a xlink:title=" ">
<path fill="none" stroke="#63b8ff" d="M2038,-167.54C2288.03,-165.69 3060.15,-156.89 3307,-118 3321.88,-115.66 3338.11,-111.17 3351.09,-107.09"/>
<polygon fill="#63b8ff" stroke="#63b8ff" points="2037.88,-164.04 2027.9,-167.61 2037.93,-171.04 2037.88,-164.04"/>
</a>
</g>
</g>
<!-- Node34 -->
<g id="Node000034" class="node">
<title>Node34</title>
<g id="a_Node000034"><a xlink:href="launch_8c.html" target="_top" xlink:title=" ">
<polygon fill="white" stroke="#666666" points="3582,-107 3454,-107 3454,-88 3582,-88 3582,-107"/>
<text text-anchor="middle" x="3518" y="-95" font-family="Helvetica,sans-Serif" font-size="10.00">src/tpc/engine/launch.c</text>
</a>
</g>
</g>
<!-- Node1&#45;&gt;Node34 -->
<g id="edge38_Node000001_Node000034" class="edge">
<title>Node1&#45;&gt;Node34</title>
<g id="a_edge38_Node000001_Node000034"><a xlink:title=" ">
<path fill="none" stroke="#63b8ff" d="M2038.17,-167.71C2304.97,-166.35 3169.88,-158.83 3445,-118 3460.83,-115.65 3478.15,-111.11 3491.95,-107"/>
<polygon fill="#63b8ff" stroke="#63b8ff" points="2037.78,-164.21 2027.8,-167.76 2037.81,-171.21 2037.78,-164.21"/>
</a>
</g>
</g>
<!-- Node35 -->
<g id="Node000035" class="node">
<title>Node35</title>
<g id="a_Node000035"><a xlink:href="launch__prepare_8c.html" target="_top" xlink:title=" ">
<polygon fill="white" stroke="#666666" points="3720,-112.5 3600,-112.5 3600,-82.5 3720,-82.5 3720,-112.5"/>
<text text-anchor="start" x="3608" y="-100.5" font-family="Helvetica,sans-Serif" font-size="10.00">src/tpc/engine/launch</text>
<text text-anchor="middle" x="3660" y="-89.5" font-family="Helvetica,sans-Serif" font-size="10.00">_prepare.c</text>
</a>
</g>
</g>
<!-- Node1&#45;&gt;Node35 -->
<g id="edge39_Node000001_Node000035" class="edge">
<title>Node1&#45;&gt;Node35</title>
<g id="a_edge39_Node000001_Node000035"><a xlink:title=" ">
<path fill="none" stroke="#63b8ff" d="M2037.72,-168.14C2320.78,-168.23 3286.25,-165 3591,-118 3599.37,-116.71 3608.16,-114.73 3616.55,-112.52"/>
<polygon fill="#63b8ff" stroke="#63b8ff" points="2037.54,-164.64 2027.54,-168.13 2037.54,-171.64 2037.54,-164.64"/>
</a>
</g>
</g>
<!-- Node4 -->
<g id="Node000004" class="node">
<title>Node4</title>
<g id="a_Node000004"><a xlink:href="sesslog__conn_8c.html" target="_top" xlink:title=" ">
<polygon fill="white" stroke="#666666" points="255.5,-35.5 138.5,-35.5 138.5,-5.5 255.5,-5.5 255.5,-35.5"/>
<text text-anchor="start" x="146.5" y="-23.5" font-family="Helvetica,sans-Serif" font-size="10.00">src/core/http/sesslog</text>
<text text-anchor="middle" x="197" y="-12.5" font-family="Helvetica,sans-Serif" font-size="10.00">_conn.c</text>
</a>
</g>
</g>
<!-- Node3&#45;&gt;Node4 -->
<g id="edge3_Node000003_Node000004" class="edge">
<title>Node3&#45;&gt;Node4</title>
<g id="a_edge3_Node000003_Node000004"><a xlink:title=" ">
<path fill="none" stroke="#63b8ff" d="M243.73,-74.6C232.63,-61.99 219.02,-46.53 209.36,-35.54"/>
<polygon fill="#63b8ff" stroke="#63b8ff" points="241.35,-77.2 250.59,-82.39 246.61,-72.57 241.35,-77.2"/>
</a>
</g>
</g>
<!-- Node5 -->
<g id="Node000005" class="node">
<title>Node5</title>
<g id="a_Node000005"><a xlink:href="protocols_2cvmfs_2handler_8c.html" target="_top" xlink:title=" ">
<polygon fill="white" stroke="#666666" points="386,-35.5 274,-35.5 274,-5.5 386,-5.5 386,-35.5"/>
<text text-anchor="start" x="282" y="-23.5" font-family="Helvetica,sans-Serif" font-size="10.00">src/protocols/cvmfs</text>
<text text-anchor="middle" x="330" y="-12.5" font-family="Helvetica,sans-Serif" font-size="10.00">/handler.c</text>
</a>
</g>
</g>
<!-- Node3&#45;&gt;Node5 -->
<g id="edge4_Node000003_Node000005" class="edge">
<title>Node3&#45;&gt;Node5</title>
<g id="a_edge4_Node000003_Node000005"><a xlink:title=" ">
<path fill="none" stroke="#63b8ff" d="M282.57,-74.6C293.83,-61.99 307.64,-46.53 317.45,-35.54"/>
<polygon fill="#63b8ff" stroke="#63b8ff" points="279.65,-72.6 275.6,-82.39 284.87,-77.27 279.65,-72.6"/>
</a>
</g>
</g>
<!-- Node6 -->
<g id="Node000006" class="node">
<title>Node6</title>
<g id="a_Node000006"><a xlink:href="protocols_2s3_2metrics_8c.html" target="_top" xlink:title=" ">
<polygon fill="white" stroke="#666666" points="545.5,-30 404.5,-30 404.5,-11 545.5,-11 545.5,-30"/>
<text text-anchor="middle" x="475" y="-18" font-family="Helvetica,sans-Serif" font-size="10.00">src/protocols/s3/metrics.c</text>
</a>
</g>
</g>
<!-- Node3&#45;&gt;Node6 -->
<g id="edge5_Node000003_Node000006" class="edge">
<title>Node3&#45;&gt;Node6</title>
<g id="a_edge5_Node000003_Node000006"><a xlink:title=" ">
<path fill="none" stroke="#63b8ff" d="M312.41,-79.02C355.86,-63.65 417.27,-41.92 450.81,-30.06"/>
<polygon fill="#63b8ff" stroke="#63b8ff" points="311.14,-75.76 302.88,-82.39 313.47,-82.36 311.14,-75.76"/>
</a>
</g>
</g>
<!-- Node7 -->
<g id="Node000007" class="node">
<title>Node7</title>
<g id="a_Node000007"><a xlink:href="protocols_2webdav_2metrics_8c.html" target="_top" xlink:title=" ">
<polygon fill="white" stroke="#666666" points="120,-35.5 0,-35.5 0,-5.5 120,-5.5 120,-35.5"/>
<text text-anchor="start" x="8" y="-23.5" font-family="Helvetica,sans-Serif" font-size="10.00">src/protocols/webdav</text>
<text text-anchor="middle" x="60" y="-12.5" font-family="Helvetica,sans-Serif" font-size="10.00">/metrics.c</text>
</a>
</g>
</g>
<!-- Node3&#45;&gt;Node7 -->
<g id="edge6_Node000003_Node000007" class="edge">
<title>Node3&#45;&gt;Node7</title>
<g id="a_edge6_Node000003_Node000007"><a xlink:title=" ">
<path fill="none" stroke="#63b8ff" d="M215.08,-78.8C179.33,-65.59 131.13,-47.78 98.01,-35.54"/>
<polygon fill="#63b8ff" stroke="#63b8ff" points="214.22,-82.21 224.82,-82.39 216.65,-75.64 214.22,-82.21"/>
</a>
</g>
</g>
<!-- Node15&#45;&gt;Node14 -->
<g id="edge15_Node000015_Node000014" class="edge">
<title>Node15&#45;&gt;Node14</title>
<g id="a_edge15_Node000015_Node000014"><a xlink:title=" ">
<path fill="none" stroke="#63b8ff" d="M1292.15,-69.84C1279.21,-58.3 1264.6,-45.25 1253.82,-35.63"/>
<polygon fill="#63b8ff" stroke="#63b8ff" points="1290.14,-72.75 1299.93,-76.79 1294.8,-67.52 1290.14,-72.75"/>
</a>
</g>
</g>
<!-- Node15&#45;&gt;Node16 -->
<g id="edge16_Node000015_Node000016" class="edge">
<title>Node15&#45;&gt;Node16</title>
<g id="a_edge16_Node000015_Node000016"><a xlink:title=" ">
<path fill="none" stroke="#63b8ff" d="M1349.35,-69.51C1358.87,-60.11 1369.37,-49.76 1378.17,-41.07"/>
<polygon fill="#63b8ff" stroke="#63b8ff" points="1346.63,-67.28 1341.97,-76.79 1351.54,-72.26 1346.63,-67.28"/>
</a>
</g>
</g>
<!-- Node26&#45;&gt;Node25 -->
<g id="edge28_Node000026_Node000025" class="edge">
<title>Node26&#45;&gt;Node25</title>
<g id="a_edge28_Node000026_Node000025"><a xlink:title=" ">
<path fill="none" stroke="#63b8ff" d="M2567.15,-77.08C2545.82,-64.08 2518.24,-47.26 2499.03,-35.54"/>
<polygon fill="#63b8ff" stroke="#63b8ff" points="2565.5,-80.18 2575.86,-82.39 2569.15,-74.2 2565.5,-80.18"/>
</a>
</g>
</g>
<!-- Node26&#45;&gt;Node27 -->
<g id="edge29_Node000026_Node000027" class="edge">
<title>Node26&#45;&gt;Node27</title>
<g id="a_edge29_Node000026_Node000027"><a xlink:title=" ">
<path fill="none" stroke="#63b8ff" d="M2606.27,-72.78C2610.03,-60.53 2614.49,-46 2617.69,-35.54"/>
<polygon fill="#63b8ff" stroke="#63b8ff" points="2602.91,-71.81 2603.33,-82.39 2609.6,-73.86 2602.91,-71.81"/>
</a>
</g>
</g>
<!-- Node26&#45;&gt;Node28 -->
<g id="edge30_Node000026_Node000028" class="edge">
<title>Node26&#45;&gt;Node28</title>
<g id="a_edge30_Node000026_Node000028"><a xlink:title=" ">
<path fill="none" stroke="#63b8ff" d="M2642.06,-78.46C2673.5,-65.28 2715.53,-47.68 2744.48,-35.54"/>
<polygon fill="#63b8ff" stroke="#63b8ff" points="2640.54,-75.3 2632.67,-82.39 2643.24,-81.76 2640.54,-75.3"/>
</a>
</g>
</g>
</g>
</svg>
