<?xml version="1.0" encoding="UTF-8" standalone="no"?>
<!DOCTYPE svg PUBLIC "-//W3C//DTD SVG 1.1//EN"
 "http://www.w3.org/Graphics/SVG/1.1/DTD/svg11.dtd">
<!-- Generated by graphviz version 2.43.0 (0)
 -->
<!-- Title: src/core/http/sesslog_conn.h Pages: 1 -->
<svg width="573pt" height="291pt"
 viewBox="0.00 0.00 573.00 291.00" xmlns="http://www.w3.org/2000/svg" xmlns:xlink="http://www.w3.org/1999/xlink">
<g id="graph0" class="graph" transform="scale(1 1) rotate(0) translate(4 287)">
<title>src/core/http/sesslog_conn.h</title>
<!-- Node1 -->
<g id="Node000001" class="node">
<title>Node1</title>
<g id="a_Node000001"><a xlink:title=" ">
<polygon fill="#999999" stroke="#666666" points="376.5,-283 259.5,-283 259.5,-253 376.5,-253 376.5,-283"/>
<text text-anchor="start" x="267.5" y="-271" font-family="Helvetica,sans-Serif" font-size="10.00">src/core/http/sesslog</text>
<text text-anchor="middle" x="318" y="-260" font-family="Helvetica,sans-Serif" font-size="10.00">_conn.h</text>
</a>
</g>
</g>
<!-- Node2 -->
<g id="Node000002" class="node">
<title>Node2</title>
<g id="a_Node000002"><a xlink:title=" ">
<polygon fill="#e0e0e0" stroke="#999999" points="220,-79.5 142,-79.5 142,-60.5 220,-60.5 220,-79.5"/>
<text text-anchor="middle" x="181" y="-67.5" font-family="Helvetica,sans-Serif" font-size="10.00">ngx_config.h</text>
</a>
</g>
</g>
<!-- Node1&#45;&gt;Node2 -->
<g id="edge1_Node000001_Node000002" class="edge">
<title>Node1&#45;&gt;Node2</title>
<g id="a_edge1_Node000001_Node000002"><a xlink:title=" ">
<path fill="none" stroke="#63b8ff" d="M259.25,-259.99C195.92,-248.94 98.14,-220.94 53,-151 45.77,-139.8 45.48,-132.01 53,-121 58.49,-112.96 108.98,-94.86 144.87,-82.79"/>
<polygon fill="#63b8ff" stroke="#63b8ff" points="146.18,-86.04 154.56,-79.56 143.97,-79.4 146.18,-86.04"/>
</a>
</g>
</g>
<!-- Node3 -->
<g id="Node000003" class="node">
<title>Node3</title>
<g id="a_Node000003"><a xlink:title=" ">
<polygon fill="#e0e0e0" stroke="#999999" points="418,-79.5 348,-79.5 348,-60.5 418,-60.5 418,-79.5"/>
<text text-anchor="middle" x="383" y="-67.5" font-family="Helvetica,sans-Serif" font-size="10.00">ngx_core.h</text>
</a>
</g>
</g>
<!-- Node1&#45;&gt;Node3 -->
<g id="edge2_Node000001_Node000003" class="edge">
<title>Node1&#45;&gt;Node3</title>
<g id="a_edge2_Node000001_Node000003"><a xlink:title=" ">
<path fill="none" stroke="#63b8ff" d="M345.16,-252.97C377.38,-234.57 429.33,-198.9 450,-151 455.28,-138.76 455.98,-132.92 450,-121 441.99,-105.04 426.21,-92.87 411.97,-84.53"/>
<polygon fill="#63b8ff" stroke="#63b8ff" points="413.38,-81.32 402.93,-79.61 410.03,-87.47 413.38,-81.32"/>
</a>
</g>
</g>
<!-- Node4 -->
<g id="Node000004" class="node">
<title>Node4</title>
<g id="a_Node000004"><a xlink:title=" ">
<polygon fill="#e0e0e0" stroke="#999999" points="565,-211.5 497,-211.5 497,-192.5 565,-192.5 565,-211.5"/>
<text text-anchor="middle" x="531" y="-199.5" font-family="Helvetica,sans-Serif" font-size="10.00">ngx_http.h</text>
</a>
</g>
</g>
<!-- Node1&#45;&gt;Node4 -->
<g id="edge3_Node000001_Node000004" class="edge">
<title>Node1&#45;&gt;Node4</title>
<g id="a_edge3_Node000001_Node000004"><a xlink:title=" ">
<path fill="none" stroke="#63b8ff" d="M364.74,-252.95C403.25,-241.38 457.17,-225.18 493.04,-214.41"/>
<polygon fill="#63b8ff" stroke="#63b8ff" points="494.08,-217.75 502.65,-211.52 492.07,-211.04 494.08,-217.75"/>
</a>
</g>
</g>
<!-- Node5 -->
<g id="Node000005" class="node">
<title>Node5</title>
<g id="a_Node000005"><a xlink:href="shared__conf_8h.html" target="_top" xlink:title=" ">
<polygon fill="white" stroke="#666666" points="371,-217 265,-217 265,-187 371,-187 371,-217"/>
<text text-anchor="start" x="273" y="-205" font-family="Helvetica,sans-Serif" font-size="10.00">core/config/shared</text>
<text text-anchor="middle" x="318" y="-194" font-family="Helvetica,sans-Serif" font-size="10.00">_conf.h</text>
</a>
</g>
</g>
<!-- Node1&#45;&gt;Node5 -->
<g id="edge4_Node000001_Node000005" class="edge">
<title>Node1&#45;&gt;Node5</title>
<g id="a_edge4_Node000001_Node000005"><a xlink:title=" ">
<path fill="none" stroke="#63b8ff" d="M318,-252.8C318,-245.34 318,-235.99 318,-227.41"/>
<polygon fill="#63b8ff" stroke="#63b8ff" points="321.5,-227.16 318,-217.16 314.5,-227.16 321.5,-227.16"/>
</a>
</g>
</g>
<!-- Node8 -->
<g id="Node000008" class="node">
<title>Node8</title>
<g id="a_Node000008"><a xlink:href="sesslog__ngx_8h.html" target="_top" xlink:title=" ">
<polygon fill="white" stroke="#666666" points="182,-151 62,-151 62,-121 182,-121 182,-151"/>
<text text-anchor="start" x="70" y="-139" font-family="Helvetica,sans-Serif" font-size="10.00">observability/sesslog</text>
<text text-anchor="middle" x="122" y="-128" font-family="Helvetica,sans-Serif" font-size="10.00">/sesslog_ngx.h</text>
</a>
</g>
</g>
<!-- Node1&#45;&gt;Node8 -->
<g id="edge9_Node000001_Node000008" class="edge">
<title>Node1&#45;&gt;Node8</title>
<g id="a_edge9_Node000001_Node000008"><a xlink:title=" ">
<path fill="none" stroke="#63b8ff" d="M296.65,-252.84C261.6,-229.59 191.77,-183.27 151.84,-156.79"/>
<polygon fill="#63b8ff" stroke="#63b8ff" points="153.59,-153.75 143.32,-151.14 149.72,-159.59 153.59,-153.75"/>
</a>
</g>
</g>
<!-- Node6 -->
<g id="Node000006" class="node">
<title>Node6</title>
<g id="a_Node000006"><a xlink:title=" ">
<polygon fill="#e0e0e0" stroke="#999999" points="307.5,-145.5 200.5,-145.5 200.5,-126.5 307.5,-126.5 307.5,-145.5"/>
<text text-anchor="middle" x="254" y="-133.5" font-family="Helvetica,sans-Serif" font-size="10.00">ngx_thread_pool.h</text>
</a>
</g>
</g>
<!-- Node5&#45;&gt;Node6 -->
<g id="edge5_Node000005_Node000006" class="edge">
<title>Node5&#45;&gt;Node6</title>
<g id="a_edge5_Node000005_Node000006"><a xlink:title=" ">
<path fill="none" stroke="#63b8ff" d="M303.8,-186.8C293.82,-176.82 280.46,-163.46 270.09,-153.09"/>
<polygon fill="#63b8ff" stroke="#63b8ff" points="272.39,-150.44 262.84,-145.84 267.44,-155.39 272.39,-150.44"/>
</a>
</g>
</g>
<!-- Node7 -->
<g id="Node000007" class="node">
<title>Node7</title>
<g id="a_Node000007"><a xlink:href="pmark_8h.html" target="_top" xlink:title=" ">
<polygon fill="white" stroke="#666666" points="440.5,-151 325.5,-151 325.5,-121 440.5,-121 440.5,-151"/>
<text text-anchor="start" x="333.5" y="-139" font-family="Helvetica,sans-Serif" font-size="10.00">observability/pmark</text>
<text text-anchor="middle" x="383" y="-128" font-family="Helvetica,sans-Serif" font-size="10.00">/pmark.h</text>
</a>
</g>
</g>
<!-- Node5&#45;&gt;Node7 -->
<g id="edge6_Node000005_Node000007" class="edge">
<title>Node5&#45;&gt;Node7</title>
<g id="a_edge6_Node000005_Node000007"><a xlink:title=" ">
<path fill="none" stroke="#63b8ff" d="M332.43,-186.8C340.93,-178.43 351.84,-167.68 361.36,-158.31"/>
<polygon fill="#63b8ff" stroke="#63b8ff" points="363.94,-160.67 368.61,-151.16 359.03,-155.69 363.94,-160.67"/>
</a>
</g>
</g>
<!-- Node7&#45;&gt;Node2 -->
<g id="edge7_Node000007_Node000002" class="edge">
<title>Node7&#45;&gt;Node2</title>
<g id="a_edge7_Node000007_Node000002"><a xlink:title=" ">
<path fill="none" stroke="#63b8ff" d="M338.67,-120.95C302.31,-109.43 251.46,-93.32 217.44,-82.54"/>
<polygon fill="#63b8ff" stroke="#63b8ff" points="218.47,-79.2 207.88,-79.52 216.36,-85.87 218.47,-79.2"/>
</a>
</g>
</g>
<!-- Node7&#45;&gt;Node3 -->
<g id="edge8_Node000007_Node000003" class="edge">
<title>Node7&#45;&gt;Node3</title>
<g id="a_edge8_Node000007_Node000003"><a xlink:title=" ">
<path fill="none" stroke="#63b8ff" d="M383,-120.8C383,-111.7 383,-99.79 383,-89.9"/>
<polygon fill="#63b8ff" stroke="#63b8ff" points="386.5,-89.84 383,-79.84 379.5,-89.84 386.5,-89.84"/>
</a>
</g>
</g>
<!-- Node8&#45;&gt;Node2 -->
<g id="edge10_Node000008_Node000002" class="edge">
<title>Node8&#45;&gt;Node2</title>
<g id="a_edge10_Node000008_Node000002"><a xlink:title=" ">
<path fill="none" stroke="#63b8ff" d="M135.09,-120.8C144.2,-110.92 156.37,-97.72 165.89,-87.39"/>
<polygon fill="#63b8ff" stroke="#63b8ff" points="168.64,-89.57 172.85,-79.84 163.5,-84.82 168.64,-89.57"/>
</a>
</g>
</g>
<!-- Node8&#45;&gt;Node3 -->
<g id="edge11_Node000008_Node000003" class="edge">
<title>Node8&#45;&gt;Node3</title>
<g id="a_edge11_Node000008_Node000003"><a xlink:title=" ">
<path fill="none" stroke="#63b8ff" d="M179.28,-120.95C227.17,-109.21 294.51,-92.7 338.44,-81.93"/>
<polygon fill="#63b8ff" stroke="#63b8ff" points="339.39,-85.3 348.27,-79.52 337.72,-78.5 339.39,-85.3"/>
</a>
</g>
</g>
<!-- Node9 -->
<g id="Node000009" class="node">
<title>Node9</title>
<g id="a_Node000009"><a xlink:href="sesslog_8h.html" target="_top" xlink:title=" ">
<polygon fill="white" stroke="#666666" points="124,-85 4,-85 4,-55 124,-55 124,-85"/>
<text text-anchor="start" x="12" y="-73" font-family="Helvetica,sans-Serif" font-size="10.00">observability/sesslog</text>
<text text-anchor="middle" x="64" y="-62" font-family="Helvetica,sans-Serif" font-size="10.00">/sesslog.h</text>
</a>
</g>
</g>
<!-- Node8&#45;&gt;Node9 -->
<g id="edge12_Node000008_Node000009" class="edge">
<title>Node8&#45;&gt;Node9</title>
<g id="a_edge12_Node000008_Node000009"><a xlink:title=" ">
<path fill="none" stroke="#63b8ff" d="M109.13,-120.8C101.62,-112.51 91.99,-101.89 83.56,-92.59"/>
<polygon fill="#63b8ff" stroke="#63b8ff" points="86.14,-90.22 76.84,-85.16 80.96,-94.92 86.14,-90.22"/>
</a>
</g>
</g>
<!-- Node10 -->
<g id="Node000010" class="node">
<title>Node10</title>
<g id="a_Node000010"><a xlink:title=" ">
<polygon fill="#e0e0e0" stroke="#999999" points="56,-19 0,-19 0,0 56,0 56,-19"/>
<text text-anchor="middle" x="28" y="-7" font-family="Helvetica,sans-Serif" font-size="10.00">stddef.h</text>
</a>
</g>
</g>
<!-- Node9&#45;&gt;Node10 -->
<g id="edge13_Node000009_Node000010" class="edge">
<title>Node9&#45;&gt;Node10</title>
<g id="a_edge13_Node000009_Node000010"><a xlink:title=" ">
<path fill="none" stroke="#63b8ff" d="M55.29,-54.84C50.33,-46.78 44.07,-36.62 38.8,-28.06"/>
<polygon fill="#63b8ff" stroke="#63b8ff" points="41.62,-25.95 33.39,-19.27 35.65,-29.62 41.62,-25.95"/>
</a>
</g>
</g>
<!-- Node11 -->
<g id="Node000011" class="node">
<title>Node11</title>
<g id="a_Node000011"><a xlink:title=" ">
<polygon fill="#e0e0e0" stroke="#999999" points="127.5,-19 74.5,-19 74.5,0 127.5,0 127.5,-19"/>
<text text-anchor="middle" x="101" y="-7" font-family="Helvetica,sans-Serif" font-size="10.00">stdint.h</text>
</a>
</g>
</g>
<!-- Node9&#45;&gt;Node11 -->
<g id="edge14_Node000009_Node000011" class="edge">
<title>Node9&#45;&gt;Node11</title>
<g id="a_edge14_Node000009_Node000011"><a xlink:title=" ">
<path fill="none" stroke="#63b8ff" d="M72.96,-54.84C78.11,-46.69 84.62,-36.4 90.07,-27.78"/>
<polygon fill="#63b8ff" stroke="#63b8ff" points="93.07,-29.59 95.46,-19.27 87.15,-25.85 93.07,-29.59"/>
</a>
</g>
</g>
</g>
</svg>
