<?xml version="1.0" encoding="UTF-8" standalone="no"?>
<!DOCTYPE svg PUBLIC "-//W3C//DTD SVG 1.1//EN"
 "http://www.w3.org/Graphics/SVG/1.1/DTD/svg11.dtd">
<!-- Generated by graphviz version 2.43.0 (0)
 -->
<!-- Title: src/core/http/sesslog_conn.c Pages: 1 -->
<svg width="928pt" height="346pt"
 viewBox="0.00 0.00 928.00 346.00" xmlns="http://www.w3.org/2000/svg" xmlns:xlink="http://www.w3.org/1999/xlink">
<g id="graph0" class="graph" transform="scale(1 1) rotate(0) translate(4 342)">
<title>src/core/http/sesslog_conn.c</title>
<!-- Node1 -->
<g id="Node000001" class="node">
<title>Node1</title>
<g id="a_Node000001"><a xlink:title=" ">
<polygon fill="#999999" stroke="#666666" points="588.5,-338 471.5,-338 471.5,-308 588.5,-308 588.5,-338"/>
<text text-anchor="start" x="479.5" y="-326" font-family="Helvetica,sans-Serif" font-size="10.00">src/core/http/sesslog</text>
<text text-anchor="middle" x="530" y="-315" font-family="Helvetica,sans-Serif" font-size="10.00">_conn.c</text>
</a>
</g>
</g>
<!-- Node2 -->
<g id="Node000002" class="node">
<title>Node2</title>
<g id="a_Node000002"><a xlink:href="sesslog__conn_8h.html" target="_top" xlink:title=" ">
<polygon fill="white" stroke="#666666" points="598.5,-272 461.5,-272 461.5,-253 598.5,-253 598.5,-272"/>
<text text-anchor="middle" x="530" y="-260" font-family="Helvetica,sans-Serif" font-size="10.00">core/http/sesslog_conn.h</text>
</a>
</g>
</g>
<!-- Node1&#45;&gt;Node2 -->
<g id="edge1_Node000001_Node000002" class="edge">
<title>Node1&#45;&gt;Node2</title>
<g id="a_edge1_Node000001_Node000002"><a xlink:title=" ">
<path fill="none" stroke="#63b8ff" d="M530,-307.84C530,-300.21 530,-290.7 530,-282.45"/>
<polygon fill="#63b8ff" stroke="#63b8ff" points="533.5,-282.27 530,-272.27 526.5,-282.27 533.5,-282.27"/>
</a>
</g>
</g>
<!-- Node3 -->
<g id="Node000003" class="node">
<title>Node3</title>
<g id="a_Node000003"><a xlink:title=" ">
<polygon fill="#e0e0e0" stroke="#999999" points="220,-79.5 142,-79.5 142,-60.5 220,-60.5 220,-79.5"/>
<text text-anchor="middle" x="181" y="-67.5" font-family="Helvetica,sans-Serif" font-size="10.00">ngx_config.h</text>
</a>
</g>
</g>
<!-- Node2&#45;&gt;Node3 -->
<g id="edge2_Node000002_Node000003" class="edge">
<title>Node2&#45;&gt;Node3</title>
<g id="a_edge2_Node000002_Node000003"><a xlink:title=" ">
<path fill="none" stroke="#63b8ff" d="M461.34,-254.69C348.99,-241.94 133.91,-210.24 90,-151 82.06,-140.29 83.21,-132.48 90,-121 100.71,-102.9 120.55,-90.91 138.99,-83.23"/>
<polygon fill="#63b8ff" stroke="#63b8ff" points="140.37,-86.45 148.44,-79.59 137.85,-79.91 140.37,-86.45"/>
</a>
</g>
</g>
<!-- Node4 -->
<g id="Node000004" class="node">
<title>Node4</title>
<g id="a_Node000004"><a xlink:title=" ">
<polygon fill="#e0e0e0" stroke="#999999" points="330,-79.5 260,-79.5 260,-60.5 330,-60.5 330,-79.5"/>
<text text-anchor="middle" x="295" y="-67.5" font-family="Helvetica,sans-Serif" font-size="10.00">ngx_core.h</text>
</a>
</g>
</g>
<!-- Node2&#45;&gt;Node4 -->
<g id="edge3_Node000002_Node000004" class="edge">
<title>Node2&#45;&gt;Node4</title>
<g id="a_edge3_Node000002_Node000004"><a xlink:title=" ">
<path fill="none" stroke="#63b8ff" d="M591.43,-252.96C691.7,-236.66 872.89,-195.87 805,-121 774.07,-86.89 459.7,-75.25 340.5,-72.05"/>
<polygon fill="#63b8ff" stroke="#63b8ff" points="340.34,-68.54 330.25,-71.78 340.16,-75.54 340.34,-68.54"/>
</a>
</g>
</g>
<!-- Node5 -->
<g id="Node000005" class="node">
<title>Node5</title>
<g id="a_Node000005"><a xlink:title=" ">
<polygon fill="#e0e0e0" stroke="#999999" points="920,-211.5 852,-211.5 852,-192.5 920,-192.5 920,-211.5"/>
<text text-anchor="middle" x="886" y="-199.5" font-family="Helvetica,sans-Serif" font-size="10.00">ngx_http.h</text>
</a>
</g>
</g>
<!-- Node2&#45;&gt;Node5 -->
<g id="edge4_Node000002_Node000005" class="edge">
<title>Node2&#45;&gt;Node5</title>
<g id="a_edge4_Node000002_Node000005"><a xlink:title=" ">
<path fill="none" stroke="#63b8ff" d="M598.69,-254.37C661.44,-247.2 756.56,-234.67 838,-217 841.7,-216.2 845.52,-215.26 849.33,-214.27"/>
<polygon fill="#63b8ff" stroke="#63b8ff" points="850.56,-217.56 859.26,-211.52 848.69,-210.81 850.56,-217.56"/>
</a>
</g>
</g>
<!-- Node6 -->
<g id="Node000006" class="node">
<title>Node6</title>
<g id="a_Node000006"><a xlink:href="shared__conf_8h.html" target="_top" xlink:title=" ">
<polygon fill="white" stroke="#666666" points="583,-217 477,-217 477,-187 583,-187 583,-217"/>
<text text-anchor="start" x="485" y="-205" font-family="Helvetica,sans-Serif" font-size="10.00">core/config/shared</text>
<text text-anchor="middle" x="530" y="-194" font-family="Helvetica,sans-Serif" font-size="10.00">_conf.h</text>
</a>
</g>
</g>
<!-- Node2&#45;&gt;Node6 -->
<g id="edge5_Node000002_Node000006" class="edge">
<title>Node2&#45;&gt;Node6</title>
<g id="a_edge5_Node000002_Node000006"><a xlink:title=" ">
<path fill="none" stroke="#63b8ff" d="M530,-252.87C530,-246.11 530,-236.35 530,-227.26"/>
<polygon fill="#63b8ff" stroke="#63b8ff" points="533.5,-227.11 530,-217.11 526.5,-227.11 533.5,-227.11"/>
</a>
</g>
</g>
<!-- Node13 -->
<g id="Node000013" class="node">
<title>Node13</title>
<g id="a_Node000013"><a xlink:href="sesslog__ngx_8h.html" target="_top" xlink:title=" ">
<polygon fill="white" stroke="#666666" points="219,-151 99,-151 99,-121 219,-121 219,-151"/>
<text text-anchor="start" x="107" y="-139" font-family="Helvetica,sans-Serif" font-size="10.00">observability/sesslog</text>
<text text-anchor="middle" x="159" y="-128" font-family="Helvetica,sans-Serif" font-size="10.00">/sesslog_ngx.h</text>
</a>
</g>
</g>
<!-- Node2&#45;&gt;Node13 -->
<g id="edge14_Node000002_Node000013" class="edge">
<title>Node2&#45;&gt;Node13</title>
<g id="a_edge14_Node000002_Node000013"><a xlink:title=" ">
<path fill="none" stroke="#63b8ff" d="M504.5,-252.94C444.14,-232.69 291.52,-181.47 210.84,-154.4"/>
<polygon fill="#63b8ff" stroke="#63b8ff" points="211.49,-150.92 200.89,-151.06 209.26,-157.56 211.49,-150.92"/>
</a>
</g>
</g>
<!-- Node7 -->
<g id="Node000007" class="node">
<title>Node7</title>
<g id="a_Node000007"><a xlink:title=" ">
<polygon fill="#e0e0e0" stroke="#999999" points="724.5,-145.5 617.5,-145.5 617.5,-126.5 724.5,-126.5 724.5,-145.5"/>
<text text-anchor="middle" x="671" y="-133.5" font-family="Helvetica,sans-Serif" font-size="10.00">ngx_thread_pool.h</text>
</a>
</g>
</g>
<!-- Node6&#45;&gt;Node7 -->
<g id="edge6_Node000006_Node000007" class="edge">
<title>Node6&#45;&gt;Node7</title>
<g id="a_edge6_Node000006_Node000007"><a xlink:title=" ">
<path fill="none" stroke="#63b8ff" d="M560.94,-186.95C585.45,-175.83 619.39,-160.42 643.08,-149.67"/>
<polygon fill="#63b8ff" stroke="#63b8ff" points="644.58,-152.84 652.24,-145.52 641.68,-146.46 644.58,-152.84"/>
</a>
</g>
</g>
<!-- Node8 -->
<g id="Node000008" class="node">
<title>Node8</title>
<g id="a_Node000008"><a xlink:title=" ">
<polygon fill="#e0e0e0" stroke="#999999" points="795.5,-145.5 742.5,-145.5 742.5,-126.5 795.5,-126.5 795.5,-145.5"/>
<text text-anchor="middle" x="769" y="-133.5" font-family="Helvetica,sans-Serif" font-size="10.00">regex.h</text>
</a>
</g>
</g>
<!-- Node6&#45;&gt;Node8 -->
<g id="edge7_Node000006_Node000008" class="edge">
<title>Node6&#45;&gt;Node8</title>
<g id="a_edge7_Node000006_Node000008"><a xlink:title=" ">
<path fill="none" stroke="#63b8ff" d="M583.4,-190.06C624.89,-181.05 683.65,-167.15 734,-151 735.67,-150.46 737.38,-149.89 739.09,-149.28"/>
<polygon fill="#63b8ff" stroke="#63b8ff" points="740.69,-152.42 748.82,-145.63 738.23,-145.87 740.69,-152.42"/>
</a>
</g>
</g>
<!-- Node9 -->
<g id="Node000009" class="node">
<title>Node9</title>
<g id="a_Node000009"><a xlink:title=" ">
<polygon fill="#e0e0e0" stroke="#999999" points="435,-145.5 371,-145.5 371,-126.5 435,-126.5 435,-145.5"/>
<text text-anchor="middle" x="403" y="-133.5" font-family="Helvetica,sans-Serif" font-size="10.00">sys/stat.h</text>
</a>
</g>
</g>
<!-- Node6&#45;&gt;Node9 -->
<g id="edge8_Node000006_Node000009" class="edge">
<title>Node6&#45;&gt;Node9</title>
<g id="a_edge8_Node000006_Node000009"><a xlink:title=" ">
<path fill="none" stroke="#63b8ff" d="M502.13,-186.95C480.35,-175.98 450.3,-160.83 429.01,-150.11"/>
<polygon fill="#63b8ff" stroke="#63b8ff" points="430.41,-146.89 419.9,-145.52 427.26,-153.14 430.41,-146.89"/>
</a>
</g>
</g>
<!-- Node10 -->
<g id="Node000010" class="node">
<title>Node10</title>
<g id="a_Node000010"><a xlink:title=" ">
<polygon fill="#e0e0e0" stroke="#999999" points="525,-145.5 453,-145.5 453,-126.5 525,-126.5 525,-145.5"/>
<text text-anchor="middle" x="489" y="-133.5" font-family="Helvetica,sans-Serif" font-size="10.00">sys/types.h</text>
</a>
</g>
</g>
<!-- Node6&#45;&gt;Node10 -->
<g id="edge9_Node000006_Node000010" class="edge">
<title>Node6&#45;&gt;Node10</title>
<g id="a_edge9_Node000006_Node000010"><a xlink:title=" ">
<path fill="none" stroke="#63b8ff" d="M520.9,-186.8C514.76,-177.21 506.62,-164.5 500.1,-154.32"/>
<polygon fill="#63b8ff" stroke="#63b8ff" points="503.01,-152.38 494.67,-145.84 497.11,-156.15 503.01,-152.38"/>
</a>
</g>
</g>
<!-- Node11 -->
<g id="Node000011" class="node">
<title>Node11</title>
<g id="a_Node000011"><a xlink:title=" ">
<polygon fill="#e0e0e0" stroke="#999999" points="599,-145.5 543,-145.5 543,-126.5 599,-126.5 599,-145.5"/>
<text text-anchor="middle" x="571" y="-133.5" font-family="Helvetica,sans-Serif" font-size="10.00">unistd.h</text>
</a>
</g>
</g>
<!-- Node6&#45;&gt;Node11 -->
<g id="edge10_Node000006_Node000011" class="edge">
<title>Node6&#45;&gt;Node11</title>
<g id="a_edge10_Node000006_Node000011"><a xlink:title=" ">
<path fill="none" stroke="#63b8ff" d="M539.1,-186.8C545.24,-177.21 553.38,-164.5 559.9,-154.32"/>
<polygon fill="#63b8ff" stroke="#63b8ff" points="562.89,-156.15 565.33,-145.84 556.99,-152.38 562.89,-156.15"/>
</a>
</g>
</g>
<!-- Node12 -->
<g id="Node000012" class="node">
<title>Node12</title>
<g id="a_Node000012"><a xlink:href="pmark_8h.html" target="_top" xlink:title=" ">
<polygon fill="white" stroke="#666666" points="352.5,-151 237.5,-151 237.5,-121 352.5,-121 352.5,-151"/>
<text text-anchor="start" x="245.5" y="-139" font-family="Helvetica,sans-Serif" font-size="10.00">observability/pmark</text>
<text text-anchor="middle" x="295" y="-128" font-family="Helvetica,sans-Serif" font-size="10.00">/pmark.h</text>
</a>
</g>
</g>
<!-- Node6&#45;&gt;Node12 -->
<g id="edge11_Node000006_Node000012" class="edge">
<title>Node6&#45;&gt;Node12</title>
<g id="a_edge11_Node000006_Node000012"><a xlink:title=" ">
<path fill="none" stroke="#63b8ff" d="M478.43,-186.95C442.46,-177.16 394.31,-164.05 356.36,-153.71"/>
<polygon fill="#63b8ff" stroke="#63b8ff" points="357.02,-150.26 346.45,-151.01 355.18,-157.02 357.02,-150.26"/>
</a>
</g>
</g>
<!-- Node12&#45;&gt;Node3 -->
<g id="edge12_Node000012_Node000003" class="edge">
<title>Node12&#45;&gt;Node3</title>
<g id="a_edge12_Node000012_Node000003"><a xlink:title=" ">
<path fill="none" stroke="#63b8ff" d="M269.98,-120.95C250.69,-110.13 224.18,-95.24 205.12,-84.54"/>
<polygon fill="#63b8ff" stroke="#63b8ff" points="206.6,-81.36 196.17,-79.52 203.18,-87.46 206.6,-81.36"/>
</a>
</g>
</g>
<!-- Node12&#45;&gt;Node4 -->
<g id="edge13_Node000012_Node000004" class="edge">
<title>Node12&#45;&gt;Node4</title>
<g id="a_edge13_Node000012_Node000004"><a xlink:title=" ">
<path fill="none" stroke="#63b8ff" d="M295,-120.8C295,-111.7 295,-99.79 295,-89.9"/>
<polygon fill="#63b8ff" stroke="#63b8ff" points="298.5,-89.84 295,-79.84 291.5,-89.84 298.5,-89.84"/>
</a>
</g>
</g>
<!-- Node13&#45;&gt;Node3 -->
<g id="edge15_Node000013_Node000003" class="edge">
<title>Node13&#45;&gt;Node3</title>
<g id="a_edge15_Node000013_Node000003"><a xlink:title=" ">
<path fill="none" stroke="#63b8ff" d="M163.88,-120.8C167.04,-111.6 171.19,-99.53 174.61,-89.58"/>
<polygon fill="#63b8ff" stroke="#63b8ff" points="178.02,-90.44 177.96,-79.84 171.4,-88.16 178.02,-90.44"/>
</a>
</g>
</g>
<!-- Node13&#45;&gt;Node4 -->
<g id="edge16_Node000013_Node000004" class="edge">
<title>Node13&#45;&gt;Node4</title>
<g id="a_edge16_Node000013_Node000004"><a xlink:title=" ">
<path fill="none" stroke="#63b8ff" d="M188.85,-120.95C212.38,-109.88 244.93,-94.56 267.77,-83.82"/>
<polygon fill="#63b8ff" stroke="#63b8ff" points="269.34,-86.94 276.9,-79.52 266.36,-80.61 269.34,-86.94"/>
</a>
</g>
</g>
<!-- Node14 -->
<g id="Node000014" class="node">
<title>Node14</title>
<g id="a_Node000014"><a xlink:href="sesslog_8h.html" target="_top" xlink:title=" ">
<polygon fill="white" stroke="#666666" points="124,-85 4,-85 4,-55 124,-55 124,-85"/>
<text text-anchor="start" x="12" y="-73" font-family="Helvetica,sans-Serif" font-size="10.00">observability/sesslog</text>
<text text-anchor="middle" x="64" y="-62" font-family="Helvetica,sans-Serif" font-size="10.00">/sesslog.h</text>
</a>
</g>
</g>
<!-- Node13&#45;&gt;Node14 -->
<g id="edge17_Node000013_Node000014" class="edge">
<title>Node13&#45;&gt;Node14</title>
<g id="a_edge17_Node000013_Node000014"><a xlink:title=" ">
<path fill="none" stroke="#63b8ff" d="M137.92,-120.8C124.88,-112.01 107.95,-100.61 93.58,-90.93"/>
<polygon fill="#63b8ff" stroke="#63b8ff" points="95.27,-87.85 85.02,-85.16 91.36,-93.65 95.27,-87.85"/>
</a>
</g>
</g>
<!-- Node15 -->
<g id="Node000015" class="node">
<title>Node15</title>
<g id="a_Node000015"><a xlink:title=" ">
<polygon fill="#e0e0e0" stroke="#999999" points="56,-19 0,-19 0,0 56,0 56,-19"/>
<text text-anchor="middle" x="28" y="-7" font-family="Helvetica,sans-Serif" font-size="10.00">stddef.h</text>
</a>
</g>
</g>
<!-- Node14&#45;&gt;Node15 -->
<g id="edge18_Node000014_Node000015" class="edge">
<title>Node14&#45;&gt;Node15</title>
<g id="a_edge18_Node000014_Node000015"><a xlink:title=" ">
<path fill="none" stroke="#63b8ff" d="M55.29,-54.84C50.33,-46.78 44.07,-36.62 38.8,-28.06"/>
<polygon fill="#63b8ff" stroke="#63b8ff" points="41.62,-25.95 33.39,-19.27 35.65,-29.62 41.62,-25.95"/>
</a>
</g>
</g>
<!-- Node16 -->
<g id="Node000016" class="node">
<title>Node16</title>
<g id="a_Node000016"><a xlink:title=" ">
<polygon fill="#e0e0e0" stroke="#999999" points="127.5,-19 74.5,-19 74.5,0 127.5,0 127.5,-19"/>
<text text-anchor="middle" x="101" y="-7" font-family="Helvetica,sans-Serif" font-size="10.00">stdint.h</text>
</a>
</g>
</g>
<!-- Node14&#45;&gt;Node16 -->
<g id="edge19_Node000014_Node000016" class="edge">
<title>Node14&#45;&gt;Node16</title>
<g id="a_edge19_Node000014_Node000016"><a xlink:title=" ">
<path fill="none" stroke="#63b8ff" d="M72.96,-54.84C78.11,-46.69 84.62,-36.4 90.07,-27.78"/>
<polygon fill="#63b8ff" stroke="#63b8ff" points="93.07,-29.59 95.46,-19.27 87.15,-25.85 93.07,-29.59"/>
</a>
</g>
</g>
</g>
</svg>
