<?xml version="1.0" encoding="UTF-8" standalone="no"?>
<!DOCTYPE svg PUBLIC "-//W3C//DTD SVG 1.1//EN"
 "http://www.w3.org/Graphics/SVG/1.1/DTD/svg11.dtd">
<!-- Generated by graphviz version 2.43.0 (0)
 -->
<!-- Title: src/core/compat/shm_slots.h Pages: 1 -->
<svg width="2870pt" height="170pt"
 viewBox="0.00 0.00 2870.00 170.00" xmlns="http://www.w3.org/2000/svg" xmlns:xlink="http://www.w3.org/1999/xlink">
<g id="graph0" class="graph" transform="scale(1 1) rotate(0) translate(4 166)">
<title>src/core/compat/shm_slots.h</title>
<!-- Node1 -->
<g id="Node000001" class="node">
<title>Node1</title>
<g id="a_Node000001"><a xlink:title=" ">
<polygon fill="#999999" stroke="#666666" points="1512,-162 1393,-162 1393,-132 1512,-132 1512,-162"/>
<text text-anchor="start" x="1401" y="-150" font-family="Helvetica,sans-Serif" font-size="10.00">src/core/compat/shm</text>
<text text-anchor="middle" x="1452.5" y="-139" font-family="Helvetica,sans-Serif" font-size="10.00">_slots.h</text>
</a>
</g>
</g>
<!-- Node2 -->
<g id="Node000002" class="node">
<title>Node2</title>
<g id="a_Node000002"><a xlink:href="shm__slots_8c.html" target="_top" xlink:title=" ">
<polygon fill="white" stroke="#666666" points="119,-96 0,-96 0,-66 119,-66 119,-96"/>
<text text-anchor="start" x="8" y="-84" font-family="Helvetica,sans-Serif" font-size="10.00">src/core/compat/shm</text>
<text text-anchor="middle" x="59.5" y="-73" font-family="Helvetica,sans-Serif" font-size="10.00">_slots.c</text>
</a>
</g>
</g>
<!-- Node1&#45;&gt;Node2 -->
<g id="edge1_Node000001_Node000002" class="edge">
<title>Node1&#45;&gt;Node2</title>
<g id="a_edge1_Node000001_Node000002"><a xlink:title=" ">
<path fill="none" stroke="#63b8ff" d="M1382.61,-144.86C1145.79,-140.76 374.79,-125.44 128.5,-96 125.47,-95.64 122.37,-95.21 119.24,-94.74"/>
<polygon fill="#63b8ff" stroke="#63b8ff" points="1382.75,-148.36 1392.81,-145.04 1382.87,-141.36 1382.75,-148.36"/>
</a>
</g>
</g>
<!-- Node3 -->
<g id="Node000003" class="node">
<title>Node3</title>
<g id="a_Node000003"><a xlink:href="negcache_8c.html" target="_top" xlink:title=" ">
<polygon fill="white" stroke="#666666" points="299.5,-90.5 137.5,-90.5 137.5,-71.5 299.5,-71.5 299.5,-90.5"/>
<text text-anchor="middle" x="218.5" y="-78.5" font-family="Helvetica,sans-Serif" font-size="10.00">src/core/negcache/negcache.c</text>
</a>
</g>
</g>
<!-- Node1&#45;&gt;Node3 -->
<g id="edge2_Node000001_Node000003" class="edge">
<title>Node1&#45;&gt;Node3</title>
<g id="a_edge2_Node000001_Node000003"><a xlink:title=" ">
<path fill="none" stroke="#63b8ff" d="M1382.72,-145.63C1203.77,-144.11 714.09,-136.28 308.5,-96 294.97,-94.66 280.37,-92.63 266.95,-90.54"/>
<polygon fill="#63b8ff" stroke="#63b8ff" points="1382.76,-149.13 1392.79,-145.72 1382.82,-142.13 1382.76,-149.13"/>
</a>
</g>
</g>
<!-- Node4 -->
<g id="Node000004" class="node">
<title>Node4</title>
<g id="a_Node000004"><a xlink:href="kv__config_8c.html" target="_top" xlink:title=" ">
<polygon fill="white" stroke="#666666" points="455,-90.5 318,-90.5 318,-71.5 455,-71.5 455,-90.5"/>
<text text-anchor="middle" x="386.5" y="-78.5" font-family="Helvetica,sans-Serif" font-size="10.00">src/core/shm/kv_config.c</text>
</a>
</g>
</g>
<!-- Node1&#45;&gt;Node4 -->
<g id="edge3_Node000001_Node000004" class="edge">
<title>Node1&#45;&gt;Node4</title>
<g id="a_edge3_Node000001_Node000004"><a xlink:title=" ">
<path fill="none" stroke="#63b8ff" d="M1382.61,-145.57C1220.53,-143.89 806.71,-135.71 463.5,-96 451.89,-94.66 439.39,-92.64 427.91,-90.55"/>
<polygon fill="#63b8ff" stroke="#63b8ff" points="1382.88,-149.07 1392.92,-145.67 1382.95,-142.07 1382.88,-149.07"/>
</a>
</g>
</g>
<!-- Node5 -->
<g id="Node000005" class="node">
<title>Node5</title>
<g id="a_Node000005"><a xlink:href="stage__waiter_8c.html" target="_top" xlink:title=" ">
<polygon fill="white" stroke="#666666" points="612,-90.5 473,-90.5 473,-71.5 612,-71.5 612,-90.5"/>
<text text-anchor="middle" x="542.5" y="-78.5" font-family="Helvetica,sans-Serif" font-size="10.00">src/fs/xfer/stage_waiter.c</text>
</a>
</g>
</g>
<!-- Node1&#45;&gt;Node5 -->
<g id="edge4_Node000001_Node000005" class="edge">
<title>Node1&#45;&gt;Node5</title>
<g id="a_edge4_Node000001_Node000005"><a xlink:title=" ">
<path fill="none" stroke="#63b8ff" d="M1382.45,-144.51C1239.13,-140.86 902.25,-129.21 621.5,-96 609.74,-94.61 597.08,-92.6 585.42,-90.53"/>
<polygon fill="#63b8ff" stroke="#63b8ff" points="1382.76,-148.02 1392.84,-144.77 1382.93,-141.02 1382.76,-148.02"/>
</a>
</g>
</g>
<!-- Node6 -->
<g id="Node000006" class="node">
<title>Node6</title>
<g id="a_Node000006"><a xlink:href="reqid__map_8c.html" target="_top" xlink:title=" ">
<polygon fill="white" stroke="#666666" points="766.5,-90.5 630.5,-90.5 630.5,-71.5 766.5,-71.5 766.5,-90.5"/>
<text text-anchor="middle" x="698.5" y="-78.5" font-family="Helvetica,sans-Serif" font-size="10.00">src/net/cms/reqid_map.c</text>
</a>
</g>
</g>
<!-- Node1&#45;&gt;Node6 -->
<g id="edge5_Node000001_Node000006" class="edge">
<title>Node1&#45;&gt;Node6</title>
<g id="a_edge5_Node000001_Node000006"><a xlink:title=" ">
<path fill="none" stroke="#63b8ff" d="M1382.94,-143.3C1259.99,-137.99 996.39,-124.16 775.5,-96 764.18,-94.56 752,-92.55 740.74,-90.51"/>
<polygon fill="#63b8ff" stroke="#63b8ff" points="1382.83,-146.8 1392.97,-143.73 1383.13,-139.81 1382.83,-146.8"/>
</a>
</g>
</g>
<!-- Node7 -->
<g id="Node000007" class="node">
<title>Node7</title>
<g id="a_Node000007"><a xlink:href="loc__cache_8c.html" target="_top" xlink:title=" ">
<polygon fill="white" stroke="#666666" points="898,-96 785,-96 785,-66 898,-66 898,-96"/>
<text text-anchor="start" x="793" y="-84" font-family="Helvetica,sans-Serif" font-size="10.00">src/net/manager/loc</text>
<text text-anchor="middle" x="841.5" y="-73" font-family="Helvetica,sans-Serif" font-size="10.00">_cache.c</text>
</a>
</g>
</g>
<!-- Node1&#45;&gt;Node7 -->
<g id="edge6_Node000001_Node000007" class="edge">
<title>Node1&#45;&gt;Node7</title>
<g id="a_edge6_Node000001_Node000007"><a xlink:title=" ">
<path fill="none" stroke="#63b8ff" d="M1382.9,-142.24C1278.98,-136.04 1077.29,-121.71 907.5,-96 904.49,-95.54 901.41,-95.04 898.3,-94.49"/>
<polygon fill="#63b8ff" stroke="#63b8ff" points="1382.76,-145.74 1392.95,-142.83 1383.17,-138.75 1382.76,-145.74"/>
</a>
</g>
</g>
<!-- Node8 -->
<g id="Node000008" class="node">
<title>Node8</title>
<g id="a_Node000008"><a xlink:href="pending_8c.html" target="_top" xlink:title=" ">
<polygon fill="white" stroke="#666666" points="1062.5,-90.5 916.5,-90.5 916.5,-71.5 1062.5,-71.5 1062.5,-90.5"/>
<text text-anchor="middle" x="989.5" y="-78.5" font-family="Helvetica,sans-Serif" font-size="10.00">src/net/manager/pending.c</text>
</a>
</g>
</g>
<!-- Node1&#45;&gt;Node8 -->
<g id="edge7_Node000001_Node000008" class="edge">
<title>Node1&#45;&gt;Node8</title>
<g id="a_edge7_Node000001_Node000008"><a xlink:title=" ">
<path fill="none" stroke="#63b8ff" d="M1382.68,-137.66C1306.19,-128.33 1179.93,-112.36 1071.5,-96 1060.5,-94.34 1048.7,-92.41 1037.58,-90.53"/>
<polygon fill="#63b8ff" stroke="#63b8ff" points="1382.33,-141.14 1392.68,-138.87 1383.17,-134.19 1382.33,-141.14"/>
</a>
</g>
</g>
<!-- Node9 -->
<g id="Node000009" class="node">
<title>Node9</title>
<g id="a_Node000009"><a xlink:href="redir__cache_8c.html" target="_top" xlink:title=" ">
<polygon fill="white" stroke="#666666" points="1202.5,-96 1080.5,-96 1080.5,-66 1202.5,-66 1202.5,-96"/>
<text text-anchor="start" x="1088.5" y="-84" font-family="Helvetica,sans-Serif" font-size="10.00">src/net/manager/redir</text>
<text text-anchor="middle" x="1141.5" y="-73" font-family="Helvetica,sans-Serif" font-size="10.00">_cache.c</text>
</a>
</g>
</g>
<!-- Node1&#45;&gt;Node9 -->
<g id="edge8_Node000001_Node000009" class="edge">
<title>Node1&#45;&gt;Node9</title>
<g id="a_edge8_Node000001_Node000009"><a xlink:title=" ">
<path fill="none" stroke="#63b8ff" d="M1383.05,-131.71C1328.97,-120.58 1254.63,-105.28 1202.75,-94.61"/>
<polygon fill="#63b8ff" stroke="#63b8ff" points="1382.4,-135.15 1392.9,-133.74 1383.81,-128.29 1382.4,-135.15"/>
</a>
</g>
</g>
<!-- Node10 -->
<g id="Node000010" class="node">
<title>Node10</title>
<g id="a_Node000010"><a xlink:href="registry__internal_8h.html" target="_top" xlink:title=" ">
<polygon fill="white" stroke="#666666" points="1358,-96 1221,-96 1221,-66 1358,-66 1358,-96"/>
<text text-anchor="start" x="1229" y="-84" font-family="Helvetica,sans-Serif" font-size="10.00">src/net/manager/registry</text>
<text text-anchor="middle" x="1289.5" y="-73" font-family="Helvetica,sans-Serif" font-size="10.00">_internal.h</text>
</a>
</g>
</g>
<!-- Node1&#45;&gt;Node10 -->
<g id="edge9_Node000001_Node000010" class="edge">
<title>Node1&#45;&gt;Node10</title>
<g id="a_edge9_Node000001_Node000010"><a xlink:title=" ">
<path fill="none" stroke="#63b8ff" d="M1407.14,-128.19C1381.25,-118.02 1349.27,-105.47 1325.19,-96.01"/>
<polygon fill="#63b8ff" stroke="#63b8ff" points="1406.14,-131.56 1416.73,-131.95 1408.7,-125.04 1406.14,-131.56"/>
</a>
</g>
</g>
<!-- Node14 -->
<g id="Node000014" class="node">
<title>Node14</title>
<g id="a_Node000014"><a xlink:href="observability_2dashboard_2config_8c.html" target="_top" xlink:title=" ">
<polygon fill="white" stroke="#666666" points="1528.5,-96 1376.5,-96 1376.5,-66 1528.5,-66 1528.5,-96"/>
<text text-anchor="start" x="1384.5" y="-84" font-family="Helvetica,sans-Serif" font-size="10.00">src/observability/dashboard</text>
<text text-anchor="middle" x="1452.5" y="-73" font-family="Helvetica,sans-Serif" font-size="10.00">/config.c</text>
</a>
</g>
</g>
<!-- Node1&#45;&gt;Node14 -->
<g id="edge13_Node000001_Node000014" class="edge">
<title>Node1&#45;&gt;Node14</title>
<g id="a_edge13_Node000001_Node000014"><a xlink:title=" ">
<path fill="none" stroke="#63b8ff" d="M1452.5,-121.54C1452.5,-112.96 1452.5,-103.61 1452.5,-96.16"/>
<polygon fill="#63b8ff" stroke="#63b8ff" points="1449,-121.8 1452.5,-131.8 1456,-121.8 1449,-121.8"/>
</a>
</g>
</g>
<!-- Node15 -->
<g id="Node000015" class="node">
<title>Node15</title>
<g id="a_Node000015"><a xlink:href="observability_2dashboard_2events_8c.html" target="_top" xlink:title=" ">
<polygon fill="white" stroke="#666666" points="1698.5,-96 1546.5,-96 1546.5,-66 1698.5,-66 1698.5,-96"/>
<text text-anchor="start" x="1554.5" y="-84" font-family="Helvetica,sans-Serif" font-size="10.00">src/observability/dashboard</text>
<text text-anchor="middle" x="1622.5" y="-73" font-family="Helvetica,sans-Serif" font-size="10.00">/events.c</text>
</a>
</g>
</g>
<!-- Node1&#45;&gt;Node15 -->
<g id="edge14_Node000001_Node000015" class="edge">
<title>Node1&#45;&gt;Node15</title>
<g id="a_edge14_Node000001_Node000015"><a xlink:title=" ">
<path fill="none" stroke="#63b8ff" d="M1499.46,-128.32C1526.51,-118.14 1560.05,-105.51 1585.28,-96.01"/>
<polygon fill="#63b8ff" stroke="#63b8ff" points="1497.93,-125.16 1489.81,-131.95 1500.4,-131.71 1497.93,-125.16"/>
</a>
</g>
</g>
<!-- Node16 -->
<g id="Node000016" class="node">
<title>Node16</title>
<g id="a_Node000016"><a xlink:href="history_8c.html" target="_top" xlink:title=" ">
<polygon fill="white" stroke="#666666" points="1868.5,-96 1716.5,-96 1716.5,-66 1868.5,-66 1868.5,-96"/>
<text text-anchor="start" x="1724.5" y="-84" font-family="Helvetica,sans-Serif" font-size="10.00">src/observability/dashboard</text>
<text text-anchor="middle" x="1792.5" y="-73" font-family="Helvetica,sans-Serif" font-size="10.00">/history.c</text>
</a>
</g>
</g>
<!-- Node1&#45;&gt;Node16 -->
<g id="edge15_Node000001_Node000016" class="edge">
<title>Node1&#45;&gt;Node16</title>
<g id="a_edge15_Node000001_Node000016"><a xlink:title=" ">
<path fill="none" stroke="#63b8ff" d="M1522.13,-132.89C1579.19,-122.15 1659.77,-106.98 1718.1,-96.01"/>
<polygon fill="#63b8ff" stroke="#63b8ff" points="1521.29,-129.49 1512.11,-134.78 1522.59,-136.37 1521.29,-129.49"/>
</a>
</g>
</g>
<!-- Node17 -->
<g id="Node000017" class="node">
<title>Node17</title>
<g id="a_Node000017"><a xlink:href="transfer__table_8c.html" target="_top" xlink:title=" ">
<polygon fill="white" stroke="#666666" points="2038.5,-96 1886.5,-96 1886.5,-66 2038.5,-66 2038.5,-96"/>
<text text-anchor="start" x="1894.5" y="-84" font-family="Helvetica,sans-Serif" font-size="10.00">src/observability/dashboard</text>
<text text-anchor="middle" x="1962.5" y="-73" font-family="Helvetica,sans-Serif" font-size="10.00">/transfer_table.c</text>
</a>
</g>
</g>
<!-- Node1&#45;&gt;Node17 -->
<g id="edge16_Node000001_Node000017" class="edge">
<title>Node1&#45;&gt;Node17</title>
<g id="a_edge16_Node000001_Node000017"><a xlink:title=" ">
<path fill="none" stroke="#63b8ff" d="M1522.05,-138.81C1606.32,-129.88 1752.55,-113.63 1877.5,-96 1880.31,-95.6 1883.18,-95.19 1886.07,-94.76"/>
<polygon fill="#63b8ff" stroke="#63b8ff" points="1521.66,-135.33 1512.09,-139.87 1522.4,-142.3 1521.66,-135.33"/>
</a>
</g>
</g>
<!-- Node18 -->
<g id="Node000018" class="node">
<title>Node18</title>
<g id="a_Node000018"><a xlink:href="observability_2metrics_2config_8c.html" target="_top" xlink:title=" ">
<polygon fill="white" stroke="#666666" points="2194,-96 2057,-96 2057,-66 2194,-66 2194,-96"/>
<text text-anchor="start" x="2065" y="-84" font-family="Helvetica,sans-Serif" font-size="10.00">src/observability/metrics</text>
<text text-anchor="middle" x="2125.5" y="-73" font-family="Helvetica,sans-Serif" font-size="10.00">/config.c</text>
</a>
</g>
</g>
<!-- Node1&#45;&gt;Node18 -->
<g id="edge17_Node000001_Node000018" class="edge">
<title>Node1&#45;&gt;Node18</title>
<g id="a_edge17_Node000001_Node000018"><a xlink:title=" ">
<path fill="none" stroke="#63b8ff" d="M1522.33,-142.26C1633.73,-135.82 1858.38,-120.86 2047.5,-96 2050.5,-95.61 2053.56,-95.18 2056.65,-94.72"/>
<polygon fill="#63b8ff" stroke="#63b8ff" points="1522.02,-138.77 1512.24,-142.84 1522.42,-145.76 1522.02,-138.77"/>
</a>
</g>
</g>
<!-- Node19 -->
<g id="Node000019" class="node">
<title>Node19</title>
<g id="a_Node000019"><a xlink:href="handles_8c.html" target="_top" xlink:title=" ">
<polygon fill="white" stroke="#666666" points="2318.5,-96 2212.5,-96 2212.5,-66 2318.5,-66 2318.5,-96"/>
<text text-anchor="start" x="2220.5" y="-84" font-family="Helvetica,sans-Serif" font-size="10.00">src/protocols/root</text>
<text text-anchor="middle" x="2265.5" y="-73" font-family="Helvetica,sans-Serif" font-size="10.00">/session/handles.c</text>
</a>
</g>
</g>
<!-- Node1&#45;&gt;Node19 -->
<g id="edge18_Node000001_Node000019" class="edge">
<title>Node1&#45;&gt;Node19</title>
<g id="a_edge18_Node000001_Node000019"><a xlink:title=" ">
<path fill="none" stroke="#63b8ff" d="M1522.28,-144.97C1655.41,-142.21 1954.59,-132.16 2203.5,-96 2206.34,-95.59 2209.24,-95.11 2212.16,-94.6"/>
<polygon fill="#63b8ff" stroke="#63b8ff" points="1522.15,-141.47 1512.22,-145.17 1522.29,-148.47 1522.15,-141.47"/>
</a>
</g>
</g>
<!-- Node20 -->
<g id="Node000020" class="node">
<title>Node20</title>
<g id="a_Node000020"><a xlink:href="protocols_2root_2session_2registry_8c.html" target="_top" xlink:title=" ">
<polygon fill="white" stroke="#666666" points="2440.5,-96 2336.5,-96 2336.5,-66 2440.5,-66 2440.5,-96"/>
<text text-anchor="start" x="2344.5" y="-84" font-family="Helvetica,sans-Serif" font-size="10.00">src/protocols/root</text>
<text text-anchor="middle" x="2388.5" y="-73" font-family="Helvetica,sans-Serif" font-size="10.00">/session/registry.c</text>
</a>
</g>
</g>
<!-- Node1&#45;&gt;Node20 -->
<g id="edge19_Node000001_Node000020" class="edge">
<title>Node1&#45;&gt;Node20</title>
<g id="a_edge19_Node000001_Node000020"><a xlink:title=" ">
<path fill="none" stroke="#63b8ff" d="M1522.62,-145.99C1671.59,-145.09 2030.34,-138.28 2327.5,-96 2330.4,-95.59 2333.37,-95.1 2336.36,-94.57"/>
<polygon fill="#63b8ff" stroke="#63b8ff" points="1522.24,-142.49 1512.26,-146.04 1522.27,-149.49 1522.24,-142.49"/>
</a>
</g>
</g>
<!-- Node21 -->
<g id="Node000021" class="node">
<title>Node21</title>
<g id="a_Node000021"><a xlink:href="proxy__pool_8c.html" target="_top" xlink:title=" ">
<polygon fill="white" stroke="#666666" points="2578.5,-96 2458.5,-96 2458.5,-66 2578.5,-66 2578.5,-96"/>
<text text-anchor="start" x="2466.5" y="-84" font-family="Helvetica,sans-Serif" font-size="10.00">src/protocols/webdav</text>
<text text-anchor="middle" x="2518.5" y="-73" font-family="Helvetica,sans-Serif" font-size="10.00">/proxy_pool.c</text>
</a>
</g>
</g>
<!-- Node1&#45;&gt;Node21 -->
<g id="edge20_Node000001_Node000021" class="edge">
<title>Node1&#45;&gt;Node21</title>
<g id="a_edge20_Node000001_Node000021"><a xlink:title=" ">
<path fill="none" stroke="#63b8ff" d="M1522.42,-146.09C1685.51,-145.52 2103.52,-139.53 2449.5,-96 2452.41,-95.63 2455.38,-95.21 2458.38,-94.75"/>
<polygon fill="#63b8ff" stroke="#63b8ff" points="1522.04,-142.59 1512.05,-146.12 1522.06,-149.59 1522.04,-142.59"/>
</a>
</g>
</g>
<!-- Node22 -->
<g id="Node000022" class="node">
<title>Node22</title>
<g id="a_Node000022"><a xlink:href="tpc_2common_2registry_8c.html" target="_top" xlink:title=" ">
<polygon fill="white" stroke="#666666" points="2738.5,-90.5 2596.5,-90.5 2596.5,-71.5 2738.5,-71.5 2738.5,-90.5"/>
<text text-anchor="middle" x="2667.5" y="-78.5" font-family="Helvetica,sans-Serif" font-size="10.00">src/tpc/common/registry.c</text>
</a>
</g>
</g>
<!-- Node1&#45;&gt;Node22 -->
<g id="edge21_Node000001_Node000022" class="edge">
<title>Node1&#45;&gt;Node22</title>
<g id="a_edge21_Node000001_Node000022"><a xlink:title=" ">
<path fill="none" stroke="#63b8ff" d="M1522.1,-146.06C1700.01,-145.52 2185.74,-139.82 2587.5,-96 2599.69,-94.67 2612.84,-92.63 2624.88,-90.51"/>
<polygon fill="#63b8ff" stroke="#63b8ff" points="1522.08,-142.56 1512.09,-146.08 1522.1,-149.56 1522.08,-142.56"/>
</a>
</g>
</g>
<!-- Node23 -->
<g id="Node000023" class="node">
<title>Node23</title>
<g id="a_Node000023"><a xlink:href="key__registry_8c.html" target="_top" xlink:title=" ">
<polygon fill="white" stroke="#666666" points="2862,-96 2757,-96 2757,-66 2862,-66 2862,-96"/>
<text text-anchor="start" x="2765" y="-84" font-family="Helvetica,sans-Serif" font-size="10.00">src/tpc/engine/key</text>
<text text-anchor="middle" x="2809.5" y="-73" font-family="Helvetica,sans-Serif" font-size="10.00">_registry.c</text>
</a>
</g>
</g>
<!-- Node1&#45;&gt;Node23 -->
<g id="edge22_Node000001_Node000023" class="edge">
<title>Node1&#45;&gt;Node23</title>
<g id="a_edge22_Node000001_Node000023"><a xlink:title=" ">
<path fill="none" stroke="#63b8ff" d="M1522.08,-145C1755.18,-141.37 2507.35,-127.48 2747.5,-96 2750.56,-95.6 2753.7,-95.12 2756.85,-94.58"/>
<polygon fill="#63b8ff" stroke="#63b8ff" points="1521.98,-141.5 1512.03,-145.15 1522.09,-148.5 1521.98,-141.5"/>
</a>
</g>
</g>
<!-- Node11 -->
<g id="Node000011" class="node">
<title>Node11</title>
<g id="a_Node000011"><a xlink:href="net_2manager_2registry_8c.html" target="_top" xlink:title=" ">
<polygon fill="white" stroke="#666666" points="1203,-24.5 1060,-24.5 1060,-5.5 1203,-5.5 1203,-24.5"/>
<text text-anchor="middle" x="1131.5" y="-12.5" font-family="Helvetica,sans-Serif" font-size="10.00">src/net/manager/registry.c</text>
</a>
</g>
</g>
<!-- Node10&#45;&gt;Node11 -->
<g id="edge10_Node000010_Node000011" class="edge">
<title>Node10&#45;&gt;Node11</title>
<g id="a_edge10_Node000010_Node000011"><a xlink:title=" ">
<path fill="none" stroke="#63b8ff" d="M1245.31,-62.1C1214.98,-49.82 1176.1,-34.06 1152.53,-24.52"/>
<polygon fill="#63b8ff" stroke="#63b8ff" points="1244.24,-65.44 1254.83,-65.95 1246.87,-58.96 1244.24,-65.44"/>
</a>
</g>
</g>
<!-- Node12 -->
<g id="Node000012" class="node">
<title>Node12</title>
<g id="a_Node000012"><a xlink:href="registry__health_8c.html" target="_top" xlink:title=" ">
<polygon fill="white" stroke="#666666" points="1358,-30 1221,-30 1221,0 1358,0 1358,-30"/>
<text text-anchor="start" x="1229" y="-18" font-family="Helvetica,sans-Serif" font-size="10.00">src/net/manager/registry</text>
<text text-anchor="middle" x="1289.5" y="-7" font-family="Helvetica,sans-Serif" font-size="10.00">_health.c</text>
</a>
</g>
</g>
<!-- Node10&#45;&gt;Node12 -->
<g id="edge11_Node000010_Node000012" class="edge">
<title>Node10&#45;&gt;Node12</title>
<g id="a_edge11_Node000010_Node000012"><a xlink:title=" ">
<path fill="none" stroke="#63b8ff" d="M1289.5,-55.54C1289.5,-46.96 1289.5,-37.61 1289.5,-30.16"/>
<polygon fill="#63b8ff" stroke="#63b8ff" points="1286,-55.8 1289.5,-65.8 1293,-55.8 1286,-55.8"/>
</a>
</g>
</g>
<!-- Node13 -->
<g id="Node000013" class="node">
<title>Node13</title>
<g id="a_Node000013"><a xlink:href="registry__select_8c.html" target="_top" xlink:title=" ">
<polygon fill="white" stroke="#666666" points="1513,-30 1376,-30 1376,0 1513,0 1513,-30"/>
<text text-anchor="start" x="1384" y="-18" font-family="Helvetica,sans-Serif" font-size="10.00">src/net/manager/registry</text>
<text text-anchor="middle" x="1444.5" y="-7" font-family="Helvetica,sans-Serif" font-size="10.00">_select.c</text>
</a>
</g>
</g>
<!-- Node10&#45;&gt;Node13 -->
<g id="edge12_Node000010_Node000013" class="edge">
<title>Node10&#45;&gt;Node13</title>
<g id="a_edge12_Node000010_Node000013"><a xlink:title=" ">
<path fill="none" stroke="#63b8ff" d="M1332.96,-62.05C1357.52,-51.91 1387.77,-39.43 1410.56,-30.01"/>
<polygon fill="#63b8ff" stroke="#63b8ff" points="1331.42,-58.9 1323.52,-65.95 1334.09,-65.37 1331.42,-58.9"/>
</a>
</g>
</g>
</g>
</svg>
