<?xml version="1.0" encoding="UTF-8" standalone="no"?>
<!DOCTYPE svg PUBLIC "-//W3C//DTD SVG 1.1//EN"
 "http://www.w3.org/Graphics/SVG/1.1/DTD/svg11.dtd">
<!-- Generated by graphviz version 2.43.0 (0)
 -->
<!-- Title: src/observability/dashboard/auth.c Pages: 1 -->
<svg width="1221pt" height="324pt"
 viewBox="0.00 0.00 1220.50 324.00" xmlns="http://www.w3.org/2000/svg" xmlns:xlink="http://www.w3.org/1999/xlink">
<g id="graph0" class="graph" transform="scale(1 1) rotate(0) translate(4 320)">
<title>src/observability/dashboard/auth.c</title>
<!-- Node1 -->
<g id="Node000001" class="node">
<title>Node1</title>
<g id="a_Node000001"><a xlink:title=" ">
<polygon fill="#999999" stroke="#666666" points="642,-316 490,-316 490,-286 642,-286 642,-316"/>
<text text-anchor="start" x="498" y="-304" font-family="Helvetica,sans-Serif" font-size="10.00">src/observability/dashboard</text>
<text text-anchor="middle" x="566" y="-293" font-family="Helvetica,sans-Serif" font-size="10.00">/auth.c</text>
</a>
</g>
</g>
<!-- Node2 -->
<g id="Node000002" class="node">
<title>Node2</title>
<g id="a_Node000002"><a xlink:href="dashboard__auth__internal_8h.html" target="_top" xlink:title=" ">
<polygon fill="white" stroke="#666666" points="408,-250 262,-250 262,-231 408,-231 408,-250"/>
<text text-anchor="middle" x="335" y="-238" font-family="Helvetica,sans-Serif" font-size="10.00">dashboard_auth_internal.h</text>
</a>
</g>
</g>
<!-- Node1&#45;&gt;Node2 -->
<g id="edge1_Node000001_Node000002" class="edge">
<title>Node1&#45;&gt;Node2</title>
<g id="a_edge1_Node000001_Node000002"><a xlink:title=" ">
<path fill="none" stroke="#63b8ff" d="M510.67,-285.99C470.29,-275.76 416.29,-262.09 378.87,-252.61"/>
<polygon fill="#63b8ff" stroke="#63b8ff" points="379.33,-249.12 368.78,-250.05 377.61,-255.9 379.33,-249.12"/>
</a>
</g>
</g>
<!-- Node21 -->
<g id="Node000021" class="node">
<title>Node21</title>
<g id="a_Node000021"><a xlink:title=" ">
<polygon fill="#e0e0e0" stroke="#999999" points="523.5,-250 426.5,-250 426.5,-231 523.5,-231 523.5,-250"/>
<text text-anchor="middle" x="475" y="-238" font-family="Helvetica,sans-Serif" font-size="10.00">openssl/crypto.h</text>
</a>
</g>
</g>
<!-- Node1&#45;&gt;Node21 -->
<g id="edge32_Node000001_Node000021" class="edge">
<title>Node1&#45;&gt;Node21</title>
<g id="a_edge32_Node000001_Node000021"><a xlink:title=" ">
<path fill="none" stroke="#63b8ff" d="M543.97,-285.84C529.73,-276.68 511.27,-264.82 497.03,-255.66"/>
<polygon fill="#63b8ff" stroke="#63b8ff" points="498.67,-252.56 488.37,-250.09 494.89,-258.45 498.67,-252.56"/>
</a>
</g>
</g>
<!-- Node22 -->
<g id="Node000022" class="node">
<title>Node22</title>
<g id="a_Node000022"><a xlink:href="time_8h.html" target="_top" xlink:title=" ">
<polygon fill="white" stroke="#666666" points="590,-250 542,-250 542,-231 590,-231 590,-250"/>
<text text-anchor="middle" x="566" y="-238" font-family="Helvetica,sans-Serif" font-size="10.00">time.h</text>
</a>
</g>
</g>
<!-- Node1&#45;&gt;Node22 -->
<g id="edge33_Node000001_Node000022" class="edge">
<title>Node1&#45;&gt;Node22</title>
<g id="a_edge33_Node000001_Node000022"><a xlink:title=" ">
<path fill="none" stroke="#63b8ff" d="M566,-285.84C566,-278.21 566,-268.7 566,-260.45"/>
<polygon fill="#63b8ff" stroke="#63b8ff" points="569.5,-260.27 566,-250.27 562.5,-260.27 569.5,-260.27"/>
</a>
</g>
</g>
<!-- Node24 -->
<g id="Node000024" class="node">
<title>Node24</title>
<g id="a_Node000024"><a xlink:title=" ">
<polygon fill="#e0e0e0" stroke="#999999" points="679.5,-250 626.5,-250 626.5,-231 679.5,-231 679.5,-250"/>
<text text-anchor="middle" x="653" y="-238" font-family="Helvetica,sans-Serif" font-size="10.00">stdlib.h</text>
</a>
</g>
</g>
<!-- Node1&#45;&gt;Node24 -->
<g id="edge36_Node000001_Node000024" class="edge">
<title>Node1&#45;&gt;Node24</title>
<g id="a_edge36_Node000001_Node000024"><a xlink:title=" ">
<path fill="none" stroke="#63b8ff" d="M587.06,-285.84C600.54,-276.77 617.99,-265.04 631.55,-255.92"/>
<polygon fill="#63b8ff" stroke="#63b8ff" points="633.87,-258.58 640.22,-250.09 629.97,-252.77 633.87,-258.58"/>
</a>
</g>
</g>
<!-- Node25 -->
<g id="Node000025" class="node">
<title>Node25</title>
<g id="a_Node000025"><a xlink:title=" ">
<polygon fill="#e0e0e0" stroke="#999999" points="750.5,-250 697.5,-250 697.5,-231 750.5,-231 750.5,-250"/>
<text text-anchor="middle" x="724" y="-238" font-family="Helvetica,sans-Serif" font-size="10.00">string.h</text>
</a>
</g>
</g>
<!-- Node1&#45;&gt;Node25 -->
<g id="edge37_Node000001_Node000025" class="edge">
<title>Node1&#45;&gt;Node25</title>
<g id="a_edge37_Node000001_Node000025"><a xlink:title=" ">
<path fill="none" stroke="#63b8ff" d="M603.84,-285.99C630.44,-276.14 665.67,-263.1 691.1,-253.68"/>
<polygon fill="#63b8ff" stroke="#63b8ff" points="692.5,-256.89 700.67,-250.14 690.07,-250.33 692.5,-256.89"/>
</a>
</g>
</g>
<!-- Node3 -->
<g id="Node000003" class="node">
<title>Node3</title>
<g id="a_Node000003"><a xlink:href="dashboard__http_8h.html" target="_top" xlink:title=" ">
<polygon fill="white" stroke="#666666" points="385.5,-195 284.5,-195 284.5,-176 385.5,-176 385.5,-195"/>
<text text-anchor="middle" x="335" y="-183" font-family="Helvetica,sans-Serif" font-size="10.00">dashboard_http.h</text>
</a>
</g>
</g>
<!-- Node2&#45;&gt;Node3 -->
<g id="edge2_Node000002_Node000003" class="edge">
<title>Node2&#45;&gt;Node3</title>
<g id="a_edge2_Node000002_Node000003"><a xlink:title=" ">
<path fill="none" stroke="#63b8ff" d="M335,-230.75C335,-223.8 335,-213.85 335,-205.13"/>
<polygon fill="#63b8ff" stroke="#63b8ff" points="338.5,-205.09 335,-195.09 331.5,-205.09 338.5,-205.09"/>
</a>
</g>
</g>
<!-- Node4 -->
<g id="Node000004" class="node">
<title>Node4</title>
<g id="a_Node000004"><a xlink:title=" ">
<polygon fill="#e0e0e0" stroke="#999999" points="78,-19 0,-19 0,0 78,0 78,-19"/>
<text text-anchor="middle" x="39" y="-7" font-family="Helvetica,sans-Serif" font-size="10.00">ngx_config.h</text>
</a>
</g>
</g>
<!-- Node3&#45;&gt;Node4 -->
<g id="edge3_Node000003_Node000004" class="edge">
<title>Node3&#45;&gt;Node4</title>
<g id="a_edge3_Node000003_Node000004"><a xlink:title=" ">
<path fill="none" stroke="#63b8ff" d="M284.34,-179.25C227.54,-172.52 139.86,-159.37 113,-140 74.43,-112.19 53.12,-57.65 44.15,-29.03"/>
<polygon fill="#63b8ff" stroke="#63b8ff" points="47.42,-27.72 41.22,-19.13 40.7,-29.71 47.42,-27.72"/>
</a>
</g>
</g>
<!-- Node5 -->
<g id="Node000005" class="node">
<title>Node5</title>
<g id="a_Node000005"><a xlink:title=" ">
<polygon fill="#e0e0e0" stroke="#999999" points="634,-19 564,-19 564,0 634,0 634,-19"/>
<text text-anchor="middle" x="599" y="-7" font-family="Helvetica,sans-Serif" font-size="10.00">ngx_core.h</text>
</a>
</g>
</g>
<!-- Node3&#45;&gt;Node5 -->
<g id="edge4_Node000003_Node000005" class="edge">
<title>Node3&#45;&gt;Node5</title>
<g id="a_edge4_Node000003_Node000005"><a xlink:title=" ">
<path fill="none" stroke="#63b8ff" d="M385.75,-180.55C543.26,-167.77 1015.82,-125.43 1060,-74 1065.5,-67.59 1065.68,-61.25 1060,-55 1032.38,-24.58 754.96,-14.37 644.26,-11.49"/>
<polygon fill="#63b8ff" stroke="#63b8ff" points="644.17,-7.98 634.08,-11.23 643.99,-14.98 644.17,-7.98"/>
</a>
</g>
</g>
<!-- Node6 -->
<g id="Node000006" class="node">
<title>Node6</title>
<g id="a_Node000006"><a xlink:title=" ">
<polygon fill="#e0e0e0" stroke="#999999" points="369,-134.5 301,-134.5 301,-115.5 369,-115.5 369,-134.5"/>
<text text-anchor="middle" x="335" y="-122.5" font-family="Helvetica,sans-Serif" font-size="10.00">ngx_http.h</text>
</a>
</g>
</g>
<!-- Node3&#45;&gt;Node6 -->
<g id="edge5_Node000003_Node000006" class="edge">
<title>Node3&#45;&gt;Node6</title>
<g id="a_edge5_Node000003_Node000006"><a xlink:title=" ">
<path fill="none" stroke="#63b8ff" d="M335,-175.87C335,-167.75 335,-155.31 335,-144.89"/>
<polygon fill="#63b8ff" stroke="#63b8ff" points="338.5,-144.67 335,-134.67 331.5,-144.67 338.5,-144.67"/>
</a>
</g>
</g>
<!-- Node7 -->
<g id="Node000007" class="node">
<title>Node7</title>
<g id="a_Node000007"><a xlink:href="dashboard_8h.html" target="_top" xlink:title=" ">
<polygon fill="white" stroke="#666666" points="199.5,-134.5 122.5,-134.5 122.5,-115.5 199.5,-115.5 199.5,-134.5"/>
<text text-anchor="middle" x="161" y="-122.5" font-family="Helvetica,sans-Serif" font-size="10.00">dashboard.h</text>
</a>
</g>
</g>
<!-- Node3&#45;&gt;Node7 -->
<g id="edge6_Node000003_Node000007" class="edge">
<title>Node3&#45;&gt;Node7</title>
<g id="a_edge6_Node000003_Node000007"><a xlink:title=" ">
<path fill="none" stroke="#63b8ff" d="M309.7,-175.99C279.8,-165.94 229.88,-149.16 196.22,-137.84"/>
<polygon fill="#63b8ff" stroke="#63b8ff" points="196.93,-134.39 186.33,-134.52 194.69,-141.02 196.93,-134.39"/>
</a>
</g>
</g>
<!-- Node10 -->
<g id="Node000010" class="node">
<title>Node10</title>
<g id="a_Node000010"><a xlink:href="observability_2metrics_2metrics_8h.html" target="_top" xlink:title=" ">
<polygon fill="white" stroke="#666666" points="604,-140 484,-140 484,-110 604,-110 604,-140"/>
<text text-anchor="start" x="492" y="-128" font-family="Helvetica,sans-Serif" font-size="10.00">observability/metrics</text>
<text text-anchor="middle" x="544" y="-117" font-family="Helvetica,sans-Serif" font-size="10.00">/metrics.h</text>
</a>
</g>
</g>
<!-- Node3&#45;&gt;Node10 -->
<g id="edge10_Node000003_Node000010" class="edge">
<title>Node3&#45;&gt;Node10</title>
<g id="a_edge10_Node000003_Node000010"><a xlink:title=" ">
<path fill="none" stroke="#63b8ff" d="M365.39,-175.99C396.39,-167.32 445.31,-153.62 484.12,-142.76"/>
<polygon fill="#63b8ff" stroke="#63b8ff" points="485.07,-146.13 493.75,-140.06 483.18,-139.39 485.07,-146.13"/>
</a>
</g>
</g>
<!-- Node7&#45;&gt;Node5 -->
<g id="edge8_Node000007_Node000005" class="edge">
<title>Node7&#45;&gt;Node5</title>
<g id="a_edge8_Node000007_Node000005"><a xlink:title=" ">
<path fill="none" stroke="#63b8ff" d="M173.24,-115.39C197.33,-98.6 250.33,-62.49 271,-55 367.48,-20.05 488.94,-12.21 553.6,-10.66"/>
<polygon fill="#63b8ff" stroke="#63b8ff" points="553.93,-14.15 563.86,-10.46 553.79,-7.15 553.93,-14.15"/>
</a>
</g>
</g>
<!-- Node8 -->
<g id="Node000008" class="node">
<title>Node8</title>
<g id="a_Node000008"><a xlink:title=" ">
<polygon fill="#e0e0e0" stroke="#999999" points="146.5,-74 93.5,-74 93.5,-55 146.5,-55 146.5,-74"/>
<text text-anchor="middle" x="120" y="-62" font-family="Helvetica,sans-Serif" font-size="10.00">stdint.h</text>
</a>
</g>
</g>
<!-- Node7&#45;&gt;Node8 -->
<g id="edge7_Node000007_Node000008" class="edge">
<title>Node7&#45;&gt;Node8</title>
<g id="a_edge7_Node000007_Node000008"><a xlink:title=" ">
<path fill="none" stroke="#63b8ff" d="M154.95,-115.37C148.89,-106.73 139.41,-93.2 131.86,-82.42"/>
<polygon fill="#63b8ff" stroke="#63b8ff" points="134.68,-80.35 126.07,-74.17 128.95,-84.37 134.68,-80.35"/>
</a>
</g>
</g>
<!-- Node9 -->
<g id="Node000009" class="node">
<title>Node9</title>
<g id="a_Node000009"><a xlink:href="proto__list_8h.html" target="_top" xlink:title=" ">
<polygon fill="white" stroke="#666666" points="233.5,-19 108.5,-19 108.5,0 233.5,0 233.5,-19"/>
<text text-anchor="middle" x="171" y="-7" font-family="Helvetica,sans-Serif" font-size="10.00">core/types/proto_list.h</text>
</a>
</g>
</g>
<!-- Node7&#45;&gt;Node9 -->
<g id="edge9_Node000007_Node000009" class="edge">
<title>Node7&#45;&gt;Node9</title>
<g id="a_edge9_Node000007_Node000009"><a xlink:title=" ">
<path fill="none" stroke="#63b8ff" d="M137.34,-115.5C109.13,-103.94 67.7,-81.64 84,-55 93.4,-39.64 109.96,-29.36 126.14,-22.6"/>
<polygon fill="#63b8ff" stroke="#63b8ff" points="127.46,-25.84 135.56,-19.01 124.96,-19.3 127.46,-25.84"/>
</a>
</g>
</g>
<!-- Node10&#45;&gt;Node5 -->
<g id="edge13_Node000010_Node000005" class="edge">
<title>Node10&#45;&gt;Node5</title>
<g id="a_edge13_Node000010_Node000005"><a xlink:title=" ">
<path fill="none" stroke="#63b8ff" d="M487.92,-109.99C452.97,-98.46 417.97,-79.96 437,-55 451.16,-36.43 511.01,-23.67 553.84,-16.73"/>
<polygon fill="#63b8ff" stroke="#63b8ff" points="554.44,-20.18 563.78,-15.17 553.36,-13.26 554.44,-20.18"/>
</a>
</g>
</g>
<!-- Node10&#45;&gt;Node8 -->
<g id="edge12_Node000010_Node000008" class="edge">
<title>Node10&#45;&gt;Node8</title>
<g id="a_edge12_Node000010_Node000008"><a xlink:title=" ">
<path fill="none" stroke="#63b8ff" d="M483.7,-118.34C409.06,-110.86 277.91,-96.21 156.87,-74.18"/>
<polygon fill="#63b8ff" stroke="#63b8ff" points="157.16,-70.67 146.69,-72.3 155.89,-77.56 157.16,-70.67"/>
</a>
</g>
</g>
<!-- Node11 -->
<g id="Node000011" class="node">
<title>Node11</title>
<g id="a_Node000011"><a xlink:title=" ">
<polygon fill="#e0e0e0" stroke="#999999" points="953.5,-74 900.5,-74 900.5,-55 953.5,-55 953.5,-74"/>
<text text-anchor="middle" x="927" y="-62" font-family="Helvetica,sans-Serif" font-size="10.00">limits.h</text>
</a>
</g>
</g>
<!-- Node10&#45;&gt;Node11 -->
<g id="edge11_Node000010_Node000011" class="edge">
<title>Node10&#45;&gt;Node11</title>
<g id="a_edge11_Node000010_Node000011"><a xlink:title=" ">
<path fill="none" stroke="#63b8ff" d="M604.14,-116.98C671.44,-108.75 783.92,-93.91 890.37,-73.96"/>
<polygon fill="#63b8ff" stroke="#63b8ff" points="891.15,-77.38 900.32,-72.08 889.84,-70.5 891.15,-77.38"/>
</a>
</g>
</g>
<!-- Node12 -->
<g id="Node000012" class="node">
<title>Node12</title>
<g id="a_Node000012"><a xlink:href="fs__list_8h.html" target="_top" xlink:title=" ">
<polygon fill="white" stroke="#666666" points="389.5,-74 280.5,-74 280.5,-55 389.5,-55 389.5,-74"/>
<text text-anchor="middle" x="335" y="-62" font-family="Helvetica,sans-Serif" font-size="10.00">core/types/fs_list.h</text>
</a>
</g>
</g>
<!-- Node10&#45;&gt;Node12 -->
<g id="edge14_Node000010_Node000012" class="edge">
<title>Node10&#45;&gt;Node12</title>
<g id="a_edge14_Node000010_Node000012"><a xlink:title=" ">
<path fill="none" stroke="#63b8ff" d="M493.94,-109.99C457.71,-99.85 409.38,-86.32 375.56,-76.85"/>
<polygon fill="#63b8ff" stroke="#63b8ff" points="376.13,-73.38 365.56,-74.05 374.25,-80.12 376.13,-73.38"/>
</a>
</g>
</g>
<!-- Node13 -->
<g id="Node000013" class="node">
<title>Node13</title>
<g id="a_Node000013"><a xlink:href="observability_2metrics_2unified_8h.html" target="_top" xlink:title=" ">
<polygon fill="white" stroke="#666666" points="223.5,-74 164.5,-74 164.5,-55 223.5,-55 223.5,-74"/>
<text text-anchor="middle" x="194" y="-62" font-family="Helvetica,sans-Serif" font-size="10.00">unified.h</text>
</a>
</g>
</g>
<!-- Node10&#45;&gt;Node13 -->
<g id="edge15_Node000010_Node000013" class="edge">
<title>Node10&#45;&gt;Node13</title>
<g id="a_edge15_Node000010_Node000013"><a xlink:title=" ">
<path fill="none" stroke="#63b8ff" d="M483.83,-113.94C412.33,-101.99 295.04,-82.39 233.89,-72.17"/>
<polygon fill="#63b8ff" stroke="#63b8ff" points="234.31,-68.69 223.87,-70.49 233.15,-75.59 234.31,-68.69"/>
</a>
</g>
</g>
<!-- Node14 -->
<g id="Node000014" class="node">
<title>Node14</title>
<g id="a_Node000014"><a xlink:href="metrics__webdav_8h.html" target="_top" xlink:title=" ">
<polygon fill="white" stroke="#666666" points="1212.5,-74 1107.5,-74 1107.5,-55 1212.5,-55 1212.5,-74"/>
<text text-anchor="middle" x="1160" y="-62" font-family="Helvetica,sans-Serif" font-size="10.00">metrics_webdav.h</text>
</a>
</g>
</g>
<!-- Node10&#45;&gt;Node14 -->
<g id="edge19_Node000010_Node000014" class="edge">
<title>Node10&#45;&gt;Node14</title>
<g id="a_edge19_Node000010_Node000014"><a xlink:title=" ">
<path fill="none" stroke="#63b8ff" d="M604.19,-118.28C721.12,-107.18 977.93,-82.79 1097.04,-71.48"/>
<polygon fill="#63b8ff" stroke="#63b8ff" points="1097.47,-74.95 1107.1,-70.52 1096.81,-67.99 1097.47,-74.95"/>
</a>
</g>
</g>
<!-- Node16 -->
<g id="Node000016" class="node">
<title>Node16</title>
<g id="a_Node000016"><a xlink:href="metrics__s3_8h.html" target="_top" xlink:title=" ">
<polygon fill="white" stroke="#666666" points="1050.5,-74 971.5,-74 971.5,-55 1050.5,-55 1050.5,-74"/>
<text text-anchor="middle" x="1011" y="-62" font-family="Helvetica,sans-Serif" font-size="10.00">metrics_s3.h</text>
</a>
</g>
</g>
<!-- Node10&#45;&gt;Node16 -->
<g id="edge22_Node000010_Node000016" class="edge">
<title>Node10&#45;&gt;Node16</title>
<g id="a_edge22_Node000010_Node000016"><a xlink:title=" ">
<path fill="none" stroke="#63b8ff" d="M604.16,-117.9C683.68,-109.6 828.35,-93.66 961.5,-74.15"/>
<polygon fill="#63b8ff" stroke="#63b8ff" points="962.09,-77.6 971.48,-72.68 961.07,-70.68 962.09,-77.6"/>
</a>
</g>
</g>
<!-- Node17 -->
<g id="Node000017" class="node">
<title>Node17</title>
<g id="a_Node000017"><a xlink:href="metrics__frm_8h.html" target="_top" xlink:title=" ">
<polygon fill="white" stroke="#666666" points="531.5,-74 446.5,-74 446.5,-55 531.5,-55 531.5,-74"/>
<text text-anchor="middle" x="489" y="-62" font-family="Helvetica,sans-Serif" font-size="10.00">metrics_frm.h</text>
</a>
</g>
</g>
<!-- Node10&#45;&gt;Node17 -->
<g id="edge25_Node000010_Node000017" class="edge">
<title>Node10&#45;&gt;Node17</title>
<g id="a_edge25_Node000010_Node000017"><a xlink:title=" ">
<path fill="none" stroke="#63b8ff" d="M530.69,-109.84C522.7,-101.35 512.52,-90.52 504.22,-81.69"/>
<polygon fill="#63b8ff" stroke="#63b8ff" points="506.64,-79.15 497.24,-74.27 501.54,-83.95 506.64,-79.15"/>
</a>
</g>
</g>
<!-- Node18 -->
<g id="Node000018" class="node">
<title>Node18</title>
<g id="a_Node000018"><a xlink:href="metrics__cvmfs_8h.html" target="_top" xlink:title=" ">
<polygon fill="white" stroke="#666666" points="648,-74 550,-74 550,-55 648,-55 648,-74"/>
<text text-anchor="middle" x="599" y="-62" font-family="Helvetica,sans-Serif" font-size="10.00">metrics_cvmfs.h</text>
</a>
</g>
</g>
<!-- Node10&#45;&gt;Node18 -->
<g id="edge27_Node000010_Node000018" class="edge">
<title>Node10&#45;&gt;Node18</title>
<g id="a_edge27_Node000010_Node000018"><a xlink:title=" ">
<path fill="none" stroke="#63b8ff" d="M557.31,-109.84C565.3,-101.35 575.48,-90.52 583.78,-81.69"/>
<polygon fill="#63b8ff" stroke="#63b8ff" points="586.46,-83.95 590.76,-74.27 581.36,-79.15 586.46,-83.95"/>
</a>
</g>
</g>
<!-- Node19 -->
<g id="Node000019" class="node">
<title>Node19</title>
<g id="a_Node000019"><a xlink:href="metrics__proxy_8h.html" target="_top" xlink:title=" ">
<polygon fill="white" stroke="#666666" points="760,-74 666,-74 666,-55 760,-55 760,-74"/>
<text text-anchor="middle" x="713" y="-62" font-family="Helvetica,sans-Serif" font-size="10.00">metrics_proxy.h</text>
</a>
</g>
</g>
<!-- Node10&#45;&gt;Node19 -->
<g id="edge29_Node000010_Node000019" class="edge">
<title>Node10&#45;&gt;Node19</title>
<g id="a_edge29_Node000010_Node000019"><a xlink:title=" ">
<path fill="none" stroke="#63b8ff" d="M584.48,-109.99C613.18,-100.05 651.28,-86.86 678.53,-77.43"/>
<polygon fill="#63b8ff" stroke="#63b8ff" points="679.74,-80.72 688.04,-74.14 677.45,-74.1 679.74,-80.72"/>
</a>
</g>
</g>
<!-- Node20 -->
<g id="Node000020" class="node">
<title>Node20</title>
<g id="a_Node000020"><a xlink:href="metrics__macros_8h.html" target="_top" xlink:title=" ">
<polygon fill="white" stroke="#666666" points="882,-74 778,-74 778,-55 882,-55 882,-74"/>
<text text-anchor="middle" x="830" y="-62" font-family="Helvetica,sans-Serif" font-size="10.00">metrics_macros.h</text>
</a>
</g>
</g>
<!-- Node10&#45;&gt;Node20 -->
<g id="edge31_Node000010_Node000020" class="edge">
<title>Node10&#45;&gt;Node20</title>
<g id="a_edge31_Node000010_Node000020"><a xlink:title=" ">
<path fill="none" stroke="#63b8ff" d="M604.3,-111.67C655.87,-101.12 729.28,-86.1 778.22,-76.09"/>
<polygon fill="#63b8ff" stroke="#63b8ff" points="779.18,-79.47 788.28,-74.03 777.78,-72.61 779.18,-79.47"/>
</a>
</g>
</g>
<!-- Node13&#45;&gt;Node4 -->
<g id="edge16_Node000013_Node000004" class="edge">
<title>Node13&#45;&gt;Node4</title>
<g id="a_edge16_Node000013_Node000004"><a xlink:title=" ">
<path fill="none" stroke="#63b8ff" d="M169.1,-54.98C143.3,-46.16 102.78,-32.31 73.82,-22.41"/>
<polygon fill="#63b8ff" stroke="#63b8ff" points="74.69,-19.01 64.1,-19.08 72.43,-25.63 74.69,-19.01"/>
</a>
</g>
</g>
<!-- Node13&#45;&gt;Node5 -->
<g id="edge17_Node000013_Node000005" class="edge">
<title>Node13&#45;&gt;Node5</title>
<g id="a_edge17_Node000013_Node000005"><a xlink:title=" ">
<path fill="none" stroke="#63b8ff" d="M223.77,-57.46C228.52,-56.58 233.39,-55.73 238,-55 351.17,-37.12 485.26,-22.23 553.77,-15.07"/>
<polygon fill="#63b8ff" stroke="#63b8ff" points="554.2,-18.55 563.79,-14.03 553.48,-11.59 554.2,-18.55"/>
</a>
</g>
</g>
<!-- Node13&#45;&gt;Node9 -->
<g id="edge18_Node000013_Node000009" class="edge">
<title>Node13&#45;&gt;Node9</title>
<g id="a_edge18_Node000013_Node000009"><a xlink:title=" ">
<path fill="none" stroke="#63b8ff" d="M190.2,-54.75C187.09,-47.57 182.58,-37.18 178.71,-28.27"/>
<polygon fill="#63b8ff" stroke="#63b8ff" points="181.92,-26.87 174.73,-19.09 175.5,-29.66 181.92,-26.87"/>
</a>
</g>
</g>
<!-- Node14&#45;&gt;Node5 -->
<g id="edge20_Node000014_Node000005" class="edge">
<title>Node14&#45;&gt;Node5</title>
<g id="a_edge20_Node000014_Node000005"><a xlink:title=" ">
<path fill="none" stroke="#63b8ff" d="M1107.35,-56.64C1102.5,-56.06 1097.66,-55.51 1093,-55 927.85,-37.09 731.09,-20.9 644.13,-14.01"/>
<polygon fill="#63b8ff" stroke="#63b8ff" points="644.33,-10.52 634.08,-13.22 643.78,-17.5 644.33,-10.52"/>
</a>
</g>
</g>
<!-- Node15 -->
<g id="Node000015" class="node">
<title>Node15</title>
<g id="a_Node000015"><a xlink:href="metrics__http__labels_8h.html" target="_top" xlink:title=" ">
<polygon fill="white" stroke="#666666" points="1146,-19 1024,-19 1024,0 1146,0 1146,-19"/>
<text text-anchor="middle" x="1085" y="-7" font-family="Helvetica,sans-Serif" font-size="10.00">metrics_http_labels.h</text>
</a>
</g>
</g>
<!-- Node14&#45;&gt;Node15 -->
<g id="edge21_Node000014_Node000015" class="edge">
<title>Node14&#45;&gt;Node15</title>
<g id="a_edge21_Node000014_Node000015"><a xlink:title=" ">
<path fill="none" stroke="#63b8ff" d="M1147.95,-54.98C1136.54,-46.92 1119.17,-34.65 1105.57,-25.03"/>
<polygon fill="#63b8ff" stroke="#63b8ff" points="1107.46,-22.08 1097.27,-19.17 1103.42,-27.8 1107.46,-22.08"/>
</a>
</g>
</g>
<!-- Node16&#45;&gt;Node5 -->
<g id="edge23_Node000016_Node000005" class="edge">
<title>Node16&#45;&gt;Node5</title>
<g id="a_edge23_Node000016_Node000005"><a xlink:title=" ">
<path fill="none" stroke="#63b8ff" d="M971.47,-56.33C968.61,-55.86 965.76,-55.41 963,-55 848.61,-37.89 713.26,-22.65 644.31,-15.25"/>
<polygon fill="#63b8ff" stroke="#63b8ff" points="644.54,-11.75 634.22,-14.17 643.79,-18.71 644.54,-11.75"/>
</a>
</g>
</g>
<!-- Node16&#45;&gt;Node15 -->
<g id="edge24_Node000016_Node000015" class="edge">
<title>Node16&#45;&gt;Node15</title>
<g id="a_edge24_Node000016_Node000015"><a xlink:title=" ">
<path fill="none" stroke="#63b8ff" d="M1022.89,-54.98C1034.15,-46.92 1051.29,-34.65 1064.71,-25.03"/>
<polygon fill="#63b8ff" stroke="#63b8ff" points="1066.8,-27.84 1072.89,-19.17 1062.73,-22.15 1066.8,-27.84"/>
</a>
</g>
</g>
<!-- Node17&#45;&gt;Node5 -->
<g id="edge26_Node000017_Node000005" class="edge">
<title>Node17&#45;&gt;Node5</title>
<g id="a_edge26_Node000017_Node000005"><a xlink:title=" ">
<path fill="none" stroke="#63b8ff" d="M506.67,-54.98C524.29,-46.5 551.58,-33.35 571.93,-23.54"/>
<polygon fill="#63b8ff" stroke="#63b8ff" points="573.52,-26.66 581.01,-19.17 570.48,-20.36 573.52,-26.66"/>
</a>
</g>
</g>
<!-- Node18&#45;&gt;Node5 -->
<g id="edge28_Node000018_Node000005" class="edge">
<title>Node18&#45;&gt;Node5</title>
<g id="a_edge28_Node000018_Node000005"><a xlink:title=" ">
<path fill="none" stroke="#63b8ff" d="M599,-54.75C599,-47.8 599,-37.85 599,-29.13"/>
<polygon fill="#63b8ff" stroke="#63b8ff" points="602.5,-29.09 599,-19.09 595.5,-29.09 602.5,-29.09"/>
</a>
</g>
</g>
<!-- Node19&#45;&gt;Node5 -->
<g id="edge30_Node000019_Node000005" class="edge">
<title>Node19&#45;&gt;Node5</title>
<g id="a_edge30_Node000019_Node000005"><a xlink:title=" ">
<path fill="none" stroke="#63b8ff" d="M694.68,-54.98C676.34,-46.46 647.89,-33.23 626.77,-23.41"/>
<polygon fill="#63b8ff" stroke="#63b8ff" points="628.19,-20.21 617.65,-19.17 625.24,-26.56 628.19,-20.21"/>
</a>
</g>
</g>
<!-- Node22&#45;&gt;Node22 -->
<g id="edge35_Node000022_Node000022" class="edge">
<title>Node22&#45;&gt;Node22</title>
<g id="a_edge35_Node000022_Node000022"><a xlink:title=" ">
<path fill="none" stroke="#63b8ff" d="M585.88,-250.07C597.33,-252.02 608,-248.83 608,-240.5 608,-234.77 602.96,-231.47 596.08,-230.61"/>
<polygon fill="#63b8ff" stroke="#63b8ff" points="595.76,-227.12 585.88,-230.93 595.98,-234.11 595.76,-227.12"/>
</a>
</g>
</g>
<!-- Node23 -->
<g id="Node000023" class="node">
<title>Node23</title>
<g id="a_Node000023"><a xlink:title=" ">
<polygon fill="#e0e0e0" stroke="#999999" points="594,-195 538,-195 538,-176 594,-176 594,-195"/>
<text text-anchor="middle" x="566" y="-183" font-family="Helvetica,sans-Serif" font-size="10.00">stddef.h</text>
</a>
</g>
</g>
<!-- Node22&#45;&gt;Node23 -->
<g id="edge34_Node000022_Node000023" class="edge">
<title>Node22&#45;&gt;Node23</title>
<g id="a_edge34_Node000022_Node000023"><a xlink:title=" ">
<path fill="none" stroke="#63b8ff" d="M566,-230.75C566,-223.8 566,-213.85 566,-205.13"/>
<polygon fill="#63b8ff" stroke="#63b8ff" points="569.5,-205.09 566,-195.09 562.5,-205.09 569.5,-205.09"/>
</a>
</g>
</g>
</g>
</svg>
