<?xml version="1.0" encoding="UTF-8" standalone="no"?>
<!DOCTYPE svg PUBLIC "-//W3C//DTD SVG 1.1//EN"
 "http://www.w3.org/Graphics/SVG/1.1/DTD/svg11.dtd">
<!-- Generated by graphviz version 2.43.0 (0)
 -->
<!-- Title: src/core/aio/uring.h Pages: 1 -->
<svg width="1728pt" height="170pt"
 viewBox="0.00 0.00 1728.00 170.00" xmlns="http://www.w3.org/2000/svg" xmlns:xlink="http://www.w3.org/1999/xlink">
<g id="graph0" class="graph" transform="scale(1 1) rotate(0) translate(4 166)">
<title>src/core/aio/uring.h</title>
<!-- Node1 -->
<g id="Node000001" class="node">
<title>Node1</title>
<g id="a_Node000001"><a xlink:title=" ">
<polygon fill="#999999" stroke="#666666" points="731,-162 621,-162 621,-143 731,-143 731,-162"/>
<text text-anchor="middle" x="676" y="-150" font-family="Helvetica,sans-Serif" font-size="10.00">src/core/aio/uring.h</text>
</a>
</g>
</g>
<!-- Node2 -->
<g id="Node000002" class="node">
<title>Node2</title>
<g id="a_Node000002"><a xlink:href="vfs__block_8c.html" target="_top" xlink:title=" ">
<polygon fill="white" stroke="#666666" points="128,-96 0,-96 0,-77 128,-77 128,-96"/>
<text text-anchor="middle" x="64" y="-84" font-family="Helvetica,sans-Serif" font-size="10.00">client/lib/fs/vfs_block.c</text>
</a>
</g>
</g>
<!-- Node1&#45;&gt;Node2 -->
<g id="edge1_Node000001_Node000002" class="edge">
<title>Node1&#45;&gt;Node2</title>
<g id="a_edge1_Node000001_Node000002"><a xlink:title=" ">
<path fill="none" stroke="#63b8ff" d="M610.75,-149.87C508.91,-146.48 306.27,-136.35 137,-107 121.75,-104.36 105.05,-100.01 91.47,-96.08"/>
<polygon fill="#63b8ff" stroke="#63b8ff" points="610.78,-153.37 620.89,-150.19 611,-146.37 610.78,-153.37"/>
</a>
</g>
</g>
<!-- Node3 -->
<g id="Node000003" class="node">
<title>Node3</title>
<g id="a_Node000003"><a xlink:href="vfs__posix_8c.html" target="_top" xlink:title=" ">
<polygon fill="white" stroke="#666666" points="274,-96 146,-96 146,-77 274,-77 274,-96"/>
<text text-anchor="middle" x="210" y="-84" font-family="Helvetica,sans-Serif" font-size="10.00">client/lib/fs/vfs_posix.c</text>
</a>
</g>
</g>
<!-- Node1&#45;&gt;Node3 -->
<g id="edge2_Node000001_Node000003" class="edge">
<title>Node1&#45;&gt;Node3</title>
<g id="a_edge2_Node000001_Node000003"><a xlink:title=" ">
<path fill="none" stroke="#63b8ff" d="M610.74,-147.09C532.4,-141.11 397.29,-128.61 283,-107 268.05,-104.17 251.66,-99.9 238.2,-96.08"/>
<polygon fill="#63b8ff" stroke="#63b8ff" points="610.71,-150.59 620.94,-147.85 611.23,-143.61 610.71,-150.59"/>
</a>
</g>
</g>
<!-- Node4 -->
<g id="Node000004" class="node">
<title>Node4</title>
<g id="a_Node000004"><a xlink:href="resume_8c.html" target="_top" xlink:title=" ">
<polygon fill="white" stroke="#666666" points="413.5,-96 292.5,-96 292.5,-77 413.5,-77 413.5,-96"/>
<text text-anchor="middle" x="353" y="-84" font-family="Helvetica,sans-Serif" font-size="10.00">src/core/aio/resume.c</text>
</a>
</g>
</g>
<!-- Node1&#45;&gt;Node4 -->
<g id="edge3_Node000001_Node000004" class="edge">
<title>Node1&#45;&gt;Node4</title>
<g id="a_edge3_Node000001_Node000004"><a xlink:title=" ">
<path fill="none" stroke="#63b8ff" d="M611.51,-141.32C561.3,-133.06 489.96,-120.59 428,-107 413.28,-103.77 397.09,-99.64 383.52,-96"/>
<polygon fill="#63b8ff" stroke="#63b8ff" points="611.14,-144.81 621.58,-142.97 612.27,-137.9 611.14,-144.81"/>
</a>
</g>
</g>
<!-- Node5 -->
<g id="Node000005" class="node">
<title>Node5</title>
<g id="a_Node000005"><a xlink:href="src_2core_2aio_2uring_8c.html" target="_top" xlink:title=" ">
<polygon fill="white" stroke="#666666" points="430.5,-24.5 321.5,-24.5 321.5,-5.5 430.5,-5.5 430.5,-24.5"/>
<text text-anchor="middle" x="376" y="-12.5" font-family="Helvetica,sans-Serif" font-size="10.00">src/core/aio/uring.c</text>
</a>
</g>
</g>
<!-- Node1&#45;&gt;Node5 -->
<g id="edge4_Node000001_Node000005" class="edge">
<title>Node1&#45;&gt;Node5</title>
<g id="a_edge4_Node000001_Node000005"><a xlink:title=" ">
<path fill="none" stroke="#63b8ff" d="M610.66,-144.16C572.24,-137.97 523.61,-126.82 484,-107 440.59,-85.28 399.72,-42.72 383.43,-24.55"/>
<polygon fill="#63b8ff" stroke="#63b8ff" points="610.28,-147.64 620.69,-145.7 611.34,-140.72 610.28,-147.64"/>
</a>
</g>
</g>
<!-- Node6 -->
<g id="Node000006" class="node">
<title>Node6</title>
<g id="a_Node000006"><a xlink:href="uring__admin_8c.html" target="_top" xlink:title=" ">
<polygon fill="white" stroke="#666666" points="805.5,-101.5 704.5,-101.5 704.5,-71.5 805.5,-71.5 805.5,-101.5"/>
<text text-anchor="start" x="712.5" y="-89.5" font-family="Helvetica,sans-Serif" font-size="10.00">src/core/aio/uring</text>
<text text-anchor="middle" x="755" y="-78.5" font-family="Helvetica,sans-Serif" font-size="10.00">_admin.c</text>
</a>
</g>
</g>
<!-- Node1&#45;&gt;Node6 -->
<g id="edge5_Node000001_Node000006" class="edge">
<title>Node1&#45;&gt;Node6</title>
<g id="a_edge5_Node000001_Node000006"><a xlink:title=" ">
<path fill="none" stroke="#63b8ff" d="M694.5,-136.52C707.51,-125.98 724.81,-111.96 737.58,-101.62"/>
<polygon fill="#63b8ff" stroke="#63b8ff" points="692.22,-133.85 686.65,-142.87 696.63,-139.29 692.22,-133.85"/>
</a>
</g>
</g>
<!-- Node7 -->
<g id="Node000007" class="node">
<title>Node7</title>
<g id="a_Node000007"><a xlink:href="uring__bringup_8c.html" target="_top" xlink:title=" ">
<polygon fill="white" stroke="#666666" points="549.5,-30 448.5,-30 448.5,0 549.5,0 549.5,-30"/>
<text text-anchor="start" x="456.5" y="-18" font-family="Helvetica,sans-Serif" font-size="10.00">src/core/aio/uring</text>
<text text-anchor="middle" x="499" y="-7" font-family="Helvetica,sans-Serif" font-size="10.00">_bringup.c</text>
</a>
</g>
</g>
<!-- Node1&#45;&gt;Node7 -->
<g id="edge6_Node000001_Node000007" class="edge">
<title>Node1&#45;&gt;Node7</title>
<g id="a_edge6_Node000001_Node000007"><a xlink:title=" ">
<path fill="none" stroke="#63b8ff" d="M610.85,-143.54C566.31,-136.61 512.9,-124.83 499,-107 481.71,-84.82 488.46,-49.49 494.18,-30.02"/>
<polygon fill="#63b8ff" stroke="#63b8ff" points="610.38,-147.01 620.79,-145.03 611.42,-140.09 610.38,-147.01"/>
</a>
</g>
</g>
<!-- Node8 -->
<g id="Node000008" class="node">
<title>Node8</title>
<g id="a_Node000008"><a xlink:href="uring__internal_8h.html" target="_top" xlink:title=" ">
<polygon fill="white" stroke="#666666" points="609.5,-101.5 508.5,-101.5 508.5,-71.5 609.5,-71.5 609.5,-101.5"/>
<text text-anchor="start" x="516.5" y="-89.5" font-family="Helvetica,sans-Serif" font-size="10.00">src/core/aio/uring</text>
<text text-anchor="middle" x="559" y="-78.5" font-family="Helvetica,sans-Serif" font-size="10.00">_internal.h</text>
</a>
</g>
</g>
<!-- Node1&#45;&gt;Node8 -->
<g id="edge7_Node000001_Node000008" class="edge">
<title>Node1&#45;&gt;Node8</title>
<g id="a_edge7_Node000001_Node000008"><a xlink:title=" ">
<path fill="none" stroke="#63b8ff" d="M651.32,-138C631.79,-127.32 604.61,-112.45 584.81,-101.62"/>
<polygon fill="#63b8ff" stroke="#63b8ff" points="649.77,-141.14 660.22,-142.87 653.13,-135 649.77,-141.14"/>
</a>
</g>
</g>
<!-- Node9 -->
<g id="Node000009" class="node">
<title>Node9</title>
<g id="a_Node000009"><a xlink:href="uring__probe_8c.html" target="_top" xlink:title=" ">
<polygon fill="white" stroke="#666666" points="668.5,-30 567.5,-30 567.5,0 668.5,0 668.5,-30"/>
<text text-anchor="start" x="575.5" y="-18" font-family="Helvetica,sans-Serif" font-size="10.00">src/core/aio/uring</text>
<text text-anchor="middle" x="618" y="-7" font-family="Helvetica,sans-Serif" font-size="10.00">_probe.c</text>
</a>
</g>
</g>
<!-- Node1&#45;&gt;Node9 -->
<g id="edge12_Node000001_Node000009" class="edge">
<title>Node1&#45;&gt;Node9</title>
<g id="a_edge12_Node000001_Node000009"><a xlink:title=" ">
<path fill="none" stroke="#63b8ff" d="M668.11,-133.07C656.4,-105.71 634.66,-54.93 624.09,-30.23"/>
<polygon fill="#63b8ff" stroke="#63b8ff" points="665.04,-134.79 672.19,-142.61 671.48,-132.04 665.04,-134.79"/>
</a>
</g>
</g>
<!-- Node10 -->
<g id="Node000010" class="node">
<title>Node10</title>
<g id="a_Node000010"><a xlink:href="uring__reap_8c.html" target="_top" xlink:title=" ">
<polygon fill="white" stroke="#666666" points="787.5,-30 686.5,-30 686.5,0 787.5,0 787.5,-30"/>
<text text-anchor="start" x="694.5" y="-18" font-family="Helvetica,sans-Serif" font-size="10.00">src/core/aio/uring</text>
<text text-anchor="middle" x="737" y="-7" font-family="Helvetica,sans-Serif" font-size="10.00">_reap.c</text>
</a>
</g>
</g>
<!-- Node1&#45;&gt;Node10 -->
<g id="edge13_Node000001_Node000010" class="edge">
<title>Node1&#45;&gt;Node10</title>
<g id="a_edge13_Node000001_Node000010"><a xlink:title=" ">
<path fill="none" stroke="#63b8ff" d="M677.89,-132.81C680.26,-114.91 685.38,-87.52 696,-66 702.66,-52.51 713.58,-39.44 722.47,-30.05"/>
<polygon fill="#63b8ff" stroke="#63b8ff" points="674.4,-132.47 676.72,-142.81 681.36,-133.29 674.4,-132.47"/>
</a>
</g>
</g>
<!-- Node11 -->
<g id="Node000011" class="node">
<title>Node11</title>
<g id="a_Node000011"><a xlink:href="uring__submit_8c.html" target="_top" xlink:title=" ">
<polygon fill="white" stroke="#666666" points="924.5,-101.5 823.5,-101.5 823.5,-71.5 924.5,-71.5 924.5,-101.5"/>
<text text-anchor="start" x="831.5" y="-89.5" font-family="Helvetica,sans-Serif" font-size="10.00">src/core/aio/uring</text>
<text text-anchor="middle" x="874" y="-78.5" font-family="Helvetica,sans-Serif" font-size="10.00">_submit.c</text>
</a>
</g>
</g>
<!-- Node1&#45;&gt;Node11 -->
<g id="edge14_Node000001_Node000011" class="edge">
<title>Node1&#45;&gt;Node11</title>
<g id="a_edge14_Node000001_Node000011"><a xlink:title=" ">
<path fill="none" stroke="#63b8ff" d="M712.71,-139.85C740.75,-130.93 780.34,-118.27 815,-107 820.44,-105.23 826.15,-103.36 831.8,-101.5"/>
<polygon fill="#63b8ff" stroke="#63b8ff" points="711.4,-136.59 702.93,-142.96 713.52,-143.27 711.4,-136.59"/>
</a>
</g>
</g>
<!-- Node12 -->
<g id="Node000012" class="node">
<title>Node12</title>
<g id="a_Node000012"><a xlink:href="postconfiguration_8c.html" target="_top" xlink:title=" ">
<polygon fill="white" stroke="#666666" points="1125.5,-96 942.5,-96 942.5,-77 1125.5,-77 1125.5,-96"/>
<text text-anchor="middle" x="1034" y="-84" font-family="Helvetica,sans-Serif" font-size="10.00">src/core/config/postconfiguration.c</text>
</a>
</g>
</g>
<!-- Node1&#45;&gt;Node12 -->
<g id="edge15_Node000001_Node000012" class="edge">
<title>Node1&#45;&gt;Node12</title>
<g id="a_edge15_Node000001_Node000012"><a xlink:title=" ">
<path fill="none" stroke="#63b8ff" d="M737.58,-141.27C789.89,-132.48 866.94,-119.32 934,-107 952.79,-103.55 973.52,-99.54 991.22,-96.06"/>
<polygon fill="#63b8ff" stroke="#63b8ff" points="736.74,-137.86 727.46,-142.96 737.9,-144.76 736.74,-137.86"/>
</a>
</g>
</g>
<!-- Node13 -->
<g id="Node000013" class="node">
<title>Node13</title>
<g id="a_Node000013"><a xlink:href="process_8c.html" target="_top" xlink:title=" ">
<polygon fill="white" stroke="#666666" points="1280,-96 1144,-96 1144,-77 1280,-77 1280,-96"/>
<text text-anchor="middle" x="1212" y="-84" font-family="Helvetica,sans-Serif" font-size="10.00">src/core/config/process.c</text>
</a>
</g>
</g>
<!-- Node1&#45;&gt;Node13 -->
<g id="edge16_Node000001_Node000013" class="edge">
<title>Node1&#45;&gt;Node13</title>
<g id="a_edge16_Node000001_Node000013"><a xlink:title=" ">
<path fill="none" stroke="#63b8ff" d="M741.1,-148.3C830.45,-143.2 995.83,-131.23 1135,-107 1150.9,-104.23 1168.34,-99.92 1182.61,-96.06"/>
<polygon fill="#63b8ff" stroke="#63b8ff" points="740.91,-144.8 731.12,-148.86 741.3,-151.79 740.91,-144.8"/>
</a>
</g>
</g>
<!-- Node14 -->
<g id="Node000014" class="node">
<title>Node14</title>
<g id="a_Node000014"><a xlink:href="disconnect_8c.html" target="_top" xlink:title=" ">
<polygon fill="white" stroke="#666666" points="1435.5,-101.5 1298.5,-101.5 1298.5,-71.5 1435.5,-71.5 1435.5,-101.5"/>
<text text-anchor="start" x="1306.5" y="-89.5" font-family="Helvetica,sans-Serif" font-size="10.00">src/protocols/root</text>
<text text-anchor="middle" x="1367" y="-78.5" font-family="Helvetica,sans-Serif" font-size="10.00">/connection/disconnect.c</text>
</a>
</g>
</g>
<!-- Node1&#45;&gt;Node14 -->
<g id="edge17_Node000001_Node000014" class="edge">
<title>Node1&#45;&gt;Node14</title>
<g id="a_edge17_Node000001_Node000014"><a xlink:title=" ">
<path fill="none" stroke="#63b8ff" d="M741.49,-150.45C854.08,-147.81 1091.3,-138.65 1289,-107 1297.82,-105.59 1307.11,-103.66 1316.07,-101.57"/>
<polygon fill="#63b8ff" stroke="#63b8ff" points="741.24,-146.95 731.32,-150.67 741.39,-153.95 741.24,-146.95"/>
</a>
</g>
</g>
<!-- Node15 -->
<g id="Node000015" class="node">
<title>Node15</title>
<g id="a_Node000015"><a xlink:href="disconnect__report_8c.html" target="_top" xlink:title=" ">
<polygon fill="white" stroke="#666666" points="1582,-107 1454,-107 1454,-66 1582,-66 1582,-107"/>
<text text-anchor="start" x="1462" y="-95" font-family="Helvetica,sans-Serif" font-size="10.00">src/protocols/root</text>
<text text-anchor="start" x="1462" y="-84" font-family="Helvetica,sans-Serif" font-size="10.00">/connection/disconnect</text>
<text text-anchor="middle" x="1518" y="-73" font-family="Helvetica,sans-Serif" font-size="10.00">_report.c</text>
</a>
</g>
</g>
<!-- Node1&#45;&gt;Node15 -->
<g id="edge18_Node000001_Node000015" class="edge">
<title>Node1&#45;&gt;Node15</title>
<g id="a_edge18_Node000001_Node000015"><a xlink:title=" ">
<path fill="none" stroke="#63b8ff" d="M741.48,-152.17C874.81,-152.56 1186.99,-148.48 1445,-107 1447.85,-106.54 1450.75,-106.02 1453.67,-105.44"/>
<polygon fill="#63b8ff" stroke="#63b8ff" points="741.45,-148.67 731.43,-152.13 741.42,-155.67 741.45,-148.67"/>
</a>
</g>
</g>
<!-- Node16 -->
<g id="Node000016" class="node">
<title>Node16</title>
<g id="a_Node000016"><a xlink:href="protocols_2root_2connection_2handler_8c.html" target="_top" xlink:title=" ">
<polygon fill="white" stroke="#666666" points="1720,-101.5 1600,-101.5 1600,-71.5 1720,-71.5 1720,-101.5"/>
<text text-anchor="start" x="1608" y="-89.5" font-family="Helvetica,sans-Serif" font-size="10.00">src/protocols/root</text>
<text text-anchor="middle" x="1660" y="-78.5" font-family="Helvetica,sans-Serif" font-size="10.00">/connection/handler.c</text>
</a>
</g>
</g>
<!-- Node1&#45;&gt;Node16 -->
<g id="edge19_Node000001_Node000016" class="edge">
<title>Node1&#45;&gt;Node16</title>
<g id="a_edge19_Node000001_Node000016"><a xlink:title=" ">
<path fill="none" stroke="#63b8ff" d="M741.4,-150.25C922.37,-146.47 1427.21,-133.77 1591,-107 1599.11,-105.67 1607.62,-103.74 1615.79,-101.59"/>
<polygon fill="#63b8ff" stroke="#63b8ff" points="741.15,-146.75 731.23,-150.46 741.3,-153.75 741.15,-146.75"/>
</a>
</g>
</g>
<!-- Node8&#45;&gt;Node5 -->
<g id="edge8_Node000008_Node000005" class="edge">
<title>Node8&#45;&gt;Node5</title>
<g id="a_edge8_Node000008_Node000005"><a xlink:title=" ">
<path fill="none" stroke="#63b8ff" d="M512.52,-67.85C476.04,-53.99 426.84,-35.31 398.56,-24.57"/>
<polygon fill="#63b8ff" stroke="#63b8ff" points="511.38,-71.16 521.97,-71.44 513.86,-64.61 511.38,-71.16"/>
</a>
</g>
</g>
<!-- Node8&#45;&gt;Node7 -->
<g id="edge9_Node000008_Node000007" class="edge">
<title>Node8&#45;&gt;Node7</title>
<g id="a_edge9_Node000008_Node000007"><a xlink:title=" ">
<path fill="none" stroke="#63b8ff" d="M540.31,-63.85C530.79,-52.83 519.5,-39.74 511.12,-30.04"/>
<polygon fill="#63b8ff" stroke="#63b8ff" points="537.67,-66.15 546.86,-71.44 542.97,-61.58 537.67,-66.15"/>
</a>
</g>
</g>
<!-- Node8&#45;&gt;Node9 -->
<g id="edge10_Node000008_Node000009" class="edge">
<title>Node8&#45;&gt;Node9</title>
<g id="a_edge10_Node000008_Node000009"><a xlink:title=" ">
<path fill="none" stroke="#63b8ff" d="M577.65,-63.53C586.95,-52.57 597.93,-39.65 606.08,-30.04"/>
<polygon fill="#63b8ff" stroke="#63b8ff" points="574.74,-61.55 570.94,-71.44 580.08,-66.08 574.74,-61.55"/>
</a>
</g>
</g>
<!-- Node8&#45;&gt;Node10 -->
<g id="edge11_Node000008_Node000010" class="edge">
<title>Node8&#45;&gt;Node10</title>
<g id="a_edge11_Node000008_Node000010"><a xlink:title=" ">
<path fill="none" stroke="#63b8ff" d="M604.43,-67.76C634.42,-56.05 673.18,-40.92 701.03,-30.04"/>
<polygon fill="#63b8ff" stroke="#63b8ff" points="603.06,-64.54 595.02,-71.44 605.61,-71.06 603.06,-64.54"/>
</a>
</g>
</g>
</g>
</svg>
