<?xml version="1.0" encoding="UTF-8" standalone="no"?>
<!DOCTYPE svg PUBLIC "-//W3C//DTD SVG 1.1//EN"
 "http://www.w3.org/Graphics/SVG/1.1/DTD/svg11.dtd">
<!-- Generated by graphviz version 2.43.0 (0)
 -->
<!-- Title: src/core/compat/checksum.c Pages: 1 -->
<svg width="925pt" height="192pt"
 viewBox="0.00 0.00 924.50 192.00" xmlns="http://www.w3.org/2000/svg" xmlns:xlink="http://www.w3.org/1999/xlink">
<g id="graph0" class="graph" transform="scale(1 1) rotate(0) translate(4 188)">
<title>src/core/compat/checksum.c</title>
<!-- Node1 -->
<g id="Node000001" class="node">
<title>Node1</title>
<g id="a_Node000001"><a xlink:title=" ">
<polygon fill="#999999" stroke="#666666" points="657.5,-184 502.5,-184 502.5,-165 657.5,-165 657.5,-184"/>
<text text-anchor="middle" x="580" y="-172" font-family="Helvetica,sans-Serif" font-size="10.00">src/core/compat/checksum.c</text>
</a>
</g>
</g>
<!-- Node2 -->
<g id="Node000002" class="node">
<title>Node2</title>
<g id="a_Node000002"><a xlink:href="checksum_8h.html" target="_top" xlink:title=" ">
<polygon fill="white" stroke="#666666" points="233.5,-129 158.5,-129 158.5,-110 233.5,-110 233.5,-129"/>
<text text-anchor="middle" x="196" y="-117" font-family="Helvetica,sans-Serif" font-size="10.00">checksum.h</text>
</a>
</g>
</g>
<!-- Node1&#45;&gt;Node2 -->
<g id="edge1_Node000001_Node000002" class="edge">
<title>Node1&#45;&gt;Node2</title>
<g id="a_edge1_Node000001_Node000002"><a xlink:title=" ">
<path fill="none" stroke="#63b8ff" d="M514.92,-164.98C448.71,-156.24 343.15,-142.1 252,-129 249.31,-128.61 246.55,-128.21 243.76,-127.8"/>
<polygon fill="#63b8ff" stroke="#63b8ff" points="244.05,-124.31 233.64,-126.3 243.02,-131.23 244.05,-124.31"/>
</a>
</g>
</g>
<!-- Node11 -->
<g id="Node000011" class="node">
<title>Node11</title>
<g id="a_Node000011"><a xlink:href="checksum__core_8h.html" target="_top" xlink:title=" ">
<polygon fill="white" stroke="#666666" points="362.5,-129 261.5,-129 261.5,-110 362.5,-110 362.5,-129"/>
<text text-anchor="middle" x="312" y="-117" font-family="Helvetica,sans-Serif" font-size="10.00">checksum_core.h</text>
</a>
</g>
</g>
<!-- Node1&#45;&gt;Node11 -->
<g id="edge13_Node000001_Node000011" class="edge">
<title>Node1&#45;&gt;Node11</title>
<g id="a_edge13_Node000001_Node000011"><a xlink:title=" ">
<path fill="none" stroke="#63b8ff" d="M536.94,-164.98C490.29,-155.76 415.8,-141.03 365.44,-131.07"/>
<polygon fill="#63b8ff" stroke="#63b8ff" points="365.89,-127.59 355.4,-129.08 364.53,-134.46 365.89,-127.59"/>
</a>
</g>
</g>
<!-- Node12 -->
<g id="Node000012" class="node">
<title>Node12</title>
<g id="a_Node000012"><a xlink:href="crc32c_8h.html" target="_top" xlink:title=" ">
<polygon fill="white" stroke="#666666" points="437.5,-129 380.5,-129 380.5,-110 437.5,-110 437.5,-129"/>
<text text-anchor="middle" x="409" y="-117" font-family="Helvetica,sans-Serif" font-size="10.00">crc32c.h</text>
</a>
</g>
</g>
<!-- Node1&#45;&gt;Node12 -->
<g id="edge16_Node000001_Node000012" class="edge">
<title>Node1&#45;&gt;Node12</title>
<g id="a_edge16_Node000001_Node000012"><a xlink:title=" ">
<path fill="none" stroke="#63b8ff" d="M552.53,-164.98C523.82,-156.09 478.58,-142.07 446.58,-132.15"/>
<polygon fill="#63b8ff" stroke="#63b8ff" points="447.28,-128.7 436.69,-129.08 445.2,-135.39 447.28,-128.7"/>
</a>
</g>
</g>
<!-- Node14 -->
<g id="Node000014" class="node">
<title>Node14</title>
<g id="a_Node000014"><a xlink:href="hex_8h.html" target="_top" xlink:title=" ">
<polygon fill="white" stroke="#666666" points="500,-129 456,-129 456,-110 500,-110 500,-129"/>
<text text-anchor="middle" x="478" y="-117" font-family="Helvetica,sans-Serif" font-size="10.00">hex.h</text>
</a>
</g>
</g>
<!-- Node1&#45;&gt;Node14 -->
<g id="edge19_Node000001_Node000014" class="edge">
<title>Node1&#45;&gt;Node14</title>
<g id="a_edge19_Node000001_Node000014"><a xlink:title=" ">
<path fill="none" stroke="#63b8ff" d="M563.61,-164.98C547.43,-156.57 522.43,-143.59 503.62,-133.81"/>
<polygon fill="#63b8ff" stroke="#63b8ff" points="505.17,-130.68 494.69,-129.17 501.95,-136.89 505.17,-130.68"/>
</a>
</g>
</g>
<!-- Node15 -->
<g id="Node000015" class="node">
<title>Node15</title>
<g id="a_Node000015"><a xlink:title=" ">
<polygon fill="#e0e0e0" stroke="#999999" points="571.5,-129 518.5,-129 518.5,-110 571.5,-110 571.5,-129"/>
<text text-anchor="middle" x="545" y="-117" font-family="Helvetica,sans-Serif" font-size="10.00">ctype.h</text>
</a>
</g>
</g>
<!-- Node1&#45;&gt;Node15 -->
<g id="edge22_Node000001_Node000015" class="edge">
<title>Node1&#45;&gt;Node15</title>
<g id="a_edge22_Node000001_Node000015"><a xlink:title=" ">
<path fill="none" stroke="#63b8ff" d="M574.22,-164.75C569.38,-157.42 562.32,-146.73 556.36,-137.7"/>
<polygon fill="#63b8ff" stroke="#63b8ff" points="559.1,-135.5 550.67,-129.09 553.26,-139.36 559.1,-135.5"/>
</a>
</g>
</g>
<!-- Node16 -->
<g id="Node000016" class="node">
<title>Node16</title>
<g id="a_Node000016"><a xlink:title=" ">
<polygon fill="#e0e0e0" stroke="#999999" points="640.5,-129 589.5,-129 589.5,-110 640.5,-110 640.5,-129"/>
<text text-anchor="middle" x="615" y="-117" font-family="Helvetica,sans-Serif" font-size="10.00">errno.h</text>
</a>
</g>
</g>
<!-- Node1&#45;&gt;Node16 -->
<g id="edge23_Node000001_Node000016" class="edge">
<title>Node1&#45;&gt;Node16</title>
<g id="a_edge23_Node000001_Node000016"><a xlink:title=" ">
<path fill="none" stroke="#63b8ff" d="M585.78,-164.75C590.62,-157.42 597.68,-146.73 603.64,-137.7"/>
<polygon fill="#63b8ff" stroke="#63b8ff" points="606.74,-139.36 609.33,-129.09 600.9,-135.5 606.74,-139.36"/>
</a>
</g>
</g>
<!-- Node17 -->
<g id="Node000017" class="node">
<title>Node17</title>
<g id="a_Node000017"><a xlink:title=" ">
<polygon fill="#e0e0e0" stroke="#999999" points="709,-129 659,-129 659,-110 709,-110 709,-129"/>
<text text-anchor="middle" x="684" y="-117" font-family="Helvetica,sans-Serif" font-size="10.00">stdio.h</text>
</a>
</g>
</g>
<!-- Node1&#45;&gt;Node17 -->
<g id="edge24_Node000001_Node000017" class="edge">
<title>Node1&#45;&gt;Node17</title>
<g id="a_edge24_Node000001_Node000017"><a xlink:title=" ">
<path fill="none" stroke="#63b8ff" d="M596.71,-164.98C613.21,-156.57 638.7,-143.59 657.88,-133.81"/>
<polygon fill="#63b8ff" stroke="#63b8ff" points="659.67,-136.83 666.99,-129.17 656.49,-130.59 659.67,-136.83"/>
</a>
</g>
</g>
<!-- Node18 -->
<g id="Node000018" class="node">
<title>Node18</title>
<g id="a_Node000018"><a xlink:title=" ">
<polygon fill="#e0e0e0" stroke="#999999" points="780.5,-129 727.5,-129 727.5,-110 780.5,-110 780.5,-129"/>
<text text-anchor="middle" x="754" y="-117" font-family="Helvetica,sans-Serif" font-size="10.00">string.h</text>
</a>
</g>
</g>
<!-- Node1&#45;&gt;Node18 -->
<g id="edge25_Node000001_Node000018" class="edge">
<title>Node1&#45;&gt;Node18</title>
<g id="a_edge25_Node000001_Node000018"><a xlink:title=" ">
<path fill="none" stroke="#63b8ff" d="M607.96,-164.98C637.73,-155.92 684.97,-141.53 717.63,-131.58"/>
<polygon fill="#63b8ff" stroke="#63b8ff" points="718.71,-134.91 727.26,-128.65 716.67,-128.21 718.71,-134.91"/>
</a>
</g>
</g>
<!-- Node19 -->
<g id="Node000019" class="node">
<title>Node19</title>
<g id="a_Node000019"><a xlink:title=" ">
<polygon fill="#e0e0e0" stroke="#999999" points="855,-129 799,-129 799,-110 855,-110 855,-129"/>
<text text-anchor="middle" x="827" y="-117" font-family="Helvetica,sans-Serif" font-size="10.00">unistd.h</text>
</a>
</g>
</g>
<!-- Node1&#45;&gt;Node19 -->
<g id="edge26_Node000001_Node000019" class="edge">
<title>Node1&#45;&gt;Node19</title>
<g id="a_edge26_Node000001_Node000019"><a xlink:title=" ">
<path fill="none" stroke="#63b8ff" d="M621.48,-164.93C661.81,-156.54 725.04,-143.27 788.89,-129.22"/>
<polygon fill="#63b8ff" stroke="#63b8ff" points="789.72,-132.62 798.73,-127.05 788.21,-125.78 789.72,-132.62"/>
</a>
</g>
</g>
<!-- Node20 -->
<g id="Node000020" class="node">
<title>Node20</title>
<g id="a_Node000020"><a xlink:title=" ">
<polygon fill="#e0e0e0" stroke="#999999" points="916.5,-129 873.5,-129 873.5,-110 916.5,-110 916.5,-129"/>
<text text-anchor="middle" x="895" y="-117" font-family="Helvetica,sans-Serif" font-size="10.00">zlib.h</text>
</a>
</g>
</g>
<!-- Node1&#45;&gt;Node20 -->
<g id="edge27_Node000001_Node000020" class="edge">
<title>Node1&#45;&gt;Node20</title>
<g id="a_edge27_Node000001_Node000020"><a xlink:title=" ">
<path fill="none" stroke="#63b8ff" d="M648.39,-164.98C703.8,-157.57 784.02,-145.71 863.24,-128.94"/>
<polygon fill="#63b8ff" stroke="#63b8ff" points="864.35,-132.28 873.4,-126.76 862.88,-125.43 864.35,-132.28"/>
</a>
</g>
</g>
<!-- Node3 -->
<g id="Node000003" class="node">
<title>Node3</title>
<g id="a_Node000003"><a xlink:title=" ">
<polygon fill="#e0e0e0" stroke="#999999" points="166,-19 88,-19 88,0 166,0 166,-19"/>
<text text-anchor="middle" x="127" y="-7" font-family="Helvetica,sans-Serif" font-size="10.00">ngx_config.h</text>
</a>
</g>
</g>
<!-- Node2&#45;&gt;Node3 -->
<g id="edge2_Node000002_Node000003" class="edge">
<title>Node2&#45;&gt;Node3</title>
<g id="a_edge2_Node000002_Node000003"><a xlink:title=" ">
<path fill="none" stroke="#63b8ff" d="M191.64,-109.63C185.38,-97.14 173.24,-73.77 161,-55 154.76,-45.43 147.08,-35.27 140.61,-27.08"/>
<polygon fill="#63b8ff" stroke="#63b8ff" points="143.17,-24.68 134.17,-19.08 137.71,-29.07 143.17,-24.68"/>
</a>
</g>
</g>
<!-- Node4 -->
<g id="Node000004" class="node">
<title>Node4</title>
<g id="a_Node000004"><a xlink:title=" ">
<polygon fill="#e0e0e0" stroke="#999999" points="70,-19 0,-19 0,0 70,0 70,-19"/>
<text text-anchor="middle" x="35" y="-7" font-family="Helvetica,sans-Serif" font-size="10.00">ngx_core.h</text>
</a>
</g>
</g>
<!-- Node2&#45;&gt;Node4 -->
<g id="edge3_Node000002_Node000004" class="edge">
<title>Node2&#45;&gt;Node4</title>
<g id="a_edge3_Node000002_Node000004"><a xlink:title=" ">
<path fill="none" stroke="#63b8ff" d="M188.33,-109.8C176.41,-96.67 152.28,-71.57 128,-55 109.08,-42.09 85.83,-30.96 67.31,-23.07"/>
<polygon fill="#63b8ff" stroke="#63b8ff" points="68.41,-19.73 57.83,-19.13 65.73,-26.2 68.41,-19.73"/>
</a>
</g>
</g>
<!-- Node5 -->
<g id="Node000005" class="node">
<title>Node5</title>
<g id="a_Node000005"><a xlink:title=" ">
<polygon fill="#e0e0e0" stroke="#999999" points="119,-74 35,-74 35,-55 119,-55 119,-74"/>
<text text-anchor="middle" x="77" y="-62" font-family="Helvetica,sans-Serif" font-size="10.00">openssl/evp.h</text>
</a>
</g>
</g>
<!-- Node2&#45;&gt;Node5 -->
<g id="edge4_Node000002_Node000005" class="edge">
<title>Node2&#45;&gt;Node5</title>
<g id="a_edge4_Node000002_Node000005"><a xlink:title=" ">
<path fill="none" stroke="#63b8ff" d="M176.88,-109.98C157.65,-101.42 127.77,-88.11 105.69,-78.28"/>
<polygon fill="#63b8ff" stroke="#63b8ff" points="107.03,-75.04 96.47,-74.17 104.18,-81.44 107.03,-75.04"/>
</a>
</g>
</g>
<!-- Node6 -->
<g id="Node000006" class="node">
<title>Node6</title>
<g id="a_Node000006"><a xlink:title=" ">
<polygon fill="#e0e0e0" stroke="#999999" points="487.5,-19 434.5,-19 434.5,0 487.5,0 487.5,-19"/>
<text text-anchor="middle" x="461" y="-7" font-family="Helvetica,sans-Serif" font-size="10.00">stdint.h</text>
</a>
</g>
</g>
<!-- Node2&#45;&gt;Node6 -->
<g id="edge5_Node000002_Node000006" class="edge">
<title>Node2&#45;&gt;Node6</title>
<g id="a_edge5_Node000002_Node000006"><a xlink:title=" ">
<path fill="none" stroke="#63b8ff" d="M219.63,-109.96C243.55,-101.23 281.52,-87.13 314,-74 355.68,-57.15 403.36,-36.25 432.83,-23.14"/>
<polygon fill="#63b8ff" stroke="#63b8ff" points="434.38,-26.28 442.09,-19.01 431.53,-19.88 434.38,-26.28"/>
</a>
</g>
</g>
<!-- Node7 -->
<g id="Node000007" class="node">
<title>Node7</title>
<g id="a_Node000007"><a xlink:href="sd_8h.html" target="_top" xlink:title=" ">
<polygon fill="white" stroke="#666666" points="305,-74 213,-74 213,-55 305,-55 305,-74"/>
<text text-anchor="middle" x="259" y="-62" font-family="Helvetica,sans-Serif" font-size="10.00">fs/backend/sd.h</text>
</a>
</g>
</g>
<!-- Node2&#45;&gt;Node7 -->
<g id="edge6_Node000002_Node000007" class="edge">
<title>Node2&#45;&gt;Node7</title>
<g id="a_edge6_Node000002_Node000007"><a xlink:title=" ">
<path fill="none" stroke="#63b8ff" d="M206.12,-109.98C215.44,-102.15 229.47,-90.34 240.74,-80.86"/>
<polygon fill="#63b8ff" stroke="#63b8ff" points="243.29,-83.29 248.69,-74.17 238.79,-77.93 243.29,-83.29"/>
</a>
</g>
</g>
<!-- Node7&#45;&gt;Node3 -->
<g id="edge7_Node000007_Node000003" class="edge">
<title>Node7&#45;&gt;Node3</title>
<g id="a_edge7_Node000007_Node000003"><a xlink:title=" ">
<path fill="none" stroke="#63b8ff" d="M237.79,-54.98C216.27,-46.34 182.72,-32.87 158.17,-23.02"/>
<polygon fill="#63b8ff" stroke="#63b8ff" points="159.18,-19.65 148.59,-19.17 156.57,-26.14 159.18,-19.65"/>
</a>
</g>
</g>
<!-- Node7&#45;&gt;Node4 -->
<g id="edge8_Node000007_Node000004" class="edge">
<title>Node7&#45;&gt;Node4</title>
<g id="a_edge8_Node000007_Node000004"><a xlink:title=" ">
<path fill="none" stroke="#63b8ff" d="M223.01,-54.98C184.17,-45.79 122.22,-31.14 80.14,-21.18"/>
<polygon fill="#63b8ff" stroke="#63b8ff" points="80.7,-17.72 70.16,-18.82 79.09,-24.53 80.7,-17.72"/>
</a>
</g>
</g>
<!-- Node7&#45;&gt;Node6 -->
<g id="edge9_Node000007_Node000006" class="edge">
<title>Node7&#45;&gt;Node6</title>
<g id="a_edge9_Node000007_Node000006"><a xlink:title=" ">
<path fill="none" stroke="#63b8ff" d="M291.45,-54.98C327.75,-45.46 386.39,-30.08 424.32,-20.12"/>
<polygon fill="#63b8ff" stroke="#63b8ff" points="425.65,-23.39 434.43,-17.47 423.87,-16.62 425.65,-23.39"/>
</a>
</g>
</g>
<!-- Node8 -->
<g id="Node000008" class="node">
<title>Node8</title>
<g id="a_Node000008"><a xlink:title=" ">
<polygon fill="#e0e0e0" stroke="#999999" points="248,-19 184,-19 184,0 248,0 248,-19"/>
<text text-anchor="middle" x="216" y="-7" font-family="Helvetica,sans-Serif" font-size="10.00">sys/stat.h</text>
</a>
</g>
</g>
<!-- Node7&#45;&gt;Node8 -->
<g id="edge10_Node000007_Node000008" class="edge">
<title>Node7&#45;&gt;Node8</title>
<g id="a_edge10_Node000007_Node000008"><a xlink:title=" ">
<path fill="none" stroke="#63b8ff" d="M251.9,-54.75C245.83,-47.26 236.91,-36.28 229.49,-27.13"/>
<polygon fill="#63b8ff" stroke="#63b8ff" points="231.99,-24.65 222.97,-19.09 226.55,-29.06 231.99,-24.65"/>
</a>
</g>
</g>
<!-- Node9 -->
<g id="Node000009" class="node">
<title>Node9</title>
<g id="a_Node000009"><a xlink:title=" ">
<polygon fill="#e0e0e0" stroke="#999999" points="338,-19 266,-19 266,0 338,0 338,-19"/>
<text text-anchor="middle" x="302" y="-7" font-family="Helvetica,sans-Serif" font-size="10.00">sys/types.h</text>
</a>
</g>
</g>
<!-- Node7&#45;&gt;Node9 -->
<g id="edge11_Node000007_Node000009" class="edge">
<title>Node7&#45;&gt;Node9</title>
<g id="a_edge11_Node000007_Node000009"><a xlink:title=" ">
<path fill="none" stroke="#63b8ff" d="M266.1,-54.75C272.17,-47.26 281.09,-36.28 288.51,-27.13"/>
<polygon fill="#63b8ff" stroke="#63b8ff" points="291.45,-29.06 295.03,-19.09 286.01,-24.65 291.45,-29.06"/>
</a>
</g>
</g>
<!-- Node10 -->
<g id="Node000010" class="node">
<title>Node10</title>
<g id="a_Node000010"><a xlink:title=" ">
<polygon fill="#e0e0e0" stroke="#999999" points="416,-19 356,-19 356,0 416,0 416,-19"/>
<text text-anchor="middle" x="386" y="-7" font-family="Helvetica,sans-Serif" font-size="10.00">sys/uio.h</text>
</a>
</g>
</g>
<!-- Node7&#45;&gt;Node10 -->
<g id="edge12_Node000007_Node000010" class="edge">
<title>Node7&#45;&gt;Node10</title>
<g id="a_edge12_Node000007_Node000010"><a xlink:title=" ">
<path fill="none" stroke="#63b8ff" d="M279.4,-54.98C300.02,-46.38 332.11,-32.99 355.69,-23.15"/>
<polygon fill="#63b8ff" stroke="#63b8ff" points="357.34,-26.25 365.22,-19.17 354.65,-19.79 357.34,-26.25"/>
</a>
</g>
</g>
<!-- Node11&#45;&gt;Node6 -->
<g id="edge14_Node000011_Node000006" class="edge">
<title>Node11&#45;&gt;Node6</title>
<g id="a_edge14_Node000011_Node000006"><a xlink:title=" ">
<path fill="none" stroke="#63b8ff" d="M323.94,-109.84C349.33,-91.44 408.94,-48.23 440.53,-25.34"/>
<polygon fill="#63b8ff" stroke="#63b8ff" points="442.96,-27.9 449,-19.2 438.85,-22.23 442.96,-27.9"/>
</a>
</g>
</g>
<!-- Node11&#45;&gt;Node7 -->
<g id="edge15_Node000011_Node000007" class="edge">
<title>Node11&#45;&gt;Node7</title>
<g id="a_edge15_Node000011_Node000007"><a xlink:title=" ">
<path fill="none" stroke="#63b8ff" d="M303.25,-109.75C295.53,-102.03 284.1,-90.6 274.78,-81.28"/>
<polygon fill="#63b8ff" stroke="#63b8ff" points="277.14,-78.69 267.59,-74.09 272.19,-83.64 277.14,-78.69"/>
</a>
</g>
</g>
<!-- Node12&#45;&gt;Node6 -->
<g id="edge18_Node000012_Node000006" class="edge">
<title>Node12&#45;&gt;Node6</title>
<g id="a_edge18_Node000012_Node000006"><a xlink:title=" ">
<path fill="none" stroke="#63b8ff" d="M410.58,-109.93C413.1,-97.39 418.72,-73.52 428,-55 433,-45.02 440.25,-34.95 446.68,-26.91"/>
<polygon fill="#63b8ff" stroke="#63b8ff" points="449.47,-29.02 453.19,-19.1 444.1,-24.54 449.47,-29.02"/>
</a>
</g>
</g>
<!-- Node13 -->
<g id="Node000013" class="node">
<title>Node13</title>
<g id="a_Node000013"><a xlink:title=" ">
<polygon fill="#e0e0e0" stroke="#999999" points="493,-74 437,-74 437,-55 493,-55 493,-74"/>
<text text-anchor="middle" x="465" y="-62" font-family="Helvetica,sans-Serif" font-size="10.00">stddef.h</text>
</a>
</g>
</g>
<!-- Node12&#45;&gt;Node13 -->
<g id="edge17_Node000012_Node000013" class="edge">
<title>Node12&#45;&gt;Node13</title>
<g id="a_edge17_Node000012_Node000013"><a xlink:title=" ">
<path fill="none" stroke="#63b8ff" d="M418,-109.98C426.19,-102.23 438.51,-90.58 448.47,-81.14"/>
<polygon fill="#63b8ff" stroke="#63b8ff" points="450.98,-83.59 455.84,-74.17 446.17,-78.5 450.98,-83.59"/>
</a>
</g>
</g>
<!-- Node14&#45;&gt;Node6 -->
<g id="edge21_Node000014_Node000006" class="edge">
<title>Node14&#45;&gt;Node6</title>
<g id="a_edge21_Node000014_Node000006"><a xlink:title=" ">
<path fill="none" stroke="#63b8ff" d="M485.45,-109.85C495.05,-97.61 509.63,-74.54 502,-55 497.6,-43.73 488.86,-33.59 480.57,-25.85"/>
<polygon fill="#63b8ff" stroke="#63b8ff" points="482.77,-23.12 472.93,-19.2 478.18,-28.4 482.77,-23.12"/>
</a>
</g>
</g>
<!-- Node14&#45;&gt;Node13 -->
<g id="edge20_Node000014_Node000013" class="edge">
<title>Node14&#45;&gt;Node13</title>
<g id="a_edge20_Node000014_Node000013"><a xlink:title=" ">
<path fill="none" stroke="#63b8ff" d="M475.85,-109.75C474.13,-102.72 471.65,-92.62 469.5,-83.84"/>
<polygon fill="#63b8ff" stroke="#63b8ff" points="472.89,-82.97 467.11,-74.09 466.09,-84.63 472.89,-82.97"/>
</a>
</g>
</g>
</g>
</svg>
