<?xml version="1.0" encoding="UTF-8" standalone="no"?>
<!DOCTYPE svg PUBLIC "-//W3C//DTD SVG 1.1//EN"
 "http://www.w3.org/Graphics/SVG/1.1/DTD/svg11.dtd">
<!-- Generated by graphviz version 2.43.0 (0)
 -->
<!-- Title: src/core/aio/uring.h Pages: 1 -->
<svg width="1142pt" height="93pt"
 viewBox="0.00 0.00 1142.00 93.00" xmlns="http://www.w3.org/2000/svg" xmlns:xlink="http://www.w3.org/1999/xlink">
<g id="graph0" class="graph" transform="scale(1 1) rotate(0) translate(4 89)">
<title>src/core/aio/uring.h</title>
<!-- Node1 -->
<g id="Node000001" class="node">
<title>Node1</title>
<g id="a_Node000001"><a xlink:title=" ">
<polygon fill="#999999" stroke="#666666" points="602,-85 492,-85 492,-66 602,-66 602,-85"/>
<text text-anchor="middle" x="547" y="-73" font-family="Helvetica,sans-Serif" font-size="10.00">src/core/aio/uring.h</text>
</a>
</g>
</g>
<!-- Node2 -->
<g id="Node000002" class="node">
<title>Node2</title>
<g id="a_Node000002"><a xlink:href="vfs__block_8c.html" target="_top" xlink:title=" ">
<polygon fill="white" stroke="#666666" points="128,-24.5 0,-24.5 0,-5.5 128,-5.5 128,-24.5"/>
<text text-anchor="middle" x="64" y="-12.5" font-family="Helvetica,sans-Serif" font-size="10.00">client/lib/fs/vfs_block.c</text>
</a>
</g>
</g>
<!-- Node1&#45;&gt;Node2 -->
<g id="edge1_Node000001_Node000002" class="edge">
<title>Node1&#45;&gt;Node2</title>
<g id="a_edge1_Node000001_Node000002"><a xlink:title=" ">
<path fill="none" stroke="#63b8ff" d="M481.71,-69.07C400.64,-61.94 258.21,-48.17 137,-30 126.66,-28.45 115.56,-26.48 105.21,-24.51"/>
<polygon fill="#63b8ff" stroke="#63b8ff" points="481.51,-72.56 491.77,-69.94 482.12,-65.59 481.51,-72.56"/>
</a>
</g>
</g>
<!-- Node3 -->
<g id="Node000003" class="node">
<title>Node3</title>
<g id="a_Node000003"><a xlink:href="vfs__posix_8c.html" target="_top" xlink:title=" ">
<polygon fill="white" stroke="#666666" points="274,-24.5 146,-24.5 146,-5.5 274,-5.5 274,-24.5"/>
<text text-anchor="middle" x="210" y="-12.5" font-family="Helvetica,sans-Serif" font-size="10.00">client/lib/fs/vfs_posix.c</text>
</a>
</g>
</g>
<!-- Node1&#45;&gt;Node3 -->
<g id="edge2_Node000001_Node000003" class="edge">
<title>Node1&#45;&gt;Node3</title>
<g id="a_edge2_Node000001_Node000003"><a xlink:title=" ">
<path fill="none" stroke="#63b8ff" d="M484.32,-64.34C430.79,-55.57 351.76,-42.39 283,-30 273.47,-28.28 263.27,-26.37 253.59,-24.53"/>
<polygon fill="#63b8ff" stroke="#63b8ff" points="483.91,-67.82 494.35,-65.98 485.04,-60.91 483.91,-67.82"/>
</a>
</g>
</g>
<!-- Node4 -->
<g id="Node000004" class="node">
<title>Node4</title>
<g id="a_Node000004"><a xlink:href="resume_8c.html" target="_top" xlink:title=" ">
<polygon fill="white" stroke="#666666" points="413.5,-24.5 292.5,-24.5 292.5,-5.5 413.5,-5.5 413.5,-24.5"/>
<text text-anchor="middle" x="353" y="-12.5" font-family="Helvetica,sans-Serif" font-size="10.00">src/core/aio/resume.c</text>
</a>
</g>
</g>
<!-- Node1&#45;&gt;Node4 -->
<g id="edge3_Node000001_Node000004" class="edge">
<title>Node1&#45;&gt;Node4</title>
<g id="a_edge3_Node000001_Node000004"><a xlink:title=" ">
<path fill="none" stroke="#63b8ff" d="M508.74,-62.96C471.22,-51.65 414.88,-34.66 381.24,-24.52"/>
<polygon fill="#63b8ff" stroke="#63b8ff" points="508.21,-66.46 518.79,-65.99 510.23,-59.76 508.21,-66.46"/>
</a>
</g>
</g>
<!-- Node5 -->
<g id="Node000005" class="node">
<title>Node5</title>
<g id="a_Node000005"><a xlink:href="src_2core_2aio_2uring_8c.html" target="_top" xlink:title=" ">
<polygon fill="white" stroke="#666666" points="540.5,-24.5 431.5,-24.5 431.5,-5.5 540.5,-5.5 540.5,-24.5"/>
<text text-anchor="middle" x="486" y="-12.5" font-family="Helvetica,sans-Serif" font-size="10.00">src/core/aio/uring.c</text>
</a>
</g>
</g>
<!-- Node1&#45;&gt;Node5 -->
<g id="edge4_Node000001_Node000005" class="edge">
<title>Node1&#45;&gt;Node5</title>
<g id="a_edge4_Node000001_Node000005"><a xlink:title=" ">
<path fill="none" stroke="#63b8ff" d="M530.74,-58.91C519.3,-47.94 504.42,-33.67 495.04,-24.67"/>
<polygon fill="#63b8ff" stroke="#63b8ff" points="528.36,-61.47 538,-65.87 533.2,-56.42 528.36,-61.47"/>
</a>
</g>
</g>
<!-- Node6 -->
<g id="Node000006" class="node">
<title>Node6</title>
<g id="a_Node000006"><a xlink:href="uring__admin_8c.html" target="_top" xlink:title=" ">
<polygon fill="white" stroke="#666666" points="659.5,-30 558.5,-30 558.5,0 659.5,0 659.5,-30"/>
<text text-anchor="start" x="566.5" y="-18" font-family="Helvetica,sans-Serif" font-size="10.00">src/core/aio/uring</text>
<text text-anchor="middle" x="609" y="-7" font-family="Helvetica,sans-Serif" font-size="10.00">_admin.c</text>
</a>
</g>
</g>
<!-- Node1&#45;&gt;Node6 -->
<g id="edge5_Node000001_Node000006" class="edge">
<title>Node1&#45;&gt;Node6</title>
<g id="a_edge5_Node000001_Node000006"><a xlink:title=" ">
<path fill="none" stroke="#63b8ff" d="M563.46,-58.97C572.96,-50.01 584.81,-38.82 594.04,-30.11"/>
<polygon fill="#63b8ff" stroke="#63b8ff" points="561.02,-56.46 556.15,-65.87 565.82,-61.55 561.02,-56.46"/>
</a>
</g>
</g>
<!-- Node7 -->
<g id="Node000007" class="node">
<title>Node7</title>
<g id="a_Node000007"><a xlink:href="uring__submit_8c.html" target="_top" xlink:title=" ">
<polygon fill="white" stroke="#666666" points="778.5,-30 677.5,-30 677.5,0 778.5,0 778.5,-30"/>
<text text-anchor="start" x="685.5" y="-18" font-family="Helvetica,sans-Serif" font-size="10.00">src/core/aio/uring</text>
<text text-anchor="middle" x="728" y="-7" font-family="Helvetica,sans-Serif" font-size="10.00">_submit.c</text>
</a>
</g>
</g>
<!-- Node1&#45;&gt;Node7 -->
<g id="edge6_Node000001_Node000007" class="edge">
<title>Node1&#45;&gt;Node7</title>
<g id="a_edge6_Node000001_Node000007"><a xlink:title=" ">
<path fill="none" stroke="#63b8ff" d="M583.11,-62.83C612.29,-53.4 653.48,-40.09 684.48,-30.06"/>
<polygon fill="#63b8ff" stroke="#63b8ff" points="581.76,-59.59 573.32,-65.99 583.91,-66.25 581.76,-59.59"/>
</a>
</g>
</g>
<!-- Node8 -->
<g id="Node000008" class="node">
<title>Node8</title>
<g id="a_Node000008"><a xlink:href="postconfiguration_8c.html" target="_top" xlink:title=" ">
<polygon fill="white" stroke="#666666" points="979.5,-24.5 796.5,-24.5 796.5,-5.5 979.5,-5.5 979.5,-24.5"/>
<text text-anchor="middle" x="888" y="-12.5" font-family="Helvetica,sans-Serif" font-size="10.00">src/core/config/postconfiguration.c</text>
</a>
</g>
</g>
<!-- Node1&#45;&gt;Node8 -->
<g id="edge7_Node000001_Node000008" class="edge">
<title>Node1&#45;&gt;Node8</title>
<g id="a_edge7_Node000001_Node000008"><a xlink:title=" ">
<path fill="none" stroke="#63b8ff" d="M606.79,-64.24C672.53,-52.96 776.96,-35.05 838.36,-24.52"/>
<polygon fill="#63b8ff" stroke="#63b8ff" points="605.85,-60.85 596.58,-65.99 607.03,-67.75 605.85,-60.85"/>
</a>
</g>
</g>
<!-- Node9 -->
<g id="Node000009" class="node">
<title>Node9</title>
<g id="a_Node000009"><a xlink:href="process_8c.html" target="_top" xlink:title=" ">
<polygon fill="white" stroke="#666666" points="1134,-24.5 998,-24.5 998,-5.5 1134,-5.5 1134,-24.5"/>
<text text-anchor="middle" x="1066" y="-12.5" font-family="Helvetica,sans-Serif" font-size="10.00">src/core/config/process.c</text>
</a>
</g>
</g>
<!-- Node1&#45;&gt;Node9 -->
<g id="edge8_Node000001_Node000009" class="edge">
<title>Node1&#45;&gt;Node9</title>
<g id="a_edge8_Node000001_Node000009"><a xlink:title=" ">
<path fill="none" stroke="#63b8ff" d="M612.48,-69.54C698.94,-62.63 855.81,-48.78 989,-30 999.9,-28.46 1011.61,-26.5 1022.53,-24.53"/>
<polygon fill="#63b8ff" stroke="#63b8ff" points="611.99,-66.07 602.3,-70.35 612.54,-73.05 611.99,-66.07"/>
</a>
</g>
</g>
</g>
</svg>
