<?xml version="1.0" encoding="UTF-8" standalone="no"?>
<!DOCTYPE svg PUBLIC "-//W3C//DTD SVG 1.1//EN"
 "http://www.w3.org/Graphics/SVG/1.1/DTD/svg11.dtd">
<!-- Generated by graphviz version 2.43.0 (0)
 -->
<!-- Title: client/lib/auth/sss/sss_keytab.h Pages: 1 -->
<svg width="542pt" height="104pt"
 viewBox="0.00 0.00 542.00 104.00" xmlns="http://www.w3.org/2000/svg" xmlns:xlink="http://www.w3.org/1999/xlink">
<g id="graph0" class="graph" transform="scale(1 1) rotate(0) translate(4 100)">
<title>client/lib/auth/sss/sss_keytab.h</title>
<!-- Node1 -->
<g id="Node000001" class="node">
<title>Node1</title>
<g id="a_Node000001"><a xlink:title=" ">
<polygon fill="#999999" stroke="#666666" points="351,-96 249,-96 249,-66 351,-66 351,-96"/>
<text text-anchor="start" x="257" y="-84" font-family="Helvetica,sans-Serif" font-size="10.00">client/lib/auth/sss</text>
<text text-anchor="middle" x="300" y="-73" font-family="Helvetica,sans-Serif" font-size="10.00">/sss_keytab.h</text>
</a>
</g>
</g>
<!-- Node2 -->
<g id="Node000002" class="node">
<title>Node2</title>
<g id="a_Node000002"><a xlink:href="xrdsssadmin_8c.html" target="_top" xlink:title=" ">
<polygon fill="white" stroke="#666666" points="168,-24.5 0,-24.5 0,-5.5 168,-5.5 168,-24.5"/>
<text text-anchor="middle" x="84" y="-12.5" font-family="Helvetica,sans-Serif" font-size="10.00">client/apps/auth/xrdsssadmin.c</text>
</a>
</g>
</g>
<!-- Node1&#45;&gt;Node2 -->
<g id="edge1_Node000001_Node000002" class="edge">
<title>Node1&#45;&gt;Node2</title>
<g id="a_edge1_Node000001_Node000002"><a xlink:title=" ">
<path fill="none" stroke="#63b8ff" d="M242.8,-63.05C200.9,-50.64 145.8,-34.31 112.75,-24.52"/>
<polygon fill="#63b8ff" stroke="#63b8ff" points="242.02,-66.47 252.6,-65.95 244,-59.76 242.02,-66.47"/>
</a>
</g>
</g>
<!-- Node3 -->
<g id="Node000003" class="node">
<title>Node3</title>
<g id="a_Node000003"><a xlink:href="cred__sss_8c.html" target="_top" xlink:title=" ">
<polygon fill="white" stroke="#666666" points="292.5,-30 185.5,-30 185.5,0 292.5,0 292.5,-30"/>
<text text-anchor="start" x="193.5" y="-18" font-family="Helvetica,sans-Serif" font-size="10.00">client/lib/auth/cred</text>
<text text-anchor="middle" x="239" y="-7" font-family="Helvetica,sans-Serif" font-size="10.00">/cred_sss.c</text>
</a>
</g>
</g>
<!-- Node1&#45;&gt;Node3 -->
<g id="edge2_Node000001_Node000003" class="edge">
<title>Node1&#45;&gt;Node3</title>
<g id="a_edge2_Node000001_Node000003"><a xlink:title=" ">
<path fill="none" stroke="#63b8ff" d="M279.38,-58.37C270.51,-49.06 260.39,-38.44 252.5,-30.16"/>
<polygon fill="#63b8ff" stroke="#63b8ff" points="277.03,-60.97 286.46,-65.8 282.1,-56.14 277.03,-60.97"/>
</a>
</g>
</g>
<!-- Node4 -->
<g id="Node000004" class="node">
<title>Node4</title>
<g id="a_Node000004"><a xlink:href="sec__sss_8c.html" target="_top" xlink:title=" ">
<polygon fill="white" stroke="#666666" points="413.5,-30 310.5,-30 310.5,0 413.5,0 413.5,-30"/>
<text text-anchor="start" x="318.5" y="-18" font-family="Helvetica,sans-Serif" font-size="10.00">client/lib/auth/sec</text>
<text text-anchor="middle" x="362" y="-7" font-family="Helvetica,sans-Serif" font-size="10.00">/sec_sss.c</text>
</a>
</g>
</g>
<!-- Node1&#45;&gt;Node4 -->
<g id="edge3_Node000001_Node000004" class="edge">
<title>Node1&#45;&gt;Node4</title>
<g id="a_edge3_Node000001_Node000004"><a xlink:title=" ">
<path fill="none" stroke="#63b8ff" d="M320.96,-58.37C329.97,-49.06 340.26,-38.44 348.28,-30.16"/>
<polygon fill="#63b8ff" stroke="#63b8ff" points="318.2,-56.18 313.76,-65.8 323.23,-61.05 318.2,-56.18"/>
</a>
</g>
</g>
<!-- Node5 -->
<g id="Node000005" class="node">
<title>Node5</title>
<g id="a_Node000005"><a xlink:href="sss__keytab_8c.html" target="_top" xlink:title=" ">
<polygon fill="white" stroke="#666666" points="534,-30 432,-30 432,0 534,0 534,-30"/>
<text text-anchor="start" x="440" y="-18" font-family="Helvetica,sans-Serif" font-size="10.00">client/lib/auth/sss</text>
<text text-anchor="middle" x="483" y="-7" font-family="Helvetica,sans-Serif" font-size="10.00">/sss_keytab.c</text>
</a>
</g>
</g>
<!-- Node1&#45;&gt;Node5 -->
<g id="edge4_Node000001_Node000005" class="edge">
<title>Node1&#45;&gt;Node5</title>
<g id="a_edge4_Node000001_Node000005"><a xlink:title=" ">
<path fill="none" stroke="#63b8ff" d="M349.78,-62.59C379.04,-52.36 415.54,-39.59 442.93,-30.01"/>
<polygon fill="#63b8ff" stroke="#63b8ff" points="348.44,-59.35 340.16,-65.95 350.75,-65.96 348.44,-59.35"/>
</a>
</g>
</g>
</g>
</svg>
