<?xml version="1.0" encoding="UTF-8" standalone="no"?>
<!DOCTYPE svg PUBLIC "-//W3C//DTD SVG 1.1//EN"
 "http://www.w3.org/Graphics/SVG/1.1/DTD/svg11.dtd">
<!-- Generated by graphviz version 2.43.0 (0)
 -->
<!-- Title: src/auth/sss/sss_keytab_kernel.h Pages: 1 -->
<svg width="639pt" height="104pt"
 viewBox="0.00 0.00 638.50 104.00" xmlns="http://www.w3.org/2000/svg" xmlns:xlink="http://www.w3.org/1999/xlink">
<g id="graph0" class="graph" transform="scale(1 1) rotate(0) translate(4 100)">
<title>src/auth/sss/sss_keytab_kernel.h</title>
<!-- Node1 -->
<g id="Node000001" class="node">
<title>Node1</title>
<g id="a_Node000001"><a xlink:title=" ">
<polygon fill="#999999" stroke="#666666" points="384.5,-96 253.5,-96 253.5,-66 384.5,-66 384.5,-96"/>
<text text-anchor="start" x="261.5" y="-84" font-family="Helvetica,sans-Serif" font-size="10.00">src/auth/sss/sss_keytab</text>
<text text-anchor="middle" x="319" y="-73" font-family="Helvetica,sans-Serif" font-size="10.00">_kernel.h</text>
</a>
</g>
</g>
<!-- Node2 -->
<g id="Node000002" class="node">
<title>Node2</title>
<g id="a_Node000002"><a xlink:href="sss__keytab_8c.html" target="_top" xlink:title=" ">
<polygon fill="white" stroke="#666666" points="102,-30 0,-30 0,0 102,0 102,-30"/>
<text text-anchor="start" x="8" y="-18" font-family="Helvetica,sans-Serif" font-size="10.00">client/lib/auth/sss</text>
<text text-anchor="middle" x="51" y="-7" font-family="Helvetica,sans-Serif" font-size="10.00">/sss_keytab.c</text>
</a>
</g>
</g>
<!-- Node1&#45;&gt;Node2 -->
<g id="edge1_Node000001_Node000002" class="edge">
<title>Node1&#45;&gt;Node2</title>
<g id="a_edge1_Node000001_Node000002"><a xlink:title=" ">
<path fill="none" stroke="#63b8ff" d="M250.24,-63.58C203.99,-52.53 144.01,-38.21 102,-28.18"/>
<polygon fill="#63b8ff" stroke="#63b8ff" points="249.65,-67.04 260.19,-65.95 251.27,-60.23 249.65,-67.04"/>
</a>
</g>
</g>
<!-- Node3 -->
<g id="Node000003" class="node">
<title>Node3</title>
<g id="a_Node000003"><a xlink:href="auth_2sss_2config_8c.html" target="_top" xlink:title=" ">
<polygon fill="white" stroke="#666666" points="235.5,-24.5 120.5,-24.5 120.5,-5.5 235.5,-5.5 235.5,-24.5"/>
<text text-anchor="middle" x="178" y="-12.5" font-family="Helvetica,sans-Serif" font-size="10.00">src/auth/sss/config.c</text>
</a>
</g>
</g>
<!-- Node1&#45;&gt;Node3 -->
<g id="edge2_Node000001_Node000003" class="edge">
<title>Node1&#45;&gt;Node3</title>
<g id="a_edge2_Node000001_Node000003"><a xlink:title=" ">
<path fill="none" stroke="#63b8ff" d="M278.86,-61.78C251.9,-49.54 217.62,-33.98 196.76,-24.52"/>
<polygon fill="#63b8ff" stroke="#63b8ff" points="277.5,-65.01 288.06,-65.95 280.4,-58.63 277.5,-65.01"/>
</a>
</g>
</g>
<!-- Node4 -->
<g id="Node000004" class="node">
<title>Node4</title>
<g id="a_Node000004"><a xlink:href="sss__keytab__kernel_8c.html" target="_top" xlink:title=" ">
<polygon fill="white" stroke="#666666" points="384.5,-30 253.5,-30 253.5,0 384.5,0 384.5,-30"/>
<text text-anchor="start" x="261.5" y="-18" font-family="Helvetica,sans-Serif" font-size="10.00">src/auth/sss/sss_keytab</text>
<text text-anchor="middle" x="319" y="-7" font-family="Helvetica,sans-Serif" font-size="10.00">_kernel.c</text>
</a>
</g>
</g>
<!-- Node1&#45;&gt;Node4 -->
<g id="edge3_Node000001_Node000004" class="edge">
<title>Node1&#45;&gt;Node4</title>
<g id="a_edge3_Node000001_Node000004"><a xlink:title=" ">
<path fill="none" stroke="#63b8ff" d="M319,-55.54C319,-46.96 319,-37.61 319,-30.16"/>
<polygon fill="#63b8ff" stroke="#63b8ff" points="315.5,-55.8 319,-65.8 322.5,-55.8 315.5,-55.8"/>
</a>
</g>
</g>
<!-- Node5 -->
<g id="Node000005" class="node">
<title>Node5</title>
<g id="a_Node000005"><a xlink:href="origin__auth_8c.html" target="_top" xlink:title=" ">
<polygon fill="white" stroke="#666666" points="507.5,-30 402.5,-30 402.5,0 507.5,0 507.5,-30"/>
<text text-anchor="start" x="410.5" y="-18" font-family="Helvetica,sans-Serif" font-size="10.00">src/fs/cache/origin</text>
<text text-anchor="middle" x="455" y="-7" font-family="Helvetica,sans-Serif" font-size="10.00">_auth.c</text>
</a>
</g>
</g>
<!-- Node1&#45;&gt;Node5 -->
<g id="edge4_Node000001_Node000005" class="edge">
<title>Node1&#45;&gt;Node5</title>
<g id="a_edge4_Node000001_Node000005"><a xlink:title=" ">
<path fill="none" stroke="#63b8ff" d="M358,-61.65C379.39,-51.58 405.49,-39.3 425.22,-30.01"/>
<polygon fill="#63b8ff" stroke="#63b8ff" points="356.4,-58.53 348.85,-65.95 359.38,-64.86 356.4,-58.53"/>
</a>
</g>
</g>
<!-- Node6 -->
<g id="Node000006" class="node">
<title>Node6</title>
<g id="a_Node000006"><a xlink:href="origin__protocol_8c.html" target="_top" xlink:title=" ">
<polygon fill="white" stroke="#666666" points="630.5,-30 525.5,-30 525.5,0 630.5,0 630.5,-30"/>
<text text-anchor="start" x="533.5" y="-18" font-family="Helvetica,sans-Serif" font-size="10.00">src/fs/cache/origin</text>
<text text-anchor="middle" x="578" y="-7" font-family="Helvetica,sans-Serif" font-size="10.00">_protocol.c</text>
</a>
</g>
</g>
<!-- Node1&#45;&gt;Node6 -->
<g id="edge5_Node000001_Node000006" class="edge">
<title>Node1&#45;&gt;Node6</title>
<g id="a_edge5_Node000001_Node000006"><a xlink:title=" ">
<path fill="none" stroke="#63b8ff" d="M385.74,-63.51C429.15,-52.78 484.97,-38.99 525.26,-29.03"/>
<polygon fill="#63b8ff" stroke="#63b8ff" points="384.71,-60.16 375.84,-65.95 386.39,-66.95 384.71,-60.16"/>
</a>
</g>
</g>
</g>
</svg>
