<?xml version="1.0" encoding="UTF-8" standalone="no"?>
<!DOCTYPE svg PUBLIC "-//W3C//DTD SVG 1.1//EN"
 "http://www.w3.org/Graphics/SVG/1.1/DTD/svg11.dtd">
<!-- Generated by graphviz version 2.43.0 (0)
 -->
<!-- Title: src/fs/xfer/stage_waiter.h Pages: 1 -->
<svg width="1111pt" height="93pt"
 viewBox="0.00 0.00 1110.50 93.00" xmlns="http://www.w3.org/2000/svg" xmlns:xlink="http://www.w3.org/1999/xlink">
<g id="graph0" class="graph" transform="scale(1 1) rotate(0) translate(4 89)">
<title>src/fs/xfer/stage_waiter.h</title>
<!-- Node1 -->
<g id="Node000001" class="node">
<title>Node1</title>
<g id="a_Node000001"><a xlink:title=" ">
<polygon fill="#999999" stroke="#666666" points="620.5,-85 480.5,-85 480.5,-66 620.5,-66 620.5,-85"/>
<text text-anchor="middle" x="550.5" y="-73" font-family="Helvetica,sans-Serif" font-size="10.00">src/fs/xfer/stage_waiter.h</text>
</a>
</g>
</g>
<!-- Node2 -->
<g id="Node000002" class="node">
<title>Node2</title>
<g id="a_Node000002"><a xlink:href="postconfiguration_8c.html" target="_top" xlink:title=" ">
<polygon fill="white" stroke="#666666" points="183,-24.5 0,-24.5 0,-5.5 183,-5.5 183,-24.5"/>
<text text-anchor="middle" x="91.5" y="-12.5" font-family="Helvetica,sans-Serif" font-size="10.00">src/core/config/postconfiguration.c</text>
</a>
</g>
</g>
<!-- Node1&#45;&gt;Node2 -->
<g id="edge1_Node000001_Node000002" class="edge">
<title>Node1&#45;&gt;Node2</title>
<g id="a_edge1_Node000001_Node000002"><a xlink:title=" ">
<path fill="none" stroke="#63b8ff" d="M470.28,-64.92C397.49,-56.15 287.24,-42.63 191.5,-30 178.47,-28.28 164.48,-26.37 151.23,-24.52"/>
<polygon fill="#63b8ff" stroke="#63b8ff" points="469.95,-68.41 480.29,-66.13 470.78,-61.46 469.95,-68.41"/>
</a>
</g>
</g>
<!-- Node3 -->
<g id="Node000003" class="node">
<title>Node3</title>
<g id="a_Node000003"><a xlink:href="stage__waiter_8c.html" target="_top" xlink:title=" ">
<polygon fill="white" stroke="#666666" points="340,-24.5 201,-24.5 201,-5.5 340,-5.5 340,-24.5"/>
<text text-anchor="middle" x="270.5" y="-12.5" font-family="Helvetica,sans-Serif" font-size="10.00">src/fs/xfer/stage_waiter.c</text>
</a>
</g>
</g>
<!-- Node1&#45;&gt;Node3 -->
<g id="edge2_Node000001_Node000003" class="edge">
<title>Node1&#45;&gt;Node3</title>
<g id="a_edge2_Node000001_Node000003"><a xlink:title=" ">
<path fill="none" stroke="#63b8ff" d="M499.73,-63.89C445.66,-52.6 361.16,-34.94 311.26,-24.52"/>
<polygon fill="#63b8ff" stroke="#63b8ff" points="499.28,-67.37 509.79,-65.99 500.71,-60.52 499.28,-67.37"/>
</a>
</g>
</g>
<!-- Node4 -->
<g id="Node000004" class="node">
<title>Node4</title>
<g id="a_Node000004"><a xlink:href="protocols_2root_2connection_2recv_8c.html" target="_top" xlink:title=" ">
<polygon fill="white" stroke="#666666" points="462.5,-30 358.5,-30 358.5,0 462.5,0 462.5,-30"/>
<text text-anchor="start" x="366.5" y="-18" font-family="Helvetica,sans-Serif" font-size="10.00">src/protocols/root</text>
<text text-anchor="middle" x="410.5" y="-7" font-family="Helvetica,sans-Serif" font-size="10.00">/connection/recv.c</text>
</a>
</g>
</g>
<!-- Node1&#45;&gt;Node4 -->
<g id="edge3_Node000001_Node000004" class="edge">
<title>Node1&#45;&gt;Node4</title>
<g id="a_edge3_Node000001_Node000004"><a xlink:title=" ">
<path fill="none" stroke="#63b8ff" d="M520.78,-62.08C498.33,-52.7 467.51,-39.82 444.16,-30.06"/>
<polygon fill="#63b8ff" stroke="#63b8ff" points="519.57,-65.37 530.14,-65.99 522.27,-58.91 519.57,-65.37"/>
</a>
</g>
</g>
<!-- Node5 -->
<g id="Node000005" class="node">
<title>Node5</title>
<g id="a_Node000005"><a xlink:href="protocols_2root_2connection_2recv__frame_8c.html" target="_top" xlink:title=" ">
<polygon fill="white" stroke="#666666" points="620.5,-30 480.5,-30 480.5,0 620.5,0 620.5,-30"/>
<text text-anchor="start" x="488.5" y="-18" font-family="Helvetica,sans-Serif" font-size="10.00">src/protocols/root</text>
<text text-anchor="middle" x="550.5" y="-7" font-family="Helvetica,sans-Serif" font-size="10.00">/connection/recv_frame.c</text>
</a>
</g>
</g>
<!-- Node1&#45;&gt;Node5 -->
<g id="edge4_Node000001_Node000005" class="edge">
<title>Node1&#45;&gt;Node5</title>
<g id="a_edge4_Node000001_Node000005"><a xlink:title=" ">
<path fill="none" stroke="#63b8ff" d="M550.5,-55.65C550.5,-47.36 550.5,-37.78 550.5,-30.11"/>
<polygon fill="#63b8ff" stroke="#63b8ff" points="547,-55.87 550.5,-65.87 554,-55.87 547,-55.87"/>
</a>
</g>
</g>
<!-- Node6 -->
<g id="Node000006" class="node">
<title>Node6</title>
<g id="a_Node000006"><a xlink:href="recv__process_8c.html" target="_top" xlink:title=" ">
<polygon fill="white" stroke="#666666" points="786.5,-30 638.5,-30 638.5,0 786.5,0 786.5,-30"/>
<text text-anchor="start" x="646.5" y="-18" font-family="Helvetica,sans-Serif" font-size="10.00">src/protocols/root</text>
<text text-anchor="middle" x="712.5" y="-7" font-family="Helvetica,sans-Serif" font-size="10.00">/connection/recv_process.c</text>
</a>
</g>
</g>
<!-- Node1&#45;&gt;Node6 -->
<g id="edge5_Node000001_Node000006" class="edge">
<title>Node1&#45;&gt;Node6</title>
<g id="a_edge5_Node000001_Node000006"><a xlink:title=" ">
<path fill="none" stroke="#63b8ff" d="M583.5,-62.58C609.58,-53.16 646.04,-40 673.55,-30.06"/>
<polygon fill="#63b8ff" stroke="#63b8ff" points="582.27,-59.31 574.06,-65.99 584.65,-65.89 582.27,-59.31"/>
</a>
</g>
</g>
<!-- Node7 -->
<g id="Node000007" class="node">
<title>Node7</title>
<g id="a_Node000007"><a xlink:href="open__request_8c.html" target="_top" xlink:title=" ">
<polygon fill="white" stroke="#666666" points="924,-30 805,-30 805,0 924,0 924,-30"/>
<text text-anchor="start" x="813" y="-18" font-family="Helvetica,sans-Serif" font-size="10.00">src/protocols/root</text>
<text text-anchor="middle" x="864.5" y="-7" font-family="Helvetica,sans-Serif" font-size="10.00">/read/open_request.c</text>
</a>
</g>
</g>
<!-- Node1&#45;&gt;Node7 -->
<g id="edge6_Node000001_Node000007" class="edge">
<title>Node1&#45;&gt;Node7</title>
<g id="a_edge6_Node000001_Node000007"><a xlink:title=" ">
<path fill="none" stroke="#63b8ff" d="M609.29,-64.17C658.96,-55.36 731.95,-42.22 795.5,-30 798.5,-29.42 801.57,-28.83 804.68,-28.22"/>
<polygon fill="#63b8ff" stroke="#63b8ff" points="608.6,-60.74 599.36,-65.93 609.82,-67.63 608.6,-60.74"/>
</a>
</g>
</g>
<!-- Node8 -->
<g id="Node000008" class="node">
<title>Node8</title>
<g id="a_Node000008"><a xlink:href="open__request__resolve_8c.html" target="_top" xlink:title=" ">
<polygon fill="white" stroke="#666666" points="1102.5,-30 942.5,-30 942.5,0 1102.5,0 1102.5,-30"/>
<text text-anchor="start" x="950.5" y="-18" font-family="Helvetica,sans-Serif" font-size="10.00">src/protocols/root</text>
<text text-anchor="middle" x="1022.5" y="-7" font-family="Helvetica,sans-Serif" font-size="10.00">/read/open_request_resolve.c</text>
</a>
</g>
</g>
<!-- Node1&#45;&gt;Node8 -->
<g id="edge7_Node000001_Node000008" class="edge">
<title>Node1&#45;&gt;Node8</title>
<g id="a_edge7_Node000001_Node000008"><a xlink:title=" ">
<path fill="none" stroke="#63b8ff" d="M631.03,-66.1C708.62,-57.78 829.24,-44.25 933.5,-30 936.44,-29.6 939.44,-29.18 942.47,-28.75"/>
<polygon fill="#63b8ff" stroke="#63b8ff" points="630.42,-62.64 620.85,-67.19 631.16,-69.6 630.42,-62.64"/>
</a>
</g>
</g>
</g>
</svg>
