<?xml version="1.0" encoding="UTF-8" standalone="no"?>
<!DOCTYPE svg PUBLIC "-//W3C//DTD SVG 1.1//EN"
 "http://www.w3.org/Graphics/SVG/1.1/DTD/svg11.dtd">
<!-- Generated by graphviz version 2.43.0 (0)
 -->
<!-- Title: src/fs/xfer/stage_engine.h Pages: 1 -->
<!--zoomable 159 -->

<svg id="main" version="1.1" xmlns="http://www.w3.org/2000/svg" xmlns:xlink="http://www.w3.org/1999/xlink" xml:space="preserve" onload="init(evt)">
<style type="text/css"><![CDATA[
.node, .edge {opacity: 0.7;}
.node.selected, .edge.selected {opacity: 1;}
.edge:hover path { stroke: red; }
.edge:hover polygon { stroke: red; fill: red; }
]]></style>

<defs>
  <circle id="rim" cx="0" cy="0" r="7"/>
  <circle id="rim2" cx="0" cy="0" r="3.5"/>
  <g id="zoomPlus">
    <use xlink:href="#rim" fill="#404040"><set attributeName="fill" to="#808080" begin="zoomplus.mouseover" end="zoomplus.mouseout"/></use>
    <path d="M-4,0h8M0,-4v8" fill="none" stroke="white" stroke-width="1.5" pointer-events="none"/>
  </g>
  <g id="zoomMin">
    <use xlink:href="#rim" fill="#404040"><set attributeName="fill" to="#808080" begin="zoomminus.mouseover" end="zoomminus.mouseout"/></use>
    <path d="M-4,0h8" fill="none" stroke="white" stroke-width="1.5" pointer-events="none"/>
  </g>
  <g id="arrowUp" transform="translate(30 24)">
    <use xlink:href="#rim"/>
    <path pointer-events="none" fill="none" stroke="white" stroke-width="1.5" d="M0,-3.0v7 M-2.5,-0.5L0,-3.0L2.5,-0.5"/>
  </g>
  <g id="arrowRight" transform="rotate(90) translate(36 -43)">
    <use xlink:href="#rim"/>
    <path pointer-events="none" fill="none" stroke="white" stroke-width="1.5" d="M0,-3.0v7 M-2.5,-0.5L0,-3.0L2.5,-0.5"/>
  </g>
  <g id="arrowDown" transform="rotate(180) translate(-30 -48)">
    <use xlink:href="#rim"/>
    <path pointer-events="none" fill="none" stroke="white" stroke-width="1.5" d="M0,-3.0v7 M-2.5,-0.5L0,-3.0L2.5,-0.5"/>
  </g>
  <g id="arrowLeft" transform="rotate(270) translate(-36 17)">
    <use xlink:href="#rim"/>
    <path pointer-events="none" fill="none" stroke="white" stroke-width="1.5" d="M0,-3.0v7 M-2.5,-0.5L0,-3.0L2.5,-0.5"/>
  </g>
  <g id="resetDef">
    <use xlink:href="#rim2" fill="#404040"><set attributeName="fill" to="#808080" begin="reset.mouseover" end="reset.mouseout"/></use>
  </g>
</defs>
<script type="application/ecmascript">
var viewWidth = 1947;
var viewHeight = 159;
var sectionId = 'dynsection-1';
</script>
<script type="application/ecmascript" xlink:href="svg.min.js"/>
<svg id="graph" class="graph">
<g id="viewport">
<title>src/fs/xfer/stage_engine.h</title>
<!-- Node1 -->
<g id="Node000001" class="node">
<title>Node1</title>
<g id="a_Node000001"><a xlink:title=" ">
<polygon fill="#999999" stroke="#666666" points="1351.5,-151 1208.5,-151 1208.5,-132 1351.5,-132 1351.5,-151"/>
<text text-anchor="middle" x="1280" y="-139" font-family="Helvetica,sans-Serif" font-size="10.00">src/fs/xfer/stage_engine.h</text>
</a>
</g>
</g>
<!-- Node2 -->
<g id="Node000002" class="node">
<title>Node2</title>
<g id="a_Node000002"><a xlink:href="process_8c.html" target="_top" xlink:title=" ">
<polygon fill="white" stroke="#666666" points="574,-90.5 438,-90.5 438,-71.5 574,-71.5 574,-90.5"/>
<text text-anchor="middle" x="506" y="-78.5" font-family="Helvetica,sans-Serif" font-size="10.00">src/core/config/process.c</text>
</a>
</g>
</g>
<!-- Node1&#45;&gt;Node2 -->
<g id="edge1_Node000001_Node000002" class="edge">
<title>Node1&#45;&gt;Node2</title>
<g id="a_edge1_Node000001_Node000002"><a xlink:title=" ">
<path fill="none" stroke="#63b8ff" d="M1197.94,-138.35C1067.34,-134.22 804.33,-123.09 583,-96 571.54,-94.6 559.2,-92.58 547.83,-90.52"/>
<polygon fill="#63b8ff" stroke="#63b8ff" points="1198.15,-141.85 1208.26,-138.67 1198.37,-134.86 1198.15,-141.85"/>
</a>
</g>
</g>
<!-- Node3 -->
<g id="Node000003" class="node">
<title>Node3</title>
<g id="a_Node000003"><a xlink:href="process__timers_8c.html" target="_top" xlink:title=" ">
<polygon fill="white" stroke="#666666" points="720,-96 592,-96 592,-66 720,-66 720,-96"/>
<text text-anchor="start" x="600" y="-84" font-family="Helvetica,sans-Serif" font-size="10.00">src/core/config/process</text>
<text text-anchor="middle" x="656" y="-73" font-family="Helvetica,sans-Serif" font-size="10.00">_timers.c</text>
</a>
</g>
</g>
<!-- Node1&#45;&gt;Node3 -->
<g id="edge2_Node000001_Node000003" class="edge">
<title>Node1&#45;&gt;Node3</title>
<g id="a_edge2_Node000001_Node000003"><a xlink:title=" ">
<path fill="none" stroke="#63b8ff" d="M1198.14,-136.29C1091.12,-130.23 898,-117.35 734,-96 729.5,-95.41 724.86,-94.75 720.2,-94.03"/>
<polygon fill="#63b8ff" stroke="#63b8ff" points="1198.04,-139.79 1208.22,-136.86 1198.43,-132.8 1198.04,-139.79"/>
</a>
</g>
</g>
<!-- Node4 -->
<g id="Node000004" class="node">
<title>Node4</title>
<g id="a_Node000004"><a xlink:href="sd__stage_8c.html" target="_top" xlink:title=" ">
<polygon fill="white" stroke="#666666" points="116,-30 0,-30 0,0 116,0 116,-30"/>
<text text-anchor="start" x="8" y="-18" font-family="Helvetica,sans-Serif" font-size="10.00">src/fs/backend/stage</text>
<text text-anchor="middle" x="58" y="-7" font-family="Helvetica,sans-Serif" font-size="10.00">/sd_stage.c</text>
</a>
</g>
</g>
<!-- Node1&#45;&gt;Node4 -->
<g id="edge3_Node000001_Node000004" class="edge">
<title>Node1&#45;&gt;Node4</title>
<g id="a_edge3_Node000001_Node000004"><a xlink:title=" ">
<path fill="none" stroke="#63b8ff" d="M1197.84,-139.8C1071.98,-137.67 838.03,-129.2 762,-96 743.84,-88.07 747.27,-73.69 729,-66 605.08,-13.8 258.28,-47.8 125,-30 122.06,-29.61 119.05,-29.16 116.02,-28.66"/>
<polygon fill="#63b8ff" stroke="#63b8ff" points="1198.14,-143.31 1208.19,-139.97 1198.25,-136.31 1198.14,-143.31"/>
</a>
</g>
</g>
<!-- Node5 -->
<g id="Node000005" class="node">
<title>Node5</title>
<g id="a_Node000005"><a xlink:href="sd__stage_8h.html" target="_top" xlink:title=" ">
<polygon fill="white" stroke="#666666" points="930,-96 814,-96 814,-66 930,-66 930,-96"/>
<text text-anchor="start" x="822" y="-84" font-family="Helvetica,sans-Serif" font-size="10.00">src/fs/backend/stage</text>
<text text-anchor="middle" x="872" y="-73" font-family="Helvetica,sans-Serif" font-size="10.00">/sd_stage.h</text>
</a>
</g>
</g>
<!-- Node1&#45;&gt;Node5 -->
<g id="edge4_Node000001_Node000005" class="edge">
<title>Node1&#45;&gt;Node5</title>
<g id="a_edge4_Node000001_Node000005"><a xlink:title=" ">
<path fill="none" stroke="#63b8ff" d="M1210.33,-130.51C1131.33,-119.18 1003.93,-100.92 930.08,-90.33"/>
<polygon fill="#63b8ff" stroke="#63b8ff" points="1210.28,-134.04 1220.67,-131.99 1211.27,-127.11 1210.28,-134.04"/>
</a>
</g>
</g>
<!-- Node6 -->
<g id="Node000006" class="node">
<title>Node6</title>
<g id="a_Node000006"><a xlink:href="sd__stage__write_8c.html" target="_top" xlink:title=" ">
<polygon fill="white" stroke="#666666" points="250,-30 134,-30 134,0 250,0 250,-30"/>
<text text-anchor="start" x="142" y="-18" font-family="Helvetica,sans-Serif" font-size="10.00">src/fs/backend/stage</text>
<text text-anchor="middle" x="192" y="-7" font-family="Helvetica,sans-Serif" font-size="10.00">/sd_stage_write.c</text>
</a>
</g>
</g>
<!-- Node1&#45;&gt;Node6 -->
<g id="edge15_Node000001_Node000006" class="edge">
<title>Node1&#45;&gt;Node6</title>
<g id="a_edge15_Node000001_Node000006"><a xlink:title=" ">
<path fill="none" stroke="#63b8ff" d="M1197.9,-137.85C1081.54,-133.24 875.02,-121.66 805,-96 783.12,-87.98 783.97,-73.78 762,-66 656.36,-28.6 369.99,-45.5 259,-30 256.06,-29.59 253.05,-29.13 250.02,-28.62"/>
<polygon fill="#63b8ff" stroke="#63b8ff" points="1198.05,-141.36 1208.18,-138.25 1198.32,-134.36 1198.05,-141.36"/>
</a>
</g>
</g>
<!-- Node13 -->
<g id="Node000013" class="node">
<title>Node13</title>
<g id="a_Node000013"><a xlink:href="stage__engine__reconcile_8c.html" target="_top" xlink:title=" ">
<polygon fill="white" stroke="#666666" points="1347,-30 1213,-30 1213,0 1347,0 1347,-30"/>
<text text-anchor="start" x="1221" y="-18" font-family="Helvetica,sans-Serif" font-size="10.00">src/fs/xfer/stage_engine</text>
<text text-anchor="middle" x="1280" y="-7" font-family="Helvetica,sans-Serif" font-size="10.00">_reconcile.c</text>
</a>
</g>
</g>
<!-- Node1&#45;&gt;Node13 -->
<g id="edge25_Node000001_Node000013" class="edge">
<title>Node1&#45;&gt;Node13</title>
<g id="a_edge25_Node000001_Node000013"><a xlink:title=" ">
<path fill="none" stroke="#63b8ff" d="M1280,-121.91C1280,-96.83 1280,-52.72 1280,-30.16"/>
<polygon fill="#63b8ff" stroke="#63b8ff" points="1276.5,-121.94 1280,-131.94 1283.5,-121.94 1276.5,-121.94"/>
</a>
</g>
</g>
<!-- Node15 -->
<g id="Node000015" class="node">
<title>Node15</title>
<g id="a_Node000015"><a xlink:href="backend__async__queue_8c.html" target="_top" xlink:title=" ">
<polygon fill="white" stroke="#666666" points="1474.5,-30 1365.5,-30 1365.5,0 1474.5,0 1474.5,-30"/>
<text text-anchor="start" x="1373.5" y="-18" font-family="Helvetica,sans-Serif" font-size="10.00">src/fs/xfer/backend</text>
<text text-anchor="middle" x="1420" y="-7" font-family="Helvetica,sans-Serif" font-size="10.00">_async_queue.c</text>
</a>
</g>
</g>
<!-- Node1&#45;&gt;Node15 -->
<g id="edge16_Node000001_Node000015" class="edge">
<title>Node1&#45;&gt;Node15</title>
<g id="a_edge16_Node000001_Node000015"><a xlink:title=" ">
<path fill="none" stroke="#63b8ff" d="M1297.23,-125.18C1324.59,-100.85 1377.56,-53.74 1404.08,-30.16"/>
<polygon fill="#63b8ff" stroke="#63b8ff" points="1294.77,-122.68 1289.62,-131.94 1299.42,-127.91 1294.77,-122.68"/>
</a>
</g>
</g>
<!-- Node16 -->
<g id="Node000016" class="node">
<title>Node16</title>
<g id="a_Node000016"><a xlink:href="stage__engine_8c.html" target="_top" xlink:title=" ">
<polygon fill="white" stroke="#666666" points="1635,-24.5 1493,-24.5 1493,-5.5 1635,-5.5 1635,-24.5"/>
<text text-anchor="middle" x="1564" y="-12.5" font-family="Helvetica,sans-Serif" font-size="10.00">src/fs/xfer/stage_engine.c</text>
</a>
</g>
</g>
<!-- Node1&#45;&gt;Node16 -->
<g id="edge17_Node000001_Node000016" class="edge">
<title>Node1&#45;&gt;Node16</title>
<g id="a_edge17_Node000001_Node000016"><a xlink:title=" ">
<path fill="none" stroke="#63b8ff" d="M1308.8,-127.87C1366.55,-102.56 1495.15,-46.18 1544.34,-24.62"/>
<polygon fill="#63b8ff" stroke="#63b8ff" points="1307.27,-124.72 1299.52,-131.94 1310.08,-131.13 1307.27,-124.72"/>
</a>
</g>
</g>
<!-- Node17 -->
<g id="Node000017" class="node">
<title>Node17</title>
<g id="a_Node000017"><a xlink:href="stage__engine__internal_8h.html" target="_top" xlink:title=" ">
<polygon fill="white" stroke="#666666" points="1615,-96 1481,-96 1481,-66 1615,-66 1615,-96"/>
<text text-anchor="start" x="1489" y="-84" font-family="Helvetica,sans-Serif" font-size="10.00">src/fs/xfer/stage_engine</text>
<text text-anchor="middle" x="1548" y="-73" font-family="Helvetica,sans-Serif" font-size="10.00">_internal.h</text>
</a>
</g>
</g>
<!-- Node1&#45;&gt;Node17 -->
<g id="edge18_Node000001_Node000017" class="edge">
<title>Node1&#45;&gt;Node17</title>
<g id="a_edge18_Node000001_Node000017"><a xlink:title=" ">
<path fill="none" stroke="#63b8ff" d="M1328.74,-129.86C1372.22,-120.37 1436.19,-106.41 1483.83,-96.01"/>
<polygon fill="#63b8ff" stroke="#63b8ff" points="1327.99,-126.44 1318.97,-131.99 1329.49,-133.28 1327.99,-126.44"/>
</a>
</g>
</g>
<!-- Node18 -->
<g id="Node000018" class="node">
<title>Node18</title>
<g id="a_Node000018"><a xlink:href="stage__engine__journal_8c.html" target="_top" xlink:title=" ">
<polygon fill="white" stroke="#666666" points="1787,-30 1653,-30 1653,0 1787,0 1787,-30"/>
<text text-anchor="start" x="1661" y="-18" font-family="Helvetica,sans-Serif" font-size="10.00">src/fs/xfer/stage_engine</text>
<text text-anchor="middle" x="1720" y="-7" font-family="Helvetica,sans-Serif" font-size="10.00">_journal.c</text>
</a>
</g>
</g>
<!-- Node1&#45;&gt;Node18 -->
<g id="edge24_Node000001_Node000018" class="edge">
<title>Node1&#45;&gt;Node18</title>
<g id="a_edge24_Node000001_Node000018"><a xlink:title=" ">
<path fill="none" stroke="#63b8ff" d="M1361.91,-135.19C1448.4,-128.65 1578.41,-115.91 1624,-96 1658.99,-80.72 1691.25,-48.64 1707.99,-30.08"/>
<polygon fill="#63b8ff" stroke="#63b8ff" points="1361.56,-131.71 1351.85,-135.94 1362.08,-138.69 1361.56,-131.71"/>
</a>
</g>
</g>
<!-- Node19 -->
<g id="Node000019" class="node">
<title>Node19</title>
<g id="a_Node000019"><a xlink:href="stage__engine__scheduler_8c.html" target="_top" xlink:title=" ">
<polygon fill="white" stroke="#666666" points="1939,-30 1805,-30 1805,0 1939,0 1939,-30"/>
<text text-anchor="start" x="1813" y="-18" font-family="Helvetica,sans-Serif" font-size="10.00">src/fs/xfer/stage_engine</text>
<text text-anchor="middle" x="1872" y="-7" font-family="Helvetica,sans-Serif" font-size="10.00">_scheduler.c</text>
</a>
</g>
</g>
<!-- Node1&#45;&gt;Node19 -->
<g id="edge26_Node000001_Node000019" class="edge">
<title>Node1&#45;&gt;Node19</title>
<g id="a_edge26_Node000001_Node000019"><a xlink:title=" ">
<path fill="none" stroke="#63b8ff" d="M1362.08,-136.75C1439.94,-131.83 1559.77,-120.7 1661,-96 1727.6,-79.75 1801.75,-48.33 1842,-30.08"/>
<polygon fill="#63b8ff" stroke="#63b8ff" points="1361.62,-133.27 1351.85,-137.38 1362.04,-140.26 1361.62,-133.27"/>
</a>
</g>
</g>
<!-- Node5&#45;&gt;Node4 -->
<g id="edge5_Node000005_Node000004" class="edge">
<title>Node5&#45;&gt;Node4</title>
<g id="a_edge5_Node000005_Node000004"><a xlink:title=" ">
<path fill="none" stroke="#63b8ff" d="M803.9,-70.58C790.06,-68.87 775.58,-67.25 762,-66 479.62,-40.08 406.12,-67.1 125,-30 122.05,-29.61 119.05,-29.16 116.01,-28.68"/>
<polygon fill="#63b8ff" stroke="#63b8ff" points="803.5,-74.05 813.85,-71.83 804.37,-67.11 803.5,-74.05"/>
</a>
</g>
</g>
<!-- Node5&#45;&gt;Node6 -->
<g id="edge6_Node000005_Node000006" class="edge">
<title>Node5&#45;&gt;Node6</title>
<g id="a_edge6_Node000005_Node000006"><a xlink:title=" ">
<path fill="none" stroke="#63b8ff" d="M803.87,-66.52C802.57,-66.34 801.28,-66.17 800,-66 561.03,-34.94 497.74,-62.72 259,-30 256.06,-29.6 253.05,-29.14 250.02,-28.64"/>
<polygon fill="#63b8ff" stroke="#63b8ff" points="803.53,-70.01 813.94,-68.06 804.59,-63.09 803.53,-70.01"/>
</a>
</g>
</g>
<!-- Node7 -->
<g id="Node000007" class="node">
<title>Node7</title>
<g id="a_Node000007"><a xlink:href="cache__storage_8c.html" target="_top" xlink:title=" ">
<polygon fill="white" stroke="#666666" points="374,-30 268,-30 268,0 374,0 374,-30"/>
<text text-anchor="start" x="276" y="-18" font-family="Helvetica,sans-Serif" font-size="10.00">src/fs/cache/cache</text>
<text text-anchor="middle" x="321" y="-7" font-family="Helvetica,sans-Serif" font-size="10.00">_storage.c</text>
</a>
</g>
</g>
<!-- Node5&#45;&gt;Node7 -->
<g id="edge7_Node000005_Node000007" class="edge">
<title>Node5&#45;&gt;Node7</title>
<g id="a_edge7_Node000005_Node000007"><a xlink:title=" ">
<path fill="none" stroke="#63b8ff" d="M803.86,-66.56C802.57,-66.37 801.28,-66.18 800,-66 615.77,-40.21 566.82,-58.55 383,-30 380.06,-29.54 377.04,-29.03 374.01,-28.47"/>
<polygon fill="#63b8ff" stroke="#63b8ff" points="803.5,-70.05 813.93,-68.16 804.6,-63.13 803.5,-70.05"/>
</a>
</g>
</g>
<!-- Node8 -->
<g id="Node000008" class="node">
<title>Node8</title>
<g id="a_Node000008"><a xlink:href="tier__build_8c.html" target="_top" xlink:title=" ">
<polygon fill="white" stroke="#666666" points="511.5,-24.5 392.5,-24.5 392.5,-5.5 511.5,-5.5 511.5,-24.5"/>
<text text-anchor="middle" x="452" y="-12.5" font-family="Helvetica,sans-Serif" font-size="10.00">src/fs/tier/tier_build.c</text>
</a>
</g>
</g>
<!-- Node5&#45;&gt;Node8 -->
<g id="edge8_Node000005_Node000008" class="edge">
<title>Node5&#45;&gt;Node8</title>
<g id="a_edge8_Node000005_Node000008"><a xlink:title=" ">
<path fill="none" stroke="#63b8ff" d="M803.85,-66.63C802.56,-66.42 801.27,-66.21 800,-66 676.13,-46.02 643.76,-50.67 520,-30 510.49,-28.41 500.28,-26.45 490.74,-24.5"/>
<polygon fill="#63b8ff" stroke="#63b8ff" points="803.45,-70.11 813.9,-68.37 804.64,-63.22 803.45,-70.11"/>
</a>
</g>
</g>
<!-- Node9 -->
<g id="Node000009" class="node">
<title>Node9</title>
<g id="a_Node000009"><a xlink:href="vfs__backend__registry_8c.html" target="_top" xlink:title=" ">
<polygon fill="white" stroke="#666666" points="654.5,-30 529.5,-30 529.5,0 654.5,0 654.5,-30"/>
<text text-anchor="start" x="537.5" y="-18" font-family="Helvetica,sans-Serif" font-size="10.00">src/fs/vfs/vfs_backend</text>
<text text-anchor="middle" x="592" y="-7" font-family="Helvetica,sans-Serif" font-size="10.00">_registry.c</text>
</a>
</g>
</g>
<!-- Node5&#45;&gt;Node9 -->
<g id="edge9_Node000005_Node000009" class="edge">
<title>Node5&#45;&gt;Node9</title>
<g id="a_edge9_Node000005_Node000009"><a xlink:title=" ">
<path fill="none" stroke="#63b8ff" d="M804.1,-64.48C758.12,-53.97 697.87,-40.2 653.34,-30.02"/>
<polygon fill="#63b8ff" stroke="#63b8ff" points="803.46,-67.92 813.98,-66.74 805.02,-61.1 803.46,-67.92"/>
</a>
</g>
</g>
<!-- Node10 -->
<g id="Node000010" class="node">
<title>Node10</title>
<g id="a_Node000010"><a xlink:href="vfs__backend__registry__source_8c.html" target="_top" xlink:title=" ">
<polygon fill="white" stroke="#666666" points="797.5,-30 672.5,-30 672.5,0 797.5,0 797.5,-30"/>
<text text-anchor="start" x="680.5" y="-18" font-family="Helvetica,sans-Serif" font-size="10.00">src/fs/vfs/vfs_backend</text>
<text text-anchor="middle" x="735" y="-7" font-family="Helvetica,sans-Serif" font-size="10.00">_registry_source.c</text>
</a>
</g>
</g>
<!-- Node5&#45;&gt;Node10 -->
<g id="edge10_Node000005_Node000010" class="edge">
<title>Node5&#45;&gt;Node10</title>
<g id="a_edge10_Node000005_Node000010"><a xlink:title=" ">
<path fill="none" stroke="#63b8ff" d="M832.72,-61.65C811.17,-51.58 784.88,-39.3 765,-30.01"/>
<polygon fill="#63b8ff" stroke="#63b8ff" points="831.39,-64.89 841.93,-65.95 834.36,-58.55 831.39,-64.89"/>
</a>
</g>
</g>
<!-- Node11 -->
<g id="Node000011" class="node">
<title>Node11</title>
<g id="a_Node000011"><a xlink:href="vfs__cred_8c.html" target="_top" xlink:title=" ">
<polygon fill="white" stroke="#666666" points="928.5,-24.5 815.5,-24.5 815.5,-5.5 928.5,-5.5 928.5,-24.5"/>
<text text-anchor="middle" x="872" y="-12.5" font-family="Helvetica,sans-Serif" font-size="10.00">src/fs/vfs/vfs_cred.c</text>
</a>
</g>
</g>
<!-- Node5&#45;&gt;Node11 -->
<g id="edge11_Node000005_Node000011" class="edge">
<title>Node5&#45;&gt;Node11</title>
<g id="a_edge11_Node000005_Node000011"><a xlink:title=" ">
<path fill="none" stroke="#63b8ff" d="M872,-55.6C872,-44.8 872,-32.78 872,-24.84"/>
<polygon fill="#63b8ff" stroke="#63b8ff" points="868.5,-55.8 872,-65.8 875.5,-55.8 868.5,-55.8"/>
</a>
</g>
</g>
<!-- Node12 -->
<g id="Node000012" class="node">
<title>Node12</title>
<g id="a_Node000012"><a xlink:href="vfs__stat_8c.html" target="_top" xlink:title=" ">
<polygon fill="white" stroke="#666666" points="1057.5,-24.5 946.5,-24.5 946.5,-5.5 1057.5,-5.5 1057.5,-24.5"/>
<text text-anchor="middle" x="1002" y="-12.5" font-family="Helvetica,sans-Serif" font-size="10.00">src/fs/vfs/vfs_stat.c</text>
</a>
</g>
</g>
<!-- Node5&#45;&gt;Node12 -->
<g id="edge12_Node000005_Node000012" class="edge">
<title>Node5&#45;&gt;Node12</title>
<g id="a_edge12_Node000005_Node000012"><a xlink:title=" ">
<path fill="none" stroke="#63b8ff" d="M909.66,-61.46C934.42,-49.27 965.64,-33.9 984.7,-24.52"/>
<polygon fill="#63b8ff" stroke="#63b8ff" points="907.95,-58.4 900.53,-65.95 911.05,-64.68 907.95,-58.4"/>
</a>
</g>
</g>
<!-- Node5&#45;&gt;Node13 -->
<g id="edge13_Node000005_Node000013" class="edge">
<title>Node5&#45;&gt;Node13</title>
<g id="a_edge13_Node000005_Node000013"><a xlink:title=" ">
<path fill="none" stroke="#63b8ff" d="M940.09,-70.32C1007.07,-60.66 1112.21,-45.11 1203,-30 1206.22,-29.46 1209.51,-28.91 1212.83,-28.34"/>
<polygon fill="#63b8ff" stroke="#63b8ff" points="939.48,-66.87 930.08,-71.76 940.48,-73.8 939.48,-66.87"/>
</a>
</g>
</g>
<!-- Node14 -->
<g id="Node000014" class="node">
<title>Node14</title>
<g id="a_Node000014"><a xlink:href="http__serve__offload_8c.html" target="_top" xlink:title=" ">
<polygon fill="white" stroke="#666666" points="1194.5,-30 1075.5,-30 1075.5,0 1194.5,0 1194.5,-30"/>
<text text-anchor="start" x="1083.5" y="-18" font-family="Helvetica,sans-Serif" font-size="10.00">src/protocols/shared</text>
<text text-anchor="middle" x="1135" y="-7" font-family="Helvetica,sans-Serif" font-size="10.00">/http_serve_offload.c</text>
</a>
</g>
</g>
<!-- Node5&#45;&gt;Node14 -->
<g id="edge14_Node000005_Node000014" class="edge">
<title>Node5&#45;&gt;Node14</title>
<g id="a_edge14_Node000005_Node000014"><a xlink:title=" ">
<path fill="none" stroke="#63b8ff" d="M939.46,-63.58C982.16,-53.19 1036.77,-39.9 1077.42,-30.01"/>
<polygon fill="#63b8ff" stroke="#63b8ff" points="938.61,-60.19 929.72,-65.95 940.26,-66.99 938.61,-60.19"/>
</a>
</g>
</g>
<!-- Node17&#45;&gt;Node13 -->
<g id="edge22_Node000017_Node000013" class="edge">
<title>Node17&#45;&gt;Node13</title>
<g id="a_edge22_Node000017_Node000013"><a xlink:title=" ">
<path fill="none" stroke="#63b8ff" d="M1479.25,-63.58C1435.75,-53.19 1380.1,-39.9 1338.68,-30.01"/>
<polygon fill="#63b8ff" stroke="#63b8ff" points="1478.65,-67.04 1489.19,-65.95 1480.27,-60.23 1478.65,-67.04"/>
</a>
</g>
</g>
<!-- Node17&#45;&gt;Node15 -->
<g id="edge19_Node000017_Node000015" class="edge">
<title>Node17&#45;&gt;Node15</title>
<g id="a_edge19_Node000017_Node000015"><a xlink:title=" ">
<path fill="none" stroke="#63b8ff" d="M1510.76,-61.38C1490.73,-51.36 1466.43,-39.22 1448.02,-30.01"/>
<polygon fill="#63b8ff" stroke="#63b8ff" points="1509.4,-64.61 1519.91,-65.95 1512.53,-58.35 1509.4,-64.61"/>
</a>
</g>
</g>
<!-- Node17&#45;&gt;Node16 -->
<g id="edge20_Node000017_Node000016" class="edge">
<title>Node17&#45;&gt;Node16</title>
<g id="a_edge20_Node000017_Node000016"><a xlink:title=" ">
<path fill="none" stroke="#63b8ff" d="M1554.01,-55.94C1556.74,-45.06 1559.78,-32.86 1561.79,-24.84"/>
<polygon fill="#63b8ff" stroke="#63b8ff" points="1550.58,-55.25 1551.55,-65.8 1557.37,-56.94 1550.58,-55.25"/>
</a>
</g>
</g>
<!-- Node17&#45;&gt;Node18 -->
<g id="edge21_Node000017_Node000018" class="edge">
<title>Node17&#45;&gt;Node18</title>
<g id="a_edge21_Node000017_Node000018"><a xlink:title=" ">
<path fill="none" stroke="#63b8ff" d="M1595.15,-62.46C1622.59,-52.25 1656.71,-39.55 1682.34,-30.01"/>
<polygon fill="#63b8ff" stroke="#63b8ff" points="1593.9,-59.19 1585.75,-65.95 1596.34,-65.75 1593.9,-59.19"/>
</a>
</g>
</g>
<!-- Node17&#45;&gt;Node19 -->
<g id="edge23_Node000017_Node000019" class="edge">
<title>Node17&#45;&gt;Node19</title>
<g id="a_edge23_Node000017_Node000019"><a xlink:title=" ">
<path fill="none" stroke="#63b8ff" d="M1625.14,-64.76C1679.87,-53.95 1752.63,-39.58 1804.95,-29.24"/>
<polygon fill="#63b8ff" stroke="#63b8ff" points="1624.27,-61.37 1615.13,-66.74 1625.62,-68.23 1624.27,-61.37"/>
</a>
</g>
</g>
</g>
</svg>

<g id="navigator" transform="translate(0 0)" fill="#404254">
  <rect fill="#f2f5e9" fill-opacity="0.5" stroke="#606060" stroke-width=".5" x="0" y="0" width="60" height="60"/>
  <use id="zoomplus" xlink:href="#zoomPlus" x="17" y="9" onmousedown="handleZoom(evt,'in')"/>
  <use id="zoomminus" xlink:href="#zoomMin" x="42" y="9" onmousedown="handleZoom(evt,'out')"/>
  <use id="reset" xlink:href="#resetDef" x="30" y="36" onmousedown="handleReset()"/>
   <use id="arrowup" xlink:href="#arrowUp" x="0" y="0" onmousedown="handlePan(0,-1)"/>
  <use id="arrowright" xlink:href="#arrowRight" x="0" y="0" onmousedown="handlePan(1,0)"/>
  <use id="arrowdown" xlink:href="#arrowDown" x="0" y="0" onmousedown="handlePan(0,1)"/>
  <use id="arrowleft" xlink:href="#arrowLeft" x="0" y="0" onmousedown="handlePan(-1,0)"/>
</g>
<svg viewBox="0 0 15 15" width="100%" height="30px" preserveAspectRatio="xMaxYMin meet">
 <g id="arrow_out" transform="scale(0.3 0.3)">
  <a xlink:href="stage__engine_8h__dep__incl_org.svg" target="_base">
   <rect id="button" ry="5" rx="5" y="6" x="6" height="38" width="38"
        fill="#f2f5e9" fill-opacity="0.5" stroke="#606060" stroke-width="1.0"/>
   <path id="arrow"
     d="M 11.500037,31.436501 C 11.940474,20.09759 22.043105,11.32322 32.158766,21.979434 L 37.068811,17.246167 C 37.068811,17.246167 37.088388,32 37.088388,32 L 22.160133,31.978069 C 22.160133,31.978069 26.997745,27.140456 26.997745,27.140456 C 18.528582,18.264221 13.291696,25.230495 11.500037,31.436501 z"
     style="fill:#404040;"/>
  </a>
 </g>
</svg>

<style type='text/css'>
<![CDATA[
[data-mouse-over-selected='false'] { opacity: 0.7; }
[data-mouse-over-selected='true']  { opacity: 1.0; }
]]>
</style>
<script type="application/ecmascript"><![CDATA[
document.addEventListener('DOMContentLoaded', (event) => {
  highlightEdges();
  highlightAdjacentNodes();
});
]]></script>
</svg>
