<?xml version="1.0" encoding="UTF-8" standalone="no"?>
<!DOCTYPE svg PUBLIC "-//W3C//DTD SVG 1.1//EN"
 "http://www.w3.org/Graphics/SVG/1.1/DTD/svg11.dtd">
<!-- Generated by graphviz version 2.43.0 (0)
 -->
<!-- Title: src/protocols/root/read/stat.h Pages: 1 -->
<svg width="977pt" height="269pt"
 viewBox="0.00 0.00 977.00 269.00" xmlns="http://www.w3.org/2000/svg" xmlns:xlink="http://www.w3.org/1999/xlink">
<g id="graph0" class="graph" transform="scale(1 1) rotate(0) translate(4 265)">
<title>src/protocols/root/read/stat.h</title>
<!-- Node1 -->
<g id="Node000001" class="node">
<title>Node1</title>
<g id="a_Node000001"><a xlink:title=" ">
<polygon fill="#999999" stroke="#666666" points="549.5,-261 448.5,-261 448.5,-231 549.5,-231 549.5,-261"/>
<text text-anchor="start" x="456.5" y="-249" font-family="Helvetica,sans-Serif" font-size="10.00">src/protocols/root</text>
<text text-anchor="middle" x="499" y="-238" font-family="Helvetica,sans-Serif" font-size="10.00">/read/stat.h</text>
</a>
</g>
</g>
<!-- Node2 -->
<g id="Node000002" class="node">
<title>Node2</title>
<g id="a_Node000002"><a xlink:href="src_2fs_2vfs_2vfs_8h.html" target="_top" xlink:title=" ">
<polygon fill="white" stroke="#666666" points="502.5,-195 431.5,-195 431.5,-176 502.5,-176 502.5,-195"/>
<text text-anchor="middle" x="467" y="-183" font-family="Helvetica,sans-Serif" font-size="10.00">fs/vfs/vfs.h</text>
</a>
</g>
</g>
<!-- Node1&#45;&gt;Node2 -->
<g id="edge1_Node000001_Node000002" class="edge">
<title>Node1&#45;&gt;Node2</title>
<g id="a_edge1_Node000001_Node000002"><a xlink:title=" ">
<path fill="none" stroke="#63b8ff" d="M491.25,-230.84C486.85,-222.78 481.29,-212.62 476.6,-204.06"/>
<polygon fill="#63b8ff" stroke="#63b8ff" points="479.66,-202.36 471.8,-195.27 473.52,-205.72 479.66,-202.36"/>
</a>
</g>
</g>
<!-- Node6 -->
<g id="Node000006" class="node">
<title>Node6</title>
<g id="a_Node000006"><a xlink:title=" ">
<polygon fill="#e0e0e0" stroke="#999999" points="549,-74 485,-74 485,-55 549,-55 549,-74"/>
<text text-anchor="middle" x="517" y="-62" font-family="Helvetica,sans-Serif" font-size="10.00">sys/stat.h</text>
</a>
</g>
</g>
<!-- Node1&#45;&gt;Node6 -->
<g id="edge33_Node000001_Node000006" class="edge">
<title>Node1&#45;&gt;Node6</title>
<g id="a_edge33_Node000001_Node000006"><a xlink:title=" ">
<path fill="none" stroke="#63b8ff" d="M503.16,-230.69C505.87,-220.77 509.22,-207.19 511,-195 516.7,-155.97 517.41,-109.69 517.29,-84.38"/>
<polygon fill="#63b8ff" stroke="#63b8ff" points="520.78,-84 517.18,-74.04 513.78,-84.07 520.78,-84"/>
</a>
</g>
</g>
<!-- Node3 -->
<g id="Node000003" class="node">
<title>Node3</title>
<g id="a_Node000003"><a xlink:title=" ">
<polygon fill="#e0e0e0" stroke="#999999" points="235,-74 157,-74 157,-55 235,-55 235,-74"/>
<text text-anchor="middle" x="196" y="-62" font-family="Helvetica,sans-Serif" font-size="10.00">ngx_config.h</text>
</a>
</g>
</g>
<!-- Node2&#45;&gt;Node3 -->
<g id="edge2_Node000002_Node000003" class="edge">
<title>Node2&#45;&gt;Node3</title>
<g id="a_edge2_Node000002_Node000003"><a xlink:title=" ">
<path fill="none" stroke="#63b8ff" d="M431.39,-182.65C345.76,-177.85 133.87,-163.66 113,-140 104.18,-130 106.15,-121.44 113,-110 121.97,-95.01 137.91,-84.78 153.43,-77.95"/>
<polygon fill="#63b8ff" stroke="#63b8ff" points="155,-81.1 162.98,-74.13 152.4,-74.6 155,-81.1"/>
</a>
</g>
</g>
<!-- Node4 -->
<g id="Node000004" class="node">
<title>Node4</title>
<g id="a_Node000004"><a xlink:title=" ">
<polygon fill="#e0e0e0" stroke="#999999" points="467,-74 397,-74 397,-55 467,-55 467,-74"/>
<text text-anchor="middle" x="432" y="-62" font-family="Helvetica,sans-Serif" font-size="10.00">ngx_core.h</text>
</a>
</g>
</g>
<!-- Node2&#45;&gt;Node4 -->
<g id="edge3_Node000002_Node000004" class="edge">
<title>Node2&#45;&gt;Node4</title>
<g id="a_edge3_Node000002_Node000004"><a xlink:title=" ">
<path fill="none" stroke="#63b8ff" d="M475.43,-176C488.33,-161.91 510.24,-133.01 498,-110 490.69,-96.25 477.03,-85.99 464.03,-78.8"/>
<polygon fill="#63b8ff" stroke="#63b8ff" points="465.28,-75.51 454.78,-74.11 462.11,-81.75 465.28,-75.51"/>
</a>
</g>
</g>
<!-- Node5 -->
<g id="Node000005" class="node">
<title>Node5</title>
<g id="a_Node000005"><a xlink:href="fs_2path_2unified_8h.html" target="_top" xlink:title=" ">
<polygon fill="white" stroke="#666666" points="489.5,-134.5 394.5,-134.5 394.5,-115.5 489.5,-115.5 489.5,-134.5"/>
<text text-anchor="middle" x="442" y="-122.5" font-family="Helvetica,sans-Serif" font-size="10.00">fs/path/unified.h</text>
</a>
</g>
</g>
<!-- Node2&#45;&gt;Node5 -->
<g id="edge4_Node000002_Node000005" class="edge">
<title>Node2&#45;&gt;Node5</title>
<g id="a_edge4_Node000002_Node000005"><a xlink:title=" ">
<path fill="none" stroke="#63b8ff" d="M463.31,-175.87C459.73,-167.49 454.18,-154.51 449.65,-143.89"/>
<polygon fill="#63b8ff" stroke="#63b8ff" points="452.85,-142.49 445.7,-134.67 446.42,-145.24 452.85,-142.49"/>
</a>
</g>
</g>
<!-- Node7 -->
<g id="Node000007" class="node">
<title>Node7</title>
<g id="a_Node000007"><a xlink:href="identity_8h.html" target="_top" xlink:title=" ">
<polygon fill="white" stroke="#666666" points="238,-134.5 122,-134.5 122,-115.5 238,-115.5 238,-134.5"/>
<text text-anchor="middle" x="180" y="-122.5" font-family="Helvetica,sans-Serif" font-size="10.00">core/types/identity.h</text>
</a>
</g>
</g>
<!-- Node2&#45;&gt;Node7 -->
<g id="edge8_Node000002_Node000007" class="edge">
<title>Node2&#45;&gt;Node7</title>
<g id="a_edge8_Node000002_Node000007"><a xlink:title=" ">
<path fill="none" stroke="#63b8ff" d="M431.17,-177.33C387.61,-168.59 311.89,-153.34 247,-140 241.69,-138.91 236.14,-137.76 230.62,-136.61"/>
<polygon fill="#63b8ff" stroke="#63b8ff" points="231.24,-133.17 220.74,-134.56 229.81,-140.02 231.24,-133.17"/>
</a>
</g>
</g>
<!-- Node11 -->
<g id="Node000011" class="node">
<title>Node11</title>
<g id="a_Node000011"><a xlink:href="observability_2metrics_2unified_8h.html" target="_top" xlink:title=" ">
<polygon fill="white" stroke="#666666" points="376,-140 256,-140 256,-110 376,-110 376,-140"/>
<text text-anchor="start" x="264" y="-128" font-family="Helvetica,sans-Serif" font-size="10.00">observability/metrics</text>
<text text-anchor="middle" x="316" y="-117" font-family="Helvetica,sans-Serif" font-size="10.00">/unified.h</text>
</a>
</g>
</g>
<!-- Node2&#45;&gt;Node11 -->
<g id="edge14_Node000002_Node000011" class="edge">
<title>Node2&#45;&gt;Node11</title>
<g id="a_edge14_Node000002_Node000011"><a xlink:title=" ">
<path fill="none" stroke="#63b8ff" d="M445.04,-175.99C423.31,-167.57 389.39,-154.43 361.78,-143.73"/>
<polygon fill="#63b8ff" stroke="#63b8ff" points="362.89,-140.41 352.3,-140.06 360.36,-146.94 362.89,-140.41"/>
</a>
</g>
</g>
<!-- Node13 -->
<g id="Node000013" class="node">
<title>Node13</title>
<g id="a_Node000013"><a xlink:href="sd_8h.html" target="_top" xlink:title=" ">
<polygon fill="white" stroke="#666666" points="676,-134.5 584,-134.5 584,-115.5 676,-115.5 676,-134.5"/>
<text text-anchor="middle" x="630" y="-122.5" font-family="Helvetica,sans-Serif" font-size="10.00">fs/backend/sd.h</text>
</a>
</g>
</g>
<!-- Node2&#45;&gt;Node13 -->
<g id="edge18_Node000002_Node000013" class="edge">
<title>Node2&#45;&gt;Node13</title>
<g id="a_edge18_Node000002_Node000013"><a xlink:title=" ">
<path fill="none" stroke="#63b8ff" d="M490.7,-175.99C518.59,-165.99 565.07,-149.3 596.6,-137.99"/>
<polygon fill="#63b8ff" stroke="#63b8ff" points="598.04,-141.19 606.27,-134.52 595.68,-134.6 598.04,-141.19"/>
</a>
</g>
</g>
<!-- Node20 -->
<g id="Node000020" class="node">
<title>Node20</title>
<g id="a_Node000020"><a xlink:href="vfs__ops_8h.html" target="_top" xlink:title=" ">
<polygon fill="white" stroke="#666666" points="787.5,-134.5 694.5,-134.5 694.5,-115.5 787.5,-115.5 787.5,-134.5"/>
<text text-anchor="middle" x="741" y="-122.5" font-family="Helvetica,sans-Serif" font-size="10.00">fs/vfs/vfs_ops.h</text>
</a>
</g>
</g>
<!-- Node2&#45;&gt;Node20 -->
<g id="edge32_Node000002_Node000020" class="edge">
<title>Node2&#45;&gt;Node20</title>
<g id="a_edge32_Node000002_Node000020"><a xlink:title=" ">
<path fill="none" stroke="#63b8ff" d="M502.6,-177.73C545.84,-169.39 620.96,-154.53 685,-140 689.18,-139.05 693.52,-138.03 697.86,-136.99"/>
<polygon fill="#63b8ff" stroke="#63b8ff" points="699.01,-140.31 707.89,-134.53 697.35,-133.51 699.01,-140.31"/>
</a>
</g>
</g>
<!-- Node5&#45;&gt;Node3 -->
<g id="edge5_Node000005_Node000003" class="edge">
<title>Node5&#45;&gt;Node3</title>
<g id="a_edge5_Node000005_Node000003"><a xlink:title=" ">
<path fill="none" stroke="#63b8ff" d="M407.35,-115.43C399.97,-113.63 392.23,-111.74 385,-110 336.41,-98.31 280.71,-85.24 242.44,-76.3"/>
<polygon fill="#63b8ff" stroke="#63b8ff" points="243.14,-72.87 232.61,-74.01 241.55,-79.69 243.14,-72.87"/>
</a>
</g>
</g>
<!-- Node5&#45;&gt;Node4 -->
<g id="edge6_Node000005_Node000004" class="edge">
<title>Node5&#45;&gt;Node4</title>
<g id="a_edge6_Node000005_Node000004"><a xlink:title=" ">
<path fill="none" stroke="#63b8ff" d="M440.52,-115.37C439.12,-107.16 436.96,-94.54 435.17,-84.05"/>
<polygon fill="#63b8ff" stroke="#63b8ff" points="438.62,-83.43 433.48,-74.17 431.72,-84.61 438.62,-83.43"/>
</a>
</g>
</g>
<!-- Node5&#45;&gt;Node6 -->
<g id="edge7_Node000005_Node000006" class="edge">
<title>Node5&#45;&gt;Node6</title>
<g id="a_edge7_Node000005_Node000006"><a xlink:title=" ">
<path fill="none" stroke="#63b8ff" d="M453.07,-115.37C464.81,-106.21 483.59,-91.56 497.76,-80.51"/>
<polygon fill="#63b8ff" stroke="#63b8ff" points="500.16,-83.08 505.89,-74.17 495.85,-77.56 500.16,-83.08"/>
</a>
</g>
</g>
<!-- Node7&#45;&gt;Node3 -->
<g id="edge9_Node000007_Node000003" class="edge">
<title>Node7&#45;&gt;Node3</title>
<g id="a_edge9_Node000007_Node000003"><a xlink:title=" ">
<path fill="none" stroke="#63b8ff" d="M182.36,-115.37C184.61,-107.16 188.06,-94.54 190.93,-84.05"/>
<polygon fill="#63b8ff" stroke="#63b8ff" points="194.37,-84.74 193.63,-74.17 187.62,-82.89 194.37,-84.74"/>
</a>
</g>
</g>
<!-- Node7&#45;&gt;Node4 -->
<g id="edge10_Node000007_Node000004" class="edge">
<title>Node7&#45;&gt;Node4</title>
<g id="a_edge10_Node000007_Node000004"><a xlink:title=" ">
<path fill="none" stroke="#63b8ff" d="M216.64,-115.49C261.76,-105.02 338.36,-87.24 387,-75.95"/>
<polygon fill="#63b8ff" stroke="#63b8ff" points="387.99,-79.31 396.94,-73.64 386.41,-72.49 387.99,-79.31"/>
</a>
</g>
</g>
<!-- Node8 -->
<g id="Node000008" class="node">
<title>Node8</title>
<g id="a_Node000008"><a xlink:href="token_8h.html" target="_top" xlink:title=" ">
<polygon fill="white" stroke="#666666" points="138.5,-74 31.5,-74 31.5,-55 138.5,-55 138.5,-74"/>
<text text-anchor="middle" x="85" y="-62" font-family="Helvetica,sans-Serif" font-size="10.00">auth/token/token.h</text>
</a>
</g>
</g>
<!-- Node7&#45;&gt;Node8 -->
<g id="edge11_Node000007_Node000008" class="edge">
<title>Node7&#45;&gt;Node8</title>
<g id="a_edge11_Node000007_Node000008"><a xlink:title=" ">
<path fill="none" stroke="#63b8ff" d="M165.98,-115.37C150.69,-105.95 125.97,-90.73 107.86,-79.58"/>
<polygon fill="#63b8ff" stroke="#63b8ff" points="109.43,-76.43 99.08,-74.17 105.75,-82.39 109.43,-76.43"/>
</a>
</g>
</g>
<!-- Node9 -->
<g id="Node000009" class="node">
<title>Node9</title>
<g id="a_Node000009"><a xlink:title=" ">
<polygon fill="#e0e0e0" stroke="#999999" points="84,-19 0,-19 0,0 84,0 84,-19"/>
<text text-anchor="middle" x="42" y="-7" font-family="Helvetica,sans-Serif" font-size="10.00">openssl/evp.h</text>
</a>
</g>
</g>
<!-- Node8&#45;&gt;Node9 -->
<g id="edge12_Node000008_Node000009" class="edge">
<title>Node8&#45;&gt;Node9</title>
<g id="a_edge12_Node000008_Node000009"><a xlink:title=" ">
<path fill="none" stroke="#63b8ff" d="M77.9,-54.75C71.83,-47.26 62.91,-36.28 55.49,-27.13"/>
<polygon fill="#63b8ff" stroke="#63b8ff" points="57.99,-24.65 48.97,-19.09 52.55,-29.06 57.99,-24.65"/>
</a>
</g>
</g>
<!-- Node10 -->
<g id="Node000010" class="node">
<title>Node10</title>
<g id="a_Node000010"><a xlink:title=" ">
<polygon fill="#e0e0e0" stroke="#999999" points="154.5,-19 101.5,-19 101.5,0 154.5,0 154.5,-19"/>
<text text-anchor="middle" x="128" y="-7" font-family="Helvetica,sans-Serif" font-size="10.00">limits.h</text>
</a>
</g>
</g>
<!-- Node8&#45;&gt;Node10 -->
<g id="edge13_Node000008_Node000010" class="edge">
<title>Node8&#45;&gt;Node10</title>
<g id="a_edge13_Node000008_Node000010"><a xlink:title=" ">
<path fill="none" stroke="#63b8ff" d="M92.1,-54.75C98.17,-47.26 107.09,-36.28 114.51,-27.13"/>
<polygon fill="#63b8ff" stroke="#63b8ff" points="117.45,-29.06 121.03,-19.09 112.01,-24.65 117.45,-29.06"/>
</a>
</g>
</g>
<!-- Node11&#45;&gt;Node3 -->
<g id="edge15_Node000011_Node000003" class="edge">
<title>Node11&#45;&gt;Node3</title>
<g id="a_edge15_Node000011_Node000003"><a xlink:title=" ">
<path fill="none" stroke="#63b8ff" d="M287.26,-109.99C267.68,-100.45 241.95,-87.9 222.8,-78.57"/>
<polygon fill="#63b8ff" stroke="#63b8ff" points="224.24,-75.38 213.72,-74.14 221.18,-81.67 224.24,-75.38"/>
</a>
</g>
</g>
<!-- Node11&#45;&gt;Node4 -->
<g id="edge16_Node000011_Node000004" class="edge">
<title>Node11&#45;&gt;Node4</title>
<g id="a_edge16_Node000011_Node000004"><a xlink:title=" ">
<path fill="none" stroke="#63b8ff" d="M343.78,-109.99C362.62,-100.49 387.35,-88.02 405.84,-78.69"/>
<polygon fill="#63b8ff" stroke="#63b8ff" points="407.52,-81.77 414.87,-74.14 404.36,-75.52 407.52,-81.77"/>
</a>
</g>
</g>
<!-- Node12 -->
<g id="Node000012" class="node">
<title>Node12</title>
<g id="a_Node000012"><a xlink:href="proto__list_8h.html" target="_top" xlink:title=" ">
<polygon fill="white" stroke="#666666" points="378.5,-74 253.5,-74 253.5,-55 378.5,-55 378.5,-74"/>
<text text-anchor="middle" x="316" y="-62" font-family="Helvetica,sans-Serif" font-size="10.00">core/types/proto_list.h</text>
</a>
</g>
</g>
<!-- Node11&#45;&gt;Node12 -->
<g id="edge17_Node000011_Node000012" class="edge">
<title>Node11&#45;&gt;Node12</title>
<g id="a_edge17_Node000011_Node000012"><a xlink:title=" ">
<path fill="none" stroke="#63b8ff" d="M316,-109.84C316,-102.21 316,-92.7 316,-84.45"/>
<polygon fill="#63b8ff" stroke="#63b8ff" points="319.5,-84.27 316,-74.27 312.5,-84.27 319.5,-84.27"/>
</a>
</g>
</g>
<!-- Node13&#45;&gt;Node3 -->
<g id="edge19_Node000013_Node000003" class="edge">
<title>Node13&#45;&gt;Node3</title>
<g id="a_edge19_Node000013_Node000003"><a xlink:title=" ">
<path fill="none" stroke="#63b8ff" d="M583.85,-118.73C513.19,-110.49 373.71,-93.64 245.04,-74.1"/>
<polygon fill="#63b8ff" stroke="#63b8ff" points="245.42,-70.61 235.01,-72.56 244.36,-77.53 245.42,-70.61"/>
</a>
</g>
</g>
<!-- Node13&#45;&gt;Node4 -->
<g id="edge20_Node000013_Node000004" class="edge">
<title>Node13&#45;&gt;Node4</title>
<g id="a_edge20_Node000013_Node000004"><a xlink:title=" ">
<path fill="none" stroke="#63b8ff" d="M601.21,-115.49C566.75,-105.31 508.91,-88.22 470.6,-76.9"/>
<polygon fill="#63b8ff" stroke="#63b8ff" points="471.41,-73.49 460.83,-74.02 469.42,-80.21 471.41,-73.49"/>
</a>
</g>
</g>
<!-- Node13&#45;&gt;Node6 -->
<g id="edge23_Node000013_Node000006" class="edge">
<title>Node13&#45;&gt;Node6</title>
<g id="a_edge23_Node000013_Node000006"><a xlink:title=" ">
<path fill="none" stroke="#63b8ff" d="M613.33,-115.37C594.72,-105.73 564.38,-90.03 542.72,-78.81"/>
<polygon fill="#63b8ff" stroke="#63b8ff" points="544.23,-75.66 533.74,-74.17 541.01,-81.87 544.23,-75.66"/>
</a>
</g>
</g>
<!-- Node14 -->
<g id="Node000014" class="node">
<title>Node14</title>
<g id="a_Node000014"><a xlink:title=" ">
<polygon fill="#e0e0e0" stroke="#999999" points="620.5,-74 567.5,-74 567.5,-55 620.5,-55 620.5,-74"/>
<text text-anchor="middle" x="594" y="-62" font-family="Helvetica,sans-Serif" font-size="10.00">stdint.h</text>
</a>
</g>
</g>
<!-- Node13&#45;&gt;Node14 -->
<g id="edge21_Node000013_Node000014" class="edge">
<title>Node13&#45;&gt;Node14</title>
<g id="a_edge21_Node000013_Node000014"><a xlink:title=" ">
<path fill="none" stroke="#63b8ff" d="M624.69,-115.37C619.42,-106.81 611.21,-93.47 604.61,-82.74"/>
<polygon fill="#63b8ff" stroke="#63b8ff" points="607.56,-80.85 599.33,-74.17 601.59,-84.52 607.56,-80.85"/>
</a>
</g>
</g>
<!-- Node15 -->
<g id="Node000015" class="node">
<title>Node15</title>
<g id="a_Node000015"><a xlink:title=" ">
<polygon fill="#e0e0e0" stroke="#999999" points="755.5,-19 704.5,-19 704.5,0 755.5,0 755.5,-19"/>
<text text-anchor="middle" x="730" y="-7" font-family="Helvetica,sans-Serif" font-size="10.00">errno.h</text>
</a>
</g>
</g>
<!-- Node13&#45;&gt;Node15 -->
<g id="edge22_Node000013_Node000015" class="edge">
<title>Node13&#45;&gt;Node15</title>
<g id="a_edge22_Node000013_Node000015"><a xlink:title=" ">
<path fill="none" stroke="#63b8ff" d="M633.36,-115.16C638.97,-101.23 651.3,-73.82 668,-55 678.65,-43 693.1,-32.39 705.38,-24.55"/>
<polygon fill="#63b8ff" stroke="#63b8ff" points="707.54,-27.32 714.24,-19.11 703.88,-21.36 707.54,-27.32"/>
</a>
</g>
</g>
<!-- Node16 -->
<g id="Node000016" class="node">
<title>Node16</title>
<g id="a_Node000016"><a xlink:title=" ">
<polygon fill="#e0e0e0" stroke="#999999" points="881,-19 809,-19 809,0 881,0 881,-19"/>
<text text-anchor="middle" x="845" y="-7" font-family="Helvetica,sans-Serif" font-size="10.00">sys/types.h</text>
</a>
</g>
</g>
<!-- Node13&#45;&gt;Node16 -->
<g id="edge24_Node000013_Node000016" class="edge">
<title>Node13&#45;&gt;Node16</title>
<g id="a_edge24_Node000013_Node000016"><a xlink:title=" ">
<path fill="none" stroke="#63b8ff" d="M661.9,-115.46C669.45,-113.55 677.49,-111.62 685,-110 729.79,-100.34 858.57,-109.11 888,-74 901.11,-58.36 883.11,-38.68 866.55,-25.41"/>
<polygon fill="#63b8ff" stroke="#63b8ff" points="868.28,-22.34 858.19,-19.11 864.07,-27.93 868.28,-22.34"/>
</a>
</g>
</g>
<!-- Node17 -->
<g id="Node000017" class="node">
<title>Node17</title>
<g id="a_Node000017"><a xlink:title=" ">
<polygon fill="#e0e0e0" stroke="#999999" points="969,-19 909,-19 909,0 969,0 969,-19"/>
<text text-anchor="middle" x="939" y="-7" font-family="Helvetica,sans-Serif" font-size="10.00">sys/uio.h</text>
</a>
</g>
</g>
<!-- Node13&#45;&gt;Node17 -->
<g id="edge25_Node000013_Node000017" class="edge">
<title>Node13&#45;&gt;Node17</title>
<g id="a_edge25_Node000013_Node000017"><a xlink:title=" ">
<path fill="none" stroke="#63b8ff" d="M661.59,-115.46C669.23,-113.54 677.38,-111.59 685,-110 781.55,-89.82 823.43,-130.91 904,-74 919.24,-63.24 928.56,-43.65 933.72,-29.07"/>
<polygon fill="#63b8ff" stroke="#63b8ff" points="937.18,-29.71 936.87,-19.12 930.51,-27.59 937.18,-29.71"/>
</a>
</g>
</g>
<!-- Node18 -->
<g id="Node000018" class="node">
<title>Node18</title>
<g id="a_Node000018"><a xlink:href="sd__cred__forward_8h.html" target="_top" xlink:title=" ">
<polygon fill="white" stroke="#666666" points="783,-74 677,-74 677,-55 783,-55 783,-74"/>
<text text-anchor="middle" x="730" y="-62" font-family="Helvetica,sans-Serif" font-size="10.00">sd_cred_forward.h</text>
</a>
</g>
</g>
<!-- Node13&#45;&gt;Node18 -->
<g id="edge26_Node000013_Node000018" class="edge">
<title>Node13&#45;&gt;Node18</title>
<g id="a_edge26_Node000013_Node000018"><a xlink:title=" ">
<path fill="none" stroke="#63b8ff" d="M644.76,-115.37C661,-105.86 687.35,-90.45 706.46,-79.27"/>
<polygon fill="#63b8ff" stroke="#63b8ff" points="708.32,-82.24 715.18,-74.17 704.79,-76.2 708.32,-82.24"/>
</a>
</g>
</g>
<!-- Node19 -->
<g id="Node000019" class="node">
<title>Node19</title>
<g id="a_Node000019"><a xlink:href="sd__registry_8h.html" target="_top" xlink:title=" ">
<polygon fill="white" stroke="#666666" points="879,-74 801,-74 801,-55 879,-55 879,-74"/>
<text text-anchor="middle" x="840" y="-62" font-family="Helvetica,sans-Serif" font-size="10.00">sd_registry.h</text>
</a>
</g>
</g>
<!-- Node13&#45;&gt;Node19 -->
<g id="edge28_Node000013_Node000019" class="edge">
<title>Node13&#45;&gt;Node19</title>
<g id="a_edge28_Node000013_Node000019"><a xlink:title=" ">
<path fill="none" stroke="#63b8ff" d="M660.54,-115.49C697.24,-105.27 758.95,-88.08 799.58,-76.76"/>
<polygon fill="#63b8ff" stroke="#63b8ff" points="800.73,-80.07 809.43,-74.02 798.85,-73.33 800.73,-80.07"/>
</a>
</g>
</g>
<!-- Node18&#45;&gt;Node15 -->
<g id="edge27_Node000018_Node000015" class="edge">
<title>Node18&#45;&gt;Node15</title>
<g id="a_edge27_Node000018_Node000015"><a xlink:title=" ">
<path fill="none" stroke="#63b8ff" d="M730,-54.75C730,-47.8 730,-37.85 730,-29.13"/>
<polygon fill="#63b8ff" stroke="#63b8ff" points="733.5,-29.09 730,-19.09 726.5,-29.09 733.5,-29.09"/>
</a>
</g>
</g>
<!-- Node19&#45;&gt;Node15 -->
<g id="edge29_Node000019_Node000015" class="edge">
<title>Node19&#45;&gt;Node15</title>
<g id="a_edge29_Node000019_Node000015"><a xlink:title=" ">
<path fill="none" stroke="#63b8ff" d="M822.33,-54.98C804.71,-46.5 777.42,-33.35 757.07,-23.54"/>
<polygon fill="#63b8ff" stroke="#63b8ff" points="758.52,-20.36 747.99,-19.17 755.48,-26.66 758.52,-20.36"/>
</a>
</g>
</g>
<!-- Node19&#45;&gt;Node16 -->
<g id="edge30_Node000019_Node000016" class="edge">
<title>Node19&#45;&gt;Node16</title>
<g id="a_edge30_Node000019_Node000016"><a xlink:title=" ">
<path fill="none" stroke="#63b8ff" d="M840.83,-54.75C841.48,-47.8 842.42,-37.85 843.24,-29.13"/>
<polygon fill="#63b8ff" stroke="#63b8ff" points="846.73,-29.37 844.19,-19.09 839.77,-28.72 846.73,-29.37"/>
</a>
</g>
</g>
<!-- Node19&#45;&gt;Node17 -->
<g id="edge31_Node000019_Node000017" class="edge">
<title>Node19&#45;&gt;Node17</title>
<g id="a_edge31_Node000019_Node000017"><a xlink:title=" ">
<path fill="none" stroke="#63b8ff" d="M855.91,-54.98C871.55,-46.61 895.66,-33.7 913.88,-23.95"/>
<polygon fill="#63b8ff" stroke="#63b8ff" points="915.64,-26.98 922.8,-19.17 912.34,-20.8 915.64,-26.98"/>
</a>
</g>
</g>
</g>
</svg>
