<?xml version="1.0" encoding="UTF-8" standalone="no"?>
<!DOCTYPE svg PUBLIC "-//W3C//DTD SVG 1.1//EN"
 "http://www.w3.org/Graphics/SVG/1.1/DTD/svg11.dtd">
<!-- Generated by graphviz version 2.43.0 (0)
 -->
<!-- Title: src/auth/crypto/store_policy.h Pages: 1 -->
<!--zoomable 170 -->

<svg id="main" version="1.1" xmlns="http://www.w3.org/2000/svg" xmlns:xlink="http://www.w3.org/1999/xlink" xml:space="preserve" onload="init(evt)">
<style type="text/css"><![CDATA[
.node, .edge {opacity: 0.7;}
.node.selected, .edge.selected {opacity: 1;}
.edge:hover path { stroke: red; }
.edge:hover polygon { stroke: red; fill: red; }
]]></style>

<defs>
  <circle id="rim" cx="0" cy="0" r="7"/>
  <circle id="rim2" cx="0" cy="0" r="3.5"/>
  <g id="zoomPlus">
    <use xlink:href="#rim" fill="#404040"><set attributeName="fill" to="#808080" begin="zoomplus.mouseover" end="zoomplus.mouseout"/></use>
    <path d="M-4,0h8M0,-4v8" fill="none" stroke="white" stroke-width="1.5" pointer-events="none"/>
  </g>
  <g id="zoomMin">
    <use xlink:href="#rim" fill="#404040"><set attributeName="fill" to="#808080" begin="zoomminus.mouseover" end="zoomminus.mouseout"/></use>
    <path d="M-4,0h8" fill="none" stroke="white" stroke-width="1.5" pointer-events="none"/>
  </g>
  <g id="arrowUp" transform="translate(30 24)">
    <use xlink:href="#rim"/>
    <path pointer-events="none" fill="none" stroke="white" stroke-width="1.5" d="M0,-3.0v7 M-2.5,-0.5L0,-3.0L2.5,-0.5"/>
  </g>
  <g id="arrowRight" transform="rotate(90) translate(36 -43)">
    <use xlink:href="#rim"/>
    <path pointer-events="none" fill="none" stroke="white" stroke-width="1.5" d="M0,-3.0v7 M-2.5,-0.5L0,-3.0L2.5,-0.5"/>
  </g>
  <g id="arrowDown" transform="rotate(180) translate(-30 -48)">
    <use xlink:href="#rim"/>
    <path pointer-events="none" fill="none" stroke="white" stroke-width="1.5" d="M0,-3.0v7 M-2.5,-0.5L0,-3.0L2.5,-0.5"/>
  </g>
  <g id="arrowLeft" transform="rotate(270) translate(-36 17)">
    <use xlink:href="#rim"/>
    <path pointer-events="none" fill="none" stroke="white" stroke-width="1.5" d="M0,-3.0v7 M-2.5,-0.5L0,-3.0L2.5,-0.5"/>
  </g>
  <g id="resetDef">
    <use xlink:href="#rim2" fill="#404040"><set attributeName="fill" to="#808080" begin="reset.mouseover" end="reset.mouseout"/></use>
  </g>
</defs>
<script type="application/ecmascript">
var viewWidth = 2760;
var viewHeight = 170;
var sectionId = 'dynsection-1';
</script>
<script type="application/ecmascript" xlink:href="svg.min.js"/>
<svg id="graph" class="graph">
<g id="viewport">
<title>src/auth/crypto/store_policy.h</title>
<!-- Node1 -->
<g id="Node000001" class="node">
<title>Node1</title>
<g id="a_Node000001"><a xlink:title=" ">
<polygon fill="#999999" stroke="#666666" points="1620,-162 1503,-162 1503,-132 1620,-132 1620,-162"/>
<text text-anchor="start" x="1511" y="-150" font-family="Helvetica,sans-Serif" font-size="10.00">src/auth/crypto/store</text>
<text text-anchor="middle" x="1561.5" y="-139" font-family="Helvetica,sans-Serif" font-size="10.00">_policy.h</text>
</a>
</g>
</g>
<!-- Node2 -->
<g id="Node000002" class="node">
<title>Node2</title>
<g id="a_Node000002"><a xlink:href="gsi__verify_8c.html" target="_top" xlink:title=" ">
<polygon fill="white" stroke="#666666" points="539,-96 432,-96 432,-66 539,-66 539,-96"/>
<text text-anchor="start" x="440" y="-84" font-family="Helvetica,sans-Serif" font-size="10.00">src/auth/crypto/gsi</text>
<text text-anchor="middle" x="485.5" y="-73" font-family="Helvetica,sans-Serif" font-size="10.00">_verify.c</text>
</a>
</g>
</g>
<!-- Node1&#45;&gt;Node2 -->
<g id="edge1_Node000001_Node000002" class="edge">
<title>Node1&#45;&gt;Node2</title>
<g id="a_edge1_Node000001_Node000002"><a xlink:title=" ">
<path fill="none" stroke="#63b8ff" d="M1492.59,-146.22C1328.98,-145.94 904.51,-140.57 553.5,-96 548.84,-95.41 544.02,-94.67 539.19,-93.85"/>
<polygon fill="#63b8ff" stroke="#63b8ff" points="1492.99,-149.72 1502.99,-146.23 1492.99,-142.72 1492.99,-149.72"/>
</a>
</g>
</g>
<!-- Node3 -->
<g id="Node000003" class="node">
<title>Node3</title>
<g id="a_Node000003"><a xlink:href="pki__build_8c.html" target="_top" xlink:title=" ">
<polygon fill="white" stroke="#666666" points="107,-30 0,-30 0,0 107,0 107,-30"/>
<text text-anchor="start" x="8" y="-18" font-family="Helvetica,sans-Serif" font-size="10.00">src/auth/crypto/pki</text>
<text text-anchor="middle" x="53.5" y="-7" font-family="Helvetica,sans-Serif" font-size="10.00">_build.c</text>
</a>
</g>
</g>
<!-- Node1&#45;&gt;Node3 -->
<g id="edge2_Node000001_Node000003" class="edge">
<title>Node1&#45;&gt;Node3</title>
<g id="a_edge2_Node000001_Node000003"><a xlink:title=" ">
<path fill="none" stroke="#63b8ff" d="M1492.6,-144.83C1284.38,-140.98 670.8,-127.1 586.5,-96 565.98,-88.43 567.89,-73.9 547.5,-66 367.83,3.57 305.93,-59.29 115.5,-30 112.77,-29.58 109.99,-29.11 107.18,-28.6"/>
<polygon fill="#63b8ff" stroke="#63b8ff" points="1492.73,-148.34 1502.79,-145.02 1492.86,-141.34 1492.73,-148.34"/>
</a>
</g>
</g>
<!-- Node4 -->
<g id="Node000004" class="node">
<title>Node4</title>
<g id="a_Node000004"><a xlink:href="pki__build_8h.html" target="_top" xlink:title=" ">
<polygon fill="white" stroke="#666666" points="703,-96 596,-96 596,-66 703,-66 703,-96"/>
<text text-anchor="start" x="604" y="-84" font-family="Helvetica,sans-Serif" font-size="10.00">src/auth/crypto/pki</text>
<text text-anchor="middle" x="649.5" y="-73" font-family="Helvetica,sans-Serif" font-size="10.00">_build.h</text>
</a>
</g>
</g>
<!-- Node1&#45;&gt;Node4 -->
<g id="edge3_Node000001_Node000004" class="edge">
<title>Node1&#45;&gt;Node4</title>
<g id="a_edge3_Node000001_Node000004"><a xlink:title=" ">
<path fill="none" stroke="#63b8ff" d="M1492.61,-141.17C1317.82,-128.9 859.85,-96.76 703.06,-85.76"/>
<polygon fill="#63b8ff" stroke="#63b8ff" points="1492.49,-144.67 1502.71,-141.87 1492.98,-137.68 1492.49,-144.67"/>
</a>
</g>
</g>
<!-- Node12 -->
<g id="Node000012" class="node">
<title>Node12</title>
<g id="a_Node000012"><a xlink:href="store__policy_8c.html" target="_top" xlink:title=" ">
<polygon fill="white" stroke="#666666" points="1175,-30 1058,-30 1058,0 1175,0 1175,-30"/>
<text text-anchor="start" x="1066" y="-18" font-family="Helvetica,sans-Serif" font-size="10.00">src/auth/crypto/store</text>
<text text-anchor="middle" x="1116.5" y="-7" font-family="Helvetica,sans-Serif" font-size="10.00">_policy.c</text>
</a>
</g>
</g>
<!-- Node1&#45;&gt;Node12 -->
<g id="edge12_Node000001_Node000012" class="edge">
<title>Node1&#45;&gt;Node12</title>
<g id="a_edge12_Node000001_Node000012"><a xlink:title=" ">
<path fill="none" stroke="#63b8ff" d="M1492.74,-144.57C1393.48,-141.31 1216.16,-130.68 1163.5,-96 1139.96,-80.5 1126.64,-48.81 1120.57,-30.3"/>
<polygon fill="#63b8ff" stroke="#63b8ff" points="1492.87,-148.08 1502.97,-144.89 1493.09,-141.08 1492.87,-148.08"/>
</a>
</g>
</g>
<!-- Node13 -->
<g id="Node000013" class="node">
<title>Node13</title>
<g id="a_Node000013"><a xlink:href="store__policy__conformance_8c.html" target="_top" xlink:title=" ">
<polygon fill="white" stroke="#666666" points="1321.5,-30 1193.5,-30 1193.5,0 1321.5,0 1321.5,-30"/>
<text text-anchor="start" x="1201.5" y="-18" font-family="Helvetica,sans-Serif" font-size="10.00">src/auth/crypto/store</text>
<text text-anchor="middle" x="1257.5" y="-7" font-family="Helvetica,sans-Serif" font-size="10.00">_policy_conformance.c</text>
</a>
</g>
</g>
<!-- Node1&#45;&gt;Node13 -->
<g id="edge13_Node000001_Node000013" class="edge">
<title>Node1&#45;&gt;Node13</title>
<g id="a_edge13_Node000001_Node000013"><a xlink:title=" ">
<path fill="none" stroke="#63b8ff" d="M1492.39,-141.95C1386.75,-135.06 1195.12,-119.45 1174.5,-96 1152.83,-71.35 1192.99,-45.45 1224.65,-30.02"/>
<polygon fill="#63b8ff" stroke="#63b8ff" points="1492.44,-145.46 1502.64,-142.61 1492.89,-138.48 1492.44,-145.46"/>
</a>
</g>
</g>
<!-- Node14 -->
<g id="Node000014" class="node">
<title>Node14</title>
<g id="a_Node000014"><a xlink:href="store__policy__internal_8h.html" target="_top" xlink:title=" ">
<polygon fill="white" stroke="#666666" points="1300,-96 1183,-96 1183,-66 1300,-66 1300,-96"/>
<text text-anchor="start" x="1191" y="-84" font-family="Helvetica,sans-Serif" font-size="10.00">src/auth/crypto/store</text>
<text text-anchor="middle" x="1241.5" y="-73" font-family="Helvetica,sans-Serif" font-size="10.00">_policy_internal.h</text>
</a>
</g>
</g>
<!-- Node1&#45;&gt;Node14 -->
<g id="edge14_Node000001_Node000014" class="edge">
<title>Node1&#45;&gt;Node14</title>
<g id="a_edge14_Node000001_Node000014"><a xlink:title=" ">
<path fill="none" stroke="#63b8ff" d="M1492.74,-132.25C1435.35,-120.77 1354.44,-104.59 1300.09,-93.72"/>
<polygon fill="#63b8ff" stroke="#63b8ff" points="1492.31,-135.73 1502.81,-134.26 1493.69,-128.87 1492.31,-135.73"/>
</a>
</g>
</g>
<!-- Node15 -->
<g id="Node000015" class="node">
<title>Node15</title>
<g id="a_Node000015"><a xlink:href="store__policy__store_8c.html" target="_top" xlink:title=" ">
<polygon fill="white" stroke="#666666" points="1457,-30 1340,-30 1340,0 1457,0 1457,-30"/>
<text text-anchor="start" x="1348" y="-18" font-family="Helvetica,sans-Serif" font-size="10.00">src/auth/crypto/store</text>
<text text-anchor="middle" x="1398.5" y="-7" font-family="Helvetica,sans-Serif" font-size="10.00">_policy_store.c</text>
</a>
</g>
</g>
<!-- Node1&#45;&gt;Node15 -->
<g id="edge18_Node000001_Node000015" class="edge">
<title>Node1&#45;&gt;Node15</title>
<g id="a_edge18_Node000001_Node000015"><a xlink:title=" ">
<path fill="none" stroke="#63b8ff" d="M1492.75,-139.06C1437.53,-131.89 1366.35,-118.53 1348.5,-96 1331.41,-74.43 1358.28,-46.72 1378.78,-30.22"/>
<polygon fill="#63b8ff" stroke="#63b8ff" points="1492.5,-142.55 1502.86,-140.32 1493.37,-135.61 1492.5,-142.55"/>
</a>
</g>
</g>
<!-- Node16 -->
<g id="Node000016" class="node">
<title>Node16</title>
<g id="a_Node000016"><a xlink:href="server__conf_8c.html" target="_top" xlink:title=" ">
<polygon fill="white" stroke="#666666" points="1478,-96 1357,-96 1357,-66 1478,-66 1478,-96"/>
<text text-anchor="start" x="1365" y="-84" font-family="Helvetica,sans-Serif" font-size="10.00">src/core/config/server</text>
<text text-anchor="middle" x="1417.5" y="-73" font-family="Helvetica,sans-Serif" font-size="10.00">_conf.c</text>
</a>
</g>
</g>
<!-- Node1&#45;&gt;Node16 -->
<g id="edge19_Node000001_Node000016" class="edge">
<title>Node1&#45;&gt;Node16</title>
<g id="a_edge19_Node000001_Node000016"><a xlink:title=" ">
<path fill="none" stroke="#63b8ff" d="M1520.51,-127.78C1497.81,-117.69 1470.02,-105.34 1449.03,-96.01"/>
<polygon fill="#63b8ff" stroke="#63b8ff" points="1519.34,-131.09 1529.9,-131.95 1522.18,-124.7 1519.34,-131.09"/>
</a>
</g>
</g>
<!-- Node17 -->
<g id="Node000017" class="node">
<title>Node17</title>
<g id="a_Node000017"><a xlink:href="server__conf__merge__security_8c.html" target="_top" xlink:title=" ">
<polygon fill="white" stroke="#666666" points="1627,-96 1496,-96 1496,-66 1627,-66 1627,-96"/>
<text text-anchor="start" x="1504" y="-84" font-family="Helvetica,sans-Serif" font-size="10.00">src/core/config/server</text>
<text text-anchor="middle" x="1561.5" y="-73" font-family="Helvetica,sans-Serif" font-size="10.00">_conf_merge_security.c</text>
</a>
</g>
</g>
<!-- Node1&#45;&gt;Node17 -->
<g id="edge20_Node000001_Node000017" class="edge">
<title>Node1&#45;&gt;Node17</title>
<g id="a_edge20_Node000001_Node000017"><a xlink:title=" ">
<path fill="none" stroke="#63b8ff" d="M1561.5,-121.54C1561.5,-112.96 1561.5,-103.61 1561.5,-96.16"/>
<polygon fill="#63b8ff" stroke="#63b8ff" points="1558,-121.8 1561.5,-131.8 1565,-121.8 1558,-121.8"/>
</a>
</g>
</g>
<!-- Node18 -->
<g id="Node000018" class="node">
<title>Node18</title>
<g id="a_Node000018"><a xlink:href="module__enums_8c.html" target="_top" xlink:title=" ">
<polygon fill="white" stroke="#666666" points="1785.5,-96 1645.5,-96 1645.5,-66 1785.5,-66 1785.5,-96"/>
<text text-anchor="start" x="1653.5" y="-84" font-family="Helvetica,sans-Serif" font-size="10.00">src/protocols/root</text>
<text text-anchor="middle" x="1715.5" y="-73" font-family="Helvetica,sans-Serif" font-size="10.00">/stream/module_enums.c</text>
</a>
</g>
</g>
<!-- Node1&#45;&gt;Node18 -->
<g id="edge21_Node000001_Node000018" class="edge">
<title>Node1&#45;&gt;Node18</title>
<g id="a_edge21_Node000001_Node000018"><a xlink:title=" ">
<path fill="none" stroke="#63b8ff" d="M1604.68,-128.05C1629.08,-117.91 1659.13,-105.43 1681.78,-96.01"/>
<polygon fill="#63b8ff" stroke="#63b8ff" points="1603.19,-124.89 1595.3,-131.95 1605.87,-131.35 1603.19,-124.89"/>
</a>
</g>
</g>
<!-- Node19 -->
<g id="Node000019" class="node">
<title>Node19</title>
<g id="a_Node000019"><a xlink:href="deleg__capture_8c.html" target="_top" xlink:title=" ">
<polygon fill="white" stroke="#666666" points="1919,-96 1804,-96 1804,-66 1919,-66 1919,-96"/>
<text text-anchor="start" x="1812" y="-84" font-family="Helvetica,sans-Serif" font-size="10.00">src/protocols/shared</text>
<text text-anchor="middle" x="1861.5" y="-73" font-family="Helvetica,sans-Serif" font-size="10.00">/deleg_capture.c</text>
</a>
</g>
</g>
<!-- Node1&#45;&gt;Node19 -->
<g id="edge22_Node000001_Node000019" class="edge">
<title>Node1&#45;&gt;Node19</title>
<g id="a_edge22_Node000001_Node000019"><a xlink:title=" ">
<path fill="none" stroke="#63b8ff" d="M1629.96,-131.39C1682.51,-120.19 1754.23,-104.89 1803.86,-94.3"/>
<polygon fill="#63b8ff" stroke="#63b8ff" points="1629.1,-128 1620.06,-133.51 1630.57,-134.84 1629.1,-128"/>
</a>
</g>
</g>
<!-- Node20 -->
<g id="Node000020" class="node">
<title>Node20</title>
<g id="a_Node000020"><a xlink:href="protocols_2webdav_2config_8c.html" target="_top" xlink:title=" ">
<polygon fill="white" stroke="#666666" points="2057.5,-96 1937.5,-96 1937.5,-66 2057.5,-66 2057.5,-96"/>
<text text-anchor="start" x="1945.5" y="-84" font-family="Helvetica,sans-Serif" font-size="10.00">src/protocols/webdav</text>
<text text-anchor="middle" x="1997.5" y="-73" font-family="Helvetica,sans-Serif" font-size="10.00">/config.c</text>
</a>
</g>
</g>
<!-- Node1&#45;&gt;Node20 -->
<g id="edge23_Node000001_Node000020" class="edge">
<title>Node1&#45;&gt;Node20</title>
<g id="a_edge23_Node000001_Node000020"><a xlink:title=" ">
<path fill="none" stroke="#63b8ff" d="M1630.26,-137.98C1704.16,-129.05 1824.95,-113.54 1928.5,-96 1931.39,-95.51 1934.35,-94.99 1937.33,-94.45"/>
<polygon fill="#63b8ff" stroke="#63b8ff" points="1629.67,-134.53 1620.15,-139.2 1630.5,-141.48 1629.67,-134.53"/>
</a>
</g>
</g>
<!-- Node21 -->
<g id="Node000021" class="node">
<title>Node21</title>
<g id="a_Node000021"><a xlink:href="config__merge_8c.html" target="_top" xlink:title=" ">
<polygon fill="white" stroke="#666666" points="2195.5,-96 2075.5,-96 2075.5,-66 2195.5,-66 2195.5,-96"/>
<text text-anchor="start" x="2083.5" y="-84" font-family="Helvetica,sans-Serif" font-size="10.00">src/protocols/webdav</text>
<text text-anchor="middle" x="2135.5" y="-73" font-family="Helvetica,sans-Serif" font-size="10.00">/config_merge.c</text>
</a>
</g>
</g>
<!-- Node1&#45;&gt;Node21 -->
<g id="edge24_Node000001_Node000021" class="edge">
<title>Node1&#45;&gt;Node21</title>
<g id="a_edge24_Node000001_Node000021"><a xlink:title=" ">
<path fill="none" stroke="#63b8ff" d="M1630.07,-141.43C1727.45,-134.43 1911.26,-119.37 2066.5,-96 2069.4,-95.56 2072.36,-95.09 2075.35,-94.58"/>
<polygon fill="#63b8ff" stroke="#63b8ff" points="1629.79,-137.94 1620.06,-142.14 1630.28,-144.92 1629.79,-137.94"/>
</a>
</g>
</g>
<!-- Node22 -->
<g id="Node000022" class="node">
<title>Node22</title>
<g id="a_Node000022"><a xlink:href="config__proxy_8c.html" target="_top" xlink:title=" ">
<polygon fill="white" stroke="#666666" points="2333.5,-96 2213.5,-96 2213.5,-66 2333.5,-66 2333.5,-96"/>
<text text-anchor="start" x="2221.5" y="-84" font-family="Helvetica,sans-Serif" font-size="10.00">src/protocols/webdav</text>
<text text-anchor="middle" x="2273.5" y="-73" font-family="Helvetica,sans-Serif" font-size="10.00">/config_proxy.c</text>
</a>
</g>
</g>
<!-- Node1&#45;&gt;Node22 -->
<g id="edge25_Node000001_Node000022" class="edge">
<title>Node1&#45;&gt;Node22</title>
<g id="a_edge25_Node000001_Node000022"><a xlink:title=" ">
<path fill="none" stroke="#63b8ff" d="M1630.61,-143.41C1748.71,-138.35 1996.75,-125.04 2204.5,-96 2207.41,-95.59 2210.37,-95.14 2213.36,-94.65"/>
<polygon fill="#63b8ff" stroke="#63b8ff" points="1630.12,-139.92 1620.27,-143.84 1630.41,-146.92 1630.12,-139.92"/>
</a>
</g>
</g>
<!-- Node23 -->
<g id="Node000023" class="node">
<title>Node23</title>
<g id="a_Node000023"><a xlink:href="protocols_2webdav_2delegation_8c.html" target="_top" xlink:title=" ">
<polygon fill="white" stroke="#666666" points="2471.5,-96 2351.5,-96 2351.5,-66 2471.5,-66 2471.5,-96"/>
<text text-anchor="start" x="2359.5" y="-84" font-family="Helvetica,sans-Serif" font-size="10.00">src/protocols/webdav</text>
<text text-anchor="middle" x="2411.5" y="-73" font-family="Helvetica,sans-Serif" font-size="10.00">/delegation.c</text>
</a>
</g>
</g>
<!-- Node1&#45;&gt;Node23 -->
<g id="edge26_Node000001_Node000023" class="edge">
<title>Node1&#45;&gt;Node23</title>
<g id="a_edge26_Node000001_Node000023"><a xlink:title=" ">
<path fill="none" stroke="#63b8ff" d="M1630.36,-144.74C1766.81,-141.55 2080.95,-130.74 2342.5,-96 2345.41,-95.61 2348.38,-95.18 2351.37,-94.7"/>
<polygon fill="#63b8ff" stroke="#63b8ff" points="1629.98,-141.25 1620.06,-144.97 1630.14,-148.24 1629.98,-141.25"/>
</a>
</g>
</g>
<!-- Node24 -->
<g id="Node000024" class="node">
<title>Node24</title>
<g id="a_Node000024"><a xlink:href="module__commands_8c.html" target="_top" xlink:title=" ">
<polygon fill="white" stroke="#666666" points="2613.5,-96 2489.5,-96 2489.5,-66 2613.5,-66 2613.5,-96"/>
<text text-anchor="start" x="2497.5" y="-84" font-family="Helvetica,sans-Serif" font-size="10.00">src/protocols/webdav</text>
<text text-anchor="middle" x="2551.5" y="-73" font-family="Helvetica,sans-Serif" font-size="10.00">/module_commands.c</text>
</a>
</g>
</g>
<!-- Node1&#45;&gt;Node24 -->
<g id="edge27_Node000001_Node000024" class="edge">
<title>Node1&#45;&gt;Node24</title>
<g id="a_edge27_Node000001_Node000024"><a xlink:title=" ">
<path fill="none" stroke="#63b8ff" d="M1630.28,-145.55C1783.55,-143.82 2164.52,-135.55 2480.5,-96 2483.37,-95.64 2486.29,-95.23 2489.24,-94.79"/>
<polygon fill="#63b8ff" stroke="#63b8ff" points="1630.04,-142.05 1620.08,-145.66 1630.12,-149.05 1630.04,-142.05"/>
</a>
</g>
</g>
<!-- Node25 -->
<g id="Node000025" class="node">
<title>Node25</title>
<g id="a_Node000025"><a xlink:href="module__init_8c.html" target="_top" xlink:title=" ">
<polygon fill="white" stroke="#666666" points="2751.5,-96 2631.5,-96 2631.5,-66 2751.5,-66 2751.5,-96"/>
<text text-anchor="start" x="2639.5" y="-84" font-family="Helvetica,sans-Serif" font-size="10.00">src/protocols/webdav</text>
<text text-anchor="middle" x="2691.5" y="-73" font-family="Helvetica,sans-Serif" font-size="10.00">/module_init.c</text>
</a>
</g>
</g>
<!-- Node1&#45;&gt;Node25 -->
<g id="edge28_Node000001_Node000025" class="edge">
<title>Node1&#45;&gt;Node25</title>
<g id="a_edge28_Node000001_Node000025"><a xlink:title=" ">
<path fill="none" stroke="#63b8ff" d="M1630.16,-146.39C1799.45,-146.57 2250.16,-142.27 2622.5,-96 2625.41,-95.64 2628.38,-95.22 2631.38,-94.76"/>
<polygon fill="#63b8ff" stroke="#63b8ff" points="1630.14,-142.89 1620.14,-146.38 1630.13,-149.89 1630.14,-142.89"/>
</a>
</g>
</g>
<!-- Node4&#45;&gt;Node3 -->
<g id="edge4_Node000004_Node000003" class="edge">
<title>Node4&#45;&gt;Node3</title>
<g id="a_edge4_Node000004_Node000003"><a xlink:title=" ">
<path fill="none" stroke="#63b8ff" d="M585.91,-66.65C584.42,-66.42 582.95,-66.21 581.5,-66 375.81,-37 320.91,-60.96 115.5,-30 112.77,-29.59 109.99,-29.12 107.18,-28.62"/>
<polygon fill="#63b8ff" stroke="#63b8ff" points="585.35,-70.11 595.79,-68.29 586.5,-63.2 585.35,-70.11"/>
</a>
</g>
</g>
<!-- Node5 -->
<g id="Node000005" class="node">
<title>Node5</title>
<g id="a_Node000005"><a xlink:href="auth_2gsi_2config_8c.html" target="_top" xlink:title=" ">
<polygon fill="white" stroke="#666666" points="508,-24.5 395,-24.5 395,-5.5 508,-5.5 508,-24.5"/>
<text text-anchor="middle" x="451.5" y="-12.5" font-family="Helvetica,sans-Serif" font-size="10.00">src/auth/gsi/config.c</text>
</a>
</g>
</g>
<!-- Node4&#45;&gt;Node5 -->
<g id="edge5_Node000004_Node000005" class="edge">
<title>Node4&#45;&gt;Node5</title>
<g id="a_edge5_Node000004_Node000005"><a xlink:title=" ">
<path fill="none" stroke="#63b8ff" d="M596.09,-62.74C557.81,-50.36 507.9,-34.23 477.85,-24.52"/>
<polygon fill="#63b8ff" stroke="#63b8ff" points="595.46,-66.21 606.05,-65.95 597.61,-59.55 595.46,-66.21"/>
</a>
</g>
</g>
<!-- Node6 -->
<g id="Node000006" class="node">
<title>Node6</title>
<g id="a_Node000006"><a xlink:href="sd__xroot_8c.html" target="_top" xlink:title=" ">
<polygon fill="white" stroke="#666666" points="641,-30 526,-30 526,0 641,0 641,-30"/>
<text text-anchor="start" x="534" y="-18" font-family="Helvetica,sans-Serif" font-size="10.00">src/fs/backend/xroot</text>
<text text-anchor="middle" x="583.5" y="-7" font-family="Helvetica,sans-Serif" font-size="10.00">/sd_xroot.c</text>
</a>
</g>
</g>
<!-- Node4&#45;&gt;Node6 -->
<g id="edge6_Node000004_Node000006" class="edge">
<title>Node4&#45;&gt;Node6</title>
<g id="a_edge6_Node000004_Node000006"><a xlink:title=" ">
<path fill="none" stroke="#63b8ff" d="M627.48,-58.65C617.81,-49.27 606.73,-38.53 598.11,-30.16"/>
<polygon fill="#63b8ff" stroke="#63b8ff" points="625.24,-61.35 634.85,-65.8 630.11,-56.32 625.24,-61.35"/>
</a>
</g>
</g>
<!-- Node7 -->
<g id="Node000007" class="node">
<title>Node7</title>
<g id="a_Node000007"><a xlink:href="sd__xroot__ns_8c.html" target="_top" xlink:title=" ">
<polygon fill="white" stroke="#666666" points="774,-30 659,-30 659,0 774,0 774,-30"/>
<text text-anchor="start" x="667" y="-18" font-family="Helvetica,sans-Serif" font-size="10.00">src/fs/backend/xroot</text>
<text text-anchor="middle" x="716.5" y="-7" font-family="Helvetica,sans-Serif" font-size="10.00">/sd_xroot_ns.c</text>
</a>
</g>
</g>
<!-- Node4&#45;&gt;Node7 -->
<g id="edge7_Node000004_Node000007" class="edge">
<title>Node4&#45;&gt;Node7</title>
<g id="a_edge7_Node000004_Node000007"><a xlink:title=" ">
<path fill="none" stroke="#63b8ff" d="M671.85,-58.65C681.67,-49.27 692.92,-38.53 701.67,-30.16"/>
<polygon fill="#63b8ff" stroke="#63b8ff" points="669.18,-56.36 664.37,-65.8 674.02,-61.42 669.18,-56.36"/>
</a>
</g>
</g>
<!-- Node8 -->
<g id="Node000008" class="node">
<title>Node8</title>
<g id="a_Node000008"><a xlink:href="sd__xroot__ns__cred_8c.html" target="_top" xlink:title=" ">
<polygon fill="white" stroke="#666666" points="907,-30 792,-30 792,0 907,0 907,-30"/>
<text text-anchor="start" x="800" y="-18" font-family="Helvetica,sans-Serif" font-size="10.00">src/fs/backend/xroot</text>
<text text-anchor="middle" x="849.5" y="-7" font-family="Helvetica,sans-Serif" font-size="10.00">/sd_xroot_ns_cred.c</text>
</a>
</g>
</g>
<!-- Node4&#45;&gt;Node8 -->
<g id="edge8_Node000004_Node000008" class="edge">
<title>Node4&#45;&gt;Node8</title>
<g id="a_edge8_Node000004_Node000008"><a xlink:title=" ">
<path fill="none" stroke="#63b8ff" d="M703.07,-62.86C735.19,-52.58 775.51,-39.68 805.71,-30.01"/>
<polygon fill="#63b8ff" stroke="#63b8ff" points="701.85,-59.57 693.39,-65.95 703.98,-66.24 701.85,-59.57"/>
</a>
</g>
</g>
<!-- Node9 -->
<g id="Node000009" class="node">
<title>Node9</title>
<g id="a_Node000009"><a xlink:href="sd__xroot__ns__dir_8c.html" target="_top" xlink:title=" ">
<polygon fill="white" stroke="#666666" points="1040,-30 925,-30 925,0 1040,0 1040,-30"/>
<text text-anchor="start" x="933" y="-18" font-family="Helvetica,sans-Serif" font-size="10.00">src/fs/backend/xroot</text>
<text text-anchor="middle" x="982.5" y="-7" font-family="Helvetica,sans-Serif" font-size="10.00">/sd_xroot_ns_dir.c</text>
</a>
</g>
</g>
<!-- Node4&#45;&gt;Node9 -->
<g id="edge9_Node000004_Node000009" class="edge">
<title>Node4&#45;&gt;Node9</title>
<g id="a_edge9_Node000004_Node000009"><a xlink:title=" ">
<path fill="none" stroke="#63b8ff" d="M713.16,-68.41C767.09,-58.5 846.44,-43.71 915.5,-30 918.53,-29.4 921.64,-28.77 924.77,-28.14"/>
<polygon fill="#63b8ff" stroke="#63b8ff" points="712.26,-65.01 703.06,-70.26 713.53,-71.9 712.26,-65.01"/>
</a>
</g>
</g>
<!-- Node10 -->
<g id="Node000010" class="node">
<title>Node10</title>
<g id="a_Node000010"><a xlink:href="ftp__module__gsi_8c.html" target="_top" xlink:title=" ">
<polygon fill="white" stroke="#666666" points="238,-30 125,-30 125,0 238,0 238,-30"/>
<text text-anchor="start" x="133" y="-18" font-family="Helvetica,sans-Serif" font-size="10.00">src/protocols/gridftp</text>
<text text-anchor="middle" x="181.5" y="-7" font-family="Helvetica,sans-Serif" font-size="10.00">/ftp_module_gsi.c</text>
</a>
</g>
</g>
<!-- Node4&#45;&gt;Node10 -->
<g id="edge10_Node000004_Node000010" class="edge">
<title>Node4&#45;&gt;Node10</title>
<g id="a_edge10_Node000004_Node000010"><a xlink:title=" ">
<path fill="none" stroke="#63b8ff" d="M585.9,-66.71C584.42,-66.46 582.95,-66.23 581.5,-66 433.99,-42.92 394.94,-53.52 247.5,-30 244.49,-29.52 241.42,-28.99 238.31,-28.43"/>
<polygon fill="#63b8ff" stroke="#63b8ff" points="585.31,-70.16 595.76,-68.44 586.52,-63.27 585.31,-70.16"/>
</a>
</g>
</g>
<!-- Node11 -->
<g id="Node000011" class="node">
<title>Node11</title>
<g id="a_Node000011"><a xlink:href="auth__store_8c.html" target="_top" xlink:title=" ">
<polygon fill="white" stroke="#666666" points="376.5,-30 256.5,-30 256.5,0 376.5,0 376.5,-30"/>
<text text-anchor="start" x="264.5" y="-18" font-family="Helvetica,sans-Serif" font-size="10.00">src/protocols/webdav</text>
<text text-anchor="middle" x="316.5" y="-7" font-family="Helvetica,sans-Serif" font-size="10.00">/auth_store.c</text>
</a>
</g>
</g>
<!-- Node4&#45;&gt;Node11 -->
<g id="edge11_Node000004_Node000011" class="edge">
<title>Node4&#45;&gt;Node11</title>
<g id="a_edge11_Node000004_Node000011"><a xlink:title=" ">
<path fill="none" stroke="#63b8ff" d="M585.87,-66.86C584.4,-66.57 582.94,-66.28 581.5,-66 494.57,-49.07 472.46,-46.81 385.5,-30 382.62,-29.44 379.67,-28.87 376.7,-28.28"/>
<polygon fill="#63b8ff" stroke="#63b8ff" points="585.21,-70.29 595.7,-68.81 586.58,-63.43 585.21,-70.29"/>
</a>
</g>
</g>
<!-- Node14&#45;&gt;Node12 -->
<g id="edge15_Node000014_Node000012" class="edge">
<title>Node14&#45;&gt;Node12</title>
<g id="a_edge15_Node000014_Node000012"><a xlink:title=" ">
<path fill="none" stroke="#63b8ff" d="M1205.13,-61.38C1185.57,-51.36 1161.85,-39.22 1143.87,-30.01"/>
<polygon fill="#63b8ff" stroke="#63b8ff" points="1203.57,-64.51 1214.07,-65.95 1206.76,-58.28 1203.57,-64.51"/>
</a>
</g>
</g>
<!-- Node14&#45;&gt;Node13 -->
<g id="edge16_Node000014_Node000013" class="edge">
<title>Node14&#45;&gt;Node13</title>
<g id="a_edge16_Node000014_Node000013"><a xlink:title=" ">
<path fill="none" stroke="#63b8ff" d="M1247.54,-55.83C1249.71,-47.17 1252.08,-37.7 1253.96,-30.16"/>
<polygon fill="#63b8ff" stroke="#63b8ff" points="1244.08,-55.25 1245.05,-65.8 1250.87,-56.94 1244.08,-55.25"/>
</a>
</g>
</g>
<!-- Node14&#45;&gt;Node15 -->
<g id="edge17_Node000014_Node000015" class="edge">
<title>Node14&#45;&gt;Node15</title>
<g id="a_edge17_Node000014_Node000015"><a xlink:title=" ">
<path fill="none" stroke="#63b8ff" d="M1285.52,-62.05C1310.4,-51.91 1341.03,-39.43 1364.13,-30.01"/>
<polygon fill="#63b8ff" stroke="#63b8ff" points="1283.89,-58.94 1275.95,-65.95 1286.54,-65.42 1283.89,-58.94"/>
</a>
</g>
</g>
</g>
</svg>

<g id="navigator" transform="translate(0 0)" fill="#404254">
  <rect fill="#f2f5e9" fill-opacity="0.5" stroke="#606060" stroke-width=".5" x="0" y="0" width="60" height="60"/>
  <use id="zoomplus" xlink:href="#zoomPlus" x="17" y="9" onmousedown="handleZoom(evt,'in')"/>
  <use id="zoomminus" xlink:href="#zoomMin" x="42" y="9" onmousedown="handleZoom(evt,'out')"/>
  <use id="reset" xlink:href="#resetDef" x="30" y="36" onmousedown="handleReset()"/>
   <use id="arrowup" xlink:href="#arrowUp" x="0" y="0" onmousedown="handlePan(0,-1)"/>
  <use id="arrowright" xlink:href="#arrowRight" x="0" y="0" onmousedown="handlePan(1,0)"/>
  <use id="arrowdown" xlink:href="#arrowDown" x="0" y="0" onmousedown="handlePan(0,1)"/>
  <use id="arrowleft" xlink:href="#arrowLeft" x="0" y="0" onmousedown="handlePan(-1,0)"/>
</g>
<svg viewBox="0 0 15 15" width="100%" height="30px" preserveAspectRatio="xMaxYMin meet">
 <g id="arrow_out" transform="scale(0.3 0.3)">
  <a xlink:href="store__policy_8h__dep__incl_org.svg" target="_base">
   <rect id="button" ry="5" rx="5" y="6" x="6" height="38" width="38"
        fill="#f2f5e9" fill-opacity="0.5" stroke="#606060" stroke-width="1.0"/>
   <path id="arrow"
     d="M 11.500037,31.436501 C 11.940474,20.09759 22.043105,11.32322 32.158766,21.979434 L 37.068811,17.246167 C 37.068811,17.246167 37.088388,32 37.088388,32 L 22.160133,31.978069 C 22.160133,31.978069 26.997745,27.140456 26.997745,27.140456 C 18.528582,18.264221 13.291696,25.230495 11.500037,31.436501 z"
     style="fill:#404040;"/>
  </a>
 </g>
</svg>

<style type='text/css'>
<![CDATA[
[data-mouse-over-selected='false'] { opacity: 0.7; }
[data-mouse-over-selected='true']  { opacity: 1.0; }
]]>
</style>
<script type="application/ecmascript"><![CDATA[
document.addEventListener('DOMContentLoaded', (event) => {
  highlightEdges();
  highlightAdjacentNodes();
});
]]></script>
</svg>
