<?xml version="1.0" encoding="UTF-8" standalone="no"?>
<!DOCTYPE svg PUBLIC "-//W3C//DTD SVG 1.1//EN"
 "http://www.w3.org/Graphics/SVG/1.1/DTD/svg11.dtd">
<!-- Generated by graphviz version 2.43.0 (0)
 -->
<!-- Title: src/core/compat/str_dup.h Pages: 1 -->
<svg width="462pt" height="93pt"
 viewBox="0.00 0.00 462.00 93.00" xmlns="http://www.w3.org/2000/svg" xmlns:xlink="http://www.w3.org/1999/xlink">
<g id="graph0" class="graph" transform="scale(1 1) rotate(0) translate(4 89)">
<title>src/core/compat/str_dup.h</title>
<!-- Node1 -->
<g id="Node000001" class="node">
<title>Node1</title>
<g id="a_Node000001"><a xlink:title=" ">
<polygon fill="#999999" stroke="#666666" points="286,-85 176,-85 176,-55 286,-55 286,-85"/>
<text text-anchor="start" x="184" y="-73" font-family="Helvetica,sans-Serif" font-size="10.00">src/core/compat/str</text>
<text text-anchor="middle" x="231" y="-62" font-family="Helvetica,sans-Serif" font-size="10.00">_dup.h</text>
</a>
</g>
</g>
<!-- Node2 -->
<g id="Node000002" class="node">
<title>Node2</title>
<g id="a_Node000002"><a xlink:href="fs_2cache_2directives_8c.html" target="_top" xlink:title=" ">
<polygon fill="white" stroke="#666666" points="134,-19 0,-19 0,0 134,0 134,-19"/>
<text text-anchor="middle" x="67" y="-7" font-family="Helvetica,sans-Serif" font-size="10.00">src/fs/cache/directives.c</text>
</a>
</g>
</g>
<!-- Node1&#45;&gt;Node2 -->
<g id="edge1_Node000001_Node000002" class="edge">
<title>Node1&#45;&gt;Node2</title>
<g id="a_edge1_Node000001_Node000002"><a xlink:title=" ">
<path fill="none" stroke="#63b8ff" d="M182.25,-51.61C152.25,-40.91 115.09,-27.65 91.22,-19.14"/>
<polygon fill="#63b8ff" stroke="#63b8ff" points="181.12,-54.92 191.72,-54.99 183.48,-48.33 181.12,-54.92"/>
</a>
</g>
</g>
<!-- Node3 -->
<g id="Node000003" class="node">
<title>Node3</title>
<g id="a_Node000003"><a xlink:href="net_2upstream_2directives_8c.html" target="_top" xlink:title=" ">
<polygon fill="white" stroke="#666666" points="310,-19 152,-19 152,0 310,0 310,-19"/>
<text text-anchor="middle" x="231" y="-7" font-family="Helvetica,sans-Serif" font-size="10.00">src/net/upstream/directives.c</text>
</a>
</g>
</g>
<!-- Node1&#45;&gt;Node3 -->
<g id="edge2_Node000001_Node000003" class="edge">
<title>Node1&#45;&gt;Node3</title>
<g id="a_edge2_Node000001_Node000003"><a xlink:title=" ">
<path fill="none" stroke="#63b8ff" d="M231,-44.75C231,-35.72 231,-26.03 231,-19.27"/>
<polygon fill="#63b8ff" stroke="#63b8ff" points="227.5,-44.84 231,-54.84 234.5,-44.84 227.5,-44.84"/>
</a>
</g>
</g>
<!-- Node4 -->
<g id="Node000004" class="node">
<title>Node4</title>
<g id="a_Node000004"><a xlink:href="src_2protocols_2s3_2copy_8c.html" target="_top" xlink:title=" ">
<polygon fill="white" stroke="#666666" points="454,-19 328,-19 328,0 454,0 454,-19"/>
<text text-anchor="middle" x="391" y="-7" font-family="Helvetica,sans-Serif" font-size="10.00">src/protocols/s3/copy.c</text>
</a>
</g>
</g>
<!-- Node1&#45;&gt;Node4 -->
<g id="edge3_Node000001_Node000004" class="edge">
<title>Node1&#45;&gt;Node4</title>
<g id="a_edge3_Node000001_Node000004"><a xlink:title=" ">
<path fill="none" stroke="#63b8ff" d="M278.94,-51.47C308.14,-40.79 344.18,-27.62 367.37,-19.14"/>
<polygon fill="#63b8ff" stroke="#63b8ff" points="277.51,-48.27 269.32,-54.99 279.92,-54.84 277.51,-48.27"/>
</a>
</g>
</g>
</g>
</svg>
