<?xml version="1.0" encoding="UTF-8" standalone="no"?>
<!DOCTYPE svg PUBLIC "-//W3C//DTD SVG 1.1//EN"
 "http://www.w3.org/Graphics/SVG/1.1/DTD/svg11.dtd">
<!-- Generated by graphviz version 2.43.0 (0)
 -->
<!-- Title: src/net/mirror/stream_wmirror.h Pages: 1 -->
<svg width="561pt" height="115pt"
 viewBox="0.00 0.00 561.00 115.00" xmlns="http://www.w3.org/2000/svg" xmlns:xlink="http://www.w3.org/1999/xlink">
<g id="graph0" class="graph" transform="scale(1 1) rotate(0) translate(4 111)">
<title>src/net/mirror/stream_wmirror.h</title>
<!-- Node1 -->
<g id="Node000001" class="node">
<title>Node1</title>
<g id="a_Node000001"><a xlink:title=" ">
<polygon fill="#999999" stroke="#666666" points="341,-107 221,-107 221,-77 341,-77 341,-107"/>
<text text-anchor="start" x="229" y="-95" font-family="Helvetica,sans-Serif" font-size="10.00">src/net/mirror/stream</text>
<text text-anchor="middle" x="281" y="-84" font-family="Helvetica,sans-Serif" font-size="10.00">_wmirror.h</text>
</a>
</g>
</g>
<!-- Node2 -->
<g id="Node000002" class="node">
<title>Node2</title>
<g id="a_Node000002"><a xlink:href="stream__wmirror_8c.html" target="_top" xlink:title=" ">
<polygon fill="white" stroke="#666666" points="120,-35.5 0,-35.5 0,-5.5 120,-5.5 120,-35.5"/>
<text text-anchor="start" x="8" y="-23.5" font-family="Helvetica,sans-Serif" font-size="10.00">src/net/mirror/stream</text>
<text text-anchor="middle" x="60" y="-12.5" font-family="Helvetica,sans-Serif" font-size="10.00">_wmirror.c</text>
</a>
</g>
</g>
<!-- Node1&#45;&gt;Node2 -->
<g id="edge1_Node000001_Node000002" class="edge">
<title>Node1&#45;&gt;Node2</title>
<g id="a_edge1_Node000001_Node000002"><a xlink:title=" ">
<path fill="none" stroke="#63b8ff" d="M226.52,-73.87C189.03,-62.08 139.84,-46.61 104.66,-35.54"/>
<polygon fill="#63b8ff" stroke="#63b8ff" points="225.69,-77.27 236.28,-76.94 227.79,-70.6 225.69,-77.27"/>
</a>
</g>
</g>
<!-- Node3 -->
<g id="Node000003" class="node">
<title>Node3</title>
<g id="a_Node000003"><a xlink:href="disconnect_8c.html" target="_top" xlink:title=" ">
<polygon fill="white" stroke="#666666" points="275.5,-35.5 138.5,-35.5 138.5,-5.5 275.5,-5.5 275.5,-35.5"/>
<text text-anchor="start" x="146.5" y="-23.5" font-family="Helvetica,sans-Serif" font-size="10.00">src/protocols/root</text>
<text text-anchor="middle" x="207" y="-12.5" font-family="Helvetica,sans-Serif" font-size="10.00">/connection/disconnect.c</text>
</a>
</g>
</g>
<!-- Node1&#45;&gt;Node3 -->
<g id="edge2_Node000001_Node000003" class="edge">
<title>Node1&#45;&gt;Node3</title>
<g id="a_edge2_Node000001_Node000003"><a xlink:title=" ">
<path fill="none" stroke="#63b8ff" d="M258.63,-69.99C246.75,-58.84 232.48,-45.43 221.95,-35.54"/>
<polygon fill="#63b8ff" stroke="#63b8ff" points="256.34,-72.64 266.02,-76.94 261.13,-67.54 256.34,-72.64"/>
</a>
</g>
</g>
<!-- Node4 -->
<g id="Node000004" class="node">
<title>Node4</title>
<g id="a_Node000004"><a xlink:href="root_2handshake_2dispatch_8c.html" target="_top" xlink:title=" ">
<polygon fill="white" stroke="#666666" points="418.5,-35.5 293.5,-35.5 293.5,-5.5 418.5,-5.5 418.5,-35.5"/>
<text text-anchor="start" x="301.5" y="-23.5" font-family="Helvetica,sans-Serif" font-size="10.00">src/protocols/root</text>
<text text-anchor="middle" x="356" y="-12.5" font-family="Helvetica,sans-Serif" font-size="10.00">/handshake/dispatch.c</text>
</a>
</g>
</g>
<!-- Node1&#45;&gt;Node4 -->
<g id="edge3_Node000001_Node000004" class="edge">
<title>Node1&#45;&gt;Node4</title>
<g id="a_edge3_Node000001_Node000004"><a xlink:title=" ">
<path fill="none" stroke="#63b8ff" d="M303.67,-69.99C315.71,-58.84 330.18,-45.43 340.85,-35.54"/>
<polygon fill="#63b8ff" stroke="#63b8ff" points="301.13,-67.57 296.18,-76.94 305.89,-72.71 301.13,-67.57"/>
</a>
</g>
</g>
<!-- Node5 -->
<g id="Node000005" class="node">
<title>Node5</title>
<g id="a_Node000005"><a xlink:href="open__resolved__file_8c.html" target="_top" xlink:title=" ">
<polygon fill="white" stroke="#666666" points="553,-41 437,-41 437,0 553,0 553,-41"/>
<text text-anchor="start" x="445" y="-29" font-family="Helvetica,sans-Serif" font-size="10.00">src/protocols/root</text>
<text text-anchor="start" x="445" y="-18" font-family="Helvetica,sans-Serif" font-size="10.00">/read/open_resolved</text>
<text text-anchor="middle" x="495" y="-7" font-family="Helvetica,sans-Serif" font-size="10.00">_file.c</text>
</a>
</g>
</g>
<!-- Node1&#45;&gt;Node5 -->
<g id="edge4_Node000001_Node000005" class="edge">
<title>Node1&#45;&gt;Node5</title>
<g id="a_edge4_Node000001_Node000005"><a xlink:title=" ">
<path fill="none" stroke="#63b8ff" d="M334.12,-73.75C365.29,-63.62 404.73,-50.82 436.75,-40.42"/>
<polygon fill="#63b8ff" stroke="#63b8ff" points="332.74,-70.52 324.31,-76.94 334.9,-77.18 332.74,-70.52"/>
</a>
</g>
</g>
</g>
</svg>
