<?xml version="1.0" encoding="UTF-8" standalone="no"?>
<!DOCTYPE svg PUBLIC "-//W3C//DTD SVG 1.1//EN"
 "http://www.w3.org/Graphics/SVG/1.1/DTD/svg11.dtd">
<!-- Generated by graphviz version 2.43.0 (0)
 -->
<!-- Title: brix_ssi_session_t Pages: 1 -->
<svg width="230pt" height="159pt"
 viewBox="0.00 0.00 230.00 159.00" xmlns="http://www.w3.org/2000/svg" xmlns:xlink="http://www.w3.org/1999/xlink">
<g id="graph0" class="graph" transform="scale(1 1) rotate(0) translate(4 155)">
<title>brix_ssi_session_t</title>
<!-- Node1 -->
<g id="Node000001" class="node">
<title>Node1</title>
<g id="a_Node000001"><a xlink:title=" ">
<polygon fill="#999999" stroke="#666666" points="140,-19 35,-19 35,0 140,0 140,-19"/>
<text text-anchor="middle" x="87.5" y="-7" font-family="Helvetica,sans-Serif" font-size="10.00">brix_ssi_session_t</text>
</a>
</g>
</g>
<!-- Node2 -->
<g id="Node000002" class="node">
<title>Node2</title>
<g id="a_Node000002"><a xlink:href="structbrix__ssi__provider__t.html" target="_top" xlink:title=" ">
<polygon fill="white" stroke="#666666" points="109,-85 0,-85 0,-66 109,-66 109,-85"/>
<text text-anchor="middle" x="54.5" y="-73" font-family="Helvetica,sans-Serif" font-size="10.00">brix_ssi_provider_t</text>
</a>
</g>
</g>
<!-- Node2&#45;&gt;Node1 -->
<g id="edge1_Node000001_Node000002" class="edge">
<title>Node2&#45;&gt;Node1</title>
<g id="a_edge1_Node000001_Node000002"><a xlink:title=" ">
<path fill="none" stroke="#9a32cd" stroke-dasharray="5,2" d="M63.69,-56.68C69.94,-44.55 77.96,-29.01 82.91,-19.41"/>
<polygon fill="#9a32cd" stroke="#9a32cd" points="60.42,-55.38 58.95,-65.87 66.64,-58.58 60.42,-55.38"/>
</a>
</g>
<text text-anchor="middle" x="95.5" y="-40" font-family="Helvetica,sans-Serif" font-size="10.00" fill="grey"> provider</text>
</g>
<!-- Node3 -->
<g id="Node000003" class="node">
<title>Node3</title>
<g id="a_Node000003"><a xlink:href="structbrix__ssi__req__t.html" target="_top" xlink:title=" ">
<polygon fill="white" stroke="#666666" points="211.5,-85 127.5,-85 127.5,-66 211.5,-66 211.5,-85"/>
<text text-anchor="middle" x="169.5" y="-73" font-family="Helvetica,sans-Serif" font-size="10.00">brix_ssi_req_t</text>
</a>
</g>
</g>
<!-- Node3&#45;&gt;Node1 -->
<g id="edge2_Node000001_Node000003" class="edge">
<title>Node3&#45;&gt;Node1</title>
<g id="a_edge2_Node000001_Node000003"><a xlink:title=" ">
<path fill="none" stroke="#9a32cd" stroke-dasharray="5,2" d="M150.35,-59.53C141.56,-52.66 131,-44.42 121.5,-37 113.83,-31.01 105.18,-24.27 98.53,-19.09"/>
<polygon fill="#9a32cd" stroke="#9a32cd" points="148.41,-62.46 158.45,-65.86 152.72,-56.94 148.41,-62.46"/>
</a>
</g>
<text text-anchor="middle" x="140" y="-40" font-family="Helvetica,sans-Serif" font-size="10.00" fill="grey"> rr</text>
</g>
<!-- Node4 -->
<g id="Node000004" class="node">
<title>Node4</title>
<g id="a_Node000004"><a xlink:href="structbrix__ssi__respbuf__t.html" target="_top" xlink:title=" ">
<polygon fill="white" stroke="#666666" points="222,-151 117,-151 117,-132 222,-132 222,-151"/>
<text text-anchor="middle" x="169.5" y="-139" font-family="Helvetica,sans-Serif" font-size="10.00">brix_ssi_respbuf_t</text>
</a>
</g>
</g>
<!-- Node4&#45;&gt;Node3 -->
<g id="edge3_Node000003_Node000004" class="edge">
<title>Node4&#45;&gt;Node3</title>
<g id="a_edge3_Node000003_Node000004"><a xlink:title=" ">
<path fill="none" stroke="#9a32cd" stroke-dasharray="5,2" d="M169.5,-121.58C169.5,-109.63 169.5,-94.72 169.5,-85.41"/>
<polygon fill="#9a32cd" stroke="#9a32cd" points="166,-121.87 169.5,-131.87 173,-121.87 166,-121.87"/>
</a>
</g>
<text text-anchor="middle" x="182" y="-106" font-family="Helvetica,sans-Serif" font-size="10.00" fill="grey"> resp</text>
</g>
</g>
</svg>
