<?xml version="1.0" encoding="UTF-8" standalone="no"?>
<!DOCTYPE svg PUBLIC "-//W3C//DTD SVG 1.1//EN"
 "http://www.w3.org/Graphics/SVG/1.1/DTD/svg11.dtd">
<!-- Generated by graphviz version 2.43.0 (0)
 -->
<!-- Title: cmd Pages: 1 -->
<svg width="607pt" height="379pt"
 viewBox="0.00 0.00 607.00 379.00" xmlns="http://www.w3.org/2000/svg" xmlns:xlink="http://www.w3.org/1999/xlink">
<g id="graph0" class="graph" transform="scale(1 1) rotate(0) translate(4 375)">
<title>cmd</title>
<!-- Node1 -->
<g id="Node000001" class="node">
<title>Node1</title>
<g id="a_Node000001"><a xlink:title=" ">
<polygon fill="#999999" stroke="#666666" points="365,-173 327,-173 327,-154 365,-154 365,-173"/>
<text text-anchor="middle" x="346" y="-161" font-family="Helvetica,sans-Serif" font-size="10.00">cmd</text>
</a>
</g>
</g>
<!-- Node1&#45;&gt;Node1 -->
<g id="edge24_Node000001_Node000001" class="edge">
<title>Node1&#45;&gt;Node1</title>
<g id="a_edge24_Node000001_Node000001"><a xlink:title=" ">
<path fill="none" stroke="#9a32cd" stroke-dasharray="5,2" d="M375.25,-169.01C379.86,-168.19 383,-166.36 383,-163.5 383,-158.81 374.53,-156.87 365.04,-157.68"/>
<polygon fill="#9a32cd" stroke="#9a32cd" points="374.93,-165.52 365.04,-169.32 375.14,-172.51 374.93,-165.52"/>
</a>
</g>
<text text-anchor="middle" x="395.5" y="-161" font-family="Helvetica,sans-Serif" font-size="10.00" fill="grey"> next</text>
</g>
<!-- Node3 -->
<g id="Node000003" class="node">
<title>Node3</title>
<g id="a_Node000003"><a xlink:href="structbrix__loop.html" target="_top" xlink:title=" ">
<polygon fill="white" stroke="#666666" points="357,-96 295,-96 295,-77 357,-77 357,-96"/>
<text text-anchor="middle" x="326" y="-84" font-family="Helvetica,sans-Serif" font-size="10.00">brix_loop</text>
</a>
</g>
</g>
<!-- Node1&#45;&gt;Node3 -->
<g id="edge3_Node000003_Node000001" class="edge">
<title>Node1&#45;&gt;Node3</title>
<g id="a_edge3_Node000003_Node000001"><a xlink:title=" ">
<path fill="none" stroke="#9a32cd" stroke-dasharray="5,2" d="M337.91,-144.44C336.84,-141.64 335.82,-138.77 335,-136 330.96,-122.37 328.37,-106.02 327.06,-96.22"/>
<polygon fill="#9a32cd" stroke="#9a32cd" points="334.76,-145.97 341.86,-153.83 341.22,-143.26 334.76,-145.97"/>
</a>
</g>
<text text-anchor="middle" x="357" y="-128" font-family="Helvetica,sans-Serif" font-size="10.00" fill="grey"> cq_head</text>
<text text-anchor="middle" x="357" y="-117" font-family="Helvetica,sans-Serif" font-size="10.00" fill="grey">cq_tail</text>
</g>
<!-- Node2 -->
<g id="Node000002" class="node">
<title>Node2</title>
<g id="a_Node000002"><a xlink:href="structbrix__aconn.html" target="_top" xlink:title=" ">
<polygon fill="white" stroke="#666666" points="401,-19 331,-19 331,0 401,0 401,-19"/>
<text text-anchor="middle" x="366" y="-7" font-family="Helvetica,sans-Serif" font-size="10.00">brix_aconn</text>
</a>
</g>
</g>
<!-- Node2&#45;&gt;Node1 -->
<g id="edge1_Node000001_Node000002" class="edge">
<title>Node2&#45;&gt;Node1</title>
<g id="a_edge1_Node000001_Node000002"><a xlink:title=" ">
<path fill="none" stroke="#9a32cd" stroke-dasharray="5,2" d="M376.21,-28.6C377.36,-31.35 378.35,-34.2 379,-37 388.95,-79.86 398.02,-96.33 379,-136 375.44,-143.42 368.68,-149.42 362.2,-153.82"/>
<polygon fill="#9a32cd" stroke="#9a32cd" points="379.24,-26.84 371.66,-19.43 372.97,-29.95 379.24,-26.84"/>
</a>
</g>
<text text-anchor="middle" x="398.5" y="-84" font-family="Helvetica,sans-Serif" font-size="10.00" fill="grey"> ac</text>
</g>
<!-- Node2&#45;&gt;Node2 -->
<g id="edge22_Node000002_Node000002" class="edge">
<title>Node2&#45;&gt;Node2</title>
<g id="a_edge22_Node000002_Node000002"><a xlink:title=" ">
<path fill="none" stroke="#9a32cd" stroke-dasharray="5,2" d="M411.23,-15.4C415.97,-14.25 419,-12.28 419,-9.5 419,-5.05 411.24,-2.68 401.17,-2.4"/>
<polygon fill="#9a32cd" stroke="#9a32cd" points="410.69,-11.94 401.17,-16.6 411.51,-18.9 410.69,-11.94"/>
</a>
</g>
<text text-anchor="middle" x="431.5" y="-7" font-family="Helvetica,sans-Serif" font-size="10.00" fill="grey"> next</text>
</g>
<!-- Node2&#45;&gt;Node3 -->
<g id="edge4_Node000003_Node000002" class="edge">
<title>Node2&#45;&gt;Node3</title>
<g id="a_edge4_Node000003_Node000002"><a xlink:title=" ">
<path fill="none" stroke="#9a32cd" stroke-dasharray="5,2" d="M348.56,-26.72C345.75,-29.93 343.09,-33.41 341,-37 333.54,-49.79 329.41,-66.68 327.45,-76.78"/>
<polygon fill="#9a32cd" stroke="#9a32cd" points="351.15,-29.07 355.57,-19.44 346.11,-24.21 351.15,-29.07"/>
</a>
</g>
<text text-anchor="middle" x="360" y="-45.5" font-family="Helvetica,sans-Serif" font-size="10.00" fill="grey"> aconns</text>
</g>
<!-- Node3&#45;&gt;Node2 -->
<g id="edge2_Node000002_Node000003" class="edge">
<title>Node3&#45;&gt;Node2</title>
<g id="a_edge2_Node000002_Node000003"><a xlink:title=" ">
<path fill="none" stroke="#9a32cd" stroke-dasharray="5,2" d="M301.71,-70.41C298.18,-67.11 295.06,-63.29 293,-59 288.77,-50.18 287.39,-45.01 293,-37 301.67,-24.63 316.72,-18.02 330.92,-14.48"/>
<polygon fill="#9a32cd" stroke="#9a32cd" points="299.79,-73.35 309.8,-76.82 304.14,-67.87 299.79,-73.35"/>
</a>
</g>
<text text-anchor="middle" x="305.5" y="-45.5" font-family="Helvetica,sans-Serif" font-size="10.00" fill="grey"> loop</text>
</g>
<!-- Node4 -->
<g id="Node000004" class="node">
<title>Node4</title>
<g id="a_Node000004"><a xlink:href="structbrix__conn.html" target="_top" xlink:title=" ">
<polygon fill="white" stroke="#666666" points="207,-96 143,-96 143,-77 207,-77 207,-96"/>
<text text-anchor="middle" x="175" y="-84" font-family="Helvetica,sans-Serif" font-size="10.00">brix_conn</text>
</a>
</g>
</g>
<!-- Node4&#45;&gt;Node2 -->
<g id="edge5_Node000002_Node000004" class="edge">
<title>Node4&#45;&gt;Node2</title>
<g id="a_edge5_Node000002_Node000004"><a xlink:title=" ">
<path fill="none" stroke="#9a32cd" stroke-dasharray="5,2" d="M185.93,-68.12C193.59,-57.43 204.79,-44.41 218,-37 253.06,-17.33 299.49,-11.74 330.93,-10.4"/>
<polygon fill="#9a32cd" stroke="#9a32cd" points="182.83,-66.46 180.15,-76.71 188.64,-70.36 182.83,-66.46"/>
</a>
</g>
<text text-anchor="middle" x="231.5" y="-45.5" font-family="Helvetica,sans-Serif" font-size="10.00" fill="grey"> conn</text>
</g>
<!-- Node5 -->
<g id="Node000005" class="node">
<title>Node5</title>
<g id="a_Node000005"><a xlink:href="structbrix__io.html" target="_top" xlink:title=" ">
<polygon fill="white" stroke="#666666" points="126,-173 76,-173 76,-154 126,-154 126,-173"/>
<text text-anchor="middle" x="101" y="-161" font-family="Helvetica,sans-Serif" font-size="10.00">brix_io</text>
</a>
</g>
</g>
<!-- Node5&#45;&gt;Node4 -->
<g id="edge6_Node000004_Node000005" class="edge">
<title>Node5&#45;&gt;Node4</title>
<g id="a_edge6_Node000004_Node000005"><a xlink:title=" ">
<path fill="none" stroke="#9a32cd" stroke-dasharray="5,2" d="M116.7,-146.59C131.95,-131.13 154.51,-108.27 166.61,-96"/>
<polygon fill="#9a32cd" stroke="#9a32cd" points="114.02,-144.32 109.49,-153.9 119,-149.24 114.02,-144.32"/>
</a>
</g>
<text text-anchor="middle" x="153.5" y="-122.5" font-family="Helvetica,sans-Serif" font-size="10.00" fill="grey"> io</text>
</g>
<!-- Node6 -->
<g id="Node000006" class="node">
<title>Node6</title>
<g id="a_Node000006"><a xlink:href="structbrix__opts.html" target="_top" xlink:title=" ">
<polygon fill="white" stroke="#666666" points="206,-173 144,-173 144,-154 206,-154 206,-173"/>
<text text-anchor="middle" x="175" y="-161" font-family="Helvetica,sans-Serif" font-size="10.00">brix_opts</text>
</a>
</g>
</g>
<!-- Node6&#45;&gt;Node4 -->
<g id="edge7_Node000004_Node000006" class="edge">
<title>Node6&#45;&gt;Node4</title>
<g id="a_edge7_Node000004_Node000006"><a xlink:title=" ">
<path fill="none" stroke="#9a32cd" stroke-dasharray="5,2" d="M175,-143.52C175,-128.24 175,-107.48 175,-96"/>
<polygon fill="#9a32cd" stroke="#9a32cd" points="171.5,-143.9 175,-153.9 178.5,-143.9 171.5,-143.9"/>
</a>
</g>
<text text-anchor="middle" x="187.5" y="-122.5" font-family="Helvetica,sans-Serif" font-size="10.00" fill="grey"> opts</text>
</g>
<!-- Node7 -->
<g id="Node000007" class="node">
<title>Node7</title>
<g id="a_Node000007"><a xlink:href="structbrix__cred__store.html" target="_top" xlink:title=" ">
<polygon fill="white" stroke="#666666" points="212,-239 120,-239 120,-220 212,-220 212,-239"/>
<text text-anchor="middle" x="166" y="-227" font-family="Helvetica,sans-Serif" font-size="10.00">brix_cred_store</text>
</a>
</g>
</g>
<!-- Node7&#45;&gt;Node6 -->
<g id="edge8_Node000006_Node000007" class="edge">
<title>Node7&#45;&gt;Node6</title>
<g id="a_edge8_Node000006_Node000007"><a xlink:title=" ">
<path fill="none" stroke="#9a32cd" stroke-dasharray="5,2" d="M168.61,-209.95C170.3,-197.93 172.42,-182.82 173.75,-173.41"/>
<polygon fill="#9a32cd" stroke="#9a32cd" points="165.14,-209.48 167.21,-219.87 172.07,-210.45 165.14,-209.48"/>
</a>
</g>
<text text-anchor="middle" x="184.5" y="-194" font-family="Helvetica,sans-Serif" font-size="10.00" fill="grey"> cred</text>
</g>
<!-- Node8 -->
<g id="Node000008" class="node">
<title>Node8</title>
<g id="a_Node000008"><a xlink:href="structbrix__cred__config.html" target="_top" xlink:title=" ">
<polygon fill="white" stroke="#666666" points="96,-305 0,-305 0,-286 96,-286 96,-305"/>
<text text-anchor="middle" x="48" y="-293" font-family="Helvetica,sans-Serif" font-size="10.00">brix_cred_config</text>
</a>
</g>
</g>
<!-- Node8&#45;&gt;Node7 -->
<g id="edge9_Node000007_Node000008" class="edge">
<title>Node8&#45;&gt;Node7</title>
<g id="a_edge9_Node000007_Node000008"><a xlink:title=" ">
<path fill="none" stroke="#9a32cd" stroke-dasharray="5,2" d="M72.84,-281.03C96.08,-268.42 130.11,-249.97 149.96,-239.2"/>
<polygon fill="#9a32cd" stroke="#9a32cd" points="71.04,-278.02 63.91,-285.87 74.37,-284.18 71.04,-278.02"/>
</a>
</g>
<text text-anchor="middle" x="124.5" y="-260" font-family="Helvetica,sans-Serif" font-size="10.00" fill="grey"> cfg</text>
</g>
<!-- Node9 -->
<g id="Node000009" class="node">
<title>Node9</title>
<g id="a_Node000009"><a xlink:href="structbrix__cred__handler.html" target="_top" xlink:title=" ">
<polygon fill="white" stroke="#666666" points="218,-305 114,-305 114,-286 218,-286 218,-305"/>
<text text-anchor="middle" x="166" y="-293" font-family="Helvetica,sans-Serif" font-size="10.00">brix_cred_handler</text>
</a>
</g>
</g>
<!-- Node9&#45;&gt;Node7 -->
<g id="edge10_Node000007_Node000009" class="edge">
<title>Node9&#45;&gt;Node7</title>
<g id="a_edge10_Node000007_Node000009"><a xlink:title=" ">
<path fill="none" stroke="#9a32cd" stroke-dasharray="5,2" d="M166,-275.58C166,-263.63 166,-248.72 166,-239.41"/>
<polygon fill="#9a32cd" stroke="#9a32cd" points="162.5,-275.87 166,-285.87 169.5,-275.87 162.5,-275.87"/>
</a>
</g>
<text text-anchor="middle" x="189" y="-260" font-family="Helvetica,sans-Serif" font-size="10.00" fill="grey"> handlers</text>
</g>
<!-- Node10 -->
<g id="Node000010" class="node">
<title>Node10</title>
<g id="a_Node000010"><a xlink:href="structcred__slot.html" target="_top" xlink:title=" ">
<polygon fill="white" stroke="#666666" points="297.5,-305 236.5,-305 236.5,-286 297.5,-286 297.5,-305"/>
<text text-anchor="middle" x="267" y="-293" font-family="Helvetica,sans-Serif" font-size="10.00">cred_slot</text>
</a>
</g>
</g>
<!-- Node10&#45;&gt;Node7 -->
<g id="edge11_Node000007_Node000010" class="edge">
<title>Node10&#45;&gt;Node7</title>
<g id="a_edge11_Node000007_Node000010"><a xlink:title=" ">
<path fill="none" stroke="#9a32cd" stroke-dasharray="5,2" d="M248.44,-279.83C238.96,-272.61 227.12,-263.98 216,-257 205.68,-250.52 193.63,-244.1 183.94,-239.2"/>
<polygon fill="#9a32cd" stroke="#9a32cd" points="246.33,-282.63 256.38,-285.98 250.61,-277.09 246.33,-282.63"/>
</a>
</g>
<text text-anchor="middle" x="245.5" y="-260" font-family="Helvetica,sans-Serif" font-size="10.00" fill="grey"> slots</text>
</g>
<!-- Node11 -->
<g id="Node000011" class="node">
<title>Node11</title>
<g id="a_Node000011"><a xlink:href="structbrix__cred__view.html" target="_top" xlink:title=" ">
<polygon fill="white" stroke="#666666" points="312,-371 222,-371 222,-352 312,-352 312,-371"/>
<text text-anchor="middle" x="267" y="-359" font-family="Helvetica,sans-Serif" font-size="10.00">brix_cred_view</text>
</a>
</g>
</g>
<!-- Node11&#45;&gt;Node10 -->
<g id="edge12_Node000010_Node000011" class="edge">
<title>Node11&#45;&gt;Node10</title>
<g id="a_edge12_Node000010_Node000011"><a xlink:title=" ">
<path fill="none" stroke="#9a32cd" stroke-dasharray="5,2" d="M267,-341.58C267,-329.63 267,-314.72 267,-305.41"/>
<polygon fill="#9a32cd" stroke="#9a32cd" points="263.5,-341.87 267,-351.87 270.5,-341.87 263.5,-341.87"/>
</a>
</g>
<text text-anchor="middle" x="280.5" y="-326" font-family="Helvetica,sans-Serif" font-size="10.00" fill="grey"> view</text>
</g>
<!-- Node12 -->
<g id="Node000012" class="node">
<title>Node12</title>
<g id="a_Node000012"><a xlink:href="structbrix__diag.html" target="_top" xlink:title=" ">
<polygon fill="white" stroke="#666666" points="289,-173 227,-173 227,-154 289,-154 289,-173"/>
<text text-anchor="middle" x="258" y="-161" font-family="Helvetica,sans-Serif" font-size="10.00">brix_diag</text>
</a>
</g>
</g>
<!-- Node12&#45;&gt;Node4 -->
<g id="edge13_Node000004_Node000012" class="edge">
<title>Node12&#45;&gt;Node4</title>
<g id="a_edge13_Node000004_Node000012"><a xlink:title=" ">
<path fill="none" stroke="#9a32cd" stroke-dasharray="5,2" d="M240.86,-147.01C223.75,-131.55 198.1,-108.38 184.41,-96"/>
<polygon fill="#9a32cd" stroke="#9a32cd" points="238.71,-149.79 248.48,-153.9 243.41,-144.6 238.71,-149.79"/>
</a>
</g>
<text text-anchor="middle" x="239.5" y="-122.5" font-family="Helvetica,sans-Serif" font-size="10.00" fill="grey"> diag</text>
</g>
<!-- Node13 -->
<g id="Node000013" class="node">
<title>Node13</title>
<g id="a_Node000013"><a xlink:href="structbrix__capture.html" target="_top" xlink:title=" ">
<polygon fill="white" stroke="#666666" points="307.5,-239 230.5,-239 230.5,-220 307.5,-220 307.5,-239"/>
<text text-anchor="middle" x="269" y="-227" font-family="Helvetica,sans-Serif" font-size="10.00">brix_capture</text>
</a>
</g>
</g>
<!-- Node13&#45;&gt;Node12 -->
<g id="edge14_Node000012_Node000013" class="edge">
<title>Node13&#45;&gt;Node12</title>
<g id="a_edge14_Node000012_Node000013"><a xlink:title=" ">
<path fill="none" stroke="#9a32cd" stroke-dasharray="5,2" d="M265.81,-209.95C263.75,-197.93 261.15,-182.82 259.53,-173.41"/>
<polygon fill="#9a32cd" stroke="#9a32cd" points="262.37,-210.61 267.52,-219.87 269.27,-209.42 262.37,-210.61"/>
</a>
</g>
<text text-anchor="middle" x="275.5" y="-194" font-family="Helvetica,sans-Serif" font-size="10.00" fill="grey"> cap</text>
</g>
<!-- Node14 -->
<g id="Node000014" class="node">
<title>Node14</title>
<g id="a_Node000014"><a xlink:href="structxbuf.html" target="_top" xlink:title=" ">
<polygon fill="white" stroke="#666666" points="263,-96 225,-96 225,-77 263,-77 263,-96"/>
<text text-anchor="middle" x="244" y="-84" font-family="Helvetica,sans-Serif" font-size="10.00">xbuf</text>
</a>
</g>
</g>
<!-- Node14&#45;&gt;Node2 -->
<g id="edge15_Node000002_Node000014" class="edge">
<title>Node14&#45;&gt;Node2</title>
<g id="a_edge15_Node000002_Node000014"><a xlink:title=" ">
<path fill="none" stroke="#9a32cd" stroke-dasharray="5,2" d="M246.19,-66.98C248.33,-56.79 252.58,-44.69 261,-37 279.87,-19.75 308.33,-13.35 330.86,-11.14"/>
<polygon fill="#9a32cd" stroke="#9a32cd" points="242.71,-66.56 244.59,-76.98 249.62,-67.66 242.71,-66.56"/>
</a>
</g>
<text text-anchor="middle" x="273.5" y="-51" font-family="Helvetica,sans-Serif" font-size="10.00" fill="grey"> rbuf</text>
<text text-anchor="middle" x="273.5" y="-40" font-family="Helvetica,sans-Serif" font-size="10.00" fill="grey">wbuf</text>
</g>
<!-- Node15 -->
<g id="Node000015" class="node">
<title>Node15</title>
<g id="a_Node000015"><a xlink:href="structreqmap.html" target="_top" xlink:title=" ">
<polygon fill="white" stroke="#666666" points="597,-96 543,-96 543,-77 597,-77 597,-96"/>
<text text-anchor="middle" x="570" y="-84" font-family="Helvetica,sans-Serif" font-size="10.00">reqmap</text>
</a>
</g>
</g>
<!-- Node15&#45;&gt;Node2 -->
<g id="edge16_Node000002_Node000015" class="edge">
<title>Node15&#45;&gt;Node2</title>
<g id="a_edge16_Node000002_Node000015"><a xlink:title=" ">
<path fill="none" stroke="#9a32cd" stroke-dasharray="5,2" d="M551.67,-70.63C537.34,-59.73 516.47,-45.43 496,-37 465.33,-24.37 428.03,-17.56 401.26,-14.03"/>
<polygon fill="#9a32cd" stroke="#9a32cd" points="549.66,-73.5 559.69,-76.89 553.97,-67.98 549.66,-73.5"/>
</a>
</g>
<text text-anchor="middle" x="552.5" y="-45.5" font-family="Helvetica,sans-Serif" font-size="10.00" fill="grey"> inflight</text>
</g>
<!-- Node16 -->
<g id="Node000016" class="node">
<title>Node16</title>
<g id="a_Node000016"><a xlink:href="structbrix__areq.html" target="_top" xlink:title=" ">
<polygon fill="white" stroke="#666666" points="526,-173 464,-173 464,-154 526,-154 526,-173"/>
<text text-anchor="middle" x="495" y="-161" font-family="Helvetica,sans-Serif" font-size="10.00">brix_areq</text>
</a>
</g>
</g>
<!-- Node16&#45;&gt;Node2 -->
<g id="edge20_Node000002_Node000016" class="edge">
<title>Node16&#45;&gt;Node2</title>
<g id="a_edge20_Node000002_Node000016"><a xlink:title=" ">
<path fill="none" stroke="#9a32cd" stroke-dasharray="5,2" d="M493.41,-143.64C490.1,-116.34 480.07,-65.93 450,-37 436.89,-24.38 417.81,-17.77 401.16,-14.31"/>
<polygon fill="#9a32cd" stroke="#9a32cd" points="489.95,-144.2 494.45,-153.79 496.91,-143.49 489.95,-144.2"/>
</a>
</g>
<text text-anchor="middle" x="505.5" y="-84" font-family="Helvetica,sans-Serif" font-size="10.00" fill="grey"> pending</text>
</g>
<!-- Node16&#45;&gt;Node15 -->
<g id="edge17_Node000015_Node000016" class="edge">
<title>Node16&#45;&gt;Node15</title>
<g id="a_edge17_Node000015_Node000016"><a xlink:title=" ">
<path fill="none" stroke="#9a32cd" stroke-dasharray="5,2" d="M510.91,-146.59C526.37,-131.13 549.23,-108.27 561.5,-96"/>
<polygon fill="#9a32cd" stroke="#9a32cd" points="508.2,-144.35 503.6,-153.9 513.15,-149.3 508.2,-144.35"/>
</a>
</g>
<text text-anchor="middle" x="555.5" y="-122.5" font-family="Helvetica,sans-Serif" font-size="10.00" fill="grey"> slots</text>
</g>
<!-- Node16&#45;&gt;Node16 -->
<g id="edge19_Node000016_Node000016" class="edge">
<title>Node16&#45;&gt;Node16</title>
<g id="a_edge19_Node000016_Node000016"><a xlink:title=" ">
<path fill="none" stroke="#9a32cd" stroke-dasharray="5,2" d="M536.15,-168.61C540.91,-167.66 544,-165.96 544,-163.5 544,-159.56 536.09,-157.56 526.1,-157.5"/>
<polygon fill="#9a32cd" stroke="#9a32cd" points="535.76,-165.13 526.1,-169.5 536.37,-172.11 535.76,-165.13"/>
</a>
</g>
<text text-anchor="middle" x="571.5" y="-161" font-family="Helvetica,sans-Serif" font-size="10.00" fill="grey"> pend_next</text>
</g>
<!-- Node17 -->
<g id="Node000017" class="node">
<title>Node17</title>
<g id="a_Node000017"><a xlink:href="structbrix__status.html" target="_top" xlink:title=" ">
<polygon fill="white" stroke="#666666" points="471.5,-239 400.5,-239 400.5,-220 471.5,-220 471.5,-239"/>
<text text-anchor="middle" x="436" y="-227" font-family="Helvetica,sans-Serif" font-size="10.00">brix_status</text>
</a>
</g>
</g>
<!-- Node17&#45;&gt;Node1 -->
<g id="edge23_Node000001_Node000017" class="edge">
<title>Node17&#45;&gt;Node1</title>
<g id="a_edge23_Node000001_Node000017"><a xlink:title=" ">
<path fill="none" stroke="#9a32cd" stroke-dasharray="5,2" d="M415.38,-213.83C397.72,-201.28 372.9,-183.63 358.23,-173.2"/>
<polygon fill="#9a32cd" stroke="#9a32cd" points="413.68,-216.93 423.86,-219.87 417.74,-211.22 413.68,-216.93"/>
</a>
</g>
<text text-anchor="middle" x="404.5" y="-194" font-family="Helvetica,sans-Serif" font-size="10.00" fill="grey"> cb</text>
</g>
<!-- Node17&#45;&gt;Node2 -->
<g id="edge21_Node000002_Node000017" class="edge">
<title>Node17&#45;&gt;Node2</title>
<g id="a_edge21_Node000002_Node000017"><a xlink:title=" ">
<path fill="none" stroke="#9a32cd" stroke-dasharray="5,2" d="M436.57,-209.36C436.74,-172.7 432.6,-91.43 396,-37 391.35,-30.08 384.46,-23.82 378.46,-19.13"/>
<polygon fill="#9a32cd" stroke="#9a32cd" points="433.07,-209.54 436.4,-219.6 440.07,-209.66 433.07,-209.54"/>
</a>
</g>
<text text-anchor="middle" x="445.5" y="-122.5" font-family="Helvetica,sans-Serif" font-size="10.00" fill="grey"> rc_st</text>
</g>
<!-- Node17&#45;&gt;Node16 -->
<g id="edge18_Node000016_Node000017" class="edge">
<title>Node17&#45;&gt;Node16</title>
<g id="a_edge18_Node000016_Node000017"><a xlink:title=" ">
<path fill="none" stroke="#9a32cd" stroke-dasharray="5,2" d="M450.77,-212.48C462.16,-200.12 477.49,-183.49 486.79,-173.41"/>
<polygon fill="#9a32cd" stroke="#9a32cd" points="448.16,-210.14 443.96,-219.87 453.31,-214.89 448.16,-210.14"/>
</a>
</g>
<text text-anchor="middle" x="477.5" y="-194" font-family="Helvetica,sans-Serif" font-size="10.00" fill="grey"> cb</text>
</g>
</g>
</svg>
