<?xml version="1.0" encoding="UTF-8" standalone="no"?>
<!DOCTYPE svg PUBLIC "-//W3C//DTD SVG 1.1//EN"
 "http://www.w3.org/Graphics/SVG/1.1/DTD/svg11.dtd">
<!-- Generated by graphviz version 2.43.0 (0)
 -->
<!-- Title: ngx_http_s3_loc_conf_t Pages: 1 -->
<svg width="353pt" height="170pt"
 viewBox="0.00 0.00 352.50 170.00" xmlns="http://www.w3.org/2000/svg" xmlns:xlink="http://www.w3.org/1999/xlink">
<g id="graph0" class="graph" transform="scale(1 1) rotate(0) translate(4 166)">
<title>ngx_http_s3_loc_conf_t</title>
<!-- Node1 -->
<g id="Node000001" class="node">
<title>Node1</title>
<g id="a_Node000001"><a xlink:title=" ">
<polygon fill="#999999" stroke="#666666" points="251.5,-19 120.5,-19 120.5,0 251.5,0 251.5,-19"/>
<text text-anchor="middle" x="186" y="-7" font-family="Helvetica,sans-Serif" font-size="10.00">ngx_http_s3_loc_conf_t</text>
</a>
</g>
</g>
<!-- Node2 -->
<g id="Node000002" class="node">
<title>Node2</title>
<g id="a_Node000002"><a xlink:href="structngx__http__brix__shared__conf__t.html" target="_top" xlink:title=" ">
<polygon fill="white" stroke="#666666" points="122,-96 0,-96 0,-66 122,-66 122,-96"/>
<text text-anchor="start" x="8" y="-84" font-family="Helvetica,sans-Serif" font-size="10.00">ngx_http_brix_shared</text>
<text text-anchor="middle" x="61" y="-73" font-family="Helvetica,sans-Serif" font-size="10.00">_conf_t</text>
</a>
</g>
</g>
<!-- Node2&#45;&gt;Node1 -->
<g id="edge1_Node000001_Node000002" class="edge">
<title>Node2&#45;&gt;Node1</title>
<g id="a_edge1_Node000001_Node000002"><a xlink:title=" ">
<path fill="none" stroke="#9a32cd" stroke-dasharray="5,2" d="M93.86,-60.84C106.92,-53.31 122.12,-44.66 136,-37 147.01,-30.93 159.51,-24.3 169.26,-19.2"/>
<polygon fill="#9a32cd" stroke="#9a32cd" points="92.11,-57.82 85.2,-65.85 95.61,-63.88 92.11,-57.82"/>
</a>
</g>
<text text-anchor="middle" x="159" y="-40" font-family="Helvetica,sans-Serif" font-size="10.00" fill="grey"> common</text>
</g>
<!-- Node3 -->
<g id="Node000003" class="node">
<title>Node3</title>
<g id="a_Node000003"><a xlink:href="structbrix__pmark__conf__t.html" target="_top" xlink:title=" ">
<polygon fill="white" stroke="#666666" points="114.5,-162 7.5,-162 7.5,-143 114.5,-143 114.5,-162"/>
<text text-anchor="middle" x="61" y="-150" font-family="Helvetica,sans-Serif" font-size="10.00">brix_pmark_conf_t</text>
</a>
</g>
</g>
<!-- Node3&#45;&gt;Node2 -->
<g id="edge2_Node000002_Node000003" class="edge">
<title>Node3&#45;&gt;Node2</title>
<g id="a_edge2_Node000002_Node000003"><a xlink:title=" ">
<path fill="none" stroke="#9a32cd" stroke-dasharray="5,2" d="M61,-132.71C61,-121.19 61,-106.68 61,-96.14"/>
<polygon fill="#9a32cd" stroke="#9a32cd" points="57.5,-132.98 61,-142.98 64.5,-132.98 57.5,-132.98"/>
</a>
</g>
<text text-anchor="middle" x="78.5" y="-117" font-family="Helvetica,sans-Serif" font-size="10.00" fill="grey"> pmark</text>
</g>
<!-- Node4 -->
<g id="Node000004" class="node">
<title>Node4</title>
<g id="a_Node000004"><a xlink:href="structbrix__acc__http__t.html" target="_top" xlink:title=" ">
<polygon fill="white" stroke="#666666" points="231.5,-90.5 140.5,-90.5 140.5,-71.5 231.5,-71.5 231.5,-90.5"/>
<text text-anchor="middle" x="186" y="-78.5" font-family="Helvetica,sans-Serif" font-size="10.00">brix_acc_http_t</text>
</a>
</g>
</g>
<!-- Node4&#45;&gt;Node1 -->
<g id="edge3_Node000001_Node000004" class="edge">
<title>Node4&#45;&gt;Node1</title>
<g id="a_edge3_Node000001_Node000004"><a xlink:title=" ">
<path fill="none" stroke="#9a32cd" stroke-dasharray="5,2" d="M186,-61.21C186,-47.5 186,-29.55 186,-19.09"/>
<polygon fill="#9a32cd" stroke="#9a32cd" points="182.5,-61.48 186,-71.48 189.5,-61.48 182.5,-61.48"/>
</a>
</g>
<text text-anchor="middle" x="196" y="-40" font-family="Helvetica,sans-Serif" font-size="10.00" fill="grey"> acc</text>
</g>
<!-- Node5 -->
<g id="Node000005" class="node">
<title>Node5</title>
<g id="a_Node000005"><a xlink:href="structbrix__jwks__key__t.html" target="_top" xlink:title=" ">
<polygon fill="white" stroke="#666666" points="344.5,-90.5 249.5,-90.5 249.5,-71.5 344.5,-71.5 344.5,-90.5"/>
<text text-anchor="middle" x="297" y="-78.5" font-family="Helvetica,sans-Serif" font-size="10.00">brix_jwks_key_t</text>
</a>
</g>
</g>
<!-- Node5&#45;&gt;Node1 -->
<g id="edge4_Node000001_Node000005" class="edge">
<title>Node5&#45;&gt;Node1</title>
<g id="a_edge4_Node000001_Node000005"><a xlink:title=" ">
<path fill="none" stroke="#9a32cd" stroke-dasharray="5,2" d="M274.85,-66.13C252.45,-52.1 218.51,-30.85 199.72,-19.09"/>
<polygon fill="#9a32cd" stroke="#9a32cd" points="273.06,-69.14 283.39,-71.48 276.77,-63.2 273.06,-69.14"/>
</a>
</g>
<text text-anchor="middle" x="271" y="-40" font-family="Helvetica,sans-Serif" font-size="10.00" fill="grey"> jwks_keys</text>
</g>
</g>
</svg>
