<?xml version="1.0" encoding="UTF-8" standalone="no"?>
<!DOCTYPE svg PUBLIC "-//W3C//DTD SVG 1.1//EN"
 "http://www.w3.org/Graphics/SVG/1.1/DTD/svg11.dtd">
<!-- Generated by graphviz version 2.43.0 (0)
 -->
<!-- Title: brix_cache_fill_t Pages: 1 -->
<!--zoomable 656 -->

<svg id="main" version="1.1" xmlns="http://www.w3.org/2000/svg" xmlns:xlink="http://www.w3.org/1999/xlink" xml:space="preserve" onload="init(evt)">
<style type="text/css"><![CDATA[
.node, .edge {opacity: 0.7;}
.node.selected, .edge.selected {opacity: 1;}
.edge:hover path { stroke: red; }
.edge:hover polygon { stroke: red; fill: red; }
]]></style>

<defs>
  <circle id="rim" cx="0" cy="0" r="7"/>
  <circle id="rim2" cx="0" cy="0" r="3.5"/>
  <g id="zoomPlus">
    <use xlink:href="#rim" fill="#404040"><set attributeName="fill" to="#808080" begin="zoomplus.mouseover" end="zoomplus.mouseout"/></use>
    <path d="M-4,0h8M0,-4v8" fill="none" stroke="white" stroke-width="1.5" pointer-events="none"/>
  </g>
  <g id="zoomMin">
    <use xlink:href="#rim" fill="#404040"><set attributeName="fill" to="#808080" begin="zoomminus.mouseover" end="zoomminus.mouseout"/></use>
    <path d="M-4,0h8" fill="none" stroke="white" stroke-width="1.5" pointer-events="none"/>
  </g>
  <g id="arrowUp" transform="translate(30 24)">
    <use xlink:href="#rim"/>
    <path pointer-events="none" fill="none" stroke="white" stroke-width="1.5" d="M0,-3.0v7 M-2.5,-0.5L0,-3.0L2.5,-0.5"/>
  </g>
  <g id="arrowRight" transform="rotate(90) translate(36 -43)">
    <use xlink:href="#rim"/>
    <path pointer-events="none" fill="none" stroke="white" stroke-width="1.5" d="M0,-3.0v7 M-2.5,-0.5L0,-3.0L2.5,-0.5"/>
  </g>
  <g id="arrowDown" transform="rotate(180) translate(-30 -48)">
    <use xlink:href="#rim"/>
    <path pointer-events="none" fill="none" stroke="white" stroke-width="1.5" d="M0,-3.0v7 M-2.5,-0.5L0,-3.0L2.5,-0.5"/>
  </g>
  <g id="arrowLeft" transform="rotate(270) translate(-36 17)">
    <use xlink:href="#rim"/>
    <path pointer-events="none" fill="none" stroke="white" stroke-width="1.5" d="M0,-3.0v7 M-2.5,-0.5L0,-3.0L2.5,-0.5"/>
  </g>
  <g id="resetDef">
    <use xlink:href="#rim2" fill="#404040"><set attributeName="fill" to="#808080" begin="reset.mouseover" end="reset.mouseout"/></use>
  </g>
</defs>
<script type="application/ecmascript">
var viewWidth = 978;
var viewHeight = 656;
var sectionId = 'dynsection-0';
</script>
<script type="application/ecmascript" xlink:href="svg.min.js"/>
<svg id="graph" class="graph">
<g id="viewport">
<title>brix_cache_fill_t</title>
<!-- Node1 -->
<g id="Node000001" class="node">
<title>Node1</title>
<g id="a_Node000001"><a xlink:title=" ">
<polygon fill="#999999" stroke="#666666" points="970,-307 875,-307 875,-288 970,-288 970,-307"/>
<text text-anchor="middle" x="922.5" y="-295" font-family="Helvetica,sans-Serif" font-size="10.00">brix_cache_fill_t</text>
</a>
</g>
</g>
<!-- Node2 -->
<g id="Node000002" class="node">
<title>Node2</title>
<g id="a_Node000002"><a xlink:href="structbrix__ctx__t.html" target="_top" xlink:title=" ">
<polygon fill="white" stroke="#666666" points="787,-333 722,-333 722,-314 787,-314 787,-333"/>
<text text-anchor="middle" x="754.5" y="-321" font-family="Helvetica,sans-Serif" font-size="10.00">brix_ctx_t</text>
</a>
</g>
</g>
<!-- Node2&#45;&gt;Node1 -->
<g id="edge1_Node000001_Node000002" class="edge">
<title>Node2&#45;&gt;Node1</title>
<g id="a_edge1_Node000001_Node000002"><a xlink:title=" ">
<path fill="none" stroke="#9a32cd" stroke-dasharray="5,2" d="M797.19,-316.97C820.84,-313.27 850.52,-308.62 874.94,-304.79"/>
<polygon fill="#9a32cd" stroke="#9a32cd" points="796.45,-313.54 787.11,-318.55 797.54,-320.46 796.45,-313.54"/>
</a>
</g>
<text text-anchor="middle" x="844.5" y="-314.5" font-family="Helvetica,sans-Serif" font-size="10.00" fill="grey"> ctx</text>
</g>
<!-- Node3 -->
<g id="Node000003" class="node">
<title>Node3</title>
<g id="a_Node000003"><a xlink:href="structbrix__ctx__recv__t.html" target="_top" xlink:title=" ">
<polygon fill="white" stroke="#666666" points="593.5,-648 502.5,-648 502.5,-629 593.5,-629 593.5,-648"/>
<text text-anchor="middle" x="548" y="-636" font-family="Helvetica,sans-Serif" font-size="10.00">brix_ctx_recv_t</text>
</a>
</g>
</g>
<!-- Node3&#45;&gt;Node2 -->
<g id="edge2_Node000002_Node000003" class="edge">
<title>Node3&#45;&gt;Node2</title>
<g id="a_edge2_Node000002_Node000003"><a xlink:title=" ">
<path fill="none" stroke="#9a32cd" stroke-dasharray="5,2" d="M603.83,-636.64C629.14,-632.99 657.77,-624.49 677,-605.5 717.61,-565.4 745.93,-377.95 752.19,-333.14"/>
<polygon fill="#9a32cd" stroke="#9a32cd" points="603.1,-633.2 593.6,-637.88 603.94,-640.15 603.1,-633.2"/>
</a>
</g>
<text text-anchor="middle" x="654" y="-632.5" font-family="Helvetica,sans-Serif" font-size="10.00" fill="grey"> recv</text>
</g>
<!-- Node4 -->
<g id="Node000004" class="node">
<title>Node4</title>
<g id="a_Node000004"><a xlink:href="structbrix__ctx__login__t.html" target="_top" xlink:title=" ">
<polygon fill="white" stroke="#666666" points="595,-611 501,-611 501,-592 595,-592 595,-611"/>
<text text-anchor="middle" x="548" y="-599" font-family="Helvetica,sans-Serif" font-size="10.00">brix_ctx_login_t</text>
</a>
</g>
</g>
<!-- Node4&#45;&gt;Node2 -->
<g id="edge3_Node000002_Node000004" class="edge">
<title>Node4&#45;&gt;Node2</title>
<g id="a_edge3_Node000002_Node000004"><a xlink:title=" ">
<path fill="none" stroke="#9a32cd" stroke-dasharray="5,2" d="M605.26,-598.08C630.08,-593.82 657.89,-584.9 677,-566.5 746.78,-499.33 753.16,-369.25 753.54,-333.05"/>
<polygon fill="#9a32cd" stroke="#9a32cd" points="604.57,-594.64 595.2,-599.59 605.61,-601.57 604.57,-594.64"/>
</a>
</g>
<text text-anchor="middle" x="654" y="-593.5" font-family="Helvetica,sans-Serif" font-size="10.00" fill="grey"> login</text>
</g>
<!-- Node5 -->
<g id="Node000005" class="node">
<title>Node5</title>
<g id="a_Node000005"><a xlink:href="structbrix__sess__t.html" target="_top" xlink:title=" ">
<polygon fill="white" stroke="#666666" points="583.5,-574 512.5,-574 512.5,-555 583.5,-555 583.5,-574"/>
<text text-anchor="middle" x="548" y="-562" font-family="Helvetica,sans-Serif" font-size="10.00">brix_sess_t</text>
</a>
</g>
</g>
<!-- Node5&#45;&gt;Node2 -->
<g id="edge4_Node000002_Node000005" class="edge">
<title>Node5&#45;&gt;Node2</title>
<g id="a_edge4_Node000002_Node000005"><a xlink:title=" ">
<path fill="none" stroke="#9a32cd" stroke-dasharray="5,2" d="M593.72,-561.27C620.9,-557.1 654.58,-547.67 677,-526.5 735.88,-470.91 749.82,-365.51 752.77,-333.18"/>
<polygon fill="#9a32cd" stroke="#9a32cd" points="593.1,-557.82 583.66,-562.63 594.04,-564.76 593.1,-557.82"/>
</a>
</g>
<text text-anchor="middle" x="654" y="-554.5" font-family="Helvetica,sans-Serif" font-size="10.00" fill="grey"> sess</text>
</g>
<!-- Node6 -->
<g id="Node000006" class="node">
<title>Node6</title>
<g id="a_Node000006"><a xlink:href="structbrix__sess__xfer__t.html" target="_top" xlink:title=" ">
<polygon fill="white" stroke="#666666" points="353.5,-604 257.5,-604 257.5,-585 353.5,-585 353.5,-604"/>
<text text-anchor="middle" x="305.5" y="-592" font-family="Helvetica,sans-Serif" font-size="10.00">brix_sess_xfer_t</text>
</a>
</g>
</g>
<!-- Node6&#45;&gt;Node5 -->
<g id="edge5_Node000005_Node000006" class="edge">
<title>Node6&#45;&gt;Node5</title>
<g id="a_edge5_Node000005_Node000006"><a xlink:title=" ">
<path fill="none" stroke="#9a32cd" stroke-dasharray="5,2" d="M363.97,-595.12C394.2,-594.66 431.79,-592.82 465,-587.5 474.78,-585.93 496.79,-579.71 515.55,-574.12"/>
<polygon fill="#9a32cd" stroke="#9a32cd" points="363.56,-591.63 353.6,-595.23 363.64,-598.63 363.56,-591.63"/>
</a>
</g>
<text text-anchor="middle" x="430" y="-596.5" font-family="Helvetica,sans-Serif" font-size="10.00" fill="grey"> xfers</text>
</g>
<!-- Node10 -->
<g id="Node000010" class="node">
<title>Node10</title>
<g id="a_Node000010"><a xlink:href="structbrix__file__t.html" target="_top" xlink:title=" ">
<polygon fill="white" stroke="#666666" points="580.5,-537 515.5,-537 515.5,-518 580.5,-518 580.5,-537"/>
<text text-anchor="middle" x="548" y="-525" font-family="Helvetica,sans-Serif" font-size="10.00">brix_file_t</text>
</a>
</g>
</g>
<!-- Node6&#45;&gt;Node10 -->
<g id="edge10_Node000010_Node000006" class="edge">
<title>Node6&#45;&gt;Node10</title>
<g id="a_edge10_Node000010_Node000006"><a xlink:title=" ">
<path fill="none" stroke="#9a32cd" stroke-dasharray="5,2" d="M352.3,-582.33C383.99,-573.85 427.11,-562.18 465,-551.5 481.56,-546.83 499.95,-541.47 515.11,-536.99"/>
<polygon fill="#9a32cd" stroke="#9a32cd" points="351.19,-579 342.44,-584.97 353,-585.77 351.19,-579"/>
</a>
</g>
<text text-anchor="middle" x="430" y="-573.5" font-family="Helvetica,sans-Serif" font-size="10.00" fill="grey"> sess_xfer</text>
</g>
<!-- Node7 -->
<g id="Node000007" class="node">
<title>Node7</title>
<g id="a_Node000007"><a xlink:href="structbrix__identity__t.html" target="_top" xlink:title=" ">
<polygon fill="white" stroke="#666666" points="591.5,-500 504.5,-500 504.5,-481 591.5,-481 591.5,-500"/>
<text text-anchor="middle" x="548" y="-488" font-family="Helvetica,sans-Serif" font-size="10.00">brix_identity_t</text>
</a>
</g>
</g>
<!-- Node7&#45;&gt;Node2 -->
<g id="edge6_Node000002_Node000007" class="edge">
<title>Node7&#45;&gt;Node2</title>
<g id="a_edge6_Node000002_Node000007"><a xlink:title=" ">
<path fill="none" stroke="#9a32cd" stroke-dasharray="5,2" d="M601.53,-481.62C626.58,-475.24 655.66,-464.48 677,-446.5 715.85,-413.77 741.02,-356.11 749.91,-333.24"/>
<polygon fill="#9a32cd" stroke="#9a32cd" points="600.72,-478.22 591.8,-483.94 602.33,-485.03 600.72,-478.22"/>
</a>
</g>
<text text-anchor="middle" x="654" y="-474.5" font-family="Helvetica,sans-Serif" font-size="10.00" fill="grey"> identity</text>
</g>
<!-- Node8 -->
<g id="Node000008" class="node">
<title>Node8</title>
<g id="a_Node000008"><a xlink:href="structbrix__token__scope__t.html" target="_top" xlink:title=" ">
<polygon fill="white" stroke="#666666" points="360.5,-464 250.5,-464 250.5,-445 360.5,-445 360.5,-464"/>
<text text-anchor="middle" x="305.5" y="-452" font-family="Helvetica,sans-Serif" font-size="10.00">brix_token_scope_t</text>
</a>
</g>
</g>
<!-- Node8&#45;&gt;Node7 -->
<g id="edge7_Node000007_Node000008" class="edge">
<title>Node8&#45;&gt;Node7</title>
<g id="a_edge7_Node000007_Node000008"><a xlink:title=" ">
<path fill="none" stroke="#9a32cd" stroke-dasharray="5,2" d="M370.69,-464.11C412.92,-470.43 467.05,-478.53 504.12,-484.08"/>
<polygon fill="#9a32cd" stroke="#9a32cd" points="371.18,-460.64 360.77,-462.62 370.14,-467.57 371.18,-460.64"/>
</a>
</g>
<text text-anchor="middle" x="430" y="-480.5" font-family="Helvetica,sans-Serif" font-size="10.00" fill="grey"> token_scopes</text>
</g>
<!-- Node19 -->
<g id="Node000019" class="node">
<title>Node19</title>
<g id="a_Node000019"><a xlink:href="structbrix__ctx__token__t.html" target="_top" xlink:title=" ">
<polygon fill="white" stroke="#666666" points="596.5,-463 499.5,-463 499.5,-444 596.5,-444 596.5,-463"/>
<text text-anchor="middle" x="548" y="-451" font-family="Helvetica,sans-Serif" font-size="10.00">brix_ctx_token_t</text>
</a>
</g>
</g>
<!-- Node8&#45;&gt;Node19 -->
<g id="edge20_Node000019_Node000008" class="edge">
<title>Node8&#45;&gt;Node19</title>
<g id="a_edge20_Node000019_Node000008"><a xlink:title=" ">
<path fill="none" stroke="#9a32cd" stroke-dasharray="5,2" d="M367.92,-443.51C376.98,-442.26 386.21,-441.19 395,-440.5 426.02,-438.06 433.98,-438.06 465,-440.5 476.21,-441.38 488.2,-442.93 499.45,-444.67"/>
<polygon fill="#9a32cd" stroke="#9a32cd" points="367.2,-440.08 357.82,-444.99 368.22,-447.01 367.2,-440.08"/>
</a>
</g>
<text text-anchor="middle" x="430" y="-443.5" font-family="Helvetica,sans-Serif" font-size="10.00" fill="grey"> scopes</text>
</g>
<!-- Node9 -->
<g id="Node000009" class="node">
<title>Node9</title>
<g id="a_Node000009"><a xlink:href="structbrix__ctx__pmark__t.html" target="_top" xlink:title=" ">
<polygon fill="white" stroke="#666666" points="598.5,-426 497.5,-426 497.5,-407 598.5,-407 598.5,-426"/>
<text text-anchor="middle" x="548" y="-414" font-family="Helvetica,sans-Serif" font-size="10.00">brix_ctx_pmark_t</text>
</a>
</g>
</g>
<!-- Node9&#45;&gt;Node2 -->
<g id="edge8_Node000002_Node000009" class="edge">
<title>Node9&#45;&gt;Node2</title>
<g id="a_edge8_Node000002_Node000009"><a xlink:title=" ">
<path fill="none" stroke="#9a32cd" stroke-dasharray="5,2" d="M594.41,-404.16C600.67,-402.33 607.01,-400.42 613,-398.5 641.79,-389.29 650.07,-389.22 677,-375.5 701.18,-363.18 726.78,-344.47 741.38,-333.17"/>
<polygon fill="#9a32cd" stroke="#9a32cd" points="593.33,-400.83 584.68,-406.95 595.26,-407.56 593.33,-400.83"/>
</a>
</g>
<text text-anchor="middle" x="654" y="-395.5" font-family="Helvetica,sans-Serif" font-size="10.00" fill="grey"> pmark</text>
</g>
<!-- Node10&#45;&gt;Node2 -->
<g id="edge9_Node000002_Node000010" class="edge">
<title>Node10&#45;&gt;Node2</title>
<g id="a_edge9_Node000002_Node000010"><a xlink:title=" ">
<path fill="none" stroke="#9a32cd" stroke-dasharray="5,2" d="M590.67,-523.16C618.14,-518.31 653.28,-508.09 677,-486.5 725.54,-442.31 745.92,-360.93 751.68,-333.12"/>
<polygon fill="#9a32cd" stroke="#9a32cd" points="589.89,-519.74 580.56,-524.76 590.99,-526.65 589.89,-519.74"/>
</a>
</g>
<text text-anchor="middle" x="654" y="-514.5" font-family="Helvetica,sans-Serif" font-size="10.00" fill="grey"> files</text>
</g>
<!-- Node11 -->
<g id="Node000011" class="node">
<title>Node11</title>
<g id="a_Node000011"><a xlink:href="structbrix__wrts__entry__t.html" target="_top" xlink:title=" ">
<polygon fill="white" stroke="#666666" points="356,-552 255,-552 255,-533 356,-533 356,-552"/>
<text text-anchor="middle" x="305.5" y="-540" font-family="Helvetica,sans-Serif" font-size="10.00">brix_wrts_entry_t</text>
</a>
</g>
</g>
<!-- Node11&#45;&gt;Node10 -->
<g id="edge11_Node000010_Node000011" class="edge">
<title>Node11&#45;&gt;Node10</title>
<g id="a_edge11_Node000010_Node000011"><a xlink:title=" ">
<path fill="none" stroke="#9a32cd" stroke-dasharray="5,2" d="M366.13,-538.78C413.29,-535.84 477.28,-531.85 515.15,-529.49"/>
<polygon fill="#9a32cd" stroke="#9a32cd" points="365.8,-535.29 356.04,-539.41 366.24,-542.28 365.8,-535.29"/>
</a>
</g>
<text text-anchor="middle" x="430" y="-539.5" font-family="Helvetica,sans-Serif" font-size="10.00" fill="grey"> wrts_journal</text>
</g>
<!-- Node12 -->
<g id="Node000012" class="node">
<title>Node12</title>
<g id="a_Node000012"><a xlink:href="structbrix__pgw__fob__entry__t.html" target="_top" xlink:title=" ">
<polygon fill="white" stroke="#666666" points="366.5,-515 244.5,-515 244.5,-496 366.5,-496 366.5,-515"/>
<text text-anchor="middle" x="305.5" y="-503" font-family="Helvetica,sans-Serif" font-size="10.00">brix_pgw_fob_entry_t</text>
</a>
</g>
</g>
<!-- Node12&#45;&gt;Node10 -->
<g id="edge12_Node000010_Node000012" class="edge">
<title>Node12&#45;&gt;Node10</title>
<g id="a_edge12_Node000010_Node000012"><a xlink:title=" ">
<path fill="none" stroke="#9a32cd" stroke-dasharray="5,2" d="M377.07,-510.15C404.54,-512.14 436.27,-514.66 465,-517.5 481.7,-519.15 500.26,-521.38 515.5,-523.32"/>
<polygon fill="#9a32cd" stroke="#9a32cd" points="376.99,-506.63 366.77,-509.41 376.49,-513.62 376.99,-506.63"/>
</a>
</g>
<text text-anchor="middle" x="430" y="-520.5" font-family="Helvetica,sans-Serif" font-size="10.00" fill="grey"> pgw_fob</text>
</g>
<!-- Node13 -->
<g id="Node000013" class="node">
<title>Node13</title>
<g id="a_Node000013"><a xlink:href="structbrix__ctx__out__t.html" target="_top" xlink:title=" ">
<polygon fill="white" stroke="#666666" points="591,-389 505,-389 505,-370 591,-370 591,-389"/>
<text text-anchor="middle" x="548" y="-377" font-family="Helvetica,sans-Serif" font-size="10.00">brix_ctx_out_t</text>
</a>
</g>
</g>
<!-- Node13&#45;&gt;Node2 -->
<g id="edge13_Node000002_Node000013" class="edge">
<title>Node13&#45;&gt;Node2</title>
<g id="a_edge13_Node000002_Node000013"><a xlink:title=" ">
<path fill="none" stroke="#9a32cd" stroke-dasharray="5,2" d="M601.11,-368.5C624.46,-363.26 652.25,-356.59 677,-349.5 693.99,-344.63 712.79,-338.26 727.5,-333.04"/>
<polygon fill="#9a32cd" stroke="#9a32cd" points="600.06,-365.14 591.06,-370.72 601.58,-371.98 600.06,-365.14"/>
</a>
</g>
<text text-anchor="middle" x="654" y="-363.5" font-family="Helvetica,sans-Serif" font-size="10.00" fill="grey"> out</text>
</g>
<!-- Node14 -->
<g id="Node000014" class="node">
<title>Node14</title>
<g id="a_Node000014"><a xlink:href="structbrix__resp__slot__t.html" target="_top" xlink:title=" ">
<polygon fill="white" stroke="#666666" points="352.5,-389 258.5,-389 258.5,-370 352.5,-370 352.5,-389"/>
<text text-anchor="middle" x="305.5" y="-377" font-family="Helvetica,sans-Serif" font-size="10.00">brix_resp_slot_t</text>
</a>
</g>
</g>
<!-- Node14&#45;&gt;Node13 -->
<g id="edge14_Node000013_Node000014" class="edge">
<title>Node14&#45;&gt;Node13</title>
<g id="a_edge14_Node000013_Node000014"><a xlink:title=" ">
<path fill="none" stroke="#9a32cd" stroke-dasharray="5,2" d="M362.7,-379.5C406.11,-379.5 465.24,-379.5 504.7,-379.5"/>
<polygon fill="#9a32cd" stroke="#9a32cd" points="362.59,-376 352.59,-379.5 362.59,-383 362.59,-376"/>
</a>
</g>
<text text-anchor="middle" x="430" y="-382.5" font-family="Helvetica,sans-Serif" font-size="10.00" fill="grey"> ring</text>
</g>
<!-- Node15 -->
<g id="Node000015" class="node">
<title>Node15</title>
<g id="a_Node000015"><a xlink:href="structbrix__ctx__rd__t.html" target="_top" xlink:title=" ">
<polygon fill="white" stroke="#666666" points="588,-352 508,-352 508,-333 588,-333 588,-352"/>
<text text-anchor="middle" x="548" y="-340" font-family="Helvetica,sans-Serif" font-size="10.00">brix_ctx_rd_t</text>
</a>
</g>
</g>
<!-- Node15&#45;&gt;Node2 -->
<g id="edge15_Node000002_Node000015" class="edge">
<title>Node15&#45;&gt;Node2</title>
<g id="a_edge15_Node000002_Node000015"><a xlink:title=" ">
<path fill="none" stroke="#9a32cd" stroke-dasharray="5,2" d="M598.87,-337.87C637.23,-334.3 689.07,-329.49 721.9,-326.44"/>
<polygon fill="#9a32cd" stroke="#9a32cd" points="598.06,-334.43 588.43,-338.84 598.71,-341.4 598.06,-334.43"/>
</a>
</g>
<text text-anchor="middle" x="654" y="-337.5" font-family="Helvetica,sans-Serif" font-size="10.00" fill="grey"> rd</text>
</g>
<!-- Node16 -->
<g id="Node000016" class="node">
<title>Node16</title>
<g id="a_Node000016"><a xlink:href="structbrix__read__slot__t.html" target="_top" xlink:title=" ">
<polygon fill="white" stroke="#666666" points="353,-352 258,-352 258,-333 353,-333 353,-352"/>
<text text-anchor="middle" x="305.5" y="-340" font-family="Helvetica,sans-Serif" font-size="10.00">brix_read_slot_t</text>
</a>
</g>
</g>
<!-- Node16&#45;&gt;Node15 -->
<g id="edge16_Node000015_Node000016" class="edge">
<title>Node16&#45;&gt;Node15</title>
<g id="a_edge16_Node000015_Node000016"><a xlink:title=" ">
<path fill="none" stroke="#9a32cd" stroke-dasharray="5,2" d="M363.23,-342.5C407.68,-342.5 468.38,-342.5 507.63,-342.5"/>
<polygon fill="#9a32cd" stroke="#9a32cd" points="363.16,-339 353.16,-342.5 363.16,-346 363.16,-339"/>
</a>
</g>
<text text-anchor="middle" x="430" y="-345.5" font-family="Helvetica,sans-Serif" font-size="10.00" fill="grey"> pool</text>
</g>
<!-- Node17 -->
<g id="Node000017" class="node">
<title>Node17</title>
<g id="a_Node000017"><a xlink:href="structbrix__ctx__gsi__t.html" target="_top" xlink:title=" ">
<polygon fill="white" stroke="#666666" points="590,-315 506,-315 506,-296 590,-296 590,-315"/>
<text text-anchor="middle" x="548" y="-303" font-family="Helvetica,sans-Serif" font-size="10.00">brix_ctx_gsi_t</text>
</a>
</g>
</g>
<!-- Node17&#45;&gt;Node2 -->
<g id="edge17_Node000002_Node000017" class="edge">
<title>Node17&#45;&gt;Node2</title>
<g id="a_edge17_Node000002_Node000017"><a xlink:title=" ">
<path fill="none" stroke="#9a32cd" stroke-dasharray="5,2" d="M600.14,-304.71C623.61,-304.86 651.78,-305.75 677,-308.5 691.8,-310.11 708.01,-313.11 721.68,-316"/>
<polygon fill="#9a32cd" stroke="#9a32cd" points="600.05,-301.21 590.05,-304.69 600.04,-308.21 600.05,-301.21"/>
</a>
</g>
<text text-anchor="middle" x="654" y="-311.5" font-family="Helvetica,sans-Serif" font-size="10.00" fill="grey"> gsi</text>
</g>
<!-- Node18 -->
<g id="Node000018" class="node">
<title>Node18</title>
<g id="a_Node000018"><a xlink:href="structbrix__ctx__pwd__t.html" target="_top" xlink:title=" ">
<polygon fill="white" stroke="#666666" points="593,-278 503,-278 503,-259 593,-259 593,-278"/>
<text text-anchor="middle" x="548" y="-266" font-family="Helvetica,sans-Serif" font-size="10.00">brix_ctx_pwd_t</text>
</a>
</g>
</g>
<!-- Node18&#45;&gt;Node2 -->
<g id="edge18_Node000002_Node000018" class="edge">
<title>Node18&#45;&gt;Node2</title>
<g id="a_edge18_Node000002_Node000018"><a xlink:title=" ">
<path fill="none" stroke="#9a32cd" stroke-dasharray="5,2" d="M603.32,-271.91C626.75,-274.87 654,-280.35 677,-290.5 686.27,-294.59 686.05,-299.75 695,-304.5 703.3,-308.9 712.81,-312.52 721.71,-315.38"/>
<polygon fill="#9a32cd" stroke="#9a32cd" points="603.53,-268.41 593.2,-270.76 602.74,-275.37 603.53,-268.41"/>
</a>
</g>
<text text-anchor="middle" x="654" y="-293.5" font-family="Helvetica,sans-Serif" font-size="10.00" fill="grey"> pwd</text>
</g>
<!-- Node19&#45;&gt;Node2 -->
<g id="edge19_Node000002_Node000019" class="edge">
<title>Node19&#45;&gt;Node2</title>
<g id="a_edge19_Node000002_Node000019"><a xlink:title=" ">
<path fill="none" stroke="#9a32cd" stroke-dasharray="5,2" d="M603.38,-441.19C627.44,-433.99 655.16,-423.17 677,-407.5 707.45,-385.66 734.84,-349.97 746.94,-333.02"/>
<polygon fill="#9a32cd" stroke="#9a32cd" points="602.33,-437.85 593.67,-443.96 604.25,-444.58 602.33,-437.85"/>
</a>
</g>
<text text-anchor="middle" x="654" y="-434.5" font-family="Helvetica,sans-Serif" font-size="10.00" fill="grey"> token</text>
</g>
<!-- Node20 -->
<g id="Node000020" class="node">
<title>Node20</title>
<g id="a_Node000020"><a xlink:href="structbrix__ctx__throttle__t.html" target="_top" xlink:title=" ">
<polygon fill="white" stroke="#666666" points="601,-241 495,-241 495,-222 601,-222 601,-241"/>
<text text-anchor="middle" x="548" y="-229" font-family="Helvetica,sans-Serif" font-size="10.00">brix_ctx_throttle_t</text>
</a>
</g>
</g>
<!-- Node20&#45;&gt;Node2 -->
<g id="edge21_Node000002_Node000020" class="edge">
<title>Node20&#45;&gt;Node2</title>
<g id="a_edge21_Node000002_Node000020"><a xlink:title=" ">
<path fill="none" stroke="#9a32cd" stroke-dasharray="5,2" d="M611.23,-235.01C634.06,-239.07 658.75,-247.07 677,-262.5 692.51,-275.61 680,-290.81 695,-304.5 702.41,-311.27 712.27,-315.63 721.78,-318.43"/>
<polygon fill="#9a32cd" stroke="#9a32cd" points="611.67,-231.54 601.25,-233.45 610.59,-238.45 611.67,-231.54"/>
</a>
</g>
<text text-anchor="middle" x="654" y="-265.5" font-family="Helvetica,sans-Serif" font-size="10.00" fill="grey"> throttle</text>
</g>
<!-- Node21 -->
<g id="Node000021" class="node">
<title>Node21</title>
<g id="a_Node000021"><a xlink:href="structbrix__ctx__prepare__t.html" target="_top" xlink:title=" ">
<polygon fill="white" stroke="#666666" points="601.5,-204 494.5,-204 494.5,-185 601.5,-185 601.5,-204"/>
<text text-anchor="middle" x="548" y="-192" font-family="Helvetica,sans-Serif" font-size="10.00">brix_ctx_prepare_t</text>
</a>
</g>
</g>
<!-- Node21&#45;&gt;Node2 -->
<g id="edge22_Node000002_Node000021" class="edge">
<title>Node21&#45;&gt;Node2</title>
<g id="a_edge22_Node000002_Node000021"><a xlink:title=" ">
<path fill="none" stroke="#9a32cd" stroke-dasharray="5,2" d="M611.91,-196.2C635.18,-199.99 660.01,-208.27 677,-225.5 702.29,-251.14 670.71,-277.92 695,-304.5 701.99,-312.15 712.08,-316.73 721.92,-319.47"/>
<polygon fill="#9a32cd" stroke="#9a32cd" points="612.1,-192.7 601.71,-194.8 611.15,-199.63 612.1,-192.7"/>
</a>
</g>
<text text-anchor="middle" x="654" y="-228.5" font-family="Helvetica,sans-Serif" font-size="10.00" fill="grey"> prepare</text>
</g>
<!-- Node22 -->
<g id="Node000022" class="node">
<title>Node22</title>
<g id="a_Node000022"><a xlink:href="structbrix__ctx__totals__t.html" target="_top" xlink:title=" ">
<polygon fill="white" stroke="#666666" points="597,-167 499,-167 499,-148 597,-148 597,-167"/>
<text text-anchor="middle" x="548" y="-155" font-family="Helvetica,sans-Serif" font-size="10.00">brix_ctx_totals_t</text>
</a>
</g>
</g>
<!-- Node22&#45;&gt;Node2 -->
<g id="edge23_Node000002_Node000022" class="edge">
<title>Node22&#45;&gt;Node2</title>
<g id="a_edge23_Node000002_Node000022"><a xlink:title=" ">
<path fill="none" stroke="#9a32cd" stroke-dasharray="5,2" d="M607.21,-156.33C632.04,-158.98 659.3,-166.6 677,-185.5 713.57,-224.54 660.4,-263.71 695,-304.5 701.77,-312.48 711.93,-317.14 721.89,-319.84"/>
<polygon fill="#9a32cd" stroke="#9a32cd" points="607.37,-152.83 597.12,-155.51 606.8,-159.81 607.37,-152.83"/>
</a>
</g>
<text text-anchor="middle" x="654" y="-188.5" font-family="Helvetica,sans-Serif" font-size="10.00" fill="grey"> totals</text>
</g>
<!-- Node23 -->
<g id="Node000023" class="node">
<title>Node23</title>
<g id="a_Node000023"><a xlink:href="structngx__brix__srv__metrics__t.html" target="_top" xlink:title=" ">
<polygon fill="white" stroke="#666666" points="613,-130 483,-130 483,-111 613,-111 613,-130"/>
<text text-anchor="middle" x="548" y="-118" font-family="Helvetica,sans-Serif" font-size="10.00">ngx_brix_srv_metrics_t</text>
</a>
</g>
</g>
<!-- Node23&#45;&gt;Node2 -->
<g id="edge24_Node000002_Node000023" class="edge">
<title>Node23&#45;&gt;Node2</title>
<g id="a_edge24_Node000002_Node000023"><a xlink:title=" ">
<path fill="none" stroke="#9a32cd" stroke-dasharray="5,2" d="M623.39,-120.16C643.37,-123.81 663.24,-131.48 677,-146.5 724.76,-198.6 650.28,-249.77 695,-304.5 701.62,-312.6 711.75,-317.29 721.72,-319.98"/>
<polygon fill="#9a32cd" stroke="#9a32cd" points="623.68,-116.67 613.27,-118.65 622.64,-123.59 623.68,-116.67"/>
</a>
</g>
<text text-anchor="middle" x="654" y="-149.5" font-family="Helvetica,sans-Serif" font-size="10.00" fill="grey"> metrics</text>
</g>
<!-- Node24 -->
<g id="Node000024" class="node">
<title>Node24</title>
<g id="a_Node000024"><a xlink:href="structngx__brix__proxy__metrics__t.html" target="_top" xlink:title=" ">
<polygon fill="white" stroke="#666666" points="377,-130 234,-130 234,-111 377,-111 377,-130"/>
<text text-anchor="middle" x="305.5" y="-118" font-family="Helvetica,sans-Serif" font-size="10.00">ngx_brix_proxy_metrics_t</text>
</a>
</g>
</g>
<!-- Node24&#45;&gt;Node23 -->
<g id="edge25_Node000023_Node000024" class="edge">
<title>Node24&#45;&gt;Node23</title>
<g id="a_edge25_Node000023_Node000024"><a xlink:title=" ">
<path fill="none" stroke="#9a32cd" stroke-dasharray="5,2" d="M387.39,-120.5C418.41,-120.5 453.36,-120.5 482.63,-120.5"/>
<polygon fill="#9a32cd" stroke="#9a32cd" points="387.03,-117 377.03,-120.5 387.03,-124 387.03,-117"/>
</a>
</g>
<text text-anchor="middle" x="430" y="-123.5" font-family="Helvetica,sans-Serif" font-size="10.00" fill="grey"> proxy</text>
</g>
<!-- Node25 -->
<g id="Node000025" class="node">
<title>Node25</title>
<g id="a_Node000025"><a xlink:href="structngx__brix__proxy__upstream__metrics__t.html" target="_top" xlink:title=" ">
<polygon fill="white" stroke="#666666" points="143,-135.5 0,-135.5 0,-105.5 143,-105.5 143,-135.5"/>
<text text-anchor="start" x="8" y="-123.5" font-family="Helvetica,sans-Serif" font-size="10.00">ngx_brix_proxy_upstream</text>
<text text-anchor="middle" x="71.5" y="-112.5" font-family="Helvetica,sans-Serif" font-size="10.00">_metrics_t</text>
</a>
</g>
</g>
<!-- Node25&#45;&gt;Node24 -->
<g id="edge26_Node000024_Node000025" class="edge">
<title>Node25&#45;&gt;Node24</title>
<g id="a_edge26_Node000024_Node000025"><a xlink:title=" ">
<path fill="none" stroke="#9a32cd" stroke-dasharray="5,2" d="M153.34,-120.5C179.58,-120.5 208.46,-120.5 233.88,-120.5"/>
<polygon fill="#9a32cd" stroke="#9a32cd" points="153.05,-117 143.05,-120.5 153.05,-124 153.05,-117"/>
</a>
</g>
<text text-anchor="middle" x="188.5" y="-123.5" font-family="Helvetica,sans-Serif" font-size="10.00" fill="grey"> upstreams</text>
</g>
<!-- Node26 -->
<g id="Node000026" class="node">
<title>Node26</title>
<g id="a_Node000026"><a xlink:href="structbrix__ctx__sigver__t.html" target="_top" xlink:title=" ">
<polygon fill="white" stroke="#666666" points="598,-93 498,-93 498,-74 598,-74 598,-93"/>
<text text-anchor="middle" x="548" y="-81" font-family="Helvetica,sans-Serif" font-size="10.00">brix_ctx_sigver_t</text>
</a>
</g>
</g>
<!-- Node26&#45;&gt;Node2 -->
<g id="edge27_Node000002_Node000026" class="edge">
<title>Node26&#45;&gt;Node2</title>
<g id="a_edge27_Node000002_Node000026"><a xlink:title=" ">
<path fill="none" stroke="#9a32cd" stroke-dasharray="5,2" d="M608.14,-79.91C632.88,-81.72 659.81,-88.61 677,-107.5 706.59,-140.01 667.57,-270.15 695,-304.5 701.6,-312.76 711.84,-317.47 721.92,-320.15"/>
<polygon fill="#9a32cd" stroke="#9a32cd" points="608.23,-76.41 598.07,-79.44 607.9,-83.41 608.23,-76.41"/>
</a>
</g>
<text text-anchor="middle" x="654" y="-110.5" font-family="Helvetica,sans-Serif" font-size="10.00" fill="grey"> sigver</text>
</g>
<!-- Node27 -->
<g id="Node000027" class="node">
<title>Node27</title>
<g id="a_Node000027"><a xlink:href="structbrix__ctx__rl__t.html" target="_top" xlink:title=" ">
<polygon fill="white" stroke="#666666" points="586.5,-56 509.5,-56 509.5,-37 586.5,-37 586.5,-56"/>
<text text-anchor="middle" x="548" y="-44" font-family="Helvetica,sans-Serif" font-size="10.00">brix_ctx_rl_t</text>
</a>
</g>
</g>
<!-- Node27&#45;&gt;Node2 -->
<g id="edge28_Node000002_Node000027" class="edge">
<title>Node27&#45;&gt;Node2</title>
<g id="a_edge28_Node000002_Node000027"><a xlink:title=" ">
<path fill="none" stroke="#9a32cd" stroke-dasharray="5,2" d="M596.94,-41.49C624.4,-41.46 657.22,-46.76 677,-68.5 712.4,-107.4 662.49,-263.16 695,-304.5 701.54,-312.81 711.76,-317.53 721.85,-320.2"/>
<polygon fill="#9a32cd" stroke="#9a32cd" points="596.63,-37.99 586.72,-41.74 596.8,-44.99 596.63,-37.99"/>
</a>
</g>
<text text-anchor="middle" x="654" y="-71.5" font-family="Helvetica,sans-Serif" font-size="10.00" fill="grey"> rl</text>
</g>
<!-- Node28 -->
<g id="Node000028" class="node">
<title>Node28</title>
<g id="a_Node000028"><a xlink:href="structbrix__ctx__deadline__t.html" target="_top" xlink:title=" ">
<polygon fill="white" stroke="#666666" points="604,-19 492,-19 492,0 604,0 604,-19"/>
<text text-anchor="middle" x="548" y="-7" font-family="Helvetica,sans-Serif" font-size="10.00">brix_ctx_deadline_t</text>
</a>
</g>
</g>
<!-- Node28&#45;&gt;Node2 -->
<g id="edge29_Node000002_Node000028" class="edge">
<title>Node28&#45;&gt;Node2</title>
<g id="a_edge29_Node000002_Node000028"><a xlink:title=" ">
<path fill="none" stroke="#9a32cd" stroke-dasharray="5,2" d="M614.37,-4.59C637.34,-6.48 661.31,-13.21 677,-30.5 718,-75.69 657.53,-256.34 695,-304.5 701.49,-312.84 711.71,-317.58 721.8,-320.24"/>
<polygon fill="#9a32cd" stroke="#9a32cd" points="614.44,-1.09 604.27,-4.05 614.07,-8.08 614.44,-1.09"/>
</a>
</g>
<text text-anchor="middle" x="654" y="-33.5" font-family="Helvetica,sans-Serif" font-size="10.00" fill="grey"> deadline</text>
</g>
<!-- Node29 -->
<g id="Node000029" class="node">
<title>Node29</title>
<g id="a_Node000029"><a xlink:href="structngx__stream__brix__srv__conf__t.html" target="_top" xlink:title=" ">
<polygon fill="white" stroke="#666666" points="814,-295.5 695,-295.5 695,-265.5 814,-265.5 814,-295.5"/>
<text text-anchor="start" x="703" y="-283.5" font-family="Helvetica,sans-Serif" font-size="10.00">ngx_stream_brix_srv</text>
<text text-anchor="middle" x="754.5" y="-272.5" font-family="Helvetica,sans-Serif" font-size="10.00">_conf_t</text>
</a>
</g>
</g>
<!-- Node29&#45;&gt;Node1 -->
<g id="edge30_Node000001_Node000029" class="edge">
<title>Node29&#45;&gt;Node1</title>
<g id="a_edge30_Node000001_Node000029"><a xlink:title=" ">
<path fill="none" stroke="#9a32cd" stroke-dasharray="5,2" d="M824.13,-282.62C835.14,-283.32 846.4,-284.26 857,-285.5 862.77,-286.18 868.8,-287.06 874.76,-288.04"/>
<polygon fill="#9a32cd" stroke="#9a32cd" points="824.3,-279.13 814.12,-282.04 823.9,-286.11 824.3,-279.13"/>
</a>
</g>
<text text-anchor="middle" x="844.5" y="-288.5" font-family="Helvetica,sans-Serif" font-size="10.00" fill="grey"> conf</text>
</g>
</g>
</svg>

<g id="navigator" transform="translate(0 0)" fill="#404254">
  <rect fill="#f2f5e9" fill-opacity="0.5" stroke="#606060" stroke-width=".5" x="0" y="0" width="60" height="60"/>
  <use id="zoomplus" xlink:href="#zoomPlus" x="17" y="9" onmousedown="handleZoom(evt,'in')"/>
  <use id="zoomminus" xlink:href="#zoomMin" x="42" y="9" onmousedown="handleZoom(evt,'out')"/>
  <use id="reset" xlink:href="#resetDef" x="30" y="36" onmousedown="handleReset()"/>
   <use id="arrowup" xlink:href="#arrowUp" x="0" y="0" onmousedown="handlePan(0,-1)"/>
  <use id="arrowright" xlink:href="#arrowRight" x="0" y="0" onmousedown="handlePan(1,0)"/>
  <use id="arrowdown" xlink:href="#arrowDown" x="0" y="0" onmousedown="handlePan(0,1)"/>
  <use id="arrowleft" xlink:href="#arrowLeft" x="0" y="0" onmousedown="handlePan(-1,0)"/>
</g>
<svg viewBox="0 0 15 15" width="100%" height="30px" preserveAspectRatio="xMaxYMin meet">
 <g id="arrow_out" transform="scale(0.3 0.3)">
  <a xlink:href="structbrix__cache__fill__t__coll__graph_org.svg" target="_base">
   <rect id="button" ry="5" rx="5" y="6" x="6" height="38" width="38"
        fill="#f2f5e9" fill-opacity="0.5" stroke="#606060" stroke-width="1.0"/>
   <path id="arrow"
     d="M 11.500037,31.436501 C 11.940474,20.09759 22.043105,11.32322 32.158766,21.979434 L 37.068811,17.246167 C 37.068811,17.246167 37.088388,32 37.088388,32 L 22.160133,31.978069 C 22.160133,31.978069 26.997745,27.140456 26.997745,27.140456 C 18.528582,18.264221 13.291696,25.230495 11.500037,31.436501 z"
     style="fill:#404040;"/>
  </a>
 </g>
</svg>

<style type='text/css'>
<![CDATA[
[data-mouse-over-selected='false'] { opacity: 0.7; }
[data-mouse-over-selected='true']  { opacity: 1.0; }
]]>
</style>
<script type="application/ecmascript"><![CDATA[
document.addEventListener('DOMContentLoaded', (event) => {
  highlightEdges();
  highlightAdjacentNodes();
});
]]></script>
</svg>
