<?xml version="1.0" encoding="UTF-8" standalone="no"?>
<!DOCTYPE svg PUBLIC "-//W3C//DTD SVG 1.1//EN"
 "http://www.w3.org/Graphics/SVG/1.1/DTD/svg11.dtd">
<!-- Generated by graphviz version 2.43.0 (0)
 -->
<!-- Title: brix_vfs_staged_t Pages: 1 -->
<svg width="269pt" height="225pt"
 viewBox="0.00 0.00 268.50 225.00" xmlns="http://www.w3.org/2000/svg" xmlns:xlink="http://www.w3.org/1999/xlink">

<svg id="main" version="1.1" xmlns="http://www.w3.org/2000/svg" xmlns:xlink="http://www.w3.org/1999/xlink" xml:space="preserve" onload="init(evt)">
<style type="text/css"><![CDATA[
.node, .edge {opacity: 0.7;}
.node.selected, .edge.selected {opacity: 1;}
.edge:hover path { stroke: red; }
.edge:hover polygon { stroke: red; fill: red; }
]]></style>
<script type="application/ecmascript" xlink:href="svg.min.js"/>
<svg id="graph" class="graph">
<g id="graph0" class="graph" transform="scale(1 1) rotate(0) translate(4 221)">
<title>brix_vfs_staged_t</title>
<!-- Node1 -->
<g id="Node000001" class="node">
<title>Node1</title>
<g id="a_Node000001"><a xlink:title=" ">
<polygon fill="#999999" stroke="#666666" points="133,-19 30,-19 30,0 133,0 133,-19"/>
<text text-anchor="middle" x="81.5" y="-7" font-family="Helvetica,sans-Serif" font-size="10.00">brix_vfs_staged_t</text>
</a>
</g>
</g>
<!-- Node2 -->
<g id="Node000002" class="node">
<title>Node2</title>
<g id="a_Node000002"><a xlink:href="structbrix__staged__file__t.html" target="_top" xlink:title=" ">
<polygon fill="white" stroke="#666666" points="103,-85 0,-85 0,-66 103,-66 103,-85"/>
<text text-anchor="middle" x="51.5" y="-73" font-family="Helvetica,sans-Serif" font-size="10.00">brix_staged_file_t</text>
</a>
</g>
</g>
<!-- Node2&#45;&gt;Node1 -->
<g id="edge1_Node000001_Node000002" class="edge">
<title>Node2&#45;&gt;Node1</title>
<g id="a_edge1_Node000001_Node000002"><a xlink:title=" ">
<path fill="none" stroke="#9a32cd" stroke-dasharray="5,2" d="M59.85,-56.68C65.54,-44.55 72.82,-29.01 77.33,-19.41"/>
<polygon fill="#9a32cd" stroke="#9a32cd" points="56.62,-55.33 55.55,-65.87 62.96,-58.3 56.62,-55.33"/>
</a>
</g>
<text text-anchor="middle" x="87" y="-40" font-family="Helvetica,sans-Serif" font-size="10.00" fill="grey"> staged</text>
</g>
<!-- Node3 -->
<g id="Node000003" class="node">
<title>Node3</title>
<g id="a_Node000003"><a xlink:href="structbrix__vfs__ctx__t.html" target="_top" xlink:title=" ">
<polygon fill="white" stroke="#666666" points="206,-85 121,-85 121,-66 206,-66 206,-85"/>
<text text-anchor="middle" x="163.5" y="-73" font-family="Helvetica,sans-Serif" font-size="10.00">brix_vfs_ctx_t</text>
</a>
</g>
</g>
<!-- Node3&#45;&gt;Node1 -->
<g id="edge2_Node000001_Node000003" class="edge">
<title>Node3&#45;&gt;Node1</title>
<g id="a_edge2_Node000001_Node000003"><a xlink:title=" ">
<path fill="none" stroke="#9a32cd" stroke-dasharray="5,2" d="M144.27,-59.49C128.21,-46.96 105.89,-29.54 92.65,-19.2"/>
<polygon fill="#9a32cd" stroke="#9a32cd" points="142.4,-62.48 152.44,-65.87 146.71,-56.96 142.4,-62.48"/>
</a>
</g>
<text text-anchor="middle" x="137" y="-40" font-family="Helvetica,sans-Serif" font-size="10.00" fill="grey"> ctx</text>
</g>
<!-- Node4 -->
<g id="Node000004" class="node">
<title>Node4</title>
<g id="a_Node000004"><a xlink:href="structbrix__identity__t.html" target="_top" xlink:title=" ">
<polygon fill="white" stroke="#666666" points="138,-151 51,-151 51,-132 138,-132 138,-151"/>
<text text-anchor="middle" x="94.5" y="-139" font-family="Helvetica,sans-Serif" font-size="10.00">brix_identity_t</text>
</a>
</g>
</g>
<!-- Node4&#45;&gt;Node3 -->
<g id="edge3_Node000003_Node000004" class="edge">
<title>Node4&#45;&gt;Node3</title>
<g id="a_edge3_Node000003_Node000004"><a xlink:title=" ">
<path fill="none" stroke="#9a32cd" stroke-dasharray="5,2" d="M111.39,-124.83C124.75,-112.44 142.92,-95.59 153.9,-85.41"/>
<polygon fill="#9a32cd" stroke="#9a32cd" points="108.76,-122.5 103.81,-131.87 113.52,-127.63 108.76,-122.5"/>
</a>
</g>
<text text-anchor="middle" x="154" y="-106" font-family="Helvetica,sans-Serif" font-size="10.00" fill="grey"> identity</text>
</g>
<!-- Node5 -->
<g id="Node000005" class="node">
<title>Node5</title>
<g id="a_Node000005"><a xlink:href="structbrix__token__scope__t.html" target="_top" xlink:title=" ">
<polygon fill="white" stroke="#666666" points="149.5,-217 39.5,-217 39.5,-198 149.5,-198 149.5,-217"/>
<text text-anchor="middle" x="94.5" y="-205" font-family="Helvetica,sans-Serif" font-size="10.00">brix_token_scope_t</text>
</a>
</g>
</g>
<!-- Node5&#45;&gt;Node4 -->
<g id="edge4_Node000004_Node000005" class="edge">
<title>Node5&#45;&gt;Node4</title>
<g id="a_edge4_Node000004_Node000005"><a xlink:title=" ">
<path fill="none" stroke="#9a32cd" stroke-dasharray="5,2" d="M94.5,-187.58C94.5,-175.63 94.5,-160.72 94.5,-151.41"/>
<polygon fill="#9a32cd" stroke="#9a32cd" points="91,-187.87 94.5,-197.87 98,-187.87 91,-187.87"/>
</a>
</g>
<text text-anchor="middle" x="129.5" y="-172" font-family="Helvetica,sans-Serif" font-size="10.00" fill="grey"> token_scopes</text>
</g>
<!-- Node6 -->
<g id="Node000006" class="node">
<title>Node6</title>
<g id="a_Node000006"><a xlink:href="structbrix__path__result__t.html" target="_top" xlink:title=" ">
<polygon fill="white" stroke="#666666" points="260.5,-151 156.5,-151 156.5,-132 260.5,-132 260.5,-151"/>
<text text-anchor="middle" x="208.5" y="-139" font-family="Helvetica,sans-Serif" font-size="10.00">brix_path_result_t</text>
</a>
</g>
</g>
<!-- Node6&#45;&gt;Node3 -->
<g id="edge5_Node000003_Node000006" class="edge">
<title>Node6&#45;&gt;Node3</title>
<g id="a_edge5_Node000003_Node000006"><a xlink:title=" ">
<path fill="none" stroke="#9a32cd" stroke-dasharray="5,2" d="M196.48,-123.41C187.88,-111.18 176.65,-95.2 169.76,-85.41"/>
<polygon fill="#9a32cd" stroke="#9a32cd" points="193.82,-125.7 202.43,-131.87 199.54,-121.68 193.82,-125.7"/>
</a>
</g>
<text text-anchor="middle" x="211.5" y="-106" font-family="Helvetica,sans-Serif" font-size="10.00" fill="grey"> resolved</text>
</g>
</g>
</svg>
</svg>

<style type='text/css'>
<![CDATA[
[data-mouse-over-selected='false'] { opacity: 0.7; }
[data-mouse-over-selected='true']  { opacity: 1.0; }
]]>
</style>
<script type="application/ecmascript"><![CDATA[
document.addEventListener('DOMContentLoaded', (event) => {
  highlightEdges();
  highlightAdjacentNodes();
});
]]></script>
</svg>
