<?xml version="1.0" encoding="UTF-8" standalone="no"?>
<!DOCTYPE svg PUBLIC "-//W3C//DTD SVG 1.1//EN"
 "http://www.w3.org/Graphics/SVG/1.1/DTD/svg11.dtd">
<!-- Generated by graphviz version 2.43.0 (0)
 -->
<!-- Title: ssi_resp_state_t Pages: 1 -->
<!--zoomable 693 -->

<svg id="main" version="1.1" xmlns="http://www.w3.org/2000/svg" xmlns:xlink="http://www.w3.org/1999/xlink" xml:space="preserve" onload="init(evt)">
<style type="text/css"><![CDATA[
.node, .edge {opacity: 0.7;}
.node.selected, .edge.selected {opacity: 1;}
.edge:hover path { stroke: red; }
.edge:hover polygon { stroke: red; fill: red; }
]]></style>

<defs>
  <circle id="rim" cx="0" cy="0" r="7"/>
  <circle id="rim2" cx="0" cy="0" r="3.5"/>
  <g id="zoomPlus">
    <use xlink:href="#rim" fill="#404040"><set attributeName="fill" to="#808080" begin="zoomplus.mouseover" end="zoomplus.mouseout"/></use>
    <path d="M-4,0h8M0,-4v8" fill="none" stroke="white" stroke-width="1.5" pointer-events="none"/>
  </g>
  <g id="zoomMin">
    <use xlink:href="#rim" fill="#404040"><set attributeName="fill" to="#808080" begin="zoomminus.mouseover" end="zoomminus.mouseout"/></use>
    <path d="M-4,0h8" fill="none" stroke="white" stroke-width="1.5" pointer-events="none"/>
  </g>
  <g id="arrowUp" transform="translate(30 24)">
    <use xlink:href="#rim"/>
    <path pointer-events="none" fill="none" stroke="white" stroke-width="1.5" d="M0,-3.0v7 M-2.5,-0.5L0,-3.0L2.5,-0.5"/>
  </g>
  <g id="arrowRight" transform="rotate(90) translate(36 -43)">
    <use xlink:href="#rim"/>
    <path pointer-events="none" fill="none" stroke="white" stroke-width="1.5" d="M0,-3.0v7 M-2.5,-0.5L0,-3.0L2.5,-0.5"/>
  </g>
  <g id="arrowDown" transform="rotate(180) translate(-30 -48)">
    <use xlink:href="#rim"/>
    <path pointer-events="none" fill="none" stroke="white" stroke-width="1.5" d="M0,-3.0v7 M-2.5,-0.5L0,-3.0L2.5,-0.5"/>
  </g>
  <g id="arrowLeft" transform="rotate(270) translate(-36 17)">
    <use xlink:href="#rim"/>
    <path pointer-events="none" fill="none" stroke="white" stroke-width="1.5" d="M0,-3.0v7 M-2.5,-0.5L0,-3.0L2.5,-0.5"/>
  </g>
  <g id="resetDef">
    <use xlink:href="#rim2" fill="#404040"><set attributeName="fill" to="#808080" begin="reset.mouseover" end="reset.mouseout"/></use>
  </g>
</defs>
<script type="application/ecmascript">
var viewWidth = 937;
var viewHeight = 693;
var sectionId = 'dynsection-0';
</script>
<script type="application/ecmascript" xlink:href="svg.min.js"/>
<svg id="graph" class="graph">
<g id="viewport">
<title>ssi_resp_state_t</title>
<!-- Node1 -->
<g id="Node000001" class="node">
<title>Node1</title>
<g id="a_Node000001"><a xlink:title=" ">
<polygon fill="#999999" stroke="#666666" points="929,-370 834,-370 834,-351 929,-351 929,-370"/>
<text text-anchor="middle" x="881.5" y="-358" font-family="Helvetica,sans-Serif" font-size="10.00">ssi_resp_state_t</text>
</a>
</g>
</g>
<!-- Node2 -->
<g id="Node000002" class="node">
<title>Node2</title>
<g id="a_Node000002"><a xlink:href="structbrix__ssi__req__t.html" target="_top" xlink:title=" ">
<polygon fill="white" stroke="#666666" points="779,-537 695,-537 695,-518 779,-518 779,-537"/>
<text text-anchor="middle" x="737" y="-525" font-family="Helvetica,sans-Serif" font-size="10.00">brix_ssi_req_t</text>
</a>
</g>
</g>
<!-- Node2&#45;&gt;Node1 -->
<g id="edge1_Node000001_Node000002" class="edge">
<title>Node2&#45;&gt;Node1</title>
<g id="a_edge1_Node000001_Node000002"><a xlink:title=" ">
<path fill="none" stroke="#9a32cd" stroke-dasharray="5,2" d="M753.31,-509.56C783.34,-474.36 849.09,-397.31 872.24,-370.19"/>
<polygon fill="#9a32cd" stroke="#9a32cd" points="750.32,-507.67 746.49,-517.55 755.64,-512.22 750.32,-507.67"/>
</a>
</g>
<text text-anchor="middle" x="806.5" y="-456.5" font-family="Helvetica,sans-Serif" font-size="10.00" fill="grey"> rq</text>
</g>
<!-- Node3 -->
<g id="Node000003" class="node">
<title>Node3</title>
<g id="a_Node000003"><a xlink:href="structbrix__ssi__respbuf__t.html" target="_top" xlink:title=" ">
<polygon fill="white" stroke="#666666" points="600.5,-685 495.5,-685 495.5,-666 600.5,-666 600.5,-685"/>
<text text-anchor="middle" x="548" y="-673" font-family="Helvetica,sans-Serif" font-size="10.00">brix_ssi_respbuf_t</text>
</a>
</g>
</g>
<!-- Node3&#45;&gt;Node2 -->
<g id="edge2_Node000002_Node000003" class="edge">
<title>Node3&#45;&gt;Node2</title>
<g id="a_edge2_Node000002_Node000003"><a xlink:title=" ">
<path fill="none" stroke="#9a32cd" stroke-dasharray="5,2" d="M611.03,-676.49C633.7,-674.03 658.34,-667.73 677,-653.5 716.18,-623.62 730.38,-561.35 734.54,-537.29"/>
<polygon fill="#9a32cd" stroke="#9a32cd" points="610.44,-673.02 600.78,-677.36 611.04,-680 610.44,-673.02"/>
</a>
</g>
<text text-anchor="middle" x="654" y="-675.5" font-family="Helvetica,sans-Serif" font-size="10.00" fill="grey"> resp</text>
</g>
<!-- Node4 -->
<g id="Node000004" class="node">
<title>Node4</title>
<g id="a_Node000004"><a xlink:href="structbrix__ctx__t.html" target="_top" xlink:title=" ">
<polygon fill="white" stroke="#666666" points="769.5,-352 704.5,-352 704.5,-333 769.5,-333 769.5,-352"/>
<text text-anchor="middle" x="737" y="-340" font-family="Helvetica,sans-Serif" font-size="10.00">brix_ctx_t</text>
</a>
</g>
</g>
<!-- Node4&#45;&gt;Node1 -->
<g id="edge3_Node000001_Node000004" class="edge">
<title>Node4&#45;&gt;Node1</title>
<g id="a_edge3_Node000001_Node000004"><a xlink:title=" ">
<path fill="none" stroke="#9a32cd" stroke-dasharray="5,2" d="M779.66,-342.64C791.45,-343.07 804.26,-343.92 816,-345.5 825.46,-346.77 835.56,-348.79 844.9,-350.95"/>
<polygon fill="#9a32cd" stroke="#9a32cd" points="779.71,-339.14 769.62,-342.35 779.51,-346.14 779.71,-339.14"/>
</a>
</g>
<text text-anchor="middle" x="806.5" y="-348.5" font-family="Helvetica,sans-Serif" font-size="10.00" fill="grey"> ctx</text>
</g>
<!-- Node5 -->
<g id="Node000005" class="node">
<title>Node5</title>
<g id="a_Node000005"><a xlink:href="structbrix__ctx__recv__t.html" target="_top" xlink:title=" ">
<polygon fill="white" stroke="#666666" points="593.5,-648 502.5,-648 502.5,-629 593.5,-629 593.5,-648"/>
<text text-anchor="middle" x="548" y="-636" font-family="Helvetica,sans-Serif" font-size="10.00">brix_ctx_recv_t</text>
</a>
</g>
</g>
<!-- Node5&#45;&gt;Node4 -->
<g id="edge4_Node000004_Node000005" class="edge">
<title>Node5&#45;&gt;Node4</title>
<g id="a_edge4_Node000004_Node000005"><a xlink:title=" ">
<path fill="none" stroke="#9a32cd" stroke-dasharray="5,2" d="M603.56,-638.37C629.25,-635.38 658.28,-627.3 677,-607.5 707.43,-575.32 685.72,-552.8 695,-509.5 707.89,-449.37 726.58,-377.87 733.39,-352.24"/>
<polygon fill="#9a32cd" stroke="#9a32cd" points="603.17,-634.89 593.54,-639.3 603.82,-641.86 603.17,-634.89"/>
</a>
</g>
<text text-anchor="middle" x="654" y="-635.5" font-family="Helvetica,sans-Serif" font-size="10.00" fill="grey"> recv</text>
</g>
<!-- Node6 -->
<g id="Node000006" class="node">
<title>Node6</title>
<g id="a_Node000006"><a xlink:href="structbrix__ctx__login__t.html" target="_top" xlink:title=" ">
<polygon fill="white" stroke="#666666" points="595,-611 501,-611 501,-592 595,-592 595,-611"/>
<text text-anchor="middle" x="548" y="-599" font-family="Helvetica,sans-Serif" font-size="10.00">brix_ctx_login_t</text>
</a>
</g>
</g>
<!-- Node6&#45;&gt;Node4 -->
<g id="edge5_Node000004_Node000006" class="edge">
<title>Node6&#45;&gt;Node4</title>
<g id="a_edge5_Node000004_Node000006"><a xlink:title=" ">
<path fill="none" stroke="#9a32cd" stroke-dasharray="5,2" d="M605.35,-599.02C630.33,-595.08 658.24,-586.32 677,-567.5 680.98,-563.5 722.98,-394.99 733.58,-352.27"/>
<polygon fill="#9a32cd" stroke="#9a32cd" points="604.67,-595.58 595.23,-600.39 605.61,-602.52 604.67,-595.58"/>
</a>
</g>
<text text-anchor="middle" x="654" y="-595.5" font-family="Helvetica,sans-Serif" font-size="10.00" fill="grey"> login</text>
</g>
<!-- Node7 -->
<g id="Node000007" class="node">
<title>Node7</title>
<g id="a_Node000007"><a xlink:href="structbrix__sess__t.html" target="_top" xlink:title=" ">
<polygon fill="white" stroke="#666666" points="583.5,-574 512.5,-574 512.5,-555 583.5,-555 583.5,-574"/>
<text text-anchor="middle" x="548" y="-562" font-family="Helvetica,sans-Serif" font-size="10.00">brix_sess_t</text>
</a>
</g>
</g>
<!-- Node7&#45;&gt;Node4 -->
<g id="edge6_Node000004_Node000007" class="edge">
<title>Node7&#45;&gt;Node4</title>
<g id="a_edge6_Node000004_Node000007"><a xlink:title=" ">
<path fill="none" stroke="#9a32cd" stroke-dasharray="5,2" d="M593.69,-562.38C621.02,-558.79 654.86,-549.92 677,-528.5 728.86,-478.32 735.27,-382.88 735.95,-352.23"/>
<polygon fill="#9a32cd" stroke="#9a32cd" points="593.13,-558.92 583.58,-563.51 593.9,-565.87 593.13,-558.92"/>
</a>
</g>
<text text-anchor="middle" x="654" y="-555.5" font-family="Helvetica,sans-Serif" font-size="10.00" fill="grey"> sess</text>
</g>
<!-- Node8 -->
<g id="Node000008" class="node">
<title>Node8</title>
<g id="a_Node000008"><a xlink:href="structbrix__sess__xfer__t.html" target="_top" xlink:title=" ">
<polygon fill="white" stroke="#666666" points="353.5,-604 257.5,-604 257.5,-585 353.5,-585 353.5,-604"/>
<text text-anchor="middle" x="305.5" y="-592" font-family="Helvetica,sans-Serif" font-size="10.00">brix_sess_xfer_t</text>
</a>
</g>
</g>
<!-- Node8&#45;&gt;Node7 -->
<g id="edge7_Node000007_Node000008" class="edge">
<title>Node8&#45;&gt;Node7</title>
<g id="a_edge7_Node000007_Node000008"><a xlink:title=" ">
<path fill="none" stroke="#9a32cd" stroke-dasharray="5,2" d="M363.97,-595.12C394.2,-594.66 431.79,-592.82 465,-587.5 474.78,-585.93 496.79,-579.71 515.55,-574.12"/>
<polygon fill="#9a32cd" stroke="#9a32cd" points="363.56,-591.63 353.6,-595.23 363.64,-598.63 363.56,-591.63"/>
</a>
</g>
<text text-anchor="middle" x="430" y="-596.5" font-family="Helvetica,sans-Serif" font-size="10.00" fill="grey"> xfers</text>
</g>
<!-- Node12 -->
<g id="Node000012" class="node">
<title>Node12</title>
<g id="a_Node000012"><a xlink:href="structbrix__file__t.html" target="_top" xlink:title=" ">
<polygon fill="white" stroke="#666666" points="580.5,-537 515.5,-537 515.5,-518 580.5,-518 580.5,-537"/>
<text text-anchor="middle" x="548" y="-525" font-family="Helvetica,sans-Serif" font-size="10.00">brix_file_t</text>
</a>
</g>
</g>
<!-- Node8&#45;&gt;Node12 -->
<g id="edge12_Node000012_Node000008" class="edge">
<title>Node8&#45;&gt;Node12</title>
<g id="a_edge12_Node000012_Node000008"><a xlink:title=" ">
<path fill="none" stroke="#9a32cd" stroke-dasharray="5,2" d="M352.3,-582.33C383.99,-573.85 427.11,-562.18 465,-551.5 481.56,-546.83 499.95,-541.47 515.11,-536.99"/>
<polygon fill="#9a32cd" stroke="#9a32cd" points="351.19,-579 342.44,-584.97 353,-585.77 351.19,-579"/>
</a>
</g>
<text text-anchor="middle" x="430" y="-573.5" font-family="Helvetica,sans-Serif" font-size="10.00" fill="grey"> sess_xfer</text>
</g>
<!-- Node9 -->
<g id="Node000009" class="node">
<title>Node9</title>
<g id="a_Node000009"><a xlink:href="structbrix__identity__t.html" target="_top" xlink:title=" ">
<polygon fill="white" stroke="#666666" points="591.5,-500 504.5,-500 504.5,-481 591.5,-481 591.5,-500"/>
<text text-anchor="middle" x="548" y="-488" font-family="Helvetica,sans-Serif" font-size="10.00">brix_identity_t</text>
</a>
</g>
</g>
<!-- Node9&#45;&gt;Node4 -->
<g id="edge8_Node000004_Node000009" class="edge">
<title>Node9&#45;&gt;Node4</title>
<g id="a_edge8_Node000004_Node000009"><a xlink:title=" ">
<path fill="none" stroke="#9a32cd" stroke-dasharray="5,2" d="M601.5,-482.92C626.68,-477.04 655.88,-466.69 677,-448.5 708.6,-421.29 726.61,-372.76 733.15,-352.17"/>
<polygon fill="#9a32cd" stroke="#9a32cd" points="600.76,-479.5 591.72,-485.03 602.23,-486.34 600.76,-479.5"/>
</a>
</g>
<text text-anchor="middle" x="654" y="-476.5" font-family="Helvetica,sans-Serif" font-size="10.00" fill="grey"> identity</text>
</g>
<!-- Node10 -->
<g id="Node000010" class="node">
<title>Node10</title>
<g id="a_Node000010"><a xlink:href="structbrix__token__scope__t.html" target="_top" xlink:title=" ">
<polygon fill="white" stroke="#666666" points="360.5,-463 250.5,-463 250.5,-444 360.5,-444 360.5,-463"/>
<text text-anchor="middle" x="305.5" y="-451" font-family="Helvetica,sans-Serif" font-size="10.00">brix_token_scope_t</text>
</a>
</g>
</g>
<!-- Node10&#45;&gt;Node9 -->
<g id="edge9_Node000009_Node000010" class="edge">
<title>Node10&#45;&gt;Node9</title>
<g id="a_edge9_Node000009_Node000010"><a xlink:title=" ">
<path fill="none" stroke="#9a32cd" stroke-dasharray="5,2" d="M370.69,-463.37C412.92,-469.87 467.05,-478.2 504.12,-483.9"/>
<polygon fill="#9a32cd" stroke="#9a32cd" points="371.19,-459.91 360.77,-461.85 370.12,-466.83 371.19,-459.91"/>
</a>
</g>
<text text-anchor="middle" x="430" y="-479.5" font-family="Helvetica,sans-Serif" font-size="10.00" fill="grey"> token_scopes</text>
</g>
<!-- Node21 -->
<g id="Node000021" class="node">
<title>Node21</title>
<g id="a_Node000021"><a xlink:href="structbrix__ctx__token__t.html" target="_top" xlink:title=" ">
<polygon fill="white" stroke="#666666" points="596.5,-463 499.5,-463 499.5,-444 596.5,-444 596.5,-463"/>
<text text-anchor="middle" x="548" y="-451" font-family="Helvetica,sans-Serif" font-size="10.00">brix_ctx_token_t</text>
</a>
</g>
</g>
<!-- Node10&#45;&gt;Node21 -->
<g id="edge22_Node000021_Node000010" class="edge">
<title>Node10&#45;&gt;Node21</title>
<g id="a_edge22_Node000021_Node000010"><a xlink:title=" ">
<path fill="none" stroke="#9a32cd" stroke-dasharray="5,2" d="M370.58,-442.96C378.78,-441.95 387.07,-441.08 395,-440.5 426.03,-438.23 433.98,-438.06 465,-440.5 476.21,-441.38 488.2,-442.93 499.45,-444.67"/>
<polygon fill="#9a32cd" stroke="#9a32cd" points="370.11,-439.49 360.65,-444.27 371.02,-446.43 370.11,-439.49"/>
</a>
</g>
<text text-anchor="middle" x="430" y="-443.5" font-family="Helvetica,sans-Serif" font-size="10.00" fill="grey"> scopes</text>
</g>
<!-- Node11 -->
<g id="Node000011" class="node">
<title>Node11</title>
<g id="a_Node000011"><a xlink:href="structbrix__ctx__pmark__t.html" target="_top" xlink:title=" ">
<polygon fill="white" stroke="#666666" points="598.5,-426 497.5,-426 497.5,-407 598.5,-407 598.5,-426"/>
<text text-anchor="middle" x="548" y="-414" font-family="Helvetica,sans-Serif" font-size="10.00">brix_ctx_pmark_t</text>
</a>
</g>
</g>
<!-- Node11&#45;&gt;Node4 -->
<g id="edge10_Node000004_Node000011" class="edge">
<title>Node11&#45;&gt;Node4</title>
<g id="a_edge10_Node000004_Node000011"><a xlink:title=" ">
<path fill="none" stroke="#9a32cd" stroke-dasharray="5,2" d="M603.08,-404.53C626.37,-398.45 653.57,-390.08 677,-379.5 693.75,-371.93 711.41,-360.31 722.99,-352.11"/>
<polygon fill="#9a32cd" stroke="#9a32cd" points="602.19,-401.15 593.36,-407 603.91,-407.93 602.19,-401.15"/>
</a>
</g>
<text text-anchor="middle" x="654" y="-398.5" font-family="Helvetica,sans-Serif" font-size="10.00" fill="grey"> pmark</text>
</g>
<!-- Node12&#45;&gt;Node4 -->
<g id="edge11_Node000004_Node000012" class="edge">
<title>Node12&#45;&gt;Node4</title>
<g id="a_edge11_Node000004_Node000012"><a xlink:title=" ">
<path fill="none" stroke="#9a32cd" stroke-dasharray="5,2" d="M590.93,-524.19C618.5,-519.94 653.68,-510.31 677,-488.5 718.33,-449.85 731.4,-378.24 734.89,-352.25"/>
<polygon fill="#9a32cd" stroke="#9a32cd" points="590.21,-520.75 580.77,-525.56 591.15,-527.69 590.21,-520.75"/>
</a>
</g>
<text text-anchor="middle" x="654" y="-516.5" font-family="Helvetica,sans-Serif" font-size="10.00" fill="grey"> files</text>
</g>
<!-- Node13 -->
<g id="Node000013" class="node">
<title>Node13</title>
<g id="a_Node000013"><a xlink:href="structbrix__wrts__entry__t.html" target="_top" xlink:title=" ">
<polygon fill="white" stroke="#666666" points="356,-552 255,-552 255,-533 356,-533 356,-552"/>
<text text-anchor="middle" x="305.5" y="-540" font-family="Helvetica,sans-Serif" font-size="10.00">brix_wrts_entry_t</text>
</a>
</g>
</g>
<!-- Node13&#45;&gt;Node12 -->
<g id="edge13_Node000012_Node000013" class="edge">
<title>Node13&#45;&gt;Node12</title>
<g id="a_edge13_Node000012_Node000013"><a xlink:title=" ">
<path fill="none" stroke="#9a32cd" stroke-dasharray="5,2" d="M366.13,-538.78C413.29,-535.84 477.28,-531.85 515.15,-529.49"/>
<polygon fill="#9a32cd" stroke="#9a32cd" points="365.8,-535.29 356.04,-539.41 366.24,-542.28 365.8,-535.29"/>
</a>
</g>
<text text-anchor="middle" x="430" y="-539.5" font-family="Helvetica,sans-Serif" font-size="10.00" fill="grey"> wrts_journal</text>
</g>
<!-- Node14 -->
<g id="Node000014" class="node">
<title>Node14</title>
<g id="a_Node000014"><a xlink:href="structbrix__pgw__fob__entry__t.html" target="_top" xlink:title=" ">
<polygon fill="white" stroke="#666666" points="366.5,-515 244.5,-515 244.5,-496 366.5,-496 366.5,-515"/>
<text text-anchor="middle" x="305.5" y="-503" font-family="Helvetica,sans-Serif" font-size="10.00">brix_pgw_fob_entry_t</text>
</a>
</g>
</g>
<!-- Node14&#45;&gt;Node12 -->
<g id="edge14_Node000012_Node000014" class="edge">
<title>Node14&#45;&gt;Node12</title>
<g id="a_edge14_Node000012_Node000014"><a xlink:title=" ">
<path fill="none" stroke="#9a32cd" stroke-dasharray="5,2" d="M377.07,-510.15C404.54,-512.14 436.27,-514.66 465,-517.5 481.7,-519.15 500.26,-521.38 515.5,-523.32"/>
<polygon fill="#9a32cd" stroke="#9a32cd" points="376.99,-506.63 366.77,-509.41 376.49,-513.62 376.99,-506.63"/>
</a>
</g>
<text text-anchor="middle" x="430" y="-520.5" font-family="Helvetica,sans-Serif" font-size="10.00" fill="grey"> pgw_fob</text>
</g>
<!-- Node15 -->
<g id="Node000015" class="node">
<title>Node15</title>
<g id="a_Node000015"><a xlink:href="structbrix__ctx__out__t.html" target="_top" xlink:title=" ">
<polygon fill="white" stroke="#666666" points="591,-389 505,-389 505,-370 591,-370 591,-389"/>
<text text-anchor="middle" x="548" y="-377" font-family="Helvetica,sans-Serif" font-size="10.00">brix_ctx_out_t</text>
</a>
</g>
</g>
<!-- Node15&#45;&gt;Node4 -->
<g id="edge15_Node000004_Node000015" class="edge">
<title>Node15&#45;&gt;Node4</title>
<g id="a_edge15_Node000004_Node000015"><a xlink:title=" ">
<path fill="none" stroke="#9a32cd" stroke-dasharray="5,2" d="M601.21,-370.79C624.47,-366.74 652.16,-361.67 677,-356.5 685.86,-354.65 695.43,-352.47 704.23,-350.38"/>
<polygon fill="#9a32cd" stroke="#9a32cd" points="600.46,-367.37 591.2,-372.52 601.65,-374.27 600.46,-367.37"/>
</a>
</g>
<text text-anchor="middle" x="654" y="-367.5" font-family="Helvetica,sans-Serif" font-size="10.00" fill="grey"> out</text>
</g>
<!-- Node16 -->
<g id="Node000016" class="node">
<title>Node16</title>
<g id="a_Node000016"><a xlink:href="structbrix__resp__slot__t.html" target="_top" xlink:title=" ">
<polygon fill="white" stroke="#666666" points="352.5,-389 258.5,-389 258.5,-370 352.5,-370 352.5,-389"/>
<text text-anchor="middle" x="305.5" y="-377" font-family="Helvetica,sans-Serif" font-size="10.00">brix_resp_slot_t</text>
</a>
</g>
</g>
<!-- Node16&#45;&gt;Node15 -->
<g id="edge16_Node000015_Node000016" class="edge">
<title>Node16&#45;&gt;Node15</title>
<g id="a_edge16_Node000015_Node000016"><a xlink:title=" ">
<path fill="none" stroke="#9a32cd" stroke-dasharray="5,2" d="M362.7,-379.5C406.11,-379.5 465.24,-379.5 504.7,-379.5"/>
<polygon fill="#9a32cd" stroke="#9a32cd" points="362.59,-376 352.59,-379.5 362.59,-383 362.59,-376"/>
</a>
</g>
<text text-anchor="middle" x="430" y="-382.5" font-family="Helvetica,sans-Serif" font-size="10.00" fill="grey"> ring</text>
</g>
<!-- Node17 -->
<g id="Node000017" class="node">
<title>Node17</title>
<g id="a_Node000017"><a xlink:href="structbrix__ctx__rd__t.html" target="_top" xlink:title=" ">
<polygon fill="white" stroke="#666666" points="588,-352 508,-352 508,-333 588,-333 588,-352"/>
<text text-anchor="middle" x="548" y="-340" font-family="Helvetica,sans-Serif" font-size="10.00">brix_ctx_rd_t</text>
</a>
</g>
</g>
<!-- Node17&#45;&gt;Node4 -->
<g id="edge17_Node000004_Node000017" class="edge">
<title>Node17&#45;&gt;Node4</title>
<g id="a_edge17_Node000004_Node000017"><a xlink:title=" ">
<path fill="none" stroke="#9a32cd" stroke-dasharray="5,2" d="M598.27,-342.5C631.83,-342.5 675.26,-342.5 704.29,-342.5"/>
<polygon fill="#9a32cd" stroke="#9a32cd" points="598.2,-339 588.2,-342.5 598.2,-346 598.2,-339"/>
</a>
</g>
<text text-anchor="middle" x="654" y="-345.5" font-family="Helvetica,sans-Serif" font-size="10.00" fill="grey"> rd</text>
</g>
<!-- Node18 -->
<g id="Node000018" class="node">
<title>Node18</title>
<g id="a_Node000018"><a xlink:href="structbrix__read__slot__t.html" target="_top" xlink:title=" ">
<polygon fill="white" stroke="#666666" points="353,-352 258,-352 258,-333 353,-333 353,-352"/>
<text text-anchor="middle" x="305.5" y="-340" font-family="Helvetica,sans-Serif" font-size="10.00">brix_read_slot_t</text>
</a>
</g>
</g>
<!-- Node18&#45;&gt;Node17 -->
<g id="edge18_Node000017_Node000018" class="edge">
<title>Node18&#45;&gt;Node17</title>
<g id="a_edge18_Node000017_Node000018"><a xlink:title=" ">
<path fill="none" stroke="#9a32cd" stroke-dasharray="5,2" d="M363.23,-342.5C407.68,-342.5 468.38,-342.5 507.63,-342.5"/>
<polygon fill="#9a32cd" stroke="#9a32cd" points="363.16,-339 353.16,-342.5 363.16,-346 363.16,-339"/>
</a>
</g>
<text text-anchor="middle" x="430" y="-345.5" font-family="Helvetica,sans-Serif" font-size="10.00" fill="grey"> pool</text>
</g>
<!-- Node19 -->
<g id="Node000019" class="node">
<title>Node19</title>
<g id="a_Node000019"><a xlink:href="structbrix__ctx__gsi__t.html" target="_top" xlink:title=" ">
<polygon fill="white" stroke="#666666" points="590,-315 506,-315 506,-296 590,-296 590,-315"/>
<text text-anchor="middle" x="548" y="-303" font-family="Helvetica,sans-Serif" font-size="10.00">brix_ctx_gsi_t</text>
</a>
</g>
</g>
<!-- Node19&#45;&gt;Node4 -->
<g id="edge19_Node000004_Node000019" class="edge">
<title>Node19&#45;&gt;Node4</title>
<g id="a_edge19_Node000004_Node000019"><a xlink:title=" ">
<path fill="none" stroke="#9a32cd" stroke-dasharray="5,2" d="M600.18,-313.35C623.67,-317.19 651.83,-322.15 677,-327.5 685.89,-329.39 695.47,-331.7 704.26,-333.94"/>
<polygon fill="#9a32cd" stroke="#9a32cd" points="600.52,-309.86 590.09,-311.72 599.4,-316.77 600.52,-309.86"/>
</a>
</g>
<text text-anchor="middle" x="654" y="-330.5" font-family="Helvetica,sans-Serif" font-size="10.00" fill="grey"> gsi</text>
</g>
<!-- Node20 -->
<g id="Node000020" class="node">
<title>Node20</title>
<g id="a_Node000020"><a xlink:href="structbrix__ctx__pwd__t.html" target="_top" xlink:title=" ">
<polygon fill="white" stroke="#666666" points="593,-278 503,-278 503,-259 593,-259 593,-278"/>
<text text-anchor="middle" x="548" y="-266" font-family="Helvetica,sans-Serif" font-size="10.00">brix_ctx_pwd_t</text>
</a>
</g>
</g>
<!-- Node20&#45;&gt;Node4 -->
<g id="edge20_Node000004_Node000020" class="edge">
<title>Node20&#45;&gt;Node4</title>
<g id="a_edge20_Node000004_Node000020"><a xlink:title=" ">
<path fill="none" stroke="#9a32cd" stroke-dasharray="5,2" d="M602.9,-279.22C626.27,-284.88 653.59,-292.89 677,-303.5 694.45,-311.41 712.54,-324.16 724.01,-332.92"/>
<polygon fill="#9a32cd" stroke="#9a32cd" points="603.69,-275.81 593.15,-276.94 602.09,-282.63 603.69,-275.81"/>
</a>
</g>
<text text-anchor="middle" x="654" y="-306.5" font-family="Helvetica,sans-Serif" font-size="10.00" fill="grey"> pwd</text>
</g>
<!-- Node21&#45;&gt;Node4 -->
<g id="edge21_Node000004_Node000021" class="edge">
<title>Node21&#45;&gt;Node4</title>
<g id="a_edge21_Node000004_Node000021"><a xlink:title=" ">
<path fill="none" stroke="#9a32cd" stroke-dasharray="5,2" d="M606.53,-441.8C629.84,-435.2 656.13,-425.22 677,-410.5 700.25,-394.1 720.26,-366.65 729.89,-352.15"/>
<polygon fill="#9a32cd" stroke="#9a32cd" points="605.49,-438.46 596.74,-444.43 607.31,-445.22 605.49,-438.46"/>
</a>
</g>
<text text-anchor="middle" x="654" y="-436.5" font-family="Helvetica,sans-Serif" font-size="10.00" fill="grey"> token</text>
</g>
<!-- Node22 -->
<g id="Node000022" class="node">
<title>Node22</title>
<g id="a_Node000022"><a xlink:href="structbrix__ctx__throttle__t.html" target="_top" xlink:title=" ">
<polygon fill="white" stroke="#666666" points="601,-241 495,-241 495,-222 601,-222 601,-241"/>
<text text-anchor="middle" x="548" y="-229" font-family="Helvetica,sans-Serif" font-size="10.00">brix_ctx_throttle_t</text>
</a>
</g>
</g>
<!-- Node22&#45;&gt;Node4 -->
<g id="edge23_Node000004_Node000022" class="edge">
<title>Node22&#45;&gt;Node4</title>
<g id="a_edge23_Node000004_Node000022"><a xlink:title=" ">
<path fill="none" stroke="#9a32cd" stroke-dasharray="5,2" d="M611.26,-243.11C633.31,-249.18 657.47,-258.22 677,-271.5 701.38,-288.08 721.2,-317.51 730.41,-332.75"/>
<polygon fill="#9a32cd" stroke="#9a32cd" points="611.87,-239.65 601.31,-240.52 610.11,-246.42 611.87,-239.65"/>
</a>
</g>
<text text-anchor="middle" x="654" y="-274.5" font-family="Helvetica,sans-Serif" font-size="10.00" fill="grey"> throttle</text>
</g>
<!-- Node23 -->
<g id="Node000023" class="node">
<title>Node23</title>
<g id="a_Node000023"><a xlink:href="structbrix__ctx__prepare__t.html" target="_top" xlink:title=" ">
<polygon fill="white" stroke="#666666" points="601.5,-204 494.5,-204 494.5,-185 601.5,-185 601.5,-204"/>
<text text-anchor="middle" x="548" y="-192" font-family="Helvetica,sans-Serif" font-size="10.00">brix_ctx_prepare_t</text>
</a>
</g>
</g>
<!-- Node23&#45;&gt;Node4 -->
<g id="edge24_Node000004_Node000023" class="edge">
<title>Node23&#45;&gt;Node4</title>
<g id="a_edge24_Node000004_Node000023"><a xlink:title=" ">
<path fill="none" stroke="#9a32cd" stroke-dasharray="5,2" d="M611.57,-203.31C634.09,-208.97 658.49,-218.26 677,-233.5 710.06,-260.72 727.37,-311.48 733.44,-332.74"/>
<polygon fill="#9a32cd" stroke="#9a32cd" points="612.25,-199.87 601.72,-201.02 610.67,-206.69 612.25,-199.87"/>
</a>
</g>
<text text-anchor="middle" x="654" y="-236.5" font-family="Helvetica,sans-Serif" font-size="10.00" fill="grey"> prepare</text>
</g>
<!-- Node24 -->
<g id="Node000024" class="node">
<title>Node24</title>
<g id="a_Node000024"><a xlink:href="structbrix__ctx__totals__t.html" target="_top" xlink:title=" ">
<polygon fill="white" stroke="#666666" points="597,-167 499,-167 499,-148 597,-148 597,-167"/>
<text text-anchor="middle" x="548" y="-155" font-family="Helvetica,sans-Serif" font-size="10.00">brix_ctx_totals_t</text>
</a>
</g>
</g>
<!-- Node24&#45;&gt;Node4 -->
<g id="edge25_Node000004_Node000024" class="edge">
<title>Node24&#45;&gt;Node4</title>
<g id="a_edge25_Node000004_Node000024"><a xlink:title=" ">
<path fill="none" stroke="#9a32cd" stroke-dasharray="5,2" d="M607.29,-163.05C631.33,-167.99 657.96,-177.24 677,-194.5 719.63,-233.14 731.93,-306.69 735.05,-332.92"/>
<polygon fill="#9a32cd" stroke="#9a32cd" points="607.64,-159.56 597.17,-161.19 606.37,-166.44 607.64,-159.56"/>
</a>
</g>
<text text-anchor="middle" x="654" y="-197.5" font-family="Helvetica,sans-Serif" font-size="10.00" fill="grey"> totals</text>
</g>
<!-- Node25 -->
<g id="Node000025" class="node">
<title>Node25</title>
<g id="a_Node000025"><a xlink:href="structngx__brix__srv__metrics__t.html" target="_top" xlink:title=" ">
<polygon fill="white" stroke="#666666" points="613,-130 483,-130 483,-111 613,-111 613,-130"/>
<text text-anchor="middle" x="548" y="-118" font-family="Helvetica,sans-Serif" font-size="10.00">ngx_brix_srv_metrics_t</text>
</a>
</g>
</g>
<!-- Node25&#45;&gt;Node4 -->
<g id="edge26_Node000004_Node000025" class="edge">
<title>Node25&#45;&gt;Node4</title>
<g id="a_edge26_Node000004_Node000025"><a xlink:title=" ">
<path fill="none" stroke="#9a32cd" stroke-dasharray="5,2" d="M623.06,-127.12C642.63,-132.1 662.36,-140.5 677,-154.5 729.66,-204.86 735.53,-301.57 736.02,-332.63"/>
<polygon fill="#9a32cd" stroke="#9a32cd" points="623.7,-123.68 613.17,-124.88 622.15,-130.5 623.7,-123.68"/>
</a>
</g>
<text text-anchor="middle" x="654" y="-157.5" font-family="Helvetica,sans-Serif" font-size="10.00" fill="grey"> metrics</text>
</g>
<!-- Node26 -->
<g id="Node000026" class="node">
<title>Node26</title>
<g id="a_Node000026"><a xlink:href="structngx__brix__proxy__metrics__t.html" target="_top" xlink:title=" ">
<polygon fill="white" stroke="#666666" points="377,-130 234,-130 234,-111 377,-111 377,-130"/>
<text text-anchor="middle" x="305.5" y="-118" font-family="Helvetica,sans-Serif" font-size="10.00">ngx_brix_proxy_metrics_t</text>
</a>
</g>
</g>
<!-- Node26&#45;&gt;Node25 -->
<g id="edge27_Node000025_Node000026" class="edge">
<title>Node26&#45;&gt;Node25</title>
<g id="a_edge27_Node000025_Node000026"><a xlink:title=" ">
<path fill="none" stroke="#9a32cd" stroke-dasharray="5,2" d="M387.39,-120.5C418.41,-120.5 453.36,-120.5 482.63,-120.5"/>
<polygon fill="#9a32cd" stroke="#9a32cd" points="387.03,-117 377.03,-120.5 387.03,-124 387.03,-117"/>
</a>
</g>
<text text-anchor="middle" x="430" y="-123.5" font-family="Helvetica,sans-Serif" font-size="10.00" fill="grey"> proxy</text>
</g>
<!-- Node27 -->
<g id="Node000027" class="node">
<title>Node27</title>
<g id="a_Node000027"><a xlink:href="structngx__brix__proxy__upstream__metrics__t.html" target="_top" xlink:title=" ">
<polygon fill="white" stroke="#666666" points="143,-135.5 0,-135.5 0,-105.5 143,-105.5 143,-135.5"/>
<text text-anchor="start" x="8" y="-123.5" font-family="Helvetica,sans-Serif" font-size="10.00">ngx_brix_proxy_upstream</text>
<text text-anchor="middle" x="71.5" y="-112.5" font-family="Helvetica,sans-Serif" font-size="10.00">_metrics_t</text>
</a>
</g>
</g>
<!-- Node27&#45;&gt;Node26 -->
<g id="edge28_Node000026_Node000027" class="edge">
<title>Node27&#45;&gt;Node26</title>
<g id="a_edge28_Node000026_Node000027"><a xlink:title=" ">
<path fill="none" stroke="#9a32cd" stroke-dasharray="5,2" d="M153.34,-120.5C179.58,-120.5 208.46,-120.5 233.88,-120.5"/>
<polygon fill="#9a32cd" stroke="#9a32cd" points="153.05,-117 143.05,-120.5 153.05,-124 153.05,-117"/>
</a>
</g>
<text text-anchor="middle" x="188.5" y="-123.5" font-family="Helvetica,sans-Serif" font-size="10.00" fill="grey"> upstreams</text>
</g>
<!-- Node28 -->
<g id="Node000028" class="node">
<title>Node28</title>
<g id="a_Node000028"><a xlink:href="structbrix__ctx__sigver__t.html" target="_top" xlink:title=" ">
<polygon fill="white" stroke="#666666" points="598,-93 498,-93 498,-74 598,-74 598,-93"/>
<text text-anchor="middle" x="548" y="-81" font-family="Helvetica,sans-Serif" font-size="10.00">brix_ctx_sigver_t</text>
</a>
</g>
</g>
<!-- Node28&#45;&gt;Node4 -->
<g id="edge29_Node000004_Node000028" class="edge">
<title>Node28&#45;&gt;Node4</title>
<g id="a_edge29_Node000004_Node000028"><a xlink:title=" ">
<path fill="none" stroke="#9a32cd" stroke-dasharray="5,2" d="M608.47,-84.96C632.6,-88.55 658.97,-96.74 677,-114.5 709.27,-146.27 729.87,-293.75 734.83,-332.92"/>
<polygon fill="#9a32cd" stroke="#9a32cd" points="608.66,-81.46 598.3,-83.69 607.79,-88.41 608.66,-81.46"/>
</a>
</g>
<text text-anchor="middle" x="654" y="-117.5" font-family="Helvetica,sans-Serif" font-size="10.00" fill="grey"> sigver</text>
</g>
<!-- Node29 -->
<g id="Node000029" class="node">
<title>Node29</title>
<g id="a_Node000029"><a xlink:href="structbrix__ctx__rl__t.html" target="_top" xlink:title=" ">
<polygon fill="white" stroke="#666666" points="586.5,-56 509.5,-56 509.5,-37 586.5,-37 586.5,-56"/>
<text text-anchor="middle" x="548" y="-44" font-family="Helvetica,sans-Serif" font-size="10.00">brix_ctx_rl_t</text>
</a>
</g>
</g>
<!-- Node29&#45;&gt;Node4 -->
<g id="edge30_Node000004_Node000029" class="edge">
<title>Node29&#45;&gt;Node4</title>
<g id="a_edge30_Node000004_Node000029"><a xlink:title=" ">
<path fill="none" stroke="#9a32cd" stroke-dasharray="5,2" d="M596.68,-45.84C623.73,-48.05 656.23,-55.48 677,-76.5 714.24,-114.19 731.48,-289.58 735.21,-332.84"/>
<polygon fill="#9a32cd" stroke="#9a32cd" points="596.81,-42.34 586.62,-45.23 596.39,-49.33 596.81,-42.34"/>
</a>
</g>
<text text-anchor="middle" x="654" y="-79.5" font-family="Helvetica,sans-Serif" font-size="10.00" fill="grey"> rl</text>
</g>
<!-- Node30 -->
<g id="Node000030" class="node">
<title>Node30</title>
<g id="a_Node000030"><a xlink:href="structbrix__ctx__deadline__t.html" target="_top" xlink:title=" ">
<polygon fill="white" stroke="#666666" points="604,-19 492,-19 492,0 604,0 604,-19"/>
<text text-anchor="middle" x="548" y="-7" font-family="Helvetica,sans-Serif" font-size="10.00">brix_ctx_deadline_t</text>
</a>
</g>
</g>
<!-- Node30&#45;&gt;Node4 -->
<g id="edge31_Node000004_Node000030" class="edge">
<title>Node30&#45;&gt;Node4</title>
<g id="a_edge31_Node000004_Node000030"><a xlink:title=" ">
<path fill="none" stroke="#9a32cd" stroke-dasharray="5,2" d="M614.11,-9.6C636.82,-12.96 660.67,-20.77 677,-37.5 719.57,-81.11 732.96,-285.43 735.51,-332.71"/>
<polygon fill="#9a32cd" stroke="#9a32cd" points="614.49,-6.12 604.14,-8.39 613.65,-13.07 614.49,-6.12"/>
</a>
</g>
<text text-anchor="middle" x="654" y="-40.5" font-family="Helvetica,sans-Serif" font-size="10.00" fill="grey"> deadline</text>
</g>
</g>
</svg>

<g id="navigator" transform="translate(0 0)" fill="#404254">
  <rect fill="#f2f5e9" fill-opacity="0.5" stroke="#606060" stroke-width=".5" x="0" y="0" width="60" height="60"/>
  <use id="zoomplus" xlink:href="#zoomPlus" x="17" y="9" onmousedown="handleZoom(evt,'in')"/>
  <use id="zoomminus" xlink:href="#zoomMin" x="42" y="9" onmousedown="handleZoom(evt,'out')"/>
  <use id="reset" xlink:href="#resetDef" x="30" y="36" onmousedown="handleReset()"/>
   <use id="arrowup" xlink:href="#arrowUp" x="0" y="0" onmousedown="handlePan(0,-1)"/>
  <use id="arrowright" xlink:href="#arrowRight" x="0" y="0" onmousedown="handlePan(1,0)"/>
  <use id="arrowdown" xlink:href="#arrowDown" x="0" y="0" onmousedown="handlePan(0,1)"/>
  <use id="arrowleft" xlink:href="#arrowLeft" x="0" y="0" onmousedown="handlePan(-1,0)"/>
</g>
<svg viewBox="0 0 15 15" width="100%" height="30px" preserveAspectRatio="xMaxYMin meet">
 <g id="arrow_out" transform="scale(0.3 0.3)">
  <a xlink:href="structssi__resp__state__t__coll__graph_org.svg" target="_base">
   <rect id="button" ry="5" rx="5" y="6" x="6" height="38" width="38"
        fill="#f2f5e9" fill-opacity="0.5" stroke="#606060" stroke-width="1.0"/>
   <path id="arrow"
     d="M 11.500037,31.436501 C 11.940474,20.09759 22.043105,11.32322 32.158766,21.979434 L 37.068811,17.246167 C 37.068811,17.246167 37.088388,32 37.088388,32 L 22.160133,31.978069 C 22.160133,31.978069 26.997745,27.140456 26.997745,27.140456 C 18.528582,18.264221 13.291696,25.230495 11.500037,31.436501 z"
     style="fill:#404040;"/>
  </a>
 </g>
</svg>

<style type='text/css'>
<![CDATA[
[data-mouse-over-selected='false'] { opacity: 0.7; }
[data-mouse-over-selected='true']  { opacity: 1.0; }
]]>
</style>
<script type="application/ecmascript"><![CDATA[
document.addEventListener('DOMContentLoaded', (event) => {
  highlightEdges();
  highlightAdjacentNodes();
});
]]></script>
</svg>
