<?xml version="1.0" encoding="UTF-8" standalone="no"?>
<!DOCTYPE svg PUBLIC "-//W3C//DTD SVG 1.1//EN"
 "http://www.w3.org/Graphics/SVG/1.1/DTD/svg11.dtd">
<!-- Generated by graphviz version 2.43.0 (0)
 -->
<!-- Title: webdav_introspect_data_t Pages: 1 -->
<svg width="1185pt" height="438pt"
 viewBox="0.00 0.00 1185.00 438.00" xmlns="http://www.w3.org/2000/svg" xmlns:xlink="http://www.w3.org/1999/xlink">
<g id="graph0" class="graph" transform="scale(1 1) rotate(0) translate(4 434)">
<title>webdav_introspect_data_t</title>
<!-- Node1 -->
<g id="Node000001" class="node">
<title>Node1</title>
<g id="a_Node000001"><a xlink:title=" ">
<polygon fill="#999999" stroke="#666666" points="1177,-274 1032,-274 1032,-255 1177,-255 1177,-274"/>
<text text-anchor="middle" x="1104.5" y="-262" font-family="Helvetica,sans-Serif" font-size="10.00">webdav_introspect_data_t</text>
</a>
</g>
</g>
<!-- Node2 -->
<g id="Node000002" class="node">
<title>Node2</title>
<g id="a_Node000002"><a xlink:href="structngx__http__brix__webdav__req__ctx__t.html" target="_top" xlink:title=" ">
<polygon fill="white" stroke="#666666" points="543,-359.5 416,-359.5 416,-329.5 543,-329.5 543,-359.5"/>
<text text-anchor="start" x="424" y="-347.5" font-family="Helvetica,sans-Serif" font-size="10.00">ngx_http_brix_webdav</text>
<text text-anchor="middle" x="479.5" y="-336.5" font-family="Helvetica,sans-Serif" font-size="10.00">_req_ctx_t</text>
</a>
</g>
</g>
<!-- Node2&#45;&gt;Node1 -->
<g id="edge1_Node000001_Node000002" class="edge">
<title>Node2&#45;&gt;Node1</title>
<g id="a_edge1_Node000001_Node000002"><a xlink:title=" ">
<path fill="none" stroke="#9a32cd" stroke-dasharray="5,2" d="M553.13,-339.5C608.12,-335.38 685.45,-328.86 753,-320.5 859.41,-307.33 983.09,-286.19 1051.41,-274"/>
<polygon fill="#9a32cd" stroke="#9a32cd" points="552.85,-336.02 543.14,-340.25 553.37,-343 552.85,-336.02"/>
</a>
</g>
<text text-anchor="middle" x="798.5" y="-321.5" font-family="Helvetica,sans-Serif" font-size="10.00" fill="grey"> parent_ctx</text>
</g>
<!-- Node3 -->
<g id="Node000003" class="node">
<title>Node3</title>
<g id="a_Node000003"><a xlink:href="structxrdhttp__req__ctx__t.html" target="_top" xlink:title=" ">
<polygon fill="white" stroke="#666666" points="324,-393 222,-393 222,-374 324,-374 324,-393"/>
<text text-anchor="middle" x="273" y="-381" font-family="Helvetica,sans-Serif" font-size="10.00">xrdhttp_req_ctx_t</text>
</a>
</g>
</g>
<!-- Node3&#45;&gt;Node2 -->
<g id="edge2_Node000002_Node000003" class="edge">
<title>Node3&#45;&gt;Node2</title>
<g id="a_edge2_Node000002_Node000003"><a xlink:title=" ">
<path fill="none" stroke="#9a32cd" stroke-dasharray="5,2" d="M334.02,-372.05C359.74,-367.15 389.79,-361.42 415.8,-356.46"/>
<polygon fill="#9a32cd" stroke="#9a32cd" points="333.19,-368.65 324.03,-373.96 334.5,-375.52 333.19,-368.65"/>
</a>
</g>
<text text-anchor="middle" x="373" y="-372.5" font-family="Helvetica,sans-Serif" font-size="10.00" fill="grey"> xrdhttp</text>
</g>
<!-- Node4 -->
<g id="Node000004" class="node">
<title>Node4</title>
<g id="a_Node000004"><a xlink:href="structbrix__identity__t.html" target="_top" xlink:title=" ">
<polygon fill="white" stroke="#666666" points="316.5,-308 229.5,-308 229.5,-289 316.5,-289 316.5,-308"/>
<text text-anchor="middle" x="273" y="-296" font-family="Helvetica,sans-Serif" font-size="10.00">brix_identity_t</text>
</a>
</g>
</g>
<!-- Node4&#45;&gt;Node2 -->
<g id="edge3_Node000002_Node000004" class="edge">
<title>Node4&#45;&gt;Node2</title>
<g id="a_edge3_Node000002_Node000004"><a xlink:title=" ">
<path fill="none" stroke="#9a32cd" stroke-dasharray="5,2" d="M326.64,-305.83C348.81,-309.32 374.8,-313.96 398,-319.5 409.67,-322.29 422.13,-325.85 433.66,-329.42"/>
<polygon fill="#9a32cd" stroke="#9a32cd" points="327.17,-302.37 316.75,-304.3 326.1,-309.28 327.17,-302.37"/>
</a>
</g>
<text text-anchor="middle" x="373" y="-322.5" font-family="Helvetica,sans-Serif" font-size="10.00" fill="grey"> identity</text>
</g>
<!-- Node5 -->
<g id="Node000005" class="node">
<title>Node5</title>
<g id="a_Node000005"><a xlink:href="structbrix__token__scope__t.html" target="_top" xlink:title=" ">
<polygon fill="white" stroke="#666666" points="110,-308 0,-308 0,-289 110,-289 110,-308"/>
<text text-anchor="middle" x="55" y="-296" font-family="Helvetica,sans-Serif" font-size="10.00">brix_token_scope_t</text>
</a>
</g>
</g>
<!-- Node5&#45;&gt;Node2 -->
<g id="edge5_Node000002_Node000005" class="edge">
<title>Node5&#45;&gt;Node2</title>
<g id="a_edge5_Node000002_Node000005"><a xlink:title=" ">
<path fill="none" stroke="#9a32cd" stroke-dasharray="5,2" d="M107.62,-310.01C114.45,-311.31 121.38,-312.52 128,-313.5 228.16,-328.31 345.56,-336.94 415.88,-341.18"/>
<polygon fill="#9a32cd" stroke="#9a32cd" points="108.22,-306.56 97.73,-308.06 106.86,-313.43 108.22,-306.56"/>
</a>
</g>
<text text-anchor="middle" x="273" y="-338.5" font-family="Helvetica,sans-Serif" font-size="10.00" fill="grey"> token_scopes</text>
</g>
<!-- Node5&#45;&gt;Node4 -->
<g id="edge4_Node000004_Node000005" class="edge">
<title>Node5&#45;&gt;Node4</title>
<g id="a_edge4_Node000004_Node000005"><a xlink:title=" ">
<path fill="none" stroke="#9a32cd" stroke-dasharray="5,2" d="M120.42,-298.5C155.62,-298.5 198.25,-298.5 229.32,-298.5"/>
<polygon fill="#9a32cd" stroke="#9a32cd" points="120.23,-295 110.23,-298.5 120.23,-302 120.23,-295"/>
</a>
</g>
<text text-anchor="middle" x="163" y="-301.5" font-family="Helvetica,sans-Serif" font-size="10.00" fill="grey"> token_scopes</text>
</g>
<!-- Node15 -->
<g id="Node000015" class="node">
<title>Node15</title>
<g id="a_Node000015"><a xlink:href="structbrix__token__claims__t.html" target="_top" xlink:title=" ">
<polygon fill="white" stroke="#666666" points="330,-271 216,-271 216,-252 330,-252 330,-271"/>
<text text-anchor="middle" x="273" y="-259" font-family="Helvetica,sans-Serif" font-size="10.00">brix_token_claims_t</text>
</a>
</g>
</g>
<!-- Node5&#45;&gt;Node15 -->
<g id="edge16_Node000015_Node000005" class="edge">
<title>Node5&#45;&gt;Node15</title>
<g id="a_edge16_Node000015_Node000005"><a xlink:title=" ">
<path fill="none" stroke="#9a32cd" stroke-dasharray="5,2" d="M110.14,-286.89C116.16,-285.7 122.2,-284.55 128,-283.5 156.87,-278.29 189.14,-273.29 215.81,-269.37"/>
<polygon fill="#9a32cd" stroke="#9a32cd" points="109.21,-283.51 100.1,-288.92 110.59,-290.37 109.21,-283.51"/>
</a>
</g>
<text text-anchor="middle" x="163" y="-286.5" font-family="Helvetica,sans-Serif" font-size="10.00" fill="grey"> scopes</text>
</g>
<!-- Node6 -->
<g id="Node000006" class="node">
<title>Node6</title>
<g id="a_Node000006"><a xlink:href="structbrix__sess__xfer__t.html" target="_top" xlink:title=" ">
<polygon fill="white" stroke="#666666" points="321,-430 225,-430 225,-411 321,-411 321,-430"/>
<text text-anchor="middle" x="273" y="-418" font-family="Helvetica,sans-Serif" font-size="10.00">brix_sess_xfer_t</text>
</a>
</g>
</g>
<!-- Node6&#45;&gt;Node2 -->
<g id="edge6_Node000002_Node000006" class="edge">
<title>Node6&#45;&gt;Node2</title>
<g id="a_edge6_Node000002_Node000006"><a xlink:title=" ">
<path fill="none" stroke="#9a32cd" stroke-dasharray="5,2" d="M323.3,-408.36C346.32,-402.14 373.9,-393.9 398,-384.5 416.17,-377.41 435.79,-367.71 451.11,-359.63"/>
<polygon fill="#9a32cd" stroke="#9a32cd" points="322.18,-405.04 313.41,-410.98 323.97,-411.8 322.18,-405.04"/>
</a>
</g>
<text text-anchor="middle" x="373" y="-402.5" font-family="Helvetica,sans-Serif" font-size="10.00" fill="grey"> sess_xfer</text>
</g>
<!-- Node7 -->
<g id="Node000007" class="node">
<title>Node7</title>
<g id="a_Node000007"><a xlink:href="structngx__http__brix__webdav__loc__conf__t.html" target="_top" xlink:title=" ">
<polygon fill="white" stroke="#666666" points="971,-194.5 844,-194.5 844,-164.5 971,-164.5 971,-194.5"/>
<text text-anchor="start" x="852" y="-182.5" font-family="Helvetica,sans-Serif" font-size="10.00">ngx_http_brix_webdav</text>
<text text-anchor="middle" x="907.5" y="-171.5" font-family="Helvetica,sans-Serif" font-size="10.00">_loc_conf_t</text>
</a>
</g>
</g>
<!-- Node7&#45;&gt;Node1 -->
<g id="edge7_Node000001_Node000007" class="edge">
<title>Node7&#45;&gt;Node1</title>
<g id="a_edge7_Node000001_Node000007"><a xlink:title=" ">
<path fill="none" stroke="#9a32cd" stroke-dasharray="5,2" d="M952.21,-198.55C992.39,-216.07 1050.3,-241.31 1081.54,-254.93"/>
<polygon fill="#9a32cd" stroke="#9a32cd" points="953.48,-195.29 942.91,-194.5 950.68,-201.7 953.48,-195.29"/>
</a>
</g>
<text text-anchor="middle" x="1001.5" y="-228.5" font-family="Helvetica,sans-Serif" font-size="10.00" fill="grey"> conf</text>
</g>
<!-- Node8 -->
<g id="Node000008" class="node">
<title>Node8</title>
<g id="a_Node000008"><a xlink:href="structngx__http__brix__shared__conf__t.html" target="_top" xlink:title=" ">
<polygon fill="white" stroke="#666666" points="744.5,-237.5 622.5,-237.5 622.5,-207.5 744.5,-207.5 744.5,-237.5"/>
<text text-anchor="start" x="630.5" y="-225.5" font-family="Helvetica,sans-Serif" font-size="10.00">ngx_http_brix_shared</text>
<text text-anchor="middle" x="683.5" y="-214.5" font-family="Helvetica,sans-Serif" font-size="10.00">_conf_t</text>
</a>
</g>
</g>
<!-- Node8&#45;&gt;Node7 -->
<g id="edge8_Node000007_Node000008" class="edge">
<title>Node8&#45;&gt;Node7</title>
<g id="a_edge8_Node000007_Node000008"><a xlink:title=" ">
<path fill="none" stroke="#9a32cd" stroke-dasharray="5,2" d="M754.49,-208.94C783.07,-203.41 815.86,-197.06 843.66,-191.67"/>
<polygon fill="#9a32cd" stroke="#9a32cd" points="753.73,-205.53 744.58,-210.86 755.06,-212.4 753.73,-205.53"/>
</a>
</g>
<text text-anchor="middle" x="798.5" y="-208.5" font-family="Helvetica,sans-Serif" font-size="10.00" fill="grey"> common</text>
</g>
<!-- Node9 -->
<g id="Node000009" class="node">
<title>Node9</title>
<g id="a_Node000009"><a xlink:href="structbrix__pmark__conf__t.html" target="_top" xlink:title=" ">
<polygon fill="white" stroke="#666666" points="533,-232 426,-232 426,-213 533,-213 533,-232"/>
<text text-anchor="middle" x="479.5" y="-220" font-family="Helvetica,sans-Serif" font-size="10.00">brix_pmark_conf_t</text>
</a>
</g>
</g>
<!-- Node9&#45;&gt;Node8 -->
<g id="edge9_Node000008_Node000009" class="edge">
<title>Node9&#45;&gt;Node8</title>
<g id="a_edge9_Node000008_Node000009"><a xlink:title=" ">
<path fill="none" stroke="#9a32cd" stroke-dasharray="5,2" d="M543.24,-222.5C568.45,-222.5 597.41,-222.5 622.36,-222.5"/>
<polygon fill="#9a32cd" stroke="#9a32cd" points="543.05,-219 533.05,-222.5 543.05,-226 543.05,-219"/>
</a>
</g>
<text text-anchor="middle" x="578.5" y="-225.5" font-family="Helvetica,sans-Serif" font-size="10.00" fill="grey"> pmark</text>
</g>
<!-- Node10 -->
<g id="Node000010" class="node">
<title>Node10</title>
<g id="a_Node000010"><a xlink:href="structngx__http__brix__tpc__conf__t.html" target="_top" xlink:title=" ">
<polygon fill="white" stroke="#666666" points="753,-189 614,-189 614,-170 753,-170 753,-189"/>
<text text-anchor="middle" x="683.5" y="-177" font-family="Helvetica,sans-Serif" font-size="10.00">ngx_http_brix_tpc_conf_t</text>
</a>
</g>
</g>
<!-- Node10&#45;&gt;Node7 -->
<g id="edge10_Node000007_Node000010" class="edge">
<title>Node10&#45;&gt;Node7</title>
<g id="a_edge10_Node000007_Node000010"><a xlink:title=" ">
<path fill="none" stroke="#9a32cd" stroke-dasharray="5,2" d="M763.55,-179.5C789.89,-179.5 818.84,-179.5 843.76,-179.5"/>
<polygon fill="#9a32cd" stroke="#9a32cd" points="763.22,-176 753.22,-179.5 763.22,-183 763.22,-176"/>
</a>
</g>
<text text-anchor="middle" x="798.5" y="-182.5" font-family="Helvetica,sans-Serif" font-size="10.00" fill="grey"> tpc_cred</text>
</g>
<!-- Node11 -->
<g id="Node000011" class="node">
<title>Node11</title>
<g id="a_Node000011"><a xlink:href="structbrix__jwks__key__t.html" target="_top" xlink:title=" ">
<polygon fill="white" stroke="#666666" points="731,-152 636,-152 636,-133 731,-133 731,-152"/>
<text text-anchor="middle" x="683.5" y="-140" font-family="Helvetica,sans-Serif" font-size="10.00">brix_jwks_key_t</text>
</a>
</g>
</g>
<!-- Node11&#45;&gt;Node7 -->
<g id="edge11_Node000007_Node000011" class="edge">
<title>Node11&#45;&gt;Node7</title>
<g id="a_edge11_Node000007_Node000011"><a xlink:title=" ">
<path fill="none" stroke="#9a32cd" stroke-dasharray="5,2" d="M741.1,-150.9C767.01,-154.85 798.09,-159.73 826,-164.5 831.75,-165.48 837.72,-166.53 843.69,-167.61"/>
<polygon fill="#9a32cd" stroke="#9a32cd" points="741.49,-147.42 731.08,-149.38 740.44,-154.34 741.49,-147.42"/>
</a>
</g>
<text text-anchor="middle" x="798.5" y="-167.5" font-family="Helvetica,sans-Serif" font-size="10.00" fill="grey"> jwks_keys</text>
</g>
<!-- Node12 -->
<g id="Node000012" class="node">
<title>Node12</title>
<g id="a_Node000012"><a xlink:href="structbrix__kv__t.html" target="_top" xlink:title=" ">
<polygon fill="white" stroke="#666666" points="510.5,-86 448.5,-86 448.5,-67 510.5,-67 510.5,-86"/>
<text text-anchor="middle" x="479.5" y="-74" font-family="Helvetica,sans-Serif" font-size="10.00">brix_kv_t</text>
</a>
</g>
</g>
<!-- Node12&#45;&gt;Node7 -->
<g id="edge12_Node000007_Node000012" class="edge">
<title>Node12&#45;&gt;Node7</title>
<g id="a_edge12_Node000007_Node000012"><a xlink:title=" ">
<path fill="none" stroke="#9a32cd" stroke-dasharray="5,2" d="M520.83,-65.93C575.14,-53.66 674.07,-38.21 753,-64.5 813.03,-84.49 868.51,-138.15 893.12,-164.5"/>
<polygon fill="#9a32cd" stroke="#9a32cd" points="519.85,-62.57 510.91,-68.26 521.44,-69.39 519.85,-62.57"/>
</a>
</g>
<text text-anchor="middle" x="683.5" y="-78.5" font-family="Helvetica,sans-Serif" font-size="10.00" fill="grey"> revoke_kv</text>
<text text-anchor="middle" x="683.5" y="-67.5" font-family="Helvetica,sans-Serif" font-size="10.00" fill="grey">token_cache_kv</text>
</g>
<!-- Node16 -->
<g id="Node000016" class="node">
<title>Node16</title>
<g id="a_Node000016"><a xlink:href="structbrix__rate__limit__conf__t.html" target="_top" xlink:title=" ">
<polygon fill="white" stroke="#666666" points="745,-115 622,-115 622,-96 745,-96 745,-115"/>
<text text-anchor="middle" x="683.5" y="-103" font-family="Helvetica,sans-Serif" font-size="10.00">brix_rate_limit_conf_t</text>
</a>
</g>
</g>
<!-- Node12&#45;&gt;Node16 -->
<g id="edge18_Node000016_Node000012" class="edge">
<title>Node12&#45;&gt;Node16</title>
<g id="a_edge18_Node000016_Node000012"><a xlink:title=" ">
<path fill="none" stroke="#9a32cd" stroke-dasharray="5,2" d="M520.89,-82.3C549.81,-86.45 589.25,-92.11 621.93,-96.8"/>
<polygon fill="#9a32cd" stroke="#9a32cd" points="521.14,-78.8 510.74,-80.84 520.14,-85.73 521.14,-78.8"/>
</a>
</g>
<text text-anchor="middle" x="578.5" y="-96.5" font-family="Helvetica,sans-Serif" font-size="10.00" fill="grey"> kv</text>
</g>
<!-- Node13 -->
<g id="Node000013" class="node">
<title>Node13</title>
<g id="a_Node000013"><a xlink:href="structbrix__token__l1__s.html" target="_top" xlink:title=" ">
<polygon fill="white" stroke="#666666" points="729,-275 638,-275 638,-256 729,-256 729,-275"/>
<text text-anchor="middle" x="683.5" y="-263" font-family="Helvetica,sans-Serif" font-size="10.00">brix_token_l1_t</text>
</a>
</g>
</g>
<!-- Node13&#45;&gt;Node7 -->
<g id="edge13_Node000007_Node000013" class="edge">
<title>Node13&#45;&gt;Node7</title>
<g id="a_edge13_Node000007_Node000013"><a xlink:title=" ">
<path fill="none" stroke="#9a32cd" stroke-dasharray="5,2" d="M730.62,-253.19C738.13,-251.05 745.8,-248.78 753,-246.5 785.84,-236.11 794.37,-234.12 826,-220.5 844.01,-212.75 863.62,-202.79 878.98,-194.63"/>
<polygon fill="#9a32cd" stroke="#9a32cd" points="729.58,-249.85 720.9,-255.92 731.48,-256.59 729.58,-249.85"/>
</a>
</g>
<text text-anchor="middle" x="798.5" y="-244.5" font-family="Helvetica,sans-Serif" font-size="10.00" fill="grey"> token_l1</text>
</g>
<!-- Node14 -->
<g id="Node000014" class="node">
<title>Node14</title>
<g id="a_Node000014"><a xlink:href="structbrix__token__l1__slot__t.html" target="_top" xlink:title=" ">
<polygon fill="white" stroke="#666666" points="536.5,-272 422.5,-272 422.5,-253 536.5,-253 536.5,-272"/>
<text text-anchor="middle" x="479.5" y="-260" font-family="Helvetica,sans-Serif" font-size="10.00">brix_token_l1_slot_t</text>
</a>
</g>
</g>
<!-- Node14&#45;&gt;Node13 -->
<g id="edge14_Node000013_Node000014" class="edge">
<title>Node14&#45;&gt;Node13</title>
<g id="a_edge14_Node000013_Node000014"><a xlink:title=" ">
<path fill="none" stroke="#9a32cd" stroke-dasharray="5,2" d="M546.85,-263.49C576.73,-263.93 611.21,-264.44 637.93,-264.84"/>
<polygon fill="#9a32cd" stroke="#9a32cd" points="546.55,-259.98 536.5,-263.33 546.45,-266.98 546.55,-259.98"/>
</a>
</g>
<text text-anchor="middle" x="578.5" y="-267.5" font-family="Helvetica,sans-Serif" font-size="10.00" fill="grey"> slots</text>
</g>
<!-- Node15&#45;&gt;Node14 -->
<g id="edge15_Node000014_Node000015" class="edge">
<title>Node15&#45;&gt;Node14</title>
<g id="a_edge15_Node000014_Node000015"><a xlink:title=" ">
<path fill="none" stroke="#9a32cd" stroke-dasharray="5,2" d="M340.49,-261.83C366.97,-261.95 397.12,-262.1 422.47,-262.23"/>
<polygon fill="#9a32cd" stroke="#9a32cd" points="340.17,-258.32 330.15,-261.77 340.13,-265.32 340.17,-258.32"/>
</a>
</g>
<text text-anchor="middle" x="373" y="-265.5" font-family="Helvetica,sans-Serif" font-size="10.00" fill="grey"> claims</text>
</g>
<!-- Node16&#45;&gt;Node7 -->
<g id="edge17_Node000007_Node000016" class="edge">
<title>Node16&#45;&gt;Node7</title>
<g id="a_edge17_Node000007_Node000016"><a xlink:title=" ">
<path fill="none" stroke="#9a32cd" stroke-dasharray="5,2" d="M741.14,-117.29C767.32,-123.4 798.61,-131.65 826,-141.5 843.74,-147.88 862.86,-156.81 878.01,-164.41"/>
<polygon fill="#9a32cd" stroke="#9a32cd" points="741.91,-113.87 731.38,-115.05 740.34,-120.69 741.91,-113.87"/>
</a>
</g>
<text text-anchor="middle" x="798.5" y="-144.5" font-family="Helvetica,sans-Serif" font-size="10.00" fill="grey"> rate_limit</text>
</g>
<!-- Node17 -->
<g id="Node000017" class="node">
<title>Node17</title>
<g id="a_Node000017"><a xlink:href="structbrix__mirror__conf__t.html" target="_top" xlink:title=" ">
<polygon fill="white" stroke="#666666" points="736.5,-19 630.5,-19 630.5,0 736.5,0 736.5,-19"/>
<text text-anchor="middle" x="683.5" y="-7" font-family="Helvetica,sans-Serif" font-size="10.00">brix_mirror_conf_t</text>
</a>
</g>
</g>
<!-- Node17&#45;&gt;Node7 -->
<g id="edge19_Node000007_Node000017" class="edge">
<title>Node17&#45;&gt;Node7</title>
<g id="a_edge19_Node000007_Node000017"><a xlink:title=" ">
<path fill="none" stroke="#9a32cd" stroke-dasharray="5,2" d="M747.06,-6.82C773.47,-8.55 803.29,-14.58 826,-30.5 873.19,-63.58 895.31,-133.35 903.08,-164.23"/>
<polygon fill="#9a32cd" stroke="#9a32cd" points="746.9,-3.31 736.74,-6.34 746.57,-10.3 746.9,-3.31"/>
</a>
</g>
<text text-anchor="middle" x="798.5" y="-33.5" font-family="Helvetica,sans-Serif" font-size="10.00" fill="grey"> mirror</text>
</g>
<!-- Node18 -->
<g id="Node000018" class="node">
<title>Node18</title>
<g id="a_Node000018"><a xlink:href="structbrix__acc__http__t.html" target="_top" xlink:title=" ">
<polygon fill="white" stroke="#666666" points="729,-312 638,-312 638,-293 729,-293 729,-312"/>
<text text-anchor="middle" x="683.5" y="-300" font-family="Helvetica,sans-Serif" font-size="10.00">brix_acc_http_t</text>
</a>
</g>
</g>
<!-- Node18&#45;&gt;Node7 -->
<g id="edge20_Node000007_Node000018" class="edge">
<title>Node18&#45;&gt;Node7</title>
<g id="a_edge20_Node000007_Node000018"><a xlink:title=" ">
<path fill="none" stroke="#9a32cd" stroke-dasharray="5,2" d="M739.16,-291.38C766.61,-284.19 799.57,-273.03 826,-256.5 853.39,-239.38 879.3,-211.83 894.01,-194.74"/>
<polygon fill="#9a32cd" stroke="#9a32cd" points="738.16,-288.02 729.31,-293.85 739.86,-294.81 738.16,-288.02"/>
</a>
</g>
<text text-anchor="middle" x="798.5" y="-284.5" font-family="Helvetica,sans-Serif" font-size="10.00" fill="grey"> acc</text>
</g>
</g>
</svg>
