<?xml version="1.0" encoding="UTF-8" standalone="no"?>
<!DOCTYPE svg PUBLIC "-//W3C//DTD SVG 1.1//EN"
 "http://www.w3.org/Graphics/SVG/1.1/DTD/svg11.dtd">
<!-- Generated by graphviz version 2.43.0 (0)
 -->
<!-- Title: gsi_cresp_state_t Pages: 1 -->
<svg width="208pt" height="170pt"
 viewBox="0.00 0.00 208.00 170.00" xmlns="http://www.w3.org/2000/svg" xmlns:xlink="http://www.w3.org/1999/xlink">
<g id="graph0" class="graph" transform="scale(1 1) rotate(0) translate(4 166)">
<title>gsi_cresp_state_t</title>
<!-- Node1 -->
<g id="Node000001" class="node">
<title>Node1</title>
<g id="a_Node000001"><a xlink:title=" ">
<polygon fill="#999999" stroke="#666666" points="173,-19 72,-19 72,0 173,0 173,-19"/>
<text text-anchor="middle" x="122.5" y="-7" font-family="Helvetica,sans-Serif" font-size="10.00">gsi_cresp_state_t</text>
</a>
</g>
</g>
<!-- Node2 -->
<g id="Node000002" class="node">
<title>Node2</title>
<g id="a_Node000002"><a xlink:href="structgsi__cresp__ctx.html" target="_top" xlink:title=" ">
<polygon fill="white" stroke="#666666" points="83,-85 0,-85 0,-66 83,-66 83,-85"/>
<text text-anchor="middle" x="41.5" y="-73" font-family="Helvetica,sans-Serif" font-size="10.00">gsi_cresp_ctx</text>
</a>
</g>
</g>
<!-- Node2&#45;&gt;Node1 -->
<g id="edge1_Node000001_Node000002" class="edge">
<title>Node2&#45;&gt;Node1</title>
<g id="a_edge1_Node000001_Node000002"><a xlink:title=" ">
<path fill="none" stroke="#9a32cd" stroke-dasharray="5,2" d="M60.5,-59.49C76.36,-46.96 98.41,-29.54 111.49,-19.2"/>
<polygon fill="#9a32cd" stroke="#9a32cd" points="58.1,-56.92 52.42,-65.87 62.44,-62.42 58.1,-56.92"/>
</a>
</g>
<text text-anchor="middle" x="97" y="-40" font-family="Helvetica,sans-Serif" font-size="10.00" fill="grey"> res</text>
</g>
<!-- Node3 -->
<g id="Node000003" class="node">
<title>Node3</title>
<g id="a_Node000003"><a xlink:href="structbrix__gbuf.html" target="_top" xlink:title=" ">
<polygon fill="white" stroke="#666666" points="72.5,-162 10.5,-162 10.5,-143 72.5,-143 72.5,-162"/>
<text text-anchor="middle" x="41.5" y="-150" font-family="Helvetica,sans-Serif" font-size="10.00">brix_gbuf</text>
</a>
</g>
</g>
<!-- Node3&#45;&gt;Node2 -->
<g id="edge2_Node000002_Node000003" class="edge">
<title>Node3&#45;&gt;Node2</title>
<g id="a_edge2_Node000002_Node000003"><a xlink:title=" ">
<path fill="none" stroke="#9a32cd" stroke-dasharray="5,2" d="M41.5,-132.52C41.5,-117.24 41.5,-96.48 41.5,-85"/>
<polygon fill="#9a32cd" stroke="#9a32cd" points="38,-132.9 41.5,-142.9 45,-132.9 38,-132.9"/>
</a>
</g>
<text text-anchor="middle" x="55.5" y="-117" font-family="Helvetica,sans-Serif" font-size="10.00" fill="grey"> inner</text>
<text text-anchor="middle" x="55.5" y="-106" font-family="Helvetica,sans-Serif" font-size="10.00" fill="grey">outer</text>
</g>
<!-- Node4 -->
<g id="Node000004" class="node">
<title>Node4</title>
<g id="a_Node000004"><a xlink:href="structbrix__gsi__cipher__t.html" target="_top" xlink:title=" ">
<polygon fill="white" stroke="#666666" points="200,-85 101,-85 101,-66 200,-66 200,-85"/>
<text text-anchor="middle" x="150.5" y="-73" font-family="Helvetica,sans-Serif" font-size="10.00">brix_gsi_cipher_t</text>
</a>
</g>
</g>
<!-- Node4&#45;&gt;Node1 -->
<g id="edge3_Node000001_Node000004" class="edge">
<title>Node4&#45;&gt;Node1</title>
<g id="a_edge3_Node000001_Node000004"><a xlink:title=" ">
<path fill="none" stroke="#9a32cd" stroke-dasharray="5,2" d="M142.71,-56.68C137.4,-44.55 130.6,-29.01 126.4,-19.41"/>
<polygon fill="#9a32cd" stroke="#9a32cd" points="139.51,-58.11 146.72,-65.87 145.92,-55.3 139.51,-58.11"/>
</a>
</g>
<text text-anchor="middle" x="165" y="-40" font-family="Helvetica,sans-Serif" font-size="10.00" fill="grey"> sesscipher</text>
</g>
</g>
</svg>
