<?xml version="1.0" encoding="UTF-8" standalone="no"?>
<!DOCTYPE svg PUBLIC "-//W3C//DTD SVG 1.1//EN"
 "http://www.w3.org/Graphics/SVG/1.1/DTD/svg11.dtd">
<!-- Generated by graphviz version 2.43.0 (0)
 -->
<!-- Title: sd_http_req_t Pages: 1 -->
<svg width="279pt" height="159pt"
 viewBox="0.00 0.00 279.00 159.00" xmlns="http://www.w3.org/2000/svg" xmlns:xlink="http://www.w3.org/1999/xlink">

<svg id="main" version="1.1" xmlns="http://www.w3.org/2000/svg" xmlns:xlink="http://www.w3.org/1999/xlink" xml:space="preserve" onload="init(evt)">
<style type="text/css"><![CDATA[
.node, .edge {opacity: 0.7;}
.node.selected, .edge.selected {opacity: 1;}
.edge:hover path { stroke: red; }
.edge:hover polygon { stroke: red; fill: red; }
]]></style>
<script type="application/ecmascript" xlink:href="svg.min.js"/>
<svg id="graph" class="graph">
<g id="graph0" class="graph" transform="scale(1 1) rotate(0) translate(4 155)">
<title>sd_http_req_t</title>
<!-- Node1 -->
<g id="Node000001" class="node">
<title>Node1</title>
<g id="a_Node000001"><a xlink:title=" ">
<polygon fill="#999999" stroke="#666666" points="211,-19 128,-19 128,0 211,0 211,-19"/>
<text text-anchor="middle" x="169.5" y="-7" font-family="Helvetica,sans-Serif" font-size="10.00">sd_http_req_t</text>
</a>
</g>
</g>
<!-- Node2 -->
<g id="Node000002" class="node">
<title>Node2</title>
<g id="a_Node000002"><a xlink:href="structsd__http__inst__state.html" target="_top" xlink:title=" ">
<polygon fill="white" stroke="#666666" points="165.5,-85 59.5,-85 59.5,-66 165.5,-66 165.5,-85"/>
<text text-anchor="middle" x="112.5" y="-73" font-family="Helvetica,sans-Serif" font-size="10.00">sd_http_inst_state</text>
</a>
</g>
</g>
<!-- Node2&#45;&gt;Node1 -->
<g id="edge1_Node000001_Node000002" class="edge">
<title>Node2&#45;&gt;Node1</title>
<g id="a_edge1_Node000001_Node000002"><a xlink:title=" ">
<path fill="none" stroke="#9a32cd" stroke-dasharray="5,2" d="M127.09,-58.12C138.06,-45.81 152.67,-29.39 161.57,-19.41"/>
<polygon fill="#9a32cd" stroke="#9a32cd" points="124.22,-56.07 120.19,-65.87 129.45,-60.73 124.22,-56.07"/>
</a>
</g>
<text text-anchor="middle" x="150.5" y="-40" font-family="Helvetica,sans-Serif" font-size="10.00" fill="grey"> is</text>
</g>
<!-- Node3 -->
<g id="Node000003" class="node">
<title>Node3</title>
<g id="a_Node000003"><a xlink:href="structsd__http__endpoint.html" target="_top" xlink:title=" ">
<polygon fill="white" stroke="#666666" points="101,-151 0,-151 0,-132 101,-132 101,-151"/>
<text text-anchor="middle" x="50.5" y="-139" font-family="Helvetica,sans-Serif" font-size="10.00">sd_http_endpoint</text>
</a>
</g>
</g>
<!-- Node3&#45;&gt;Node2 -->
<g id="edge2_Node000002_Node000003" class="edge">
<title>Node3&#45;&gt;Node2</title>
<g id="a_edge2_Node000002_Node000003"><a xlink:title=" ">
<path fill="none" stroke="#9a32cd" stroke-dasharray="5,2" d="M66.02,-124.48C77.99,-112.12 94.1,-95.49 103.87,-85.41"/>
<polygon fill="#9a32cd" stroke="#9a32cd" points="63.31,-122.25 58.86,-131.87 68.33,-127.12 63.31,-122.25"/>
</a>
</g>
<text text-anchor="middle" x="96" y="-106" font-family="Helvetica,sans-Serif" font-size="10.00" fill="grey"> eps</text>
</g>
<!-- Node4 -->
<g id="Node000004" class="node">
<title>Node4</title>
<g id="a_Node000004"><a xlink:href="structbrix__s3__transport__t.html" target="_top" xlink:title=" ">
<polygon fill="white" stroke="#666666" points="229.5,-151 119.5,-151 119.5,-132 229.5,-132 229.5,-151"/>
<text text-anchor="middle" x="174.5" y="-139" font-family="Helvetica,sans-Serif" font-size="10.00">brix_s3_transport_t</text>
</a>
</g>
</g>
<!-- Node4&#45;&gt;Node2 -->
<g id="edge3_Node000002_Node000004" class="edge">
<title>Node4&#45;&gt;Node2</title>
<g id="a_edge3_Node000002_Node000004"><a xlink:title=" ">
<path fill="none" stroke="#9a32cd" stroke-dasharray="5,2" d="M158.98,-124.48C147.01,-112.12 130.9,-95.49 121.13,-85.41"/>
<polygon fill="#9a32cd" stroke="#9a32cd" points="156.67,-127.12 166.14,-131.87 161.69,-122.25 156.67,-127.12"/>
</a>
</g>
<text text-anchor="middle" x="171.5" y="-106" font-family="Helvetica,sans-Serif" font-size="10.00" fill="grey"> transport</text>
</g>
<!-- Node5 -->
<g id="Node000005" class="node">
<title>Node5</title>
<g id="a_Node000005"><a xlink:href="structbrix__s3__resp__t.html" target="_top" xlink:title=" ">
<polygon fill="white" stroke="#666666" points="271,-85 184,-85 184,-66 271,-66 271,-85"/>
<text text-anchor="middle" x="227.5" y="-73" font-family="Helvetica,sans-Serif" font-size="10.00">brix_s3_resp_t</text>
</a>
</g>
</g>
<!-- Node5&#45;&gt;Node1 -->
<g id="edge4_Node000001_Node000005" class="edge">
<title>Node5&#45;&gt;Node1</title>
<g id="a_edge4_Node000001_Node000005"><a xlink:title=" ">
<path fill="none" stroke="#9a32cd" stroke-dasharray="5,2" d="M212.66,-58.12C201.5,-45.81 186.62,-29.39 177.57,-19.41"/>
<polygon fill="#9a32cd" stroke="#9a32cd" points="210.37,-60.81 219.68,-65.87 215.56,-56.11 210.37,-60.81"/>
</a>
</g>
<text text-anchor="middle" x="214" y="-40" font-family="Helvetica,sans-Serif" font-size="10.00" fill="grey"> resp</text>
</g>
</g>
</svg>
</svg>

<style type='text/css'>
<![CDATA[
[data-mouse-over-selected='false'] { opacity: 0.7; }
[data-mouse-over-selected='true']  { opacity: 1.0; }
]]>
</style>
<script type="application/ecmascript"><![CDATA[
document.addEventListener('DOMContentLoaded', (event) => {
  highlightEdges();
  highlightAdjacentNodes();
});
]]></script>
</svg>
