<?xml version="1.0" encoding="UTF-8" standalone="no"?>
<!DOCTYPE svg PUBLIC "-//W3C//DTD SVG 1.1//EN"
 "http://www.w3.org/Graphics/SVG/1.1/DTD/svg11.dtd">
<!-- Generated by graphviz version 2.43.0 (0)
 -->
<!-- Title: xfs_slot Pages: 1 -->
<svg width="320pt" height="423pt"
 viewBox="0.00 0.00 320.00 423.00" xmlns="http://www.w3.org/2000/svg" xmlns:xlink="http://www.w3.org/1999/xlink">

<svg id="main" version="1.1" xmlns="http://www.w3.org/2000/svg" xmlns:xlink="http://www.w3.org/1999/xlink" xml:space="preserve" onload="init(evt)">
<style type="text/css"><![CDATA[
.node, .edge {opacity: 0.7;}
.node.selected, .edge.selected {opacity: 1;}
.edge:hover path { stroke: red; }
.edge:hover polygon { stroke: red; fill: red; }
]]></style>
<script type="application/ecmascript" xlink:href="svg.min.js"/>
<svg id="graph" class="graph">
<g id="graph0" class="graph" transform="scale(1 1) rotate(0) translate(4 419)">
<title>xfs_slot</title>
<!-- Node1 -->
<g id="Node000001" class="node">
<title>Node1</title>
<g id="a_Node000001"><a xlink:title=" ">
<polygon fill="#999999" stroke="#666666" points="246.5,-19 191.5,-19 191.5,0 246.5,0 246.5,-19"/>
<text text-anchor="middle" x="219" y="-7" font-family="Helvetica,sans-Serif" font-size="10.00">xfs_slot</text>
</a>
</g>
</g>
<!-- Node2 -->
<g id="Node000002" class="node">
<title>Node2</title>
<g id="a_Node000002"><a xlink:href="structbrix__rfile.html" target="_top" xlink:title=" ">
<polygon fill="white" stroke="#666666" points="248.5,-85 189.5,-85 189.5,-66 248.5,-66 248.5,-85"/>
<text text-anchor="middle" x="219" y="-73" font-family="Helvetica,sans-Serif" font-size="10.00">brix_rfile</text>
</a>
</g>
</g>
<!-- Node2&#45;&gt;Node1 -->
<g id="edge1_Node000001_Node000002" class="edge">
<title>Node2&#45;&gt;Node1</title>
<g id="a_edge1_Node000001_Node000002"><a xlink:title=" ">
<path fill="none" stroke="#9a32cd" stroke-dasharray="5,2" d="M219,-55.58C219,-43.63 219,-28.72 219,-19.41"/>
<polygon fill="#9a32cd" stroke="#9a32cd" points="215.5,-55.87 219,-65.87 222.5,-55.87 215.5,-55.87"/>
</a>
</g>
<text text-anchor="middle" x="222.5" y="-40" font-family="Helvetica,sans-Serif" font-size="10.00" fill="grey"> f</text>
</g>
<!-- Node3 -->
<g id="Node000003" class="node">
<title>Node3</title>
<g id="a_Node000003"><a xlink:href="structbrix__conn.html" target="_top" xlink:title=" ">
<polygon fill="white" stroke="#666666" points="212,-151 148,-151 148,-132 212,-132 212,-151"/>
<text text-anchor="middle" x="180" y="-139" font-family="Helvetica,sans-Serif" font-size="10.00">brix_conn</text>
</a>
</g>
</g>
<!-- Node3&#45;&gt;Node2 -->
<g id="edge2_Node000002_Node000003" class="edge">
<title>Node3&#45;&gt;Node2</title>
<g id="a_edge2_Node000002_Node000003"><a xlink:title=" ">
<path fill="none" stroke="#9a32cd" stroke-dasharray="5,2" d="M190.63,-123.05C198.06,-110.86 207.66,-95.11 213.57,-85.41"/>
<polygon fill="#9a32cd" stroke="#9a32cd" points="187.47,-121.51 185.26,-131.87 193.45,-125.15 187.47,-121.51"/>
</a>
</g>
<text text-anchor="middle" x="206.5" y="-106" font-family="Helvetica,sans-Serif" font-size="10.00" fill="grey"> c</text>
</g>
<!-- Node4 -->
<g id="Node000004" class="node">
<title>Node4</title>
<g id="a_Node000004"><a xlink:href="structbrix__io.html" target="_top" xlink:title=" ">
<polygon fill="white" stroke="#666666" points="131,-217 81,-217 81,-198 131,-198 131,-217"/>
<text text-anchor="middle" x="106" y="-205" font-family="Helvetica,sans-Serif" font-size="10.00">brix_io</text>
</a>
</g>
</g>
<!-- Node4&#45;&gt;Node3 -->
<g id="edge3_Node000003_Node000004" class="edge">
<title>Node4&#45;&gt;Node3</title>
<g id="a_edge3_Node000003_Node000004"><a xlink:title=" ">
<path fill="none" stroke="#9a32cd" stroke-dasharray="5,2" d="M123.71,-191.18C138.08,-178.76 157.82,-161.68 169.7,-151.41"/>
<polygon fill="#9a32cd" stroke="#9a32cd" points="121.25,-188.68 115.98,-197.87 125.83,-193.97 121.25,-188.68"/>
</a>
</g>
<text text-anchor="middle" x="154.5" y="-172" font-family="Helvetica,sans-Serif" font-size="10.00" fill="grey"> io</text>
</g>
<!-- Node5 -->
<g id="Node000005" class="node">
<title>Node5</title>
<g id="a_Node000005"><a xlink:href="structbrix__opts.html" target="_top" xlink:title=" ">
<polygon fill="white" stroke="#666666" points="211,-217 149,-217 149,-198 211,-198 211,-217"/>
<text text-anchor="middle" x="180" y="-205" font-family="Helvetica,sans-Serif" font-size="10.00">brix_opts</text>
</a>
</g>
</g>
<!-- Node5&#45;&gt;Node3 -->
<g id="edge4_Node000003_Node000005" class="edge">
<title>Node5&#45;&gt;Node3</title>
<g id="a_edge4_Node000003_Node000005"><a xlink:title=" ">
<path fill="none" stroke="#9a32cd" stroke-dasharray="5,2" d="M180,-187.58C180,-175.63 180,-160.72 180,-151.41"/>
<polygon fill="#9a32cd" stroke="#9a32cd" points="176.5,-187.87 180,-197.87 183.5,-187.87 176.5,-187.87"/>
</a>
</g>
<text text-anchor="middle" x="192.5" y="-172" font-family="Helvetica,sans-Serif" font-size="10.00" fill="grey"> opts</text>
</g>
<!-- Node6 -->
<g id="Node000006" class="node">
<title>Node6</title>
<g id="a_Node000006"><a xlink:href="structbrix__cred__store.html" target="_top" xlink:title=" ">
<polygon fill="white" stroke="#666666" points="212,-283 120,-283 120,-264 212,-264 212,-283"/>
<text text-anchor="middle" x="166" y="-271" font-family="Helvetica,sans-Serif" font-size="10.00">brix_cred_store</text>
</a>
</g>
</g>
<!-- Node6&#45;&gt;Node5 -->
<g id="edge5_Node000005_Node000006" class="edge">
<title>Node6&#45;&gt;Node5</title>
<g id="a_edge5_Node000005_Node000006"><a xlink:title=" ">
<path fill="none" stroke="#9a32cd" stroke-dasharray="5,2" d="M170.06,-253.95C172.69,-241.93 175.99,-226.82 178.05,-217.41"/>
<polygon fill="#9a32cd" stroke="#9a32cd" points="166.61,-253.35 167.89,-263.87 173.44,-254.85 166.61,-253.35"/>
</a>
</g>
<text text-anchor="middle" x="186.5" y="-238" font-family="Helvetica,sans-Serif" font-size="10.00" fill="grey"> cred</text>
</g>
<!-- Node7 -->
<g id="Node000007" class="node">
<title>Node7</title>
<g id="a_Node000007"><a xlink:href="structbrix__cred__config.html" target="_top" xlink:title=" ">
<polygon fill="white" stroke="#666666" points="96,-349 0,-349 0,-330 96,-330 96,-349"/>
<text text-anchor="middle" x="48" y="-337" font-family="Helvetica,sans-Serif" font-size="10.00">brix_cred_config</text>
</a>
</g>
</g>
<!-- Node7&#45;&gt;Node6 -->
<g id="edge6_Node000006_Node000007" class="edge">
<title>Node7&#45;&gt;Node6</title>
<g id="a_edge6_Node000006_Node000007"><a xlink:title=" ">
<path fill="none" stroke="#9a32cd" stroke-dasharray="5,2" d="M72.84,-325.03C96.08,-312.42 130.11,-293.97 149.96,-283.2"/>
<polygon fill="#9a32cd" stroke="#9a32cd" points="71.04,-322.02 63.91,-329.87 74.37,-328.18 71.04,-322.02"/>
</a>
</g>
<text text-anchor="middle" x="124.5" y="-304" font-family="Helvetica,sans-Serif" font-size="10.00" fill="grey"> cfg</text>
</g>
<!-- Node8 -->
<g id="Node000008" class="node">
<title>Node8</title>
<g id="a_Node000008"><a xlink:href="structbrix__cred__handler.html" target="_top" xlink:title=" ">
<polygon fill="white" stroke="#666666" points="218,-349 114,-349 114,-330 218,-330 218,-349"/>
<text text-anchor="middle" x="166" y="-337" font-family="Helvetica,sans-Serif" font-size="10.00">brix_cred_handler</text>
</a>
</g>
</g>
<!-- Node8&#45;&gt;Node6 -->
<g id="edge7_Node000006_Node000008" class="edge">
<title>Node8&#45;&gt;Node6</title>
<g id="a_edge7_Node000006_Node000008"><a xlink:title=" ">
<path fill="none" stroke="#9a32cd" stroke-dasharray="5,2" d="M166,-319.58C166,-307.63 166,-292.72 166,-283.41"/>
<polygon fill="#9a32cd" stroke="#9a32cd" points="162.5,-319.87 166,-329.87 169.5,-319.87 162.5,-319.87"/>
</a>
</g>
<text text-anchor="middle" x="189" y="-304" font-family="Helvetica,sans-Serif" font-size="10.00" fill="grey"> handlers</text>
</g>
<!-- Node9 -->
<g id="Node000009" class="node">
<title>Node9</title>
<g id="a_Node000009"><a xlink:href="structcred__slot.html" target="_top" xlink:title=" ">
<polygon fill="white" stroke="#666666" points="297.5,-349 236.5,-349 236.5,-330 297.5,-330 297.5,-349"/>
<text text-anchor="middle" x="267" y="-337" font-family="Helvetica,sans-Serif" font-size="10.00">cred_slot</text>
</a>
</g>
</g>
<!-- Node9&#45;&gt;Node6 -->
<g id="edge8_Node000006_Node000009" class="edge">
<title>Node9&#45;&gt;Node6</title>
<g id="a_edge8_Node000006_Node000009"><a xlink:title=" ">
<path fill="none" stroke="#9a32cd" stroke-dasharray="5,2" d="M248.44,-323.83C238.96,-316.61 227.12,-307.98 216,-301 205.68,-294.52 193.63,-288.1 183.94,-283.2"/>
<polygon fill="#9a32cd" stroke="#9a32cd" points="246.33,-326.63 256.38,-329.98 250.61,-321.09 246.33,-326.63"/>
</a>
</g>
<text text-anchor="middle" x="244.5" y="-304" font-family="Helvetica,sans-Serif" font-size="10.00" fill="grey"> slots</text>
</g>
<!-- Node10 -->
<g id="Node000010" class="node">
<title>Node10</title>
<g id="a_Node000010"><a xlink:href="structbrix__cred__view.html" target="_top" xlink:title=" ">
<polygon fill="white" stroke="#666666" points="312,-415 222,-415 222,-396 312,-396 312,-415"/>
<text text-anchor="middle" x="267" y="-403" font-family="Helvetica,sans-Serif" font-size="10.00">brix_cred_view</text>
</a>
</g>
</g>
<!-- Node10&#45;&gt;Node9 -->
<g id="edge9_Node000009_Node000010" class="edge">
<title>Node10&#45;&gt;Node9</title>
<g id="a_edge9_Node000009_Node000010"><a xlink:title=" ">
<path fill="none" stroke="#9a32cd" stroke-dasharray="5,2" d="M267,-385.58C267,-373.63 267,-358.72 267,-349.41"/>
<polygon fill="#9a32cd" stroke="#9a32cd" points="263.5,-385.87 267,-395.87 270.5,-385.87 263.5,-385.87"/>
</a>
</g>
<text text-anchor="middle" x="280.5" y="-370" font-family="Helvetica,sans-Serif" font-size="10.00" fill="grey"> view</text>
</g>
<!-- Node11 -->
<g id="Node000011" class="node">
<title>Node11</title>
<g id="a_Node000011"><a xlink:href="structbrix__diag.html" target="_top" xlink:title=" ">
<polygon fill="white" stroke="#666666" points="294,-217 232,-217 232,-198 294,-198 294,-217"/>
<text text-anchor="middle" x="263" y="-205" font-family="Helvetica,sans-Serif" font-size="10.00">brix_diag</text>
</a>
</g>
</g>
<!-- Node11&#45;&gt;Node3 -->
<g id="edge10_Node000003_Node000011" class="edge">
<title>Node11&#45;&gt;Node3</title>
<g id="a_edge10_Node000003_Node000011"><a xlink:title=" ">
<path fill="none" stroke="#9a32cd" stroke-dasharray="5,2" d="M243.53,-191.49C227.28,-178.96 204.69,-161.54 191.28,-151.2"/>
<polygon fill="#9a32cd" stroke="#9a32cd" points="241.75,-194.53 251.81,-197.87 246.02,-188.99 241.75,-194.53"/>
</a>
</g>
<text text-anchor="middle" x="238.5" y="-172" font-family="Helvetica,sans-Serif" font-size="10.00" fill="grey"> diag</text>
</g>
<!-- Node12 -->
<g id="Node000012" class="node">
<title>Node12</title>
<g id="a_Node000012"><a xlink:href="structbrix__capture.html" target="_top" xlink:title=" ">
<polygon fill="white" stroke="#666666" points="307.5,-283 230.5,-283 230.5,-264 307.5,-264 307.5,-283"/>
<text text-anchor="middle" x="269" y="-271" font-family="Helvetica,sans-Serif" font-size="10.00">brix_capture</text>
</a>
</g>
</g>
<!-- Node12&#45;&gt;Node11 -->
<g id="edge11_Node000011_Node000012" class="edge">
<title>Node12&#45;&gt;Node11</title>
<g id="a_edge11_Node000011_Node000012"><a xlink:title=" ">
<path fill="none" stroke="#9a32cd" stroke-dasharray="5,2" d="M267.23,-253.58C266.11,-241.63 264.71,-226.72 263.83,-217.41"/>
<polygon fill="#9a32cd" stroke="#9a32cd" points="263.77,-254.24 268.19,-263.87 270.74,-253.59 263.77,-254.24"/>
</a>
</g>
<text text-anchor="middle" x="276.5" y="-238" font-family="Helvetica,sans-Serif" font-size="10.00" fill="grey"> cap</text>
</g>
<!-- Node13 -->
<g id="Node000013" class="node">
<title>Node13</title>
<g id="a_Node000013"><a xlink:href="structbrix__file.html" target="_top" xlink:title=" ">
<polygon fill="white" stroke="#666666" points="286,-151 230,-151 230,-132 286,-132 286,-151"/>
<text text-anchor="middle" x="258" y="-139" font-family="Helvetica,sans-Serif" font-size="10.00">brix_file</text>
</a>
</g>
</g>
<!-- Node13&#45;&gt;Node2 -->
<g id="edge12_Node000002_Node000013" class="edge">
<title>Node13&#45;&gt;Node2</title>
<g id="a_edge12_Node000002_Node000013"><a xlink:title=" ">
<path fill="none" stroke="#9a32cd" stroke-dasharray="5,2" d="M247.37,-123.05C239.94,-110.86 230.34,-95.11 224.43,-85.41"/>
<polygon fill="#9a32cd" stroke="#9a32cd" points="244.55,-125.15 252.74,-131.87 250.53,-121.51 244.55,-125.15"/>
</a>
</g>
<text text-anchor="middle" x="243.5" y="-106" font-family="Helvetica,sans-Serif" font-size="10.00" fill="grey"> f</text>
</g>
</g>
</svg>
</svg>

<style type='text/css'>
<![CDATA[
[data-mouse-over-selected='false'] { opacity: 0.7; }
[data-mouse-over-selected='true']  { opacity: 1.0; }
]]>
</style>
<script type="application/ecmascript"><![CDATA[
document.addEventListener('DOMContentLoaded', (event) => {
  highlightEdges();
  highlightAdjacentNodes();
});
]]></script>
</svg>
