<?xml version="1.0" encoding="UTF-8" standalone="no"?>
<!DOCTYPE svg PUBLIC "-//W3C//DTD SVG 1.1//EN"
 "http://www.w3.org/Graphics/SVG/1.1/DTD/svg11.dtd">
<!-- Generated by graphviz version 2.43.0 (0)
 -->
<!-- Title: ngx_http_brix_cvmfs_loc_conf_t Pages: 1 -->
<svg width="254pt" height="181pt"
 viewBox="0.00 0.00 254.00 181.00" xmlns="http://www.w3.org/2000/svg" xmlns:xlink="http://www.w3.org/1999/xlink">
<g id="graph0" class="graph" transform="scale(1 1) rotate(0) translate(4 177)">
<title>ngx_http_brix_cvmfs_loc_conf_t</title>
<!-- Node1 -->
<g id="Node000001" class="node">
<title>Node1</title>
<g id="a_Node000001"><a xlink:title=" ">
<polygon fill="#999999" stroke="#666666" points="217.5,-30 98.5,-30 98.5,0 217.5,0 217.5,-30"/>
<text text-anchor="start" x="106.5" y="-18" font-family="Helvetica,sans-Serif" font-size="10.00">ngx_http_brix_cvmfs</text>
<text text-anchor="middle" x="158" y="-7" font-family="Helvetica,sans-Serif" font-size="10.00">_loc_conf_t</text>
</a>
</g>
</g>
<!-- Node2 -->
<g id="Node000002" class="node">
<title>Node2</title>
<g id="a_Node000002"><a xlink:href="structngx__http__brix__shared__conf__t.html" target="_top" xlink:title=" ">
<polygon fill="white" stroke="#666666" points="122,-107 0,-107 0,-77 122,-77 122,-107"/>
<text text-anchor="start" x="8" y="-95" font-family="Helvetica,sans-Serif" font-size="10.00">ngx_http_brix_shared</text>
<text text-anchor="middle" x="61" y="-84" font-family="Helvetica,sans-Serif" font-size="10.00">_conf_t</text>
</a>
</g>
</g>
<!-- Node2&#45;&gt;Node1 -->
<g id="edge1_Node000001_Node000002" class="edge">
<title>Node2&#45;&gt;Node1</title>
<g id="a_edge1_Node000001_Node000002"><a xlink:title=" ">
<path fill="none" stroke="#9a32cd" stroke-dasharray="5,2" d="M87.48,-70.53C104.1,-57.68 125.09,-41.44 139.84,-30.04"/>
<polygon fill="#9a32cd" stroke="#9a32cd" points="85.02,-68.01 79.24,-76.89 89.3,-73.55 85.02,-68.01"/>
</a>
</g>
<text text-anchor="middle" x="139" y="-51" font-family="Helvetica,sans-Serif" font-size="10.00" fill="grey"> common</text>
</g>
<!-- Node3 -->
<g id="Node000003" class="node">
<title>Node3</title>
<g id="a_Node000003"><a xlink:href="structbrix__pmark__conf__t.html" target="_top" xlink:title=" ">
<polygon fill="white" stroke="#666666" points="114.5,-173 7.5,-173 7.5,-154 114.5,-154 114.5,-173"/>
<text text-anchor="middle" x="61" y="-161" font-family="Helvetica,sans-Serif" font-size="10.00">brix_pmark_conf_t</text>
</a>
</g>
</g>
<!-- Node3&#45;&gt;Node2 -->
<g id="edge2_Node000002_Node000003" class="edge">
<title>Node3&#45;&gt;Node2</title>
<g id="a_edge2_Node000002_Node000003"><a xlink:title=" ">
<path fill="none" stroke="#9a32cd" stroke-dasharray="5,2" d="M61,-143.71C61,-132.19 61,-117.68 61,-107.14"/>
<polygon fill="#9a32cd" stroke="#9a32cd" points="57.5,-143.98 61,-153.98 64.5,-143.98 57.5,-143.98"/>
</a>
</g>
<text text-anchor="middle" x="78.5" y="-128" font-family="Helvetica,sans-Serif" font-size="10.00" fill="grey"> pmark</text>
</g>
<!-- Node4 -->
<g id="Node000004" class="node">
<title>Node4</title>
<g id="a_Node000004"><a xlink:href="structbrix__cvmfs__conf__t.html" target="_top" xlink:title=" ">
<polygon fill="white" stroke="#666666" points="246,-101.5 140,-101.5 140,-82.5 246,-82.5 246,-101.5"/>
<text text-anchor="middle" x="193" y="-89.5" font-family="Helvetica,sans-Serif" font-size="10.00">brix_cvmfs_conf_t</text>
</a>
</g>
</g>
<!-- Node4&#45;&gt;Node1 -->
<g id="edge3_Node000001_Node000004" class="edge">
<title>Node4&#45;&gt;Node1</title>
<g id="a_edge3_Node000001_Node000004"><a xlink:title=" ">
<path fill="none" stroke="#9a32cd" stroke-dasharray="5,2" d="M184.59,-72.99C178.46,-59.83 170.25,-42.25 164.59,-30.11"/>
<polygon fill="#9a32cd" stroke="#9a32cd" points="181.58,-74.81 188.99,-82.4 187.93,-71.85 181.58,-74.81"/>
</a>
</g>
<text text-anchor="middle" x="194" y="-51" font-family="Helvetica,sans-Serif" font-size="10.00" fill="grey"> cvmfs</text>
</g>
</g>
</svg>
