<?xml version="1.0" encoding="UTF-8" standalone="no"?>
<!DOCTYPE svg PUBLIC "-//W3C//DTD SVG 1.1//EN"
 "http://www.w3.org/Graphics/SVG/1.1/DTD/svg11.dtd">
<!-- Generated by graphviz version 2.43.0 (0)
 -->
<!-- Title: ngx_http_dashboard_login_ctx_t Pages: 1 -->
<svg width="151pt" height="324pt"
 viewBox="0.00 0.00 151.00 324.00" xmlns="http://www.w3.org/2000/svg" xmlns:xlink="http://www.w3.org/1999/xlink">
<g id="graph0" class="graph" transform="scale(1 1) rotate(0) translate(4 320)">
<title>ngx_http_dashboard_login_ctx_t</title>
<!-- Node1 -->
<g id="Node000001" class="node">
<title>Node1</title>
<g id="a_Node000001"><a xlink:title=" ">
<polygon fill="#999999" stroke="#666666" points="128,-30 12,-30 12,0 128,0 128,-30"/>
<text text-anchor="start" x="20" y="-18" font-family="Helvetica,sans-Serif" font-size="10.00">ngx_http_dashboard</text>
<text text-anchor="middle" x="70" y="-7" font-family="Helvetica,sans-Serif" font-size="10.00">_login_ctx_t</text>
</a>
</g>
</g>
<!-- Node2 -->
<g id="Node000002" class="node">
<title>Node2</title>
<g id="a_Node000002"><a xlink:href="structngx__http__brix__dashboard__loc__conf__t.html" target="_top" xlink:title=" ">
<polygon fill="white" stroke="#666666" points="140,-107 0,-107 0,-77 140,-77 140,-107"/>
<text text-anchor="start" x="8" y="-95" font-family="Helvetica,sans-Serif" font-size="10.00">ngx_http_brix_dashboard</text>
<text text-anchor="middle" x="70" y="-84" font-family="Helvetica,sans-Serif" font-size="10.00">_loc_conf_t</text>
</a>
</g>
</g>
<!-- Node2&#45;&gt;Node1 -->
<g id="edge1_Node000001_Node000002" class="edge">
<title>Node2&#45;&gt;Node1</title>
<g id="a_edge1_Node000001_Node000002"><a xlink:title=" ">
<path fill="none" stroke="#9a32cd" stroke-dasharray="5,2" d="M70,-66.54C70,-54.45 70,-40.29 70,-30.04"/>
<polygon fill="#9a32cd" stroke="#9a32cd" points="66.5,-66.89 70,-76.89 73.5,-66.89 66.5,-66.89"/>
</a>
</g>
<text text-anchor="middle" x="82.5" y="-51" font-family="Helvetica,sans-Serif" font-size="10.00" fill="grey"> conf</text>
</g>
<!-- Node3 -->
<g id="Node000003" class="node">
<title>Node3</title>
<g id="a_Node000003"><a xlink:href="structbrix__rl__rule__t.html" target="_top" xlink:title=" ">
<polygon fill="white" stroke="#666666" points="110,-184 30,-184 30,-165 110,-165 110,-184"/>
<text text-anchor="middle" x="70" y="-172" font-family="Helvetica,sans-Serif" font-size="10.00">brix_rl_rule_t</text>
</a>
</g>
</g>
<!-- Node3&#45;&gt;Node2 -->
<g id="edge2_Node000002_Node000003" class="edge">
<title>Node3&#45;&gt;Node2</title>
<g id="a_edge2_Node000002_Node000003"><a xlink:title=" ">
<path fill="none" stroke="#9a32cd" stroke-dasharray="5,2" d="M70,-154.6C70,-140.1 70,-120.4 70,-107.22"/>
<polygon fill="#9a32cd" stroke="#9a32cd" points="66.5,-154.89 70,-164.89 73.5,-154.89 66.5,-154.89"/>
</a>
</g>
<text text-anchor="middle" x="106.5" y="-139" font-family="Helvetica,sans-Serif" font-size="10.00" fill="grey"> admin_rl_read</text>
<text text-anchor="middle" x="106.5" y="-128" font-family="Helvetica,sans-Serif" font-size="10.00" fill="grey">admin_rl_write</text>
</g>
<!-- Node4 -->
<g id="Node000004" class="node">
<title>Node4</title>
<g id="a_Node000004"><a xlink:href="structbrix__rl__zone__t.html" target="_top" xlink:title=" ">
<polygon fill="white" stroke="#666666" points="112.5,-250 27.5,-250 27.5,-231 112.5,-231 112.5,-250"/>
<text text-anchor="middle" x="70" y="-238" font-family="Helvetica,sans-Serif" font-size="10.00">brix_rl_zone_t</text>
</a>
</g>
</g>
<!-- Node4&#45;&gt;Node3 -->
<g id="edge3_Node000003_Node000004" class="edge">
<title>Node4&#45;&gt;Node3</title>
<g id="a_edge3_Node000003_Node000004"><a xlink:title=" ">
<path fill="none" stroke="#9a32cd" stroke-dasharray="5,2" d="M70,-220.58C70,-208.63 70,-193.72 70,-184.41"/>
<polygon fill="#9a32cd" stroke="#9a32cd" points="66.5,-220.87 70,-230.87 73.5,-220.87 66.5,-220.87"/>
</a>
</g>
<text text-anchor="middle" x="83.5" y="-205" font-family="Helvetica,sans-Serif" font-size="10.00" fill="grey"> zone</text>
</g>
<!-- Node5 -->
<g id="Node000005" class="node">
<title>Node5</title>
<g id="a_Node000005"><a xlink:href="structbrix__rl__shctx__t.html" target="_top" xlink:title=" ">
<polygon fill="white" stroke="#666666" points="114,-316 26,-316 26,-297 114,-297 114,-316"/>
<text text-anchor="middle" x="70" y="-304" font-family="Helvetica,sans-Serif" font-size="10.00">brix_rl_shctx_t</text>
</a>
</g>
</g>
<!-- Node5&#45;&gt;Node4 -->
<g id="edge4_Node000004_Node000005" class="edge">
<title>Node5&#45;&gt;Node4</title>
<g id="a_edge4_Node000004_Node000005"><a xlink:title=" ">
<path fill="none" stroke="#9a32cd" stroke-dasharray="5,2" d="M70,-286.58C70,-274.63 70,-259.72 70,-250.41"/>
<polygon fill="#9a32cd" stroke="#9a32cd" points="66.5,-286.87 70,-296.87 73.5,-286.87 66.5,-286.87"/>
</a>
</g>
<text text-anchor="middle" x="77.5" y="-271" font-family="Helvetica,sans-Serif" font-size="10.00" fill="grey"> sh</text>
</g>
</g>
</svg>
