<?xml version="1.0" encoding="UTF-8" standalone="no"?>
<!DOCTYPE svg PUBLIC "-//W3C//DTD SVG 1.1//EN"
 "http://www.w3.org/Graphics/SVG/1.1/DTD/svg11.dtd">
<!-- Generated by graphviz version 2.43.0 (0)
 -->
<!-- Title: download_body_ctx Pages: 1 -->
<!--zoomable 423 -->

<svg id="main" version="1.1" xmlns="http://www.w3.org/2000/svg" xmlns:xlink="http://www.w3.org/1999/xlink" xml:space="preserve" onload="init(evt)">
<style type="text/css"><![CDATA[
.node, .edge {opacity: 0.7;}
.node.selected, .edge.selected {opacity: 1;}
.edge:hover path { stroke: red; }
.edge:hover polygon { stroke: red; fill: red; }
]]></style>

<defs>
  <circle id="rim" cx="0" cy="0" r="7"/>
  <circle id="rim2" cx="0" cy="0" r="3.5"/>
  <g id="zoomPlus">
    <use xlink:href="#rim" fill="#404040"><set attributeName="fill" to="#808080" begin="zoomplus.mouseover" end="zoomplus.mouseout"/></use>
    <path d="M-4,0h8M0,-4v8" fill="none" stroke="white" stroke-width="1.5" pointer-events="none"/>
  </g>
  <g id="zoomMin">
    <use xlink:href="#rim" fill="#404040"><set attributeName="fill" to="#808080" begin="zoomminus.mouseover" end="zoomminus.mouseout"/></use>
    <path d="M-4,0h8" fill="none" stroke="white" stroke-width="1.5" pointer-events="none"/>
  </g>
  <g id="arrowUp" transform="translate(30 24)">
    <use xlink:href="#rim"/>
    <path pointer-events="none" fill="none" stroke="white" stroke-width="1.5" d="M0,-3.0v7 M-2.5,-0.5L0,-3.0L2.5,-0.5"/>
  </g>
  <g id="arrowRight" transform="rotate(90) translate(36 -43)">
    <use xlink:href="#rim"/>
    <path pointer-events="none" fill="none" stroke="white" stroke-width="1.5" d="M0,-3.0v7 M-2.5,-0.5L0,-3.0L2.5,-0.5"/>
  </g>
  <g id="arrowDown" transform="rotate(180) translate(-30 -48)">
    <use xlink:href="#rim"/>
    <path pointer-events="none" fill="none" stroke="white" stroke-width="1.5" d="M0,-3.0v7 M-2.5,-0.5L0,-3.0L2.5,-0.5"/>
  </g>
  <g id="arrowLeft" transform="rotate(270) translate(-36 17)">
    <use xlink:href="#rim"/>
    <path pointer-events="none" fill="none" stroke="white" stroke-width="1.5" d="M0,-3.0v7 M-2.5,-0.5L0,-3.0L2.5,-0.5"/>
  </g>
  <g id="resetDef">
    <use xlink:href="#rim2" fill="#404040"><set attributeName="fill" to="#808080" begin="reset.mouseover" end="reset.mouseout"/></use>
  </g>
</defs>
<script type="application/ecmascript">
var viewWidth = 565;
var viewHeight = 423;
var sectionId = 'dynsection-0';
</script>
<script type="application/ecmascript" xlink:href="svg.min.js"/>
<svg id="graph" class="graph">
<g id="viewport">
<title>download_body_ctx</title>
<!-- Node1 -->
<g id="Node000001" class="node">
<title>Node1</title>
<g id="a_Node000001"><a xlink:title=" ">
<polygon fill="#999999" stroke="#666666" points="382.5,-19 269.5,-19 269.5,0 382.5,0 382.5,-19"/>
<text text-anchor="middle" x="326" y="-7" font-family="Helvetica,sans-Serif" font-size="10.00">download_body_ctx</text>
</a>
</g>
</g>
<!-- Node2 -->
<g id="Node000002" class="node">
<title>Node2</title>
<g id="a_Node000002"><a xlink:href="structbrix__conn.html" target="_top" xlink:title=" ">
<polygon fill="white" stroke="#666666" points="212,-151 148,-151 148,-132 212,-132 212,-151"/>
<text text-anchor="middle" x="180" y="-139" font-family="Helvetica,sans-Serif" font-size="10.00">brix_conn</text>
</a>
</g>
</g>
<!-- Node2&#45;&gt;Node1 -->
<g id="edge1_Node000001_Node000002" class="edge">
<title>Node2&#45;&gt;Node1</title>
<g id="a_edge1_Node000001_Node000002"><a xlink:title=" ">
<path fill="none" stroke="#9a32cd" stroke-dasharray="5,2" d="M172.11,-122.31C166.4,-106.08 161.5,-82.41 173,-66 194.65,-35.11 235.33,-21.35 269.3,-15.24"/>
<polygon fill="#9a32cd" stroke="#9a32cd" points="168.9,-123.73 175.81,-131.76 175.42,-121.17 168.9,-123.73"/>
</a>
</g>
<text text-anchor="middle" x="177.5" y="-73" font-family="Helvetica,sans-Serif" font-size="10.00" fill="grey"> c</text>
</g>
<!-- Node15 -->
<g id="Node000015" class="node">
<title>Node15</title>
<g id="a_Node000015"><a xlink:href="structbrix__streamset.html" target="_top" xlink:title=" ">
<polygon fill="white" stroke="#666666" points="281,-85 191,-85 191,-66 281,-66 281,-85"/>
<text text-anchor="middle" x="236" y="-73" font-family="Helvetica,sans-Serif" font-size="10.00">brix_streamset</text>
</a>
</g>
</g>
<!-- Node2&#45;&gt;Node15 -->
<g id="edge15_Node000015_Node000002" class="edge">
<title>Node2&#45;&gt;Node15</title>
<g id="a_edge15_Node000015_Node000002"><a xlink:title=" ">
<path fill="none" stroke="#9a32cd" stroke-dasharray="5,2" d="M194.33,-124.12C205.11,-111.81 219.47,-95.39 228.21,-85.41"/>
<polygon fill="#9a32cd" stroke="#9a32cd" points="191.5,-122.04 187.55,-131.87 196.77,-126.65 191.5,-122.04"/>
</a>
</g>
<text text-anchor="middle" x="222" y="-106" font-family="Helvetica,sans-Serif" font-size="10.00" fill="grey"> sec</text>
</g>
<!-- Node3 -->
<g id="Node000003" class="node">
<title>Node3</title>
<g id="a_Node000003"><a xlink:href="structbrix__io.html" target="_top" xlink:title=" ">
<polygon fill="white" stroke="#666666" points="131,-217 81,-217 81,-198 131,-198 131,-217"/>
<text text-anchor="middle" x="106" y="-205" font-family="Helvetica,sans-Serif" font-size="10.00">brix_io</text>
</a>
</g>
</g>
<!-- Node3&#45;&gt;Node2 -->
<g id="edge2_Node000002_Node000003" class="edge">
<title>Node3&#45;&gt;Node2</title>
<g id="a_edge2_Node000002_Node000003"><a xlink:title=" ">
<path fill="none" stroke="#9a32cd" stroke-dasharray="5,2" d="M123.71,-191.18C138.08,-178.76 157.82,-161.68 169.7,-151.41"/>
<polygon fill="#9a32cd" stroke="#9a32cd" points="121.25,-188.68 115.98,-197.87 125.83,-193.97 121.25,-188.68"/>
</a>
</g>
<text text-anchor="middle" x="154.5" y="-172" font-family="Helvetica,sans-Serif" font-size="10.00" fill="grey"> io</text>
</g>
<!-- Node4 -->
<g id="Node000004" class="node">
<title>Node4</title>
<g id="a_Node000004"><a xlink:href="structbrix__opts.html" target="_top" xlink:title=" ">
<polygon fill="white" stroke="#666666" points="211,-217 149,-217 149,-198 211,-198 211,-217"/>
<text text-anchor="middle" x="180" y="-205" font-family="Helvetica,sans-Serif" font-size="10.00">brix_opts</text>
</a>
</g>
</g>
<!-- Node4&#45;&gt;Node2 -->
<g id="edge3_Node000002_Node000004" class="edge">
<title>Node4&#45;&gt;Node2</title>
<g id="a_edge3_Node000002_Node000004"><a xlink:title=" ">
<path fill="none" stroke="#9a32cd" stroke-dasharray="5,2" d="M180,-187.58C180,-175.63 180,-160.72 180,-151.41"/>
<polygon fill="#9a32cd" stroke="#9a32cd" points="176.5,-187.87 180,-197.87 183.5,-187.87 176.5,-187.87"/>
</a>
</g>
<text text-anchor="middle" x="192.5" y="-172" font-family="Helvetica,sans-Serif" font-size="10.00" fill="grey"> opts</text>
</g>
<!-- Node5 -->
<g id="Node000005" class="node">
<title>Node5</title>
<g id="a_Node000005"><a xlink:href="structbrix__cred__store.html" target="_top" xlink:title=" ">
<polygon fill="white" stroke="#666666" points="212,-283 120,-283 120,-264 212,-264 212,-283"/>
<text text-anchor="middle" x="166" y="-271" font-family="Helvetica,sans-Serif" font-size="10.00">brix_cred_store</text>
</a>
</g>
</g>
<!-- Node5&#45;&gt;Node4 -->
<g id="edge4_Node000004_Node000005" class="edge">
<title>Node5&#45;&gt;Node4</title>
<g id="a_edge4_Node000004_Node000005"><a xlink:title=" ">
<path fill="none" stroke="#9a32cd" stroke-dasharray="5,2" d="M170.06,-253.95C172.69,-241.93 175.99,-226.82 178.05,-217.41"/>
<polygon fill="#9a32cd" stroke="#9a32cd" points="166.61,-253.35 167.89,-263.87 173.44,-254.85 166.61,-253.35"/>
</a>
</g>
<text text-anchor="middle" x="186.5" y="-238" font-family="Helvetica,sans-Serif" font-size="10.00" fill="grey"> cred</text>
</g>
<!-- Node6 -->
<g id="Node000006" class="node">
<title>Node6</title>
<g id="a_Node000006"><a xlink:href="structbrix__cred__config.html" target="_top" xlink:title=" ">
<polygon fill="white" stroke="#666666" points="96,-349 0,-349 0,-330 96,-330 96,-349"/>
<text text-anchor="middle" x="48" y="-337" font-family="Helvetica,sans-Serif" font-size="10.00">brix_cred_config</text>
</a>
</g>
</g>
<!-- Node6&#45;&gt;Node5 -->
<g id="edge5_Node000005_Node000006" class="edge">
<title>Node6&#45;&gt;Node5</title>
<g id="a_edge5_Node000005_Node000006"><a xlink:title=" ">
<path fill="none" stroke="#9a32cd" stroke-dasharray="5,2" d="M72.84,-325.03C96.08,-312.42 130.11,-293.97 149.96,-283.2"/>
<polygon fill="#9a32cd" stroke="#9a32cd" points="71.04,-322.02 63.91,-329.87 74.37,-328.18 71.04,-322.02"/>
</a>
</g>
<text text-anchor="middle" x="124.5" y="-304" font-family="Helvetica,sans-Serif" font-size="10.00" fill="grey"> cfg</text>
</g>
<!-- Node7 -->
<g id="Node000007" class="node">
<title>Node7</title>
<g id="a_Node000007"><a xlink:href="structbrix__cred__handler.html" target="_top" xlink:title=" ">
<polygon fill="white" stroke="#666666" points="218,-349 114,-349 114,-330 218,-330 218,-349"/>
<text text-anchor="middle" x="166" y="-337" font-family="Helvetica,sans-Serif" font-size="10.00">brix_cred_handler</text>
</a>
</g>
</g>
<!-- Node7&#45;&gt;Node5 -->
<g id="edge6_Node000005_Node000007" class="edge">
<title>Node7&#45;&gt;Node5</title>
<g id="a_edge6_Node000005_Node000007"><a xlink:title=" ">
<path fill="none" stroke="#9a32cd" stroke-dasharray="5,2" d="M166,-319.58C166,-307.63 166,-292.72 166,-283.41"/>
<polygon fill="#9a32cd" stroke="#9a32cd" points="162.5,-319.87 166,-329.87 169.5,-319.87 162.5,-319.87"/>
</a>
</g>
<text text-anchor="middle" x="189" y="-304" font-family="Helvetica,sans-Serif" font-size="10.00" fill="grey"> handlers</text>
</g>
<!-- Node8 -->
<g id="Node000008" class="node">
<title>Node8</title>
<g id="a_Node000008"><a xlink:href="structcred__slot.html" target="_top" xlink:title=" ">
<polygon fill="white" stroke="#666666" points="297.5,-349 236.5,-349 236.5,-330 297.5,-330 297.5,-349"/>
<text text-anchor="middle" x="267" y="-337" font-family="Helvetica,sans-Serif" font-size="10.00">cred_slot</text>
</a>
</g>
</g>
<!-- Node8&#45;&gt;Node5 -->
<g id="edge7_Node000005_Node000008" class="edge">
<title>Node8&#45;&gt;Node5</title>
<g id="a_edge7_Node000005_Node000008"><a xlink:title=" ">
<path fill="none" stroke="#9a32cd" stroke-dasharray="5,2" d="M248.44,-323.83C238.96,-316.61 227.12,-307.98 216,-301 205.68,-294.52 193.63,-288.1 183.94,-283.2"/>
<polygon fill="#9a32cd" stroke="#9a32cd" points="246.33,-326.63 256.38,-329.98 250.61,-321.09 246.33,-326.63"/>
</a>
</g>
<text text-anchor="middle" x="245.5" y="-304" font-family="Helvetica,sans-Serif" font-size="10.00" fill="grey"> slots</text>
</g>
<!-- Node9 -->
<g id="Node000009" class="node">
<title>Node9</title>
<g id="a_Node000009"><a xlink:href="structbrix__cred__view.html" target="_top" xlink:title=" ">
<polygon fill="white" stroke="#666666" points="312,-415 222,-415 222,-396 312,-396 312,-415"/>
<text text-anchor="middle" x="267" y="-403" font-family="Helvetica,sans-Serif" font-size="10.00">brix_cred_view</text>
</a>
</g>
</g>
<!-- Node9&#45;&gt;Node8 -->
<g id="edge8_Node000008_Node000009" class="edge">
<title>Node9&#45;&gt;Node8</title>
<g id="a_edge8_Node000008_Node000009"><a xlink:title=" ">
<path fill="none" stroke="#9a32cd" stroke-dasharray="5,2" d="M267,-385.58C267,-373.63 267,-358.72 267,-349.41"/>
<polygon fill="#9a32cd" stroke="#9a32cd" points="263.5,-385.87 267,-395.87 270.5,-385.87 263.5,-385.87"/>
</a>
</g>
<text text-anchor="middle" x="280.5" y="-370" font-family="Helvetica,sans-Serif" font-size="10.00" fill="grey"> view</text>
</g>
<!-- Node10 -->
<g id="Node000010" class="node">
<title>Node10</title>
<g id="a_Node000010"><a xlink:href="structbrix__diag.html" target="_top" xlink:title=" ">
<polygon fill="white" stroke="#666666" points="294,-217 232,-217 232,-198 294,-198 294,-217"/>
<text text-anchor="middle" x="263" y="-205" font-family="Helvetica,sans-Serif" font-size="10.00">brix_diag</text>
</a>
</g>
</g>
<!-- Node10&#45;&gt;Node2 -->
<g id="edge9_Node000002_Node000010" class="edge">
<title>Node10&#45;&gt;Node2</title>
<g id="a_edge9_Node000002_Node000010"><a xlink:title=" ">
<path fill="none" stroke="#9a32cd" stroke-dasharray="5,2" d="M243.53,-191.49C227.28,-178.96 204.69,-161.54 191.28,-151.2"/>
<polygon fill="#9a32cd" stroke="#9a32cd" points="241.75,-194.53 251.81,-197.87 246.02,-188.99 241.75,-194.53"/>
</a>
</g>
<text text-anchor="middle" x="239.5" y="-172" font-family="Helvetica,sans-Serif" font-size="10.00" fill="grey"> diag</text>
</g>
<!-- Node11 -->
<g id="Node000011" class="node">
<title>Node11</title>
<g id="a_Node000011"><a xlink:href="structbrix__capture.html" target="_top" xlink:title=" ">
<polygon fill="white" stroke="#666666" points="307.5,-283 230.5,-283 230.5,-264 307.5,-264 307.5,-283"/>
<text text-anchor="middle" x="269" y="-271" font-family="Helvetica,sans-Serif" font-size="10.00">brix_capture</text>
</a>
</g>
</g>
<!-- Node11&#45;&gt;Node10 -->
<g id="edge10_Node000010_Node000011" class="edge">
<title>Node11&#45;&gt;Node10</title>
<g id="a_edge10_Node000010_Node000011"><a xlink:title=" ">
<path fill="none" stroke="#9a32cd" stroke-dasharray="5,2" d="M267.23,-253.58C266.11,-241.63 264.71,-226.72 263.83,-217.41"/>
<polygon fill="#9a32cd" stroke="#9a32cd" points="263.77,-254.24 268.19,-263.87 270.74,-253.59 263.77,-254.24"/>
</a>
</g>
<text text-anchor="middle" x="277.5" y="-238" font-family="Helvetica,sans-Serif" font-size="10.00" fill="grey"> cap</text>
</g>
<!-- Node12 -->
<g id="Node000012" class="node">
<title>Node12</title>
<g id="a_Node000012"><a xlink:href="structbrix__url.html" target="_top" xlink:title=" ">
<polygon fill="white" stroke="#666666" points="352.5,-85 299.5,-85 299.5,-66 352.5,-66 352.5,-85"/>
<text text-anchor="middle" x="326" y="-73" font-family="Helvetica,sans-Serif" font-size="10.00">brix_url</text>
</a>
</g>
</g>
<!-- Node12&#45;&gt;Node1 -->
<g id="edge11_Node000001_Node000012" class="edge">
<title>Node12&#45;&gt;Node1</title>
<g id="a_edge11_Node000001_Node000012"><a xlink:title=" ">
<path fill="none" stroke="#9a32cd" stroke-dasharray="5,2" d="M326,-55.58C326,-43.63 326,-28.72 326,-19.41"/>
<polygon fill="#9a32cd" stroke="#9a32cd" points="322.5,-55.87 326,-65.87 329.5,-55.87 322.5,-55.87"/>
</a>
</g>
<text text-anchor="middle" x="333.5" y="-40" font-family="Helvetica,sans-Serif" font-size="10.00" fill="grey"> su</text>
</g>
<!-- Node13 -->
<g id="Node000013" class="node">
<title>Node13</title>
<g id="a_Node000013"><a xlink:href="structbrix__statinfo.html" target="_top" xlink:title=" ">
<polygon fill="white" stroke="#666666" points="449,-85 371,-85 371,-66 449,-66 449,-85"/>
<text text-anchor="middle" x="410" y="-73" font-family="Helvetica,sans-Serif" font-size="10.00">brix_statinfo</text>
</a>
</g>
</g>
<!-- Node13&#45;&gt;Node1 -->
<g id="edge12_Node000001_Node000013" class="edge">
<title>Node13&#45;&gt;Node1</title>
<g id="a_edge12_Node000001_Node000013"><a xlink:title=" ">
<path fill="none" stroke="#9a32cd" stroke-dasharray="5,2" d="M390.3,-59.49C373.85,-46.96 350.99,-29.54 337.42,-19.2"/>
<polygon fill="#9a32cd" stroke="#9a32cd" points="388.6,-62.59 398.67,-65.87 392.84,-57.02 388.6,-62.59"/>
</a>
</g>
<text text-anchor="middle" x="379" y="-40" font-family="Helvetica,sans-Serif" font-size="10.00" fill="grey"> si</text>
</g>
<!-- Node14 -->
<g id="Node000014" class="node">
<title>Node14</title>
<g id="a_Node000014"><a xlink:href="structbrix__copy__opts.html" target="_top" xlink:title=" ">
<polygon fill="white" stroke="#666666" points="557,-85 467,-85 467,-66 557,-66 557,-85"/>
<text text-anchor="middle" x="512" y="-73" font-family="Helvetica,sans-Serif" font-size="10.00">brix_copy_opts</text>
</a>
</g>
</g>
<!-- Node14&#45;&gt;Node1 -->
<g id="edge13_Node000001_Node000014" class="edge">
<title>Node14&#45;&gt;Node1</title>
<g id="a_edge13_Node000001_Node000014"><a xlink:title=" ">
<path fill="none" stroke="#9a32cd" stroke-dasharray="5,2" d="M477.13,-62.5C440.4,-49.86 383.47,-30.28 350.98,-19.1"/>
<polygon fill="#9a32cd" stroke="#9a32cd" points="476.32,-65.92 486.92,-65.87 478.6,-59.31 476.32,-65.92"/>
</a>
</g>
<text text-anchor="middle" x="435" y="-40" font-family="Helvetica,sans-Serif" font-size="10.00" fill="grey"> o</text>
</g>
<!-- Node15&#45;&gt;Node1 -->
<g id="edge14_Node000001_Node000015" class="edge">
<title>Node15&#45;&gt;Node1</title>
<g id="a_edge14_Node000001_Node000015"><a xlink:title=" ">
<path fill="none" stroke="#9a32cd" stroke-dasharray="5,2" d="M256.62,-59.83C274.28,-47.28 299.1,-29.63 313.77,-19.2"/>
<polygon fill="#9a32cd" stroke="#9a32cd" points="254.26,-57.22 248.14,-65.87 258.32,-62.93 254.26,-57.22"/>
</a>
</g>
<text text-anchor="middle" x="294" y="-40" font-family="Helvetica,sans-Serif" font-size="10.00" fill="grey"> ss</text>
</g>
</g>
</svg>

<g id="navigator" transform="translate(0 0)" fill="#404254">
  <rect fill="#f2f5e9" fill-opacity="0.5" stroke="#606060" stroke-width=".5" x="0" y="0" width="60" height="60"/>
  <use id="zoomplus" xlink:href="#zoomPlus" x="17" y="9" onmousedown="handleZoom(evt,'in')"/>
  <use id="zoomminus" xlink:href="#zoomMin" x="42" y="9" onmousedown="handleZoom(evt,'out')"/>
  <use id="reset" xlink:href="#resetDef" x="30" y="36" onmousedown="handleReset()"/>
   <use id="arrowup" xlink:href="#arrowUp" x="0" y="0" onmousedown="handlePan(0,-1)"/>
  <use id="arrowright" xlink:href="#arrowRight" x="0" y="0" onmousedown="handlePan(1,0)"/>
  <use id="arrowdown" xlink:href="#arrowDown" x="0" y="0" onmousedown="handlePan(0,1)"/>
  <use id="arrowleft" xlink:href="#arrowLeft" x="0" y="0" onmousedown="handlePan(-1,0)"/>
</g>
<svg viewBox="0 0 15 15" width="100%" height="30px" preserveAspectRatio="xMaxYMin meet">
 <g id="arrow_out" transform="scale(0.3 0.3)">
  <a xlink:href="structdownload__body__ctx__coll__graph_org.svg" target="_base">
   <rect id="button" ry="5" rx="5" y="6" x="6" height="38" width="38"
        fill="#f2f5e9" fill-opacity="0.5" stroke="#606060" stroke-width="1.0"/>
   <path id="arrow"
     d="M 11.500037,31.436501 C 11.940474,20.09759 22.043105,11.32322 32.158766,21.979434 L 37.068811,17.246167 C 37.068811,17.246167 37.088388,32 37.088388,32 L 22.160133,31.978069 C 22.160133,31.978069 26.997745,27.140456 26.997745,27.140456 C 18.528582,18.264221 13.291696,25.230495 11.500037,31.436501 z"
     style="fill:#404040;"/>
  </a>
 </g>
</svg>

<style type='text/css'>
<![CDATA[
[data-mouse-over-selected='false'] { opacity: 0.7; }
[data-mouse-over-selected='true']  { opacity: 1.0; }
]]>
</style>
<script type="application/ecmascript"><![CDATA[
document.addEventListener('DOMContentLoaded', (event) => {
  highlightEdges();
  highlightAdjacentNodes();
});
]]></script>
</svg>
