<?xml version="1.0" encoding="UTF-8" standalone="no"?>
<!DOCTYPE svg PUBLIC "-//W3C//DTD SVG 1.1//EN"
 "http://www.w3.org/Graphics/SVG/1.1/DTD/svg11.dtd">
<!-- Generated by graphviz version 2.43.0 (0)
 -->
<!-- Title: brix_vfs_backend_entry_t Pages: 1 -->
<svg width="361pt" height="181pt"
 viewBox="0.00 0.00 360.50 181.00" xmlns="http://www.w3.org/2000/svg" xmlns:xlink="http://www.w3.org/1999/xlink">
<g id="graph0" class="graph" transform="scale(1 1) rotate(0) translate(4 177)">
<title>brix_vfs_backend_entry_t</title>
<!-- Node1 -->
<g id="Node000001" class="node">
<title>Node1</title>
<g id="a_Node000001"><a xlink:title=" ">
<polygon fill="#999999" stroke="#666666" points="237.5,-19 96.5,-19 96.5,0 237.5,0 237.5,-19"/>
<text text-anchor="middle" x="167" y="-7" font-family="Helvetica,sans-Serif" font-size="10.00">brix_vfs_backend_entry_t</text>
</a>
</g>
</g>
<!-- Node2 -->
<g id="Node000002" class="node">
<title>Node2</title>
<g id="a_Node000002"><a xlink:href="structbrix__tier__cfg__t.html" target="_top" xlink:title=" ">
<polygon fill="white" stroke="#666666" points="92,-107 6,-107 6,-88 92,-88 92,-107"/>
<text text-anchor="middle" x="49" y="-95" font-family="Helvetica,sans-Serif" font-size="10.00">brix_tier_cfg_t</text>
</a>
</g>
</g>
<!-- Node2&#45;&gt;Node1 -->
<g id="edge1_Node000001_Node000002" class="edge">
<title>Node2&#45;&gt;Node1</title>
<g id="a_edge1_Node000001_Node000002"><a xlink:title=" ">
<path fill="none" stroke="#9a32cd" stroke-dasharray="5,2" d="M62.57,-80.17C73.96,-67.22 91.18,-49.32 109,-37 119.56,-29.7 132.46,-23.57 143.41,-19.06"/>
<polygon fill="#9a32cd" stroke="#9a32cd" points="59.83,-77.98 55.98,-87.85 65.15,-82.54 59.83,-77.98"/>
</a>
</g>
<text text-anchor="middle" x="136" y="-62" font-family="Helvetica,sans-Serif" font-size="10.00" fill="grey"> cache_tier</text>
<text text-anchor="middle" x="136" y="-51" font-family="Helvetica,sans-Serif" font-size="10.00" fill="grey">cold_tier</text>
<text text-anchor="middle" x="136" y="-40" font-family="Helvetica,sans-Serif" font-size="10.00" fill="grey">stage_tier</text>
</g>
<!-- Node3 -->
<g id="Node000003" class="node">
<title>Node3</title>
<g id="a_Node000003"><a xlink:href="structbrix__credential__t.html" target="_top" xlink:title=" ">
<polygon fill="white" stroke="#666666" points="98,-173 0,-173 0,-154 98,-154 98,-173"/>
<text text-anchor="middle" x="49" y="-161" font-family="Helvetica,sans-Serif" font-size="10.00">brix_credential_t</text>
</a>
</g>
</g>
<!-- Node3&#45;&gt;Node2 -->
<g id="edge2_Node000002_Node000003" class="edge">
<title>Node3&#45;&gt;Node2</title>
<g id="a_edge2_Node000002_Node000003"><a xlink:title=" ">
<path fill="none" stroke="#9a32cd" stroke-dasharray="5,2" d="M49,-143.58C49,-131.63 49,-116.72 49,-107.41"/>
<polygon fill="#9a32cd" stroke="#9a32cd" points="45.5,-143.87 49,-153.87 52.5,-143.87 45.5,-143.87"/>
</a>
</g>
<text text-anchor="middle" x="75" y="-128" font-family="Helvetica,sans-Serif" font-size="10.00" fill="grey"> credential</text>
</g>
<!-- Node4 -->
<g id="Node000004" class="node">
<title>Node4</title>
<g id="a_Node000004"><a xlink:href="structbrix__cache__policy__t.html" target="_top" xlink:title=" ">
<polygon fill="white" stroke="#666666" points="223.5,-107 110.5,-107 110.5,-88 223.5,-88 223.5,-107"/>
<text text-anchor="middle" x="167" y="-95" font-family="Helvetica,sans-Serif" font-size="10.00">brix_cache_policy_t</text>
</a>
</g>
</g>
<!-- Node4&#45;&gt;Node1 -->
<g id="edge3_Node000001_Node000004" class="edge">
<title>Node4&#45;&gt;Node1</title>
<g id="a_edge3_Node000001_Node000004"><a xlink:title=" ">
<path fill="none" stroke="#9a32cd" stroke-dasharray="5,2" d="M167,-77.91C167,-59.67 167,-32.65 167,-19.03"/>
<polygon fill="#9a32cd" stroke="#9a32cd" points="163.5,-77.94 167,-87.94 170.5,-77.94 163.5,-77.94"/>
</a>
</g>
<text text-anchor="middle" x="200.5" y="-51" font-family="Helvetica,sans-Serif" font-size="10.00" fill="grey"> cache_policy</text>
</g>
<!-- Node5 -->
<g id="Node000005" class="node">
<title>Node5</title>
<g id="a_Node000005"><a xlink:href="structbrix__stage__policy__t.html" target="_top" xlink:title=" ">
<polygon fill="white" stroke="#666666" points="352.5,-107 241.5,-107 241.5,-88 352.5,-88 352.5,-107"/>
<text text-anchor="middle" x="297" y="-95" font-family="Helvetica,sans-Serif" font-size="10.00">brix_stage_policy_t</text>
</a>
</g>
</g>
<!-- Node5&#45;&gt;Node1 -->
<g id="edge4_Node000001_Node000005" class="edge">
<title>Node5&#45;&gt;Node1</title>
<g id="a_edge4_Node000001_Node000005"><a xlink:title=" ">
<path fill="none" stroke="#9a32cd" stroke-dasharray="5,2" d="M283.94,-79.81C272.9,-66.66 256.04,-48.65 238,-37 226.06,-29.29 211.56,-23.37 198.78,-19.1"/>
<polygon fill="#9a32cd" stroke="#9a32cd" points="281.28,-82.09 290.3,-87.64 286.71,-77.67 281.28,-82.09"/>
</a>
</g>
<text text-anchor="middle" x="307.5" y="-51" font-family="Helvetica,sans-Serif" font-size="10.00" fill="grey"> stage_policy</text>
</g>
</g>
</svg>
