<?xml version="1.0" encoding="UTF-8" standalone="no"?>
<!DOCTYPE svg PUBLIC "-//W3C//DTD SVG 1.1//EN"
 "http://www.w3.org/Graphics/SVG/1.1/DTD/svg11.dtd">
<!-- Generated by graphviz version 2.43.0 (0)
 -->
<!-- Title: ngx_http_brix_webdav_req_ctx_t Pages: 1 -->
<svg width="322pt" height="170pt"
 viewBox="0.00 0.00 321.50 170.00" xmlns="http://www.w3.org/2000/svg" xmlns:xlink="http://www.w3.org/1999/xlink">
<g id="graph0" class="graph" transform="scale(1 1) rotate(0) translate(4 166)">
<title>ngx_http_brix_webdav_req_ctx_t</title>
<!-- Node1 -->
<g id="Node000001" class="node">
<title>Node1</title>
<g id="a_Node000001"><a xlink:title=" ">
<polygon fill="#999999" stroke="#666666" points="201.5,-30 74.5,-30 74.5,0 201.5,0 201.5,-30"/>
<text text-anchor="start" x="82.5" y="-18" font-family="Helvetica,sans-Serif" font-size="10.00">ngx_http_brix_webdav</text>
<text text-anchor="middle" x="138" y="-7" font-family="Helvetica,sans-Serif" font-size="10.00">_req_ctx_t</text>
</a>
</g>
</g>
<!-- Node2 -->
<g id="Node000002" class="node">
<title>Node2</title>
<g id="a_Node000002"><a xlink:href="structxrdhttp__req__ctx__t.html" target="_top" xlink:title=" ">
<polygon fill="white" stroke="#666666" points="102,-96 0,-96 0,-77 102,-77 102,-96"/>
<text text-anchor="middle" x="51" y="-84" font-family="Helvetica,sans-Serif" font-size="10.00">xrdhttp_req_ctx_t</text>
</a>
</g>
</g>
<!-- Node2&#45;&gt;Node1 -->
<g id="edge1_Node000001_Node000002" class="edge">
<title>Node2&#45;&gt;Node1</title>
<g id="a_edge1_Node000001_Node000002"><a xlink:title=" ">
<path fill="none" stroke="#9a32cd" stroke-dasharray="5,2" d="M64.33,-68.76C70.25,-61.89 77.56,-54.13 85,-48 93.05,-41.37 102.61,-35.17 111.38,-30.03"/>
<polygon fill="#9a32cd" stroke="#9a32cd" points="61.36,-66.86 57.67,-76.79 66.74,-71.33 61.36,-66.86"/>
</a>
</g>
<text text-anchor="middle" x="104.5" y="-51" font-family="Helvetica,sans-Serif" font-size="10.00" fill="grey"> xrdhttp</text>
</g>
<!-- Node3 -->
<g id="Node000003" class="node">
<title>Node3</title>
<g id="a_Node000003"><a xlink:href="structbrix__identity__t.html" target="_top" xlink:title=" ">
<polygon fill="white" stroke="#666666" points="313.5,-96 226.5,-96 226.5,-77 313.5,-77 313.5,-96"/>
<text text-anchor="middle" x="270" y="-84" font-family="Helvetica,sans-Serif" font-size="10.00">brix_identity_t</text>
</a>
</g>
</g>
<!-- Node3&#45;&gt;Node1 -->
<g id="edge2_Node000001_Node000003" class="edge">
<title>Node3&#45;&gt;Node1</title>
<g id="a_edge2_Node000001_Node000003"><a xlink:title=" ">
<path fill="none" stroke="#9a32cd" stroke-dasharray="5,2" d="M244.72,-72.19C221.83,-60.14 188.22,-42.44 164.85,-30.14"/>
<polygon fill="#9a32cd" stroke="#9a32cd" points="243.34,-75.42 253.81,-76.98 246.6,-69.22 243.34,-75.42"/>
</a>
</g>
<text text-anchor="middle" x="235.5" y="-51" font-family="Helvetica,sans-Serif" font-size="10.00" fill="grey"> identity</text>
</g>
<!-- Node4 -->
<g id="Node000004" class="node">
<title>Node4</title>
<g id="a_Node000004"><a xlink:href="structbrix__token__scope__t.html" target="_top" xlink:title=" ">
<polygon fill="white" stroke="#666666" points="209,-162 99,-162 99,-143 209,-143 209,-162"/>
<text text-anchor="middle" x="154" y="-150" font-family="Helvetica,sans-Serif" font-size="10.00">brix_token_scope_t</text>
</a>
</g>
</g>
<!-- Node4&#45;&gt;Node1 -->
<g id="edge4_Node000001_Node000004" class="edge">
<title>Node4&#45;&gt;Node1</title>
<g id="a_edge4_Node000001_Node000004"><a xlink:title=" ">
<path fill="none" stroke="#9a32cd" stroke-dasharray="5,2" d="M151.74,-132.34C148.49,-104.81 142.57,-54.71 139.68,-30.23"/>
<polygon fill="#9a32cd" stroke="#9a32cd" points="148.3,-133.09 152.95,-142.61 155.25,-132.27 148.3,-133.09"/>
</a>
</g>
<text text-anchor="middle" x="183" y="-84" font-family="Helvetica,sans-Serif" font-size="10.00" fill="grey"> token_scopes</text>
</g>
<!-- Node4&#45;&gt;Node3 -->
<g id="edge3_Node000003_Node000004" class="edge">
<title>Node4&#45;&gt;Node3</title>
<g id="a_edge3_Node000003_Node000004"><a xlink:title=" ">
<path fill="none" stroke="#9a32cd" stroke-dasharray="5,2" d="M178.42,-138.03C201.27,-125.42 234.72,-106.97 254.23,-96.2"/>
<polygon fill="#9a32cd" stroke="#9a32cd" points="176.71,-134.97 169.64,-142.87 180.09,-141.1 176.71,-134.97"/>
</a>
</g>
<text text-anchor="middle" x="253" y="-117" font-family="Helvetica,sans-Serif" font-size="10.00" fill="grey"> token_scopes</text>
</g>
</g>
</svg>
