<?xml version="1.0" encoding="UTF-8" standalone="no"?>
<!DOCTYPE svg PUBLIC "-//W3C//DTD SVG 1.1//EN"
 "http://www.w3.org/Graphics/SVG/1.1/DTD/svg11.dtd">
<!-- Generated by graphviz version 2.43.0 (0)
 -->
<!-- Title: src/auth/s3/sts.h Pages: 1 -->
<svg width="4826pt" height="159pt"
 viewBox="0.00 0.00 4826.00 159.00" xmlns="http://www.w3.org/2000/svg" xmlns:xlink="http://www.w3.org/1999/xlink">
<g id="graph0" class="graph" transform="scale(1 1) rotate(0) translate(4 155)">
<title>src/auth/s3/sts.h</title>
<!-- Node1 -->
<g id="Node000001" class="node">
<title>Node1</title>
<g id="a_Node000001"><a xlink:title=" ">
<polygon fill="#999999" stroke="#666666" points="498.5,-151 402.5,-151 402.5,-132 498.5,-132 498.5,-151"/>
<text text-anchor="middle" x="450.5" y="-139" font-family="Helvetica,sans-Serif" font-size="10.00">src/auth/s3/sts.h</text>
</a>
</g>
</g>
<!-- Node2 -->
<g id="Node000002" class="node">
<title>Node2</title>
<g id="a_Node000002"><a xlink:href="sts__internal_8h.html" target="_top" xlink:title=" ">
<polygon fill="white" stroke="#666666" points="313,-96 174,-96 174,-77 313,-77 313,-96"/>
<text text-anchor="middle" x="243.5" y="-84" font-family="Helvetica,sans-Serif" font-size="10.00">src/auth/s3/sts_internal.h</text>
</a>
</g>
</g>
<!-- Node1&#45;&gt;Node2 -->
<g id="edge1_Node000001_Node000002" class="edge">
<title>Node1&#45;&gt;Node2</title>
<g id="a_edge1_Node000001_Node000002"><a xlink:title=" ">
<path fill="none" stroke="#63b8ff" d="M407.29,-129.44C368.54,-119.52 312.47,-105.16 277.02,-96.08"/>
<polygon fill="#63b8ff" stroke="#63b8ff" points="406.69,-132.89 417.24,-131.98 408.42,-126.11 406.69,-132.89"/>
</a>
</g>
</g>
<!-- Node6 -->
<g id="Node000006" class="node">
<title>Node6</title>
<g id="a_Node000006"><a xlink:href="vfs__deleg_8c.html" target="_top" xlink:title=" ">
<polygon fill="white" stroke="#666666" points="510,-30 391,-30 391,-11 510,-11 510,-30"/>
<text text-anchor="middle" x="450.5" y="-18" font-family="Helvetica,sans-Serif" font-size="10.00">src/fs/vfs/vfs_deleg.c</text>
</a>
</g>
</g>
<!-- Node1&#45;&gt;Node6 -->
<g id="edge5_Node000001_Node000006" class="edge">
<title>Node1&#45;&gt;Node6</title>
<g id="a_edge5_Node000001_Node000006"><a xlink:title=" ">
<path fill="none" stroke="#63b8ff" d="M450.5,-121.86C450.5,-95.81 450.5,-49.56 450.5,-30.3"/>
<polygon fill="#63b8ff" stroke="#63b8ff" points="447,-121.94 450.5,-131.94 454,-121.94 447,-121.94"/>
</a>
</g>
</g>
<!-- Node7 -->
<g id="Node000007" class="node">
<title>Node7</title>
<g id="a_Node000007"><a xlink:href="vfs__internal_8h.html" target="_top" xlink:title=" ">
<polygon fill="white" stroke="#666666" points="2584,-96 2453,-96 2453,-77 2584,-77 2584,-96"/>
<text text-anchor="middle" x="2518.5" y="-84" font-family="Helvetica,sans-Serif" font-size="10.00">src/fs/vfs/vfs_internal.h</text>
</a>
</g>
</g>
<!-- Node1&#45;&gt;Node7 -->
<g id="edge6_Node000001_Node000007" class="edge">
<title>Node1&#45;&gt;Node7</title>
<g id="a_edge6_Node000001_Node000007"><a xlink:title=" ">
<path fill="none" stroke="#63b8ff" d="M508.65,-139.01C804.43,-131.43 2140.02,-97.2 2452.81,-89.18"/>
<polygon fill="#63b8ff" stroke="#63b8ff" points="508.48,-135.51 498.57,-139.27 508.66,-142.51 508.48,-135.51"/>
</a>
</g>
</g>
<!-- Node3 -->
<g id="Node000003" class="node">
<title>Node3</title>
<g id="a_Node000003"><a xlink:href="sts_8c.html" target="_top" xlink:title=" ">
<polygon fill="white" stroke="#666666" points="95,-30 0,-30 0,-11 95,-11 95,-30"/>
<text text-anchor="middle" x="47.5" y="-18" font-family="Helvetica,sans-Serif" font-size="10.00">src/auth/s3/sts.c</text>
</a>
</g>
</g>
<!-- Node2&#45;&gt;Node3 -->
<g id="edge2_Node000002_Node000003" class="edge">
<title>Node2&#45;&gt;Node3</title>
<g id="a_edge2_Node000002_Node000003"><a xlink:title=" ">
<path fill="none" stroke="#63b8ff" d="M206.5,-73.87C178.45,-65.01 138.99,-52.42 104.5,-41 93.88,-37.48 82.18,-33.5 72.15,-30.05"/>
<polygon fill="#63b8ff" stroke="#63b8ff" points="205.69,-77.29 216.28,-76.96 207.8,-70.61 205.69,-77.29"/>
</a>
</g>
</g>
<!-- Node4 -->
<g id="Node000004" class="node">
<title>Node4</title>
<g id="a_Node000004"><a xlink:href="sts__http_8c.html" target="_top" xlink:title=" ">
<polygon fill="white" stroke="#666666" points="233.5,-30 113.5,-30 113.5,-11 233.5,-11 233.5,-30"/>
<text text-anchor="middle" x="173.5" y="-18" font-family="Helvetica,sans-Serif" font-size="10.00">src/auth/s3/sts_http.c</text>
</a>
</g>
</g>
<!-- Node2&#45;&gt;Node4 -->
<g id="edge3_Node000002_Node000004" class="edge">
<title>Node2&#45;&gt;Node4</title>
<g id="a_edge3_Node000002_Node000004"><a xlink:title=" ">
<path fill="none" stroke="#63b8ff" d="M226.36,-69.83C212.81,-57.44 194.37,-40.59 183.24,-30.41"/>
<polygon fill="#63b8ff" stroke="#63b8ff" points="224.32,-72.7 234.06,-76.87 229.04,-67.54 224.32,-72.7"/>
</a>
</g>
</g>
<!-- Node5 -->
<g id="Node000005" class="node">
<title>Node5</title>
<g id="a_Node000005"><a xlink:href="sts__sign_8c.html" target="_top" xlink:title=" ">
<polygon fill="white" stroke="#666666" points="373,-30 252,-30 252,-11 373,-11 373,-30"/>
<text text-anchor="middle" x="312.5" y="-18" font-family="Helvetica,sans-Serif" font-size="10.00">src/auth/s3/sts_sign.c</text>
</a>
</g>
</g>
<!-- Node2&#45;&gt;Node5 -->
<g id="edge4_Node000002_Node000005" class="edge">
<title>Node2&#45;&gt;Node5</title>
<g id="a_edge4_Node000002_Node000005"><a xlink:title=" ">
<path fill="none" stroke="#63b8ff" d="M260.39,-69.83C273.75,-57.44 291.92,-40.59 302.9,-30.41"/>
<polygon fill="#63b8ff" stroke="#63b8ff" points="257.76,-67.5 252.81,-76.87 262.52,-72.63 257.76,-67.5"/>
</a>
</g>
</g>
<!-- Node7&#45;&gt;Node6 -->
<g id="edge14_Node000007_Node000006" class="edge">
<title>Node7&#45;&gt;Node6</title>
<g id="a_edge14_Node000007_Node000006"><a xlink:title=" ">
<path fill="none" stroke="#63b8ff" d="M2442.97,-84.95C2101.7,-82.31 712,-69.87 519.5,-41 504.48,-38.75 488.11,-34.21 475.08,-30.08"/>
<polygon fill="#63b8ff" stroke="#63b8ff" points="2442.97,-88.45 2453,-85.03 2443.02,-81.45 2442.97,-88.45"/>
</a>
</g>
</g>
<!-- Node8 -->
<g id="Node000008" class="node">
<title>Node8</title>
<g id="a_Node000008"><a xlink:href="sd__posix_8c.html" target="_top" xlink:title=" ">
<polygon fill="white" stroke="#666666" points="644.5,-35.5 528.5,-35.5 528.5,-5.5 644.5,-5.5 644.5,-35.5"/>
<text text-anchor="start" x="536.5" y="-23.5" font-family="Helvetica,sans-Serif" font-size="10.00">src/fs/backend/posix</text>
<text text-anchor="middle" x="586.5" y="-12.5" font-family="Helvetica,sans-Serif" font-size="10.00">/sd_posix.c</text>
</a>
</g>
</g>
<!-- Node7&#45;&gt;Node8 -->
<g id="edge7_Node000007_Node000008" class="edge">
<title>Node7&#45;&gt;Node8</title>
<g id="a_edge7_Node000007_Node000008"><a xlink:title=" ">
<path fill="none" stroke="#63b8ff" d="M2442.48,-84.85C2114.86,-81.89 831.95,-68.62 653.5,-41 645.36,-39.74 636.82,-37.77 628.66,-35.56"/>
<polygon fill="#63b8ff" stroke="#63b8ff" points="2442.78,-88.35 2452.82,-84.94 2442.85,-81.35 2442.78,-88.35"/>
</a>
</g>
</g>
<!-- Node9 -->
<g id="Node000009" class="node">
<title>Node9</title>
<g id="a_Node000009"><a xlink:href="sd__posix__io_8c.html" target="_top" xlink:title=" ">
<polygon fill="white" stroke="#666666" points="778.5,-35.5 662.5,-35.5 662.5,-5.5 778.5,-5.5 778.5,-35.5"/>
<text text-anchor="start" x="670.5" y="-23.5" font-family="Helvetica,sans-Serif" font-size="10.00">src/fs/backend/posix</text>
<text text-anchor="middle" x="720.5" y="-12.5" font-family="Helvetica,sans-Serif" font-size="10.00">/sd_posix_io.c</text>
</a>
</g>
</g>
<!-- Node7&#45;&gt;Node9 -->
<g id="edge8_Node000007_Node000009" class="edge">
<title>Node7&#45;&gt;Node9</title>
<g id="a_edge8_Node000007_Node000009"><a xlink:title=" ">
<path fill="none" stroke="#63b8ff" d="M2442.6,-84.7C2130.17,-81.25 952.16,-66.64 787.5,-41 779.36,-39.73 770.82,-37.76 762.66,-35.55"/>
<polygon fill="#63b8ff" stroke="#63b8ff" points="2442.87,-88.2 2452.91,-84.81 2442.95,-81.2 2442.87,-88.2"/>
</a>
</g>
</g>
<!-- Node10 -->
<g id="Node000010" class="node">
<title>Node10</title>
<g id="a_Node000010"><a xlink:href="sd__posix__ns_8c.html" target="_top" xlink:title=" ">
<polygon fill="white" stroke="#666666" points="912.5,-35.5 796.5,-35.5 796.5,-5.5 912.5,-5.5 912.5,-35.5"/>
<text text-anchor="start" x="804.5" y="-23.5" font-family="Helvetica,sans-Serif" font-size="10.00">src/fs/backend/posix</text>
<text text-anchor="middle" x="854.5" y="-12.5" font-family="Helvetica,sans-Serif" font-size="10.00">/sd_posix_ns.c</text>
</a>
</g>
</g>
<!-- Node7&#45;&gt;Node10 -->
<g id="edge9_Node000007_Node000010" class="edge">
<title>Node7&#45;&gt;Node10</title>
<g id="a_edge9_Node000007_Node000010"><a xlink:title=" ">
<path fill="none" stroke="#63b8ff" d="M2442.46,-85.95C2166.72,-87.17 1219.94,-87.8 921.5,-41 913.36,-39.72 904.82,-37.75 896.66,-35.54"/>
<polygon fill="#63b8ff" stroke="#63b8ff" points="2442.78,-89.45 2452.76,-85.9 2442.74,-82.45 2442.78,-89.45"/>
</a>
</g>
</g>
<!-- Node11 -->
<g id="Node000011" class="node">
<title>Node11</title>
<g id="a_Node000011"><a xlink:href="open_8c.html" target="_top" xlink:title=" ">
<polygon fill="white" stroke="#666666" points="1040.5,-30 930.5,-30 930.5,-11 1040.5,-11 1040.5,-30"/>
<text text-anchor="middle" x="985.5" y="-18" font-family="Helvetica,sans-Serif" font-size="10.00">src/fs/cache/open.c</text>
</a>
</g>
</g>
<!-- Node7&#45;&gt;Node11 -->
<g id="edge10_Node000007_Node000011" class="edge">
<title>Node7&#45;&gt;Node11</title>
<g id="a_edge10_Node000007_Node000011"><a xlink:title=" ">
<path fill="none" stroke="#63b8ff" d="M2442.44,-85.85C2181.17,-86.66 1321.55,-85.75 1049.5,-41 1035.52,-38.7 1020.33,-34.16 1008.25,-30.04"/>
<polygon fill="#63b8ff" stroke="#63b8ff" points="2442.6,-89.35 2452.59,-85.82 2442.58,-82.35 2442.6,-89.35"/>
</a>
</g>
</g>
<!-- Node12 -->
<g id="Node000012" class="node">
<title>Node12</title>
<g id="a_Node000012"><a xlink:href="open__or__fill_8c.html" target="_top" xlink:title=" ">
<polygon fill="white" stroke="#666666" points="1174.5,-35.5 1058.5,-35.5 1058.5,-5.5 1174.5,-5.5 1174.5,-35.5"/>
<text text-anchor="start" x="1066.5" y="-23.5" font-family="Helvetica,sans-Serif" font-size="10.00">src/fs/cache/open_or</text>
<text text-anchor="middle" x="1116.5" y="-12.5" font-family="Helvetica,sans-Serif" font-size="10.00">_fill.c</text>
</a>
</g>
</g>
<!-- Node7&#45;&gt;Node12 -->
<g id="edge11_Node000007_Node000012" class="edge">
<title>Node7&#45;&gt;Node12</title>
<g id="a_edge11_Node000007_Node000012"><a xlink:title=" ">
<path fill="none" stroke="#63b8ff" d="M2442.45,-85.46C2197.15,-84.93 1428.59,-80.12 1183.5,-41 1175.37,-39.7 1166.82,-37.72 1158.67,-35.5"/>
<polygon fill="#63b8ff" stroke="#63b8ff" points="2442.69,-88.96 2452.69,-85.48 2442.7,-81.96 2442.69,-88.96"/>
</a>
</g>
</g>
<!-- Node13 -->
<g id="Node000013" class="node">
<title>Node13</title>
<g id="a_Node000013"><a xlink:href="vfs__copy_8c.html" target="_top" xlink:title=" ">
<polygon fill="white" stroke="#666666" points="1306.5,-30 1192.5,-30 1192.5,-11 1306.5,-11 1306.5,-30"/>
<text text-anchor="middle" x="1249.5" y="-18" font-family="Helvetica,sans-Serif" font-size="10.00">src/fs/vfs/vfs_copy.c</text>
</a>
</g>
</g>
<!-- Node7&#45;&gt;Node13 -->
<g id="edge12_Node000007_Node000013" class="edge">
<title>Node7&#45;&gt;Node13</title>
<g id="a_edge12_Node000007_Node000013"><a xlink:title=" ">
<path fill="none" stroke="#63b8ff" d="M2442.66,-85.17C2214.03,-83.79 1533.87,-76.72 1315.5,-41 1301.11,-38.65 1285.45,-34.11 1272.99,-30"/>
<polygon fill="#63b8ff" stroke="#63b8ff" points="2442.85,-88.67 2452.87,-85.23 2442.9,-81.67 2442.85,-88.67"/>
</a>
</g>
</g>
<!-- Node14 -->
<g id="Node000014" class="node">
<title>Node14</title>
<g id="a_Node000014"><a xlink:href="vfs__cred_8c.html" target="_top" xlink:title=" ">
<polygon fill="white" stroke="#666666" points="1438,-30 1325,-30 1325,-11 1438,-11 1438,-30"/>
<text text-anchor="middle" x="1381.5" y="-18" font-family="Helvetica,sans-Serif" font-size="10.00">src/fs/vfs/vfs_cred.c</text>
</a>
</g>
</g>
<!-- Node7&#45;&gt;Node14 -->
<g id="edge13_Node000007_Node000014" class="edge">
<title>Node7&#45;&gt;Node14</title>
<g id="a_edge13_Node000007_Node000014"><a xlink:title=" ">
<path fill="none" stroke="#63b8ff" d="M2442.71,-84.77C2231.52,-82.34 1639.31,-72.82 1447.5,-41 1433.24,-38.63 1417.71,-34.15 1405.31,-30.08"/>
<polygon fill="#63b8ff" stroke="#63b8ff" points="2442.74,-88.27 2452.78,-84.88 2442.82,-81.27 2442.74,-88.27"/>
</a>
</g>
</g>
<!-- Node15 -->
<g id="Node000015" class="node">
<title>Node15</title>
<g id="a_Node000015"><a xlink:href="vfs__dir_8c.html" target="_top" xlink:title=" ">
<polygon fill="white" stroke="#666666" points="1560.5,-30 1456.5,-30 1456.5,-11 1560.5,-11 1560.5,-30"/>
<text text-anchor="middle" x="1508.5" y="-18" font-family="Helvetica,sans-Serif" font-size="10.00">src/fs/vfs/vfs_dir.c</text>
</a>
</g>
</g>
<!-- Node7&#45;&gt;Node15 -->
<g id="edge15_Node000007_Node000015" class="edge">
<title>Node7&#45;&gt;Node15</title>
<g id="a_edge15_Node000007_Node000015"><a xlink:title=" ">
<path fill="none" stroke="#63b8ff" d="M2442.65,-84.51C2248.4,-81.55 1736.55,-71.08 1569.5,-41 1556.26,-38.62 1541.91,-34.13 1530.45,-30.06"/>
<polygon fill="#63b8ff" stroke="#63b8ff" points="2442.72,-88.01 2452.77,-84.66 2442.83,-81.01 2442.72,-88.01"/>
</a>
</g>
</g>
<!-- Node16 -->
<g id="Node000016" class="node">
<title>Node16</title>
<g id="a_Node000016"><a xlink:href="vfs__io__core_8c.html" target="_top" xlink:title=" ">
<polygon fill="white" stroke="#666666" points="1706.5,-30 1578.5,-30 1578.5,-11 1706.5,-11 1706.5,-30"/>
<text text-anchor="middle" x="1642.5" y="-18" font-family="Helvetica,sans-Serif" font-size="10.00">src/fs/vfs/vfs_io_core.c</text>
</a>
</g>
</g>
<!-- Node7&#45;&gt;Node16 -->
<g id="edge16_Node000007_Node000016" class="edge">
<title>Node7&#45;&gt;Node16</title>
<g id="a_edge16_Node000007_Node000016"><a xlink:title=" ">
<path fill="none" stroke="#63b8ff" d="M2442.47,-83.28C2270.14,-77.93 1854.08,-63.11 1715.5,-41 1699.95,-38.52 1682.94,-34.08 1669.26,-30.06"/>
<polygon fill="#63b8ff" stroke="#63b8ff" points="2442.62,-86.79 2452.72,-83.6 2442.83,-79.79 2442.62,-86.79"/>
</a>
</g>
</g>
<!-- Node17 -->
<g id="Node000017" class="node">
<title>Node17</title>
<g id="a_Node000017"><a xlink:href="vfs__mkdir_8c.html" target="_top" xlink:title=" ">
<polygon fill="white" stroke="#666666" points="1844.5,-30 1724.5,-30 1724.5,-11 1844.5,-11 1844.5,-30"/>
<text text-anchor="middle" x="1784.5" y="-18" font-family="Helvetica,sans-Serif" font-size="10.00">src/fs/vfs/vfs_mkdir.c</text>
</a>
</g>
</g>
<!-- Node7&#45;&gt;Node17 -->
<g id="edge17_Node000007_Node000017" class="edge">
<title>Node7&#45;&gt;Node17</title>
<g id="a_edge17_Node000007_Node000017"><a xlink:title=" ">
<path fill="none" stroke="#63b8ff" d="M2442.68,-85.55C2318.59,-84.48 2064.77,-77.51 1853.5,-41 1838.78,-38.46 1822.7,-34.01 1809.77,-30.01"/>
<polygon fill="#63b8ff" stroke="#63b8ff" points="2442.81,-89.05 2452.83,-85.62 2442.86,-82.05 2442.81,-89.05"/>
</a>
</g>
</g>
<!-- Node18 -->
<g id="Node000018" class="node">
<title>Node18</title>
<g id="a_Node000018"><a xlink:href="vfs__open_8c.html" target="_top" xlink:title=" ">
<polygon fill="white" stroke="#666666" points="1978.5,-30 1862.5,-30 1862.5,-11 1978.5,-11 1978.5,-30"/>
<text text-anchor="middle" x="1920.5" y="-18" font-family="Helvetica,sans-Serif" font-size="10.00">src/fs/vfs/vfs_open.c</text>
</a>
</g>
</g>
<!-- Node7&#45;&gt;Node18 -->
<g id="edge18_Node000007_Node000018" class="edge">
<title>Node7&#45;&gt;Node18</title>
<g id="a_edge18_Node000007_Node000018"><a xlink:title=" ">
<path fill="none" stroke="#63b8ff" d="M2442.91,-83.9C2339.35,-80.64 2147.93,-70.76 1987.5,-41 1973.33,-38.37 1957.85,-33.97 1945.35,-30.02"/>
<polygon fill="#63b8ff" stroke="#63b8ff" points="2442.86,-87.4 2452.96,-84.2 2443.07,-80.4 2442.86,-87.4"/>
</a>
</g>
</g>
<!-- Node19 -->
<g id="Node000019" class="node">
<title>Node19</title>
<g id="a_Node000019"><a xlink:href="vfs__open__adopt_8c.html" target="_top" xlink:title=" ">
<polygon fill="white" stroke="#666666" points="2104.5,-35.5 1996.5,-35.5 1996.5,-5.5 2104.5,-5.5 2104.5,-35.5"/>
<text text-anchor="start" x="2004.5" y="-23.5" font-family="Helvetica,sans-Serif" font-size="10.00">src/fs/vfs/vfs_open</text>
<text text-anchor="middle" x="2050.5" y="-12.5" font-family="Helvetica,sans-Serif" font-size="10.00">_adopt.c</text>
</a>
</g>
</g>
<!-- Node7&#45;&gt;Node19 -->
<g id="edge19_Node000007_Node000019" class="edge">
<title>Node7&#45;&gt;Node19</title>
<g id="a_edge19_Node000007_Node000019"><a xlink:title=" ">
<path fill="none" stroke="#63b8ff" d="M2442.44,-81.48C2360.54,-76.15 2226.74,-64.52 2113.5,-41 2106.44,-39.53 2099.04,-37.61 2091.89,-35.54"/>
<polygon fill="#63b8ff" stroke="#63b8ff" points="2442.46,-84.99 2452.66,-82.13 2442.91,-78 2442.46,-84.99"/>
</a>
</g>
</g>
<!-- Node20 -->
<g id="Node000020" class="node">
<title>Node20</title>
<g id="a_Node000020"><a xlink:href="vfs__open__handle_8c.html" target="_top" xlink:title=" ">
<polygon fill="white" stroke="#666666" points="2230.5,-35.5 2122.5,-35.5 2122.5,-5.5 2230.5,-5.5 2230.5,-35.5"/>
<text text-anchor="start" x="2130.5" y="-23.5" font-family="Helvetica,sans-Serif" font-size="10.00">src/fs/vfs/vfs_open</text>
<text text-anchor="middle" x="2176.5" y="-12.5" font-family="Helvetica,sans-Serif" font-size="10.00">_handle.c</text>
</a>
</g>
</g>
<!-- Node7&#45;&gt;Node20 -->
<g id="edge20_Node000007_Node000020" class="edge">
<title>Node7&#45;&gt;Node20</title>
<g id="a_edge20_Node000007_Node000020"><a xlink:title=" ">
<path fill="none" stroke="#63b8ff" d="M2442.96,-76.41C2386.51,-68.9 2307.66,-56.9 2239.5,-41 2232.81,-39.44 2225.8,-37.54 2218.98,-35.54"/>
<polygon fill="#63b8ff" stroke="#63b8ff" points="2442.51,-79.88 2452.88,-77.71 2443.42,-72.94 2442.51,-79.88"/>
</a>
</g>
</g>
<!-- Node21 -->
<g id="Node000021" class="node">
<title>Node21</title>
<g id="a_Node000021"><a xlink:href="vfs__read_8c.html" target="_top" xlink:title=" ">
<polygon fill="white" stroke="#666666" points="2362.5,-30 2248.5,-30 2248.5,-11 2362.5,-11 2362.5,-30"/>
<text text-anchor="middle" x="2305.5" y="-18" font-family="Helvetica,sans-Serif" font-size="10.00">src/fs/vfs/vfs_read.c</text>
</a>
</g>
</g>
<!-- Node7&#45;&gt;Node21 -->
<g id="edge21_Node000007_Node000021" class="edge">
<title>Node7&#45;&gt;Node21</title>
<g id="a_edge21_Node000007_Node000021"><a xlink:title=" ">
<path fill="none" stroke="#63b8ff" d="M2480.17,-73.98C2438.18,-61.37 2371.79,-41.42 2334.11,-30.1"/>
<polygon fill="#63b8ff" stroke="#63b8ff" points="2479.19,-77.34 2489.77,-76.87 2481.2,-70.64 2479.19,-77.34"/>
</a>
</g>
</g>
<!-- Node22 -->
<g id="Node000022" class="node">
<title>Node22</title>
<g id="a_Node000022"><a xlink:href="vfs__rename_8c.html" target="_top" xlink:title=" ">
<polygon fill="white" stroke="#666666" points="2510.5,-30 2380.5,-30 2380.5,-11 2510.5,-11 2510.5,-30"/>
<text text-anchor="middle" x="2445.5" y="-18" font-family="Helvetica,sans-Serif" font-size="10.00">src/fs/vfs/vfs_rename.c</text>
</a>
</g>
</g>
<!-- Node7&#45;&gt;Node22 -->
<g id="edge22_Node000007_Node000022" class="edge">
<title>Node7&#45;&gt;Node22</title>
<g id="a_edge22_Node000007_Node000022"><a xlink:title=" ">
<path fill="none" stroke="#63b8ff" d="M2501.02,-70.18C2486.86,-57.76 2467.38,-40.68 2455.66,-30.41"/>
<polygon fill="#63b8ff" stroke="#63b8ff" points="2498.83,-72.91 2508.65,-76.87 2503.44,-67.64 2498.83,-72.91"/>
</a>
</g>
</g>
<!-- Node23 -->
<g id="Node000023" class="node">
<title>Node23</title>
<g id="a_Node000023"><a xlink:href="vfs__staged_8c.html" target="_top" xlink:title=" ">
<polygon fill="white" stroke="#666666" points="2654,-30 2529,-30 2529,-11 2654,-11 2654,-30"/>
<text text-anchor="middle" x="2591.5" y="-18" font-family="Helvetica,sans-Serif" font-size="10.00">src/fs/vfs/vfs_staged.c</text>
</a>
</g>
</g>
<!-- Node7&#45;&gt;Node23 -->
<g id="edge23_Node000007_Node000023" class="edge">
<title>Node7&#45;&gt;Node23</title>
<g id="a_edge23_Node000007_Node000023"><a xlink:title=" ">
<path fill="none" stroke="#63b8ff" d="M2535.98,-70.18C2550.14,-57.76 2569.62,-40.68 2581.34,-30.41"/>
<polygon fill="#63b8ff" stroke="#63b8ff" points="2533.56,-67.64 2528.35,-76.87 2538.17,-72.91 2533.56,-67.64"/>
</a>
</g>
</g>
<!-- Node24 -->
<g id="Node000024" class="node">
<title>Node24</title>
<g id="a_Node000024"><a xlink:href="vfs__stat_8c.html" target="_top" xlink:title=" ">
<polygon fill="white" stroke="#666666" points="2783,-30 2672,-30 2672,-11 2783,-11 2783,-30"/>
<text text-anchor="middle" x="2727.5" y="-18" font-family="Helvetica,sans-Serif" font-size="10.00">src/fs/vfs/vfs_stat.c</text>
</a>
</g>
</g>
<!-- Node7&#45;&gt;Node24 -->
<g id="edge24_Node000007_Node000024" class="edge">
<title>Node7&#45;&gt;Node24</title>
<g id="a_edge24_Node000007_Node000024"><a xlink:title=" ">
<path fill="none" stroke="#63b8ff" d="M2556.37,-73.9C2597.59,-61.28 2662.53,-41.39 2699.43,-30.1"/>
<polygon fill="#63b8ff" stroke="#63b8ff" points="2555.22,-70.59 2546.69,-76.87 2557.27,-77.29 2555.22,-70.59"/>
</a>
</g>
</g>
<!-- Node25 -->
<g id="Node000025" class="node">
<title>Node25</title>
<g id="a_Node000025"><a xlink:href="vfs__sync_8c.html" target="_top" xlink:title=" ">
<polygon fill="white" stroke="#666666" points="2916,-30 2801,-30 2801,-11 2916,-11 2916,-30"/>
<text text-anchor="middle" x="2858.5" y="-18" font-family="Helvetica,sans-Serif" font-size="10.00">src/fs/vfs/vfs_sync.c</text>
</a>
</g>
</g>
<!-- Node7&#45;&gt;Node25 -->
<g id="edge25_Node000007_Node000025" class="edge">
<title>Node7&#45;&gt;Node25</title>
<g id="a_edge25_Node000007_Node000025"><a xlink:title=" ">
<path fill="none" stroke="#63b8ff" d="M2594.34,-75.81C2649.63,-68.1 2726.15,-56.13 2792.5,-41 2805.78,-37.97 2820.32,-33.77 2832.37,-30.05"/>
<polygon fill="#63b8ff" stroke="#63b8ff" points="2593.7,-72.36 2584.28,-77.19 2594.66,-79.3 2593.7,-72.36"/>
</a>
</g>
</g>
<!-- Node26 -->
<g id="Node000026" class="node">
<title>Node26</title>
<g id="a_Node000026"><a xlink:href="vfs__unlink_8c.html" target="_top" xlink:title=" ">
<polygon fill="white" stroke="#666666" points="3056.5,-30 2934.5,-30 2934.5,-11 3056.5,-11 3056.5,-30"/>
<text text-anchor="middle" x="2995.5" y="-18" font-family="Helvetica,sans-Serif" font-size="10.00">src/fs/vfs/vfs_unlink.c</text>
</a>
</g>
</g>
<!-- Node7&#45;&gt;Node26 -->
<g id="edge26_Node000007_Node000026" class="edge">
<title>Node7&#45;&gt;Node26</title>
<g id="a_edge26_Node000007_Node000026"><a xlink:title=" ">
<path fill="none" stroke="#63b8ff" d="M2594.19,-80.92C2676.34,-75.1 2811.09,-63.04 2925.5,-41 2939.99,-38.21 2955.86,-33.9 2968.82,-30.03"/>
<polygon fill="#63b8ff" stroke="#63b8ff" points="2593.93,-77.43 2584.19,-81.62 2594.41,-84.42 2593.93,-77.43"/>
</a>
</g>
</g>
<!-- Node27 -->
<g id="Node000027" class="node">
<title>Node27</title>
<g id="a_Node000027"><a xlink:href="vfs__walk_8c.html" target="_top" xlink:title=" ">
<polygon fill="white" stroke="#666666" points="3190.5,-30 3074.5,-30 3074.5,-11 3190.5,-11 3190.5,-30"/>
<text text-anchor="middle" x="3132.5" y="-18" font-family="Helvetica,sans-Serif" font-size="10.00">src/fs/vfs/vfs_walk.c</text>
</a>
</g>
</g>
<!-- Node7&#45;&gt;Node27 -->
<g id="edge27_Node000007_Node000027" class="edge">
<title>Node7&#45;&gt;Node27</title>
<g id="a_edge27_Node000007_Node000027"><a xlink:title=" ">
<path fill="none" stroke="#63b8ff" d="M2594.62,-84.15C2700.88,-81.17 2899.32,-71.62 3065.5,-41 3079.68,-38.39 3095.15,-33.99 3107.65,-30.03"/>
<polygon fill="#63b8ff" stroke="#63b8ff" points="2594.22,-80.66 2584.32,-84.43 2594.41,-87.66 2594.22,-80.66"/>
</a>
</g>
</g>
<!-- Node28 -->
<g id="Node000028" class="node">
<title>Node28</title>
<g id="a_Node000028"><a xlink:href="vfs__write_8c.html" target="_top" xlink:title=" ">
<polygon fill="white" stroke="#666666" points="3326,-30 3209,-30 3209,-11 3326,-11 3326,-30"/>
<text text-anchor="middle" x="3267.5" y="-18" font-family="Helvetica,sans-Serif" font-size="10.00">src/fs/vfs/vfs_write.c</text>
</a>
</g>
</g>
<!-- Node7&#45;&gt;Node28 -->
<g id="edge28_Node000007_Node000028" class="edge">
<title>Node7&#45;&gt;Node28</title>
<g id="a_edge28_Node000007_Node000028"><a xlink:title=" ">
<path fill="none" stroke="#63b8ff" d="M2594.66,-85.81C2721.21,-85.15 2982.36,-78.78 3199.5,-41 3214.02,-38.47 3229.87,-34.03 3242.61,-30.02"/>
<polygon fill="#63b8ff" stroke="#63b8ff" points="2594.3,-82.31 2584.31,-85.85 2594.33,-89.31 2594.3,-82.31"/>
</a>
</g>
</g>
<!-- Node29 -->
<g id="Node000029" class="node">
<title>Node29</title>
<g id="a_Node000029"><a xlink:href="vfs__writer_8c.html" target="_top" xlink:title=" ">
<polygon fill="white" stroke="#666666" points="3464.5,-30 3344.5,-30 3344.5,-11 3464.5,-11 3464.5,-30"/>
<text text-anchor="middle" x="3404.5" y="-18" font-family="Helvetica,sans-Serif" font-size="10.00">src/fs/vfs/vfs_writer.c</text>
</a>
</g>
</g>
<!-- Node7&#45;&gt;Node29 -->
<g id="edge29_Node000007_Node000029" class="edge">
<title>Node7&#45;&gt;Node29</title>
<g id="a_edge29_Node000007_Node000029"><a xlink:title=" ">
<path fill="none" stroke="#63b8ff" d="M2594.34,-83.51C2768.77,-78.59 3194.25,-64.51 3335.5,-41 3350.24,-38.55 3366.32,-34.11 3379.25,-30.09"/>
<polygon fill="#63b8ff" stroke="#63b8ff" points="2594.12,-80.02 2584.22,-83.79 2594.31,-87.01 2594.12,-80.02"/>
</a>
</g>
</g>
<!-- Node30 -->
<g id="Node000030" class="node">
<title>Node30</title>
<g id="a_Node000030"><a xlink:href="vfs__wverify_8c.html" target="_top" xlink:title=" ">
<polygon fill="white" stroke="#666666" points="3610,-30 3483,-30 3483,-11 3610,-11 3610,-30"/>
<text text-anchor="middle" x="3546.5" y="-18" font-family="Helvetica,sans-Serif" font-size="10.00">src/fs/vfs/vfs_wverify.c</text>
</a>
</g>
</g>
<!-- Node7&#45;&gt;Node30 -->
<g id="edge30_Node000007_Node000030" class="edge">
<title>Node7&#45;&gt;Node30</title>
<g id="a_edge30_Node000007_Node000030"><a xlink:title=" ">
<path fill="none" stroke="#63b8ff" d="M2594.4,-84.06C2789.42,-80.04 3304.61,-67.18 3473.5,-41 3489.19,-38.57 3506.35,-34.08 3520.09,-30.02"/>
<polygon fill="#63b8ff" stroke="#63b8ff" points="2594.17,-80.57 2584.24,-84.27 2594.31,-87.57 2594.17,-80.57"/>
</a>
</g>
</g>
<!-- Node31 -->
<g id="Node000031" class="node">
<title>Node31</title>
<g id="a_Node000031"><a xlink:href="vfs__xattr_8c.html" target="_top" xlink:title=" ">
<polygon fill="white" stroke="#666666" points="3743,-30 3628,-30 3628,-11 3743,-11 3743,-30"/>
<text text-anchor="middle" x="3685.5" y="-18" font-family="Helvetica,sans-Serif" font-size="10.00">src/fs/vfs/vfs_xattr.c</text>
</a>
</g>
</g>
<!-- Node7&#45;&gt;Node31 -->
<g id="edge31_Node000007_Node000031" class="edge">
<title>Node7&#45;&gt;Node31</title>
<g id="a_edge31_Node000007_Node000031"><a xlink:title=" ">
<path fill="none" stroke="#63b8ff" d="M2594.5,-84.87C2809.93,-82.68 3421.73,-73.7 3619.5,-41 3633.76,-38.64 3649.29,-34.16 3661.7,-30.08"/>
<polygon fill="#63b8ff" stroke="#63b8ff" points="2594.21,-81.37 2584.24,-84.97 2594.27,-88.37 2594.21,-81.37"/>
</a>
</g>
</g>
<!-- Node32 -->
<g id="Node000032" class="node">
<title>Node32</title>
<g id="a_Node000032"><a xlink:href="open__request_8c.html" target="_top" xlink:title=" ">
<polygon fill="white" stroke="#666666" points="3880,-35.5 3761,-35.5 3761,-5.5 3880,-5.5 3880,-35.5"/>
<text text-anchor="start" x="3769" y="-23.5" font-family="Helvetica,sans-Serif" font-size="10.00">src/protocols/root</text>
<text text-anchor="middle" x="3820.5" y="-12.5" font-family="Helvetica,sans-Serif" font-size="10.00">/read/open_request.c</text>
</a>
</g>
</g>
<!-- Node7&#45;&gt;Node32 -->
<g id="edge32_Node000007_Node000032" class="edge">
<title>Node7&#45;&gt;Node32</title>
<g id="a_edge32_Node000007_Node000032"><a xlink:title=" ">
<path fill="none" stroke="#63b8ff" d="M2594.31,-85.18C2826.82,-83.8 3527.72,-76.74 3752.5,-41 3760.63,-39.71 3769.16,-37.76 3777.32,-35.58"/>
<polygon fill="#63b8ff" stroke="#63b8ff" points="2594.23,-81.68 2584.25,-85.23 2594.27,-88.68 2594.23,-81.68"/>
</a>
</g>
</g>
<!-- Node33 -->
<g id="Node000033" class="node">
<title>Node33</title>
<g id="a_Node000033"><a xlink:href="open__resolved__file_8c.html" target="_top" xlink:title=" ">
<polygon fill="white" stroke="#666666" points="4014.5,-41 3898.5,-41 3898.5,0 4014.5,0 4014.5,-41"/>
<text text-anchor="start" x="3906.5" y="-29" font-family="Helvetica,sans-Serif" font-size="10.00">src/protocols/root</text>
<text text-anchor="start" x="3906.5" y="-18" font-family="Helvetica,sans-Serif" font-size="10.00">/read/open_resolved</text>
<text text-anchor="middle" x="3956.5" y="-7" font-family="Helvetica,sans-Serif" font-size="10.00">_file.c</text>
</a>
</g>
</g>
<!-- Node7&#45;&gt;Node33 -->
<g id="edge33_Node000007_Node000033" class="edge">
<title>Node7&#45;&gt;Node33</title>
<g id="a_edge33_Node000007_Node000033"><a xlink:title=" ">
<path fill="none" stroke="#63b8ff" d="M2594.07,-85.54C2843.18,-85.27 3636.94,-81.2 3889.5,-41 3892.37,-40.54 3895.29,-40 3898.23,-39.39"/>
<polygon fill="#63b8ff" stroke="#63b8ff" points="2594.02,-82.04 2584.03,-85.55 2594.03,-89.04 2594.02,-82.04"/>
</a>
</g>
</g>
<!-- Node34 -->
<g id="Node000034" class="node">
<title>Node34</title>
<g id="a_Node000034"><a xlink:href="open__resolved__file__dispatch_8c.html" target="_top" xlink:title=" ">
<polygon fill="white" stroke="#666666" points="4148.5,-41 4032.5,-41 4032.5,0 4148.5,0 4148.5,-41"/>
<text text-anchor="start" x="4040.5" y="-29" font-family="Helvetica,sans-Serif" font-size="10.00">src/protocols/root</text>
<text text-anchor="start" x="4040.5" y="-18" font-family="Helvetica,sans-Serif" font-size="10.00">/read/open_resolved</text>
<text text-anchor="middle" x="4090.5" y="-7" font-family="Helvetica,sans-Serif" font-size="10.00">_file_dispatch.c</text>
</a>
</g>
</g>
<!-- Node7&#45;&gt;Node34 -->
<g id="edge34_Node000007_Node000034" class="edge">
<title>Node7&#45;&gt;Node34</title>
<g id="a_edge34_Node000007_Node000034"><a xlink:title=" ">
<path fill="none" stroke="#63b8ff" d="M2594.58,-85.8C2859.98,-86.43 3743.85,-85.09 4023.5,-41 4026.37,-40.55 4029.29,-40.01 4032.23,-39.4"/>
<polygon fill="#63b8ff" stroke="#63b8ff" points="2594.29,-82.29 2584.28,-85.77 2594.27,-89.29 2594.29,-82.29"/>
</a>
</g>
</g>
<!-- Node35 -->
<g id="Node000035" class="node">
<title>Node35</title>
<g id="a_Node000035"><a xlink:href="open__resolved__file__finalize_8c.html" target="_top" xlink:title=" ">
<polygon fill="white" stroke="#666666" points="4282.5,-41 4166.5,-41 4166.5,0 4282.5,0 4282.5,-41"/>
<text text-anchor="start" x="4174.5" y="-29" font-family="Helvetica,sans-Serif" font-size="10.00">src/protocols/root</text>
<text text-anchor="start" x="4174.5" y="-18" font-family="Helvetica,sans-Serif" font-size="10.00">/read/open_resolved</text>
<text text-anchor="middle" x="4224.5" y="-7" font-family="Helvetica,sans-Serif" font-size="10.00">_file_finalize.c</text>
</a>
</g>
</g>
<!-- Node7&#45;&gt;Node35 -->
<g id="edge35_Node000007_Node000035" class="edge">
<title>Node7&#45;&gt;Node35</title>
<g id="a_edge35_Node000007_Node000035"><a xlink:title=" ">
<path fill="none" stroke="#63b8ff" d="M2594.82,-84.58C2897.21,-80.76 4002.38,-65.27 4157.5,-41 4160.37,-40.55 4163.3,-40.01 4166.23,-39.41"/>
<polygon fill="#63b8ff" stroke="#63b8ff" points="2594.36,-81.08 2584.4,-84.71 2594.45,-88.08 2594.36,-81.08"/>
</a>
</g>
</g>
<!-- Node36 -->
<g id="Node000036" class="node">
<title>Node36</title>
<g id="a_Node000036"><a xlink:href="open__resolved__file__open_8c.html" target="_top" xlink:title=" ">
<polygon fill="white" stroke="#666666" points="4416.5,-41 4300.5,-41 4300.5,0 4416.5,0 4416.5,-41"/>
<text text-anchor="start" x="4308.5" y="-29" font-family="Helvetica,sans-Serif" font-size="10.00">src/protocols/root</text>
<text text-anchor="start" x="4308.5" y="-18" font-family="Helvetica,sans-Serif" font-size="10.00">/read/open_resolved</text>
<text text-anchor="middle" x="4358.5" y="-7" font-family="Helvetica,sans-Serif" font-size="10.00">_file_open.c</text>
</a>
</g>
</g>
<!-- Node7&#45;&gt;Node36 -->
<g id="edge36_Node000007_Node000036" class="edge">
<title>Node7&#45;&gt;Node36</title>
<g id="a_edge36_Node000007_Node000036"><a xlink:title=" ">
<path fill="none" stroke="#63b8ff" d="M2594.17,-84.75C2911.01,-81.46 4122.48,-67.26 4291.5,-41 4294.37,-40.55 4297.3,-40.02 4300.23,-39.42"/>
<polygon fill="#63b8ff" stroke="#63b8ff" points="2594.13,-81.25 2584.17,-84.85 2594.2,-88.25 2594.13,-81.25"/>
</a>
</g>
</g>
<!-- Node37 -->
<g id="Node000037" class="node">
<title>Node37</title>
<g id="a_Node000037"><a xlink:href="open__resolved__file__staging_8c.html" target="_top" xlink:title=" ">
<polygon fill="white" stroke="#666666" points="4550.5,-41 4434.5,-41 4434.5,0 4550.5,0 4550.5,-41"/>
<text text-anchor="start" x="4442.5" y="-29" font-family="Helvetica,sans-Serif" font-size="10.00">src/protocols/root</text>
<text text-anchor="start" x="4442.5" y="-18" font-family="Helvetica,sans-Serif" font-size="10.00">/read/open_resolved</text>
<text text-anchor="middle" x="4492.5" y="-7" font-family="Helvetica,sans-Serif" font-size="10.00">_file_staging.c</text>
</a>
</g>
</g>
<!-- Node7&#45;&gt;Node37 -->
<g id="edge37_Node000007_Node000037" class="edge">
<title>Node7&#45;&gt;Node37</title>
<g id="a_edge37_Node000007_Node000037"><a xlink:title=" ">
<path fill="none" stroke="#63b8ff" d="M2594.56,-84.89C2926.87,-82.08 4242.72,-69.24 4425.5,-41 4428.37,-40.56 4431.3,-40.02 4434.24,-39.42"/>
<polygon fill="#63b8ff" stroke="#63b8ff" points="2594.06,-81.4 2584.09,-84.98 2594.12,-88.4 2594.06,-81.4"/>
</a>
</g>
</g>
<!-- Node38 -->
<g id="Node000038" class="node">
<title>Node38</title>
<g id="a_Node000038"><a xlink:href="put__inner_8c.html" target="_top" xlink:title=" ">
<polygon fill="white" stroke="#666666" points="4680.5,-35.5 4568.5,-35.5 4568.5,-5.5 4680.5,-5.5 4680.5,-35.5"/>
<text text-anchor="start" x="4576.5" y="-23.5" font-family="Helvetica,sans-Serif" font-size="10.00">src/protocols/s3/put</text>
<text text-anchor="middle" x="4624.5" y="-12.5" font-family="Helvetica,sans-Serif" font-size="10.00">_inner.c</text>
</a>
</g>
</g>
<!-- Node7&#45;&gt;Node38 -->
<g id="edge38_Node000007_Node000038" class="edge">
<title>Node7&#45;&gt;Node38</title>
<g id="a_edge38_Node000007_Node000038"><a xlink:title=" ">
<path fill="none" stroke="#63b8ff" d="M2594.19,-85.06C2940.2,-82.87 4362.92,-72.04 4559.5,-41 4567.41,-39.75 4575.71,-37.79 4583.63,-35.58"/>
<polygon fill="#63b8ff" stroke="#63b8ff" points="2594.01,-81.56 2584.03,-85.12 2594.05,-88.56 2594.01,-81.56"/>
</a>
</g>
</g>
<!-- Node39 -->
<g id="Node000039" class="node">
<title>Node39</title>
<g id="a_Node000039"><a xlink:href="http__serve__offload_8c.html" target="_top" xlink:title=" ">
<polygon fill="white" stroke="#666666" points="4818,-35.5 4699,-35.5 4699,-5.5 4818,-5.5 4818,-35.5"/>
<text text-anchor="start" x="4707" y="-23.5" font-family="Helvetica,sans-Serif" font-size="10.00">src/protocols/shared</text>
<text text-anchor="middle" x="4758.5" y="-12.5" font-family="Helvetica,sans-Serif" font-size="10.00">/http_serve_offload.c</text>
</a>
</g>
</g>
<!-- Node7&#45;&gt;Node39 -->
<g id="edge39_Node000007_Node000039" class="edge">
<title>Node7&#45;&gt;Node39</title>
<g id="a_edge39_Node000007_Node000039"><a xlink:title=" ">
<path fill="none" stroke="#63b8ff" d="M2594.26,-85.09C2953.8,-83 4479.22,-72.34 4689.5,-41 4697.87,-39.75 4706.67,-37.79 4715.06,-35.58"/>
<polygon fill="#63b8ff" stroke="#63b8ff" points="2594.2,-81.59 2584.22,-85.15 2594.24,-88.59 2594.2,-81.59"/>
</a>
</g>
</g>
</g>
</svg>
