<?xml version="1.0" encoding="UTF-8" standalone="no"?>
<!DOCTYPE svg PUBLIC "-//W3C//DTD SVG 1.1//EN"
 "http://www.w3.org/Graphics/SVG/1.1/DTD/svg11.dtd">
<!-- Generated by graphviz version 2.43.0 (0)
 -->
<!-- Title: src/auth/s3/sts_internal.h Pages: 1 -->
<svg width="381pt" height="82pt"
 viewBox="0.00 0.00 381.00 82.00" xmlns="http://www.w3.org/2000/svg" xmlns:xlink="http://www.w3.org/1999/xlink">
<g id="graph0" class="graph" transform="scale(1 1) rotate(0) translate(4 78)">
<title>src/auth/s3/sts_internal.h</title>
<!-- Node1 -->
<g id="Node000001" class="node">
<title>Node1</title>
<g id="a_Node000001"><a xlink:title=" ">
<polygon fill="#999999" stroke="#666666" points="243,-74 104,-74 104,-55 243,-55 243,-74"/>
<text text-anchor="middle" x="173.5" y="-62" font-family="Helvetica,sans-Serif" font-size="10.00">src/auth/s3/sts_internal.h</text>
</a>
</g>
</g>
<!-- Node2 -->
<g id="Node000002" class="node">
<title>Node2</title>
<g id="a_Node000002"><a xlink:href="sts_8c.html" target="_top" xlink:title=" ">
<polygon fill="white" stroke="#666666" points="95,-19 0,-19 0,0 95,0 95,-19"/>
<text text-anchor="middle" x="47.5" y="-7" font-family="Helvetica,sans-Serif" font-size="10.00">src/auth/s3/sts.c</text>
</a>
</g>
</g>
<!-- Node1&#45;&gt;Node2 -->
<g id="edge1_Node000001_Node000002" class="edge">
<title>Node1&#45;&gt;Node2</title>
<g id="a_edge1_Node000001_Node000002"><a xlink:title=" ">
<path fill="none" stroke="#63b8ff" d="M143.85,-51.03C120.55,-41.23 88.7,-27.83 68.11,-19.17"/>
<polygon fill="#63b8ff" stroke="#63b8ff" points="142.68,-54.33 153.26,-54.98 145.4,-47.88 142.68,-54.33"/>
</a>
</g>
</g>
<!-- Node3 -->
<g id="Node000003" class="node">
<title>Node3</title>
<g id="a_Node000003"><a xlink:href="sts__http_8c.html" target="_top" xlink:title=" ">
<polygon fill="white" stroke="#666666" points="233.5,-19 113.5,-19 113.5,0 233.5,0 233.5,-19"/>
<text text-anchor="middle" x="173.5" y="-7" font-family="Helvetica,sans-Serif" font-size="10.00">src/auth/s3/sts_http.c</text>
</a>
</g>
</g>
<!-- Node1&#45;&gt;Node3 -->
<g id="edge2_Node000001_Node000003" class="edge">
<title>Node1&#45;&gt;Node3</title>
<g id="a_edge2_Node000001_Node000003"><a xlink:title=" ">
<path fill="none" stroke="#63b8ff" d="M173.5,-44.66C173.5,-35.93 173.5,-25.99 173.5,-19.09"/>
<polygon fill="#63b8ff" stroke="#63b8ff" points="170,-44.75 173.5,-54.75 177,-44.75 170,-44.75"/>
</a>
</g>
</g>
<!-- Node4 -->
<g id="Node000004" class="node">
<title>Node4</title>
<g id="a_Node000004"><a xlink:href="sts__sign_8c.html" target="_top" xlink:title=" ">
<polygon fill="white" stroke="#666666" points="373,-19 252,-19 252,0 373,0 373,-19"/>
<text text-anchor="middle" x="312.5" y="-7" font-family="Helvetica,sans-Serif" font-size="10.00">src/auth/s3/sts_sign.c</text>
</a>
</g>
</g>
<!-- Node1&#45;&gt;Node4 -->
<g id="edge3_Node000001_Node000004" class="edge">
<title>Node1&#45;&gt;Node4</title>
<g id="a_edge3_Node000001_Node000004"><a xlink:title=" ">
<path fill="none" stroke="#63b8ff" d="M205.18,-51.42C230.97,-41.59 266.74,-27.95 289.76,-19.17"/>
<polygon fill="#63b8ff" stroke="#63b8ff" points="203.93,-48.15 195.83,-54.98 206.42,-54.69 203.93,-48.15"/>
</a>
</g>
</g>
</g>
</svg>
