<?xml version="1.0" encoding="UTF-8" standalone="no"?>
<!DOCTYPE svg PUBLIC "-//W3C//DTD SVG 1.1//EN"
 "http://www.w3.org/Graphics/SVG/1.1/DTD/svg11.dtd">
<!-- Generated by graphviz version 2.43.0 (0)
 -->
<!-- Title: src/auth/token/subject_map.c Pages: 1 -->
<svg width="371pt" height="148pt"
 viewBox="0.00 0.00 370.50 148.00" xmlns="http://www.w3.org/2000/svg" xmlns:xlink="http://www.w3.org/1999/xlink">
<g id="graph0" class="graph" transform="scale(1 1) rotate(0) translate(4 144)">
<title>src/auth/token/subject_map.c</title>
<!-- Node1 -->
<g id="Node000001" class="node">
<title>Node1</title>
<g id="a_Node000001"><a xlink:title=" ">
<polygon fill="#999999" stroke="#666666" points="257,-140 133,-140 133,-110 257,-110 257,-140"/>
<text text-anchor="start" x="141" y="-128" font-family="Helvetica,sans-Serif" font-size="10.00">src/auth/token/subject</text>
<text text-anchor="middle" x="195" y="-117" font-family="Helvetica,sans-Serif" font-size="10.00">_map.c</text>
</a>
</g>
</g>
<!-- Node2 -->
<g id="Node000002" class="node">
<title>Node2</title>
<g id="a_Node000002"><a xlink:href="subject__map_8h.html" target="_top" xlink:title=" ">
<polygon fill="white" stroke="#666666" points="88,-74 0,-74 0,-55 88,-55 88,-74"/>
<text text-anchor="middle" x="44" y="-62" font-family="Helvetica,sans-Serif" font-size="10.00">subject_map.h</text>
</a>
</g>
</g>
<!-- Node1&#45;&gt;Node2 -->
<g id="edge1_Node000001_Node000002" class="edge">
<title>Node1&#45;&gt;Node2</title>
<g id="a_edge1_Node000001_Node000002"><a xlink:title=" ">
<path fill="none" stroke="#63b8ff" d="M158.83,-109.99C133.53,-100.18 100.04,-87.21 75.76,-77.81"/>
<polygon fill="#63b8ff" stroke="#63b8ff" points="76.89,-74.49 66.3,-74.14 74.36,-81.02 76.89,-74.49"/>
</a>
</g>
</g>
<!-- Node4 -->
<g id="Node000004" class="node">
<title>Node4</title>
<g id="a_Node000004"><a xlink:href="json_8h.html" target="_top" xlink:title=" ">
<polygon fill="white" stroke="#666666" points="152,-74 106,-74 106,-55 152,-55 152,-74"/>
<text text-anchor="middle" x="129" y="-62" font-family="Helvetica,sans-Serif" font-size="10.00">json.h</text>
</a>
</g>
</g>
<!-- Node1&#45;&gt;Node4 -->
<g id="edge3_Node000001_Node000004" class="edge">
<title>Node1&#45;&gt;Node4</title>
<g id="a_edge3_Node000001_Node000004"><a xlink:title=" ">
<path fill="none" stroke="#63b8ff" d="M179.02,-109.84C169.25,-101.17 156.73,-90.08 146.66,-81.15"/>
<polygon fill="#63b8ff" stroke="#63b8ff" points="148.69,-78.28 138.89,-74.27 144.05,-83.52 148.69,-78.28"/>
</a>
</g>
</g>
<!-- Node7 -->
<g id="Node000007" class="node">
<title>Node7</title>
<g id="a_Node000007"><a xlink:title=" ">
<polygon fill="#e0e0e0" stroke="#999999" points="220,-74 170,-74 170,-55 220,-55 220,-74"/>
<text text-anchor="middle" x="195" y="-62" font-family="Helvetica,sans-Serif" font-size="10.00">stdio.h</text>
</a>
</g>
</g>
<!-- Node1&#45;&gt;Node7 -->
<g id="edge7_Node000001_Node000007" class="edge">
<title>Node1&#45;&gt;Node7</title>
<g id="a_edge7_Node000001_Node000007"><a xlink:title=" ">
<path fill="none" stroke="#63b8ff" d="M195,-109.84C195,-102.21 195,-92.7 195,-84.45"/>
<polygon fill="#63b8ff" stroke="#63b8ff" points="198.5,-84.27 195,-74.27 191.5,-84.27 198.5,-84.27"/>
</a>
</g>
</g>
<!-- Node8 -->
<g id="Node000008" class="node">
<title>Node8</title>
<g id="a_Node000008"><a xlink:title=" ">
<polygon fill="#e0e0e0" stroke="#999999" points="291.5,-74 238.5,-74 238.5,-55 291.5,-55 291.5,-74"/>
<text text-anchor="middle" x="265" y="-62" font-family="Helvetica,sans-Serif" font-size="10.00">stdlib.h</text>
</a>
</g>
</g>
<!-- Node1&#45;&gt;Node8 -->
<g id="edge8_Node000001_Node000008" class="edge">
<title>Node1&#45;&gt;Node8</title>
<g id="a_edge8_Node000001_Node000008"><a xlink:title=" ">
<path fill="none" stroke="#63b8ff" d="M211.95,-109.84C222.42,-101.09 235.86,-89.85 246.59,-80.88"/>
<polygon fill="#63b8ff" stroke="#63b8ff" points="249.08,-83.36 254.51,-74.27 244.59,-77.99 249.08,-83.36"/>
</a>
</g>
</g>
<!-- Node9 -->
<g id="Node000009" class="node">
<title>Node9</title>
<g id="a_Node000009"><a xlink:title=" ">
<polygon fill="#e0e0e0" stroke="#999999" points="362.5,-74 309.5,-74 309.5,-55 362.5,-55 362.5,-74"/>
<text text-anchor="middle" x="336" y="-62" font-family="Helvetica,sans-Serif" font-size="10.00">string.h</text>
</a>
</g>
</g>
<!-- Node1&#45;&gt;Node9 -->
<g id="edge9_Node000001_Node000009" class="edge">
<title>Node1&#45;&gt;Node9</title>
<g id="a_edge9_Node000001_Node000009"><a xlink:title=" ">
<path fill="none" stroke="#63b8ff" d="M228.77,-109.99C252.19,-100.27 283.12,-87.44 305.73,-78.06"/>
<polygon fill="#63b8ff" stroke="#63b8ff" points="307.28,-81.2 315.18,-74.14 304.6,-74.74 307.28,-81.2"/>
</a>
</g>
</g>
<!-- Node3 -->
<g id="Node000003" class="node">
<title>Node3</title>
<g id="a_Node000003"><a xlink:title=" ">
<polygon fill="#e0e0e0" stroke="#999999" points="78,-19 22,-19 22,0 78,0 78,-19"/>
<text text-anchor="middle" x="50" y="-7" font-family="Helvetica,sans-Serif" font-size="10.00">stddef.h</text>
</a>
</g>
</g>
<!-- Node2&#45;&gt;Node3 -->
<g id="edge2_Node000002_Node000003" class="edge">
<title>Node2&#45;&gt;Node3</title>
<g id="a_edge2_Node000002_Node000003"><a xlink:title=" ">
<path fill="none" stroke="#63b8ff" d="M44.99,-54.75C45.78,-47.8 46.9,-37.85 47.89,-29.13"/>
<polygon fill="#63b8ff" stroke="#63b8ff" points="51.38,-29.42 49.03,-19.09 44.42,-28.63 51.38,-29.42"/>
</a>
</g>
</g>
<!-- Node4&#45;&gt;Node3 -->
<g id="edge4_Node000004_Node000003" class="edge">
<title>Node4&#45;&gt;Node3</title>
<g id="a_edge4_Node000004_Node000003"><a xlink:title=" ">
<path fill="none" stroke="#63b8ff" d="M116.31,-54.98C104.17,-46.84 85.64,-34.41 71.25,-24.76"/>
<polygon fill="#63b8ff" stroke="#63b8ff" points="73.18,-21.84 62.92,-19.17 69.28,-27.65 73.18,-21.84"/>
</a>
</g>
</g>
<!-- Node5 -->
<g id="Node000005" class="node">
<title>Node5</title>
<g id="a_Node000005"><a xlink:title=" ">
<polygon fill="#e0e0e0" stroke="#999999" points="152.5,-19 99.5,-19 99.5,0 152.5,0 152.5,-19"/>
<text text-anchor="middle" x="126" y="-7" font-family="Helvetica,sans-Serif" font-size="10.00">stdint.h</text>
</a>
</g>
</g>
<!-- Node4&#45;&gt;Node5 -->
<g id="edge5_Node000004_Node000005" class="edge">
<title>Node4&#45;&gt;Node5</title>
<g id="a_edge5_Node000004_Node000005"><a xlink:title=" ">
<path fill="none" stroke="#63b8ff" d="M128.5,-54.75C128.11,-47.8 127.55,-37.85 127.05,-29.13"/>
<polygon fill="#63b8ff" stroke="#63b8ff" points="130.55,-28.88 126.49,-19.09 123.56,-29.27 130.55,-28.88"/>
</a>
</g>
</g>
<!-- Node6 -->
<g id="Node000006" class="node">
<title>Node6</title>
<g id="a_Node000006"><a xlink:title=" ">
<polygon fill="#e0e0e0" stroke="#999999" points="243,-19 171,-19 171,0 243,0 243,-19"/>
<text text-anchor="middle" x="207" y="-7" font-family="Helvetica,sans-Serif" font-size="10.00">sys/types.h</text>
</a>
</g>
</g>
<!-- Node4&#45;&gt;Node6 -->
<g id="edge6_Node000004_Node000006" class="edge">
<title>Node4&#45;&gt;Node6</title>
<g id="a_edge6_Node000004_Node000006"><a xlink:title=" ">
<path fill="none" stroke="#63b8ff" d="M141.53,-54.98C153.4,-46.92 171.46,-34.65 185.61,-25.03"/>
<polygon fill="#63b8ff" stroke="#63b8ff" points="187.94,-27.69 194.24,-19.17 184,-21.9 187.94,-27.69"/>
</a>
</g>
</g>
</g>
</svg>
