<?xml version="1.0" encoding="UTF-8" standalone="no"?>
<!DOCTYPE svg PUBLIC "-//W3C//DTD SVG 1.1//EN"
 "http://www.w3.org/Graphics/SVG/1.1/DTD/svg11.dtd">
<!-- Generated by graphviz version 2.43.0 (0)
 -->
<!-- Title: src/auth/token/subject_map.h Pages: 1 -->
<svg width="288pt" height="104pt"
 viewBox="0.00 0.00 287.50 104.00" xmlns="http://www.w3.org/2000/svg" xmlns:xlink="http://www.w3.org/1999/xlink">
<g id="graph0" class="graph" transform="scale(1 1) rotate(0) translate(4 100)">
<title>src/auth/token/subject_map.h</title>
<!-- Node1 -->
<g id="Node000001" class="node">
<title>Node1</title>
<g id="a_Node000001"><a xlink:title=" ">
<polygon fill="#999999" stroke="#666666" points="198,-96 74,-96 74,-66 198,-66 198,-96"/>
<text text-anchor="start" x="82" y="-84" font-family="Helvetica,sans-Serif" font-size="10.00">src/auth/token/subject</text>
<text text-anchor="middle" x="136" y="-73" font-family="Helvetica,sans-Serif" font-size="10.00">_map.h</text>
</a>
</g>
</g>
<!-- Node2 -->
<g id="Node000002" class="node">
<title>Node2</title>
<g id="a_Node000002"><a xlink:href="subject__map_8c.html" target="_top" xlink:title=" ">
<polygon fill="white" stroke="#666666" points="124,-30 0,-30 0,0 124,0 124,-30"/>
<text text-anchor="start" x="8" y="-18" font-family="Helvetica,sans-Serif" font-size="10.00">src/auth/token/subject</text>
<text text-anchor="middle" x="62" y="-7" font-family="Helvetica,sans-Serif" font-size="10.00">_map.c</text>
</a>
</g>
</g>
<!-- Node1&#45;&gt;Node2 -->
<g id="edge1_Node000001_Node000002" class="edge">
<title>Node1&#45;&gt;Node2</title>
<g id="a_edge1_Node000001_Node000002"><a xlink:title=" ">
<path fill="none" stroke="#63b8ff" d="M111.95,-59.2C100.97,-49.7 88.24,-38.69 78.38,-30.16"/>
<polygon fill="#63b8ff" stroke="#63b8ff" points="109.72,-61.9 119.58,-65.8 114.3,-56.61 109.72,-61.9"/>
</a>
</g>
</g>
<!-- Node3 -->
<g id="Node000003" class="node">
<title>Node3</title>
<g id="a_Node000003"><a xlink:href="validate_8c.html" target="_top" xlink:title=" ">
<polygon fill="white" stroke="#666666" points="279.5,-24.5 142.5,-24.5 142.5,-5.5 279.5,-5.5 279.5,-24.5"/>
<text text-anchor="middle" x="211" y="-12.5" font-family="Helvetica,sans-Serif" font-size="10.00">src/auth/token/validate.c</text>
</a>
</g>
</g>
<!-- Node1&#45;&gt;Node3 -->
<g id="edge2_Node000001_Node000003" class="edge">
<title>Node1&#45;&gt;Node3</title>
<g id="a_edge2_Node000001_Node000003"><a xlink:title=" ">
<path fill="none" stroke="#63b8ff" d="M160.31,-59.26C173.95,-47.61 190.27,-33.69 200.64,-24.84"/>
<polygon fill="#63b8ff" stroke="#63b8ff" points="157.98,-56.64 152.64,-65.8 162.52,-61.97 157.98,-56.64"/>
</a>
</g>
</g>
</g>
</svg>
