<?xml version="1.0" encoding="UTF-8" standalone="no"?>
<!DOCTYPE svg PUBLIC "-//W3C//DTD SVG 1.1//EN"
 "http://www.w3.org/Graphics/SVG/1.1/DTD/svg11.dtd">
<!-- Generated by graphviz version 2.43.0 (0)
 -->
<!-- Title: src/protocols/s3/tagging.h Pages: 1 -->
<svg width="903pt" height="159pt"
 viewBox="0.00 0.00 903.00 159.00" xmlns="http://www.w3.org/2000/svg" xmlns:xlink="http://www.w3.org/1999/xlink">
<g id="graph0" class="graph" transform="scale(1 1) rotate(0) translate(4 155)">
<title>src/protocols/s3/tagging.h</title>
<!-- Node1 -->
<g id="Node000001" class="node">
<title>Node1</title>
<g id="a_Node000001"><a xlink:title=" ">
<polygon fill="#999999" stroke="#666666" points="447,-151 305,-151 305,-132 447,-132 447,-151"/>
<text text-anchor="middle" x="376" y="-139" font-family="Helvetica,sans-Serif" font-size="10.00">src/protocols/s3/tagging.h</text>
</a>
</g>
</g>
<!-- Node2 -->
<g id="Node000002" class="node">
<title>Node2</title>
<g id="a_Node000002"><a xlink:href="protocols_2s3_2handler_8c.html" target="_top" xlink:title=" ">
<polygon fill="white" stroke="#666666" points="140,-90.5 0,-90.5 0,-71.5 140,-71.5 140,-90.5"/>
<text text-anchor="middle" x="70" y="-78.5" font-family="Helvetica,sans-Serif" font-size="10.00">src/protocols/s3/handler.c</text>
</a>
</g>
</g>
<!-- Node1&#45;&gt;Node2 -->
<g id="edge1_Node000001_Node000002" class="edge">
<title>Node1&#45;&gt;Node2</title>
<g id="a_edge1_Node000001_Node000002"><a xlink:title=" ">
<path fill="none" stroke="#63b8ff" d="M321.62,-130.1C262.58,-118.82 169.42,-101.01 114.55,-90.52"/>
<polygon fill="#63b8ff" stroke="#63b8ff" points="321.03,-133.55 331.5,-131.99 322.34,-126.68 321.03,-133.55"/>
</a>
</g>
</g>
<!-- Node3 -->
<g id="Node000003" class="node">
<title>Node3</title>
<g id="a_Node000003"><a xlink:href="handler__dispatch_8c.html" target="_top" xlink:title=" ">
<polygon fill="white" stroke="#666666" points="291.5,-96 158.5,-96 158.5,-66 291.5,-66 291.5,-96"/>
<text text-anchor="start" x="166.5" y="-84" font-family="Helvetica,sans-Serif" font-size="10.00">src/protocols/s3/handler</text>
<text text-anchor="middle" x="225" y="-73" font-family="Helvetica,sans-Serif" font-size="10.00">_dispatch.c</text>
</a>
</g>
</g>
<!-- Node1&#45;&gt;Node3 -->
<g id="edge2_Node000001_Node000003" class="edge">
<title>Node1&#45;&gt;Node3</title>
<g id="a_edge2_Node000001_Node000003"><a xlink:title=" ">
<path fill="none" stroke="#63b8ff" d="M344.59,-128.33C320.33,-118.93 286.72,-105.91 261.3,-96.06"/>
<polygon fill="#63b8ff" stroke="#63b8ff" points="343.45,-131.64 354.04,-131.99 345.98,-125.12 343.45,-131.64"/>
</a>
</g>
</g>
<!-- Node4 -->
<g id="Node000004" class="node">
<title>Node4</title>
<g id="a_Node000004"><a xlink:href="handler__object__route_8c.html" target="_top" xlink:title=" ">
<polygon fill="white" stroke="#666666" points="442.5,-96 309.5,-96 309.5,-66 442.5,-66 442.5,-96"/>
<text text-anchor="start" x="317.5" y="-84" font-family="Helvetica,sans-Serif" font-size="10.00">src/protocols/s3/handler</text>
<text text-anchor="middle" x="376" y="-73" font-family="Helvetica,sans-Serif" font-size="10.00">_object_route.c</text>
</a>
</g>
</g>
<!-- Node1&#45;&gt;Node4 -->
<g id="edge3_Node000001_Node000004" class="edge">
<title>Node1&#45;&gt;Node4</title>
<g id="a_edge3_Node000001_Node000004"><a xlink:title=" ">
<path fill="none" stroke="#63b8ff" d="M376,-121.65C376,-113.36 376,-103.78 376,-96.11"/>
<polygon fill="#63b8ff" stroke="#63b8ff" points="372.5,-121.87 376,-131.87 379.5,-121.87 372.5,-121.87"/>
</a>
</g>
</g>
<!-- Node5 -->
<g id="Node000005" class="node">
<title>Node5</title>
<g id="a_Node000005"><a xlink:href="s3__put__internal_8h.html" target="_top" xlink:title=" ">
<polygon fill="white" stroke="#666666" points="567.5,-96 460.5,-96 460.5,-66 567.5,-66 567.5,-96"/>
<text text-anchor="start" x="468.5" y="-84" font-family="Helvetica,sans-Serif" font-size="10.00">src/protocols/s3/s3</text>
<text text-anchor="middle" x="514" y="-73" font-family="Helvetica,sans-Serif" font-size="10.00">_put_internal.h</text>
</a>
</g>
</g>
<!-- Node1&#45;&gt;Node5 -->
<g id="edge4_Node000001_Node000005" class="edge">
<title>Node1&#45;&gt;Node5</title>
<g id="a_edge4_Node000001_Node000005"><a xlink:title=" ">
<path fill="none" stroke="#63b8ff" d="M405.3,-128.08C427.42,-118.7 457.8,-105.82 480.82,-96.06"/>
<polygon fill="#63b8ff" stroke="#63b8ff" points="403.91,-124.87 396.07,-131.99 406.64,-131.31 403.91,-124.87"/>
</a>
</g>
</g>
<!-- Node12 -->
<g id="Node000012" class="node">
<title>Node12</title>
<g id="a_Node000012"><a xlink:href="tagging_8c.html" target="_top" xlink:title=" ">
<polygon fill="white" stroke="#666666" points="726.5,-90.5 585.5,-90.5 585.5,-71.5 726.5,-71.5 726.5,-90.5"/>
<text text-anchor="middle" x="656" y="-78.5" font-family="Helvetica,sans-Serif" font-size="10.00">src/protocols/s3/tagging.c</text>
</a>
</g>
</g>
<!-- Node1&#45;&gt;Node12 -->
<g id="edge11_Node000001_Node000012" class="edge">
<title>Node1&#45;&gt;Node12</title>
<g id="a_edge11_Node000001_Node000012"><a xlink:title=" ">
<path fill="none" stroke="#63b8ff" d="M426.77,-129.89C480.84,-118.6 565.34,-100.94 615.24,-90.52"/>
<polygon fill="#63b8ff" stroke="#63b8ff" points="425.79,-126.52 416.71,-131.99 427.22,-133.37 425.79,-126.52"/>
</a>
</g>
</g>
<!-- Node6 -->
<g id="Node000006" class="node">
<title>Node6</title>
<g id="a_Node000006"><a xlink:href="s3_2put_8c.html" target="_top" xlink:title=" ">
<polygon fill="white" stroke="#666666" points="245,-24.5 125,-24.5 125,-5.5 245,-5.5 245,-24.5"/>
<text text-anchor="middle" x="185" y="-12.5" font-family="Helvetica,sans-Serif" font-size="10.00">src/protocols/s3/put.c</text>
</a>
</g>
</g>
<!-- Node5&#45;&gt;Node6 -->
<g id="edge5_Node000005_Node000006" class="edge">
<title>Node5&#45;&gt;Node6</title>
<g id="a_edge5_Node000005_Node000006"><a xlink:title=" ">
<path fill="none" stroke="#63b8ff" d="M450.41,-65.72C362.69,-48.04 338.74,-46.3 254,-30 245,-28.27 235.35,-26.35 226.2,-24.5"/>
<polygon fill="#63b8ff" stroke="#63b8ff" points="449.77,-69.16 460.26,-67.72 451.16,-62.3 449.77,-69.16"/>
</a>
</g>
</g>
<!-- Node7 -->
<g id="Node000007" class="node">
<title>Node7</title>
<g id="a_Node000007"><a xlink:href="put__aio_8c.html" target="_top" xlink:title=" ">
<polygon fill="white" stroke="#666666" points="375,-30 263,-30 263,0 375,0 375,-30"/>
<text text-anchor="start" x="271" y="-18" font-family="Helvetica,sans-Serif" font-size="10.00">src/protocols/s3/put</text>
<text text-anchor="middle" x="319" y="-7" font-family="Helvetica,sans-Serif" font-size="10.00">_aio.c</text>
</a>
</g>
</g>
<!-- Node5&#45;&gt;Node7 -->
<g id="edge6_Node000005_Node000007" class="edge">
<title>Node5&#45;&gt;Node7</title>
<g id="a_edge6_Node000005_Node000007"><a xlink:title=" ">
<path fill="none" stroke="#63b8ff" d="M461.36,-62.72C430.11,-52.47 391.01,-39.63 361.69,-30.01"/>
<polygon fill="#63b8ff" stroke="#63b8ff" points="460.61,-66.16 471.21,-65.95 462.8,-59.51 460.61,-66.16"/>
</a>
</g>
</g>
<!-- Node8 -->
<g id="Node000008" class="node">
<title>Node8</title>
<g id="a_Node000008"><a xlink:href="put__chunk_8c.html" target="_top" xlink:title=" ">
<polygon fill="white" stroke="#666666" points="505,-30 393,-30 393,0 505,0 505,-30"/>
<text text-anchor="start" x="401" y="-18" font-family="Helvetica,sans-Serif" font-size="10.00">src/protocols/s3/put</text>
<text text-anchor="middle" x="449" y="-7" font-family="Helvetica,sans-Serif" font-size="10.00">_chunk.c</text>
</a>
</g>
</g>
<!-- Node5&#45;&gt;Node8 -->
<g id="edge7_Node000005_Node000008" class="edge">
<title>Node5&#45;&gt;Node8</title>
<g id="a_edge7_Node000005_Node000008"><a xlink:title=" ">
<path fill="none" stroke="#63b8ff" d="M492.31,-58.65C482.79,-49.27 471.88,-38.53 463.39,-30.16"/>
<polygon fill="#63b8ff" stroke="#63b8ff" points="489.99,-61.27 499.57,-65.8 494.9,-56.29 489.99,-61.27"/>
</a>
</g>
</g>
<!-- Node9 -->
<g id="Node000009" class="node">
<title>Node9</title>
<g id="a_Node000009"><a xlink:href="put__finalize_8c.html" target="_top" xlink:title=" ">
<polygon fill="white" stroke="#666666" points="635,-30 523,-30 523,0 635,0 635,-30"/>
<text text-anchor="start" x="531" y="-18" font-family="Helvetica,sans-Serif" font-size="10.00">src/protocols/s3/put</text>
<text text-anchor="middle" x="579" y="-7" font-family="Helvetica,sans-Serif" font-size="10.00">_finalize.c</text>
</a>
</g>
</g>
<!-- Node5&#45;&gt;Node9 -->
<g id="edge8_Node000005_Node000009" class="edge">
<title>Node5&#45;&gt;Node9</title>
<g id="a_edge8_Node000005_Node000009"><a xlink:title=" ">
<path fill="none" stroke="#63b8ff" d="M535.69,-58.65C545.21,-49.27 556.12,-38.53 564.61,-30.16"/>
<polygon fill="#63b8ff" stroke="#63b8ff" points="533.1,-56.29 528.43,-65.8 538.01,-61.27 533.1,-56.29"/>
</a>
</g>
</g>
<!-- Node10 -->
<g id="Node000010" class="node">
<title>Node10</title>
<g id="a_Node000010"><a xlink:href="put__inner_8c.html" target="_top" xlink:title=" ">
<polygon fill="white" stroke="#666666" points="765,-30 653,-30 653,0 765,0 765,-30"/>
<text text-anchor="start" x="661" y="-18" font-family="Helvetica,sans-Serif" font-size="10.00">src/protocols/s3/put</text>
<text text-anchor="middle" x="709" y="-7" font-family="Helvetica,sans-Serif" font-size="10.00">_inner.c</text>
</a>
</g>
</g>
<!-- Node5&#45;&gt;Node10 -->
<g id="edge9_Node000005_Node000010" class="edge">
<title>Node5&#45;&gt;Node10</title>
<g id="a_edge9_Node000005_Node000010"><a xlink:title=" ">
<path fill="none" stroke="#63b8ff" d="M566.64,-62.72C597.89,-52.47 636.99,-39.63 666.31,-30.01"/>
<polygon fill="#63b8ff" stroke="#63b8ff" points="565.2,-59.51 556.79,-65.95 567.39,-66.16 565.2,-59.51"/>
</a>
</g>
</g>
<!-- Node11 -->
<g id="Node000011" class="node">
<title>Node11</title>
<g id="a_Node000011"><a xlink:href="put__stream_8c.html" target="_top" xlink:title=" ">
<polygon fill="white" stroke="#666666" points="895,-30 783,-30 783,0 895,0 895,-30"/>
<text text-anchor="start" x="791" y="-18" font-family="Helvetica,sans-Serif" font-size="10.00">src/protocols/s3/put</text>
<text text-anchor="middle" x="839" y="-7" font-family="Helvetica,sans-Serif" font-size="10.00">_stream.c</text>
</a>
</g>
</g>
<!-- Node5&#45;&gt;Node11 -->
<g id="edge10_Node000005_Node000011" class="edge">
<title>Node5&#45;&gt;Node11</title>
<g id="a_edge10_Node000005_Node000011"><a xlink:title=" ">
<path fill="none" stroke="#63b8ff" d="M577.51,-65.95C665.9,-48.25 689.78,-46.76 774,-30 776.83,-29.44 779.73,-28.85 782.65,-28.25"/>
<polygon fill="#63b8ff" stroke="#63b8ff" points="576.7,-62.54 567.59,-67.95 578.08,-69.4 576.7,-62.54"/>
</a>
</g>
</g>
</g>
</svg>
