<?xml version="1.0" encoding="UTF-8" standalone="no"?>
<!DOCTYPE svg PUBLIC "-//W3C//DTD SVG 1.1//EN"
 "http://www.w3.org/Graphics/SVG/1.1/DTD/svg11.dtd">
<!-- Generated by graphviz version 2.43.0 (0)
 -->
<!-- Title: src/net/tap/tap.h Pages: 1 -->
<!--zoomable 159 -->

<svg id="main" version="1.1" xmlns="http://www.w3.org/2000/svg" xmlns:xlink="http://www.w3.org/1999/xlink" xml:space="preserve" onload="init(evt)">
<style type="text/css"><![CDATA[
.node, .edge {opacity: 0.7;}
.node.selected, .edge.selected {opacity: 1;}
.edge:hover path { stroke: red; }
.edge:hover polygon { stroke: red; fill: red; }
]]></style>

<defs>
  <circle id="rim" cx="0" cy="0" r="7"/>
  <circle id="rim2" cx="0" cy="0" r="3.5"/>
  <g id="zoomPlus">
    <use xlink:href="#rim" fill="#404040"><set attributeName="fill" to="#808080" begin="zoomplus.mouseover" end="zoomplus.mouseout"/></use>
    <path d="M-4,0h8M0,-4v8" fill="none" stroke="white" stroke-width="1.5" pointer-events="none"/>
  </g>
  <g id="zoomMin">
    <use xlink:href="#rim" fill="#404040"><set attributeName="fill" to="#808080" begin="zoomminus.mouseover" end="zoomminus.mouseout"/></use>
    <path d="M-4,0h8" fill="none" stroke="white" stroke-width="1.5" pointer-events="none"/>
  </g>
  <g id="arrowUp" transform="translate(30 24)">
    <use xlink:href="#rim"/>
    <path pointer-events="none" fill="none" stroke="white" stroke-width="1.5" d="M0,-3.0v7 M-2.5,-0.5L0,-3.0L2.5,-0.5"/>
  </g>
  <g id="arrowRight" transform="rotate(90) translate(36 -43)">
    <use xlink:href="#rim"/>
    <path pointer-events="none" fill="none" stroke="white" stroke-width="1.5" d="M0,-3.0v7 M-2.5,-0.5L0,-3.0L2.5,-0.5"/>
  </g>
  <g id="arrowDown" transform="rotate(180) translate(-30 -48)">
    <use xlink:href="#rim"/>
    <path pointer-events="none" fill="none" stroke="white" stroke-width="1.5" d="M0,-3.0v7 M-2.5,-0.5L0,-3.0L2.5,-0.5"/>
  </g>
  <g id="arrowLeft" transform="rotate(270) translate(-36 17)">
    <use xlink:href="#rim"/>
    <path pointer-events="none" fill="none" stroke="white" stroke-width="1.5" d="M0,-3.0v7 M-2.5,-0.5L0,-3.0L2.5,-0.5"/>
  </g>
  <g id="resetDef">
    <use xlink:href="#rim2" fill="#404040"><set attributeName="fill" to="#808080" begin="reset.mouseover" end="reset.mouseout"/></use>
  </g>
</defs>
<script type="application/ecmascript">
var viewWidth = 2920;
var viewHeight = 159;
var sectionId = 'dynsection-1';
</script>
<script type="application/ecmascript" xlink:href="svg.min.js"/>
<svg id="graph" class="graph">
<g id="viewport">
<title>src/net/tap/tap.h</title>
<!-- Node1 -->
<g id="Node000001" class="node">
<title>Node1</title>
<g id="a_Node000001"><a xlink:title=" ">
<polygon fill="#999999" stroke="#666666" points="2492,-151 2396,-151 2396,-132 2492,-132 2492,-151"/>
<text text-anchor="middle" x="2444" y="-139" font-family="Helvetica,sans-Serif" font-size="10.00">src/net/tap/tap.h</text>
</a>
</g>
</g>
<!-- Node2 -->
<g id="Node000002" class="node">
<title>Node2</title>
<g id="a_Node000002"><a xlink:href="net_2proxy_2proxy__internal_8h.html" target="_top" xlink:title=" ">
<polygon fill="white" stroke="#666666" points="1453.5,-96 1342.5,-96 1342.5,-66 1453.5,-66 1453.5,-96"/>
<text text-anchor="start" x="1350.5" y="-84" font-family="Helvetica,sans-Serif" font-size="10.00">src/net/proxy/proxy</text>
<text text-anchor="middle" x="1398" y="-73" font-family="Helvetica,sans-Serif" font-size="10.00">_internal.h</text>
</a>
</g>
</g>
<!-- Node1&#45;&gt;Node2 -->
<g id="edge1_Node000001_Node000002" class="edge">
<title>Node1&#45;&gt;Node2</title>
<g id="a_edge1_Node000001_Node000002"><a xlink:title=" ">
<path fill="none" stroke="#63b8ff" d="M2385.98,-137.26C2202.16,-126.97 1634.15,-95.21 1453.66,-85.11"/>
<polygon fill="#63b8ff" stroke="#63b8ff" points="2385.81,-140.75 2395.99,-137.82 2386.2,-133.76 2385.81,-140.75"/>
</a>
</g>
</g>
<!-- Node22 -->
<g id="Node000022" class="node">
<title>Node22</title>
<g id="a_Node000022"><a xlink:href="tap__audit_8c.html" target="_top" xlink:title=" ">
<polygon fill="white" stroke="#666666" points="2209.5,-90.5 2084.5,-90.5 2084.5,-71.5 2209.5,-71.5 2209.5,-90.5"/>
<text text-anchor="middle" x="2147" y="-78.5" font-family="Helvetica,sans-Serif" font-size="10.00">src/net/tap/tap_audit.c</text>
</a>
</g>
</g>
<!-- Node1&#45;&gt;Node22 -->
<g id="edge21_Node000001_Node000022" class="edge">
<title>Node1&#45;&gt;Node22</title>
<g id="a_edge21_Node000001_Node000022"><a xlink:title=" ">
<path fill="none" stroke="#63b8ff" d="M2390.86,-130.03C2333.54,-118.74 2243.38,-100.98 2190.24,-90.52"/>
<polygon fill="#63b8ff" stroke="#63b8ff" points="2390.33,-133.49 2400.81,-131.99 2391.68,-126.63 2390.33,-133.49"/>
</a>
</g>
</g>
<!-- Node23 -->
<g id="Node000023" class="node">
<title>Node23</title>
<g id="a_Node000023"><a xlink:href="tap__decode_8c.html" target="_top" xlink:title=" ">
<polygon fill="white" stroke="#666666" points="2364,-90.5 2228,-90.5 2228,-71.5 2364,-71.5 2364,-90.5"/>
<text text-anchor="middle" x="2296" y="-78.5" font-family="Helvetica,sans-Serif" font-size="10.00">src/net/tap/tap_decode.c</text>
</a>
</g>
</g>
<!-- Node1&#45;&gt;Node23 -->
<g id="edge22_Node000001_Node000023" class="edge">
<title>Node1&#45;&gt;Node23</title>
<g id="a_edge22_Node000001_Node000023"><a xlink:title=" ">
<path fill="none" stroke="#63b8ff" d="M2412.96,-128.23C2384.36,-116.92 2342.66,-100.44 2317.55,-90.52"/>
<polygon fill="#63b8ff" stroke="#63b8ff" points="2411.89,-131.57 2422.48,-131.99 2414.47,-125.06 2411.89,-131.57"/>
</a>
</g>
</g>
<!-- Node24 -->
<g id="Node000024" class="node">
<title>Node24</title>
<g id="a_Node000024"><a xlink:href="tap__emit_8c.html" target="_top" xlink:title=" ">
<polygon fill="white" stroke="#666666" points="2505.5,-90.5 2382.5,-90.5 2382.5,-71.5 2505.5,-71.5 2505.5,-90.5"/>
<text text-anchor="middle" x="2444" y="-78.5" font-family="Helvetica,sans-Serif" font-size="10.00">src/net/tap/tap_emit.c</text>
</a>
</g>
</g>
<!-- Node1&#45;&gt;Node24 -->
<g id="edge23_Node000001_Node000024" class="edge">
<title>Node1&#45;&gt;Node24</title>
<g id="a_edge23_Node000001_Node000024"><a xlink:title=" ">
<path fill="none" stroke="#63b8ff" d="M2444,-121.66C2444,-111.24 2444,-98.8 2444,-90.67"/>
<polygon fill="#63b8ff" stroke="#63b8ff" points="2440.5,-121.87 2444,-131.87 2447.5,-121.87 2440.5,-121.87"/>
</a>
</g>
</g>
<!-- Node25 -->
<g id="Node000025" class="node">
<title>Node25</title>
<g id="a_Node000025"><a xlink:href="tap__stream_8c.html" target="_top" xlink:title=" ">
<polygon fill="white" stroke="#666666" points="2658.5,-90.5 2523.5,-90.5 2523.5,-71.5 2658.5,-71.5 2658.5,-90.5"/>
<text text-anchor="middle" x="2591" y="-78.5" font-family="Helvetica,sans-Serif" font-size="10.00">src/net/tap/tap_stream.c</text>
</a>
</g>
</g>
<!-- Node1&#45;&gt;Node25 -->
<g id="edge24_Node000001_Node000025" class="edge">
<title>Node1&#45;&gt;Node25</title>
<g id="a_edge24_Node000001_Node000025"><a xlink:title=" ">
<path fill="none" stroke="#63b8ff" d="M2474.83,-128.23C2503.24,-116.92 2544.66,-100.44 2569.6,-90.52"/>
<polygon fill="#63b8ff" stroke="#63b8ff" points="2473.37,-125.04 2465.38,-131.99 2475.96,-131.55 2473.37,-125.04"/>
</a>
</g>
</g>
<!-- Node26 -->
<g id="Node000026" class="node">
<title>Node26</title>
<g id="a_Node000026"><a xlink:href="relay_8c.html" target="_top" xlink:title=" ">
<polygon fill="white" stroke="#666666" points="2780.5,-30 2679.5,-30 2679.5,0 2780.5,0 2780.5,-30"/>
<text text-anchor="start" x="2687.5" y="-18" font-family="Helvetica,sans-Serif" font-size="10.00">src/protocols/root</text>
<text text-anchor="middle" x="2730" y="-7" font-family="Helvetica,sans-Serif" font-size="10.00">/relay/relay.c</text>
</a>
</g>
</g>
<!-- Node1&#45;&gt;Node26 -->
<g id="edge25_Node000001_Node000026" class="edge">
<title>Node1&#45;&gt;Node26</title>
<g id="a_edge25_Node000001_Node000026"><a xlink:title=" ">
<path fill="none" stroke="#63b8ff" d="M2502.42,-139.77C2549.91,-136.74 2617,-126.68 2667,-96 2693.37,-79.82 2713.13,-48.38 2722.99,-30.1"/>
<polygon fill="#63b8ff" stroke="#63b8ff" points="2502.08,-136.29 2492.29,-140.34 2502.47,-143.28 2502.08,-136.29"/>
</a>
</g>
</g>
<!-- Node27 -->
<g id="Node000027" class="node">
<title>Node27</title>
<g id="a_Node000027"><a xlink:href="relay__guard_8h.html" target="_top" xlink:title=" ">
<polygon fill="white" stroke="#666666" points="2829,-96 2715,-96 2715,-66 2829,-66 2829,-96"/>
<text text-anchor="start" x="2723" y="-84" font-family="Helvetica,sans-Serif" font-size="10.00">src/protocols/root</text>
<text text-anchor="middle" x="2772" y="-73" font-family="Helvetica,sans-Serif" font-size="10.00">/relay/relay_guard.h</text>
</a>
</g>
</g>
<!-- Node1&#45;&gt;Node27 -->
<g id="edge26_Node000001_Node000027" class="edge">
<title>Node1&#45;&gt;Node27</title>
<g id="a_edge26_Node000001_Node000027"><a xlink:title=" ">
<path fill="none" stroke="#63b8ff" d="M2502.44,-130.78C2554.58,-122.01 2632.96,-108.6 2701,-96 2705.45,-95.18 2710.05,-94.31 2714.67,-93.42"/>
<polygon fill="#63b8ff" stroke="#63b8ff" points="2501.66,-127.36 2492.37,-132.47 2502.82,-134.26 2501.66,-127.36"/>
</a>
</g>
</g>
<!-- Node3 -->
<g id="Node000003" class="node">
<title>Node3</title>
<g id="a_Node000003"><a xlink:href="process_8c.html" target="_top" xlink:title=" ">
<polygon fill="white" stroke="#666666" points="136,-24.5 0,-24.5 0,-5.5 136,-5.5 136,-24.5"/>
<text text-anchor="middle" x="68" y="-12.5" font-family="Helvetica,sans-Serif" font-size="10.00">src/core/config/process.c</text>
</a>
</g>
</g>
<!-- Node2&#45;&gt;Node3 -->
<g id="edge2_Node000002_Node000003" class="edge">
<title>Node2&#45;&gt;Node3</title>
<g id="a_edge2_Node000002_Node000003"><a xlink:title=" ">
<path fill="none" stroke="#63b8ff" d="M1332.01,-80.61C1145.18,-81.64 596.84,-79.84 145,-30 133.25,-28.7 120.59,-26.67 109,-24.55"/>
<polygon fill="#63b8ff" stroke="#63b8ff" points="1332.24,-84.11 1342.21,-80.55 1332.19,-77.11 1332.24,-84.11"/>
</a>
</g>
</g>
<!-- Node4 -->
<g id="Node000004" class="node">
<title>Node4</title>
<g id="a_Node000004"><a xlink:href="connect__lifecycle_8c.html" target="_top" xlink:title=" ">
<polygon fill="white" stroke="#666666" points="276,-30 154,-30 154,0 276,0 276,-30"/>
<text text-anchor="start" x="162" y="-18" font-family="Helvetica,sans-Serif" font-size="10.00">src/net/proxy/connect</text>
<text text-anchor="middle" x="215" y="-7" font-family="Helvetica,sans-Serif" font-size="10.00">_lifecycle.c</text>
</a>
</g>
</g>
<!-- Node2&#45;&gt;Node4 -->
<g id="edge3_Node000002_Node000004" class="edge">
<title>Node2&#45;&gt;Node4</title>
<g id="a_edge3_Node000002_Node000004"><a xlink:title=" ">
<path fill="none" stroke="#63b8ff" d="M1332.27,-80.53C1159.82,-81.18 680.38,-78.13 285,-30 282.17,-29.66 279.28,-29.26 276.37,-28.83"/>
<polygon fill="#63b8ff" stroke="#63b8ff" points="1332.47,-84.03 1342.45,-80.49 1332.44,-77.03 1332.47,-84.03"/>
</a>
</g>
</g>
<!-- Node5 -->
<g id="Node000005" class="node">
<title>Node5</title>
<g id="a_Node000005"><a xlink:href="connect__upstream_8c.html" target="_top" xlink:title=" ">
<polygon fill="white" stroke="#666666" points="416,-30 294,-30 294,0 416,0 416,-30"/>
<text text-anchor="start" x="302" y="-18" font-family="Helvetica,sans-Serif" font-size="10.00">src/net/proxy/connect</text>
<text text-anchor="middle" x="355" y="-7" font-family="Helvetica,sans-Serif" font-size="10.00">_upstream.c</text>
</a>
</g>
</g>
<!-- Node2&#45;&gt;Node5 -->
<g id="edge4_Node000002_Node000005" class="edge">
<title>Node2&#45;&gt;Node5</title>
<g id="a_edge4_Node000002_Node000005"><a xlink:title=" ">
<path fill="none" stroke="#63b8ff" d="M1331.89,-79.92C1174.27,-79.02 764.22,-72.41 425,-30 422.17,-29.65 419.29,-29.24 416.38,-28.8"/>
<polygon fill="#63b8ff" stroke="#63b8ff" points="1332.33,-83.43 1342.35,-79.98 1332.37,-76.43 1332.33,-83.43"/>
</a>
</g>
</g>
<!-- Node6 -->
<g id="Node000006" class="node">
<title>Node6</title>
<g id="a_Node000006"><a xlink:href="net_2proxy_2directives_8c.html" target="_top" xlink:title=" ">
<polygon fill="white" stroke="#666666" points="574,-24.5 434,-24.5 434,-5.5 574,-5.5 574,-24.5"/>
<text text-anchor="middle" x="504" y="-12.5" font-family="Helvetica,sans-Serif" font-size="10.00">src/net/proxy/directives.c</text>
</a>
</g>
</g>
<!-- Node2&#45;&gt;Node6 -->
<g id="edge5_Node000002_Node000006" class="edge">
<title>Node2&#45;&gt;Node6</title>
<g id="a_edge5_Node000002_Node000006"><a xlink:title=" ">
<path fill="none" stroke="#63b8ff" d="M1332.42,-78.51C1193.68,-74.81 860.41,-62.98 583,-30 571.24,-28.6 558.58,-26.59 546.92,-24.52"/>
<polygon fill="#63b8ff" stroke="#63b8ff" points="1332.38,-82.01 1342.47,-78.78 1332.56,-75.02 1332.38,-82.01"/>
</a>
</g>
</g>
<!-- Node7 -->
<g id="Node000007" class="node">
<title>Node7</title>
<g id="a_Node000007"><a xlink:href="events__bootstrap_8c.html" target="_top" xlink:title=" ">
<polygon fill="white" stroke="#666666" points="708,-30 592,-30 592,0 708,0 708,-30"/>
<text text-anchor="start" x="600" y="-18" font-family="Helvetica,sans-Serif" font-size="10.00">src/net/proxy/events</text>
<text text-anchor="middle" x="650" y="-7" font-family="Helvetica,sans-Serif" font-size="10.00">_bootstrap.c</text>
</a>
</g>
</g>
<!-- Node2&#45;&gt;Node7 -->
<g id="edge6_Node000002_Node000007" class="edge">
<title>Node2&#45;&gt;Node7</title>
<g id="a_edge6_Node000002_Node000007"><a xlink:title=" ">
<path fill="none" stroke="#63b8ff" d="M1331.83,-78.06C1209.76,-73.83 941.15,-61.5 717,-30 714.06,-29.59 711.05,-29.12 708.02,-28.62"/>
<polygon fill="#63b8ff" stroke="#63b8ff" points="1332.01,-81.57 1342.12,-78.41 1332.25,-74.57 1332.01,-81.57"/>
</a>
</g>
</g>
<!-- Node8 -->
<g id="Node000008" class="node">
<title>Node8</title>
<g id="a_Node000008"><a xlink:href="events__read_8c.html" target="_top" xlink:title=" ">
<polygon fill="white" stroke="#666666" points="842,-30 726,-30 726,0 842,0 842,-30"/>
<text text-anchor="start" x="734" y="-18" font-family="Helvetica,sans-Serif" font-size="10.00">src/net/proxy/events</text>
<text text-anchor="middle" x="784" y="-7" font-family="Helvetica,sans-Serif" font-size="10.00">_read.c</text>
</a>
</g>
</g>
<!-- Node2&#45;&gt;Node8 -->
<g id="edge7_Node000002_Node000008" class="edge">
<title>Node2&#45;&gt;Node8</title>
<g id="a_edge7_Node000002_Node000008"><a xlink:title=" ">
<path fill="none" stroke="#63b8ff" d="M1331.98,-76.42C1228.87,-70.28 1023.56,-55.83 851,-30 848.06,-29.56 845.06,-29.07 842.03,-28.55"/>
<polygon fill="#63b8ff" stroke="#63b8ff" points="1332.04,-79.93 1342.23,-77.02 1332.45,-72.94 1332.04,-79.93"/>
</a>
</g>
</g>
<!-- Node9 -->
<g id="Node000009" class="node">
<title>Node9</title>
<g id="a_Node000009"><a xlink:href="events__splice_8c.html" target="_top" xlink:title=" ">
<polygon fill="white" stroke="#666666" points="976,-30 860,-30 860,0 976,0 976,-30"/>
<text text-anchor="start" x="868" y="-18" font-family="Helvetica,sans-Serif" font-size="10.00">src/net/proxy/events</text>
<text text-anchor="middle" x="918" y="-7" font-family="Helvetica,sans-Serif" font-size="10.00">_splice.c</text>
</a>
</g>
</g>
<!-- Node2&#45;&gt;Node9 -->
<g id="edge8_Node000002_Node000009" class="edge">
<title>Node2&#45;&gt;Node9</title>
<g id="a_edge8_Node000002_Node000009"><a xlink:title=" ">
<path fill="none" stroke="#63b8ff" d="M1332.2,-73.79C1250.5,-65.67 1106.99,-50.09 985,-30 982.07,-29.52 979.07,-29 976.05,-28.45"/>
<polygon fill="#63b8ff" stroke="#63b8ff" points="1332.05,-77.29 1342.34,-74.79 1332.73,-70.32 1332.05,-77.29"/>
</a>
</g>
</g>
<!-- Node10 -->
<g id="Node000010" class="node">
<title>Node10</title>
<g id="a_Node000010"><a xlink:href="events__write_8c.html" target="_top" xlink:title=" ">
<polygon fill="white" stroke="#666666" points="1110,-30 994,-30 994,0 1110,0 1110,-30"/>
<text text-anchor="start" x="1002" y="-18" font-family="Helvetica,sans-Serif" font-size="10.00">src/net/proxy/events</text>
<text text-anchor="middle" x="1052" y="-7" font-family="Helvetica,sans-Serif" font-size="10.00">_write.c</text>
</a>
</g>
</g>
<!-- Node2&#45;&gt;Node10 -->
<g id="edge9_Node000002_Node000010" class="edge">
<title>Node2&#45;&gt;Node10</title>
<g id="a_edge9_Node000002_Node000010"><a xlink:title=" ">
<path fill="none" stroke="#63b8ff" d="M1332.44,-68.8C1275.84,-58.99 1191.92,-44.15 1119,-30 1116.08,-29.43 1113.1,-28.85 1110.08,-28.24"/>
<polygon fill="#63b8ff" stroke="#63b8ff" points="1331.88,-72.25 1342.33,-70.51 1333.07,-65.35 1331.88,-72.25"/>
</a>
</g>
</g>
<!-- Node11 -->
<g id="Node000011" class="node">
<title>Node11</title>
<g id="a_Node000011"><a xlink:href="forward__relay__audit_8c.html" target="_top" xlink:title=" ">
<polygon fill="white" stroke="#666666" points="1249.5,-30 1128.5,-30 1128.5,0 1249.5,0 1249.5,-30"/>
<text text-anchor="start" x="1136.5" y="-18" font-family="Helvetica,sans-Serif" font-size="10.00">src/net/proxy/forward</text>
<text text-anchor="middle" x="1189" y="-7" font-family="Helvetica,sans-Serif" font-size="10.00">_relay_audit.c</text>
</a>
</g>
</g>
<!-- Node2&#45;&gt;Node11 -->
<g id="edge10_Node000002_Node000011" class="edge">
<title>Node2&#45;&gt;Node11</title>
<g id="a_edge10_Node000002_Node000011"><a xlink:title=" ">
<path fill="none" stroke="#63b8ff" d="M1342.45,-62.99C1308.82,-52.69 1266.45,-39.72 1234.76,-30.01"/>
<polygon fill="#63b8ff" stroke="#63b8ff" points="1341.55,-66.37 1352.13,-65.95 1343.6,-59.68 1341.55,-66.37"/>
</a>
</g>
</g>
<!-- Node12 -->
<g id="Node000012" class="node">
<title>Node12</title>
<g id="a_Node000012"><a xlink:href="forward__relay__dispatch_8c.html" target="_top" xlink:title=" ">
<polygon fill="white" stroke="#666666" points="1388.5,-30 1267.5,-30 1267.5,0 1388.5,0 1388.5,-30"/>
<text text-anchor="start" x="1275.5" y="-18" font-family="Helvetica,sans-Serif" font-size="10.00">src/net/proxy/forward</text>
<text text-anchor="middle" x="1328" y="-7" font-family="Helvetica,sans-Serif" font-size="10.00">_relay_dispatch.c</text>
</a>
</g>
</g>
<!-- Node2&#45;&gt;Node12 -->
<g id="edge11_Node000002_Node000012" class="edge">
<title>Node2&#45;&gt;Node12</title>
<g id="a_edge11_Node000002_Node000012"><a xlink:title=" ">
<path fill="none" stroke="#63b8ff" d="M1374.95,-58.92C1364.63,-49.49 1352.73,-38.61 1343.49,-30.16"/>
<polygon fill="#63b8ff" stroke="#63b8ff" points="1372.72,-61.63 1382.46,-65.8 1377.45,-56.47 1372.72,-61.63"/>
</a>
</g>
</g>
<!-- Node13 -->
<g id="Node000013" class="node">
<title>Node13</title>
<g id="a_Node000013"><a xlink:href="forward__relay__response_8c.html" target="_top" xlink:title=" ">
<polygon fill="white" stroke="#666666" points="1527.5,-30 1406.5,-30 1406.5,0 1527.5,0 1527.5,-30"/>
<text text-anchor="start" x="1414.5" y="-18" font-family="Helvetica,sans-Serif" font-size="10.00">src/net/proxy/forward</text>
<text text-anchor="middle" x="1467" y="-7" font-family="Helvetica,sans-Serif" font-size="10.00">_relay_response.c</text>
</a>
</g>
</g>
<!-- Node2&#45;&gt;Node13 -->
<g id="edge12_Node000002_Node000013" class="edge">
<title>Node2&#45;&gt;Node13</title>
<g id="a_edge12_Node000002_Node000013"><a xlink:title=" ">
<path fill="none" stroke="#63b8ff" d="M1420.72,-58.92C1430.9,-49.49 1442.63,-38.61 1451.73,-30.16"/>
<polygon fill="#63b8ff" stroke="#63b8ff" points="1418.26,-56.43 1413.31,-65.8 1423.03,-61.56 1418.26,-56.43"/>
</a>
</g>
</g>
<!-- Node14 -->
<g id="Node000014" class="node">
<title>Node14</title>
<g id="a_Node000014"><a xlink:href="forward__request_8c.html" target="_top" xlink:title=" ">
<polygon fill="white" stroke="#666666" points="1666.5,-30 1545.5,-30 1545.5,0 1666.5,0 1666.5,-30"/>
<text text-anchor="start" x="1553.5" y="-18" font-family="Helvetica,sans-Serif" font-size="10.00">src/net/proxy/forward</text>
<text text-anchor="middle" x="1606" y="-7" font-family="Helvetica,sans-Serif" font-size="10.00">_request.c</text>
</a>
</g>
</g>
<!-- Node2&#45;&gt;Node14 -->
<g id="edge13_Node000002_Node000014" class="edge">
<title>Node2&#45;&gt;Node14</title>
<g id="a_edge13_Node000002_Node000014"><a xlink:title=" ">
<path fill="none" stroke="#63b8ff" d="M1453.29,-62.99C1486.75,-52.69 1528.92,-39.72 1560.46,-30.01"/>
<polygon fill="#63b8ff" stroke="#63b8ff" points="1452.17,-59.67 1443.65,-65.95 1454.23,-66.36 1452.17,-59.67"/>
</a>
</g>
</g>
<!-- Node15 -->
<g id="Node000015" class="node">
<title>Node15</title>
<g id="a_Node000015"><a xlink:href="forward__rewrite__helpers_8c.html" target="_top" xlink:title=" ">
<polygon fill="white" stroke="#666666" points="1805.5,-30 1684.5,-30 1684.5,0 1805.5,0 1805.5,-30"/>
<text text-anchor="start" x="1692.5" y="-18" font-family="Helvetica,sans-Serif" font-size="10.00">src/net/proxy/forward</text>
<text text-anchor="middle" x="1745" y="-7" font-family="Helvetica,sans-Serif" font-size="10.00">_rewrite_helpers.c</text>
</a>
</g>
</g>
<!-- Node2&#45;&gt;Node15 -->
<g id="edge14_Node000002_Node000015" class="edge">
<title>Node2&#45;&gt;Node15</title>
<g id="a_edge14_Node000002_Node000015"><a xlink:title=" ">
<path fill="none" stroke="#63b8ff" d="M1463.67,-68.5C1519.84,-58.59 1602.8,-43.73 1675,-30 1678.04,-29.42 1681.16,-28.82 1684.31,-28.21"/>
<polygon fill="#63b8ff" stroke="#63b8ff" points="1462.74,-65.11 1453.5,-70.3 1463.96,-72.01 1462.74,-65.11"/>
</a>
</g>
</g>
<!-- Node16 -->
<g id="Node000016" class="node">
<title>Node16</title>
<g id="a_Node000016"><a xlink:href="forward__session__helpers_8c.html" target="_top" xlink:title=" ">
<polygon fill="white" stroke="#666666" points="1944.5,-30 1823.5,-30 1823.5,0 1944.5,0 1944.5,-30"/>
<text text-anchor="start" x="1831.5" y="-18" font-family="Helvetica,sans-Serif" font-size="10.00">src/net/proxy/forward</text>
<text text-anchor="middle" x="1884" y="-7" font-family="Helvetica,sans-Serif" font-size="10.00">_session_helpers.c</text>
</a>
</g>
</g>
<!-- Node2&#45;&gt;Node16 -->
<g id="edge15_Node000002_Node000016" class="edge">
<title>Node2&#45;&gt;Node16</title>
<g id="a_edge15_Node000002_Node000016"><a xlink:title=" ">
<path fill="none" stroke="#63b8ff" d="M1463.9,-73.68C1546.12,-65.42 1690.87,-49.68 1814,-30 1817.06,-29.51 1820.19,-28.98 1823.35,-28.43"/>
<polygon fill="#63b8ff" stroke="#63b8ff" points="1463.31,-70.22 1453.7,-74.7 1464,-77.19 1463.31,-70.22"/>
</a>
</g>
</g>
<!-- Node17 -->
<g id="Node000017" class="node">
<title>Node17</title>
<g id="a_Node000017"><a xlink:href="gsi__upstream__login_8c.html" target="_top" xlink:title=" ">
<polygon fill="white" stroke="#666666" points="2111.5,-30 1962.5,-30 1962.5,0 2111.5,0 2111.5,-30"/>
<text text-anchor="start" x="1970.5" y="-18" font-family="Helvetica,sans-Serif" font-size="10.00">src/net/proxy/gsi_upstream</text>
<text text-anchor="middle" x="2037" y="-7" font-family="Helvetica,sans-Serif" font-size="10.00">_login.c</text>
</a>
</g>
</g>
<!-- Node2&#45;&gt;Node17 -->
<g id="edge16_Node000002_Node000017" class="edge">
<title>Node2&#45;&gt;Node17</title>
<g id="a_edge16_Node000002_Node000017"><a xlink:title=" ">
<path fill="none" stroke="#63b8ff" d="M1463.73,-75.69C1567.8,-68.5 1776.79,-52.59 1953,-30 1956.08,-29.61 1959.22,-29.18 1962.39,-28.73"/>
<polygon fill="#63b8ff" stroke="#63b8ff" points="1463.42,-72.2 1453.69,-76.38 1463.9,-79.18 1463.42,-72.2"/>
</a>
</g>
</g>
<!-- Node18 -->
<g id="Node000018" class="node">
<title>Node18</title>
<g id="a_Node000018"><a xlink:href="src_2net_2proxy_2pool_8c.html" target="_top" xlink:title=" ">
<polygon fill="white" stroke="#666666" points="2242.5,-24.5 2129.5,-24.5 2129.5,-5.5 2242.5,-5.5 2242.5,-24.5"/>
<text text-anchor="middle" x="2186" y="-12.5" font-family="Helvetica,sans-Serif" font-size="10.00">src/net/proxy/pool.c</text>
</a>
</g>
</g>
<!-- Node2&#45;&gt;Node18 -->
<g id="edge17_Node000002_Node000018" class="edge">
<title>Node2&#45;&gt;Node18</title>
<g id="a_edge17_Node000002_Node000018"><a xlink:title=" ">
<path fill="none" stroke="#63b8ff" d="M1463.88,-78.52C1591.21,-74.97 1879.75,-63.63 2120,-30 2129.86,-28.62 2140.45,-26.61 2150.19,-24.55"/>
<polygon fill="#63b8ff" stroke="#63b8ff" points="1463.43,-75.03 1453.53,-78.8 1463.62,-82.03 1463.43,-75.03"/>
</a>
</g>
</g>
<!-- Node19 -->
<g id="Node000019" class="node">
<title>Node19</title>
<g id="a_Node000019"><a xlink:href="protocols_2root_2session_2lifecycle_8c.html" target="_top" xlink:title=" ">
<polygon fill="white" stroke="#666666" points="2369.5,-30 2260.5,-30 2260.5,0 2369.5,0 2369.5,-30"/>
<text text-anchor="start" x="2268.5" y="-18" font-family="Helvetica,sans-Serif" font-size="10.00">src/protocols/root</text>
<text text-anchor="middle" x="2315" y="-7" font-family="Helvetica,sans-Serif" font-size="10.00">/session/lifecycle.c</text>
</a>
</g>
</g>
<!-- Node2&#45;&gt;Node19 -->
<g id="edge18_Node000002_Node000019" class="edge">
<title>Node2&#45;&gt;Node19</title>
<g id="a_edge18_Node000002_Node000019"><a xlink:title=" ">
<path fill="none" stroke="#63b8ff" d="M1464.08,-79.65C1607.86,-78.1 1959.61,-70.16 2251,-30 2254.04,-29.58 2257.15,-29.09 2260.29,-28.56"/>
<polygon fill="#63b8ff" stroke="#63b8ff" points="1463.64,-76.15 1453.68,-79.75 1463.72,-83.15 1463.64,-76.15"/>
</a>
</g>
</g>
<!-- Node20 -->
<g id="Node000020" class="node">
<title>Node20</title>
<g id="a_Node000020"><a xlink:href="protocols_2root_2stream_2module_8c.html" target="_top" xlink:title=" ">
<polygon fill="white" stroke="#666666" points="2490,-30 2388,-30 2388,0 2490,0 2490,-30"/>
<text text-anchor="start" x="2396" y="-18" font-family="Helvetica,sans-Serif" font-size="10.00">src/protocols/root</text>
<text text-anchor="middle" x="2439" y="-7" font-family="Helvetica,sans-Serif" font-size="10.00">/stream/module.c</text>
</a>
</g>
</g>
<!-- Node2&#45;&gt;Node20 -->
<g id="edge19_Node000002_Node000020" class="edge">
<title>Node2&#45;&gt;Node20</title>
<g id="a_edge19_Node000002_Node000020"><a xlink:title=" ">
<path fill="none" stroke="#63b8ff" d="M1463.62,-80.59C1621.78,-81.16 2036.23,-77.57 2378,-30 2381.23,-29.55 2384.54,-29.01 2387.87,-28.42"/>
<polygon fill="#63b8ff" stroke="#63b8ff" points="1463.59,-77.09 1453.58,-80.55 1463.56,-84.09 1463.59,-77.09"/>
</a>
</g>
</g>
<!-- Node21 -->
<g id="Node000021" class="node">
<title>Node21</title>
<g id="a_Node000021"><a xlink:href="module__definition_8c.html" target="_top" xlink:title=" ">
<polygon fill="white" stroke="#666666" points="2661.5,-30 2508.5,-30 2508.5,0 2661.5,0 2661.5,-30"/>
<text text-anchor="start" x="2516.5" y="-18" font-family="Helvetica,sans-Serif" font-size="10.00">src/protocols/root</text>
<text text-anchor="middle" x="2585" y="-7" font-family="Helvetica,sans-Serif" font-size="10.00">/stream/module_definition.c</text>
</a>
</g>
</g>
<!-- Node2&#45;&gt;Node21 -->
<g id="edge20_Node000002_Node000021" class="edge">
<title>Node2&#45;&gt;Node21</title>
<g id="a_edge20_Node000002_Node000021"><a xlink:title=" ">
<path fill="none" stroke="#63b8ff" d="M1463.84,-79.67C1635,-78.23 2107.79,-70.59 2499,-30 2502.01,-29.69 2505.07,-29.34 2508.17,-28.96"/>
<polygon fill="#63b8ff" stroke="#63b8ff" points="1463.71,-76.17 1453.73,-79.75 1463.76,-83.17 1463.71,-76.17"/>
</a>
</g>
</g>
<!-- Node27&#45;&gt;Node26 -->
<g id="edge27_Node000027_Node000026" class="edge">
<title>Node27&#45;&gt;Node26</title>
<g id="a_edge27_Node000027_Node000026"><a xlink:title=" ">
<path fill="none" stroke="#63b8ff" d="M2757.07,-57.24C2751.14,-48.21 2744.51,-38.11 2739.3,-30.16"/>
<polygon fill="#63b8ff" stroke="#63b8ff" points="2754.27,-59.36 2762.68,-65.8 2760.12,-55.52 2754.27,-59.36"/>
</a>
</g>
</g>
<!-- Node28 -->
<g id="Node000028" class="node">
<title>Node28</title>
<g id="a_Node000028"><a xlink:href="relay__guard_8c.html" target="_top" xlink:title=" ">
<polygon fill="white" stroke="#666666" points="2911.5,-30 2798.5,-30 2798.5,0 2911.5,0 2911.5,-30"/>
<text text-anchor="start" x="2806.5" y="-18" font-family="Helvetica,sans-Serif" font-size="10.00">src/protocols/root</text>
<text text-anchor="middle" x="2855" y="-7" font-family="Helvetica,sans-Serif" font-size="10.00">/relay/relay_guard.c</text>
</a>
</g>
</g>
<!-- Node27&#45;&gt;Node28 -->
<g id="edge28_Node000027_Node000028" class="edge">
<title>Node27&#45;&gt;Node28</title>
<g id="a_edge28_Node000027_Node000028"><a xlink:title=" ">
<path fill="none" stroke="#63b8ff" d="M2798.61,-59.48C2811.02,-49.91 2825.47,-38.77 2836.63,-30.16"/>
<polygon fill="#63b8ff" stroke="#63b8ff" points="2796.2,-56.92 2790.42,-65.8 2800.48,-62.46 2796.2,-56.92"/>
</a>
</g>
</g>
</g>
</svg>

<g id="navigator" transform="translate(0 0)" fill="#404254">
  <rect fill="#f2f5e9" fill-opacity="0.5" stroke="#606060" stroke-width=".5" x="0" y="0" width="60" height="60"/>
  <use id="zoomplus" xlink:href="#zoomPlus" x="17" y="9" onmousedown="handleZoom(evt,'in')"/>
  <use id="zoomminus" xlink:href="#zoomMin" x="42" y="9" onmousedown="handleZoom(evt,'out')"/>
  <use id="reset" xlink:href="#resetDef" x="30" y="36" onmousedown="handleReset()"/>
   <use id="arrowup" xlink:href="#arrowUp" x="0" y="0" onmousedown="handlePan(0,-1)"/>
  <use id="arrowright" xlink:href="#arrowRight" x="0" y="0" onmousedown="handlePan(1,0)"/>
  <use id="arrowdown" xlink:href="#arrowDown" x="0" y="0" onmousedown="handlePan(0,1)"/>
  <use id="arrowleft" xlink:href="#arrowLeft" x="0" y="0" onmousedown="handlePan(-1,0)"/>
</g>
<svg viewBox="0 0 15 15" width="100%" height="30px" preserveAspectRatio="xMaxYMin meet">
 <g id="arrow_out" transform="scale(0.3 0.3)">
  <a xlink:href="tap_8h__dep__incl_org.svg" target="_base">
   <rect id="button" ry="5" rx="5" y="6" x="6" height="38" width="38"
        fill="#f2f5e9" fill-opacity="0.5" stroke="#606060" stroke-width="1.0"/>
   <path id="arrow"
     d="M 11.500037,31.436501 C 11.940474,20.09759 22.043105,11.32322 32.158766,21.979434 L 37.068811,17.246167 C 37.068811,17.246167 37.088388,32 37.088388,32 L 22.160133,31.978069 C 22.160133,31.978069 26.997745,27.140456 26.997745,27.140456 C 18.528582,18.264221 13.291696,25.230495 11.500037,31.436501 z"
     style="fill:#404040;"/>
  </a>
 </g>
</svg>

<style type='text/css'>
<![CDATA[
[data-mouse-over-selected='false'] { opacity: 0.7; }
[data-mouse-over-selected='true']  { opacity: 1.0; }
]]>
</style>
<script type="application/ecmascript"><![CDATA[
document.addEventListener('DOMContentLoaded', (event) => {
  highlightEdges();
  highlightAdjacentNodes();
});
]]></script>
</svg>
