<?xml version="1.0" encoding="UTF-8" standalone="no"?>
<!DOCTYPE svg PUBLIC "-//W3C//DTD SVG 1.1//EN"
 "http://www.w3.org/Graphics/SVG/1.1/DTD/svg11.dtd">
<!-- Generated by graphviz version 2.43.0 (0)
 -->
<!-- Title: src/core/compat/tmp_path.h Pages: 1 -->
<!--zoomable 115 -->

<svg id="main" version="1.1" xmlns="http://www.w3.org/2000/svg" xmlns:xlink="http://www.w3.org/1999/xlink" xml:space="preserve" onload="init(evt)">
<style type="text/css"><![CDATA[
.node, .edge {opacity: 0.7;}
.node.selected, .edge.selected {opacity: 1;}
.edge:hover path { stroke: red; }
.edge:hover polygon { stroke: red; fill: red; }
]]></style>

<defs>
  <circle id="rim" cx="0" cy="0" r="7"/>
  <circle id="rim2" cx="0" cy="0" r="3.5"/>
  <g id="zoomPlus">
    <use xlink:href="#rim" fill="#404040"><set attributeName="fill" to="#808080" begin="zoomplus.mouseover" end="zoomplus.mouseout"/></use>
    <path d="M-4,0h8M0,-4v8" fill="none" stroke="white" stroke-width="1.5" pointer-events="none"/>
  </g>
  <g id="zoomMin">
    <use xlink:href="#rim" fill="#404040"><set attributeName="fill" to="#808080" begin="zoomminus.mouseover" end="zoomminus.mouseout"/></use>
    <path d="M-4,0h8" fill="none" stroke="white" stroke-width="1.5" pointer-events="none"/>
  </g>
  <g id="arrowUp" transform="translate(30 24)">
    <use xlink:href="#rim"/>
    <path pointer-events="none" fill="none" stroke="white" stroke-width="1.5" d="M0,-3.0v7 M-2.5,-0.5L0,-3.0L2.5,-0.5"/>
  </g>
  <g id="arrowRight" transform="rotate(90) translate(36 -43)">
    <use xlink:href="#rim"/>
    <path pointer-events="none" fill="none" stroke="white" stroke-width="1.5" d="M0,-3.0v7 M-2.5,-0.5L0,-3.0L2.5,-0.5"/>
  </g>
  <g id="arrowDown" transform="rotate(180) translate(-30 -48)">
    <use xlink:href="#rim"/>
    <path pointer-events="none" fill="none" stroke="white" stroke-width="1.5" d="M0,-3.0v7 M-2.5,-0.5L0,-3.0L2.5,-0.5"/>
  </g>
  <g id="arrowLeft" transform="rotate(270) translate(-36 17)">
    <use xlink:href="#rim"/>
    <path pointer-events="none" fill="none" stroke="white" stroke-width="1.5" d="M0,-3.0v7 M-2.5,-0.5L0,-3.0L2.5,-0.5"/>
  </g>
  <g id="resetDef">
    <use xlink:href="#rim2" fill="#404040"><set attributeName="fill" to="#808080" begin="reset.mouseover" end="reset.mouseout"/></use>
  </g>
</defs>
<script type="application/ecmascript">
var viewWidth = 2857;
var viewHeight = 115;
var sectionId = 'dynsection-1';
</script>
<script type="application/ecmascript" xlink:href="svg.min.js"/>
<svg id="graph" class="graph">
<g id="viewport">
<title>src/core/compat/tmp_path.h</title>
<!-- Node1 -->
<g id="Node000001" class="node">
<title>Node1</title>
<g id="a_Node000001"><a xlink:title=" ">
<polygon fill="#999999" stroke="#666666" points="1513,-107 1396,-107 1396,-77 1513,-77 1513,-107"/>
<text text-anchor="start" x="1404" y="-95" font-family="Helvetica,sans-Serif" font-size="10.00">src/core/compat/tmp</text>
<text text-anchor="middle" x="1454.5" y="-84" font-family="Helvetica,sans-Serif" font-size="10.00">_path.h</text>
</a>
</g>
</g>
<!-- Node2 -->
<g id="Node000002" class="node">
<title>Node2</title>
<g id="a_Node000002"><a xlink:href="staged__file_8c.html" target="_top" xlink:title=" ">
<polygon fill="white" stroke="#666666" points="131,-35.5 0,-35.5 0,-5.5 131,-5.5 131,-35.5"/>
<text text-anchor="start" x="8" y="-23.5" font-family="Helvetica,sans-Serif" font-size="10.00">src/core/compat/staged</text>
<text text-anchor="middle" x="65.5" y="-12.5" font-family="Helvetica,sans-Serif" font-size="10.00">_file.c</text>
</a>
</g>
</g>
<!-- Node1&#45;&gt;Node2 -->
<g id="edge1_Node000001_Node000002" class="edge">
<title>Node1&#45;&gt;Node2</title>
<g id="a_edge1_Node000001_Node000002"><a xlink:title=" ">
<path fill="none" stroke="#63b8ff" d="M1385.82,-90.38C1151.33,-87.94 383.45,-77.33 139.5,-41 130.7,-39.69 121.43,-37.73 112.55,-35.55"/>
<polygon fill="#63b8ff" stroke="#63b8ff" points="1385.88,-93.88 1395.92,-90.48 1385.95,-86.88 1385.88,-93.88"/>
</a>
</g>
</g>
<!-- Node3 -->
<g id="Node000003" class="node">
<title>Node3</title>
<g id="a_Node000003"><a xlink:href="staged__file__commit_8c.html" target="_top" xlink:title=" ">
<polygon fill="white" stroke="#666666" points="280,-35.5 149,-35.5 149,-5.5 280,-5.5 280,-35.5"/>
<text text-anchor="start" x="157" y="-23.5" font-family="Helvetica,sans-Serif" font-size="10.00">src/core/compat/staged</text>
<text text-anchor="middle" x="214.5" y="-12.5" font-family="Helvetica,sans-Serif" font-size="10.00">_file_commit.c</text>
</a>
</g>
</g>
<!-- Node1&#45;&gt;Node3 -->
<g id="edge2_Node000001_Node000003" class="edge">
<title>Node1&#45;&gt;Node3</title>
<g id="a_edge2_Node000001_Node000003"><a xlink:title=" ">
<path fill="none" stroke="#63b8ff" d="M1385.71,-89.99C1168.98,-86.5 502.11,-73.34 288.5,-41 279.7,-39.67 270.44,-37.7 261.56,-35.51"/>
<polygon fill="#63b8ff" stroke="#63b8ff" points="1385.93,-93.49 1395.99,-90.15 1386.04,-86.49 1385.93,-93.49"/>
</a>
</g>
</g>
<!-- Node4 -->
<g id="Node000004" class="node">
<title>Node4</title>
<g id="a_Node000004"><a xlink:href="tmp__path_8c.html" target="_top" xlink:title=" ">
<polygon fill="white" stroke="#666666" points="415,-35.5 298,-35.5 298,-5.5 415,-5.5 415,-35.5"/>
<text text-anchor="start" x="306" y="-23.5" font-family="Helvetica,sans-Serif" font-size="10.00">src/core/compat/tmp</text>
<text text-anchor="middle" x="356.5" y="-12.5" font-family="Helvetica,sans-Serif" font-size="10.00">_path.c</text>
</a>
</g>
</g>
<!-- Node1&#45;&gt;Node4 -->
<g id="edge3_Node000001_Node000004" class="edge">
<title>Node1&#45;&gt;Node4</title>
<g id="a_edge3_Node000001_Node000004"><a xlink:title=" ">
<path fill="none" stroke="#63b8ff" d="M1385.63,-89.73C1186.13,-85.71 610.27,-71.72 424.5,-41 416.5,-39.68 408.11,-37.74 400.06,-35.59"/>
<polygon fill="#63b8ff" stroke="#63b8ff" points="1385.62,-93.23 1395.69,-89.93 1385.76,-86.23 1385.62,-93.23"/>
</a>
</g>
</g>
<!-- Node5 -->
<g id="Node000005" class="node">
<title>Node5</title>
<g id="a_Node000005"><a xlink:href="process_8c.html" target="_top" xlink:title=" ">
<polygon fill="white" stroke="#666666" points="569.5,-30 433.5,-30 433.5,-11 569.5,-11 569.5,-30"/>
<text text-anchor="middle" x="501.5" y="-18" font-family="Helvetica,sans-Serif" font-size="10.00">src/core/config/process.c</text>
</a>
</g>
</g>
<!-- Node1&#45;&gt;Node5 -->
<g id="edge4_Node000001_Node000005" class="edge">
<title>Node1&#45;&gt;Node5</title>
<g id="a_edge4_Node000001_Node000005"><a xlink:title=" ">
<path fill="none" stroke="#63b8ff" d="M1385.61,-91.52C1237.16,-91.67 876.43,-86.8 578.5,-41 562.14,-38.49 544.2,-34.04 529.76,-30.03"/>
<polygon fill="#63b8ff" stroke="#63b8ff" points="1385.93,-95.02 1395.92,-91.5 1385.92,-88.02 1385.93,-95.02"/>
</a>
</g>
</g>
<!-- Node6 -->
<g id="Node000006" class="node">
<title>Node6</title>
<g id="a_Node000006"><a xlink:href="runtime__server_8c.html" target="_top" xlink:title=" ">
<polygon fill="white" stroke="#666666" points="715.5,-35.5 587.5,-35.5 587.5,-5.5 715.5,-5.5 715.5,-35.5"/>
<text text-anchor="start" x="595.5" y="-23.5" font-family="Helvetica,sans-Serif" font-size="10.00">src/core/config/runtime</text>
<text text-anchor="middle" x="651.5" y="-12.5" font-family="Helvetica,sans-Serif" font-size="10.00">_server.c</text>
</a>
</g>
</g>
<!-- Node1&#45;&gt;Node6 -->
<g id="edge5_Node000001_Node000006" class="edge">
<title>Node1&#45;&gt;Node6</title>
<g id="a_edge5_Node000001_Node000006"><a xlink:title=" ">
<path fill="none" stroke="#63b8ff" d="M1385.65,-90.69C1255.57,-89.12 965.16,-81 724.5,-41 716.09,-39.6 707.24,-37.66 698.72,-35.53"/>
<polygon fill="#63b8ff" stroke="#63b8ff" points="1385.82,-94.19 1395.86,-90.8 1385.9,-87.19 1385.82,-94.19"/>
</a>
</g>
</g>
<!-- Node7 -->
<g id="Node000007" class="node">
<title>Node7</title>
<g id="a_Node000007"><a xlink:href="runtime__server__backend_8c.html" target="_top" xlink:title=" ">
<polygon fill="white" stroke="#666666" points="861.5,-35.5 733.5,-35.5 733.5,-5.5 861.5,-5.5 861.5,-35.5"/>
<text text-anchor="start" x="741.5" y="-23.5" font-family="Helvetica,sans-Serif" font-size="10.00">src/core/config/runtime</text>
<text text-anchor="middle" x="797.5" y="-12.5" font-family="Helvetica,sans-Serif" font-size="10.00">_server_backend.c</text>
</a>
</g>
</g>
<!-- Node1&#45;&gt;Node7 -->
<g id="edge6_Node000001_Node000007" class="edge">
<title>Node1&#45;&gt;Node7</title>
<g id="a_edge6_Node000001_Node000007"><a xlink:title=" ">
<path fill="none" stroke="#63b8ff" d="M1385.34,-89.01C1275.51,-84.96 1054.76,-73.24 870.5,-41 862.23,-39.55 853.53,-37.61 845.14,-35.51"/>
<polygon fill="#63b8ff" stroke="#63b8ff" points="1385.5,-92.51 1395.62,-89.37 1385.75,-85.52 1385.5,-92.51"/>
</a>
</g>
</g>
<!-- Node8 -->
<g id="Node000008" class="node">
<title>Node8</title>
<g id="a_Node000008"><a xlink:href="runtime__server__backend__cache_8c.html" target="_top" xlink:title=" ">
<polygon fill="white" stroke="#666666" points="1019.5,-35.5 879.5,-35.5 879.5,-5.5 1019.5,-5.5 1019.5,-35.5"/>
<text text-anchor="start" x="887.5" y="-23.5" font-family="Helvetica,sans-Serif" font-size="10.00">src/core/config/runtime</text>
<text text-anchor="middle" x="949.5" y="-12.5" font-family="Helvetica,sans-Serif" font-size="10.00">_server_backend_cache.c</text>
</a>
</g>
</g>
<!-- Node1&#45;&gt;Node8 -->
<g id="edge7_Node000001_Node000008" class="edge">
<title>Node1&#45;&gt;Node8</title>
<g id="a_edge7_Node000001_Node000008"><a xlink:title=" ">
<path fill="none" stroke="#63b8ff" d="M1385.95,-85.61C1301.44,-78.37 1153.65,-63.7 1028.5,-41 1020.02,-39.46 1011.1,-37.55 1002.42,-35.53"/>
<polygon fill="#63b8ff" stroke="#63b8ff" points="1385.67,-89.1 1395.93,-86.46 1386.26,-82.13 1385.67,-89.1"/>
</a>
</g>
</g>
<!-- Node9 -->
<g id="Node000009" class="node">
<title>Node9</title>
<g id="a_Node000009"><a xlink:href="runtime__server__backend__stage_8c.html" target="_top" xlink:title=" ">
<polygon fill="white" stroke="#666666" points="1177,-35.5 1038,-35.5 1038,-5.5 1177,-5.5 1177,-35.5"/>
<text text-anchor="start" x="1046" y="-23.5" font-family="Helvetica,sans-Serif" font-size="10.00">src/core/config/runtime</text>
<text text-anchor="middle" x="1107.5" y="-12.5" font-family="Helvetica,sans-Serif" font-size="10.00">_server_backend_stage.c</text>
</a>
</g>
</g>
<!-- Node1&#45;&gt;Node9 -->
<g id="edge8_Node000001_Node000009" class="edge">
<title>Node1&#45;&gt;Node9</title>
<g id="a_edge8_Node000001_Node000009"><a xlink:title=" ">
<path fill="none" stroke="#63b8ff" d="M1385.9,-79.32C1331.62,-69.81 1254,-55.61 1186.5,-41 1178.77,-39.33 1170.64,-37.45 1162.66,-35.54"/>
<polygon fill="#63b8ff" stroke="#63b8ff" points="1385.3,-82.77 1395.75,-81.04 1386.5,-75.87 1385.3,-82.77"/>
</a>
</g>
</g>
<!-- Node10 -->
<g id="Node000010" class="node">
<title>Node10</title>
<g id="a_Node000010"><a xlink:href="open__resolved__file_8c.html" target="_top" xlink:title=" ">
<polygon fill="white" stroke="#666666" points="1311.5,-41 1195.5,-41 1195.5,0 1311.5,0 1311.5,-41"/>
<text text-anchor="start" x="1203.5" y="-29" font-family="Helvetica,sans-Serif" font-size="10.00">src/protocols/root</text>
<text text-anchor="start" x="1203.5" y="-18" font-family="Helvetica,sans-Serif" font-size="10.00">/read/open_resolved</text>
<text text-anchor="middle" x="1253.5" y="-7" font-family="Helvetica,sans-Serif" font-size="10.00">_file.c</text>
</a>
</g>
</g>
<!-- Node1&#45;&gt;Node10 -->
<g id="edge9_Node000001_Node000010" class="edge">
<title>Node1&#45;&gt;Node10</title>
<g id="a_edge9_Node000001_Node000010"><a xlink:title=" ">
<path fill="none" stroke="#63b8ff" d="M1404.04,-73.55C1375.46,-63.67 1339.64,-51.28 1310.11,-41.07"/>
<polygon fill="#63b8ff" stroke="#63b8ff" points="1403.23,-76.98 1413.82,-76.94 1405.52,-70.36 1403.23,-76.98"/>
</a>
</g>
</g>
<!-- Node11 -->
<g id="Node000011" class="node">
<title>Node11</title>
<g id="a_Node000011"><a xlink:href="open__resolved__file__dispatch_8c.html" target="_top" xlink:title=" ">
<polygon fill="white" stroke="#666666" points="1445.5,-41 1329.5,-41 1329.5,0 1445.5,0 1445.5,-41"/>
<text text-anchor="start" x="1337.5" y="-29" font-family="Helvetica,sans-Serif" font-size="10.00">src/protocols/root</text>
<text text-anchor="start" x="1337.5" y="-18" font-family="Helvetica,sans-Serif" font-size="10.00">/read/open_resolved</text>
<text text-anchor="middle" x="1387.5" y="-7" font-family="Helvetica,sans-Serif" font-size="10.00">_file_dispatch.c</text>
</a>
</g>
</g>
<!-- Node1&#45;&gt;Node11 -->
<g id="edge10_Node000001_Node000011" class="edge">
<title>Node1&#45;&gt;Node11</title>
<g id="a_edge10_Node000001_Node000011"><a xlink:title=" ">
<path fill="none" stroke="#63b8ff" d="M1433.95,-69.69C1425.16,-60.57 1414.97,-49.99 1406.37,-41.07"/>
<polygon fill="#63b8ff" stroke="#63b8ff" points="1431.48,-72.17 1440.94,-76.94 1436.52,-67.31 1431.48,-72.17"/>
</a>
</g>
</g>
<!-- Node12 -->
<g id="Node000012" class="node">
<title>Node12</title>
<g id="a_Node000012"><a xlink:href="open__resolved__file__finalize_8c.html" target="_top" xlink:title=" ">
<polygon fill="white" stroke="#666666" points="1579.5,-41 1463.5,-41 1463.5,0 1579.5,0 1579.5,-41"/>
<text text-anchor="start" x="1471.5" y="-29" font-family="Helvetica,sans-Serif" font-size="10.00">src/protocols/root</text>
<text text-anchor="start" x="1471.5" y="-18" font-family="Helvetica,sans-Serif" font-size="10.00">/read/open_resolved</text>
<text text-anchor="middle" x="1521.5" y="-7" font-family="Helvetica,sans-Serif" font-size="10.00">_file_finalize.c</text>
</a>
</g>
</g>
<!-- Node1&#45;&gt;Node12 -->
<g id="edge11_Node000001_Node000012" class="edge">
<title>Node1&#45;&gt;Node12</title>
<g id="a_edge11_Node000001_Node000012"><a xlink:title=" ">
<path fill="none" stroke="#63b8ff" d="M1475.05,-69.69C1483.84,-60.57 1494.03,-49.99 1502.63,-41.07"/>
<polygon fill="#63b8ff" stroke="#63b8ff" points="1472.48,-67.31 1468.06,-76.94 1477.52,-72.17 1472.48,-67.31"/>
</a>
</g>
</g>
<!-- Node13 -->
<g id="Node000013" class="node">
<title>Node13</title>
<g id="a_Node000013"><a xlink:href="open__resolved__file__open_8c.html" target="_top" xlink:title=" ">
<polygon fill="white" stroke="#666666" points="1713.5,-41 1597.5,-41 1597.5,0 1713.5,0 1713.5,-41"/>
<text text-anchor="start" x="1605.5" y="-29" font-family="Helvetica,sans-Serif" font-size="10.00">src/protocols/root</text>
<text text-anchor="start" x="1605.5" y="-18" font-family="Helvetica,sans-Serif" font-size="10.00">/read/open_resolved</text>
<text text-anchor="middle" x="1655.5" y="-7" font-family="Helvetica,sans-Serif" font-size="10.00">_file_open.c</text>
</a>
</g>
</g>
<!-- Node1&#45;&gt;Node13 -->
<g id="edge12_Node000001_Node000013" class="edge">
<title>Node1&#45;&gt;Node13</title>
<g id="a_edge12_Node000001_Node000013"><a xlink:title=" ">
<path fill="none" stroke="#63b8ff" d="M1504.96,-73.55C1533.54,-63.67 1569.36,-51.28 1598.89,-41.07"/>
<polygon fill="#63b8ff" stroke="#63b8ff" points="1503.48,-70.36 1495.18,-76.94 1505.77,-76.98 1503.48,-70.36"/>
</a>
</g>
</g>
<!-- Node14 -->
<g id="Node000014" class="node">
<title>Node14</title>
<g id="a_Node000014"><a xlink:href="open__resolved__file__staging_8c.html" target="_top" xlink:title=" ">
<polygon fill="white" stroke="#666666" points="1847.5,-41 1731.5,-41 1731.5,0 1847.5,0 1847.5,-41"/>
<text text-anchor="start" x="1739.5" y="-29" font-family="Helvetica,sans-Serif" font-size="10.00">src/protocols/root</text>
<text text-anchor="start" x="1739.5" y="-18" font-family="Helvetica,sans-Serif" font-size="10.00">/read/open_resolved</text>
<text text-anchor="middle" x="1789.5" y="-7" font-family="Helvetica,sans-Serif" font-size="10.00">_file_staging.c</text>
</a>
</g>
</g>
<!-- Node1&#45;&gt;Node14 -->
<g id="edge13_Node000001_Node000014" class="edge">
<title>Node1&#45;&gt;Node14</title>
<g id="a_edge13_Node000001_Node000014"><a xlink:title=" ">
<path fill="none" stroke="#63b8ff" d="M1523.02,-80.14C1577.4,-71.05 1655.21,-57.03 1722.5,-41 1725.45,-40.3 1728.46,-39.55 1731.49,-38.76"/>
<polygon fill="#63b8ff" stroke="#63b8ff" points="1522.43,-76.68 1513.14,-81.77 1523.58,-83.59 1522.43,-76.68"/>
</a>
</g>
</g>
<!-- Node15 -->
<g id="Node000015" class="node">
<title>Node15</title>
<g id="a_Node000015"><a xlink:href="protocols_2s3_2module_8c.html" target="_top" xlink:title=" ">
<polygon fill="white" stroke="#666666" points="2007,-30 1866,-30 1866,-11 2007,-11 2007,-30"/>
<text text-anchor="middle" x="1936.5" y="-18" font-family="Helvetica,sans-Serif" font-size="10.00">src/protocols/s3/module.c</text>
</a>
</g>
</g>
<!-- Node1&#45;&gt;Node15 -->
<g id="edge14_Node000001_Node000015" class="edge">
<title>Node1&#45;&gt;Node15</title>
<g id="a_edge14_Node000001_Node000015"><a xlink:title=" ">
<path fill="none" stroke="#63b8ff" d="M1523.06,-84.9C1603.37,-77.2 1740.24,-62.33 1856.5,-41 1872.67,-38.03 1890.46,-33.8 1905.14,-30.03"/>
<polygon fill="#63b8ff" stroke="#63b8ff" points="1522.7,-81.42 1513.07,-85.85 1523.36,-88.39 1522.7,-81.42"/>
</a>
</g>
</g>
<!-- Node16 -->
<g id="Node000016" class="node">
<title>Node16</title>
<g id="a_Node000016"><a xlink:href="module__merge_8c.html" target="_top" xlink:title=" ">
<polygon fill="white" stroke="#666666" points="2158,-35.5 2025,-35.5 2025,-5.5 2158,-5.5 2158,-35.5"/>
<text text-anchor="start" x="2033" y="-23.5" font-family="Helvetica,sans-Serif" font-size="10.00">src/protocols/s3/module</text>
<text text-anchor="middle" x="2091.5" y="-12.5" font-family="Helvetica,sans-Serif" font-size="10.00">_merge.c</text>
</a>
</g>
</g>
<!-- Node1&#45;&gt;Node16 -->
<g id="edge15_Node000001_Node000016" class="edge">
<title>Node1&#45;&gt;Node16</title>
<g id="a_edge15_Node000001_Node000016"><a xlink:title=" ">
<path fill="none" stroke="#63b8ff" d="M1523.45,-88.54C1629.91,-83.92 1840.43,-71.51 2016.5,-41 2024.85,-39.55 2033.63,-37.64 2042.13,-35.57"/>
<polygon fill="#63b8ff" stroke="#63b8ff" points="1523.01,-85.06 1513.17,-88.98 1523.3,-92.05 1523.01,-85.06"/>
</a>
</g>
</g>
<!-- Node17 -->
<g id="Node000017" class="node">
<title>Node17</title>
<g id="a_Node000017"><a xlink:href="protocols_2webdav_2config_8c.html" target="_top" xlink:title=" ">
<polygon fill="white" stroke="#666666" points="2296.5,-35.5 2176.5,-35.5 2176.5,-5.5 2296.5,-5.5 2296.5,-35.5"/>
<text text-anchor="start" x="2184.5" y="-23.5" font-family="Helvetica,sans-Serif" font-size="10.00">src/protocols/webdav</text>
<text text-anchor="middle" x="2236.5" y="-12.5" font-family="Helvetica,sans-Serif" font-size="10.00">/config.c</text>
</a>
</g>
</g>
<!-- Node1&#45;&gt;Node17 -->
<g id="edge16_Node000001_Node000017" class="edge">
<title>Node1&#45;&gt;Node17</title>
<g id="a_edge16_Node000001_Node000017"><a xlink:title=" ">
<path fill="none" stroke="#63b8ff" d="M1523.26,-90.85C1651.1,-89.54 1933.63,-81.8 2167.5,-41 2175.47,-39.61 2183.84,-37.67 2191.9,-35.54"/>
<polygon fill="#63b8ff" stroke="#63b8ff" points="1523.18,-87.35 1513.22,-90.94 1523.25,-94.35 1523.18,-87.35"/>
</a>
</g>
</g>
<!-- Node18 -->
<g id="Node000018" class="node">
<title>Node18</title>
<g id="a_Node000018"><a xlink:href="config__merge_8c.html" target="_top" xlink:title=" ">
<polygon fill="white" stroke="#666666" points="2434.5,-35.5 2314.5,-35.5 2314.5,-5.5 2434.5,-5.5 2434.5,-35.5"/>
<text text-anchor="start" x="2322.5" y="-23.5" font-family="Helvetica,sans-Serif" font-size="10.00">src/protocols/webdav</text>
<text text-anchor="middle" x="2374.5" y="-12.5" font-family="Helvetica,sans-Serif" font-size="10.00">/config_merge.c</text>
</a>
</g>
</g>
<!-- Node1&#45;&gt;Node18 -->
<g id="edge17_Node000001_Node000018" class="edge">
<title>Node1&#45;&gt;Node18</title>
<g id="a_edge17_Node000001_Node000018"><a xlink:title=" ">
<path fill="none" stroke="#63b8ff" d="M1523.2,-88.89C1697.83,-83.2 2155.53,-66.29 2305.5,-41 2313.6,-39.63 2322.11,-37.68 2330.28,-35.52"/>
<polygon fill="#63b8ff" stroke="#63b8ff" points="1522.98,-85.39 1513.1,-89.21 1523.21,-92.39 1522.98,-85.39"/>
</a>
</g>
</g>
<!-- Node19 -->
<g id="Node000019" class="node">
<title>Node19</title>
<g id="a_Node000019"><a xlink:href="config__proxy_8c.html" target="_top" xlink:title=" ">
<polygon fill="white" stroke="#666666" points="2572.5,-35.5 2452.5,-35.5 2452.5,-5.5 2572.5,-5.5 2572.5,-35.5"/>
<text text-anchor="start" x="2460.5" y="-23.5" font-family="Helvetica,sans-Serif" font-size="10.00">src/protocols/webdav</text>
<text text-anchor="middle" x="2512.5" y="-12.5" font-family="Helvetica,sans-Serif" font-size="10.00">/config_proxy.c</text>
</a>
</g>
</g>
<!-- Node1&#45;&gt;Node19 -->
<g id="edge18_Node000001_Node000019" class="edge">
<title>Node1&#45;&gt;Node19</title>
<g id="a_edge18_Node000001_Node000019"><a xlink:title=" ">
<path fill="none" stroke="#63b8ff" d="M1523.29,-89.53C1717.24,-85.08 2265.9,-70.2 2443.5,-41 2451.61,-39.67 2460.12,-37.73 2468.29,-35.58"/>
<polygon fill="#63b8ff" stroke="#63b8ff" points="1523.14,-86.04 1513.22,-89.76 1523.3,-93.04 1523.14,-86.04"/>
</a>
</g>
</g>
<!-- Node20 -->
<g id="Node000020" class="node">
<title>Node20</title>
<g id="a_Node000020"><a xlink:href="src_2protocols_2webdav_2copy_8c.html" target="_top" xlink:title=" ">
<polygon fill="white" stroke="#666666" points="2710.5,-35.5 2590.5,-35.5 2590.5,-5.5 2710.5,-5.5 2710.5,-35.5"/>
<text text-anchor="start" x="2598.5" y="-23.5" font-family="Helvetica,sans-Serif" font-size="10.00">src/protocols/webdav</text>
<text text-anchor="middle" x="2650.5" y="-12.5" font-family="Helvetica,sans-Serif" font-size="10.00">/copy.c</text>
</a>
</g>
</g>
<!-- Node1&#45;&gt;Node20 -->
<g id="edge19_Node000001_Node000020" class="edge">
<title>Node1&#45;&gt;Node20</title>
<g id="a_edge19_Node000001_Node000020"><a xlink:title=" ">
<path fill="none" stroke="#63b8ff" d="M1523.21,-90.03C1735.03,-86.71 2376.04,-74.13 2581.5,-41 2589.73,-39.67 2598.38,-37.7 2606.67,-35.52"/>
<polygon fill="#63b8ff" stroke="#63b8ff" points="1523.1,-86.53 1513.15,-90.19 1523.2,-93.53 1523.1,-86.53"/>
</a>
</g>
</g>
<!-- Node21 -->
<g id="Node000021" class="node">
<title>Node21</title>
<g id="a_Node000021"><a xlink:href="copy__collection_8c.html" target="_top" xlink:title=" ">
<polygon fill="white" stroke="#666666" points="2848.5,-35.5 2728.5,-35.5 2728.5,-5.5 2848.5,-5.5 2848.5,-35.5"/>
<text text-anchor="start" x="2736.5" y="-23.5" font-family="Helvetica,sans-Serif" font-size="10.00">src/protocols/webdav</text>
<text text-anchor="middle" x="2788.5" y="-12.5" font-family="Helvetica,sans-Serif" font-size="10.00">/copy_collection.c</text>
</a>
</g>
</g>
<!-- Node1&#45;&gt;Node21 -->
<g id="edge20_Node000001_Node000021" class="edge">
<title>Node1&#45;&gt;Node21</title>
<g id="a_edge20_Node000001_Node000021"><a xlink:title=" ">
<path fill="none" stroke="#63b8ff" d="M1523.27,-90.42C1752.03,-88.14 2486.07,-78.06 2719.5,-41 2727.74,-39.69 2736.39,-37.73 2744.67,-35.55"/>
<polygon fill="#63b8ff" stroke="#63b8ff" points="1523.05,-86.92 1513.08,-90.52 1523.12,-93.92 1523.05,-86.92"/>
</a>
</g>
</g>
</g>
</svg>

<g id="navigator" transform="translate(0 0)" fill="#404254">
  <rect fill="#f2f5e9" fill-opacity="0.5" stroke="#606060" stroke-width=".5" x="0" y="0" width="60" height="60"/>
  <use id="zoomplus" xlink:href="#zoomPlus" x="17" y="9" onmousedown="handleZoom(evt,'in')"/>
  <use id="zoomminus" xlink:href="#zoomMin" x="42" y="9" onmousedown="handleZoom(evt,'out')"/>
  <use id="reset" xlink:href="#resetDef" x="30" y="36" onmousedown="handleReset()"/>
   <use id="arrowup" xlink:href="#arrowUp" x="0" y="0" onmousedown="handlePan(0,-1)"/>
  <use id="arrowright" xlink:href="#arrowRight" x="0" y="0" onmousedown="handlePan(1,0)"/>
  <use id="arrowdown" xlink:href="#arrowDown" x="0" y="0" onmousedown="handlePan(0,1)"/>
  <use id="arrowleft" xlink:href="#arrowLeft" x="0" y="0" onmousedown="handlePan(-1,0)"/>
</g>
<svg viewBox="0 0 15 15" width="100%" height="30px" preserveAspectRatio="xMaxYMin meet">
 <g id="arrow_out" transform="scale(0.3 0.3)">
  <a xlink:href="tmp__path_8h__dep__incl_org.svg" target="_base">
   <rect id="button" ry="5" rx="5" y="6" x="6" height="38" width="38"
        fill="#f2f5e9" fill-opacity="0.5" stroke="#606060" stroke-width="1.0"/>
   <path id="arrow"
     d="M 11.500037,31.436501 C 11.940474,20.09759 22.043105,11.32322 32.158766,21.979434 L 37.068811,17.246167 C 37.068811,17.246167 37.088388,32 37.088388,32 L 22.160133,31.978069 C 22.160133,31.978069 26.997745,27.140456 26.997745,27.140456 C 18.528582,18.264221 13.291696,25.230495 11.500037,31.436501 z"
     style="fill:#404040;"/>
  </a>
 </g>
</svg>

<style type='text/css'>
<![CDATA[
[data-mouse-over-selected='false'] { opacity: 0.7; }
[data-mouse-over-selected='true']  { opacity: 1.0; }
]]>
</style>
<script type="application/ecmascript"><![CDATA[
document.addEventListener('DOMContentLoaded', (event) => {
  highlightEdges();
  highlightAdjacentNodes();
});
]]></script>
</svg>
