<?xml version="1.0" encoding="UTF-8" standalone="no"?>
<!DOCTYPE svg PUBLIC "-//W3C//DTD SVG 1.1//EN"
 "http://www.w3.org/Graphics/SVG/1.1/DTD/svg11.dtd">
<!-- Generated by graphviz version 2.43.0 (0)
 -->
<!-- Title: src/core/compat/tmp_path.h Pages: 1 -->
<svg width="2403pt" height="115pt"
 viewBox="0.00 0.00 2402.50 115.00" xmlns="http://www.w3.org/2000/svg" xmlns:xlink="http://www.w3.org/1999/xlink">
<g id="graph0" class="graph" transform="scale(1 1) rotate(0) translate(4 111)">
<title>src/core/compat/tmp_path.h</title>
<!-- Node1 -->
<g id="Node000001" class="node">
<title>Node1</title>
<g id="a_Node000001"><a xlink:title=" ">
<polygon fill="#999999" stroke="#666666" points="1264,-107 1147,-107 1147,-77 1264,-77 1264,-107"/>
<text text-anchor="start" x="1155" y="-95" font-family="Helvetica,sans-Serif" font-size="10.00">src/core/compat/tmp</text>
<text text-anchor="middle" x="1205.5" y="-84" font-family="Helvetica,sans-Serif" font-size="10.00">_path.h</text>
</a>
</g>
</g>
<!-- Node2 -->
<g id="Node000002" class="node">
<title>Node2</title>
<g id="a_Node000002"><a xlink:href="staged__file_8c.html" target="_top" xlink:title=" ">
<polygon fill="white" stroke="#666666" points="131,-35.5 0,-35.5 0,-5.5 131,-5.5 131,-35.5"/>
<text text-anchor="start" x="8" y="-23.5" font-family="Helvetica,sans-Serif" font-size="10.00">src/core/compat/staged</text>
<text text-anchor="middle" x="65.5" y="-12.5" font-family="Helvetica,sans-Serif" font-size="10.00">_file.c</text>
</a>
</g>
</g>
<!-- Node1&#45;&gt;Node2 -->
<g id="edge1_Node000001_Node000002" class="edge">
<title>Node1&#45;&gt;Node2</title>
<g id="a_edge1_Node000001_Node000002"><a xlink:title=" ">
<path fill="none" stroke="#63b8ff" d="M1136.41,-89.66C932.05,-85.4 332.77,-70.66 139.5,-41 130.83,-39.67 121.72,-37.73 112.96,-35.58"/>
<polygon fill="#63b8ff" stroke="#63b8ff" points="1136.63,-93.17 1146.7,-89.87 1136.78,-86.17 1136.63,-93.17"/>
</a>
</g>
</g>
<!-- Node3 -->
<g id="Node000003" class="node">
<title>Node3</title>
<g id="a_Node000003"><a xlink:href="staged__file__commit_8c.html" target="_top" xlink:title=" ">
<polygon fill="white" stroke="#666666" points="280,-35.5 149,-35.5 149,-5.5 280,-5.5 280,-35.5"/>
<text text-anchor="start" x="157" y="-23.5" font-family="Helvetica,sans-Serif" font-size="10.00">src/core/compat/staged</text>
<text text-anchor="middle" x="214.5" y="-12.5" font-family="Helvetica,sans-Serif" font-size="10.00">_file_commit.c</text>
</a>
</g>
</g>
<!-- Node1&#45;&gt;Node3 -->
<g id="edge2_Node000001_Node000003" class="edge">
<title>Node1&#45;&gt;Node3</title>
<g id="a_edge2_Node000001_Node000003"><a xlink:title=" ">
<path fill="none" stroke="#63b8ff" d="M1136.7,-89.06C952.65,-83.58 451.87,-66.71 288.5,-41 279.84,-39.64 270.72,-37.68 261.97,-35.53"/>
<polygon fill="#63b8ff" stroke="#63b8ff" points="1136.7,-92.56 1146.8,-89.36 1136.9,-85.57 1136.7,-92.56"/>
</a>
</g>
</g>
<!-- Node4 -->
<g id="Node000004" class="node">
<title>Node4</title>
<g id="a_Node000004"><a xlink:href="tmp__path_8c.html" target="_top" xlink:title=" ">
<polygon fill="white" stroke="#666666" points="415,-35.5 298,-35.5 298,-5.5 415,-5.5 415,-35.5"/>
<text text-anchor="start" x="306" y="-23.5" font-family="Helvetica,sans-Serif" font-size="10.00">src/core/compat/tmp</text>
<text text-anchor="middle" x="356.5" y="-12.5" font-family="Helvetica,sans-Serif" font-size="10.00">_path.c</text>
</a>
</g>
</g>
<!-- Node1&#45;&gt;Node4 -->
<g id="edge3_Node000001_Node000004" class="edge">
<title>Node1&#45;&gt;Node4</title>
<g id="a_edge3_Node000001_Node000004"><a xlink:title=" ">
<path fill="none" stroke="#63b8ff" d="M1136.37,-91.54C999.43,-91.53 684.47,-86.05 424.5,-41 416.63,-39.64 408.38,-37.71 400.44,-35.59"/>
<polygon fill="#63b8ff" stroke="#63b8ff" points="1136.7,-95.04 1146.7,-91.53 1136.7,-88.04 1136.7,-95.04"/>
</a>
</g>
</g>
<!-- Node5 -->
<g id="Node000005" class="node">
<title>Node5</title>
<g id="a_Node000005"><a xlink:href="process_8c.html" target="_top" xlink:title=" ">
<polygon fill="white" stroke="#666666" points="569.5,-30 433.5,-30 433.5,-11 569.5,-11 569.5,-30"/>
<text text-anchor="middle" x="501.5" y="-18" font-family="Helvetica,sans-Serif" font-size="10.00">src/core/config/process.c</text>
</a>
</g>
</g>
<!-- Node1&#45;&gt;Node5 -->
<g id="edge4_Node000001_Node000005" class="edge">
<title>Node1&#45;&gt;Node5</title>
<g id="a_edge4_Node000001_Node000005"><a xlink:title=" ">
<path fill="none" stroke="#63b8ff" d="M1136.6,-89.3C1020.67,-85.58 779.56,-74.23 578.5,-41 562.45,-38.35 544.83,-34 530.51,-30.08"/>
<polygon fill="#63b8ff" stroke="#63b8ff" points="1136.65,-92.8 1146.75,-89.61 1136.87,-85.8 1136.65,-92.8"/>
</a>
</g>
</g>
<!-- Node6 -->
<g id="Node000006" class="node">
<title>Node6</title>
<g id="a_Node000006"><a xlink:href="runtime__server_8c.html" target="_top" xlink:title=" ">
<polygon fill="white" stroke="#666666" points="715.5,-35.5 587.5,-35.5 587.5,-5.5 715.5,-5.5 715.5,-35.5"/>
<text text-anchor="start" x="595.5" y="-23.5" font-family="Helvetica,sans-Serif" font-size="10.00">src/core/config/runtime</text>
<text text-anchor="middle" x="651.5" y="-12.5" font-family="Helvetica,sans-Serif" font-size="10.00">_server.c</text>
</a>
</g>
</g>
<!-- Node1&#45;&gt;Node6 -->
<g id="edge5_Node000001_Node000006" class="edge">
<title>Node1&#45;&gt;Node6</title>
<g id="a_edge5_Node000001_Node000006"><a xlink:title=" ">
<path fill="none" stroke="#63b8ff" d="M1136.75,-87.27C1042.96,-81.4 869.94,-67.81 724.5,-41 716.5,-39.53 708.1,-37.62 699.95,-35.58"/>
<polygon fill="#63b8ff" stroke="#63b8ff" points="1136.76,-90.77 1146.96,-87.89 1137.19,-83.79 1136.76,-90.77"/>
</a>
</g>
</g>
<!-- Node7 -->
<g id="Node000007" class="node">
<title>Node7</title>
<g id="a_Node000007"><a xlink:href="runtime__server__backend_8c.html" target="_top" xlink:title=" ">
<polygon fill="white" stroke="#666666" points="861.5,-35.5 733.5,-35.5 733.5,-5.5 861.5,-5.5 861.5,-35.5"/>
<text text-anchor="start" x="741.5" y="-23.5" font-family="Helvetica,sans-Serif" font-size="10.00">src/core/config/runtime</text>
<text text-anchor="middle" x="797.5" y="-12.5" font-family="Helvetica,sans-Serif" font-size="10.00">_server_backend.c</text>
</a>
</g>
</g>
<!-- Node1&#45;&gt;Node7 -->
<g id="edge6_Node000001_Node000007" class="edge">
<title>Node1&#45;&gt;Node7</title>
<g id="a_edge6_Node000001_Node000007"><a xlink:title=" ">
<path fill="none" stroke="#63b8ff" d="M1136.59,-83.02C1068.58,-74.61 961.82,-59.95 870.5,-41 862.92,-39.43 854.96,-37.54 847.19,-35.58"/>
<polygon fill="#63b8ff" stroke="#63b8ff" points="1136.4,-86.53 1146.75,-84.27 1137.25,-79.58 1136.4,-86.53"/>
</a>
</g>
</g>
<!-- Node8 -->
<g id="Node000008" class="node">
<title>Node8</title>
<g id="a_Node000008"><a xlink:href="open__resolved__file_8c.html" target="_top" xlink:title=" ">
<polygon fill="white" stroke="#666666" points="995.5,-41 879.5,-41 879.5,0 995.5,0 995.5,-41"/>
<text text-anchor="start" x="887.5" y="-29" font-family="Helvetica,sans-Serif" font-size="10.00">src/protocols/root</text>
<text text-anchor="start" x="887.5" y="-18" font-family="Helvetica,sans-Serif" font-size="10.00">/read/open_resolved</text>
<text text-anchor="middle" x="937.5" y="-7" font-family="Helvetica,sans-Serif" font-size="10.00">_file.c</text>
</a>
</g>
</g>
<!-- Node1&#45;&gt;Node8 -->
<g id="edge7_Node000001_Node000008" class="edge">
<title>Node1&#45;&gt;Node8</title>
<g id="a_edge7_Node000001_Node000008"><a xlink:title=" ">
<path fill="none" stroke="#63b8ff" d="M1136.69,-74.59C1097.79,-65.14 1048.32,-52.82 1004.5,-41 1001.58,-40.21 998.58,-39.39 995.57,-38.55"/>
<polygon fill="#63b8ff" stroke="#63b8ff" points="1136.31,-78.1 1146.85,-77.06 1137.96,-71.3 1136.31,-78.1"/>
</a>
</g>
</g>
<!-- Node9 -->
<g id="Node000009" class="node">
<title>Node9</title>
<g id="a_Node000009"><a xlink:href="open__resolved__file__dispatch_8c.html" target="_top" xlink:title=" ">
<polygon fill="white" stroke="#666666" points="1129.5,-41 1013.5,-41 1013.5,0 1129.5,0 1129.5,-41"/>
<text text-anchor="start" x="1021.5" y="-29" font-family="Helvetica,sans-Serif" font-size="10.00">src/protocols/root</text>
<text text-anchor="start" x="1021.5" y="-18" font-family="Helvetica,sans-Serif" font-size="10.00">/read/open_resolved</text>
<text text-anchor="middle" x="1071.5" y="-7" font-family="Helvetica,sans-Serif" font-size="10.00">_file_dispatch.c</text>
</a>
</g>
</g>
<!-- Node1&#45;&gt;Node9 -->
<g id="edge8_Node000001_Node000009" class="edge">
<title>Node1&#45;&gt;Node9</title>
<g id="a_edge8_Node000001_Node000009"><a xlink:title=" ">
<path fill="none" stroke="#63b8ff" d="M1169.34,-72.24C1150.73,-62.59 1128.07,-50.84 1109.24,-41.07"/>
<polygon fill="#63b8ff" stroke="#63b8ff" points="1167.89,-75.44 1178.38,-76.94 1171.12,-69.22 1167.89,-75.44"/>
</a>
</g>
</g>
<!-- Node10 -->
<g id="Node000010" class="node">
<title>Node10</title>
<g id="a_Node000010"><a xlink:href="open__resolved__file__finalize_8c.html" target="_top" xlink:title=" ">
<polygon fill="white" stroke="#666666" points="1263.5,-41 1147.5,-41 1147.5,0 1263.5,0 1263.5,-41"/>
<text text-anchor="start" x="1155.5" y="-29" font-family="Helvetica,sans-Serif" font-size="10.00">src/protocols/root</text>
<text text-anchor="start" x="1155.5" y="-18" font-family="Helvetica,sans-Serif" font-size="10.00">/read/open_resolved</text>
<text text-anchor="middle" x="1205.5" y="-7" font-family="Helvetica,sans-Serif" font-size="10.00">_file_finalize.c</text>
</a>
</g>
</g>
<!-- Node1&#45;&gt;Node10 -->
<g id="edge9_Node000001_Node000010" class="edge">
<title>Node1&#45;&gt;Node10</title>
<g id="a_edge9_Node000001_Node000010"><a xlink:title=" ">
<path fill="none" stroke="#63b8ff" d="M1205.5,-66.91C1205.5,-58.47 1205.5,-49.1 1205.5,-41.07"/>
<polygon fill="#63b8ff" stroke="#63b8ff" points="1202,-66.94 1205.5,-76.94 1209,-66.94 1202,-66.94"/>
</a>
</g>
</g>
<!-- Node11 -->
<g id="Node000011" class="node">
<title>Node11</title>
<g id="a_Node000011"><a xlink:href="open__resolved__file__open_8c.html" target="_top" xlink:title=" ">
<polygon fill="white" stroke="#666666" points="1397.5,-41 1281.5,-41 1281.5,0 1397.5,0 1397.5,-41"/>
<text text-anchor="start" x="1289.5" y="-29" font-family="Helvetica,sans-Serif" font-size="10.00">src/protocols/root</text>
<text text-anchor="start" x="1289.5" y="-18" font-family="Helvetica,sans-Serif" font-size="10.00">/read/open_resolved</text>
<text text-anchor="middle" x="1339.5" y="-7" font-family="Helvetica,sans-Serif" font-size="10.00">_file_open.c</text>
</a>
</g>
</g>
<!-- Node1&#45;&gt;Node11 -->
<g id="edge10_Node000001_Node000011" class="edge">
<title>Node1&#45;&gt;Node11</title>
<g id="a_edge10_Node000001_Node000011"><a xlink:title=" ">
<path fill="none" stroke="#63b8ff" d="M1241.66,-72.24C1260.27,-62.59 1282.93,-50.84 1301.76,-41.07"/>
<polygon fill="#63b8ff" stroke="#63b8ff" points="1239.88,-69.22 1232.62,-76.94 1243.11,-75.44 1239.88,-69.22"/>
</a>
</g>
</g>
<!-- Node12 -->
<g id="Node000012" class="node">
<title>Node12</title>
<g id="a_Node000012"><a xlink:href="open__resolved__file__staging_8c.html" target="_top" xlink:title=" ">
<polygon fill="white" stroke="#666666" points="1531.5,-41 1415.5,-41 1415.5,0 1531.5,0 1531.5,-41"/>
<text text-anchor="start" x="1423.5" y="-29" font-family="Helvetica,sans-Serif" font-size="10.00">src/protocols/root</text>
<text text-anchor="start" x="1423.5" y="-18" font-family="Helvetica,sans-Serif" font-size="10.00">/read/open_resolved</text>
<text text-anchor="middle" x="1473.5" y="-7" font-family="Helvetica,sans-Serif" font-size="10.00">_file_staging.c</text>
</a>
</g>
</g>
<!-- Node1&#45;&gt;Node12 -->
<g id="edge11_Node000001_Node000012" class="edge">
<title>Node1&#45;&gt;Node12</title>
<g id="a_edge11_Node000001_Node000012"><a xlink:title=" ">
<path fill="none" stroke="#63b8ff" d="M1274.31,-74.59C1313.21,-65.14 1362.68,-52.82 1406.5,-41 1409.42,-40.21 1412.42,-39.39 1415.43,-38.55"/>
<polygon fill="#63b8ff" stroke="#63b8ff" points="1273.04,-71.3 1264.15,-77.06 1274.69,-78.1 1273.04,-71.3"/>
</a>
</g>
</g>
<!-- Node13 -->
<g id="Node000013" class="node">
<title>Node13</title>
<g id="a_Node000013"><a xlink:href="protocols_2s3_2module_8c.html" target="_top" xlink:title=" ">
<polygon fill="white" stroke="#666666" points="1691,-30 1550,-30 1550,-11 1691,-11 1691,-30"/>
<text text-anchor="middle" x="1620.5" y="-18" font-family="Helvetica,sans-Serif" font-size="10.00">src/protocols/s3/module.c</text>
</a>
</g>
</g>
<!-- Node1&#45;&gt;Node13 -->
<g id="edge12_Node000001_Node000013" class="edge">
<title>Node1&#45;&gt;Node13</title>
<g id="a_edge12_Node000001_Node000013"><a xlink:title=" ">
<path fill="none" stroke="#63b8ff" d="M1274.33,-82.59C1342.27,-73.85 1448.98,-58.95 1540.5,-41 1556.35,-37.89 1573.8,-33.73 1588.34,-30.05"/>
<polygon fill="#63b8ff" stroke="#63b8ff" points="1273.65,-79.15 1264.18,-83.89 1274.54,-86.09 1273.65,-79.15"/>
</a>
</g>
</g>
<!-- Node14 -->
<g id="Node000014" class="node">
<title>Node14</title>
<g id="a_Node000014"><a xlink:href="module__merge_8c.html" target="_top" xlink:title=" ">
<polygon fill="white" stroke="#666666" points="1842,-35.5 1709,-35.5 1709,-5.5 1842,-5.5 1842,-35.5"/>
<text text-anchor="start" x="1717" y="-23.5" font-family="Helvetica,sans-Serif" font-size="10.00">src/protocols/s3/module</text>
<text text-anchor="middle" x="1775.5" y="-12.5" font-family="Helvetica,sans-Serif" font-size="10.00">_merge.c</text>
</a>
</g>
</g>
<!-- Node1&#45;&gt;Node14 -->
<g id="edge13_Node000001_Node000014" class="edge">
<title>Node1&#45;&gt;Node14</title>
<g id="a_edge13_Node000001_Node000014"><a xlink:title=" ">
<path fill="none" stroke="#63b8ff" d="M1274.36,-87.4C1370.41,-81.61 1549.77,-68.04 1700.5,-41 1708.71,-39.53 1717.34,-37.62 1725.71,-35.59"/>
<polygon fill="#63b8ff" stroke="#63b8ff" points="1273.97,-83.91 1264.2,-88 1274.39,-90.9 1273.97,-83.91"/>
</a>
</g>
</g>
<!-- Node15 -->
<g id="Node000015" class="node">
<title>Node15</title>
<g id="a_Node000015"><a xlink:href="protocols_2webdav_2config_8c.html" target="_top" xlink:title=" ">
<polygon fill="white" stroke="#666666" points="1980.5,-35.5 1860.5,-35.5 1860.5,-5.5 1980.5,-5.5 1980.5,-35.5"/>
<text text-anchor="start" x="1868.5" y="-23.5" font-family="Helvetica,sans-Serif" font-size="10.00">src/protocols/webdav</text>
<text text-anchor="middle" x="1920.5" y="-12.5" font-family="Helvetica,sans-Serif" font-size="10.00">/config.c</text>
</a>
</g>
</g>
<!-- Node1&#45;&gt;Node15 -->
<g id="edge14_Node000001_Node000015" class="edge">
<title>Node1&#45;&gt;Node15</title>
<g id="a_edge14_Node000001_Node000015"><a xlink:title=" ">
<path fill="none" stroke="#63b8ff" d="M1274.38,-90.13C1393.1,-87.65 1643.55,-78.05 1851.5,-41 1859.34,-39.6 1867.58,-37.68 1875.52,-35.59"/>
<polygon fill="#63b8ff" stroke="#63b8ff" points="1274.27,-86.64 1264.34,-90.33 1274.4,-93.63 1274.27,-86.64"/>
</a>
</g>
</g>
<!-- Node16 -->
<g id="Node000016" class="node">
<title>Node16</title>
<g id="a_Node000016"><a xlink:href="config__merge_8c.html" target="_top" xlink:title=" ">
<polygon fill="white" stroke="#666666" points="2118.5,-35.5 1998.5,-35.5 1998.5,-5.5 2118.5,-5.5 2118.5,-35.5"/>
<text text-anchor="start" x="2006.5" y="-23.5" font-family="Helvetica,sans-Serif" font-size="10.00">src/protocols/webdav</text>
<text text-anchor="middle" x="2058.5" y="-12.5" font-family="Helvetica,sans-Serif" font-size="10.00">/config_merge.c</text>
</a>
</g>
</g>
<!-- Node1&#45;&gt;Node16 -->
<g id="edge15_Node000001_Node000016" class="edge">
<title>Node1&#45;&gt;Node16</title>
<g id="a_edge15_Node000001_Node000016"><a xlink:title=" ">
<path fill="none" stroke="#63b8ff" d="M1274.37,-91.48C1411.53,-91.37 1728.12,-85.75 1989.5,-41 1997.48,-39.63 2005.85,-37.71 2013.9,-35.59"/>
<polygon fill="#63b8ff" stroke="#63b8ff" points="1274.02,-87.98 1264.02,-91.48 1274.02,-94.98 1274.02,-87.98"/>
</a>
</g>
</g>
<!-- Node17 -->
<g id="Node000017" class="node">
<title>Node17</title>
<g id="a_Node000017"><a xlink:href="config__proxy_8c.html" target="_top" xlink:title=" ">
<polygon fill="white" stroke="#666666" points="2256.5,-35.5 2136.5,-35.5 2136.5,-5.5 2256.5,-5.5 2256.5,-35.5"/>
<text text-anchor="start" x="2144.5" y="-23.5" font-family="Helvetica,sans-Serif" font-size="10.00">src/protocols/webdav</text>
<text text-anchor="middle" x="2196.5" y="-12.5" font-family="Helvetica,sans-Serif" font-size="10.00">/config_proxy.c</text>
</a>
</g>
</g>
<!-- Node1&#45;&gt;Node17 -->
<g id="edge16_Node000001_Node000017" class="edge">
<title>Node1&#45;&gt;Node17</title>
<g id="a_edge16_Node000001_Node000017"><a xlink:title=" ">
<path fill="none" stroke="#63b8ff" d="M1274.37,-89.24C1459.23,-84.2 1963.38,-68.3 2127.5,-41 2135.6,-39.65 2144.12,-37.7 2152.29,-35.55"/>
<polygon fill="#63b8ff" stroke="#63b8ff" points="1274.14,-85.74 1264.23,-89.51 1274.32,-92.74 1274.14,-85.74"/>
</a>
</g>
</g>
<!-- Node18 -->
<g id="Node000018" class="node">
<title>Node18</title>
<g id="a_Node000018"><a xlink:href="src_2protocols_2webdav_2copy_8c.html" target="_top" xlink:title=" ">
<polygon fill="white" stroke="#666666" points="2394.5,-35.5 2274.5,-35.5 2274.5,-5.5 2394.5,-5.5 2394.5,-35.5"/>
<text text-anchor="start" x="2282.5" y="-23.5" font-family="Helvetica,sans-Serif" font-size="10.00">src/protocols/webdav</text>
<text text-anchor="middle" x="2334.5" y="-12.5" font-family="Helvetica,sans-Serif" font-size="10.00">/copy.c</text>
</a>
</g>
</g>
<!-- Node1&#45;&gt;Node18 -->
<g id="edge17_Node000001_Node000018" class="edge">
<title>Node1&#45;&gt;Node18</title>
<g id="a_edge17_Node000001_Node000018"><a xlink:title=" ">
<path fill="none" stroke="#63b8ff" d="M1274.59,-89.8C1478.2,-85.93 2073.7,-72.21 2265.5,-41 2273.73,-39.66 2282.38,-37.69 2290.67,-35.5"/>
<polygon fill="#63b8ff" stroke="#63b8ff" points="1274.26,-86.3 1264.32,-89.99 1274.39,-93.3 1274.26,-86.3"/>
</a>
</g>
</g>
</g>
</svg>
