<?xml version="1.0" encoding="UTF-8" standalone="no"?>
<!DOCTYPE svg PUBLIC "-//W3C//DTD SVG 1.1//EN"
 "http://www.w3.org/Graphics/SVG/1.1/DTD/svg11.dtd">
<!-- Generated by graphviz version 2.43.0 (0)
 -->
<!-- Title: src/fs/backend/ucred.c Pages: 1 -->
<svg width="908pt" height="302pt"
 viewBox="0.00 0.00 908.00 302.00" xmlns="http://www.w3.org/2000/svg" xmlns:xlink="http://www.w3.org/1999/xlink">
<g id="graph0" class="graph" transform="scale(1 1) rotate(0) translate(4 298)">
<title>src/fs/backend/ucred.c</title>
<!-- Node1 -->
<g id="Node000001" class="node">
<title>Node1</title>
<g id="a_Node000001"><a xlink:title=" ">
<polygon fill="#999999" stroke="#666666" points="510.5,-294 385.5,-294 385.5,-275 510.5,-275 510.5,-294"/>
<text text-anchor="middle" x="448" y="-282" font-family="Helvetica,sans-Serif" font-size="10.00">src/fs/backend/ucred.c</text>
</a>
</g>
</g>
<!-- Node2 -->
<g id="Node000002" class="node">
<title>Node2</title>
<g id="a_Node000002"><a xlink:href="ucred_8h.html" target="_top" xlink:title=" ">
<polygon fill="white" stroke="#666666" points="176.5,-184 123.5,-184 123.5,-165 176.5,-165 176.5,-184"/>
<text text-anchor="middle" x="150" y="-172" font-family="Helvetica,sans-Serif" font-size="10.00">ucred.h</text>
</a>
</g>
</g>
<!-- Node1&#45;&gt;Node2 -->
<g id="edge1_Node000001_Node000002" class="edge">
<title>Node1&#45;&gt;Node2</title>
<g id="a_edge1_Node000001_Node000002"><a xlink:title=" ">
<path fill="none" stroke="#63b8ff" d="M385.29,-284.01C302.46,-283.18 163.27,-276.12 131,-239 119.73,-226.04 128.07,-206.6 136.97,-192.64"/>
<polygon fill="#63b8ff" stroke="#63b8ff" points="139.88,-194.6 142.71,-184.39 134.13,-190.6 139.88,-194.6"/>
</a>
</g>
</g>
<!-- Node9 -->
<g id="Node000009" class="node">
<title>Node9</title>
<g id="a_Node000009"><a xlink:href="ucred__internal_8h.html" target="_top" xlink:title=" ">
<polygon fill="white" stroke="#666666" points="235.5,-239 140.5,-239 140.5,-220 235.5,-220 235.5,-239"/>
<text text-anchor="middle" x="188" y="-227" font-family="Helvetica,sans-Serif" font-size="10.00">ucred_internal.h</text>
</a>
</g>
</g>
<!-- Node1&#45;&gt;Node9 -->
<g id="edge10_Node000001_Node000009" class="edge">
<title>Node1&#45;&gt;Node9</title>
<g id="a_edge10_Node000001_Node000009"><a xlink:title=" ">
<path fill="none" stroke="#63b8ff" d="M406.23,-274.98C361.06,-265.78 289,-251.09 240.15,-241.13"/>
<polygon fill="#63b8ff" stroke="#63b8ff" points="240.6,-237.65 230.1,-239.08 239.2,-244.51 240.6,-237.65"/>
</a>
</g>
</g>
<!-- Node10 -->
<g id="Node000010" class="node">
<title>Node10</title>
<g id="a_Node000010"><a xlink:title=" ">
<polygon fill="#e0e0e0" stroke="#999999" points="304.5,-239 253.5,-239 253.5,-220 304.5,-220 304.5,-239"/>
<text text-anchor="middle" x="279" y="-227" font-family="Helvetica,sans-Serif" font-size="10.00">errno.h</text>
</a>
</g>
</g>
<!-- Node1&#45;&gt;Node10 -->
<g id="edge12_Node000001_Node000010" class="edge">
<title>Node1&#45;&gt;Node10</title>
<g id="a_edge12_Node000001_Node000010"><a xlink:title=" ">
<path fill="none" stroke="#63b8ff" d="M420.85,-274.98C391.97,-265.93 346.17,-251.57 314.46,-241.62"/>
<polygon fill="#63b8ff" stroke="#63b8ff" points="315.29,-238.21 304.7,-238.56 313.19,-244.89 315.29,-238.21"/>
</a>
</g>
</g>
<!-- Node11 -->
<g id="Node000011" class="node">
<title>Node11</title>
<g id="a_Node000011"><a xlink:title=" ">
<polygon fill="#e0e0e0" stroke="#999999" points="369.5,-239 322.5,-239 322.5,-220 369.5,-220 369.5,-239"/>
<text text-anchor="middle" x="346" y="-227" font-family="Helvetica,sans-Serif" font-size="10.00">fcntl.h</text>
</a>
</g>
</g>
<!-- Node1&#45;&gt;Node11 -->
<g id="edge13_Node000001_Node000011" class="edge">
<title>Node1&#45;&gt;Node11</title>
<g id="a_edge13_Node000001_Node000011"><a xlink:title=" ">
<path fill="none" stroke="#63b8ff" d="M431.61,-274.98C415.43,-266.57 390.43,-253.59 371.62,-243.81"/>
<polygon fill="#63b8ff" stroke="#63b8ff" points="373.17,-240.68 362.69,-239.17 369.95,-246.89 373.17,-240.68"/>
</a>
</g>
</g>
<!-- Node12 -->
<g id="Node000012" class="node">
<title>Node12</title>
<g id="a_Node000012"><a xlink:title=" ">
<polygon fill="#e0e0e0" stroke="#999999" points="438,-239 388,-239 388,-220 438,-220 438,-239"/>
<text text-anchor="middle" x="413" y="-227" font-family="Helvetica,sans-Serif" font-size="10.00">stdio.h</text>
</a>
</g>
</g>
<!-- Node1&#45;&gt;Node12 -->
<g id="edge14_Node000001_Node000012" class="edge">
<title>Node1&#45;&gt;Node12</title>
<g id="a_edge14_Node000001_Node000012"><a xlink:title=" ">
<path fill="none" stroke="#63b8ff" d="M442.22,-274.75C437.38,-267.42 430.32,-256.73 424.36,-247.7"/>
<polygon fill="#63b8ff" stroke="#63b8ff" points="427.1,-245.5 418.67,-239.09 421.26,-249.36 427.1,-245.5"/>
</a>
</g>
</g>
<!-- Node13 -->
<g id="Node000013" class="node">
<title>Node13</title>
<g id="a_Node000013"><a xlink:title=" ">
<polygon fill="#e0e0e0" stroke="#999999" points="509.5,-239 456.5,-239 456.5,-220 509.5,-220 509.5,-239"/>
<text text-anchor="middle" x="483" y="-227" font-family="Helvetica,sans-Serif" font-size="10.00">string.h</text>
</a>
</g>
</g>
<!-- Node1&#45;&gt;Node13 -->
<g id="edge15_Node000001_Node000013" class="edge">
<title>Node1&#45;&gt;Node13</title>
<g id="a_edge15_Node000001_Node000013"><a xlink:title=" ">
<path fill="none" stroke="#63b8ff" d="M453.78,-274.75C458.62,-267.42 465.68,-256.73 471.64,-247.7"/>
<polygon fill="#63b8ff" stroke="#63b8ff" points="474.74,-249.36 477.33,-239.09 468.9,-245.5 474.74,-249.36"/>
</a>
</g>
</g>
<!-- Node14 -->
<g id="Node000014" class="node">
<title>Node14</title>
<g id="a_Node000014"><a xlink:title=" ">
<polygon fill="#e0e0e0" stroke="#999999" points="584,-239 528,-239 528,-220 584,-220 584,-239"/>
<text text-anchor="middle" x="556" y="-227" font-family="Helvetica,sans-Serif" font-size="10.00">unistd.h</text>
</a>
</g>
</g>
<!-- Node1&#45;&gt;Node14 -->
<g id="edge16_Node000001_Node000014" class="edge">
<title>Node1&#45;&gt;Node14</title>
<g id="a_edge16_Node000001_Node000014"><a xlink:title=" ">
<path fill="none" stroke="#63b8ff" d="M465.35,-274.98C482.57,-266.54 509.2,-253.47 529.15,-243.68"/>
<polygon fill="#63b8ff" stroke="#63b8ff" points="530.9,-246.72 538.33,-239.17 527.81,-240.43 530.9,-246.72"/>
</a>
</g>
</g>
<!-- Node15 -->
<g id="Node000015" class="node">
<title>Node15</title>
<g id="a_Node000015"><a xlink:title=" ">
<polygon fill="#e0e0e0" stroke="#999999" points="690,-239 602,-239 602,-220 690,-220 690,-239"/>
<text text-anchor="middle" x="646" y="-227" font-family="Helvetica,sans-Serif" font-size="10.00">openssl/pem.h</text>
</a>
</g>
</g>
<!-- Node1&#45;&gt;Node15 -->
<g id="edge17_Node000001_Node000015" class="edge">
<title>Node1&#45;&gt;Node15</title>
<g id="a_edge17_Node000001_Node000015"><a xlink:title=" ">
<path fill="none" stroke="#63b8ff" d="M479.81,-274.98C513.49,-265.97 566.8,-251.7 603.92,-241.76"/>
<polygon fill="#63b8ff" stroke="#63b8ff" points="605.18,-245.05 613.94,-239.08 603.37,-238.29 605.18,-245.05"/>
</a>
</g>
</g>
<!-- Node16 -->
<g id="Node000016" class="node">
<title>Node16</title>
<g id="a_Node000016"><a xlink:title=" ">
<polygon fill="#e0e0e0" stroke="#999999" points="791.5,-239 708.5,-239 708.5,-220 791.5,-220 791.5,-239"/>
<text text-anchor="middle" x="750" y="-227" font-family="Helvetica,sans-Serif" font-size="10.00">openssl/sha.h</text>
</a>
</g>
</g>
<!-- Node1&#45;&gt;Node16 -->
<g id="edge18_Node000001_Node000016" class="edge">
<title>Node1&#45;&gt;Node16</title>
<g id="a_edge18_Node000001_Node000016"><a xlink:title=" ">
<path fill="none" stroke="#63b8ff" d="M496.52,-274.98C551.77,-265.29 641.68,-249.51 698.25,-239.58"/>
<polygon fill="#63b8ff" stroke="#63b8ff" points="699.16,-242.98 708.4,-237.8 697.95,-236.08 699.16,-242.98"/>
</a>
</g>
</g>
<!-- Node17 -->
<g id="Node000017" class="node">
<title>Node17</title>
<g id="a_Node000017"><a xlink:title=" ">
<polygon fill="#e0e0e0" stroke="#999999" points="900,-239 810,-239 810,-220 900,-220 900,-239"/>
<text text-anchor="middle" x="855" y="-227" font-family="Helvetica,sans-Serif" font-size="10.00">openssl/x509.h</text>
</a>
</g>
</g>
<!-- Node1&#45;&gt;Node17 -->
<g id="edge19_Node000001_Node000017" class="edge">
<title>Node1&#45;&gt;Node17</title>
<g id="a_edge19_Node000001_Node000017"><a xlink:title=" ">
<path fill="none" stroke="#63b8ff" d="M510.57,-276.2C579.05,-268.08 692.36,-254.25 799.88,-239.12"/>
<polygon fill="#63b8ff" stroke="#63b8ff" points="800.52,-242.57 809.93,-237.7 799.54,-235.63 800.52,-242.57"/>
</a>
</g>
</g>
<!-- Node3 -->
<g id="Node000003" class="node">
<title>Node3</title>
<g id="a_Node000003"><a xlink:title=" ">
<polygon fill="#e0e0e0" stroke="#999999" points="78,-74 0,-74 0,-55 78,-55 78,-74"/>
<text text-anchor="middle" x="39" y="-62" font-family="Helvetica,sans-Serif" font-size="10.00">ngx_config.h</text>
</a>
</g>
</g>
<!-- Node2&#45;&gt;Node3 -->
<g id="edge2_Node000002_Node000003" class="edge">
<title>Node2&#45;&gt;Node3</title>
<g id="a_edge2_Node000002_Node000003"><a xlink:title=" ">
<path fill="none" stroke="#63b8ff" d="M133.6,-164.95C119.21,-156.93 98.25,-143.96 83,-129 68.97,-115.25 56.6,-96.45 48.57,-82.88"/>
<polygon fill="#63b8ff" stroke="#63b8ff" points="51.54,-81.01 43.53,-74.07 45.46,-84.48 51.54,-81.01"/>
</a>
</g>
</g>
<!-- Node4 -->
<g id="Node000004" class="node">
<title>Node4</title>
<g id="a_Node000004"><a xlink:title=" ">
<polygon fill="#e0e0e0" stroke="#999999" points="292,-74 222,-74 222,-55 292,-55 292,-74"/>
<text text-anchor="middle" x="257" y="-62" font-family="Helvetica,sans-Serif" font-size="10.00">ngx_core.h</text>
</a>
</g>
</g>
<!-- Node2&#45;&gt;Node4 -->
<g id="edge3_Node000002_Node000004" class="edge">
<title>Node2&#45;&gt;Node4</title>
<g id="a_edge3_Node000002_Node000004"><a xlink:title=" ">
<path fill="none" stroke="#63b8ff" d="M166.85,-164.95C181.33,-157.03 202.17,-144.19 217,-129 230.2,-115.48 241.28,-96.9 248.41,-83.33"/>
<polygon fill="#63b8ff" stroke="#63b8ff" points="251.69,-84.6 253.06,-74.1 245.43,-81.45 251.69,-84.6"/>
</a>
</g>
</g>
<!-- Node5 -->
<g id="Node000005" class="node">
<title>Node5</title>
<g id="a_Node000005"><a xlink:href="identity_8h.html" target="_top" xlink:title=" ">
<polygon fill="white" stroke="#666666" points="208,-129 92,-129 92,-110 208,-110 208,-129"/>
<text text-anchor="middle" x="150" y="-117" font-family="Helvetica,sans-Serif" font-size="10.00">core/types/identity.h</text>
</a>
</g>
</g>
<!-- Node2&#45;&gt;Node5 -->
<g id="edge4_Node000002_Node000005" class="edge">
<title>Node2&#45;&gt;Node5</title>
<g id="a_edge4_Node000002_Node000005"><a xlink:title=" ">
<path fill="none" stroke="#63b8ff" d="M150,-164.75C150,-157.8 150,-147.85 150,-139.13"/>
<polygon fill="#63b8ff" stroke="#63b8ff" points="153.5,-139.09 150,-129.09 146.5,-139.09 153.5,-139.09"/>
</a>
</g>
</g>
<!-- Node5&#45;&gt;Node3 -->
<g id="edge5_Node000005_Node000003" class="edge">
<title>Node5&#45;&gt;Node3</title>
<g id="a_edge5_Node000005_Node000003"><a xlink:title=" ">
<path fill="none" stroke="#63b8ff" d="M132.17,-109.98C114.39,-101.5 86.85,-88.35 66.32,-78.54"/>
<polygon fill="#63b8ff" stroke="#63b8ff" points="67.69,-75.32 57.16,-74.17 64.67,-81.64 67.69,-75.32"/>
</a>
</g>
</g>
<!-- Node5&#45;&gt;Node4 -->
<g id="edge6_Node000005_Node000004" class="edge">
<title>Node5&#45;&gt;Node4</title>
<g id="a_edge6_Node000005_Node000004"><a xlink:title=" ">
<path fill="none" stroke="#63b8ff" d="M167.19,-109.98C184.25,-101.54 210.63,-88.47 230.4,-78.68"/>
<polygon fill="#63b8ff" stroke="#63b8ff" points="232.09,-81.75 239.5,-74.17 228.98,-75.47 232.09,-81.75"/>
</a>
</g>
</g>
<!-- Node6 -->
<g id="Node000006" class="node">
<title>Node6</title>
<g id="a_Node000006"><a xlink:href="token_8h.html" target="_top" xlink:title=" ">
<polygon fill="white" stroke="#666666" points="203.5,-74 96.5,-74 96.5,-55 203.5,-55 203.5,-74"/>
<text text-anchor="middle" x="150" y="-62" font-family="Helvetica,sans-Serif" font-size="10.00">auth/token/token.h</text>
</a>
</g>
</g>
<!-- Node5&#45;&gt;Node6 -->
<g id="edge7_Node000005_Node000006" class="edge">
<title>Node5&#45;&gt;Node6</title>
<g id="a_edge7_Node000005_Node000006"><a xlink:title=" ">
<path fill="none" stroke="#63b8ff" d="M150,-109.75C150,-102.8 150,-92.85 150,-84.13"/>
<polygon fill="#63b8ff" stroke="#63b8ff" points="153.5,-84.09 150,-74.09 146.5,-84.09 153.5,-84.09"/>
</a>
</g>
</g>
<!-- Node7 -->
<g id="Node000007" class="node">
<title>Node7</title>
<g id="a_Node000007"><a xlink:title=" ">
<polygon fill="#e0e0e0" stroke="#999999" points="149,-19 65,-19 65,0 149,0 149,-19"/>
<text text-anchor="middle" x="107" y="-7" font-family="Helvetica,sans-Serif" font-size="10.00">openssl/evp.h</text>
</a>
</g>
</g>
<!-- Node6&#45;&gt;Node7 -->
<g id="edge8_Node000006_Node000007" class="edge">
<title>Node6&#45;&gt;Node7</title>
<g id="a_edge8_Node000006_Node000007"><a xlink:title=" ">
<path fill="none" stroke="#63b8ff" d="M142.9,-54.75C136.83,-47.26 127.91,-36.28 120.49,-27.13"/>
<polygon fill="#63b8ff" stroke="#63b8ff" points="122.99,-24.65 113.97,-19.09 117.55,-29.06 122.99,-24.65"/>
</a>
</g>
</g>
<!-- Node8 -->
<g id="Node000008" class="node">
<title>Node8</title>
<g id="a_Node000008"><a xlink:title=" ">
<polygon fill="#e0e0e0" stroke="#999999" points="219.5,-19 166.5,-19 166.5,0 219.5,0 219.5,-19"/>
<text text-anchor="middle" x="193" y="-7" font-family="Helvetica,sans-Serif" font-size="10.00">limits.h</text>
</a>
</g>
</g>
<!-- Node6&#45;&gt;Node8 -->
<g id="edge9_Node000006_Node000008" class="edge">
<title>Node6&#45;&gt;Node8</title>
<g id="a_edge9_Node000006_Node000008"><a xlink:title=" ">
<path fill="none" stroke="#63b8ff" d="M157.1,-54.75C163.17,-47.26 172.09,-36.28 179.51,-27.13"/>
<polygon fill="#63b8ff" stroke="#63b8ff" points="182.45,-29.06 186.03,-19.09 177.01,-24.65 182.45,-29.06"/>
</a>
</g>
</g>
<!-- Node9&#45;&gt;Node2 -->
<g id="edge11_Node000009_Node000002" class="edge">
<title>Node9&#45;&gt;Node2</title>
<g id="a_edge11_Node000009_Node000002"><a xlink:title=" ">
<path fill="none" stroke="#63b8ff" d="M181.73,-219.75C176.41,-212.34 168.64,-201.5 162.12,-192.41"/>
<polygon fill="#63b8ff" stroke="#63b8ff" points="164.83,-190.18 156.16,-184.09 159.14,-194.26 164.83,-190.18"/>
</a>
</g>
</g>
</g>
</svg>
