<?xml version="1.0" encoding="UTF-8" standalone="no"?>
<!DOCTYPE svg PUBLIC "-//W3C//DTD SVG 1.1//EN"
 "http://www.w3.org/Graphics/SVG/1.1/DTD/svg11.dtd">
<!-- Generated by graphviz version 2.43.0 (0)
 -->
<!-- Title: src/fs/core/vfs_core_unittest.c Pages: 1 -->
<!--zoomable 258 -->

<svg id="main" version="1.1" xmlns="http://www.w3.org/2000/svg" xmlns:xlink="http://www.w3.org/1999/xlink" xml:space="preserve" onload="init(evt)">
<style type="text/css"><![CDATA[
.node, .edge {opacity: 0.7;}
.node.selected, .edge.selected {opacity: 1;}
.edge:hover path { stroke: red; }
.edge:hover polygon { stroke: red; fill: red; }
]]></style>

<defs>
  <circle id="rim" cx="0" cy="0" r="7"/>
  <circle id="rim2" cx="0" cy="0" r="3.5"/>
  <g id="zoomPlus">
    <use xlink:href="#rim" fill="#404040"><set attributeName="fill" to="#808080" begin="zoomplus.mouseover" end="zoomplus.mouseout"/></use>
    <path d="M-4,0h8M0,-4v8" fill="none" stroke="white" stroke-width="1.5" pointer-events="none"/>
  </g>
  <g id="zoomMin">
    <use xlink:href="#rim" fill="#404040"><set attributeName="fill" to="#808080" begin="zoomminus.mouseover" end="zoomminus.mouseout"/></use>
    <path d="M-4,0h8" fill="none" stroke="white" stroke-width="1.5" pointer-events="none"/>
  </g>
  <g id="arrowUp" transform="translate(30 24)">
    <use xlink:href="#rim"/>
    <path pointer-events="none" fill="none" stroke="white" stroke-width="1.5" d="M0,-3.0v7 M-2.5,-0.5L0,-3.0L2.5,-0.5"/>
  </g>
  <g id="arrowRight" transform="rotate(90) translate(36 -43)">
    <use xlink:href="#rim"/>
    <path pointer-events="none" fill="none" stroke="white" stroke-width="1.5" d="M0,-3.0v7 M-2.5,-0.5L0,-3.0L2.5,-0.5"/>
  </g>
  <g id="arrowDown" transform="rotate(180) translate(-30 -48)">
    <use xlink:href="#rim"/>
    <path pointer-events="none" fill="none" stroke="white" stroke-width="1.5" d="M0,-3.0v7 M-2.5,-0.5L0,-3.0L2.5,-0.5"/>
  </g>
  <g id="arrowLeft" transform="rotate(270) translate(-36 17)">
    <use xlink:href="#rim"/>
    <path pointer-events="none" fill="none" stroke="white" stroke-width="1.5" d="M0,-3.0v7 M-2.5,-0.5L0,-3.0L2.5,-0.5"/>
  </g>
  <g id="resetDef">
    <use xlink:href="#rim2" fill="#404040"><set attributeName="fill" to="#808080" begin="reset.mouseover" end="reset.mouseout"/></use>
  </g>
</defs>
<script type="application/ecmascript">
var viewWidth = 1050;
var viewHeight = 258;
var sectionId = 'dynsection-0';
</script>
<script type="application/ecmascript" xlink:href="svg.min.js"/>
<svg id="graph" class="graph">
<g id="viewport">
<title>src/fs/core/vfs_core_unittest.c</title>
<!-- Node1 -->
<g id="Node000001" class="node">
<title>Node1</title>
<g id="a_Node000001"><a xlink:title=" ">
<polygon fill="#999999" stroke="#666666" points="890.47,-250 779.47,-250 779.47,-220 890.47,-220 890.47,-250"/>
<text text-anchor="start" x="787.47" y="-238" font-family="Helvetica,sans-Serif" font-size="10.00">src/fs/core/vfs_core</text>
<text text-anchor="middle" x="834.97" y="-227" font-family="Helvetica,sans-Serif" font-size="10.00">_unittest.c</text>
</a>
</g>
</g>
<!-- Node2 -->
<g id="Node000002" class="node">
<title>Node2</title>
<g id="a_Node000002"><a xlink:href="vfs__core_8h.html" target="_top" xlink:title=" ">
<polygon fill="white" stroke="#666666" points="691.47,-184 624.47,-184 624.47,-165 691.47,-165 691.47,-184"/>
<text text-anchor="middle" x="657.97" y="-172" font-family="Helvetica,sans-Serif" font-size="10.00">vfs_core.h</text>
</a>
</g>
</g>
<!-- Node1&#45;&gt;Node2 -->
<g id="edge1_Node000001_Node000002" class="edge">
<title>Node1&#45;&gt;Node2</title>
<g id="a_edge1_Node000001_Node000002"><a xlink:title=" ">
<path fill="none" stroke="#63b8ff" d="M792.58,-219.99C762.3,-209.98 722.02,-196.67 693.44,-187.22"/>
<polygon fill="#63b8ff" stroke="#63b8ff" points="694.45,-183.87 683.85,-184.05 692.25,-190.52 694.45,-183.87"/>
</a>
</g>
</g>
<!-- Node14 -->
<g id="Node000014" class="node">
<title>Node14</title>
<g id="a_Node000014"><a xlink:title=" ">
<polygon fill="#e0e0e0" stroke="#999999" points="756.47,-184 709.47,-184 709.47,-165 756.47,-165 756.47,-184"/>
<text text-anchor="middle" x="732.97" y="-172" font-family="Helvetica,sans-Serif" font-size="10.00">fcntl.h</text>
</a>
</g>
</g>
<!-- Node1&#45;&gt;Node14 -->
<g id="edge18_Node000001_Node000014" class="edge">
<title>Node1&#45;&gt;Node14</title>
<g id="a_edge18_Node000001_Node000014"><a xlink:title=" ">
<path fill="none" stroke="#63b8ff" d="M810.54,-219.99C794.28,-210.66 773.03,-198.47 756.88,-189.21"/>
<polygon fill="#63b8ff" stroke="#63b8ff" points="758.45,-186.08 748.04,-184.14 754.97,-192.15 758.45,-186.08"/>
</a>
</g>
</g>
<!-- Node15 -->
<g id="Node000015" class="node">
<title>Node15</title>
<g id="a_Node000015"><a xlink:title=" ">
<polygon fill="#e0e0e0" stroke="#999999" points="824.97,-184 774.97,-184 774.97,-165 824.97,-165 824.97,-184"/>
<text text-anchor="middle" x="799.97" y="-172" font-family="Helvetica,sans-Serif" font-size="10.00">stdio.h</text>
</a>
</g>
</g>
<!-- Node1&#45;&gt;Node15 -->
<g id="edge19_Node000001_Node000015" class="edge">
<title>Node1&#45;&gt;Node15</title>
<g id="a_edge19_Node000001_Node000015"><a xlink:title=" ">
<path fill="none" stroke="#63b8ff" d="M826.5,-219.84C821.68,-211.78 815.6,-201.62 810.48,-193.06"/>
<polygon fill="#63b8ff" stroke="#63b8ff" points="813.36,-191.05 805.22,-184.27 807.35,-194.64 813.36,-191.05"/>
</a>
</g>
</g>
<!-- Node16 -->
<g id="Node000016" class="node">
<title>Node16</title>
<g id="a_Node000016"><a xlink:title=" ">
<polygon fill="#e0e0e0" stroke="#999999" points="896.47,-184 843.47,-184 843.47,-165 896.47,-165 896.47,-184"/>
<text text-anchor="middle" x="869.97" y="-172" font-family="Helvetica,sans-Serif" font-size="10.00">stdlib.h</text>
</a>
</g>
</g>
<!-- Node1&#45;&gt;Node16 -->
<g id="edge20_Node000001_Node000016" class="edge">
<title>Node1&#45;&gt;Node16</title>
<g id="a_edge20_Node000001_Node000016"><a xlink:title=" ">
<path fill="none" stroke="#63b8ff" d="M843.45,-219.84C848.27,-211.78 854.35,-201.62 859.47,-193.06"/>
<polygon fill="#63b8ff" stroke="#63b8ff" points="862.6,-194.64 864.73,-184.27 856.59,-191.05 862.6,-194.64"/>
</a>
</g>
</g>
<!-- Node17 -->
<g id="Node000017" class="node">
<title>Node17</title>
<g id="a_Node000017"><a xlink:title=" ">
<polygon fill="#e0e0e0" stroke="#999999" points="967.47,-184 914.47,-184 914.47,-165 967.47,-165 967.47,-184"/>
<text text-anchor="middle" x="940.97" y="-172" font-family="Helvetica,sans-Serif" font-size="10.00">string.h</text>
</a>
</g>
</g>
<!-- Node1&#45;&gt;Node17 -->
<g id="edge21_Node000001_Node000017" class="edge">
<title>Node1&#45;&gt;Node17</title>
<g id="a_edge21_Node000001_Node000017"><a xlink:title=" ">
<path fill="none" stroke="#63b8ff" d="M860.36,-219.99C877.26,-210.66 899.35,-198.47 916.13,-189.21"/>
<polygon fill="#63b8ff" stroke="#63b8ff" points="918.26,-192.04 925.32,-184.14 914.87,-185.91 918.26,-192.04"/>
</a>
</g>
</g>
<!-- Node18 -->
<g id="Node000018" class="node">
<title>Node18</title>
<g id="a_Node000018"><a xlink:title=" ">
<polygon fill="#e0e0e0" stroke="#999999" points="1041.97,-184 985.97,-184 985.97,-165 1041.97,-165 1041.97,-184"/>
<text text-anchor="middle" x="1013.97" y="-172" font-family="Helvetica,sans-Serif" font-size="10.00">unistd.h</text>
</a>
</g>
</g>
<!-- Node1&#45;&gt;Node18 -->
<g id="edge22_Node000001_Node000018" class="edge">
<title>Node1&#45;&gt;Node18</title>
<g id="a_edge22_Node000001_Node000018"><a xlink:title=" ">
<path fill="none" stroke="#63b8ff" d="M877.85,-219.99C908.47,-209.98 949.2,-196.67 978.11,-187.22"/>
<polygon fill="#63b8ff" stroke="#63b8ff" points="979.38,-190.49 987.8,-184.05 977.21,-183.83 979.38,-190.49"/>
</a>
</g>
</g>
<!-- Node3 -->
<g id="Node000003" class="node">
<title>Node3</title>
<g id="a_Node000003"><a xlink:href="sd_8h.html" target="_top" xlink:title=" ">
<polygon fill="white" stroke="#666666" points="390.97,-129 298.97,-129 298.97,-110 390.97,-110 390.97,-129"/>
<text text-anchor="middle" x="344.97" y="-117" font-family="Helvetica,sans-Serif" font-size="10.00">fs/backend/sd.h</text>
</a>
</g>
</g>
<!-- Node2&#45;&gt;Node3 -->
<g id="edge2_Node000002_Node000003" class="edge">
<title>Node2&#45;&gt;Node3</title>
<g id="a_edge2_Node000002_Node000003"><a xlink:title=" ">
<path fill="none" stroke="#63b8ff" d="M624.18,-167.78C570.69,-158.72 465.94,-140.98 401.06,-130"/>
<polygon fill="#63b8ff" stroke="#63b8ff" points="401.44,-126.51 391,-128.29 400.27,-133.41 401.44,-126.51"/>
</a>
</g>
</g>
<!-- Node9 -->
<g id="Node000009" class="node">
<title>Node9</title>
<g id="a_Node000009"><a xlink:title=" ">
<polygon fill="#e0e0e0" stroke="#999999" points="413.97,-19 341.97,-19 341.97,0 413.97,0 413.97,-19"/>
<text text-anchor="middle" x="377.97" y="-7" font-family="Helvetica,sans-Serif" font-size="10.00">sys/types.h</text>
</a>
</g>
</g>
<!-- Node2&#45;&gt;Node9 -->
<g id="edge17_Node000002_Node000009" class="edge">
<title>Node2&#45;&gt;Node9</title>
<g id="a_edge17_Node000002_Node000009"><a xlink:title=" ">
<path fill="none" stroke="#63b8ff" d="M659.59,-164.88C663.13,-143.08 669.03,-85.35 638.97,-55 609.69,-25.43 491.27,-15.43 424.45,-12.11"/>
<polygon fill="#63b8ff" stroke="#63b8ff" points="424.34,-8.6 414.19,-11.63 424.01,-15.59 424.34,-8.6"/>
</a>
</g>
</g>
<!-- Node13 -->
<g id="Node000013" class="node">
<title>Node13</title>
<g id="a_Node000013"><a xlink:title=" ">
<polygon fill="#e0e0e0" stroke="#999999" points="741.97,-129 685.97,-129 685.97,-110 741.97,-110 741.97,-129"/>
<text text-anchor="middle" x="713.97" y="-117" font-family="Helvetica,sans-Serif" font-size="10.00">stddef.h</text>
</a>
</g>
</g>
<!-- Node2&#45;&gt;Node13 -->
<g id="edge16_Node000002_Node000013" class="edge">
<title>Node2&#45;&gt;Node13</title>
<g id="a_edge16_Node000002_Node000013"><a xlink:title=" ">
<path fill="none" stroke="#63b8ff" d="M666.97,-164.98C675.17,-157.23 687.48,-145.58 697.45,-136.14"/>
<polygon fill="#63b8ff" stroke="#63b8ff" points="699.96,-138.59 704.81,-129.17 695.14,-133.5 699.96,-138.59"/>
</a>
</g>
</g>
<!-- Node4 -->
<g id="Node000004" class="node">
<title>Node4</title>
<g id="a_Node000004"><a xlink:title=" ">
<polygon fill="#e0e0e0" stroke="#999999" points="349.97,-74 271.97,-74 271.97,-55 349.97,-55 349.97,-74"/>
<text text-anchor="middle" x="310.97" y="-62" font-family="Helvetica,sans-Serif" font-size="10.00">ngx_config.h</text>
</a>
</g>
</g>
<!-- Node3&#45;&gt;Node4 -->
<g id="edge3_Node000003_Node000004" class="edge">
<title>Node3&#45;&gt;Node4</title>
<g id="a_edge3_Node000003_Node000004"><a xlink:title=" ">
<path fill="none" stroke="#63b8ff" d="M339.36,-109.75C334.66,-102.42 327.8,-91.73 322,-82.7"/>
<polygon fill="#63b8ff" stroke="#63b8ff" points="324.83,-80.62 316.48,-74.09 318.94,-84.4 324.83,-80.62"/>
</a>
</g>
</g>
<!-- Node5 -->
<g id="Node000005" class="node">
<title>Node5</title>
<g id="a_Node000005"><a xlink:title=" ">
<polygon fill="#e0e0e0" stroke="#999999" points="557.97,-74 487.97,-74 487.97,-55 557.97,-55 557.97,-74"/>
<text text-anchor="middle" x="522.97" y="-62" font-family="Helvetica,sans-Serif" font-size="10.00">ngx_core.h</text>
</a>
</g>
</g>
<!-- Node3&#45;&gt;Node5 -->
<g id="edge4_Node000003_Node000005" class="edge">
<title>Node3&#45;&gt;Node5</title>
<g id="a_edge4_Node000003_Node000005"><a xlink:title=" ">
<path fill="none" stroke="#63b8ff" d="M373.57,-109.98C403.59,-101.05 450.95,-86.94 484.29,-77.02"/>
<polygon fill="#63b8ff" stroke="#63b8ff" points="485.57,-80.29 494.15,-74.08 483.57,-73.58 485.57,-80.29"/>
</a>
</g>
</g>
<!-- Node6 -->
<g id="Node000006" class="node">
<title>Node6</title>
<g id="a_Node000006"><a xlink:title=" ">
<polygon fill="#e0e0e0" stroke="#999999" points="629.47,-74 576.47,-74 576.47,-55 629.47,-55 629.47,-74"/>
<text text-anchor="middle" x="602.97" y="-62" font-family="Helvetica,sans-Serif" font-size="10.00">stdint.h</text>
</a>
</g>
</g>
<!-- Node3&#45;&gt;Node6 -->
<g id="edge5_Node000003_Node000006" class="edge">
<title>Node3&#45;&gt;Node6</title>
<g id="a_edge5_Node000003_Node000006"><a xlink:title=" ">
<path fill="none" stroke="#63b8ff" d="M389.71,-110C432.51,-101.76 499.11,-88.67 566.34,-74.08"/>
<polygon fill="#63b8ff" stroke="#63b8ff" points="567.24,-77.46 576.26,-71.91 565.74,-70.62 567.24,-77.46"/>
</a>
</g>
</g>
<!-- Node7 -->
<g id="Node000007" class="node">
<title>Node7</title>
<g id="a_Node000007"><a xlink:title=" ">
<polygon fill="#e0e0e0" stroke="#999999" points="92.47,-19 41.47,-19 41.47,0 92.47,0 92.47,-19"/>
<text text-anchor="middle" x="66.97" y="-7" font-family="Helvetica,sans-Serif" font-size="10.00">errno.h</text>
</a>
</g>
</g>
<!-- Node3&#45;&gt;Node7 -->
<g id="edge6_Node000003_Node000007" class="edge">
<title>Node3&#45;&gt;Node7</title>
<g id="a_edge6_Node000003_Node000007"><a xlink:title=" ">
<path fill="none" stroke="#63b8ff" d="M298.84,-115.8C210.41,-110.14 24.07,-95.76 4.97,-74 -10.91,-55.9 15.7,-36.24 38.84,-23.67"/>
<polygon fill="#63b8ff" stroke="#63b8ff" points="40.49,-26.75 47.77,-19.05 37.28,-20.54 40.49,-26.75"/>
</a>
</g>
</g>
<!-- Node8 -->
<g id="Node000008" class="node">
<title>Node8</title>
<g id="a_Node000008"><a xlink:title=" ">
<polygon fill="#e0e0e0" stroke="#999999" points="469.97,-74 405.97,-74 405.97,-55 469.97,-55 469.97,-74"/>
<text text-anchor="middle" x="437.97" y="-62" font-family="Helvetica,sans-Serif" font-size="10.00">sys/stat.h</text>
</a>
</g>
</g>
<!-- Node3&#45;&gt;Node8 -->
<g id="edge7_Node000003_Node000008" class="edge">
<title>Node3&#45;&gt;Node8</title>
<g id="a_edge7_Node000003_Node000008"><a xlink:title=" ">
<path fill="none" stroke="#63b8ff" d="M359.92,-109.98C374.47,-101.69 396.84,-88.94 413.91,-79.22"/>
<polygon fill="#63b8ff" stroke="#63b8ff" points="415.8,-82.16 422.76,-74.17 412.34,-76.08 415.8,-82.16"/>
</a>
</g>
</g>
<!-- Node3&#45;&gt;Node9 -->
<g id="edge8_Node000003_Node000009" class="edge">
<title>Node3&#45;&gt;Node9</title>
<g id="a_edge8_Node000003_Node000009"><a xlink:title=" ">
<path fill="none" stroke="#63b8ff" d="M347.69,-109.98C350.54,-101.03 355.12,-86.54 358.97,-74 363.62,-58.85 368.77,-41.63 372.53,-28.95"/>
<polygon fill="#63b8ff" stroke="#63b8ff" points="375.95,-29.72 375.43,-19.14 369.24,-27.74 375.95,-29.72"/>
</a>
</g>
</g>
<!-- Node10 -->
<g id="Node000010" class="node">
<title>Node10</title>
<g id="a_Node000010"><a xlink:title=" ">
<polygon fill="#e0e0e0" stroke="#999999" points="210.97,-19 150.97,-19 150.97,0 210.97,0 210.97,-19"/>
<text text-anchor="middle" x="180.97" y="-7" font-family="Helvetica,sans-Serif" font-size="10.00">sys/uio.h</text>
</a>
</g>
</g>
<!-- Node3&#45;&gt;Node10 -->
<g id="edge9_Node000003_Node000010" class="edge">
<title>Node3&#45;&gt;Node10</title>
<g id="a_edge9_Node000003_Node000010"><a xlink:title=" ">
<path fill="none" stroke="#63b8ff" d="M298.76,-113.37C251.58,-107.06 183.05,-94.59 166.97,-74 156.8,-60.97 162.85,-42.06 169.89,-28.27"/>
<polygon fill="#63b8ff" stroke="#63b8ff" points="173.09,-29.72 174.97,-19.29 167,-26.27 173.09,-29.72"/>
</a>
</g>
</g>
<!-- Node11 -->
<g id="Node000011" class="node">
<title>Node11</title>
<g id="a_Node000011"><a xlink:href="sd__cred__forward_8h.html" target="_top" xlink:title=" ">
<polygon fill="white" stroke="#666666" points="119.97,-74 13.97,-74 13.97,-55 119.97,-55 119.97,-74"/>
<text text-anchor="middle" x="66.97" y="-62" font-family="Helvetica,sans-Serif" font-size="10.00">sd_cred_forward.h</text>
</a>
</g>
</g>
<!-- Node3&#45;&gt;Node11 -->
<g id="edge10_Node000003_Node000011" class="edge">
<title>Node3&#45;&gt;Node11</title>
<g id="a_edge10_Node000003_Node000011"><a xlink:title=" ">
<path fill="none" stroke="#63b8ff" d="M300.31,-109.98C251.82,-100.74 174.32,-85.97 122.08,-76.01"/>
<polygon fill="#63b8ff" stroke="#63b8ff" points="122.47,-72.52 111.99,-74.08 121.16,-79.39 122.47,-72.52"/>
</a>
</g>
</g>
<!-- Node12 -->
<g id="Node000012" class="node">
<title>Node12</title>
<g id="a_Node000012"><a xlink:href="sd__registry_8h.html" target="_top" xlink:title=" ">
<polygon fill="white" stroke="#666666" points="253.97,-74 175.97,-74 175.97,-55 253.97,-55 253.97,-74"/>
<text text-anchor="middle" x="214.97" y="-62" font-family="Helvetica,sans-Serif" font-size="10.00">sd_registry.h</text>
</a>
</g>
</g>
<!-- Node3&#45;&gt;Node12 -->
<g id="edge12_Node000003_Node000012" class="edge">
<title>Node3&#45;&gt;Node12</title>
<g id="a_edge12_Node000003_Node000012"><a xlink:title=" ">
<path fill="none" stroke="#63b8ff" d="M324.09,-109.98C302.89,-101.34 269.85,-87.87 245.67,-78.02"/>
<polygon fill="#63b8ff" stroke="#63b8ff" points="246.82,-74.7 236.24,-74.17 244.18,-81.19 246.82,-74.7"/>
</a>
</g>
</g>
<!-- Node11&#45;&gt;Node7 -->
<g id="edge11_Node000011_Node000007" class="edge">
<title>Node11&#45;&gt;Node7</title>
<g id="a_edge11_Node000011_Node000007"><a xlink:title=" ">
<path fill="none" stroke="#63b8ff" d="M66.97,-54.75C66.97,-47.8 66.97,-37.85 66.97,-29.13"/>
<polygon fill="#63b8ff" stroke="#63b8ff" points="70.47,-29.09 66.97,-19.09 63.47,-29.09 70.47,-29.09"/>
</a>
</g>
</g>
<!-- Node12&#45;&gt;Node7 -->
<g id="edge13_Node000012_Node000007" class="edge">
<title>Node12&#45;&gt;Node7</title>
<g id="a_edge13_Node000012_Node000007"><a xlink:title=" ">
<path fill="none" stroke="#63b8ff" d="M191.2,-54.98C166.74,-46.23 128.44,-32.51 100.83,-22.62"/>
<polygon fill="#63b8ff" stroke="#63b8ff" points="101.78,-19.25 91.19,-19.17 99.42,-25.84 101.78,-19.25"/>
</a>
</g>
</g>
<!-- Node12&#45;&gt;Node9 -->
<g id="edge14_Node000012_Node000009" class="edge">
<title>Node12&#45;&gt;Node9</title>
<g id="a_edge14_Node000012_Node000009"><a xlink:title=" ">
<path fill="none" stroke="#63b8ff" d="M241.16,-54.98C268.41,-46.13 311.27,-32.19 341.76,-22.28"/>
<polygon fill="#63b8ff" stroke="#63b8ff" points="343.15,-25.5 351.58,-19.08 340.99,-18.85 343.15,-25.5"/>
</a>
</g>
</g>
<!-- Node12&#45;&gt;Node10 -->
<g id="edge15_Node000012_Node000010" class="edge">
<title>Node12&#45;&gt;Node10</title>
<g id="a_edge15_Node000012_Node000010"><a xlink:title=" ">
<path fill="none" stroke="#63b8ff" d="M209.36,-54.75C204.66,-47.42 197.8,-36.73 192,-27.7"/>
<polygon fill="#63b8ff" stroke="#63b8ff" points="194.83,-25.62 186.48,-19.09 188.94,-29.4 194.83,-25.62"/>
</a>
</g>
</g>
</g>
</svg>

<g id="navigator" transform="translate(0 0)" fill="#404254">
  <rect fill="#f2f5e9" fill-opacity="0.5" stroke="#606060" stroke-width=".5" x="0" y="0" width="60" height="60"/>
  <use id="zoomplus" xlink:href="#zoomPlus" x="17" y="9" onmousedown="handleZoom(evt,'in')"/>
  <use id="zoomminus" xlink:href="#zoomMin" x="42" y="9" onmousedown="handleZoom(evt,'out')"/>
  <use id="reset" xlink:href="#resetDef" x="30" y="36" onmousedown="handleReset()"/>
   <use id="arrowup" xlink:href="#arrowUp" x="0" y="0" onmousedown="handlePan(0,-1)"/>
  <use id="arrowright" xlink:href="#arrowRight" x="0" y="0" onmousedown="handlePan(1,0)"/>
  <use id="arrowdown" xlink:href="#arrowDown" x="0" y="0" onmousedown="handlePan(0,1)"/>
  <use id="arrowleft" xlink:href="#arrowLeft" x="0" y="0" onmousedown="handlePan(-1,0)"/>
</g>
<svg viewBox="0 0 15 15" width="100%" height="30px" preserveAspectRatio="xMaxYMin meet">
 <g id="arrow_out" transform="scale(0.3 0.3)">
  <a xlink:href="vfs__core__unittest_8c__incl_org.svg" target="_base">
   <rect id="button" ry="5" rx="5" y="6" x="6" height="38" width="38"
        fill="#f2f5e9" fill-opacity="0.5" stroke="#606060" stroke-width="1.0"/>
   <path id="arrow"
     d="M 11.500037,31.436501 C 11.940474,20.09759 22.043105,11.32322 32.158766,21.979434 L 37.068811,17.246167 C 37.068811,17.246167 37.088388,32 37.088388,32 L 22.160133,31.978069 C 22.160133,31.978069 26.997745,27.140456 26.997745,27.140456 C 18.528582,18.264221 13.291696,25.230495 11.500037,31.436501 z"
     style="fill:#404040;"/>
  </a>
 </g>
</svg>

<style type='text/css'>
<![CDATA[
[data-mouse-over-selected='false'] { opacity: 0.7; }
[data-mouse-over-selected='true']  { opacity: 1.0; }
]]>
</style>
<script type="application/ecmascript"><![CDATA[
document.addEventListener('DOMContentLoaded', (event) => {
  highlightEdges();
  highlightAdjacentNodes();
});
]]></script>
</svg>
