<?xml version="1.0" encoding="UTF-8" standalone="no"?>
<!DOCTYPE svg PUBLIC "-//W3C//DTD SVG 1.1//EN"
 "http://www.w3.org/Graphics/SVG/1.1/DTD/svg11.dtd">
<!-- Generated by graphviz version 2.43.0 (0)
 -->
<!-- Title: src/fs/vfs/vfs_internal.h Pages: 1 -->
<!--zoomable 104 -->

<svg id="main" version="1.1" xmlns="http://www.w3.org/2000/svg" xmlns:xlink="http://www.w3.org/1999/xlink" xml:space="preserve" onload="init(evt)">
<style type="text/css"><![CDATA[
.node, .edge {opacity: 0.7;}
.node.selected, .edge.selected {opacity: 1;}
.edge:hover path { stroke: red; }
.edge:hover polygon { stroke: red; fill: red; }
]]></style>

<defs>
  <circle id="rim" cx="0" cy="0" r="7"/>
  <circle id="rim2" cx="0" cy="0" r="3.5"/>
  <g id="zoomPlus">
    <use xlink:href="#rim" fill="#404040"><set attributeName="fill" to="#808080" begin="zoomplus.mouseover" end="zoomplus.mouseout"/></use>
    <path d="M-4,0h8M0,-4v8" fill="none" stroke="white" stroke-width="1.5" pointer-events="none"/>
  </g>
  <g id="zoomMin">
    <use xlink:href="#rim" fill="#404040"><set attributeName="fill" to="#808080" begin="zoomminus.mouseover" end="zoomminus.mouseout"/></use>
    <path d="M-4,0h8" fill="none" stroke="white" stroke-width="1.5" pointer-events="none"/>
  </g>
  <g id="arrowUp" transform="translate(30 24)">
    <use xlink:href="#rim"/>
    <path pointer-events="none" fill="none" stroke="white" stroke-width="1.5" d="M0,-3.0v7 M-2.5,-0.5L0,-3.0L2.5,-0.5"/>
  </g>
  <g id="arrowRight" transform="rotate(90) translate(36 -43)">
    <use xlink:href="#rim"/>
    <path pointer-events="none" fill="none" stroke="white" stroke-width="1.5" d="M0,-3.0v7 M-2.5,-0.5L0,-3.0L2.5,-0.5"/>
  </g>
  <g id="arrowDown" transform="rotate(180) translate(-30 -48)">
    <use xlink:href="#rim"/>
    <path pointer-events="none" fill="none" stroke="white" stroke-width="1.5" d="M0,-3.0v7 M-2.5,-0.5L0,-3.0L2.5,-0.5"/>
  </g>
  <g id="arrowLeft" transform="rotate(270) translate(-36 17)">
    <use xlink:href="#rim"/>
    <path pointer-events="none" fill="none" stroke="white" stroke-width="1.5" d="M0,-3.0v7 M-2.5,-0.5L0,-3.0L2.5,-0.5"/>
  </g>
  <g id="resetDef">
    <use xlink:href="#rim2" fill="#404040"><set attributeName="fill" to="#808080" begin="reset.mouseover" end="reset.mouseout"/></use>
  </g>
</defs>
<script type="application/ecmascript">
var viewWidth = 2558;
var viewHeight = 104;
var sectionId = 'dynsection-1';
</script>
<script type="application/ecmascript" xlink:href="svg.min.js"/>
<svg id="graph" class="graph">
<g id="viewport">
<title>src/fs/vfs/vfs_internal.h</title>
<!-- Node1 -->
<g id="Node000001" class="node">
<title>Node1</title>
<g id="a_Node000001"><a xlink:title=" ">
<polygon fill="#999999" stroke="#666666" points="1330.5,-96 1199.5,-96 1199.5,-77 1330.5,-77 1330.5,-96"/>
<text text-anchor="middle" x="1265" y="-84" font-family="Helvetica,sans-Serif" font-size="10.00">src/fs/vfs/vfs_internal.h</text>
</a>
</g>
</g>
<!-- Node2 -->
<g id="Node000002" class="node">
<title>Node2</title>
<g id="a_Node000002"><a xlink:href="sd__posix_8c.html" target="_top" xlink:title=" ">
<polygon fill="white" stroke="#666666" points="116,-35.5 0,-35.5 0,-5.5 116,-5.5 116,-35.5"/>
<text text-anchor="start" x="8" y="-23.5" font-family="Helvetica,sans-Serif" font-size="10.00">src/fs/backend/posix</text>
<text text-anchor="middle" x="58" y="-12.5" font-family="Helvetica,sans-Serif" font-size="10.00">/sd_posix.c</text>
</a>
</g>
</g>
<!-- Node1&#45;&gt;Node2 -->
<g id="edge1_Node000001_Node000002" class="edge">
<title>Node1&#45;&gt;Node2</title>
<g id="a_edge1_Node000001_Node000002"><a xlink:title=" ">
<path fill="none" stroke="#63b8ff" d="M1188.98,-84.95C968.38,-82.97 330.68,-74.43 125,-41 116.99,-39.7 108.58,-37.74 100.53,-35.56"/>
<polygon fill="#63b8ff" stroke="#63b8ff" points="1189.14,-88.45 1199.17,-85.04 1189.2,-81.45 1189.14,-88.45"/>
</a>
</g>
</g>
<!-- Node3 -->
<g id="Node000003" class="node">
<title>Node3</title>
<g id="a_Node000003"><a xlink:href="open_8c.html" target="_top" xlink:title=" ">
<polygon fill="white" stroke="#666666" points="244,-30 134,-30 134,-11 244,-11 244,-30"/>
<text text-anchor="middle" x="189" y="-18" font-family="Helvetica,sans-Serif" font-size="10.00">src/fs/cache/open.c</text>
</a>
</g>
</g>
<!-- Node1&#45;&gt;Node3 -->
<g id="edge2_Node000001_Node000003" class="edge">
<title>Node1&#45;&gt;Node3</title>
<g id="a_edge2_Node000001_Node000003"><a xlink:title=" ">
<path fill="none" stroke="#63b8ff" d="M1189.21,-84.64C986.1,-81.92 432.85,-71.84 253,-41 239.15,-38.62 224.09,-34.14 212.07,-30.07"/>
<polygon fill="#63b8ff" stroke="#63b8ff" points="1189.43,-88.14 1199.48,-84.77 1189.53,-81.14 1189.43,-88.14"/>
</a>
</g>
</g>
<!-- Node4 -->
<g id="Node000004" class="node">
<title>Node4</title>
<g id="a_Node000004"><a xlink:href="open__or__fill_8c.html" target="_top" xlink:title=" ">
<polygon fill="white" stroke="#666666" points="378,-35.5 262,-35.5 262,-5.5 378,-5.5 378,-35.5"/>
<text text-anchor="start" x="270" y="-23.5" font-family="Helvetica,sans-Serif" font-size="10.00">src/fs/cache/open_or</text>
<text text-anchor="middle" x="320" y="-12.5" font-family="Helvetica,sans-Serif" font-size="10.00">_fill.c</text>
</a>
</g>
</g>
<!-- Node1&#45;&gt;Node4 -->
<g id="edge3_Node000001_Node000004" class="edge">
<title>Node1&#45;&gt;Node4</title>
<g id="a_edge3_Node000001_Node000004"><a xlink:title=" ">
<path fill="none" stroke="#63b8ff" d="M1189.1,-83.92C1005.3,-79.72 540.25,-66.82 387,-41 379.12,-39.67 370.84,-37.73 362.91,-35.58"/>
<polygon fill="#63b8ff" stroke="#63b8ff" points="1189.14,-87.42 1199.21,-84.15 1189.3,-80.42 1189.14,-87.42"/>
</a>
</g>
</g>
<!-- Node5 -->
<g id="Node000005" class="node">
<title>Node5</title>
<g id="a_Node000005"><a xlink:href="vfs__copy_8c.html" target="_top" xlink:title=" ">
<polygon fill="white" stroke="#666666" points="510,-30 396,-30 396,-11 510,-11 510,-30"/>
<text text-anchor="middle" x="453" y="-18" font-family="Helvetica,sans-Serif" font-size="10.00">src/fs/vfs/vfs_copy.c</text>
</a>
</g>
</g>
<!-- Node1&#45;&gt;Node5 -->
<g id="edge4_Node000001_Node000005" class="edge">
<title>Node1&#45;&gt;Node5</title>
<g id="a_edge4_Node000001_Node000005"><a xlink:title=" ">
<path fill="none" stroke="#63b8ff" d="M1188.84,-83.16C1025.49,-77.78 646.01,-63.25 519,-41 504.88,-38.53 489.49,-34.09 477.13,-30.07"/>
<polygon fill="#63b8ff" stroke="#63b8ff" points="1189.18,-86.67 1199.28,-83.5 1189.4,-79.67 1189.18,-86.67"/>
</a>
</g>
</g>
<!-- Node6 -->
<g id="Node000006" class="node">
<title>Node6</title>
<g id="a_Node000006"><a xlink:href="vfs__dir_8c.html" target="_top" xlink:title=" ">
<polygon fill="white" stroke="#666666" points="632,-30 528,-30 528,-11 632,-11 632,-30"/>
<text text-anchor="middle" x="580" y="-18" font-family="Helvetica,sans-Serif" font-size="10.00">src/fs/vfs/vfs_dir.c</text>
</a>
</g>
</g>
<!-- Node1&#45;&gt;Node6 -->
<g id="edge5_Node000001_Node000006" class="edge">
<title>Node1&#45;&gt;Node6</title>
<g id="a_edge5_Node000001_Node000006"><a xlink:title=" ">
<path fill="none" stroke="#63b8ff" d="M1189.17,-85.88C1070.96,-85.17 836.08,-78.58 641,-41 627.9,-38.48 613.68,-34.03 602.26,-30.03"/>
<polygon fill="#63b8ff" stroke="#63b8ff" points="1189.19,-89.38 1199.2,-85.93 1189.22,-82.38 1189.19,-89.38"/>
</a>
</g>
</g>
<!-- Node7 -->
<g id="Node000007" class="node">
<title>Node7</title>
<g id="a_Node000007"><a xlink:href="vfs__io__core_8c.html" target="_top" xlink:title=" ">
<polygon fill="white" stroke="#666666" points="778,-30 650,-30 650,-11 778,-11 778,-30"/>
<text text-anchor="middle" x="714" y="-18" font-family="Helvetica,sans-Serif" font-size="10.00">src/fs/vfs/vfs_io_core.c</text>
</a>
</g>
</g>
<!-- Node1&#45;&gt;Node7 -->
<g id="edge6_Node000001_Node000007" class="edge">
<title>Node1&#45;&gt;Node7</title>
<g id="a_edge6_Node000001_Node000007"><a xlink:title=" ">
<path fill="none" stroke="#63b8ff" d="M1189.14,-82.38C1094.41,-77.58 927.71,-66.16 787,-41 771.76,-38.28 755.06,-33.92 741.49,-30.02"/>
<polygon fill="#63b8ff" stroke="#63b8ff" points="1189.04,-85.88 1199.2,-82.88 1189.38,-78.89 1189.04,-85.88"/>
</a>
</g>
</g>
<!-- Node8 -->
<g id="Node000008" class="node">
<title>Node8</title>
<g id="a_Node000008"><a xlink:href="vfs__mkdir_8c.html" target="_top" xlink:title=" ">
<polygon fill="white" stroke="#666666" points="916,-30 796,-30 796,-11 916,-11 916,-30"/>
<text text-anchor="middle" x="856" y="-18" font-family="Helvetica,sans-Serif" font-size="10.00">src/fs/vfs/vfs_mkdir.c</text>
</a>
</g>
</g>
<!-- Node1&#45;&gt;Node8 -->
<g id="edge7_Node000001_Node000008" class="edge">
<title>Node1&#45;&gt;Node8</title>
<g id="a_edge7_Node000001_Node000008"><a xlink:title=" ">
<path fill="none" stroke="#63b8ff" d="M1188.97,-78.74C1119.72,-71.83 1014.85,-59.47 925,-41 910.86,-38.09 895.36,-33.82 882.65,-30.01"/>
<polygon fill="#63b8ff" stroke="#63b8ff" points="1189.06,-82.27 1199.35,-79.76 1189.74,-75.3 1189.06,-82.27"/>
</a>
</g>
</g>
<!-- Node9 -->
<g id="Node000009" class="node">
<title>Node9</title>
<g id="a_Node000009"><a xlink:href="vfs__open_8c.html" target="_top" xlink:title=" ">
<polygon fill="white" stroke="#666666" points="1050,-30 934,-30 934,-11 1050,-11 1050,-30"/>
<text text-anchor="middle" x="992" y="-18" font-family="Helvetica,sans-Serif" font-size="10.00">src/fs/vfs/vfs_open.c</text>
</a>
</g>
</g>
<!-- Node1&#45;&gt;Node9 -->
<g id="edge8_Node000001_Node000009" class="edge">
<title>Node1&#45;&gt;Node9</title>
<g id="a_edge8_Node000001_Node000009"><a xlink:title=" ">
<path fill="none" stroke="#63b8ff" d="M1211.04,-74.93C1169.34,-66.5 1110.28,-53.98 1059,-41 1045.96,-37.7 1031.64,-33.59 1019.59,-30"/>
<polygon fill="#63b8ff" stroke="#63b8ff" points="1210.5,-78.39 1220.99,-76.93 1211.88,-71.52 1210.5,-78.39"/>
</a>
</g>
</g>
<!-- Node10 -->
<g id="Node000010" class="node">
<title>Node10</title>
<g id="a_Node000010"><a xlink:href="vfs__read_8c.html" target="_top" xlink:title=" ">
<polygon fill="white" stroke="#666666" points="1182,-30 1068,-30 1068,-11 1182,-11 1182,-30"/>
<text text-anchor="middle" x="1125" y="-18" font-family="Helvetica,sans-Serif" font-size="10.00">src/fs/vfs/vfs_read.c</text>
</a>
</g>
</g>
<!-- Node1&#45;&gt;Node10 -->
<g id="edge9_Node000001_Node000010" class="edge">
<title>Node1&#45;&gt;Node10</title>
<g id="a_edge9_Node000001_Node000010"><a xlink:title=" ">
<path fill="none" stroke="#63b8ff" d="M1236.99,-72.69C1209.4,-60.08 1168,-41.16 1144.03,-30.2"/>
<polygon fill="#63b8ff" stroke="#63b8ff" points="1235.57,-75.89 1246.12,-76.87 1238.48,-69.53 1235.57,-75.89"/>
</a>
</g>
</g>
<!-- Node11 -->
<g id="Node000011" class="node">
<title>Node11</title>
<g id="a_Node000011"><a xlink:href="vfs__rename_8c.html" target="_top" xlink:title=" ">
<polygon fill="white" stroke="#666666" points="1330,-30 1200,-30 1200,-11 1330,-11 1330,-30"/>
<text text-anchor="middle" x="1265" y="-18" font-family="Helvetica,sans-Serif" font-size="10.00">src/fs/vfs/vfs_rename.c</text>
</a>
</g>
</g>
<!-- Node1&#45;&gt;Node11 -->
<g id="edge10_Node000001_Node000011" class="edge">
<title>Node1&#45;&gt;Node11</title>
<g id="a_edge10_Node000001_Node000011"><a xlink:title=" ">
<path fill="none" stroke="#63b8ff" d="M1265,-66.58C1265,-54.63 1265,-39.72 1265,-30.41"/>
<polygon fill="#63b8ff" stroke="#63b8ff" points="1261.5,-66.87 1265,-76.87 1268.5,-66.87 1261.5,-66.87"/>
</a>
</g>
</g>
<!-- Node12 -->
<g id="Node000012" class="node">
<title>Node12</title>
<g id="a_Node000012"><a xlink:href="vfs__staged_8c.html" target="_top" xlink:title=" ">
<polygon fill="white" stroke="#666666" points="1473.5,-30 1348.5,-30 1348.5,-11 1473.5,-11 1473.5,-30"/>
<text text-anchor="middle" x="1411" y="-18" font-family="Helvetica,sans-Serif" font-size="10.00">src/fs/vfs/vfs_staged.c</text>
</a>
</g>
</g>
<!-- Node1&#45;&gt;Node12 -->
<g id="edge11_Node000001_Node000012" class="edge">
<title>Node1&#45;&gt;Node12</title>
<g id="a_edge11_Node000001_Node000012"><a xlink:title=" ">
<path fill="none" stroke="#63b8ff" d="M1294.21,-72.69C1322.99,-60.08 1366.15,-41.16 1391.16,-30.2"/>
<polygon fill="#63b8ff" stroke="#63b8ff" points="1292.44,-69.65 1284.69,-76.87 1295.25,-76.06 1292.44,-69.65"/>
</a>
</g>
</g>
<!-- Node13 -->
<g id="Node000013" class="node">
<title>Node13</title>
<g id="a_Node000013"><a xlink:href="vfs__stat_8c.html" target="_top" xlink:title=" ">
<polygon fill="white" stroke="#666666" points="1602.5,-30 1491.5,-30 1491.5,-11 1602.5,-11 1602.5,-30"/>
<text text-anchor="middle" x="1547" y="-18" font-family="Helvetica,sans-Serif" font-size="10.00">src/fs/vfs/vfs_stat.c</text>
</a>
</g>
</g>
<!-- Node1&#45;&gt;Node13 -->
<g id="edge12_Node000001_Node000013" class="edge">
<title>Node1&#45;&gt;Node13</title>
<g id="a_edge12_Node000001_Node000013"><a xlink:title=" ">
<path fill="none" stroke="#63b8ff" d="M1323.32,-75.14C1367.42,-66.94 1429.33,-54.62 1483,-41 1495.61,-37.8 1509.44,-33.67 1521,-30.03"/>
<polygon fill="#63b8ff" stroke="#63b8ff" points="1322.55,-71.73 1313.35,-76.98 1323.82,-78.61 1322.55,-71.73"/>
</a>
</g>
</g>
<!-- Node14 -->
<g id="Node000014" class="node">
<title>Node14</title>
<g id="a_Node000014"><a xlink:href="vfs__sync_8c.html" target="_top" xlink:title=" ">
<polygon fill="white" stroke="#666666" points="1735.5,-30 1620.5,-30 1620.5,-11 1735.5,-11 1735.5,-30"/>
<text text-anchor="middle" x="1678" y="-18" font-family="Helvetica,sans-Serif" font-size="10.00">src/fs/vfs/vfs_sync.c</text>
</a>
</g>
</g>
<!-- Node1&#45;&gt;Node14 -->
<g id="edge13_Node000001_Node000014" class="edge">
<title>Node1&#45;&gt;Node14</title>
<g id="a_edge13_Node000001_Node000014"><a xlink:title=" ">
<path fill="none" stroke="#63b8ff" d="M1340.91,-79.28C1411.6,-72.67 1519.66,-60.43 1612,-41 1625.56,-38.15 1640.39,-33.87 1652.54,-30.06"/>
<polygon fill="#63b8ff" stroke="#63b8ff" points="1340.39,-75.82 1330.76,-80.22 1341.03,-82.79 1340.39,-75.82"/>
</a>
</g>
</g>
<!-- Node15 -->
<g id="Node000015" class="node">
<title>Node15</title>
<g id="a_Node000015"><a xlink:href="vfs__unlink_8c.html" target="_top" xlink:title=" ">
<polygon fill="white" stroke="#666666" points="1876,-30 1754,-30 1754,-11 1876,-11 1876,-30"/>
<text text-anchor="middle" x="1815" y="-18" font-family="Helvetica,sans-Serif" font-size="10.00">src/fs/vfs/vfs_unlink.c</text>
</a>
</g>
</g>
<!-- Node1&#45;&gt;Node15 -->
<g id="edge14_Node000001_Node000015" class="edge">
<title>Node1&#45;&gt;Node15</title>
<g id="a_edge14_Node000001_Node000015"><a xlink:title=" ">
<path fill="none" stroke="#63b8ff" d="M1340.83,-82.67C1435.92,-78.16 1603.64,-67.02 1745,-41 1759.64,-38.3 1775.66,-33.95 1788.67,-30.04"/>
<polygon fill="#63b8ff" stroke="#63b8ff" points="1340.55,-79.18 1330.72,-83.14 1340.88,-86.17 1340.55,-79.18"/>
</a>
</g>
</g>
<!-- Node16 -->
<g id="Node000016" class="node">
<title>Node16</title>
<g id="a_Node000016"><a xlink:href="vfs__walk_8c.html" target="_top" xlink:title=" ">
<polygon fill="white" stroke="#666666" points="2010,-30 1894,-30 1894,-11 2010,-11 2010,-30"/>
<text text-anchor="middle" x="1952" y="-18" font-family="Helvetica,sans-Serif" font-size="10.00">src/fs/vfs/vfs_walk.c</text>
</a>
</g>
</g>
<!-- Node1&#45;&gt;Node16 -->
<g id="edge15_Node000001_Node000016" class="edge">
<title>Node1&#45;&gt;Node16</title>
<g id="a_edge15_Node000001_Node000016"><a xlink:title=" ">
<path fill="none" stroke="#63b8ff" d="M1341.05,-85.2C1458.61,-83.58 1691.15,-75.76 1885,-41 1899.19,-38.46 1914.67,-34.06 1927.16,-30.09"/>
<polygon fill="#63b8ff" stroke="#63b8ff" points="1340.68,-81.7 1330.73,-85.33 1340.77,-88.7 1340.68,-81.7"/>
</a>
</g>
</g>
<!-- Node17 -->
<g id="Node000017" class="node">
<title>Node17</title>
<g id="a_Node000017"><a xlink:href="vfs__write_8c.html" target="_top" xlink:title=" ">
<polygon fill="white" stroke="#666666" points="2145.5,-30 2028.5,-30 2028.5,-11 2145.5,-11 2145.5,-30"/>
<text text-anchor="middle" x="2087" y="-18" font-family="Helvetica,sans-Serif" font-size="10.00">src/fs/vfs/vfs_write.c</text>
</a>
</g>
</g>
<!-- Node1&#45;&gt;Node17 -->
<g id="edge16_Node000001_Node000017" class="edge">
<title>Node1&#45;&gt;Node17</title>
<g id="a_edge16_Node000001_Node000017"><a xlink:title=" ">
<path fill="none" stroke="#63b8ff" d="M1340.56,-83.16C1504.85,-77.72 1890.18,-63 2019,-41 2033.53,-38.52 2049.38,-34.08 2062.12,-30.06"/>
<polygon fill="#63b8ff" stroke="#63b8ff" points="1340.41,-79.66 1330.53,-83.49 1340.64,-86.66 1340.41,-79.66"/>
</a>
</g>
</g>
<!-- Node18 -->
<g id="Node000018" class="node">
<title>Node18</title>
<g id="a_Node000018"><a xlink:href="vfs__xattr_8c.html" target="_top" xlink:title=" ">
<polygon fill="white" stroke="#666666" points="2278.5,-30 2163.5,-30 2163.5,-11 2278.5,-11 2278.5,-30"/>
<text text-anchor="middle" x="2221" y="-18" font-family="Helvetica,sans-Serif" font-size="10.00">src/fs/vfs/vfs_xattr.c</text>
</a>
</g>
</g>
<!-- Node1&#45;&gt;Node18 -->
<g id="edge17_Node000001_Node000018" class="edge">
<title>Node1&#45;&gt;Node18</title>
<g id="a_edge17_Node000001_Node000018"><a xlink:title=" ">
<path fill="none" stroke="#63b8ff" d="M1340.94,-84.02C1526.56,-80.02 1999.42,-67.48 2155,-41 2169.25,-38.57 2184.78,-34.08 2197.19,-30.02"/>
<polygon fill="#63b8ff" stroke="#63b8ff" points="1340.65,-80.52 1330.73,-84.23 1340.8,-87.52 1340.65,-80.52"/>
</a>
</g>
</g>
<!-- Node19 -->
<g id="Node000019" class="node">
<title>Node19</title>
<g id="a_Node000019"><a xlink:href="open__request_8c.html" target="_top" xlink:title=" ">
<polygon fill="white" stroke="#666666" points="2415.5,-35.5 2296.5,-35.5 2296.5,-5.5 2415.5,-5.5 2415.5,-35.5"/>
<text text-anchor="start" x="2304.5" y="-23.5" font-family="Helvetica,sans-Serif" font-size="10.00">src/protocols/root</text>
<text text-anchor="middle" x="2356" y="-12.5" font-family="Helvetica,sans-Serif" font-size="10.00">/read/open_request.c</text>
</a>
</g>
</g>
<!-- Node1&#45;&gt;Node19 -->
<g id="edge18_Node000001_Node000019" class="edge">
<title>Node1&#45;&gt;Node19</title>
<g id="a_edge18_Node000001_Node000019"><a xlink:title=" ">
<path fill="none" stroke="#63b8ff" d="M1340.56,-84.52C1544.95,-81.5 2105.64,-70.69 2288,-41 2296.12,-39.68 2304.65,-37.71 2312.82,-35.53"/>
<polygon fill="#63b8ff" stroke="#63b8ff" points="1340.46,-81.02 1330.51,-84.67 1340.56,-88.02 1340.46,-81.02"/>
</a>
</g>
</g>
<!-- Node20 -->
<g id="Node000020" class="node">
<title>Node20</title>
<g id="a_Node000020"><a xlink:href="open__resolved__file_8c.html" target="_top" xlink:title=" ">
<polygon fill="white" stroke="#666666" points="2550,-41 2434,-41 2434,0 2550,0 2550,-41"/>
<text text-anchor="start" x="2442" y="-29" font-family="Helvetica,sans-Serif" font-size="10.00">src/protocols/root</text>
<text text-anchor="start" x="2442" y="-18" font-family="Helvetica,sans-Serif" font-size="10.00">/read/open_resolved</text>
<text text-anchor="middle" x="2492" y="-7" font-family="Helvetica,sans-Serif" font-size="10.00">_file.c</text>
</a>
</g>
</g>
<!-- Node1&#45;&gt;Node20 -->
<g id="edge19_Node000001_Node000020" class="edge">
<title>Node1&#45;&gt;Node20</title>
<g id="a_edge19_Node000001_Node000020"><a xlink:title=" ">
<path fill="none" stroke="#63b8ff" d="M1341.17,-85.01C1564.55,-83.18 2215.34,-75 2425,-41 2427.87,-40.53 2430.79,-39.98 2433.73,-39.37"/>
<polygon fill="#63b8ff" stroke="#63b8ff" points="1340.83,-81.51 1330.86,-85.09 1340.89,-88.51 1340.83,-81.51"/>
</a>
</g>
</g>
</g>
</svg>

<g id="navigator" transform="translate(0 0)" fill="#404254">
  <rect fill="#f2f5e9" fill-opacity="0.5" stroke="#606060" stroke-width=".5" x="0" y="0" width="60" height="60"/>
  <use id="zoomplus" xlink:href="#zoomPlus" x="17" y="9" onmousedown="handleZoom(evt,'in')"/>
  <use id="zoomminus" xlink:href="#zoomMin" x="42" y="9" onmousedown="handleZoom(evt,'out')"/>
  <use id="reset" xlink:href="#resetDef" x="30" y="36" onmousedown="handleReset()"/>
   <use id="arrowup" xlink:href="#arrowUp" x="0" y="0" onmousedown="handlePan(0,-1)"/>
  <use id="arrowright" xlink:href="#arrowRight" x="0" y="0" onmousedown="handlePan(1,0)"/>
  <use id="arrowdown" xlink:href="#arrowDown" x="0" y="0" onmousedown="handlePan(0,1)"/>
  <use id="arrowleft" xlink:href="#arrowLeft" x="0" y="0" onmousedown="handlePan(-1,0)"/>
</g>
<svg viewBox="0 0 15 15" width="100%" height="30px" preserveAspectRatio="xMaxYMin meet">
 <g id="arrow_out" transform="scale(0.3 0.3)">
  <a xlink:href="vfs__internal_8h__dep__incl_org.svg" target="_base">
   <rect id="button" ry="5" rx="5" y="6" x="6" height="38" width="38"
        fill="#f2f5e9" fill-opacity="0.5" stroke="#606060" stroke-width="1.0"/>
   <path id="arrow"
     d="M 11.500037,31.436501 C 11.940474,20.09759 22.043105,11.32322 32.158766,21.979434 L 37.068811,17.246167 C 37.068811,17.246167 37.088388,32 37.088388,32 L 22.160133,31.978069 C 22.160133,31.978069 26.997745,27.140456 26.997745,27.140456 C 18.528582,18.264221 13.291696,25.230495 11.500037,31.436501 z"
     style="fill:#404040;"/>
  </a>
 </g>
</svg>

<style type='text/css'>
<![CDATA[
[data-mouse-over-selected='false'] { opacity: 0.7; }
[data-mouse-over-selected='true']  { opacity: 1.0; }
]]>
</style>
<script type="application/ecmascript"><![CDATA[
document.addEventListener('DOMContentLoaded', (event) => {
  highlightEdges();
  highlightAdjacentNodes();
});
]]></script>
</svg>
