<?xml version="1.0" encoding="UTF-8" standalone="no"?>
<!DOCTYPE svg PUBLIC "-//W3C//DTD SVG 1.1//EN"
 "http://www.w3.org/Graphics/SVG/1.1/DTD/svg11.dtd">
<!-- Generated by graphviz version 2.43.0 (0)
 -->
<!-- Title: client/lib/fs/vfs_block.c Pages: 1 -->
<svg width="1519pt" height="445pt"
 viewBox="0.00 0.00 1519.00 445.00" xmlns="http://www.w3.org/2000/svg" xmlns:xlink="http://www.w3.org/1999/xlink">
<g id="graph0" class="graph" transform="scale(1 1) rotate(0) translate(4 441)">
<title>client/lib/fs/vfs_block.c</title>
<!-- Node1 -->
<g id="Node000001" class="node">
<title>Node1</title>
<g id="a_Node000001"><a xlink:title=" ">
<polygon fill="#999999" stroke="#666666" points="1161,-437 1033,-437 1033,-418 1161,-418 1161,-437"/>
<text text-anchor="middle" x="1097" y="-425" font-family="Helvetica,sans-Serif" font-size="10.00">client/lib/fs/vfs_block.c</text>
</a>
</g>
</g>
<!-- Node2 -->
<g id="Node000002" class="node">
<title>Node2</title>
<g id="a_Node000002"><a xlink:href="client_2lib_2fs_2vfs_8h.html" target="_top" xlink:title=" ">
<polygon fill="white" stroke="#666666" points="798.5,-382 757.5,-382 757.5,-363 798.5,-363 798.5,-382"/>
<text text-anchor="middle" x="778" y="-370" font-family="Helvetica,sans-Serif" font-size="10.00">vfs.h</text>
</a>
</g>
</g>
<!-- Node1&#45;&gt;Node2 -->
<g id="edge1_Node000001_Node000002" class="edge">
<title>Node1&#45;&gt;Node2</title>
<g id="a_edge1_Node000001_Node000002"><a xlink:title=" ">
<path fill="none" stroke="#63b8ff" d="M1032.87,-418.93C976.27,-411.73 891.4,-399.65 808.42,-381.83"/>
<polygon fill="#63b8ff" stroke="#63b8ff" points="809.09,-378.4 798.57,-379.69 807.6,-385.24 809.09,-378.4"/>
</a>
</g>
</g>
<!-- Node3 -->
<g id="Node000003" class="node">
<title>Node3</title>
<g id="a_Node000003"><a xlink:href="brix_8h.html" target="_top" xlink:title=" ">
<polygon fill="white" stroke="#666666" points="603,-327 559,-327 559,-308 603,-308 603,-327"/>
<text text-anchor="middle" x="581" y="-315" font-family="Helvetica,sans-Serif" font-size="10.00">brix.h</text>
</a>
</g>
</g>
<!-- Node1&#45;&gt;Node3 -->
<g id="edge34_Node000001_Node000003" class="edge">
<title>Node1&#45;&gt;Node3</title>
<g id="a_edge34_Node000001_Node000003"><a xlink:title=" ">
<path fill="none" stroke="#63b8ff" d="M1032.89,-425.38C955.98,-422.59 823.79,-413.19 715,-382 674.01,-370.25 629.96,-347.11 603.97,-332.25"/>
<polygon fill="#63b8ff" stroke="#63b8ff" points="605.66,-329.18 595.25,-327.19 602.14,-335.24 605.66,-329.18"/>
</a>
</g>
</g>
<!-- Node6 -->
<g id="Node000006" class="node">
<title>Node6</title>
<g id="a_Node000006"><a xlink:title=" ">
<polygon fill="#e0e0e0" stroke="#999999" points="754,-266.5 704,-266.5 704,-247.5 754,-247.5 754,-266.5"/>
<text text-anchor="middle" x="729" y="-254.5" font-family="Helvetica,sans-Serif" font-size="10.00">stdio.h</text>
</a>
</g>
</g>
<!-- Node1&#45;&gt;Node6 -->
<g id="edge49_Node000001_Node000006" class="edge">
<title>Node1&#45;&gt;Node6</title>
<g id="a_edge49_Node000001_Node000006"><a xlink:title=" ">
<path fill="none" stroke="#63b8ff" d="M1032.87,-427.14C943.57,-426.6 788.28,-420.02 749,-382 720.76,-354.67 722.37,-304.35 725.8,-276.97"/>
<polygon fill="#63b8ff" stroke="#63b8ff" points="729.31,-277.17 727.3,-266.77 722.38,-276.15 729.31,-277.17"/>
</a>
</g>
</g>
<!-- Node22 -->
<g id="Node000022" class="node">
<title>Node22</title>
<g id="a_Node000022"><a xlink:href="src_2core_2aio_2uring_8h.html" target="_top" xlink:title=" ">
<polygon fill="white" stroke="#666666" points="909,-382 817,-382 817,-363 909,-363 909,-382"/>
<text text-anchor="middle" x="863" y="-370" font-family="Helvetica,sans-Serif" font-size="10.00">core/aio/uring.h</text>
</a>
</g>
</g>
<!-- Node1&#45;&gt;Node22 -->
<g id="edge33_Node000001_Node000022" class="edge">
<title>Node1&#45;&gt;Node22</title>
<g id="a_edge33_Node000001_Node000022"><a xlink:title=" ">
<path fill="none" stroke="#63b8ff" d="M1059.4,-417.98C1019.01,-408.84 954.72,-394.27 910.77,-384.32"/>
<polygon fill="#63b8ff" stroke="#63b8ff" points="911.42,-380.88 900.89,-382.08 909.87,-387.7 911.42,-380.88"/>
</a>
</g>
</g>
<!-- Node23 -->
<g id="Node000023" class="node">
<title>Node23</title>
<g id="a_Node000023"><a xlink:href="sd_8h.html" target="_top" xlink:title=" ">
<polygon fill="white" stroke="#666666" points="1143,-327 1051,-327 1051,-308 1143,-308 1143,-327"/>
<text text-anchor="middle" x="1097" y="-315" font-family="Helvetica,sans-Serif" font-size="10.00">fs/backend/sd.h</text>
</a>
</g>
</g>
<!-- Node1&#45;&gt;Node23 -->
<g id="edge35_Node000001_Node000023" class="edge">
<title>Node1&#45;&gt;Node23</title>
<g id="a_edge35_Node000001_Node000023"><a xlink:title=" ">
<path fill="none" stroke="#63b8ff" d="M1097,-417.66C1097,-400.17 1097,-360.8 1097,-337.27"/>
<polygon fill="#63b8ff" stroke="#63b8ff" points="1100.5,-337.16 1097,-327.16 1093.5,-337.16 1100.5,-337.16"/>
</a>
</g>
</g>
<!-- Node26 -->
<g id="Node000026" class="node">
<title>Node26</title>
<g id="a_Node000026"><a xlink:title=" ">
<polygon fill="#e0e0e0" stroke="#999999" points="1013.5,-266.5 962.5,-266.5 962.5,-247.5 1013.5,-247.5 1013.5,-266.5"/>
<text text-anchor="middle" x="988" y="-254.5" font-family="Helvetica,sans-Serif" font-size="10.00">errno.h</text>
</a>
</g>
</g>
<!-- Node1&#45;&gt;Node26 -->
<g id="edge47_Node000001_Node000026" class="edge">
<title>Node1&#45;&gt;Node26</title>
<g id="a_edge47_Node000001_Node000026"><a xlink:title=" ">
<path fill="none" stroke="#63b8ff" d="M1091.44,-417.91C1074.39,-391.55 1022.56,-311.43 999.4,-275.62"/>
<polygon fill="#63b8ff" stroke="#63b8ff" points="1002.04,-273.27 993.67,-266.77 996.17,-277.07 1002.04,-273.27"/>
</a>
</g>
</g>
<!-- Node27 -->
<g id="Node000027" class="node">
<title>Node27</title>
<g id="a_Node000027"><a xlink:title=" ">
<polygon fill="#e0e0e0" stroke="#999999" points="1434,-266.5 1370,-266.5 1370,-247.5 1434,-247.5 1434,-266.5"/>
<text text-anchor="middle" x="1402" y="-254.5" font-family="Helvetica,sans-Serif" font-size="10.00">sys/stat.h</text>
</a>
</g>
</g>
<!-- Node1&#45;&gt;Node27 -->
<g id="edge53_Node000001_Node000027" class="edge">
<title>Node1&#45;&gt;Node27</title>
<g id="a_edge53_Node000001_Node000027"><a xlink:title=" ">
<path fill="none" stroke="#63b8ff" d="M1103.18,-417.59C1112.87,-404.18 1132.83,-378.71 1155,-363 1191.21,-337.35 1310.28,-291.74 1368.86,-270.07"/>
<polygon fill="#63b8ff" stroke="#63b8ff" points="1370.22,-273.3 1378.39,-266.56 1367.8,-266.73 1370.22,-273.3"/>
</a>
</g>
</g>
<!-- Node29 -->
<g id="Node000029" class="node">
<title>Node29</title>
<g id="a_Node000029"><a xlink:href="vfs__core_8h.html" target="_top" xlink:title=" ">
<polygon fill="white" stroke="#666666" points="1030.5,-382 927.5,-382 927.5,-363 1030.5,-363 1030.5,-382"/>
<text text-anchor="middle" x="979" y="-370" font-family="Helvetica,sans-Serif" font-size="10.00">fs/core/vfs_core.h</text>
</a>
</g>
</g>
<!-- Node1&#45;&gt;Node29 -->
<g id="edge43_Node000001_Node000029" class="edge">
<title>Node1&#45;&gt;Node29</title>
<g id="a_edge43_Node000001_Node000029"><a xlink:title=" ">
<path fill="none" stroke="#63b8ff" d="M1078.04,-417.98C1058.97,-409.42 1029.34,-396.11 1007.45,-386.28"/>
<polygon fill="#63b8ff" stroke="#63b8ff" points="1008.86,-383.07 998.3,-382.17 1005.99,-389.46 1008.86,-383.07"/>
</a>
</g>
</g>
<!-- Node30 -->
<g id="Node000030" class="node">
<title>Node30</title>
<g id="a_Node000030"><a xlink:title=" ">
<polygon fill="#e0e0e0" stroke="#999999" points="1210.5,-382 1163.5,-382 1163.5,-363 1210.5,-363 1210.5,-382"/>
<text text-anchor="middle" x="1187" y="-370" font-family="Helvetica,sans-Serif" font-size="10.00">fcntl.h</text>
</a>
</g>
</g>
<!-- Node1&#45;&gt;Node30 -->
<g id="edge48_Node000001_Node000030" class="edge">
<title>Node1&#45;&gt;Node30</title>
<g id="a_edge48_Node000001_Node000030"><a xlink:title=" ">
<path fill="none" stroke="#63b8ff" d="M1111.46,-417.98C1125.42,-409.77 1146.79,-397.18 1163.25,-387.49"/>
<polygon fill="#63b8ff" stroke="#63b8ff" points="1165.44,-390.26 1172.28,-382.17 1161.88,-384.23 1165.44,-390.26"/>
</a>
</g>
</g>
<!-- Node31 -->
<g id="Node000031" class="node">
<title>Node31</title>
<g id="a_Node000031"><a xlink:title=" ">
<polygon fill="#e0e0e0" stroke="#999999" points="1281.5,-382 1228.5,-382 1228.5,-363 1281.5,-363 1281.5,-382"/>
<text text-anchor="middle" x="1255" y="-370" font-family="Helvetica,sans-Serif" font-size="10.00">stdlib.h</text>
</a>
</g>
</g>
<!-- Node1&#45;&gt;Node31 -->
<g id="edge50_Node000001_Node000031" class="edge">
<title>Node1&#45;&gt;Node31</title>
<g id="a_edge50_Node000001_Node000031"><a xlink:title=" ">
<path fill="none" stroke="#63b8ff" d="M1122.39,-417.98C1148.8,-409.13 1190.35,-395.19 1219.89,-385.28"/>
<polygon fill="#63b8ff" stroke="#63b8ff" points="1221.05,-388.58 1229.42,-382.08 1218.82,-381.94 1221.05,-388.58"/>
</a>
</g>
</g>
<!-- Node32 -->
<g id="Node000032" class="node">
<title>Node32</title>
<g id="a_Node000032"><a xlink:title=" ">
<polygon fill="#e0e0e0" stroke="#999999" points="1352.5,-382 1299.5,-382 1299.5,-363 1352.5,-363 1352.5,-382"/>
<text text-anchor="middle" x="1326" y="-370" font-family="Helvetica,sans-Serif" font-size="10.00">string.h</text>
</a>
</g>
</g>
<!-- Node1&#45;&gt;Node32 -->
<g id="edge51_Node000001_Node000032" class="edge">
<title>Node1&#45;&gt;Node32</title>
<g id="a_edge51_Node000001_Node000032"><a xlink:title=" ">
<path fill="none" stroke="#63b8ff" d="M1134.95,-417.95C1172.02,-409.56 1230.3,-396.28 1289.38,-382.36"/>
<polygon fill="#63b8ff" stroke="#63b8ff" points="1290.33,-385.74 1299.26,-380.03 1288.72,-378.92 1290.33,-385.74"/>
</a>
</g>
</g>
<!-- Node33 -->
<g id="Node000033" class="node">
<title>Node33</title>
<g id="a_Node000033"><a xlink:title=" ">
<polygon fill="#e0e0e0" stroke="#999999" points="1437,-382 1371,-382 1371,-363 1437,-363 1437,-382"/>
<text text-anchor="middle" x="1404" y="-370" font-family="Helvetica,sans-Serif" font-size="10.00">sys/ioctl.h</text>
</a>
</g>
</g>
<!-- Node1&#45;&gt;Node33 -->
<g id="edge52_Node000001_Node000033" class="edge">
<title>Node1&#45;&gt;Node33</title>
<g id="a_edge52_Node000001_Node000033"><a xlink:title=" ">
<path fill="none" stroke="#63b8ff" d="M1150.89,-417.99C1202.3,-409.75 1282.18,-396.63 1360.51,-382.23"/>
<polygon fill="#63b8ff" stroke="#63b8ff" points="1361.35,-385.63 1370.55,-380.37 1360.08,-378.75 1361.35,-385.63"/>
</a>
</g>
</g>
<!-- Node34 -->
<g id="Node000034" class="node">
<title>Node34</title>
<g id="a_Node000034"><a xlink:title=" ">
<polygon fill="#e0e0e0" stroke="#999999" points="1511,-382 1455,-382 1455,-363 1511,-363 1511,-382"/>
<text text-anchor="middle" x="1483" y="-370" font-family="Helvetica,sans-Serif" font-size="10.00">unistd.h</text>
</a>
</g>
</g>
<!-- Node1&#45;&gt;Node34 -->
<g id="edge54_Node000001_Node000034" class="edge">
<title>Node1&#45;&gt;Node34</title>
<g id="a_edge54_Node000001_Node000034"><a xlink:title=" ">
<path fill="none" stroke="#63b8ff" d="M1161.29,-420.23C1229.34,-413.16 1340.04,-400.43 1444.67,-382.08"/>
<polygon fill="#63b8ff" stroke="#63b8ff" points="1445.54,-385.48 1454.78,-380.29 1444.32,-378.59 1445.54,-385.48"/>
</a>
</g>
</g>
<!-- Node2&#45;&gt;Node3 -->
<g id="edge2_Node000002_Node000003" class="edge">
<title>Node2&#45;&gt;Node3</title>
<g id="a_edge2_Node000002_Node000003"><a xlink:title=" ">
<path fill="none" stroke="#63b8ff" d="M757.29,-365.93C722.87,-356.67 653.64,-338.04 612.93,-327.09"/>
<polygon fill="#63b8ff" stroke="#63b8ff" points="613.8,-323.7 603.23,-324.48 611.98,-330.46 613.8,-323.7"/>
</a>
</g>
</g>
<!-- Node4 -->
<g id="Node000004" class="node">
<title>Node4</title>
<g id="a_Node000004"><a xlink:title=" ">
<polygon fill="#e0e0e0" stroke="#999999" points="553.5,-19 500.5,-19 500.5,0 553.5,0 553.5,-19"/>
<text text-anchor="middle" x="527" y="-7" font-family="Helvetica,sans-Serif" font-size="10.00">stdint.h</text>
</a>
</g>
</g>
<!-- Node2&#45;&gt;Node4 -->
<g id="edge31_Node000002_Node000004" class="edge">
<title>Node2&#45;&gt;Node4</title>
<g id="a_edge31_Node000002_Node000004"><a xlink:title=" ">
<path fill="none" stroke="#63b8ff" d="M783.66,-362.79C795.13,-344.29 820,-299.39 820,-258 820,-258 820,-258 820,-124 820,-69.57 641.99,-31.04 563.47,-16.68"/>
<polygon fill="#63b8ff" stroke="#63b8ff" points="563.98,-13.22 553.52,-14.9 562.74,-20.11 563.98,-13.22"/>
</a>
</g>
</g>
<!-- Node5 -->
<g id="Node000005" class="node">
<title>Node5</title>
<g id="a_Node000005"><a xlink:title=" ">
<polygon fill="#e0e0e0" stroke="#999999" points="729,-134.5 673,-134.5 673,-115.5 729,-115.5 729,-134.5"/>
<text text-anchor="middle" x="701" y="-122.5" font-family="Helvetica,sans-Serif" font-size="10.00">stddef.h</text>
</a>
</g>
</g>
<!-- Node2&#45;&gt;Node5 -->
<g id="edge30_Node000002_Node000005" class="edge">
<title>Node2&#45;&gt;Node5</title>
<g id="a_edge30_Node000002_Node000005"><a xlink:title=" ">
<path fill="none" stroke="#63b8ff" d="M778.1,-362.79C778.11,-341.59 776.71,-285.85 763,-242 751.24,-204.41 727.19,-164.82 712.74,-142.98"/>
<polygon fill="#63b8ff" stroke="#63b8ff" points="715.52,-140.85 707.03,-134.52 709.72,-144.77 715.52,-140.85"/>
</a>
</g>
</g>
<!-- Node8 -->
<g id="Node000008" class="node">
<title>Node8</title>
<g id="a_Node000008"><a xlink:title=" ">
<polygon fill="#e0e0e0" stroke="#999999" points="932,-134.5 860,-134.5 860,-115.5 932,-115.5 932,-134.5"/>
<text text-anchor="middle" x="896" y="-122.5" font-family="Helvetica,sans-Serif" font-size="10.00">sys/types.h</text>
</a>
</g>
</g>
<!-- Node2&#45;&gt;Node8 -->
<g id="edge32_Node000002_Node000008" class="edge">
<title>Node2&#45;&gt;Node8</title>
<g id="a_edge32_Node000002_Node000008"><a xlink:title=" ">
<path fill="none" stroke="#63b8ff" d="M793.18,-362.98C805.81,-355.16 823.38,-342.46 834,-327 874.28,-268.35 889.16,-182.54 893.97,-144.89"/>
<polygon fill="#63b8ff" stroke="#63b8ff" points="897.46,-145.18 895.16,-134.84 890.51,-144.36 897.46,-145.18"/>
</a>
</g>
</g>
<!-- Node3&#45;&gt;Node4 -->
<g id="edge3_Node000003_Node000004" class="edge">
<title>Node3&#45;&gt;Node4</title>
<g id="a_edge3_Node000003_Node000004"><a xlink:title=" ">
<path fill="none" stroke="#63b8ff" d="M558.93,-316.57C452.81,-316.35 0,-308.57 0,-192 0,-192 0,-192 0,-124 0,-23.61 370.07,-11.77 489.98,-10.57"/>
<polygon fill="#63b8ff" stroke="#63b8ff" points="490.17,-14.07 500.14,-10.49 490.11,-7.07 490.17,-14.07"/>
</a>
</g>
</g>
<!-- Node3&#45;&gt;Node5 -->
<g id="edge4_Node000003_Node000005" class="edge">
<title>Node3&#45;&gt;Node5</title>
<g id="a_edge4_Node000003_Node000005"><a xlink:title=" ">
<path fill="none" stroke="#63b8ff" d="M592.08,-307.77C613.04,-290.63 658.53,-250.33 682,-206 692.2,-186.73 696.99,-161.97 699.2,-145.14"/>
<polygon fill="#63b8ff" stroke="#63b8ff" points="702.71,-145.24 700.35,-134.91 695.75,-144.46 702.71,-145.24"/>
</a>
</g>
</g>
<!-- Node3&#45;&gt;Node6 -->
<g id="edge5_Node000003_Node000006" class="edge">
<title>Node3&#45;&gt;Node6</title>
<g id="a_edge5_Node000003_Node000006"><a xlink:title=" ">
<path fill="none" stroke="#63b8ff" d="M602.52,-307.99C627.62,-298.07 669.32,-281.59 697.93,-270.28"/>
<polygon fill="#63b8ff" stroke="#63b8ff" points="699.44,-273.45 707.45,-266.52 696.87,-266.94 699.44,-273.45"/>
</a>
</g>
</g>
<!-- Node7 -->
<g id="Node000007" class="node">
<title>Node7</title>
<g id="a_Node000007"><a xlink:href="time_8h.html" target="_top" xlink:title=" ">
<polygon fill="white" stroke="#666666" points="655,-200.5 607,-200.5 607,-181.5 655,-181.5 655,-200.5"/>
<text text-anchor="middle" x="631" y="-188.5" font-family="Helvetica,sans-Serif" font-size="10.00">time.h</text>
</a>
</g>
</g>
<!-- Node3&#45;&gt;Node7 -->
<g id="edge6_Node000003_Node000007" class="edge">
<title>Node3&#45;&gt;Node7</title>
<g id="a_edge6_Node000003_Node000007"><a xlink:title=" ">
<path fill="none" stroke="#63b8ff" d="M584.44,-307.94C592.5,-287.86 612.78,-237.37 623.72,-210.12"/>
<polygon fill="#63b8ff" stroke="#63b8ff" points="627.06,-211.2 627.54,-200.62 620.56,-208.59 627.06,-211.2"/>
</a>
</g>
</g>
<!-- Node3&#45;&gt;Node8 -->
<g id="edge9_Node000003_Node000008" class="edge">
<title>Node3&#45;&gt;Node8</title>
<g id="a_edge9_Node000003_Node000008"><a xlink:title=" ">
<path fill="none" stroke="#63b8ff" d="M597.95,-307.94C614.11,-299.53 638.89,-285.95 659,-272 676.11,-260.13 677.92,-253.92 695,-242 754.86,-200.24 830.65,-159.5 869.85,-139.24"/>
<polygon fill="#63b8ff" stroke="#63b8ff" points="871.7,-142.23 879,-134.55 868.5,-136 871.7,-142.23"/>
</a>
</g>
</g>
<!-- Node9 -->
<g id="Node000009" class="node">
<title>Node9</title>
<g id="a_Node000009"><a xlink:href="root_2protocol_2protocol_8h.html" target="_top" xlink:title=" ">
<polygon fill="white" stroke="#666666" points="448.5,-272 321.5,-272 321.5,-242 448.5,-242 448.5,-272"/>
<text text-anchor="start" x="329.5" y="-260" font-family="Helvetica,sans-Serif" font-size="10.00">protocols/root/protocol</text>
<text text-anchor="middle" x="385" y="-249" font-family="Helvetica,sans-Serif" font-size="10.00">/protocol.h</text>
</a>
</g>
</g>
<!-- Node3&#45;&gt;Node9 -->
<g id="edge10_Node000003_Node000009" class="edge">
<title>Node3&#45;&gt;Node9</title>
<g id="a_edge10_Node000003_Node000009"><a xlink:title=" ">
<path fill="none" stroke="#63b8ff" d="M558.9,-309.9C530.66,-301.47 480.75,-286.58 441.62,-274.9"/>
<polygon fill="#63b8ff" stroke="#63b8ff" points="442.5,-271.51 431.92,-272 440.5,-278.22 442.5,-271.51"/>
</a>
</g>
</g>
<!-- Node17 -->
<g id="Node000017" class="node">
<title>Node17</title>
<g id="a_Node000017"><a xlink:href="wire__codec_8h.html" target="_top" xlink:title=" ">
<polygon fill="white" stroke="#666666" points="588.5,-206 461.5,-206 461.5,-176 588.5,-176 588.5,-206"/>
<text text-anchor="start" x="469.5" y="-194" font-family="Helvetica,sans-Serif" font-size="10.00">protocols/root/protocol</text>
<text text-anchor="middle" x="525" y="-183" font-family="Helvetica,sans-Serif" font-size="10.00">/codec/wire_codec.h</text>
</a>
</g>
</g>
<!-- Node3&#45;&gt;Node17 -->
<g id="edge26_Node000003_Node000017" class="edge">
<title>Node3&#45;&gt;Node17</title>
<g id="a_edge26_Node000003_Node000017"><a xlink:title=" ">
<path fill="none" stroke="#63b8ff" d="M577.15,-307.94C568.7,-289.15 548.27,-243.73 535.64,-215.64"/>
<polygon fill="#63b8ff" stroke="#63b8ff" points="538.66,-213.84 531.37,-206.16 532.28,-216.72 538.66,-213.84"/>
</a>
</g>
</g>
<!-- Node19 -->
<g id="Node000019" class="node">
<title>Node19</title>
<g id="a_Node000019"><a xlink:href="brix__net_8h.html" target="_top" xlink:title=" ">
<polygon fill="white" stroke="#666666" points="214.5,-266.5 149.5,-266.5 149.5,-247.5 214.5,-247.5 214.5,-266.5"/>
<text text-anchor="middle" x="182" y="-254.5" font-family="Helvetica,sans-Serif" font-size="10.00">brix_net.h</text>
</a>
</g>
</g>
<!-- Node3&#45;&gt;Node19 -->
<g id="edge27_Node000003_Node000019" class="edge">
<title>Node3&#45;&gt;Node19</title>
<g id="a_edge27_Node000003_Node000019"><a xlink:title=" ">
<path fill="none" stroke="#63b8ff" d="M558.93,-315.34C502.42,-312.02 348.12,-300.82 223,-272 220.02,-271.31 216.95,-270.49 213.89,-269.59"/>
<polygon fill="#63b8ff" stroke="#63b8ff" points="214.91,-266.24 204.32,-266.55 212.78,-272.91 214.91,-266.24"/>
</a>
</g>
</g>
<!-- Node20 -->
<g id="Node000020" class="node">
<title>Node20</title>
<g id="a_Node000020"><a xlink:href="brix__auth_8h.html" target="_top" xlink:title=" ">
<polygon fill="white" stroke="#666666" points="303.5,-266.5 232.5,-266.5 232.5,-247.5 303.5,-247.5 303.5,-266.5"/>
<text text-anchor="middle" x="268" y="-254.5" font-family="Helvetica,sans-Serif" font-size="10.00">brix_auth.h</text>
</a>
</g>
</g>
<!-- Node3&#45;&gt;Node20 -->
<g id="edge28_Node000003_Node000020" class="edge">
<title>Node3&#45;&gt;Node20</title>
<g id="a_edge28_Node000003_Node000020"><a xlink:title=" ">
<path fill="none" stroke="#63b8ff" d="M558.82,-313.93C512.53,-308.33 402.44,-293.75 312,-272 308.98,-271.27 305.87,-270.45 302.76,-269.57"/>
<polygon fill="#63b8ff" stroke="#63b8ff" points="303.54,-266.15 292.95,-266.63 301.53,-272.85 303.54,-266.15"/>
</a>
</g>
</g>
<!-- Node21 -->
<g id="Node000021" class="node">
<title>Node21</title>
<g id="a_Node000021"><a xlink:href="brix__ops_8h.html" target="_top" xlink:title=" ">
<polygon fill="white" stroke="#666666" points="533.5,-266.5 466.5,-266.5 466.5,-247.5 533.5,-247.5 533.5,-266.5"/>
<text text-anchor="middle" x="500" y="-254.5" font-family="Helvetica,sans-Serif" font-size="10.00">brix_ops.h</text>
</a>
</g>
</g>
<!-- Node3&#45;&gt;Node21 -->
<g id="edge29_Node000003_Node000021" class="edge">
<title>Node3&#45;&gt;Node21</title>
<g id="a_edge29_Node000003_Node000021"><a xlink:title=" ">
<path fill="none" stroke="#63b8ff" d="M569.05,-307.87C556.25,-298.62 535.7,-283.78 520.35,-272.69"/>
<polygon fill="#63b8ff" stroke="#63b8ff" points="522.16,-269.68 512,-266.67 518.06,-275.36 522.16,-269.68"/>
</a>
</g>
</g>
<!-- Node7&#45;&gt;Node5 -->
<g id="edge7_Node000007_Node000005" class="edge">
<title>Node7&#45;&gt;Node5</title>
<g id="a_edge7_Node000007_Node000005"><a xlink:title=" ">
<path fill="none" stroke="#63b8ff" d="M640.44,-181.37C651.55,-171.21 670.2,-154.16 683.88,-141.65"/>
<polygon fill="#63b8ff" stroke="#63b8ff" points="686.24,-144.24 691.26,-134.91 681.52,-139.07 686.24,-144.24"/>
</a>
</g>
</g>
<!-- Node7&#45;&gt;Node7 -->
<g id="edge8_Node000007_Node000007" class="edge">
<title>Node7&#45;&gt;Node7</title>
<g id="a_edge8_Node000007_Node000007"><a xlink:title=" ">
<path fill="none" stroke="#63b8ff" d="M644.33,-200.66C657.9,-206.34 673,-203.12 673,-191 673,-181.82 664.33,-177.75 654.22,-178.78"/>
<polygon fill="#63b8ff" stroke="#63b8ff" points="653.14,-175.45 644.33,-181.34 654.89,-182.23 653.14,-175.45"/>
</a>
</g>
</g>
<!-- Node10 -->
<g id="Node000010" class="node">
<title>Node10</title>
<g id="a_Node000010"><a xlink:href="types_8h.html" target="_top" xlink:title=" ">
<polygon fill="white" stroke="#666666" points="414.5,-74 361.5,-74 361.5,-55 414.5,-55 414.5,-74"/>
<text text-anchor="middle" x="388" y="-62" font-family="Helvetica,sans-Serif" font-size="10.00">types.h</text>
</a>
</g>
</g>
<!-- Node9&#45;&gt;Node10 -->
<g id="edge11_Node000009_Node000010" class="edge">
<title>Node9&#45;&gt;Node10</title>
<g id="a_edge11_Node000009_Node000010"><a xlink:title=" ">
<path fill="none" stroke="#63b8ff" d="M321.29,-242.84C234.68,-223.48 87.08,-184.74 57,-140 49.56,-128.94 48.22,-120.04 57,-110 94.87,-66.7 272.88,-63.79 351.04,-64.67"/>
<polygon fill="#63b8ff" stroke="#63b8ff" points="351.33,-68.17 361.38,-64.81 351.43,-61.17 351.33,-68.17"/>
</a>
</g>
</g>
<!-- Node11 -->
<g id="Node000011" class="node">
<title>Node11</title>
<g id="a_Node000011"><a xlink:href="opcodes_8h.html" target="_top" xlink:title=" ">
<polygon fill="white" stroke="#666666" points="499,-74 433,-74 433,-55 499,-55 499,-74"/>
<text text-anchor="middle" x="466" y="-62" font-family="Helvetica,sans-Serif" font-size="10.00">opcodes.h</text>
</a>
</g>
</g>
<!-- Node9&#45;&gt;Node11 -->
<g id="edge13_Node000009_Node000011" class="edge">
<title>Node9&#45;&gt;Node11</title>
<g id="a_edge13_Node000009_Node000011"><a xlink:title=" ">
<path fill="none" stroke="#63b8ff" d="M397.05,-241.75C413.9,-220.92 444.02,-180.23 458,-140 464.33,-121.79 466.01,-99.69 466.3,-84.31"/>
<polygon fill="#63b8ff" stroke="#63b8ff" points="469.8,-84.04 466.31,-74.04 462.8,-84.03 469.8,-84.04"/>
</a>
</g>
</g>
<!-- Node12 -->
<g id="Node000012" class="node">
<title>Node12</title>
<g id="a_Node000012"><a xlink:href="flags_8h.html" target="_top" xlink:title=" ">
<polygon fill="white" stroke="#666666" points="346.5,-200.5 297.5,-200.5 297.5,-181.5 346.5,-181.5 346.5,-200.5"/>
<text text-anchor="middle" x="322" y="-188.5" font-family="Helvetica,sans-Serif" font-size="10.00">flags.h</text>
</a>
</g>
</g>
<!-- Node9&#45;&gt;Node12 -->
<g id="edge14_Node000009_Node000012" class="edge">
<title>Node9&#45;&gt;Node12</title>
<g id="a_edge14_Node000009_Node000012"><a xlink:title=" ">
<path fill="none" stroke="#63b8ff" d="M371.02,-241.8C361.2,-231.82 348.04,-218.46 337.83,-208.09"/>
<polygon fill="#63b8ff" stroke="#63b8ff" points="340.22,-205.52 330.71,-200.84 335.23,-210.43 340.22,-205.52"/>
</a>
</g>
</g>
<!-- Node13 -->
<g id="Node000013" class="node">
<title>Node13</title>
<g id="a_Node000013"><a xlink:href="wire_8h.html" target="_top" xlink:title=" ">
<polygon fill="white" stroke="#666666" points="275.5,-200.5 228.5,-200.5 228.5,-181.5 275.5,-181.5 275.5,-200.5"/>
<text text-anchor="middle" x="252" y="-188.5" font-family="Helvetica,sans-Serif" font-size="10.00">wire.h</text>
</a>
</g>
</g>
<!-- Node9&#45;&gt;Node13 -->
<g id="edge15_Node000009_Node000013" class="edge">
<title>Node9&#45;&gt;Node13</title>
<g id="a_edge15_Node000009_Node000013"><a xlink:title=" ">
<path fill="none" stroke="#63b8ff" d="M355.81,-241.95C332.9,-230.93 301.25,-215.7 278.93,-204.96"/>
<polygon fill="#63b8ff" stroke="#63b8ff" points="280.23,-201.7 269.7,-200.52 277.19,-208.01 280.23,-201.7"/>
</a>
</g>
</g>
<!-- Node9&#45;&gt;Node17 -->
<g id="edge21_Node000009_Node000017" class="edge">
<title>Node9&#45;&gt;Node17</title>
<g id="a_edge21_Node000009_Node000017"><a xlink:title=" ">
<path fill="none" stroke="#63b8ff" d="M415.72,-241.95C436.15,-232.62 463.17,-220.27 485.23,-210.18"/>
<polygon fill="#63b8ff" stroke="#63b8ff" points="486.71,-213.35 494.35,-206.01 483.8,-206.99 486.71,-213.35"/>
</a>
</g>
</g>
<!-- Node18 -->
<g id="Node000018" class="node">
<title>Node18</title>
<g id="a_Node000018"><a xlink:href="gsi_8h.html" target="_top" xlink:title=" ">
<polygon fill="white" stroke="#666666" points="405,-200.5 365,-200.5 365,-181.5 405,-181.5 405,-200.5"/>
<text text-anchor="middle" x="385" y="-188.5" font-family="Helvetica,sans-Serif" font-size="10.00">gsi.h</text>
</a>
</g>
</g>
<!-- Node9&#45;&gt;Node18 -->
<g id="edge25_Node000009_Node000018" class="edge">
<title>Node9&#45;&gt;Node18</title>
<g id="a_edge25_Node000009_Node000018"><a xlink:title=" ">
<path fill="none" stroke="#63b8ff" d="M385,-241.8C385,-232.7 385,-220.79 385,-210.9"/>
<polygon fill="#63b8ff" stroke="#63b8ff" points="388.5,-210.84 385,-200.84 381.5,-210.84 388.5,-210.84"/>
</a>
</g>
</g>
<!-- Node10&#45;&gt;Node4 -->
<g id="edge12_Node000010_Node000004" class="edge">
<title>Node10&#45;&gt;Node4</title>
<g id="a_edge12_Node000010_Node000004"><a xlink:title=" ">
<path fill="none" stroke="#63b8ff" d="M410.33,-54.98C433.2,-46.27 468.96,-32.63 494.86,-22.75"/>
<polygon fill="#63b8ff" stroke="#63b8ff" points="496.16,-26 504.26,-19.17 493.67,-19.46 496.16,-26"/>
</a>
</g>
</g>
<!-- Node14 -->
<g id="Node000014" class="node">
<title>Node14</title>
<g id="a_Node000014"><a xlink:href="wire__core__requests_8h.html" target="_top" xlink:title=" ">
<polygon fill="white" stroke="#666666" points="449,-134.5 329,-134.5 329,-115.5 449,-115.5 449,-134.5"/>
<text text-anchor="middle" x="389" y="-122.5" font-family="Helvetica,sans-Serif" font-size="10.00">wire_core_requests.h</text>
</a>
</g>
</g>
<!-- Node13&#45;&gt;Node14 -->
<g id="edge16_Node000013_Node000014" class="edge">
<title>Node13&#45;&gt;Node14</title>
<g id="a_edge16_Node000013_Node000014"><a xlink:title=" ">
<path fill="none" stroke="#63b8ff" d="M270.48,-181.37C293.76,-170.49 334.01,-151.69 361.06,-139.05"/>
<polygon fill="#63b8ff" stroke="#63b8ff" points="362.8,-142.1 370.38,-134.7 359.84,-135.76 362.8,-142.1"/>
</a>
</g>
</g>
<!-- Node15 -->
<g id="Node000015" class="node">
<title>Node15</title>
<g id="a_Node000015"><a xlink:href="wire__write__extended__requests_8h.html" target="_top" xlink:title=" ">
<polygon fill="white" stroke="#666666" points="310.5,-140 191.5,-140 191.5,-110 310.5,-110 310.5,-140"/>
<text text-anchor="start" x="199.5" y="-128" font-family="Helvetica,sans-Serif" font-size="10.00">wire_write_extended</text>
<text text-anchor="middle" x="251" y="-117" font-family="Helvetica,sans-Serif" font-size="10.00">_requests.h</text>
</a>
</g>
</g>
<!-- Node13&#45;&gt;Node15 -->
<g id="edge19_Node000013_Node000015" class="edge">
<title>Node13&#45;&gt;Node15</title>
<g id="a_edge19_Node000013_Node000015"><a xlink:title=" ">
<path fill="none" stroke="#63b8ff" d="M251.87,-181.37C251.74,-173.49 251.55,-161.45 251.38,-150.6"/>
<polygon fill="#63b8ff" stroke="#63b8ff" points="254.88,-150.3 251.22,-140.36 247.88,-150.41 254.88,-150.3"/>
</a>
</g>
</g>
<!-- Node16 -->
<g id="Node000016" class="node">
<title>Node16</title>
<g id="a_Node000016"><a xlink:href="wire__vendor__ext_8h.html" target="_top" xlink:title=" ">
<polygon fill="white" stroke="#666666" points="173.5,-134.5 66.5,-134.5 66.5,-115.5 173.5,-115.5 173.5,-134.5"/>
<text text-anchor="middle" x="120" y="-122.5" font-family="Helvetica,sans-Serif" font-size="10.00">wire_vendor_ext.h</text>
</a>
</g>
</g>
<!-- Node13&#45;&gt;Node16 -->
<g id="edge20_Node000013_Node000016" class="edge">
<title>Node13&#45;&gt;Node16</title>
<g id="a_edge20_Node000013_Node000016"><a xlink:title=" ">
<path fill="none" stroke="#63b8ff" d="M234.2,-181.37C211.86,-170.54 173.32,-151.85 147.26,-139.22"/>
<polygon fill="#63b8ff" stroke="#63b8ff" points="148.47,-135.91 137.94,-134.7 145.41,-142.21 148.47,-135.91"/>
</a>
</g>
</g>
<!-- Node14&#45;&gt;Node10 -->
<g id="edge17_Node000014_Node000010" class="edge">
<title>Node14&#45;&gt;Node10</title>
<g id="a_edge17_Node000014_Node000010"><a xlink:title=" ">
<path fill="none" stroke="#63b8ff" d="M388.85,-115.37C388.71,-107.25 388.5,-94.81 388.32,-84.39"/>
<polygon fill="#63b8ff" stroke="#63b8ff" points="391.82,-84.11 388.15,-74.17 384.82,-84.23 391.82,-84.11"/>
</a>
</g>
</g>
<!-- Node14&#45;&gt;Node11 -->
<g id="edge18_Node000014_Node000011" class="edge">
<title>Node14&#45;&gt;Node11</title>
<g id="a_edge18_Node000014_Node000011"><a xlink:title=" ">
<path fill="none" stroke="#63b8ff" d="M400.36,-115.37C412.42,-106.21 431.7,-91.56 446.25,-80.51"/>
<polygon fill="#63b8ff" stroke="#63b8ff" points="448.75,-83 454.59,-74.17 444.51,-77.43 448.75,-83"/>
</a>
</g>
</g>
<!-- Node17&#45;&gt;Node4 -->
<g id="edge22_Node000017_Node000004" class="edge">
<title>Node17&#45;&gt;Node4</title>
<g id="a_edge22_Node000017_Node000004"><a xlink:title=" ">
<path fill="none" stroke="#63b8ff" d="M525.16,-175.91C525.51,-143.85 526.39,-65.38 526.79,-29.26"/>
<polygon fill="#63b8ff" stroke="#63b8ff" points="530.29,-29.17 526.9,-19.13 523.29,-29.1 530.29,-29.17"/>
</a>
</g>
</g>
<!-- Node17&#45;&gt;Node5 -->
<g id="edge23_Node000017_Node000005" class="edge">
<title>Node17&#45;&gt;Node5</title>
<g id="a_edge23_Node000017_Node000005"><a xlink:title=" ">
<path fill="none" stroke="#63b8ff" d="M563.62,-175.95C594.9,-164.58 638.47,-148.74 668.1,-137.96"/>
<polygon fill="#63b8ff" stroke="#63b8ff" points="669.38,-141.22 677.58,-134.52 666.98,-134.65 669.38,-141.22"/>
</a>
</g>
</g>
<!-- Node17&#45;&gt;Node8 -->
<g id="edge24_Node000017_Node000008" class="edge">
<title>Node17&#45;&gt;Node8</title>
<g id="a_edge24_Node000017_Node000008"><a xlink:title=" ">
<path fill="none" stroke="#63b8ff" d="M588.69,-177.7C591.83,-177.12 594.95,-176.55 598,-176 686.89,-160.02 791,-142.92 849.65,-133.43"/>
<polygon fill="#63b8ff" stroke="#63b8ff" points="850.4,-136.86 859.71,-131.81 849.28,-129.95 850.4,-136.86"/>
</a>
</g>
</g>
<!-- Node23&#45;&gt;Node4 -->
<g id="edge38_Node000023_Node000004" class="edge">
<title>Node23&#45;&gt;Node4</title>
<g id="a_edge38_Node000023_Node000004"><a xlink:title=" ">
<path fill="none" stroke="#63b8ff" d="M1094.98,-307.8C1090.48,-287.59 1080,-235.85 1080,-192 1080,-192 1080,-192 1080,-124 1080,-18.29 687.36,-10.14 563.78,-10.19"/>
<polygon fill="#63b8ff" stroke="#63b8ff" points="563.66,-6.69 553.67,-10.22 563.68,-13.69 563.66,-6.69"/>
</a>
</g>
</g>
<!-- Node23&#45;&gt;Node8 -->
<g id="edge41_Node000023_Node000008" class="edge">
<title>Node23&#45;&gt;Node8</title>
<g id="a_edge41_Node000023_Node000008"><a xlink:title=" ">
<path fill="none" stroke="#63b8ff" d="M1088.48,-307.65C1074.85,-293.55 1047.21,-265.22 1023,-242 984.63,-205.21 938.22,-163.49 913.5,-141.49"/>
<polygon fill="#63b8ff" stroke="#63b8ff" points="915.51,-138.6 905.71,-134.57 910.86,-143.83 915.51,-138.6"/>
</a>
</g>
</g>
<!-- Node24 -->
<g id="Node000024" class="node">
<title>Node24</title>
<g id="a_Node000024"><a xlink:title=" ">
<polygon fill="#e0e0e0" stroke="#999999" points="1264,-266.5 1186,-266.5 1186,-247.5 1264,-247.5 1264,-266.5"/>
<text text-anchor="middle" x="1225" y="-254.5" font-family="Helvetica,sans-Serif" font-size="10.00">ngx_config.h</text>
</a>
</g>
</g>
<!-- Node23&#45;&gt;Node24 -->
<g id="edge36_Node000023_Node000024" class="edge">
<title>Node23&#45;&gt;Node24</title>
<g id="a_edge36_Node000023_Node000024"><a xlink:title=" ">
<path fill="none" stroke="#63b8ff" d="M1115.61,-307.99C1137.04,-298.2 1172.44,-282.02 1197.15,-270.73"/>
<polygon fill="#63b8ff" stroke="#63b8ff" points="1198.72,-273.86 1206.37,-266.52 1195.82,-267.49 1198.72,-273.86"/>
</a>
</g>
</g>
<!-- Node25 -->
<g id="Node000025" class="node">
<title>Node25</title>
<g id="a_Node000025"><a xlink:title=" ">
<polygon fill="#e0e0e0" stroke="#999999" points="1352,-266.5 1282,-266.5 1282,-247.5 1352,-247.5 1352,-266.5"/>
<text text-anchor="middle" x="1317" y="-254.5" font-family="Helvetica,sans-Serif" font-size="10.00">ngx_core.h</text>
</a>
</g>
</g>
<!-- Node23&#45;&gt;Node25 -->
<g id="edge37_Node000023_Node000025" class="edge">
<title>Node23&#45;&gt;Node25</title>
<g id="a_edge37_Node000023_Node000025"><a xlink:title=" ">
<path fill="none" stroke="#63b8ff" d="M1133.58,-307.93C1169.29,-299.41 1225.11,-285.66 1273,-272 1275.75,-271.22 1278.58,-270.38 1281.42,-269.52"/>
<polygon fill="#63b8ff" stroke="#63b8ff" points="1282.5,-272.85 1291.02,-266.55 1280.43,-266.16 1282.5,-272.85"/>
</a>
</g>
</g>
<!-- Node23&#45;&gt;Node26 -->
<g id="edge39_Node000023_Node000026" class="edge">
<title>Node23&#45;&gt;Node26</title>
<g id="a_edge39_Node000023_Node000026"><a xlink:title=" ">
<path fill="none" stroke="#63b8ff" d="M1080.92,-307.87C1063.05,-298.28 1033.96,-282.67 1013.09,-271.47"/>
<polygon fill="#63b8ff" stroke="#63b8ff" points="1014.62,-268.31 1004.15,-266.67 1011.31,-274.48 1014.62,-268.31"/>
</a>
</g>
</g>
<!-- Node23&#45;&gt;Node27 -->
<g id="edge40_Node000023_Node000027" class="edge">
<title>Node23&#45;&gt;Node27</title>
<g id="a_edge40_Node000023_Node000027"><a xlink:title=" ">
<path fill="none" stroke="#63b8ff" d="M1143.07,-309.66C1207.35,-299.95 1320.62,-282.23 1361,-272 1363.8,-271.29 1366.69,-270.48 1369.57,-269.61"/>
<polygon fill="#63b8ff" stroke="#63b8ff" points="1370.76,-272.9 1379.21,-266.51 1368.62,-266.24 1370.76,-272.9"/>
</a>
</g>
</g>
<!-- Node28 -->
<g id="Node000028" class="node">
<title>Node28</title>
<g id="a_Node000028"><a xlink:title=" ">
<polygon fill="#e0e0e0" stroke="#999999" points="1168,-266.5 1108,-266.5 1108,-247.5 1168,-247.5 1168,-266.5"/>
<text text-anchor="middle" x="1138" y="-254.5" font-family="Helvetica,sans-Serif" font-size="10.00">sys/uio.h</text>
</a>
</g>
</g>
<!-- Node23&#45;&gt;Node28 -->
<g id="edge42_Node000023_Node000028" class="edge">
<title>Node23&#45;&gt;Node28</title>
<g id="a_edge42_Node000023_Node000028"><a xlink:title=" ">
<path fill="none" stroke="#63b8ff" d="M1103.05,-307.87C1109.11,-299.23 1118.59,-285.7 1126.14,-274.92"/>
<polygon fill="#63b8ff" stroke="#63b8ff" points="1129.05,-276.87 1131.93,-266.67 1123.32,-272.85 1129.05,-276.87"/>
</a>
</g>
</g>
<!-- Node29&#45;&gt;Node5 -->
<g id="edge45_Node000029_Node000005" class="edge">
<title>Node29&#45;&gt;Node5</title>
<g id="a_edge45_Node000029_Node000005"><a xlink:title=" ">
<path fill="none" stroke="#63b8ff" d="M969.11,-362.76C928.07,-326.52 770.92,-187.75 718.29,-141.27"/>
<polygon fill="#63b8ff" stroke="#63b8ff" points="720.59,-138.63 710.78,-134.63 715.95,-143.88 720.59,-138.63"/>
</a>
</g>
</g>
<!-- Node29&#45;&gt;Node8 -->
<g id="edge46_Node000029_Node000008" class="edge">
<title>Node29&#45;&gt;Node8</title>
<g id="a_edge46_Node000029_Node000008"><a xlink:title=" ">
<path fill="none" stroke="#63b8ff" d="M976.05,-362.76C964.05,-327.27 918.79,-193.41 902.17,-144.25"/>
<polygon fill="#63b8ff" stroke="#63b8ff" points="905.44,-142.99 898.92,-134.63 898.81,-145.23 905.44,-142.99"/>
</a>
</g>
</g>
<!-- Node29&#45;&gt;Node23 -->
<g id="edge44_Node000029_Node000023" class="edge">
<title>Node29&#45;&gt;Node23</title>
<g id="a_edge44_Node000029_Node000023"><a xlink:title=" ">
<path fill="none" stroke="#63b8ff" d="M997.96,-362.98C1017.03,-354.42 1046.66,-341.11 1068.55,-331.28"/>
<polygon fill="#63b8ff" stroke="#63b8ff" points="1070.01,-334.46 1077.7,-327.17 1067.14,-328.07 1070.01,-334.46"/>
</a>
</g>
</g>
</g>
</svg>
