<?xml version="1.0" encoding="UTF-8" standalone="no"?>
<!DOCTYPE svg PUBLIC "-//W3C//DTD SVG 1.1//EN"
 "http://www.w3.org/Graphics/SVG/1.1/DTD/svg11.dtd">
<!-- Generated by graphviz version 2.43.0 (0)
 -->
<!-- Title: src/fs/core/vfs_core.h Pages: 1 -->
<svg width="1088pt" height="93pt"
 viewBox="0.00 0.00 1087.50 93.00" xmlns="http://www.w3.org/2000/svg" xmlns:xlink="http://www.w3.org/1999/xlink">
<g id="graph0" class="graph" transform="scale(1 1) rotate(0) translate(4 89)">
<title>src/fs/core/vfs_core.h</title>
<!-- Node1 -->
<g id="Node000001" class="node">
<title>Node1</title>
<g id="a_Node000001"><a xlink:title=" ">
<polygon fill="#999999" stroke="#666666" points="614,-85 494,-85 494,-66 614,-66 614,-85"/>
<text text-anchor="middle" x="554" y="-73" font-family="Helvetica,sans-Serif" font-size="10.00">src/fs/core/vfs_core.h</text>
</a>
</g>
</g>
<!-- Node2 -->
<g id="Node000002" class="node">
<title>Node2</title>
<g id="a_Node000002"><a xlink:href="vfs__block_8c.html" target="_top" xlink:title=" ">
<polygon fill="white" stroke="#666666" points="128,-24.5 0,-24.5 0,-5.5 128,-5.5 128,-24.5"/>
<text text-anchor="middle" x="64" y="-12.5" font-family="Helvetica,sans-Serif" font-size="10.00">client/lib/fs/vfs_block.c</text>
</a>
</g>
</g>
<!-- Node1&#45;&gt;Node2 -->
<g id="edge1_Node000001_Node000002" class="edge">
<title>Node1&#45;&gt;Node2</title>
<g id="a_edge1_Node000001_Node000002"><a xlink:title=" ">
<path fill="none" stroke="#63b8ff" d="M483.64,-68.79C400.56,-61.63 258.32,-48.07 137,-30 126.66,-28.46 115.56,-26.49 105.21,-24.52"/>
<polygon fill="#63b8ff" stroke="#63b8ff" points="483.46,-72.29 493.72,-69.65 484.06,-65.31 483.46,-72.29"/>
</a>
</g>
</g>
<!-- Node3 -->
<g id="Node000003" class="node">
<title>Node3</title>
<g id="a_Node000003"><a xlink:href="vfs__posix_8c.html" target="_top" xlink:title=" ">
<polygon fill="white" stroke="#666666" points="274,-24.5 146,-24.5 146,-5.5 274,-5.5 274,-24.5"/>
<text text-anchor="middle" x="210" y="-12.5" font-family="Helvetica,sans-Serif" font-size="10.00">client/lib/fs/vfs_posix.c</text>
</a>
</g>
</g>
<!-- Node1&#45;&gt;Node3 -->
<g id="edge2_Node000001_Node000003" class="edge">
<title>Node1&#45;&gt;Node3</title>
<g id="a_edge2_Node000001_Node000003"><a xlink:title=" ">
<path fill="none" stroke="#63b8ff" d="M489.47,-64.4C434.52,-55.68 353.48,-42.54 283,-30 273.47,-28.3 263.26,-26.4 253.58,-24.56"/>
<polygon fill="#63b8ff" stroke="#63b8ff" points="489,-67.87 499.42,-65.98 490.1,-60.96 489,-67.87"/>
</a>
</g>
</g>
<!-- Node4 -->
<g id="Node000004" class="node">
<title>Node4</title>
<g id="a_Node000004"><a xlink:href="vfs__core_8c.html" target="_top" xlink:title=" ">
<polygon fill="white" stroke="#666666" points="411.5,-24.5 292.5,-24.5 292.5,-5.5 411.5,-5.5 411.5,-24.5"/>
<text text-anchor="middle" x="352" y="-12.5" font-family="Helvetica,sans-Serif" font-size="10.00">src/fs/core/vfs_core.c</text>
</a>
</g>
</g>
<!-- Node1&#45;&gt;Node4 -->
<g id="edge3_Node000001_Node000004" class="edge">
<title>Node1&#45;&gt;Node4</title>
<g id="a_edge3_Node000001_Node000004"><a xlink:title=" ">
<path fill="none" stroke="#63b8ff" d="M514.66,-63.11C475.59,-51.79 416.58,-34.7 381.41,-24.52"/>
<polygon fill="#63b8ff" stroke="#63b8ff" points="514.05,-66.57 524.63,-65.99 516,-59.85 514.05,-66.57"/>
</a>
</g>
</g>
<!-- Node5 -->
<g id="Node000005" class="node">
<title>Node5</title>
<g id="a_Node000005"><a xlink:href="vfs__core__unittest_8c.html" target="_top" xlink:title=" ">
<polygon fill="white" stroke="#666666" points="540.5,-30 429.5,-30 429.5,0 540.5,0 540.5,-30"/>
<text text-anchor="start" x="437.5" y="-18" font-family="Helvetica,sans-Serif" font-size="10.00">src/fs/core/vfs_core</text>
<text text-anchor="middle" x="485" y="-7" font-family="Helvetica,sans-Serif" font-size="10.00">_unittest.c</text>
</a>
</g>
</g>
<!-- Node1&#45;&gt;Node5 -->
<g id="edge4_Node000001_Node000005" class="edge">
<title>Node1&#45;&gt;Node5</title>
<g id="a_edge4_Node000001_Node000005"><a xlink:title=" ">
<path fill="none" stroke="#63b8ff" d="M535.99,-59.23C525.37,-50.23 512.02,-38.91 501.65,-30.11"/>
<polygon fill="#63b8ff" stroke="#63b8ff" points="533.93,-62.07 543.82,-65.87 538.45,-56.73 533.93,-62.07"/>
</a>
</g>
</g>
<!-- Node6 -->
<g id="Node000006" class="node">
<title>Node6</title>
<g id="a_Node000006"><a xlink:href="vfs__io__core_8c.html" target="_top" xlink:title=" ">
<polygon fill="white" stroke="#666666" points="687,-24.5 559,-24.5 559,-5.5 687,-5.5 687,-24.5"/>
<text text-anchor="middle" x="623" y="-12.5" font-family="Helvetica,sans-Serif" font-size="10.00">src/fs/vfs/vfs_io_core.c</text>
</a>
</g>
</g>
<!-- Node1&#45;&gt;Node6 -->
<g id="edge5_Node000001_Node000006" class="edge">
<title>Node1&#45;&gt;Node6</title>
<g id="a_edge5_Node000001_Node000006"><a xlink:title=" ">
<path fill="none" stroke="#63b8ff" d="M572.02,-59.22C585,-48.21 602.06,-33.75 612.78,-24.67"/>
<polygon fill="#63b8ff" stroke="#63b8ff" points="569.55,-56.73 564.18,-65.87 574.07,-62.07 569.55,-56.73"/>
</a>
</g>
</g>
<!-- Node7 -->
<g id="Node000007" class="node">
<title>Node7</title>
<g id="a_Node000007"><a xlink:href="vfs__read_8c.html" target="_top" xlink:title=" ">
<polygon fill="white" stroke="#666666" points="819,-24.5 705,-24.5 705,-5.5 819,-5.5 819,-24.5"/>
<text text-anchor="middle" x="762" y="-12.5" font-family="Helvetica,sans-Serif" font-size="10.00">src/fs/vfs/vfs_read.c</text>
</a>
</g>
</g>
<!-- Node1&#45;&gt;Node7 -->
<g id="edge6_Node000001_Node000007" class="edge">
<title>Node1&#45;&gt;Node7</title>
<g id="a_edge6_Node000001_Node000007"><a xlink:title=" ">
<path fill="none" stroke="#63b8ff" d="M593.99,-63.25C634.22,-51.94 695.35,-34.75 731.72,-24.52"/>
<polygon fill="#63b8ff" stroke="#63b8ff" points="592.92,-59.92 584.24,-65.99 594.82,-66.66 592.92,-59.92"/>
</a>
</g>
</g>
<!-- Node8 -->
<g id="Node000008" class="node">
<title>Node8</title>
<g id="a_Node000008"><a xlink:href="zip__member_8c.html" target="_top" xlink:title=" ">
<polygon fill="white" stroke="#666666" points="942.5,-30 837.5,-30 837.5,0 942.5,0 942.5,-30"/>
<text text-anchor="start" x="845.5" y="-18" font-family="Helvetica,sans-Serif" font-size="10.00">src/protocols/root</text>
<text text-anchor="middle" x="890" y="-7" font-family="Helvetica,sans-Serif" font-size="10.00">/zip/zip_member.c</text>
</a>
</g>
</g>
<!-- Node1&#45;&gt;Node8 -->
<g id="edge7_Node000001_Node000008" class="edge">
<title>Node1&#45;&gt;Node8</title>
<g id="a_edge7_Node000001_Node000008"><a xlink:title=" ">
<path fill="none" stroke="#63b8ff" d="M623.05,-64.48C678.58,-56.13 758.52,-43.47 828,-30 831.03,-29.41 834.14,-28.78 837.28,-28.13"/>
<polygon fill="#63b8ff" stroke="#63b8ff" points="622.35,-61.05 612.98,-65.99 623.39,-67.97 622.35,-61.05"/>
</a>
</g>
</g>
<!-- Node9 -->
<g id="Node000009" class="node">
<title>Node9</title>
<g id="a_Node000009"><a xlink:href="http__serve__offload_8c.html" target="_top" xlink:title=" ">
<polygon fill="white" stroke="#666666" points="1079.5,-30 960.5,-30 960.5,0 1079.5,0 1079.5,-30"/>
<text text-anchor="start" x="968.5" y="-18" font-family="Helvetica,sans-Serif" font-size="10.00">src/protocols/shared</text>
<text text-anchor="middle" x="1020" y="-7" font-family="Helvetica,sans-Serif" font-size="10.00">/http_serve_offload.c</text>
</a>
</g>
</g>
<!-- Node1&#45;&gt;Node9 -->
<g id="edge8_Node000001_Node000009" class="edge">
<title>Node1&#45;&gt;Node9</title>
<g id="a_edge8_Node000001_Node000009"><a xlink:title=" ">
<path fill="none" stroke="#63b8ff" d="M624.65,-68.57C704.43,-61.42 837.98,-48.07 952,-30 954.74,-29.57 957.53,-29.1 960.35,-28.6"/>
<polygon fill="#63b8ff" stroke="#63b8ff" points="623.89,-65.13 614.24,-69.5 624.51,-72.1 623.89,-65.13"/>
</a>
</g>
</g>
</g>
</svg>
