<?xml version="1.0" encoding="UTF-8" standalone="no"?>
<!DOCTYPE svg PUBLIC "-//W3C//DTD SVG 1.1//EN"
 "http://www.w3.org/Graphics/SVG/1.1/DTD/svg11.dtd">
<!-- Generated by graphviz version 2.43.0 (0)
 -->
<!-- Title: src/fs/vfs/vfs_internal.h Pages: 1 -->
<!--zoomable 104 -->

<svg id="main" version="1.1" xmlns="http://www.w3.org/2000/svg" xmlns:xlink="http://www.w3.org/1999/xlink" xml:space="preserve" onload="init(evt)">
<style type="text/css"><![CDATA[
.node, .edge {opacity: 0.7;}
.node.selected, .edge.selected {opacity: 1;}
.edge:hover path { stroke: red; }
.edge:hover polygon { stroke: red; fill: red; }
]]></style>

<defs>
  <circle id="rim" cx="0" cy="0" r="7"/>
  <circle id="rim2" cx="0" cy="0" r="3.5"/>
  <g id="zoomPlus">
    <use xlink:href="#rim" fill="#404040"><set attributeName="fill" to="#808080" begin="zoomplus.mouseover" end="zoomplus.mouseout"/></use>
    <path d="M-4,0h8M0,-4v8" fill="none" stroke="white" stroke-width="1.5" pointer-events="none"/>
  </g>
  <g id="zoomMin">
    <use xlink:href="#rim" fill="#404040"><set attributeName="fill" to="#808080" begin="zoomminus.mouseover" end="zoomminus.mouseout"/></use>
    <path d="M-4,0h8" fill="none" stroke="white" stroke-width="1.5" pointer-events="none"/>
  </g>
  <g id="arrowUp" transform="translate(30 24)">
    <use xlink:href="#rim"/>
    <path pointer-events="none" fill="none" stroke="white" stroke-width="1.5" d="M0,-3.0v7 M-2.5,-0.5L0,-3.0L2.5,-0.5"/>
  </g>
  <g id="arrowRight" transform="rotate(90) translate(36 -43)">
    <use xlink:href="#rim"/>
    <path pointer-events="none" fill="none" stroke="white" stroke-width="1.5" d="M0,-3.0v7 M-2.5,-0.5L0,-3.0L2.5,-0.5"/>
  </g>
  <g id="arrowDown" transform="rotate(180) translate(-30 -48)">
    <use xlink:href="#rim"/>
    <path pointer-events="none" fill="none" stroke="white" stroke-width="1.5" d="M0,-3.0v7 M-2.5,-0.5L0,-3.0L2.5,-0.5"/>
  </g>
  <g id="arrowLeft" transform="rotate(270) translate(-36 17)">
    <use xlink:href="#rim"/>
    <path pointer-events="none" fill="none" stroke="white" stroke-width="1.5" d="M0,-3.0v7 M-2.5,-0.5L0,-3.0L2.5,-0.5"/>
  </g>
  <g id="resetDef">
    <use xlink:href="#rim2" fill="#404040"><set attributeName="fill" to="#808080" begin="reset.mouseover" end="reset.mouseout"/></use>
  </g>
</defs>
<script type="application/ecmascript">
var viewWidth = 5005;
var viewHeight = 104;
var sectionId = 'dynsection-1';
</script>
<script type="application/ecmascript" xlink:href="svg.min.js"/>
<svg id="graph" class="graph">
<g id="viewport">
<title>src/fs/vfs/vfs_internal.h</title>
<!-- Node1 -->
<g id="Node000001" class="node">
<title>Node1</title>
<g id="a_Node000001"><a xlink:title=" ">
<polygon fill="#999999" stroke="#666666" points="2532.5,-96 2401.5,-96 2401.5,-77 2532.5,-77 2532.5,-96"/>
<text text-anchor="middle" x="2467" y="-84" font-family="Helvetica,sans-Serif" font-size="10.00">src/fs/vfs/vfs_internal.h</text>
</a>
</g>
</g>
<!-- Node2 -->
<g id="Node000002" class="node">
<title>Node2</title>
<g id="a_Node000002"><a xlink:href="sd__posix_8c.html" target="_top" xlink:title=" ">
<polygon fill="white" stroke="#666666" points="116,-35.5 0,-35.5 0,-5.5 116,-5.5 116,-35.5"/>
<text text-anchor="start" x="8" y="-23.5" font-family="Helvetica,sans-Serif" font-size="10.00">src/fs/backend/posix</text>
<text text-anchor="middle" x="58" y="-12.5" font-family="Helvetica,sans-Serif" font-size="10.00">/sd_posix.c</text>
</a>
</g>
</g>
<!-- Node1&#45;&gt;Node2 -->
<g id="edge1_Node000001_Node000002" class="edge">
<title>Node1&#45;&gt;Node2</title>
<g id="a_edge1_Node000001_Node000002"><a xlink:title=" ">
<path fill="none" stroke="#63b8ff" d="M2391.2,-85.25C2014.49,-83.84 352.91,-75.7 125,-41 116.86,-39.76 108.31,-37.8 100.15,-35.6"/>
<polygon fill="#63b8ff" stroke="#63b8ff" points="2391.43,-88.75 2401.44,-85.29 2391.45,-81.75 2391.43,-88.75"/>
</a>
</g>
</g>
<!-- Node3 -->
<g id="Node000003" class="node">
<title>Node3</title>
<g id="a_Node000003"><a xlink:href="sd__posix__io_8c.html" target="_top" xlink:title=" ">
<polygon fill="white" stroke="#666666" points="250,-35.5 134,-35.5 134,-5.5 250,-5.5 250,-35.5"/>
<text text-anchor="start" x="142" y="-23.5" font-family="Helvetica,sans-Serif" font-size="10.00">src/fs/backend/posix</text>
<text text-anchor="middle" x="192" y="-12.5" font-family="Helvetica,sans-Serif" font-size="10.00">/sd_posix_io.c</text>
</a>
</g>
</g>
<!-- Node1&#45;&gt;Node3 -->
<g id="edge2_Node000001_Node000003" class="edge">
<title>Node1&#45;&gt;Node3</title>
<g id="a_edge2_Node000001_Node000003"><a xlink:title=" ">
<path fill="none" stroke="#63b8ff" d="M2391.14,-85.15C2027.66,-83.34 472.98,-73.71 259,-41 250.86,-39.76 242.31,-37.8 234.15,-35.59"/>
<polygon fill="#63b8ff" stroke="#63b8ff" points="2391.27,-88.65 2401.29,-85.2 2391.31,-81.66 2391.27,-88.65"/>
</a>
</g>
</g>
<!-- Node4 -->
<g id="Node000004" class="node">
<title>Node4</title>
<g id="a_Node000004"><a xlink:href="sd__posix__ns_8c.html" target="_top" xlink:title=" ">
<polygon fill="white" stroke="#666666" points="384,-35.5 268,-35.5 268,-5.5 384,-5.5 384,-35.5"/>
<text text-anchor="start" x="276" y="-23.5" font-family="Helvetica,sans-Serif" font-size="10.00">src/fs/backend/posix</text>
<text text-anchor="middle" x="326" y="-12.5" font-family="Helvetica,sans-Serif" font-size="10.00">/sd_posix_ns.c</text>
</a>
</g>
</g>
<!-- Node1&#45;&gt;Node4 -->
<g id="edge3_Node000001_Node000004" class="edge">
<title>Node1&#45;&gt;Node4</title>
<g id="a_edge3_Node000001_Node000004"><a xlink:title=" ">
<path fill="none" stroke="#63b8ff" d="M2391.22,-85.05C2041.61,-82.81 593.1,-71.72 393,-41 384.86,-39.75 376.31,-37.79 368.16,-35.58"/>
<polygon fill="#63b8ff" stroke="#63b8ff" points="2391.21,-88.55 2401.24,-85.11 2391.26,-81.55 2391.21,-88.55"/>
</a>
</g>
</g>
<!-- Node5 -->
<g id="Node000005" class="node">
<title>Node5</title>
<g id="a_Node000005"><a xlink:href="open_8c.html" target="_top" xlink:title=" ">
<polygon fill="white" stroke="#666666" points="512,-30 402,-30 402,-11 512,-11 512,-30"/>
<text text-anchor="middle" x="457" y="-18" font-family="Helvetica,sans-Serif" font-size="10.00">src/fs/cache/open.c</text>
</a>
</g>
</g>
<!-- Node1&#45;&gt;Node5 -->
<g id="edge4_Node000001_Node000005" class="edge">
<title>Node1&#45;&gt;Node5</title>
<g id="a_edge4_Node000001_Node000005"><a xlink:title=" ">
<path fill="none" stroke="#63b8ff" d="M2391.27,-84.99C2055.29,-82.56 707.69,-70.99 521,-41 507.01,-38.75 491.82,-34.22 479.75,-30.09"/>
<polygon fill="#63b8ff" stroke="#63b8ff" points="2391.36,-88.49 2401.39,-85.06 2391.41,-81.49 2391.36,-88.49"/>
</a>
</g>
</g>
<!-- Node6 -->
<g id="Node000006" class="node">
<title>Node6</title>
<g id="a_Node000006"><a xlink:href="open__or__fill_8c.html" target="_top" xlink:title=" ">
<polygon fill="white" stroke="#666666" points="646,-35.5 530,-35.5 530,-5.5 646,-5.5 646,-35.5"/>
<text text-anchor="start" x="538" y="-23.5" font-family="Helvetica,sans-Serif" font-size="10.00">src/fs/cache/open_or</text>
<text text-anchor="middle" x="588" y="-12.5" font-family="Helvetica,sans-Serif" font-size="10.00">_fill.c</text>
</a>
</g>
</g>
<!-- Node1&#45;&gt;Node6 -->
<g id="edge5_Node000001_Node000006" class="edge">
<title>Node1&#45;&gt;Node6</title>
<g id="a_edge5_Node000001_Node000006"><a xlink:title=" ">
<path fill="none" stroke="#63b8ff" d="M2391.28,-84.8C2069.99,-81.65 828.04,-67.84 655,-41 646.86,-39.74 638.32,-37.77 630.16,-35.56"/>
<polygon fill="#63b8ff" stroke="#63b8ff" points="2391.38,-88.3 2401.42,-84.89 2391.45,-81.3 2391.38,-88.3"/>
</a>
</g>
</g>
<!-- Node7 -->
<g id="Node000007" class="node">
<title>Node7</title>
<g id="a_Node000007"><a xlink:href="vfs__copy_8c.html" target="_top" xlink:title=" ">
<polygon fill="white" stroke="#666666" points="778,-30 664,-30 664,-11 778,-11 778,-30"/>
<text text-anchor="middle" x="721" y="-18" font-family="Helvetica,sans-Serif" font-size="10.00">src/fs/vfs/vfs_copy.c</text>
</a>
</g>
</g>
<!-- Node1&#45;&gt;Node7 -->
<g id="edge6_Node000001_Node000007" class="edge">
<title>Node1&#45;&gt;Node7</title>
<g id="a_edge6_Node000001_Node000007"><a xlink:title=" ">
<path fill="none" stroke="#63b8ff" d="M2391.3,-84.66C2085.01,-81.08 946.39,-66.21 787,-41 772.6,-38.72 756.94,-34.19 744.48,-30.06"/>
<polygon fill="#63b8ff" stroke="#63b8ff" points="2391.37,-88.16 2401.41,-84.77 2391.45,-81.16 2391.37,-88.16"/>
</a>
</g>
</g>
<!-- Node8 -->
<g id="Node000008" class="node">
<title>Node8</title>
<g id="a_Node000008"><a xlink:href="vfs__cred_8c.html" target="_top" xlink:title=" ">
<polygon fill="white" stroke="#666666" points="909.5,-30 796.5,-30 796.5,-11 909.5,-11 909.5,-30"/>
<text text-anchor="middle" x="853" y="-18" font-family="Helvetica,sans-Serif" font-size="10.00">src/fs/vfs/vfs_cred.c</text>
</a>
</g>
</g>
<!-- Node1&#45;&gt;Node8 -->
<g id="edge7_Node000001_Node000008" class="edge">
<title>Node1&#45;&gt;Node8</title>
<g id="a_edge7_Node000001_Node000008"><a xlink:title=" ">
<path fill="none" stroke="#63b8ff" d="M2391.4,-85.95C2121.57,-87.15 1206.61,-87.6 918,-41 903.81,-38.71 888.38,-34.17 876.12,-30.05"/>
<polygon fill="#63b8ff" stroke="#63b8ff" points="2391.5,-89.45 2401.49,-85.9 2391.47,-82.45 2391.5,-89.45"/>
</a>
</g>
</g>
<!-- Node9 -->
<g id="Node000009" class="node">
<title>Node9</title>
<g id="a_Node000009"><a xlink:href="vfs__deleg_8c.html" target="_top" xlink:title=" ">
<polygon fill="white" stroke="#666666" points="1046.5,-30 927.5,-30 927.5,-11 1046.5,-11 1046.5,-30"/>
<text text-anchor="middle" x="987" y="-18" font-family="Helvetica,sans-Serif" font-size="10.00">src/fs/vfs/vfs_deleg.c</text>
</a>
</g>
</g>
<!-- Node1&#45;&gt;Node9 -->
<g id="edge8_Node000001_Node000009" class="edge">
<title>Node1&#45;&gt;Node9</title>
<g id="a_edge8_Node000001_Node000009"><a xlink:title=" ">
<path fill="none" stroke="#63b8ff" d="M2390.94,-85.58C2136.4,-85.47 1315.8,-81.85 1055,-41 1040.2,-38.68 1024.06,-34.14 1011.22,-30.03"/>
<polygon fill="#63b8ff" stroke="#63b8ff" points="2391.19,-89.08 2401.19,-85.58 2391.19,-82.08 2391.19,-89.08"/>
</a>
</g>
</g>
<!-- Node10 -->
<g id="Node000010" class="node">
<title>Node10</title>
<g id="a_Node000010"><a xlink:href="vfs__deleg__bind_8c.html" target="_top" xlink:title=" ">
<polygon fill="white" stroke="#666666" points="1175.5,-35.5 1064.5,-35.5 1064.5,-5.5 1175.5,-5.5 1175.5,-35.5"/>
<text text-anchor="start" x="1072.5" y="-23.5" font-family="Helvetica,sans-Serif" font-size="10.00">src/fs/vfs/vfs_deleg</text>
<text text-anchor="middle" x="1120" y="-12.5" font-family="Helvetica,sans-Serif" font-size="10.00">_bind.c</text>
</a>
</g>
</g>
<!-- Node1&#45;&gt;Node10 -->
<g id="edge9_Node000001_Node000010" class="edge">
<title>Node1&#45;&gt;Node10</title>
<g id="a_edge9_Node000001_Node000010"><a xlink:title=" ">
<path fill="none" stroke="#63b8ff" d="M2391.14,-85.42C2152.53,-84.75 1419.26,-79.54 1185,-41 1177.21,-39.72 1169.05,-37.77 1161.24,-35.6"/>
<polygon fill="#63b8ff" stroke="#63b8ff" points="2391.44,-88.92 2401.45,-85.44 2391.46,-81.92 2391.44,-88.92"/>
</a>
</g>
</g>
<!-- Node11 -->
<g id="Node000011" class="node">
<title>Node11</title>
<g id="a_Node000011"><a xlink:href="vfs__dir_8c.html" target="_top" xlink:title=" ">
<polygon fill="white" stroke="#666666" points="1298,-30 1194,-30 1194,-11 1298,-11 1298,-30"/>
<text text-anchor="middle" x="1246" y="-18" font-family="Helvetica,sans-Serif" font-size="10.00">src/fs/vfs/vfs_dir.c</text>
</a>
</g>
</g>
<!-- Node1&#45;&gt;Node11 -->
<g id="edge10_Node000001_Node000011" class="edge">
<title>Node1&#45;&gt;Node11</title>
<g id="a_edge10_Node000001_Node000011"><a xlink:title=" ">
<path fill="none" stroke="#63b8ff" d="M2391.17,-85.27C2168.05,-84.16 1516.32,-77.77 1307,-41 1293.64,-38.65 1279.16,-34.11 1267.66,-30.01"/>
<polygon fill="#63b8ff" stroke="#63b8ff" points="2391.46,-88.77 2401.47,-85.32 2391.49,-81.77 2391.46,-88.77"/>
</a>
</g>
</g>
<!-- Node12 -->
<g id="Node000012" class="node">
<title>Node12</title>
<g id="a_Node000012"><a xlink:href="vfs__io__core_8c.html" target="_top" xlink:title=" ">
<polygon fill="white" stroke="#666666" points="1444,-30 1316,-30 1316,-11 1444,-11 1444,-30"/>
<text text-anchor="middle" x="1380" y="-18" font-family="Helvetica,sans-Serif" font-size="10.00">src/fs/vfs/vfs_io_core.c</text>
</a>
</g>
</g>
<!-- Node1&#45;&gt;Node12 -->
<g id="edge11_Node000001_Node000012" class="edge">
<title>Node1&#45;&gt;Node12</title>
<g id="a_edge11_Node000001_Node000012"><a xlink:title=" ">
<path fill="none" stroke="#63b8ff" d="M2391.11,-84.3C2187.74,-80.76 1633.71,-68.76 1453,-41 1437.31,-38.59 1420.14,-34.1 1406.4,-30.04"/>
<polygon fill="#63b8ff" stroke="#63b8ff" points="2391.34,-87.81 2401.4,-84.48 2391.46,-80.81 2391.34,-87.81"/>
</a>
</g>
</g>
<!-- Node13 -->
<g id="Node000013" class="node">
<title>Node13</title>
<g id="a_Node000013"><a xlink:href="vfs__io__core__dirlist_8c.html" target="_top" xlink:title=" ">
<polygon fill="white" stroke="#666666" points="1581.5,-35.5 1462.5,-35.5 1462.5,-5.5 1581.5,-5.5 1581.5,-35.5"/>
<text text-anchor="start" x="1470.5" y="-23.5" font-family="Helvetica,sans-Serif" font-size="10.00">src/fs/vfs/vfs_io_core</text>
<text text-anchor="middle" x="1522" y="-12.5" font-family="Helvetica,sans-Serif" font-size="10.00">_dirlist.c</text>
</a>
</g>
</g>
<!-- Node1&#45;&gt;Node13 -->
<g id="edge12_Node000001_Node000013" class="edge">
<title>Node1&#45;&gt;Node13</title>
<g id="a_edge12_Node000001_Node000013"><a xlink:title=" ">
<path fill="none" stroke="#63b8ff" d="M2391.28,-83.84C2207.94,-79.46 1744,-66.18 1591,-41 1582.89,-39.67 1574.38,-37.72 1566.21,-35.58"/>
<polygon fill="#63b8ff" stroke="#63b8ff" points="2391.29,-87.34 2401.37,-84.08 2391.46,-80.34 2391.29,-87.34"/>
</a>
</g>
</g>
<!-- Node14 -->
<g id="Node000014" class="node">
<title>Node14</title>
<g id="a_Node000014"><a xlink:href="vfs__mkdir_8c.html" target="_top" xlink:title=" ">
<polygon fill="white" stroke="#666666" points="1720,-30 1600,-30 1600,-11 1720,-11 1720,-30"/>
<text text-anchor="middle" x="1660" y="-18" font-family="Helvetica,sans-Serif" font-size="10.00">src/fs/vfs/vfs_mkdir.c</text>
</a>
</g>
</g>
<!-- Node1&#45;&gt;Node14 -->
<g id="edge13_Node000001_Node000014" class="edge">
<title>Node1&#45;&gt;Node14</title>
<g id="a_edge13_Node000001_Node000014"><a xlink:title=" ">
<path fill="none" stroke="#63b8ff" d="M2391.12,-86.28C2256.68,-86.47 1968.28,-81.54 1729,-41 1714.27,-38.5 1698.19,-34.06 1685.26,-30.05"/>
<polygon fill="#63b8ff" stroke="#63b8ff" points="2391.32,-89.78 2401.31,-86.25 2391.3,-82.78 2391.32,-89.78"/>
</a>
</g>
</g>
<!-- Node15 -->
<g id="Node000015" class="node">
<title>Node15</title>
<g id="a_Node000015"><a xlink:href="vfs__open_8c.html" target="_top" xlink:title=" ">
<polygon fill="white" stroke="#666666" points="1854,-30 1738,-30 1738,-11 1854,-11 1854,-30"/>
<text text-anchor="middle" x="1796" y="-18" font-family="Helvetica,sans-Serif" font-size="10.00">src/fs/vfs/vfs_open.c</text>
</a>
</g>
</g>
<!-- Node1&#45;&gt;Node15 -->
<g id="edge14_Node000001_Node000015" class="edge">
<title>Node1&#45;&gt;Node15</title>
<g id="a_edge14_Node000001_Node000015"><a xlink:title=" ">
<path fill="none" stroke="#63b8ff" d="M2391.07,-84.99C2275.97,-83.08 2050.83,-74.87 1863,-41 1848.81,-38.44 1833.34,-34.05 1820.84,-30.08"/>
<polygon fill="#63b8ff" stroke="#63b8ff" points="2391.14,-88.49 2401.19,-85.15 2391.24,-81.49 2391.14,-88.49"/>
</a>
</g>
</g>
<!-- Node16 -->
<g id="Node000016" class="node">
<title>Node16</title>
<g id="a_Node000016"><a xlink:href="vfs__open__adopt_8c.html" target="_top" xlink:title=" ">
<polygon fill="white" stroke="#666666" points="1980,-35.5 1872,-35.5 1872,-5.5 1980,-5.5 1980,-35.5"/>
<text text-anchor="start" x="1880" y="-23.5" font-family="Helvetica,sans-Serif" font-size="10.00">src/fs/vfs/vfs_open</text>
<text text-anchor="middle" x="1926" y="-12.5" font-family="Helvetica,sans-Serif" font-size="10.00">_adopt.c</text>
</a>
</g>
</g>
<!-- Node1&#45;&gt;Node16 -->
<g id="edge15_Node000001_Node000016" class="edge">
<title>Node1&#45;&gt;Node16</title>
<g id="a_edge15_Node000001_Node000016"><a xlink:title=" ">
<path fill="none" stroke="#63b8ff" d="M2391.37,-83.29C2296.54,-79.42 2129.38,-68.95 1989,-41 1981.81,-39.57 1974.28,-37.64 1967.03,-35.54"/>
<polygon fill="#63b8ff" stroke="#63b8ff" points="2391.31,-86.79 2401.44,-83.69 2391.58,-79.8 2391.31,-86.79"/>
</a>
</g>
</g>
<!-- Node17 -->
<g id="Node000017" class="node">
<title>Node17</title>
<g id="a_Node000017"><a xlink:href="vfs__open__handle_8c.html" target="_top" xlink:title=" ">
<polygon fill="white" stroke="#666666" points="2106,-35.5 1998,-35.5 1998,-5.5 2106,-5.5 2106,-35.5"/>
<text text-anchor="start" x="2006" y="-23.5" font-family="Helvetica,sans-Serif" font-size="10.00">src/fs/vfs/vfs_open</text>
<text text-anchor="middle" x="2052" y="-12.5" font-family="Helvetica,sans-Serif" font-size="10.00">_handle.c</text>
</a>
</g>
</g>
<!-- Node1&#45;&gt;Node17 -->
<g id="edge16_Node000001_Node000017" class="edge">
<title>Node1&#45;&gt;Node17</title>
<g id="a_edge16_Node000001_Node000017"><a xlink:title=" ">
<path fill="none" stroke="#63b8ff" d="M2390.92,-79.74C2319.19,-73.4 2208.97,-61.32 2115,-41 2108.06,-39.5 2100.79,-37.58 2093.75,-35.54"/>
<polygon fill="#63b8ff" stroke="#63b8ff" points="2390.96,-83.26 2401.22,-80.63 2391.56,-76.28 2390.96,-83.26"/>
</a>
</g>
</g>
<!-- Node18 -->
<g id="Node000018" class="node">
<title>Node18</title>
<g id="a_Node000018"><a xlink:href="vfs__read_8c.html" target="_top" xlink:title=" ">
<polygon fill="white" stroke="#666666" points="2238,-30 2124,-30 2124,-11 2238,-11 2238,-30"/>
<text text-anchor="middle" x="2181" y="-18" font-family="Helvetica,sans-Serif" font-size="10.00">src/fs/vfs/vfs_read.c</text>
</a>
</g>
</g>
<!-- Node1&#45;&gt;Node18 -->
<g id="edge17_Node000001_Node000018" class="edge">
<title>Node1&#45;&gt;Node18</title>
<g id="a_edge17_Node000001_Node000018"><a xlink:title=" ">
<path fill="none" stroke="#63b8ff" d="M2408.6,-75.13C2364.09,-66.88 2301.38,-54.51 2247,-41 2234.01,-37.77 2219.76,-33.64 2207.83,-30.01"/>
<polygon fill="#63b8ff" stroke="#63b8ff" points="2408.19,-78.62 2418.66,-76.98 2409.46,-71.73 2408.19,-78.62"/>
</a>
</g>
</g>
<!-- Node19 -->
<g id="Node000019" class="node">
<title>Node19</title>
<g id="a_Node000019"><a xlink:href="vfs__rename_8c.html" target="_top" xlink:title=" ">
<polygon fill="white" stroke="#666666" points="2386,-30 2256,-30 2256,-11 2386,-11 2386,-30"/>
<text text-anchor="middle" x="2321" y="-18" font-family="Helvetica,sans-Serif" font-size="10.00">src/fs/vfs/vfs_rename.c</text>
</a>
</g>
</g>
<!-- Node1&#45;&gt;Node19 -->
<g id="edge18_Node000001_Node000019" class="edge">
<title>Node1&#45;&gt;Node19</title>
<g id="a_edge18_Node000001_Node000019"><a xlink:title=" ">
<path fill="none" stroke="#63b8ff" d="M2437.79,-72.69C2409.01,-60.08 2365.85,-41.16 2340.84,-30.2"/>
<polygon fill="#63b8ff" stroke="#63b8ff" points="2436.75,-76.06 2447.31,-76.87 2439.56,-69.65 2436.75,-76.06"/>
</a>
</g>
</g>
<!-- Node20 -->
<g id="Node000020" class="node">
<title>Node20</title>
<g id="a_Node000020"><a xlink:href="vfs__staged_8c.html" target="_top" xlink:title=" ">
<polygon fill="white" stroke="#666666" points="2529.5,-30 2404.5,-30 2404.5,-11 2529.5,-11 2529.5,-30"/>
<text text-anchor="middle" x="2467" y="-18" font-family="Helvetica,sans-Serif" font-size="10.00">src/fs/vfs/vfs_staged.c</text>
</a>
</g>
</g>
<!-- Node1&#45;&gt;Node20 -->
<g id="edge19_Node000001_Node000020" class="edge">
<title>Node1&#45;&gt;Node20</title>
<g id="a_edge19_Node000001_Node000020"><a xlink:title=" ">
<path fill="none" stroke="#63b8ff" d="M2467,-66.58C2467,-54.63 2467,-39.72 2467,-30.41"/>
<polygon fill="#63b8ff" stroke="#63b8ff" points="2463.5,-66.87 2467,-76.87 2470.5,-66.87 2463.5,-66.87"/>
</a>
</g>
</g>
<!-- Node21 -->
<g id="Node000021" class="node">
<title>Node21</title>
<g id="a_Node000021"><a xlink:href="vfs__stat_8c.html" target="_top" xlink:title=" ">
<polygon fill="white" stroke="#666666" points="2658.5,-30 2547.5,-30 2547.5,-11 2658.5,-11 2658.5,-30"/>
<text text-anchor="middle" x="2603" y="-18" font-family="Helvetica,sans-Serif" font-size="10.00">src/fs/vfs/vfs_stat.c</text>
</a>
</g>
</g>
<!-- Node1&#45;&gt;Node21 -->
<g id="edge20_Node000001_Node000021" class="edge">
<title>Node1&#45;&gt;Node21</title>
<g id="a_edge20_Node000001_Node000021"><a xlink:title=" ">
<path fill="none" stroke="#63b8ff" d="M2494.56,-72.53C2521.37,-59.92 2561.33,-41.11 2584.51,-30.2"/>
<polygon fill="#63b8ff" stroke="#63b8ff" points="2492.9,-69.44 2485.34,-76.87 2495.88,-75.78 2492.9,-69.44"/>
</a>
</g>
</g>
<!-- Node22 -->
<g id="Node000022" class="node">
<title>Node22</title>
<g id="a_Node000022"><a xlink:href="vfs__sync_8c.html" target="_top" xlink:title=" ">
<polygon fill="white" stroke="#666666" points="2791.5,-30 2676.5,-30 2676.5,-11 2791.5,-11 2791.5,-30"/>
<text text-anchor="middle" x="2734" y="-18" font-family="Helvetica,sans-Serif" font-size="10.00">src/fs/vfs/vfs_sync.c</text>
</a>
</g>
</g>
<!-- Node1&#45;&gt;Node22 -->
<g id="edge21_Node000001_Node000022" class="edge">
<title>Node1&#45;&gt;Node22</title>
<g id="a_edge21_Node000001_Node000022"><a xlink:title=" ">
<path fill="none" stroke="#63b8ff" d="M2519.52,-74.91C2560.21,-66.46 2617.91,-53.93 2668,-41 2680.73,-37.72 2694.7,-33.65 2706.5,-30.09"/>
<polygon fill="#63b8ff" stroke="#63b8ff" points="2518.64,-71.52 2509.55,-76.97 2520.05,-78.38 2518.64,-71.52"/>
</a>
</g>
</g>
<!-- Node23 -->
<g id="Node000023" class="node">
<title>Node23</title>
<g id="a_Node000023"><a xlink:href="vfs__unlink_8c.html" target="_top" xlink:title=" ">
<polygon fill="white" stroke="#666666" points="2932,-30 2810,-30 2810,-11 2932,-11 2932,-30"/>
<text text-anchor="middle" x="2871" y="-18" font-family="Helvetica,sans-Serif" font-size="10.00">src/fs/vfs/vfs_unlink.c</text>
</a>
</g>
</g>
<!-- Node1&#45;&gt;Node23 -->
<g id="edge22_Node000001_Node000023" class="edge">
<title>Node1&#45;&gt;Node23</title>
<g id="a_edge22_Node000001_Node000023"><a xlink:title=" ">
<path fill="none" stroke="#63b8ff" d="M2542.93,-78.43C2610.96,-71.37 2713.24,-58.98 2801,-41 2815.21,-38.09 2830.78,-33.86 2843.62,-30.08"/>
<polygon fill="#63b8ff" stroke="#63b8ff" points="2542.32,-74.97 2532.73,-79.47 2543.04,-81.94 2542.32,-74.97"/>
</a>
</g>
</g>
<!-- Node24 -->
<g id="Node000024" class="node">
<title>Node24</title>
<g id="a_Node000024"><a xlink:href="vfs__walk_8c.html" target="_top" xlink:title=" ">
<polygon fill="white" stroke="#666666" points="3066,-30 2950,-30 2950,-11 3066,-11 3066,-30"/>
<text text-anchor="middle" x="3008" y="-18" font-family="Helvetica,sans-Serif" font-size="10.00">src/fs/vfs/vfs_walk.c</text>
</a>
</g>
</g>
<!-- Node1&#45;&gt;Node24 -->
<g id="edge23_Node000001_Node000024" class="edge">
<title>Node1&#45;&gt;Node24</title>
<g id="a_edge23_Node000001_Node000024"><a xlink:title=" ">
<path fill="none" stroke="#63b8ff" d="M2542.72,-82.82C2636.81,-78.47 2801.95,-67.51 2941,-41 2955.04,-38.32 2970.37,-33.97 2982.82,-30.06"/>
<polygon fill="#63b8ff" stroke="#63b8ff" points="2542.56,-79.32 2532.72,-83.26 2542.87,-86.31 2542.56,-79.32"/>
</a>
</g>
</g>
<!-- Node25 -->
<g id="Node000025" class="node">
<title>Node25</title>
<g id="a_Node000025"><a xlink:href="vfs__walk__copy_8c.html" target="_top" xlink:title=" ">
<polygon fill="white" stroke="#666666" points="3191.5,-35.5 3084.5,-35.5 3084.5,-5.5 3191.5,-5.5 3191.5,-35.5"/>
<text text-anchor="start" x="3092.5" y="-23.5" font-family="Helvetica,sans-Serif" font-size="10.00">src/fs/vfs/vfs_walk</text>
<text text-anchor="middle" x="3138" y="-12.5" font-family="Helvetica,sans-Serif" font-size="10.00">_copy.c</text>
</a>
</g>
</g>
<!-- Node1&#45;&gt;Node25 -->
<g id="edge24_Node000001_Node000025" class="edge">
<title>Node1&#45;&gt;Node25</title>
<g id="a_edge24_Node000001_Node000025"><a xlink:title=" ">
<path fill="none" stroke="#63b8ff" d="M2543.04,-85.45C2658.86,-84.13 2885.96,-76.69 3075,-41 3082.31,-39.62 3089.97,-37.68 3097.33,-35.56"/>
<polygon fill="#63b8ff" stroke="#63b8ff" points="2542.83,-81.95 2532.86,-85.55 2542.9,-88.95 2542.83,-81.95"/>
</a>
</g>
</g>
<!-- Node26 -->
<g id="Node000026" class="node">
<title>Node26</title>
<g id="a_Node000026"><a xlink:href="vfs__write_8c.html" target="_top" xlink:title=" ">
<polygon fill="white" stroke="#666666" points="3326.5,-30 3209.5,-30 3209.5,-11 3326.5,-11 3326.5,-30"/>
<text text-anchor="middle" x="3268" y="-18" font-family="Helvetica,sans-Serif" font-size="10.00">src/fs/vfs/vfs_write.c</text>
</a>
</g>
</g>
<!-- Node1&#45;&gt;Node26 -->
<g id="edge25_Node000001_Node000026" class="edge">
<title>Node1&#45;&gt;Node26</title>
<g id="a_edge25_Node000001_Node000026"><a xlink:title=" ">
<path fill="none" stroke="#63b8ff" d="M2542.76,-86.43C2676.63,-86.86 2963.33,-82.26 3201,-41 3215.32,-38.51 3230.94,-34.07 3243.49,-30.06"/>
<polygon fill="#63b8ff" stroke="#63b8ff" points="2542.63,-82.93 2532.61,-86.39 2542.6,-89.93 2542.63,-82.93"/>
</a>
</g>
</g>
<!-- Node27 -->
<g id="Node000027" class="node">
<title>Node27</title>
<g id="a_Node000027"><a xlink:href="vfs__writer_8c.html" target="_top" xlink:title=" ">
<polygon fill="white" stroke="#666666" points="3465,-30 3345,-30 3345,-11 3465,-11 3465,-30"/>
<text text-anchor="middle" x="3405" y="-18" font-family="Helvetica,sans-Serif" font-size="10.00">src/fs/vfs/vfs_writer.c</text>
</a>
</g>
</g>
<!-- Node1&#45;&gt;Node27 -->
<g id="edge26_Node000001_Node000027" class="edge">
<title>Node1&#45;&gt;Node27</title>
<g id="a_edge26_Node000001_Node000027"><a xlink:title=" ">
<path fill="none" stroke="#63b8ff" d="M2542.77,-83.8C2725.1,-79.36 3184.41,-65.98 3336,-41 3350.86,-38.55 3367.09,-34.06 3380.07,-30.01"/>
<polygon fill="#63b8ff" stroke="#63b8ff" points="2542.65,-80.3 2532.73,-84.04 2542.81,-87.3 2542.65,-80.3"/>
</a>
</g>
</g>
<!-- Node28 -->
<g id="Node000028" class="node">
<title>Node28</title>
<g id="a_Node000028"><a xlink:href="vfs__wverify_8c.html" target="_top" xlink:title=" ">
<polygon fill="white" stroke="#666666" points="3610.5,-30 3483.5,-30 3483.5,-11 3610.5,-11 3610.5,-30"/>
<text text-anchor="middle" x="3547" y="-18" font-family="Helvetica,sans-Serif" font-size="10.00">src/fs/vfs/vfs_wverify.c</text>
</a>
</g>
</g>
<!-- Node1&#45;&gt;Node28 -->
<g id="edge27_Node000001_Node000028" class="edge">
<title>Node1&#45;&gt;Node28</title>
<g id="a_edge27_Node000001_Node000028"><a xlink:title=" ">
<path fill="none" stroke="#63b8ff" d="M2543.08,-84.27C2745.63,-80.67 3294.75,-68.57 3474,-41 3489.69,-38.59 3506.85,-34.1 3520.6,-30.04"/>
<polygon fill="#63b8ff" stroke="#63b8ff" points="2542.77,-80.78 2532.84,-84.45 2542.9,-87.78 2542.77,-80.78"/>
</a>
</g>
</g>
<!-- Node29 -->
<g id="Node000029" class="node">
<title>Node29</title>
<g id="a_Node000029"><a xlink:href="vfs__xattr_8c.html" target="_top" xlink:title=" ">
<polygon fill="white" stroke="#666666" points="3743.5,-30 3628.5,-30 3628.5,-11 3743.5,-11 3743.5,-30"/>
<text text-anchor="middle" x="3686" y="-18" font-family="Helvetica,sans-Serif" font-size="10.00">src/fs/vfs/vfs_xattr.c</text>
</a>
</g>
</g>
<!-- Node1&#45;&gt;Node29 -->
<g id="edge28_Node000001_Node000029" class="edge">
<title>Node1&#45;&gt;Node29</title>
<g id="a_edge28_Node000001_Node000029"><a xlink:title=" ">
<path fill="none" stroke="#63b8ff" d="M2543.11,-85.03C2765.52,-83.26 3411.8,-75.23 3620,-41 3634.27,-38.65 3649.79,-34.17 3662.2,-30.09"/>
<polygon fill="#63b8ff" stroke="#63b8ff" points="2542.81,-81.53 2532.84,-85.11 2542.87,-88.53 2542.81,-81.53"/>
</a>
</g>
</g>
<!-- Node30 -->
<g id="Node000030" class="node">
<title>Node30</title>
<g id="a_Node000030"><a xlink:href="open__request_8c.html" target="_top" xlink:title=" ">
<polygon fill="white" stroke="#666666" points="3880.5,-35.5 3761.5,-35.5 3761.5,-5.5 3880.5,-5.5 3880.5,-35.5"/>
<text text-anchor="start" x="3769.5" y="-23.5" font-family="Helvetica,sans-Serif" font-size="10.00">src/protocols/root</text>
<text text-anchor="middle" x="3821" y="-12.5" font-family="Helvetica,sans-Serif" font-size="10.00">/read/open_request.c</text>
</a>
</g>
</g>
<!-- Node1&#45;&gt;Node30 -->
<g id="edge29_Node000001_Node000030" class="edge">
<title>Node1&#45;&gt;Node30</title>
<g id="a_edge29_Node000001_Node000030"><a xlink:title=" ">
<path fill="none" stroke="#63b8ff" d="M2543.08,-85.31C2782.37,-84.31 3517.78,-78.22 3753,-41 3761.13,-39.71 3769.66,-37.77 3777.83,-35.59"/>
<polygon fill="#63b8ff" stroke="#63b8ff" points="2542.72,-81.81 2532.74,-85.35 2542.75,-88.81 2542.72,-81.81"/>
</a>
</g>
</g>
<!-- Node31 -->
<g id="Node000031" class="node">
<title>Node31</title>
<g id="a_Node000031"><a xlink:href="open__request__resolve_8c.html" target="_top" xlink:title=" ">
<polygon fill="white" stroke="#666666" points="4059,-35.5 3899,-35.5 3899,-5.5 4059,-5.5 4059,-35.5"/>
<text text-anchor="start" x="3907" y="-23.5" font-family="Helvetica,sans-Serif" font-size="10.00">src/protocols/root</text>
<text text-anchor="middle" x="3979" y="-12.5" font-family="Helvetica,sans-Serif" font-size="10.00">/read/open_request_resolve.c</text>
</a>
</g>
</g>
<!-- Node1&#45;&gt;Node31 -->
<g id="edge30_Node000001_Node000031" class="edge">
<title>Node1&#45;&gt;Node31</title>
<g id="a_edge30_Node000001_Node000031"><a xlink:title=" ">
<path fill="none" stroke="#63b8ff" d="M2543.13,-84.97C2798.86,-82.9 3625.84,-73.78 3890,-41 3900.52,-39.69 3911.63,-37.74 3922.3,-35.56"/>
<polygon fill="#63b8ff" stroke="#63b8ff" points="2542.8,-81.47 2532.82,-85.05 2542.85,-88.47 2542.8,-81.47"/>
</a>
</g>
</g>
<!-- Node32 -->
<g id="Node000032" class="node">
<title>Node32</title>
<g id="a_Node000032"><a xlink:href="open__resolved__file_8c.html" target="_top" xlink:title=" ">
<polygon fill="white" stroke="#666666" points="4193,-41 4077,-41 4077,0 4193,0 4193,-41"/>
<text text-anchor="start" x="4085" y="-29" font-family="Helvetica,sans-Serif" font-size="10.00">src/protocols/root</text>
<text text-anchor="start" x="4085" y="-18" font-family="Helvetica,sans-Serif" font-size="10.00">/read/open_resolved</text>
<text text-anchor="middle" x="4135" y="-7" font-family="Helvetica,sans-Serif" font-size="10.00">_file.c</text>
</a>
</g>
</g>
<!-- Node1&#45;&gt;Node32 -->
<g id="edge31_Node000001_Node000032" class="edge">
<title>Node1&#45;&gt;Node32</title>
<g id="a_edge31_Node000001_Node000032"><a xlink:title=" ">
<path fill="none" stroke="#63b8ff" d="M2543.23,-85.96C2819.66,-87.21 3768.81,-87.9 4068,-41 4070.87,-40.55 4073.8,-40.01 4076.73,-39.41"/>
<polygon fill="#63b8ff" stroke="#63b8ff" points="2542.92,-82.45 2532.9,-85.91 2542.89,-89.45 2542.92,-82.45"/>
</a>
</g>
</g>
<!-- Node33 -->
<g id="Node000033" class="node">
<title>Node33</title>
<g id="a_Node000033"><a xlink:href="open__resolved__file__dispatch_8c.html" target="_top" xlink:title=" ">
<polygon fill="white" stroke="#666666" points="4327,-41 4211,-41 4211,0 4327,0 4327,-41"/>
<text text-anchor="start" x="4219" y="-29" font-family="Helvetica,sans-Serif" font-size="10.00">src/protocols/root</text>
<text text-anchor="start" x="4219" y="-18" font-family="Helvetica,sans-Serif" font-size="10.00">/read/open_resolved</text>
<text text-anchor="middle" x="4269" y="-7" font-family="Helvetica,sans-Serif" font-size="10.00">_file_dispatch.c</text>
</a>
</g>
</g>
<!-- Node1&#45;&gt;Node33 -->
<g id="edge32_Node000001_Node000033" class="edge">
<title>Node1&#45;&gt;Node33</title>
<g id="a_edge32_Node000001_Node000033"><a xlink:title=" ">
<path fill="none" stroke="#63b8ff" d="M2543.07,-84.7C2856.22,-81.26 4036.96,-66.69 4202,-41 4204.87,-40.55 4207.8,-40.02 4210.73,-39.42"/>
<polygon fill="#63b8ff" stroke="#63b8ff" points="2542.7,-81.21 2532.74,-84.82 2542.78,-88.21 2542.7,-81.21"/>
</a>
</g>
</g>
<!-- Node34 -->
<g id="Node000034" class="node">
<title>Node34</title>
<g id="a_Node000034"><a xlink:href="open__resolved__file__finalize_8c.html" target="_top" xlink:title=" ">
<polygon fill="white" stroke="#666666" points="4461,-41 4345,-41 4345,0 4461,0 4461,-41"/>
<text text-anchor="start" x="4353" y="-29" font-family="Helvetica,sans-Serif" font-size="10.00">src/protocols/root</text>
<text text-anchor="start" x="4353" y="-18" font-family="Helvetica,sans-Serif" font-size="10.00">/read/open_resolved</text>
<text text-anchor="middle" x="4403" y="-7" font-family="Helvetica,sans-Serif" font-size="10.00">_file_finalize.c</text>
</a>
</g>
</g>
<!-- Node1&#45;&gt;Node34 -->
<g id="edge33_Node000001_Node000034" class="edge">
<title>Node1&#45;&gt;Node34</title>
<g id="a_edge33_Node000001_Node000034"><a xlink:title=" ">
<path fill="none" stroke="#63b8ff" d="M2542.91,-84.85C2870.8,-81.91 4157.12,-68.68 4336,-41 4338.87,-40.56 4341.8,-40.02 4344.74,-39.42"/>
<polygon fill="#63b8ff" stroke="#63b8ff" points="2542.54,-81.36 2532.57,-84.95 2542.6,-88.36 2542.54,-81.36"/>
</a>
</g>
</g>
<!-- Node35 -->
<g id="Node000035" class="node">
<title>Node35</title>
<g id="a_Node000035"><a xlink:href="open__resolved__file__open_8c.html" target="_top" xlink:title=" ">
<polygon fill="white" stroke="#666666" points="4595,-41 4479,-41 4479,0 4595,0 4595,-41"/>
<text text-anchor="start" x="4487" y="-29" font-family="Helvetica,sans-Serif" font-size="10.00">src/protocols/root</text>
<text text-anchor="start" x="4487" y="-18" font-family="Helvetica,sans-Serif" font-size="10.00">/read/open_resolved</text>
<text text-anchor="middle" x="4537" y="-7" font-family="Helvetica,sans-Serif" font-size="10.00">_file_open.c</text>
</a>
</g>
</g>
<!-- Node1&#45;&gt;Node35 -->
<g id="edge34_Node000001_Node000035" class="edge">
<title>Node1&#45;&gt;Node35</title>
<g id="a_edge34_Node000001_Node000035"><a xlink:title=" ">
<path fill="none" stroke="#63b8ff" d="M2542.69,-84.99C2884.67,-82.51 4277.23,-70.67 4470,-41 4472.87,-40.56 4475.8,-40.03 4478.74,-39.43"/>
<polygon fill="#63b8ff" stroke="#63b8ff" points="2542.61,-81.49 2532.64,-85.06 2542.67,-88.49 2542.61,-81.49"/>
</a>
</g>
</g>
<!-- Node36 -->
<g id="Node000036" class="node">
<title>Node36</title>
<g id="a_Node000036"><a xlink:href="open__resolved__file__staging_8c.html" target="_top" xlink:title=" ">
<polygon fill="white" stroke="#666666" points="4729,-41 4613,-41 4613,0 4729,0 4729,-41"/>
<text text-anchor="start" x="4621" y="-29" font-family="Helvetica,sans-Serif" font-size="10.00">src/protocols/root</text>
<text text-anchor="start" x="4621" y="-18" font-family="Helvetica,sans-Serif" font-size="10.00">/read/open_resolved</text>
<text text-anchor="middle" x="4671" y="-7" font-family="Helvetica,sans-Serif" font-size="10.00">_file_staging.c</text>
</a>
</g>
</g>
<!-- Node1&#45;&gt;Node36 -->
<g id="edge35_Node000001_Node000036" class="edge">
<title>Node1&#45;&gt;Node36</title>
<g id="a_edge35_Node000001_Node000036"><a xlink:title=" ">
<path fill="none" stroke="#63b8ff" d="M2542.72,-85.1C2898.73,-83.06 4397.36,-72.66 4604,-41 4606.87,-40.56 4609.8,-40.03 4612.74,-39.43"/>
<polygon fill="#63b8ff" stroke="#63b8ff" points="2542.51,-81.6 2532.53,-85.16 2542.55,-88.6 2542.51,-81.6"/>
</a>
</g>
</g>
<!-- Node37 -->
<g id="Node000037" class="node">
<title>Node37</title>
<g id="a_Node000037"><a xlink:href="put__inner_8c.html" target="_top" xlink:title=" ">
<polygon fill="white" stroke="#666666" points="4859,-35.5 4747,-35.5 4747,-5.5 4859,-5.5 4859,-35.5"/>
<text text-anchor="start" x="4755" y="-23.5" font-family="Helvetica,sans-Serif" font-size="10.00">src/protocols/s3/put</text>
<text text-anchor="middle" x="4803" y="-12.5" font-family="Helvetica,sans-Serif" font-size="10.00">_inner.c</text>
</a>
</g>
</g>
<!-- Node1&#45;&gt;Node37 -->
<g id="edge36_Node000001_Node000037" class="edge">
<title>Node1&#45;&gt;Node37</title>
<g id="a_edge36_Node000001_Node000037"><a xlink:title=" ">
<path fill="none" stroke="#63b8ff" d="M2542.62,-85.24C2911.98,-83.79 4517.57,-75.56 4738,-41 4745.91,-39.76 4754.21,-37.8 4762.13,-35.6"/>
<polygon fill="#63b8ff" stroke="#63b8ff" points="2542.56,-81.74 2532.57,-85.28 2542.58,-88.74 2542.56,-81.74"/>
</a>
</g>
</g>
<!-- Node38 -->
<g id="Node000038" class="node">
<title>Node38</title>
<g id="a_Node000038"><a xlink:href="http__serve__offload_8c.html" target="_top" xlink:title=" ">
<polygon fill="white" stroke="#666666" points="4996.5,-35.5 4877.5,-35.5 4877.5,-5.5 4996.5,-5.5 4996.5,-35.5"/>
<text text-anchor="start" x="4885.5" y="-23.5" font-family="Helvetica,sans-Serif" font-size="10.00">src/protocols/shared</text>
<text text-anchor="middle" x="4937" y="-12.5" font-family="Helvetica,sans-Serif" font-size="10.00">/http_serve_offload.c</text>
</a>
</g>
</g>
<!-- Node1&#45;&gt;Node38 -->
<g id="edge37_Node000001_Node000038" class="edge">
<title>Node1&#45;&gt;Node38</title>
<g id="a_edge37_Node000001_Node000038"><a xlink:title=" ">
<path fill="none" stroke="#63b8ff" d="M2542.85,-85.25C2925.38,-83.85 4633.83,-75.67 4868,-41 4876.5,-39.74 4885.43,-37.75 4893.94,-35.5"/>
<polygon fill="#63b8ff" stroke="#63b8ff" points="2542.71,-81.75 2532.72,-85.29 2542.73,-88.75 2542.71,-81.75"/>
</a>
</g>
</g>
</g>
</svg>

<g id="navigator" transform="translate(0 0)" fill="#404254">
  <rect fill="#f2f5e9" fill-opacity="0.5" stroke="#606060" stroke-width=".5" x="0" y="0" width="60" height="60"/>
  <use id="zoomplus" xlink:href="#zoomPlus" x="17" y="9" onmousedown="handleZoom(evt,'in')"/>
  <use id="zoomminus" xlink:href="#zoomMin" x="42" y="9" onmousedown="handleZoom(evt,'out')"/>
  <use id="reset" xlink:href="#resetDef" x="30" y="36" onmousedown="handleReset()"/>
   <use id="arrowup" xlink:href="#arrowUp" x="0" y="0" onmousedown="handlePan(0,-1)"/>
  <use id="arrowright" xlink:href="#arrowRight" x="0" y="0" onmousedown="handlePan(1,0)"/>
  <use id="arrowdown" xlink:href="#arrowDown" x="0" y="0" onmousedown="handlePan(0,1)"/>
  <use id="arrowleft" xlink:href="#arrowLeft" x="0" y="0" onmousedown="handlePan(-1,0)"/>
</g>
<svg viewBox="0 0 15 15" width="100%" height="30px" preserveAspectRatio="xMaxYMin meet">
 <g id="arrow_out" transform="scale(0.3 0.3)">
  <a xlink:href="vfs__internal_8h__dep__incl_org.svg" target="_base">
   <rect id="button" ry="5" rx="5" y="6" x="6" height="38" width="38"
        fill="#f2f5e9" fill-opacity="0.5" stroke="#606060" stroke-width="1.0"/>
   <path id="arrow"
     d="M 11.500037,31.436501 C 11.940474,20.09759 22.043105,11.32322 32.158766,21.979434 L 37.068811,17.246167 C 37.068811,17.246167 37.088388,32 37.088388,32 L 22.160133,31.978069 C 22.160133,31.978069 26.997745,27.140456 26.997745,27.140456 C 18.528582,18.264221 13.291696,25.230495 11.500037,31.436501 z"
     style="fill:#404040;"/>
  </a>
 </g>
</svg>

<style type='text/css'>
<![CDATA[
[data-mouse-over-selected='false'] { opacity: 0.7; }
[data-mouse-over-selected='true']  { opacity: 1.0; }
]]>
</style>
<script type="application/ecmascript"><![CDATA[
document.addEventListener('DOMContentLoaded', (event) => {
  highlightEdges();
  highlightAdjacentNodes();
});
]]></script>
</svg>
