<?xml version="1.0" encoding="UTF-8" standalone="no"?>
<!DOCTYPE svg PUBLIC "-//W3C//DTD SVG 1.1//EN"
 "http://www.w3.org/Graphics/SVG/1.1/DTD/svg11.dtd">
<!-- Generated by graphviz version 2.43.0 (0)
 -->
<!-- Title: client/apps/diag/wait41.c Pages: 1 -->
<!--zoomable 390 -->

<svg id="main" version="1.1" xmlns="http://www.w3.org/2000/svg" xmlns:xlink="http://www.w3.org/1999/xlink" xml:space="preserve" onload="init(evt)">
<style type="text/css"><![CDATA[
.node, .edge {opacity: 0.7;}
.node.selected, .edge.selected {opacity: 1;}
.edge:hover path { stroke: red; }
.edge:hover polygon { stroke: red; fill: red; }
]]></style>

<defs>
  <circle id="rim" cx="0" cy="0" r="7"/>
  <circle id="rim2" cx="0" cy="0" r="3.5"/>
  <g id="zoomPlus">
    <use xlink:href="#rim" fill="#404040"><set attributeName="fill" to="#808080" begin="zoomplus.mouseover" end="zoomplus.mouseout"/></use>
    <path d="M-4,0h8M0,-4v8" fill="none" stroke="white" stroke-width="1.5" pointer-events="none"/>
  </g>
  <g id="zoomMin">
    <use xlink:href="#rim" fill="#404040"><set attributeName="fill" to="#808080" begin="zoomminus.mouseover" end="zoomminus.mouseout"/></use>
    <path d="M-4,0h8" fill="none" stroke="white" stroke-width="1.5" pointer-events="none"/>
  </g>
  <g id="arrowUp" transform="translate(30 24)">
    <use xlink:href="#rim"/>
    <path pointer-events="none" fill="none" stroke="white" stroke-width="1.5" d="M0,-3.0v7 M-2.5,-0.5L0,-3.0L2.5,-0.5"/>
  </g>
  <g id="arrowRight" transform="rotate(90) translate(36 -43)">
    <use xlink:href="#rim"/>
    <path pointer-events="none" fill="none" stroke="white" stroke-width="1.5" d="M0,-3.0v7 M-2.5,-0.5L0,-3.0L2.5,-0.5"/>
  </g>
  <g id="arrowDown" transform="rotate(180) translate(-30 -48)">
    <use xlink:href="#rim"/>
    <path pointer-events="none" fill="none" stroke="white" stroke-width="1.5" d="M0,-3.0v7 M-2.5,-0.5L0,-3.0L2.5,-0.5"/>
  </g>
  <g id="arrowLeft" transform="rotate(270) translate(-36 17)">
    <use xlink:href="#rim"/>
    <path pointer-events="none" fill="none" stroke="white" stroke-width="1.5" d="M0,-3.0v7 M-2.5,-0.5L0,-3.0L2.5,-0.5"/>
  </g>
  <g id="resetDef">
    <use xlink:href="#rim2" fill="#404040"><set attributeName="fill" to="#808080" begin="reset.mouseover" end="reset.mouseout"/></use>
  </g>
</defs>
<script type="application/ecmascript">
var viewWidth = 849;
var viewHeight = 390;
var sectionId = 'dynsection-0';
</script>
<script type="application/ecmascript" xlink:href="svg.min.js"/>
<svg id="graph" class="graph">
<g id="viewport">
<title>client/apps/diag/wait41.c</title>
<!-- Node1 -->
<g id="Node000001" class="node">
<title>Node1</title>
<g id="a_Node000001"><a xlink:title=" ">
<polygon fill="#999999" stroke="#666666" points="525,-382 387,-382 387,-363 525,-363 525,-382"/>
<text text-anchor="middle" x="456" y="-370" font-family="Helvetica,sans-Serif" font-size="10.00">client/apps/diag/wait41.c</text>
</a>
</g>
</g>
<!-- Node2 -->
<g id="Node000002" class="node">
<title>Node2</title>
<g id="a_Node000002"><a xlink:href="brix_8h.html" target="_top" xlink:title=" ">
<polygon fill="white" stroke="#666666" points="393,-327 349,-327 349,-308 393,-308 393,-327"/>
<text text-anchor="middle" x="371" y="-315" font-family="Helvetica,sans-Serif" font-size="10.00">brix.h</text>
</a>
</g>
</g>
<!-- Node1&#45;&gt;Node2 -->
<g id="edge1_Node000001_Node000002" class="edge">
<title>Node1&#45;&gt;Node2</title>
<g id="a_edge1_Node000001_Node000002"><a xlink:title=" ">
<path fill="none" stroke="#63b8ff" d="M442.34,-362.98C429.16,-354.77 408.97,-342.18 393.43,-332.49"/>
<polygon fill="#63b8ff" stroke="#63b8ff" points="395.24,-329.49 384.91,-327.17 391.54,-335.43 395.24,-329.49"/>
</a>
</g>
</g>
<!-- Node5 -->
<g id="Node000005" class="node">
<title>Node5</title>
<g id="a_Node000005"><a xlink:title=" ">
<polygon fill="#e0e0e0" stroke="#999999" points="782,-266.5 732,-266.5 732,-247.5 782,-247.5 782,-266.5"/>
<text text-anchor="middle" x="757" y="-254.5" font-family="Helvetica,sans-Serif" font-size="10.00">stdio.h</text>
</a>
</g>
</g>
<!-- Node1&#45;&gt;Node5 -->
<g id="edge33_Node000001_Node000005" class="edge">
<title>Node1&#45;&gt;Node5</title>
<g id="a_edge33_Node000001_Node000005"><a xlink:title=" ">
<path fill="none" stroke="#63b8ff" d="M449.63,-362.98C440.49,-349.63 426.17,-323.7 440,-308 481.9,-260.43 661.71,-288.21 723,-272 724.94,-271.49 726.92,-270.89 728.9,-270.23"/>
<polygon fill="#63b8ff" stroke="#63b8ff" points="730.46,-273.39 738.6,-266.61 728.01,-266.83 730.46,-273.39"/>
</a>
</g>
</g>
<!-- Node6 -->
<g id="Node000006" class="node">
<title>Node6</title>
<g id="a_Node000006"><a xlink:href="time_8h.html" target="_top" xlink:title=" ">
<polygon fill="white" stroke="#666666" points="140,-266.5 92,-266.5 92,-247.5 140,-247.5 140,-266.5"/>
<text text-anchor="middle" x="116" y="-254.5" font-family="Helvetica,sans-Serif" font-size="10.00">time.h</text>
</a>
</g>
</g>
<!-- Node1&#45;&gt;Node6 -->
<g id="edge36_Node000001_Node000006" class="edge">
<title>Node1&#45;&gt;Node6</title>
<g id="a_edge36_Node000001_Node000006"><a xlink:title=" ">
<path fill="none" stroke="#63b8ff" d="M430.44,-362.97C369.92,-342.77 217.84,-292 149.81,-269.29"/>
<polygon fill="#63b8ff" stroke="#63b8ff" points="150.61,-265.86 140.02,-266.02 148.4,-272.5 150.61,-265.86"/>
</a>
</g>
</g>
<!-- Node21 -->
<g id="Node000021" class="node">
<title>Node21</title>
<g id="a_Node000021"><a xlink:href="crypto_8h.html" target="_top" xlink:title=" ">
<polygon fill="white" stroke="#666666" points="120,-200.5 0,-200.5 0,-181.5 120,-181.5 120,-200.5"/>
<text text-anchor="middle" x="60" y="-188.5" font-family="Helvetica,sans-Serif" font-size="10.00">core/compat/crypto.h</text>
</a>
</g>
</g>
<!-- Node1&#45;&gt;Node21 -->
<g id="edge29_Node000001_Node000021" class="edge">
<title>Node1&#45;&gt;Node21</title>
<g id="a_edge29_Node000001_Node000021"><a xlink:title=" ">
<path fill="none" stroke="#63b8ff" d="M396.32,-362.98C302.54,-348.4 126.83,-315.97 83,-272 66.86,-255.8 61.88,-229.06 60.44,-211"/>
<polygon fill="#63b8ff" stroke="#63b8ff" points="63.92,-210.63 59.92,-200.82 56.93,-210.98 63.92,-210.63"/>
</a>
</g>
</g>
<!-- Node22 -->
<g id="Node000022" class="node">
<title>Node22</title>
<g id="a_Node000022"><a xlink:href="version_8h.html" target="_top" xlink:title=" ">
<polygon fill="white" stroke="#666666" points="535,-327 449,-327 449,-308 535,-308 535,-327"/>
<text text-anchor="middle" x="492" y="-315" font-family="Helvetica,sans-Serif" font-size="10.00">core/version.h</text>
</a>
</g>
</g>
<!-- Node1&#45;&gt;Node22 -->
<g id="edge32_Node000001_Node000022" class="edge">
<title>Node1&#45;&gt;Node22</title>
<g id="a_edge32_Node000001_Node000022"><a xlink:title=" ">
<path fill="none" stroke="#63b8ff" d="M461.94,-362.75C466.98,-355.34 474.34,-344.5 480.51,-335.41"/>
<polygon fill="#63b8ff" stroke="#63b8ff" points="483.44,-337.33 486.17,-327.09 477.65,-333.39 483.44,-337.33"/>
</a>
</g>
</g>
<!-- Node23 -->
<g id="Node000023" class="node">
<title>Node23</title>
<g id="a_Node000023"><a xlink:title=" ">
<polygon fill="#e0e0e0" stroke="#999999" points="606.5,-327 553.5,-327 553.5,-308 606.5,-308 606.5,-327"/>
<text text-anchor="middle" x="580" y="-315" font-family="Helvetica,sans-Serif" font-size="10.00">stdlib.h</text>
</a>
</g>
</g>
<!-- Node1&#45;&gt;Node23 -->
<g id="edge34_Node000001_Node000023" class="edge">
<title>Node1&#45;&gt;Node23</title>
<g id="a_edge34_Node000001_Node000023"><a xlink:title=" ">
<path fill="none" stroke="#63b8ff" d="M475.92,-362.98C496.05,-354.38 527.38,-340.99 550.41,-331.15"/>
<polygon fill="#63b8ff" stroke="#63b8ff" points="551.9,-334.32 559.71,-327.17 549.14,-327.88 551.9,-334.32"/>
</a>
</g>
</g>
<!-- Node24 -->
<g id="Node000024" class="node">
<title>Node24</title>
<g id="a_Node000024"><a xlink:title=" ">
<polygon fill="#e0e0e0" stroke="#999999" points="677.5,-327 624.5,-327 624.5,-308 677.5,-308 677.5,-327"/>
<text text-anchor="middle" x="651" y="-315" font-family="Helvetica,sans-Serif" font-size="10.00">string.h</text>
</a>
</g>
</g>
<!-- Node1&#45;&gt;Node24 -->
<g id="edge35_Node000001_Node000024" class="edge">
<title>Node1&#45;&gt;Node24</title>
<g id="a_edge35_Node000001_Node000024"><a xlink:title=" ">
<path fill="none" stroke="#63b8ff" d="M487.33,-362.98C522.07,-353.54 578.02,-338.33 614.66,-328.38"/>
<polygon fill="#63b8ff" stroke="#63b8ff" points="615.71,-331.72 624.45,-325.72 613.88,-324.96 615.71,-331.72"/>
</a>
</g>
</g>
<!-- Node25 -->
<g id="Node000025" class="node">
<title>Node25</title>
<g id="a_Node000025"><a xlink:title=" ">
<polygon fill="#e0e0e0" stroke="#999999" points="752,-327 696,-327 696,-308 752,-308 752,-327"/>
<text text-anchor="middle" x="724" y="-315" font-family="Helvetica,sans-Serif" font-size="10.00">unistd.h</text>
</a>
</g>
</g>
<!-- Node1&#45;&gt;Node25 -->
<g id="edge37_Node000001_Node000025" class="edge">
<title>Node1&#45;&gt;Node25</title>
<g id="a_edge37_Node000001_Node000025"><a xlink:title=" ">
<path fill="none" stroke="#63b8ff" d="M503,-362.95C547.55,-354.74 616.61,-341.71 685.57,-327.24"/>
<polygon fill="#63b8ff" stroke="#63b8ff" points="686.68,-330.59 695.74,-325.1 685.23,-323.74 686.68,-330.59"/>
</a>
</g>
</g>
<!-- Node3 -->
<g id="Node000003" class="node">
<title>Node3</title>
<g id="a_Node000003"><a xlink:title=" ">
<polygon fill="#e0e0e0" stroke="#999999" points="336.5,-19 283.5,-19 283.5,0 336.5,0 336.5,-19"/>
<text text-anchor="middle" x="310" y="-7" font-family="Helvetica,sans-Serif" font-size="10.00">stdint.h</text>
</a>
</g>
</g>
<!-- Node2&#45;&gt;Node3 -->
<g id="edge2_Node000002_Node000003" class="edge">
<title>Node2&#45;&gt;Node3</title>
<g id="a_edge2_Node000002_Node000003"><a xlink:title=" ">
<path fill="none" stroke="#63b8ff" d="M393.26,-312.75C438.19,-304.26 532.75,-281.2 500,-242 442.38,-173.02 373.88,-258.6 301,-206 264.05,-179.33 255.4,-154.54 265,-110 271.57,-79.54 288.25,-47.18 299.35,-27.92"/>
<polygon fill="#63b8ff" stroke="#63b8ff" points="302.48,-29.5 304.57,-19.11 296.46,-25.93 302.48,-29.5"/>
</a>
</g>
</g>
<!-- Node4 -->
<g id="Node000004" class="node">
<title>Node4</title>
<g id="a_Node000004"><a xlink:title=" ">
<polygon fill="#e0e0e0" stroke="#999999" points="207,-134.5 151,-134.5 151,-115.5 207,-115.5 207,-134.5"/>
<text text-anchor="middle" x="179" y="-122.5" font-family="Helvetica,sans-Serif" font-size="10.00">stddef.h</text>
</a>
</g>
</g>
<!-- Node2&#45;&gt;Node4 -->
<g id="edge3_Node000002_Node000004" class="edge">
<title>Node2&#45;&gt;Node4</title>
<g id="a_edge3_Node000002_Node000004"><a xlink:title=" ">
<path fill="none" stroke="#63b8ff" d="M348.98,-312.07C313.8,-304.58 247.13,-288.62 230,-272 194.11,-237.19 183.45,-175.77 180.3,-144.87"/>
<polygon fill="#63b8ff" stroke="#63b8ff" points="183.77,-144.31 179.43,-134.65 176.79,-144.91 183.77,-144.31"/>
</a>
</g>
</g>
<!-- Node2&#45;&gt;Node5 -->
<g id="edge4_Node000002_Node000005" class="edge">
<title>Node2&#45;&gt;Node5</title>
<g id="a_edge4_Node000002_Node000005"><a xlink:title=" ">
<path fill="none" stroke="#63b8ff" d="M393.38,-310.78C397.87,-309.76 402.57,-308.77 407,-308 546.25,-283.72 586.11,-307.25 723,-272 725.16,-271.44 727.36,-270.78 729.56,-270.04"/>
<polygon fill="#63b8ff" stroke="#63b8ff" points="730.84,-273.3 738.97,-266.51 728.37,-266.75 730.84,-273.3"/>
</a>
</g>
</g>
<!-- Node2&#45;&gt;Node6 -->
<g id="edge5_Node000002_Node000006" class="edge">
<title>Node2&#45;&gt;Node6</title>
<g id="a_edge5_Node000002_Node000006"><a xlink:title=" ">
<path fill="none" stroke="#63b8ff" d="M348.87,-311.74C312.09,-303.79 236.08,-287.17 172,-272 164.99,-270.34 157.5,-268.51 150.35,-266.73"/>
<polygon fill="#63b8ff" stroke="#63b8ff" points="150.78,-263.23 140.22,-264.2 149.08,-270.02 150.78,-263.23"/>
</a>
</g>
</g>
<!-- Node7 -->
<g id="Node000007" class="node">
<title>Node7</title>
<g id="a_Node000007"><a xlink:title=" ">
<polygon fill="#e0e0e0" stroke="#999999" points="346,-134.5 274,-134.5 274,-115.5 346,-115.5 346,-134.5"/>
<text text-anchor="middle" x="310" y="-122.5" font-family="Helvetica,sans-Serif" font-size="10.00">sys/types.h</text>
</a>
</g>
</g>
<!-- Node2&#45;&gt;Node7 -->
<g id="edge8_Node000002_Node000007" class="edge">
<title>Node2&#45;&gt;Node7</title>
<g id="a_edge8_Node000002_Node000007"><a xlink:title=" ">
<path fill="none" stroke="#63b8ff" d="M348.75,-311.99C315.52,-304.75 255.47,-289.54 243,-272 212.42,-228.99 263.64,-169.8 292.45,-141.85"/>
<polygon fill="#63b8ff" stroke="#63b8ff" points="295.02,-144.23 299.9,-134.83 290.22,-139.14 295.02,-144.23"/>
</a>
</g>
</g>
<!-- Node8 -->
<g id="Node000008" class="node">
<title>Node8</title>
<g id="a_Node000008"><a xlink:href="root_2protocol_2protocol_8h.html" target="_top" xlink:title=" ">
<polygon fill="white" stroke="#666666" points="713.5,-272 586.5,-272 586.5,-242 713.5,-242 713.5,-272"/>
<text text-anchor="start" x="594.5" y="-260" font-family="Helvetica,sans-Serif" font-size="10.00">protocols/root/protocol</text>
<text text-anchor="middle" x="650" y="-249" font-family="Helvetica,sans-Serif" font-size="10.00">/protocol.h</text>
</a>
</g>
</g>
<!-- Node2&#45;&gt;Node8 -->
<g id="edge9_Node000002_Node000008" class="edge">
<title>Node2&#45;&gt;Node8</title>
<g id="a_edge9_Node000002_Node000008"><a xlink:title=" ">
<path fill="none" stroke="#63b8ff" d="M393.06,-311.18C397.66,-310.11 402.49,-309 407,-308 463.74,-295.47 528.16,-282.26 576.41,-272.57"/>
<polygon fill="#63b8ff" stroke="#63b8ff" points="577.33,-275.95 586.45,-270.55 575.96,-269.09 577.33,-275.95"/>
</a>
</g>
</g>
<!-- Node16 -->
<g id="Node000016" class="node">
<title>Node16</title>
<g id="a_Node000016"><a xlink:href="wire__codec_8h.html" target="_top" xlink:title=" ">
<polygon fill="white" stroke="#666666" points="437.5,-206 310.5,-206 310.5,-176 437.5,-176 437.5,-206"/>
<text text-anchor="start" x="318.5" y="-194" font-family="Helvetica,sans-Serif" font-size="10.00">protocols/root/protocol</text>
<text text-anchor="middle" x="374" y="-183" font-family="Helvetica,sans-Serif" font-size="10.00">/codec/wire_codec.h</text>
</a>
</g>
</g>
<!-- Node2&#45;&gt;Node16 -->
<g id="edge25_Node000002_Node000016" class="edge">
<title>Node2&#45;&gt;Node16</title>
<g id="a_edge25_Node000002_Node000016"><a xlink:title=" ">
<path fill="none" stroke="#63b8ff" d="M393.28,-311.17C436.88,-300.65 529.65,-277.7 534,-272 562.35,-234.88 502.17,-213.76 447.7,-202.66"/>
<polygon fill="#63b8ff" stroke="#63b8ff" points="448.1,-199.17 437.61,-200.7 446.76,-206.04 448.1,-199.17"/>
</a>
</g>
</g>
<!-- Node18 -->
<g id="Node000018" class="node">
<title>Node18</title>
<g id="a_Node000018"><a xlink:href="brix__net_8h.html" target="_top" xlink:title=" ">
<polygon fill="white" stroke="#666666" points="317.5,-266.5 252.5,-266.5 252.5,-247.5 317.5,-247.5 317.5,-266.5"/>
<text text-anchor="middle" x="285" y="-254.5" font-family="Helvetica,sans-Serif" font-size="10.00">brix_net.h</text>
</a>
</g>
</g>
<!-- Node2&#45;&gt;Node18 -->
<g id="edge26_Node000002_Node000018" class="edge">
<title>Node2&#45;&gt;Node18</title>
<g id="a_edge26_Node000002_Node000018"><a xlink:title=" ">
<path fill="none" stroke="#63b8ff" d="M358.31,-307.87C344.59,-298.54 322.5,-283.51 306.15,-272.38"/>
<polygon fill="#63b8ff" stroke="#63b8ff" points="307.98,-269.4 297.74,-266.67 304.04,-275.19 307.98,-269.4"/>
</a>
</g>
</g>
<!-- Node19 -->
<g id="Node000019" class="node">
<title>Node19</title>
<g id="a_Node000019"><a xlink:href="brix__auth_8h.html" target="_top" xlink:title=" ">
<polygon fill="white" stroke="#666666" points="406.5,-266.5 335.5,-266.5 335.5,-247.5 406.5,-247.5 406.5,-266.5"/>
<text text-anchor="middle" x="371" y="-254.5" font-family="Helvetica,sans-Serif" font-size="10.00">brix_auth.h</text>
</a>
</g>
</g>
<!-- Node2&#45;&gt;Node19 -->
<g id="edge27_Node000002_Node000019" class="edge">
<title>Node2&#45;&gt;Node19</title>
<g id="a_edge27_Node000002_Node000019"><a xlink:title=" ">
<path fill="none" stroke="#63b8ff" d="M371,-307.87C371,-299.75 371,-287.31 371,-276.89"/>
<polygon fill="#63b8ff" stroke="#63b8ff" points="374.5,-276.67 371,-266.67 367.5,-276.67 374.5,-276.67"/>
</a>
</g>
</g>
<!-- Node20 -->
<g id="Node000020" class="node">
<title>Node20</title>
<g id="a_Node000020"><a xlink:href="brix__ops_8h.html" target="_top" xlink:title=" ">
<polygon fill="white" stroke="#666666" points="491.5,-266.5 424.5,-266.5 424.5,-247.5 491.5,-247.5 491.5,-266.5"/>
<text text-anchor="middle" x="458" y="-254.5" font-family="Helvetica,sans-Serif" font-size="10.00">brix_ops.h</text>
</a>
</g>
</g>
<!-- Node2&#45;&gt;Node20 -->
<g id="edge28_Node000002_Node000020" class="edge">
<title>Node2&#45;&gt;Node20</title>
<g id="a_edge28_Node000002_Node000020"><a xlink:title=" ">
<path fill="none" stroke="#63b8ff" d="M383.84,-307.87C397.72,-298.54 420.07,-283.51 436.61,-272.38"/>
<polygon fill="#63b8ff" stroke="#63b8ff" points="438.76,-275.15 445.11,-266.67 434.86,-269.34 438.76,-275.15"/>
</a>
</g>
</g>
<!-- Node6&#45;&gt;Node4 -->
<g id="edge6_Node000006_Node000004" class="edge">
<title>Node6&#45;&gt;Node4</title>
<g id="a_edge6_Node000006_Node000004"><a xlink:title=" ">
<path fill="none" stroke="#63b8ff" d="M120.13,-247.47C130.28,-226.54 156.56,-172.3 170.32,-143.91"/>
<polygon fill="#63b8ff" stroke="#63b8ff" points="173.56,-145.26 174.77,-134.73 167.26,-142.2 173.56,-145.26"/>
</a>
</g>
</g>
<!-- Node6&#45;&gt;Node6 -->
<g id="edge7_Node000006_Node000006" class="edge">
<title>Node6&#45;&gt;Node6</title>
<g id="a_edge7_Node000006_Node000006"><a xlink:title=" ">
<path fill="none" stroke="#63b8ff" d="M131.51,-266.53C144.46,-270.61 158,-267.43 158,-257 158,-249.26 150.54,-245.51 141.4,-245.76"/>
<polygon fill="#63b8ff" stroke="#63b8ff" points="140.77,-242.32 131.51,-247.47 141.96,-249.22 140.77,-242.32"/>
</a>
</g>
</g>
<!-- Node9 -->
<g id="Node000009" class="node">
<title>Node9</title>
<g id="a_Node000009"><a xlink:href="types_8h.html" target="_top" xlink:title=" ">
<polygon fill="white" stroke="#666666" points="566.5,-74 513.5,-74 513.5,-55 566.5,-55 566.5,-74"/>
<text text-anchor="middle" x="540" y="-62" font-family="Helvetica,sans-Serif" font-size="10.00">types.h</text>
</a>
</g>
</g>
<!-- Node8&#45;&gt;Node9 -->
<g id="edge10_Node000008_Node000009" class="edge">
<title>Node8&#45;&gt;Node9</title>
<g id="a_edge10_Node000008_Node000009"><a xlink:title=" ">
<path fill="none" stroke="#63b8ff" d="M713.94,-242.41C763.35,-231.26 824.55,-215.77 832,-206 843.39,-191.05 844.46,-128.89 827,-110 793.87,-74.17 646.76,-67.08 576.98,-65.76"/>
<polygon fill="#63b8ff" stroke="#63b8ff" points="576.92,-62.25 566.87,-65.59 576.81,-69.25 576.92,-62.25"/>
</a>
</g>
</g>
<!-- Node10 -->
<g id="Node000010" class="node">
<title>Node10</title>
<g id="a_Node000010"><a xlink:href="opcodes_8h.html" target="_top" xlink:title=" ">
<polygon fill="white" stroke="#666666" points="495,-74 429,-74 429,-55 495,-55 495,-74"/>
<text text-anchor="middle" x="462" y="-62" font-family="Helvetica,sans-Serif" font-size="10.00">opcodes.h</text>
</a>
</g>
</g>
<!-- Node8&#45;&gt;Node10 -->
<g id="edge12_Node000008_Node000010" class="edge">
<title>Node8&#45;&gt;Node10</title>
<g id="a_edge12_Node000008_Node000010"><a xlink:title=" ">
<path fill="none" stroke="#63b8ff" d="M656.97,-241.71C666.21,-224.1 684.05,-194.26 707,-176 739.75,-149.95 770.75,-174.79 794,-140 801.41,-128.92 802.83,-119.99 794,-110 752.85,-63.43 583.55,-82.59 505.39,-73.86"/>
<polygon fill="#63b8ff" stroke="#63b8ff" points="505.81,-70.38 495.43,-72.5 504.87,-77.32 505.81,-70.38"/>
</a>
</g>
</g>
<!-- Node11 -->
<g id="Node000011" class="node">
<title>Node11</title>
<g id="a_Node000011"><a xlink:href="flags_8h.html" target="_top" xlink:title=" ">
<polygon fill="white" stroke="#666666" points="764.5,-200.5 715.5,-200.5 715.5,-181.5 764.5,-181.5 764.5,-200.5"/>
<text text-anchor="middle" x="740" y="-188.5" font-family="Helvetica,sans-Serif" font-size="10.00">flags.h</text>
</a>
</g>
</g>
<!-- Node8&#45;&gt;Node11 -->
<g id="edge13_Node000008_Node000011" class="edge">
<title>Node8&#45;&gt;Node11</title>
<g id="a_edge13_Node000008_Node000011"><a xlink:title=" ">
<path fill="none" stroke="#63b8ff" d="M669.97,-241.8C684.64,-231.37 704.51,-217.24 719.34,-206.69"/>
<polygon fill="#63b8ff" stroke="#63b8ff" points="721.7,-209.31 727.82,-200.66 717.65,-203.6 721.7,-209.31"/>
</a>
</g>
</g>
<!-- Node12 -->
<g id="Node000012" class="node">
<title>Node12</title>
<g id="a_Node000012"><a xlink:href="wire_8h.html" target="_top" xlink:title=" ">
<polygon fill="white" stroke="#666666" points="640.5,-200.5 593.5,-200.5 593.5,-181.5 640.5,-181.5 640.5,-200.5"/>
<text text-anchor="middle" x="617" y="-188.5" font-family="Helvetica,sans-Serif" font-size="10.00">wire.h</text>
</a>
</g>
</g>
<!-- Node8&#45;&gt;Node12 -->
<g id="edge14_Node000008_Node000012" class="edge">
<title>Node8&#45;&gt;Node12</title>
<g id="a_edge14_Node000008_Node000012"><a xlink:title=" ">
<path fill="none" stroke="#63b8ff" d="M642.68,-241.8C637.83,-232.41 631.45,-220.02 626.25,-209.95"/>
<polygon fill="#63b8ff" stroke="#63b8ff" points="629.25,-208.13 621.56,-200.84 623.03,-211.34 629.25,-208.13"/>
</a>
</g>
</g>
<!-- Node8&#45;&gt;Node16 -->
<g id="edge20_Node000008_Node000016" class="edge">
<title>Node8&#45;&gt;Node16</title>
<g id="a_edge20_Node000008_Node000016"><a xlink:title=" ">
<path fill="none" stroke="#63b8ff" d="M589.43,-241.95C546.65,-232.03 489.19,-218.71 444.37,-208.32"/>
<polygon fill="#63b8ff" stroke="#63b8ff" points="444.96,-204.86 434.43,-206.01 443.38,-211.68 444.96,-204.86"/>
</a>
</g>
</g>
<!-- Node17 -->
<g id="Node000017" class="node">
<title>Node17</title>
<g id="a_Node000017"><a xlink:href="gsi_8h.html" target="_top" xlink:title=" ">
<polygon fill="white" stroke="#666666" points="823,-200.5 783,-200.5 783,-181.5 823,-181.5 823,-200.5"/>
<text text-anchor="middle" x="803" y="-188.5" font-family="Helvetica,sans-Serif" font-size="10.00">gsi.h</text>
</a>
</g>
</g>
<!-- Node8&#45;&gt;Node17 -->
<g id="edge24_Node000008_Node000017" class="edge">
<title>Node8&#45;&gt;Node17</title>
<g id="a_edge24_Node000008_Node000017"><a xlink:title=" ">
<path fill="none" stroke="#63b8ff" d="M686.62,-241.97C711.45,-232.28 744.92,-218.87 774,-206 774.83,-205.63 775.67,-205.26 776.51,-204.88"/>
<polygon fill="#63b8ff" stroke="#63b8ff" points="778.03,-208.03 785.61,-200.63 775.06,-201.69 778.03,-208.03"/>
</a>
</g>
</g>
<!-- Node9&#45;&gt;Node3 -->
<g id="edge11_Node000009_Node000003" class="edge">
<title>Node9&#45;&gt;Node3</title>
<g id="a_edge11_Node000009_Node000003"><a xlink:title=" ">
<path fill="none" stroke="#63b8ff" d="M513.27,-57.17C510.14,-56.43 507,-55.7 504,-55 449.16,-42.24 385.54,-27.69 346.53,-18.81"/>
<polygon fill="#63b8ff" stroke="#63b8ff" points="347.21,-15.37 336.69,-16.56 345.66,-22.2 347.21,-15.37"/>
</a>
</g>
</g>
<!-- Node13 -->
<g id="Node000013" class="node">
<title>Node13</title>
<g id="a_Node000013"><a xlink:href="wire__core__requests_8h.html" target="_top" xlink:title=" ">
<polygon fill="white" stroke="#666666" points="522,-134.5 402,-134.5 402,-115.5 522,-115.5 522,-134.5"/>
<text text-anchor="middle" x="462" y="-122.5" font-family="Helvetica,sans-Serif" font-size="10.00">wire_core_requests.h</text>
</a>
</g>
</g>
<!-- Node12&#45;&gt;Node13 -->
<g id="edge15_Node000012_Node000013" class="edge">
<title>Node12&#45;&gt;Node13</title>
<g id="a_edge15_Node000012_Node000013"><a xlink:title=" ">
<path fill="none" stroke="#63b8ff" d="M596.1,-181.37C569.4,-170.35 523.01,-151.19 492.41,-138.55"/>
<polygon fill="#63b8ff" stroke="#63b8ff" points="493.65,-135.28 483.07,-134.7 490.98,-141.75 493.65,-135.28"/>
</a>
</g>
</g>
<!-- Node14 -->
<g id="Node000014" class="node">
<title>Node14</title>
<g id="a_Node000014"><a xlink:href="wire__write__extended__requests_8h.html" target="_top" xlink:title=" ">
<polygon fill="white" stroke="#666666" points="659.5,-140 540.5,-140 540.5,-110 659.5,-110 659.5,-140"/>
<text text-anchor="start" x="548.5" y="-128" font-family="Helvetica,sans-Serif" font-size="10.00">wire_write_extended</text>
<text text-anchor="middle" x="600" y="-117" font-family="Helvetica,sans-Serif" font-size="10.00">_requests.h</text>
</a>
</g>
</g>
<!-- Node12&#45;&gt;Node14 -->
<g id="edge18_Node000012_Node000014" class="edge">
<title>Node12&#45;&gt;Node14</title>
<g id="a_edge18_Node000012_Node000014"><a xlink:title=" ">
<path fill="none" stroke="#63b8ff" d="M614.71,-181.37C612.59,-173.4 609.35,-161.2 606.45,-150.27"/>
<polygon fill="#63b8ff" stroke="#63b8ff" points="609.76,-149.13 603.81,-140.36 603,-150.92 609.76,-149.13"/>
</a>
</g>
</g>
<!-- Node15 -->
<g id="Node000015" class="node">
<title>Node15</title>
<g id="a_Node000015"><a xlink:href="wire__vendor__ext_8h.html" target="_top" xlink:title=" ">
<polygon fill="white" stroke="#666666" points="784.5,-134.5 677.5,-134.5 677.5,-115.5 784.5,-115.5 784.5,-134.5"/>
<text text-anchor="middle" x="731" y="-122.5" font-family="Helvetica,sans-Serif" font-size="10.00">wire_vendor_ext.h</text>
</a>
</g>
</g>
<!-- Node12&#45;&gt;Node15 -->
<g id="edge19_Node000012_Node000015" class="edge">
<title>Node12&#45;&gt;Node15</title>
<g id="a_edge19_Node000012_Node000015"><a xlink:title=" ">
<path fill="none" stroke="#63b8ff" d="M632.37,-181.37C651.41,-170.68 684.07,-152.35 706.56,-139.72"/>
<polygon fill="#63b8ff" stroke="#63b8ff" points="708.5,-142.65 715.5,-134.7 705.07,-136.54 708.5,-142.65"/>
</a>
</g>
</g>
<!-- Node13&#45;&gt;Node9 -->
<g id="edge16_Node000013_Node000009" class="edge">
<title>Node13&#45;&gt;Node9</title>
<g id="a_edge16_Node000013_Node000009"><a xlink:title=" ">
<path fill="none" stroke="#63b8ff" d="M473.51,-115.37C485.84,-106.12 505.62,-91.28 520.41,-80.19"/>
<polygon fill="#63b8ff" stroke="#63b8ff" points="522.54,-82.97 528.44,-74.17 518.34,-77.37 522.54,-82.97"/>
</a>
</g>
</g>
<!-- Node13&#45;&gt;Node10 -->
<g id="edge17_Node000013_Node000010" class="edge">
<title>Node13&#45;&gt;Node10</title>
<g id="a_edge17_Node000013_Node000010"><a xlink:title=" ">
<path fill="none" stroke="#63b8ff" d="M462,-115.37C462,-107.25 462,-94.81 462,-84.39"/>
<polygon fill="#63b8ff" stroke="#63b8ff" points="465.5,-84.17 462,-74.17 458.5,-84.17 465.5,-84.17"/>
</a>
</g>
</g>
<!-- Node16&#45;&gt;Node3 -->
<g id="edge21_Node000016_Node000003" class="edge">
<title>Node16&#45;&gt;Node3</title>
<g id="a_edge21_Node000016_Node000003"><a xlink:title=" ">
<path fill="none" stroke="#63b8ff" d="M371.5,-175.9C368.44,-159.73 362.7,-132.56 355,-110 344.88,-80.36 329.08,-47.54 319.15,-27.98"/>
<polygon fill="#63b8ff" stroke="#63b8ff" points="322.24,-26.34 314.55,-19.06 316.02,-29.55 322.24,-26.34"/>
</a>
</g>
</g>
<!-- Node16&#45;&gt;Node4 -->
<g id="edge22_Node000016_Node000004" class="edge">
<title>Node16&#45;&gt;Node4</title>
<g id="a_edge22_Node000016_Node000004"><a xlink:title=" ">
<path fill="none" stroke="#63b8ff" d="M331.21,-175.95C296.26,-164.48 247.44,-148.46 214.6,-137.68"/>
<polygon fill="#63b8ff" stroke="#63b8ff" points="215.54,-134.31 204.95,-134.52 213.36,-140.96 215.54,-134.31"/>
</a>
</g>
</g>
<!-- Node16&#45;&gt;Node7 -->
<g id="edge23_Node000016_Node000007" class="edge">
<title>Node16&#45;&gt;Node7</title>
<g id="a_edge23_Node000016_Node000007"><a xlink:title=" ">
<path fill="none" stroke="#63b8ff" d="M359.8,-175.8C349.82,-165.82 336.46,-152.46 326.09,-142.09"/>
<polygon fill="#63b8ff" stroke="#63b8ff" points="328.39,-139.44 318.84,-134.84 323.44,-144.39 328.39,-139.44"/>
</a>
</g>
</g>
<!-- Node21&#45;&gt;Node3 -->
<g id="edge31_Node000021_Node000003" class="edge">
<title>Node21&#45;&gt;Node3</title>
<g id="a_edge31_Node000021_Node000003"><a xlink:title=" ">
<path fill="none" stroke="#63b8ff" d="M67.59,-181.41C81.45,-166.03 112.17,-133.19 142,-110 179.01,-81.23 191.64,-78.84 232,-55 249.9,-44.43 270.31,-32.8 285.76,-24.08"/>
<polygon fill="#63b8ff" stroke="#63b8ff" points="287.68,-27.02 294.68,-19.06 284.25,-20.92 287.68,-27.02"/>
</a>
</g>
</g>
<!-- Node21&#45;&gt;Node4 -->
<g id="edge30_Node000021_Node000004" class="edge">
<title>Node21&#45;&gt;Node4</title>
<g id="a_edge30_Node000021_Node000004"><a xlink:title=" ">
<path fill="none" stroke="#63b8ff" d="M76.05,-181.37C96.01,-170.63 130.32,-152.18 153.8,-139.55"/>
<polygon fill="#63b8ff" stroke="#63b8ff" points="155.68,-142.52 162.83,-134.7 152.36,-136.35 155.68,-142.52"/>
</a>
</g>
</g>
</g>
</svg>

<g id="navigator" transform="translate(0 0)" fill="#404254">
  <rect fill="#f2f5e9" fill-opacity="0.5" stroke="#606060" stroke-width=".5" x="0" y="0" width="60" height="60"/>
  <use id="zoomplus" xlink:href="#zoomPlus" x="17" y="9" onmousedown="handleZoom(evt,'in')"/>
  <use id="zoomminus" xlink:href="#zoomMin" x="42" y="9" onmousedown="handleZoom(evt,'out')"/>
  <use id="reset" xlink:href="#resetDef" x="30" y="36" onmousedown="handleReset()"/>
   <use id="arrowup" xlink:href="#arrowUp" x="0" y="0" onmousedown="handlePan(0,-1)"/>
  <use id="arrowright" xlink:href="#arrowRight" x="0" y="0" onmousedown="handlePan(1,0)"/>
  <use id="arrowdown" xlink:href="#arrowDown" x="0" y="0" onmousedown="handlePan(0,1)"/>
  <use id="arrowleft" xlink:href="#arrowLeft" x="0" y="0" onmousedown="handlePan(-1,0)"/>
</g>
<svg viewBox="0 0 15 15" width="100%" height="30px" preserveAspectRatio="xMaxYMin meet">
 <g id="arrow_out" transform="scale(0.3 0.3)">
  <a xlink:href="wait41_8c__incl_org.svg" target="_base">
   <rect id="button" ry="5" rx="5" y="6" x="6" height="38" width="38"
        fill="#f2f5e9" fill-opacity="0.5" stroke="#606060" stroke-width="1.0"/>
   <path id="arrow"
     d="M 11.500037,31.436501 C 11.940474,20.09759 22.043105,11.32322 32.158766,21.979434 L 37.068811,17.246167 C 37.068811,17.246167 37.088388,32 37.088388,32 L 22.160133,31.978069 C 22.160133,31.978069 26.997745,27.140456 26.997745,27.140456 C 18.528582,18.264221 13.291696,25.230495 11.500037,31.436501 z"
     style="fill:#404040;"/>
  </a>
 </g>
</svg>

<style type='text/css'>
<![CDATA[
[data-mouse-over-selected='false'] { opacity: 0.7; }
[data-mouse-over-selected='true']  { opacity: 1.0; }
]]>
</style>
<script type="application/ecmascript"><![CDATA[
document.addEventListener('DOMContentLoaded', (event) => {
  highlightEdges();
  highlightAdjacentNodes();
});
]]></script>
</svg>
