<?xml version="1.0" encoding="UTF-8" standalone="no"?>
<!DOCTYPE svg PUBLIC "-//W3C//DTD SVG 1.1//EN"
 "http://www.w3.org/Graphics/SVG/1.1/DTD/svg11.dtd">
<!-- Generated by graphviz version 2.43.0 (0)
 -->
<!-- Title: src/fs/cache/writethrough_metrics.h Pages: 1 -->
<!--zoomable 115 -->

<svg id="main" version="1.1" xmlns="http://www.w3.org/2000/svg" xmlns:xlink="http://www.w3.org/1999/xlink" xml:space="preserve" onload="init(evt)">
<style type="text/css"><![CDATA[
.node, .edge {opacity: 0.7;}
.node.selected, .edge.selected {opacity: 1;}
.edge:hover path { stroke: red; }
.edge:hover polygon { stroke: red; fill: red; }
]]></style>

<defs>
  <circle id="rim" cx="0" cy="0" r="7"/>
  <circle id="rim2" cx="0" cy="0" r="3.5"/>
  <g id="zoomPlus">
    <use xlink:href="#rim" fill="#404040"><set attributeName="fill" to="#808080" begin="zoomplus.mouseover" end="zoomplus.mouseout"/></use>
    <path d="M-4,0h8M0,-4v8" fill="none" stroke="white" stroke-width="1.5" pointer-events="none"/>
  </g>
  <g id="zoomMin">
    <use xlink:href="#rim" fill="#404040"><set attributeName="fill" to="#808080" begin="zoomminus.mouseover" end="zoomminus.mouseout"/></use>
    <path d="M-4,0h8" fill="none" stroke="white" stroke-width="1.5" pointer-events="none"/>
  </g>
  <g id="arrowUp" transform="translate(30 24)">
    <use xlink:href="#rim"/>
    <path pointer-events="none" fill="none" stroke="white" stroke-width="1.5" d="M0,-3.0v7 M-2.5,-0.5L0,-3.0L2.5,-0.5"/>
  </g>
  <g id="arrowRight" transform="rotate(90) translate(36 -43)">
    <use xlink:href="#rim"/>
    <path pointer-events="none" fill="none" stroke="white" stroke-width="1.5" d="M0,-3.0v7 M-2.5,-0.5L0,-3.0L2.5,-0.5"/>
  </g>
  <g id="arrowDown" transform="rotate(180) translate(-30 -48)">
    <use xlink:href="#rim"/>
    <path pointer-events="none" fill="none" stroke="white" stroke-width="1.5" d="M0,-3.0v7 M-2.5,-0.5L0,-3.0L2.5,-0.5"/>
  </g>
  <g id="arrowLeft" transform="rotate(270) translate(-36 17)">
    <use xlink:href="#rim"/>
    <path pointer-events="none" fill="none" stroke="white" stroke-width="1.5" d="M0,-3.0v7 M-2.5,-0.5L0,-3.0L2.5,-0.5"/>
  </g>
  <g id="resetDef">
    <use xlink:href="#rim2" fill="#404040"><set attributeName="fill" to="#808080" begin="reset.mouseover" end="reset.mouseout"/></use>
  </g>
</defs>
<script type="application/ecmascript">
var viewWidth = 1665;
var viewHeight = 115;
var sectionId = 'dynsection-0';
</script>
<script type="application/ecmascript" xlink:href="svg.min.js"/>
<svg id="graph" class="graph">
<g id="viewport">
<title>src/fs/cache/writethrough_metrics.h</title>
<!-- Node1 -->
<g id="Node000001" class="node">
<title>Node1</title>
<g id="a_Node000001"><a xlink:title=" ">
<polygon fill="#999999" stroke="#666666" points="933.5,-107 793.5,-107 793.5,-77 933.5,-77 933.5,-107"/>
<text text-anchor="start" x="801.5" y="-95" font-family="Helvetica,sans-Serif" font-size="10.00">src/fs/cache/writethrough</text>
<text text-anchor="middle" x="863.5" y="-84" font-family="Helvetica,sans-Serif" font-size="10.00">_metrics.h</text>
</a>
</g>
</g>
<!-- Node2 -->
<g id="Node000002" class="node">
<title>Node2</title>
<g id="a_Node000002"><a xlink:href="core_2aio_2write_8c.html" target="_top" xlink:title=" ">
<polygon fill="white" stroke="#666666" points="109,-30 0,-30 0,-11 109,-11 109,-30"/>
<text text-anchor="middle" x="54.5" y="-18" font-family="Helvetica,sans-Serif" font-size="10.00">src/core/aio/write.c</text>
</a>
</g>
</g>
<!-- Node1&#45;&gt;Node2 -->
<g id="edge1_Node000001_Node000002" class="edge">
<title>Node1&#45;&gt;Node2</title>
<g id="a_edge1_Node000001_Node000002"><a xlink:title=" ">
<path fill="none" stroke="#63b8ff" d="M783.23,-91.59C645.89,-91.28 357.49,-84.83 118.5,-41 104.79,-38.49 89.87,-34.04 77.89,-30.03"/>
<polygon fill="#63b8ff" stroke="#63b8ff" points="783.25,-95.09 793.26,-91.61 783.26,-88.09 783.25,-95.09"/>
</a>
</g>
</g>
<!-- Node3 -->
<g id="Node000003" class="node">
<title>Node3</title>
<g id="a_Node000003"><a xlink:href="fd__table_8c.html" target="_top" xlink:title=" ">
<polygon fill="white" stroke="#666666" points="251.5,-35.5 127.5,-35.5 127.5,-5.5 251.5,-5.5 251.5,-35.5"/>
<text text-anchor="start" x="135.5" y="-23.5" font-family="Helvetica,sans-Serif" font-size="10.00">src/protocols/root</text>
<text text-anchor="middle" x="189.5" y="-12.5" font-family="Helvetica,sans-Serif" font-size="10.00">/connection/fd_table.c</text>
</a>
</g>
</g>
<!-- Node1&#45;&gt;Node3 -->
<g id="edge2_Node000001_Node000003" class="edge">
<title>Node1&#45;&gt;Node3</title>
<g id="a_edge2_Node000001_Node000003"><a xlink:title=" ">
<path fill="none" stroke="#63b8ff" d="M783.09,-89.06C666.92,-85.19 445.75,-73.83 260.5,-41 252.44,-39.57 243.98,-37.64 235.81,-35.54"/>
<polygon fill="#63b8ff" stroke="#63b8ff" points="783.21,-92.57 793.32,-89.39 783.44,-85.57 783.21,-92.57"/>
</a>
</g>
</g>
<!-- Node4 -->
<g id="Node000004" class="node">
<title>Node4</title>
<g id="a_Node000004"><a xlink:href="fd__table__teardown_8c.html" target="_top" xlink:title=" ">
<polygon fill="white" stroke="#666666" points="385.5,-41 269.5,-41 269.5,0 385.5,0 385.5,-41"/>
<text text-anchor="start" x="277.5" y="-29" font-family="Helvetica,sans-Serif" font-size="10.00">src/protocols/root</text>
<text text-anchor="start" x="277.5" y="-18" font-family="Helvetica,sans-Serif" font-size="10.00">/connection/fd_table</text>
<text text-anchor="middle" x="327.5" y="-7" font-family="Helvetica,sans-Serif" font-size="10.00">_teardown.c</text>
</a>
</g>
</g>
<!-- Node1&#45;&gt;Node4 -->
<g id="edge3_Node000001_Node000004" class="edge">
<title>Node1&#45;&gt;Node4</title>
<g id="a_edge3_Node000001_Node000004"><a xlink:title=" ">
<path fill="none" stroke="#63b8ff" d="M783.4,-86.79C689.51,-80.85 529.57,-67.64 394.5,-41 391.65,-40.44 388.74,-39.81 385.82,-39.13"/>
<polygon fill="#63b8ff" stroke="#63b8ff" points="783.19,-90.28 793.39,-87.41 783.63,-83.29 783.19,-90.28"/>
</a>
</g>
</g>
<!-- Node5 -->
<g id="Node000005" class="node">
<title>Node5</title>
<g id="a_Node000005"><a xlink:href="open__resolved__file_8c.html" target="_top" xlink:title=" ">
<polygon fill="white" stroke="#666666" points="519.5,-41 403.5,-41 403.5,0 519.5,0 519.5,-41"/>
<text text-anchor="start" x="411.5" y="-29" font-family="Helvetica,sans-Serif" font-size="10.00">src/protocols/root</text>
<text text-anchor="start" x="411.5" y="-18" font-family="Helvetica,sans-Serif" font-size="10.00">/read/open_resolved</text>
<text text-anchor="middle" x="461.5" y="-7" font-family="Helvetica,sans-Serif" font-size="10.00">_file.c</text>
</a>
</g>
</g>
<!-- Node1&#45;&gt;Node5 -->
<g id="edge4_Node000001_Node000005" class="edge">
<title>Node1&#45;&gt;Node5</title>
<g id="a_edge4_Node000001_Node000005"><a xlink:title=" ">
<path fill="none" stroke="#63b8ff" d="M783.14,-82.1C714.93,-73.81 614.69,-59.88 528.5,-41 525.66,-40.38 522.76,-39.7 519.85,-38.98"/>
<polygon fill="#63b8ff" stroke="#63b8ff" points="783.04,-85.61 793.39,-83.33 783.87,-78.66 783.04,-85.61"/>
</a>
</g>
</g>
<!-- Node6 -->
<g id="Node000006" class="node">
<title>Node6</title>
<g id="a_Node000006"><a xlink:href="open__resolved__file__dispatch_8c.html" target="_top" xlink:title=" ">
<polygon fill="white" stroke="#666666" points="653.5,-41 537.5,-41 537.5,0 653.5,0 653.5,-41"/>
<text text-anchor="start" x="545.5" y="-29" font-family="Helvetica,sans-Serif" font-size="10.00">src/protocols/root</text>
<text text-anchor="start" x="545.5" y="-18" font-family="Helvetica,sans-Serif" font-size="10.00">/read/open_resolved</text>
<text text-anchor="middle" x="595.5" y="-7" font-family="Helvetica,sans-Serif" font-size="10.00">_file_dispatch.c</text>
</a>
</g>
</g>
<!-- Node1&#45;&gt;Node6 -->
<g id="edge5_Node000001_Node000006" class="edge">
<title>Node1&#45;&gt;Node6</title>
<g id="a_edge5_Node000001_Node000006"><a xlink:title=" ">
<path fill="none" stroke="#63b8ff" d="M794.27,-74.49C755.43,-65.05 706.16,-52.78 662.5,-41 659.58,-40.21 656.58,-39.39 653.57,-38.55"/>
<polygon fill="#63b8ff" stroke="#63b8ff" points="793.87,-78 804.41,-76.95 795.52,-71.19 793.87,-78"/>
</a>
</g>
</g>
<!-- Node7 -->
<g id="Node000007" class="node">
<title>Node7</title>
<g id="a_Node000007"><a xlink:href="open__resolved__file__finalize_8c.html" target="_top" xlink:title=" ">
<polygon fill="white" stroke="#666666" points="787.5,-41 671.5,-41 671.5,0 787.5,0 787.5,-41"/>
<text text-anchor="start" x="679.5" y="-29" font-family="Helvetica,sans-Serif" font-size="10.00">src/protocols/root</text>
<text text-anchor="start" x="679.5" y="-18" font-family="Helvetica,sans-Serif" font-size="10.00">/read/open_resolved</text>
<text text-anchor="middle" x="729.5" y="-7" font-family="Helvetica,sans-Serif" font-size="10.00">_file_finalize.c</text>
</a>
</g>
</g>
<!-- Node1&#45;&gt;Node7 -->
<g id="edge6_Node000001_Node000007" class="edge">
<title>Node1&#45;&gt;Node7</title>
<g id="a_edge6_Node000001_Node000007"><a xlink:title=" ">
<path fill="none" stroke="#63b8ff" d="M827.34,-72.24C808.73,-62.59 786.07,-50.84 767.24,-41.07"/>
<polygon fill="#63b8ff" stroke="#63b8ff" points="825.89,-75.44 836.38,-76.94 829.12,-69.22 825.89,-75.44"/>
</a>
</g>
</g>
<!-- Node8 -->
<g id="Node000008" class="node">
<title>Node8</title>
<g id="a_Node000008"><a xlink:href="open__resolved__file__open_8c.html" target="_top" xlink:title=" ">
<polygon fill="white" stroke="#666666" points="921.5,-41 805.5,-41 805.5,0 921.5,0 921.5,-41"/>
<text text-anchor="start" x="813.5" y="-29" font-family="Helvetica,sans-Serif" font-size="10.00">src/protocols/root</text>
<text text-anchor="start" x="813.5" y="-18" font-family="Helvetica,sans-Serif" font-size="10.00">/read/open_resolved</text>
<text text-anchor="middle" x="863.5" y="-7" font-family="Helvetica,sans-Serif" font-size="10.00">_file_open.c</text>
</a>
</g>
</g>
<!-- Node1&#45;&gt;Node8 -->
<g id="edge7_Node000001_Node000008" class="edge">
<title>Node1&#45;&gt;Node8</title>
<g id="a_edge7_Node000001_Node000008"><a xlink:title=" ">
<path fill="none" stroke="#63b8ff" d="M863.5,-66.91C863.5,-58.47 863.5,-49.1 863.5,-41.07"/>
<polygon fill="#63b8ff" stroke="#63b8ff" points="860,-66.94 863.5,-76.94 867,-66.94 860,-66.94"/>
</a>
</g>
</g>
<!-- Node9 -->
<g id="Node000009" class="node">
<title>Node9</title>
<g id="a_Node000009"><a xlink:href="open__resolved__file__staging_8c.html" target="_top" xlink:title=" ">
<polygon fill="white" stroke="#666666" points="1055.5,-41 939.5,-41 939.5,0 1055.5,0 1055.5,-41"/>
<text text-anchor="start" x="947.5" y="-29" font-family="Helvetica,sans-Serif" font-size="10.00">src/protocols/root</text>
<text text-anchor="start" x="947.5" y="-18" font-family="Helvetica,sans-Serif" font-size="10.00">/read/open_resolved</text>
<text text-anchor="middle" x="997.5" y="-7" font-family="Helvetica,sans-Serif" font-size="10.00">_file_staging.c</text>
</a>
</g>
</g>
<!-- Node1&#45;&gt;Node9 -->
<g id="edge8_Node000001_Node000009" class="edge">
<title>Node1&#45;&gt;Node9</title>
<g id="a_edge8_Node000001_Node000009"><a xlink:title=" ">
<path fill="none" stroke="#63b8ff" d="M899.66,-72.24C918.27,-62.59 940.93,-50.84 959.76,-41.07"/>
<polygon fill="#63b8ff" stroke="#63b8ff" points="897.88,-69.22 890.62,-76.94 901.11,-75.44 897.88,-69.22"/>
</a>
</g>
</g>
<!-- Node10 -->
<g id="Node000010" class="node">
<title>Node10</title>
<g id="a_Node000010"><a xlink:href="pgwrite_8c.html" target="_top" xlink:title=" ">
<polygon fill="white" stroke="#666666" points="1175,-35.5 1074,-35.5 1074,-5.5 1175,-5.5 1175,-35.5"/>
<text text-anchor="start" x="1082" y="-23.5" font-family="Helvetica,sans-Serif" font-size="10.00">src/protocols/root</text>
<text text-anchor="middle" x="1124.5" y="-12.5" font-family="Helvetica,sans-Serif" font-size="10.00">/write/pgwrite.c</text>
</a>
</g>
</g>
<!-- Node1&#45;&gt;Node10 -->
<g id="edge9_Node000001_Node000010" class="edge">
<title>Node1&#45;&gt;Node10</title>
<g id="a_edge9_Node000001_Node000010"><a xlink:title=" ">
<path fill="none" stroke="#63b8ff" d="M935.02,-74.5C973.55,-65.29 1021.82,-53.23 1064.5,-41 1070.4,-39.31 1076.58,-37.43 1082.65,-35.52"/>
<polygon fill="#63b8ff" stroke="#63b8ff" points="933.85,-71.18 924.93,-76.9 935.47,-77.99 933.85,-71.18"/>
</a>
</g>
</g>
<!-- Node11 -->
<g id="Node000011" class="node">
<title>Node11</title>
<g id="a_Node000011"><a xlink:href="truncate_8c.html" target="_top" xlink:title=" ">
<polygon fill="white" stroke="#666666" points="1294,-35.5 1193,-35.5 1193,-5.5 1294,-5.5 1294,-35.5"/>
<text text-anchor="start" x="1201" y="-23.5" font-family="Helvetica,sans-Serif" font-size="10.00">src/protocols/root</text>
<text text-anchor="middle" x="1243.5" y="-12.5" font-family="Helvetica,sans-Serif" font-size="10.00">/write/truncate.c</text>
</a>
</g>
</g>
<!-- Node1&#45;&gt;Node11 -->
<g id="edge10_Node000001_Node000011" class="edge">
<title>Node1&#45;&gt;Node11</title>
<g id="a_edge10_Node000001_Node000011"><a xlink:title=" ">
<path fill="none" stroke="#63b8ff" d="M943.89,-82.21C1009.26,-74.17 1103.57,-60.54 1184.5,-41 1190.9,-39.46 1197.6,-37.54 1204.09,-35.52"/>
<polygon fill="#63b8ff" stroke="#63b8ff" points="943.16,-78.77 933.65,-83.45 944,-85.72 943.16,-78.77"/>
</a>
</g>
</g>
<!-- Node12 -->
<g id="Node000012" class="node">
<title>Node12</title>
<g id="a_Node000012"><a xlink:href="protocols_2root_2write_2write_8c.html" target="_top" xlink:title=" ">
<polygon fill="white" stroke="#666666" points="1413,-35.5 1312,-35.5 1312,-5.5 1413,-5.5 1413,-35.5"/>
<text text-anchor="start" x="1320" y="-23.5" font-family="Helvetica,sans-Serif" font-size="10.00">src/protocols/root</text>
<text text-anchor="middle" x="1362.5" y="-12.5" font-family="Helvetica,sans-Serif" font-size="10.00">/write/write.c</text>
</a>
</g>
</g>
<!-- Node1&#45;&gt;Node12 -->
<g id="edge11_Node000001_Node000012" class="edge">
<title>Node1&#45;&gt;Node12</title>
<g id="a_edge11_Node000001_Node000012"><a xlink:title=" ">
<path fill="none" stroke="#63b8ff" d="M943.58,-86.87C1032.39,-81.14 1179.5,-68.23 1303.5,-41 1310.14,-39.54 1317.08,-37.62 1323.78,-35.55"/>
<polygon fill="#63b8ff" stroke="#63b8ff" points="943.34,-83.37 933.58,-87.5 943.78,-90.36 943.34,-83.37"/>
</a>
</g>
</g>
<!-- Node13 -->
<g id="Node000013" class="node">
<title>Node13</title>
<g id="a_Node000013"><a xlink:href="writev_8c.html" target="_top" xlink:title=" ">
<polygon fill="white" stroke="#666666" points="1532,-35.5 1431,-35.5 1431,-5.5 1532,-5.5 1532,-35.5"/>
<text text-anchor="start" x="1439" y="-23.5" font-family="Helvetica,sans-Serif" font-size="10.00">src/protocols/root</text>
<text text-anchor="middle" x="1481.5" y="-12.5" font-family="Helvetica,sans-Serif" font-size="10.00">/write/writev.c</text>
</a>
</g>
</g>
<!-- Node1&#45;&gt;Node13 -->
<g id="edge12_Node000001_Node000013" class="edge">
<title>Node1&#45;&gt;Node13</title>
<g id="a_edge12_Node000001_Node000013"><a xlink:title=" ">
<path fill="none" stroke="#63b8ff" d="M943.82,-89.6C1053.17,-86.38 1254.51,-75.79 1422.5,-41 1429.26,-39.6 1436.33,-37.68 1443.13,-35.59"/>
<polygon fill="#63b8ff" stroke="#63b8ff" points="943.43,-86.11 933.53,-89.88 943.63,-93.1 943.43,-86.11"/>
</a>
</g>
</g>
<!-- Node14 -->
<g id="Node000014" class="node">
<title>Node14</title>
<g id="a_Node000014"><a xlink:href="writev__aio_8c.html" target="_top" xlink:title=" ">
<polygon fill="white" stroke="#666666" points="1657,-35.5 1550,-35.5 1550,-5.5 1657,-5.5 1657,-35.5"/>
<text text-anchor="start" x="1558" y="-23.5" font-family="Helvetica,sans-Serif" font-size="10.00">src/protocols/root</text>
<text text-anchor="middle" x="1603.5" y="-12.5" font-family="Helvetica,sans-Serif" font-size="10.00">/write/writev_aio.c</text>
</a>
</g>
</g>
<!-- Node1&#45;&gt;Node14 -->
<g id="edge13_Node000001_Node000014" class="edge">
<title>Node1&#45;&gt;Node14</title>
<g id="a_edge13_Node000001_Node000014"><a xlink:title=" ">
<path fill="none" stroke="#63b8ff" d="M944.08,-91.05C1071.9,-89.78 1328.47,-81.79 1541.5,-41 1548.7,-39.62 1556.25,-37.68 1563.49,-35.56"/>
<polygon fill="#63b8ff" stroke="#63b8ff" points="943.95,-87.55 933.98,-91.13 944.01,-94.55 943.95,-87.55"/>
</a>
</g>
</g>
</g>
</svg>

<g id="navigator" transform="translate(0 0)" fill="#404254">
  <rect fill="#f2f5e9" fill-opacity="0.5" stroke="#606060" stroke-width=".5" x="0" y="0" width="60" height="60"/>
  <use id="zoomplus" xlink:href="#zoomPlus" x="17" y="9" onmousedown="handleZoom(evt,'in')"/>
  <use id="zoomminus" xlink:href="#zoomMin" x="42" y="9" onmousedown="handleZoom(evt,'out')"/>
  <use id="reset" xlink:href="#resetDef" x="30" y="36" onmousedown="handleReset()"/>
   <use id="arrowup" xlink:href="#arrowUp" x="0" y="0" onmousedown="handlePan(0,-1)"/>
  <use id="arrowright" xlink:href="#arrowRight" x="0" y="0" onmousedown="handlePan(1,0)"/>
  <use id="arrowdown" xlink:href="#arrowDown" x="0" y="0" onmousedown="handlePan(0,1)"/>
  <use id="arrowleft" xlink:href="#arrowLeft" x="0" y="0" onmousedown="handlePan(-1,0)"/>
</g>
<svg viewBox="0 0 15 15" width="100%" height="30px" preserveAspectRatio="xMaxYMin meet">
 <g id="arrow_out" transform="scale(0.3 0.3)">
  <a xlink:href="writethrough__metrics_8h__dep__incl_org.svg" target="_base">
   <rect id="button" ry="5" rx="5" y="6" x="6" height="38" width="38"
        fill="#f2f5e9" fill-opacity="0.5" stroke="#606060" stroke-width="1.0"/>
   <path id="arrow"
     d="M 11.500037,31.436501 C 11.940474,20.09759 22.043105,11.32322 32.158766,21.979434 L 37.068811,17.246167 C 37.068811,17.246167 37.088388,32 37.088388,32 L 22.160133,31.978069 C 22.160133,31.978069 26.997745,27.140456 26.997745,27.140456 C 18.528582,18.264221 13.291696,25.230495 11.500037,31.436501 z"
     style="fill:#404040;"/>
  </a>
 </g>
</svg>

<style type='text/css'>
<![CDATA[
[data-mouse-over-selected='false'] { opacity: 0.7; }
[data-mouse-over-selected='true']  { opacity: 1.0; }
]]>
</style>
<script type="application/ecmascript"><![CDATA[
document.addEventListener('DOMContentLoaded', (event) => {
  highlightEdges();
  highlightAdjacentNodes();
});
]]></script>
</svg>
