<?xml version="1.0" encoding="UTF-8" standalone="no"?>
<!DOCTYPE svg PUBLIC "-//W3C//DTD SVG 1.1//EN"
 "http://www.w3.org/Graphics/SVG/1.1/DTD/svg11.dtd">
<!-- Generated by graphviz version 2.43.0 (0)
 -->
<!-- Title: src/observability/metrics/writer.c Pages: 1 -->
<svg width="1933pt" height="269pt"
 viewBox="0.00 0.00 1932.50 269.00" xmlns="http://www.w3.org/2000/svg" xmlns:xlink="http://www.w3.org/1999/xlink">
<g id="graph0" class="graph" transform="scale(1 1) rotate(0) translate(4 265)">
<title>src/observability/metrics/writer.c</title>
<!-- Node1 -->
<g id="Node000001" class="node">
<title>Node1</title>
<g id="a_Node000001"><a xlink:title=" ">
<polygon fill="#999999" stroke="#666666" points="1313,-261 1176,-261 1176,-231 1313,-231 1313,-261"/>
<text text-anchor="start" x="1184" y="-249" font-family="Helvetica,sans-Serif" font-size="10.00">src/observability/metrics</text>
<text text-anchor="middle" x="1244.5" y="-238" font-family="Helvetica,sans-Serif" font-size="10.00">/writer.c</text>
</a>
</g>
</g>
<!-- Node2 -->
<g id="Node000002" class="node">
<title>Node2</title>
<g id="a_Node000002"><a xlink:href="metrics__internal_8h.html" target="_top" xlink:title=" ">
<polygon fill="white" stroke="#666666" points="1102,-195 997,-195 997,-176 1102,-176 1102,-195"/>
<text text-anchor="middle" x="1049.5" y="-183" font-family="Helvetica,sans-Serif" font-size="10.00">metrics_internal.h</text>
</a>
</g>
</g>
<!-- Node1&#45;&gt;Node2 -->
<g id="edge1_Node000001_Node000002" class="edge">
<title>Node1&#45;&gt;Node2</title>
<g id="a_edge1_Node000001_Node000002"><a xlink:title=" ">
<path fill="none" stroke="#63b8ff" d="M1197.79,-230.99C1164.14,-220.89 1119.29,-207.44 1087.75,-197.98"/>
<polygon fill="#63b8ff" stroke="#63b8ff" points="1088.6,-194.57 1078.01,-195.05 1086.58,-201.28 1088.6,-194.57"/>
</a>
</g>
</g>
<!-- Node18 -->
<g id="Node000018" class="node">
<title>Node18</title>
<g id="a_Node000018"><a xlink:href="metrics__macros_8h.html" target="_top" xlink:title=" ">
<polygon fill="white" stroke="#666666" points="893.5,-74 789.5,-74 789.5,-55 893.5,-55 893.5,-74"/>
<text text-anchor="middle" x="841.5" y="-62" font-family="Helvetica,sans-Serif" font-size="10.00">metrics_macros.h</text>
</a>
</g>
</g>
<!-- Node1&#45;&gt;Node18 -->
<g id="edge27_Node000001_Node000018" class="edge">
<title>Node1&#45;&gt;Node18</title>
<g id="a_edge27_Node000001_Node000018"><a xlink:title=" ">
<path fill="none" stroke="#63b8ff" d="M1233.27,-230.77C1210.21,-202.62 1154.45,-139.99 1092.5,-110 1060.05,-94.29 967.23,-80.55 904.04,-72.64"/>
<polygon fill="#63b8ff" stroke="#63b8ff" points="904.13,-69.12 893.77,-71.37 903.27,-76.07 904.13,-69.12"/>
</a>
</g>
</g>
<!-- Node19 -->
<g id="Node000019" class="node">
<title>Node19</title>
<g id="a_Node000019"><a xlink:href="fs__usage_8h.html" target="_top" xlink:title=" ">
<polygon fill="white" stroke="#666666" points="1340,-74 1207,-74 1207,-55 1340,-55 1340,-74"/>
<text text-anchor="middle" x="1273.5" y="-62" font-family="Helvetica,sans-Serif" font-size="10.00">core/compat/fs_usage.h</text>
</a>
</g>
</g>
<!-- Node1&#45;&gt;Node19 -->
<g id="edge28_Node000001_Node000019" class="edge">
<title>Node1&#45;&gt;Node19</title>
<g id="a_edge28_Node000001_Node000019"><a xlink:title=" ">
<path fill="none" stroke="#63b8ff" d="M1249.15,-230.7C1252.22,-220.78 1256.1,-207.21 1258.5,-195 1266.19,-155.91 1270.4,-109.34 1272.27,-84.07"/>
<polygon fill="#63b8ff" stroke="#63b8ff" points="1275.77,-84.28 1272.98,-74.06 1268.78,-83.79 1275.77,-84.28"/>
</a>
</g>
</g>
<!-- Node21 -->
<g id="Node000021" class="node">
<title>Node21</title>
<g id="a_Node000021"><a xlink:href="kv_8h.html" target="_top" xlink:title=" ">
<polygon fill="white" stroke="#666666" points="1150,-74 1065,-74 1065,-55 1150,-55 1150,-74"/>
<text text-anchor="middle" x="1107.5" y="-62" font-family="Helvetica,sans-Serif" font-size="10.00">core/shm/kv.h</text>
</a>
</g>
</g>
<!-- Node1&#45;&gt;Node21 -->
<g id="edge33_Node000001_Node000021" class="edge">
<title>Node1&#45;&gt;Node21</title>
<g id="a_edge33_Node000001_Node000021"><a xlink:title=" ">
<path fill="none" stroke="#63b8ff" d="M1246.14,-230.96C1248.46,-204.23 1249.6,-145.56 1220.5,-110 1205.45,-91.6 1181.74,-80.78 1159.92,-74.43"/>
<polygon fill="#63b8ff" stroke="#63b8ff" points="1160.62,-70.99 1150.06,-71.81 1158.83,-77.76 1160.62,-70.99"/>
</a>
</g>
</g>
<!-- Node22 -->
<g id="Node000022" class="node">
<title>Node22</title>
<g id="a_Node000022"><a xlink:href="vfs__backend__registry_8h.html" target="_top" xlink:title=" ">
<polygon fill="white" stroke="#666666" points="1461,-140 1354,-140 1354,-110 1461,-110 1461,-140"/>
<text text-anchor="start" x="1362" y="-128" font-family="Helvetica,sans-Serif" font-size="10.00">fs/vfs/vfs_backend</text>
<text text-anchor="middle" x="1407.5" y="-117" font-family="Helvetica,sans-Serif" font-size="10.00">_registry.h</text>
</a>
</g>
</g>
<!-- Node1&#45;&gt;Node22 -->
<g id="edge36_Node000001_Node000022" class="edge">
<title>Node1&#45;&gt;Node22</title>
<g id="a_edge36_Node000001_Node000022"><a xlink:title=" ">
<path fill="none" stroke="#63b8ff" d="M1263.84,-230.88C1292.64,-209.86 1346.93,-170.22 1379.89,-146.15"/>
<polygon fill="#63b8ff" stroke="#63b8ff" points="1382.17,-148.82 1388.19,-140.1 1378.05,-143.17 1382.17,-148.82"/>
</a>
</g>
</g>
<!-- Node3 -->
<g id="Node000003" class="node">
<title>Node3</title>
<g id="a_Node000003"><a xlink:title=" ">
<polygon fill="#e0e0e0" stroke="#999999" points="1195.5,-19 1117.5,-19 1117.5,0 1195.5,0 1195.5,-19"/>
<text text-anchor="middle" x="1156.5" y="-7" font-family="Helvetica,sans-Serif" font-size="10.00">ngx_config.h</text>
</a>
</g>
</g>
<!-- Node2&#45;&gt;Node3 -->
<g id="edge2_Node000002_Node000003" class="edge">
<title>Node2&#45;&gt;Node3</title>
<g id="a_edge2_Node000002_Node000003"><a xlink:title=" ">
<path fill="none" stroke="#63b8ff" d="M1063.23,-175.96C1087.91,-159.69 1138.97,-121.62 1158.5,-74 1164.33,-59.79 1163.23,-42.26 1161.01,-29.22"/>
<polygon fill="#63b8ff" stroke="#63b8ff" points="1164.37,-28.19 1158.92,-19.11 1157.51,-29.61 1164.37,-28.19"/>
</a>
</g>
</g>
<!-- Node4 -->
<g id="Node000004" class="node">
<title>Node4</title>
<g id="a_Node000004"><a xlink:title=" ">
<polygon fill="#e0e0e0" stroke="#999999" points="748.5,-19 678.5,-19 678.5,0 748.5,0 748.5,-19"/>
<text text-anchor="middle" x="713.5" y="-7" font-family="Helvetica,sans-Serif" font-size="10.00">ngx_core.h</text>
</a>
</g>
</g>
<!-- Node2&#45;&gt;Node4 -->
<g id="edge3_Node000002_Node000004" class="edge">
<title>Node2&#45;&gt;Node4</title>
<g id="a_edge3_Node000002_Node000004"><a xlink:title=" ">
<path fill="none" stroke="#63b8ff" d="M1040.8,-175.8C1014.32,-149.5 934.53,-71.54 902.5,-55 856.86,-31.43 798.59,-20.15 758.89,-14.88"/>
<polygon fill="#63b8ff" stroke="#63b8ff" points="759.08,-11.38 748.72,-13.61 758.21,-18.33 759.08,-11.38"/>
</a>
</g>
</g>
<!-- Node5 -->
<g id="Node000005" class="node">
<title>Node5</title>
<g id="a_Node000005"><a xlink:title=" ">
<polygon fill="#e0e0e0" stroke="#999999" points="1083.5,-134.5 1015.5,-134.5 1015.5,-115.5 1083.5,-115.5 1083.5,-134.5"/>
<text text-anchor="middle" x="1049.5" y="-122.5" font-family="Helvetica,sans-Serif" font-size="10.00">ngx_http.h</text>
</a>
</g>
</g>
<!-- Node2&#45;&gt;Node5 -->
<g id="edge4_Node000002_Node000005" class="edge">
<title>Node2&#45;&gt;Node5</title>
<g id="a_edge4_Node000002_Node000005"><a xlink:title=" ">
<path fill="none" stroke="#63b8ff" d="M1049.5,-175.87C1049.5,-167.75 1049.5,-155.31 1049.5,-144.89"/>
<polygon fill="#63b8ff" stroke="#63b8ff" points="1053,-144.67 1049.5,-134.67 1046,-144.67 1053,-144.67"/>
</a>
</g>
</g>
<!-- Node6 -->
<g id="Node000006" class="node">
<title>Node6</title>
<g id="a_Node000006"><a xlink:href="observability_2metrics_2metrics_8h.html" target="_top" xlink:title=" ">
<polygon fill="white" stroke="#666666" points="602.5,-134.5 540.5,-134.5 540.5,-115.5 602.5,-115.5 602.5,-134.5"/>
<text text-anchor="middle" x="571.5" y="-122.5" font-family="Helvetica,sans-Serif" font-size="10.00">metrics.h</text>
</a>
</g>
</g>
<!-- Node2&#45;&gt;Node6 -->
<g id="edge5_Node000002_Node000006" class="edge">
<title>Node2&#45;&gt;Node6</title>
<g id="a_edge5_Node000002_Node000006"><a xlink:title=" ">
<path fill="none" stroke="#63b8ff" d="M996.98,-178.07C901.08,-166.34 699.52,-141.67 612.71,-131.04"/>
<polygon fill="#63b8ff" stroke="#63b8ff" points="613.06,-127.56 602.71,-129.82 612.21,-134.51 613.06,-127.56"/>
</a>
</g>
</g>
<!-- Node6&#45;&gt;Node4 -->
<g id="edge8_Node000006_Node000004" class="edge">
<title>Node6&#45;&gt;Node4</title>
<g id="a_edge8_Node000006_Node000004"><a xlink:title=" ">
<path fill="none" stroke="#63b8ff" d="M540.34,-124.06C467,-123.48 286.81,-117.55 249.5,-74 244.01,-67.59 243.82,-61.25 249.5,-55 277.31,-24.39 556.53,-14.29 667.95,-11.46"/>
<polygon fill="#63b8ff" stroke="#63b8ff" points="668.28,-14.96 678.19,-11.21 668.11,-7.96 668.28,-14.96"/>
</a>
</g>
</g>
<!-- Node7 -->
<g id="Node000007" class="node">
<title>Node7</title>
<g id="a_Node000007"><a xlink:title=" ">
<polygon fill="#e0e0e0" stroke="#999999" points="644,-74 591,-74 591,-55 644,-55 644,-74"/>
<text text-anchor="middle" x="617.5" y="-62" font-family="Helvetica,sans-Serif" font-size="10.00">limits.h</text>
</a>
</g>
</g>
<!-- Node6&#45;&gt;Node7 -->
<g id="edge6_Node000006_Node000007" class="edge">
<title>Node6&#45;&gt;Node7</title>
<g id="a_edge6_Node000006_Node000007"><a xlink:title=" ">
<path fill="none" stroke="#63b8ff" d="M578.29,-115.37C585.15,-106.64 595.93,-92.93 604.45,-82.09"/>
<polygon fill="#63b8ff" stroke="#63b8ff" points="607.25,-84.19 610.68,-74.17 601.75,-79.86 607.25,-84.19"/>
</a>
</g>
</g>
<!-- Node8 -->
<g id="Node000008" class="node">
<title>Node8</title>
<g id="a_Node000008"><a xlink:title=" ">
<polygon fill="#e0e0e0" stroke="#999999" points="1364,-19 1311,-19 1311,0 1364,0 1364,-19"/>
<text text-anchor="middle" x="1337.5" y="-7" font-family="Helvetica,sans-Serif" font-size="10.00">stdint.h</text>
</a>
</g>
</g>
<!-- Node6&#45;&gt;Node8 -->
<g id="edge7_Node000006_Node000008" class="edge">
<title>Node6&#45;&gt;Node8</title>
<g id="a_edge7_Node000006_Node000008"><a xlink:title=" ">
<path fill="none" stroke="#63b8ff" d="M602.72,-123.17C744.57,-119.26 1322.55,-101.67 1348.5,-74 1359.83,-61.92 1354.38,-42.57 1347.76,-28.4"/>
<polygon fill="#63b8ff" stroke="#63b8ff" points="1350.68,-26.44 1342.96,-19.18 1344.47,-29.67 1350.68,-26.44"/>
</a>
</g>
</g>
<!-- Node9 -->
<g id="Node000009" class="node">
<title>Node9</title>
<g id="a_Node000009"><a xlink:href="fs__list_8h.html" target="_top" xlink:title=" ">
<polygon fill="white" stroke="#666666" points="771,-74 662,-74 662,-55 771,-55 771,-74"/>
<text text-anchor="middle" x="716.5" y="-62" font-family="Helvetica,sans-Serif" font-size="10.00">core/types/fs_list.h</text>
</a>
</g>
</g>
<!-- Node6&#45;&gt;Node9 -->
<g id="edge9_Node000006_Node000009" class="edge">
<title>Node6&#45;&gt;Node9</title>
<g id="a_edge9_Node000006_Node000009"><a xlink:title=" ">
<path fill="none" stroke="#63b8ff" d="M592.58,-115.49C617.18,-105.57 658.03,-89.09 686.06,-77.78"/>
<polygon fill="#63b8ff" stroke="#63b8ff" points="687.43,-81 695.39,-74.02 684.81,-74.51 687.43,-81"/>
</a>
</g>
</g>
<!-- Node10 -->
<g id="Node000010" class="node">
<title>Node10</title>
<g id="a_Node000010"><a xlink:href="observability_2metrics_2unified_8h.html" target="_top" xlink:title=" ">
<polygon fill="white" stroke="#666666" points="1047,-74 988,-74 988,-55 1047,-55 1047,-74"/>
<text text-anchor="middle" x="1017.5" y="-62" font-family="Helvetica,sans-Serif" font-size="10.00">unified.h</text>
</a>
</g>
</g>
<!-- Node6&#45;&gt;Node10 -->
<g id="edge10_Node000006_Node000010" class="edge">
<title>Node6&#45;&gt;Node10</title>
<g id="a_edge10_Node000006_Node000010"><a xlink:title=" ">
<path fill="none" stroke="#63b8ff" d="M602.51,-119.93C681.48,-109.57 890.11,-82.21 977.79,-70.71"/>
<polygon fill="#63b8ff" stroke="#63b8ff" points="978.41,-74.16 987.87,-69.39 977.5,-67.22 978.41,-74.16"/>
</a>
</g>
</g>
<!-- Node12 -->
<g id="Node000012" class="node">
<title>Node12</title>
<g id="a_Node000012"><a xlink:href="metrics__webdav_8h.html" target="_top" xlink:title=" ">
<polygon fill="white" stroke="#666666" points="105,-74 0,-74 0,-55 105,-55 105,-74"/>
<text text-anchor="middle" x="52.5" y="-62" font-family="Helvetica,sans-Serif" font-size="10.00">metrics_webdav.h</text>
</a>
</g>
</g>
<!-- Node6&#45;&gt;Node12 -->
<g id="edge14_Node000006_Node000012" class="edge">
<title>Node6&#45;&gt;Node12</title>
<g id="a_edge14_Node000006_Node000012"><a xlink:title=" ">
<path fill="none" stroke="#63b8ff" d="M540.36,-120.92C467.82,-113.69 281.68,-94.72 115.47,-74.21"/>
<polygon fill="#63b8ff" stroke="#63b8ff" points="115.41,-70.68 105.06,-72.92 114.55,-77.63 115.41,-70.68"/>
</a>
</g>
</g>
<!-- Node14 -->
<g id="Node000014" class="node">
<title>Node14</title>
<g id="a_Node000014"><a xlink:href="metrics__s3_8h.html" target="_top" xlink:title=" ">
<polygon fill="white" stroke="#666666" points="202,-74 123,-74 123,-55 202,-55 202,-74"/>
<text text-anchor="middle" x="162.5" y="-62" font-family="Helvetica,sans-Serif" font-size="10.00">metrics_s3.h</text>
</a>
</g>
</g>
<!-- Node6&#45;&gt;Node14 -->
<g id="edge17_Node000006_Node000014" class="edge">
<title>Node6&#45;&gt;Node14</title>
<g id="a_edge17_Node000006_Node000014"><a xlink:title=" ">
<path fill="none" stroke="#63b8ff" d="M540.13,-119.76C478.22,-111.34 335.93,-91.81 216.5,-74 215.03,-73.78 213.54,-73.56 212.04,-73.33"/>
<polygon fill="#63b8ff" stroke="#63b8ff" points="212.42,-69.85 202.01,-71.79 211.36,-76.77 212.42,-69.85"/>
</a>
</g>
</g>
<!-- Node15 -->
<g id="Node000015" class="node">
<title>Node15</title>
<g id="a_Node000015"><a xlink:href="metrics__frm_8h.html" target="_top" xlink:title=" ">
<polygon fill="white" stroke="#666666" points="344,-74 259,-74 259,-55 344,-55 344,-74"/>
<text text-anchor="middle" x="301.5" y="-62" font-family="Helvetica,sans-Serif" font-size="10.00">metrics_frm.h</text>
</a>
</g>
</g>
<!-- Node6&#45;&gt;Node15 -->
<g id="edge20_Node000006_Node000015" class="edge">
<title>Node6&#45;&gt;Node15</title>
<g id="a_edge20_Node000006_Node000015"><a xlink:title=" ">
<path fill="none" stroke="#63b8ff" d="M540.26,-117.23C493.87,-107.18 406.32,-88.21 351.1,-76.25"/>
<polygon fill="#63b8ff" stroke="#63b8ff" points="351.7,-72.79 341.18,-74.1 350.21,-79.64 351.7,-72.79"/>
</a>
</g>
</g>
<!-- Node16 -->
<g id="Node000016" class="node">
<title>Node16</title>
<g id="a_Node000016"><a xlink:href="metrics__cvmfs_8h.html" target="_top" xlink:title=" ">
<polygon fill="white" stroke="#666666" points="460.5,-74 362.5,-74 362.5,-55 460.5,-55 460.5,-74"/>
<text text-anchor="middle" x="411.5" y="-62" font-family="Helvetica,sans-Serif" font-size="10.00">metrics_cvmfs.h</text>
</a>
</g>
</g>
<!-- Node6&#45;&gt;Node16 -->
<g id="edge22_Node000006_Node000016" class="edge">
<title>Node6&#45;&gt;Node16</title>
<g id="a_edge22_Node000006_Node000016"><a xlink:title=" ">
<path fill="none" stroke="#63b8ff" d="M548.23,-115.49C520.86,-105.49 475.23,-88.8 444.28,-77.49"/>
<polygon fill="#63b8ff" stroke="#63b8ff" points="445.39,-74.16 434.79,-74.02 442.98,-80.74 445.39,-74.16"/>
</a>
</g>
</g>
<!-- Node17 -->
<g id="Node000017" class="node">
<title>Node17</title>
<g id="a_Node000017"><a xlink:href="metrics__proxy_8h.html" target="_top" xlink:title=" ">
<polygon fill="white" stroke="#666666" points="572.5,-74 478.5,-74 478.5,-55 572.5,-55 572.5,-74"/>
<text text-anchor="middle" x="525.5" y="-62" font-family="Helvetica,sans-Serif" font-size="10.00">metrics_proxy.h</text>
</a>
</g>
</g>
<!-- Node6&#45;&gt;Node17 -->
<g id="edge24_Node000006_Node000017" class="edge">
<title>Node6&#45;&gt;Node17</title>
<g id="a_edge24_Node000006_Node000017"><a xlink:title=" ">
<path fill="none" stroke="#63b8ff" d="M564.71,-115.37C557.85,-106.64 547.07,-92.93 538.55,-82.09"/>
<polygon fill="#63b8ff" stroke="#63b8ff" points="541.25,-79.86 532.32,-74.17 535.75,-84.19 541.25,-79.86"/>
</a>
</g>
</g>
<!-- Node6&#45;&gt;Node18 -->
<g id="edge26_Node000006_Node000018" class="edge">
<title>Node6&#45;&gt;Node18</title>
<g id="a_edge26_Node000006_Node000018"><a xlink:title=" ">
<path fill="none" stroke="#63b8ff" d="M602.74,-117.23C649.13,-107.18 736.68,-88.21 791.9,-76.25"/>
<polygon fill="#63b8ff" stroke="#63b8ff" points="792.79,-79.64 801.82,-74.1 791.3,-72.79 792.79,-79.64"/>
</a>
</g>
</g>
<!-- Node10&#45;&gt;Node3 -->
<g id="edge11_Node000010_Node000003" class="edge">
<title>Node10&#45;&gt;Node3</title>
<g id="a_edge11_Node000010_Node000003"><a xlink:title=" ">
<path fill="none" stroke="#63b8ff" d="M1039.83,-54.98C1062.7,-46.27 1098.46,-32.63 1124.36,-22.75"/>
<polygon fill="#63b8ff" stroke="#63b8ff" points="1125.66,-26 1133.76,-19.17 1123.17,-19.46 1125.66,-26"/>
</a>
</g>
</g>
<!-- Node10&#45;&gt;Node4 -->
<g id="edge12_Node000010_Node000004" class="edge">
<title>Node10&#45;&gt;Node4</title>
<g id="a_edge12_Node000010_Node000004"><a xlink:title=" ">
<path fill="none" stroke="#63b8ff" d="M987.69,-57.65C982.95,-56.75 978.09,-55.84 973.5,-55 898.32,-41.31 810.67,-26.56 758.76,-17.95"/>
<polygon fill="#63b8ff" stroke="#63b8ff" points="759.31,-14.49 748.87,-16.31 758.16,-21.39 759.31,-14.49"/>
</a>
</g>
</g>
<!-- Node11 -->
<g id="Node000011" class="node">
<title>Node11</title>
<g id="a_Node000011"><a xlink:href="proto__list_8h.html" target="_top" xlink:title=" ">
<polygon fill="white" stroke="#666666" points="1080,-19 955,-19 955,0 1080,0 1080,-19"/>
<text text-anchor="middle" x="1017.5" y="-7" font-family="Helvetica,sans-Serif" font-size="10.00">core/types/proto_list.h</text>
</a>
</g>
</g>
<!-- Node10&#45;&gt;Node11 -->
<g id="edge13_Node000010_Node000011" class="edge">
<title>Node10&#45;&gt;Node11</title>
<g id="a_edge13_Node000010_Node000011"><a xlink:title=" ">
<path fill="none" stroke="#63b8ff" d="M1017.5,-54.75C1017.5,-47.8 1017.5,-37.85 1017.5,-29.13"/>
<polygon fill="#63b8ff" stroke="#63b8ff" points="1021,-29.09 1017.5,-19.09 1014,-29.09 1021,-29.09"/>
</a>
</g>
</g>
<!-- Node12&#45;&gt;Node4 -->
<g id="edge15_Node000012_Node000004" class="edge">
<title>Node12&#45;&gt;Node4</title>
<g id="a_edge15_Node000012_Node000004"><a xlink:title=" ">
<path fill="none" stroke="#63b8ff" d="M105.05,-55.96C107.9,-55.62 110.74,-55.29 113.5,-55 320.15,-32.96 568,-18.3 668.19,-12.86"/>
<polygon fill="#63b8ff" stroke="#63b8ff" points="668.46,-16.35 678.26,-12.32 668.09,-9.36 668.46,-16.35"/>
</a>
</g>
</g>
<!-- Node13 -->
<g id="Node000013" class="node">
<title>Node13</title>
<g id="a_Node000013"><a xlink:href="metrics__http__labels_8h.html" target="_top" xlink:title=" ">
<polygon fill="white" stroke="#666666" points="168.5,-19 46.5,-19 46.5,0 168.5,0 168.5,-19"/>
<text text-anchor="middle" x="107.5" y="-7" font-family="Helvetica,sans-Serif" font-size="10.00">metrics_http_labels.h</text>
</a>
</g>
</g>
<!-- Node12&#45;&gt;Node13 -->
<g id="edge16_Node000012_Node000013" class="edge">
<title>Node12&#45;&gt;Node13</title>
<g id="a_edge16_Node000012_Node000013"><a xlink:title=" ">
<path fill="none" stroke="#63b8ff" d="M61.58,-54.75C69.59,-47.03 81.46,-35.6 91.12,-26.28"/>
<polygon fill="#63b8ff" stroke="#63b8ff" points="93.81,-28.55 98.59,-19.09 88.96,-23.51 93.81,-28.55"/>
</a>
</g>
</g>
<!-- Node14&#45;&gt;Node4 -->
<g id="edge18_Node000014_Node000004" class="edge">
<title>Node14&#45;&gt;Node4</title>
<g id="a_edge18_Node000014_Node000004"><a xlink:title=" ">
<path fill="none" stroke="#63b8ff" d="M202.27,-56.93C207.06,-56.23 211.88,-55.57 216.5,-55 382.57,-34.52 580.96,-19.61 668.37,-13.53"/>
<polygon fill="#63b8ff" stroke="#63b8ff" points="668.73,-17.01 678.47,-12.83 668.25,-10.03 668.73,-17.01"/>
</a>
</g>
</g>
<!-- Node14&#45;&gt;Node13 -->
<g id="edge19_Node000014_Node000013" class="edge">
<title>Node14&#45;&gt;Node13</title>
<g id="a_edge19_Node000014_Node000013"><a xlink:title=" ">
<path fill="none" stroke="#63b8ff" d="M153.42,-54.75C145.41,-47.03 133.54,-35.6 123.88,-26.28"/>
<polygon fill="#63b8ff" stroke="#63b8ff" points="126.04,-23.51 116.41,-19.09 121.19,-28.55 126.04,-23.51"/>
</a>
</g>
</g>
<!-- Node15&#45;&gt;Node4 -->
<g id="edge21_Node000015_Node000004" class="edge">
<title>Node15&#45;&gt;Node4</title>
<g id="a_edge21_Node000015_Node000004"><a xlink:title=" ">
<path fill="none" stroke="#63b8ff" d="M344.05,-56.41C347.24,-55.92 350.42,-55.44 353.5,-55 466.6,-38.77 600.22,-23.19 668.45,-15.5"/>
<polygon fill="#63b8ff" stroke="#63b8ff" points="668.89,-18.97 678.43,-14.37 668.11,-12.01 668.89,-18.97"/>
</a>
</g>
</g>
<!-- Node16&#45;&gt;Node4 -->
<g id="edge23_Node000016_Node000004" class="edge">
<title>Node16&#45;&gt;Node4</title>
<g id="a_edge23_Node000016_Node000004"><a xlink:title=" ">
<path fill="none" stroke="#63b8ff" d="M460.02,-54.98C517.47,-44.9 612.39,-28.24 668.33,-18.43"/>
<polygon fill="#63b8ff" stroke="#63b8ff" points="669.06,-21.85 678.31,-16.68 667.85,-14.96 669.06,-21.85"/>
</a>
</g>
</g>
<!-- Node17&#45;&gt;Node4 -->
<g id="edge25_Node000017_Node000004" class="edge">
<title>Node17&#45;&gt;Node4</title>
<g id="a_edge25_Node000017_Node000004"><a xlink:title=" ">
<path fill="none" stroke="#63b8ff" d="M555.71,-54.98C587.54,-46.01 637.86,-31.82 673.1,-21.89"/>
<polygon fill="#63b8ff" stroke="#63b8ff" points="674.38,-25.16 683.06,-19.08 672.48,-18.43 674.38,-25.16"/>
</a>
</g>
</g>
<!-- Node19&#45;&gt;Node3 -->
<g id="edge29_Node000019_Node000003" class="edge">
<title>Node19&#45;&gt;Node3</title>
<g id="a_edge29_Node000019_Node000003"><a xlink:title=" ">
<path fill="none" stroke="#63b8ff" d="M1254.7,-54.98C1235.88,-46.46 1206.68,-33.23 1185,-23.41"/>
<polygon fill="#63b8ff" stroke="#63b8ff" points="1186.19,-20.11 1175.64,-19.17 1183.3,-26.48 1186.19,-20.11"/>
</a>
</g>
</g>
<!-- Node19&#45;&gt;Node4 -->
<g id="edge30_Node000019_Node000004" class="edge">
<title>Node19&#45;&gt;Node4</title>
<g id="a_edge30_Node000019_Node000004"><a xlink:title=" ">
<path fill="none" stroke="#63b8ff" d="M1206.78,-57.19C1091.36,-46.26 857.31,-24.11 758.81,-14.79"/>
<polygon fill="#63b8ff" stroke="#63b8ff" points="758.88,-11.28 748.59,-13.82 758.22,-18.25 758.88,-11.28"/>
</a>
</g>
</g>
<!-- Node19&#45;&gt;Node8 -->
<g id="edge31_Node000019_Node000008" class="edge">
<title>Node19&#45;&gt;Node8</title>
<g id="a_edge31_Node000019_Node000008"><a xlink:title=" ">
<path fill="none" stroke="#63b8ff" d="M1283.78,-54.98C1293.34,-47.07 1307.78,-35.11 1319.28,-25.58"/>
<polygon fill="#63b8ff" stroke="#63b8ff" points="1321.56,-28.24 1327.03,-19.17 1317.1,-22.85 1321.56,-28.24"/>
</a>
</g>
</g>
<!-- Node20 -->
<g id="Node000020" class="node">
<title>Node20</title>
<g id="a_Node000020"><a xlink:title=" ">
<polygon fill="#e0e0e0" stroke="#999999" points="1293,-19 1214,-19 1214,0 1293,0 1293,-19"/>
<text text-anchor="middle" x="1253.5" y="-7" font-family="Helvetica,sans-Serif" font-size="10.00">sys/statvfs.h</text>
</a>
</g>
</g>
<!-- Node19&#45;&gt;Node20 -->
<g id="edge32_Node000019_Node000020" class="edge">
<title>Node19&#45;&gt;Node20</title>
<g id="a_edge32_Node000019_Node000020"><a xlink:title=" ">
<path fill="none" stroke="#63b8ff" d="M1270.2,-54.75C1267.52,-47.65 1263.65,-37.4 1260.31,-28.56"/>
<polygon fill="#63b8ff" stroke="#63b8ff" points="1263.55,-27.21 1256.74,-19.09 1257,-29.68 1263.55,-27.21"/>
</a>
</g>
</g>
<!-- Node21&#45;&gt;Node3 -->
<g id="edge34_Node000021_Node000003" class="edge">
<title>Node21&#45;&gt;Node3</title>
<g id="a_edge34_Node000021_Node000003"><a xlink:title=" ">
<path fill="none" stroke="#63b8ff" d="M1115.59,-54.75C1122.66,-47.11 1133.09,-35.82 1141.65,-26.56"/>
<polygon fill="#63b8ff" stroke="#63b8ff" points="1144.34,-28.81 1148.56,-19.09 1139.2,-24.06 1144.34,-28.81"/>
</a>
</g>
</g>
<!-- Node21&#45;&gt;Node4 -->
<g id="edge35_Node000021_Node000004" class="edge">
<title>Node21&#45;&gt;Node4</title>
<g id="a_edge35_Node000021_Node000004"><a xlink:title=" ">
<path fill="none" stroke="#63b8ff" d="M1064.95,-56.43C1061.75,-55.93 1058.58,-55.45 1055.5,-55 949.22,-39.4 823.94,-23.81 758.49,-15.88"/>
<polygon fill="#63b8ff" stroke="#63b8ff" points="758.86,-12.4 748.51,-14.67 758.02,-19.35 758.86,-12.4"/>
</a>
</g>
</g>
<!-- Node22&#45;&gt;Node4 -->
<g id="edge37_Node000022_Node000004" class="edge">
<title>Node22&#45;&gt;Node4</title>
<g id="a_edge37_Node000022_Node000004"><a xlink:title=" ">
<path fill="none" stroke="#63b8ff" d="M1353.88,-119.77C1255.08,-111.64 1048.04,-92.95 978.5,-74 958.34,-68.51 955.42,-61.31 935.5,-55 875.71,-36.05 804.2,-23.43 758.82,-16.62"/>
<polygon fill="#63b8ff" stroke="#63b8ff" points="759.11,-13.12 748.7,-15.13 758.09,-20.05 759.11,-13.12"/>
</a>
</g>
</g>
<!-- Node23 -->
<g id="Node000023" class="node">
<title>Node23</title>
<g id="a_Node000023"><a xlink:href="sd_8h.html" target="_top" xlink:title=" ">
<polygon fill="white" stroke="#666666" points="1488.5,-74 1396.5,-74 1396.5,-55 1488.5,-55 1488.5,-74"/>
<text text-anchor="middle" x="1442.5" y="-62" font-family="Helvetica,sans-Serif" font-size="10.00">fs/backend/sd.h</text>
</a>
</g>
</g>
<!-- Node22&#45;&gt;Node23 -->
<g id="edge38_Node000022_Node000023" class="edge">
<title>Node22&#45;&gt;Node23</title>
<g id="a_edge38_Node000022_Node000023"><a xlink:title=" ">
<path fill="none" stroke="#63b8ff" d="M1415.97,-109.84C1420.79,-101.78 1426.87,-91.62 1432,-83.06"/>
<polygon fill="#63b8ff" stroke="#63b8ff" points="1435.12,-84.64 1437.26,-74.27 1429.12,-81.05 1435.12,-84.64"/>
</a>
</g>
</g>
<!-- Node28 -->
<g id="Node000028" class="node">
<title>Node28</title>
<g id="a_Node000028"><a xlink:href="af__policy_8h.html" target="_top" xlink:title=" ">
<polygon fill="white" stroke="#666666" points="1836.5,-74 1704.5,-74 1704.5,-55 1836.5,-55 1836.5,-74"/>
<text text-anchor="middle" x="1770.5" y="-62" font-family="Helvetica,sans-Serif" font-size="10.00">core/compat/af_policy.h</text>
</a>
</g>
</g>
<!-- Node22&#45;&gt;Node28 -->
<g id="edge46_Node000022_Node000028" class="edge">
<title>Node22&#45;&gt;Node28</title>
<g id="a_edge46_Node000022_Node000028"><a xlink:title=" ">
<path fill="none" stroke="#63b8ff" d="M1461.06,-115.37C1526.76,-104.78 1637.95,-86.86 1707.64,-75.63"/>
<polygon fill="#63b8ff" stroke="#63b8ff" points="1708.29,-79.07 1717.6,-74.02 1707.17,-72.16 1708.29,-79.07"/>
</a>
</g>
</g>
<!-- Node23&#45;&gt;Node3 -->
<g id="edge39_Node000023_Node000003" class="edge">
<title>Node23&#45;&gt;Node3</title>
<g id="a_edge39_Node000023_Node000003"><a xlink:title=" ">
<path fill="none" stroke="#63b8ff" d="M1396.55,-54.98C1344.33,-45.31 1259.43,-29.57 1205.84,-19.64"/>
<polygon fill="#63b8ff" stroke="#63b8ff" points="1206.36,-16.18 1195.89,-17.8 1205.09,-23.06 1206.36,-16.18"/>
</a>
</g>
</g>
<!-- Node23&#45;&gt;Node4 -->
<g id="edge40_Node000023_Node000004" class="edge">
<title>Node23&#45;&gt;Node4</title>
<g id="a_edge40_Node000023_Node000004"><a xlink:title=" ">
<path fill="none" stroke="#63b8ff" d="M1396.14,-59.12C1380.96,-57.74 1364.02,-56.25 1348.5,-55 1127.51,-37.27 862.93,-20 758.78,-13.36"/>
<polygon fill="#63b8ff" stroke="#63b8ff" points="758.83,-9.85 748.63,-12.71 758.38,-16.84 758.83,-9.85"/>
</a>
</g>
</g>
<!-- Node23&#45;&gt;Node8 -->
<g id="edge41_Node000023_Node000008" class="edge">
<title>Node23&#45;&gt;Node8</title>
<g id="a_edge41_Node000023_Node000008"><a xlink:title=" ">
<path fill="none" stroke="#63b8ff" d="M1425.63,-54.98C1408.89,-46.54 1383,-33.47 1363.61,-23.68"/>
<polygon fill="#63b8ff" stroke="#63b8ff" points="1365.18,-20.55 1354.68,-19.17 1362.03,-26.8 1365.18,-20.55"/>
</a>
</g>
</g>
<!-- Node24 -->
<g id="Node000024" class="node">
<title>Node24</title>
<g id="a_Node000024"><a xlink:title=" ">
<polygon fill="#e0e0e0" stroke="#999999" points="1684,-19 1633,-19 1633,0 1684,0 1684,-19"/>
<text text-anchor="middle" x="1658.5" y="-7" font-family="Helvetica,sans-Serif" font-size="10.00">errno.h</text>
</a>
</g>
</g>
<!-- Node23&#45;&gt;Node24 -->
<g id="edge42_Node000023_Node000024" class="edge">
<title>Node23&#45;&gt;Node24</title>
<g id="a_edge42_Node000023_Node000024"><a xlink:title=" ">
<path fill="none" stroke="#63b8ff" d="M1477.2,-54.98C1517.14,-45.19 1582.38,-29.18 1622.75,-19.27"/>
<polygon fill="#63b8ff" stroke="#63b8ff" points="1623.82,-22.61 1632.69,-16.83 1622.15,-15.82 1623.82,-22.61"/>
</a>
</g>
</g>
<!-- Node25 -->
<g id="Node000025" class="node">
<title>Node25</title>
<g id="a_Node000025"><a xlink:title=" ">
<polygon fill="#e0e0e0" stroke="#999999" points="1446.5,-19 1382.5,-19 1382.5,0 1446.5,0 1446.5,-19"/>
<text text-anchor="middle" x="1414.5" y="-7" font-family="Helvetica,sans-Serif" font-size="10.00">sys/stat.h</text>
</a>
</g>
</g>
<!-- Node23&#45;&gt;Node25 -->
<g id="edge43_Node000023_Node000025" class="edge">
<title>Node23&#45;&gt;Node25</title>
<g id="a_edge43_Node000023_Node000025"><a xlink:title=" ">
<path fill="none" stroke="#63b8ff" d="M1437.88,-54.75C1434.04,-47.49 1428.48,-36.95 1423.74,-27.98"/>
<polygon fill="#63b8ff" stroke="#63b8ff" points="1426.8,-26.3 1419.04,-19.09 1420.61,-29.57 1426.8,-26.3"/>
</a>
</g>
</g>
<!-- Node26 -->
<g id="Node000026" class="node">
<title>Node26</title>
<g id="a_Node000026"><a xlink:title=" ">
<polygon fill="#e0e0e0" stroke="#999999" points="1536.5,-19 1464.5,-19 1464.5,0 1536.5,0 1536.5,-19"/>
<text text-anchor="middle" x="1500.5" y="-7" font-family="Helvetica,sans-Serif" font-size="10.00">sys/types.h</text>
</a>
</g>
</g>
<!-- Node23&#45;&gt;Node26 -->
<g id="edge44_Node000023_Node000026" class="edge">
<title>Node23&#45;&gt;Node26</title>
<g id="a_edge44_Node000023_Node000026"><a xlink:title=" ">
<path fill="none" stroke="#63b8ff" d="M1451.82,-54.98C1460.31,-47.23 1473.06,-35.58 1483.38,-26.14"/>
<polygon fill="#63b8ff" stroke="#63b8ff" points="1485.99,-28.5 1491.01,-19.17 1481.27,-23.33 1485.99,-28.5"/>
</a>
</g>
</g>
<!-- Node27 -->
<g id="Node000027" class="node">
<title>Node27</title>
<g id="a_Node000027"><a xlink:title=" ">
<polygon fill="#e0e0e0" stroke="#999999" points="1614.5,-19 1554.5,-19 1554.5,0 1614.5,0 1614.5,-19"/>
<text text-anchor="middle" x="1584.5" y="-7" font-family="Helvetica,sans-Serif" font-size="10.00">sys/uio.h</text>
</a>
</g>
</g>
<!-- Node23&#45;&gt;Node27 -->
<g id="edge45_Node000023_Node000027" class="edge">
<title>Node23&#45;&gt;Node27</title>
<g id="a_edge45_Node000023_Node000027"><a xlink:title=" ">
<path fill="none" stroke="#63b8ff" d="M1465.31,-54.98C1488.67,-46.27 1525.2,-32.63 1551.67,-22.75"/>
<polygon fill="#63b8ff" stroke="#63b8ff" points="1553.13,-25.95 1561.27,-19.17 1550.68,-19.39 1553.13,-25.95"/>
</a>
</g>
</g>
<!-- Node29 -->
<g id="Node000029" class="node">
<title>Node29</title>
<g id="a_Node000029"><a xlink:title=" ">
<polygon fill="#e0e0e0" stroke="#999999" points="1850,-19 1773,-19 1773,0 1850,0 1850,-19"/>
<text text-anchor="middle" x="1811.5" y="-7" font-family="Helvetica,sans-Serif" font-size="10.00">sys/socket.h</text>
</a>
</g>
</g>
<!-- Node28&#45;&gt;Node29 -->
<g id="edge47_Node000028_Node000029" class="edge">
<title>Node28&#45;&gt;Node29</title>
<g id="a_edge47_Node000028_Node000029"><a xlink:title=" ">
<path fill="none" stroke="#63b8ff" d="M1777.27,-54.75C1783.06,-47.26 1791.56,-36.28 1798.64,-27.13"/>
<polygon fill="#63b8ff" stroke="#63b8ff" points="1801.51,-29.14 1804.86,-19.09 1795.97,-24.86 1801.51,-29.14"/>
</a>
</g>
</g>
<!-- Node30 -->
<g id="Node000030" class="node">
<title>Node30</title>
<g id="a_Node000030"><a xlink:title=" ">
<polygon fill="#e0e0e0" stroke="#999999" points="1924.5,-19 1868.5,-19 1868.5,0 1924.5,0 1924.5,-19"/>
<text text-anchor="middle" x="1896.5" y="-7" font-family="Helvetica,sans-Serif" font-size="10.00">stddef.h</text>
</a>
</g>
</g>
<!-- Node28&#45;&gt;Node30 -->
<g id="edge48_Node000028_Node000030" class="edge">
<title>Node28&#45;&gt;Node30</title>
<g id="a_edge48_Node000028_Node000030"><a xlink:title=" ">
<path fill="none" stroke="#63b8ff" d="M1790.74,-54.98C1811.2,-46.38 1843.03,-32.99 1866.43,-23.15"/>
<polygon fill="#63b8ff" stroke="#63b8ff" points="1868.03,-26.27 1875.89,-19.17 1865.31,-19.82 1868.03,-26.27"/>
</a>
</g>
</g>
<!-- Node31 -->
<g id="Node000031" class="node">
<title>Node31</title>
<g id="a_Node000031"><a xlink:title=" ">
<polygon fill="#e0e0e0" stroke="#999999" points="1755,-19 1702,-19 1702,0 1755,0 1755,-19"/>
<text text-anchor="middle" x="1728.5" y="-7" font-family="Helvetica,sans-Serif" font-size="10.00">string.h</text>
</a>
</g>
</g>
<!-- Node28&#45;&gt;Node31 -->
<g id="edge49_Node000028_Node000031" class="edge">
<title>Node28&#45;&gt;Node31</title>
<g id="a_edge49_Node000028_Node000031"><a xlink:title=" ">
<path fill="none" stroke="#63b8ff" d="M1763.56,-54.75C1757.63,-47.26 1748.93,-36.28 1741.68,-27.13"/>
<polygon fill="#63b8ff" stroke="#63b8ff" points="1744.26,-24.75 1735.31,-19.09 1738.77,-29.1 1744.26,-24.75"/>
</a>
</g>
</g>
</g>
</svg>
