<?xml version="1.0" encoding="UTF-8" standalone="no"?>
<!DOCTYPE svg PUBLIC "-//W3C//DTD SVG 1.1//EN"
 "http://www.w3.org/Graphics/SVG/1.1/DTD/svg11.dtd">
<!-- Generated by graphviz version 2.43.0 (0)
 -->
<!-- Title: src/fs/cache/writethrough_decision.c Pages: 1 -->
<!--zoomable 390 -->

<svg id="main" version="1.1" xmlns="http://www.w3.org/2000/svg" xmlns:xlink="http://www.w3.org/1999/xlink" xml:space="preserve" onload="init(evt)">
<style type="text/css"><![CDATA[
.node, .edge {opacity: 0.7;}
.node.selected, .edge.selected {opacity: 1;}
.edge:hover path { stroke: red; }
.edge:hover polygon { stroke: red; fill: red; }
]]></style>

<defs>
  <circle id="rim" cx="0" cy="0" r="7"/>
  <circle id="rim2" cx="0" cy="0" r="3.5"/>
  <g id="zoomPlus">
    <use xlink:href="#rim" fill="#404040"><set attributeName="fill" to="#808080" begin="zoomplus.mouseover" end="zoomplus.mouseout"/></use>
    <path d="M-4,0h8M0,-4v8" fill="none" stroke="white" stroke-width="1.5" pointer-events="none"/>
  </g>
  <g id="zoomMin">
    <use xlink:href="#rim" fill="#404040"><set attributeName="fill" to="#808080" begin="zoomminus.mouseover" end="zoomminus.mouseout"/></use>
    <path d="M-4,0h8" fill="none" stroke="white" stroke-width="1.5" pointer-events="none"/>
  </g>
  <g id="arrowUp" transform="translate(30 24)">
    <use xlink:href="#rim"/>
    <path pointer-events="none" fill="none" stroke="white" stroke-width="1.5" d="M0,-3.0v7 M-2.5,-0.5L0,-3.0L2.5,-0.5"/>
  </g>
  <g id="arrowRight" transform="rotate(90) translate(36 -43)">
    <use xlink:href="#rim"/>
    <path pointer-events="none" fill="none" stroke="white" stroke-width="1.5" d="M0,-3.0v7 M-2.5,-0.5L0,-3.0L2.5,-0.5"/>
  </g>
  <g id="arrowDown" transform="rotate(180) translate(-30 -48)">
    <use xlink:href="#rim"/>
    <path pointer-events="none" fill="none" stroke="white" stroke-width="1.5" d="M0,-3.0v7 M-2.5,-0.5L0,-3.0L2.5,-0.5"/>
  </g>
  <g id="arrowLeft" transform="rotate(270) translate(-36 17)">
    <use xlink:href="#rim"/>
    <path pointer-events="none" fill="none" stroke="white" stroke-width="1.5" d="M0,-3.0v7 M-2.5,-0.5L0,-3.0L2.5,-0.5"/>
  </g>
  <g id="resetDef">
    <use xlink:href="#rim2" fill="#404040"><set attributeName="fill" to="#808080" begin="reset.mouseover" end="reset.mouseout"/></use>
  </g>
</defs>
<script type="application/ecmascript">
var viewWidth = 1098;
var viewHeight = 390;
var sectionId = 'dynsection-0';
</script>
<script type="application/ecmascript" xlink:href="svg.min.js"/>
<svg id="graph" class="graph">
<g id="viewport">
<title>src/fs/cache/writethrough_decision.c</title>
<!-- Node1 -->
<g id="Node000001" class="node">
<title>Node1</title>
<g id="a_Node000001"><a xlink:title=" ">
<polygon fill="#999999" stroke="#666666" points="919.51,-382 779.51,-382 779.51,-352 919.51,-352 919.51,-382"/>
<text text-anchor="start" x="787.51" y="-370" font-family="Helvetica,sans-Serif" font-size="10.00">src/fs/cache/writethrough</text>
<text text-anchor="middle" x="849.51" y="-359" font-family="Helvetica,sans-Serif" font-size="10.00">_decision.c</text>
</a>
</g>
</g>
<!-- Node2 -->
<g id="Node000002" class="node">
<title>Node2</title>
<g id="a_Node000002"><a xlink:href="writethrough_8h.html" target="_top" xlink:title=" ">
<polygon fill="white" stroke="#666666" points="710.51,-316 622.51,-316 622.51,-297 710.51,-297 710.51,-316"/>
<text text-anchor="middle" x="666.51" y="-304" font-family="Helvetica,sans-Serif" font-size="10.00">writethrough.h</text>
</a>
</g>
</g>
<!-- Node1&#45;&gt;Node2 -->
<g id="edge1_Node000001_Node000002" class="edge">
<title>Node1&#45;&gt;Node2</title>
<g id="a_edge1_Node000001_Node000002"><a xlink:title=" ">
<path fill="none" stroke="#63b8ff" d="M805.68,-351.99C774.37,-341.98 732.73,-328.67 703.18,-319.22"/>
<polygon fill="#63b8ff" stroke="#63b8ff" points="703.86,-315.76 693.27,-316.05 701.73,-322.43 703.86,-315.76"/>
</a>
</g>
</g>
<!-- Node7 -->
<g id="Node000007" class="node">
<title>Node7</title>
<g id="a_Node000007"><a xlink:title=" ">
<polygon fill="#e0e0e0" stroke="#999999" points="867.51,-74 803.51,-74 803.51,-55 867.51,-55 867.51,-74"/>
<text text-anchor="middle" x="835.51" y="-62" font-family="Helvetica,sans-Serif" font-size="10.00">sys/stat.h</text>
</a>
</g>
</g>
<!-- Node1&#45;&gt;Node7 -->
<g id="edge51_Node000001_Node000007" class="edge">
<title>Node1&#45;&gt;Node7</title>
<g id="a_edge51_Node000001_Node000007"><a xlink:title=" ">
<path fill="none" stroke="#63b8ff" d="M865.4,-351.95C886.05,-332.05 919.51,-293.48 919.51,-252.5 919.51,-252.5 919.51,-252.5 919.51,-190 919.51,-143.85 879.36,-102 854.58,-80.57"/>
<polygon fill="#63b8ff" stroke="#63b8ff" points="856.76,-77.83 846.84,-74.11 852.27,-83.2 856.76,-77.83"/>
</a>
</g>
</g>
<!-- Node28 -->
<g id="Node000028" class="node">
<title>Node28</title>
<g id="a_Node000028"><a xlink:href="cache__admit_8h.html" target="_top" xlink:title=" ">
<polygon fill="white" stroke="#666666" points="847.51,-316 759.51,-316 759.51,-297 847.51,-297 847.51,-316"/>
<text text-anchor="middle" x="803.51" y="-304" font-family="Helvetica,sans-Serif" font-size="10.00">cache_admit.h</text>
</a>
</g>
</g>
<!-- Node1&#45;&gt;Node28 -->
<g id="edge44_Node000001_Node000028" class="edge">
<title>Node1&#45;&gt;Node28</title>
<g id="a_edge44_Node000001_Node000028"><a xlink:title=" ">
<path fill="none" stroke="#63b8ff" d="M838.38,-351.84C831.84,-343.52 823.53,-332.96 816.67,-324.23"/>
<polygon fill="#63b8ff" stroke="#63b8ff" points="819.34,-321.96 810.4,-316.27 813.83,-326.29 819.34,-321.96"/>
</a>
</g>
</g>
<!-- Node29 -->
<g id="Node000029" class="node">
<title>Node29</title>
<g id="a_Node000029"><a xlink:title=" ">
<polygon fill="#e0e0e0" stroke="#999999" points="1001.01,-316 948.01,-316 948.01,-297 1001.01,-297 1001.01,-316"/>
<text text-anchor="middle" x="974.51" y="-304" font-family="Helvetica,sans-Serif" font-size="10.00">string.h</text>
</a>
</g>
</g>
<!-- Node1&#45;&gt;Node29 -->
<g id="edge50_Node000001_Node000029" class="edge">
<title>Node1&#45;&gt;Node29</title>
<g id="a_edge50_Node000001_Node000029"><a xlink:title=" ">
<path fill="none" stroke="#63b8ff" d="M879.45,-351.99C899.94,-342.4 926.89,-329.79 946.87,-320.44"/>
<polygon fill="#63b8ff" stroke="#63b8ff" points="948.48,-323.55 956.05,-316.14 945.51,-317.21 948.48,-323.55"/>
</a>
</g>
</g>
<!-- Node3 -->
<g id="Node000003" class="node">
<title>Node3</title>
<g id="a_Node000003"><a xlink:href="src_2fs_2vfs_2vfs_8h.html" target="_top" xlink:title=" ">
<polygon fill="white" stroke="#666666" points="425.01,-200.5 354.01,-200.5 354.01,-181.5 425.01,-181.5 425.01,-200.5"/>
<text text-anchor="middle" x="389.51" y="-188.5" font-family="Helvetica,sans-Serif" font-size="10.00">fs/vfs/vfs.h</text>
</a>
</g>
</g>
<!-- Node2&#45;&gt;Node3 -->
<g id="edge2_Node000002_Node000003" class="edge">
<title>Node2&#45;&gt;Node3</title>
<g id="a_edge2_Node000002_Node000003"><a xlink:title=" ">
<path fill="none" stroke="#63b8ff" d="M622.28,-303.01C578.84,-298.99 511.79,-288.48 460.51,-261 436.48,-248.12 414.97,-224.71 402.08,-208.76"/>
<polygon fill="#63b8ff" stroke="#63b8ff" points="404.77,-206.51 395.85,-200.79 399.25,-210.82 404.77,-206.51"/>
</a>
</g>
</g>
<!-- Node22 -->
<g id="Node000022" class="node">
<title>Node22</title>
<g id="a_Node000022"><a xlink:href="writethrough__decision_8h.html" target="_top" xlink:title=" ">
<polygon fill="white" stroke="#666666" points="733.51,-261 599.51,-261 599.51,-242 733.51,-242 733.51,-261"/>
<text text-anchor="middle" x="666.51" y="-249" font-family="Helvetica,sans-Serif" font-size="10.00">writethrough_decision.h</text>
</a>
</g>
</g>
<!-- Node2&#45;&gt;Node22 -->
<g id="edge34_Node000002_Node000022" class="edge">
<title>Node2&#45;&gt;Node22</title>
<g id="a_edge34_Node000002_Node000022"><a xlink:title=" ">
<path fill="none" stroke="#63b8ff" d="M666.51,-296.75C666.51,-289.8 666.51,-279.85 666.51,-271.13"/>
<polygon fill="#63b8ff" stroke="#63b8ff" points="670.01,-271.09 666.51,-261.09 663.01,-271.09 670.01,-271.09"/>
</a>
</g>
</g>
<!-- Node4 -->
<g id="Node000004" class="node">
<title>Node4</title>
<g id="a_Node000004"><a xlink:title=" ">
<polygon fill="#e0e0e0" stroke="#999999" points="489.51,-74 411.51,-74 411.51,-55 489.51,-55 489.51,-74"/>
<text text-anchor="middle" x="450.51" y="-62" font-family="Helvetica,sans-Serif" font-size="10.00">ngx_config.h</text>
</a>
</g>
</g>
<!-- Node3&#45;&gt;Node4 -->
<g id="edge3_Node000003_Node000004" class="edge">
<title>Node3&#45;&gt;Node4</title>
<g id="a_edge3_Node000003_Node000004"><a xlink:title=" ">
<path fill="none" stroke="#63b8ff" d="M425.19,-181.98C461.93,-172.91 515.48,-157.16 527.51,-140 535.17,-129.08 534.18,-121.55 527.51,-110 519.09,-95.41 503.86,-85.17 489.16,-78.23"/>
<polygon fill="#63b8ff" stroke="#63b8ff" points="490.22,-74.87 479.65,-74.13 487.45,-81.3 490.22,-74.87"/>
</a>
</g>
</g>
<!-- Node5 -->
<g id="Node000005" class="node">
<title>Node5</title>
<g id="a_Node000005"><a xlink:title=" ">
<polygon fill="#e0e0e0" stroke="#999999" points="253.51,-74 183.51,-74 183.51,-55 253.51,-55 253.51,-74"/>
<text text-anchor="middle" x="218.51" y="-62" font-family="Helvetica,sans-Serif" font-size="10.00">ngx_core.h</text>
</a>
</g>
</g>
<!-- Node3&#45;&gt;Node5 -->
<g id="edge4_Node000003_Node000005" class="edge">
<title>Node3&#45;&gt;Node5</title>
<g id="a_edge4_Node000003_Node000005"><a xlink:title=" ">
<path fill="none" stroke="#63b8ff" d="M353.9,-190.66C271.64,-191.36 72.24,-187.94 30.51,-140 21.76,-129.94 22.24,-120.46 30.51,-110 35.01,-104.32 119.15,-86.02 173.33,-74.73"/>
<polygon fill="#63b8ff" stroke="#63b8ff" points="174.32,-78.1 183.4,-72.64 172.9,-71.25 174.32,-78.1"/>
</a>
</g>
</g>
<!-- Node6 -->
<g id="Node000006" class="node">
<title>Node6</title>
<g id="a_Node000006"><a xlink:href="fs_2path_2unified_8h.html" target="_top" xlink:title=" ">
<polygon fill="white" stroke="#666666" points="519.01,-134.5 424.01,-134.5 424.01,-115.5 519.01,-115.5 519.01,-134.5"/>
<text text-anchor="middle" x="471.51" y="-122.5" font-family="Helvetica,sans-Serif" font-size="10.00">fs/path/unified.h</text>
</a>
</g>
</g>
<!-- Node3&#45;&gt;Node6 -->
<g id="edge5_Node000003_Node000006" class="edge">
<title>Node3&#45;&gt;Node6</title>
<g id="a_edge5_Node000003_Node000006"><a xlink:title=" ">
<path fill="none" stroke="#63b8ff" d="M400.57,-181.37C413.78,-171.06 436.09,-153.65 452.17,-141.09"/>
<polygon fill="#63b8ff" stroke="#63b8ff" points="454.64,-143.61 460.37,-134.7 450.33,-138.09 454.64,-143.61"/>
</a>
</g>
</g>
<!-- Node8 -->
<g id="Node000008" class="node">
<title>Node8</title>
<g id="a_Node000008"><a xlink:href="identity_8h.html" target="_top" xlink:title=" ">
<polygon fill="white" stroke="#666666" points="405.51,-134.5 289.51,-134.5 289.51,-115.5 405.51,-115.5 405.51,-134.5"/>
<text text-anchor="middle" x="347.51" y="-122.5" font-family="Helvetica,sans-Serif" font-size="10.00">core/types/identity.h</text>
</a>
</g>
</g>
<!-- Node3&#45;&gt;Node8 -->
<g id="edge9_Node000003_Node000008" class="edge">
<title>Node3&#45;&gt;Node8</title>
<g id="a_edge9_Node000003_Node000008"><a xlink:title=" ">
<path fill="none" stroke="#63b8ff" d="M383.85,-181.37C377.5,-171.69 367.03,-155.74 358.95,-143.44"/>
<polygon fill="#63b8ff" stroke="#63b8ff" points="361.77,-141.35 353.36,-134.91 355.92,-145.19 361.77,-141.35"/>
</a>
</g>
</g>
<!-- Node12 -->
<g id="Node000012" class="node">
<title>Node12</title>
<g id="a_Node000012"><a xlink:href="observability_2metrics_2unified_8h.html" target="_top" xlink:title=" ">
<polygon fill="white" stroke="#666666" points="271.51,-140 151.51,-140 151.51,-110 271.51,-110 271.51,-140"/>
<text text-anchor="start" x="159.51" y="-128" font-family="Helvetica,sans-Serif" font-size="10.00">observability/metrics</text>
<text text-anchor="middle" x="211.51" y="-117" font-family="Helvetica,sans-Serif" font-size="10.00">/unified.h</text>
</a>
</g>
</g>
<!-- Node3&#45;&gt;Node12 -->
<g id="edge15_Node000003_Node000012" class="edge">
<title>Node3&#45;&gt;Node12</title>
<g id="a_edge15_Node000003_Node000012"><a xlink:title=" ">
<path fill="none" stroke="#63b8ff" d="M365.51,-181.37C338.73,-171.74 294.7,-155.91 260.56,-143.64"/>
<polygon fill="#63b8ff" stroke="#63b8ff" points="261.37,-140.21 250.77,-140.12 259,-146.79 261.37,-140.21"/>
</a>
</g>
</g>
<!-- Node14 -->
<g id="Node000014" class="node">
<title>Node14</title>
<g id="a_Node000014"><a xlink:href="sd_8h.html" target="_top" xlink:title=" ">
<polygon fill="white" stroke="#666666" points="778.51,-134.5 686.51,-134.5 686.51,-115.5 778.51,-115.5 778.51,-134.5"/>
<text text-anchor="middle" x="732.51" y="-122.5" font-family="Helvetica,sans-Serif" font-size="10.00">fs/backend/sd.h</text>
</a>
</g>
</g>
<!-- Node3&#45;&gt;Node14 -->
<g id="edge19_Node000003_Node000014" class="edge">
<title>Node3&#45;&gt;Node14</title>
<g id="a_edge19_Node000003_Node000014"><a xlink:title=" ">
<path fill="none" stroke="#63b8ff" d="M425.25,-183.33C485.02,-172.18 605.7,-149.66 676.74,-136.41"/>
<polygon fill="#63b8ff" stroke="#63b8ff" points="677.65,-139.8 686.84,-134.52 676.37,-132.92 677.65,-139.8"/>
</a>
</g>
</g>
<!-- Node21 -->
<g id="Node000021" class="node">
<title>Node21</title>
<g id="a_Node000021"><a xlink:href="vfs__ops_8h.html" target="_top" xlink:title=" ">
<polygon fill="white" stroke="#666666" points="133.01,-134.5 40.01,-134.5 40.01,-115.5 133.01,-115.5 133.01,-134.5"/>
<text text-anchor="middle" x="86.51" y="-122.5" font-family="Helvetica,sans-Serif" font-size="10.00">fs/vfs/vfs_ops.h</text>
</a>
</g>
</g>
<!-- Node3&#45;&gt;Node21 -->
<g id="edge33_Node000003_Node000021" class="edge">
<title>Node3&#45;&gt;Node21</title>
<g id="a_edge33_Node000003_Node000021"><a xlink:title=" ">
<path fill="none" stroke="#63b8ff" d="M353.82,-183.3C305.7,-174.15 217.41,-156.93 142.51,-140 138.33,-139.06 133.99,-138.04 129.65,-136.99"/>
<polygon fill="#63b8ff" stroke="#63b8ff" points="130.16,-133.51 119.62,-134.54 128.5,-140.31 130.16,-133.51"/>
</a>
</g>
</g>
<!-- Node6&#45;&gt;Node4 -->
<g id="edge6_Node000006_Node000004" class="edge">
<title>Node6&#45;&gt;Node4</title>
<g id="a_edge6_Node000006_Node000004"><a xlink:title=" ">
<path fill="none" stroke="#63b8ff" d="M468.41,-115.37C465.44,-107.07 460.84,-94.28 457.05,-83.72"/>
<polygon fill="#63b8ff" stroke="#63b8ff" points="460.3,-82.4 453.62,-74.17 453.71,-84.76 460.3,-82.4"/>
</a>
</g>
</g>
<!-- Node6&#45;&gt;Node5 -->
<g id="edge7_Node000006_Node000005" class="edge">
<title>Node6&#45;&gt;Node5</title>
<g id="a_edge7_Node000006_Node000005"><a xlink:title=" ">
<path fill="none" stroke="#63b8ff" d="M437.17,-115.46C429.71,-113.64 421.85,-111.73 414.51,-110 362.81,-97.78 303.28,-84.36 263.52,-75.48"/>
<polygon fill="#63b8ff" stroke="#63b8ff" points="264.13,-72.03 253.61,-73.27 262.61,-78.86 264.13,-72.03"/>
</a>
</g>
</g>
<!-- Node6&#45;&gt;Node7 -->
<g id="edge8_Node000006_Node000007" class="edge">
<title>Node6&#45;&gt;Node7</title>
<g id="a_edge8_Node000006_Node000007"><a xlink:title=" ">
<path fill="none" stroke="#63b8ff" d="M519.25,-117.38C580.42,-108.74 689.96,-92.67 793.33,-74.14"/>
<polygon fill="#63b8ff" stroke="#63b8ff" points="794.09,-77.56 803.31,-72.34 792.85,-70.67 794.09,-77.56"/>
</a>
</g>
</g>
<!-- Node8&#45;&gt;Node4 -->
<g id="edge10_Node000008_Node000004" class="edge">
<title>Node8&#45;&gt;Node4</title>
<g id="a_edge10_Node000008_Node000004"><a xlink:title=" ">
<path fill="none" stroke="#63b8ff" d="M362.71,-115.37C379.52,-105.82 406.83,-90.31 426.54,-79.12"/>
<polygon fill="#63b8ff" stroke="#63b8ff" points="428.28,-82.15 435.25,-74.17 424.83,-76.06 428.28,-82.15"/>
</a>
</g>
</g>
<!-- Node8&#45;&gt;Node5 -->
<g id="edge11_Node000008_Node000005" class="edge">
<title>Node8&#45;&gt;Node5</title>
<g id="a_edge11_Node000008_Node000005"><a xlink:title=" ">
<path fill="none" stroke="#63b8ff" d="M328.75,-115.49C307.16,-105.7 271.48,-89.52 246.58,-78.23"/>
<polygon fill="#63b8ff" stroke="#63b8ff" points="247.84,-74.96 237.29,-74.02 244.95,-81.33 247.84,-74.96"/>
</a>
</g>
</g>
<!-- Node9 -->
<g id="Node000009" class="node">
<title>Node9</title>
<g id="a_Node000009"><a xlink:href="token_8h.html" target="_top" xlink:title=" ">
<polygon fill="white" stroke="#666666" points="393.01,-74 286.01,-74 286.01,-55 393.01,-55 393.01,-74"/>
<text text-anchor="middle" x="339.51" y="-62" font-family="Helvetica,sans-Serif" font-size="10.00">auth/token/token.h</text>
</a>
</g>
</g>
<!-- Node8&#45;&gt;Node9 -->
<g id="edge12_Node000008_Node000009" class="edge">
<title>Node8&#45;&gt;Node9</title>
<g id="a_edge12_Node000008_Node000009"><a xlink:title=" ">
<path fill="none" stroke="#63b8ff" d="M346.33,-115.37C345.22,-107.25 343.52,-94.81 342.09,-84.39"/>
<polygon fill="#63b8ff" stroke="#63b8ff" points="345.52,-83.6 340.7,-74.17 338.58,-84.55 345.52,-83.6"/>
</a>
</g>
</g>
<!-- Node10 -->
<g id="Node000010" class="node">
<title>Node10</title>
<g id="a_Node000010"><a xlink:title=" ">
<polygon fill="#e0e0e0" stroke="#999999" points="338.51,-19 254.51,-19 254.51,0 338.51,0 338.51,-19"/>
<text text-anchor="middle" x="296.51" y="-7" font-family="Helvetica,sans-Serif" font-size="10.00">openssl/evp.h</text>
</a>
</g>
</g>
<!-- Node9&#45;&gt;Node10 -->
<g id="edge13_Node000009_Node000010" class="edge">
<title>Node9&#45;&gt;Node10</title>
<g id="a_edge13_Node000009_Node000010"><a xlink:title=" ">
<path fill="none" stroke="#63b8ff" d="M332.41,-54.75C326.34,-47.26 317.43,-36.28 310,-27.13"/>
<polygon fill="#63b8ff" stroke="#63b8ff" points="312.5,-24.65 303.48,-19.09 307.06,-29.06 312.5,-24.65"/>
</a>
</g>
</g>
<!-- Node11 -->
<g id="Node000011" class="node">
<title>Node11</title>
<g id="a_Node000011"><a xlink:title=" ">
<polygon fill="#e0e0e0" stroke="#999999" points="409.01,-19 356.01,-19 356.01,0 409.01,0 409.01,-19"/>
<text text-anchor="middle" x="382.51" y="-7" font-family="Helvetica,sans-Serif" font-size="10.00">limits.h</text>
</a>
</g>
</g>
<!-- Node9&#45;&gt;Node11 -->
<g id="edge14_Node000009_Node000011" class="edge">
<title>Node9&#45;&gt;Node11</title>
<g id="a_edge14_Node000009_Node000011"><a xlink:title=" ">
<path fill="none" stroke="#63b8ff" d="M346.61,-54.75C352.69,-47.26 361.6,-36.28 369.02,-27.13"/>
<polygon fill="#63b8ff" stroke="#63b8ff" points="371.96,-29.06 375.54,-19.09 366.52,-24.65 371.96,-29.06"/>
</a>
</g>
</g>
<!-- Node12&#45;&gt;Node4 -->
<g id="edge16_Node000012_Node000004" class="edge">
<title>Node12&#45;&gt;Node4</title>
<g id="a_edge16_Node000012_Node000004"><a xlink:title=" ">
<path fill="none" stroke="#63b8ff" d="M268.76,-109.99C310.72,-99.72 366.89,-85.97 405.62,-76.49"/>
<polygon fill="#63b8ff" stroke="#63b8ff" points="406.68,-79.83 415.57,-74.05 405.02,-73.03 406.68,-79.83"/>
</a>
</g>
</g>
<!-- Node12&#45;&gt;Node5 -->
<g id="edge17_Node000012_Node000005" class="edge">
<title>Node12&#45;&gt;Node5</title>
<g id="a_edge17_Node000012_Node000005"><a xlink:title=" ">
<path fill="none" stroke="#63b8ff" d="M213.21,-109.84C214.12,-102.21 215.26,-92.7 216.24,-84.45"/>
<polygon fill="#63b8ff" stroke="#63b8ff" points="219.75,-84.61 217.46,-74.27 212.8,-83.78 219.75,-84.61"/>
</a>
</g>
</g>
<!-- Node13 -->
<g id="Node000013" class="node">
<title>Node13</title>
<g id="a_Node000013"><a xlink:href="proto__list_8h.html" target="_top" xlink:title=" ">
<polygon fill="white" stroke="#666666" points="165.01,-74 40.01,-74 40.01,-55 165.01,-55 165.01,-74"/>
<text text-anchor="middle" x="102.51" y="-62" font-family="Helvetica,sans-Serif" font-size="10.00">core/types/proto_list.h</text>
</a>
</g>
</g>
<!-- Node12&#45;&gt;Node13 -->
<g id="edge18_Node000012_Node000013" class="edge">
<title>Node12&#45;&gt;Node13</title>
<g id="a_edge18_Node000012_Node000013"><a xlink:title=" ">
<path fill="none" stroke="#63b8ff" d="M185.4,-109.99C167.87,-100.58 144.89,-88.24 127.57,-78.95"/>
<polygon fill="#63b8ff" stroke="#63b8ff" points="129.08,-75.78 118.61,-74.14 125.76,-81.95 129.08,-75.78"/>
</a>
</g>
</g>
<!-- Node14&#45;&gt;Node4 -->
<g id="edge20_Node000014_Node000004" class="edge">
<title>Node14&#45;&gt;Node4</title>
<g id="a_edge20_Node000014_Node000004"><a xlink:title=" ">
<path fill="none" stroke="#63b8ff" d="M696.7,-115.45C688.75,-113.61 680.35,-111.7 672.51,-110 613.35,-97.17 545.03,-83.67 499.98,-74.95"/>
<polygon fill="#63b8ff" stroke="#63b8ff" points="500.37,-71.47 489.89,-73.01 499.04,-78.34 500.37,-71.47"/>
</a>
</g>
</g>
<!-- Node14&#45;&gt;Node5 -->
<g id="edge21_Node000014_Node000005" class="edge">
<title>Node14&#45;&gt;Node5</title>
<g id="a_edge21_Node000014_Node000005"><a xlink:title=" ">
<path fill="none" stroke="#63b8ff" d="M686.49,-119.51C604.15,-111.36 426.21,-93.17 276.51,-74 272.37,-73.47 268.06,-72.89 263.75,-72.29"/>
<polygon fill="#63b8ff" stroke="#63b8ff" points="264.15,-68.81 253.76,-70.87 263.17,-75.74 264.15,-68.81"/>
</a>
</g>
</g>
<!-- Node14&#45;&gt;Node7 -->
<g id="edge24_Node000014_Node000007" class="edge">
<title>Node14&#45;&gt;Node7</title>
<g id="a_edge24_Node000014_Node000007"><a xlink:title=" ">
<path fill="none" stroke="#63b8ff" d="M747.71,-115.37C764.52,-105.82 791.83,-90.31 811.54,-79.12"/>
<polygon fill="#63b8ff" stroke="#63b8ff" points="813.28,-82.15 820.25,-74.17 809.83,-76.06 813.28,-82.15"/>
</a>
</g>
</g>
<!-- Node15 -->
<g id="Node000015" class="node">
<title>Node15</title>
<g id="a_Node000015"><a xlink:title=" ">
<polygon fill="#e0e0e0" stroke="#999999" points="1015.01,-74 962.01,-74 962.01,-55 1015.01,-55 1015.01,-74"/>
<text text-anchor="middle" x="988.51" y="-62" font-family="Helvetica,sans-Serif" font-size="10.00">stdint.h</text>
</a>
</g>
</g>
<!-- Node14&#45;&gt;Node15 -->
<g id="edge22_Node000014_Node000015" class="edge">
<title>Node14&#45;&gt;Node15</title>
<g id="a_edge22_Node000014_Node000015"><a xlink:title=" ">
<path fill="none" stroke="#63b8ff" d="M769.74,-115.49C818.54,-104.34 903.63,-84.9 952.06,-73.83"/>
<polygon fill="#63b8ff" stroke="#63b8ff" points="952.84,-77.24 961.81,-71.6 951.28,-70.42 952.84,-77.24"/>
</a>
</g>
</g>
<!-- Node16 -->
<g id="Node000016" class="node">
<title>Node16</title>
<g id="a_Node000016"><a xlink:title=" ">
<polygon fill="#e0e0e0" stroke="#999999" points="677.01,-19 626.01,-19 626.01,0 677.01,0 677.01,-19"/>
<text text-anchor="middle" x="651.51" y="-7" font-family="Helvetica,sans-Serif" font-size="10.00">errno.h</text>
</a>
</g>
</g>
<!-- Node14&#45;&gt;Node16 -->
<g id="edge23_Node000014_Node000016" class="edge">
<title>Node14&#45;&gt;Node16</title>
<g id="a_edge23_Node000014_Node000016"><a xlink:title=" ">
<path fill="none" stroke="#63b8ff" d="M717.3,-115.44C703.19,-106.74 682.62,-92.02 670.51,-74 661.49,-60.57 656.65,-42.73 654.11,-29.38"/>
<polygon fill="#63b8ff" stroke="#63b8ff" points="657.55,-28.73 652.49,-19.42 650.64,-29.85 657.55,-28.73"/>
</a>
</g>
</g>
<!-- Node17 -->
<g id="Node000017" class="node">
<title>Node17</title>
<g id="a_Node000017"><a xlink:title=" ">
<polygon fill="#e0e0e0" stroke="#999999" points="931.51,-19 859.51,-19 859.51,0 931.51,0 931.51,-19"/>
<text text-anchor="middle" x="895.51" y="-7" font-family="Helvetica,sans-Serif" font-size="10.00">sys/types.h</text>
</a>
</g>
</g>
<!-- Node14&#45;&gt;Node17 -->
<g id="edge25_Node000014_Node000017" class="edge">
<title>Node14&#45;&gt;Node17</title>
<g id="a_edge25_Node000014_Node000017"><a xlink:title=" ">
<path fill="none" stroke="#63b8ff" d="M778.63,-118.99C810.22,-113.21 850.89,-100.76 876.51,-74 888.07,-61.93 892.63,-43.13 894.41,-29.11"/>
<polygon fill="#63b8ff" stroke="#63b8ff" points="897.9,-29.39 895.32,-19.11 890.93,-28.75 897.9,-29.39"/>
</a>
</g>
</g>
<!-- Node18 -->
<g id="Node000018" class="node">
<title>Node18</title>
<g id="a_Node000018"><a xlink:title=" ">
<polygon fill="#e0e0e0" stroke="#999999" points="577.51,-19 517.51,-19 517.51,0 577.51,0 577.51,-19"/>
<text text-anchor="middle" x="547.51" y="-7" font-family="Helvetica,sans-Serif" font-size="10.00">sys/uio.h</text>
</a>
</g>
</g>
<!-- Node14&#45;&gt;Node18 -->
<g id="edge26_Node000014_Node000018" class="edge">
<title>Node14&#45;&gt;Node18</title>
<g id="a_edge26_Node000014_Node000018"><a xlink:title=" ">
<path fill="none" stroke="#63b8ff" d="M696.67,-115.44C640.8,-102.02 539.01,-77.22 536.51,-74 526.46,-61.06 531.51,-42.14 537.67,-28.32"/>
<polygon fill="#63b8ff" stroke="#63b8ff" points="540.83,-29.83 542.15,-19.32 534.56,-26.71 540.83,-29.83"/>
</a>
</g>
</g>
<!-- Node19 -->
<g id="Node000019" class="node">
<title>Node19</title>
<g id="a_Node000019"><a xlink:href="sd__cred__forward_8h.html" target="_top" xlink:title=" ">
<polygon fill="white" stroke="#666666" points="785.51,-74 679.51,-74 679.51,-55 785.51,-55 785.51,-74"/>
<text text-anchor="middle" x="732.51" y="-62" font-family="Helvetica,sans-Serif" font-size="10.00">sd_cred_forward.h</text>
</a>
</g>
</g>
<!-- Node14&#45;&gt;Node19 -->
<g id="edge27_Node000014_Node000019" class="edge">
<title>Node14&#45;&gt;Node19</title>
<g id="a_edge27_Node000014_Node000019"><a xlink:title=" ">
<path fill="none" stroke="#63b8ff" d="M732.51,-115.37C732.51,-107.25 732.51,-94.81 732.51,-84.39"/>
<polygon fill="#63b8ff" stroke="#63b8ff" points="736.01,-84.17 732.51,-74.17 729.01,-84.17 736.01,-84.17"/>
</a>
</g>
</g>
<!-- Node20 -->
<g id="Node000020" class="node">
<title>Node20</title>
<g id="a_Node000020"><a xlink:href="sd__registry_8h.html" target="_top" xlink:title=" ">
<polygon fill="white" stroke="#666666" points="623.51,-74 545.51,-74 545.51,-55 623.51,-55 623.51,-74"/>
<text text-anchor="middle" x="584.51" y="-62" font-family="Helvetica,sans-Serif" font-size="10.00">sd_registry.h</text>
</a>
</g>
</g>
<!-- Node14&#45;&gt;Node20 -->
<g id="edge29_Node000014_Node000020" class="edge">
<title>Node14&#45;&gt;Node20</title>
<g id="a_edge29_Node000014_Node000020"><a xlink:title=" ">
<path fill="none" stroke="#63b8ff" d="M710.99,-115.49C685.89,-105.57 644.19,-89.09 615.58,-77.78"/>
<polygon fill="#63b8ff" stroke="#63b8ff" points="616.64,-74.44 606.06,-74.02 614.07,-80.95 616.64,-74.44"/>
</a>
</g>
</g>
<!-- Node19&#45;&gt;Node16 -->
<g id="edge28_Node000019_Node000016" class="edge">
<title>Node19&#45;&gt;Node16</title>
<g id="a_edge28_Node000019_Node000016"><a xlink:title=" ">
<path fill="none" stroke="#63b8ff" d="M719.5,-54.98C707.05,-46.84 688.06,-34.41 673.3,-24.76"/>
<polygon fill="#63b8ff" stroke="#63b8ff" points="675.05,-21.72 664.76,-19.17 671.21,-27.57 675.05,-21.72"/>
</a>
</g>
</g>
<!-- Node20&#45;&gt;Node16 -->
<g id="edge30_Node000020_Node000016" class="edge">
<title>Node20&#45;&gt;Node16</title>
<g id="a_edge30_Node000020_Node000016"><a xlink:title=" ">
<path fill="none" stroke="#63b8ff" d="M595.28,-54.98C605.28,-47.07 620.4,-35.11 632.44,-25.58"/>
<polygon fill="#63b8ff" stroke="#63b8ff" points="634.88,-28.12 640.55,-19.17 630.54,-22.63 634.88,-28.12"/>
</a>
</g>
</g>
<!-- Node20&#45;&gt;Node17 -->
<g id="edge31_Node000020_Node000017" class="edge">
<title>Node20&#45;&gt;Node17</title>
<g id="a_edge31_Node000020_Node000017"><a xlink:title=" ">
<path fill="none" stroke="#63b8ff" d="M623.59,-56.84C680.95,-47.06 787.79,-28.86 849.09,-18.41"/>
<polygon fill="#63b8ff" stroke="#63b8ff" points="849.98,-21.81 859.25,-16.68 848.8,-14.91 849.98,-21.81"/>
</a>
</g>
</g>
<!-- Node20&#45;&gt;Node18 -->
<g id="edge32_Node000020_Node000018" class="edge">
<title>Node20&#45;&gt;Node18</title>
<g id="a_edge32_Node000020_Node000018"><a xlink:title=" ">
<path fill="none" stroke="#63b8ff" d="M578.4,-54.75C573.23,-47.34 565.67,-36.5 559.32,-27.41"/>
<polygon fill="#63b8ff" stroke="#63b8ff" points="562.1,-25.29 553.51,-19.09 556.36,-29.29 562.1,-25.29"/>
</a>
</g>
</g>
<!-- Node22&#45;&gt;Node4 -->
<g id="edge35_Node000022_Node000004" class="edge">
<title>Node22&#45;&gt;Node4</title>
<g id="a_edge35_Node000022_Node000004"><a xlink:title=" ">
<path fill="none" stroke="#63b8ff" d="M665.15,-241.88C660.73,-217.02 644.41,-144.71 599.51,-110 570.73,-87.75 530.96,-76.59 499.74,-71.02"/>
<polygon fill="#63b8ff" stroke="#63b8ff" points="499.95,-67.5 489.51,-69.33 498.81,-74.41 499.95,-67.5"/>
</a>
</g>
</g>
<!-- Node22&#45;&gt;Node5 -->
<g id="edge36_Node000022_Node000005" class="edge">
<title>Node22&#45;&gt;Node5</title>
<g id="a_edge36_Node000022_Node000005"><a xlink:title=" ">
<path fill="none" stroke="#63b8ff" d="M599.33,-249.64C448.95,-246.13 92.76,-228.45 20.51,-140 12.08,-129.67 12.18,-120.41 20.51,-110 25.34,-103.97 116.57,-85.3 173.49,-74.15"/>
<polygon fill="#63b8ff" stroke="#63b8ff" points="174.2,-77.58 183.34,-72.23 172.86,-70.71 174.2,-77.58"/>
</a>
</g>
</g>
<!-- Node23 -->
<g id="Node000023" class="node">
<title>Node23</title>
<g id="a_Node000023"><a xlink:title=" ">
<polygon fill="#e0e0e0" stroke="#999999" points="853.01,-200.5 800.01,-200.5 800.01,-181.5 853.01,-181.5 853.01,-200.5"/>
<text text-anchor="middle" x="826.51" y="-188.5" font-family="Helvetica,sans-Serif" font-size="10.00">regex.h</text>
</a>
</g>
</g>
<!-- Node22&#45;&gt;Node23 -->
<g id="edge37_Node000022_Node000023" class="edge">
<title>Node22&#45;&gt;Node23</title>
<g id="a_edge37_Node000022_Node000023"><a xlink:title=" ">
<path fill="none" stroke="#63b8ff" d="M691.52,-241.92C716.83,-233.15 757.03,-219.03 791.51,-206 792.93,-205.47 794.37,-204.91 795.83,-204.35"/>
<polygon fill="#63b8ff" stroke="#63b8ff" points="797.43,-207.48 805.46,-200.57 794.88,-200.97 797.43,-207.48"/>
</a>
</g>
</g>
<!-- Node24 -->
<g id="Node000024" class="node">
<title>Node24</title>
<g id="a_Node000024"><a xlink:href="core_2types_2file_8h.html" target="_top" xlink:title=" ">
<polygon fill="white" stroke="#666666" points="782.01,-200.5 687.01,-200.5 687.01,-181.5 782.01,-181.5 782.01,-200.5"/>
<text text-anchor="middle" x="734.51" y="-188.5" font-family="Helvetica,sans-Serif" font-size="10.00">core/types/file.h</text>
</a>
</g>
</g>
<!-- Node22&#45;&gt;Node24 -->
<g id="edge38_Node000022_Node000024" class="edge">
<title>Node22&#45;&gt;Node24</title>
<g id="a_edge38_Node000022_Node000024"><a xlink:title=" ">
<path fill="none" stroke="#63b8ff" d="M676.55,-241.87C687.09,-232.8 703.9,-218.34 716.7,-207.32"/>
<polygon fill="#63b8ff" stroke="#63b8ff" points="719.14,-209.84 724.44,-200.67 714.57,-204.54 719.14,-209.84"/>
</a>
</g>
</g>
<!-- Node27 -->
<g id="Node000027" class="node">
<title>Node27</title>
<g id="a_Node000027"><a xlink:href="flags_8h.html" target="_top" xlink:title=" ">
<polygon fill="white" stroke="#666666" points="630.01,-206 503.01,-206 503.01,-176 630.01,-176 630.01,-206"/>
<text text-anchor="start" x="511.01" y="-194" font-family="Helvetica,sans-Serif" font-size="10.00">protocols/root/protocol</text>
<text text-anchor="middle" x="566.51" y="-183" font-family="Helvetica,sans-Serif" font-size="10.00">/flags.h</text>
</a>
</g>
</g>
<!-- Node22&#45;&gt;Node27 -->
<g id="edge43_Node000022_Node000027" class="edge">
<title>Node22&#45;&gt;Node27</title>
<g id="a_edge43_Node000022_Node000027"><a xlink:title=" ">
<path fill="none" stroke="#63b8ff" d="M651.76,-241.87C638.06,-233.86 617.19,-221.65 599.53,-211.31"/>
<polygon fill="#63b8ff" stroke="#63b8ff" points="601.04,-208.14 590.64,-206.11 597.5,-214.19 601.04,-208.14"/>
</a>
</g>
</g>
<!-- Node24&#45;&gt;Node14 -->
<g id="edge39_Node000024_Node000014" class="edge">
<title>Node24&#45;&gt;Node14</title>
<g id="a_edge39_Node000024_Node000014"><a xlink:title=" ">
<path fill="none" stroke="#63b8ff" d="M734.24,-181.37C733.95,-172.16 733.49,-157.29 733.11,-145.27"/>
<polygon fill="#63b8ff" stroke="#63b8ff" points="736.6,-144.79 732.79,-134.91 729.6,-145.01 736.6,-144.79"/>
</a>
</g>
</g>
<!-- Node25 -->
<g id="Node000025" class="node">
<title>Node25</title>
<g id="a_Node000025"><a xlink:href="sesslog_8h.html" target="_top" xlink:title=" ">
<polygon fill="white" stroke="#666666" points="1067.51,-140 947.51,-140 947.51,-110 1067.51,-110 1067.51,-140"/>
<text text-anchor="start" x="955.51" y="-128" font-family="Helvetica,sans-Serif" font-size="10.00">observability/sesslog</text>
<text text-anchor="middle" x="1007.51" y="-117" font-family="Helvetica,sans-Serif" font-size="10.00">/sesslog.h</text>
</a>
</g>
</g>
<!-- Node24&#45;&gt;Node25 -->
<g id="edge40_Node000024_Node000025" class="edge">
<title>Node24&#45;&gt;Node25</title>
<g id="a_edge40_Node000024_Node000025"><a xlink:title=" ">
<path fill="none" stroke="#63b8ff" d="M768.86,-181.49C776.32,-179.66 784.18,-177.75 791.51,-176 840.21,-164.38 895.19,-151.66 937.49,-141.96"/>
<polygon fill="#63b8ff" stroke="#63b8ff" points="938.44,-145.33 947.41,-139.69 936.88,-138.51 938.44,-145.33"/>
</a>
</g>
</g>
<!-- Node25&#45;&gt;Node15 -->
<g id="edge42_Node000025_Node000015" class="edge">
<title>Node25&#45;&gt;Node15</title>
<g id="a_edge42_Node000025_Node000015"><a xlink:title=" ">
<path fill="none" stroke="#63b8ff" d="M1002.91,-109.84C1000.38,-102.04 997.21,-92.27 994.48,-83.89"/>
<polygon fill="#63b8ff" stroke="#63b8ff" points="997.78,-82.7 991.36,-74.27 991.12,-84.86 997.78,-82.7"/>
</a>
</g>
</g>
<!-- Node26 -->
<g id="Node000026" class="node">
<title>Node26</title>
<g id="a_Node000026"><a xlink:title=" ">
<polygon fill="#e0e0e0" stroke="#999999" points="1089.51,-74 1033.51,-74 1033.51,-55 1089.51,-55 1089.51,-74"/>
<text text-anchor="middle" x="1061.51" y="-62" font-family="Helvetica,sans-Serif" font-size="10.00">stddef.h</text>
</a>
</g>
</g>
<!-- Node25&#45;&gt;Node26 -->
<g id="edge41_Node000025_Node000026" class="edge">
<title>Node25&#45;&gt;Node26</title>
<g id="a_edge41_Node000025_Node000026"><a xlink:title=" ">
<path fill="none" stroke="#63b8ff" d="M1020.58,-109.84C1028.42,-101.35 1038.42,-90.52 1046.57,-81.69"/>
<polygon fill="#63b8ff" stroke="#63b8ff" points="1049.21,-83.99 1053.42,-74.27 1044.07,-79.24 1049.21,-83.99"/>
</a>
</g>
</g>
<!-- Node28&#45;&gt;Node4 -->
<g id="edge45_Node000028_Node000004" class="edge">
<title>Node28&#45;&gt;Node4</title>
<g id="a_edge45_Node000028_Node000004"><a xlink:title=" ">
<path fill="none" stroke="#63b8ff" d="M759.15,-300.31C715.26,-294.24 646.71,-282.21 590.51,-261 544.14,-243.5 518.46,-248.82 493.51,-206 486.8,-194.48 487.38,-187.84 493.51,-176 506.28,-151.37 531.75,-164.63 544.51,-140 550.65,-128.16 551.64,-121.27 544.51,-110 534.33,-93.91 516.58,-83.52 499.23,-76.87"/>
<polygon fill="#63b8ff" stroke="#63b8ff" points="500.28,-73.53 489.68,-73.55 497.97,-80.14 500.28,-73.53"/>
</a>
</g>
</g>
<!-- Node28&#45;&gt;Node5 -->
<g id="edge46_Node000028_Node000005" class="edge">
<title>Node28&#45;&gt;Node5</title>
<g id="a_edge46_Node000028_Node000005"><a xlink:title=" ">
<path fill="none" stroke="#63b8ff" d="M759.47,-300.31C606.29,-282.16 104.38,-221.76 73.51,-206 28.06,-182.79 -21.58,-149.68 10.51,-110 13.1,-106.8 112.86,-86.5 173.26,-74.45"/>
<polygon fill="#63b8ff" stroke="#63b8ff" points="174.2,-77.83 183.33,-72.44 172.83,-70.96 174.2,-77.83"/>
</a>
</g>
</g>
<!-- Node28&#45;&gt;Node17 -->
<g id="edge48_Node000028_Node000017" class="edge">
<title>Node28&#45;&gt;Node17</title>
<g id="a_edge48_Node000028_Node000017"><a xlink:title=" ">
<path fill="none" stroke="#63b8ff" d="M809.79,-296.9C821.72,-280.2 847.77,-241.85 862.51,-206 885.51,-150.07 888.12,-134.02 895.51,-74 897.35,-59.09 897.23,-42.06 896.72,-29.39"/>
<polygon fill="#63b8ff" stroke="#63b8ff" points="900.2,-28.97 896.18,-19.17 893.21,-29.34 900.2,-28.97"/>
</a>
</g>
</g>
<!-- Node28&#45;&gt;Node22 -->
<g id="edge49_Node000028_Node000022" class="edge">
<title>Node28&#45;&gt;Node22</title>
<g id="a_edge49_Node000028_Node000022"><a xlink:title=" ">
<path fill="none" stroke="#63b8ff" d="M781.5,-296.98C759.06,-288.3 724.03,-274.75 698.52,-264.88"/>
<polygon fill="#63b8ff" stroke="#63b8ff" points="699.51,-261.51 688.92,-261.17 696.99,-268.04 699.51,-261.51"/>
</a>
</g>
</g>
<!-- Node28&#45;&gt;Node23 -->
<g id="edge47_Node000028_Node000023" class="edge">
<title>Node28&#45;&gt;Node23</title>
<g id="a_edge47_Node000028_Node000023"><a xlink:title=" ">
<path fill="none" stroke="#63b8ff" d="M805.24,-296.97C808.94,-278.73 817.68,-235.57 822.73,-210.64"/>
<polygon fill="#63b8ff" stroke="#63b8ff" points="826.21,-211.13 824.76,-200.63 819.35,-209.74 826.21,-211.13"/>
</a>
</g>
</g>
</g>
</svg>

<g id="navigator" transform="translate(0 0)" fill="#404254">
  <rect fill="#f2f5e9" fill-opacity="0.5" stroke="#606060" stroke-width=".5" x="0" y="0" width="60" height="60"/>
  <use id="zoomplus" xlink:href="#zoomPlus" x="17" y="9" onmousedown="handleZoom(evt,'in')"/>
  <use id="zoomminus" xlink:href="#zoomMin" x="42" y="9" onmousedown="handleZoom(evt,'out')"/>
  <use id="reset" xlink:href="#resetDef" x="30" y="36" onmousedown="handleReset()"/>
   <use id="arrowup" xlink:href="#arrowUp" x="0" y="0" onmousedown="handlePan(0,-1)"/>
  <use id="arrowright" xlink:href="#arrowRight" x="0" y="0" onmousedown="handlePan(1,0)"/>
  <use id="arrowdown" xlink:href="#arrowDown" x="0" y="0" onmousedown="handlePan(0,1)"/>
  <use id="arrowleft" xlink:href="#arrowLeft" x="0" y="0" onmousedown="handlePan(-1,0)"/>
</g>
<svg viewBox="0 0 15 15" width="100%" height="30px" preserveAspectRatio="xMaxYMin meet">
 <g id="arrow_out" transform="scale(0.3 0.3)">
  <a xlink:href="writethrough__decision_8c__incl_org.svg" target="_base">
   <rect id="button" ry="5" rx="5" y="6" x="6" height="38" width="38"
        fill="#f2f5e9" fill-opacity="0.5" stroke="#606060" stroke-width="1.0"/>
   <path id="arrow"
     d="M 11.500037,31.436501 C 11.940474,20.09759 22.043105,11.32322 32.158766,21.979434 L 37.068811,17.246167 C 37.068811,17.246167 37.088388,32 37.088388,32 L 22.160133,31.978069 C 22.160133,31.978069 26.997745,27.140456 26.997745,27.140456 C 18.528582,18.264221 13.291696,25.230495 11.500037,31.436501 z"
     style="fill:#404040;"/>
  </a>
 </g>
</svg>

<style type='text/css'>
<![CDATA[
[data-mouse-over-selected='false'] { opacity: 0.7; }
[data-mouse-over-selected='true']  { opacity: 1.0; }
]]>
</style>
<script type="application/ecmascript"><![CDATA[
document.addEventListener('DOMContentLoaded', (event) => {
  highlightEdges();
  highlightAdjacentNodes();
});
]]></script>
</svg>
