<?xml version="1.0" encoding="UTF-8" standalone="no"?>
<!DOCTYPE svg PUBLIC "-//W3C//DTD SVG 1.1//EN"
 "http://www.w3.org/Graphics/SVG/1.1/DTD/svg11.dtd">
<!-- Generated by graphviz version 2.43.0 (0)
 -->
<!-- Title: src/fs/cache/writethrough_metrics.h Pages: 1 -->
<svg width="870pt" height="115pt"
 viewBox="0.00 0.00 870.00 115.00" xmlns="http://www.w3.org/2000/svg" xmlns:xlink="http://www.w3.org/1999/xlink">
<g id="graph0" class="graph" transform="scale(1 1) rotate(0) translate(4 111)">
<title>src/fs/cache/writethrough_metrics.h</title>
<!-- Node1 -->
<g id="Node000001" class="node">
<title>Node1</title>
<g id="a_Node000001"><a xlink:title=" ">
<polygon fill="#999999" stroke="#666666" points="524.5,-107 384.5,-107 384.5,-77 524.5,-77 524.5,-107"/>
<text text-anchor="start" x="392.5" y="-95" font-family="Helvetica,sans-Serif" font-size="10.00">src/fs/cache/writethrough</text>
<text text-anchor="middle" x="454.5" y="-84" font-family="Helvetica,sans-Serif" font-size="10.00">_metrics.h</text>
</a>
</g>
</g>
<!-- Node2 -->
<g id="Node000002" class="node">
<title>Node2</title>
<g id="a_Node000002"><a xlink:href="core_2aio_2write_8c.html" target="_top" xlink:title=" ">
<polygon fill="white" stroke="#666666" points="109,-30 0,-30 0,-11 109,-11 109,-30"/>
<text text-anchor="middle" x="54.5" y="-18" font-family="Helvetica,sans-Serif" font-size="10.00">src/core/aio/write.c</text>
</a>
</g>
</g>
<!-- Node1&#45;&gt;Node2 -->
<g id="edge1_Node000001_Node000002" class="edge">
<title>Node1&#45;&gt;Node2</title>
<g id="a_edge1_Node000001_Node000002"><a xlink:title=" ">
<path fill="none" stroke="#63b8ff" d="M374.16,-82.43C305.7,-74.33 204.96,-60.49 118.5,-41 105.47,-38.06 91.23,-33.83 79.5,-30.06"/>
<polygon fill="#63b8ff" stroke="#63b8ff" points="374.11,-85.95 384.44,-83.64 374.92,-79 374.11,-85.95"/>
</a>
</g>
</g>
<!-- Node3 -->
<g id="Node000003" class="node">
<title>Node3</title>
<g id="a_Node000003"><a xlink:href="fd__table_8c.html" target="_top" xlink:title=" ">
<polygon fill="white" stroke="#666666" points="251.5,-35.5 127.5,-35.5 127.5,-5.5 251.5,-5.5 251.5,-35.5"/>
<text text-anchor="start" x="135.5" y="-23.5" font-family="Helvetica,sans-Serif" font-size="10.00">src/protocols/root</text>
<text text-anchor="middle" x="189.5" y="-12.5" font-family="Helvetica,sans-Serif" font-size="10.00">/connection/fd_table.c</text>
</a>
</g>
</g>
<!-- Node1&#45;&gt;Node3 -->
<g id="edge2_Node000001_Node000003" class="edge">
<title>Node1&#45;&gt;Node3</title>
<g id="a_edge2_Node000001_Node000003"><a xlink:title=" ">
<path fill="none" stroke="#63b8ff" d="M389,-74.39C351.37,-64.78 303.23,-52.37 260.5,-41 253.95,-39.26 247.07,-37.4 240.28,-35.55"/>
<polygon fill="#63b8ff" stroke="#63b8ff" points="388.27,-77.82 398.83,-76.9 390,-71.04 388.27,-77.82"/>
</a>
</g>
</g>
<!-- Node4 -->
<g id="Node000004" class="node">
<title>Node4</title>
<g id="a_Node000004"><a xlink:href="open__resolved__file_8c.html" target="_top" xlink:title=" ">
<polygon fill="white" stroke="#666666" points="385.5,-41 269.5,-41 269.5,0 385.5,0 385.5,-41"/>
<text text-anchor="start" x="277.5" y="-29" font-family="Helvetica,sans-Serif" font-size="10.00">src/protocols/root</text>
<text text-anchor="start" x="277.5" y="-18" font-family="Helvetica,sans-Serif" font-size="10.00">/read/open_resolved</text>
<text text-anchor="middle" x="327.5" y="-7" font-family="Helvetica,sans-Serif" font-size="10.00">_file.c</text>
</a>
</g>
</g>
<!-- Node1&#45;&gt;Node4 -->
<g id="edge3_Node000001_Node000004" class="edge">
<title>Node1&#45;&gt;Node4</title>
<g id="a_edge3_Node000001_Node000004"><a xlink:title=" ">
<path fill="none" stroke="#63b8ff" d="M419.99,-72.11C402.4,-62.49 381.03,-50.79 363.27,-41.07"/>
<polygon fill="#63b8ff" stroke="#63b8ff" points="418.35,-75.21 428.8,-76.94 421.71,-69.06 418.35,-75.21"/>
</a>
</g>
</g>
<!-- Node5 -->
<g id="Node000005" class="node">
<title>Node5</title>
<g id="a_Node000005"><a xlink:href="pgwrite_8c.html" target="_top" xlink:title=" ">
<polygon fill="white" stroke="#666666" points="505,-35.5 404,-35.5 404,-5.5 505,-5.5 505,-35.5"/>
<text text-anchor="start" x="412" y="-23.5" font-family="Helvetica,sans-Serif" font-size="10.00">src/protocols/root</text>
<text text-anchor="middle" x="454.5" y="-12.5" font-family="Helvetica,sans-Serif" font-size="10.00">/write/pgwrite.c</text>
</a>
</g>
</g>
<!-- Node1&#45;&gt;Node5 -->
<g id="edge4_Node000001_Node000005" class="edge">
<title>Node1&#45;&gt;Node5</title>
<g id="a_edge4_Node000001_Node000005"><a xlink:title=" ">
<path fill="none" stroke="#63b8ff" d="M454.5,-66.75C454.5,-56.31 454.5,-44.49 454.5,-35.54"/>
<polygon fill="#63b8ff" stroke="#63b8ff" points="451,-66.94 454.5,-76.94 458,-66.94 451,-66.94"/>
</a>
</g>
</g>
<!-- Node6 -->
<g id="Node000006" class="node">
<title>Node6</title>
<g id="a_Node000006"><a xlink:href="truncate_8c.html" target="_top" xlink:title=" ">
<polygon fill="white" stroke="#666666" points="624,-35.5 523,-35.5 523,-5.5 624,-5.5 624,-35.5"/>
<text text-anchor="start" x="531" y="-23.5" font-family="Helvetica,sans-Serif" font-size="10.00">src/protocols/root</text>
<text text-anchor="middle" x="573.5" y="-12.5" font-family="Helvetica,sans-Serif" font-size="10.00">/write/truncate.c</text>
</a>
</g>
</g>
<!-- Node1&#45;&gt;Node6 -->
<g id="edge5_Node000001_Node000006" class="edge">
<title>Node1&#45;&gt;Node6</title>
<g id="a_edge5_Node000001_Node000006"><a xlink:title=" ">
<path fill="none" stroke="#63b8ff" d="M487.24,-71.88C506.93,-60.38 531.56,-45.99 549.45,-35.54"/>
<polygon fill="#63b8ff" stroke="#63b8ff" points="485.45,-68.87 478.58,-76.94 488.98,-74.91 485.45,-68.87"/>
</a>
</g>
</g>
<!-- Node7 -->
<g id="Node000007" class="node">
<title>Node7</title>
<g id="a_Node000007"><a xlink:href="protocols_2root_2write_2write_8c.html" target="_top" xlink:title=" ">
<polygon fill="white" stroke="#666666" points="743,-35.5 642,-35.5 642,-5.5 743,-5.5 743,-35.5"/>
<text text-anchor="start" x="650" y="-23.5" font-family="Helvetica,sans-Serif" font-size="10.00">src/protocols/root</text>
<text text-anchor="middle" x="692.5" y="-12.5" font-family="Helvetica,sans-Serif" font-size="10.00">/write/write.c</text>
</a>
</g>
</g>
<!-- Node1&#45;&gt;Node7 -->
<g id="edge6_Node000001_Node000007" class="edge">
<title>Node1&#45;&gt;Node7</title>
<g id="a_edge6_Node000001_Node000007"><a xlink:title=" ">
<path fill="none" stroke="#63b8ff" d="M517.09,-74.29C551.55,-64.89 595.01,-52.73 633.5,-41 639.07,-39.3 644.92,-37.45 650.68,-35.59"/>
<polygon fill="#63b8ff" stroke="#63b8ff" points="515.9,-70.99 507.17,-76.99 517.73,-77.74 515.9,-70.99"/>
</a>
</g>
</g>
<!-- Node8 -->
<g id="Node000008" class="node">
<title>Node8</title>
<g id="a_Node000008"><a xlink:href="writev_8c.html" target="_top" xlink:title=" ">
<polygon fill="white" stroke="#666666" points="862,-35.5 761,-35.5 761,-5.5 862,-5.5 862,-35.5"/>
<text text-anchor="start" x="769" y="-23.5" font-family="Helvetica,sans-Serif" font-size="10.00">src/protocols/root</text>
<text text-anchor="middle" x="811.5" y="-12.5" font-family="Helvetica,sans-Serif" font-size="10.00">/write/writev.c</text>
</a>
</g>
</g>
<!-- Node1&#45;&gt;Node8 -->
<g id="edge7_Node000001_Node000008" class="edge">
<title>Node1&#45;&gt;Node8</title>
<g id="a_edge7_Node000001_Node000008"><a xlink:title=" ">
<path fill="none" stroke="#63b8ff" d="M534.89,-80.91C595.26,-72.51 679.69,-59.03 752.5,-41 758.78,-39.44 765.36,-37.55 771.75,-35.55"/>
<polygon fill="#63b8ff" stroke="#63b8ff" points="534.09,-77.49 524.66,-82.32 535.05,-84.42 534.09,-77.49"/>
</a>
</g>
</g>
</g>
</svg>
