<?xml version="1.0" encoding="UTF-8" standalone="no"?>
<!DOCTYPE svg PUBLIC "-//W3C//DTD SVG 1.1//EN"
 "http://www.w3.org/Graphics/SVG/1.1/DTD/svg11.dtd">
<!-- Generated by graphviz version 2.43.0 (0)
 -->
<!-- Title: src/fs/cache/writethrough_decision.c Pages: 1 -->
<svg width="950pt" height="390pt"
 viewBox="0.00 0.00 949.82 390.00" xmlns="http://www.w3.org/2000/svg" xmlns:xlink="http://www.w3.org/1999/xlink">
<g id="graph0" class="graph" transform="scale(1 1) rotate(0) translate(4 386)">
<title>src/fs/cache/writethrough_decision.c</title>
<!-- Node1 -->
<g id="Node000001" class="node">
<title>Node1</title>
<g id="a_Node000001"><a xlink:title=" ">
<polygon fill="#999999" stroke="#666666" points="720.82,-382 580.82,-382 580.82,-352 720.82,-352 720.82,-382"/>
<text text-anchor="start" x="588.82" y="-370" font-family="Helvetica,sans-Serif" font-size="10.00">src/fs/cache/writethrough</text>
<text text-anchor="middle" x="650.82" y="-359" font-family="Helvetica,sans-Serif" font-size="10.00">_decision.c</text>
</a>
</g>
</g>
<!-- Node2 -->
<g id="Node000002" class="node">
<title>Node2</title>
<g id="a_Node000002"><a xlink:href="writethrough_8h.html" target="_top" xlink:title=" ">
<polygon fill="white" stroke="#666666" points="485.82,-316 397.82,-316 397.82,-297 485.82,-297 485.82,-316"/>
<text text-anchor="middle" x="441.82" y="-304" font-family="Helvetica,sans-Serif" font-size="10.00">writethrough.h</text>
</a>
</g>
</g>
<!-- Node1&#45;&gt;Node2 -->
<g id="edge1_Node000001_Node000002" class="edge">
<title>Node1&#45;&gt;Node2</title>
<g id="a_edge1_Node000001_Node000002"><a xlink:title=" ">
<path fill="none" stroke="#63b8ff" d="M600.76,-351.99C564.53,-341.85 516.2,-328.32 482.38,-318.85"/>
<polygon fill="#63b8ff" stroke="#63b8ff" points="482.95,-315.38 472.38,-316.05 481.06,-322.12 482.95,-315.38"/>
</a>
</g>
</g>
<!-- Node7 -->
<g id="Node000007" class="node">
<title>Node7</title>
<g id="a_Node000007"><a xlink:title=" ">
<polygon fill="#e0e0e0" stroke="#999999" points="705.82,-74 641.82,-74 641.82,-55 705.82,-55 705.82,-74"/>
<text text-anchor="middle" x="673.82" y="-62" font-family="Helvetica,sans-Serif" font-size="10.00">sys/stat.h</text>
</a>
</g>
</g>
<!-- Node1&#45;&gt;Node7 -->
<g id="edge43_Node000001_Node000007" class="edge">
<title>Node1&#45;&gt;Node7</title>
<g id="a_edge43_Node000001_Node000007"><a xlink:title=" ">
<path fill="none" stroke="#63b8ff" d="M660.63,-351.86C678.62,-324.96 716.3,-263.92 729.82,-206 734.19,-187.26 731.85,-120.17 726.82,-110 720.67,-97.55 709.26,-87.26 698.6,-79.73"/>
<polygon fill="#63b8ff" stroke="#63b8ff" points="700.24,-76.62 689.95,-74.07 696.4,-82.47 700.24,-76.62"/>
</a>
</g>
</g>
<!-- Node24 -->
<g id="Node000024" class="node">
<title>Node24</title>
<g id="a_Node000024"><a xlink:href="cache__admit_8h.html" target="_top" xlink:title=" ">
<polygon fill="white" stroke="#666666" points="618.82,-316 530.82,-316 530.82,-297 618.82,-297 618.82,-316"/>
<text text-anchor="middle" x="574.82" y="-304" font-family="Helvetica,sans-Serif" font-size="10.00">cache_admit.h</text>
</a>
</g>
</g>
<!-- Node1&#45;&gt;Node24 -->
<g id="edge36_Node000001_Node000024" class="edge">
<title>Node1&#45;&gt;Node24</title>
<g id="a_edge36_Node000001_Node000024"><a xlink:title=" ">
<path fill="none" stroke="#63b8ff" d="M632.42,-351.84C620.94,-343 606.17,-331.63 594.46,-322.62"/>
<polygon fill="#63b8ff" stroke="#63b8ff" points="596.27,-319.59 586.21,-316.27 592,-325.14 596.27,-319.59"/>
</a>
</g>
</g>
<!-- Node25 -->
<g id="Node000025" class="node">
<title>Node25</title>
<g id="a_Node000025"><a xlink:title=" ">
<polygon fill="#e0e0e0" stroke="#999999" points="830.32,-316 777.32,-316 777.32,-297 830.32,-297 830.32,-316"/>
<text text-anchor="middle" x="803.82" y="-304" font-family="Helvetica,sans-Serif" font-size="10.00">string.h</text>
</a>
</g>
</g>
<!-- Node1&#45;&gt;Node25 -->
<g id="edge42_Node000001_Node000025" class="edge">
<title>Node1&#45;&gt;Node25</title>
<g id="a_edge42_Node000001_Node000025"><a xlink:title=" ">
<path fill="none" stroke="#63b8ff" d="M687.47,-351.99C713.11,-342.18 747.04,-329.21 771.63,-319.81"/>
<polygon fill="#63b8ff" stroke="#63b8ff" points="773.13,-322.98 781.22,-316.14 770.63,-316.44 773.13,-322.98"/>
</a>
</g>
</g>
<!-- Node3 -->
<g id="Node000003" class="node">
<title>Node3</title>
<g id="a_Node000003"><a xlink:href="src_2fs_2vfs_2vfs_8h.html" target="_top" xlink:title=" ">
<polygon fill="white" stroke="#666666" points="313.32,-200.5 242.32,-200.5 242.32,-181.5 313.32,-181.5 313.32,-200.5"/>
<text text-anchor="middle" x="277.82" y="-188.5" font-family="Helvetica,sans-Serif" font-size="10.00">fs/vfs/vfs.h</text>
</a>
</g>
</g>
<!-- Node2&#45;&gt;Node3 -->
<g id="edge2_Node000002_Node000003" class="edge">
<title>Node2&#45;&gt;Node3</title>
<g id="a_edge2_Node000002_Node000003"><a xlink:title=" ">
<path fill="none" stroke="#63b8ff" d="M425.72,-296.9C410.06,-288.35 385.79,-274.59 365.82,-261 340.44,-243.73 312.84,-221.47 295.44,-206.97"/>
<polygon fill="#63b8ff" stroke="#63b8ff" points="297.69,-204.29 287.78,-200.54 293.18,-209.65 297.69,-204.29"/>
</a>
</g>
</g>
<!-- Node18 -->
<g id="Node000018" class="node">
<title>Node18</title>
<g id="a_Node000018"><a xlink:href="writethrough__decision_8h.html" target="_top" xlink:title=" ">
<polygon fill="white" stroke="#666666" points="508.82,-261 374.82,-261 374.82,-242 508.82,-242 508.82,-261"/>
<text text-anchor="middle" x="441.82" y="-249" font-family="Helvetica,sans-Serif" font-size="10.00">writethrough_decision.h</text>
</a>
</g>
</g>
<!-- Node2&#45;&gt;Node18 -->
<g id="edge26_Node000002_Node000018" class="edge">
<title>Node2&#45;&gt;Node18</title>
<g id="a_edge26_Node000002_Node000018"><a xlink:title=" ">
<path fill="none" stroke="#63b8ff" d="M441.82,-296.75C441.82,-289.8 441.82,-279.85 441.82,-271.13"/>
<polygon fill="#63b8ff" stroke="#63b8ff" points="445.32,-271.09 441.82,-261.09 438.32,-271.09 445.32,-271.09"/>
</a>
</g>
</g>
<!-- Node4 -->
<g id="Node000004" class="node">
<title>Node4</title>
<g id="a_Node000004"><a xlink:title=" ">
<polygon fill="#e0e0e0" stroke="#999999" points="400.82,-74 322.82,-74 322.82,-55 400.82,-55 400.82,-74"/>
<text text-anchor="middle" x="361.82" y="-62" font-family="Helvetica,sans-Serif" font-size="10.00">ngx_config.h</text>
</a>
</g>
</g>
<!-- Node3&#45;&gt;Node4 -->
<g id="edge3_Node000003_Node000004" class="edge">
<title>Node3&#45;&gt;Node4</title>
<g id="a_edge3_Node000003_Node000004"><a xlink:title=" ">
<path fill="none" stroke="#63b8ff" d="M294.52,-181.4C309.41,-172.87 330.68,-158.43 342.82,-140 353.93,-123.14 358.54,-100.19 360.46,-84.23"/>
<polygon fill="#63b8ff" stroke="#63b8ff" points="363.96,-84.33 361.43,-74.04 357,-83.66 363.96,-84.33"/>
</a>
</g>
</g>
<!-- Node5 -->
<g id="Node000005" class="node">
<title>Node5</title>
<g id="a_Node000005"><a xlink:title=" ">
<polygon fill="#e0e0e0" stroke="#999999" points="545.82,-74 475.82,-74 475.82,-55 545.82,-55 545.82,-74"/>
<text text-anchor="middle" x="510.82" y="-62" font-family="Helvetica,sans-Serif" font-size="10.00">ngx_core.h</text>
</a>
</g>
</g>
<!-- Node3&#45;&gt;Node5 -->
<g id="edge4_Node000003_Node000005" class="edge">
<title>Node3&#45;&gt;Node5</title>
<g id="a_edge4_Node000003_Node000005"><a xlink:title=" ">
<path fill="none" stroke="#63b8ff" d="M307.09,-181.49C313.87,-179.6 321.08,-177.67 327.82,-176 401.09,-157.81 440.15,-193.09 493.82,-140 508.38,-125.6 511.56,-101.47 511.79,-84.59"/>
<polygon fill="#63b8ff" stroke="#63b8ff" points="515.29,-84.2 511.58,-74.27 508.29,-84.34 515.29,-84.2"/>
</a>
</g>
</g>
<!-- Node6 -->
<g id="Node000006" class="node">
<title>Node6</title>
<g id="a_Node000006"><a xlink:href="fs_2path_2unified_8h.html" target="_top" xlink:title=" ">
<polygon fill="white" stroke="#666666" points="485.32,-134.5 390.32,-134.5 390.32,-115.5 485.32,-115.5 485.32,-134.5"/>
<text text-anchor="middle" x="437.82" y="-122.5" font-family="Helvetica,sans-Serif" font-size="10.00">fs/path/unified.h</text>
</a>
</g>
</g>
<!-- Node3&#45;&gt;Node6 -->
<g id="edge5_Node000003_Node000006" class="edge">
<title>Node3&#45;&gt;Node6</title>
<g id="a_edge5_Node000003_Node000006"><a xlink:title=" ">
<path fill="none" stroke="#63b8ff" d="M299.4,-181.37C327.03,-170.32 375.11,-151.08 406.7,-138.45"/>
<polygon fill="#63b8ff" stroke="#63b8ff" points="408.34,-141.56 416.33,-134.6 405.74,-135.06 408.34,-141.56"/>
</a>
</g>
</g>
<!-- Node8 -->
<g id="Node000008" class="node">
<title>Node8</title>
<g id="a_Node000008"><a xlink:href="identity_8h.html" target="_top" xlink:title=" ">
<polygon fill="white" stroke="#666666" points="195.82,-134.5 79.82,-134.5 79.82,-115.5 195.82,-115.5 195.82,-134.5"/>
<text text-anchor="middle" x="137.82" y="-122.5" font-family="Helvetica,sans-Serif" font-size="10.00">core/types/identity.h</text>
</a>
</g>
</g>
<!-- Node3&#45;&gt;Node8 -->
<g id="edge9_Node000003_Node000008" class="edge">
<title>Node3&#45;&gt;Node8</title>
<g id="a_edge9_Node000003_Node000008"><a xlink:title=" ">
<path fill="none" stroke="#63b8ff" d="M258.94,-181.37C235.04,-170.44 193.65,-151.52 166,-138.88"/>
<polygon fill="#63b8ff" stroke="#63b8ff" points="167.4,-135.67 156.85,-134.7 164.49,-142.04 167.4,-135.67"/>
</a>
</g>
</g>
<!-- Node12 -->
<g id="Node000012" class="node">
<title>Node12</title>
<g id="a_Node000012"><a xlink:href="observability_2metrics_2unified_8h.html" target="_top" xlink:title=" ">
<polygon fill="white" stroke="#666666" points="333.82,-140 213.82,-140 213.82,-110 333.82,-110 333.82,-140"/>
<text text-anchor="start" x="221.82" y="-128" font-family="Helvetica,sans-Serif" font-size="10.00">observability/metrics</text>
<text text-anchor="middle" x="273.82" y="-117" font-family="Helvetica,sans-Serif" font-size="10.00">/unified.h</text>
</a>
</g>
</g>
<!-- Node3&#45;&gt;Node12 -->
<g id="edge15_Node000003_Node000012" class="edge">
<title>Node3&#45;&gt;Node12</title>
<g id="a_edge15_Node000003_Node000012"><a xlink:title=" ">
<path fill="none" stroke="#63b8ff" d="M277.28,-181.37C276.79,-173.49 276.03,-161.45 275.36,-150.6"/>
<polygon fill="#63b8ff" stroke="#63b8ff" points="278.83,-150.12 274.72,-140.36 271.85,-150.56 278.83,-150.12"/>
</a>
</g>
</g>
<!-- Node14 -->
<g id="Node000014" class="node">
<title>Node14</title>
<g id="a_Node000014"><a xlink:href="sd_8h.html" target="_top" xlink:title=" ">
<polygon fill="white" stroke="#666666" points="717.82,-134.5 625.82,-134.5 625.82,-115.5 717.82,-115.5 717.82,-134.5"/>
<text text-anchor="middle" x="671.82" y="-122.5" font-family="Helvetica,sans-Serif" font-size="10.00">fs/backend/sd.h</text>
</a>
</g>
</g>
<!-- Node3&#45;&gt;Node14 -->
<g id="edge19_Node000003_Node000014" class="edge">
<title>Node3&#45;&gt;Node14</title>
<g id="a_edge19_Node000003_Node000014"><a xlink:title=" ">
<path fill="none" stroke="#63b8ff" d="M313.35,-183.94C328.04,-181.46 345.25,-178.57 360.82,-176 449.88,-161.33 553.39,-144.79 615.68,-134.89"/>
<polygon fill="#63b8ff" stroke="#63b8ff" points="616.37,-138.33 625.7,-133.3 615.27,-131.41 616.37,-138.33"/>
</a>
</g>
</g>
<!-- Node6&#45;&gt;Node4 -->
<g id="edge6_Node000006_Node000004" class="edge">
<title>Node6&#45;&gt;Node4</title>
<g id="a_edge6_Node000006_Node000004"><a xlink:title=" ">
<path fill="none" stroke="#63b8ff" d="M426.6,-115.37C414.71,-106.21 395.68,-91.56 381.31,-80.51"/>
<polygon fill="#63b8ff" stroke="#63b8ff" points="383.14,-77.49 373.08,-74.17 378.87,-83.04 383.14,-77.49"/>
</a>
</g>
</g>
<!-- Node6&#45;&gt;Node5 -->
<g id="edge7_Node000006_Node000005" class="edge">
<title>Node6&#45;&gt;Node5</title>
<g id="a_edge7_Node000006_Node000005"><a xlink:title=" ">
<path fill="none" stroke="#63b8ff" d="M448.59,-115.37C460.02,-106.21 478.3,-91.56 492.09,-80.51"/>
<polygon fill="#63b8ff" stroke="#63b8ff" points="494.39,-83.15 500,-74.17 490.01,-77.69 494.39,-83.15"/>
</a>
</g>
</g>
<!-- Node6&#45;&gt;Node7 -->
<g id="edge8_Node000006_Node000007" class="edge">
<title>Node6&#45;&gt;Node7</title>
<g id="a_edge8_Node000006_Node000007"><a xlink:title=" ">
<path fill="none" stroke="#63b8ff" d="M472.14,-115.49C514.45,-105.01 586.33,-87.19 631.88,-75.9"/>
<polygon fill="#63b8ff" stroke="#63b8ff" points="632.87,-79.26 641.73,-73.45 631.19,-72.46 632.87,-79.26"/>
</a>
</g>
</g>
<!-- Node8&#45;&gt;Node4 -->
<g id="edge10_Node000008_Node000004" class="edge">
<title>Node8&#45;&gt;Node4</title>
<g id="a_edge10_Node000008_Node000004"><a xlink:title=" ">
<path fill="none" stroke="#63b8ff" d="M170.39,-115.49C209.79,-105.2 276.21,-87.86 319.53,-76.54"/>
<polygon fill="#63b8ff" stroke="#63b8ff" points="320.42,-79.93 329.21,-74.02 318.65,-73.16 320.42,-79.93"/>
</a>
</g>
</g>
<!-- Node8&#45;&gt;Node5 -->
<g id="edge11_Node000008_Node000005" class="edge">
<title>Node8&#45;&gt;Node5</title>
<g id="a_edge11_Node000008_Node000005"><a xlink:title=" ">
<path fill="none" stroke="#63b8ff" d="M176.71,-115.45C185.91,-113.55 195.69,-111.62 204.82,-110 296.83,-93.71 405.17,-79 465.11,-71.25"/>
<polygon fill="#63b8ff" stroke="#63b8ff" points="465.89,-74.68 475.37,-69.93 465,-67.74 465.89,-74.68"/>
</a>
</g>
</g>
<!-- Node9 -->
<g id="Node000009" class="node">
<title>Node9</title>
<g id="a_Node000009"><a xlink:href="token_8h.html" target="_top" xlink:title=" ">
<polygon fill="white" stroke="#666666" points="161.32,-74 54.32,-74 54.32,-55 161.32,-55 161.32,-74"/>
<text text-anchor="middle" x="107.82" y="-62" font-family="Helvetica,sans-Serif" font-size="10.00">auth/token/token.h</text>
</a>
</g>
</g>
<!-- Node8&#45;&gt;Node9 -->
<g id="edge12_Node000008_Node000009" class="edge">
<title>Node8&#45;&gt;Node9</title>
<g id="a_edge12_Node000008_Node000009"><a xlink:title=" ">
<path fill="none" stroke="#63b8ff" d="M133.39,-115.37C129.05,-106.9 122.3,-93.74 116.83,-83.07"/>
<polygon fill="#63b8ff" stroke="#63b8ff" points="119.94,-81.47 112.26,-74.17 113.71,-84.66 119.94,-81.47"/>
</a>
</g>
</g>
<!-- Node10 -->
<g id="Node000010" class="node">
<title>Node10</title>
<g id="a_Node000010"><a xlink:title=" ">
<polygon fill="#e0e0e0" stroke="#999999" points="106.82,-19 22.82,-19 22.82,0 106.82,0 106.82,-19"/>
<text text-anchor="middle" x="64.82" y="-7" font-family="Helvetica,sans-Serif" font-size="10.00">openssl/evp.h</text>
</a>
</g>
</g>
<!-- Node9&#45;&gt;Node10 -->
<g id="edge13_Node000009_Node000010" class="edge">
<title>Node9&#45;&gt;Node10</title>
<g id="a_edge13_Node000009_Node000010"><a xlink:title=" ">
<path fill="none" stroke="#63b8ff" d="M100.72,-54.75C94.64,-47.26 85.73,-36.28 78.31,-27.13"/>
<polygon fill="#63b8ff" stroke="#63b8ff" points="80.81,-24.65 71.79,-19.09 75.37,-29.06 80.81,-24.65"/>
</a>
</g>
</g>
<!-- Node11 -->
<g id="Node000011" class="node">
<title>Node11</title>
<g id="a_Node000011"><a xlink:title=" ">
<polygon fill="#e0e0e0" stroke="#999999" points="177.32,-19 124.32,-19 124.32,0 177.32,0 177.32,-19"/>
<text text-anchor="middle" x="150.82" y="-7" font-family="Helvetica,sans-Serif" font-size="10.00">limits.h</text>
</a>
</g>
</g>
<!-- Node9&#45;&gt;Node11 -->
<g id="edge14_Node000009_Node000011" class="edge">
<title>Node9&#45;&gt;Node11</title>
<g id="a_edge14_Node000009_Node000011"><a xlink:title=" ">
<path fill="none" stroke="#63b8ff" d="M114.92,-54.75C120.99,-47.26 129.9,-36.28 137.33,-27.13"/>
<polygon fill="#63b8ff" stroke="#63b8ff" points="140.27,-29.06 143.85,-19.09 134.83,-24.65 140.27,-29.06"/>
</a>
</g>
</g>
<!-- Node12&#45;&gt;Node4 -->
<g id="edge16_Node000012_Node000004" class="edge">
<title>Node12&#45;&gt;Node4</title>
<g id="a_edge16_Node000012_Node000004"><a xlink:title=" ">
<path fill="none" stroke="#63b8ff" d="M295.12,-109.84C308.89,-100.68 326.75,-88.82 340.52,-79.66"/>
<polygon fill="#63b8ff" stroke="#63b8ff" points="342.5,-82.55 348.89,-74.09 338.62,-76.72 342.5,-82.55"/>
</a>
</g>
</g>
<!-- Node12&#45;&gt;Node5 -->
<g id="edge17_Node000012_Node000005" class="edge">
<title>Node12&#45;&gt;Node5</title>
<g id="a_edge17_Node000012_Node000005"><a xlink:title=" ">
<path fill="none" stroke="#63b8ff" d="M330.59,-109.99C372.2,-99.72 427.89,-85.97 466.31,-76.49"/>
<polygon fill="#63b8ff" stroke="#63b8ff" points="467.3,-79.85 476.17,-74.05 465.62,-73.05 467.3,-79.85"/>
</a>
</g>
</g>
<!-- Node13 -->
<g id="Node000013" class="node">
<title>Node13</title>
<g id="a_Node000013"><a xlink:href="proto__list_8h.html" target="_top" xlink:title=" ">
<polygon fill="white" stroke="#666666" points="304.32,-74 179.32,-74 179.32,-55 304.32,-55 304.32,-74"/>
<text text-anchor="middle" x="241.82" y="-62" font-family="Helvetica,sans-Serif" font-size="10.00">core/types/proto_list.h</text>
</a>
</g>
</g>
<!-- Node12&#45;&gt;Node13 -->
<g id="edge18_Node000012_Node000013" class="edge">
<title>Node12&#45;&gt;Node13</title>
<g id="a_edge18_Node000012_Node000013"><a xlink:title=" ">
<path fill="none" stroke="#63b8ff" d="M266.07,-109.84C261.66,-101.78 256.11,-91.62 251.42,-83.06"/>
<polygon fill="#63b8ff" stroke="#63b8ff" points="254.48,-81.36 246.61,-74.27 248.34,-84.72 254.48,-81.36"/>
</a>
</g>
</g>
<!-- Node14&#45;&gt;Node4 -->
<g id="edge20_Node000014_Node000004" class="edge">
<title>Node14&#45;&gt;Node4</title>
<g id="a_edge20_Node000014_Node000004"><a xlink:title=" ">
<path fill="none" stroke="#63b8ff" d="M626.74,-115.49C569.28,-104.65 470.28,-85.97 410.94,-74.77"/>
<polygon fill="#63b8ff" stroke="#63b8ff" points="411.53,-71.32 401.06,-72.9 410.24,-78.2 411.53,-71.32"/>
</a>
</g>
</g>
<!-- Node14&#45;&gt;Node5 -->
<g id="edge21_Node000014_Node000005" class="edge">
<title>Node14&#45;&gt;Node5</title>
<g id="a_edge21_Node000014_Node000005"><a xlink:title=" ">
<path fill="none" stroke="#63b8ff" d="M648.41,-115.49C620.86,-105.49 574.95,-88.8 543.81,-77.49"/>
<polygon fill="#63b8ff" stroke="#63b8ff" points="544.85,-74.14 534.26,-74.02 542.46,-80.72 544.85,-74.14"/>
</a>
</g>
</g>
<!-- Node14&#45;&gt;Node7 -->
<g id="edge23_Node000014_Node000007" class="edge">
<title>Node14&#45;&gt;Node7</title>
<g id="a_edge23_Node000014_Node000007"><a xlink:title=" ">
<path fill="none" stroke="#63b8ff" d="M672.11,-115.37C672.39,-107.25 672.82,-94.81 673.17,-84.39"/>
<polygon fill="#63b8ff" stroke="#63b8ff" points="676.68,-84.28 673.52,-74.17 669.68,-84.04 676.68,-84.28"/>
</a>
</g>
</g>
<!-- Node15 -->
<g id="Node000015" class="node">
<title>Node15</title>
<g id="a_Node000015"><a xlink:title=" ">
<polygon fill="#e0e0e0" stroke="#999999" points="777.32,-74 724.32,-74 724.32,-55 777.32,-55 777.32,-74"/>
<text text-anchor="middle" x="750.82" y="-62" font-family="Helvetica,sans-Serif" font-size="10.00">stdint.h</text>
</a>
</g>
</g>
<!-- Node14&#45;&gt;Node15 -->
<g id="edge22_Node000014_Node000015" class="edge">
<title>Node14&#45;&gt;Node15</title>
<g id="a_edge22_Node000014_Node000015"><a xlink:title=" ">
<path fill="none" stroke="#63b8ff" d="M683.48,-115.37C695.96,-106.12 716,-91.28 730.98,-80.19"/>
<polygon fill="#63b8ff" stroke="#63b8ff" points="733.16,-82.93 739.11,-74.17 729,-77.31 733.16,-82.93"/>
</a>
</g>
</g>
<!-- Node16 -->
<g id="Node000016" class="node">
<title>Node16</title>
<g id="a_Node000016"><a xlink:title=" ">
<polygon fill="#e0e0e0" stroke="#999999" points="867.82,-74 795.82,-74 795.82,-55 867.82,-55 867.82,-74"/>
<text text-anchor="middle" x="831.82" y="-62" font-family="Helvetica,sans-Serif" font-size="10.00">sys/types.h</text>
</a>
</g>
</g>
<!-- Node14&#45;&gt;Node16 -->
<g id="edge24_Node000014_Node000016" class="edge">
<title>Node14&#45;&gt;Node16</title>
<g id="a_edge24_Node000014_Node000016"><a xlink:title=" ">
<path fill="none" stroke="#63b8ff" d="M695.08,-115.49C722.46,-105.49 768.09,-88.8 799.03,-77.49"/>
<polygon fill="#63b8ff" stroke="#63b8ff" points="800.34,-80.74 808.53,-74.02 797.93,-74.16 800.34,-80.74"/>
</a>
</g>
</g>
<!-- Node17 -->
<g id="Node000017" class="node">
<title>Node17</title>
<g id="a_Node000017"><a xlink:title=" ">
<polygon fill="#e0e0e0" stroke="#999999" points="623.82,-74 563.82,-74 563.82,-55 623.82,-55 623.82,-74"/>
<text text-anchor="middle" x="593.82" y="-62" font-family="Helvetica,sans-Serif" font-size="10.00">sys/uio.h</text>
</a>
</g>
</g>
<!-- Node14&#45;&gt;Node17 -->
<g id="edge25_Node000014_Node000017" class="edge">
<title>Node14&#45;&gt;Node17</title>
<g id="a_edge25_Node000014_Node000017"><a xlink:title=" ">
<path fill="none" stroke="#63b8ff" d="M660.31,-115.37C647.98,-106.12 628.2,-91.28 613.41,-80.19"/>
<polygon fill="#63b8ff" stroke="#63b8ff" points="615.48,-77.37 605.38,-74.17 611.28,-82.97 615.48,-77.37"/>
</a>
</g>
</g>
<!-- Node18&#45;&gt;Node4 -->
<g id="edge27_Node000018_Node000004" class="edge">
<title>Node18&#45;&gt;Node4</title>
<g id="a_edge27_Node000018_Node000004"><a xlink:title=" ">
<path fill="none" stroke="#63b8ff" d="M382.37,-241.99C286.71,-226.88 105.79,-192.01 70.82,-140 -19.73,-5.34 -89.77,-138.85 312.82,-74 312.92,-73.98 313.02,-73.97 313.12,-73.95"/>
<polygon fill="#63b8ff" stroke="#63b8ff" points="313.49,-77.44 322.78,-72.36 312.35,-70.53 313.49,-77.44"/>
</a>
</g>
</g>
<!-- Node18&#45;&gt;Node5 -->
<g id="edge28_Node000018_Node000005" class="edge">
<title>Node18&#45;&gt;Node5</title>
<g id="a_edge28_Node000018_Node000005"><a xlink:title=" ">
<path fill="none" stroke="#63b8ff" d="M410.4,-241.97C392.48,-235.32 371.52,-224.09 360.82,-206 354.03,-194.52 352.53,-186.44 360.82,-176 404.81,-120.62 471.83,-195.38 515.82,-140 528.25,-124.35 523.89,-100.52 518.46,-84.04"/>
<polygon fill="#63b8ff" stroke="#63b8ff" points="521.66,-82.6 514.9,-74.44 515.09,-85.03 521.66,-82.6"/>
</a>
</g>
</g>
<!-- Node19 -->
<g id="Node000019" class="node">
<title>Node19</title>
<g id="a_Node000019"><a xlink:title=" ">
<polygon fill="#e0e0e0" stroke="#999999" points="568.32,-200.5 515.32,-200.5 515.32,-181.5 568.32,-181.5 568.32,-200.5"/>
<text text-anchor="middle" x="541.82" y="-188.5" font-family="Helvetica,sans-Serif" font-size="10.00">regex.h</text>
</a>
</g>
</g>
<!-- Node18&#45;&gt;Node19 -->
<g id="edge29_Node000018_Node000019" class="edge">
<title>Node18&#45;&gt;Node19</title>
<g id="a_edge29_Node000018_Node000019"><a xlink:title=" ">
<path fill="none" stroke="#63b8ff" d="M456.57,-241.87C472.82,-232.36 499.17,-216.95 518.28,-205.77"/>
<polygon fill="#63b8ff" stroke="#63b8ff" points="520.14,-208.74 527,-200.67 516.6,-202.7 520.14,-208.74"/>
</a>
</g>
</g>
<!-- Node20 -->
<g id="Node000020" class="node">
<title>Node20</title>
<g id="a_Node000020"><a xlink:href="core_2types_2file_8h.html" target="_top" xlink:title=" ">
<polygon fill="white" stroke="#666666" points="720.32,-200.5 625.32,-200.5 625.32,-181.5 720.32,-181.5 720.32,-200.5"/>
<text text-anchor="middle" x="672.82" y="-188.5" font-family="Helvetica,sans-Serif" font-size="10.00">core/types/file.h</text>
</a>
</g>
</g>
<!-- Node18&#45;&gt;Node20 -->
<g id="edge30_Node000018_Node000020" class="edge">
<title>Node18&#45;&gt;Node20</title>
<g id="a_edge30_Node000018_Node000020"><a xlink:title=" ">
<path fill="none" stroke="#63b8ff" d="M475.41,-241.99C516.12,-231.68 584.82,-214.28 629.49,-202.97"/>
<polygon fill="#63b8ff" stroke="#63b8ff" points="630.35,-206.36 639.19,-200.52 628.64,-199.58 630.35,-206.36"/>
</a>
</g>
</g>
<!-- Node23 -->
<g id="Node000023" class="node">
<title>Node23</title>
<g id="a_Node000023"><a xlink:href="flags_8h.html" target="_top" xlink:title=" ">
<polygon fill="white" stroke="#666666" points="497.32,-206 370.32,-206 370.32,-176 497.32,-176 497.32,-206"/>
<text text-anchor="start" x="378.32" y="-194" font-family="Helvetica,sans-Serif" font-size="10.00">protocols/root/protocol</text>
<text text-anchor="middle" x="433.82" y="-183" font-family="Helvetica,sans-Serif" font-size="10.00">/flags.h</text>
</a>
</g>
</g>
<!-- Node18&#45;&gt;Node23 -->
<g id="edge35_Node000018_Node000023" class="edge">
<title>Node18&#45;&gt;Node23</title>
<g id="a_edge35_Node000018_Node000023"><a xlink:title=" ">
<path fill="none" stroke="#63b8ff" d="M440.64,-241.87C439.71,-235.11 438.38,-225.35 437.14,-216.26"/>
<polygon fill="#63b8ff" stroke="#63b8ff" points="440.57,-215.55 435.75,-206.11 433.64,-216.5 440.57,-215.55"/>
</a>
</g>
</g>
<!-- Node20&#45;&gt;Node14 -->
<g id="edge31_Node000020_Node000014" class="edge">
<title>Node20&#45;&gt;Node14</title>
<g id="a_edge31_Node000020_Node000014"><a xlink:title=" ">
<path fill="none" stroke="#63b8ff" d="M672.68,-181.37C672.54,-172.16 672.31,-157.29 672.12,-145.27"/>
<polygon fill="#63b8ff" stroke="#63b8ff" points="675.61,-144.85 671.96,-134.91 668.61,-144.96 675.61,-144.85"/>
</a>
</g>
</g>
<!-- Node21 -->
<g id="Node000021" class="node">
<title>Node21</title>
<g id="a_Node000021"><a xlink:href="sesslog_8h.html" target="_top" xlink:title=" ">
<polygon fill="white" stroke="#666666" points="894.82,-140 774.82,-140 774.82,-110 894.82,-110 894.82,-140"/>
<text text-anchor="start" x="782.82" y="-128" font-family="Helvetica,sans-Serif" font-size="10.00">observability/sesslog</text>
<text text-anchor="middle" x="834.82" y="-117" font-family="Helvetica,sans-Serif" font-size="10.00">/sesslog.h</text>
</a>
</g>
</g>
<!-- Node20&#45;&gt;Node21 -->
<g id="edge32_Node000020_Node000021" class="edge">
<title>Node20&#45;&gt;Node21</title>
<g id="a_edge32_Node000020_Node000021"><a xlink:title=" ">
<path fill="none" stroke="#63b8ff" d="M694.67,-181.37C718.93,-171.78 758.76,-156.05 789.77,-143.8"/>
<polygon fill="#63b8ff" stroke="#63b8ff" points="791.07,-147.05 799.09,-140.12 788.5,-140.53 791.07,-147.05"/>
</a>
</g>
</g>
<!-- Node21&#45;&gt;Node15 -->
<g id="edge34_Node000021_Node000015" class="edge">
<title>Node21&#45;&gt;Node15</title>
<g id="a_edge34_Node000021_Node000015"><a xlink:title=" ">
<path fill="none" stroke="#63b8ff" d="M814.48,-109.84C801.55,-100.83 784.83,-89.18 771.77,-80.09"/>
<polygon fill="#63b8ff" stroke="#63b8ff" points="773.61,-77.11 763.41,-74.27 769.61,-82.85 773.61,-77.11"/>
</a>
</g>
</g>
<!-- Node22 -->
<g id="Node000022" class="node">
<title>Node22</title>
<g id="a_Node000022"><a xlink:title=" ">
<polygon fill="#e0e0e0" stroke="#999999" points="941.82,-74 885.82,-74 885.82,-55 941.82,-55 941.82,-74"/>
<text text-anchor="middle" x="913.82" y="-62" font-family="Helvetica,sans-Serif" font-size="10.00">stddef.h</text>
</a>
</g>
</g>
<!-- Node21&#45;&gt;Node22 -->
<g id="edge33_Node000021_Node000022" class="edge">
<title>Node21&#45;&gt;Node22</title>
<g id="a_edge33_Node000021_Node000022"><a xlink:title=" ">
<path fill="none" stroke="#63b8ff" d="M853.94,-109.84C866,-100.91 881.53,-89.41 893.76,-80.35"/>
<polygon fill="#63b8ff" stroke="#63b8ff" points="896.03,-83.03 901.98,-74.27 891.86,-77.4 896.03,-83.03"/>
</a>
</g>
</g>
<!-- Node24&#45;&gt;Node4 -->
<g id="edge37_Node000024_Node000004" class="edge">
<title>Node24&#45;&gt;Node4</title>
<g id="a_edge37_Node000024_Node000004"><a xlink:title=" ">
<path fill="none" stroke="#63b8ff" d="M530.7,-298.04C417.81,-277.94 123.66,-218.78 70.82,-140 -19.52,-5.31 -88.06,-138.58 312.82,-74 312.92,-73.98 313.02,-73.97 313.12,-73.95"/>
<polygon fill="#63b8ff" stroke="#63b8ff" points="313.49,-77.44 322.78,-72.36 312.35,-70.53 313.49,-77.44"/>
</a>
</g>
</g>
<!-- Node24&#45;&gt;Node5 -->
<g id="edge38_Node000024_Node000005" class="edge">
<title>Node24&#45;&gt;Node5</title>
<g id="a_edge38_Node000024_Node000005"><a xlink:title=" ">
<path fill="none" stroke="#63b8ff" d="M576.6,-296.8C580.59,-275.65 588.96,-220 576.82,-176 566.72,-139.41 540.97,-102.73 524.78,-82.18"/>
<polygon fill="#63b8ff" stroke="#63b8ff" points="527.31,-79.75 518.3,-74.18 521.87,-84.15 527.31,-79.75"/>
</a>
</g>
</g>
<!-- Node24&#45;&gt;Node16 -->
<g id="edge40_Node000024_Node000016" class="edge">
<title>Node24&#45;&gt;Node16</title>
<g id="a_edge40_Node000024_Node000016"><a xlink:title=" ">
<path fill="none" stroke="#63b8ff" d="M619.07,-298.27C693.27,-283.51 840.83,-242.19 903.82,-140 910.81,-128.65 910.31,-121.65 903.82,-110 895.78,-95.58 880.92,-85.24 866.78,-78.18"/>
<polygon fill="#63b8ff" stroke="#63b8ff" points="868.22,-74.99 857.67,-74.01 865.31,-81.36 868.22,-74.99"/>
</a>
</g>
</g>
<!-- Node24&#45;&gt;Node18 -->
<g id="edge41_Node000024_Node000018" class="edge">
<title>Node24&#45;&gt;Node18</title>
<g id="a_edge41_Node000024_Node000018"><a xlink:title=" ">
<path fill="none" stroke="#63b8ff" d="M553.45,-296.98C531.67,-288.3 497.66,-274.75 472.9,-264.88"/>
<polygon fill="#63b8ff" stroke="#63b8ff" points="474.16,-261.62 463.58,-261.17 471.57,-268.12 474.16,-261.62"/>
</a>
</g>
</g>
<!-- Node24&#45;&gt;Node19 -->
<g id="edge39_Node000024_Node000019" class="edge">
<title>Node24&#45;&gt;Node19</title>
<g id="a_edge39_Node000024_Node000019"><a xlink:title=" ">
<path fill="none" stroke="#63b8ff" d="M572.34,-296.97C567.01,-278.65 554.37,-235.18 547.14,-210.31"/>
<polygon fill="#63b8ff" stroke="#63b8ff" points="550.48,-209.26 544.33,-200.63 543.76,-211.21 550.48,-209.26"/>
</a>
</g>
</g>
</g>
</svg>
