<?xml version="1.0" encoding="UTF-8" standalone="no"?>
<!DOCTYPE svg PUBLIC "-//W3C//DTD SVG 1.1//EN"
 "http://www.w3.org/Graphics/SVG/1.1/DTD/svg11.dtd">
<!-- Generated by graphviz version 2.43.0 (0)
 -->
<!-- Title: src/fs/cache/writethrough_decision.c Pages: 1 -->
<!--zoomable 390 -->

<svg id="main" version="1.1" xmlns="http://www.w3.org/2000/svg" xmlns:xlink="http://www.w3.org/1999/xlink" xml:space="preserve" onload="init(evt)">
<style type="text/css"><![CDATA[
.node, .edge {opacity: 0.7;}
.node.selected, .edge.selected {opacity: 1;}
.edge:hover path { stroke: red; }
.edge:hover polygon { stroke: red; fill: red; }
]]></style>

<defs>
  <circle id="rim" cx="0" cy="0" r="7"/>
  <circle id="rim2" cx="0" cy="0" r="3.5"/>
  <g id="zoomPlus">
    <use xlink:href="#rim" fill="#404040"><set attributeName="fill" to="#808080" begin="zoomplus.mouseover" end="zoomplus.mouseout"/></use>
    <path d="M-4,0h8M0,-4v8" fill="none" stroke="white" stroke-width="1.5" pointer-events="none"/>
  </g>
  <g id="zoomMin">
    <use xlink:href="#rim" fill="#404040"><set attributeName="fill" to="#808080" begin="zoomminus.mouseover" end="zoomminus.mouseout"/></use>
    <path d="M-4,0h8" fill="none" stroke="white" stroke-width="1.5" pointer-events="none"/>
  </g>
  <g id="arrowUp" transform="translate(30 24)">
    <use xlink:href="#rim"/>
    <path pointer-events="none" fill="none" stroke="white" stroke-width="1.5" d="M0,-3.0v7 M-2.5,-0.5L0,-3.0L2.5,-0.5"/>
  </g>
  <g id="arrowRight" transform="rotate(90) translate(36 -43)">
    <use xlink:href="#rim"/>
    <path pointer-events="none" fill="none" stroke="white" stroke-width="1.5" d="M0,-3.0v7 M-2.5,-0.5L0,-3.0L2.5,-0.5"/>
  </g>
  <g id="arrowDown" transform="rotate(180) translate(-30 -48)">
    <use xlink:href="#rim"/>
    <path pointer-events="none" fill="none" stroke="white" stroke-width="1.5" d="M0,-3.0v7 M-2.5,-0.5L0,-3.0L2.5,-0.5"/>
  </g>
  <g id="arrowLeft" transform="rotate(270) translate(-36 17)">
    <use xlink:href="#rim"/>
    <path pointer-events="none" fill="none" stroke="white" stroke-width="1.5" d="M0,-3.0v7 M-2.5,-0.5L0,-3.0L2.5,-0.5"/>
  </g>
  <g id="resetDef">
    <use xlink:href="#rim2" fill="#404040"><set attributeName="fill" to="#808080" begin="reset.mouseover" end="reset.mouseout"/></use>
  </g>
</defs>
<script type="application/ecmascript">
var viewWidth = 1026;
var viewHeight = 390;
var sectionId = 'dynsection-0';
</script>
<script type="application/ecmascript" xlink:href="svg.min.js"/>
<svg id="graph" class="graph">
<g id="viewport">
<title>src/fs/cache/writethrough_decision.c</title>
<!-- Node1 -->
<g id="Node000001" class="node">
<title>Node1</title>
<g id="a_Node000001"><a xlink:title=" ">
<polygon fill="#999999" stroke="#666666" points="796.27,-382 656.27,-382 656.27,-352 796.27,-352 796.27,-382"/>
<text text-anchor="start" x="664.27" y="-370" font-family="Helvetica,sans-Serif" font-size="10.00">src/fs/cache/writethrough</text>
<text text-anchor="middle" x="726.27" y="-359" font-family="Helvetica,sans-Serif" font-size="10.00">_decision.c</text>
</a>
</g>
</g>
<!-- Node2 -->
<g id="Node000002" class="node">
<title>Node2</title>
<g id="a_Node000002"><a xlink:href="writethrough_8h.html" target="_top" xlink:title=" ">
<polygon fill="white" stroke="#666666" points="558.27,-316 470.27,-316 470.27,-297 558.27,-297 558.27,-316"/>
<text text-anchor="middle" x="514.27" y="-304" font-family="Helvetica,sans-Serif" font-size="10.00">writethrough.h</text>
</a>
</g>
</g>
<!-- Node1&#45;&gt;Node2 -->
<g id="edge1_Node000001_Node000002" class="edge">
<title>Node1&#45;&gt;Node2</title>
<g id="a_edge1_Node000001_Node000002"><a xlink:title=" ">
<path fill="none" stroke="#63b8ff" d="M675.49,-351.99C638.59,-341.8 589.29,-328.2 554.97,-318.73"/>
<polygon fill="#63b8ff" stroke="#63b8ff" points="555.84,-315.34 545.27,-316.05 553.98,-322.09 555.84,-315.34"/>
</a>
</g>
</g>
<!-- Node7 -->
<g id="Node000007" class="node">
<title>Node7</title>
<g id="a_Node000007"><a xlink:title=" ">
<polygon fill="#e0e0e0" stroke="#999999" points="779.27,-74 715.27,-74 715.27,-55 779.27,-55 779.27,-74"/>
<text text-anchor="middle" x="747.27" y="-62" font-family="Helvetica,sans-Serif" font-size="10.00">sys/stat.h</text>
</a>
</g>
</g>
<!-- Node1&#45;&gt;Node7 -->
<g id="edge45_Node000001_Node000007" class="edge">
<title>Node1&#45;&gt;Node7</title>
<g id="a_edge45_Node000001_Node000007"><a xlink:title=" ">
<path fill="none" stroke="#63b8ff" d="M737.24,-351.59C756.93,-324.73 797.57,-264.41 812.27,-206 824.23,-158.47 786.16,-107.35 763.27,-81.88"/>
<polygon fill="#63b8ff" stroke="#63b8ff" points="765.56,-79.2 756.19,-74.27 760.44,-83.97 765.56,-79.2"/>
</a>
</g>
</g>
<!-- Node26 -->
<g id="Node000026" class="node">
<title>Node26</title>
<g id="a_Node000026"><a xlink:href="cache__admit_8h.html" target="_top" xlink:title=" ">
<polygon fill="white" stroke="#666666" points="734.27,-316 646.27,-316 646.27,-297 734.27,-297 734.27,-316"/>
<text text-anchor="middle" x="690.27" y="-304" font-family="Helvetica,sans-Serif" font-size="10.00">cache_admit.h</text>
</a>
</g>
</g>
<!-- Node1&#45;&gt;Node26 -->
<g id="edge38_Node000001_Node000026" class="edge">
<title>Node1&#45;&gt;Node26</title>
<g id="a_edge38_Node000001_Node000026"><a xlink:title=" ">
<path fill="none" stroke="#63b8ff" d="M717.55,-351.84C712.6,-343.78 706.34,-333.62 701.07,-325.06"/>
<polygon fill="#63b8ff" stroke="#63b8ff" points="703.89,-322.95 695.66,-316.27 697.92,-326.62 703.89,-322.95"/>
</a>
</g>
</g>
<!-- Node27 -->
<g id="Node000027" class="node">
<title>Node27</title>
<g id="a_Node000027"><a xlink:title=" ">
<polygon fill="#e0e0e0" stroke="#999999" points="913.77,-316 860.77,-316 860.77,-297 913.77,-297 913.77,-316"/>
<text text-anchor="middle" x="887.27" y="-304" font-family="Helvetica,sans-Serif" font-size="10.00">string.h</text>
</a>
</g>
</g>
<!-- Node1&#45;&gt;Node27 -->
<g id="edge44_Node000001_Node000027" class="edge">
<title>Node1&#45;&gt;Node27</title>
<g id="a_edge44_Node000001_Node000027"><a xlink:title=" ">
<path fill="none" stroke="#63b8ff" d="M764.83,-351.99C792.05,-342.1 828.15,-328.98 854.09,-319.56"/>
<polygon fill="#63b8ff" stroke="#63b8ff" points="855.29,-322.84 863.49,-316.14 852.9,-316.26 855.29,-322.84"/>
</a>
</g>
</g>
<!-- Node3 -->
<g id="Node000003" class="node">
<title>Node3</title>
<g id="a_Node000003"><a xlink:href="src_2fs_2vfs_2vfs_8h.html" target="_top" xlink:title=" ">
<polygon fill="white" stroke="#666666" points="382.77,-200.5 311.77,-200.5 311.77,-181.5 382.77,-181.5 382.77,-200.5"/>
<text text-anchor="middle" x="347.27" y="-188.5" font-family="Helvetica,sans-Serif" font-size="10.00">fs/vfs/vfs.h</text>
</a>
</g>
</g>
<!-- Node2&#45;&gt;Node3 -->
<g id="edge2_Node000002_Node000003" class="edge">
<title>Node2&#45;&gt;Node3</title>
<g id="a_edge2_Node000002_Node000003"><a xlink:title=" ">
<path fill="none" stroke="#63b8ff" d="M498.51,-296.99C482.9,-288.4 458.48,-274.51 438.27,-261 412.35,-243.67 383.93,-221.59 365.87,-207.14"/>
<polygon fill="#63b8ff" stroke="#63b8ff" points="367.87,-204.26 357.89,-200.71 363.48,-209.71 367.87,-204.26"/>
</a>
</g>
</g>
<!-- Node20 -->
<g id="Node000020" class="node">
<title>Node20</title>
<g id="a_Node000020"><a xlink:href="writethrough__decision_8h.html" target="_top" xlink:title=" ">
<polygon fill="white" stroke="#666666" points="581.27,-261 447.27,-261 447.27,-242 581.27,-242 581.27,-261"/>
<text text-anchor="middle" x="514.27" y="-249" font-family="Helvetica,sans-Serif" font-size="10.00">writethrough_decision.h</text>
</a>
</g>
</g>
<!-- Node2&#45;&gt;Node20 -->
<g id="edge28_Node000002_Node000020" class="edge">
<title>Node2&#45;&gt;Node20</title>
<g id="a_edge28_Node000002_Node000020"><a xlink:title=" ">
<path fill="none" stroke="#63b8ff" d="M514.27,-296.75C514.27,-289.8 514.27,-279.85 514.27,-271.13"/>
<polygon fill="#63b8ff" stroke="#63b8ff" points="517.77,-271.09 514.27,-261.09 510.77,-271.09 517.77,-271.09"/>
</a>
</g>
</g>
<!-- Node4 -->
<g id="Node000004" class="node">
<title>Node4</title>
<g id="a_Node000004"><a xlink:title=" ">
<polygon fill="#e0e0e0" stroke="#999999" points="534.27,-74 456.27,-74 456.27,-55 534.27,-55 534.27,-74"/>
<text text-anchor="middle" x="495.27" y="-62" font-family="Helvetica,sans-Serif" font-size="10.00">ngx_config.h</text>
</a>
</g>
</g>
<!-- Node3&#45;&gt;Node4 -->
<g id="edge3_Node000003_Node000004" class="edge">
<title>Node3&#45;&gt;Node4</title>
<g id="a_edge3_Node000003_Node000004"><a xlink:title=" ">
<path fill="none" stroke="#63b8ff" d="M356.67,-181.41C373.02,-166.55 407.82,-135.23 438.27,-110 450.47,-99.89 464.5,-88.93 475.59,-80.41"/>
<polygon fill="#63b8ff" stroke="#63b8ff" points="477.94,-83.02 483.76,-74.17 473.69,-77.46 477.94,-83.02"/>
</a>
</g>
</g>
<!-- Node5 -->
<g id="Node000005" class="node">
<title>Node5</title>
<g id="a_Node000005"><a xlink:title=" ">
<polygon fill="#e0e0e0" stroke="#999999" points="246.27,-74 176.27,-74 176.27,-55 246.27,-55 246.27,-74"/>
<text text-anchor="middle" x="211.27" y="-62" font-family="Helvetica,sans-Serif" font-size="10.00">ngx_core.h</text>
</a>
</g>
</g>
<!-- Node3&#45;&gt;Node5 -->
<g id="edge4_Node000003_Node000005" class="edge">
<title>Node3&#45;&gt;Node5</title>
<g id="a_edge4_Node000003_Node000005"><a xlink:title=" ">
<path fill="none" stroke="#63b8ff" d="M311.54,-190.19C233.97,-189.76 54.08,-183.95 16.27,-140 7.57,-129.89 7.96,-120.42 16.27,-110 21,-104.07 110.01,-85.53 166.12,-74.33"/>
<polygon fill="#63b8ff" stroke="#63b8ff" points="167.06,-77.71 176.19,-72.33 165.7,-70.85 167.06,-77.71"/>
</a>
</g>
</g>
<!-- Node6 -->
<g id="Node000006" class="node">
<title>Node6</title>
<g id="a_Node000006"><a xlink:href="fs_2path_2unified_8h.html" target="_top" xlink:title=" ">
<polygon fill="white" stroke="#666666" points="542.77,-134.5 447.77,-134.5 447.77,-115.5 542.77,-115.5 542.77,-134.5"/>
<text text-anchor="middle" x="495.27" y="-122.5" font-family="Helvetica,sans-Serif" font-size="10.00">fs/path/unified.h</text>
</a>
</g>
</g>
<!-- Node3&#45;&gt;Node6 -->
<g id="edge5_Node000003_Node000006" class="edge">
<title>Node3&#45;&gt;Node6</title>
<g id="a_edge5_Node000003_Node000006"><a xlink:title=" ">
<path fill="none" stroke="#63b8ff" d="M367.23,-181.37C392.61,-170.39 436.63,-151.36 465.86,-138.72"/>
<polygon fill="#63b8ff" stroke="#63b8ff" points="467.36,-141.88 475.15,-134.7 464.58,-135.46 467.36,-141.88"/>
</a>
</g>
</g>
<!-- Node8 -->
<g id="Node000008" class="node">
<title>Node8</title>
<g id="a_Node000008"><a xlink:href="identity_8h.html" target="_top" xlink:title=" ">
<polygon fill="white" stroke="#666666" points="391.27,-134.5 275.27,-134.5 275.27,-115.5 391.27,-115.5 391.27,-134.5"/>
<text text-anchor="middle" x="333.27" y="-122.5" font-family="Helvetica,sans-Serif" font-size="10.00">core/types/identity.h</text>
</a>
</g>
</g>
<!-- Node3&#45;&gt;Node8 -->
<g id="edge9_Node000003_Node000008" class="edge">
<title>Node3&#45;&gt;Node8</title>
<g id="a_edge9_Node000003_Node000008"><a xlink:title=" ">
<path fill="none" stroke="#63b8ff" d="M345.38,-181.37C343.35,-172.07 340.05,-156.98 337.4,-144.9"/>
<polygon fill="#63b8ff" stroke="#63b8ff" points="340.77,-143.93 335.22,-134.91 333.94,-145.42 340.77,-143.93"/>
</a>
</g>
</g>
<!-- Node12 -->
<g id="Node000012" class="node">
<title>Node12</title>
<g id="a_Node000012"><a xlink:href="observability_2metrics_2unified_8h.html" target="_top" xlink:title=" ">
<polygon fill="white" stroke="#666666" points="257.27,-140 137.27,-140 137.27,-110 257.27,-110 257.27,-140"/>
<text text-anchor="start" x="145.27" y="-128" font-family="Helvetica,sans-Serif" font-size="10.00">observability/metrics</text>
<text text-anchor="middle" x="197.27" y="-117" font-family="Helvetica,sans-Serif" font-size="10.00">/unified.h</text>
</a>
</g>
</g>
<!-- Node3&#45;&gt;Node12 -->
<g id="edge15_Node000003_Node000012" class="edge">
<title>Node3&#45;&gt;Node12</title>
<g id="a_edge15_Node000003_Node000012"><a xlink:title=" ">
<path fill="none" stroke="#63b8ff" d="M327.04,-181.37C304.77,-171.87 268.33,-156.32 239.72,-144.11"/>
<polygon fill="#63b8ff" stroke="#63b8ff" points="240.92,-140.82 230.35,-140.12 238.18,-147.26 240.92,-140.82"/>
</a>
</g>
</g>
<!-- Node14 -->
<g id="Node000014" class="node">
<title>Node14</title>
<g id="a_Node000014"><a xlink:href="sd_8h.html" target="_top" xlink:title=" ">
<polygon fill="white" stroke="#666666" points="729.27,-134.5 637.27,-134.5 637.27,-115.5 729.27,-115.5 729.27,-134.5"/>
<text text-anchor="middle" x="683.27" y="-122.5" font-family="Helvetica,sans-Serif" font-size="10.00">fs/backend/sd.h</text>
</a>
</g>
</g>
<!-- Node3&#45;&gt;Node14 -->
<g id="edge19_Node000003_Node000014" class="edge">
<title>Node3&#45;&gt;Node14</title>
<g id="a_edge19_Node000003_Node000014"><a xlink:title=" ">
<path fill="none" stroke="#63b8ff" d="M381.83,-181.47C389.83,-179.58 398.33,-177.66 406.27,-176 482.38,-160.11 570.87,-144.66 626.96,-135.24"/>
<polygon fill="#63b8ff" stroke="#63b8ff" points="627.76,-138.65 637.05,-133.55 626.61,-131.75 627.76,-138.65"/>
</a>
</g>
</g>
<!-- Node19 -->
<g id="Node000019" class="node">
<title>Node19</title>
<g id="a_Node000019"><a xlink:href="vfs__ops_8h.html" target="_top" xlink:title=" ">
<polygon fill="white" stroke="#666666" points="118.77,-134.5 25.77,-134.5 25.77,-115.5 118.77,-115.5 118.77,-134.5"/>
<text text-anchor="middle" x="72.27" y="-122.5" font-family="Helvetica,sans-Serif" font-size="10.00">fs/vfs/vfs_ops.h</text>
</a>
</g>
</g>
<!-- Node3&#45;&gt;Node19 -->
<g id="edge27_Node000003_Node000019" class="edge">
<title>Node3&#45;&gt;Node19</title>
<g id="a_edge27_Node000003_Node000019"><a xlink:title=" ">
<path fill="none" stroke="#63b8ff" d="M311.56,-182.08C268.17,-172.41 192.75,-155.42 128.27,-140 124.21,-139.03 119.99,-138.01 115.77,-136.97"/>
<polygon fill="#63b8ff" stroke="#63b8ff" points="116.55,-133.56 106,-134.55 114.87,-140.35 116.55,-133.56"/>
</a>
</g>
</g>
<!-- Node6&#45;&gt;Node4 -->
<g id="edge6_Node000006_Node000004" class="edge">
<title>Node6&#45;&gt;Node4</title>
<g id="a_edge6_Node000006_Node000004"><a xlink:title=" ">
<path fill="none" stroke="#63b8ff" d="M495.27,-115.37C495.27,-107.25 495.27,-94.81 495.27,-84.39"/>
<polygon fill="#63b8ff" stroke="#63b8ff" points="498.77,-84.17 495.27,-74.17 491.77,-84.17 498.77,-84.17"/>
</a>
</g>
</g>
<!-- Node6&#45;&gt;Node5 -->
<g id="edge7_Node000006_Node000005" class="edge">
<title>Node6&#45;&gt;Node5</title>
<g id="a_edge7_Node000006_Node000005"><a xlink:title=" ">
<path fill="none" stroke="#63b8ff" d="M453.97,-115.49C401.37,-104.66 310.76,-85.99 256.39,-74.79"/>
<polygon fill="#63b8ff" stroke="#63b8ff" points="256.85,-71.32 246.35,-72.73 255.43,-78.17 256.85,-71.32"/>
</a>
</g>
</g>
<!-- Node6&#45;&gt;Node7 -->
<g id="edge8_Node000006_Node000007" class="edge">
<title>Node6&#45;&gt;Node7</title>
<g id="a_edge8_Node000006_Node000007"><a xlink:title=" ">
<path fill="none" stroke="#63b8ff" d="M531.91,-115.49C577.92,-104.81 656.67,-86.53 705.13,-75.28"/>
<polygon fill="#63b8ff" stroke="#63b8ff" points="706.03,-78.67 714.98,-73 704.45,-71.85 706.03,-78.67"/>
</a>
</g>
</g>
<!-- Node8&#45;&gt;Node4 -->
<g id="edge10_Node000008_Node000004" class="edge">
<title>Node8&#45;&gt;Node4</title>
<g id="a_edge10_Node000008_Node000004"><a xlink:title=" ">
<path fill="none" stroke="#63b8ff" d="M356.83,-115.49C384.54,-105.49 430.74,-88.8 462.08,-77.49"/>
<polygon fill="#63b8ff" stroke="#63b8ff" points="463.47,-80.71 471.68,-74.02 461.09,-74.12 463.47,-80.71"/>
</a>
</g>
</g>
<!-- Node8&#45;&gt;Node5 -->
<g id="edge11_Node000008_Node000005" class="edge">
<title>Node8&#45;&gt;Node5</title>
<g id="a_edge11_Node000008_Node000005"><a xlink:title=" ">
<path fill="none" stroke="#63b8ff" d="M315.53,-115.49C295.2,-105.75 261.66,-89.66 238.13,-78.38"/>
<polygon fill="#63b8ff" stroke="#63b8ff" points="239.56,-75.18 229.03,-74.02 236.53,-81.5 239.56,-75.18"/>
</a>
</g>
</g>
<!-- Node9 -->
<g id="Node000009" class="node">
<title>Node9</title>
<g id="a_Node000009"><a xlink:href="token_8h.html" target="_top" xlink:title=" ">
<polygon fill="white" stroke="#666666" points="386.77,-74 279.77,-74 279.77,-55 386.77,-55 386.77,-74"/>
<text text-anchor="middle" x="333.27" y="-62" font-family="Helvetica,sans-Serif" font-size="10.00">auth/token/token.h</text>
</a>
</g>
</g>
<!-- Node8&#45;&gt;Node9 -->
<g id="edge12_Node000008_Node000009" class="edge">
<title>Node8&#45;&gt;Node9</title>
<g id="a_edge12_Node000008_Node000009"><a xlink:title=" ">
<path fill="none" stroke="#63b8ff" d="M333.27,-115.37C333.27,-107.25 333.27,-94.81 333.27,-84.39"/>
<polygon fill="#63b8ff" stroke="#63b8ff" points="336.77,-84.17 333.27,-74.17 329.77,-84.17 336.77,-84.17"/>
</a>
</g>
</g>
<!-- Node10 -->
<g id="Node000010" class="node">
<title>Node10</title>
<g id="a_Node000010"><a xlink:title=" ">
<polygon fill="#e0e0e0" stroke="#999999" points="332.27,-19 248.27,-19 248.27,0 332.27,0 332.27,-19"/>
<text text-anchor="middle" x="290.27" y="-7" font-family="Helvetica,sans-Serif" font-size="10.00">openssl/evp.h</text>
</a>
</g>
</g>
<!-- Node9&#45;&gt;Node10 -->
<g id="edge13_Node000009_Node000010" class="edge">
<title>Node9&#45;&gt;Node10</title>
<g id="a_edge13_Node000009_Node000010"><a xlink:title=" ">
<path fill="none" stroke="#63b8ff" d="M326.17,-54.75C320.09,-47.26 311.18,-36.28 303.76,-27.13"/>
<polygon fill="#63b8ff" stroke="#63b8ff" points="306.26,-24.65 297.24,-19.09 300.82,-29.06 306.26,-24.65"/>
</a>
</g>
</g>
<!-- Node11 -->
<g id="Node000011" class="node">
<title>Node11</title>
<g id="a_Node000011"><a xlink:title=" ">
<polygon fill="#e0e0e0" stroke="#999999" points="402.77,-19 349.77,-19 349.77,0 402.77,0 402.77,-19"/>
<text text-anchor="middle" x="376.27" y="-7" font-family="Helvetica,sans-Serif" font-size="10.00">limits.h</text>
</a>
</g>
</g>
<!-- Node9&#45;&gt;Node11 -->
<g id="edge14_Node000009_Node000011" class="edge">
<title>Node9&#45;&gt;Node11</title>
<g id="a_edge14_Node000009_Node000011"><a xlink:title=" ">
<path fill="none" stroke="#63b8ff" d="M340.37,-54.75C346.44,-47.26 355.35,-36.28 362.78,-27.13"/>
<polygon fill="#63b8ff" stroke="#63b8ff" points="365.72,-29.06 369.3,-19.09 360.28,-24.65 365.72,-29.06"/>
</a>
</g>
</g>
<!-- Node12&#45;&gt;Node4 -->
<g id="edge16_Node000012_Node000004" class="edge">
<title>Node12&#45;&gt;Node4</title>
<g id="a_edge16_Node000012_Node000004"><a xlink:title=" ">
<path fill="none" stroke="#63b8ff" d="M257.47,-111.75C260.45,-111.16 263.39,-110.57 266.27,-110 328.13,-97.71 399.47,-83.91 445.86,-74.98"/>
<polygon fill="#63b8ff" stroke="#63b8ff" points="446.79,-78.37 455.94,-73.04 445.46,-71.49 446.79,-78.37"/>
</a>
</g>
</g>
<!-- Node12&#45;&gt;Node5 -->
<g id="edge17_Node000012_Node000005" class="edge">
<title>Node12&#45;&gt;Node5</title>
<g id="a_edge17_Node000012_Node000005"><a xlink:title=" ">
<path fill="none" stroke="#63b8ff" d="M200.66,-109.84C202.5,-102.13 204.81,-92.49 206.8,-84.17"/>
<polygon fill="#63b8ff" stroke="#63b8ff" points="210.25,-84.81 209.17,-74.27 203.44,-83.18 210.25,-84.81"/>
</a>
</g>
</g>
<!-- Node13 -->
<g id="Node000013" class="node">
<title>Node13</title>
<g id="a_Node000013"><a xlink:href="proto__list_8h.html" target="_top" xlink:title=" ">
<polygon fill="white" stroke="#666666" points="157.77,-74 32.77,-74 32.77,-55 157.77,-55 157.77,-74"/>
<text text-anchor="middle" x="95.27" y="-62" font-family="Helvetica,sans-Serif" font-size="10.00">core/types/proto_list.h</text>
</a>
</g>
</g>
<!-- Node12&#45;&gt;Node13 -->
<g id="edge18_Node000012_Node000013" class="edge">
<title>Node12&#45;&gt;Node13</title>
<g id="a_edge18_Node000012_Node000013"><a xlink:title=" ">
<path fill="none" stroke="#63b8ff" d="M172.84,-109.99C156.58,-100.66 135.32,-88.47 119.17,-79.21"/>
<polygon fill="#63b8ff" stroke="#63b8ff" points="120.75,-76.08 110.33,-74.14 117.27,-82.15 120.75,-76.08"/>
</a>
</g>
</g>
<!-- Node14&#45;&gt;Node4 -->
<g id="edge20_Node000014_Node000004" class="edge">
<title>Node14&#45;&gt;Node4</title>
<g id="a_edge20_Node000014_Node000004"><a xlink:title=" ">
<path fill="none" stroke="#63b8ff" d="M655.93,-115.49C623.35,-105.36 568.76,-88.37 532.38,-77.05"/>
<polygon fill="#63b8ff" stroke="#63b8ff" points="533.23,-73.65 522.64,-74.02 531.15,-80.33 533.23,-73.65"/>
</a>
</g>
</g>
<!-- Node14&#45;&gt;Node5 -->
<g id="edge21_Node000014_Node000005" class="edge">
<title>Node14&#45;&gt;Node5</title>
<g id="a_edge21_Node000014_Node000005"><a xlink:title=" ">
<path fill="none" stroke="#63b8ff" d="M637.08,-118.75C560.69,-110 403.26,-91.63 270.27,-74 265.82,-73.41 261.19,-72.78 256.56,-72.13"/>
<polygon fill="#63b8ff" stroke="#63b8ff" points="256.9,-68.64 246.51,-70.71 255.92,-75.57 256.9,-68.64"/>
</a>
</g>
</g>
<!-- Node14&#45;&gt;Node7 -->
<g id="edge24_Node000014_Node000007" class="edge">
<title>Node14&#45;&gt;Node7</title>
<g id="a_edge24_Node000014_Node000007"><a xlink:title=" ">
<path fill="none" stroke="#63b8ff" d="M692.71,-115.37C702.54,-106.38 718.16,-92.11 730.16,-81.14"/>
<polygon fill="#63b8ff" stroke="#63b8ff" points="732.77,-83.5 737.79,-74.17 728.04,-78.33 732.77,-83.5"/>
</a>
</g>
</g>
<!-- Node15 -->
<g id="Node000015" class="node">
<title>Node15</title>
<g id="a_Node000015"><a xlink:title=" ">
<polygon fill="#e0e0e0" stroke="#999999" points="850.77,-74 797.77,-74 797.77,-55 850.77,-55 850.77,-74"/>
<text text-anchor="middle" x="824.27" y="-62" font-family="Helvetica,sans-Serif" font-size="10.00">stdint.h</text>
</a>
</g>
</g>
<!-- Node14&#45;&gt;Node15 -->
<g id="edge22_Node000014_Node000015" class="edge">
<title>Node14&#45;&gt;Node15</title>
<g id="a_edge22_Node000014_Node000015"><a xlink:title=" ">
<path fill="none" stroke="#63b8ff" d="M703.77,-115.49C727.58,-105.62 767.06,-89.23 794.31,-77.93"/>
<polygon fill="#63b8ff" stroke="#63b8ff" points="795.85,-81.08 803.74,-74.02 793.16,-74.62 795.85,-81.08"/>
</a>
</g>
</g>
<!-- Node16 -->
<g id="Node000016" class="node">
<title>Node16</title>
<g id="a_Node000016"><a xlink:title=" ">
<polygon fill="#e0e0e0" stroke="#999999" points="618.77,-74 567.77,-74 567.77,-55 618.77,-55 618.77,-74"/>
<text text-anchor="middle" x="593.27" y="-62" font-family="Helvetica,sans-Serif" font-size="10.00">errno.h</text>
</a>
</g>
</g>
<!-- Node14&#45;&gt;Node16 -->
<g id="edge23_Node000014_Node000016" class="edge">
<title>Node14&#45;&gt;Node16</title>
<g id="a_edge23_Node000014_Node000016"><a xlink:title=" ">
<path fill="none" stroke="#63b8ff" d="M669.99,-115.37C655.63,-106.04 632.51,-91.01 615.4,-79.88"/>
<polygon fill="#63b8ff" stroke="#63b8ff" points="616.9,-76.68 606.6,-74.17 613.08,-82.55 616.9,-76.68"/>
</a>
</g>
</g>
<!-- Node17 -->
<g id="Node000017" class="node">
<title>Node17</title>
<g id="a_Node000017"><a xlink:title=" ">
<polygon fill="#e0e0e0" stroke="#999999" points="1018.27,-74 946.27,-74 946.27,-55 1018.27,-55 1018.27,-74"/>
<text text-anchor="middle" x="982.27" y="-62" font-family="Helvetica,sans-Serif" font-size="10.00">sys/types.h</text>
</a>
</g>
</g>
<!-- Node14&#45;&gt;Node17 -->
<g id="edge25_Node000014_Node000017" class="edge">
<title>Node14&#45;&gt;Node17</title>
<g id="a_edge25_Node000014_Node000017"><a xlink:title=" ">
<path fill="none" stroke="#63b8ff" d="M726.75,-115.49C782.67,-104.55 879.37,-85.63 936.42,-74.47"/>
<polygon fill="#63b8ff" stroke="#63b8ff" points="937.11,-77.9 946.25,-72.55 935.76,-71.03 937.11,-77.9"/>
</a>
</g>
</g>
<!-- Node18 -->
<g id="Node000018" class="node">
<title>Node18</title>
<g id="a_Node000018"><a xlink:title=" ">
<polygon fill="#e0e0e0" stroke="#999999" points="697.27,-74 637.27,-74 637.27,-55 697.27,-55 697.27,-74"/>
<text text-anchor="middle" x="667.27" y="-62" font-family="Helvetica,sans-Serif" font-size="10.00">sys/uio.h</text>
</a>
</g>
</g>
<!-- Node14&#45;&gt;Node18 -->
<g id="edge26_Node000014_Node000018" class="edge">
<title>Node14&#45;&gt;Node18</title>
<g id="a_edge26_Node000014_Node000018"><a xlink:title=" ">
<path fill="none" stroke="#63b8ff" d="M680.91,-115.37C678.66,-107.16 675.21,-94.54 672.34,-84.05"/>
<polygon fill="#63b8ff" stroke="#63b8ff" points="675.65,-82.89 669.64,-74.17 668.9,-84.74 675.65,-82.89"/>
</a>
</g>
</g>
<!-- Node20&#45;&gt;Node4 -->
<g id="edge29_Node000020_Node000004" class="edge">
<title>Node20&#45;&gt;Node4</title>
<g id="a_edge29_Node000020_Node000004"><a xlink:title=" ">
<path fill="none" stroke="#63b8ff" d="M524.71,-241.87C533.69,-233.7 546.01,-220.55 551.27,-206 565.77,-165.87 569.81,-148.43 551.27,-110 545.05,-97.12 533.09,-86.82 521.81,-79.38"/>
<polygon fill="#63b8ff" stroke="#63b8ff" points="523.4,-76.25 513.04,-74.04 519.76,-82.23 523.4,-76.25"/>
</a>
</g>
</g>
<!-- Node20&#45;&gt;Node5 -->
<g id="edge30_Node000020_Node000005" class="edge">
<title>Node20&#45;&gt;Node5</title>
<g id="a_edge30_Node000020_Node000005"><a xlink:title=" ">
<path fill="none" stroke="#63b8ff" d="M447.01,-246.06C321.82,-236.25 60.74,-207.96 6.27,-140 -2.07,-129.6 -2.1,-120.38 6.27,-110 8.81,-106.85 106.62,-86.63 166.2,-74.55"/>
<polygon fill="#63b8ff" stroke="#63b8ff" points="167.02,-77.96 176.13,-72.55 165.63,-71.1 167.02,-77.96"/>
</a>
</g>
</g>
<!-- Node21 -->
<g id="Node000021" class="node">
<title>Node21</title>
<g id="a_Node000021"><a xlink:title=" ">
<polygon fill="#e0e0e0" stroke="#999999" points="803.77,-200.5 750.77,-200.5 750.77,-181.5 803.77,-181.5 803.77,-200.5"/>
<text text-anchor="middle" x="777.27" y="-188.5" font-family="Helvetica,sans-Serif" font-size="10.00">regex.h</text>
</a>
</g>
</g>
<!-- Node20&#45;&gt;Node21 -->
<g id="edge31_Node000020_Node000021" class="edge">
<title>Node20&#45;&gt;Node21</title>
<g id="a_edge31_Node000020_Node000021"><a xlink:title=" ">
<path fill="none" stroke="#63b8ff" d="M572.79,-241.96C619.04,-234.51 684.96,-222.33 741.27,-206 743.2,-205.44 745.18,-204.82 747.15,-204.16"/>
<polygon fill="#63b8ff" stroke="#63b8ff" points="748.71,-207.32 756.92,-200.63 746.33,-200.73 748.71,-207.32"/>
</a>
</g>
</g>
<!-- Node22 -->
<g id="Node000022" class="node">
<title>Node22</title>
<g id="a_Node000022"><a xlink:href="core_2types_2file_8h.html" target="_top" xlink:title=" ">
<polygon fill="white" stroke="#666666" points="732.77,-200.5 637.77,-200.5 637.77,-181.5 732.77,-181.5 732.77,-200.5"/>
<text text-anchor="middle" x="685.27" y="-188.5" font-family="Helvetica,sans-Serif" font-size="10.00">core/types/file.h</text>
</a>
</g>
</g>
<!-- Node20&#45;&gt;Node22 -->
<g id="edge32_Node000020_Node000022" class="edge">
<title>Node20&#45;&gt;Node22</title>
<g id="a_edge32_Node000020_Node000022"><a xlink:title=" ">
<path fill="none" stroke="#63b8ff" d="M539.13,-241.99C568.51,-231.94 617.58,-215.16 650.66,-203.84"/>
<polygon fill="#63b8ff" stroke="#63b8ff" points="652.05,-207.07 660.37,-200.52 649.78,-200.44 652.05,-207.07"/>
</a>
</g>
</g>
<!-- Node25 -->
<g id="Node000025" class="node">
<title>Node25</title>
<g id="a_Node000025"><a xlink:href="flags_8h.html" target="_top" xlink:title=" ">
<polygon fill="white" stroke="#666666" points="542.77,-206 415.77,-206 415.77,-176 542.77,-176 542.77,-206"/>
<text text-anchor="start" x="423.77" y="-194" font-family="Helvetica,sans-Serif" font-size="10.00">protocols/root/protocol</text>
<text text-anchor="middle" x="479.27" y="-183" font-family="Helvetica,sans-Serif" font-size="10.00">/flags.h</text>
</a>
</g>
</g>
<!-- Node20&#45;&gt;Node25 -->
<g id="edge37_Node000020_Node000025" class="edge">
<title>Node20&#45;&gt;Node25</title>
<g id="a_edge37_Node000020_Node000025"><a xlink:title=" ">
<path fill="none" stroke="#63b8ff" d="M509.1,-241.87C504.84,-234.74 498.58,-224.28 492.9,-214.79"/>
<polygon fill="#63b8ff" stroke="#63b8ff" points="495.85,-212.9 487.71,-206.11 489.84,-216.49 495.85,-212.9"/>
</a>
</g>
</g>
<!-- Node22&#45;&gt;Node14 -->
<g id="edge33_Node000022_Node000014" class="edge">
<title>Node22&#45;&gt;Node14</title>
<g id="a_edge33_Node000022_Node000014"><a xlink:title=" ">
<path fill="none" stroke="#63b8ff" d="M685,-181.37C684.71,-172.16 684.25,-157.29 683.87,-145.27"/>
<polygon fill="#63b8ff" stroke="#63b8ff" points="687.36,-144.79 683.55,-134.91 680.36,-145.01 687.36,-144.79"/>
</a>
</g>
</g>
<!-- Node23 -->
<g id="Node000023" class="node">
<title>Node23</title>
<g id="a_Node000023"><a xlink:href="sesslog_8h.html" target="_top" xlink:title=" ">
<polygon fill="white" stroke="#666666" points="956.27,-140 836.27,-140 836.27,-110 956.27,-110 956.27,-140"/>
<text text-anchor="start" x="844.27" y="-128" font-family="Helvetica,sans-Serif" font-size="10.00">observability/sesslog</text>
<text text-anchor="middle" x="896.27" y="-117" font-family="Helvetica,sans-Serif" font-size="10.00">/sesslog.h</text>
</a>
</g>
</g>
<!-- Node22&#45;&gt;Node23 -->
<g id="edge34_Node000022_Node000023" class="edge">
<title>Node22&#45;&gt;Node23</title>
<g id="a_edge34_Node000022_Node000023"><a xlink:title=" ">
<path fill="none" stroke="#63b8ff" d="M713.73,-181.37C745.94,-171.6 799.23,-155.43 839.94,-143.09"/>
<polygon fill="#63b8ff" stroke="#63b8ff" points="841.18,-146.37 849.73,-140.12 839.15,-139.67 841.18,-146.37"/>
</a>
</g>
</g>
<!-- Node23&#45;&gt;Node15 -->
<g id="edge36_Node000023_Node000015" class="edge">
<title>Node23&#45;&gt;Node15</title>
<g id="a_edge36_Node000023_Node000015"><a xlink:title=" ">
<path fill="none" stroke="#63b8ff" d="M878.84,-109.84C867.96,-101 853.97,-89.63 842.88,-80.62"/>
<polygon fill="#63b8ff" stroke="#63b8ff" points="845.03,-77.86 835.06,-74.27 840.61,-83.29 845.03,-77.86"/>
</a>
</g>
</g>
<!-- Node24 -->
<g id="Node000024" class="node">
<title>Node24</title>
<g id="a_Node000024"><a xlink:title=" ">
<polygon fill="#e0e0e0" stroke="#999999" points="925.27,-74 869.27,-74 869.27,-55 925.27,-55 925.27,-74"/>
<text text-anchor="middle" x="897.27" y="-62" font-family="Helvetica,sans-Serif" font-size="10.00">stddef.h</text>
</a>
</g>
</g>
<!-- Node23&#45;&gt;Node24 -->
<g id="edge35_Node000023_Node000024" class="edge">
<title>Node23&#45;&gt;Node24</title>
<g id="a_edge35_Node000023_Node000024"><a xlink:title=" ">
<path fill="none" stroke="#63b8ff" d="M896.51,-109.84C896.64,-102.21 896.8,-92.7 896.95,-84.45"/>
<polygon fill="#63b8ff" stroke="#63b8ff" points="900.45,-84.32 897.12,-74.27 893.45,-84.2 900.45,-84.32"/>
</a>
</g>
</g>
<!-- Node26&#45;&gt;Node4 -->
<g id="edge39_Node000026_Node000004" class="edge">
<title>Node26&#45;&gt;Node4</title>
<g id="a_edge39_Node000026_Node000004"><a xlink:title=" ">
<path fill="none" stroke="#63b8ff" d="M684.73,-296.75C673.81,-279.48 648.79,-239.73 628.27,-206 602.48,-163.61 606.46,-144.98 571.27,-110 558.1,-96.91 540.33,-86.23 525.28,-78.62"/>
<polygon fill="#63b8ff" stroke="#63b8ff" points="526.39,-75.26 515.87,-74.06 523.34,-81.57 526.39,-75.26"/>
</a>
</g>
</g>
<!-- Node26&#45;&gt;Node5 -->
<g id="edge40_Node000026_Node000005" class="edge">
<title>Node26&#45;&gt;Node5</title>
<g id="a_edge40_Node000026_Node000005"><a xlink:title=" ">
<path fill="none" stroke="#63b8ff" d="M646,-301.88C507.19,-289.51 84.99,-243.8 6.27,-140 -1.79,-129.38 -2.1,-120.38 6.27,-110 8.81,-106.85 106.62,-86.63 166.2,-74.55"/>
<polygon fill="#63b8ff" stroke="#63b8ff" points="167.02,-77.96 176.13,-72.55 165.63,-71.1 167.02,-77.96"/>
</a>
</g>
</g>
<!-- Node26&#45;&gt;Node17 -->
<g id="edge42_Node000026_Node000017" class="edge">
<title>Node26&#45;&gt;Node17</title>
<g id="a_edge42_Node000026_Node000017"><a xlink:title=" ">
<path fill="none" stroke="#63b8ff" d="M718.38,-296.92C774.69,-278.22 901.38,-228.24 965.27,-140 977.04,-123.74 980.84,-100.68 981.97,-84.54"/>
<polygon fill="#63b8ff" stroke="#63b8ff" points="985.48,-84.34 982.4,-74.2 978.49,-84.05 985.48,-84.34"/>
</a>
</g>
</g>
<!-- Node26&#45;&gt;Node20 -->
<g id="edge43_Node000026_Node000020" class="edge">
<title>Node26&#45;&gt;Node20</title>
<g id="a_edge43_Node000026_Node000020"><a xlink:title=" ">
<path fill="none" stroke="#63b8ff" d="M661.99,-296.98C632.32,-288.05 585.48,-273.94 552.52,-264.02"/>
<polygon fill="#63b8ff" stroke="#63b8ff" points="553.35,-260.61 542.77,-261.08 551.33,-267.32 553.35,-260.61"/>
</a>
</g>
</g>
<!-- Node26&#45;&gt;Node21 -->
<g id="edge41_Node000026_Node000021" class="edge">
<title>Node26&#45;&gt;Node21</title>
<g id="a_edge41_Node000026_Node000021"><a xlink:title=" ">
<path fill="none" stroke="#63b8ff" d="M696.81,-296.97C711.17,-278.24 745.67,-233.22 764.5,-208.66"/>
<polygon fill="#63b8ff" stroke="#63b8ff" points="767.35,-210.7 770.65,-200.63 761.79,-206.44 767.35,-210.7"/>
</a>
</g>
</g>
</g>
</svg>

<g id="navigator" transform="translate(0 0)" fill="#404254">
  <rect fill="#f2f5e9" fill-opacity="0.5" stroke="#606060" stroke-width=".5" x="0" y="0" width="60" height="60"/>
  <use id="zoomplus" xlink:href="#zoomPlus" x="17" y="9" onmousedown="handleZoom(evt,'in')"/>
  <use id="zoomminus" xlink:href="#zoomMin" x="42" y="9" onmousedown="handleZoom(evt,'out')"/>
  <use id="reset" xlink:href="#resetDef" x="30" y="36" onmousedown="handleReset()"/>
   <use id="arrowup" xlink:href="#arrowUp" x="0" y="0" onmousedown="handlePan(0,-1)"/>
  <use id="arrowright" xlink:href="#arrowRight" x="0" y="0" onmousedown="handlePan(1,0)"/>
  <use id="arrowdown" xlink:href="#arrowDown" x="0" y="0" onmousedown="handlePan(0,1)"/>
  <use id="arrowleft" xlink:href="#arrowLeft" x="0" y="0" onmousedown="handlePan(-1,0)"/>
</g>
<svg viewBox="0 0 15 15" width="100%" height="30px" preserveAspectRatio="xMaxYMin meet">
 <g id="arrow_out" transform="scale(0.3 0.3)">
  <a xlink:href="writethrough__decision_8c__incl_org.svg" target="_base">
   <rect id="button" ry="5" rx="5" y="6" x="6" height="38" width="38"
        fill="#f2f5e9" fill-opacity="0.5" stroke="#606060" stroke-width="1.0"/>
   <path id="arrow"
     d="M 11.500037,31.436501 C 11.940474,20.09759 22.043105,11.32322 32.158766,21.979434 L 37.068811,17.246167 C 37.068811,17.246167 37.088388,32 37.088388,32 L 22.160133,31.978069 C 22.160133,31.978069 26.997745,27.140456 26.997745,27.140456 C 18.528582,18.264221 13.291696,25.230495 11.500037,31.436501 z"
     style="fill:#404040;"/>
  </a>
 </g>
</svg>

<style type='text/css'>
<![CDATA[
[data-mouse-over-selected='false'] { opacity: 0.7; }
[data-mouse-over-selected='true']  { opacity: 1.0; }
]]>
</style>
<script type="application/ecmascript"><![CDATA[
document.addEventListener('DOMContentLoaded', (event) => {
  highlightEdges();
  highlightAdjacentNodes();
});
]]></script>
</svg>
