<?xml version="1.0" encoding="UTF-8" standalone="no"?>
<!DOCTYPE svg PUBLIC "-//W3C//DTD SVG 1.1//EN"
 "http://www.w3.org/Graphics/SVG/1.1/DTD/svg11.dtd">
<!-- Generated by graphviz version 2.43.0 (0)
 -->
<!-- Title: src/core/compat/wverify.c Pages: 1 -->
<svg width="375pt" height="137pt"
 viewBox="0.00 0.00 374.50 137.00" xmlns="http://www.w3.org/2000/svg" xmlns:xlink="http://www.w3.org/1999/xlink">

<svg id="main" version="1.1" xmlns="http://www.w3.org/2000/svg" xmlns:xlink="http://www.w3.org/1999/xlink" xml:space="preserve" onload="init(evt)">
<style type="text/css"><![CDATA[
.node, .edge {opacity: 0.7;}
.node.selected, .edge.selected {opacity: 1;}
.edge:hover path { stroke: red; }
.edge:hover polygon { stroke: red; fill: red; }
]]></style>
<script type="application/ecmascript" xlink:href="svg.min.js"/>
<svg id="graph" class="graph">
<g id="graph0" class="graph" transform="scale(1 1) rotate(0) translate(4 133)">
<title>src/core/compat/wverify.c</title>
<!-- Node1 -->
<g id="Node000001" class="node">
<title>Node1</title>
<g id="a_Node000001"><a xlink:title=" ">
<polygon fill="#999999" stroke="#666666" points="313,-129 173,-129 173,-110 313,-110 313,-129"/>
<text text-anchor="middle" x="243" y="-117" font-family="Helvetica,sans-Serif" font-size="10.00">src/core/compat/wverify.c</text>
</a>
</g>
</g>
<!-- Node2 -->
<g id="Node000002" class="node">
<title>Node2</title>
<g id="a_Node000002"><a xlink:href="wverify_8h.html" target="_top" xlink:title=" ">
<polygon fill="white" stroke="#666666" points="163,-74 39,-74 39,-55 163,-55 163,-74"/>
<text text-anchor="middle" x="101" y="-62" font-family="Helvetica,sans-Serif" font-size="10.00">core/compat/wverify.h</text>
</a>
</g>
</g>
<!-- Node1&#45;&gt;Node2 -->
<g id="edge1_Node000001_Node000002" class="edge">
<title>Node1&#45;&gt;Node2</title>
<g id="a_edge1_Node000001_Node000002"><a xlink:title=" ">
<path fill="none" stroke="#63b8ff" d="M220.19,-109.98C196.83,-101.27 160.3,-87.63 133.83,-77.75"/>
<polygon fill="#63b8ff" stroke="#63b8ff" points="134.82,-74.39 124.23,-74.17 132.37,-80.95 134.82,-74.39"/>
</a>
</g>
</g>
<!-- Node6 -->
<g id="Node000006" class="node">
<title>Node6</title>
<g id="a_Node000006"><a xlink:title=" ">
<polygon fill="#e0e0e0" stroke="#999999" points="234.5,-74 181.5,-74 181.5,-55 234.5,-55 234.5,-74"/>
<text text-anchor="middle" x="208" y="-62" font-family="Helvetica,sans-Serif" font-size="10.00">stdlib.h</text>
</a>
</g>
</g>
<!-- Node1&#45;&gt;Node6 -->
<g id="edge5_Node000001_Node000006" class="edge">
<title>Node1&#45;&gt;Node6</title>
<g id="a_edge5_Node000001_Node000006"><a xlink:title=" ">
<path fill="none" stroke="#63b8ff" d="M237.22,-109.75C232.38,-102.42 225.32,-91.73 219.36,-82.7"/>
<polygon fill="#63b8ff" stroke="#63b8ff" points="222.1,-80.5 213.67,-74.09 216.26,-84.36 222.1,-80.5"/>
</a>
</g>
</g>
<!-- Node7 -->
<g id="Node000007" class="node">
<title>Node7</title>
<g id="a_Node000007"><a xlink:title=" ">
<polygon fill="#e0e0e0" stroke="#999999" points="305.5,-74 252.5,-74 252.5,-55 305.5,-55 305.5,-74"/>
<text text-anchor="middle" x="279" y="-62" font-family="Helvetica,sans-Serif" font-size="10.00">string.h</text>
</a>
</g>
</g>
<!-- Node1&#45;&gt;Node7 -->
<g id="edge6_Node000001_Node000007" class="edge">
<title>Node1&#45;&gt;Node7</title>
<g id="a_edge6_Node000001_Node000007"><a xlink:title=" ">
<path fill="none" stroke="#63b8ff" d="M248.94,-109.75C253.98,-102.34 261.34,-91.5 267.51,-82.41"/>
<polygon fill="#63b8ff" stroke="#63b8ff" points="270.44,-84.33 273.17,-74.09 264.65,-80.39 270.44,-84.33"/>
</a>
</g>
</g>
<!-- Node8 -->
<g id="Node000008" class="node">
<title>Node8</title>
<g id="a_Node000008"><a xlink:title=" ">
<polygon fill="#e0e0e0" stroke="#999999" points="366.5,-74 323.5,-74 323.5,-55 366.5,-55 366.5,-74"/>
<text text-anchor="middle" x="345" y="-62" font-family="Helvetica,sans-Serif" font-size="10.00">zlib.h</text>
</a>
</g>
</g>
<!-- Node1&#45;&gt;Node8 -->
<g id="edge7_Node000001_Node000008" class="edge">
<title>Node1&#45;&gt;Node8</title>
<g id="a_edge7_Node000001_Node000008"><a xlink:title=" ">
<path fill="none" stroke="#63b8ff" d="M259.39,-109.98C275.57,-101.57 300.57,-88.59 319.38,-78.81"/>
<polygon fill="#63b8ff" stroke="#63b8ff" points="321.05,-81.89 328.31,-74.17 317.83,-75.68 321.05,-81.89"/>
</a>
</g>
</g>
<!-- Node3 -->
<g id="Node000003" class="node">
<title>Node3</title>
<g id="a_Node000003"><a xlink:title=" ">
<polygon fill="#e0e0e0" stroke="#999999" points="56,-19 0,-19 0,0 56,0 56,-19"/>
<text text-anchor="middle" x="28" y="-7" font-family="Helvetica,sans-Serif" font-size="10.00">stddef.h</text>
</a>
</g>
</g>
<!-- Node2&#45;&gt;Node3 -->
<g id="edge2_Node000002_Node000003" class="edge">
<title>Node2&#45;&gt;Node3</title>
<g id="a_edge2_Node000002_Node000003"><a xlink:title=" ">
<path fill="none" stroke="#63b8ff" d="M89.27,-54.98C78.27,-47 61.58,-34.88 48.4,-25.31"/>
<polygon fill="#63b8ff" stroke="#63b8ff" points="50.09,-22.21 39.94,-19.17 45.98,-27.88 50.09,-22.21"/>
</a>
</g>
</g>
<!-- Node4 -->
<g id="Node000004" class="node">
<title>Node4</title>
<g id="a_Node000004"><a xlink:title=" ">
<polygon fill="#e0e0e0" stroke="#999999" points="127.5,-19 74.5,-19 74.5,0 127.5,0 127.5,-19"/>
<text text-anchor="middle" x="101" y="-7" font-family="Helvetica,sans-Serif" font-size="10.00">stdint.h</text>
</a>
</g>
</g>
<!-- Node2&#45;&gt;Node4 -->
<g id="edge3_Node000002_Node000004" class="edge">
<title>Node2&#45;&gt;Node4</title>
<g id="a_edge3_Node000002_Node000004"><a xlink:title=" ">
<path fill="none" stroke="#63b8ff" d="M101,-54.75C101,-47.8 101,-37.85 101,-29.13"/>
<polygon fill="#63b8ff" stroke="#63b8ff" points="104.5,-29.09 101,-19.09 97.5,-29.09 104.5,-29.09"/>
</a>
</g>
</g>
<!-- Node5 -->
<g id="Node000005" class="node">
<title>Node5</title>
<g id="a_Node000005"><a xlink:title=" ">
<polygon fill="#e0e0e0" stroke="#999999" points="218,-19 146,-19 146,0 218,0 218,-19"/>
<text text-anchor="middle" x="182" y="-7" font-family="Helvetica,sans-Serif" font-size="10.00">sys/types.h</text>
</a>
</g>
</g>
<!-- Node2&#45;&gt;Node5 -->
<g id="edge4_Node000002_Node000005" class="edge">
<title>Node2&#45;&gt;Node5</title>
<g id="a_edge4_Node000002_Node000005"><a xlink:title=" ">
<path fill="none" stroke="#63b8ff" d="M114.01,-54.98C126.46,-46.84 145.46,-34.41 160.21,-24.76"/>
<polygon fill="#63b8ff" stroke="#63b8ff" points="162.3,-27.57 168.75,-19.17 158.46,-21.72 162.3,-27.57"/>
</a>
</g>
</g>
</g>
</svg>
</svg>

<style type='text/css'>
<![CDATA[
[data-mouse-over-selected='false'] { opacity: 0.7; }
[data-mouse-over-selected='true']  { opacity: 1.0; }
]]>
</style>
<script type="application/ecmascript"><![CDATA[
document.addEventListener('DOMContentLoaded', (event) => {
  highlightEdges();
  highlightAdjacentNodes();
});
]]></script>
</svg>
