<?xml version="1.0" encoding="UTF-8" standalone="no"?>
<!DOCTYPE svg PUBLIC "-//W3C//DTD SVG 1.1//EN"
 "http://www.w3.org/Graphics/SVG/1.1/DTD/svg11.dtd">
<!-- Generated by graphviz version 2.43.0 (0)
 -->
<!-- Title: src/fs/xfer/xfer_resume_sweep.c Pages: 1 -->
<svg width="962pt" height="203pt"
 viewBox="0.00 0.00 962.00 203.00" xmlns="http://www.w3.org/2000/svg" xmlns:xlink="http://www.w3.org/1999/xlink">
<g id="graph0" class="graph" transform="scale(1 1) rotate(0) translate(4 199)">
<title>src/fs/xfer/xfer_resume_sweep.c</title>
<!-- Node1 -->
<g id="Node000001" class="node">
<title>Node1</title>
<g id="a_Node000001"><a xlink:title=" ">
<polygon fill="#999999" stroke="#666666" points="695,-195 565,-195 565,-165 695,-165 695,-195"/>
<text text-anchor="start" x="573" y="-183" font-family="Helvetica,sans-Serif" font-size="10.00">src/fs/xfer/xfer_resume</text>
<text text-anchor="middle" x="630" y="-172" font-family="Helvetica,sans-Serif" font-size="10.00">_sweep.c</text>
</a>
</g>
</g>
<!-- Node2 -->
<g id="Node000002" class="node">
<title>Node2</title>
<g id="a_Node000002"><a xlink:href="xfer_8h.html" target="_top" xlink:title=" ">
<polygon fill="white" stroke="#666666" points="273,-129 229,-129 229,-110 273,-110 273,-129"/>
<text text-anchor="middle" x="251" y="-117" font-family="Helvetica,sans-Serif" font-size="10.00">xfer.h</text>
</a>
</g>
</g>
<!-- Node1&#45;&gt;Node2 -->
<g id="edge1_Node000001_Node000002" class="edge">
<title>Node1&#45;&gt;Node2</title>
<g id="a_edge1_Node000001_Node000002"><a xlink:title=" ">
<path fill="none" stroke="#63b8ff" d="M564.85,-168.94C482.82,-156.28 345.14,-135.03 283.06,-125.45"/>
<polygon fill="#63b8ff" stroke="#63b8ff" points="283.49,-121.97 273.07,-123.91 282.42,-128.89 283.49,-121.97"/>
</a>
</g>
</g>
<!-- Node7 -->
<g id="Node000007" class="node">
<title>Node7</title>
<g id="a_Node000007"><a xlink:title=" ">
<polygon fill="#e0e0e0" stroke="#999999" points="488,-19 424,-19 424,0 488,0 488,-19"/>
<text text-anchor="middle" x="456" y="-7" font-family="Helvetica,sans-Serif" font-size="10.00">sys/stat.h</text>
</a>
</g>
</g>
<!-- Node1&#45;&gt;Node7 -->
<g id="edge15_Node000001_Node000007" class="edge">
<title>Node1&#45;&gt;Node7</title>
<g id="a_edge15_Node000001_Node000007"><a xlink:title=" ">
<path fill="none" stroke="#63b8ff" d="M564.99,-171.5C512.87,-163.99 445.75,-150.42 429,-129 405.61,-99.08 428.46,-52.65 444.09,-27.72"/>
<polygon fill="#63b8ff" stroke="#63b8ff" points="447.06,-29.58 449.62,-19.3 441.2,-25.74 447.06,-29.58"/>
</a>
</g>
</g>
<!-- Node10 -->
<g id="Node000010" class="node">
<title>Node10</title>
<g id="a_Node000010"><a xlink:title=" ">
<polygon fill="#e0e0e0" stroke="#999999" points="515.5,-129 438.5,-129 438.5,-110 515.5,-110 515.5,-129"/>
<text text-anchor="middle" x="477" y="-117" font-family="Helvetica,sans-Serif" font-size="10.00">ngx_event.h</text>
</a>
</g>
</g>
<!-- Node1&#45;&gt;Node10 -->
<g id="edge10_Node000001_Node000010" class="edge">
<title>Node1&#45;&gt;Node10</title>
<g id="a_edge10_Node000001_Node000010"><a xlink:title=" ">
<path fill="none" stroke="#63b8ff" d="M593.35,-164.99C567.71,-155.18 533.78,-142.21 509.18,-132.81"/>
<polygon fill="#63b8ff" stroke="#63b8ff" points="510.19,-129.44 499.59,-129.14 507.69,-135.98 510.19,-129.44"/>
</a>
</g>
</g>
<!-- Node11 -->
<g id="Node000011" class="node">
<title>Node11</title>
<g id="a_Node000011"><a xlink:title=" ">
<polygon fill="#e0e0e0" stroke="#999999" points="588,-129 534,-129 534,-110 588,-110 588,-129"/>
<text text-anchor="middle" x="561" y="-117" font-family="Helvetica,sans-Serif" font-size="10.00">dirent.h</text>
</a>
</g>
</g>
<!-- Node1&#45;&gt;Node11 -->
<g id="edge11_Node000001_Node000011" class="edge">
<title>Node1&#45;&gt;Node11</title>
<g id="a_edge11_Node000001_Node000011"><a xlink:title=" ">
<path fill="none" stroke="#63b8ff" d="M613.3,-164.84C602.97,-156.09 589.72,-144.85 579.14,-135.88"/>
<polygon fill="#63b8ff" stroke="#63b8ff" points="581.23,-133.06 571.34,-129.27 576.7,-138.4 581.23,-133.06"/>
</a>
</g>
</g>
<!-- Node12 -->
<g id="Node000012" class="node">
<title>Node12</title>
<g id="a_Node000012"><a xlink:title=" ">
<polygon fill="#e0e0e0" stroke="#999999" points="653.5,-129 606.5,-129 606.5,-110 653.5,-110 653.5,-129"/>
<text text-anchor="middle" x="630" y="-117" font-family="Helvetica,sans-Serif" font-size="10.00">fcntl.h</text>
</a>
</g>
</g>
<!-- Node1&#45;&gt;Node12 -->
<g id="edge12_Node000001_Node000012" class="edge">
<title>Node1&#45;&gt;Node12</title>
<g id="a_edge12_Node000001_Node000012"><a xlink:title=" ">
<path fill="none" stroke="#63b8ff" d="M630,-164.84C630,-157.21 630,-147.7 630,-139.45"/>
<polygon fill="#63b8ff" stroke="#63b8ff" points="633.5,-139.27 630,-129.27 626.5,-139.27 633.5,-139.27"/>
</a>
</g>
</g>
<!-- Node13 -->
<g id="Node000013" class="node">
<title>Node13</title>
<g id="a_Node000013"><a xlink:title=" ">
<polygon fill="#e0e0e0" stroke="#999999" points="724.5,-129 671.5,-129 671.5,-110 724.5,-110 724.5,-129"/>
<text text-anchor="middle" x="698" y="-117" font-family="Helvetica,sans-Serif" font-size="10.00">stdlib.h</text>
</a>
</g>
</g>
<!-- Node1&#45;&gt;Node13 -->
<g id="edge13_Node000001_Node000013" class="edge">
<title>Node1&#45;&gt;Node13</title>
<g id="a_edge13_Node000001_Node000013"><a xlink:title=" ">
<path fill="none" stroke="#63b8ff" d="M646.46,-164.84C656.63,-156.09 669.69,-144.85 680.12,-135.88"/>
<polygon fill="#63b8ff" stroke="#63b8ff" points="682.51,-138.44 687.81,-129.27 677.95,-133.13 682.51,-138.44"/>
</a>
</g>
</g>
<!-- Node14 -->
<g id="Node000014" class="node">
<title>Node14</title>
<g id="a_Node000014"><a xlink:title=" ">
<polygon fill="#e0e0e0" stroke="#999999" points="795.5,-129 742.5,-129 742.5,-110 795.5,-110 795.5,-129"/>
<text text-anchor="middle" x="769" y="-117" font-family="Helvetica,sans-Serif" font-size="10.00">string.h</text>
</a>
</g>
</g>
<!-- Node1&#45;&gt;Node14 -->
<g id="edge14_Node000001_Node000014" class="edge">
<title>Node1&#45;&gt;Node14</title>
<g id="a_edge14_Node000001_Node000014"><a xlink:title=" ">
<path fill="none" stroke="#63b8ff" d="M663.29,-164.99C686.38,-155.27 716.87,-142.44 739.16,-133.06"/>
<polygon fill="#63b8ff" stroke="#63b8ff" points="740.61,-136.24 748.47,-129.14 737.9,-129.79 740.61,-136.24"/>
</a>
</g>
</g>
<!-- Node15 -->
<g id="Node000015" class="node">
<title>Node15</title>
<g id="a_Node000015"><a xlink:href="time_8h.html" target="_top" xlink:title=" ">
<polygon fill="white" stroke="#666666" points="862,-129 814,-129 814,-110 862,-110 862,-129"/>
<text text-anchor="middle" x="838" y="-117" font-family="Helvetica,sans-Serif" font-size="10.00">time.h</text>
</a>
</g>
</g>
<!-- Node1&#45;&gt;Node15 -->
<g id="edge16_Node000001_Node000015" class="edge">
<title>Node1&#45;&gt;Node15</title>
<g id="a_edge16_Node000001_Node000015"><a xlink:title=" ">
<path fill="none" stroke="#63b8ff" d="M679.82,-164.99C718.27,-154.17 770.42,-139.51 804.15,-130.02"/>
<polygon fill="#63b8ff" stroke="#63b8ff" points="805.31,-133.33 813.99,-127.25 803.41,-126.59 805.31,-133.33"/>
</a>
</g>
</g>
<!-- Node17 -->
<g id="Node000017" class="node">
<title>Node17</title>
<g id="a_Node000017"><a xlink:title=" ">
<polygon fill="#e0e0e0" stroke="#999999" points="954,-129 898,-129 898,-110 954,-110 954,-129"/>
<text text-anchor="middle" x="926" y="-117" font-family="Helvetica,sans-Serif" font-size="10.00">unistd.h</text>
</a>
</g>
</g>
<!-- Node1&#45;&gt;Node17 -->
<g id="edge19_Node000001_Node000017" class="edge">
<title>Node1&#45;&gt;Node17</title>
<g id="a_edge19_Node000001_Node000017"><a xlink:title=" ">
<path fill="none" stroke="#63b8ff" d="M695.06,-167.1C745.16,-157.78 816.39,-144.2 887.68,-129.22"/>
<polygon fill="#63b8ff" stroke="#63b8ff" points="888.68,-132.59 897.74,-127.1 887.23,-125.74 888.68,-132.59"/>
</a>
</g>
</g>
<!-- Node3 -->
<g id="Node000003" class="node">
<title>Node3</title>
<g id="a_Node000003"><a xlink:title=" ">
<polygon fill="#e0e0e0" stroke="#999999" points="70,-19 0,-19 0,0 70,0 70,-19"/>
<text text-anchor="middle" x="35" y="-7" font-family="Helvetica,sans-Serif" font-size="10.00">ngx_core.h</text>
</a>
</g>
</g>
<!-- Node2&#45;&gt;Node3 -->
<g id="edge2_Node000002_Node000003" class="edge">
<title>Node2&#45;&gt;Node3</title>
<g id="a_edge2_Node000002_Node000003"><a xlink:title=" ">
<path fill="none" stroke="#63b8ff" d="M233.69,-109.84C195.92,-90.96 105.91,-45.96 61.17,-23.59"/>
<polygon fill="#63b8ff" stroke="#63b8ff" points="62.6,-20.39 52.09,-19.05 59.47,-26.65 62.6,-20.39"/>
</a>
</g>
</g>
<!-- Node4 -->
<g id="Node000004" class="node">
<title>Node4</title>
<g id="a_Node000004"><a xlink:href="sd_8h.html" target="_top" xlink:title=" ">
<polygon fill="white" stroke="#666666" points="297,-74 205,-74 205,-55 297,-55 297,-74"/>
<text text-anchor="middle" x="251" y="-62" font-family="Helvetica,sans-Serif" font-size="10.00">fs/backend/sd.h</text>
</a>
</g>
</g>
<!-- Node2&#45;&gt;Node4 -->
<g id="edge3_Node000002_Node000004" class="edge">
<title>Node2&#45;&gt;Node4</title>
<g id="a_edge3_Node000002_Node000004"><a xlink:title=" ">
<path fill="none" stroke="#63b8ff" d="M251,-109.75C251,-102.8 251,-92.85 251,-84.13"/>
<polygon fill="#63b8ff" stroke="#63b8ff" points="254.5,-84.09 251,-74.09 247.5,-84.09 254.5,-84.09"/>
</a>
</g>
</g>
<!-- Node4&#45;&gt;Node3 -->
<g id="edge5_Node000004_Node000003" class="edge">
<title>Node4&#45;&gt;Node3</title>
<g id="a_edge5_Node000004_Node000003"><a xlink:title=" ">
<path fill="none" stroke="#63b8ff" d="M216.3,-54.98C179.25,-45.89 120.41,-31.46 79.87,-21.51"/>
<polygon fill="#63b8ff" stroke="#63b8ff" points="80.52,-18.07 69.98,-19.08 78.85,-24.86 80.52,-18.07"/>
</a>
</g>
</g>
<!-- Node5 -->
<g id="Node000005" class="node">
<title>Node5</title>
<g id="a_Node000005"><a xlink:title=" ">
<polygon fill="#e0e0e0" stroke="#999999" points="166,-19 88,-19 88,0 166,0 166,-19"/>
<text text-anchor="middle" x="127" y="-7" font-family="Helvetica,sans-Serif" font-size="10.00">ngx_config.h</text>
</a>
</g>
</g>
<!-- Node4&#45;&gt;Node5 -->
<g id="edge4_Node000004_Node000005" class="edge">
<title>Node4&#45;&gt;Node5</title>
<g id="a_edge4_Node000004_Node000005"><a xlink:title=" ">
<path fill="none" stroke="#63b8ff" d="M231.08,-54.98C210.95,-46.38 179.62,-32.99 156.59,-23.15"/>
<polygon fill="#63b8ff" stroke="#63b8ff" points="157.86,-19.88 147.29,-19.17 155.1,-26.32 157.86,-19.88"/>
</a>
</g>
</g>
<!-- Node6 -->
<g id="Node000006" class="node">
<title>Node6</title>
<g id="a_Node000006"><a xlink:title=" ">
<polygon fill="#e0e0e0" stroke="#999999" points="237.5,-19 184.5,-19 184.5,0 237.5,0 237.5,-19"/>
<text text-anchor="middle" x="211" y="-7" font-family="Helvetica,sans-Serif" font-size="10.00">stdint.h</text>
</a>
</g>
</g>
<!-- Node4&#45;&gt;Node6 -->
<g id="edge6_Node000004_Node000006" class="edge">
<title>Node4&#45;&gt;Node6</title>
<g id="a_edge6_Node000004_Node000006"><a xlink:title=" ">
<path fill="none" stroke="#63b8ff" d="M244.39,-54.75C238.74,-47.26 230.46,-36.28 223.55,-27.13"/>
<polygon fill="#63b8ff" stroke="#63b8ff" points="226.3,-24.96 217.48,-19.09 220.71,-29.18 226.3,-24.96"/>
</a>
</g>
</g>
<!-- Node4&#45;&gt;Node7 -->
<g id="edge7_Node000004_Node000007" class="edge">
<title>Node4&#45;&gt;Node7</title>
<g id="a_edge7_Node000004_Node000007"><a xlink:title=" ">
<path fill="none" stroke="#63b8ff" d="M283.94,-54.98C319.26,-45.85 375.46,-31.32 413.95,-21.37"/>
<polygon fill="#63b8ff" stroke="#63b8ff" points="415.02,-24.71 423.82,-18.82 413.26,-17.93 415.02,-24.71"/>
</a>
</g>
</g>
<!-- Node8 -->
<g id="Node000008" class="node">
<title>Node8</title>
<g id="a_Node000008"><a xlink:title=" ">
<polygon fill="#e0e0e0" stroke="#999999" points="328,-19 256,-19 256,0 328,0 328,-19"/>
<text text-anchor="middle" x="292" y="-7" font-family="Helvetica,sans-Serif" font-size="10.00">sys/types.h</text>
</a>
</g>
</g>
<!-- Node4&#45;&gt;Node8 -->
<g id="edge8_Node000004_Node000008" class="edge">
<title>Node4&#45;&gt;Node8</title>
<g id="a_edge8_Node000004_Node000008"><a xlink:title=" ">
<path fill="none" stroke="#63b8ff" d="M257.77,-54.75C263.56,-47.26 272.06,-36.28 279.14,-27.13"/>
<polygon fill="#63b8ff" stroke="#63b8ff" points="282.01,-29.14 285.36,-19.09 276.47,-24.86 282.01,-29.14"/>
</a>
</g>
</g>
<!-- Node9 -->
<g id="Node000009" class="node">
<title>Node9</title>
<g id="a_Node000009"><a xlink:title=" ">
<polygon fill="#e0e0e0" stroke="#999999" points="406,-19 346,-19 346,0 406,0 406,-19"/>
<text text-anchor="middle" x="376" y="-7" font-family="Helvetica,sans-Serif" font-size="10.00">sys/uio.h</text>
</a>
</g>
</g>
<!-- Node4&#45;&gt;Node9 -->
<g id="edge9_Node000004_Node000009" class="edge">
<title>Node4&#45;&gt;Node9</title>
<g id="a_edge9_Node000004_Node000009"><a xlink:title=" ">
<path fill="none" stroke="#63b8ff" d="M271.08,-54.98C291.37,-46.38 322.96,-32.99 346.17,-23.15"/>
<polygon fill="#63b8ff" stroke="#63b8ff" points="347.71,-26.3 355.55,-19.17 344.98,-19.85 347.71,-26.3"/>
</a>
</g>
</g>
<!-- Node15&#45;&gt;Node15 -->
<g id="edge18_Node000015_Node000015" class="edge">
<title>Node15&#45;&gt;Node15</title>
<g id="a_edge18_Node000015_Node000015"><a xlink:title=" ">
<path fill="none" stroke="#63b8ff" d="M857.88,-129.07C869.33,-131.02 880,-127.83 880,-119.5 880,-113.77 874.96,-110.47 868.08,-109.61"/>
<polygon fill="#63b8ff" stroke="#63b8ff" points="867.76,-106.12 857.88,-109.93 867.98,-113.11 867.76,-106.12"/>
</a>
</g>
</g>
<!-- Node16 -->
<g id="Node000016" class="node">
<title>Node16</title>
<g id="a_Node000016"><a xlink:title=" ">
<polygon fill="#e0e0e0" stroke="#999999" points="866,-74 810,-74 810,-55 866,-55 866,-74"/>
<text text-anchor="middle" x="838" y="-62" font-family="Helvetica,sans-Serif" font-size="10.00">stddef.h</text>
</a>
</g>
</g>
<!-- Node15&#45;&gt;Node16 -->
<g id="edge17_Node000015_Node000016" class="edge">
<title>Node15&#45;&gt;Node16</title>
<g id="a_edge17_Node000015_Node000016"><a xlink:title=" ">
<path fill="none" stroke="#63b8ff" d="M838,-109.75C838,-102.8 838,-92.85 838,-84.13"/>
<polygon fill="#63b8ff" stroke="#63b8ff" points="841.5,-84.09 838,-74.09 834.5,-84.09 841.5,-84.09"/>
</a>
</g>
</g>
</g>
</svg>
