<?xml version="1.0" encoding="UTF-8" standalone="no"?>
<!DOCTYPE svg PUBLIC "-//W3C//DTD SVG 1.1//EN"
 "http://www.w3.org/Graphics/SVG/1.1/DTD/svg11.dtd">
<!-- Generated by graphviz version 2.43.0 (0)
 -->
<!-- Title: src/fs/xfer/xfer.h Pages: 1 -->
<svg width="2636pt" height="159pt"
 viewBox="0.00 0.00 2635.50 159.00" xmlns="http://www.w3.org/2000/svg" xmlns:xlink="http://www.w3.org/1999/xlink">
<g id="graph0" class="graph" transform="scale(1 1) rotate(0) translate(4 155)">
<title>src/fs/xfer/xfer.h</title>
<!-- Node1 -->
<g id="Node000001" class="node">
<title>Node1</title>
<g id="a_Node000001"><a xlink:title=" ">
<polygon fill="#999999" stroke="#666666" points="1248.5,-151 1152.5,-151 1152.5,-132 1248.5,-132 1248.5,-151"/>
<text text-anchor="middle" x="1200.5" y="-139" font-family="Helvetica,sans-Serif" font-size="10.00">src/fs/xfer/xfer.h</text>
</a>
</g>
</g>
<!-- Node2 -->
<g id="Node000002" class="node">
<title>Node2</title>
<g id="a_Node000002"><a xlink:href="staged__file__commit_8c.html" target="_top" xlink:title=" ">
<polygon fill="white" stroke="#666666" points="131,-96 0,-96 0,-66 131,-66 131,-96"/>
<text text-anchor="start" x="8" y="-84" font-family="Helvetica,sans-Serif" font-size="10.00">src/core/compat/staged</text>
<text text-anchor="middle" x="65.5" y="-73" font-family="Helvetica,sans-Serif" font-size="10.00">_file_commit.c</text>
</a>
</g>
</g>
<!-- Node1&#45;&gt;Node2 -->
<g id="edge1_Node000001_Node000002" class="edge">
<title>Node1&#45;&gt;Node2</title>
<g id="a_edge1_Node000001_Node000002"><a xlink:title=" ">
<path fill="none" stroke="#63b8ff" d="M1142.11,-140.96C981.64,-141.61 520.59,-139.23 140.5,-96 137.47,-95.66 134.38,-95.26 131.27,-94.83"/>
<polygon fill="#63b8ff" stroke="#63b8ff" points="1142.26,-144.46 1152.24,-140.92 1142.22,-137.46 1142.26,-144.46"/>
</a>
</g>
</g>
<!-- Node3 -->
<g id="Node000003" class="node">
<title>Node3</title>
<g id="a_Node000003"><a xlink:href="process__server__init_8c.html" target="_top" xlink:title=" ">
<polygon fill="white" stroke="#666666" points="277.5,-96 149.5,-96 149.5,-66 277.5,-66 277.5,-96"/>
<text text-anchor="start" x="157.5" y="-84" font-family="Helvetica,sans-Serif" font-size="10.00">src/core/config/process</text>
<text text-anchor="middle" x="213.5" y="-73" font-family="Helvetica,sans-Serif" font-size="10.00">_server_init.c</text>
</a>
</g>
</g>
<!-- Node1&#45;&gt;Node3 -->
<g id="edge2_Node000001_Node000003" class="edge">
<title>Node1&#45;&gt;Node3</title>
<g id="a_edge2_Node000001_Node000003"><a xlink:title=" ">
<path fill="none" stroke="#63b8ff" d="M1142.21,-140.5C997.08,-139.89 608.07,-134.47 286.5,-96 283.55,-95.65 280.55,-95.25 277.51,-94.81"/>
<polygon fill="#63b8ff" stroke="#63b8ff" points="1142.22,-144 1152.24,-140.54 1142.25,-137 1142.22,-144"/>
</a>
</g>
</g>
<!-- Node4 -->
<g id="Node000004" class="node">
<title>Node4</title>
<g id="a_Node000004"><a xlink:href="vfs__staged_8c.html" target="_top" xlink:title=" ">
<polygon fill="white" stroke="#666666" points="421,-90.5 296,-90.5 296,-71.5 421,-71.5 421,-90.5"/>
<text text-anchor="middle" x="358.5" y="-78.5" font-family="Helvetica,sans-Serif" font-size="10.00">src/fs/vfs/vfs_staged.c</text>
</a>
</g>
</g>
<!-- Node1&#45;&gt;Node4 -->
<g id="edge3_Node000001_Node000004" class="edge">
<title>Node1&#45;&gt;Node4</title>
<g id="a_edge3_Node000001_Node000004"><a xlink:title=" ">
<path fill="none" stroke="#63b8ff" d="M1142.06,-139.52C1013.76,-136.85 697.93,-127.37 435.5,-96 424.03,-94.63 411.69,-92.63 400.32,-90.56"/>
<polygon fill="#63b8ff" stroke="#63b8ff" points="1142.36,-143.03 1152.43,-139.73 1142.5,-136.03 1142.36,-143.03"/>
</a>
</g>
</g>
<!-- Node5 -->
<g id="Node000005" class="node">
<title>Node5</title>
<g id="a_Node000005"><a xlink:href="stage__engine_8c.html" target="_top" xlink:title=" ">
<polygon fill="white" stroke="#666666" points="402.5,-24.5 260.5,-24.5 260.5,-5.5 402.5,-5.5 402.5,-24.5"/>
<text text-anchor="middle" x="331.5" y="-12.5" font-family="Helvetica,sans-Serif" font-size="10.00">src/fs/xfer/stage_engine.c</text>
</a>
</g>
</g>
<!-- Node1&#45;&gt;Node5 -->
<g id="edge4_Node000001_Node000005" class="edge">
<title>Node1&#45;&gt;Node5</title>
<g id="a_edge4_Node000001_Node000005"><a xlink:title=" ">
<path fill="none" stroke="#63b8ff" d="M1141.97,-140.06C994.06,-138.45 608.32,-130.92 485.5,-96 458.34,-88.28 454.52,-79.08 429.5,-66 401.23,-51.22 368.14,-34.45 348.55,-24.57"/>
<polygon fill="#63b8ff" stroke="#63b8ff" points="1142.17,-143.57 1152.21,-140.17 1142.24,-136.57 1142.17,-143.57"/>
</a>
</g>
</g>
<!-- Node6 -->
<g id="Node000006" class="node">
<title>Node6</title>
<g id="a_Node000006"><a xlink:href="stage__engine__internal_8h.html" target="_top" xlink:title=" ">
<polygon fill="white" stroke="#666666" points="649.5,-96 515.5,-96 515.5,-66 649.5,-66 649.5,-96"/>
<text text-anchor="start" x="523.5" y="-84" font-family="Helvetica,sans-Serif" font-size="10.00">src/fs/xfer/stage_engine</text>
<text text-anchor="middle" x="582.5" y="-73" font-family="Helvetica,sans-Serif" font-size="10.00">_internal.h</text>
</a>
</g>
</g>
<!-- Node1&#45;&gt;Node6 -->
<g id="edge5_Node000001_Node000006" class="edge">
<title>Node1&#45;&gt;Node6</title>
<g id="a_edge5_Node000001_Node000006"><a xlink:title=" ">
<path fill="none" stroke="#63b8ff" d="M1142.13,-137.36C1043.33,-131.66 836.92,-118.13 663.5,-96 658.97,-95.42 654.31,-94.77 649.61,-94.07"/>
<polygon fill="#63b8ff" stroke="#63b8ff" points="1142.03,-140.86 1152.21,-137.93 1142.43,-133.87 1142.03,-140.86"/>
</a>
</g>
</g>
<!-- Node7 -->
<g id="Node000007" class="node">
<title>Node7</title>
<g id="a_Node000007"><a xlink:href="stage__engine__journal_8c.html" target="_top" xlink:title=" ">
<polygon fill="white" stroke="#666666" points="554.5,-30 420.5,-30 420.5,0 554.5,0 554.5,-30"/>
<text text-anchor="start" x="428.5" y="-18" font-family="Helvetica,sans-Serif" font-size="10.00">src/fs/xfer/stage_engine</text>
<text text-anchor="middle" x="487.5" y="-7" font-family="Helvetica,sans-Serif" font-size="10.00">_journal.c</text>
</a>
</g>
</g>
<!-- Node1&#45;&gt;Node7 -->
<g id="edge10_Node000001_Node000007" class="edge">
<title>Node1&#45;&gt;Node7</title>
<g id="a_edge10_Node000001_Node000007"><a xlink:title=" ">
<path fill="none" stroke="#63b8ff" d="M1142.48,-140.66C984.39,-140.58 554.58,-136.57 506.5,-96 487.41,-79.89 485.54,-48.42 486.27,-30.12"/>
<polygon fill="#63b8ff" stroke="#63b8ff" points="1142.5,-144.16 1152.5,-140.66 1142.5,-137.16 1142.5,-144.16"/>
</a>
</g>
</g>
<!-- Node9 -->
<g id="Node000009" class="node">
<title>Node9</title>
<g id="a_Node000009"><a xlink:href="stage__engine__scheduler_8c.html" target="_top" xlink:title=" ">
<polygon fill="white" stroke="#666666" points="858.5,-30 724.5,-30 724.5,0 858.5,0 858.5,-30"/>
<text text-anchor="start" x="732.5" y="-18" font-family="Helvetica,sans-Serif" font-size="10.00">src/fs/xfer/stage_engine</text>
<text text-anchor="middle" x="791.5" y="-7" font-family="Helvetica,sans-Serif" font-size="10.00">_scheduler.c</text>
</a>
</g>
</g>
<!-- Node1&#45;&gt;Node9 -->
<g id="edge11_Node000001_Node000009" class="edge">
<title>Node1&#45;&gt;Node9</title>
<g id="a_edge11_Node000001_Node000009"><a xlink:title=" ">
<path fill="none" stroke="#63b8ff" d="M1141.81,-139.67C1015.33,-137.28 726.07,-128.3 696.5,-96 672.91,-70.24 717.22,-45.04 752.94,-30.02"/>
<polygon fill="#63b8ff" stroke="#63b8ff" points="1142.02,-143.18 1152.08,-139.86 1142.15,-136.18 1142.02,-143.18"/>
</a>
</g>
</g>
<!-- Node10 -->
<g id="Node000010" class="node">
<title>Node10</title>
<g id="a_Node000010"><a xlink:href="xfer__core_8c.html" target="_top" xlink:title=" ">
<polygon fill="white" stroke="#666666" points="827.5,-90.5 705.5,-90.5 705.5,-71.5 827.5,-71.5 827.5,-90.5"/>
<text text-anchor="middle" x="766.5" y="-78.5" font-family="Helvetica,sans-Serif" font-size="10.00">src/fs/xfer/xfer_core.c</text>
</a>
</g>
</g>
<!-- Node1&#45;&gt;Node10 -->
<g id="edge12_Node000001_Node000010" class="edge">
<title>Node1&#45;&gt;Node10</title>
<g id="a_edge12_Node000001_Node000010"><a xlink:title=" ">
<path fill="none" stroke="#63b8ff" d="M1142.29,-134.68C1070.44,-127.2 944.62,-113.1 837.5,-96 827.57,-94.42 816.92,-92.45 806.96,-90.51"/>
<polygon fill="#63b8ff" stroke="#63b8ff" points="1142.18,-138.19 1152.49,-135.74 1142.9,-131.23 1142.18,-138.19"/>
</a>
</g>
</g>
<!-- Node11 -->
<g id="Node000011" class="node">
<title>Node11</title>
<g id="a_Node000011"><a xlink:href="xfer__ledger_8c.html" target="_top" xlink:title=" ">
<polygon fill="white" stroke="#666666" points="977,-90.5 846,-90.5 846,-71.5 977,-71.5 977,-90.5"/>
<text text-anchor="middle" x="911.5" y="-78.5" font-family="Helvetica,sans-Serif" font-size="10.00">src/fs/xfer/xfer_ledger.c</text>
</a>
</g>
</g>
<!-- Node1&#45;&gt;Node11 -->
<g id="edge13_Node000001_Node000011" class="edge">
<title>Node1&#45;&gt;Node11</title>
<g id="a_edge13_Node000001_Node000011"><a xlink:title=" ">
<path fill="none" stroke="#63b8ff" d="M1148.44,-129.96C1092.66,-118.67 1005.18,-100.96 953.57,-90.52"/>
<polygon fill="#63b8ff" stroke="#63b8ff" points="1147.98,-133.44 1158.48,-131.99 1149.37,-126.58 1147.98,-133.44"/>
</a>
</g>
</g>
<!-- Node12 -->
<g id="Node000012" class="node">
<title>Node12</title>
<g id="a_Node000012"><a xlink:href="xfer__mover__agent_8c.html" target="_top" xlink:title=" ">
<polygon fill="white" stroke="#666666" points="1120,-96 995,-96 995,-66 1120,-66 1120,-96"/>
<text text-anchor="start" x="1003" y="-84" font-family="Helvetica,sans-Serif" font-size="10.00">src/fs/xfer/xfer_mover</text>
<text text-anchor="middle" x="1057.5" y="-73" font-family="Helvetica,sans-Serif" font-size="10.00">_agent.c</text>
</a>
</g>
</g>
<!-- Node1&#45;&gt;Node12 -->
<g id="edge14_Node000001_Node000012" class="edge">
<title>Node1&#45;&gt;Node12</title>
<g id="a_edge14_Node000001_Node000012"><a xlink:title=" ">
<path fill="none" stroke="#63b8ff" d="M1170.45,-128.21C1147.5,-118.82 1115.84,-105.87 1091.88,-96.06"/>
<polygon fill="#63b8ff" stroke="#63b8ff" points="1169.13,-131.45 1179.71,-131.99 1171.78,-124.97 1169.13,-131.45"/>
</a>
</g>
</g>
<!-- Node13 -->
<g id="Node000013" class="node">
<title>Node13</title>
<g id="a_Node000013"><a xlink:href="xfer__mover__pump_8c.html" target="_top" xlink:title=" ">
<polygon fill="white" stroke="#666666" points="1263,-96 1138,-96 1138,-66 1263,-66 1263,-96"/>
<text text-anchor="start" x="1146" y="-84" font-family="Helvetica,sans-Serif" font-size="10.00">src/fs/xfer/xfer_mover</text>
<text text-anchor="middle" x="1200.5" y="-73" font-family="Helvetica,sans-Serif" font-size="10.00">_pump.c</text>
</a>
</g>
</g>
<!-- Node1&#45;&gt;Node13 -->
<g id="edge15_Node000001_Node000013" class="edge">
<title>Node1&#45;&gt;Node13</title>
<g id="a_edge15_Node000001_Node000013"><a xlink:title=" ">
<path fill="none" stroke="#63b8ff" d="M1200.5,-121.65C1200.5,-113.36 1200.5,-103.78 1200.5,-96.11"/>
<polygon fill="#63b8ff" stroke="#63b8ff" points="1197,-121.87 1200.5,-131.87 1204,-121.87 1197,-121.87"/>
</a>
</g>
</g>
<!-- Node14 -->
<g id="Node000014" class="node">
<title>Node14</title>
<g id="a_Node000014"><a xlink:href="xfer__resume__sweep_8c.html" target="_top" xlink:title=" ">
<polygon fill="white" stroke="#666666" points="1411.5,-96 1281.5,-96 1281.5,-66 1411.5,-66 1411.5,-96"/>
<text text-anchor="start" x="1289.5" y="-84" font-family="Helvetica,sans-Serif" font-size="10.00">src/fs/xfer/xfer_resume</text>
<text text-anchor="middle" x="1346.5" y="-73" font-family="Helvetica,sans-Serif" font-size="10.00">_sweep.c</text>
</a>
</g>
</g>
<!-- Node1&#45;&gt;Node14 -->
<g id="edge16_Node000001_Node000014" class="edge">
<title>Node1&#45;&gt;Node14</title>
<g id="a_edge16_Node000001_Node000014"><a xlink:title=" ">
<path fill="none" stroke="#63b8ff" d="M1231.18,-128.21C1254.61,-118.82 1286.94,-105.87 1311.4,-96.06"/>
<polygon fill="#63b8ff" stroke="#63b8ff" points="1229.71,-125.03 1221.73,-131.99 1232.31,-131.52 1229.71,-125.03"/>
</a>
</g>
</g>
<!-- Node15 -->
<g id="Node000015" class="node">
<title>Node15</title>
<g id="a_Node000015"><a xlink:href="close_8c.html" target="_top" xlink:title=" ">
<polygon fill="white" stroke="#666666" points="1531,-96 1430,-96 1430,-66 1531,-66 1531,-96"/>
<text text-anchor="start" x="1438" y="-84" font-family="Helvetica,sans-Serif" font-size="10.00">src/protocols/root</text>
<text text-anchor="middle" x="1480.5" y="-73" font-family="Helvetica,sans-Serif" font-size="10.00">/read/close.c</text>
</a>
</g>
</g>
<!-- Node1&#45;&gt;Node15 -->
<g id="edge17_Node000001_Node000015" class="edge">
<title>Node1&#45;&gt;Node15</title>
<g id="a_edge17_Node000001_Node000015"><a xlink:title=" ">
<path fill="none" stroke="#63b8ff" d="M1254.86,-129.97C1299.45,-121.22 1364.16,-108.27 1420.5,-96 1423.53,-95.34 1426.65,-94.65 1429.78,-93.94"/>
<polygon fill="#63b8ff" stroke="#63b8ff" points="1253.97,-126.58 1244.83,-131.93 1255.31,-133.45 1253.97,-126.58"/>
</a>
</g>
</g>
<!-- Node16 -->
<g id="Node000016" class="node">
<title>Node16</title>
<g id="a_Node000016"><a xlink:href="put__finalize_8c.html" target="_top" xlink:title=" ">
<polygon fill="white" stroke="#666666" points="1661.5,-96 1549.5,-96 1549.5,-66 1661.5,-66 1661.5,-96"/>
<text text-anchor="start" x="1557.5" y="-84" font-family="Helvetica,sans-Serif" font-size="10.00">src/protocols/s3/put</text>
<text text-anchor="middle" x="1605.5" y="-73" font-family="Helvetica,sans-Serif" font-size="10.00">_finalize.c</text>
</a>
</g>
</g>
<!-- Node1&#45;&gt;Node16 -->
<g id="edge18_Node000001_Node000016" class="edge">
<title>Node1&#45;&gt;Node16</title>
<g id="a_edge18_Node000001_Node000016"><a xlink:title=" ">
<path fill="none" stroke="#63b8ff" d="M1258.61,-134.36C1326.48,-126.86 1442.02,-113.02 1540.5,-96 1543.34,-95.51 1546.25,-94.98 1549.18,-94.42"/>
<polygon fill="#63b8ff" stroke="#63b8ff" points="1258.11,-130.9 1248.55,-135.47 1258.87,-137.86 1258.11,-130.9"/>
</a>
</g>
</g>
<!-- Node17 -->
<g id="Node000017" class="node">
<title>Node17</title>
<g id="a_Node000017"><a xlink:href="webdav_2put_8c.html" target="_top" xlink:title=" ">
<polygon fill="white" stroke="#666666" points="1799.5,-96 1679.5,-96 1679.5,-66 1799.5,-66 1799.5,-96"/>
<text text-anchor="start" x="1687.5" y="-84" font-family="Helvetica,sans-Serif" font-size="10.00">src/protocols/webdav</text>
<text text-anchor="middle" x="1739.5" y="-73" font-family="Helvetica,sans-Serif" font-size="10.00">/put.c</text>
</a>
</g>
</g>
<!-- Node1&#45;&gt;Node17 -->
<g id="edge19_Node000001_Node000017" class="edge">
<title>Node1&#45;&gt;Node17</title>
<g id="a_edge19_Node000001_Node000017"><a xlink:title=" ">
<path fill="none" stroke="#63b8ff" d="M1258.91,-136.96C1348.02,-131.12 1523.1,-117.87 1670.5,-96 1673.4,-95.57 1676.37,-95.1 1679.36,-94.59"/>
<polygon fill="#63b8ff" stroke="#63b8ff" points="1258.49,-133.48 1248.74,-137.62 1258.95,-140.47 1258.49,-133.48"/>
</a>
</g>
</g>
<!-- Node18 -->
<g id="Node000018" class="node">
<title>Node18</title>
<g id="a_Node000018"><a xlink:href="put__body_8c.html" target="_top" xlink:title=" ">
<polygon fill="white" stroke="#666666" points="1937.5,-96 1817.5,-96 1817.5,-66 1937.5,-66 1937.5,-96"/>
<text text-anchor="start" x="1825.5" y="-84" font-family="Helvetica,sans-Serif" font-size="10.00">src/protocols/webdav</text>
<text text-anchor="middle" x="1877.5" y="-73" font-family="Helvetica,sans-Serif" font-size="10.00">/put_body.c</text>
</a>
</g>
</g>
<!-- Node1&#45;&gt;Node18 -->
<g id="edge20_Node000001_Node000018" class="edge">
<title>Node1&#45;&gt;Node18</title>
<g id="a_edge20_Node000001_Node000018"><a xlink:title=" ">
<path fill="none" stroke="#63b8ff" d="M1258.89,-138.7C1367.53,-134.79 1607.89,-123.58 1808.5,-96 1811.41,-95.6 1814.37,-95.15 1817.37,-94.67"/>
<polygon fill="#63b8ff" stroke="#63b8ff" points="1258.67,-135.2 1248.8,-139.05 1258.91,-142.2 1258.67,-135.2"/>
</a>
</g>
</g>
<!-- Node19 -->
<g id="Node000019" class="node">
<title>Node19</title>
<g id="a_Node000019"><a xlink:href="tpc_8c.html" target="_top" xlink:title=" ">
<polygon fill="white" stroke="#666666" points="2075.5,-96 1955.5,-96 1955.5,-66 2075.5,-66 2075.5,-96"/>
<text text-anchor="start" x="1963.5" y="-84" font-family="Helvetica,sans-Serif" font-size="10.00">src/protocols/webdav</text>
<text text-anchor="middle" x="2015.5" y="-73" font-family="Helvetica,sans-Serif" font-size="10.00">/tpc.c</text>
</a>
</g>
</g>
<!-- Node1&#45;&gt;Node19 -->
<g id="edge21_Node000001_Node000019" class="edge">
<title>Node1&#45;&gt;Node19</title>
<g id="a_edge21_Node000001_Node000019"><a xlink:title=" ">
<path fill="none" stroke="#63b8ff" d="M1258.92,-139.8C1385.01,-137.69 1691.85,-129.26 1946.5,-96 1949.41,-95.62 1952.38,-95.19 1955.37,-94.72"/>
<polygon fill="#63b8ff" stroke="#63b8ff" points="1258.67,-136.31 1248.72,-139.97 1258.78,-143.31 1258.67,-136.31"/>
</a>
</g>
</g>
<!-- Node20 -->
<g id="Node000020" class="node">
<title>Node20</title>
<g id="a_Node000020"><a xlink:href="tpc__copy_8c.html" target="_top" xlink:title=" ">
<polygon fill="white" stroke="#666666" points="2213.5,-96 2093.5,-96 2093.5,-66 2213.5,-66 2213.5,-96"/>
<text text-anchor="start" x="2101.5" y="-84" font-family="Helvetica,sans-Serif" font-size="10.00">src/protocols/webdav</text>
<text text-anchor="middle" x="2153.5" y="-73" font-family="Helvetica,sans-Serif" font-size="10.00">/tpc_copy.c</text>
</a>
</g>
</g>
<!-- Node1&#45;&gt;Node20 -->
<g id="edge22_Node000001_Node000020" class="edge">
<title>Node1&#45;&gt;Node20</title>
<g id="a_edge22_Node000001_Node000020"><a xlink:title=" ">
<path fill="none" stroke="#63b8ff" d="M1258.85,-140.58C1400.78,-140.11 1775.12,-134.95 2084.5,-96 2087.41,-95.63 2090.38,-95.21 2093.38,-94.75"/>
<polygon fill="#63b8ff" stroke="#63b8ff" points="1258.62,-137.08 1248.63,-140.6 1258.64,-144.08 1258.62,-137.08"/>
</a>
</g>
</g>
<!-- Node21 -->
<g id="Node000021" class="node">
<title>Node21</title>
<g id="a_Node000021"><a xlink:href="tpc__pull_8c.html" target="_top" xlink:title=" ">
<polygon fill="white" stroke="#666666" points="2351.5,-96 2231.5,-96 2231.5,-66 2351.5,-66 2351.5,-96"/>
<text text-anchor="start" x="2239.5" y="-84" font-family="Helvetica,sans-Serif" font-size="10.00">src/protocols/webdav</text>
<text text-anchor="middle" x="2291.5" y="-73" font-family="Helvetica,sans-Serif" font-size="10.00">/tpc_pull.c</text>
</a>
</g>
</g>
<!-- Node1&#45;&gt;Node21 -->
<g id="edge23_Node000001_Node000021" class="edge">
<title>Node1&#45;&gt;Node21</title>
<g id="a_edge23_Node000001_Node000021"><a xlink:title=" ">
<path fill="none" stroke="#63b8ff" d="M1258.96,-141.15C1415.67,-142.2 1858.04,-140.63 2222.5,-96 2225.41,-95.64 2228.38,-95.23 2231.38,-94.78"/>
<polygon fill="#63b8ff" stroke="#63b8ff" points="1258.64,-137.65 1248.61,-141.07 1258.58,-144.65 1258.64,-137.65"/>
</a>
</g>
</g>
<!-- Node22 -->
<g id="Node000022" class="node">
<title>Node22</title>
<g id="a_Node000022"><a xlink:href="tpc__push_8c.html" target="_top" xlink:title=" ">
<polygon fill="white" stroke="#666666" points="2489.5,-96 2369.5,-96 2369.5,-66 2489.5,-66 2489.5,-96"/>
<text text-anchor="start" x="2377.5" y="-84" font-family="Helvetica,sans-Serif" font-size="10.00">src/protocols/webdav</text>
<text text-anchor="middle" x="2429.5" y="-73" font-family="Helvetica,sans-Serif" font-size="10.00">/tpc_push.c</text>
</a>
</g>
</g>
<!-- Node1&#45;&gt;Node22 -->
<g id="edge24_Node000001_Node000022" class="edge">
<title>Node1&#45;&gt;Node22</title>
<g id="a_edge24_Node000001_Node000022"><a xlink:title=" ">
<path fill="none" stroke="#63b8ff" d="M1258.7,-139.51C1462.55,-135.87 2143.65,-121.98 2360.5,-96 2363.41,-95.65 2366.39,-95.24 2369.38,-94.79"/>
<polygon fill="#63b8ff" stroke="#63b8ff" points="1258.44,-136.02 1248.51,-139.7 1258.57,-143.02 1258.44,-136.02"/>
</a>
</g>
</g>
<!-- Node23 -->
<g id="Node000023" class="node">
<title>Node23</title>
<g id="a_Node000023"><a xlink:href="tpc__thread_8c.html" target="_top" xlink:title=" ">
<polygon fill="white" stroke="#666666" points="2627.5,-96 2507.5,-96 2507.5,-66 2627.5,-66 2627.5,-96"/>
<text text-anchor="start" x="2515.5" y="-84" font-family="Helvetica,sans-Serif" font-size="10.00">src/protocols/webdav</text>
<text text-anchor="middle" x="2567.5" y="-73" font-family="Helvetica,sans-Serif" font-size="10.00">/tpc_thread.c</text>
</a>
</g>
</g>
<!-- Node1&#45;&gt;Node23 -->
<g id="edge25_Node000001_Node000023" class="edge">
<title>Node1&#45;&gt;Node23</title>
<g id="a_edge25_Node000001_Node000023"><a xlink:title=" ">
<path fill="none" stroke="#63b8ff" d="M1258.57,-139.79C1477.54,-136.92 2253.27,-124.88 2498.5,-96 2501.41,-95.66 2504.39,-95.26 2507.38,-94.81"/>
<polygon fill="#63b8ff" stroke="#63b8ff" points="1258.52,-136.29 1248.57,-139.92 1258.61,-143.29 1258.52,-136.29"/>
</a>
</g>
</g>
<!-- Node6&#45;&gt;Node5 -->
<g id="edge6_Node000006_Node000005" class="edge">
<title>Node6&#45;&gt;Node5</title>
<g id="a_edge6_Node000006_Node000005"><a xlink:title=" ">
<path fill="none" stroke="#63b8ff" d="M517.56,-63.44C468.7,-50.98 403.72,-34.42 364.9,-24.52"/>
<polygon fill="#63b8ff" stroke="#63b8ff" points="516.86,-66.88 527.42,-65.95 518.59,-60.09 516.86,-66.88"/>
</a>
</g>
</g>
<!-- Node6&#45;&gt;Node7 -->
<g id="edge7_Node000006_Node000007" class="edge">
<title>Node6&#45;&gt;Node7</title>
<g id="a_edge7_Node000006_Node000007"><a xlink:title=" ">
<path fill="none" stroke="#63b8ff" d="M552.85,-60.03C538.48,-50.34 521.55,-38.94 508.52,-30.16"/>
<polygon fill="#63b8ff" stroke="#63b8ff" points="551.17,-63.11 561.42,-65.8 555.08,-57.31 551.17,-63.11"/>
</a>
</g>
</g>
<!-- Node8 -->
<g id="Node000008" class="node">
<title>Node8</title>
<g id="a_Node000008"><a xlink:href="stage__engine__reconcile_8c.html" target="_top" xlink:title=" ">
<polygon fill="white" stroke="#666666" points="706.5,-30 572.5,-30 572.5,0 706.5,0 706.5,-30"/>
<text text-anchor="start" x="580.5" y="-18" font-family="Helvetica,sans-Serif" font-size="10.00">src/fs/xfer/stage_engine</text>
<text text-anchor="middle" x="639.5" y="-7" font-family="Helvetica,sans-Serif" font-size="10.00">_reconcile.c</text>
</a>
</g>
</g>
<!-- Node6&#45;&gt;Node8 -->
<g id="edge8_Node000006_Node000008" class="edge">
<title>Node6&#45;&gt;Node8</title>
<g id="a_edge8_Node000006_Node000008"><a xlink:title=" ">
<path fill="none" stroke="#63b8ff" d="M602.02,-58.09C610.24,-48.85 619.59,-38.36 626.89,-30.16"/>
<polygon fill="#63b8ff" stroke="#63b8ff" points="599.19,-56 595.15,-65.8 604.41,-60.66 599.19,-56"/>
</a>
</g>
</g>
<!-- Node6&#45;&gt;Node9 -->
<g id="edge9_Node000006_Node000009" class="edge">
<title>Node6&#45;&gt;Node9</title>
<g id="a_edge9_Node000006_Node000009"><a xlink:title=" ">
<path fill="none" stroke="#63b8ff" d="M638.05,-62.99C671.68,-52.69 714.05,-39.72 745.74,-30.01"/>
<polygon fill="#63b8ff" stroke="#63b8ff" points="636.9,-59.68 628.37,-65.95 638.95,-66.37 636.9,-59.68"/>
</a>
</g>
</g>
</g>
</svg>
