<?xml version="1.0" encoding="UTF-8" standalone="no"?>
<!DOCTYPE svg PUBLIC "-//W3C//DTD SVG 1.1//EN"
 "http://www.w3.org/Graphics/SVG/1.1/DTD/svg11.dtd">
<!-- Generated by graphviz version 2.43.0 (0)
 -->
<!-- Title: src/fs/xfer/xfer_mover_agent.c Pages: 1 -->
<svg width="1258pt" height="258pt"
 viewBox="0.00 0.00 1258.00 258.00" xmlns="http://www.w3.org/2000/svg" xmlns:xlink="http://www.w3.org/1999/xlink">
<g id="graph0" class="graph" transform="scale(1 1) rotate(0) translate(4 254)">
<title>src/fs/xfer/xfer_mover_agent.c</title>
<!-- Node1 -->
<g id="Node000001" class="node">
<title>Node1</title>
<g id="a_Node000001"><a xlink:title=" ">
<polygon fill="#999999" stroke="#666666" points="960.5,-250 835.5,-250 835.5,-220 960.5,-220 960.5,-250"/>
<text text-anchor="start" x="843.5" y="-238" font-family="Helvetica,sans-Serif" font-size="10.00">src/fs/xfer/xfer_mover</text>
<text text-anchor="middle" x="898" y="-227" font-family="Helvetica,sans-Serif" font-size="10.00">_agent.c</text>
</a>
</g>
</g>
<!-- Node2 -->
<g id="Node000002" class="node">
<title>Node2</title>
<g id="a_Node000002"><a xlink:href="xfer_8h.html" target="_top" xlink:title=" ">
<polygon fill="white" stroke="#666666" points="314,-184 270,-184 270,-165 314,-165 314,-184"/>
<text text-anchor="middle" x="292" y="-172" font-family="Helvetica,sans-Serif" font-size="10.00">xfer.h</text>
</a>
</g>
</g>
<!-- Node1&#45;&gt;Node2 -->
<g id="edge1_Node000001_Node000002" class="edge">
<title>Node1&#45;&gt;Node2</title>
<g id="a_edge1_Node000001_Node000002"><a xlink:title=" ">
<path fill="none" stroke="#63b8ff" d="M835.43,-227.96C707.62,-215.62 420.5,-187.9 324.19,-178.61"/>
<polygon fill="#63b8ff" stroke="#63b8ff" points="324.47,-175.12 314.18,-177.64 323.8,-182.09 324.47,-175.12"/>
</a>
</g>
</g>
<!-- Node7 -->
<g id="Node000007" class="node">
<title>Node7</title>
<g id="a_Node000007"><a xlink:title=" ">
<polygon fill="#e0e0e0" stroke="#999999" points="549.5,-19 498.5,-19 498.5,0 549.5,0 549.5,-19"/>
<text text-anchor="middle" x="524" y="-7" font-family="Helvetica,sans-Serif" font-size="10.00">errno.h</text>
</a>
</g>
</g>
<!-- Node1&#45;&gt;Node7 -->
<g id="edge18_Node000001_Node000007" class="edge">
<title>Node1&#45;&gt;Node7</title>
<g id="a_edge18_Node000001_Node000007"><a xlink:title=" ">
<path fill="none" stroke="#63b8ff" d="M835.16,-233.41C792.41,-229.68 737.39,-217.87 702,-184 658.73,-142.58 705.01,-97.7 663,-55 635.7,-27.25 591.1,-16.78 559.81,-12.84"/>
<polygon fill="#63b8ff" stroke="#63b8ff" points="560.07,-9.35 549.75,-11.74 559.31,-16.31 560.07,-9.35"/>
</a>
</g>
</g>
<!-- Node13 -->
<g id="Node000013" class="node">
<title>Node13</title>
<g id="a_Node000013"><a xlink:title=" ">
<polygon fill="#e0e0e0" stroke="#999999" points="787.5,-184 710.5,-184 710.5,-165 787.5,-165 787.5,-184"/>
<text text-anchor="middle" x="749" y="-172" font-family="Helvetica,sans-Serif" font-size="10.00">ngx_event.h</text>
</a>
</g>
</g>
<!-- Node1&#45;&gt;Node13 -->
<g id="edge17_Node000001_Node000013" class="edge">
<title>Node1&#45;&gt;Node13</title>
<g id="a_edge17_Node000001_Node000013"><a xlink:title=" ">
<path fill="none" stroke="#63b8ff" d="M862.31,-219.99C837.34,-210.18 804.3,-197.21 780.34,-187.81"/>
<polygon fill="#63b8ff" stroke="#63b8ff" points="781.59,-184.54 771,-184.14 779.03,-191.05 781.59,-184.54"/>
</a>
</g>
</g>
<!-- Node14 -->
<g id="Node000014" class="node">
<title>Node14</title>
<g id="a_Node000014"><a xlink:title=" ">
<polygon fill="#e0e0e0" stroke="#999999" points="852.5,-184 805.5,-184 805.5,-165 852.5,-165 852.5,-184"/>
<text text-anchor="middle" x="829" y="-172" font-family="Helvetica,sans-Serif" font-size="10.00">fcntl.h</text>
</a>
</g>
</g>
<!-- Node1&#45;&gt;Node14 -->
<g id="edge19_Node000001_Node000014" class="edge">
<title>Node1&#45;&gt;Node14</title>
<g id="a_edge19_Node000001_Node000014"><a xlink:title=" ">
<path fill="none" stroke="#63b8ff" d="M881.3,-219.84C870.97,-211.09 857.72,-199.85 847.14,-190.88"/>
<polygon fill="#63b8ff" stroke="#63b8ff" points="849.23,-188.06 839.34,-184.27 844.7,-193.4 849.23,-188.06"/>
</a>
</g>
</g>
<!-- Node15 -->
<g id="Node000015" class="node">
<title>Node15</title>
<g id="a_Node000015"><a xlink:title=" ">
<polygon fill="#e0e0e0" stroke="#999999" points="925.5,-184 870.5,-184 870.5,-165 925.5,-165 925.5,-184"/>
<text text-anchor="middle" x="898" y="-172" font-family="Helvetica,sans-Serif" font-size="10.00">signal.h</text>
</a>
</g>
</g>
<!-- Node1&#45;&gt;Node15 -->
<g id="edge20_Node000001_Node000015" class="edge">
<title>Node1&#45;&gt;Node15</title>
<g id="a_edge20_Node000001_Node000015"><a xlink:title=" ">
<path fill="none" stroke="#63b8ff" d="M898,-219.84C898,-212.21 898,-202.7 898,-194.45"/>
<polygon fill="#63b8ff" stroke="#63b8ff" points="901.5,-194.27 898,-184.27 894.5,-194.27 901.5,-194.27"/>
</a>
</g>
</g>
<!-- Node16 -->
<g id="Node000016" class="node">
<title>Node16</title>
<g id="a_Node000016"><a xlink:title=" ">
<polygon fill="#e0e0e0" stroke="#999999" points="996.5,-184 943.5,-184 943.5,-165 996.5,-165 996.5,-184"/>
<text text-anchor="middle" x="970" y="-172" font-family="Helvetica,sans-Serif" font-size="10.00">stdlib.h</text>
</a>
</g>
</g>
<!-- Node1&#45;&gt;Node16 -->
<g id="edge21_Node000001_Node000016" class="edge">
<title>Node1&#45;&gt;Node16</title>
<g id="a_edge21_Node000001_Node000016"><a xlink:title=" ">
<path fill="none" stroke="#63b8ff" d="M915.43,-219.84C926.31,-211 940.3,-199.63 951.39,-190.62"/>
<polygon fill="#63b8ff" stroke="#63b8ff" points="953.66,-193.29 959.21,-184.27 949.24,-187.86 953.66,-193.29"/>
</a>
</g>
</g>
<!-- Node17 -->
<g id="Node000017" class="node">
<title>Node17</title>
<g id="a_Node000017"><a xlink:title=" ">
<polygon fill="#e0e0e0" stroke="#999999" points="1091.5,-184 1014.5,-184 1014.5,-165 1091.5,-165 1091.5,-184"/>
<text text-anchor="middle" x="1053" y="-172" font-family="Helvetica,sans-Serif" font-size="10.00">sys/socket.h</text>
</a>
</g>
</g>
<!-- Node1&#45;&gt;Node17 -->
<g id="edge22_Node000001_Node000017" class="edge">
<title>Node1&#45;&gt;Node17</title>
<g id="a_edge22_Node000001_Node000017"><a xlink:title=" ">
<path fill="none" stroke="#63b8ff" d="M935.13,-219.99C961.22,-210.14 995.78,-197.1 1020.73,-187.68"/>
<polygon fill="#63b8ff" stroke="#63b8ff" points="1021.99,-190.94 1030.11,-184.14 1019.52,-184.4 1021.99,-190.94"/>
</a>
</g>
</g>
<!-- Node18 -->
<g id="Node000018" class="node">
<title>Node18</title>
<g id="a_Node000018"><a xlink:title=" ">
<polygon fill="#e0e0e0" stroke="#999999" points="1176,-184 1110,-184 1110,-165 1176,-165 1176,-184"/>
<text text-anchor="middle" x="1143" y="-172" font-family="Helvetica,sans-Serif" font-size="10.00">sys/wait.h</text>
</a>
</g>
</g>
<!-- Node1&#45;&gt;Node18 -->
<g id="edge23_Node000001_Node000018" class="edge">
<title>Node1&#45;&gt;Node18</title>
<g id="a_edge23_Node000001_Node000018"><a xlink:title=" ">
<path fill="none" stroke="#63b8ff" d="M956.68,-219.99C1000.83,-209.45 1060.32,-195.24 1100.08,-185.75"/>
<polygon fill="#63b8ff" stroke="#63b8ff" points="1101.08,-189.11 1110,-183.38 1099.46,-182.3 1101.08,-189.11"/>
</a>
</g>
</g>
<!-- Node19 -->
<g id="Node000019" class="node">
<title>Node19</title>
<g id="a_Node000019"><a xlink:title=" ">
<polygon fill="#e0e0e0" stroke="#999999" points="1250,-184 1194,-184 1194,-165 1250,-165 1250,-184"/>
<text text-anchor="middle" x="1222" y="-172" font-family="Helvetica,sans-Serif" font-size="10.00">unistd.h</text>
</a>
</g>
</g>
<!-- Node1&#45;&gt;Node19 -->
<g id="edge24_Node000001_Node000019" class="edge">
<title>Node1&#45;&gt;Node19</title>
<g id="a_edge24_Node000001_Node000019"><a xlink:title=" ">
<path fill="none" stroke="#63b8ff" d="M960.6,-224.08C1016.65,-214.98 1101.28,-200.67 1183.94,-184.13"/>
<polygon fill="#63b8ff" stroke="#63b8ff" points="1184.64,-187.56 1193.75,-182.15 1183.26,-180.7 1184.64,-187.56"/>
</a>
</g>
</g>
<!-- Node3 -->
<g id="Node000003" class="node">
<title>Node3</title>
<g id="a_Node000003"><a xlink:title=" ">
<polygon fill="#e0e0e0" stroke="#999999" points="70,-74 0,-74 0,-55 70,-55 70,-74"/>
<text text-anchor="middle" x="35" y="-62" font-family="Helvetica,sans-Serif" font-size="10.00">ngx_core.h</text>
</a>
</g>
</g>
<!-- Node2&#45;&gt;Node3 -->
<g id="edge2_Node000002_Node000003" class="edge">
<title>Node2&#45;&gt;Node3</title>
<g id="a_edge2_Node000002_Node000003"><a xlink:title=" ">
<path fill="none" stroke="#63b8ff" d="M271.4,-164.84C226.08,-145.8 117.57,-100.2 64.81,-78.03"/>
<polygon fill="#63b8ff" stroke="#63b8ff" points="65.91,-74.69 55.34,-74.05 63.2,-81.15 65.91,-74.69"/>
</a>
</g>
</g>
<!-- Node4 -->
<g id="Node000004" class="node">
<title>Node4</title>
<g id="a_Node000004"><a xlink:href="sd_8h.html" target="_top" xlink:title=" ">
<polygon fill="white" stroke="#666666" points="338,-129 246,-129 246,-110 338,-110 338,-129"/>
<text text-anchor="middle" x="292" y="-117" font-family="Helvetica,sans-Serif" font-size="10.00">fs/backend/sd.h</text>
</a>
</g>
</g>
<!-- Node2&#45;&gt;Node4 -->
<g id="edge3_Node000002_Node000004" class="edge">
<title>Node2&#45;&gt;Node4</title>
<g id="a_edge3_Node000002_Node000004"><a xlink:title=" ">
<path fill="none" stroke="#63b8ff" d="M292,-164.75C292,-157.8 292,-147.85 292,-139.13"/>
<polygon fill="#63b8ff" stroke="#63b8ff" points="295.5,-139.09 292,-129.09 288.5,-139.09 295.5,-139.09"/>
</a>
</g>
</g>
<!-- Node4&#45;&gt;Node3 -->
<g id="edge5_Node000004_Node000003" class="edge">
<title>Node4&#45;&gt;Node3</title>
<g id="a_edge5_Node000004_Node000003"><a xlink:title=" ">
<path fill="none" stroke="#63b8ff" d="M250.71,-109.98C204.08,-100.37 128.44,-84.77 80.25,-74.83"/>
<polygon fill="#63b8ff" stroke="#63b8ff" points="80.9,-71.39 70.4,-72.8 79.48,-78.25 80.9,-71.39"/>
</a>
</g>
</g>
<!-- Node5 -->
<g id="Node000005" class="node">
<title>Node5</title>
<g id="a_Node000005"><a xlink:title=" ">
<polygon fill="#e0e0e0" stroke="#999999" points="420,-74 342,-74 342,-55 420,-55 420,-74"/>
<text text-anchor="middle" x="381" y="-62" font-family="Helvetica,sans-Serif" font-size="10.00">ngx_config.h</text>
</a>
</g>
</g>
<!-- Node4&#45;&gt;Node5 -->
<g id="edge4_Node000004_Node000005" class="edge">
<title>Node4&#45;&gt;Node5</title>
<g id="a_edge4_Node000004_Node000005"><a xlink:title=" ">
<path fill="none" stroke="#63b8ff" d="M306.3,-109.98C320.1,-101.77 341.24,-89.18 357.51,-79.49"/>
<polygon fill="#63b8ff" stroke="#63b8ff" points="359.64,-82.29 366.44,-74.17 356.06,-76.28 359.64,-82.29"/>
</a>
</g>
</g>
<!-- Node6 -->
<g id="Node000006" class="node">
<title>Node6</title>
<g id="a_Node000006"><a xlink:title=" ">
<polygon fill="#e0e0e0" stroke="#999999" points="529.5,-74 476.5,-74 476.5,-55 529.5,-55 529.5,-74"/>
<text text-anchor="middle" x="503" y="-62" font-family="Helvetica,sans-Serif" font-size="10.00">stdint.h</text>
</a>
</g>
</g>
<!-- Node4&#45;&gt;Node6 -->
<g id="edge6_Node000004_Node000006" class="edge">
<title>Node4&#45;&gt;Node6</title>
<g id="a_edge6_Node000004_Node000006"><a xlink:title=" ">
<path fill="none" stroke="#63b8ff" d="M325.9,-109.98C364.37,-100.32 426.9,-84.62 466.44,-74.68"/>
<polygon fill="#63b8ff" stroke="#63b8ff" points="467.37,-78.06 476.21,-72.23 465.66,-71.27 467.37,-78.06"/>
</a>
</g>
</g>
<!-- Node4&#45;&gt;Node7 -->
<g id="edge7_Node000004_Node000007" class="edge">
<title>Node4&#45;&gt;Node7</title>
<g id="a_edge7_Node000004_Node000007"><a xlink:title=" ">
<path fill="none" stroke="#63b8ff" d="M327.08,-109.97C355.39,-102.42 395.81,-90.1 429,-74 457.07,-60.38 486.5,-39.53 505.03,-25.47"/>
<polygon fill="#63b8ff" stroke="#63b8ff" points="507.42,-28.06 513.2,-19.18 503.14,-22.51 507.42,-28.06"/>
</a>
</g>
</g>
<!-- Node8 -->
<g id="Node000008" class="node">
<title>Node8</title>
<g id="a_Node000008"><a xlink:title=" ">
<polygon fill="#e0e0e0" stroke="#999999" points="324,-74 260,-74 260,-55 324,-55 324,-74"/>
<text text-anchor="middle" x="292" y="-62" font-family="Helvetica,sans-Serif" font-size="10.00">sys/stat.h</text>
</a>
</g>
</g>
<!-- Node4&#45;&gt;Node8 -->
<g id="edge8_Node000004_Node000008" class="edge">
<title>Node4&#45;&gt;Node8</title>
<g id="a_edge8_Node000004_Node000008"><a xlink:title=" ">
<path fill="none" stroke="#63b8ff" d="M292,-109.75C292,-102.8 292,-92.85 292,-84.13"/>
<polygon fill="#63b8ff" stroke="#63b8ff" points="295.5,-84.09 292,-74.09 288.5,-84.09 295.5,-84.09"/>
</a>
</g>
</g>
<!-- Node9 -->
<g id="Node000009" class="node">
<title>Node9</title>
<g id="a_Node000009"><a xlink:title=" ">
<polygon fill="#e0e0e0" stroke="#999999" points="140,-19 68,-19 68,0 140,0 140,-19"/>
<text text-anchor="middle" x="104" y="-7" font-family="Helvetica,sans-Serif" font-size="10.00">sys/types.h</text>
</a>
</g>
</g>
<!-- Node4&#45;&gt;Node9 -->
<g id="edge9_Node000004_Node000009" class="edge">
<title>Node4&#45;&gt;Node9</title>
<g id="a_edge9_Node000004_Node000009"><a xlink:title=" ">
<path fill="none" stroke="#63b8ff" d="M245.94,-112.5C215.49,-106.68 176.01,-95.45 147,-74 131.15,-62.28 119.25,-42.88 112.03,-28.6"/>
<polygon fill="#63b8ff" stroke="#63b8ff" points="115.07,-26.82 107.62,-19.29 108.74,-29.82 115.07,-26.82"/>
</a>
</g>
</g>
<!-- Node10 -->
<g id="Node000010" class="node">
<title>Node10</title>
<g id="a_Node000010"><a xlink:title=" ">
<polygon fill="#e0e0e0" stroke="#999999" points="223,-19 163,-19 163,0 223,0 223,-19"/>
<text text-anchor="middle" x="193" y="-7" font-family="Helvetica,sans-Serif" font-size="10.00">sys/uio.h</text>
</a>
</g>
</g>
<!-- Node4&#45;&gt;Node10 -->
<g id="edge10_Node000004_Node000010" class="edge">
<title>Node4&#45;&gt;Node10</title>
<g id="a_edge10_Node000004_Node000010"><a xlink:title=" ">
<path fill="none" stroke="#63b8ff" d="M245.78,-116.82C214.62,-112.98 175.58,-102.32 155,-74 143.53,-58.21 159.04,-38.81 173.56,-25.64"/>
<polygon fill="#63b8ff" stroke="#63b8ff" points="175.99,-28.16 181.35,-19.02 171.46,-22.83 175.99,-28.16"/>
</a>
</g>
</g>
<!-- Node11 -->
<g id="Node000011" class="node">
<title>Node11</title>
<g id="a_Node000011"><a xlink:href="sd__cred__forward_8h.html" target="_top" xlink:title=" ">
<polygon fill="white" stroke="#666666" points="654,-74 548,-74 548,-55 654,-55 654,-74"/>
<text text-anchor="middle" x="601" y="-62" font-family="Helvetica,sans-Serif" font-size="10.00">sd_cred_forward.h</text>
</a>
</g>
</g>
<!-- Node4&#45;&gt;Node11 -->
<g id="edge11_Node000004_Node000011" class="edge">
<title>Node4&#45;&gt;Node11</title>
<g id="a_edge11_Node000004_Node000011"><a xlink:title=" ">
<path fill="none" stroke="#63b8ff" d="M338.26,-110.57C392.37,-101.28 482.08,-85.9 541.38,-75.73"/>
<polygon fill="#63b8ff" stroke="#63b8ff" points="542.08,-79.16 551.35,-74.02 540.9,-72.26 542.08,-79.16"/>
</a>
</g>
</g>
<!-- Node12 -->
<g id="Node000012" class="node">
<title>Node12</title>
<g id="a_Node000012"><a xlink:href="sd__registry_8h.html" target="_top" xlink:title=" ">
<polygon fill="white" stroke="#666666" points="242,-74 164,-74 164,-55 242,-55 242,-74"/>
<text text-anchor="middle" x="203" y="-62" font-family="Helvetica,sans-Serif" font-size="10.00">sd_registry.h</text>
</a>
</g>
</g>
<!-- Node4&#45;&gt;Node12 -->
<g id="edge13_Node000004_Node000012" class="edge">
<title>Node4&#45;&gt;Node12</title>
<g id="a_edge13_Node000004_Node000012"><a xlink:title=" ">
<path fill="none" stroke="#63b8ff" d="M277.7,-109.98C263.9,-101.77 242.76,-89.18 226.49,-79.49"/>
<polygon fill="#63b8ff" stroke="#63b8ff" points="227.94,-76.28 217.56,-74.17 224.36,-82.29 227.94,-76.28"/>
</a>
</g>
</g>
<!-- Node11&#45;&gt;Node7 -->
<g id="edge12_Node000011_Node000007" class="edge">
<title>Node11&#45;&gt;Node7</title>
<g id="a_edge12_Node000011_Node000007"><a xlink:title=" ">
<path fill="none" stroke="#63b8ff" d="M588.63,-54.98C576.91,-46.92 559.08,-34.65 545.11,-25.03"/>
<polygon fill="#63b8ff" stroke="#63b8ff" points="546.82,-21.96 536.6,-19.17 542.85,-27.72 546.82,-21.96"/>
</a>
</g>
</g>
<!-- Node12&#45;&gt;Node7 -->
<g id="edge14_Node000012_Node000007" class="edge">
<title>Node12&#45;&gt;Node7</title>
<g id="a_edge14_Node000012_Node000007"><a xlink:title=" ">
<path fill="none" stroke="#63b8ff" d="M242.02,-56.54C245.06,-56.02 248.08,-55.5 251,-55 336.04,-40.54 436.15,-24.46 488.31,-16.16"/>
<polygon fill="#63b8ff" stroke="#63b8ff" points="489.06,-19.58 498.39,-14.56 487.96,-12.67 489.06,-19.58"/>
</a>
</g>
</g>
<!-- Node12&#45;&gt;Node9 -->
<g id="edge15_Node000012_Node000009" class="edge">
<title>Node12&#45;&gt;Node9</title>
<g id="a_edge15_Node000012_Node000009"><a xlink:title=" ">
<path fill="none" stroke="#63b8ff" d="M187.09,-54.98C171.45,-46.61 147.34,-33.7 129.12,-23.95"/>
<polygon fill="#63b8ff" stroke="#63b8ff" points="130.66,-20.8 120.2,-19.17 127.36,-26.98 130.66,-20.8"/>
</a>
</g>
</g>
<!-- Node12&#45;&gt;Node10 -->
<g id="edge16_Node000012_Node000010" class="edge">
<title>Node12&#45;&gt;Node10</title>
<g id="a_edge16_Node000012_Node000010"><a xlink:title=" ">
<path fill="none" stroke="#63b8ff" d="M201.35,-54.75C200.04,-47.8 198.16,-37.85 196.52,-29.13"/>
<polygon fill="#63b8ff" stroke="#63b8ff" points="199.91,-28.27 194.62,-19.09 193.04,-29.56 199.91,-28.27"/>
</a>
</g>
</g>
</g>
</svg>
