<?xml version="1.0" encoding="UTF-8" standalone="no"?>
<!DOCTYPE svg PUBLIC "-//W3C//DTD SVG 1.1//EN"
 "http://www.w3.org/Graphics/SVG/1.1/DTD/svg11.dtd">
<!-- Generated by graphviz version 2.43.0 (0)
 -->
<!-- Title: src/fs/xfer/xfer.h Pages: 1 -->
<!--zoomable 159 -->

<svg id="main" version="1.1" xmlns="http://www.w3.org/2000/svg" xmlns:xlink="http://www.w3.org/1999/xlink" xml:space="preserve" onload="init(evt)">
<style type="text/css"><![CDATA[
.node, .edge {opacity: 0.7;}
.node.selected, .edge.selected {opacity: 1;}
.edge:hover path { stroke: red; }
.edge:hover polygon { stroke: red; fill: red; }
]]></style>

<defs>
  <circle id="rim" cx="0" cy="0" r="7"/>
  <circle id="rim2" cx="0" cy="0" r="3.5"/>
  <g id="zoomPlus">
    <use xlink:href="#rim" fill="#404040"><set attributeName="fill" to="#808080" begin="zoomplus.mouseover" end="zoomplus.mouseout"/></use>
    <path d="M-4,0h8M0,-4v8" fill="none" stroke="white" stroke-width="1.5" pointer-events="none"/>
  </g>
  <g id="zoomMin">
    <use xlink:href="#rim" fill="#404040"><set attributeName="fill" to="#808080" begin="zoomminus.mouseover" end="zoomminus.mouseout"/></use>
    <path d="M-4,0h8" fill="none" stroke="white" stroke-width="1.5" pointer-events="none"/>
  </g>
  <g id="arrowUp" transform="translate(30 24)">
    <use xlink:href="#rim"/>
    <path pointer-events="none" fill="none" stroke="white" stroke-width="1.5" d="M0,-3.0v7 M-2.5,-0.5L0,-3.0L2.5,-0.5"/>
  </g>
  <g id="arrowRight" transform="rotate(90) translate(36 -43)">
    <use xlink:href="#rim"/>
    <path pointer-events="none" fill="none" stroke="white" stroke-width="1.5" d="M0,-3.0v7 M-2.5,-0.5L0,-3.0L2.5,-0.5"/>
  </g>
  <g id="arrowDown" transform="rotate(180) translate(-30 -48)">
    <use xlink:href="#rim"/>
    <path pointer-events="none" fill="none" stroke="white" stroke-width="1.5" d="M0,-3.0v7 M-2.5,-0.5L0,-3.0L2.5,-0.5"/>
  </g>
  <g id="arrowLeft" transform="rotate(270) translate(-36 17)">
    <use xlink:href="#rim"/>
    <path pointer-events="none" fill="none" stroke="white" stroke-width="1.5" d="M0,-3.0v7 M-2.5,-0.5L0,-3.0L2.5,-0.5"/>
  </g>
  <g id="resetDef">
    <use xlink:href="#rim2" fill="#404040"><set attributeName="fill" to="#808080" begin="reset.mouseover" end="reset.mouseout"/></use>
  </g>
</defs>
<script type="application/ecmascript">
var viewWidth = 2774;
var viewHeight = 159;
var sectionId = 'dynsection-1';
</script>
<script type="application/ecmascript" xlink:href="svg.min.js"/>
<svg id="graph" class="graph">
<g id="viewport">
<title>src/fs/xfer/xfer.h</title>
<!-- Node1 -->
<g id="Node000001" class="node">
<title>Node1</title>
<g id="a_Node000001"><a xlink:title=" ">
<polygon fill="#999999" stroke="#666666" points="1321.5,-151 1225.5,-151 1225.5,-132 1321.5,-132 1321.5,-151"/>
<text text-anchor="middle" x="1273.5" y="-139" font-family="Helvetica,sans-Serif" font-size="10.00">src/fs/xfer/xfer.h</text>
</a>
</g>
</g>
<!-- Node2 -->
<g id="Node000002" class="node">
<title>Node2</title>
<g id="a_Node000002"><a xlink:href="staged__file__commit_8c.html" target="_top" xlink:title=" ">
<polygon fill="white" stroke="#666666" points="131,-96 0,-96 0,-66 131,-66 131,-96"/>
<text text-anchor="start" x="8" y="-84" font-family="Helvetica,sans-Serif" font-size="10.00">src/core/compat/staged</text>
<text text-anchor="middle" x="65.5" y="-73" font-family="Helvetica,sans-Serif" font-size="10.00">_file_commit.c</text>
</a>
</g>
</g>
<!-- Node1&#45;&gt;Node2 -->
<g id="edge1_Node000001_Node000002" class="edge">
<title>Node1&#45;&gt;Node2</title>
<g id="a_edge1_Node000001_Node000002"><a xlink:title=" ">
<path fill="none" stroke="#63b8ff" d="M1215.31,-139.33C1014.59,-135.13 352.01,-119.77 140.5,-96 137.47,-95.66 134.38,-95.27 131.27,-94.84"/>
<polygon fill="#63b8ff" stroke="#63b8ff" points="1215.28,-142.83 1225.35,-139.54 1215.43,-135.83 1215.28,-142.83"/>
</a>
</g>
</g>
<!-- Node3 -->
<g id="Node000003" class="node">
<title>Node3</title>
<g id="a_Node000003"><a xlink:href="process__server__init_8c.html" target="_top" xlink:title=" ">
<polygon fill="white" stroke="#666666" points="277.5,-96 149.5,-96 149.5,-66 277.5,-66 277.5,-96"/>
<text text-anchor="start" x="157.5" y="-84" font-family="Helvetica,sans-Serif" font-size="10.00">src/core/config/process</text>
<text text-anchor="middle" x="213.5" y="-73" font-family="Helvetica,sans-Serif" font-size="10.00">_server_init.c</text>
</a>
</g>
</g>
<!-- Node1&#45;&gt;Node3 -->
<g id="edge2_Node000001_Node000003" class="edge">
<title>Node1&#45;&gt;Node3</title>
<g id="a_edge2_Node000001_Node000003"><a xlink:title=" ">
<path fill="none" stroke="#63b8ff" d="M1215.18,-140.8C1062.25,-140.96 637.24,-137.32 286.5,-96 283.55,-95.65 280.55,-95.25 277.51,-94.82"/>
<polygon fill="#63b8ff" stroke="#63b8ff" points="1215.29,-144.3 1225.29,-140.79 1215.28,-137.3 1215.29,-144.3"/>
</a>
</g>
</g>
<!-- Node4 -->
<g id="Node000004" class="node">
<title>Node4</title>
<g id="a_Node000004"><a xlink:href="vfs__staged_8c.html" target="_top" xlink:title=" ">
<polygon fill="white" stroke="#666666" points="421,-90.5 296,-90.5 296,-71.5 421,-71.5 421,-90.5"/>
<text text-anchor="middle" x="358.5" y="-78.5" font-family="Helvetica,sans-Serif" font-size="10.00">src/fs/vfs/vfs_staged.c</text>
</a>
</g>
</g>
<!-- Node1&#45;&gt;Node4 -->
<g id="edge3_Node000001_Node000004" class="edge">
<title>Node1&#45;&gt;Node4</title>
<g id="a_edge3_Node000001_Node000004"><a xlink:title=" ">
<path fill="none" stroke="#63b8ff" d="M1214.88,-139.94C1077.98,-138.07 726.73,-130.07 435.5,-96 423.89,-94.64 411.4,-92.62 399.92,-90.53"/>
<polygon fill="#63b8ff" stroke="#63b8ff" points="1215.09,-143.44 1225.14,-140.07 1215.19,-136.44 1215.09,-143.44"/>
</a>
</g>
</g>
<!-- Node5 -->
<g id="Node000005" class="node">
<title>Node5</title>
<g id="a_Node000005"><a xlink:href="stage__engine_8c.html" target="_top" xlink:title=" ">
<polygon fill="white" stroke="#666666" points="296.5,-24.5 154.5,-24.5 154.5,-5.5 296.5,-5.5 296.5,-24.5"/>
<text text-anchor="middle" x="225.5" y="-12.5" font-family="Helvetica,sans-Serif" font-size="10.00">src/fs/xfer/stage_engine.c</text>
</a>
</g>
</g>
<!-- Node1&#45;&gt;Node5 -->
<g id="edge4_Node000001_Node000005" class="edge">
<title>Node1&#45;&gt;Node5</title>
<g id="a_edge4_Node000001_Node000005"><a xlink:title=" ">
<path fill="none" stroke="#63b8ff" d="M1215.1,-139.26C1041.75,-135.32 537.86,-121.75 468.5,-96 448,-88.39 449.21,-75.47 429.5,-66 401.48,-52.53 320.3,-34.83 269.19,-24.5"/>
<polygon fill="#63b8ff" stroke="#63b8ff" points="1215.23,-142.77 1225.31,-139.49 1215.39,-135.77 1215.23,-142.77"/>
</a>
</g>
</g>
<!-- Node6 -->
<g id="Node000006" class="node">
<title>Node6</title>
<g id="a_Node000006"><a xlink:href="stage__engine__internal_8h.html" target="_top" xlink:title=" ">
<polygon fill="white" stroke="#666666" points="611.5,-96 477.5,-96 477.5,-66 611.5,-66 611.5,-96"/>
<text text-anchor="start" x="485.5" y="-84" font-family="Helvetica,sans-Serif" font-size="10.00">src/fs/xfer/stage_engine</text>
<text text-anchor="middle" x="544.5" y="-73" font-family="Helvetica,sans-Serif" font-size="10.00">_internal.h</text>
</a>
</g>
</g>
<!-- Node1&#45;&gt;Node6 -->
<g id="edge5_Node000001_Node000006" class="edge">
<title>Node1&#45;&gt;Node6</title>
<g id="a_edge5_Node000001_Node000006"><a xlink:title=" ">
<path fill="none" stroke="#63b8ff" d="M1215.16,-138.5C1101.39,-134.16 842.09,-122.08 625.5,-96 620.97,-95.45 616.3,-94.83 611.61,-94.14"/>
<polygon fill="#63b8ff" stroke="#63b8ff" points="1215.25,-142.01 1225.38,-138.88 1215.52,-135.01 1215.25,-142.01"/>
</a>
</g>
</g>
<!-- Node8 -->
<g id="Node000008" class="node">
<title>Node8</title>
<g id="a_Node000008"><a xlink:href="stage__engine__journal_8c.html" target="_top" xlink:title=" ">
<polygon fill="white" stroke="#666666" points="728.5,-30 594.5,-30 594.5,0 728.5,0 728.5,-30"/>
<text text-anchor="start" x="602.5" y="-18" font-family="Helvetica,sans-Serif" font-size="10.00">src/fs/xfer/stage_engine</text>
<text text-anchor="middle" x="661.5" y="-7" font-family="Helvetica,sans-Serif" font-size="10.00">_journal.c</text>
</a>
</g>
</g>
<!-- Node1&#45;&gt;Node8 -->
<g id="edge11_Node000001_Node000008" class="edge">
<title>Node1&#45;&gt;Node8</title>
<g id="a_edge11_Node000001_Node000008"><a xlink:title=" ">
<path fill="none" stroke="#63b8ff" d="M1215.28,-139.82C1074.65,-137.66 725.04,-129 684.5,-96 664.88,-80.04 661.34,-48.51 661.06,-30.16"/>
<polygon fill="#63b8ff" stroke="#63b8ff" points="1215.38,-143.32 1225.43,-139.97 1215.49,-136.32 1215.38,-143.32"/>
</a>
</g>
</g>
<!-- Node10 -->
<g id="Node000010" class="node">
<title>Node10</title>
<g id="a_Node000010"><a xlink:href="stage__engine__scheduler_8c.html" target="_top" xlink:title=" ">
<polygon fill="white" stroke="#666666" points="880.5,-30 746.5,-30 746.5,0 880.5,0 880.5,-30"/>
<text text-anchor="start" x="754.5" y="-18" font-family="Helvetica,sans-Serif" font-size="10.00">src/fs/xfer/stage_engine</text>
<text text-anchor="middle" x="813.5" y="-7" font-family="Helvetica,sans-Serif" font-size="10.00">_scheduler.c</text>
</a>
</g>
</g>
<!-- Node1&#45;&gt;Node10 -->
<g id="edge12_Node000001_Node000010" class="edge">
<title>Node1&#45;&gt;Node10</title>
<g id="a_edge12_Node000001_Node000010"><a xlink:title=" ">
<path fill="none" stroke="#63b8ff" d="M1215.35,-140.39C1075.87,-139.51 731.25,-133.54 696.5,-96 670.34,-67.74 719.89,-44.14 762.36,-30.05"/>
<polygon fill="#63b8ff" stroke="#63b8ff" points="1215.41,-143.89 1225.43,-140.44 1215.45,-136.89 1215.41,-143.89"/>
</a>
</g>
</g>
<!-- Node11 -->
<g id="Node000011" class="node">
<title>Node11</title>
<g id="a_Node000011"><a xlink:href="xfer__core_8c.html" target="_top" xlink:title=" ">
<polygon fill="white" stroke="#666666" points="827.5,-90.5 705.5,-90.5 705.5,-71.5 827.5,-71.5 827.5,-90.5"/>
<text text-anchor="middle" x="766.5" y="-78.5" font-family="Helvetica,sans-Serif" font-size="10.00">src/fs/xfer/xfer_core.c</text>
</a>
</g>
</g>
<!-- Node1&#45;&gt;Node11 -->
<g id="edge13_Node000001_Node000011" class="edge">
<title>Node1&#45;&gt;Node11</title>
<g id="a_edge13_Node000001_Node000011"><a xlink:title=" ">
<path fill="none" stroke="#63b8ff" d="M1215.16,-136.28C1131.33,-129.82 972.05,-116.09 837.5,-96 827.31,-94.48 816.36,-92.5 806.19,-90.5"/>
<polygon fill="#63b8ff" stroke="#63b8ff" points="1215.01,-139.78 1225.25,-137.05 1215.55,-132.8 1215.01,-139.78"/>
</a>
</g>
</g>
<!-- Node12 -->
<g id="Node000012" class="node">
<title>Node12</title>
<g id="a_Node000012"><a xlink:href="xfer__ledger_8c.html" target="_top" xlink:title=" ">
<polygon fill="white" stroke="#666666" points="977,-90.5 846,-90.5 846,-71.5 977,-71.5 977,-90.5"/>
<text text-anchor="middle" x="911.5" y="-78.5" font-family="Helvetica,sans-Serif" font-size="10.00">src/fs/xfer/xfer_ledger.c</text>
</a>
</g>
</g>
<!-- Node1&#45;&gt;Node12 -->
<g id="edge14_Node000001_Node000012" class="edge">
<title>Node1&#45;&gt;Node12</title>
<g id="a_edge14_Node000001_Node000012"><a xlink:title=" ">
<path fill="none" stroke="#63b8ff" d="M1215.36,-132.02C1157.32,-123.43 1065.62,-109.52 986.5,-96 976.58,-94.3 965.94,-92.38 955.88,-90.52"/>
<polygon fill="#63b8ff" stroke="#63b8ff" points="1215.03,-135.51 1225.44,-133.51 1216.06,-128.59 1215.03,-135.51"/>
</a>
</g>
</g>
<!-- Node13 -->
<g id="Node000013" class="node">
<title>Node13</title>
<g id="a_Node000013"><a xlink:href="xfer__mover__agent_8c.html" target="_top" xlink:title=" ">
<polygon fill="white" stroke="#666666" points="1120,-96 995,-96 995,-66 1120,-66 1120,-96"/>
<text text-anchor="start" x="1003" y="-84" font-family="Helvetica,sans-Serif" font-size="10.00">src/fs/xfer/xfer_mover</text>
<text text-anchor="middle" x="1057.5" y="-73" font-family="Helvetica,sans-Serif" font-size="10.00">_agent.c</text>
</a>
</g>
</g>
<!-- Node1&#45;&gt;Node13 -->
<g id="edge15_Node000001_Node000013" class="edge">
<title>Node1&#45;&gt;Node13</title>
<g id="a_edge15_Node000001_Node000013"><a xlink:title=" ">
<path fill="none" stroke="#63b8ff" d="M1232.22,-129.32C1197.3,-119.86 1147.08,-106.26 1109.43,-96.06"/>
<polygon fill="#63b8ff" stroke="#63b8ff" points="1231.52,-132.76 1242.09,-131.99 1233.35,-126 1231.52,-132.76"/>
</a>
</g>
</g>
<!-- Node14 -->
<g id="Node000014" class="node">
<title>Node14</title>
<g id="a_Node000014"><a xlink:href="xfer__mover__pump_8c.html" target="_top" xlink:title=" ">
<polygon fill="white" stroke="#666666" points="1263,-96 1138,-96 1138,-66 1263,-66 1263,-96"/>
<text text-anchor="start" x="1146" y="-84" font-family="Helvetica,sans-Serif" font-size="10.00">src/fs/xfer/xfer_mover</text>
<text text-anchor="middle" x="1200.5" y="-73" font-family="Helvetica,sans-Serif" font-size="10.00">_pump.c</text>
</a>
</g>
</g>
<!-- Node1&#45;&gt;Node14 -->
<g id="edge16_Node000001_Node000014" class="edge">
<title>Node1&#45;&gt;Node14</title>
<g id="a_edge16_Node000001_Node000014"><a xlink:title=" ">
<path fill="none" stroke="#63b8ff" d="M1254.78,-125.5C1243.49,-116.45 1229.2,-105 1218.11,-96.11"/>
<polygon fill="#63b8ff" stroke="#63b8ff" points="1252.74,-128.35 1262.73,-131.87 1257.11,-122.88 1252.74,-128.35"/>
</a>
</g>
</g>
<!-- Node15 -->
<g id="Node000015" class="node">
<title>Node15</title>
<g id="a_Node000015"><a xlink:href="xfer__resume__sweep_8c.html" target="_top" xlink:title=" ">
<polygon fill="white" stroke="#666666" points="1411.5,-96 1281.5,-96 1281.5,-66 1411.5,-66 1411.5,-96"/>
<text text-anchor="start" x="1289.5" y="-84" font-family="Helvetica,sans-Serif" font-size="10.00">src/fs/xfer/xfer_resume</text>
<text text-anchor="middle" x="1346.5" y="-73" font-family="Helvetica,sans-Serif" font-size="10.00">_sweep.c</text>
</a>
</g>
</g>
<!-- Node1&#45;&gt;Node15 -->
<g id="edge17_Node000001_Node000015" class="edge">
<title>Node1&#45;&gt;Node15</title>
<g id="a_edge17_Node000001_Node000015"><a xlink:title=" ">
<path fill="none" stroke="#63b8ff" d="M1292.22,-125.5C1303.51,-116.45 1317.8,-105 1328.89,-96.11"/>
<polygon fill="#63b8ff" stroke="#63b8ff" points="1289.89,-122.88 1284.27,-131.87 1294.26,-128.35 1289.89,-122.88"/>
</a>
</g>
</g>
<!-- Node16 -->
<g id="Node000016" class="node">
<title>Node16</title>
<g id="a_Node000016"><a xlink:href="close_8c.html" target="_top" xlink:title=" ">
<polygon fill="white" stroke="#666666" points="1531,-96 1430,-96 1430,-66 1531,-66 1531,-96"/>
<text text-anchor="start" x="1438" y="-84" font-family="Helvetica,sans-Serif" font-size="10.00">src/protocols/root</text>
<text text-anchor="middle" x="1480.5" y="-73" font-family="Helvetica,sans-Serif" font-size="10.00">/read/close.c</text>
</a>
</g>
</g>
<!-- Node1&#45;&gt;Node16 -->
<g id="edge18_Node000001_Node000016" class="edge">
<title>Node1&#45;&gt;Node16</title>
<g id="a_edge18_Node000001_Node000016"><a xlink:title=" ">
<path fill="none" stroke="#63b8ff" d="M1313.49,-129.2C1346.94,-119.75 1394.81,-106.22 1430.73,-96.06"/>
<polygon fill="#63b8ff" stroke="#63b8ff" points="1312.27,-125.91 1303.6,-131.99 1314.17,-132.64 1312.27,-125.91"/>
</a>
</g>
</g>
<!-- Node17 -->
<g id="Node000017" class="node">
<title>Node17</title>
<g id="a_Node000017"><a xlink:href="put__finalize_8c.html" target="_top" xlink:title=" ">
<polygon fill="white" stroke="#666666" points="1661.5,-96 1549.5,-96 1549.5,-66 1661.5,-66 1661.5,-96"/>
<text text-anchor="start" x="1557.5" y="-84" font-family="Helvetica,sans-Serif" font-size="10.00">src/protocols/s3/put</text>
<text text-anchor="middle" x="1605.5" y="-73" font-family="Helvetica,sans-Serif" font-size="10.00">_finalize.c</text>
</a>
</g>
</g>
<!-- Node1&#45;&gt;Node17 -->
<g id="edge19_Node000001_Node000017" class="edge">
<title>Node1&#45;&gt;Node17</title>
<g id="a_edge19_Node000001_Node000017"><a xlink:title=" ">
<path fill="none" stroke="#63b8ff" d="M1331.97,-131.57C1386.15,-123.09 1468.95,-109.66 1540.5,-96 1543.33,-95.46 1546.24,-94.89 1549.16,-94.3"/>
<polygon fill="#63b8ff" stroke="#63b8ff" points="1331.2,-128.14 1321.86,-133.14 1332.28,-135.06 1331.2,-128.14"/>
</a>
</g>
</g>
<!-- Node18 -->
<g id="Node000018" class="node">
<title>Node18</title>
<g id="a_Node000018"><a xlink:href="webdav_2put_8c.html" target="_top" xlink:title=" ">
<polygon fill="white" stroke="#666666" points="1799.5,-96 1679.5,-96 1679.5,-66 1799.5,-66 1799.5,-96"/>
<text text-anchor="start" x="1687.5" y="-84" font-family="Helvetica,sans-Serif" font-size="10.00">src/protocols/webdav</text>
<text text-anchor="middle" x="1739.5" y="-73" font-family="Helvetica,sans-Serif" font-size="10.00">/put.c</text>
</a>
</g>
</g>
<!-- Node1&#45;&gt;Node18 -->
<g id="edge20_Node000001_Node000018" class="edge">
<title>Node1&#45;&gt;Node18</title>
<g id="a_edge20_Node000001_Node000018"><a xlink:title=" ">
<path fill="none" stroke="#63b8ff" d="M1331.71,-135.6C1409.27,-128.7 1550.67,-114.83 1670.5,-96 1673.4,-95.54 1676.36,-95.05 1679.35,-94.53"/>
<polygon fill="#63b8ff" stroke="#63b8ff" points="1331.31,-132.12 1321.66,-136.49 1331.92,-139.1 1331.31,-132.12"/>
</a>
</g>
</g>
<!-- Node19 -->
<g id="Node000019" class="node">
<title>Node19</title>
<g id="a_Node000019"><a xlink:href="put__body_8c.html" target="_top" xlink:title=" ">
<polygon fill="white" stroke="#666666" points="1937.5,-96 1817.5,-96 1817.5,-66 1937.5,-66 1937.5,-96"/>
<text text-anchor="start" x="1825.5" y="-84" font-family="Helvetica,sans-Serif" font-size="10.00">src/protocols/webdav</text>
<text text-anchor="middle" x="1877.5" y="-73" font-family="Helvetica,sans-Serif" font-size="10.00">/put_body.c</text>
</a>
</g>
</g>
<!-- Node1&#45;&gt;Node19 -->
<g id="edge21_Node000001_Node000019" class="edge">
<title>Node1&#45;&gt;Node19</title>
<g id="a_edge21_Node000001_Node000019"><a xlink:title=" ">
<path fill="none" stroke="#63b8ff" d="M1331.72,-137.9C1430.27,-132.99 1636.06,-120.58 1808.5,-96 1811.4,-95.59 1814.37,-95.13 1817.36,-94.63"/>
<polygon fill="#63b8ff" stroke="#63b8ff" points="1331.49,-134.4 1321.67,-138.39 1331.83,-141.39 1331.49,-134.4"/>
</a>
</g>
</g>
<!-- Node20 -->
<g id="Node000020" class="node">
<title>Node20</title>
<g id="a_Node000020"><a xlink:href="put__body__digest_8c.html" target="_top" xlink:title=" ">
<polygon fill="white" stroke="#666666" points="2075.5,-96 1955.5,-96 1955.5,-66 2075.5,-66 2075.5,-96"/>
<text text-anchor="start" x="1963.5" y="-84" font-family="Helvetica,sans-Serif" font-size="10.00">src/protocols/webdav</text>
<text text-anchor="middle" x="2015.5" y="-73" font-family="Helvetica,sans-Serif" font-size="10.00">/put_body_digest.c</text>
</a>
</g>
</g>
<!-- Node1&#45;&gt;Node20 -->
<g id="edge22_Node000001_Node000020" class="edge">
<title>Node1&#45;&gt;Node20</title>
<g id="a_edge22_Node000001_Node000020"><a xlink:title=" ">
<path fill="none" stroke="#63b8ff" d="M1332.05,-139.27C1449.2,-136.22 1720.62,-126.24 1946.5,-96 1949.41,-95.61 1952.38,-95.17 1955.37,-94.69"/>
<polygon fill="#63b8ff" stroke="#63b8ff" points="1331.78,-135.77 1321.87,-139.53 1331.95,-142.77 1331.78,-135.77"/>
</a>
</g>
</g>
<!-- Node21 -->
<g id="Node000021" class="node">
<title>Node21</title>
<g id="a_Node000021"><a xlink:href="tpc_8c.html" target="_top" xlink:title=" ">
<polygon fill="white" stroke="#666666" points="2213.5,-96 2093.5,-96 2093.5,-66 2213.5,-66 2213.5,-96"/>
<text text-anchor="start" x="2101.5" y="-84" font-family="Helvetica,sans-Serif" font-size="10.00">src/protocols/webdav</text>
<text text-anchor="middle" x="2153.5" y="-73" font-family="Helvetica,sans-Serif" font-size="10.00">/tpc.c</text>
</a>
</g>
</g>
<!-- Node1&#45;&gt;Node21 -->
<g id="edge23_Node000001_Node000021" class="edge">
<title>Node1&#45;&gt;Node21</title>
<g id="a_edge23_Node000001_Node000021"><a xlink:title=" ">
<path fill="none" stroke="#63b8ff" d="M1331.73,-140.2C1465.35,-138.89 1804.03,-131.95 2084.5,-96 2087.41,-95.63 2090.38,-95.2 2093.37,-94.73"/>
<polygon fill="#63b8ff" stroke="#63b8ff" points="1331.68,-136.7 1321.71,-140.29 1331.74,-143.7 1331.68,-136.7"/>
</a>
</g>
</g>
<!-- Node22 -->
<g id="Node000022" class="node">
<title>Node22</title>
<g id="a_Node000022"><a xlink:href="tpc__copy_8c.html" target="_top" xlink:title=" ">
<polygon fill="white" stroke="#666666" points="2351.5,-96 2231.5,-96 2231.5,-66 2351.5,-66 2351.5,-96"/>
<text text-anchor="start" x="2239.5" y="-84" font-family="Helvetica,sans-Serif" font-size="10.00">src/protocols/webdav</text>
<text text-anchor="middle" x="2291.5" y="-73" font-family="Helvetica,sans-Serif" font-size="10.00">/tpc_copy.c</text>
</a>
</g>
</g>
<!-- Node1&#45;&gt;Node22 -->
<g id="edge24_Node000001_Node000022" class="edge">
<title>Node1&#45;&gt;Node22</title>
<g id="a_edge24_Node000001_Node000022"><a xlink:title=" ">
<path fill="none" stroke="#63b8ff" d="M1331.9,-140.87C1480.92,-141.13 1887.22,-137.62 2222.5,-96 2225.41,-95.64 2228.38,-95.22 2231.38,-94.76"/>
<polygon fill="#63b8ff" stroke="#63b8ff" points="1331.62,-137.37 1321.62,-140.84 1331.61,-144.37 1331.62,-137.37"/>
</a>
</g>
</g>
<!-- Node23 -->
<g id="Node000023" class="node">
<title>Node23</title>
<g id="a_Node000023"><a xlink:href="tpc__pull_8c.html" target="_top" xlink:title=" ">
<polygon fill="white" stroke="#666666" points="2489.5,-96 2369.5,-96 2369.5,-66 2489.5,-66 2489.5,-96"/>
<text text-anchor="start" x="2377.5" y="-84" font-family="Helvetica,sans-Serif" font-size="10.00">src/protocols/webdav</text>
<text text-anchor="middle" x="2429.5" y="-73" font-family="Helvetica,sans-Serif" font-size="10.00">/tpc_pull.c</text>
</a>
</g>
</g>
<!-- Node1&#45;&gt;Node23 -->
<g id="edge25_Node000001_Node000023" class="edge">
<title>Node1&#45;&gt;Node23</title>
<g id="a_edge25_Node000001_Node000023"><a xlink:title=" ">
<path fill="none" stroke="#63b8ff" d="M1331.62,-139.34C1526.91,-135.26 2158.56,-120.46 2360.5,-96 2363.41,-95.65 2366.38,-95.24 2369.38,-94.78"/>
<polygon fill="#63b8ff" stroke="#63b8ff" points="1331.49,-135.84 1321.56,-139.55 1331.63,-142.84 1331.49,-135.84"/>
</a>
</g>
</g>
<!-- Node24 -->
<g id="Node000024" class="node">
<title>Node24</title>
<g id="a_Node000024"><a xlink:href="tpc__push_8c.html" target="_top" xlink:title=" ">
<polygon fill="white" stroke="#666666" points="2627.5,-96 2507.5,-96 2507.5,-66 2627.5,-66 2627.5,-96"/>
<text text-anchor="start" x="2515.5" y="-84" font-family="Helvetica,sans-Serif" font-size="10.00">src/protocols/webdav</text>
<text text-anchor="middle" x="2567.5" y="-73" font-family="Helvetica,sans-Serif" font-size="10.00">/tpc_push.c</text>
</a>
</g>
</g>
<!-- Node1&#45;&gt;Node24 -->
<g id="edge26_Node000001_Node000024" class="edge">
<title>Node1&#45;&gt;Node24</title>
<g id="a_edge26_Node000001_Node000024"><a xlink:title=" ">
<path fill="none" stroke="#63b8ff" d="M1332.11,-139.64C1543.8,-136.36 2268.47,-123.33 2498.5,-96 2501.41,-95.65 2504.39,-95.25 2507.38,-94.8"/>
<polygon fill="#63b8ff" stroke="#63b8ff" points="1331.77,-136.15 1321.83,-139.8 1331.88,-143.15 1331.77,-136.15"/>
</a>
</g>
</g>
<!-- Node25 -->
<g id="Node000025" class="node">
<title>Node25</title>
<g id="a_Node000025"><a xlink:href="tpc__thread_8c.html" target="_top" xlink:title=" ">
<polygon fill="white" stroke="#666666" points="2765.5,-96 2645.5,-96 2645.5,-66 2765.5,-66 2765.5,-96"/>
<text text-anchor="start" x="2653.5" y="-84" font-family="Helvetica,sans-Serif" font-size="10.00">src/protocols/webdav</text>
<text text-anchor="middle" x="2705.5" y="-73" font-family="Helvetica,sans-Serif" font-size="10.00">/tpc_thread.c</text>
</a>
</g>
</g>
<!-- Node1&#45;&gt;Node25 -->
<g id="edge27_Node000001_Node000025" class="edge">
<title>Node1&#45;&gt;Node25</title>
<g id="a_edge27_Node000001_Node000025"><a xlink:title=" ">
<path fill="none" stroke="#63b8ff" d="M1331.83,-139.9C1558.1,-137.36 2377.98,-126.23 2636.5,-96 2639.41,-95.66 2642.39,-95.26 2645.38,-94.81"/>
<polygon fill="#63b8ff" stroke="#63b8ff" points="1331.79,-136.4 1321.83,-140.01 1331.86,-143.4 1331.79,-136.4"/>
</a>
</g>
</g>
<!-- Node6&#45;&gt;Node5 -->
<g id="edge7_Node000006_Node000005" class="edge">
<title>Node6&#45;&gt;Node5</title>
<g id="a_edge7_Node000006_Node000005"><a xlink:title=" ">
<path fill="none" stroke="#63b8ff" d="M467.41,-64.53C404.89,-51.99 319.08,-34.77 268.25,-24.58"/>
<polygon fill="#63b8ff" stroke="#63b8ff" points="466.74,-67.97 477.24,-66.51 468.12,-61.11 466.74,-67.97"/>
</a>
</g>
</g>
<!-- Node7 -->
<g id="Node000007" class="node">
<title>Node7</title>
<g id="a_Node000007"><a xlink:href="backend__async__queue_8c.html" target="_top" xlink:title=" ">
<polygon fill="white" stroke="#666666" points="576,-30 467,-30 467,0 576,0 576,-30"/>
<text text-anchor="start" x="475" y="-18" font-family="Helvetica,sans-Serif" font-size="10.00">src/fs/xfer/backend</text>
<text text-anchor="middle" x="521.5" y="-7" font-family="Helvetica,sans-Serif" font-size="10.00">_async_queue.c</text>
</a>
</g>
</g>
<!-- Node6&#45;&gt;Node7 -->
<g id="edge6_Node000006_Node000007" class="edge">
<title>Node6&#45;&gt;Node7</title>
<g id="a_edge6_Node000006_Node000007"><a xlink:title=" ">
<path fill="none" stroke="#63b8ff" d="M535.91,-56.11C532.78,-47.38 529.33,-37.78 526.59,-30.16"/>
<polygon fill="#63b8ff" stroke="#63b8ff" points="532.72,-57.57 539.4,-65.8 539.31,-55.2 532.72,-57.57"/>
</a>
</g>
</g>
<!-- Node6&#45;&gt;Node8 -->
<g id="edge8_Node000006_Node000008" class="edge">
<title>Node6&#45;&gt;Node8</title>
<g id="a_edge8_Node000006_Node000008"><a xlink:title=" ">
<path fill="none" stroke="#63b8ff" d="M579.29,-60.97C597.45,-51.03 619.28,-39.09 635.88,-30.01"/>
<polygon fill="#63b8ff" stroke="#63b8ff" points="577.27,-58.09 570.18,-65.95 580.63,-64.23 577.27,-58.09"/>
</a>
</g>
</g>
<!-- Node9 -->
<g id="Node000009" class="node">
<title>Node9</title>
<g id="a_Node000009"><a xlink:href="stage__engine__reconcile_8c.html" target="_top" xlink:title=" ">
<polygon fill="white" stroke="#666666" points="448.5,-30 314.5,-30 314.5,0 448.5,0 448.5,-30"/>
<text text-anchor="start" x="322.5" y="-18" font-family="Helvetica,sans-Serif" font-size="10.00">src/fs/xfer/stage_engine</text>
<text text-anchor="middle" x="381.5" y="-7" font-family="Helvetica,sans-Serif" font-size="10.00">_reconcile.c</text>
</a>
</g>
</g>
<!-- Node6&#45;&gt;Node9 -->
<g id="edge9_Node000006_Node000009" class="edge">
<title>Node6&#45;&gt;Node9</title>
<g id="a_edge9_Node000006_Node000009"><a xlink:title=" ">
<path fill="none" stroke="#63b8ff" d="M499.14,-62.19C473.25,-52.02 441.27,-39.47 417.19,-30.01"/>
<polygon fill="#63b8ff" stroke="#63b8ff" points="498.14,-65.56 508.73,-65.95 500.7,-59.04 498.14,-65.56"/>
</a>
</g>
</g>
<!-- Node6&#45;&gt;Node10 -->
<g id="edge10_Node000006_Node000010" class="edge">
<title>Node6&#45;&gt;Node10</title>
<g id="a_edge10_Node000006_Node000010"><a xlink:title=" ">
<path fill="none" stroke="#63b8ff" d="M613.5,-63.58C657.17,-53.19 713.03,-39.9 754.6,-30.01"/>
<polygon fill="#63b8ff" stroke="#63b8ff" points="612.45,-60.24 603.53,-65.95 614.07,-67.05 612.45,-60.24"/>
</a>
</g>
</g>
</g>
</svg>

<g id="navigator" transform="translate(0 0)" fill="#404254">
  <rect fill="#f2f5e9" fill-opacity="0.5" stroke="#606060" stroke-width=".5" x="0" y="0" width="60" height="60"/>
  <use id="zoomplus" xlink:href="#zoomPlus" x="17" y="9" onmousedown="handleZoom(evt,'in')"/>
  <use id="zoomminus" xlink:href="#zoomMin" x="42" y="9" onmousedown="handleZoom(evt,'out')"/>
  <use id="reset" xlink:href="#resetDef" x="30" y="36" onmousedown="handleReset()"/>
   <use id="arrowup" xlink:href="#arrowUp" x="0" y="0" onmousedown="handlePan(0,-1)"/>
  <use id="arrowright" xlink:href="#arrowRight" x="0" y="0" onmousedown="handlePan(1,0)"/>
  <use id="arrowdown" xlink:href="#arrowDown" x="0" y="0" onmousedown="handlePan(0,1)"/>
  <use id="arrowleft" xlink:href="#arrowLeft" x="0" y="0" onmousedown="handlePan(-1,0)"/>
</g>
<svg viewBox="0 0 15 15" width="100%" height="30px" preserveAspectRatio="xMaxYMin meet">
 <g id="arrow_out" transform="scale(0.3 0.3)">
  <a xlink:href="xfer_8h__dep__incl_org.svg" target="_base">
   <rect id="button" ry="5" rx="5" y="6" x="6" height="38" width="38"
        fill="#f2f5e9" fill-opacity="0.5" stroke="#606060" stroke-width="1.0"/>
   <path id="arrow"
     d="M 11.500037,31.436501 C 11.940474,20.09759 22.043105,11.32322 32.158766,21.979434 L 37.068811,17.246167 C 37.068811,17.246167 37.088388,32 37.088388,32 L 22.160133,31.978069 C 22.160133,31.978069 26.997745,27.140456 26.997745,27.140456 C 18.528582,18.264221 13.291696,25.230495 11.500037,31.436501 z"
     style="fill:#404040;"/>
  </a>
 </g>
</svg>

<style type='text/css'>
<![CDATA[
[data-mouse-over-selected='false'] { opacity: 0.7; }
[data-mouse-over-selected='true']  { opacity: 1.0; }
]]>
</style>
<script type="application/ecmascript"><![CDATA[
document.addEventListener('DOMContentLoaded', (event) => {
  highlightEdges();
  highlightAdjacentNodes();
});
]]></script>
</svg>
