<?xml version="1.0" encoding="UTF-8" standalone="no"?>
<!DOCTYPE svg PUBLIC "-//W3C//DTD SVG 1.1//EN"
 "http://www.w3.org/Graphics/SVG/1.1/DTD/svg11.dtd">
<!-- Generated by graphviz version 2.43.0 (0)
 -->
<!-- Title: client/apps/copy/xrdcp.c Pages: 1 -->
<svg width="1488pt" height="500pt"
 viewBox="0.00 0.00 1488.00 500.00" xmlns="http://www.w3.org/2000/svg" xmlns:xlink="http://www.w3.org/1999/xlink">
<g id="graph0" class="graph" transform="scale(1 1) rotate(0) translate(4 496)">
<title>client/apps/copy/xrdcp.c</title>
<!-- Node1 -->
<g id="Node000001" class="node">
<title>Node1</title>
<g id="a_Node000001"><a xlink:title=" ">
<polygon fill="#999999" stroke="#666666" points="1022,-492 888,-492 888,-473 1022,-473 1022,-492"/>
<text text-anchor="middle" x="955" y="-480" font-family="Helvetica,sans-Serif" font-size="10.00">client/apps/copy/xrdcp.c</text>
</a>
</g>
</g>
<!-- Node2 -->
<g id="Node000002" class="node">
<title>Node2</title>
<g id="a_Node000002"><a xlink:href="xrdcp__internal_8h.html" target="_top" xlink:title=" ">
<polygon fill="white" stroke="#666666" points="948.5,-437 853.5,-437 853.5,-418 948.5,-418 948.5,-437"/>
<text text-anchor="middle" x="901" y="-425" font-family="Helvetica,sans-Serif" font-size="10.00">xrdcp_internal.h</text>
</a>
</g>
</g>
<!-- Node1&#45;&gt;Node2 -->
<g id="edge1_Node000001_Node000002" class="edge">
<title>Node1&#45;&gt;Node2</title>
<g id="a_edge1_Node000001_Node000002"><a xlink:title=" ">
<path fill="none" stroke="#63b8ff" d="M946.08,-472.75C938.22,-465.03 926.57,-453.6 917.08,-444.28"/>
<polygon fill="#63b8ff" stroke="#63b8ff" points="919.34,-441.6 909.75,-437.09 914.44,-446.59 919.34,-441.6"/>
</a>
</g>
</g>
<!-- Node35 -->
<g id="Node000035" class="node">
<title>Node35</title>
<g id="a_Node000035"><a xlink:href="version_8h.html" target="_top" xlink:title=" ">
<polygon fill="white" stroke="#666666" points="1053,-437 967,-437 967,-418 1053,-418 1053,-437"/>
<text text-anchor="middle" x="1010" y="-425" font-family="Helvetica,sans-Serif" font-size="10.00">core/version.h</text>
</a>
</g>
</g>
<!-- Node1&#45;&gt;Node35 -->
<g id="edge50_Node000001_Node000035" class="edge">
<title>Node1&#45;&gt;Node35</title>
<g id="a_edge50_Node000001_Node000035"><a xlink:title=" ">
<path fill="none" stroke="#63b8ff" d="M964.08,-472.75C972.09,-465.03 983.96,-453.6 993.62,-444.28"/>
<polygon fill="#63b8ff" stroke="#63b8ff" points="996.31,-446.55 1001.09,-437.09 991.46,-441.51 996.31,-446.55"/>
</a>
</g>
</g>
<!-- Node3 -->
<g id="Node000003" class="node">
<title>Node3</title>
<g id="a_Node000003"><a xlink:href="brix_8h.html" target="_top" xlink:title=" ">
<polygon fill="white" stroke="#666666" points="434,-327 390,-327 390,-308 434,-308 434,-327"/>
<text text-anchor="middle" x="412" y="-315" font-family="Helvetica,sans-Serif" font-size="10.00">brix.h</text>
</a>
</g>
</g>
<!-- Node2&#45;&gt;Node3 -->
<g id="edge2_Node000002_Node000003" class="edge">
<title>Node2&#45;&gt;Node3</title>
<g id="a_edge2_Node000002_Node000003"><a xlink:title=" ">
<path fill="none" stroke="#63b8ff" d="M853.33,-422.56C792.16,-416.84 683.05,-404.39 592,-382 537.82,-368.68 477.04,-345.41 441.78,-331.04"/>
<polygon fill="#63b8ff" stroke="#63b8ff" points="442.7,-327.63 432.12,-327.07 440.04,-334.11 442.7,-327.63"/>
</a>
</g>
</g>
<!-- Node6 -->
<g id="Node000006" class="node">
<title>Node6</title>
<g id="a_Node000006"><a xlink:title=" ">
<polygon fill="#e0e0e0" stroke="#999999" points="50,-266.5 0,-266.5 0,-247.5 50,-247.5 50,-266.5"/>
<text text-anchor="middle" x="25" y="-254.5" font-family="Helvetica,sans-Serif" font-size="10.00">stdio.h</text>
</a>
</g>
</g>
<!-- Node2&#45;&gt;Node6 -->
<g id="edge43_Node000002_Node000006" class="edge">
<title>Node2&#45;&gt;Node6</title>
<g id="a_edge43_Node000002_Node000006"><a xlink:title=" ">
<path fill="none" stroke="#63b8ff" d="M853.27,-426.41C760.73,-425.36 550.89,-418.73 379,-382 254.09,-355.31 112.76,-296.72 53.51,-270.79"/>
<polygon fill="#63b8ff" stroke="#63b8ff" points="54.64,-267.46 44.07,-266.63 51.81,-273.86 54.64,-267.46"/>
</a>
</g>
</g>
<!-- Node7 -->
<g id="Node000007" class="node">
<title>Node7</title>
<g id="a_Node000007"><a xlink:href="time_8h.html" target="_top" xlink:title=" ">
<polygon fill="white" stroke="#666666" points="721,-266.5 673,-266.5 673,-247.5 721,-247.5 721,-266.5"/>
<text text-anchor="middle" x="697" y="-254.5" font-family="Helvetica,sans-Serif" font-size="10.00">time.h</text>
</a>
</g>
</g>
<!-- Node2&#45;&gt;Node7 -->
<g id="edge48_Node000002_Node000007" class="edge">
<title>Node2&#45;&gt;Node7</title>
<g id="a_edge48_Node000002_Node000007"><a xlink:title=" ">
<path fill="none" stroke="#63b8ff" d="M853.22,-419.78C808.3,-412.5 745.43,-399.55 728,-382 699.81,-353.62 695.95,-303.73 696.13,-276.69"/>
<polygon fill="#63b8ff" stroke="#63b8ff" points="699.63,-276.72 696.4,-266.63 692.64,-276.54 699.63,-276.72"/>
</a>
</g>
</g>
<!-- Node22 -->
<g id="Node000022" class="node">
<title>Node22</title>
<g id="a_Node000022"><a xlink:href="xferjournal_8h.html" target="_top" xlink:title=" ">
<polygon fill="white" stroke="#666666" points="480.5,-382 387.5,-382 387.5,-363 480.5,-363 480.5,-382"/>
<text text-anchor="middle" x="434" y="-370" font-family="Helvetica,sans-Serif" font-size="10.00">cli/xferjournal.h</text>
</a>
</g>
</g>
<!-- Node2&#45;&gt;Node22 -->
<g id="edge30_Node000002_Node000022" class="edge">
<title>Node2&#45;&gt;Node22</title>
<g id="a_edge30_Node000002_Node000022"><a xlink:title=" ">
<path fill="none" stroke="#63b8ff" d="M853.22,-421.08C766.5,-411.24 583.63,-390.48 490.73,-379.94"/>
<polygon fill="#63b8ff" stroke="#63b8ff" points="491.01,-376.45 480.67,-378.8 490.22,-383.4 491.01,-376.45"/>
</a>
</g>
</g>
<!-- Node23 -->
<g id="Node000023" class="node">
<title>Node23</title>
<g id="a_Node000023"><a xlink:href="cli__hint_8h.html" target="_top" xlink:title=" ">
<polygon fill="white" stroke="#666666" points="675.5,-382 600.5,-382 600.5,-363 675.5,-363 675.5,-382"/>
<text text-anchor="middle" x="638" y="-370" font-family="Helvetica,sans-Serif" font-size="10.00">cli/cli_hint.h</text>
</a>
</g>
</g>
<!-- Node2&#45;&gt;Node23 -->
<g id="edge32_Node000002_Node000023" class="edge">
<title>Node2&#45;&gt;Node23</title>
<g id="a_edge32_Node000002_Node000023"><a xlink:title=" ">
<path fill="none" stroke="#63b8ff" d="M858.74,-417.98C811.57,-408.48 735.38,-393.12 685.99,-383.17"/>
<polygon fill="#63b8ff" stroke="#63b8ff" points="686.38,-379.68 675.88,-381.13 684.99,-386.54 686.38,-379.68"/>
</a>
</g>
</g>
<!-- Node24 -->
<g id="Node000024" class="node">
<title>Node24</title>
<g id="a_Node000024"><a xlink:href="crypto_8h.html" target="_top" xlink:title=" ">
<polygon fill="white" stroke="#666666" points="845,-200.5 725,-200.5 725,-181.5 845,-181.5 845,-200.5"/>
<text text-anchor="middle" x="785" y="-188.5" font-family="Helvetica,sans-Serif" font-size="10.00">core/compat/crypto.h</text>
</a>
</g>
</g>
<!-- Node2&#45;&gt;Node24 -->
<g id="edge35_Node000002_Node000024" class="edge">
<title>Node2&#45;&gt;Node24</title>
<g id="a_edge35_Node000002_Node000024"><a xlink:title=" ">
<path fill="none" stroke="#63b8ff" d="M853.46,-425.08C821.69,-421.35 782,-410.72 761,-382 722.59,-329.49 756.92,-246.24 775.23,-209.93"/>
<polygon fill="#63b8ff" stroke="#63b8ff" points="778.57,-211.1 780.1,-200.62 772.37,-207.86 778.57,-211.1"/>
</a>
</g>
</g>
<!-- Node25 -->
<g id="Node000025" class="node">
<title>Node25</title>
<g id="a_Node000025"><a xlink:title=" ">
<polygon fill="#e0e0e0" stroke="#999999" points="824,-382 770,-382 770,-363 824,-363 824,-382"/>
<text text-anchor="middle" x="797" y="-370" font-family="Helvetica,sans-Serif" font-size="10.00">dirent.h</text>
</a>
</g>
</g>
<!-- Node2&#45;&gt;Node25 -->
<g id="edge38_Node000002_Node000025" class="edge">
<title>Node2&#45;&gt;Node25</title>
<g id="a_edge38_Node000002_Node000025"><a xlink:title=" ">
<path fill="none" stroke="#63b8ff" d="M884.29,-417.98C867.79,-409.57 842.3,-396.59 823.12,-386.81"/>
<polygon fill="#63b8ff" stroke="#63b8ff" points="824.51,-383.59 814.01,-382.17 821.33,-389.83 824.51,-383.59"/>
</a>
</g>
</g>
<!-- Node26 -->
<g id="Node000026" class="node">
<title>Node26</title>
<g id="a_Node000026"><a xlink:title=" ">
<polygon fill="#e0e0e0" stroke="#999999" points="893.5,-382 842.5,-382 842.5,-363 893.5,-363 893.5,-382"/>
<text text-anchor="middle" x="868" y="-370" font-family="Helvetica,sans-Serif" font-size="10.00">errno.h</text>
</a>
</g>
</g>
<!-- Node2&#45;&gt;Node26 -->
<g id="edge39_Node000002_Node000026" class="edge">
<title>Node2&#45;&gt;Node26</title>
<g id="a_edge39_Node000002_Node000026"><a xlink:title=" ">
<path fill="none" stroke="#63b8ff" d="M895.55,-417.75C890.99,-410.42 884.33,-399.73 878.71,-390.7"/>
<polygon fill="#63b8ff" stroke="#63b8ff" points="881.6,-388.73 873.35,-382.09 875.66,-392.43 881.6,-388.73"/>
</a>
</g>
</g>
<!-- Node27 -->
<g id="Node000027" class="node">
<title>Node27</title>
<g id="a_Node000027"><a xlink:title=" ">
<polygon fill="#e0e0e0" stroke="#999999" points="958.5,-382 911.5,-382 911.5,-363 958.5,-363 958.5,-382"/>
<text text-anchor="middle" x="935" y="-370" font-family="Helvetica,sans-Serif" font-size="10.00">fcntl.h</text>
</a>
</g>
</g>
<!-- Node2&#45;&gt;Node27 -->
<g id="edge40_Node000002_Node000027" class="edge">
<title>Node2&#45;&gt;Node27</title>
<g id="a_edge40_Node000002_Node000027"><a xlink:title=" ">
<path fill="none" stroke="#63b8ff" d="M906.61,-417.75C911.32,-410.42 918.17,-399.73 923.97,-390.7"/>
<polygon fill="#63b8ff" stroke="#63b8ff" points="927.04,-392.4 929.49,-382.09 921.14,-388.62 927.04,-392.4"/>
</a>
</g>
</g>
<!-- Node28 -->
<g id="Node000028" class="node">
<title>Node28</title>
<g id="a_Node000028"><a xlink:title=" ">
<polygon fill="#e0e0e0" stroke="#999999" points="1023.5,-382 976.5,-382 976.5,-363 1023.5,-363 1023.5,-382"/>
<text text-anchor="middle" x="1000" y="-370" font-family="Helvetica,sans-Serif" font-size="10.00">glob.h</text>
</a>
</g>
</g>
<!-- Node2&#45;&gt;Node28 -->
<g id="edge41_Node000002_Node000028" class="edge">
<title>Node2&#45;&gt;Node28</title>
<g id="a_edge41_Node000002_Node000028"><a xlink:title=" ">
<path fill="none" stroke="#63b8ff" d="M916.91,-417.98C932.55,-409.61 956.66,-396.7 974.88,-386.95"/>
<polygon fill="#63b8ff" stroke="#63b8ff" points="976.64,-389.98 983.8,-382.17 973.34,-383.8 976.64,-389.98"/>
</a>
</g>
</g>
<!-- Node29 -->
<g id="Node000029" class="node">
<title>Node29</title>
<g id="a_Node000029"><a xlink:title=" ">
<polygon fill="#e0e0e0" stroke="#999999" points="1104.5,-382 1041.5,-382 1041.5,-363 1104.5,-363 1104.5,-382"/>
<text text-anchor="middle" x="1073" y="-370" font-family="Helvetica,sans-Serif" font-size="10.00">pthread.h</text>
</a>
</g>
</g>
<!-- Node2&#45;&gt;Node29 -->
<g id="edge42_Node000002_Node000029" class="edge">
<title>Node2&#45;&gt;Node29</title>
<g id="a_edge42_Node000002_Node000029"><a xlink:title=" ">
<path fill="none" stroke="#63b8ff" d="M928.63,-417.98C957.51,-409.09 1003.01,-395.07 1035.2,-385.15"/>
<polygon fill="#63b8ff" stroke="#63b8ff" points="1036.62,-388.37 1045.15,-382.08 1034.56,-381.68 1036.62,-388.37"/>
</a>
</g>
</g>
<!-- Node30 -->
<g id="Node000030" class="node">
<title>Node30</title>
<g id="a_Node000030"><a xlink:title=" ">
<polygon fill="#e0e0e0" stroke="#999999" points="1175.5,-382 1122.5,-382 1122.5,-363 1175.5,-363 1175.5,-382"/>
<text text-anchor="middle" x="1149" y="-370" font-family="Helvetica,sans-Serif" font-size="10.00">stdlib.h</text>
</a>
</g>
</g>
<!-- Node2&#45;&gt;Node30 -->
<g id="edge44_Node000002_Node000030" class="edge">
<title>Node2&#45;&gt;Node30</title>
<g id="a_edge44_Node000002_Node000030"><a xlink:title=" ">
<path fill="none" stroke="#63b8ff" d="M943.93,-417.96C984.9,-409.7 1048.62,-396.63 1112.44,-382.3"/>
<polygon fill="#63b8ff" stroke="#63b8ff" points="1113.28,-385.7 1122.27,-380.09 1111.74,-378.87 1113.28,-385.7"/>
</a>
</g>
</g>
<!-- Node31 -->
<g id="Node000031" class="node">
<title>Node31</title>
<g id="a_Node000031"><a xlink:title=" ">
<polygon fill="#e0e0e0" stroke="#999999" points="1246.5,-382 1193.5,-382 1193.5,-363 1246.5,-363 1246.5,-382"/>
<text text-anchor="middle" x="1220" y="-370" font-family="Helvetica,sans-Serif" font-size="10.00">string.h</text>
</a>
</g>
</g>
<!-- Node2&#45;&gt;Node31 -->
<g id="edge45_Node000002_Node000031" class="edge">
<title>Node2&#45;&gt;Node31</title>
<g id="a_edge45_Node000002_Node000031"><a xlink:title=" ">
<path fill="none" stroke="#63b8ff" d="M948.59,-419.26C1017.1,-408.82 1139.42,-390.04 1183.31,-382.12"/>
<polygon fill="#63b8ff" stroke="#63b8ff" points="1184.12,-385.52 1193.3,-380.23 1182.82,-378.65 1184.12,-385.52"/>
</a>
</g>
</g>
<!-- Node32 -->
<g id="Node000032" class="node">
<title>Node32</title>
<g id="a_Node000032"><a xlink:title=" ">
<polygon fill="#e0e0e0" stroke="#999999" points="1323.5,-382 1264.5,-382 1264.5,-363 1323.5,-363 1323.5,-382"/>
<text text-anchor="middle" x="1294" y="-370" font-family="Helvetica,sans-Serif" font-size="10.00">strings.h</text>
</a>
</g>
</g>
<!-- Node2&#45;&gt;Node32 -->
<g id="edge46_Node000002_Node000032" class="edge">
<title>Node2&#45;&gt;Node32</title>
<g id="a_edge46_Node000002_Node000032"><a xlink:title=" ">
<path fill="none" stroke="#63b8ff" d="M948.57,-419.3C951.76,-418.85 954.93,-418.41 958,-418 1086.98,-400.6 1122.79,-404.39 1254.14,-382.18"/>
<polygon fill="#63b8ff" stroke="#63b8ff" points="1254.92,-385.6 1264.19,-380.46 1253.74,-378.7 1254.92,-385.6"/>
</a>
</g>
</g>
<!-- Node33 -->
<g id="Node000033" class="node">
<title>Node33</title>
<g id="a_Node000033"><a xlink:title=" ">
<polygon fill="#e0e0e0" stroke="#999999" points="1406,-382 1342,-382 1342,-363 1406,-363 1406,-382"/>
<text text-anchor="middle" x="1374" y="-370" font-family="Helvetica,sans-Serif" font-size="10.00">sys/stat.h</text>
</a>
</g>
</g>
<!-- Node2&#45;&gt;Node33 -->
<g id="edge47_Node000002_Node000033" class="edge">
<title>Node2&#45;&gt;Node33</title>
<g id="a_edge47_Node000002_Node000033"><a xlink:title=" ">
<path fill="none" stroke="#63b8ff" d="M948.56,-419.22C951.75,-418.79 954.92,-418.38 958,-418 1120.95,-398.04 1165.71,-406.68 1331.76,-382.03"/>
<polygon fill="#63b8ff" stroke="#63b8ff" points="1332.46,-385.46 1341.83,-380.51 1331.42,-378.54 1332.46,-385.46"/>
</a>
</g>
</g>
<!-- Node34 -->
<g id="Node000034" class="node">
<title>Node34</title>
<g id="a_Node000034"><a xlink:title=" ">
<polygon fill="#e0e0e0" stroke="#999999" points="1480,-382 1424,-382 1424,-363 1480,-363 1480,-382"/>
<text text-anchor="middle" x="1452" y="-370" font-family="Helvetica,sans-Serif" font-size="10.00">unistd.h</text>
</a>
</g>
</g>
<!-- Node2&#45;&gt;Node34 -->
<g id="edge49_Node000002_Node000034" class="edge">
<title>Node2&#45;&gt;Node34</title>
<g id="a_edge49_Node000002_Node000034"><a xlink:title=" ">
<path fill="none" stroke="#63b8ff" d="M948.55,-419.16C951.75,-418.74 954.92,-418.35 958,-418 1157.17,-395.33 1211.86,-412.32 1413.76,-381.96"/>
<polygon fill="#63b8ff" stroke="#63b8ff" points="1414.44,-385.4 1423.8,-380.43 1413.39,-378.48 1414.44,-385.4"/>
</a>
</g>
</g>
<!-- Node4 -->
<g id="Node000004" class="node">
<title>Node4</title>
<g id="a_Node000004"><a xlink:title=" ">
<polygon fill="#e0e0e0" stroke="#999999" points="259.5,-19 206.5,-19 206.5,0 259.5,0 259.5,-19"/>
<text text-anchor="middle" x="233" y="-7" font-family="Helvetica,sans-Serif" font-size="10.00">stdint.h</text>
</a>
</g>
</g>
<!-- Node3&#45;&gt;Node4 -->
<g id="edge3_Node000003_Node000004" class="edge">
<title>Node3&#45;&gt;Node4</title>
<g id="a_edge3_Node000003_Node000004"><a xlink:title=" ">
<path fill="none" stroke="#63b8ff" d="M389.8,-315.77C328.83,-313.38 160.52,-303.96 117,-272 85.12,-248.59 78,-231.56 78,-192 78,-192 78,-192 78,-124 78,-65.43 150.94,-33.8 196.75,-19.72"/>
<polygon fill="#63b8ff" stroke="#63b8ff" points="197.75,-23.07 206.35,-16.9 195.77,-16.36 197.75,-23.07"/>
</a>
</g>
</g>
<!-- Node5 -->
<g id="Node000005" class="node">
<title>Node5</title>
<g id="a_Node000005"><a xlink:title=" ">
<polygon fill="#e0e0e0" stroke="#999999" points="768,-134.5 712,-134.5 712,-115.5 768,-115.5 768,-134.5"/>
<text text-anchor="middle" x="740" y="-122.5" font-family="Helvetica,sans-Serif" font-size="10.00">stddef.h</text>
</a>
</g>
</g>
<!-- Node3&#45;&gt;Node5 -->
<g id="edge4_Node000003_Node000005" class="edge">
<title>Node3&#45;&gt;Node5</title>
<g id="a_edge4_Node000003_Node000005"><a xlink:title=" ">
<path fill="none" stroke="#63b8ff" d="M434.14,-315.84C468.24,-313.75 534.14,-305.33 577,-272 615.65,-241.95 594.99,-209.16 631,-176 651.14,-157.45 679.36,-144.76 702.04,-136.81"/>
<polygon fill="#63b8ff" stroke="#63b8ff" points="703.32,-140.07 711.7,-133.59 701.11,-133.43 703.32,-140.07"/>
</a>
</g>
</g>
<!-- Node3&#45;&gt;Node6 -->
<g id="edge5_Node000003_Node000006" class="edge">
<title>Node3&#45;&gt;Node6</title>
<g id="a_edge5_Node000003_Node000006"><a xlink:title=" ">
<path fill="none" stroke="#63b8ff" d="M389.71,-315.33C334.06,-312.06 184.81,-301.04 64,-272 61.34,-271.36 58.6,-270.6 55.88,-269.77"/>
<polygon fill="#63b8ff" stroke="#63b8ff" points="56.8,-266.39 46.2,-266.55 54.59,-273.03 56.8,-266.39"/>
</a>
</g>
</g>
<!-- Node3&#45;&gt;Node7 -->
<g id="edge6_Node000003_Node000007" class="edge">
<title>Node3&#45;&gt;Node7</title>
<g id="a_edge6_Node000003_Node000007"><a xlink:title=" ">
<path fill="none" stroke="#63b8ff" d="M434.36,-311.91C484,-301.72 603.66,-277.16 662.77,-265.03"/>
<polygon fill="#63b8ff" stroke="#63b8ff" points="663.65,-268.42 672.74,-262.98 662.24,-261.56 663.65,-268.42"/>
</a>
</g>
</g>
<!-- Node8 -->
<g id="Node000008" class="node">
<title>Node8</title>
<g id="a_Node000008"><a xlink:title=" ">
<polygon fill="#e0e0e0" stroke="#999999" points="178,-134.5 106,-134.5 106,-115.5 178,-115.5 178,-134.5"/>
<text text-anchor="middle" x="142" y="-122.5" font-family="Helvetica,sans-Serif" font-size="10.00">sys/types.h</text>
</a>
</g>
</g>
<!-- Node3&#45;&gt;Node8 -->
<g id="edge9_Node000003_Node000008" class="edge">
<title>Node3&#45;&gt;Node8</title>
<g id="a_edge9_Node000003_Node000008"><a xlink:title=" ">
<path fill="none" stroke="#63b8ff" d="M389.9,-316.46C330.18,-315.84 167.86,-310.55 135,-272 104.08,-235.72 122.31,-174.07 134.2,-143.82"/>
<polygon fill="#63b8ff" stroke="#63b8ff" points="137.46,-145.1 138.06,-134.52 130.99,-142.42 137.46,-145.1"/>
</a>
</g>
</g>
<!-- Node9 -->
<g id="Node000009" class="node">
<title>Node9</title>
<g id="a_Node000009"><a xlink:href="root_2protocol_2protocol_8h.html" target="_top" xlink:title=" ">
<polygon fill="white" stroke="#666666" points="567.5,-272 440.5,-272 440.5,-242 567.5,-242 567.5,-272"/>
<text text-anchor="start" x="448.5" y="-260" font-family="Helvetica,sans-Serif" font-size="10.00">protocols/root/protocol</text>
<text text-anchor="middle" x="504" y="-249" font-family="Helvetica,sans-Serif" font-size="10.00">/protocol.h</text>
</a>
</g>
</g>
<!-- Node3&#45;&gt;Node9 -->
<g id="edge10_Node000003_Node000009" class="edge">
<title>Node3&#45;&gt;Node9</title>
<g id="a_edge10_Node000003_Node000009"><a xlink:title=" ">
<path fill="none" stroke="#63b8ff" d="M425.57,-307.87C438.06,-299.93 457.02,-287.87 473.18,-277.6"/>
<polygon fill="#63b8ff" stroke="#63b8ff" points="475.24,-280.43 481.8,-272.11 471.49,-274.53 475.24,-280.43"/>
</a>
</g>
</g>
<!-- Node17 -->
<g id="Node000017" class="node">
<title>Node17</title>
<g id="a_Node000017"><a xlink:href="wire__codec_8h.html" target="_top" xlink:title=" ">
<polygon fill="white" stroke="#666666" points="271.5,-206 144.5,-206 144.5,-176 271.5,-176 271.5,-206"/>
<text text-anchor="start" x="152.5" y="-194" font-family="Helvetica,sans-Serif" font-size="10.00">protocols/root/protocol</text>
<text text-anchor="middle" x="208" y="-183" font-family="Helvetica,sans-Serif" font-size="10.00">/codec/wire_codec.h</text>
</a>
</g>
</g>
<!-- Node3&#45;&gt;Node17 -->
<g id="edge26_Node000003_Node000017" class="edge">
<title>Node3&#45;&gt;Node17</title>
<g id="a_edge26_Node000003_Node000017"><a xlink:title=" ">
<path fill="none" stroke="#63b8ff" d="M412.41,-307.8C412.65,-292.35 410.8,-260.06 393,-242 384.78,-233.66 329.64,-219.37 281.68,-208.2"/>
<polygon fill="#63b8ff" stroke="#63b8ff" points="282.42,-204.77 271.88,-205.93 280.84,-211.59 282.42,-204.77"/>
</a>
</g>
</g>
<!-- Node19 -->
<g id="Node000019" class="node">
<title>Node19</title>
<g id="a_Node000019"><a xlink:href="brix__net_8h.html" target="_top" xlink:title=" ">
<polygon fill="white" stroke="#666666" points="209.5,-266.5 144.5,-266.5 144.5,-247.5 209.5,-247.5 209.5,-266.5"/>
<text text-anchor="middle" x="177" y="-254.5" font-family="Helvetica,sans-Serif" font-size="10.00">brix_net.h</text>
</a>
</g>
</g>
<!-- Node3&#45;&gt;Node19 -->
<g id="edge27_Node000003_Node000019" class="edge">
<title>Node3&#45;&gt;Node19</title>
<g id="a_edge27_Node000003_Node000019"><a xlink:title=" ">
<path fill="none" stroke="#63b8ff" d="M389.99,-312.23C353.82,-305.03 279.65,-289.55 218,-272 215.53,-271.3 212.99,-270.53 210.45,-269.74"/>
<polygon fill="#63b8ff" stroke="#63b8ff" points="211.31,-266.34 200.72,-266.56 209.14,-272.99 211.31,-266.34"/>
</a>
</g>
</g>
<!-- Node20 -->
<g id="Node000020" class="node">
<title>Node20</title>
<g id="a_Node000020"><a xlink:href="brix__auth_8h.html" target="_top" xlink:title=" ">
<polygon fill="white" stroke="#666666" points="298.5,-266.5 227.5,-266.5 227.5,-247.5 298.5,-247.5 298.5,-266.5"/>
<text text-anchor="middle" x="263" y="-254.5" font-family="Helvetica,sans-Serif" font-size="10.00">brix_auth.h</text>
</a>
</g>
</g>
<!-- Node3&#45;&gt;Node20 -->
<g id="edge28_Node000003_Node000020" class="edge">
<title>Node3&#45;&gt;Node20</title>
<g id="a_edge28_Node000003_Node000020"><a xlink:title=" ">
<path fill="none" stroke="#63b8ff" d="M390.33,-307.99C365.06,-298.07 323.09,-281.59 294.28,-270.28"/>
<polygon fill="#63b8ff" stroke="#63b8ff" points="295.28,-266.91 284.69,-266.52 292.72,-273.43 295.28,-266.91"/>
</a>
</g>
</g>
<!-- Node21 -->
<g id="Node000021" class="node">
<title>Node21</title>
<g id="a_Node000021"><a xlink:href="brix__ops_8h.html" target="_top" xlink:title=" ">
<polygon fill="white" stroke="#666666" points="383.5,-266.5 316.5,-266.5 316.5,-247.5 383.5,-247.5 383.5,-266.5"/>
<text text-anchor="middle" x="350" y="-254.5" font-family="Helvetica,sans-Serif" font-size="10.00">brix_ops.h</text>
</a>
</g>
</g>
<!-- Node3&#45;&gt;Node21 -->
<g id="edge29_Node000003_Node000021" class="edge">
<title>Node3&#45;&gt;Node21</title>
<g id="a_edge29_Node000003_Node000021"><a xlink:title=" ">
<path fill="none" stroke="#63b8ff" d="M402.85,-307.87C393.33,-298.88 378.2,-284.61 366.57,-273.64"/>
<polygon fill="#63b8ff" stroke="#63b8ff" points="368.86,-270.98 359.19,-266.67 364.06,-276.08 368.86,-270.98"/>
</a>
</g>
</g>
<!-- Node7&#45;&gt;Node5 -->
<g id="edge7_Node000007_Node000005" class="edge">
<title>Node7&#45;&gt;Node5</title>
<g id="a_edge7_Node000007_Node000005"><a xlink:title=" ">
<path fill="none" stroke="#63b8ff" d="M698.41,-247.42C700.99,-232.58 707.04,-201.3 716,-176 719.92,-164.94 725.55,-153.07 730.37,-143.68"/>
<polygon fill="#63b8ff" stroke="#63b8ff" points="733.58,-145.08 735.17,-134.61 727.4,-141.81 733.58,-145.08"/>
</a>
</g>
</g>
<!-- Node7&#45;&gt;Node7 -->
<g id="edge8_Node000007_Node000007" class="edge">
<title>Node7&#45;&gt;Node7</title>
<g id="a_edge8_Node000007_Node000007"><a xlink:title=" ">
<path fill="none" stroke="#63b8ff" d="M712.51,-266.53C725.46,-270.61 739,-267.43 739,-257 739,-249.26 731.54,-245.51 722.4,-245.76"/>
<polygon fill="#63b8ff" stroke="#63b8ff" points="721.77,-242.32 712.51,-247.47 722.96,-249.22 721.77,-242.32"/>
</a>
</g>
</g>
<!-- Node10 -->
<g id="Node000010" class="node">
<title>Node10</title>
<g id="a_Node000010"><a xlink:href="types_8h.html" target="_top" xlink:title=" ">
<polygon fill="white" stroke="#666666" points="287.5,-74 234.5,-74 234.5,-55 287.5,-55 287.5,-74"/>
<text text-anchor="middle" x="261" y="-62" font-family="Helvetica,sans-Serif" font-size="10.00">types.h</text>
</a>
</g>
</g>
<!-- Node9&#45;&gt;Node10 -->
<g id="edge11_Node000009_Node000010" class="edge">
<title>Node9&#45;&gt;Node10</title>
<g id="a_edge11_Node000009_Node000010"><a xlink:title=" ">
<path fill="none" stroke="#63b8ff" d="M440.26,-246.69C380.99,-234.11 296.92,-205.19 263,-140 254.06,-122.82 254.89,-100.26 257.12,-84.49"/>
<polygon fill="#63b8ff" stroke="#63b8ff" points="260.62,-84.83 258.88,-74.38 253.72,-83.63 260.62,-84.83"/>
</a>
</g>
</g>
<!-- Node11 -->
<g id="Node000011" class="node">
<title>Node11</title>
<g id="a_Node000011"><a xlink:href="opcodes_8h.html" target="_top" xlink:title=" ">
<polygon fill="white" stroke="#666666" points="604,-74 538,-74 538,-55 604,-55 604,-74"/>
<text text-anchor="middle" x="571" y="-62" font-family="Helvetica,sans-Serif" font-size="10.00">opcodes.h</text>
</a>
</g>
</g>
<!-- Node9&#45;&gt;Node11 -->
<g id="edge13_Node000009_Node000011" class="edge">
<title>Node9&#45;&gt;Node11</title>
<g id="a_edge13_Node000009_Node000011"><a xlink:title=" ">
<path fill="none" stroke="#63b8ff" d="M517.5,-241.71C534.14,-224.64 563.81,-195.88 593,-176 622.57,-155.86 646.19,-170.43 665,-140 672.01,-128.66 672.13,-121.27 665,-110 653.65,-92.07 632.91,-81.23 613.8,-74.74"/>
<polygon fill="#63b8ff" stroke="#63b8ff" points="614.6,-71.32 604.01,-71.73 612.54,-78.01 614.6,-71.32"/>
</a>
</g>
</g>
<!-- Node12 -->
<g id="Node000012" class="node">
<title>Node12</title>
<g id="a_Node000012"><a xlink:href="flags_8h.html" target="_top" xlink:title=" ">
<polygon fill="white" stroke="#666666" points="409.5,-200.5 360.5,-200.5 360.5,-181.5 409.5,-181.5 409.5,-200.5"/>
<text text-anchor="middle" x="385" y="-188.5" font-family="Helvetica,sans-Serif" font-size="10.00">flags.h</text>
</a>
</g>
</g>
<!-- Node9&#45;&gt;Node12 -->
<g id="edge14_Node000009_Node000012" class="edge">
<title>Node9&#45;&gt;Node12</title>
<g id="a_edge14_Node000009_Node000012"><a xlink:title=" ">
<path fill="none" stroke="#63b8ff" d="M477.88,-241.95C457.66,-231.08 429.82,-216.11 409.91,-205.4"/>
<polygon fill="#63b8ff" stroke="#63b8ff" points="411.3,-202.17 400.84,-200.52 407.99,-208.34 411.3,-202.17"/>
</a>
</g>
</g>
<!-- Node13 -->
<g id="Node000013" class="node">
<title>Node13</title>
<g id="a_Node000013"><a xlink:href="wire_8h.html" target="_top" xlink:title=" ">
<polygon fill="white" stroke="#666666" points="533.5,-200.5 486.5,-200.5 486.5,-181.5 533.5,-181.5 533.5,-200.5"/>
<text text-anchor="middle" x="510" y="-188.5" font-family="Helvetica,sans-Serif" font-size="10.00">wire.h</text>
</a>
</g>
</g>
<!-- Node9&#45;&gt;Node13 -->
<g id="edge15_Node000009_Node000013" class="edge">
<title>Node9&#45;&gt;Node13</title>
<g id="a_edge15_Node000009_Node000013"><a xlink:title=" ">
<path fill="none" stroke="#63b8ff" d="M505.33,-241.8C506.18,-232.7 507.3,-220.79 508.23,-210.9"/>
<polygon fill="#63b8ff" stroke="#63b8ff" points="511.72,-211.13 509.17,-200.84 504.75,-210.47 511.72,-211.13"/>
</a>
</g>
</g>
<!-- Node9&#45;&gt;Node17 -->
<g id="edge21_Node000009_Node000017" class="edge">
<title>Node9&#45;&gt;Node17</title>
<g id="a_edge21_Node000009_Node000017"><a xlink:title=" ">
<path fill="none" stroke="#63b8ff" d="M440.14,-242.19C393.55,-232.12 330.31,-218.45 281.6,-207.91"/>
<polygon fill="#63b8ff" stroke="#63b8ff" points="282.26,-204.48 271.75,-205.78 280.78,-211.32 282.26,-204.48"/>
</a>
</g>
</g>
<!-- Node18 -->
<g id="Node000018" class="node">
<title>Node18</title>
<g id="a_Node000018"><a xlink:href="gsi_8h.html" target="_top" xlink:title=" ">
<polygon fill="white" stroke="#666666" points="468,-200.5 428,-200.5 428,-181.5 468,-181.5 468,-200.5"/>
<text text-anchor="middle" x="448" y="-188.5" font-family="Helvetica,sans-Serif" font-size="10.00">gsi.h</text>
</a>
</g>
</g>
<!-- Node9&#45;&gt;Node18 -->
<g id="edge25_Node000009_Node000018" class="edge">
<title>Node9&#45;&gt;Node18</title>
<g id="a_edge25_Node000009_Node000018"><a xlink:title=" ">
<path fill="none" stroke="#63b8ff" d="M491.57,-241.8C482.93,-231.92 471.38,-218.72 462.34,-208.39"/>
<polygon fill="#63b8ff" stroke="#63b8ff" points="464.96,-206.07 455.74,-200.84 459.69,-210.67 464.96,-206.07"/>
</a>
</g>
</g>
<!-- Node10&#45;&gt;Node4 -->
<g id="edge12_Node000010_Node000004" class="edge">
<title>Node10&#45;&gt;Node4</title>
<g id="a_edge12_Node000010_Node000004"><a xlink:title=" ">
<path fill="none" stroke="#63b8ff" d="M256.38,-54.75C252.54,-47.49 246.98,-36.95 242.24,-27.98"/>
<polygon fill="#63b8ff" stroke="#63b8ff" points="245.3,-26.3 237.54,-19.09 239.11,-29.57 245.3,-26.3"/>
</a>
</g>
</g>
<!-- Node14 -->
<g id="Node000014" class="node">
<title>Node14</title>
<g id="a_Node000014"><a xlink:href="wire__core__requests_8h.html" target="_top" xlink:title=" ">
<polygon fill="white" stroke="#666666" points="518,-134.5 398,-134.5 398,-115.5 518,-115.5 518,-134.5"/>
<text text-anchor="middle" x="458" y="-122.5" font-family="Helvetica,sans-Serif" font-size="10.00">wire_core_requests.h</text>
</a>
</g>
</g>
<!-- Node13&#45;&gt;Node14 -->
<g id="edge16_Node000013_Node000014" class="edge">
<title>Node13&#45;&gt;Node14</title>
<g id="a_edge16_Node000013_Node000014"><a xlink:title=" ">
<path fill="none" stroke="#63b8ff" d="M502.99,-181.37C494.97,-171.5 481.65,-155.11 471.58,-142.72"/>
<polygon fill="#63b8ff" stroke="#63b8ff" points="474.26,-140.46 465.24,-134.91 468.83,-144.87 474.26,-140.46"/>
</a>
</g>
</g>
<!-- Node15 -->
<g id="Node000015" class="node">
<title>Node15</title>
<g id="a_Node000015"><a xlink:href="wire__write__extended__requests_8h.html" target="_top" xlink:title=" ">
<polygon fill="white" stroke="#666666" points="655.5,-140 536.5,-140 536.5,-110 655.5,-110 655.5,-140"/>
<text text-anchor="start" x="544.5" y="-128" font-family="Helvetica,sans-Serif" font-size="10.00">wire_write_extended</text>
<text text-anchor="middle" x="596" y="-117" font-family="Helvetica,sans-Serif" font-size="10.00">_requests.h</text>
</a>
</g>
</g>
<!-- Node13&#45;&gt;Node15 -->
<g id="edge19_Node000013_Node000015" class="edge">
<title>Node13&#45;&gt;Node15</title>
<g id="a_edge19_Node000013_Node000015"><a xlink:title=" ">
<path fill="none" stroke="#63b8ff" d="M521.6,-181.37C533.59,-172.44 552.75,-158.19 568.62,-146.38"/>
<polygon fill="#63b8ff" stroke="#63b8ff" points="571.1,-148.89 577.03,-140.12 566.92,-143.28 571.1,-148.89"/>
</a>
</g>
</g>
<!-- Node16 -->
<g id="Node000016" class="node">
<title>Node16</title>
<g id="a_Node000016"><a xlink:href="wire__vendor__ext_8h.html" target="_top" xlink:title=" ">
<polygon fill="white" stroke="#666666" points="379.5,-134.5 272.5,-134.5 272.5,-115.5 379.5,-115.5 379.5,-134.5"/>
<text text-anchor="middle" x="326" y="-122.5" font-family="Helvetica,sans-Serif" font-size="10.00">wire_vendor_ext.h</text>
</a>
</g>
</g>
<!-- Node13&#45;&gt;Node16 -->
<g id="edge20_Node000013_Node000016" class="edge">
<title>Node13&#45;&gt;Node16</title>
<g id="a_edge20_Node000013_Node000016"><a xlink:title=" ">
<path fill="none" stroke="#63b8ff" d="M490.56,-181.44C486.13,-179.58 481.43,-177.67 477,-176 438.93,-161.65 394.66,-147.25 363.94,-137.62"/>
<polygon fill="#63b8ff" stroke="#63b8ff" points="364.66,-134.18 354.07,-134.54 362.57,-140.86 364.66,-134.18"/>
</a>
</g>
</g>
<!-- Node14&#45;&gt;Node10 -->
<g id="edge17_Node000014_Node000010" class="edge">
<title>Node14&#45;&gt;Node10</title>
<g id="a_edge17_Node000014_Node000010"><a xlink:title=" ">
<path fill="none" stroke="#63b8ff" d="M429.35,-115.49C394.48,-105.14 335.54,-87.63 297.46,-76.33"/>
<polygon fill="#63b8ff" stroke="#63b8ff" points="298.37,-72.94 287.78,-73.45 296.37,-79.66 298.37,-72.94"/>
</a>
</g>
</g>
<!-- Node14&#45;&gt;Node11 -->
<g id="edge18_Node000014_Node000011" class="edge">
<title>Node14&#45;&gt;Node11</title>
<g id="a_edge18_Node000014_Node000011"><a xlink:title=" ">
<path fill="none" stroke="#63b8ff" d="M474.67,-115.37C493.28,-105.73 523.62,-90.03 545.28,-78.81"/>
<polygon fill="#63b8ff" stroke="#63b8ff" points="546.99,-81.87 554.26,-74.17 543.77,-75.66 546.99,-81.87"/>
</a>
</g>
</g>
<!-- Node17&#45;&gt;Node4 -->
<g id="edge22_Node000017_Node000004" class="edge">
<title>Node17&#45;&gt;Node4</title>
<g id="a_edge22_Node000017_Node000004"><a xlink:title=" ">
<path fill="none" stroke="#63b8ff" d="M209.54,-175.78C212.27,-151.13 218.29,-98.9 225,-55 226.31,-46.46 227.97,-37.03 229.44,-29.06"/>
<polygon fill="#63b8ff" stroke="#63b8ff" points="232.92,-29.48 231.33,-19.01 226.04,-28.19 232.92,-29.48"/>
</a>
</g>
</g>
<!-- Node17&#45;&gt;Node5 -->
<g id="edge23_Node000017_Node000005" class="edge">
<title>Node17&#45;&gt;Node5</title>
<g id="a_edge23_Node000017_Node000005"><a xlink:title=" ">
<path fill="none" stroke="#63b8ff" d="M271.89,-183.61C379.11,-172.79 590.78,-150.97 665,-140 677.06,-138.22 690.14,-135.91 701.95,-133.68"/>
<polygon fill="#63b8ff" stroke="#63b8ff" points="702.79,-137.08 711.95,-131.76 701.47,-130.21 702.79,-137.08"/>
</a>
</g>
</g>
<!-- Node17&#45;&gt;Node8 -->
<g id="edge24_Node000017_Node000008" class="edge">
<title>Node17&#45;&gt;Node8</title>
<g id="a_edge24_Node000017_Node000008"><a xlink:title=" ">
<path fill="none" stroke="#63b8ff" d="M193.35,-175.8C183.06,-165.82 169.28,-152.46 158.59,-142.09"/>
<polygon fill="#63b8ff" stroke="#63b8ff" points="160.74,-139.29 151.12,-134.84 155.86,-144.32 160.74,-139.29"/>
</a>
</g>
</g>
<!-- Node22&#45;&gt;Node3 -->
<g id="edge31_Node000022_Node000003" class="edge">
<title>Node22&#45;&gt;Node3</title>
<g id="a_edge31_Node000022_Node000003"><a xlink:title=" ">
<path fill="none" stroke="#63b8ff" d="M430.37,-362.75C427.42,-355.65 423.17,-345.4 419.49,-336.56"/>
<polygon fill="#63b8ff" stroke="#63b8ff" points="422.63,-334.98 415.57,-327.09 416.17,-337.67 422.63,-334.98"/>
</a>
</g>
</g>
<!-- Node23&#45;&gt;Node3 -->
<g id="edge34_Node000023_Node000003" class="edge">
<title>Node23&#45;&gt;Node3</title>
<g id="a_edge34_Node000023_Node000003"><a xlink:title=" ">
<path fill="none" stroke="#63b8ff" d="M601.69,-362.98C558.09,-352.76 485.66,-335.78 444.05,-326.02"/>
<polygon fill="#63b8ff" stroke="#63b8ff" points="444.71,-322.58 434.18,-323.7 443.11,-329.39 444.71,-322.58"/>
</a>
</g>
</g>
<!-- Node23&#45;&gt;Node5 -->
<g id="edge33_Node000023_Node000005" class="edge">
<title>Node23&#45;&gt;Node5</title>
<g id="a_edge33_Node000023_Node000005"><a xlink:title=" ">
<path fill="none" stroke="#63b8ff" d="M638.74,-362.74C640.75,-341.43 647.34,-285.47 664,-242 676.19,-210.18 684.17,-204.4 703,-176 710.51,-164.68 719.57,-152.41 726.85,-142.86"/>
<polygon fill="#63b8ff" stroke="#63b8ff" points="729.84,-144.71 733.17,-134.65 724.29,-140.44 729.84,-144.71"/>
</a>
</g>
</g>
<!-- Node24&#45;&gt;Node4 -->
<g id="edge37_Node000024_Node000004" class="edge">
<title>Node24&#45;&gt;Node4</title>
<g id="a_edge37_Node000024_Node000004"><a xlink:title=" ">
<path fill="none" stroke="#63b8ff" d="M786.88,-181.43C789.86,-165.47 793.71,-130.95 777,-110 729.05,-49.91 688.02,-71.78 613,-55 489.02,-27.27 338.18,-16.13 269.82,-12.28"/>
<polygon fill="#63b8ff" stroke="#63b8ff" points="269.75,-8.77 259.58,-11.72 269.37,-15.76 269.75,-8.77"/>
</a>
</g>
</g>
<!-- Node24&#45;&gt;Node5 -->
<g id="edge36_Node000024_Node000005" class="edge">
<title>Node24&#45;&gt;Node5</title>
<g id="a_edge36_Node000024_Node000005"><a xlink:title=" ">
<path fill="none" stroke="#63b8ff" d="M778.93,-181.37C772.13,-171.69 760.91,-155.74 752.26,-143.44"/>
<polygon fill="#63b8ff" stroke="#63b8ff" points="754.88,-141.07 746.26,-134.91 749.15,-145.1 754.88,-141.07"/>
</a>
</g>
</g>
</g>
</svg>
