<?xml version="1.0" encoding="UTF-8" standalone="no"?>
<!DOCTYPE svg PUBLIC "-//W3C//DTD SVG 1.1//EN"
 "http://www.w3.org/Graphics/SVG/1.1/DTD/svg11.dtd">
<!-- Generated by graphviz version 2.43.0 (0)
 -->
<!-- Title: client/apps/diag/xrddiag.c Pages: 1 -->
<svg width="2075pt" height="445pt"
 viewBox="0.00 0.00 2074.57 445.00" xmlns="http://www.w3.org/2000/svg" xmlns:xlink="http://www.w3.org/1999/xlink">
<g id="graph0" class="graph" transform="scale(1 1) rotate(0) translate(4 441)">
<title>client/apps/diag/xrddiag.c</title>
<!-- Node1 -->
<g id="Node000001" class="node">
<title>Node1</title>
<g id="a_Node000001"><a xlink:title=" ">
<polygon fill="#999999" stroke="#666666" points="1013.26,-437 871.26,-437 871.26,-418 1013.26,-418 1013.26,-437"/>
<text text-anchor="middle" x="942.26" y="-425" font-family="Helvetica,sans-Serif" font-size="10.00">client/apps/diag/xrddiag.c</text>
</a>
</g>
</g>
<!-- Node2 -->
<g id="Node000002" class="node">
<title>Node2</title>
<g id="a_Node000002"><a xlink:href="diag__internal_8h.html" target="_top" xlink:title=" ">
<polygon fill="white" stroke="#666666" points="643.76,-382 554.76,-382 554.76,-363 643.76,-363 643.76,-382"/>
<text text-anchor="middle" x="599.26" y="-370" font-family="Helvetica,sans-Serif" font-size="10.00">diag_internal.h</text>
</a>
</g>
</g>
<!-- Node1&#45;&gt;Node2 -->
<g id="edge1_Node000001_Node000002" class="edge">
<title>Node1&#45;&gt;Node2</title>
<g id="a_edge1_Node000001_Node000002"><a xlink:title=" ">
<path fill="none" stroke="#63b8ff" d="M887.15,-417.98C822.98,-408.07 717.64,-391.79 653.74,-381.92"/>
<polygon fill="#63b8ff" stroke="#63b8ff" points="654.27,-378.46 643.85,-380.39 653.2,-385.38 654.27,-378.46"/>
</a>
</g>
</g>
<!-- Node36 -->
<g id="Node000036" class="node">
<title>Node36</title>
<g id="a_Node000036"><a xlink:href="jsonout_8h.html" target="_top" xlink:title=" ">
<polygon fill="white" stroke="#666666" points="881.26,-382 805.26,-382 805.26,-363 881.26,-363 881.26,-382"/>
<text text-anchor="middle" x="843.26" y="-370" font-family="Helvetica,sans-Serif" font-size="10.00">cli/jsonout.h</text>
</a>
</g>
</g>
<!-- Node1&#45;&gt;Node36 -->
<g id="edge50_Node000001_Node000036" class="edge">
<title>Node1&#45;&gt;Node36</title>
<g id="a_edge50_Node000001_Node000036"><a xlink:title=" ">
<path fill="none" stroke="#63b8ff" d="M926.35,-417.98C910.71,-409.61 886.6,-396.7 868.37,-386.95"/>
<polygon fill="#63b8ff" stroke="#63b8ff" points="869.92,-383.8 859.45,-382.17 866.62,-389.98 869.92,-383.8"/>
</a>
</g>
</g>
<!-- Node37 -->
<g id="Node000037" class="node">
<title>Node37</title>
<g id="a_Node000037"><a xlink:href="version_8h.html" target="_top" xlink:title=" ">
<polygon fill="white" stroke="#666666" points="985.26,-382 899.26,-382 899.26,-363 985.26,-363 985.26,-382"/>
<text text-anchor="middle" x="942.26" y="-370" font-family="Helvetica,sans-Serif" font-size="10.00">core/version.h</text>
</a>
</g>
</g>
<!-- Node1&#45;&gt;Node37 -->
<g id="edge52_Node000001_Node000037" class="edge">
<title>Node1&#45;&gt;Node37</title>
<g id="a_edge52_Node000001_Node000037"><a xlink:title=" ">
<path fill="none" stroke="#63b8ff" d="M942.26,-417.75C942.26,-410.8 942.26,-400.85 942.26,-392.13"/>
<polygon fill="#63b8ff" stroke="#63b8ff" points="945.76,-392.09 942.26,-382.09 938.76,-392.09 945.76,-392.09"/>
</a>
</g>
</g>
<!-- Node38 -->
<g id="Node000038" class="node">
<title>Node38</title>
<g id="a_Node000038"><a xlink:href="suggest_8h.html" target="_top" xlink:title=" ">
<polygon fill="white" stroke="#666666" points="1081.26,-382 1003.26,-382 1003.26,-363 1081.26,-363 1081.26,-382"/>
<text text-anchor="middle" x="1042.26" y="-370" font-family="Helvetica,sans-Serif" font-size="10.00">cli/suggest.h</text>
</a>
</g>
</g>
<!-- Node1&#45;&gt;Node38 -->
<g id="edge53_Node000001_Node000038" class="edge">
<title>Node1&#45;&gt;Node38</title>
<g id="a_edge53_Node000001_Node000038"><a xlink:title=" ">
<path fill="none" stroke="#63b8ff" d="M958.32,-417.98C974.12,-409.61 998.47,-396.7 1016.89,-386.95"/>
<polygon fill="#63b8ff" stroke="#63b8ff" points="1018.7,-389.95 1025.9,-382.17 1015.42,-383.76 1018.7,-389.95"/>
</a>
</g>
</g>
<!-- Node39 -->
<g id="Node000039" class="node">
<title>Node39</title>
<g id="a_Node000039"><a xlink:href="cli__hint_8h.html" target="_top" xlink:title=" ">
<polygon fill="white" stroke="#666666" points="1174.76,-382 1099.76,-382 1099.76,-363 1174.76,-363 1174.76,-382"/>
<text text-anchor="middle" x="1137.26" y="-370" font-family="Helvetica,sans-Serif" font-size="10.00">cli/cli_hint.h</text>
</a>
</g>
</g>
<!-- Node1&#45;&gt;Node39 -->
<g id="edge54_Node000001_Node000039" class="edge">
<title>Node1&#45;&gt;Node39</title>
<g id="a_edge54_Node000001_Node000039"><a xlink:title=" ">
<path fill="none" stroke="#63b8ff" d="M973.59,-417.98C1006.75,-408.97 1059.25,-394.7 1095.82,-384.76"/>
<polygon fill="#63b8ff" stroke="#63b8ff" points="1096.95,-388.08 1105.68,-382.08 1095.11,-381.33 1096.95,-388.08"/>
</a>
</g>
</g>
<!-- Node3 -->
<g id="Node000003" class="node">
<title>Node3</title>
<g id="a_Node000003"><a xlink:href="brix_8h.html" target="_top" xlink:title=" ">
<polygon fill="white" stroke="#666666" points="1207.26,-327 1163.26,-327 1163.26,-308 1207.26,-308 1207.26,-327"/>
<text text-anchor="middle" x="1185.26" y="-315" font-family="Helvetica,sans-Serif" font-size="10.00">brix.h</text>
</a>
</g>
</g>
<!-- Node2&#45;&gt;Node3 -->
<g id="edge2_Node000002_Node000003" class="edge">
<title>Node2&#45;&gt;Node3</title>
<g id="a_edge2_Node000002_Node000003"><a xlink:title=" ">
<path fill="none" stroke="#63b8ff" d="M643.78,-367.47C757.06,-357.23 1054.19,-330.35 1152.88,-321.43"/>
<polygon fill="#63b8ff" stroke="#63b8ff" points="1153.47,-324.89 1163.12,-320.5 1152.84,-317.92 1153.47,-324.89"/>
</a>
</g>
</g>
<!-- Node6 -->
<g id="Node000006" class="node">
<title>Node6</title>
<g id="a_Node000006"><a xlink:title=" ">
<polygon fill="#e0e0e0" stroke="#999999" points="978.26,-266.5 928.26,-266.5 928.26,-247.5 978.26,-247.5 978.26,-266.5"/>
<text text-anchor="middle" x="953.26" y="-254.5" font-family="Helvetica,sans-Serif" font-size="10.00">stdio.h</text>
</a>
</g>
</g>
<!-- Node2&#45;&gt;Node6 -->
<g id="edge44_Node000002_Node000006" class="edge">
<title>Node2&#45;&gt;Node6</title>
<g id="a_edge44_Node000002_Node000006"><a xlink:title=" ">
<path fill="none" stroke="#63b8ff" d="M643.89,-363.85C684.04,-356.39 744.37,-343.72 795.26,-327 798.55,-325.92 879.94,-290.21 924.58,-270.6"/>
<polygon fill="#63b8ff" stroke="#63b8ff" points="926.03,-273.79 933.77,-266.57 923.21,-267.38 926.03,-273.79"/>
</a>
</g>
</g>
<!-- Node7 -->
<g id="Node000007" class="node">
<title>Node7</title>
<g id="a_Node000007"><a xlink:href="time_8h.html" target="_top" xlink:title=" ">
<polygon fill="white" stroke="#666666" points="1044.26,-266.5 996.26,-266.5 996.26,-247.5 1044.26,-247.5 1044.26,-266.5"/>
<text text-anchor="middle" x="1020.26" y="-254.5" font-family="Helvetica,sans-Serif" font-size="10.00">time.h</text>
</a>
</g>
</g>
<!-- Node2&#45;&gt;Node7 -->
<g id="edge48_Node000002_Node000007" class="edge">
<title>Node2&#45;&gt;Node7</title>
<g id="a_edge48_Node000002_Node000007"><a xlink:title=" ">
<path fill="none" stroke="#63b8ff" d="M643.91,-369.12C741.67,-363.53 968.09,-348.41 995.26,-327 1010.39,-315.07 1016.37,-293.14 1018.73,-277.2"/>
<polygon fill="#63b8ff" stroke="#63b8ff" points="1022.25,-277.21 1019.88,-266.88 1015.29,-276.43 1022.25,-277.21"/>
</a>
</g>
</g>
<!-- Node22 -->
<g id="Node000022" class="node">
<title>Node22</title>
<g id="a_Node000022"><a xlink:href="crypto_8h.html" target="_top" xlink:title=" ">
<polygon fill="white" stroke="#666666" points="1024.26,-200.5 904.26,-200.5 904.26,-181.5 1024.26,-181.5 1024.26,-200.5"/>
<text text-anchor="middle" x="964.26" y="-188.5" font-family="Helvetica,sans-Serif" font-size="10.00">core/compat/crypto.h</text>
</a>
</g>
</g>
<!-- Node2&#45;&gt;Node22 -->
<g id="edge30_Node000002_Node000022" class="edge">
<title>Node2&#45;&gt;Node22</title>
<g id="a_edge30_Node000002_Node000022"><a xlink:title=" ">
<path fill="none" stroke="#63b8ff" d="M643.84,-363.39C677.38,-356.33 723.96,-344.46 762.26,-327 781.64,-318.16 896.18,-239.23 943.66,-206.32"/>
<polygon fill="#63b8ff" stroke="#63b8ff" points="945.74,-209.13 951.96,-200.56 941.75,-203.38 945.74,-209.13"/>
</a>
</g>
</g>
<!-- Node23 -->
<g id="Node000023" class="node">
<title>Node23</title>
<g id="a_Node000023"><a xlink:href="hex_8h.html" target="_top" xlink:title=" ">
<polygon fill="white" stroke="#666666" points="885.76,-200.5 778.76,-200.5 778.76,-181.5 885.76,-181.5 885.76,-200.5"/>
<text text-anchor="middle" x="832.26" y="-188.5" font-family="Helvetica,sans-Serif" font-size="10.00">core/compat/hex.h</text>
</a>
</g>
</g>
<!-- Node2&#45;&gt;Node23 -->
<g id="edge33_Node000002_Node000023" class="edge">
<title>Node2&#45;&gt;Node23</title>
<g id="a_edge33_Node000002_Node000023"><a xlink:title=" ">
<path fill="none" stroke="#63b8ff" d="M554.48,-371.57C422.43,-371.32 41.47,-367.1 4.26,-327 -1.49,-320.81 -1.28,-314.37 4.26,-308 54.45,-250.29 583.23,-208.98 768.54,-196.18"/>
<polygon fill="#63b8ff" stroke="#63b8ff" points="768.94,-199.66 778.67,-195.48 768.46,-192.68 768.94,-199.66"/>
</a>
</g>
</g>
<!-- Node24 -->
<g id="Node000024" class="node">
<title>Node24</title>
<g id="a_Node000024"><a xlink:title=" ">
<polygon fill="#e0e0e0" stroke="#999999" points="916.76,-327 847.76,-327 847.76,-308 916.76,-308 916.76,-327"/>
<text text-anchor="middle" x="882.26" y="-315" font-family="Helvetica,sans-Serif" font-size="10.00">arpa/inet.h</text>
</a>
</g>
</g>
<!-- Node2&#45;&gt;Node24 -->
<g id="edge36_Node000002_Node000024" class="edge">
<title>Node2&#45;&gt;Node24</title>
<g id="a_edge36_Node000002_Node000024"><a xlink:title=" ">
<path fill="none" stroke="#63b8ff" d="M643.79,-363.16C696.61,-353.27 784.18,-336.87 837.23,-326.93"/>
<polygon fill="#63b8ff" stroke="#63b8ff" points="838.17,-330.32 847.36,-325.04 836.88,-323.44 838.17,-330.32"/>
</a>
</g>
</g>
<!-- Node25 -->
<g id="Node000025" class="node">
<title>Node25</title>
<g id="a_Node000025"><a xlink:title=" ">
<polygon fill="#e0e0e0" stroke="#999999" points="985.76,-327 934.76,-327 934.76,-308 985.76,-308 985.76,-327"/>
<text text-anchor="middle" x="960.26" y="-315" font-family="Helvetica,sans-Serif" font-size="10.00">errno.h</text>
</a>
</g>
</g>
<!-- Node2&#45;&gt;Node25 -->
<g id="edge37_Node000002_Node000025" class="edge">
<title>Node2&#45;&gt;Node25</title>
<g id="a_edge37_Node000002_Node000025"><a xlink:title=" ">
<path fill="none" stroke="#63b8ff" d="M643.94,-366.99C705.23,-360.46 818.96,-347.11 924.82,-327.1"/>
<polygon fill="#63b8ff" stroke="#63b8ff" points="925.54,-330.53 934.7,-325.21 924.22,-323.65 925.54,-330.53"/>
</a>
</g>
</g>
<!-- Node26 -->
<g id="Node000026" class="node">
<title>Node26</title>
<g id="a_Node000026"><a xlink:title=" ">
<polygon fill="#e0e0e0" stroke="#999999" points="60.76,-327 13.76,-327 13.76,-308 60.76,-308 60.76,-327"/>
<text text-anchor="middle" x="37.26" y="-315" font-family="Helvetica,sans-Serif" font-size="10.00">fcntl.h</text>
</a>
</g>
</g>
<!-- Node2&#45;&gt;Node26 -->
<g id="edge38_Node000002_Node000026" class="edge">
<title>Node2&#45;&gt;Node26</title>
<g id="a_edge38_Node000002_Node000026"><a xlink:title=" ">
<path fill="none" stroke="#63b8ff" d="M554.6,-370.4C464.58,-367.6 254.89,-358.22 70.78,-326.98"/>
<polygon fill="#63b8ff" stroke="#63b8ff" points="71.37,-323.53 60.92,-325.28 70.18,-330.43 71.37,-323.53"/>
</a>
</g>
</g>
<!-- Node27 -->
<g id="Node000027" class="node">
<title>Node27</title>
<g id="a_Node000027"><a xlink:title=" ">
<polygon fill="#e0e0e0" stroke="#999999" points="131.76,-327 78.76,-327 78.76,-308 131.76,-308 131.76,-327"/>
<text text-anchor="middle" x="105.26" y="-315" font-family="Helvetica,sans-Serif" font-size="10.00">netdb.h</text>
</a>
</g>
</g>
<!-- Node2&#45;&gt;Node27 -->
<g id="edge39_Node000002_Node000027" class="edge">
<title>Node2&#45;&gt;Node27</title>
<g id="a_edge39_Node000002_Node000027"><a xlink:title=" ">
<path fill="none" stroke="#63b8ff" d="M554.46,-369.16C473.94,-364.52 299.3,-352.47 142.23,-326.92"/>
<polygon fill="#63b8ff" stroke="#63b8ff" points="142.35,-323.39 131.91,-325.22 141.21,-330.3 142.35,-323.39"/>
</a>
</g>
</g>
<!-- Node28 -->
<g id="Node000028" class="node">
<title>Node28</title>
<g id="a_Node000028"><a xlink:title=" ">
<polygon fill="#e0e0e0" stroke="#999999" points="222.26,-327 150.26,-327 150.26,-308 222.26,-308 222.26,-327"/>
<text text-anchor="middle" x="186.26" y="-315" font-family="Helvetica,sans-Serif" font-size="10.00">netinet/in.h</text>
</a>
</g>
</g>
<!-- Node2&#45;&gt;Node28 -->
<g id="edge40_Node000002_Node000028" class="edge">
<title>Node2&#45;&gt;Node28</title>
<g id="a_edge40_Node000002_Node000028"><a xlink:title=" ">
<path fill="none" stroke="#63b8ff" d="M554.66,-367.07C487.13,-360.16 354.7,-345.77 232.48,-327.1"/>
<polygon fill="#63b8ff" stroke="#63b8ff" points="232.99,-323.64 222.57,-325.57 231.92,-330.56 232.99,-323.64"/>
</a>
</g>
</g>
<!-- Node29 -->
<g id="Node000029" class="node">
<title>Node29</title>
<g id="a_Node000029"><a xlink:title=" ">
<polygon fill="#e0e0e0" stroke="#999999" points="295.76,-327 240.76,-327 240.76,-308 295.76,-308 295.76,-327"/>
<text text-anchor="middle" x="268.26" y="-315" font-family="Helvetica,sans-Serif" font-size="10.00">signal.h</text>
</a>
</g>
</g>
<!-- Node2&#45;&gt;Node29 -->
<g id="edge41_Node000002_Node000029" class="edge">
<title>Node2&#45;&gt;Node29</title>
<g id="a_edge41_Node000002_Node000029"><a xlink:title=" ">
<path fill="none" stroke="#63b8ff" d="M554.75,-365.83C498.98,-358.49 400.28,-344.72 306.07,-327.02"/>
<polygon fill="#63b8ff" stroke="#63b8ff" points="306.57,-323.56 296.09,-325.13 305.26,-330.43 306.57,-323.56"/>
</a>
</g>
</g>
<!-- Node30 -->
<g id="Node000030" class="node">
<title>Node30</title>
<g id="a_Node000030"><a xlink:title=" ">
<polygon fill="#e0e0e0" stroke="#999999" points="370.26,-327 314.26,-327 314.26,-308 370.26,-308 370.26,-327"/>
<text text-anchor="middle" x="342.26" y="-315" font-family="Helvetica,sans-Serif" font-size="10.00">stdarg.h</text>
</a>
</g>
</g>
<!-- Node2&#45;&gt;Node30 -->
<g id="edge42_Node000002_Node000030" class="edge">
<title>Node2&#45;&gt;Node30</title>
<g id="a_edge42_Node000002_Node000030"><a xlink:title=" ">
<path fill="none" stroke="#63b8ff" d="M555.36,-362.97C512.99,-354.66 446.77,-341.47 380.32,-327.19"/>
<polygon fill="#63b8ff" stroke="#63b8ff" points="381.04,-323.76 370.52,-325.07 379.56,-330.6 381.04,-323.76"/>
</a>
</g>
</g>
<!-- Node31 -->
<g id="Node000031" class="node">
<title>Node31</title>
<g id="a_Node000031"><a xlink:title=" ">
<polygon fill="#e0e0e0" stroke="#999999" points="441.76,-327 388.76,-327 388.76,-308 441.76,-308 441.76,-327"/>
<text text-anchor="middle" x="415.26" y="-315" font-family="Helvetica,sans-Serif" font-size="10.00">limits.h</text>
</a>
</g>
</g>
<!-- Node2&#45;&gt;Node31 -->
<g id="edge43_Node000002_Node000031" class="edge">
<title>Node2&#45;&gt;Node31</title>
<g id="a_edge43_Node000002_Node000031"><a xlink:title=" ">
<path fill="none" stroke="#63b8ff" d="M569.69,-362.98C537.52,-353.72 486.05,-338.89 451.47,-328.93"/>
<polygon fill="#63b8ff" stroke="#63b8ff" points="452.34,-325.54 441.76,-326.13 450.4,-332.27 452.34,-325.54"/>
</a>
</g>
</g>
<!-- Node32 -->
<g id="Node000032" class="node">
<title>Node32</title>
<g id="a_Node000032"><a xlink:title=" ">
<polygon fill="#e0e0e0" stroke="#999999" points="512.76,-327 459.76,-327 459.76,-308 512.76,-308 512.76,-327"/>
<text text-anchor="middle" x="486.26" y="-315" font-family="Helvetica,sans-Serif" font-size="10.00">stdlib.h</text>
</a>
</g>
</g>
<!-- Node2&#45;&gt;Node32 -->
<g id="edge45_Node000002_Node000032" class="edge">
<title>Node2&#45;&gt;Node32</title>
<g id="a_edge45_Node000002_Node000032"><a xlink:title=" ">
<path fill="none" stroke="#63b8ff" d="M581.1,-362.98C563.01,-354.5 534.97,-341.35 514.07,-331.54"/>
<polygon fill="#63b8ff" stroke="#63b8ff" points="515.28,-328.25 504.74,-327.17 512.31,-334.59 515.28,-328.25"/>
</a>
</g>
</g>
<!-- Node33 -->
<g id="Node000033" class="node">
<title>Node33</title>
<g id="a_Node000033"><a xlink:title=" ">
<polygon fill="#e0e0e0" stroke="#999999" points="583.76,-327 530.76,-327 530.76,-308 583.76,-308 583.76,-327"/>
<text text-anchor="middle" x="557.26" y="-315" font-family="Helvetica,sans-Serif" font-size="10.00">string.h</text>
</a>
</g>
</g>
<!-- Node2&#45;&gt;Node33 -->
<g id="edge46_Node000002_Node000033" class="edge">
<title>Node2&#45;&gt;Node33</title>
<g id="a_edge46_Node000002_Node000033"><a xlink:title=" ">
<path fill="none" stroke="#63b8ff" d="M592.32,-362.75C586.39,-355.26 577.69,-344.28 570.43,-335.13"/>
<polygon fill="#63b8ff" stroke="#63b8ff" points="573.02,-332.75 564.06,-327.09 567.53,-337.1 573.02,-332.75"/>
</a>
</g>
</g>
<!-- Node34 -->
<g id="Node000034" class="node">
<title>Node34</title>
<g id="a_Node000034"><a xlink:title=" ">
<polygon fill="#e0e0e0" stroke="#999999" points="678.76,-327 601.76,-327 601.76,-308 678.76,-308 678.76,-327"/>
<text text-anchor="middle" x="640.26" y="-315" font-family="Helvetica,sans-Serif" font-size="10.00">sys/socket.h</text>
</a>
</g>
</g>
<!-- Node2&#45;&gt;Node34 -->
<g id="edge47_Node000002_Node000034" class="edge">
<title>Node2&#45;&gt;Node34</title>
<g id="a_edge47_Node000002_Node000034"><a xlink:title=" ">
<path fill="none" stroke="#63b8ff" d="M606.03,-362.75C611.82,-355.26 620.32,-344.28 627.39,-335.13"/>
<polygon fill="#63b8ff" stroke="#63b8ff" points="630.26,-337.14 633.61,-327.09 624.73,-332.86 630.26,-337.14"/>
</a>
</g>
</g>
<!-- Node35 -->
<g id="Node000035" class="node">
<title>Node35</title>
<g id="a_Node000035"><a xlink:title=" ">
<polygon fill="#e0e0e0" stroke="#999999" points="753.26,-327 697.26,-327 697.26,-308 753.26,-308 753.26,-327"/>
<text text-anchor="middle" x="725.26" y="-315" font-family="Helvetica,sans-Serif" font-size="10.00">unistd.h</text>
</a>
</g>
</g>
<!-- Node2&#45;&gt;Node35 -->
<g id="edge49_Node000002_Node000035" class="edge">
<title>Node2&#45;&gt;Node35</title>
<g id="a_edge49_Node000002_Node000035"><a xlink:title=" ">
<path fill="none" stroke="#63b8ff" d="M619.5,-362.98C639.95,-354.38 671.79,-340.99 695.19,-331.15"/>
<polygon fill="#63b8ff" stroke="#63b8ff" points="696.78,-334.27 704.65,-327.17 694.07,-327.82 696.78,-334.27"/>
</a>
</g>
</g>
<!-- Node4 -->
<g id="Node000004" class="node">
<title>Node4</title>
<g id="a_Node000004"><a xlink:title=" ">
<polygon fill="#e0e0e0" stroke="#999999" points="1210.76,-19 1157.76,-19 1157.76,0 1210.76,0 1210.76,-19"/>
<text text-anchor="middle" x="1184.26" y="-7" font-family="Helvetica,sans-Serif" font-size="10.00">stdint.h</text>
</a>
</g>
</g>
<!-- Node3&#45;&gt;Node4 -->
<g id="edge3_Node000003_Node000004" class="edge">
<title>Node3&#45;&gt;Node4</title>
<g id="a_edge3_Node000003_Node000004"><a xlink:title=" ">
<path fill="none" stroke="#63b8ff" d="M1187.94,-307.63C1192.91,-292.48 1204.84,-261.39 1224.26,-242 1248.73,-217.56 1275.33,-235.58 1293.26,-206 1315.37,-169.51 1310.48,-149.04 1293.26,-110 1276.14,-71.21 1235.61,-40.99 1209.08,-24.47"/>
<polygon fill="#63b8ff" stroke="#63b8ff" points="1210.72,-21.37 1200.34,-19.21 1207.1,-27.37 1210.72,-21.37"/>
</a>
</g>
</g>
<!-- Node5 -->
<g id="Node000005" class="node">
<title>Node5</title>
<g id="a_Node000005"><a xlink:title=" ">
<polygon fill="#e0e0e0" stroke="#999999" points="1101.26,-134.5 1045.26,-134.5 1045.26,-115.5 1101.26,-115.5 1101.26,-134.5"/>
<text text-anchor="middle" x="1073.26" y="-122.5" font-family="Helvetica,sans-Serif" font-size="10.00">stddef.h</text>
</a>
</g>
</g>
<!-- Node3&#45;&gt;Node5 -->
<g id="edge4_Node000003_Node000005" class="edge">
<title>Node3&#45;&gt;Node5</title>
<g id="a_edge4_Node000003_Node000005"><a xlink:title=" ">
<path fill="none" stroke="#63b8ff" d="M1180.42,-307.89C1168,-285.83 1133.88,-225.54 1104.26,-176 1097.73,-165.09 1090.22,-152.96 1084.23,-143.39"/>
<polygon fill="#63b8ff" stroke="#63b8ff" points="1087.11,-141.4 1078.83,-134.8 1081.19,-145.13 1087.11,-141.4"/>
</a>
</g>
</g>
<!-- Node3&#45;&gt;Node6 -->
<g id="edge5_Node000003_Node000006" class="edge">
<title>Node3&#45;&gt;Node6</title>
<g id="a_edge5_Node000003_Node000006"><a xlink:title=" ">
<path fill="none" stroke="#63b8ff" d="M1163.26,-312.82C1126.37,-306.36 1049.92,-291.78 987.26,-272 985.58,-271.47 983.88,-270.89 982.16,-270.29"/>
<polygon fill="#63b8ff" stroke="#63b8ff" points="983.06,-266.88 972.47,-266.57 980.55,-273.42 983.06,-266.88"/>
</a>
</g>
</g>
<!-- Node3&#45;&gt;Node7 -->
<g id="edge6_Node000003_Node000007" class="edge">
<title>Node3&#45;&gt;Node7</title>
<g id="a_edge6_Node000003_Node000007"><a xlink:title=" ">
<path fill="none" stroke="#63b8ff" d="M1163,-308.61C1134.94,-298.66 1086.44,-281.46 1053.85,-269.91"/>
<polygon fill="#63b8ff" stroke="#63b8ff" points="1054.89,-266.56 1044.29,-266.52 1052.55,-273.16 1054.89,-266.56"/>
</a>
</g>
</g>
<!-- Node8 -->
<g id="Node000008" class="node">
<title>Node8</title>
<g id="a_Node000008"><a xlink:title=" ">
<polygon fill="#e0e0e0" stroke="#999999" points="1284.26,-134.5 1212.26,-134.5 1212.26,-115.5 1284.26,-115.5 1284.26,-134.5"/>
<text text-anchor="middle" x="1248.26" y="-122.5" font-family="Helvetica,sans-Serif" font-size="10.00">sys/types.h</text>
</a>
</g>
</g>
<!-- Node3&#45;&gt;Node8 -->
<g id="edge9_Node000003_Node000008" class="edge">
<title>Node3&#45;&gt;Node8</title>
<g id="a_edge9_Node000003_Node000008"><a xlink:title=" ">
<path fill="none" stroke="#63b8ff" d="M1207.28,-315.97C1292.58,-313.69 1597.87,-303.39 1626.26,-272 1724.14,-163.75 1415.15,-135.07 1294.44,-128.08"/>
<polygon fill="#63b8ff" stroke="#63b8ff" points="1294.56,-124.58 1284.38,-127.52 1294.17,-131.57 1294.56,-124.58"/>
</a>
</g>
</g>
<!-- Node9 -->
<g id="Node000009" class="node">
<title>Node9</title>
<g id="a_Node000009"><a xlink:href="protocol_8h.html" target="_top" xlink:title=" ">
<polygon fill="white" stroke="#666666" points="1616.76,-272 1489.76,-272 1489.76,-242 1616.76,-242 1616.76,-272"/>
<text text-anchor="start" x="1497.76" y="-260" font-family="Helvetica,sans-Serif" font-size="10.00">protocols/root/protocol</text>
<text text-anchor="middle" x="1553.26" y="-249" font-family="Helvetica,sans-Serif" font-size="10.00">/protocol.h</text>
</a>
</g>
</g>
<!-- Node3&#45;&gt;Node9 -->
<g id="edge10_Node000003_Node000009" class="edge">
<title>Node3&#45;&gt;Node9</title>
<g id="a_edge10_Node000003_Node000009"><a xlink:title=" ">
<path fill="none" stroke="#63b8ff" d="M1207.59,-313.48C1255.52,-306.91 1372.01,-290.59 1479.63,-272.24"/>
<polygon fill="#63b8ff" stroke="#63b8ff" points="1480.42,-275.66 1489.68,-270.52 1479.23,-268.76 1480.42,-275.66"/>
</a>
</g>
</g>
<!-- Node17 -->
<g id="Node000017" class="node">
<title>Node17</title>
<g id="a_Node000017"><a xlink:href="wire__codec_8h.html" target="_top" xlink:title=" ">
<polygon fill="white" stroke="#666666" points="1283.76,-206 1156.76,-206 1156.76,-176 1283.76,-176 1283.76,-206"/>
<text text-anchor="start" x="1164.76" y="-194" font-family="Helvetica,sans-Serif" font-size="10.00">protocols/root/protocol</text>
<text text-anchor="middle" x="1220.26" y="-183" font-family="Helvetica,sans-Serif" font-size="10.00">/codec/wire_codec.h</text>
</a>
</g>
</g>
<!-- Node3&#45;&gt;Node17 -->
<g id="edge26_Node000003_Node000017" class="edge">
<title>Node3&#45;&gt;Node17</title>
<g id="a_edge26_Node000003_Node000017"><a xlink:title=" ">
<path fill="none" stroke="#63b8ff" d="M1184.56,-308C1183.67,-293.91 1183.05,-265.01 1190.26,-242 1193.21,-232.6 1198.25,-223.11 1203.37,-214.97"/>
<polygon fill="#63b8ff" stroke="#63b8ff" points="1206.43,-216.68 1209.08,-206.42 1200.61,-212.8 1206.43,-216.68"/>
</a>
</g>
</g>
<!-- Node19 -->
<g id="Node000019" class="node">
<title>Node19</title>
<g id="a_Node000019"><a xlink:href="brix__net_8h.html" target="_top" xlink:title=" ">
<polygon fill="white" stroke="#666666" points="1297.76,-266.5 1232.76,-266.5 1232.76,-247.5 1297.76,-247.5 1297.76,-266.5"/>
<text text-anchor="middle" x="1265.26" y="-254.5" font-family="Helvetica,sans-Serif" font-size="10.00">brix_net.h</text>
</a>
</g>
</g>
<!-- Node3&#45;&gt;Node19 -->
<g id="edge27_Node000003_Node000019" class="edge">
<title>Node3&#45;&gt;Node19</title>
<g id="a_edge27_Node000003_Node000019"><a xlink:title=" ">
<path fill="none" stroke="#63b8ff" d="M1197.06,-307.87C1209.71,-298.62 1230,-283.78 1245.16,-272.69"/>
<polygon fill="#63b8ff" stroke="#63b8ff" points="1247.4,-275.4 1253.4,-266.67 1243.27,-269.74 1247.4,-275.4"/>
</a>
</g>
</g>
<!-- Node20 -->
<g id="Node000020" class="node">
<title>Node20</title>
<g id="a_Node000020"><a xlink:href="brix__auth_8h.html" target="_top" xlink:title=" ">
<polygon fill="white" stroke="#666666" points="1386.76,-266.5 1315.76,-266.5 1315.76,-247.5 1386.76,-247.5 1386.76,-266.5"/>
<text text-anchor="middle" x="1351.26" y="-254.5" font-family="Helvetica,sans-Serif" font-size="10.00">brix_auth.h</text>
</a>
</g>
</g>
<!-- Node3&#45;&gt;Node20 -->
<g id="edge28_Node000003_Node000020" class="edge">
<title>Node3&#45;&gt;Node20</title>
<g id="a_edge28_Node000003_Node000020"><a xlink:title=" ">
<path fill="none" stroke="#63b8ff" d="M1207.3,-308.73C1235.43,-298.82 1284.39,-281.56 1317.31,-269.96"/>
<polygon fill="#63b8ff" stroke="#63b8ff" points="1318.7,-273.19 1326.96,-266.56 1316.37,-266.58 1318.7,-273.19"/>
</a>
</g>
</g>
<!-- Node21 -->
<g id="Node000021" class="node">
<title>Node21</title>
<g id="a_Node000021"><a xlink:href="brix__ops_8h.html" target="_top" xlink:title=" ">
<polygon fill="white" stroke="#666666" points="1471.76,-266.5 1404.76,-266.5 1404.76,-247.5 1471.76,-247.5 1471.76,-266.5"/>
<text text-anchor="middle" x="1438.26" y="-254.5" font-family="Helvetica,sans-Serif" font-size="10.00">brix_ops.h</text>
</a>
</g>
</g>
<!-- Node3&#45;&gt;Node21 -->
<g id="edge29_Node000003_Node000021" class="edge">
<title>Node3&#45;&gt;Node21</title>
<g id="a_edge29_Node000003_Node000021"><a xlink:title=" ">
<path fill="none" stroke="#63b8ff" d="M1207.32,-312.7C1245.94,-305.87 1328.15,-290.47 1396.26,-272 1398.88,-271.29 1401.58,-270.51 1404.28,-269.69"/>
<polygon fill="#63b8ff" stroke="#63b8ff" points="1405.5,-272.98 1413.97,-266.62 1403.38,-266.3 1405.5,-272.98"/>
</a>
</g>
</g>
<!-- Node7&#45;&gt;Node5 -->
<g id="edge7_Node000007_Node000005" class="edge">
<title>Node7&#45;&gt;Node5</title>
<g id="a_edge7_Node000007_Node000005"><a xlink:title=" ">
<path fill="none" stroke="#63b8ff" d="M1023.73,-247.47C1032.23,-226.63 1054.19,-172.77 1065.8,-144.28"/>
<polygon fill="#63b8ff" stroke="#63b8ff" points="1069.16,-145.31 1069.7,-134.73 1062.68,-142.67 1069.16,-145.31"/>
</a>
</g>
</g>
<!-- Node7&#45;&gt;Node7 -->
<g id="edge8_Node000007_Node000007" class="edge">
<title>Node7&#45;&gt;Node7</title>
<g id="a_edge8_Node000007_Node000007"><a xlink:title=" ">
<path fill="none" stroke="#63b8ff" d="M1035.77,-266.53C1048.72,-270.61 1062.26,-267.43 1062.26,-257 1062.26,-249.26 1054.8,-245.51 1045.66,-245.76"/>
<polygon fill="#63b8ff" stroke="#63b8ff" points="1045.03,-242.32 1035.77,-247.47 1046.21,-249.22 1045.03,-242.32"/>
</a>
</g>
</g>
<!-- Node10 -->
<g id="Node000010" class="node">
<title>Node10</title>
<g id="a_Node000010"><a xlink:href="types_8h.html" target="_top" xlink:title=" ">
<polygon fill="white" stroke="#666666" points="1665.76,-74 1612.76,-74 1612.76,-55 1665.76,-55 1665.76,-74"/>
<text text-anchor="middle" x="1639.26" y="-62" font-family="Helvetica,sans-Serif" font-size="10.00">types.h</text>
</a>
</g>
</g>
<!-- Node9&#45;&gt;Node10 -->
<g id="edge11_Node000009_Node000010" class="edge">
<title>Node9&#45;&gt;Node10</title>
<g id="a_edge11_Node000009_Node000010"><a xlink:title=" ">
<path fill="none" stroke="#63b8ff" d="M1562.18,-241.85C1568.21,-231.99 1576.17,-218.44 1582.26,-206 1603.12,-163.41 1622.85,-111.17 1632.71,-83.97"/>
<polygon fill="#63b8ff" stroke="#63b8ff" points="1636.12,-84.83 1636.2,-74.24 1629.53,-82.47 1636.12,-84.83"/>
</a>
</g>
</g>
<!-- Node11 -->
<g id="Node000011" class="node">
<title>Node11</title>
<g id="a_Node000011"><a xlink:href="opcodes_8h.html" target="_top" xlink:title=" ">
<polygon fill="white" stroke="#666666" points="1935.26,-74 1869.26,-74 1869.26,-55 1935.26,-55 1935.26,-74"/>
<text text-anchor="middle" x="1902.26" y="-62" font-family="Helvetica,sans-Serif" font-size="10.00">opcodes.h</text>
</a>
</g>
</g>
<!-- Node9&#45;&gt;Node11 -->
<g id="edge13_Node000009_Node000011" class="edge">
<title>Node9&#45;&gt;Node11</title>
<g id="a_edge13_Node000009_Node000011"><a xlink:title=" ">
<path fill="none" stroke="#63b8ff" d="M1617.22,-251.29C1741.15,-240.67 2006.45,-210.09 2059.26,-140 2091.64,-97.01 2002.65,-77.76 1945.72,-70.04"/>
<polygon fill="#63b8ff" stroke="#63b8ff" points="1945.86,-66.53 1935.5,-68.73 1944.97,-73.47 1945.86,-66.53"/>
</a>
</g>
</g>
<!-- Node12 -->
<g id="Node000012" class="node">
<title>Node12</title>
<g id="a_Node000012"><a xlink:href="flags_8h.html" target="_top" xlink:title=" ">
<polygon fill="white" stroke="#666666" points="1514.76,-200.5 1465.76,-200.5 1465.76,-181.5 1514.76,-181.5 1514.76,-200.5"/>
<text text-anchor="middle" x="1490.26" y="-188.5" font-family="Helvetica,sans-Serif" font-size="10.00">flags.h</text>
</a>
</g>
</g>
<!-- Node9&#45;&gt;Node12 -->
<g id="edge14_Node000009_Node000012" class="edge">
<title>Node9&#45;&gt;Node12</title>
<g id="a_edge14_Node000009_Node000012"><a xlink:title=" ">
<path fill="none" stroke="#63b8ff" d="M1539.28,-241.8C1529.45,-231.82 1516.3,-218.46 1506.09,-208.09"/>
<polygon fill="#63b8ff" stroke="#63b8ff" points="1508.47,-205.52 1498.96,-200.84 1503.48,-210.43 1508.47,-205.52"/>
</a>
</g>
</g>
<!-- Node13 -->
<g id="Node000013" class="node">
<title>Node13</title>
<g id="a_Node000013"><a xlink:href="wire_8h.html" target="_top" xlink:title=" ">
<polygon fill="white" stroke="#666666" points="1819.76,-200.5 1772.76,-200.5 1772.76,-181.5 1819.76,-181.5 1819.76,-200.5"/>
<text text-anchor="middle" x="1796.26" y="-188.5" font-family="Helvetica,sans-Serif" font-size="10.00">wire.h</text>
</a>
</g>
</g>
<!-- Node9&#45;&gt;Node13 -->
<g id="edge15_Node000009_Node000013" class="edge">
<title>Node9&#45;&gt;Node13</title>
<g id="a_edge15_Node000009_Node000013"><a xlink:title=" ">
<path fill="none" stroke="#63b8ff" d="M1606.58,-241.95C1654.14,-229.43 1722.29,-211.48 1762.64,-200.85"/>
<polygon fill="#63b8ff" stroke="#63b8ff" points="1763.73,-204.19 1772.51,-198.25 1761.95,-197.42 1763.73,-204.19"/>
</a>
</g>
</g>
<!-- Node9&#45;&gt;Node17 -->
<g id="edge21_Node000009_Node000017" class="edge">
<title>Node9&#45;&gt;Node17</title>
<g id="a_edge21_Node000009_Node000017"><a xlink:title=" ">
<path fill="none" stroke="#63b8ff" d="M1489.66,-243.62C1486.82,-243.07 1484.01,-242.53 1481.26,-242 1417.95,-229.78 1345.99,-216 1293.68,-206.01"/>
<polygon fill="#63b8ff" stroke="#63b8ff" points="1294.3,-202.56 1283.82,-204.13 1292.99,-209.44 1294.3,-202.56"/>
</a>
</g>
</g>
<!-- Node18 -->
<g id="Node000018" class="node">
<title>Node18</title>
<g id="a_Node000018"><a xlink:href="gsi_8h.html" target="_top" xlink:title=" ">
<polygon fill="white" stroke="#666666" points="1573.26,-200.5 1533.26,-200.5 1533.26,-181.5 1573.26,-181.5 1573.26,-200.5"/>
<text text-anchor="middle" x="1553.26" y="-188.5" font-family="Helvetica,sans-Serif" font-size="10.00">gsi.h</text>
</a>
</g>
</g>
<!-- Node9&#45;&gt;Node18 -->
<g id="edge25_Node000009_Node000018" class="edge">
<title>Node9&#45;&gt;Node18</title>
<g id="a_edge25_Node000009_Node000018"><a xlink:title=" ">
<path fill="none" stroke="#63b8ff" d="M1553.26,-241.8C1553.26,-232.7 1553.26,-220.79 1553.26,-210.9"/>
<polygon fill="#63b8ff" stroke="#63b8ff" points="1556.76,-210.84 1553.26,-200.84 1549.76,-210.84 1556.76,-210.84"/>
</a>
</g>
</g>
<!-- Node10&#45;&gt;Node4 -->
<g id="edge12_Node000010_Node000004" class="edge">
<title>Node10&#45;&gt;Node4</title>
<g id="a_edge12_Node000010_Node000004"><a xlink:title=" ">
<path fill="none" stroke="#63b8ff" d="M1612.49,-60.38C1534.97,-51.35 1310.14,-25.16 1221.15,-14.8"/>
<polygon fill="#63b8ff" stroke="#63b8ff" points="1221.33,-11.29 1210.99,-13.61 1220.52,-18.25 1221.33,-11.29"/>
</a>
</g>
</g>
<!-- Node14 -->
<g id="Node000014" class="node">
<title>Node14</title>
<g id="a_Node000014"><a xlink:href="wire__core__requests_8h.html" target="_top" xlink:title=" ">
<polygon fill="white" stroke="#666666" points="1787.26,-134.5 1667.26,-134.5 1667.26,-115.5 1787.26,-115.5 1787.26,-134.5"/>
<text text-anchor="middle" x="1727.26" y="-122.5" font-family="Helvetica,sans-Serif" font-size="10.00">wire_core_requests.h</text>
</a>
</g>
</g>
<!-- Node13&#45;&gt;Node14 -->
<g id="edge16_Node000013_Node000014" class="edge">
<title>Node13&#45;&gt;Node14</title>
<g id="a_edge16_Node000013_Node000014"><a xlink:title=" ">
<path fill="none" stroke="#63b8ff" d="M1786.95,-181.37C1776.11,-171.31 1757.96,-154.48 1744.51,-142.01"/>
<polygon fill="#63b8ff" stroke="#63b8ff" points="1746.57,-139.14 1736.86,-134.91 1741.81,-144.27 1746.57,-139.14"/>
</a>
</g>
</g>
<!-- Node15 -->
<g id="Node000015" class="node">
<title>Node15</title>
<g id="a_Node000015"><a xlink:href="wire__write__extended__requests_8h.html" target="_top" xlink:title=" ">
<polygon fill="white" stroke="#666666" points="1924.76,-140 1805.76,-140 1805.76,-110 1924.76,-110 1924.76,-140"/>
<text text-anchor="start" x="1813.76" y="-128" font-family="Helvetica,sans-Serif" font-size="10.00">wire_write_extended</text>
<text text-anchor="middle" x="1865.26" y="-117" font-family="Helvetica,sans-Serif" font-size="10.00">_requests.h</text>
</a>
</g>
</g>
<!-- Node13&#45;&gt;Node15 -->
<g id="edge19_Node000013_Node000015" class="edge">
<title>Node13&#45;&gt;Node15</title>
<g id="a_edge19_Node000013_Node000015"><a xlink:title=" ">
<path fill="none" stroke="#63b8ff" d="M1805.56,-181.37C1815.01,-172.61 1829.99,-158.71 1842.58,-147.04"/>
<polygon fill="#63b8ff" stroke="#63b8ff" points="1845.09,-149.48 1850.04,-140.12 1840.33,-144.35 1845.09,-149.48"/>
</a>
</g>
</g>
<!-- Node16 -->
<g id="Node000016" class="node">
<title>Node16</title>
<g id="a_Node000016"><a xlink:href="wire__vendor__ext_8h.html" target="_top" xlink:title=" ">
<polygon fill="white" stroke="#666666" points="2049.76,-134.5 1942.76,-134.5 1942.76,-115.5 2049.76,-115.5 2049.76,-134.5"/>
<text text-anchor="middle" x="1996.26" y="-122.5" font-family="Helvetica,sans-Serif" font-size="10.00">wire_vendor_ext.h</text>
</a>
</g>
</g>
<!-- Node13&#45;&gt;Node16 -->
<g id="edge20_Node000013_Node000016" class="edge">
<title>Node13&#45;&gt;Node16</title>
<g id="a_edge20_Node000013_Node000016"><a xlink:title=" ">
<path fill="none" stroke="#63b8ff" d="M1819.99,-182.41C1854.59,-171.33 1919.19,-150.66 1959.84,-137.65"/>
<polygon fill="#63b8ff" stroke="#63b8ff" points="1960.92,-140.98 1969.38,-134.6 1958.79,-134.32 1960.92,-140.98"/>
</a>
</g>
</g>
<!-- Node14&#45;&gt;Node10 -->
<g id="edge17_Node000014_Node000010" class="edge">
<title>Node14&#45;&gt;Node10</title>
<g id="a_edge17_Node000014_Node000010"><a xlink:title=" ">
<path fill="none" stroke="#63b8ff" d="M1714.27,-115.37C1700.23,-106.04 1677.63,-91.01 1660.89,-79.88"/>
<polygon fill="#63b8ff" stroke="#63b8ff" points="1662.56,-76.79 1652.3,-74.17 1658.69,-82.62 1662.56,-76.79"/>
</a>
</g>
</g>
<!-- Node14&#45;&gt;Node11 -->
<g id="edge18_Node000014_Node000011" class="edge">
<title>Node14&#45;&gt;Node11</title>
<g id="a_edge18_Node000014_Node000011"><a xlink:title=" ">
<path fill="none" stroke="#63b8ff" d="M1752.7,-115.49C1782.9,-105.4 1833.42,-88.51 1867.28,-77.19"/>
<polygon fill="#63b8ff" stroke="#63b8ff" points="1868.41,-80.51 1876.78,-74.02 1866.19,-73.87 1868.41,-80.51"/>
</a>
</g>
</g>
<!-- Node17&#45;&gt;Node4 -->
<g id="edge22_Node000017_Node000004" class="edge">
<title>Node17&#45;&gt;Node4</title>
<g id="a_edge22_Node000017_Node000004"><a xlink:title=" ">
<path fill="none" stroke="#63b8ff" d="M1214.64,-175.76C1210.93,-165.87 1206.22,-152.3 1203.26,-140 1193.88,-101.11 1188.41,-54.47 1185.91,-29.13"/>
<polygon fill="#63b8ff" stroke="#63b8ff" points="1189.39,-28.72 1184.97,-19.09 1182.42,-29.37 1189.39,-28.72"/>
</a>
</g>
</g>
<!-- Node17&#45;&gt;Node5 -->
<g id="edge23_Node000017_Node000005" class="edge">
<title>Node17&#45;&gt;Node5</title>
<g id="a_edge23_Node000017_Node000005"><a xlink:title=" ">
<path fill="none" stroke="#63b8ff" d="M1188,-175.95C1162.33,-164.78 1126.75,-149.29 1102.04,-138.53"/>
<polygon fill="#63b8ff" stroke="#63b8ff" points="1103.39,-135.3 1092.82,-134.52 1100.59,-141.72 1103.39,-135.3"/>
</a>
</g>
</g>
<!-- Node17&#45;&gt;Node8 -->
<g id="edge24_Node000017_Node000008" class="edge">
<title>Node17&#45;&gt;Node8</title>
<g id="a_edge24_Node000017_Node000008"><a xlink:title=" ">
<path fill="none" stroke="#63b8ff" d="M1226.47,-175.8C1230.54,-166.5 1235.89,-154.27 1240.27,-144.26"/>
<polygon fill="#63b8ff" stroke="#63b8ff" points="1243.59,-145.41 1244.39,-134.84 1237.17,-142.6 1243.59,-145.41"/>
</a>
</g>
</g>
<!-- Node22&#45;&gt;Node4 -->
<g id="edge32_Node000022_Node000004" class="edge">
<title>Node22&#45;&gt;Node4</title>
<g id="a_edge32_Node000022_Node000004"><a xlink:title=" ">
<path fill="none" stroke="#63b8ff" d="M970.8,-181.43C982.77,-166.07 1009.45,-133.27 1036.26,-110 1076.51,-75.05 1129.57,-42.1 1160,-24.27"/>
<polygon fill="#63b8ff" stroke="#63b8ff" points="1161.78,-27.29 1168.68,-19.24 1158.27,-21.23 1161.78,-27.29"/>
</a>
</g>
</g>
<!-- Node22&#45;&gt;Node5 -->
<g id="edge31_Node000022_Node000005" class="edge">
<title>Node22&#45;&gt;Node5</title>
<g id="a_edge31_Node000022_Node000005"><a xlink:title=" ">
<path fill="none" stroke="#63b8ff" d="M978.96,-181.37C997.08,-170.73 1028.11,-152.51 1049.6,-139.89"/>
<polygon fill="#63b8ff" stroke="#63b8ff" points="1051.59,-142.78 1058.44,-134.7 1048.05,-136.74 1051.59,-142.78"/>
</a>
</g>
</g>
<!-- Node23&#45;&gt;Node4 -->
<g id="edge35_Node000023_Node000004" class="edge">
<title>Node23&#45;&gt;Node4</title>
<g id="a_edge35_Node000023_Node000004"><a xlink:title=" ">
<path fill="none" stroke="#63b8ff" d="M846.67,-181.39C884.17,-159.16 988.1,-98.52 1078.26,-55 1102.77,-43.17 1131.26,-31.31 1152.52,-22.81"/>
<polygon fill="#63b8ff" stroke="#63b8ff" points="1154.03,-25.98 1162.03,-19.04 1151.45,-19.47 1154.03,-25.98"/>
</a>
</g>
</g>
<!-- Node23&#45;&gt;Node5 -->
<g id="edge34_Node000023_Node000005" class="edge">
<title>Node23&#45;&gt;Node5</title>
<g id="a_edge34_Node000023_Node000005"><a xlink:title=" ">
<path fill="none" stroke="#63b8ff" d="M864.76,-181.37C909.05,-169.61 988.21,-148.59 1035.21,-136.1"/>
<polygon fill="#63b8ff" stroke="#63b8ff" points="1036.24,-139.45 1045.01,-133.5 1034.45,-132.69 1036.24,-139.45"/>
</a>
</g>
</g>
<!-- Node36&#45;&gt;Node6 -->
<g id="edge51_Node000036_Node000006" class="edge">
<title>Node36&#45;&gt;Node6</title>
<g id="a_edge51_Node000036_Node000006"><a xlink:title=" ">
<path fill="none" stroke="#63b8ff" d="M880.82,-362.97C923.52,-352.91 988.25,-336.35 995.26,-327 1008.48,-309.35 989.61,-287.35 973.08,-273"/>
<polygon fill="#63b8ff" stroke="#63b8ff" points="975.26,-270.26 965.31,-266.62 970.82,-275.67 975.26,-270.26"/>
</a>
</g>
</g>
<!-- Node39&#45;&gt;Node3 -->
<g id="edge56_Node000039_Node000003" class="edge">
<title>Node39&#45;&gt;Node3</title>
<g id="a_edge56_Node000039_Node000003"><a xlink:title=" ">
<path fill="none" stroke="#63b8ff" d="M1145.18,-362.75C1152.1,-355.11 1162.32,-343.82 1170.71,-334.56"/>
<polygon fill="#63b8ff" stroke="#63b8ff" points="1173.36,-336.85 1177.48,-327.09 1168.17,-332.15 1173.36,-336.85"/>
</a>
</g>
</g>
<!-- Node39&#45;&gt;Node5 -->
<g id="edge55_Node000039_Node000005" class="edge">
<title>Node39&#45;&gt;Node5</title>
<g id="a_edge55_Node000039_Node000005"><a xlink:title=" ">
<path fill="none" stroke="#63b8ff" d="M1134.98,-362.76C1125.75,-327.34 1090.98,-193.98 1078.1,-144.57"/>
<polygon fill="#63b8ff" stroke="#63b8ff" points="1081.42,-143.43 1075.51,-134.63 1074.64,-145.19 1081.42,-143.43"/>
</a>
</g>
</g>
</g>
</svg>
