<?xml version="1.0" encoding="UTF-8" standalone="no"?>
<!DOCTYPE svg PUBLIC "-//W3C//DTD SVG 1.1//EN"
 "http://www.w3.org/Graphics/SVG/1.1/DTD/svg11.dtd">
<!-- Generated by graphviz version 2.43.0 (0)
 -->
<!-- Title: client/apps/diag/xrddiag.c Pages: 1 -->
<!--zoomable 445 -->

<svg id="main" version="1.1" xmlns="http://www.w3.org/2000/svg" xmlns:xlink="http://www.w3.org/1999/xlink" xml:space="preserve" onload="init(evt)">
<style type="text/css"><![CDATA[
.node, .edge {opacity: 0.7;}
.node.selected, .edge.selected {opacity: 1;}
.edge:hover path { stroke: red; }
.edge:hover polygon { stroke: red; fill: red; }
]]></style>

<defs>
  <circle id="rim" cx="0" cy="0" r="7"/>
  <circle id="rim2" cx="0" cy="0" r="3.5"/>
  <g id="zoomPlus">
    <use xlink:href="#rim" fill="#404040"><set attributeName="fill" to="#808080" begin="zoomplus.mouseover" end="zoomplus.mouseout"/></use>
    <path d="M-4,0h8M0,-4v8" fill="none" stroke="white" stroke-width="1.5" pointer-events="none"/>
  </g>
  <g id="zoomMin">
    <use xlink:href="#rim" fill="#404040"><set attributeName="fill" to="#808080" begin="zoomminus.mouseover" end="zoomminus.mouseout"/></use>
    <path d="M-4,0h8" fill="none" stroke="white" stroke-width="1.5" pointer-events="none"/>
  </g>
  <g id="arrowUp" transform="translate(30 24)">
    <use xlink:href="#rim"/>
    <path pointer-events="none" fill="none" stroke="white" stroke-width="1.5" d="M0,-3.0v7 M-2.5,-0.5L0,-3.0L2.5,-0.5"/>
  </g>
  <g id="arrowRight" transform="rotate(90) translate(36 -43)">
    <use xlink:href="#rim"/>
    <path pointer-events="none" fill="none" stroke="white" stroke-width="1.5" d="M0,-3.0v7 M-2.5,-0.5L0,-3.0L2.5,-0.5"/>
  </g>
  <g id="arrowDown" transform="rotate(180) translate(-30 -48)">
    <use xlink:href="#rim"/>
    <path pointer-events="none" fill="none" stroke="white" stroke-width="1.5" d="M0,-3.0v7 M-2.5,-0.5L0,-3.0L2.5,-0.5"/>
  </g>
  <g id="arrowLeft" transform="rotate(270) translate(-36 17)">
    <use xlink:href="#rim"/>
    <path pointer-events="none" fill="none" stroke="white" stroke-width="1.5" d="M0,-3.0v7 M-2.5,-0.5L0,-3.0L2.5,-0.5"/>
  </g>
  <g id="resetDef">
    <use xlink:href="#rim2" fill="#404040"><set attributeName="fill" to="#808080" begin="reset.mouseover" end="reset.mouseout"/></use>
  </g>
</defs>
<script type="application/ecmascript">
var viewWidth = 2055;
var viewHeight = 445;
var sectionId = 'dynsection-0';
</script>
<script type="application/ecmascript" xlink:href="svg.min.js"/>
<svg id="graph" class="graph">
<g id="viewport">
<title>client/apps/diag/xrddiag.c</title>
<!-- Node1 -->
<g id="Node000001" class="node">
<title>Node1</title>
<g id="a_Node000001"><a xlink:title=" ">
<polygon fill="#999999" stroke="#666666" points="1295.5,-437 1153.5,-437 1153.5,-418 1295.5,-418 1295.5,-437"/>
<text text-anchor="middle" x="1224.5" y="-425" font-family="Helvetica,sans-Serif" font-size="10.00">client/apps/diag/xrddiag.c</text>
</a>
</g>
</g>
<!-- Node2 -->
<g id="Node000002" class="node">
<title>Node2</title>
<g id="a_Node000002"><a xlink:href="diag__internal_8h.html" target="_top" xlink:title=" ">
<polygon fill="white" stroke="#666666" points="712,-382 623,-382 623,-363 712,-363 712,-382"/>
<text text-anchor="middle" x="667.5" y="-370" font-family="Helvetica,sans-Serif" font-size="10.00">diag_internal.h</text>
</a>
</g>
</g>
<!-- Node1&#45;&gt;Node2 -->
<g id="edge1_Node000001_Node000002" class="edge">
<title>Node1&#45;&gt;Node2</title>
<g id="a_edge1_Node000001_Node000002"><a xlink:title=" ">
<path fill="none" stroke="#63b8ff" d="M1153.39,-419.73C1040.68,-409.01 823.43,-388.34 722.07,-378.69"/>
<polygon fill="#63b8ff" stroke="#63b8ff" points="722.33,-375.2 712.04,-377.74 721.66,-382.17 722.33,-375.2"/>
</a>
</g>
</g>
<!-- Node5 -->
<g id="Node000005" class="node">
<title>Node5</title>
<g id="a_Node000005"><a xlink:title=" ">
<polygon fill="#e0e0e0" stroke="#999999" points="1121.5,-134.5 1065.5,-134.5 1065.5,-115.5 1121.5,-115.5 1121.5,-134.5"/>
<text text-anchor="middle" x="1093.5" y="-122.5" font-family="Helvetica,sans-Serif" font-size="10.00">stddef.h</text>
</a>
</g>
</g>
<!-- Node1&#45;&gt;Node5 -->
<g id="edge60_Node000001_Node000005" class="edge">
<title>Node1&#45;&gt;Node5</title>
<g id="a_edge60_Node000001_Node000005"><a xlink:title=" ">
<path fill="none" stroke="#63b8ff" d="M1295.76,-423.22C1359.16,-418.63 1445.07,-407.73 1466.5,-382 1471.9,-375.51 1469.28,-370.97 1466.5,-363 1443.91,-298.18 1424.57,-284.3 1370.5,-242 1340.11,-218.23 1325.81,-223.66 1291.5,-206 1267.78,-193.79 1263.79,-187.04 1239.5,-176 1203.78,-159.76 1161.15,-145.74 1131.2,-136.71"/>
<polygon fill="#63b8ff" stroke="#63b8ff" points="1132.15,-133.34 1121.56,-133.85 1130.15,-140.05 1132.15,-133.34"/>
</a>
</g>
</g>
<!-- Node36 -->
<g id="Node000036" class="node">
<title>Node36</title>
<g id="a_Node000036"><a xlink:href="jsonout_8h.html" target="_top" xlink:title=" ">
<polygon fill="white" stroke="#666666" points="1163.5,-382 1087.5,-382 1087.5,-363 1163.5,-363 1163.5,-382"/>
<text text-anchor="middle" x="1125.5" y="-370" font-family="Helvetica,sans-Serif" font-size="10.00">cli/jsonout.h</text>
</a>
</g>
</g>
<!-- Node1&#45;&gt;Node36 -->
<g id="edge50_Node000001_Node000036" class="edge">
<title>Node1&#45;&gt;Node36</title>
<g id="a_edge50_Node000001_Node000036"><a xlink:title=" ">
<path fill="none" stroke="#63b8ff" d="M1208.59,-417.98C1192.95,-409.61 1168.84,-396.7 1150.62,-386.95"/>
<polygon fill="#63b8ff" stroke="#63b8ff" points="1152.16,-383.8 1141.7,-382.17 1148.86,-389.98 1152.16,-383.8"/>
</a>
</g>
</g>
<!-- Node37 -->
<g id="Node000037" class="node">
<title>Node37</title>
<g id="a_Node000037"><a xlink:href="version_8h.html" target="_top" xlink:title=" ">
<polygon fill="white" stroke="#666666" points="1267.5,-382 1181.5,-382 1181.5,-363 1267.5,-363 1267.5,-382"/>
<text text-anchor="middle" x="1224.5" y="-370" font-family="Helvetica,sans-Serif" font-size="10.00">core/version.h</text>
</a>
</g>
</g>
<!-- Node1&#45;&gt;Node37 -->
<g id="edge52_Node000001_Node000037" class="edge">
<title>Node1&#45;&gt;Node37</title>
<g id="a_edge52_Node000001_Node000037"><a xlink:title=" ">
<path fill="none" stroke="#63b8ff" d="M1224.5,-417.75C1224.5,-410.8 1224.5,-400.85 1224.5,-392.13"/>
<polygon fill="#63b8ff" stroke="#63b8ff" points="1228,-392.09 1224.5,-382.09 1221,-392.09 1228,-392.09"/>
</a>
</g>
</g>
<!-- Node38 -->
<g id="Node000038" class="node">
<title>Node38</title>
<g id="a_Node000038"><a xlink:href="progname_8h.html" target="_top" xlink:title=" ">
<polygon fill="white" stroke="#666666" points="1069,-382 970,-382 970,-363 1069,-363 1069,-382"/>
<text text-anchor="middle" x="1019.5" y="-370" font-family="Helvetica,sans-Serif" font-size="10.00">core/progname.h</text>
</a>
</g>
</g>
<!-- Node1&#45;&gt;Node38 -->
<g id="edge53_Node000001_Node000038" class="edge">
<title>Node1&#45;&gt;Node38</title>
<g id="a_edge53_Node000001_Node000038"><a xlink:title=" ">
<path fill="none" stroke="#63b8ff" d="M1191.56,-417.98C1156.55,-408.93 1101.03,-394.58 1062.57,-384.64"/>
<polygon fill="#63b8ff" stroke="#63b8ff" points="1063.25,-381.2 1052.69,-382.08 1061.5,-387.97 1063.25,-381.2"/>
</a>
</g>
</g>
<!-- Node39 -->
<g id="Node000039" class="node">
<title>Node39</title>
<g id="a_Node000039"><a xlink:href="suggest_8h.html" target="_top" xlink:title=" ">
<polygon fill="white" stroke="#666666" points="1457.5,-382 1379.5,-382 1379.5,-363 1457.5,-363 1457.5,-382"/>
<text text-anchor="middle" x="1418.5" y="-370" font-family="Helvetica,sans-Serif" font-size="10.00">cli/suggest.h</text>
</a>
</g>
</g>
<!-- Node1&#45;&gt;Node39 -->
<g id="edge56_Node000001_Node000039" class="edge">
<title>Node1&#45;&gt;Node39</title>
<g id="a_edge56_Node000001_Node000039"><a xlink:title=" ">
<path fill="none" stroke="#63b8ff" d="M1255.67,-417.98C1288.66,-408.97 1340.9,-394.7 1377.27,-384.76"/>
<polygon fill="#63b8ff" stroke="#63b8ff" points="1378.36,-388.09 1387.09,-382.08 1376.52,-381.34 1378.36,-388.09"/>
</a>
</g>
</g>
<!-- Node40 -->
<g id="Node000040" class="node">
<title>Node40</title>
<g id="a_Node000040"><a xlink:href="cli__hint_8h.html" target="_top" xlink:title=" ">
<polygon fill="white" stroke="#666666" points="1361,-382 1286,-382 1286,-363 1361,-363 1361,-382"/>
<text text-anchor="middle" x="1323.5" y="-370" font-family="Helvetica,sans-Serif" font-size="10.00">cli/cli_hint.h</text>
</a>
</g>
</g>
<!-- Node1&#45;&gt;Node40 -->
<g id="edge57_Node000001_Node000040" class="edge">
<title>Node1&#45;&gt;Node40</title>
<g id="a_edge57_Node000001_Node000040"><a xlink:title=" ">
<path fill="none" stroke="#63b8ff" d="M1240.41,-417.98C1256.05,-409.61 1280.16,-396.7 1298.38,-386.95"/>
<polygon fill="#63b8ff" stroke="#63b8ff" points="1300.14,-389.98 1307.3,-382.17 1296.84,-383.8 1300.14,-389.98"/>
</a>
</g>
</g>
<!-- Node3 -->
<g id="Node000003" class="node">
<title>Node3</title>
<g id="a_Node000003"><a xlink:href="brix_8h.html" target="_top" xlink:title=" ">
<polygon fill="white" stroke="#666666" points="1223.5,-327 1179.5,-327 1179.5,-308 1223.5,-308 1223.5,-327"/>
<text text-anchor="middle" x="1201.5" y="-315" font-family="Helvetica,sans-Serif" font-size="10.00">brix.h</text>
</a>
</g>
</g>
<!-- Node2&#45;&gt;Node3 -->
<g id="edge2_Node000002_Node000003" class="edge">
<title>Node2&#45;&gt;Node3</title>
<g id="a_edge2_Node000002_Node000003"><a xlink:title=" ">
<path fill="none" stroke="#63b8ff" d="M712.11,-367.07C817.12,-356.65 1077.91,-330.77 1169.27,-321.7"/>
<polygon fill="#63b8ff" stroke="#63b8ff" points="1169.69,-325.17 1179.3,-320.7 1169,-318.21 1169.69,-325.17"/>
</a>
</g>
</g>
<!-- Node6 -->
<g id="Node000006" class="node">
<title>Node6</title>
<g id="a_Node000006"><a xlink:title=" ">
<polygon fill="#e0e0e0" stroke="#999999" points="925.5,-266.5 875.5,-266.5 875.5,-247.5 925.5,-247.5 925.5,-266.5"/>
<text text-anchor="middle" x="900.5" y="-254.5" font-family="Helvetica,sans-Serif" font-size="10.00">stdio.h</text>
</a>
</g>
</g>
<!-- Node2&#45;&gt;Node6 -->
<g id="edge44_Node000002_Node000006" class="edge">
<title>Node2&#45;&gt;Node6</title>
<g id="a_edge44_Node000002_Node000006"><a xlink:title=" ">
<path fill="none" stroke="#63b8ff" d="M712.05,-369.89C774.94,-366.57 884.86,-356.58 909.5,-327 921.18,-312.97 915.94,-291.46 909.68,-276.19"/>
<polygon fill="#63b8ff" stroke="#63b8ff" points="912.72,-274.42 905.38,-266.78 906.35,-277.33 912.72,-274.42"/>
</a>
</g>
</g>
<!-- Node7 -->
<g id="Node000007" class="node">
<title>Node7</title>
<g id="a_Node000007"><a xlink:href="time_8h.html" target="_top" xlink:title=" ">
<polygon fill="white" stroke="#666666" points="991.5,-266.5 943.5,-266.5 943.5,-247.5 991.5,-247.5 991.5,-266.5"/>
<text text-anchor="middle" x="967.5" y="-254.5" font-family="Helvetica,sans-Serif" font-size="10.00">time.h</text>
</a>
</g>
</g>
<!-- Node2&#45;&gt;Node7 -->
<g id="edge48_Node000002_Node000007" class="edge">
<title>Node2&#45;&gt;Node7</title>
<g id="a_edge48_Node000002_Node000007"><a xlink:title=" ">
<path fill="none" stroke="#63b8ff" d="M712.07,-368.41C776.95,-363.18 893.38,-350.72 927.5,-327 944.87,-314.93 955.75,-292.7 961.7,-276.73"/>
<polygon fill="#63b8ff" stroke="#63b8ff" points="965.15,-277.47 965.06,-266.87 958.52,-275.21 965.15,-277.47"/>
</a>
</g>
</g>
<!-- Node22 -->
<g id="Node000022" class="node">
<title>Node22</title>
<g id="a_Node000022"><a xlink:href="crypto_8h.html" target="_top" xlink:title=" ">
<polygon fill="white" stroke="#666666" points="971.5,-200.5 851.5,-200.5 851.5,-181.5 971.5,-181.5 971.5,-200.5"/>
<text text-anchor="middle" x="911.5" y="-188.5" font-family="Helvetica,sans-Serif" font-size="10.00">core/compat/crypto.h</text>
</a>
</g>
</g>
<!-- Node2&#45;&gt;Node22 -->
<g id="edge30_Node000002_Node000022" class="edge">
<title>Node2&#45;&gt;Node22</title>
<g id="a_edge30_Node000002_Node000022"><a xlink:title=" ">
<path fill="none" stroke="#63b8ff" d="M692.25,-362.97C713.01,-355.22 742.95,-342.63 766.5,-327 820.26,-291.31 873.09,-235.44 897.49,-208.12"/>
<polygon fill="#63b8ff" stroke="#63b8ff" points="900.12,-210.43 904.12,-200.62 894.87,-205.8 900.12,-210.43"/>
</a>
</g>
</g>
<!-- Node23 -->
<g id="Node000023" class="node">
<title>Node23</title>
<g id="a_Node000023"><a xlink:href="hex_8h.html" target="_top" xlink:title=" ">
<polygon fill="white" stroke="#666666" points="833,-200.5 726,-200.5 726,-181.5 833,-181.5 833,-200.5"/>
<text text-anchor="middle" x="779.5" y="-188.5" font-family="Helvetica,sans-Serif" font-size="10.00">core/compat/hex.h</text>
</a>
</g>
</g>
<!-- Node2&#45;&gt;Node23 -->
<g id="edge33_Node000002_Node000023" class="edge">
<title>Node2&#45;&gt;Node23</title>
<g id="a_edge33_Node000002_Node000023"><a xlink:title=" ">
<path fill="none" stroke="#63b8ff" d="M694.01,-362.89C711.44,-355.89 733.37,-344.31 746.5,-327 773.02,-292.02 778.51,-238.58 779.47,-210.58"/>
<polygon fill="#63b8ff" stroke="#63b8ff" points="782.97,-210.63 779.65,-200.57 775.97,-210.51 782.97,-210.63"/>
</a>
</g>
</g>
<!-- Node24 -->
<g id="Node000024" class="node">
<title>Node24</title>
<g id="a_Node000024"><a xlink:title=" ">
<polygon fill="#e0e0e0" stroke="#999999" points="901,-327 832,-327 832,-308 901,-308 901,-327"/>
<text text-anchor="middle" x="866.5" y="-315" font-family="Helvetica,sans-Serif" font-size="10.00">arpa/inet.h</text>
</a>
</g>
</g>
<!-- Node2&#45;&gt;Node24 -->
<g id="edge36_Node000002_Node000024" class="edge">
<title>Node2&#45;&gt;Node24</title>
<g id="a_edge36_Node000002_Node000024"><a xlink:title=" ">
<path fill="none" stroke="#63b8ff" d="M699.47,-362.98C733.32,-353.97 786.9,-339.7 824.21,-329.76"/>
<polygon fill="#63b8ff" stroke="#63b8ff" points="825.51,-333.04 834.28,-327.08 823.71,-326.27 825.51,-333.04"/>
</a>
</g>
</g>
<!-- Node25 -->
<g id="Node000025" class="node">
<title>Node25</title>
<g id="a_Node000025"><a xlink:title=" ">
<polygon fill="#e0e0e0" stroke="#999999" points="51,-327 0,-327 0,-308 51,-308 51,-327"/>
<text text-anchor="middle" x="25.5" y="-315" font-family="Helvetica,sans-Serif" font-size="10.00">errno.h</text>
</a>
</g>
</g>
<!-- Node2&#45;&gt;Node25 -->
<g id="edge37_Node000002_Node000025" class="edge">
<title>Node2&#45;&gt;Node25</title>
<g id="a_edge37_Node000002_Node000025"><a xlink:title=" ">
<path fill="none" stroke="#63b8ff" d="M622.95,-370.86C523.56,-368.86 276.15,-360.77 60.92,-326.96"/>
<polygon fill="#63b8ff" stroke="#63b8ff" points="61.45,-323.5 51.02,-325.38 60.35,-330.41 61.45,-323.5"/>
</a>
</g>
</g>
<!-- Node26 -->
<g id="Node000026" class="node">
<title>Node26</title>
<g id="a_Node000026"><a xlink:title=" ">
<polygon fill="#e0e0e0" stroke="#999999" points="116,-327 69,-327 69,-308 116,-308 116,-327"/>
<text text-anchor="middle" x="92.5" y="-315" font-family="Helvetica,sans-Serif" font-size="10.00">fcntl.h</text>
</a>
</g>
</g>
<!-- Node2&#45;&gt;Node26 -->
<g id="edge38_Node000002_Node000026" class="edge">
<title>Node2&#45;&gt;Node26</title>
<g id="a_edge38_Node000002_Node000026"><a xlink:title=" ">
<path fill="none" stroke="#63b8ff" d="M622.82,-370.52C531.2,-367.94 315.42,-358.9 126.29,-327.02"/>
<polygon fill="#63b8ff" stroke="#63b8ff" points="126.61,-323.52 116.16,-325.29 125.43,-330.42 126.61,-323.52"/>
</a>
</g>
</g>
<!-- Node27 -->
<g id="Node000027" class="node">
<title>Node27</title>
<g id="a_Node000027"><a xlink:title=" ">
<polygon fill="#e0e0e0" stroke="#999999" points="187,-327 134,-327 134,-308 187,-308 187,-327"/>
<text text-anchor="middle" x="160.5" y="-315" font-family="Helvetica,sans-Serif" font-size="10.00">netdb.h</text>
</a>
</g>
</g>
<!-- Node2&#45;&gt;Node27 -->
<g id="edge39_Node000002_Node000027" class="edge">
<title>Node2&#45;&gt;Node27</title>
<g id="a_edge39_Node000002_Node000027"><a xlink:title=" ">
<path fill="none" stroke="#63b8ff" d="M622.75,-369.33C540.48,-364.89 359.53,-353.06 197.32,-326.89"/>
<polygon fill="#63b8ff" stroke="#63b8ff" points="197.59,-323.39 187.15,-325.22 196.46,-330.29 197.59,-323.39"/>
</a>
</g>
</g>
<!-- Node28 -->
<g id="Node000028" class="node">
<title>Node28</title>
<g id="a_Node000028"><a xlink:title=" ">
<polygon fill="#e0e0e0" stroke="#999999" points="277.5,-327 205.5,-327 205.5,-308 277.5,-308 277.5,-327"/>
<text text-anchor="middle" x="241.5" y="-315" font-family="Helvetica,sans-Serif" font-size="10.00">netinet/in.h</text>
</a>
</g>
</g>
<!-- Node2&#45;&gt;Node28 -->
<g id="edge40_Node000002_Node000028" class="edge">
<title>Node2&#45;&gt;Node28</title>
<g id="a_edge40_Node000002_Node000028"><a xlink:title=" ">
<path fill="none" stroke="#63b8ff" d="M622.78,-367.31C553.27,-360.57 414.89,-346.24 287.73,-327.09"/>
<polygon fill="#63b8ff" stroke="#63b8ff" points="288.22,-323.63 277.81,-325.59 287.17,-330.55 288.22,-323.63"/>
</a>
</g>
</g>
<!-- Node29 -->
<g id="Node000029" class="node">
<title>Node29</title>
<g id="a_Node000029"><a xlink:title=" ">
<polygon fill="#e0e0e0" stroke="#999999" points="351,-327 296,-327 296,-308 351,-308 351,-327"/>
<text text-anchor="middle" x="323.5" y="-315" font-family="Helvetica,sans-Serif" font-size="10.00">signal.h</text>
</a>
</g>
</g>
<!-- Node2&#45;&gt;Node29 -->
<g id="edge41_Node000002_Node000029" class="edge">
<title>Node2&#45;&gt;Node29</title>
<g id="a_edge41_Node000002_Node000029"><a xlink:title=" ">
<path fill="none" stroke="#63b8ff" d="M622.83,-366.19C564.83,-359.04 460.29,-345.27 361.21,-326.99"/>
<polygon fill="#63b8ff" stroke="#63b8ff" points="361.8,-323.54 351.33,-325.15 360.52,-330.42 361.8,-323.54"/>
</a>
</g>
</g>
<!-- Node30 -->
<g id="Node000030" class="node">
<title>Node30</title>
<g id="a_Node000030"><a xlink:title=" ">
<polygon fill="#e0e0e0" stroke="#999999" points="425.5,-327 369.5,-327 369.5,-308 425.5,-308 425.5,-327"/>
<text text-anchor="middle" x="397.5" y="-315" font-family="Helvetica,sans-Serif" font-size="10.00">stdarg.h</text>
</a>
</g>
</g>
<!-- Node2&#45;&gt;Node30 -->
<g id="edge42_Node000002_Node000030" class="edge">
<title>Node2&#45;&gt;Node30</title>
<g id="a_edge42_Node000002_Node000030"><a xlink:title=" ">
<path fill="none" stroke="#63b8ff" d="M622.73,-363.46C577.86,-355.29 506.55,-341.99 435.74,-327.2"/>
<polygon fill="#63b8ff" stroke="#63b8ff" points="436.26,-323.73 425.76,-325.11 434.83,-330.59 436.26,-323.73"/>
</a>
</g>
</g>
<!-- Node31 -->
<g id="Node000031" class="node">
<title>Node31</title>
<g id="a_Node000031"><a xlink:title=" ">
<polygon fill="#e0e0e0" stroke="#999999" points="497,-327 444,-327 444,-308 497,-308 497,-327"/>
<text text-anchor="middle" x="470.5" y="-315" font-family="Helvetica,sans-Serif" font-size="10.00">limits.h</text>
</a>
</g>
</g>
<!-- Node2&#45;&gt;Node31 -->
<g id="edge43_Node000002_Node000031" class="edge">
<title>Node2&#45;&gt;Node31</title>
<g id="a_edge43_Node000002_Node000031"><a xlink:title=" ">
<path fill="none" stroke="#63b8ff" d="M635.85,-362.98C600.65,-353.52 543.9,-338.25 506.9,-328.29"/>
<polygon fill="#63b8ff" stroke="#63b8ff" points="507.59,-324.85 497.02,-325.63 505.77,-331.61 507.59,-324.85"/>
</a>
</g>
</g>
<!-- Node32 -->
<g id="Node000032" class="node">
<title>Node32</title>
<g id="a_Node000032"><a xlink:title=" ">
<polygon fill="#e0e0e0" stroke="#999999" points="568,-327 515,-327 515,-308 568,-308 568,-327"/>
<text text-anchor="middle" x="541.5" y="-315" font-family="Helvetica,sans-Serif" font-size="10.00">stdlib.h</text>
</a>
</g>
</g>
<!-- Node2&#45;&gt;Node32 -->
<g id="edge45_Node000002_Node000032" class="edge">
<title>Node2&#45;&gt;Node32</title>
<g id="a_edge45_Node000002_Node000032"><a xlink:title=" ">
<path fill="none" stroke="#63b8ff" d="M647.26,-362.98C626.8,-354.38 594.97,-340.99 571.57,-331.15"/>
<polygon fill="#63b8ff" stroke="#63b8ff" points="572.69,-327.82 562.11,-327.17 569.97,-334.27 572.69,-327.82"/>
</a>
</g>
</g>
<!-- Node33 -->
<g id="Node000033" class="node">
<title>Node33</title>
<g id="a_Node000033"><a xlink:title=" ">
<polygon fill="#e0e0e0" stroke="#999999" points="1049,-327 996,-327 996,-308 1049,-308 1049,-327"/>
<text text-anchor="middle" x="1022.5" y="-315" font-family="Helvetica,sans-Serif" font-size="10.00">string.h</text>
</a>
</g>
</g>
<!-- Node2&#45;&gt;Node33 -->
<g id="edge46_Node000002_Node000033" class="edge">
<title>Node2&#45;&gt;Node33</title>
<g id="a_edge46_Node000002_Node000033"><a xlink:title=" ">
<path fill="none" stroke="#63b8ff" d="M712.1,-366.09C773.1,-358.48 885.9,-343.67 981.5,-327 982.79,-326.78 984.1,-326.54 985.42,-326.3"/>
<polygon fill="#63b8ff" stroke="#63b8ff" points="986.49,-329.66 995.64,-324.32 985.16,-322.78 986.49,-329.66"/>
</a>
</g>
</g>
<!-- Node34 -->
<g id="Node000034" class="node">
<title>Node34</title>
<g id="a_Node000034"><a xlink:title=" ">
<polygon fill="#e0e0e0" stroke="#999999" points="663,-327 586,-327 586,-308 663,-308 663,-327"/>
<text text-anchor="middle" x="624.5" y="-315" font-family="Helvetica,sans-Serif" font-size="10.00">sys/socket.h</text>
</a>
</g>
</g>
<!-- Node2&#45;&gt;Node34 -->
<g id="edge47_Node000002_Node000034" class="edge">
<title>Node2&#45;&gt;Node34</title>
<g id="a_edge47_Node000002_Node000034"><a xlink:title=" ">
<path fill="none" stroke="#63b8ff" d="M660.4,-362.75C654.33,-355.26 645.41,-344.28 637.99,-335.13"/>
<polygon fill="#63b8ff" stroke="#63b8ff" points="640.49,-332.65 631.47,-327.09 635.05,-337.06 640.49,-332.65"/>
</a>
</g>
</g>
<!-- Node35 -->
<g id="Node000035" class="node">
<title>Node35</title>
<g id="a_Node000035"><a xlink:title=" ">
<polygon fill="#e0e0e0" stroke="#999999" points="737.5,-327 681.5,-327 681.5,-308 737.5,-308 737.5,-327"/>
<text text-anchor="middle" x="709.5" y="-315" font-family="Helvetica,sans-Serif" font-size="10.00">unistd.h</text>
</a>
</g>
</g>
<!-- Node2&#45;&gt;Node35 -->
<g id="edge49_Node000002_Node000035" class="edge">
<title>Node2&#45;&gt;Node35</title>
<g id="a_edge49_Node000002_Node000035"><a xlink:title=" ">
<path fill="none" stroke="#63b8ff" d="M674.44,-362.75C680.37,-355.26 689.07,-344.28 696.32,-335.13"/>
<polygon fill="#63b8ff" stroke="#63b8ff" points="699.23,-337.1 702.69,-327.09 693.74,-332.75 699.23,-337.1"/>
</a>
</g>
</g>
<!-- Node4 -->
<g id="Node000004" class="node">
<title>Node4</title>
<g id="a_Node000004"><a xlink:title=" ">
<polygon fill="#e0e0e0" stroke="#999999" points="1064,-19 1011,-19 1011,0 1064,0 1064,-19"/>
<text text-anchor="middle" x="1037.5" y="-7" font-family="Helvetica,sans-Serif" font-size="10.00">stdint.h</text>
</a>
</g>
</g>
<!-- Node3&#45;&gt;Node4 -->
<g id="edge3_Node000003_Node000004" class="edge">
<title>Node3&#45;&gt;Node4</title>
<g id="a_edge3_Node000003_Node000004"><a xlink:title=" ">
<path fill="none" stroke="#63b8ff" d="M1179.46,-313.53C1152.73,-308.9 1107.64,-297.67 1078.5,-272 1048.52,-245.59 1037.5,-231.95 1037.5,-192 1037.5,-192 1037.5,-192 1037.5,-124 1037.5,-90.61 1037.5,-51.69 1037.5,-29.19"/>
<polygon fill="#63b8ff" stroke="#63b8ff" points="1041,-29.04 1037.5,-19.04 1034,-29.04 1041,-29.04"/>
</a>
</g>
</g>
<!-- Node3&#45;&gt;Node5 -->
<g id="edge4_Node000003_Node000005" class="edge">
<title>Node3&#45;&gt;Node5</title>
<g id="a_edge4_Node000003_Node000005"><a xlink:title=" ">
<path fill="none" stroke="#63b8ff" d="M1179.18,-314.19C1154.04,-310.27 1114.25,-299.8 1095.5,-272 1069.23,-233.06 1079.94,-173.98 1087.87,-144.33"/>
<polygon fill="#63b8ff" stroke="#63b8ff" points="1091.29,-145.09 1090.68,-134.52 1084.56,-143.16 1091.29,-145.09"/>
</a>
</g>
</g>
<!-- Node3&#45;&gt;Node6 -->
<g id="edge5_Node000003_Node000006" class="edge">
<title>Node3&#45;&gt;Node6</title>
<g id="a_edge5_Node000003_Node000006"><a xlink:title=" ">
<path fill="none" stroke="#63b8ff" d="M1179.45,-313.48C1124.17,-305.8 980.82,-285.21 934.5,-272 932.61,-271.46 930.69,-270.85 928.76,-270.19"/>
<polygon fill="#63b8ff" stroke="#63b8ff" points="929.88,-266.87 919.29,-266.62 927.41,-273.42 929.88,-266.87"/>
</a>
</g>
</g>
<!-- Node3&#45;&gt;Node7 -->
<g id="edge6_Node000003_Node000007" class="edge">
<title>Node3&#45;&gt;Node7</title>
<g id="a_edge6_Node000003_Node000007"><a xlink:title=" ">
<path fill="none" stroke="#63b8ff" d="M1179.49,-311C1138.49,-300.75 1050.18,-278.67 1001.48,-266.49"/>
<polygon fill="#63b8ff" stroke="#63b8ff" points="1002.27,-263.08 991.72,-264.05 1000.57,-269.88 1002.27,-263.08"/>
</a>
</g>
</g>
<!-- Node8 -->
<g id="Node000008" class="node">
<title>Node8</title>
<g id="a_Node000008"><a xlink:title=" ">
<polygon fill="#e0e0e0" stroke="#999999" points="1445.5,-134.5 1373.5,-134.5 1373.5,-115.5 1445.5,-115.5 1445.5,-134.5"/>
<text text-anchor="middle" x="1409.5" y="-122.5" font-family="Helvetica,sans-Serif" font-size="10.00">sys/types.h</text>
</a>
</g>
</g>
<!-- Node3&#45;&gt;Node8 -->
<g id="edge9_Node000003_Node000008" class="edge">
<title>Node3&#45;&gt;Node8</title>
<g id="a_edge9_Node000003_Node000008"><a xlink:title=" ">
<path fill="none" stroke="#63b8ff" d="M1223.73,-314.57C1257.82,-310.8 1324.13,-300.19 1372.5,-272 1407.8,-251.43 1421.15,-243.87 1436.5,-206 1445.15,-184.65 1433.01,-159.36 1422.34,-143.02"/>
<polygon fill="#63b8ff" stroke="#63b8ff" points="1425,-140.71 1416.39,-134.53 1419.26,-144.73 1425,-140.71"/>
</a>
</g>
</g>
<!-- Node9 -->
<g id="Node000009" class="node">
<title>Node9</title>
<g id="a_Node000009"><a xlink:href="root_2protocol_2protocol_8h.html" target="_top" xlink:title=" ">
<polygon fill="white" stroke="#666666" points="1641,-272 1514,-272 1514,-242 1641,-242 1641,-272"/>
<text text-anchor="start" x="1522" y="-260" font-family="Helvetica,sans-Serif" font-size="10.00">protocols/root/protocol</text>
<text text-anchor="middle" x="1577.5" y="-249" font-family="Helvetica,sans-Serif" font-size="10.00">/protocol.h</text>
</a>
</g>
</g>
<!-- Node3&#45;&gt;Node9 -->
<g id="edge10_Node000003_Node000009" class="edge">
<title>Node3&#45;&gt;Node9</title>
<g id="a_edge10_Node000003_Node000009"><a xlink:title=" ">
<path fill="none" stroke="#63b8ff" d="M1223.62,-313.06C1277.37,-304.7 1416.84,-283 1503.77,-269.47"/>
<polygon fill="#63b8ff" stroke="#63b8ff" points="1504.5,-272.9 1513.85,-267.9 1503.43,-265.98 1504.5,-272.9"/>
</a>
</g>
</g>
<!-- Node17 -->
<g id="Node000017" class="node">
<title>Node17</title>
<g id="a_Node000017"><a xlink:href="wire__codec_8h.html" target="_top" xlink:title=" ">
<polygon fill="white" stroke="#666666" points="1427,-206 1300,-206 1300,-176 1427,-176 1427,-206"/>
<text text-anchor="start" x="1308" y="-194" font-family="Helvetica,sans-Serif" font-size="10.00">protocols/root/protocol</text>
<text text-anchor="middle" x="1363.5" y="-183" font-family="Helvetica,sans-Serif" font-size="10.00">/codec/wire_codec.h</text>
</a>
</g>
</g>
<!-- Node3&#45;&gt;Node17 -->
<g id="edge26_Node000003_Node000017" class="edge">
<title>Node3&#45;&gt;Node17</title>
<g id="a_edge26_Node000003_Node000017"><a xlink:title=" ">
<path fill="none" stroke="#63b8ff" d="M1223.65,-316.95C1257.08,-316.33 1319.97,-309.81 1352.5,-272 1365.52,-256.86 1367.46,-233.8 1366.61,-216.32"/>
<polygon fill="#63b8ff" stroke="#63b8ff" points="1370.1,-215.97 1365.8,-206.28 1363.12,-216.53 1370.1,-215.97"/>
</a>
</g>
</g>
<!-- Node19 -->
<g id="Node000019" class="node">
<title>Node19</title>
<g id="a_Node000019"><a xlink:href="brix__net_8h.html" target="_top" xlink:title=" ">
<polygon fill="white" stroke="#666666" points="1343,-266.5 1278,-266.5 1278,-247.5 1343,-247.5 1343,-266.5"/>
<text text-anchor="middle" x="1310.5" y="-254.5" font-family="Helvetica,sans-Serif" font-size="10.00">brix_net.h</text>
</a>
</g>
</g>
<!-- Node3&#45;&gt;Node19 -->
<g id="edge27_Node000003_Node000019" class="edge">
<title>Node3&#45;&gt;Node19</title>
<g id="a_edge27_Node000003_Node000019"><a xlink:title=" ">
<path fill="none" stroke="#63b8ff" d="M1217.58,-307.87C1235.45,-298.28 1264.54,-282.67 1285.41,-271.47"/>
<polygon fill="#63b8ff" stroke="#63b8ff" points="1287.19,-274.48 1294.35,-266.67 1283.88,-268.31 1287.19,-274.48"/>
</a>
</g>
</g>
<!-- Node20 -->
<g id="Node000020" class="node">
<title>Node20</title>
<g id="a_Node000020"><a xlink:href="brix__auth_8h.html" target="_top" xlink:title=" ">
<polygon fill="white" stroke="#666666" points="1175,-266.5 1104,-266.5 1104,-247.5 1175,-247.5 1175,-266.5"/>
<text text-anchor="middle" x="1139.5" y="-254.5" font-family="Helvetica,sans-Serif" font-size="10.00">brix_auth.h</text>
</a>
</g>
</g>
<!-- Node3&#45;&gt;Node20 -->
<g id="edge28_Node000003_Node000020" class="edge">
<title>Node3&#45;&gt;Node20</title>
<g id="a_edge28_Node000003_Node000020"><a xlink:title=" ">
<path fill="none" stroke="#63b8ff" d="M1192.35,-307.87C1182.83,-298.88 1167.7,-284.61 1156.07,-273.64"/>
<polygon fill="#63b8ff" stroke="#63b8ff" points="1158.36,-270.98 1148.69,-266.67 1153.56,-276.08 1158.36,-270.98"/>
</a>
</g>
</g>
<!-- Node21 -->
<g id="Node000021" class="node">
<title>Node21</title>
<g id="a_Node000021"><a xlink:href="brix__ops_8h.html" target="_top" xlink:title=" ">
<polygon fill="white" stroke="#666666" points="1260,-266.5 1193,-266.5 1193,-247.5 1260,-247.5 1260,-266.5"/>
<text text-anchor="middle" x="1226.5" y="-254.5" font-family="Helvetica,sans-Serif" font-size="10.00">brix_ops.h</text>
</a>
</g>
</g>
<!-- Node3&#45;&gt;Node21 -->
<g id="edge29_Node000003_Node000021" class="edge">
<title>Node3&#45;&gt;Node21</title>
<g id="a_edge29_Node000003_Node000021"><a xlink:title=" ">
<path fill="none" stroke="#63b8ff" d="M1205.19,-307.87C1208.77,-299.49 1214.32,-286.51 1218.85,-275.89"/>
<polygon fill="#63b8ff" stroke="#63b8ff" points="1222.08,-277.24 1222.8,-266.67 1215.65,-274.49 1222.08,-277.24"/>
</a>
</g>
</g>
<!-- Node7&#45;&gt;Node5 -->
<g id="edge7_Node000007_Node000005" class="edge">
<title>Node7&#45;&gt;Node5</title>
<g id="a_edge7_Node000007_Node000005"><a xlink:title=" ">
<path fill="none" stroke="#63b8ff" d="M975.77,-247.47C996.5,-226.08 1050.95,-169.9 1077.91,-142.08"/>
<polygon fill="#63b8ff" stroke="#63b8ff" points="1080.59,-144.35 1085.04,-134.73 1075.56,-139.48 1080.59,-144.35"/>
</a>
</g>
</g>
<!-- Node7&#45;&gt;Node7 -->
<g id="edge8_Node000007_Node000007" class="edge">
<title>Node7&#45;&gt;Node7</title>
<g id="a_edge8_Node000007_Node000007"><a xlink:title=" ">
<path fill="none" stroke="#63b8ff" d="M983.01,-266.53C995.96,-270.61 1009.5,-267.43 1009.5,-257 1009.5,-249.26 1002.04,-245.51 992.9,-245.76"/>
<polygon fill="#63b8ff" stroke="#63b8ff" points="992.27,-242.32 983.01,-247.47 993.46,-249.22 992.27,-242.32"/>
</a>
</g>
</g>
<!-- Node10 -->
<g id="Node000010" class="node">
<title>Node10</title>
<g id="a_Node000010"><a xlink:href="types_8h.html" target="_top" xlink:title=" ">
<polygon fill="white" stroke="#666666" points="1646,-74 1593,-74 1593,-55 1646,-55 1646,-74"/>
<text text-anchor="middle" x="1619.5" y="-62" font-family="Helvetica,sans-Serif" font-size="10.00">types.h</text>
</a>
</g>
</g>
<!-- Node9&#45;&gt;Node10 -->
<g id="edge11_Node000009_Node000010" class="edge">
<title>Node9&#45;&gt;Node10</title>
<g id="a_edge11_Node000009_Node000010"><a xlink:title=" ">
<path fill="none" stroke="#63b8ff" d="M1585.31,-241.99C1590.42,-232.2 1596.82,-218.66 1600.5,-206 1612.82,-163.6 1617.2,-111.64 1618.72,-84.33"/>
<polygon fill="#63b8ff" stroke="#63b8ff" points="1622.22,-84.4 1619.21,-74.24 1615.23,-84.06 1622.22,-84.4"/>
</a>
</g>
</g>
<!-- Node11 -->
<g id="Node000011" class="node">
<title>Node11</title>
<g id="a_Node000011"><a xlink:href="opcodes_8h.html" target="_top" xlink:title=" ">
<polygon fill="white" stroke="#666666" points="1915.5,-74 1849.5,-74 1849.5,-55 1915.5,-55 1915.5,-74"/>
<text text-anchor="middle" x="1882.5" y="-62" font-family="Helvetica,sans-Serif" font-size="10.00">opcodes.h</text>
</a>
</g>
</g>
<!-- Node9&#45;&gt;Node11 -->
<g id="edge13_Node000009_Node000011" class="edge">
<title>Node9&#45;&gt;Node11</title>
<g id="a_edge13_Node000009_Node000011"><a xlink:title=" ">
<path fill="none" stroke="#63b8ff" d="M1641.16,-249.7C1756.3,-236.83 1991.68,-203.24 2039.5,-140 2071.96,-97.07 1982.94,-77.79 1925.98,-70.05"/>
<polygon fill="#63b8ff" stroke="#63b8ff" points="1926.12,-66.54 1915.76,-68.74 1925.23,-73.48 1926.12,-66.54"/>
</a>
</g>
</g>
<!-- Node12 -->
<g id="Node000012" class="node">
<title>Node12</title>
<g id="a_Node000012"><a xlink:href="flags_8h.html" target="_top" xlink:title=" ">
<polygon fill="white" stroke="#666666" points="1591,-200.5 1542,-200.5 1542,-181.5 1591,-181.5 1591,-200.5"/>
<text text-anchor="middle" x="1566.5" y="-188.5" font-family="Helvetica,sans-Serif" font-size="10.00">flags.h</text>
</a>
</g>
</g>
<!-- Node9&#45;&gt;Node12 -->
<g id="edge14_Node000009_Node000012" class="edge">
<title>Node9&#45;&gt;Node12</title>
<g id="a_edge14_Node000009_Node000012"><a xlink:title=" ">
<path fill="none" stroke="#63b8ff" d="M1575.06,-241.8C1573.5,-232.7 1571.45,-220.79 1569.75,-210.9"/>
<polygon fill="#63b8ff" stroke="#63b8ff" points="1573.16,-210.11 1568.02,-200.84 1566.26,-211.29 1573.16,-210.11"/>
</a>
</g>
</g>
<!-- Node13 -->
<g id="Node000013" class="node">
<title>Node13</title>
<g id="a_Node000013"><a xlink:href="wire_8h.html" target="_top" xlink:title=" ">
<polygon fill="white" stroke="#666666" points="1797,-200.5 1750,-200.5 1750,-181.5 1797,-181.5 1797,-200.5"/>
<text text-anchor="middle" x="1773.5" y="-188.5" font-family="Helvetica,sans-Serif" font-size="10.00">wire.h</text>
</a>
</g>
</g>
<!-- Node9&#45;&gt;Node13 -->
<g id="edge15_Node000009_Node000013" class="edge">
<title>Node9&#45;&gt;Node13</title>
<g id="a_edge15_Node000009_Node000013"><a xlink:title=" ">
<path fill="none" stroke="#63b8ff" d="M1620.51,-241.95C1656.56,-230.18 1707.29,-213.62 1740.28,-202.85"/>
<polygon fill="#63b8ff" stroke="#63b8ff" points="1741.49,-206.13 1749.91,-199.7 1739.32,-199.48 1741.49,-206.13"/>
</a>
</g>
</g>
<!-- Node9&#45;&gt;Node17 -->
<g id="edge21_Node000009_Node000017" class="edge">
<title>Node9&#45;&gt;Node17</title>
<g id="a_edge21_Node000009_Node000017"><a xlink:title=" ">
<path fill="none" stroke="#63b8ff" d="M1530.54,-241.95C1498.06,-232.24 1454.68,-219.27 1420.26,-208.98"/>
<polygon fill="#63b8ff" stroke="#63b8ff" points="1420.94,-205.52 1410.35,-206.01 1418.93,-212.23 1420.94,-205.52"/>
</a>
</g>
</g>
<!-- Node18 -->
<g id="Node000018" class="node">
<title>Node18</title>
<g id="a_Node000018"><a xlink:href="gsi_8h.html" target="_top" xlink:title=" ">
<polygon fill="white" stroke="#666666" points="1523.5,-200.5 1483.5,-200.5 1483.5,-181.5 1523.5,-181.5 1523.5,-200.5"/>
<text text-anchor="middle" x="1503.5" y="-188.5" font-family="Helvetica,sans-Serif" font-size="10.00">gsi.h</text>
</a>
</g>
</g>
<!-- Node9&#45;&gt;Node18 -->
<g id="edge25_Node000009_Node000018" class="edge">
<title>Node9&#45;&gt;Node18</title>
<g id="a_edge25_Node000009_Node000018"><a xlink:title=" ">
<path fill="none" stroke="#63b8ff" d="M1561.08,-241.8C1549.31,-231.62 1533.48,-217.93 1521.4,-207.48"/>
<polygon fill="#63b8ff" stroke="#63b8ff" points="1523.58,-204.74 1513.73,-200.84 1519,-210.03 1523.58,-204.74"/>
</a>
</g>
</g>
<!-- Node10&#45;&gt;Node4 -->
<g id="edge12_Node000010_Node000004" class="edge">
<title>Node10&#45;&gt;Node4</title>
<g id="a_edge12_Node000010_Node000004"><a xlink:title=" ">
<path fill="none" stroke="#63b8ff" d="M1592.98,-61.08C1499.15,-52.54 1182.71,-23.72 1074.3,-13.85"/>
<polygon fill="#63b8ff" stroke="#63b8ff" points="1074.45,-10.35 1064.18,-12.93 1073.82,-17.32 1074.45,-10.35"/>
</a>
</g>
</g>
<!-- Node14 -->
<g id="Node000014" class="node">
<title>Node14</title>
<g id="a_Node000014"><a xlink:href="wire__core__requests_8h.html" target="_top" xlink:title=" ">
<polygon fill="white" stroke="#666666" points="1767.5,-134.5 1647.5,-134.5 1647.5,-115.5 1767.5,-115.5 1767.5,-134.5"/>
<text text-anchor="middle" x="1707.5" y="-122.5" font-family="Helvetica,sans-Serif" font-size="10.00">wire_core_requests.h</text>
</a>
</g>
</g>
<!-- Node13&#45;&gt;Node14 -->
<g id="edge16_Node000013_Node000014" class="edge">
<title>Node13&#45;&gt;Node14</title>
<g id="a_edge16_Node000013_Node000014"><a xlink:title=" ">
<path fill="none" stroke="#63b8ff" d="M1764.6,-181.37C1754.23,-171.31 1736.87,-154.48 1724.01,-142.01"/>
<polygon fill="#63b8ff" stroke="#63b8ff" points="1726.3,-139.35 1716.68,-134.91 1721.43,-144.38 1726.3,-139.35"/>
</a>
</g>
</g>
<!-- Node15 -->
<g id="Node000015" class="node">
<title>Node15</title>
<g id="a_Node000015"><a xlink:href="wire__write__extended__requests_8h.html" target="_top" xlink:title=" ">
<polygon fill="white" stroke="#666666" points="2030,-140 1911,-140 1911,-110 2030,-110 2030,-140"/>
<text text-anchor="start" x="1919" y="-128" font-family="Helvetica,sans-Serif" font-size="10.00">wire_write_extended</text>
<text text-anchor="middle" x="1970.5" y="-117" font-family="Helvetica,sans-Serif" font-size="10.00">_requests.h</text>
</a>
</g>
</g>
<!-- Node13&#45;&gt;Node15 -->
<g id="edge19_Node000013_Node000015" class="edge">
<title>Node13&#45;&gt;Node15</title>
<g id="a_edge19_Node000013_Node000015"><a xlink:title=" ">
<path fill="none" stroke="#63b8ff" d="M1797.26,-182.28C1826.89,-172.66 1878.39,-155.93 1917.56,-143.2"/>
<polygon fill="#63b8ff" stroke="#63b8ff" points="1918.8,-146.48 1927.23,-140.06 1916.64,-139.82 1918.8,-146.48"/>
</a>
</g>
</g>
<!-- Node16 -->
<g id="Node000016" class="node">
<title>Node16</title>
<g id="a_Node000016"><a xlink:href="wire__vendor__ext_8h.html" target="_top" xlink:title=" ">
<polygon fill="white" stroke="#666666" points="1893,-134.5 1786,-134.5 1786,-115.5 1893,-115.5 1893,-134.5"/>
<text text-anchor="middle" x="1839.5" y="-122.5" font-family="Helvetica,sans-Serif" font-size="10.00">wire_vendor_ext.h</text>
</a>
</g>
</g>
<!-- Node13&#45;&gt;Node16 -->
<g id="edge20_Node000013_Node000016" class="edge">
<title>Node13&#45;&gt;Node16</title>
<g id="a_edge20_Node000013_Node000016"><a xlink:title=" ">
<path fill="none" stroke="#63b8ff" d="M1782.4,-181.37C1792.77,-171.31 1810.13,-154.48 1822.99,-142.01"/>
<polygon fill="#63b8ff" stroke="#63b8ff" points="1825.57,-144.38 1830.32,-134.91 1820.7,-139.35 1825.57,-144.38"/>
</a>
</g>
</g>
<!-- Node14&#45;&gt;Node10 -->
<g id="edge17_Node000014_Node000010" class="edge">
<title>Node14&#45;&gt;Node10</title>
<g id="a_edge17_Node000014_Node000010"><a xlink:title=" ">
<path fill="none" stroke="#63b8ff" d="M1694.52,-115.37C1680.48,-106.04 1657.87,-91.01 1641.14,-79.88"/>
<polygon fill="#63b8ff" stroke="#63b8ff" points="1642.8,-76.79 1632.54,-74.17 1638.93,-82.62 1642.8,-76.79"/>
</a>
</g>
</g>
<!-- Node14&#45;&gt;Node11 -->
<g id="edge18_Node000014_Node000011" class="edge">
<title>Node14&#45;&gt;Node11</title>
<g id="a_edge18_Node000014_Node000011"><a xlink:title=" ">
<path fill="none" stroke="#63b8ff" d="M1732.95,-115.49C1763.14,-105.4 1813.66,-88.51 1847.52,-77.19"/>
<polygon fill="#63b8ff" stroke="#63b8ff" points="1848.65,-80.51 1857.02,-74.02 1846.43,-73.87 1848.65,-80.51"/>
</a>
</g>
</g>
<!-- Node17&#45;&gt;Node4 -->
<g id="edge22_Node000017_Node000004" class="edge">
<title>Node17&#45;&gt;Node4</title>
<g id="a_edge22_Node000017_Node000004"><a xlink:title=" ">
<path fill="none" stroke="#63b8ff" d="M1337.92,-175.91C1276.65,-142.18 1122.15,-57.11 1062,-23.99"/>
<polygon fill="#63b8ff" stroke="#63b8ff" points="1063.63,-20.89 1053.18,-19.13 1060.25,-27.02 1063.63,-20.89"/>
</a>
</g>
</g>
<!-- Node17&#45;&gt;Node5 -->
<g id="edge23_Node000017_Node000005" class="edge">
<title>Node17&#45;&gt;Node5</title>
<g id="a_edge23_Node000017_Node000005"><a xlink:title=" ">
<path fill="none" stroke="#63b8ff" d="M1304.25,-175.95C1251.68,-163.5 1176.46,-145.67 1131.55,-135.02"/>
<polygon fill="#63b8ff" stroke="#63b8ff" points="1132.17,-131.57 1121.63,-132.67 1130.55,-138.38 1132.17,-131.57"/>
</a>
</g>
</g>
<!-- Node17&#45;&gt;Node8 -->
<g id="edge24_Node000017_Node000008" class="edge">
<title>Node17&#45;&gt;Node8</title>
<g id="a_edge24_Node000017_Node000008"><a xlink:title=" ">
<path fill="none" stroke="#63b8ff" d="M1373.71,-175.8C1380.67,-166.11 1389.92,-153.24 1397.27,-143.01"/>
<polygon fill="#63b8ff" stroke="#63b8ff" points="1400.15,-145.01 1403.14,-134.84 1394.46,-140.92 1400.15,-145.01"/>
</a>
</g>
</g>
<!-- Node22&#45;&gt;Node4 -->
<g id="edge32_Node000022_Node000004" class="edge">
<title>Node22&#45;&gt;Node4</title>
<g id="a_edge32_Node000022_Node000004"><a xlink:title=" ">
<path fill="none" stroke="#63b8ff" d="M917.58,-181.34C937.25,-153.32 999.4,-64.77 1025.64,-27.4"/>
<polygon fill="#63b8ff" stroke="#63b8ff" points="1028.6,-29.27 1031.48,-19.07 1022.87,-25.24 1028.6,-29.27"/>
</a>
</g>
</g>
<!-- Node22&#45;&gt;Node5 -->
<g id="edge31_Node000022_Node000005" class="edge">
<title>Node22&#45;&gt;Node5</title>
<g id="a_edge31_Node000022_Node000005"><a xlink:title=" ">
<path fill="none" stroke="#63b8ff" d="M936.05,-181.37C967.88,-170.17 1023.59,-150.58 1059.49,-137.96"/>
<polygon fill="#63b8ff" stroke="#63b8ff" points="1060.78,-141.22 1069.05,-134.6 1058.46,-134.61 1060.78,-141.22"/>
</a>
</g>
</g>
<!-- Node23&#45;&gt;Node4 -->
<g id="edge35_Node000023_Node000004" class="edge">
<title>Node23&#45;&gt;Node4</title>
<g id="a_edge35_Node000023_Node000004"><a xlink:title=" ">
<path fill="none" stroke="#63b8ff" d="M791.94,-181.34C833.15,-152.67 965.47,-60.61 1016.84,-24.87"/>
<polygon fill="#63b8ff" stroke="#63b8ff" points="1018.97,-27.66 1025.18,-19.07 1014.97,-21.91 1018.97,-27.66"/>
</a>
</g>
</g>
<!-- Node23&#45;&gt;Node5 -->
<g id="edge34_Node000023_Node000005" class="edge">
<title>Node23&#45;&gt;Node5</title>
<g id="a_edge34_Node000023_Node000005"><a xlink:title=" ">
<path fill="none" stroke="#63b8ff" d="M817.11,-181.5C825.47,-179.65 834.28,-177.73 842.5,-176 917.8,-160.14 1006.09,-142.85 1055.33,-133.33"/>
<polygon fill="#63b8ff" stroke="#63b8ff" points="1056.07,-136.75 1065.23,-131.42 1054.74,-129.88 1056.07,-136.75"/>
</a>
</g>
</g>
<!-- Node36&#45;&gt;Node6 -->
<g id="edge51_Node000036_Node000006" class="edge">
<title>Node36&#45;&gt;Node6</title>
<g id="a_edge51_Node000036_Node000006"><a xlink:title=" ">
<path fill="none" stroke="#63b8ff" d="M1120.85,-362.6C1113.14,-348.74 1096.36,-322.1 1074.5,-308 1020.51,-273.17 995.46,-292.28 934.5,-272 932.88,-271.46 931.22,-270.88 929.55,-270.27"/>
<polygon fill="#63b8ff" stroke="#63b8ff" points="930.69,-266.96 920.1,-266.61 928.16,-273.49 930.69,-266.96"/>
</a>
</g>
</g>
<!-- Node38&#45;&gt;Node6 -->
<g id="edge54_Node000038_Node000006" class="edge">
<title>Node38&#45;&gt;Node6</title>
<g id="a_edge54_Node000038_Node000006"><a xlink:title=" ">
<path fill="none" stroke="#63b8ff" d="M1031.47,-362.96C1047.52,-350.45 1072.48,-326.62 1058.5,-308 1024.04,-262.11 988.67,-290.95 934.5,-272 932.88,-271.43 931.23,-270.83 929.57,-270.21"/>
<polygon fill="#63b8ff" stroke="#63b8ff" points="930.73,-266.9 920.14,-266.51 928.17,-273.42 930.73,-266.9"/>
</a>
</g>
</g>
<!-- Node38&#45;&gt;Node33 -->
<g id="edge55_Node000038_Node000033" class="edge">
<title>Node38&#45;&gt;Node33</title>
<g id="a_edge55_Node000038_Node000033"><a xlink:title=" ">
<path fill="none" stroke="#63b8ff" d="M1020,-362.75C1020.39,-355.8 1020.95,-345.85 1021.45,-337.13"/>
<polygon fill="#63b8ff" stroke="#63b8ff" points="1024.94,-337.27 1022.01,-327.09 1017.95,-336.88 1024.94,-337.27"/>
</a>
</g>
</g>
<!-- Node40&#45;&gt;Node3 -->
<g id="edge59_Node000040_Node000003" class="edge">
<title>Node40&#45;&gt;Node3</title>
<g id="a_edge59_Node000040_Node000003"><a xlink:title=" ">
<path fill="none" stroke="#63b8ff" d="M1303.9,-362.98C1284.18,-354.42 1253.55,-341.11 1230.92,-331.28"/>
<polygon fill="#63b8ff" stroke="#63b8ff" points="1232.02,-327.94 1221.46,-327.17 1229.24,-334.37 1232.02,-327.94"/>
</a>
</g>
</g>
<!-- Node40&#45;&gt;Node5 -->
<g id="edge58_Node000040_Node000005" class="edge">
<title>Node40&#45;&gt;Node5</title>
<g id="a_edge58_Node000040_Node000005"><a xlink:title=" ">
<path fill="none" stroke="#63b8ff" d="M1329.69,-362.76C1344.6,-340.53 1379.34,-280.87 1352.5,-242 1326.85,-204.84 1298.95,-223.92 1257.5,-206 1207.69,-184.47 1151.12,-155.94 1119.13,-139.41"/>
<polygon fill="#63b8ff" stroke="#63b8ff" points="1120.52,-136.19 1110.03,-134.69 1117.29,-142.4 1120.52,-136.19"/>
</a>
</g>
</g>
</g>
</svg>

<g id="navigator" transform="translate(0 0)" fill="#404254">
  <rect fill="#f2f5e9" fill-opacity="0.5" stroke="#606060" stroke-width=".5" x="0" y="0" width="60" height="60"/>
  <use id="zoomplus" xlink:href="#zoomPlus" x="17" y="9" onmousedown="handleZoom(evt,'in')"/>
  <use id="zoomminus" xlink:href="#zoomMin" x="42" y="9" onmousedown="handleZoom(evt,'out')"/>
  <use id="reset" xlink:href="#resetDef" x="30" y="36" onmousedown="handleReset()"/>
   <use id="arrowup" xlink:href="#arrowUp" x="0" y="0" onmousedown="handlePan(0,-1)"/>
  <use id="arrowright" xlink:href="#arrowRight" x="0" y="0" onmousedown="handlePan(1,0)"/>
  <use id="arrowdown" xlink:href="#arrowDown" x="0" y="0" onmousedown="handlePan(0,1)"/>
  <use id="arrowleft" xlink:href="#arrowLeft" x="0" y="0" onmousedown="handlePan(-1,0)"/>
</g>
<svg viewBox="0 0 15 15" width="100%" height="30px" preserveAspectRatio="xMaxYMin meet">
 <g id="arrow_out" transform="scale(0.3 0.3)">
  <a xlink:href="xrddiag_8c__incl_org.svg" target="_base">
   <rect id="button" ry="5" rx="5" y="6" x="6" height="38" width="38"
        fill="#f2f5e9" fill-opacity="0.5" stroke="#606060" stroke-width="1.0"/>
   <path id="arrow"
     d="M 11.500037,31.436501 C 11.940474,20.09759 22.043105,11.32322 32.158766,21.979434 L 37.068811,17.246167 C 37.068811,17.246167 37.088388,32 37.088388,32 L 22.160133,31.978069 C 22.160133,31.978069 26.997745,27.140456 26.997745,27.140456 C 18.528582,18.264221 13.291696,25.230495 11.500037,31.436501 z"
     style="fill:#404040;"/>
  </a>
 </g>
</svg>

<style type='text/css'>
<![CDATA[
[data-mouse-over-selected='false'] { opacity: 0.7; }
[data-mouse-over-selected='true']  { opacity: 1.0; }
]]>
</style>
<script type="application/ecmascript"><![CDATA[
document.addEventListener('DOMContentLoaded', (event) => {
  highlightEdges();
  highlightAdjacentNodes();
});
]]></script>
</svg>
