<?xml version="1.0" encoding="UTF-8" standalone="no"?>
<!DOCTYPE svg PUBLIC "-//W3C//DTD SVG 1.1//EN"
 "http://www.w3.org/Graphics/SVG/1.1/DTD/svg11.dtd">
<!-- Generated by graphviz version 2.43.0 (0)
 -->
<!-- Title: client/apps/fs/xrdfs.c Pages: 1 -->
<!--zoomable 500 -->

<svg id="main" version="1.1" xmlns="http://www.w3.org/2000/svg" xmlns:xlink="http://www.w3.org/1999/xlink" xml:space="preserve" onload="init(evt)">
<style type="text/css"><![CDATA[
.node, .edge {opacity: 0.7;}
.node.selected, .edge.selected {opacity: 1;}
.edge:hover path { stroke: red; }
.edge:hover polygon { stroke: red; fill: red; }
]]></style>

<defs>
  <circle id="rim" cx="0" cy="0" r="7"/>
  <circle id="rim2" cx="0" cy="0" r="3.5"/>
  <g id="zoomPlus">
    <use xlink:href="#rim" fill="#404040"><set attributeName="fill" to="#808080" begin="zoomplus.mouseover" end="zoomplus.mouseout"/></use>
    <path d="M-4,0h8M0,-4v8" fill="none" stroke="white" stroke-width="1.5" pointer-events="none"/>
  </g>
  <g id="zoomMin">
    <use xlink:href="#rim" fill="#404040"><set attributeName="fill" to="#808080" begin="zoomminus.mouseover" end="zoomminus.mouseout"/></use>
    <path d="M-4,0h8" fill="none" stroke="white" stroke-width="1.5" pointer-events="none"/>
  </g>
  <g id="arrowUp" transform="translate(30 24)">
    <use xlink:href="#rim"/>
    <path pointer-events="none" fill="none" stroke="white" stroke-width="1.5" d="M0,-3.0v7 M-2.5,-0.5L0,-3.0L2.5,-0.5"/>
  </g>
  <g id="arrowRight" transform="rotate(90) translate(36 -43)">
    <use xlink:href="#rim"/>
    <path pointer-events="none" fill="none" stroke="white" stroke-width="1.5" d="M0,-3.0v7 M-2.5,-0.5L0,-3.0L2.5,-0.5"/>
  </g>
  <g id="arrowDown" transform="rotate(180) translate(-30 -48)">
    <use xlink:href="#rim"/>
    <path pointer-events="none" fill="none" stroke="white" stroke-width="1.5" d="M0,-3.0v7 M-2.5,-0.5L0,-3.0L2.5,-0.5"/>
  </g>
  <g id="arrowLeft" transform="rotate(270) translate(-36 17)">
    <use xlink:href="#rim"/>
    <path pointer-events="none" fill="none" stroke="white" stroke-width="1.5" d="M0,-3.0v7 M-2.5,-0.5L0,-3.0L2.5,-0.5"/>
  </g>
  <g id="resetDef">
    <use xlink:href="#rim2" fill="#404040"><set attributeName="fill" to="#808080" begin="reset.mouseover" end="reset.mouseout"/></use>
  </g>
</defs>
<script type="application/ecmascript">
var viewWidth = 1910;
var viewHeight = 500;
var sectionId = 'dynsection-0';
</script>
<script type="application/ecmascript" xlink:href="svg.min.js"/>
<svg id="graph" class="graph">
<g id="viewport">
<title>client/apps/fs/xrdfs.c</title>
<!-- Node1 -->
<g id="Node000001" class="node">
<title>Node1</title>
<g id="a_Node000001"><a xlink:title=" ">
<polygon fill="#999999" stroke="#666666" points="1654.5,-492 1536.5,-492 1536.5,-473 1654.5,-473 1654.5,-492"/>
<text text-anchor="middle" x="1595.5" y="-480" font-family="Helvetica,sans-Serif" font-size="10.00">client/apps/fs/xrdfs.c</text>
</a>
</g>
</g>
<!-- Node2 -->
<g id="Node000002" class="node">
<title>Node2</title>
<g id="a_Node000002"><a xlink:href="xrdfs__internal_8h.html" target="_top" xlink:title=" ">
<polygon fill="white" stroke="#666666" points="1437,-437 1344,-437 1344,-418 1437,-418 1437,-437"/>
<text text-anchor="middle" x="1390.5" y="-425" font-family="Helvetica,sans-Serif" font-size="10.00">xrdfs_internal.h</text>
</a>
</g>
</g>
<!-- Node1&#45;&gt;Node2 -->
<g id="edge1_Node000001_Node000002" class="edge">
<title>Node1&#45;&gt;Node2</title>
<g id="a_edge1_Node000001_Node000002"><a xlink:title=" ">
<path fill="none" stroke="#63b8ff" d="M1562.56,-472.98C1527.55,-463.93 1472.03,-449.58 1433.57,-439.64"/>
<polygon fill="#63b8ff" stroke="#63b8ff" points="1434.25,-436.2 1423.69,-437.08 1432.5,-442.97 1434.25,-436.2"/>
</a>
</g>
</g>
<!-- Node23 -->
<g id="Node000023" class="node">
<title>Node23</title>
<g id="a_Node000023"><a xlink:href="cli__hint_8h.html" target="_top" xlink:title=" ">
<polygon fill="white" stroke="#666666" points="907,-382 832,-382 832,-363 907,-363 907,-382"/>
<text text-anchor="middle" x="869.5" y="-370" font-family="Helvetica,sans-Serif" font-size="10.00">cli/cli_hint.h</text>
</a>
</g>
</g>
<!-- Node1&#45;&gt;Node23 -->
<g id="edge55_Node000001_Node000023" class="edge">
<title>Node1&#45;&gt;Node23</title>
<g id="a_edge55_Node000001_Node000023"><a xlink:title=" ">
<path fill="none" stroke="#63b8ff" d="M1538.23,-472.98C1399.19,-452.3 1045.8,-399.73 917.21,-380.6"/>
<polygon fill="#63b8ff" stroke="#63b8ff" points="917.68,-377.13 907.27,-379.12 916.65,-384.05 917.68,-377.13"/>
</a>
</g>
</g>
<!-- Node35 -->
<g id="Node000035" class="node">
<title>Node35</title>
<g id="a_Node000035"><a xlink:href="version_8h.html" target="_top" xlink:title=" ">
<polygon fill="white" stroke="#666666" points="1638.5,-437 1552.5,-437 1552.5,-418 1638.5,-418 1638.5,-437"/>
<text text-anchor="middle" x="1595.5" y="-425" font-family="Helvetica,sans-Serif" font-size="10.00">core/version.h</text>
</a>
</g>
</g>
<!-- Node1&#45;&gt;Node35 -->
<g id="edge50_Node000001_Node000035" class="edge">
<title>Node1&#45;&gt;Node35</title>
<g id="a_edge50_Node000001_Node000035"><a xlink:title=" ">
<path fill="none" stroke="#63b8ff" d="M1595.5,-472.75C1595.5,-465.8 1595.5,-455.85 1595.5,-447.13"/>
<polygon fill="#63b8ff" stroke="#63b8ff" points="1599,-447.09 1595.5,-437.09 1592,-447.09 1599,-447.09"/>
</a>
</g>
</g>
<!-- Node36 -->
<g id="Node000036" class="node">
<title>Node36</title>
<g id="a_Node000036"><a xlink:href="progname_8h.html" target="_top" xlink:title=" ">
<polygon fill="white" stroke="#666666" points="1805,-437 1706,-437 1706,-418 1805,-418 1805,-437"/>
<text text-anchor="middle" x="1755.5" y="-425" font-family="Helvetica,sans-Serif" font-size="10.00">core/progname.h</text>
</a>
</g>
</g>
<!-- Node1&#45;&gt;Node36 -->
<g id="edge51_Node000001_Node000036" class="edge">
<title>Node1&#45;&gt;Node36</title>
<g id="a_edge51_Node000001_Node000036"><a xlink:title=" ">
<path fill="none" stroke="#63b8ff" d="M1621.21,-472.98C1647.95,-464.13 1690.03,-450.19 1719.95,-440.28"/>
<polygon fill="#63b8ff" stroke="#63b8ff" points="1721.2,-443.55 1729.59,-437.08 1719,-436.9 1721.2,-443.55"/>
</a>
</g>
</g>
<!-- Node37 -->
<g id="Node000037" class="node">
<title>Node37</title>
<g id="a_Node000037"><a xlink:href="suggest_8h.html" target="_top" xlink:title=" ">
<polygon fill="white" stroke="#666666" points="1901.5,-437 1823.5,-437 1823.5,-418 1901.5,-418 1901.5,-437"/>
<text text-anchor="middle" x="1862.5" y="-425" font-family="Helvetica,sans-Serif" font-size="10.00">cli/suggest.h</text>
</a>
</g>
</g>
<!-- Node1&#45;&gt;Node37 -->
<g id="edge54_Node000001_Node000037" class="edge">
<title>Node1&#45;&gt;Node37</title>
<g id="a_edge54_Node000001_Node000037"><a xlink:title=" ">
<path fill="none" stroke="#63b8ff" d="M1638.4,-472.98C1686.12,-463.51 1763.07,-448.24 1813.22,-438.28"/>
<polygon fill="#63b8ff" stroke="#63b8ff" points="1814.06,-441.68 1823.19,-436.3 1812.7,-434.82 1814.06,-441.68"/>
</a>
</g>
</g>
<!-- Node3 -->
<g id="Node000003" class="node">
<title>Node3</title>
<g id="a_Node000003"><a xlink:href="brix_8h.html" target="_top" xlink:title=" ">
<polygon fill="white" stroke="#666666" points="945.5,-327 901.5,-327 901.5,-308 945.5,-308 945.5,-327"/>
<text text-anchor="middle" x="923.5" y="-315" font-family="Helvetica,sans-Serif" font-size="10.00">brix.h</text>
</a>
</g>
</g>
<!-- Node2&#45;&gt;Node3 -->
<g id="edge2_Node000002_Node000003" class="edge">
<title>Node2&#45;&gt;Node3</title>
<g id="a_edge2_Node000002_Node000003"><a xlink:title=" ">
<path fill="none" stroke="#63b8ff" d="M1343.75,-426.96C1245.57,-427.08 1021.84,-422.75 959.5,-382 943.62,-371.62 934.01,-351.67 928.76,-336.89"/>
<polygon fill="#63b8ff" stroke="#63b8ff" points="932.05,-335.72 925.68,-327.25 925.39,-337.84 932.05,-335.72"/>
</a>
</g>
</g>
<!-- Node6 -->
<g id="Node000006" class="node">
<title>Node6</title>
<g id="a_Node000006"><a xlink:title=" ">
<polygon fill="#e0e0e0" stroke="#999999" points="1755.5,-266.5 1705.5,-266.5 1705.5,-247.5 1755.5,-247.5 1755.5,-266.5"/>
<text text-anchor="middle" x="1730.5" y="-254.5" font-family="Helvetica,sans-Serif" font-size="10.00">stdio.h</text>
</a>
</g>
</g>
<!-- Node2&#45;&gt;Node6 -->
<g id="edge44_Node000002_Node000006" class="edge">
<title>Node2&#45;&gt;Node6</title>
<g id="a_edge44_Node000002_Node000006"><a xlink:title=" ">
<path fill="none" stroke="#63b8ff" d="M1437.08,-424.49C1513.73,-420.44 1662.36,-409.25 1706.5,-382 1731.78,-366.39 1735.65,-355.36 1744.5,-327 1749.78,-310.08 1744.58,-290.18 1739.09,-276.12"/>
<polygon fill="#63b8ff" stroke="#63b8ff" points="1742.17,-274.43 1734.99,-266.64 1735.75,-277.21 1742.17,-274.43"/>
</a>
</g>
</g>
<!-- Node7 -->
<g id="Node000007" class="node">
<title>Node7</title>
<g id="a_Node000007"><a xlink:href="time_8h.html" target="_top" xlink:title=" ">
<polygon fill="white" stroke="#666666" points="1257.5,-266.5 1209.5,-266.5 1209.5,-247.5 1257.5,-247.5 1257.5,-266.5"/>
<text text-anchor="middle" x="1233.5" y="-254.5" font-family="Helvetica,sans-Serif" font-size="10.00">time.h</text>
</a>
</g>
</g>
<!-- Node2&#45;&gt;Node7 -->
<g id="edge48_Node000002_Node000007" class="edge">
<title>Node2&#45;&gt;Node7</title>
<g id="a_edge48_Node000002_Node000007"><a xlink:title=" ">
<path fill="none" stroke="#63b8ff" d="M1343.75,-422.93C1241.08,-414.88 1004.1,-394.97 992.5,-382 986.87,-375.71 987.87,-370.06 992.5,-363 998.67,-353.58 1138.67,-296.23 1202.4,-270.49"/>
<polygon fill="#63b8ff" stroke="#63b8ff" points="1203.98,-273.63 1211.95,-266.64 1201.36,-267.14 1203.98,-273.63"/>
</a>
</g>
</g>
<!-- Node22 -->
<g id="Node000022" class="node">
<title>Node22</title>
<g id="a_Node000022"><a xlink:href="jsonout_8h.html" target="_top" xlink:title=" ">
<polygon fill="white" stroke="#666666" points="1735.5,-327 1659.5,-327 1659.5,-308 1735.5,-308 1735.5,-327"/>
<text text-anchor="middle" x="1697.5" y="-315" font-family="Helvetica,sans-Serif" font-size="10.00">cli/jsonout.h</text>
</a>
</g>
</g>
<!-- Node2&#45;&gt;Node22 -->
<g id="edge30_Node000002_Node000022" class="edge">
<title>Node2&#45;&gt;Node22</title>
<g id="a_edge30_Node000002_Node000022"><a xlink:title=" ">
<path fill="none" stroke="#63b8ff" d="M1437.29,-422.52C1516.47,-415.34 1670.02,-399.35 1687.5,-382 1699,-370.59 1700.67,-351.69 1699.97,-337.48"/>
<polygon fill="#63b8ff" stroke="#63b8ff" points="1703.43,-336.95 1699.03,-327.31 1696.46,-337.59 1703.43,-336.95"/>
</a>
</g>
</g>
<!-- Node2&#45;&gt;Node23 -->
<g id="edge32_Node000002_Node000023" class="edge">
<title>Node2&#45;&gt;Node23</title>
<g id="a_edge32_Node000002_Node000023"><a xlink:title=" ">
<path fill="none" stroke="#63b8ff" d="M1343.79,-423.12C1259.31,-416.77 1075.62,-401.89 921.5,-382 920.2,-381.83 918.88,-381.66 917.55,-381.47"/>
<polygon fill="#63b8ff" stroke="#63b8ff" points="917.63,-377.95 907.23,-379.97 916.62,-384.88 917.63,-377.95"/>
</a>
</g>
</g>
<!-- Node24 -->
<g id="Node000024" class="node">
<title>Node24</title>
<g id="a_Node000024"><a xlink:href="crypto_8h.html" target="_top" xlink:title=" ">
<polygon fill="white" stroke="#666666" points="1367.5,-200.5 1247.5,-200.5 1247.5,-181.5 1367.5,-181.5 1367.5,-200.5"/>
<text text-anchor="middle" x="1307.5" y="-188.5" font-family="Helvetica,sans-Serif" font-size="10.00">core/compat/crypto.h</text>
</a>
</g>
</g>
<!-- Node2&#45;&gt;Node24 -->
<g id="edge35_Node000002_Node000024" class="edge">
<title>Node2&#45;&gt;Node24</title>
<g id="a_edge35_Node000002_Node000024"><a xlink:title=" ">
<path fill="none" stroke="#63b8ff" d="M1437.08,-425.59C1505.28,-423.16 1627.19,-414.3 1654.5,-382 1659.95,-375.55 1658.96,-370.17 1654.5,-363 1592.44,-263.23 1453.14,-219.96 1371.16,-202.57"/>
<polygon fill="#63b8ff" stroke="#63b8ff" points="1371.71,-199.11 1361.21,-200.52 1370.3,-205.96 1371.71,-199.11"/>
</a>
</g>
</g>
<!-- Node25 -->
<g id="Node000025" class="node">
<title>Node25</title>
<g id="a_Node000025"><a xlink:title=" ">
<polygon fill="#e0e0e0" stroke="#999999" points="1055,-382 1002,-382 1002,-363 1055,-363 1055,-382"/>
<text text-anchor="middle" x="1028.5" y="-370" font-family="Helvetica,sans-Serif" font-size="10.00">ctype.h</text>
</a>
</g>
</g>
<!-- Node2&#45;&gt;Node25 -->
<g id="edge38_Node000002_Node000025" class="edge">
<title>Node2&#45;&gt;Node25</title>
<g id="a_edge38_Node000002_Node000025"><a xlink:title=" ">
<path fill="none" stroke="#63b8ff" d="M1343.96,-421.69C1282.31,-414.99 1170.02,-401.62 1065.3,-382.18"/>
<polygon fill="#63b8ff" stroke="#63b8ff" points="1065.67,-378.69 1055.19,-380.28 1064.37,-385.57 1065.67,-378.69"/>
</a>
</g>
</g>
<!-- Node26 -->
<g id="Node000026" class="node">
<title>Node26</title>
<g id="a_Node000026"><a xlink:title=" ">
<polygon fill="#e0e0e0" stroke="#999999" points="1124,-382 1073,-382 1073,-363 1124,-363 1124,-382"/>
<text text-anchor="middle" x="1098.5" y="-370" font-family="Helvetica,sans-Serif" font-size="10.00">errno.h</text>
</a>
</g>
</g>
<!-- Node2&#45;&gt;Node26 -->
<g id="edge39_Node000002_Node000026" class="edge">
<title>Node2&#45;&gt;Node26</title>
<g id="a_edge39_Node000002_Node000026"><a xlink:title=" ">
<path fill="none" stroke="#63b8ff" d="M1343.69,-419.5C1293.98,-411.82 1212.88,-398.62 1134.16,-382.23"/>
<polygon fill="#63b8ff" stroke="#63b8ff" points="1134.58,-378.74 1124.07,-380.11 1133.14,-385.59 1134.58,-378.74"/>
</a>
</g>
</g>
<!-- Node27 -->
<g id="Node000027" class="node">
<title>Node27</title>
<g id="a_Node000027"><a xlink:title=" ">
<polygon fill="#e0e0e0" stroke="#999999" points="1189,-382 1142,-382 1142,-363 1189,-363 1189,-382"/>
<text text-anchor="middle" x="1165.5" y="-370" font-family="Helvetica,sans-Serif" font-size="10.00">fcntl.h</text>
</a>
</g>
</g>
<!-- Node2&#45;&gt;Node27 -->
<g id="edge40_Node000002_Node000027" class="edge">
<title>Node2&#45;&gt;Node27</title>
<g id="a_edge40_Node000002_Node000027"><a xlink:title=" ">
<path fill="none" stroke="#63b8ff" d="M1352.55,-417.99C1315.81,-409.69 1258.31,-396.53 1199.17,-382.12"/>
<polygon fill="#63b8ff" stroke="#63b8ff" points="1199.82,-378.67 1189.28,-379.7 1198.16,-385.47 1199.82,-378.67"/>
</a>
</g>
</g>
<!-- Node28 -->
<g id="Node000028" class="node">
<title>Node28</title>
<g id="a_Node000028"><a xlink:title=" ">
<polygon fill="#e0e0e0" stroke="#999999" points="1273.5,-382 1207.5,-382 1207.5,-363 1273.5,-363 1273.5,-382"/>
<text text-anchor="middle" x="1240.5" y="-370" font-family="Helvetica,sans-Serif" font-size="10.00">fnmatch.h</text>
</a>
</g>
</g>
<!-- Node2&#45;&gt;Node28 -->
<g id="edge41_Node000002_Node000028" class="edge">
<title>Node2&#45;&gt;Node28</title>
<g id="a_edge41_Node000002_Node000028"><a xlink:title=" ">
<path fill="none" stroke="#63b8ff" d="M1366.4,-417.98C1341.62,-409.23 1302.8,-395.51 1274.81,-385.62"/>
<polygon fill="#63b8ff" stroke="#63b8ff" points="1275.63,-382.2 1265.04,-382.17 1273.3,-388.8 1275.63,-382.2"/>
</a>
</g>
</g>
<!-- Node29 -->
<g id="Node000029" class="node">
<title>Node29</title>
<g id="a_Node000029"><a xlink:title=" ">
<polygon fill="#e0e0e0" stroke="#999999" points="1345,-382 1292,-382 1292,-363 1345,-363 1345,-382"/>
<text text-anchor="middle" x="1318.5" y="-370" font-family="Helvetica,sans-Serif" font-size="10.00">regex.h</text>
</a>
</g>
</g>
<!-- Node2&#45;&gt;Node29 -->
<g id="edge42_Node000002_Node000029" class="edge">
<title>Node2&#45;&gt;Node29</title>
<g id="a_edge42_Node000002_Node000029"><a xlink:title=" ">
<path fill="none" stroke="#63b8ff" d="M1378.93,-417.98C1368.08,-410 1351.62,-397.88 1338.62,-388.31"/>
<polygon fill="#63b8ff" stroke="#63b8ff" points="1340.41,-385.28 1330.28,-382.17 1336.26,-390.92 1340.41,-385.28"/>
</a>
</g>
</g>
<!-- Node30 -->
<g id="Node000030" class="node">
<title>Node30</title>
<g id="a_Node000030"><a xlink:title=" ">
<polygon fill="#e0e0e0" stroke="#999999" points="1418,-382 1363,-382 1363,-363 1418,-363 1418,-382"/>
<text text-anchor="middle" x="1390.5" y="-370" font-family="Helvetica,sans-Serif" font-size="10.00">signal.h</text>
</a>
</g>
</g>
<!-- Node2&#45;&gt;Node30 -->
<g id="edge43_Node000002_Node000030" class="edge">
<title>Node2&#45;&gt;Node30</title>
<g id="a_edge43_Node000002_Node000030"><a xlink:title=" ">
<path fill="none" stroke="#63b8ff" d="M1390.5,-417.75C1390.5,-410.8 1390.5,-400.85 1390.5,-392.13"/>
<polygon fill="#63b8ff" stroke="#63b8ff" points="1394,-392.09 1390.5,-382.09 1387,-392.09 1394,-392.09"/>
</a>
</g>
</g>
<!-- Node31 -->
<g id="Node000031" class="node">
<title>Node31</title>
<g id="a_Node000031"><a xlink:title=" ">
<polygon fill="#e0e0e0" stroke="#999999" points="1489,-382 1436,-382 1436,-363 1489,-363 1489,-382"/>
<text text-anchor="middle" x="1462.5" y="-370" font-family="Helvetica,sans-Serif" font-size="10.00">stdlib.h</text>
</a>
</g>
</g>
<!-- Node2&#45;&gt;Node31 -->
<g id="edge45_Node000002_Node000031" class="edge">
<title>Node2&#45;&gt;Node31</title>
<g id="a_edge45_Node000002_Node000031"><a xlink:title=" ">
<path fill="none" stroke="#63b8ff" d="M1402.07,-417.98C1412.92,-410 1429.38,-397.88 1442.38,-388.31"/>
<polygon fill="#63b8ff" stroke="#63b8ff" points="1444.74,-390.92 1450.72,-382.17 1440.59,-385.28 1444.74,-390.92"/>
</a>
</g>
</g>
<!-- Node32 -->
<g id="Node000032" class="node">
<title>Node32</title>
<g id="a_Node000032"><a xlink:title=" ">
<polygon fill="#e0e0e0" stroke="#999999" points="1831,-382 1778,-382 1778,-363 1831,-363 1831,-382"/>
<text text-anchor="middle" x="1804.5" y="-370" font-family="Helvetica,sans-Serif" font-size="10.00">string.h</text>
</a>
</g>
</g>
<!-- Node2&#45;&gt;Node32 -->
<g id="edge46_Node000002_Node000032" class="edge">
<title>Node2&#45;&gt;Node32</title>
<g id="a_edge46_Node000002_Node000032"><a xlink:title=" ">
<path fill="none" stroke="#63b8ff" d="M1437.2,-422.23C1508.01,-415.45 1646.67,-401.04 1763.5,-382 1764.79,-381.79 1766.1,-381.57 1767.43,-381.33"/>
<polygon fill="#63b8ff" stroke="#63b8ff" points="1768.48,-384.7 1777.65,-379.41 1767.18,-377.82 1768.48,-384.7"/>
</a>
</g>
</g>
<!-- Node33 -->
<g id="Node000033" class="node">
<title>Node33</title>
<g id="a_Node000033"><a xlink:title=" ">
<polygon fill="#e0e0e0" stroke="#999999" points="1571.5,-382 1507.5,-382 1507.5,-363 1571.5,-363 1571.5,-382"/>
<text text-anchor="middle" x="1539.5" y="-370" font-family="Helvetica,sans-Serif" font-size="10.00">sys/stat.h</text>
</a>
</g>
</g>
<!-- Node2&#45;&gt;Node33 -->
<g id="edge47_Node000002_Node000033" class="edge">
<title>Node2&#45;&gt;Node33</title>
<g id="a_edge47_Node000002_Node000033"><a xlink:title=" ">
<path fill="none" stroke="#63b8ff" d="M1414.44,-417.98C1439.06,-409.23 1477.62,-395.51 1505.42,-385.62"/>
<polygon fill="#63b8ff" stroke="#63b8ff" points="1506.88,-388.82 1515.12,-382.17 1504.53,-382.22 1506.88,-388.82"/>
</a>
</g>
</g>
<!-- Node34 -->
<g id="Node000034" class="node">
<title>Node34</title>
<g id="a_Node000034"><a xlink:title=" ">
<polygon fill="#e0e0e0" stroke="#999999" points="1645.5,-382 1589.5,-382 1589.5,-363 1645.5,-363 1645.5,-382"/>
<text text-anchor="middle" x="1617.5" y="-370" font-family="Helvetica,sans-Serif" font-size="10.00">unistd.h</text>
</a>
</g>
</g>
<!-- Node2&#45;&gt;Node34 -->
<g id="edge49_Node000002_Node000034" class="edge">
<title>Node2&#45;&gt;Node34</title>
<g id="a_edge49_Node000002_Node000034"><a xlink:title=" ">
<path fill="none" stroke="#63b8ff" d="M1426.97,-417.98C1468.77,-408.23 1536.95,-392.31 1579.42,-382.39"/>
<polygon fill="#63b8ff" stroke="#63b8ff" points="1580.42,-385.75 1589.36,-380.07 1578.83,-378.93 1580.42,-385.75"/>
</a>
</g>
</g>
<!-- Node4 -->
<g id="Node000004" class="node">
<title>Node4</title>
<g id="a_Node000004"><a xlink:title=" ">
<polygon fill="#e0e0e0" stroke="#999999" points="879,-19 826,-19 826,0 879,0 879,-19"/>
<text text-anchor="middle" x="852.5" y="-7" font-family="Helvetica,sans-Serif" font-size="10.00">stdint.h</text>
</a>
</g>
</g>
<!-- Node3&#45;&gt;Node4 -->
<g id="edge3_Node000003_Node000004" class="edge">
<title>Node3&#45;&gt;Node4</title>
<g id="a_edge3_Node000003_Node000004"><a xlink:title=" ">
<path fill="none" stroke="#63b8ff" d="M918.84,-307.72C908.69,-287.76 885.5,-237.2 885.5,-192 885.5,-192 885.5,-192 885.5,-124 885.5,-89.08 870.92,-50.44 861.14,-28.45"/>
<polygon fill="#63b8ff" stroke="#63b8ff" points="864.19,-26.69 856.81,-19.08 857.83,-29.63 864.19,-26.69"/>
</a>
</g>
</g>
<!-- Node5 -->
<g id="Node000005" class="node">
<title>Node5</title>
<g id="a_Node000005"><a xlink:title=" ">
<polygon fill="#e0e0e0" stroke="#999999" points="1209.5,-134.5 1153.5,-134.5 1153.5,-115.5 1209.5,-115.5 1209.5,-134.5"/>
<text text-anchor="middle" x="1181.5" y="-122.5" font-family="Helvetica,sans-Serif" font-size="10.00">stddef.h</text>
</a>
</g>
</g>
<!-- Node3&#45;&gt;Node5 -->
<g id="edge4_Node000003_Node000005" class="edge">
<title>Node3&#45;&gt;Node5</title>
<g id="a_edge4_Node000003_Node000005"><a xlink:title=" ">
<path fill="none" stroke="#63b8ff" d="M945.7,-315.56C999.01,-312.82 1132,-302.97 1161.5,-272 1194.5,-237.35 1189.96,-175.4 1185.11,-144.54"/>
<polygon fill="#63b8ff" stroke="#63b8ff" points="1188.56,-143.92 1183.38,-134.68 1181.66,-145.13 1188.56,-143.92"/>
</a>
</g>
</g>
<!-- Node3&#45;&gt;Node6 -->
<g id="edge5_Node000003_Node000006" class="edge">
<title>Node3&#45;&gt;Node6</title>
<g id="a_edge5_Node000003_Node000006"><a xlink:title=" ">
<path fill="none" stroke="#63b8ff" d="M945.5,-314.9C1056.79,-306.84 1557.69,-270.53 1695.38,-260.55"/>
<polygon fill="#63b8ff" stroke="#63b8ff" points="1695.67,-264.03 1705.39,-259.82 1695.16,-257.05 1695.67,-264.03"/>
</a>
</g>
</g>
<!-- Node3&#45;&gt;Node7 -->
<g id="edge6_Node000003_Node000007" class="edge">
<title>Node3&#45;&gt;Node7</title>
<g id="a_edge6_Node000003_Node000007"><a xlink:title=" ">
<path fill="none" stroke="#63b8ff" d="M945.52,-311C950.13,-309.94 954.96,-308.88 959.5,-308 1063.66,-287.79 1092.75,-298.47 1195.5,-272 1197.94,-271.37 1200.45,-270.64 1202.95,-269.86"/>
<polygon fill="#63b8ff" stroke="#63b8ff" points="1204.1,-273.16 1212.44,-266.62 1201.84,-266.54 1204.1,-273.16"/>
</a>
</g>
</g>
<!-- Node8 -->
<g id="Node000008" class="node">
<title>Node8</title>
<g id="a_Node000008"><a xlink:title=" ">
<polygon fill="#e0e0e0" stroke="#999999" points="472.5,-134.5 400.5,-134.5 400.5,-115.5 472.5,-115.5 472.5,-134.5"/>
<text text-anchor="middle" x="436.5" y="-122.5" font-family="Helvetica,sans-Serif" font-size="10.00">sys/types.h</text>
</a>
</g>
</g>
<!-- Node3&#45;&gt;Node8 -->
<g id="edge9_Node000003_Node000008" class="edge">
<title>Node3&#45;&gt;Node8</title>
<g id="a_edge9_Node000003_Node000008"><a xlink:title=" ">
<path fill="none" stroke="#63b8ff" d="M901.28,-316.76C825.37,-317.26 577.46,-315.46 513.5,-272 468.76,-241.6 448.14,-176.66 440.39,-144.64"/>
<polygon fill="#63b8ff" stroke="#63b8ff" points="443.78,-143.78 438.17,-134.8 436.95,-145.32 443.78,-143.78"/>
</a>
</g>
</g>
<!-- Node9 -->
<g id="Node000009" class="node">
<title>Node9</title>
<g id="a_Node000009"><a xlink:href="root_2protocol_2protocol_8h.html" target="_top" xlink:title=" ">
<polygon fill="white" stroke="#666666" points="650,-272 523,-272 523,-242 650,-242 650,-272"/>
<text text-anchor="start" x="531" y="-260" font-family="Helvetica,sans-Serif" font-size="10.00">protocols/root/protocol</text>
<text text-anchor="middle" x="586.5" y="-249" font-family="Helvetica,sans-Serif" font-size="10.00">/protocol.h</text>
</a>
</g>
</g>
<!-- Node3&#45;&gt;Node9 -->
<g id="edge10_Node000003_Node000009" class="edge">
<title>Node3&#45;&gt;Node9</title>
<g id="a_edge10_Node000003_Node000009"><a xlink:title=" ">
<path fill="none" stroke="#63b8ff" d="M901.39,-312.66C853.25,-304.31 737.11,-284.15 660.14,-270.78"/>
<polygon fill="#63b8ff" stroke="#63b8ff" points="660.47,-267.29 650.02,-269.03 659.28,-274.19 660.47,-267.29"/>
</a>
</g>
</g>
<!-- Node17 -->
<g id="Node000017" class="node">
<title>Node17</title>
<g id="a_Node000017"><a xlink:href="wire__codec_8h.html" target="_top" xlink:title=" ">
<polygon fill="white" stroke="#666666" points="819,-206 692,-206 692,-176 819,-176 819,-206"/>
<text text-anchor="start" x="700" y="-194" font-family="Helvetica,sans-Serif" font-size="10.00">protocols/root/protocol</text>
<text text-anchor="middle" x="755.5" y="-183" font-family="Helvetica,sans-Serif" font-size="10.00">/codec/wire_codec.h</text>
</a>
</g>
</g>
<!-- Node3&#45;&gt;Node17 -->
<g id="edge26_Node000003_Node000017" class="edge">
<title>Node3&#45;&gt;Node17</title>
<g id="a_edge26_Node000003_Node000017"><a xlink:title=" ">
<path fill="none" stroke="#63b8ff" d="M911.95,-307.94C885.6,-288.41 820.42,-240.11 783.03,-212.4"/>
<polygon fill="#63b8ff" stroke="#63b8ff" points="784.73,-209.3 774.61,-206.16 780.56,-214.93 784.73,-209.3"/>
</a>
</g>
</g>
<!-- Node19 -->
<g id="Node000019" class="node">
<title>Node19</title>
<g id="a_Node000019"><a xlink:href="brix__net_8h.html" target="_top" xlink:title=" ">
<polygon fill="white" stroke="#666666" points="979,-266.5 914,-266.5 914,-247.5 979,-247.5 979,-266.5"/>
<text text-anchor="middle" x="946.5" y="-254.5" font-family="Helvetica,sans-Serif" font-size="10.00">brix_net.h</text>
</a>
</g>
</g>
<!-- Node3&#45;&gt;Node19 -->
<g id="edge27_Node000003_Node000019" class="edge">
<title>Node3&#45;&gt;Node19</title>
<g id="a_edge27_Node000003_Node000019"><a xlink:title=" ">
<path fill="none" stroke="#63b8ff" d="M926.89,-307.87C930.16,-299.57 935.19,-286.78 939.34,-276.22"/>
<polygon fill="#63b8ff" stroke="#63b8ff" points="942.69,-277.25 943.09,-266.67 936.18,-274.69 942.69,-277.25"/>
</a>
</g>
</g>
<!-- Node20 -->
<g id="Node000020" class="node">
<title>Node20</title>
<g id="a_Node000020"><a xlink:href="brix__auth_8h.html" target="_top" xlink:title=" ">
<polygon fill="white" stroke="#666666" points="1068,-266.5 997,-266.5 997,-247.5 1068,-247.5 1068,-266.5"/>
<text text-anchor="middle" x="1032.5" y="-254.5" font-family="Helvetica,sans-Serif" font-size="10.00">brix_auth.h</text>
</a>
</g>
</g>
<!-- Node3&#45;&gt;Node20 -->
<g id="edge28_Node000003_Node000020" class="edge">
<title>Node3&#45;&gt;Node20</title>
<g id="a_edge28_Node000003_Node000020"><a xlink:title=" ">
<path fill="none" stroke="#63b8ff" d="M939.58,-307.87C957.45,-298.28 986.54,-282.67 1007.41,-271.47"/>
<polygon fill="#63b8ff" stroke="#63b8ff" points="1009.19,-274.48 1016.35,-266.67 1005.88,-268.31 1009.19,-274.48"/>
</a>
</g>
</g>
<!-- Node21 -->
<g id="Node000021" class="node">
<title>Node21</title>
<g id="a_Node000021"><a xlink:href="brix__ops_8h.html" target="_top" xlink:title=" ">
<polygon fill="white" stroke="#666666" points="1153,-266.5 1086,-266.5 1086,-247.5 1153,-247.5 1153,-266.5"/>
<text text-anchor="middle" x="1119.5" y="-254.5" font-family="Helvetica,sans-Serif" font-size="10.00">brix_ops.h</text>
</a>
</g>
</g>
<!-- Node3&#45;&gt;Node21 -->
<g id="edge29_Node000003_Node000021" class="edge">
<title>Node3&#45;&gt;Node21</title>
<g id="a_edge29_Node000003_Node000021"><a xlink:title=" ">
<path fill="none" stroke="#63b8ff" d="M945.61,-310.31C975.41,-301.9 1030.1,-286.3 1076.5,-272 1078.93,-271.25 1081.43,-270.47 1083.95,-269.67"/>
<polygon fill="#63b8ff" stroke="#63b8ff" points="1085.17,-272.96 1093.62,-266.57 1083.03,-266.29 1085.17,-272.96"/>
</a>
</g>
</g>
<!-- Node7&#45;&gt;Node5 -->
<g id="edge7_Node000007_Node000005" class="edge">
<title>Node7&#45;&gt;Node5</title>
<g id="a_edge7_Node000007_Node000005"><a xlink:title=" ">
<path fill="none" stroke="#63b8ff" d="M1230.09,-247.47C1221.75,-226.63 1200.21,-172.77 1188.81,-144.28"/>
<polygon fill="#63b8ff" stroke="#63b8ff" points="1191.96,-142.72 1184.99,-134.73 1185.46,-145.32 1191.96,-142.72"/>
</a>
</g>
</g>
<!-- Node7&#45;&gt;Node7 -->
<g id="edge8_Node000007_Node000007" class="edge">
<title>Node7&#45;&gt;Node7</title>
<g id="a_edge8_Node000007_Node000007"><a xlink:title=" ">
<path fill="none" stroke="#63b8ff" d="M1249.01,-266.53C1261.96,-270.61 1275.5,-267.43 1275.5,-257 1275.5,-249.26 1268.04,-245.51 1258.9,-245.76"/>
<polygon fill="#63b8ff" stroke="#63b8ff" points="1258.27,-242.32 1249.01,-247.47 1259.46,-249.22 1258.27,-242.32"/>
</a>
</g>
</g>
<!-- Node10 -->
<g id="Node000010" class="node">
<title>Node10</title>
<g id="a_Node000010"><a xlink:href="types_8h.html" target="_top" xlink:title=" ">
<polygon fill="white" stroke="#666666" points="565,-74 512,-74 512,-55 565,-55 565,-74"/>
<text text-anchor="middle" x="538.5" y="-62" font-family="Helvetica,sans-Serif" font-size="10.00">types.h</text>
</a>
</g>
</g>
<!-- Node9&#45;&gt;Node10 -->
<g id="edge11_Node000009_Node000010" class="edge">
<title>Node9&#45;&gt;Node10</title>
<g id="a_edge11_Node000009_Node000010"><a xlink:title=" ">
<path fill="none" stroke="#63b8ff" d="M576.27,-241.85C569.83,-232.22 561.92,-218.91 557.5,-206 543.19,-164.23 539.61,-112.02 538.74,-84.5"/>
<polygon fill="#63b8ff" stroke="#63b8ff" points="542.24,-84.24 538.51,-74.32 535.24,-84.4 542.24,-84.24"/>
</a>
</g>
</g>
<!-- Node11 -->
<g id="Node000011" class="node">
<title>Node11</title>
<g id="a_Node000011"><a xlink:href="opcodes_8h.html" target="_top" xlink:title=" ">
<polygon fill="white" stroke="#666666" points="424.5,-74 358.5,-74 358.5,-55 424.5,-55 424.5,-74"/>
<text text-anchor="middle" x="391.5" y="-62" font-family="Helvetica,sans-Serif" font-size="10.00">opcodes.h</text>
</a>
</g>
</g>
<!-- Node9&#45;&gt;Node11 -->
<g id="edge13_Node000009_Node000011" class="edge">
<title>Node9&#45;&gt;Node11</title>
<g id="a_edge13_Node000009_Node000011"><a xlink:title=" ">
<path fill="none" stroke="#63b8ff" d="M574.27,-241.86C565.91,-232.01 554.72,-218.45 545.5,-206 514.98,-164.79 520.02,-143.85 481.5,-110 465.59,-96.02 444.51,-85.29 426.75,-77.87"/>
<polygon fill="#63b8ff" stroke="#63b8ff" points="427.87,-74.54 417.28,-74.09 425.27,-81.04 427.87,-74.54"/>
</a>
</g>
</g>
<!-- Node12 -->
<g id="Node000012" class="node">
<title>Node12</title>
<g id="a_Node000012"><a xlink:href="flags_8h.html" target="_top" xlink:title=" ">
<polygon fill="white" stroke="#666666" points="674,-200.5 625,-200.5 625,-181.5 674,-181.5 674,-200.5"/>
<text text-anchor="middle" x="649.5" y="-188.5" font-family="Helvetica,sans-Serif" font-size="10.00">flags.h</text>
</a>
</g>
</g>
<!-- Node9&#45;&gt;Node12 -->
<g id="edge14_Node000009_Node000012" class="edge">
<title>Node9&#45;&gt;Node12</title>
<g id="a_edge14_Node000009_Node000012"><a xlink:title=" ">
<path fill="none" stroke="#63b8ff" d="M600.48,-241.8C610.3,-231.82 623.46,-218.46 633.67,-208.09"/>
<polygon fill="#63b8ff" stroke="#63b8ff" points="636.27,-210.43 640.79,-200.84 631.28,-205.52 636.27,-210.43"/>
</a>
</g>
</g>
<!-- Node13 -->
<g id="Node000013" class="node">
<title>Node13</title>
<g id="a_Node000013"><a xlink:href="wire_8h.html" target="_top" xlink:title=" ">
<polygon fill="white" stroke="#666666" points="280,-200.5 233,-200.5 233,-181.5 280,-181.5 280,-200.5"/>
<text text-anchor="middle" x="256.5" y="-188.5" font-family="Helvetica,sans-Serif" font-size="10.00">wire.h</text>
</a>
</g>
</g>
<!-- Node9&#45;&gt;Node13 -->
<g id="edge15_Node000009_Node000013" class="edge">
<title>Node9&#45;&gt;Node13</title>
<g id="a_edge15_Node000009_Node000013"><a xlink:title=" ">
<path fill="none" stroke="#63b8ff" d="M522.87,-243.66C453.37,-230.18 344.69,-209.1 290.13,-198.52"/>
<polygon fill="#63b8ff" stroke="#63b8ff" points="290.77,-195.08 280.28,-196.61 289.43,-201.95 290.77,-195.08"/>
</a>
</g>
</g>
<!-- Node9&#45;&gt;Node17 -->
<g id="edge21_Node000009_Node000017" class="edge">
<title>Node9&#45;&gt;Node17</title>
<g id="a_edge21_Node000009_Node000017"><a xlink:title=" ">
<path fill="none" stroke="#63b8ff" d="M623.59,-241.95C648.68,-232.45 682.03,-219.82 708.91,-209.64"/>
<polygon fill="#63b8ff" stroke="#63b8ff" points="710.39,-212.83 718.5,-206.01 707.91,-206.28 710.39,-212.83"/>
</a>
</g>
</g>
<!-- Node18 -->
<g id="Node000018" class="node">
<title>Node18</title>
<g id="a_Node000018"><a xlink:href="gsi_8h.html" target="_top" xlink:title=" ">
<polygon fill="white" stroke="#666666" points="606.5,-200.5 566.5,-200.5 566.5,-181.5 606.5,-181.5 606.5,-200.5"/>
<text text-anchor="middle" x="586.5" y="-188.5" font-family="Helvetica,sans-Serif" font-size="10.00">gsi.h</text>
</a>
</g>
</g>
<!-- Node9&#45;&gt;Node18 -->
<g id="edge25_Node000009_Node000018" class="edge">
<title>Node9&#45;&gt;Node18</title>
<g id="a_edge25_Node000009_Node000018"><a xlink:title=" ">
<path fill="none" stroke="#63b8ff" d="M586.5,-241.8C586.5,-232.7 586.5,-220.79 586.5,-210.9"/>
<polygon fill="#63b8ff" stroke="#63b8ff" points="590,-210.84 586.5,-200.84 583,-210.84 590,-210.84"/>
</a>
</g>
</g>
<!-- Node10&#45;&gt;Node4 -->
<g id="edge12_Node000010_Node000004" class="edge">
<title>Node10&#45;&gt;Node4</title>
<g id="a_edge12_Node000010_Node000004"><a xlink:title=" ">
<path fill="none" stroke="#63b8ff" d="M565,-59.03C621.02,-49.57 751.58,-27.53 815.68,-16.72"/>
<polygon fill="#63b8ff" stroke="#63b8ff" points="816.46,-20.13 825.74,-15.02 815.29,-13.23 816.46,-20.13"/>
</a>
</g>
</g>
<!-- Node14 -->
<g id="Node000014" class="node">
<title>Node14</title>
<g id="a_Node000014"><a xlink:href="wire__core__requests_8h.html" target="_top" xlink:title=" ">
<polygon fill="white" stroke="#666666" points="382.5,-134.5 262.5,-134.5 262.5,-115.5 382.5,-115.5 382.5,-134.5"/>
<text text-anchor="middle" x="322.5" y="-122.5" font-family="Helvetica,sans-Serif" font-size="10.00">wire_core_requests.h</text>
</a>
</g>
</g>
<!-- Node13&#45;&gt;Node14 -->
<g id="edge16_Node000013_Node000014" class="edge">
<title>Node13&#45;&gt;Node14</title>
<g id="a_edge16_Node000013_Node000014"><a xlink:title=" ">
<path fill="none" stroke="#63b8ff" d="M265.4,-181.37C275.77,-171.31 293.13,-154.48 305.99,-142.01"/>
<polygon fill="#63b8ff" stroke="#63b8ff" points="308.57,-144.38 313.32,-134.91 303.7,-139.35 308.57,-144.38"/>
</a>
</g>
</g>
<!-- Node15 -->
<g id="Node000015" class="node">
<title>Node15</title>
<g id="a_Node000015"><a xlink:href="wire__write__extended__requests_8h.html" target="_top" xlink:title=" ">
<polygon fill="white" stroke="#666666" points="119,-140 0,-140 0,-110 119,-110 119,-140"/>
<text text-anchor="start" x="8" y="-128" font-family="Helvetica,sans-Serif" font-size="10.00">wire_write_extended</text>
<text text-anchor="middle" x="59.5" y="-117" font-family="Helvetica,sans-Serif" font-size="10.00">_requests.h</text>
</a>
</g>
</g>
<!-- Node13&#45;&gt;Node15 -->
<g id="edge19_Node000013_Node000015" class="edge">
<title>Node13&#45;&gt;Node15</title>
<g id="a_edge19_Node000013_Node000015"><a xlink:title=" ">
<path fill="none" stroke="#63b8ff" d="M232.74,-182.28C203.11,-172.66 151.61,-155.93 112.44,-143.2"/>
<polygon fill="#63b8ff" stroke="#63b8ff" points="113.36,-139.82 102.77,-140.06 111.2,-146.48 113.36,-139.82"/>
</a>
</g>
</g>
<!-- Node16 -->
<g id="Node000016" class="node">
<title>Node16</title>
<g id="a_Node000016"><a xlink:href="wire__vendor__ext_8h.html" target="_top" xlink:title=" ">
<polygon fill="white" stroke="#666666" points="244,-134.5 137,-134.5 137,-115.5 244,-115.5 244,-134.5"/>
<text text-anchor="middle" x="190.5" y="-122.5" font-family="Helvetica,sans-Serif" font-size="10.00">wire_vendor_ext.h</text>
</a>
</g>
</g>
<!-- Node13&#45;&gt;Node16 -->
<g id="edge20_Node000013_Node000016" class="edge">
<title>Node13&#45;&gt;Node16</title>
<g id="a_edge20_Node000013_Node000016"><a xlink:title=" ">
<path fill="none" stroke="#63b8ff" d="M247.6,-181.37C237.23,-171.31 219.87,-154.48 207.01,-142.01"/>
<polygon fill="#63b8ff" stroke="#63b8ff" points="209.3,-139.35 199.68,-134.91 204.43,-144.38 209.3,-139.35"/>
</a>
</g>
</g>
<!-- Node14&#45;&gt;Node10 -->
<g id="edge17_Node000014_Node000010" class="edge">
<title>Node14&#45;&gt;Node10</title>
<g id="a_edge17_Node000014_Node000010"><a xlink:title=" ">
<path fill="none" stroke="#63b8ff" d="M353.91,-115.49C393.25,-104.84 460.54,-86.61 502.1,-75.36"/>
<polygon fill="#63b8ff" stroke="#63b8ff" points="503.08,-78.72 511.82,-72.73 501.25,-71.96 503.08,-78.72"/>
</a>
</g>
</g>
<!-- Node14&#45;&gt;Node11 -->
<g id="edge18_Node000014_Node000011" class="edge">
<title>Node14&#45;&gt;Node11</title>
<g id="a_edge18_Node000014_Node000011"><a xlink:title=" ">
<path fill="none" stroke="#63b8ff" d="M332.68,-115.37C343.38,-106.3 360.44,-91.84 373.43,-80.82"/>
<polygon fill="#63b8ff" stroke="#63b8ff" points="375.91,-83.3 381.28,-74.17 371.39,-77.96 375.91,-83.3"/>
</a>
</g>
</g>
<!-- Node17&#45;&gt;Node4 -->
<g id="edge22_Node000017_Node000004" class="edge">
<title>Node17&#45;&gt;Node4</title>
<g id="a_edge22_Node000017_Node000004"><a xlink:title=" ">
<path fill="none" stroke="#63b8ff" d="M763.11,-175.91C780.59,-143.57 823.58,-64.02 842.86,-28.33"/>
<polygon fill="#63b8ff" stroke="#63b8ff" points="846.16,-29.6 847.83,-19.13 840,-26.27 846.16,-29.6"/>
</a>
</g>
</g>
<!-- Node17&#45;&gt;Node5 -->
<g id="edge23_Node000017_Node000005" class="edge">
<title>Node17&#45;&gt;Node5</title>
<g id="a_edge23_Node000017_Node000005"><a xlink:title=" ">
<path fill="none" stroke="#63b8ff" d="M819.32,-178.36C824.12,-177.54 828.88,-176.75 833.5,-176 945.94,-157.84 1079.37,-139.59 1143.44,-131.03"/>
<polygon fill="#63b8ff" stroke="#63b8ff" points="1144.03,-134.48 1153.48,-129.69 1143.11,-127.54 1144.03,-134.48"/>
</a>
</g>
</g>
<!-- Node17&#45;&gt;Node8 -->
<g id="edge24_Node000017_Node000008" class="edge">
<title>Node17&#45;&gt;Node8</title>
<g id="a_edge24_Node000017_Node000008"><a xlink:title=" ">
<path fill="none" stroke="#63b8ff" d="M691.71,-177.2C629.92,-164.81 537.72,-146.31 482.7,-135.27"/>
<polygon fill="#63b8ff" stroke="#63b8ff" points="483.37,-131.83 472.87,-133.3 481.99,-138.7 483.37,-131.83"/>
</a>
</g>
</g>
<!-- Node22&#45;&gt;Node6 -->
<g id="edge31_Node000022_Node000006" class="edge">
<title>Node22&#45;&gt;Node6</title>
<g id="a_edge31_Node000022_Node000006"><a xlink:title=" ">
<path fill="none" stroke="#63b8ff" d="M1702.37,-307.87C1707.15,-299.4 1714.57,-286.24 1720.59,-275.57"/>
<polygon fill="#63b8ff" stroke="#63b8ff" points="1723.75,-277.1 1725.61,-266.67 1717.65,-273.66 1723.75,-277.1"/>
</a>
</g>
</g>
<!-- Node23&#45;&gt;Node3 -->
<g id="edge34_Node000023_Node000003" class="edge">
<title>Node23&#45;&gt;Node3</title>
<g id="a_edge34_Node000023_Node000003"><a xlink:title=" ">
<path fill="none" stroke="#63b8ff" d="M878.42,-362.75C886.28,-355.03 897.93,-343.6 907.42,-334.28"/>
<polygon fill="#63b8ff" stroke="#63b8ff" points="910.06,-336.59 914.75,-327.09 905.16,-331.6 910.06,-336.59"/>
</a>
</g>
</g>
<!-- Node23&#45;&gt;Node5 -->
<g id="edge33_Node000023_Node000005" class="edge">
<title>Node23&#45;&gt;Node5</title>
<g id="a_edge33_Node000023_Node000005"><a xlink:title=" ">
<path fill="none" stroke="#63b8ff" d="M869.37,-362.74C869.49,-339.95 872.9,-278.1 904.5,-242 967.67,-169.84 1083.09,-141.49 1143.04,-131.24"/>
<polygon fill="#63b8ff" stroke="#63b8ff" points="1143.91,-134.65 1153.22,-129.59 1142.79,-127.74 1143.91,-134.65"/>
</a>
</g>
</g>
<!-- Node24&#45;&gt;Node4 -->
<g id="edge37_Node000024_Node000004" class="edge">
<title>Node24&#45;&gt;Node4</title>
<g id="a_edge37_Node000024_Node000004"><a xlink:title=" ">
<path fill="none" stroke="#63b8ff" d="M1300.16,-181.08C1286.08,-164.54 1253.53,-129.08 1218.5,-110 1107.9,-49.75 958.26,-23.99 889.66,-14.81"/>
<polygon fill="#63b8ff" stroke="#63b8ff" points="889.73,-11.29 879.36,-13.48 888.83,-18.23 889.73,-11.29"/>
</a>
</g>
</g>
<!-- Node24&#45;&gt;Node5 -->
<g id="edge36_Node000024_Node000005" class="edge">
<title>Node24&#45;&gt;Node5</title>
<g id="a_edge36_Node000024_Node000005"><a xlink:title=" ">
<path fill="none" stroke="#63b8ff" d="M1290.51,-181.37C1269.28,-170.59 1232.72,-152.02 1207.85,-139.38"/>
<polygon fill="#63b8ff" stroke="#63b8ff" points="1209.13,-136.11 1198.63,-134.7 1205.96,-142.35 1209.13,-136.11"/>
</a>
</g>
</g>
<!-- Node36&#45;&gt;Node6 -->
<g id="edge52_Node000036_Node000006" class="edge">
<title>Node36&#45;&gt;Node6</title>
<g id="a_edge52_Node000036_Node000006"><a xlink:title=" ">
<path fill="none" stroke="#63b8ff" d="M1787.02,-417.93C1815.77,-408.24 1852.13,-390.18 1840.5,-363 1823.03,-322.18 1781.05,-289.68 1754.29,-272.18"/>
<polygon fill="#63b8ff" stroke="#63b8ff" points="1755.85,-269.03 1745.53,-266.63 1752.1,-274.94 1755.85,-269.03"/>
</a>
</g>
</g>
<!-- Node36&#45;&gt;Node32 -->
<g id="edge53_Node000036_Node000032" class="edge">
<title>Node36&#45;&gt;Node32</title>
<g id="a_edge53_Node000036_Node000032"><a xlink:title=" ">
<path fill="none" stroke="#63b8ff" d="M1763.59,-417.75C1770.66,-410.11 1781.09,-398.82 1789.65,-389.56"/>
<polygon fill="#63b8ff" stroke="#63b8ff" points="1792.34,-391.81 1796.56,-382.09 1787.2,-387.06 1792.34,-391.81"/>
</a>
</g>
</g>
</g>
</svg>

<g id="navigator" transform="translate(0 0)" fill="#404254">
  <rect fill="#f2f5e9" fill-opacity="0.5" stroke="#606060" stroke-width=".5" x="0" y="0" width="60" height="60"/>
  <use id="zoomplus" xlink:href="#zoomPlus" x="17" y="9" onmousedown="handleZoom(evt,'in')"/>
  <use id="zoomminus" xlink:href="#zoomMin" x="42" y="9" onmousedown="handleZoom(evt,'out')"/>
  <use id="reset" xlink:href="#resetDef" x="30" y="36" onmousedown="handleReset()"/>
   <use id="arrowup" xlink:href="#arrowUp" x="0" y="0" onmousedown="handlePan(0,-1)"/>
  <use id="arrowright" xlink:href="#arrowRight" x="0" y="0" onmousedown="handlePan(1,0)"/>
  <use id="arrowdown" xlink:href="#arrowDown" x="0" y="0" onmousedown="handlePan(0,1)"/>
  <use id="arrowleft" xlink:href="#arrowLeft" x="0" y="0" onmousedown="handlePan(-1,0)"/>
</g>
<svg viewBox="0 0 15 15" width="100%" height="30px" preserveAspectRatio="xMaxYMin meet">
 <g id="arrow_out" transform="scale(0.3 0.3)">
  <a xlink:href="xrdfs_8c__incl_org.svg" target="_base">
   <rect id="button" ry="5" rx="5" y="6" x="6" height="38" width="38"
        fill="#f2f5e9" fill-opacity="0.5" stroke="#606060" stroke-width="1.0"/>
   <path id="arrow"
     d="M 11.500037,31.436501 C 11.940474,20.09759 22.043105,11.32322 32.158766,21.979434 L 37.068811,17.246167 C 37.068811,17.246167 37.088388,32 37.088388,32 L 22.160133,31.978069 C 22.160133,31.978069 26.997745,27.140456 26.997745,27.140456 C 18.528582,18.264221 13.291696,25.230495 11.500037,31.436501 z"
     style="fill:#404040;"/>
  </a>
 </g>
</svg>

<style type='text/css'>
<![CDATA[
[data-mouse-over-selected='false'] { opacity: 0.7; }
[data-mouse-over-selected='true']  { opacity: 1.0; }
]]>
</style>
<script type="application/ecmascript"><![CDATA[
document.addEventListener('DOMContentLoaded', (event) => {
  highlightEdges();
  highlightAdjacentNodes();
});
]]></script>
</svg>
