<?xml version="1.0" encoding="UTF-8" standalone="no"?>
<!DOCTYPE svg PUBLIC "-//W3C//DTD SVG 1.1//EN"
 "http://www.w3.org/Graphics/SVG/1.1/DTD/svg11.dtd">
<!-- Generated by graphviz version 2.43.0 (0)
 -->
<!-- Title: client/apps/diag/xrdmapc.c Pages: 1 -->
<!--zoomable 390 -->

<svg id="main" version="1.1" xmlns="http://www.w3.org/2000/svg" xmlns:xlink="http://www.w3.org/1999/xlink" xml:space="preserve" onload="init(evt)">
<style type="text/css"><![CDATA[
.node, .edge {opacity: 0.7;}
.node.selected, .edge.selected {opacity: 1;}
.edge:hover path { stroke: red; }
.edge:hover polygon { stroke: red; fill: red; }
]]></style>

<defs>
  <circle id="rim" cx="0" cy="0" r="7"/>
  <circle id="rim2" cx="0" cy="0" r="3.5"/>
  <g id="zoomPlus">
    <use xlink:href="#rim" fill="#404040"><set attributeName="fill" to="#808080" begin="zoomplus.mouseover" end="zoomplus.mouseout"/></use>
    <path d="M-4,0h8M0,-4v8" fill="none" stroke="white" stroke-width="1.5" pointer-events="none"/>
  </g>
  <g id="zoomMin">
    <use xlink:href="#rim" fill="#404040"><set attributeName="fill" to="#808080" begin="zoomminus.mouseover" end="zoomminus.mouseout"/></use>
    <path d="M-4,0h8" fill="none" stroke="white" stroke-width="1.5" pointer-events="none"/>
  </g>
  <g id="arrowUp" transform="translate(30 24)">
    <use xlink:href="#rim"/>
    <path pointer-events="none" fill="none" stroke="white" stroke-width="1.5" d="M0,-3.0v7 M-2.5,-0.5L0,-3.0L2.5,-0.5"/>
  </g>
  <g id="arrowRight" transform="rotate(90) translate(36 -43)">
    <use xlink:href="#rim"/>
    <path pointer-events="none" fill="none" stroke="white" stroke-width="1.5" d="M0,-3.0v7 M-2.5,-0.5L0,-3.0L2.5,-0.5"/>
  </g>
  <g id="arrowDown" transform="rotate(180) translate(-30 -48)">
    <use xlink:href="#rim"/>
    <path pointer-events="none" fill="none" stroke="white" stroke-width="1.5" d="M0,-3.0v7 M-2.5,-0.5L0,-3.0L2.5,-0.5"/>
  </g>
  <g id="arrowLeft" transform="rotate(270) translate(-36 17)">
    <use xlink:href="#rim"/>
    <path pointer-events="none" fill="none" stroke="white" stroke-width="1.5" d="M0,-3.0v7 M-2.5,-0.5L0,-3.0L2.5,-0.5"/>
  </g>
  <g id="resetDef">
    <use xlink:href="#rim2" fill="#404040"><set attributeName="fill" to="#808080" begin="reset.mouseover" end="reset.mouseout"/></use>
  </g>
</defs>
<script type="application/ecmascript">
var viewWidth = 1282;
var viewHeight = 390;
var sectionId = 'dynsection-0';
</script>
<script type="application/ecmascript" xlink:href="svg.min.js"/>
<svg id="graph" class="graph">
<g id="viewport">
<title>client/apps/diag/xrdmapc.c</title>
<!-- Node1 -->
<g id="Node000001" class="node">
<title>Node1</title>
<g id="a_Node000001"><a xlink:title=" ">
<polygon fill="#999999" stroke="#666666" points="1041.83,-382 893.83,-382 893.83,-363 1041.83,-363 1041.83,-382"/>
<text text-anchor="middle" x="967.83" y="-370" font-family="Helvetica,sans-Serif" font-size="10.00">client/apps/diag/xrdmapc.c</text>
</a>
</g>
</g>
<!-- Node2 -->
<g id="Node000002" class="node">
<title>Node2</title>
<g id="a_Node000002"><a xlink:href="brix_8h.html" target="_top" xlink:title=" ">
<polygon fill="white" stroke="#666666" points="655.83,-327 611.83,-327 611.83,-308 655.83,-308 655.83,-327"/>
<text text-anchor="middle" x="633.83" y="-315" font-family="Helvetica,sans-Serif" font-size="10.00">brix.h</text>
</a>
</g>
</g>
<!-- Node1&#45;&gt;Node2 -->
<g id="edge1_Node000001_Node000002" class="edge">
<title>Node1&#45;&gt;Node2</title>
<g id="a_edge1_Node000001_Node000002"><a xlink:title=" ">
<path fill="none" stroke="#63b8ff" d="M914.17,-362.98C844.04,-351.86 723.41,-332.71 666,-323.6"/>
<polygon fill="#63b8ff" stroke="#63b8ff" points="666.47,-320.14 656.05,-322.02 665.38,-327.05 666.47,-320.14"/>
</a>
</g>
</g>
<!-- Node5 -->
<g id="Node000005" class="node">
<title>Node5</title>
<g id="a_Node000005"><a xlink:title=" ">
<polygon fill="#e0e0e0" stroke="#999999" points="972.83,-266.5 922.83,-266.5 922.83,-247.5 972.83,-247.5 972.83,-266.5"/>
<text text-anchor="middle" x="947.83" y="-254.5" font-family="Helvetica,sans-Serif" font-size="10.00">stdio.h</text>
</a>
</g>
</g>
<!-- Node1&#45;&gt;Node5 -->
<g id="edge38_Node000001_Node000005" class="edge">
<title>Node1&#45;&gt;Node5</title>
<g id="a_edge38_Node000001_Node000005"><a xlink:title=" ">
<path fill="none" stroke="#63b8ff" d="M963.88,-362.85C960.06,-354.04 954.46,-339.87 951.83,-327 948.42,-310.28 947.56,-290.85 947.48,-276.88"/>
<polygon fill="#63b8ff" stroke="#63b8ff" points="950.98,-276.62 947.55,-266.6 943.98,-276.58 950.98,-276.62"/>
</a>
</g>
</g>
<!-- Node21 -->
<g id="Node000021" class="node">
<title>Node21</title>
<g id="a_Node000021"><a xlink:href="crypto_8h.html" target="_top" xlink:title=" ">
<polygon fill="white" stroke="#666666" points="979.83,-200.5 859.83,-200.5 859.83,-181.5 979.83,-181.5 979.83,-200.5"/>
<text text-anchor="middle" x="919.83" y="-188.5" font-family="Helvetica,sans-Serif" font-size="10.00">core/compat/crypto.h</text>
</a>
</g>
</g>
<!-- Node1&#45;&gt;Node21 -->
<g id="edge29_Node000001_Node000021" class="edge">
<title>Node1&#45;&gt;Node21</title>
<g id="a_edge29_Node000001_Node000021"><a xlink:title=" ">
<path fill="none" stroke="#63b8ff" d="M961.14,-362.81C948.85,-346.26 923.12,-308.58 913.83,-272 908.6,-251.38 911.75,-226.88 915.14,-210.48"/>
<polygon fill="#63b8ff" stroke="#63b8ff" points="918.59,-211.09 917.43,-200.56 911.77,-209.52 918.59,-211.09"/>
</a>
</g>
</g>
<!-- Node22 -->
<g id="Node000022" class="node">
<title>Node22</title>
<g id="a_Node000022"><a xlink:href="host__split_8h.html" target="_top" xlink:title=" ">
<polygon fill="white" stroke="#666666" points="866.33,-327 729.33,-327 729.33,-308 866.33,-308 866.33,-327"/>
<text text-anchor="middle" x="797.83" y="-315" font-family="Helvetica,sans-Serif" font-size="10.00">core/compat/host_split.h</text>
</a>
</g>
</g>
<!-- Node1&#45;&gt;Node22 -->
<g id="edge32_Node000001_Node000022" class="edge">
<title>Node1&#45;&gt;Node22</title>
<g id="a_edge32_Node000001_Node000022"><a xlink:title=" ">
<path fill="none" stroke="#63b8ff" d="M940.52,-362.98C911.98,-354.09 867.01,-340.07 835.19,-330.15"/>
<polygon fill="#63b8ff" stroke="#63b8ff" points="835.95,-326.72 825.36,-327.08 833.87,-333.4 835.95,-326.72"/>
</a>
</g>
</g>
<!-- Node23 -->
<g id="Node000023" class="node">
<title>Node23</title>
<g id="a_Node000023"><a xlink:href="version_8h.html" target="_top" xlink:title=" ">
<polygon fill="white" stroke="#666666" points="1046.83,-327 960.83,-327 960.83,-308 1046.83,-308 1046.83,-327"/>
<text text-anchor="middle" x="1003.83" y="-315" font-family="Helvetica,sans-Serif" font-size="10.00">core/version.h</text>
</a>
</g>
</g>
<!-- Node1&#45;&gt;Node23 -->
<g id="edge34_Node000001_Node000023" class="edge">
<title>Node1&#45;&gt;Node23</title>
<g id="a_edge34_Node000001_Node000023"><a xlink:title=" ">
<path fill="none" stroke="#63b8ff" d="M973.78,-362.75C978.81,-355.34 986.17,-344.5 992.35,-335.41"/>
<polygon fill="#63b8ff" stroke="#63b8ff" points="995.28,-337.33 998,-327.09 989.49,-333.39 995.28,-337.33"/>
</a>
</g>
</g>
<!-- Node24 -->
<g id="Node000024" class="node">
<title>Node24</title>
<g id="a_Node000024"><a xlink:href="progname_8h.html" target="_top" xlink:title=" ">
<polygon fill="white" stroke="#666666" points="1164.33,-327 1065.33,-327 1065.33,-308 1164.33,-308 1164.33,-327"/>
<text text-anchor="middle" x="1114.83" y="-315" font-family="Helvetica,sans-Serif" font-size="10.00">core/progname.h</text>
</a>
</g>
</g>
<!-- Node1&#45;&gt;Node24 -->
<g id="edge35_Node000001_Node000024" class="edge">
<title>Node1&#45;&gt;Node24</title>
<g id="a_edge35_Node000001_Node000024"><a xlink:title=" ">
<path fill="none" stroke="#63b8ff" d="M991.45,-362.98C1015.74,-354.23 1053.78,-340.51 1081.21,-330.62"/>
<polygon fill="#63b8ff" stroke="#63b8ff" points="1082.57,-333.85 1090.79,-327.17 1080.19,-327.27 1082.57,-333.85"/>
</a>
</g>
</g>
<!-- Node25 -->
<g id="Node000025" class="node">
<title>Node25</title>
<g id="a_Node000025"><a xlink:title=" ">
<polygon fill="#e0e0e0" stroke="#999999" points="1180.33,-266.5 1127.33,-266.5 1127.33,-247.5 1180.33,-247.5 1180.33,-266.5"/>
<text text-anchor="middle" x="1153.83" y="-254.5" font-family="Helvetica,sans-Serif" font-size="10.00">string.h</text>
</a>
</g>
</g>
<!-- Node1&#45;&gt;Node25 -->
<g id="edge40_Node000001_Node000025" class="edge">
<title>Node1&#45;&gt;Node25</title>
<g id="a_edge40_Node000001_Node000025"><a xlink:title=" ">
<path fill="none" stroke="#63b8ff" d="M1041.85,-365.2C1093.96,-359.06 1157.26,-347.54 1173.83,-327 1185.9,-312.05 1176.21,-290.11 1166.57,-275.01"/>
<polygon fill="#63b8ff" stroke="#63b8ff" points="1169.33,-272.85 1160.77,-266.61 1163.57,-276.82 1169.33,-272.85"/>
</a>
</g>
</g>
<!-- Node26 -->
<g id="Node000026" class="node">
<title>Node26</title>
<g id="a_Node000026"><a xlink:title=" ">
<polygon fill="#e0e0e0" stroke="#999999" points="1274.33,-327 1221.33,-327 1221.33,-308 1274.33,-308 1274.33,-327"/>
<text text-anchor="middle" x="1247.83" y="-315" font-family="Helvetica,sans-Serif" font-size="10.00">stdlib.h</text>
</a>
</g>
</g>
<!-- Node1&#45;&gt;Node26 -->
<g id="edge39_Node000001_Node000026" class="edge">
<title>Node1&#45;&gt;Node26</title>
<g id="a_edge39_Node000001_Node000026"><a xlink:title=" ">
<path fill="none" stroke="#63b8ff" d="M1015.5,-362.92C1063.78,-354.16 1140.57,-340.04 1206.83,-327 1208.12,-326.75 1209.42,-326.49 1210.74,-326.22"/>
<polygon fill="#63b8ff" stroke="#63b8ff" points="1211.84,-329.57 1220.94,-324.16 1210.45,-322.71 1211.84,-329.57"/>
</a>
</g>
</g>
<!-- Node3 -->
<g id="Node000003" class="node">
<title>Node3</title>
<g id="a_Node000003"><a xlink:title=" ">
<polygon fill="#e0e0e0" stroke="#999999" points="634.33,-19 581.33,-19 581.33,0 634.33,0 634.33,-19"/>
<text text-anchor="middle" x="607.83" y="-7" font-family="Helvetica,sans-Serif" font-size="10.00">stdint.h</text>
</a>
</g>
</g>
<!-- Node2&#45;&gt;Node3 -->
<g id="edge2_Node000002_Node000003" class="edge">
<title>Node2&#45;&gt;Node3</title>
<g id="a_edge2_Node000002_Node000003"><a xlink:title=" ">
<path fill="none" stroke="#63b8ff" d="M638.49,-307.72C648.64,-287.76 671.83,-237.2 671.83,-192 671.83,-192 671.83,-192 671.83,-124 671.83,-85.06 642.89,-47.16 623.93,-26.52"/>
<polygon fill="#63b8ff" stroke="#63b8ff" points="626.44,-24.07 617,-19.25 621.37,-28.9 626.44,-24.07"/>
</a>
</g>
</g>
<!-- Node4 -->
<g id="Node000004" class="node">
<title>Node4</title>
<g id="a_Node000004"><a xlink:title=" ">
<polygon fill="#e0e0e0" stroke="#999999" points="821.83,-134.5 765.83,-134.5 765.83,-115.5 821.83,-115.5 821.83,-134.5"/>
<text text-anchor="middle" x="793.83" y="-122.5" font-family="Helvetica,sans-Serif" font-size="10.00">stddef.h</text>
</a>
</g>
</g>
<!-- Node2&#45;&gt;Node4 -->
<g id="edge3_Node000002_Node000004" class="edge">
<title>Node2&#45;&gt;Node4</title>
<g id="a_edge3_Node000002_Node000004"><a xlink:title=" ">
<path fill="none" stroke="#63b8ff" d="M652.61,-307.94C683.98,-292.52 746.4,-256.91 774.83,-206 785.47,-186.96 790.17,-162.16 792.24,-145.25"/>
<polygon fill="#63b8ff" stroke="#63b8ff" points="795.76,-145.28 793.29,-134.98 788.79,-144.57 795.76,-145.28"/>
</a>
</g>
</g>
<!-- Node2&#45;&gt;Node5 -->
<g id="edge4_Node000002_Node000005" class="edge">
<title>Node2&#45;&gt;Node5</title>
<g id="a_edge4_Node000002_Node000005"><a xlink:title=" ">
<path fill="none" stroke="#63b8ff" d="M655.91,-312.39C709.6,-302.38 847.34,-276.72 912.57,-264.57"/>
<polygon fill="#63b8ff" stroke="#63b8ff" points="913.58,-267.94 922.77,-262.67 912.29,-261.06 913.58,-267.94"/>
</a>
</g>
</g>
<!-- Node6 -->
<g id="Node000006" class="node">
<title>Node6</title>
<g id="a_Node000006"><a xlink:href="time_8h.html" target="_top" xlink:title=" ">
<polygon fill="white" stroke="#666666" points="747.83,-200.5 699.83,-200.5 699.83,-181.5 747.83,-181.5 747.83,-200.5"/>
<text text-anchor="middle" x="723.83" y="-188.5" font-family="Helvetica,sans-Serif" font-size="10.00">time.h</text>
</a>
</g>
</g>
<!-- Node2&#45;&gt;Node6 -->
<g id="edge5_Node000002_Node000006" class="edge">
<title>Node2&#45;&gt;Node6</title>
<g id="a_edge5_Node000002_Node000006"><a xlink:title=" ">
<path fill="none" stroke="#63b8ff" d="M646.72,-307.86C658.15,-299.68 674.71,-286.53 685.83,-272 700.4,-252.97 711.31,-227.46 717.62,-210.41"/>
<polygon fill="#63b8ff" stroke="#63b8ff" points="721.07,-211.18 721.1,-200.58 714.47,-208.85 721.07,-211.18"/>
</a>
</g>
</g>
<!-- Node7 -->
<g id="Node000007" class="node">
<title>Node7</title>
<g id="a_Node000007"><a xlink:title=" ">
<polygon fill="#e0e0e0" stroke="#999999" points="643.83,-134.5 571.83,-134.5 571.83,-115.5 643.83,-115.5 643.83,-134.5"/>
<text text-anchor="middle" x="607.83" y="-122.5" font-family="Helvetica,sans-Serif" font-size="10.00">sys/types.h</text>
</a>
</g>
</g>
<!-- Node2&#45;&gt;Node7 -->
<g id="edge8_Node000002_Node000007" class="edge">
<title>Node2&#45;&gt;Node7</title>
<g id="a_edge8_Node000002_Node000007"><a xlink:title=" ">
<path fill="none" stroke="#63b8ff" d="M632.65,-307.82C628.7,-278.87 615.91,-185.2 610.4,-144.82"/>
<polygon fill="#63b8ff" stroke="#63b8ff" points="613.85,-144.17 609.03,-134.73 606.91,-145.11 613.85,-144.17"/>
</a>
</g>
</g>
<!-- Node8 -->
<g id="Node000008" class="node">
<title>Node8</title>
<g id="a_Node000008"><a xlink:href="root_2protocol_2protocol_8h.html" target="_top" xlink:title=" ">
<polygon fill="white" stroke="#666666" points="310.33,-272 183.33,-272 183.33,-242 310.33,-242 310.33,-272"/>
<text text-anchor="start" x="191.33" y="-260" font-family="Helvetica,sans-Serif" font-size="10.00">protocols/root/protocol</text>
<text text-anchor="middle" x="246.83" y="-249" font-family="Helvetica,sans-Serif" font-size="10.00">/protocol.h</text>
</a>
</g>
</g>
<!-- Node2&#45;&gt;Node8 -->
<g id="edge9_Node000002_Node000008" class="edge">
<title>Node2&#45;&gt;Node8</title>
<g id="a_edge9_Node000002_Node000008"><a xlink:title=" ">
<path fill="none" stroke="#63b8ff" d="M611.62,-313.76C561.53,-307.51 435.72,-291.32 320.45,-272.22"/>
<polygon fill="#63b8ff" stroke="#63b8ff" points="320.84,-268.74 310.4,-270.55 319.69,-275.64 320.84,-268.74"/>
</a>
</g>
</g>
<!-- Node16 -->
<g id="Node000016" class="node">
<title>Node16</title>
<g id="a_Node000016"><a xlink:href="wire__codec_8h.html" target="_top" xlink:title=" ">
<polygon fill="white" stroke="#666666" points="605.33,-206 478.33,-206 478.33,-176 605.33,-176 605.33,-206"/>
<text text-anchor="start" x="486.33" y="-194" font-family="Helvetica,sans-Serif" font-size="10.00">protocols/root/protocol</text>
<text text-anchor="middle" x="541.83" y="-183" font-family="Helvetica,sans-Serif" font-size="10.00">/codec/wire_codec.h</text>
</a>
</g>
</g>
<!-- Node2&#45;&gt;Node16 -->
<g id="edge25_Node000002_Node000016" class="edge">
<title>Node2&#45;&gt;Node16</title>
<g id="a_edge25_Node000002_Node000016"><a xlink:title=" ">
<path fill="none" stroke="#63b8ff" d="M627.51,-307.94C613.44,-288.91 579.18,-242.53 558.49,-214.54"/>
<polygon fill="#63b8ff" stroke="#63b8ff" points="561.06,-212.12 552.3,-206.16 555.43,-216.28 561.06,-212.12"/>
</a>
</g>
</g>
<!-- Node18 -->
<g id="Node000018" class="node">
<title>Node18</title>
<g id="a_Node000018"><a xlink:href="brix__net_8h.html" target="_top" xlink:title=" ">
<polygon fill="white" stroke="#666666" points="393.33,-266.5 328.33,-266.5 328.33,-247.5 393.33,-247.5 393.33,-266.5"/>
<text text-anchor="middle" x="360.83" y="-254.5" font-family="Helvetica,sans-Serif" font-size="10.00">brix_net.h</text>
</a>
</g>
</g>
<!-- Node2&#45;&gt;Node18 -->
<g id="edge26_Node000002_Node000018" class="edge">
<title>Node2&#45;&gt;Node18</title>
<g id="a_edge26_Node000002_Node000018"><a xlink:title=" ">
<path fill="none" stroke="#63b8ff" d="M611.53,-313.28C569.91,-307.05 477.75,-292.14 401.83,-272 399.2,-271.3 396.49,-270.52 393.77,-269.69"/>
<polygon fill="#63b8ff" stroke="#63b8ff" points="394.67,-266.3 384.08,-266.57 392.52,-272.97 394.67,-266.3"/>
</a>
</g>
</g>
<!-- Node19 -->
<g id="Node000019" class="node">
<title>Node19</title>
<g id="a_Node000019"><a xlink:href="brix__auth_8h.html" target="_top" xlink:title=" ">
<polygon fill="white" stroke="#666666" points="482.33,-266.5 411.33,-266.5 411.33,-247.5 482.33,-247.5 482.33,-266.5"/>
<text text-anchor="middle" x="446.83" y="-254.5" font-family="Helvetica,sans-Serif" font-size="10.00">brix_auth.h</text>
</a>
</g>
</g>
<!-- Node2&#45;&gt;Node19 -->
<g id="edge27_Node000002_Node000019" class="edge">
<title>Node2&#45;&gt;Node19</title>
<g id="a_edge27_Node000002_Node000019"><a xlink:title=" ">
<path fill="none" stroke="#63b8ff" d="M611.53,-309.61C583.38,-300.9 533.49,-285.42 490.83,-272 488.43,-271.24 485.94,-270.46 483.44,-269.67"/>
<polygon fill="#63b8ff" stroke="#63b8ff" points="484.41,-266.3 473.82,-266.62 482.29,-272.97 484.41,-266.3"/>
</a>
</g>
</g>
<!-- Node20 -->
<g id="Node000020" class="node">
<title>Node20</title>
<g id="a_Node000020"><a xlink:href="brix__ops_8h.html" target="_top" xlink:title=" ">
<polygon fill="white" stroke="#666666" points="567.33,-266.5 500.33,-266.5 500.33,-247.5 567.33,-247.5 567.33,-266.5"/>
<text text-anchor="middle" x="533.83" y="-254.5" font-family="Helvetica,sans-Serif" font-size="10.00">brix_ops.h</text>
</a>
</g>
</g>
<!-- Node2&#45;&gt;Node20 -->
<g id="edge28_Node000002_Node000020" class="edge">
<title>Node2&#45;&gt;Node20</title>
<g id="a_edge28_Node000002_Node000020"><a xlink:title=" ">
<path fill="none" stroke="#63b8ff" d="M619.08,-307.87C602.83,-298.36 576.48,-282.95 557.37,-271.77"/>
<polygon fill="#63b8ff" stroke="#63b8ff" points="559.05,-268.7 548.65,-266.67 555.51,-274.74 559.05,-268.7"/>
</a>
</g>
</g>
<!-- Node6&#45;&gt;Node4 -->
<g id="edge6_Node000006_Node000004" class="edge">
<title>Node6&#45;&gt;Node4</title>
<g id="a_edge6_Node000006_Node000004"><a xlink:title=" ">
<path fill="none" stroke="#63b8ff" d="M733.27,-181.37C744.38,-171.21 763.04,-154.16 776.71,-141.65"/>
<polygon fill="#63b8ff" stroke="#63b8ff" points="779.08,-144.24 784.09,-134.91 774.35,-139.07 779.08,-144.24"/>
</a>
</g>
</g>
<!-- Node6&#45;&gt;Node6 -->
<g id="edge7_Node000006_Node000006" class="edge">
<title>Node6&#45;&gt;Node6</title>
<g id="a_edge7_Node000006_Node000006"><a xlink:title=" ">
<path fill="none" stroke="#63b8ff" d="M737.17,-200.66C750.73,-206.34 765.83,-203.12 765.83,-191 765.83,-181.82 757.16,-177.75 747.06,-178.78"/>
<polygon fill="#63b8ff" stroke="#63b8ff" points="745.97,-175.45 737.17,-181.34 747.72,-182.23 745.97,-175.45"/>
</a>
</g>
</g>
<!-- Node9 -->
<g id="Node000009" class="node">
<title>Node9</title>
<g id="a_Node000009"><a xlink:href="types_8h.html" target="_top" xlink:title=" ">
<polygon fill="white" stroke="#666666" points="452.33,-74 399.33,-74 399.33,-55 452.33,-55 452.33,-74"/>
<text text-anchor="middle" x="425.83" y="-62" font-family="Helvetica,sans-Serif" font-size="10.00">types.h</text>
</a>
</g>
</g>
<!-- Node8&#45;&gt;Node9 -->
<g id="edge10_Node000008_Node000009" class="edge">
<title>Node8&#45;&gt;Node9</title>
<g id="a_edge10_Node000008_Node000009"><a xlink:title=" ">
<path fill="none" stroke="#63b8ff" d="M285.59,-241.94C306.16,-233.39 331.17,-221.19 350.83,-206 381.28,-182.48 389.18,-174.18 406.83,-140 416,-122.25 420.94,-99.79 423.47,-84.19"/>
<polygon fill="#63b8ff" stroke="#63b8ff" points="426.94,-84.61 424.9,-74.22 420.01,-83.62 426.94,-84.61"/>
</a>
</g>
</g>
<!-- Node10 -->
<g id="Node000010" class="node">
<title>Node10</title>
<g id="a_Node000010"><a xlink:href="opcodes_8h.html" target="_top" xlink:title=" ">
<polygon fill="white" stroke="#666666" points="195.83,-74 129.83,-74 129.83,-55 195.83,-55 195.83,-74"/>
<text text-anchor="middle" x="162.83" y="-62" font-family="Helvetica,sans-Serif" font-size="10.00">opcodes.h</text>
</a>
</g>
</g>
<!-- Node8&#45;&gt;Node10 -->
<g id="edge12_Node000008_Node000010" class="edge">
<title>Node8&#45;&gt;Node10</title>
<g id="a_edge12_Node000008_Node000010"><a xlink:title=" ">
<path fill="none" stroke="#63b8ff" d="M183.16,-244.87C125.7,-231.09 44.44,-201.43 5.83,-140 -22.65,-94.67 63.79,-76.39 119.52,-69.43"/>
<polygon fill="#63b8ff" stroke="#63b8ff" points="120.01,-72.9 129.53,-68.26 119.19,-65.95 120.01,-72.9"/>
</a>
</g>
</g>
<!-- Node11 -->
<g id="Node000011" class="node">
<title>Node11</title>
<g id="a_Node000011"><a xlink:href="flags_8h.html" target="_top" xlink:title=" ">
<polygon fill="white" stroke="#666666" points="283.33,-200.5 234.33,-200.5 234.33,-181.5 283.33,-181.5 283.33,-200.5"/>
<text text-anchor="middle" x="258.83" y="-188.5" font-family="Helvetica,sans-Serif" font-size="10.00">flags.h</text>
</a>
</g>
</g>
<!-- Node8&#45;&gt;Node11 -->
<g id="edge13_Node000008_Node000011" class="edge">
<title>Node8&#45;&gt;Node11</title>
<g id="a_edge13_Node000008_Node000011"><a xlink:title=" ">
<path fill="none" stroke="#63b8ff" d="M249.5,-241.8C251.2,-232.7 253.44,-220.79 255.29,-210.9"/>
<polygon fill="#63b8ff" stroke="#63b8ff" points="258.77,-211.32 257.18,-200.84 251.89,-210.03 258.77,-211.32"/>
</a>
</g>
</g>
<!-- Node12 -->
<g id="Node000012" class="node">
<title>Node12</title>
<g id="a_Node000012"><a xlink:href="wire_8h.html" target="_top" xlink:title=" ">
<polygon fill="white" stroke="#666666" points="216.33,-200.5 169.33,-200.5 169.33,-181.5 216.33,-181.5 216.33,-200.5"/>
<text text-anchor="middle" x="192.83" y="-188.5" font-family="Helvetica,sans-Serif" font-size="10.00">wire.h</text>
</a>
</g>
</g>
<!-- Node8&#45;&gt;Node12 -->
<g id="edge14_Node000008_Node000012" class="edge">
<title>Node8&#45;&gt;Node12</title>
<g id="a_edge14_Node000008_Node000012"><a xlink:title=" ">
<path fill="none" stroke="#63b8ff" d="M234.85,-241.8C226.6,-232.01 215.6,-218.98 206.92,-208.7"/>
<polygon fill="#63b8ff" stroke="#63b8ff" points="209.42,-206.23 200.3,-200.84 204.07,-210.74 209.42,-206.23"/>
</a>
</g>
</g>
<!-- Node8&#45;&gt;Node16 -->
<g id="edge20_Node000008_Node000016" class="edge">
<title>Node8&#45;&gt;Node16</title>
<g id="a_edge20_Node000008_Node000016"><a xlink:title=" ">
<path fill="none" stroke="#63b8ff" d="M310.48,-242.19C356.91,-232.12 419.94,-218.45 468.48,-207.91"/>
<polygon fill="#63b8ff" stroke="#63b8ff" points="469.27,-211.32 478.3,-205.78 467.79,-204.48 469.27,-211.32"/>
</a>
</g>
</g>
<!-- Node17 -->
<g id="Node000017" class="node">
<title>Node17</title>
<g id="a_Node000017"><a xlink:href="gsi_8h.html" target="_top" xlink:title=" ">
<polygon fill="white" stroke="#666666" points="341.83,-200.5 301.83,-200.5 301.83,-181.5 341.83,-181.5 341.83,-200.5"/>
<text text-anchor="middle" x="321.83" y="-188.5" font-family="Helvetica,sans-Serif" font-size="10.00">gsi.h</text>
</a>
</g>
</g>
<!-- Node8&#45;&gt;Node17 -->
<g id="edge24_Node000008_Node000017" class="edge">
<title>Node8&#45;&gt;Node17</title>
<g id="a_edge24_Node000008_Node000017"><a xlink:title=" ">
<path fill="none" stroke="#63b8ff" d="M263.48,-241.8C275.4,-231.62 291.45,-217.93 303.69,-207.48"/>
<polygon fill="#63b8ff" stroke="#63b8ff" points="306.13,-210 311.47,-200.84 301.59,-204.67 306.13,-210"/>
</a>
</g>
</g>
<!-- Node9&#45;&gt;Node3 -->
<g id="edge11_Node000009_Node000003" class="edge">
<title>Node9&#45;&gt;Node3</title>
<g id="a_edge11_Node000009_Node000003"><a xlink:title=" ">
<path fill="none" stroke="#63b8ff" d="M452.69,-55.68C484.1,-46.53 536.25,-31.35 571.32,-21.13"/>
<polygon fill="#63b8ff" stroke="#63b8ff" points="572.54,-24.42 581.17,-18.27 570.59,-17.7 572.54,-24.42"/>
</a>
</g>
</g>
<!-- Node13 -->
<g id="Node000013" class="node">
<title>Node13</title>
<g id="a_Node000013"><a xlink:href="wire__core__requests_8h.html" target="_top" xlink:title=" ">
<polygon fill="white" stroke="#666666" points="397.83,-134.5 277.83,-134.5 277.83,-115.5 397.83,-115.5 397.83,-134.5"/>
<text text-anchor="middle" x="337.83" y="-122.5" font-family="Helvetica,sans-Serif" font-size="10.00">wire_core_requests.h</text>
</a>
</g>
</g>
<!-- Node12&#45;&gt;Node13 -->
<g id="edge15_Node000012_Node000013" class="edge">
<title>Node12&#45;&gt;Node13</title>
<g id="a_edge15_Node000012_Node000013"><a xlink:title=" ">
<path fill="none" stroke="#63b8ff" d="M212.39,-181.37C237.14,-170.44 280.01,-151.52 308.64,-138.88"/>
<polygon fill="#63b8ff" stroke="#63b8ff" points="310.39,-141.94 318.13,-134.7 307.56,-135.54 310.39,-141.94"/>
</a>
</g>
</g>
<!-- Node14 -->
<g id="Node000014" class="node">
<title>Node14</title>
<g id="a_Node000014"><a xlink:href="wire__write__extended__requests_8h.html" target="_top" xlink:title=" ">
<polygon fill="white" stroke="#666666" points="134.33,-140 15.33,-140 15.33,-110 134.33,-110 134.33,-140"/>
<text text-anchor="start" x="23.33" y="-128" font-family="Helvetica,sans-Serif" font-size="10.00">wire_write_extended</text>
<text text-anchor="middle" x="74.83" y="-117" font-family="Helvetica,sans-Serif" font-size="10.00">_requests.h</text>
</a>
</g>
</g>
<!-- Node12&#45;&gt;Node14 -->
<g id="edge18_Node000012_Node000014" class="edge">
<title>Node12&#45;&gt;Node14</title>
<g id="a_edge18_Node000012_Node000014"><a xlink:title=" ">
<path fill="none" stroke="#63b8ff" d="M176.92,-181.37C159.78,-172.07 131.97,-156.99 109.71,-144.91"/>
<polygon fill="#63b8ff" stroke="#63b8ff" points="111.32,-141.81 100.86,-140.12 107.98,-147.96 111.32,-141.81"/>
</a>
</g>
</g>
<!-- Node15 -->
<g id="Node000015" class="node">
<title>Node15</title>
<g id="a_Node000015"><a xlink:href="wire__vendor__ext_8h.html" target="_top" xlink:title=" ">
<polygon fill="white" stroke="#666666" points="259.33,-134.5 152.33,-134.5 152.33,-115.5 259.33,-115.5 259.33,-134.5"/>
<text text-anchor="middle" x="205.83" y="-122.5" font-family="Helvetica,sans-Serif" font-size="10.00">wire_vendor_ext.h</text>
</a>
</g>
</g>
<!-- Node12&#45;&gt;Node15 -->
<g id="edge19_Node000012_Node000015" class="edge">
<title>Node12&#45;&gt;Node15</title>
<g id="a_edge19_Node000012_Node000015"><a xlink:title=" ">
<path fill="none" stroke="#63b8ff" d="M194.59,-181.37C196.48,-172.07 199.54,-156.98 201.99,-144.9"/>
<polygon fill="#63b8ff" stroke="#63b8ff" points="205.46,-145.4 204.03,-134.91 198.6,-144.01 205.46,-145.4"/>
</a>
</g>
</g>
<!-- Node13&#45;&gt;Node9 -->
<g id="edge16_Node000013_Node000009" class="edge">
<title>Node13&#45;&gt;Node9</title>
<g id="a_edge16_Node000013_Node000009"><a xlink:title=" ">
<path fill="none" stroke="#63b8ff" d="M350.82,-115.37C364.86,-106.04 387.47,-91.01 404.2,-79.88"/>
<polygon fill="#63b8ff" stroke="#63b8ff" points="406.41,-82.62 412.8,-74.17 402.53,-76.79 406.41,-82.62"/>
</a>
</g>
</g>
<!-- Node13&#45;&gt;Node10 -->
<g id="edge17_Node000013_Node000010" class="edge">
<title>Node13&#45;&gt;Node10</title>
<g id="a_edge17_Node000013_Node000010"><a xlink:title=" ">
<path fill="none" stroke="#63b8ff" d="M312.39,-115.49C282.19,-105.4 231.68,-88.51 197.82,-77.19"/>
<polygon fill="#63b8ff" stroke="#63b8ff" points="198.9,-73.87 188.31,-74.02 196.69,-80.51 198.9,-73.87"/>
</a>
</g>
</g>
<!-- Node16&#45;&gt;Node3 -->
<g id="edge21_Node000016_Node000003" class="edge">
<title>Node16&#45;&gt;Node3</title>
<g id="a_edge21_Node000016_Node000003"><a xlink:title=" ">
<path fill="none" stroke="#63b8ff" d="M544.78,-175.91C548.33,-159.76 554.82,-132.6 562.83,-110 573.3,-80.48 589,-47.62 598.82,-28.03"/>
<polygon fill="#63b8ff" stroke="#63b8ff" points="601.95,-29.58 603.36,-19.08 595.71,-26.42 601.95,-29.58"/>
</a>
</g>
</g>
<!-- Node16&#45;&gt;Node4 -->
<g id="edge22_Node000016_Node000004" class="edge">
<title>Node16&#45;&gt;Node4</title>
<g id="a_edge22_Node000016_Node000004"><a xlink:title=" ">
<path fill="none" stroke="#63b8ff" d="M597.14,-175.95C645.19,-163.75 713.52,-146.4 755.7,-135.69"/>
<polygon fill="#63b8ff" stroke="#63b8ff" points="756.74,-139.03 765.57,-133.18 755.02,-132.25 756.74,-139.03"/>
</a>
</g>
</g>
<!-- Node16&#45;&gt;Node7 -->
<g id="edge23_Node000016_Node000007" class="edge">
<title>Node16&#45;&gt;Node7</title>
<g id="a_edge23_Node000016_Node000007"><a xlink:title=" ">
<path fill="none" stroke="#63b8ff" d="M556.48,-175.8C566.77,-165.82 580.55,-152.46 591.25,-142.09"/>
<polygon fill="#63b8ff" stroke="#63b8ff" points="593.97,-144.32 598.71,-134.84 589.1,-139.29 593.97,-144.32"/>
</a>
</g>
</g>
<!-- Node21&#45;&gt;Node3 -->
<g id="edge31_Node000021_Node000003" class="edge">
<title>Node21&#45;&gt;Node3</title>
<g id="a_edge31_Node000021_Node000003"><a xlink:title=" ">
<path fill="none" stroke="#63b8ff" d="M911.97,-181.33C897.28,-165.51 864.11,-131.61 830.83,-110 769.35,-70.07 689.18,-38.69 643.62,-22.52"/>
<polygon fill="#63b8ff" stroke="#63b8ff" points="644.5,-19.12 633.9,-19.12 642.18,-25.73 644.5,-19.12"/>
</a>
</g>
</g>
<!-- Node21&#45;&gt;Node4 -->
<g id="edge30_Node000021_Node000004" class="edge">
<title>Node21&#45;&gt;Node4</title>
<g id="a_edge30_Node000021_Node000004"><a xlink:title=" ">
<path fill="none" stroke="#63b8ff" d="M902.84,-181.37C881.61,-170.59 845.06,-152.02 820.18,-139.38"/>
<polygon fill="#63b8ff" stroke="#63b8ff" points="821.46,-136.11 810.96,-134.7 818.29,-142.35 821.46,-136.11"/>
</a>
</g>
</g>
<!-- Node22&#45;&gt;Node4 -->
<g id="edge33_Node000022_Node000004" class="edge">
<title>Node22&#45;&gt;Node4</title>
<g id="a_edge33_Node000022_Node000004"><a xlink:title=" ">
<path fill="none" stroke="#63b8ff" d="M800.41,-307.73C802.88,-298.83 806.44,-284.59 807.83,-272 812.54,-229.59 813.64,-218.27 807.83,-176 806.37,-165.34 803.23,-153.76 800.29,-144.43"/>
<polygon fill="#63b8ff" stroke="#63b8ff" points="803.53,-143.08 797.05,-134.7 796.89,-145.29 803.53,-143.08"/>
</a>
</g>
</g>
<!-- Node24&#45;&gt;Node5 -->
<g id="edge36_Node000024_Node000005" class="edge">
<title>Node24&#45;&gt;Node5</title>
<g id="a_edge36_Node000024_Node000005"><a xlink:title=" ">
<path fill="none" stroke="#63b8ff" d="M1090.55,-307.99C1061.86,-297.94 1013.94,-281.16 981.63,-269.84"/>
<polygon fill="#63b8ff" stroke="#63b8ff" points="982.74,-266.52 972.15,-266.52 980.43,-273.13 982.74,-266.52"/>
</a>
</g>
</g>
<!-- Node24&#45;&gt;Node25 -->
<g id="edge37_Node000024_Node000025" class="edge">
<title>Node24&#45;&gt;Node25</title>
<g id="a_edge37_Node000024_Node000025"><a xlink:title=" ">
<path fill="none" stroke="#63b8ff" d="M1120.59,-307.87C1126.29,-299.31 1135.19,-285.97 1142.34,-275.24"/>
<polygon fill="#63b8ff" stroke="#63b8ff" points="1145.42,-276.93 1148.06,-266.67 1139.6,-273.05 1145.42,-276.93"/>
</a>
</g>
</g>
</g>
</svg>

<g id="navigator" transform="translate(0 0)" fill="#404254">
  <rect fill="#f2f5e9" fill-opacity="0.5" stroke="#606060" stroke-width=".5" x="0" y="0" width="60" height="60"/>
  <use id="zoomplus" xlink:href="#zoomPlus" x="17" y="9" onmousedown="handleZoom(evt,'in')"/>
  <use id="zoomminus" xlink:href="#zoomMin" x="42" y="9" onmousedown="handleZoom(evt,'out')"/>
  <use id="reset" xlink:href="#resetDef" x="30" y="36" onmousedown="handleReset()"/>
   <use id="arrowup" xlink:href="#arrowUp" x="0" y="0" onmousedown="handlePan(0,-1)"/>
  <use id="arrowright" xlink:href="#arrowRight" x="0" y="0" onmousedown="handlePan(1,0)"/>
  <use id="arrowdown" xlink:href="#arrowDown" x="0" y="0" onmousedown="handlePan(0,1)"/>
  <use id="arrowleft" xlink:href="#arrowLeft" x="0" y="0" onmousedown="handlePan(-1,0)"/>
</g>
<svg viewBox="0 0 15 15" width="100%" height="30px" preserveAspectRatio="xMaxYMin meet">
 <g id="arrow_out" transform="scale(0.3 0.3)">
  <a xlink:href="xrdmapc_8c__incl_org.svg" target="_base">
   <rect id="button" ry="5" rx="5" y="6" x="6" height="38" width="38"
        fill="#f2f5e9" fill-opacity="0.5" stroke="#606060" stroke-width="1.0"/>
   <path id="arrow"
     d="M 11.500037,31.436501 C 11.940474,20.09759 22.043105,11.32322 32.158766,21.979434 L 37.068811,17.246167 C 37.068811,17.246167 37.088388,32 37.088388,32 L 22.160133,31.978069 C 22.160133,31.978069 26.997745,27.140456 26.997745,27.140456 C 18.528582,18.264221 13.291696,25.230495 11.500037,31.436501 z"
     style="fill:#404040;"/>
  </a>
 </g>
</svg>

<style type='text/css'>
<![CDATA[
[data-mouse-over-selected='false'] { opacity: 0.7; }
[data-mouse-over-selected='true']  { opacity: 1.0; }
]]>
</style>
<script type="application/ecmascript"><![CDATA[
document.addEventListener('DOMContentLoaded', (event) => {
  highlightEdges();
  highlightAdjacentNodes();
});
]]></script>
</svg>
