<?xml version="1.0" encoding="UTF-8" standalone="no"?>
<!DOCTYPE svg PUBLIC "-//W3C//DTD SVG 1.1//EN"
 "http://www.w3.org/Graphics/SVG/1.1/DTD/svg11.dtd">
<!-- Generated by graphviz version 2.43.0 (0)
 -->
<!-- Title: client/apps/diag/xrdqstats.c Pages: 1 -->
<!--zoomable 390 -->

<svg id="main" version="1.1" xmlns="http://www.w3.org/2000/svg" xmlns:xlink="http://www.w3.org/1999/xlink" xml:space="preserve" onload="init(evt)">
<style type="text/css"><![CDATA[
.node, .edge {opacity: 0.7;}
.node.selected, .edge.selected {opacity: 1;}
.edge:hover path { stroke: red; }
.edge:hover polygon { stroke: red; fill: red; }
]]></style>

<defs>
  <circle id="rim" cx="0" cy="0" r="7"/>
  <circle id="rim2" cx="0" cy="0" r="3.5"/>
  <g id="zoomPlus">
    <use xlink:href="#rim" fill="#404040"><set attributeName="fill" to="#808080" begin="zoomplus.mouseover" end="zoomplus.mouseout"/></use>
    <path d="M-4,0h8M0,-4v8" fill="none" stroke="white" stroke-width="1.5" pointer-events="none"/>
  </g>
  <g id="zoomMin">
    <use xlink:href="#rim" fill="#404040"><set attributeName="fill" to="#808080" begin="zoomminus.mouseover" end="zoomminus.mouseout"/></use>
    <path d="M-4,0h8" fill="none" stroke="white" stroke-width="1.5" pointer-events="none"/>
  </g>
  <g id="arrowUp" transform="translate(30 24)">
    <use xlink:href="#rim"/>
    <path pointer-events="none" fill="none" stroke="white" stroke-width="1.5" d="M0,-3.0v7 M-2.5,-0.5L0,-3.0L2.5,-0.5"/>
  </g>
  <g id="arrowRight" transform="rotate(90) translate(36 -43)">
    <use xlink:href="#rim"/>
    <path pointer-events="none" fill="none" stroke="white" stroke-width="1.5" d="M0,-3.0v7 M-2.5,-0.5L0,-3.0L2.5,-0.5"/>
  </g>
  <g id="arrowDown" transform="rotate(180) translate(-30 -48)">
    <use xlink:href="#rim"/>
    <path pointer-events="none" fill="none" stroke="white" stroke-width="1.5" d="M0,-3.0v7 M-2.5,-0.5L0,-3.0L2.5,-0.5"/>
  </g>
  <g id="arrowLeft" transform="rotate(270) translate(-36 17)">
    <use xlink:href="#rim"/>
    <path pointer-events="none" fill="none" stroke="white" stroke-width="1.5" d="M0,-3.0v7 M-2.5,-0.5L0,-3.0L2.5,-0.5"/>
  </g>
  <g id="resetDef">
    <use xlink:href="#rim2" fill="#404040"><set attributeName="fill" to="#808080" begin="reset.mouseover" end="reset.mouseout"/></use>
  </g>
</defs>
<script type="application/ecmascript">
var viewWidth = 1355;
var viewHeight = 390;
var sectionId = 'dynsection-0';
</script>
<script type="application/ecmascript" xlink:href="svg.min.js"/>
<svg id="graph" class="graph">
<g id="viewport">
<title>client/apps/diag/xrdqstats.c</title>
<!-- Node1 -->
<g id="Node000001" class="node">
<title>Node1</title>
<g id="a_Node000001"><a xlink:title=" ">
<polygon fill="#999999" stroke="#666666" points="1191.12,-382 1040.12,-382 1040.12,-363 1191.12,-363 1191.12,-382"/>
<text text-anchor="middle" x="1115.62" y="-370" font-family="Helvetica,sans-Serif" font-size="10.00">client/apps/diag/xrdqstats.c</text>
</a>
</g>
</g>
<!-- Node2 -->
<g id="Node000002" class="node">
<title>Node2</title>
<g id="a_Node000002"><a xlink:href="brix_8h.html" target="_top" xlink:title=" ">
<polygon fill="white" stroke="#666666" points="834.62,-327 790.62,-327 790.62,-308 834.62,-308 834.62,-327"/>
<text text-anchor="middle" x="812.62" y="-315" font-family="Helvetica,sans-Serif" font-size="10.00">brix.h</text>
</a>
</g>
</g>
<!-- Node1&#45;&gt;Node2 -->
<g id="edge1_Node000001_Node000002" class="edge">
<title>Node1&#45;&gt;Node2</title>
<g id="a_edge1_Node000001_Node000002"><a xlink:title=" ">
<path fill="none" stroke="#63b8ff" d="M1066.93,-362.98C1004.51,-352.07 898.01,-333.44 844.82,-324.13"/>
<polygon fill="#63b8ff" stroke="#63b8ff" points="845.38,-320.68 834.92,-322.4 844.17,-327.57 845.38,-320.68"/>
</a>
</g>
</g>
<!-- Node5 -->
<g id="Node000005" class="node">
<title>Node5</title>
<g id="a_Node000005"><a xlink:title=" ">
<polygon fill="#e0e0e0" stroke="#999999" points="1116.62,-266.5 1066.62,-266.5 1066.62,-247.5 1116.62,-247.5 1116.62,-266.5"/>
<text text-anchor="middle" x="1091.62" y="-254.5" font-family="Helvetica,sans-Serif" font-size="10.00">stdio.h</text>
</a>
</g>
</g>
<!-- Node1&#45;&gt;Node5 -->
<g id="edge36_Node000001_Node000005" class="edge">
<title>Node1&#45;&gt;Node5</title>
<g id="a_edge36_Node000001_Node000005"><a xlink:title=" ">
<path fill="none" stroke="#63b8ff" d="M1110.65,-362.97C1105.85,-354.26 1098.84,-340.16 1095.62,-327 1091.56,-310.43 1090.77,-290.98 1090.88,-276.96"/>
<polygon fill="#63b8ff" stroke="#63b8ff" points="1094.38,-276.73 1091.12,-266.65 1087.39,-276.56 1094.38,-276.73"/>
</a>
</g>
</g>
<!-- Node21 -->
<g id="Node000021" class="node">
<title>Node21</title>
<g id="a_Node000021"><a xlink:href="crypto_8h.html" target="_top" xlink:title=" ">
<polygon fill="white" stroke="#666666" points="1123.62,-200.5 1003.62,-200.5 1003.62,-181.5 1123.62,-181.5 1123.62,-200.5"/>
<text text-anchor="middle" x="1063.62" y="-188.5" font-family="Helvetica,sans-Serif" font-size="10.00">core/compat/crypto.h</text>
</a>
</g>
</g>
<!-- Node1&#45;&gt;Node21 -->
<g id="edge29_Node000001_Node000021" class="edge">
<title>Node1&#45;&gt;Node21</title>
<g id="a_edge29_Node000001_Node000021"><a xlink:title=" ">
<path fill="none" stroke="#63b8ff" d="M1108.38,-362.92C1095.11,-346.54 1067.36,-309.13 1057.62,-272 1052.22,-251.42 1055.4,-226.92 1058.84,-210.5"/>
<polygon fill="#63b8ff" stroke="#63b8ff" points="1062.29,-211.11 1061.16,-200.57 1055.48,-209.51 1062.29,-211.11"/>
</a>
</g>
</g>
<!-- Node22 -->
<g id="Node000022" class="node">
<title>Node22</title>
<g id="a_Node000022"><a xlink:href="version_8h.html" target="_top" xlink:title=" ">
<polygon fill="white" stroke="#666666" points="1346.62,-327 1260.62,-327 1260.62,-308 1346.62,-308 1346.62,-327"/>
<text text-anchor="middle" x="1303.62" y="-315" font-family="Helvetica,sans-Serif" font-size="10.00">core/version.h</text>
</a>
</g>
</g>
<!-- Node1&#45;&gt;Node22 -->
<g id="edge32_Node000001_Node000022" class="edge">
<title>Node1&#45;&gt;Node22</title>
<g id="a_edge32_Node000001_Node000022"><a xlink:title=" ">
<path fill="none" stroke="#63b8ff" d="M1145.82,-362.98C1177.66,-354.01 1227.98,-339.82 1263.21,-329.89"/>
<polygon fill="#63b8ff" stroke="#63b8ff" points="1264.5,-333.16 1273.17,-327.08 1262.6,-326.43 1264.5,-333.16"/>
</a>
</g>
</g>
<!-- Node23 -->
<g id="Node000023" class="node">
<title>Node23</title>
<g id="a_Node000023"><a xlink:href="progname_8h.html" target="_top" xlink:title=" ">
<polygon fill="white" stroke="#666666" points="1204.12,-327 1105.12,-327 1105.12,-308 1204.12,-308 1204.12,-327"/>
<text text-anchor="middle" x="1154.62" y="-315" font-family="Helvetica,sans-Serif" font-size="10.00">core/progname.h</text>
</a>
</g>
</g>
<!-- Node1&#45;&gt;Node23 -->
<g id="edge33_Node000001_Node000023" class="edge">
<title>Node1&#45;&gt;Node23</title>
<g id="a_edge33_Node000001_Node000023"><a xlink:title=" ">
<path fill="none" stroke="#63b8ff" d="M1122.06,-362.75C1127.51,-355.34 1135.48,-344.5 1142.17,-335.41"/>
<polygon fill="#63b8ff" stroke="#63b8ff" points="1145.19,-337.22 1148.3,-327.09 1139.55,-333.07 1145.19,-337.22"/>
</a>
</g>
</g>
<!-- Node24 -->
<g id="Node000024" class="node">
<title>Node24</title>
<g id="a_Node000024"><a xlink:title=" ">
<polygon fill="#e0e0e0" stroke="#999999" points="1224.12,-266.5 1171.12,-266.5 1171.12,-247.5 1224.12,-247.5 1224.12,-266.5"/>
<text text-anchor="middle" x="1197.62" y="-254.5" font-family="Helvetica,sans-Serif" font-size="10.00">string.h</text>
</a>
</g>
</g>
<!-- Node1&#45;&gt;Node24 -->
<g id="edge37_Node000001_Node000024" class="edge">
<title>Node1&#45;&gt;Node24</title>
<g id="a_edge37_Node000001_Node000024"><a xlink:title=" ">
<path fill="none" stroke="#63b8ff" d="M1159.43,-362.97C1179.55,-356.62 1201.57,-345.69 1213.62,-327 1223.57,-311.55 1216.44,-290.61 1208.79,-275.87"/>
<polygon fill="#63b8ff" stroke="#63b8ff" points="1211.61,-273.74 1203.61,-266.79 1205.53,-277.21 1211.61,-273.74"/>
</a>
</g>
</g>
<!-- Node3 -->
<g id="Node000003" class="node">
<title>Node3</title>
<g id="a_Node000003"><a xlink:title=" ">
<polygon fill="#e0e0e0" stroke="#999999" points="858.12,-19 805.12,-19 805.12,0 858.12,0 858.12,-19"/>
<text text-anchor="middle" x="831.62" y="-7" font-family="Helvetica,sans-Serif" font-size="10.00">stdint.h</text>
</a>
</g>
</g>
<!-- Node2&#45;&gt;Node3 -->
<g id="edge2_Node000002_Node000003" class="edge">
<title>Node2&#45;&gt;Node3</title>
<g id="a_edge2_Node000002_Node000003"><a xlink:title=" ">
<path fill="none" stroke="#63b8ff" d="M834.91,-313.93C876.39,-308.65 962.86,-295.07 980.62,-272 1014.51,-227.96 889.23,-76.59 845.87,-26.64"/>
<polygon fill="#63b8ff" stroke="#63b8ff" points="848.44,-24.25 839.22,-19.03 843.17,-28.86 848.44,-24.25"/>
</a>
</g>
</g>
<!-- Node4 -->
<g id="Node000004" class="node">
<title>Node4</title>
<g id="a_Node000004"><a xlink:title=" ">
<polygon fill="#e0e0e0" stroke="#999999" points="828.62,-134.5 772.62,-134.5 772.62,-115.5 828.62,-115.5 828.62,-134.5"/>
<text text-anchor="middle" x="800.62" y="-122.5" font-family="Helvetica,sans-Serif" font-size="10.00">stddef.h</text>
</a>
</g>
</g>
<!-- Node2&#45;&gt;Node4 -->
<g id="edge3_Node000002_Node000004" class="edge">
<title>Node2&#45;&gt;Node4</title>
<g id="a_edge3_Node000002_Node000004"><a xlink:title=" ">
<path fill="none" stroke="#63b8ff" d="M790.46,-316.1C760.7,-314.22 708.75,-305.94 684.62,-272 676.89,-261.13 677.7,-253.4 684.62,-242 702.55,-212.42 728.55,-229.84 753.62,-206 772.18,-188.35 785.81,-161.76 793.48,-144.15"/>
<polygon fill="#63b8ff" stroke="#63b8ff" points="796.88,-145.08 797.47,-134.5 790.42,-142.4 796.88,-145.08"/>
</a>
</g>
</g>
<!-- Node2&#45;&gt;Node5 -->
<g id="edge4_Node000002_Node000005" class="edge">
<title>Node2&#45;&gt;Node5</title>
<g id="a_edge4_Node000002_Node000005"><a xlink:title=" ">
<path fill="none" stroke="#63b8ff" d="M834.98,-311.81C883.4,-301.66 998.3,-277.57 1056.51,-265.36"/>
<polygon fill="#63b8ff" stroke="#63b8ff" points="1057.29,-268.77 1066.36,-263.3 1055.85,-261.92 1057.29,-268.77"/>
</a>
</g>
</g>
<!-- Node6 -->
<g id="Node000006" class="node">
<title>Node6</title>
<g id="a_Node000006"><a xlink:href="time_8h.html" target="_top" xlink:title=" ">
<polygon fill="white" stroke="#666666" points="875.62,-200.5 827.62,-200.5 827.62,-181.5 875.62,-181.5 875.62,-200.5"/>
<text text-anchor="middle" x="851.62" y="-188.5" font-family="Helvetica,sans-Serif" font-size="10.00">time.h</text>
</a>
</g>
</g>
<!-- Node2&#45;&gt;Node6 -->
<g id="edge5_Node000002_Node000006" class="edge">
<title>Node2&#45;&gt;Node6</title>
<g id="a_edge5_Node000002_Node000006"><a xlink:title=" ">
<path fill="none" stroke="#63b8ff" d="M825.39,-308C836,-300.1 850.34,-287.27 856.62,-272 864.77,-252.15 861.29,-227.18 857.23,-210.47"/>
<polygon fill="#63b8ff" stroke="#63b8ff" points="860.6,-209.54 854.59,-200.81 853.85,-211.38 860.6,-209.54"/>
</a>
</g>
</g>
<!-- Node7 -->
<g id="Node000007" class="node">
<title>Node7</title>
<g id="a_Node000007"><a xlink:title=" ">
<polygon fill="#e0e0e0" stroke="#999999" points="655.62,-134.5 583.62,-134.5 583.62,-115.5 655.62,-115.5 655.62,-134.5"/>
<text text-anchor="middle" x="619.62" y="-122.5" font-family="Helvetica,sans-Serif" font-size="10.00">sys/types.h</text>
</a>
</g>
</g>
<!-- Node2&#45;&gt;Node7 -->
<g id="edge8_Node000002_Node000007" class="edge">
<title>Node2&#45;&gt;Node7</title>
<g id="a_edge8_Node000002_Node000007"><a xlink:title=" ">
<path fill="none" stroke="#63b8ff" d="M790.52,-316.26C755.45,-314.78 686.54,-307.2 642.62,-272 607.29,-243.7 603.72,-221 608.62,-176 609.76,-165.46 612.23,-153.88 614.54,-144.52"/>
<polygon fill="#63b8ff" stroke="#63b8ff" points="617.95,-145.32 617.08,-134.76 611.17,-143.55 617.95,-145.32"/>
</a>
</g>
</g>
<!-- Node8 -->
<g id="Node000008" class="node">
<title>Node8</title>
<g id="a_Node000008"><a xlink:href="root_2protocol_2protocol_8h.html" target="_top" xlink:title=" ">
<polygon fill="white" stroke="#666666" points="537.12,-272 410.12,-272 410.12,-242 537.12,-242 537.12,-272"/>
<text text-anchor="start" x="418.12" y="-260" font-family="Helvetica,sans-Serif" font-size="10.00">protocols/root/protocol</text>
<text text-anchor="middle" x="473.62" y="-249" font-family="Helvetica,sans-Serif" font-size="10.00">/protocol.h</text>
</a>
</g>
</g>
<!-- Node2&#45;&gt;Node8 -->
<g id="edge9_Node000002_Node000008" class="edge">
<title>Node2&#45;&gt;Node8</title>
<g id="a_edge9_Node000002_Node000008"><a xlink:title=" ">
<path fill="none" stroke="#63b8ff" d="M790.37,-312.66C741.88,-304.29 624.78,-284.09 547.36,-270.73"/>
<polygon fill="#63b8ff" stroke="#63b8ff" points="547.63,-267.22 537.18,-268.97 546.44,-274.12 547.63,-267.22"/>
</a>
</g>
</g>
<!-- Node16 -->
<g id="Node000016" class="node">
<title>Node16</title>
<g id="a_Node000016"><a xlink:href="wire__codec_8h.html" target="_top" xlink:title=" ">
<polygon fill="white" stroke="#666666" points="745.12,-206 618.12,-206 618.12,-176 745.12,-176 745.12,-206"/>
<text text-anchor="start" x="626.12" y="-194" font-family="Helvetica,sans-Serif" font-size="10.00">protocols/root/protocol</text>
<text text-anchor="middle" x="681.62" y="-183" font-family="Helvetica,sans-Serif" font-size="10.00">/codec/wire_codec.h</text>
</a>
</g>
</g>
<!-- Node2&#45;&gt;Node16 -->
<g id="edge25_Node000002_Node000016" class="edge">
<title>Node2&#45;&gt;Node16</title>
<g id="a_edge25_Node000002_Node000016"><a xlink:title=" ">
<path fill="none" stroke="#63b8ff" d="M790.31,-313.66C750.18,-308.04 668.43,-294.1 651.62,-272 638.61,-254.91 649.91,-231.57 662.18,-214.51"/>
<polygon fill="#63b8ff" stroke="#63b8ff" points="665.23,-216.28 668.56,-206.23 659.69,-212.01 665.23,-216.28"/>
</a>
</g>
</g>
<!-- Node18 -->
<g id="Node000018" class="node">
<title>Node18</title>
<g id="a_Node000018"><a xlink:href="brix__net_8h.html" target="_top" xlink:title=" ">
<polygon fill="white" stroke="#666666" points="759.12,-266.5 694.12,-266.5 694.12,-247.5 759.12,-247.5 759.12,-266.5"/>
<text text-anchor="middle" x="726.62" y="-254.5" font-family="Helvetica,sans-Serif" font-size="10.00">brix_net.h</text>
</a>
</g>
</g>
<!-- Node2&#45;&gt;Node18 -->
<g id="edge26_Node000002_Node000018" class="edge">
<title>Node2&#45;&gt;Node18</title>
<g id="a_edge26_Node000002_Node000018"><a xlink:title=" ">
<path fill="none" stroke="#63b8ff" d="M799.93,-307.87C786.21,-298.54 764.11,-283.51 747.76,-272.38"/>
<polygon fill="#63b8ff" stroke="#63b8ff" points="749.59,-269.4 739.36,-266.67 745.66,-275.19 749.59,-269.4"/>
</a>
</g>
</g>
<!-- Node19 -->
<g id="Node000019" class="node">
<title>Node19</title>
<g id="a_Node000019"><a xlink:href="brix__auth_8h.html" target="_top" xlink:title=" ">
<polygon fill="white" stroke="#666666" points="848.12,-266.5 777.12,-266.5 777.12,-247.5 848.12,-247.5 848.12,-266.5"/>
<text text-anchor="middle" x="812.62" y="-254.5" font-family="Helvetica,sans-Serif" font-size="10.00">brix_auth.h</text>
</a>
</g>
</g>
<!-- Node2&#45;&gt;Node19 -->
<g id="edge27_Node000002_Node000019" class="edge">
<title>Node2&#45;&gt;Node19</title>
<g id="a_edge27_Node000002_Node000019"><a xlink:title=" ">
<path fill="none" stroke="#63b8ff" d="M812.62,-307.87C812.62,-299.75 812.62,-287.31 812.62,-276.89"/>
<polygon fill="#63b8ff" stroke="#63b8ff" points="816.12,-276.67 812.62,-266.67 809.12,-276.67 816.12,-276.67"/>
</a>
</g>
</g>
<!-- Node20 -->
<g id="Node000020" class="node">
<title>Node20</title>
<g id="a_Node000020"><a xlink:href="brix__ops_8h.html" target="_top" xlink:title=" ">
<polygon fill="white" stroke="#666666" points="972.12,-266.5 905.12,-266.5 905.12,-247.5 972.12,-247.5 972.12,-266.5"/>
<text text-anchor="middle" x="938.62" y="-254.5" font-family="Helvetica,sans-Serif" font-size="10.00">brix_ops.h</text>
</a>
</g>
</g>
<!-- Node2&#45;&gt;Node20 -->
<g id="edge28_Node000002_Node000020" class="edge">
<title>Node2&#45;&gt;Node20</title>
<g id="a_edge28_Node000002_Node000020"><a xlink:title=" ">
<path fill="none" stroke="#63b8ff" d="M830.94,-307.99C852.03,-298.2 886.88,-282.02 911.2,-270.73"/>
<polygon fill="#63b8ff" stroke="#63b8ff" points="912.68,-273.9 920.27,-266.52 909.73,-267.55 912.68,-273.9"/>
</a>
</g>
</g>
<!-- Node6&#45;&gt;Node4 -->
<g id="edge6_Node000006_Node000004" class="edge">
<title>Node6&#45;&gt;Node4</title>
<g id="a_edge6_Node000006_Node000004"><a xlink:title=" ">
<path fill="none" stroke="#63b8ff" d="M844.74,-181.37C836.95,-171.59 824.06,-155.42 814.22,-143.08"/>
<polygon fill="#63b8ff" stroke="#63b8ff" points="816.68,-140.54 807.71,-134.91 811.21,-144.91 816.68,-140.54"/>
</a>
</g>
</g>
<!-- Node6&#45;&gt;Node6 -->
<g id="edge7_Node000006_Node000006" class="edge">
<title>Node6&#45;&gt;Node6</title>
<g id="a_edge7_Node000006_Node000006"><a xlink:title=" ">
<path fill="none" stroke="#63b8ff" d="M864.95,-200.66C878.52,-206.34 893.62,-203.12 893.62,-191 893.62,-181.82 884.94,-177.75 874.84,-178.78"/>
<polygon fill="#63b8ff" stroke="#63b8ff" points="873.75,-175.45 864.95,-181.34 875.51,-182.23 873.75,-175.45"/>
</a>
</g>
</g>
<!-- Node9 -->
<g id="Node000009" class="node">
<title>Node9</title>
<g id="a_Node000009"><a xlink:href="types_8h.html" target="_top" xlink:title=" ">
<polygon fill="white" stroke="#666666" points="101.12,-74 48.12,-74 48.12,-55 101.12,-55 101.12,-74"/>
<text text-anchor="middle" x="74.62" y="-62" font-family="Helvetica,sans-Serif" font-size="10.00">types.h</text>
</a>
</g>
</g>
<!-- Node8&#45;&gt;Node9 -->
<g id="edge10_Node000008_Node000009" class="edge">
<title>Node8&#45;&gt;Node9</title>
<g id="a_edge10_Node000008_Node000009"><a xlink:title=" ">
<path fill="none" stroke="#63b8ff" d="M410.03,-249.94C293.72,-237.39 54.14,-204.18 5.62,-140 -2.43,-129.36 -0.76,-121.71 5.62,-110 13.26,-95.97 27.45,-85.69 40.98,-78.57"/>
<polygon fill="#63b8ff" stroke="#63b8ff" points="42.67,-81.64 50.15,-74.14 39.62,-75.34 42.67,-81.64"/>
</a>
</g>
</g>
<!-- Node10 -->
<g id="Node000010" class="node">
<title>Node10</title>
<g id="a_Node000010"><a xlink:href="opcodes_8h.html" target="_top" xlink:title=" ">
<polygon fill="white" stroke="#666666" points="321.62,-74 255.62,-74 255.62,-55 321.62,-55 321.62,-74"/>
<text text-anchor="middle" x="288.62" y="-62" font-family="Helvetica,sans-Serif" font-size="10.00">opcodes.h</text>
</a>
</g>
</g>
<!-- Node8&#45;&gt;Node10 -->
<g id="edge12_Node000008_Node000010" class="edge">
<title>Node8&#45;&gt;Node10</title>
<g id="a_edge12_Node000008_Node000010"><a xlink:title=" ">
<path fill="none" stroke="#63b8ff" d="M464.7,-241.85C458.66,-231.99 450.71,-218.43 444.62,-206 424.35,-164.65 438.54,-142.2 405.62,-110 385.54,-90.37 355.93,-79.22 331.52,-72.99"/>
<polygon fill="#63b8ff" stroke="#63b8ff" points="332.3,-69.58 321.76,-70.69 330.69,-76.39 332.3,-69.58"/>
</a>
</g>
</g>
<!-- Node11 -->
<g id="Node000011" class="node">
<title>Node11</title>
<g id="a_Node000011"><a xlink:href="flags_8h.html" target="_top" xlink:title=" ">
<polygon fill="white" stroke="#666666" points="561.12,-200.5 512.12,-200.5 512.12,-181.5 561.12,-181.5 561.12,-200.5"/>
<text text-anchor="middle" x="536.62" y="-188.5" font-family="Helvetica,sans-Serif" font-size="10.00">flags.h</text>
</a>
</g>
</g>
<!-- Node8&#45;&gt;Node11 -->
<g id="edge13_Node000008_Node000011" class="edge">
<title>Node8&#45;&gt;Node11</title>
<g id="a_edge13_Node000008_Node000011"><a xlink:title=" ">
<path fill="none" stroke="#63b8ff" d="M487.6,-241.8C497.42,-231.82 510.57,-218.46 520.78,-208.09"/>
<polygon fill="#63b8ff" stroke="#63b8ff" points="523.39,-210.43 527.91,-200.84 518.4,-205.52 523.39,-210.43"/>
</a>
</g>
</g>
<!-- Node12 -->
<g id="Node000012" class="node">
<title>Node12</title>
<g id="a_Node000012"><a xlink:href="wire_8h.html" target="_top" xlink:title=" ">
<polygon fill="white" stroke="#666666" points="295.12,-200.5 248.12,-200.5 248.12,-181.5 295.12,-181.5 295.12,-200.5"/>
<text text-anchor="middle" x="271.62" y="-188.5" font-family="Helvetica,sans-Serif" font-size="10.00">wire.h</text>
</a>
</g>
</g>
<!-- Node8&#45;&gt;Node12 -->
<g id="edge14_Node000008_Node000012" class="edge">
<title>Node8&#45;&gt;Node12</title>
<g id="a_edge14_Node000008_Node000012"><a xlink:title=" ">
<path fill="none" stroke="#63b8ff" d="M429.29,-241.95C391.92,-230.12 339.26,-213.43 305.28,-202.67"/>
<polygon fill="#63b8ff" stroke="#63b8ff" points="305.96,-199.21 295.37,-199.53 303.85,-205.88 305.96,-199.21"/>
</a>
</g>
</g>
<!-- Node8&#45;&gt;Node16 -->
<g id="edge20_Node000008_Node000016" class="edge">
<title>Node8&#45;&gt;Node16</title>
<g id="a_edge20_Node000008_Node000016"><a xlink:title=" ">
<path fill="none" stroke="#63b8ff" d="M519.26,-241.95C550.83,-232.24 592.99,-219.27 626.44,-208.98"/>
<polygon fill="#63b8ff" stroke="#63b8ff" points="627.55,-212.3 636.08,-206.01 625.49,-205.61 627.55,-212.3"/>
</a>
</g>
</g>
<!-- Node17 -->
<g id="Node000017" class="node">
<title>Node17</title>
<g id="a_Node000017"><a xlink:href="gsi_8h.html" target="_top" xlink:title=" ">
<polygon fill="white" stroke="#666666" points="493.62,-200.5 453.62,-200.5 453.62,-181.5 493.62,-181.5 493.62,-200.5"/>
<text text-anchor="middle" x="473.62" y="-188.5" font-family="Helvetica,sans-Serif" font-size="10.00">gsi.h</text>
</a>
</g>
</g>
<!-- Node8&#45;&gt;Node17 -->
<g id="edge24_Node000008_Node000017" class="edge">
<title>Node8&#45;&gt;Node17</title>
<g id="a_edge24_Node000008_Node000017"><a xlink:title=" ">
<path fill="none" stroke="#63b8ff" d="M473.62,-241.8C473.62,-232.7 473.62,-220.79 473.62,-210.9"/>
<polygon fill="#63b8ff" stroke="#63b8ff" points="477.12,-210.84 473.62,-200.84 470.12,-210.84 477.12,-210.84"/>
</a>
</g>
</g>
<!-- Node9&#45;&gt;Node3 -->
<g id="edge11_Node000009_Node000003" class="edge">
<title>Node9&#45;&gt;Node3</title>
<g id="a_edge11_Node000009_Node000003"><a xlink:title=" ">
<path fill="none" stroke="#63b8ff" d="M101.56,-61.61C216.19,-53.59 663.44,-22.27 795.01,-13.06"/>
<polygon fill="#63b8ff" stroke="#63b8ff" points="795.27,-16.55 805,-12.36 794.78,-9.57 795.27,-16.55"/>
</a>
</g>
</g>
<!-- Node13 -->
<g id="Node000013" class="node">
<title>Node13</title>
<g id="a_Node000013"><a xlink:href="wire__core__requests_8h.html" target="_top" xlink:title=" ">
<polygon fill="white" stroke="#666666" points="134.62,-134.5 14.62,-134.5 14.62,-115.5 134.62,-115.5 134.62,-134.5"/>
<text text-anchor="middle" x="74.62" y="-122.5" font-family="Helvetica,sans-Serif" font-size="10.00">wire_core_requests.h</text>
</a>
</g>
</g>
<!-- Node12&#45;&gt;Node13 -->
<g id="edge15_Node000012_Node000013" class="edge">
<title>Node12&#45;&gt;Node13</title>
<g id="a_edge15_Node000012_Node000013"><a xlink:title=" ">
<path fill="none" stroke="#63b8ff" d="M247.85,-182.28C213.7,-171.19 150.47,-150.64 110.58,-137.68"/>
<polygon fill="#63b8ff" stroke="#63b8ff" points="111.56,-134.32 100.97,-134.56 109.4,-140.98 111.56,-134.32"/>
</a>
</g>
</g>
<!-- Node14 -->
<g id="Node000014" class="node">
<title>Node14</title>
<g id="a_Node000014"><a xlink:href="wire__write__extended__requests_8h.html" target="_top" xlink:title=" ">
<polygon fill="white" stroke="#666666" points="397.12,-140 278.12,-140 278.12,-110 397.12,-110 397.12,-140"/>
<text text-anchor="start" x="286.12" y="-128" font-family="Helvetica,sans-Serif" font-size="10.00">wire_write_extended</text>
<text text-anchor="middle" x="337.62" y="-117" font-family="Helvetica,sans-Serif" font-size="10.00">_requests.h</text>
</a>
</g>
</g>
<!-- Node12&#45;&gt;Node14 -->
<g id="edge18_Node000012_Node000014" class="edge">
<title>Node12&#45;&gt;Node14</title>
<g id="a_edge18_Node000012_Node000014"><a xlink:title=" ">
<path fill="none" stroke="#63b8ff" d="M280.52,-181.37C289.46,-172.69 303.61,-158.98 315.58,-147.37"/>
<polygon fill="#63b8ff" stroke="#63b8ff" points="318.32,-149.59 323.06,-140.12 313.44,-144.56 318.32,-149.59"/>
</a>
</g>
</g>
<!-- Node15 -->
<g id="Node000015" class="node">
<title>Node15</title>
<g id="a_Node000015"><a xlink:href="wire__vendor__ext_8h.html" target="_top" xlink:title=" ">
<polygon fill="white" stroke="#666666" points="260.12,-134.5 153.12,-134.5 153.12,-115.5 260.12,-115.5 260.12,-134.5"/>
<text text-anchor="middle" x="206.62" y="-122.5" font-family="Helvetica,sans-Serif" font-size="10.00">wire_vendor_ext.h</text>
</a>
</g>
</g>
<!-- Node12&#45;&gt;Node15 -->
<g id="edge19_Node000012_Node000015" class="edge">
<title>Node12&#45;&gt;Node15</title>
<g id="a_edge19_Node000012_Node000015"><a xlink:title=" ">
<path fill="none" stroke="#63b8ff" d="M262.85,-181.37C252.63,-171.31 235.54,-154.48 222.87,-142.01"/>
<polygon fill="#63b8ff" stroke="#63b8ff" points="225.24,-139.43 215.66,-134.91 220.33,-144.42 225.24,-139.43"/>
</a>
</g>
</g>
<!-- Node13&#45;&gt;Node9 -->
<g id="edge16_Node000013_Node000009" class="edge">
<title>Node13&#45;&gt;Node9</title>
<g id="a_edge16_Node000013_Node000009"><a xlink:title=" ">
<path fill="none" stroke="#63b8ff" d="M74.62,-115.37C74.62,-107.25 74.62,-94.81 74.62,-84.39"/>
<polygon fill="#63b8ff" stroke="#63b8ff" points="78.12,-84.17 74.62,-74.17 71.12,-84.17 78.12,-84.17"/>
</a>
</g>
</g>
<!-- Node13&#45;&gt;Node10 -->
<g id="edge17_Node000013_Node000010" class="edge">
<title>Node13&#45;&gt;Node10</title>
<g id="a_edge17_Node000013_Node000010"><a xlink:title=" ">
<path fill="none" stroke="#63b8ff" d="M105.73,-115.49C143.22,-105.25 206.29,-88 247.69,-76.69"/>
<polygon fill="#63b8ff" stroke="#63b8ff" points="248.74,-80.03 257.46,-74.02 246.89,-73.28 248.74,-80.03"/>
</a>
</g>
</g>
<!-- Node16&#45;&gt;Node3 -->
<g id="edge21_Node000016_Node000003" class="edge">
<title>Node16&#45;&gt;Node3</title>
<g id="a_edge21_Node000016_Node000003"><a xlink:title=" ">
<path fill="none" stroke="#63b8ff" d="M693.39,-175.91C720.76,-143.15 788.61,-61.97 817.85,-26.98"/>
<polygon fill="#63b8ff" stroke="#63b8ff" points="820.67,-29.05 824.4,-19.13 815.3,-24.56 820.67,-29.05"/>
</a>
</g>
</g>
<!-- Node16&#45;&gt;Node4 -->
<g id="edge22_Node000016_Node000004" class="edge">
<title>Node16&#45;&gt;Node4</title>
<g id="a_edge22_Node000016_Node000004"><a xlink:title=" ">
<path fill="none" stroke="#63b8ff" d="M707.73,-175.95C727.96,-165.08 755.79,-150.11 775.71,-139.4"/>
<polygon fill="#63b8ff" stroke="#63b8ff" points="777.63,-142.34 784.78,-134.52 774.31,-136.17 777.63,-142.34"/>
</a>
</g>
</g>
<!-- Node16&#45;&gt;Node7 -->
<g id="edge23_Node000016_Node000007" class="edge">
<title>Node16&#45;&gt;Node7</title>
<g id="a_edge23_Node000016_Node000007"><a xlink:title=" ">
<path fill="none" stroke="#63b8ff" d="M667.86,-175.8C658.19,-165.82 645.25,-152.46 635.2,-142.09"/>
<polygon fill="#63b8ff" stroke="#63b8ff" points="637.66,-139.59 628.18,-134.84 632.63,-144.46 637.66,-139.59"/>
</a>
</g>
</g>
<!-- Node21&#45;&gt;Node3 -->
<g id="edge31_Node000021_Node000003" class="edge">
<title>Node21&#45;&gt;Node3</title>
<g id="a_edge31_Node000021_Node000003"><a xlink:title=" ">
<path fill="none" stroke="#63b8ff" d="M1061.38,-181.19C1054.78,-157.1 1033.12,-89.61 989.62,-55 954.55,-27.11 902.95,-16.69 868.36,-12.8"/>
<polygon fill="#63b8ff" stroke="#63b8ff" points="868.51,-9.3 858.21,-11.8 867.82,-16.27 868.51,-9.3"/>
</a>
</g>
</g>
<!-- Node21&#45;&gt;Node4 -->
<g id="edge30_Node000021_Node000004" class="edge">
<title>Node21&#45;&gt;Node4</title>
<g id="a_edge30_Node000021_Node000004"><a xlink:title=" ">
<path fill="none" stroke="#63b8ff" d="M1028.42,-181.44C979.05,-169.42 889.6,-147.65 838.71,-135.27"/>
<polygon fill="#63b8ff" stroke="#63b8ff" points="839.31,-131.82 828.77,-132.85 837.66,-138.62 839.31,-131.82"/>
</a>
</g>
</g>
<!-- Node23&#45;&gt;Node5 -->
<g id="edge34_Node000023_Node000005" class="edge">
<title>Node23&#45;&gt;Node5</title>
<g id="a_edge34_Node000023_Node000005"><a xlink:title=" ">
<path fill="none" stroke="#63b8ff" d="M1145.32,-307.87C1135.64,-298.88 1120.27,-284.61 1108.45,-273.64"/>
<polygon fill="#63b8ff" stroke="#63b8ff" points="1110.66,-270.91 1100.95,-266.67 1105.9,-276.04 1110.66,-270.91"/>
</a>
</g>
</g>
<!-- Node23&#45;&gt;Node24 -->
<g id="edge35_Node000023_Node000024" class="edge">
<title>Node23&#45;&gt;Node24</title>
<g id="a_edge35_Node000023_Node000024"><a xlink:title=" ">
<path fill="none" stroke="#63b8ff" d="M1160.96,-307.87C1167.31,-299.23 1177.25,-285.7 1185.18,-274.92"/>
<polygon fill="#63b8ff" stroke="#63b8ff" points="1188.14,-276.8 1191.24,-266.67 1182.5,-272.65 1188.14,-276.8"/>
</a>
</g>
</g>
</g>
</svg>

<g id="navigator" transform="translate(0 0)" fill="#404254">
  <rect fill="#f2f5e9" fill-opacity="0.5" stroke="#606060" stroke-width=".5" x="0" y="0" width="60" height="60"/>
  <use id="zoomplus" xlink:href="#zoomPlus" x="17" y="9" onmousedown="handleZoom(evt,'in')"/>
  <use id="zoomminus" xlink:href="#zoomMin" x="42" y="9" onmousedown="handleZoom(evt,'out')"/>
  <use id="reset" xlink:href="#resetDef" x="30" y="36" onmousedown="handleReset()"/>
   <use id="arrowup" xlink:href="#arrowUp" x="0" y="0" onmousedown="handlePan(0,-1)"/>
  <use id="arrowright" xlink:href="#arrowRight" x="0" y="0" onmousedown="handlePan(1,0)"/>
  <use id="arrowdown" xlink:href="#arrowDown" x="0" y="0" onmousedown="handlePan(0,1)"/>
  <use id="arrowleft" xlink:href="#arrowLeft" x="0" y="0" onmousedown="handlePan(-1,0)"/>
</g>
<svg viewBox="0 0 15 15" width="100%" height="30px" preserveAspectRatio="xMaxYMin meet">
 <g id="arrow_out" transform="scale(0.3 0.3)">
  <a xlink:href="xrdqstats_8c__incl_org.svg" target="_base">
   <rect id="button" ry="5" rx="5" y="6" x="6" height="38" width="38"
        fill="#f2f5e9" fill-opacity="0.5" stroke="#606060" stroke-width="1.0"/>
   <path id="arrow"
     d="M 11.500037,31.436501 C 11.940474,20.09759 22.043105,11.32322 32.158766,21.979434 L 37.068811,17.246167 C 37.068811,17.246167 37.088388,32 37.088388,32 L 22.160133,31.978069 C 22.160133,31.978069 26.997745,27.140456 26.997745,27.140456 C 18.528582,18.264221 13.291696,25.230495 11.500037,31.436501 z"
     style="fill:#404040;"/>
  </a>
 </g>
</svg>

<style type='text/css'>
<![CDATA[
[data-mouse-over-selected='false'] { opacity: 0.7; }
[data-mouse-over-selected='true']  { opacity: 1.0; }
]]>
</style>
<script type="application/ecmascript"><![CDATA[
document.addEventListener('DOMContentLoaded', (event) => {
  highlightEdges();
  highlightAdjacentNodes();
});
]]></script>
</svg>
