<?xml version="1.0" encoding="UTF-8" standalone="no"?>
<!DOCTYPE svg PUBLIC "-//W3C//DTD SVG 1.1//EN"
 "http://www.w3.org/Graphics/SVG/1.1/DTD/svg11.dtd">
<!-- Generated by graphviz version 2.43.0 (0)
 -->
<!-- Title: client/apps/auth/xrdsssadmin.c Pages: 1 -->
<svg width="1251pt" height="456pt"
 viewBox="0.00 0.00 1250.50 456.00" xmlns="http://www.w3.org/2000/svg" xmlns:xlink="http://www.w3.org/1999/xlink">
<g id="graph0" class="graph" transform="scale(1 1) rotate(0) translate(4 452)">
<title>client/apps/auth/xrdsssadmin.c</title>
<!-- Node1 -->
<g id="Node000001" class="node">
<title>Node1</title>
<g id="a_Node000001"><a xlink:title=" ">
<polygon fill="#999999" stroke="#666666" points="960.5,-448 792.5,-448 792.5,-429 960.5,-429 960.5,-448"/>
<text text-anchor="middle" x="876.5" y="-436" font-family="Helvetica,sans-Serif" font-size="10.00">client/apps/auth/xrdsssadmin.c</text>
</a>
</g>
</g>
<!-- Node2 -->
<g id="Node000002" class="node">
<title>Node2</title>
<g id="a_Node000002"><a xlink:href="brix_8h.html" target="_top" xlink:title=" ">
<polygon fill="white" stroke="#666666" points="593.5,-332.5 549.5,-332.5 549.5,-313.5 593.5,-313.5 593.5,-332.5"/>
<text text-anchor="middle" x="571.5" y="-320.5" font-family="Helvetica,sans-Serif" font-size="10.00">brix.h</text>
</a>
</g>
</g>
<!-- Node1&#45;&gt;Node2 -->
<g id="edge1_Node000001_Node000002" class="edge">
<title>Node1&#45;&gt;Node2</title>
<g id="a_edge1_Node000001_Node000002"><a xlink:title=" ">
<path fill="none" stroke="#63b8ff" d="M792.4,-432.06C724.1,-426.14 634.52,-414.51 605.5,-393 589.11,-380.85 580.18,-358.64 575.63,-342.69"/>
<polygon fill="#63b8ff" stroke="#63b8ff" points="578.99,-341.69 573.15,-332.85 572.2,-343.41 578.99,-341.69"/>
</a>
</g>
</g>
<!-- Node5 -->
<g id="Node000005" class="node">
<title>Node5</title>
<g id="a_Node000005"><a xlink:title=" ">
<polygon fill="#e0e0e0" stroke="#999999" points="870.5,-266.5 820.5,-266.5 820.5,-247.5 870.5,-247.5 870.5,-266.5"/>
<text text-anchor="middle" x="845.5" y="-254.5" font-family="Helvetica,sans-Serif" font-size="10.00">stdio.h</text>
</a>
</g>
</g>
<!-- Node1&#45;&gt;Node5 -->
<g id="edge33_Node000001_Node000005" class="edge">
<title>Node1&#45;&gt;Node5</title>
<g id="a_edge33_Node000001_Node000005"><a xlink:title=" ">
<path fill="none" stroke="#63b8ff" d="M860.47,-428.95C848.09,-421.35 831.85,-408.97 824.5,-393 806.55,-354.01 824.47,-302.68 836.52,-275.94"/>
<polygon fill="#63b8ff" stroke="#63b8ff" points="839.79,-277.22 840.91,-266.68 833.46,-274.22 839.79,-277.22"/>
</a>
</g>
</g>
<!-- Node6 -->
<g id="Node000006" class="node">
<title>Node6</title>
<g id="a_Node000006"><a xlink:href="time_8h.html" target="_top" xlink:title=" ">
<polygon fill="white" stroke="#666666" points="784.5,-266.5 736.5,-266.5 736.5,-247.5 784.5,-247.5 784.5,-266.5"/>
<text text-anchor="middle" x="760.5" y="-254.5" font-family="Helvetica,sans-Serif" font-size="10.00">time.h</text>
</a>
</g>
</g>
<!-- Node1&#45;&gt;Node6 -->
<g id="edge36_Node000001_Node000006" class="edge">
<title>Node1&#45;&gt;Node6</title>
<g id="a_edge36_Node000001_Node000006"><a xlink:title=" ">
<path fill="none" stroke="#63b8ff" d="M859.72,-428.98C845.93,-421.24 826.75,-408.65 814.5,-393 786.32,-357.02 770.99,-304.41 764.43,-276.68"/>
<polygon fill="#63b8ff" stroke="#63b8ff" points="767.81,-275.75 762.21,-266.75 760.97,-277.28 767.81,-275.75"/>
</a>
</g>
</g>
<!-- Node21 -->
<g id="Node000021" class="node">
<title>Node21</title>
<g id="a_Node000021"><a xlink:href="sss__keytab_8h.html" target="_top" xlink:title=" ">
<polygon fill="white" stroke="#666666" points="737,-393 614,-393 614,-374 737,-374 737,-393"/>
<text text-anchor="middle" x="675.5" y="-381" font-family="Helvetica,sans-Serif" font-size="10.00">auth/sss/sss_keytab.h</text>
</a>
</g>
</g>
<!-- Node1&#45;&gt;Node21 -->
<g id="edge29_Node000001_Node000021" class="edge">
<title>Node1&#45;&gt;Node21</title>
<g id="a_edge29_Node000001_Node000021"><a xlink:title=" ">
<path fill="none" stroke="#63b8ff" d="M844.21,-428.98C809.88,-419.93 755.44,-405.58 717.73,-395.64"/>
<polygon fill="#63b8ff" stroke="#63b8ff" points="718.61,-392.25 708.05,-393.08 716.82,-399.02 718.61,-392.25"/>
</a>
</g>
</g>
<!-- Node23 -->
<g id="Node000023" class="node">
<title>Node23</title>
<g id="a_Node000023"><a xlink:href="version_8h.html" target="_top" xlink:title=" ">
<polygon fill="white" stroke="#666666" points="919.5,-393 833.5,-393 833.5,-374 919.5,-374 919.5,-393"/>
<text text-anchor="middle" x="876.5" y="-381" font-family="Helvetica,sans-Serif" font-size="10.00">core/version.h</text>
</a>
</g>
</g>
<!-- Node1&#45;&gt;Node23 -->
<g id="edge32_Node000001_Node000023" class="edge">
<title>Node1&#45;&gt;Node23</title>
<g id="a_edge32_Node000001_Node000023"><a xlink:title=" ">
<path fill="none" stroke="#63b8ff" d="M876.5,-428.75C876.5,-421.8 876.5,-411.85 876.5,-403.13"/>
<polygon fill="#63b8ff" stroke="#63b8ff" points="880,-403.09 876.5,-393.09 873,-403.09 880,-403.09"/>
</a>
</g>
</g>
<!-- Node24 -->
<g id="Node000024" class="node">
<title>Node24</title>
<g id="a_Node000024"><a xlink:title=" ">
<polygon fill="#e0e0e0" stroke="#999999" points="991,-393 938,-393 938,-374 991,-374 991,-393"/>
<text text-anchor="middle" x="964.5" y="-381" font-family="Helvetica,sans-Serif" font-size="10.00">stdlib.h</text>
</a>
</g>
</g>
<!-- Node1&#45;&gt;Node24 -->
<g id="edge34_Node000001_Node000024" class="edge">
<title>Node1&#45;&gt;Node24</title>
<g id="a_edge34_Node000001_Node000024"><a xlink:title=" ">
<path fill="none" stroke="#63b8ff" d="M890.64,-428.98C904.29,-420.77 925.19,-408.18 941.28,-398.49"/>
<polygon fill="#63b8ff" stroke="#63b8ff" points="943.34,-401.33 950.1,-393.17 939.73,-395.33 943.34,-401.33"/>
</a>
</g>
</g>
<!-- Node25 -->
<g id="Node000025" class="node">
<title>Node25</title>
<g id="a_Node000025"><a xlink:title=" ">
<polygon fill="#e0e0e0" stroke="#999999" points="1062,-393 1009,-393 1009,-374 1062,-374 1062,-393"/>
<text text-anchor="middle" x="1035.5" y="-381" font-family="Helvetica,sans-Serif" font-size="10.00">string.h</text>
</a>
</g>
</g>
<!-- Node1&#45;&gt;Node25 -->
<g id="edge35_Node000001_Node000025" class="edge">
<title>Node1&#45;&gt;Node25</title>
<g id="a_edge35_Node000001_Node000025"><a xlink:title=" ">
<path fill="none" stroke="#63b8ff" d="M902.05,-428.98C928.62,-420.13 970.44,-406.19 1000.17,-396.28"/>
<polygon fill="#63b8ff" stroke="#63b8ff" points="1001.37,-399.56 1009.75,-393.08 999.16,-392.92 1001.37,-399.56"/>
</a>
</g>
</g>
<!-- Node26 -->
<g id="Node000026" class="node">
<title>Node26</title>
<g id="a_Node000026"><a xlink:title=" ">
<polygon fill="#e0e0e0" stroke="#999999" points="1136.5,-393 1080.5,-393 1080.5,-374 1136.5,-374 1136.5,-393"/>
<text text-anchor="middle" x="1108.5" y="-381" font-family="Helvetica,sans-Serif" font-size="10.00">unistd.h</text>
</a>
</g>
</g>
<!-- Node1&#45;&gt;Node26 -->
<g id="edge37_Node000001_Node000026" class="edge">
<title>Node1&#45;&gt;Node26</title>
<g id="a_edge37_Node000001_Node000026"><a xlink:title=" ">
<path fill="none" stroke="#63b8ff" d="M913.89,-428.99C951.07,-420.51 1010.03,-407.07 1070.17,-393.3"/>
<polygon fill="#63b8ff" stroke="#63b8ff" points="1071.25,-396.64 1080.22,-391 1069.69,-389.82 1071.25,-396.64"/>
</a>
</g>
</g>
<!-- Node27 -->
<g id="Node000027" class="node">
<title>Node27</title>
<g id="a_Node000027"><a xlink:title=" ">
<polygon fill="#e0e0e0" stroke="#999999" points="1242.5,-393 1154.5,-393 1154.5,-374 1242.5,-374 1242.5,-393"/>
<text text-anchor="middle" x="1198.5" y="-381" font-family="Helvetica,sans-Serif" font-size="10.00">openssl/rand.h</text>
</a>
</g>
</g>
<!-- Node1&#45;&gt;Node27 -->
<g id="edge38_Node000001_Node000027" class="edge">
<title>Node1&#45;&gt;Node27</title>
<g id="a_edge38_Node000001_Node000027"><a xlink:title=" ">
<path fill="none" stroke="#63b8ff" d="M928.23,-428.98C987.47,-419.23 1084.08,-403.33 1144.33,-393.42"/>
<polygon fill="#63b8ff" stroke="#63b8ff" points="1145.1,-396.84 1154.4,-391.76 1143.97,-389.93 1145.1,-396.84"/>
</a>
</g>
</g>
<!-- Node3 -->
<g id="Node000003" class="node">
<title>Node3</title>
<g id="a_Node000003"><a xlink:title=" ">
<polygon fill="#e0e0e0" stroke="#999999" points="476,-19 423,-19 423,0 476,0 476,-19"/>
<text text-anchor="middle" x="449.5" y="-7" font-family="Helvetica,sans-Serif" font-size="10.00">stdint.h</text>
</a>
</g>
</g>
<!-- Node2&#45;&gt;Node3 -->
<g id="edge2_Node000002_Node000003" class="edge">
<title>Node2&#45;&gt;Node3</title>
<g id="a_edge2_Node000002_Node000003"><a xlink:title=" ">
<path fill="none" stroke="#63b8ff" d="M549.25,-317.73C511.15,-310.16 431.17,-293.18 365.5,-272 291.31,-248.07 84.03,-204.66 40.5,-140 33.05,-128.94 32.26,-120.48 40.5,-110 86.76,-51.14 320.96,-22.76 412.63,-13.78"/>
<polygon fill="#63b8ff" stroke="#63b8ff" points="413.21,-17.24 422.83,-12.8 412.54,-10.27 413.21,-17.24"/>
</a>
</g>
</g>
<!-- Node4 -->
<g id="Node000004" class="node">
<title>Node4</title>
<g id="a_Node000004"><a xlink:title=" ">
<polygon fill="#e0e0e0" stroke="#999999" points="736.5,-134.5 680.5,-134.5 680.5,-115.5 736.5,-115.5 736.5,-134.5"/>
<text text-anchor="middle" x="708.5" y="-122.5" font-family="Helvetica,sans-Serif" font-size="10.00">stddef.h</text>
</a>
</g>
</g>
<!-- Node2&#45;&gt;Node4 -->
<g id="edge3_Node000002_Node000004" class="edge">
<title>Node2&#45;&gt;Node4</title>
<g id="a_edge3_Node000002_Node000004"><a xlink:title=" ">
<path fill="none" stroke="#63b8ff" d="M587.29,-313.48C602.33,-304.73 624.78,-289.87 639.5,-272 672.38,-232.09 693.7,-173.91 703.05,-144.49"/>
<polygon fill="#63b8ff" stroke="#63b8ff" points="706.46,-145.31 706.04,-134.73 699.76,-143.26 706.46,-145.31"/>
</a>
</g>
</g>
<!-- Node2&#45;&gt;Node5 -->
<g id="edge4_Node000002_Node000005" class="edge">
<title>Node2&#45;&gt;Node5</title>
<g id="a_edge4_Node000002_Node000005"><a xlink:title=" ">
<path fill="none" stroke="#63b8ff" d="M589.15,-313.37C593.74,-311.38 598.74,-309.43 603.5,-308 693.35,-281 721.36,-298.02 811.5,-272 813.39,-271.46 815.31,-270.84 817.23,-270.18"/>
<polygon fill="#63b8ff" stroke="#63b8ff" points="818.58,-273.41 826.7,-266.6 816.11,-266.86 818.58,-273.41"/>
</a>
</g>
</g>
<!-- Node2&#45;&gt;Node6 -->
<g id="edge5_Node000002_Node000006" class="edge">
<title>Node2&#45;&gt;Node6</title>
<g id="a_edge5_Node000002_Node000006"><a xlink:title=" ">
<path fill="none" stroke="#63b8ff" d="M589.96,-313.48C594.36,-311.57 599.06,-309.64 603.5,-308 655.35,-288.89 670.11,-289.56 722.5,-272 724.4,-271.36 726.35,-270.69 728.31,-270.01"/>
<polygon fill="#63b8ff" stroke="#63b8ff" points="729.84,-273.18 738.07,-266.51 727.48,-266.59 729.84,-273.18"/>
</a>
</g>
</g>
<!-- Node7 -->
<g id="Node000007" class="node">
<title>Node7</title>
<g id="a_Node000007"><a xlink:title=" ">
<polygon fill="#e0e0e0" stroke="#999999" points="656.5,-134.5 584.5,-134.5 584.5,-115.5 656.5,-115.5 656.5,-134.5"/>
<text text-anchor="middle" x="620.5" y="-122.5" font-family="Helvetica,sans-Serif" font-size="10.00">sys/types.h</text>
</a>
</g>
</g>
<!-- Node2&#45;&gt;Node7 -->
<g id="edge8_Node000002_Node000007" class="edge">
<title>Node2&#45;&gt;Node7</title>
<g id="a_edge8_Node000002_Node000007"><a xlink:title=" ">
<path fill="none" stroke="#63b8ff" d="M580.27,-313.42C597.92,-295.46 637.24,-251.78 651.5,-206 655.46,-193.27 655.15,-188.82 651.5,-176 648.1,-164.07 640.94,-152.2 634.36,-143.02"/>
<polygon fill="#63b8ff" stroke="#63b8ff" points="636.98,-140.67 628.14,-134.84 631.41,-144.91 636.98,-140.67"/>
</a>
</g>
</g>
<!-- Node8 -->
<g id="Node000008" class="node">
<title>Node8</title>
<g id="a_Node000008"><a xlink:href="protocol_8h.html" target="_top" xlink:title=" ">
<polygon fill="white" stroke="#666666" points="502,-272 375,-272 375,-242 502,-242 502,-272"/>
<text text-anchor="start" x="383" y="-260" font-family="Helvetica,sans-Serif" font-size="10.00">protocols/root/protocol</text>
<text text-anchor="middle" x="438.5" y="-249" font-family="Helvetica,sans-Serif" font-size="10.00">/protocol.h</text>
</a>
</g>
</g>
<!-- Node2&#45;&gt;Node8 -->
<g id="edge9_Node000002_Node000008" class="edge">
<title>Node2&#45;&gt;Node8</title>
<g id="a_edge9_Node000002_Node000008"><a xlink:title=" ">
<path fill="none" stroke="#63b8ff" d="M553.56,-313.37C534.07,-303.99 502.34,-288.72 477.14,-276.59"/>
<polygon fill="#63b8ff" stroke="#63b8ff" points="478.36,-273.3 467.83,-272.12 475.33,-279.61 478.36,-273.3"/>
</a>
</g>
</g>
<!-- Node16 -->
<g id="Node000016" class="node">
<title>Node16</title>
<g id="a_Node000016"><a xlink:href="wire__codec_8h.html" target="_top" xlink:title=" ">
<polygon fill="white" stroke="#666666" points="642,-206 515,-206 515,-176 642,-176 642,-206"/>
<text text-anchor="start" x="523" y="-194" font-family="Helvetica,sans-Serif" font-size="10.00">protocols/root/protocol</text>
<text text-anchor="middle" x="578.5" y="-183" font-family="Helvetica,sans-Serif" font-size="10.00">/codec/wire_codec.h</text>
</a>
</g>
</g>
<!-- Node2&#45;&gt;Node16 -->
<g id="edge25_Node000002_Node000016" class="edge">
<title>Node2&#45;&gt;Node16</title>
<g id="a_edge25_Node000002_Node000016"><a xlink:title=" ">
<path fill="none" stroke="#63b8ff" d="M571.96,-313.47C573.01,-294.04 575.6,-245.87 577.19,-216.36"/>
<polygon fill="#63b8ff" stroke="#63b8ff" points="580.7,-216.24 577.74,-206.07 573.71,-215.86 580.7,-216.24"/>
</a>
</g>
</g>
<!-- Node18 -->
<g id="Node000018" class="node">
<title>Node18</title>
<g id="a_Node000018"><a xlink:href="brix__net_8h.html" target="_top" xlink:title=" ">
<polygon fill="white" stroke="#666666" points="65,-266.5 0,-266.5 0,-247.5 65,-247.5 65,-266.5"/>
<text text-anchor="middle" x="32.5" y="-254.5" font-family="Helvetica,sans-Serif" font-size="10.00">brix_net.h</text>
</a>
</g>
</g>
<!-- Node2&#45;&gt;Node18 -->
<g id="edge26_Node000002_Node000018" class="edge">
<title>Node2&#45;&gt;Node18</title>
<g id="a_edge26_Node000002_Node000018"><a xlink:title=" ">
<path fill="none" stroke="#63b8ff" d="M549.38,-321.58C479,-319.85 254.34,-311.41 73.5,-272 70.51,-271.35 67.43,-270.55 64.38,-269.67"/>
<polygon fill="#63b8ff" stroke="#63b8ff" points="65.38,-266.32 54.79,-266.65 63.28,-272.99 65.38,-266.32"/>
</a>
</g>
</g>
<!-- Node19 -->
<g id="Node000019" class="node">
<title>Node19</title>
<g id="a_Node000019"><a xlink:href="brix__auth_8h.html" target="_top" xlink:title=" ">
<polygon fill="white" stroke="#666666" points="154,-266.5 83,-266.5 83,-247.5 154,-247.5 154,-266.5"/>
<text text-anchor="middle" x="118.5" y="-254.5" font-family="Helvetica,sans-Serif" font-size="10.00">brix_auth.h</text>
</a>
</g>
</g>
<!-- Node2&#45;&gt;Node19 -->
<g id="edge27_Node000002_Node000019" class="edge">
<title>Node2&#45;&gt;Node19</title>
<g id="a_edge27_Node000002_Node000019"><a xlink:title=" ">
<path fill="none" stroke="#63b8ff" d="M549.09,-320.73C487.02,-316.9 307.87,-303.72 162.5,-272 159.11,-271.26 155.6,-270.37 152.12,-269.4"/>
<polygon fill="#63b8ff" stroke="#63b8ff" points="153.07,-266.03 142.49,-266.52 151.07,-272.74 153.07,-266.03"/>
</a>
</g>
</g>
<!-- Node20 -->
<g id="Node000020" class="node">
<title>Node20</title>
<g id="a_Node000020"><a xlink:href="brix__ops_8h.html" target="_top" xlink:title=" ">
<polygon fill="white" stroke="#666666" points="239,-266.5 172,-266.5 172,-247.5 239,-247.5 239,-266.5"/>
<text text-anchor="middle" x="205.5" y="-254.5" font-family="Helvetica,sans-Serif" font-size="10.00">brix_ops.h</text>
</a>
</g>
</g>
<!-- Node2&#45;&gt;Node20 -->
<g id="edge28_Node000002_Node000020" class="edge">
<title>Node2&#45;&gt;Node20</title>
<g id="a_edge28_Node000002_Node000020"><a xlink:title=" ">
<path fill="none" stroke="#63b8ff" d="M549.34,-319.51C497.31,-313.43 363.4,-296.56 253.5,-272 249.85,-271.19 246.08,-270.25 242.32,-269.25"/>
<polygon fill="#63b8ff" stroke="#63b8ff" points="243.08,-265.83 232.5,-266.53 241.21,-272.58 243.08,-265.83"/>
</a>
</g>
</g>
<!-- Node6&#45;&gt;Node4 -->
<g id="edge6_Node000006_Node000004" class="edge">
<title>Node6&#45;&gt;Node4</title>
<g id="a_edge6_Node000006_Node000004"><a xlink:title=" ">
<path fill="none" stroke="#63b8ff" d="M757.09,-247.47C748.75,-226.63 727.21,-172.77 715.81,-144.28"/>
<polygon fill="#63b8ff" stroke="#63b8ff" points="718.96,-142.72 711.99,-134.73 712.46,-145.32 718.96,-142.72"/>
</a>
</g>
</g>
<!-- Node6&#45;&gt;Node6 -->
<g id="edge7_Node000006_Node000006" class="edge">
<title>Node6&#45;&gt;Node6</title>
<g id="a_edge7_Node000006_Node000006"><a xlink:title=" ">
<path fill="none" stroke="#63b8ff" d="M773.83,-266.66C787.4,-272.34 802.5,-269.12 802.5,-257 802.5,-247.82 793.83,-243.75 783.72,-244.78"/>
<polygon fill="#63b8ff" stroke="#63b8ff" points="782.64,-241.45 773.83,-247.34 784.39,-248.23 782.64,-241.45"/>
</a>
</g>
</g>
<!-- Node9 -->
<g id="Node000009" class="node">
<title>Node9</title>
<g id="a_Node000009"><a xlink:href="types_8h.html" target="_top" xlink:title=" ">
<polygon fill="white" stroke="#666666" points="476,-74 423,-74 423,-55 476,-55 476,-74"/>
<text text-anchor="middle" x="449.5" y="-62" font-family="Helvetica,sans-Serif" font-size="10.00">types.h</text>
</a>
</g>
</g>
<!-- Node8&#45;&gt;Node9 -->
<g id="edge10_Node000008_Node000009" class="edge">
<title>Node8&#45;&gt;Node9</title>
<g id="a_edge10_Node000008_Node000009"><a xlink:title=" ">
<path fill="none" stroke="#63b8ff" d="M448.53,-241.78C454.9,-232.12 462.79,-218.81 467.5,-206 477.8,-178.02 476.82,-169.69 479.5,-140 480.7,-126.72 483.4,-122.75 479.5,-110 476.41,-99.9 470.18,-90.02 464.19,-82.15"/>
<polygon fill="#63b8ff" stroke="#63b8ff" points="466.74,-79.74 457.71,-74.2 461.32,-84.16 466.74,-79.74"/>
</a>
</g>
</g>
<!-- Node10 -->
<g id="Node000010" class="node">
<title>Node10</title>
<g id="a_Node000010"><a xlink:href="opcodes_8h.html" target="_top" xlink:title=" ">
<polygon fill="white" stroke="#666666" points="360.5,-74 294.5,-74 294.5,-55 360.5,-55 360.5,-74"/>
<text text-anchor="middle" x="327.5" y="-62" font-family="Helvetica,sans-Serif" font-size="10.00">opcodes.h</text>
</a>
</g>
</g>
<!-- Node8&#45;&gt;Node10 -->
<g id="edge12_Node000008_Node000010" class="edge">
<title>Node8&#45;&gt;Node10</title>
<g id="a_edge12_Node000008_Node000010"><a xlink:title=" ">
<path fill="none" stroke="#63b8ff" d="M389.75,-241.94C371.71,-234.25 352.9,-222.76 341.5,-206 316.19,-168.78 319.99,-112.67 324.16,-83.91"/>
<polygon fill="#63b8ff" stroke="#63b8ff" points="327.61,-84.45 325.77,-74.02 320.71,-83.33 327.61,-84.45"/>
</a>
</g>
</g>
<!-- Node11 -->
<g id="Node000011" class="node">
<title>Node11</title>
<g id="a_Node000011"><a xlink:href="flags_8h.html" target="_top" xlink:title=" ">
<polygon fill="white" stroke="#666666" points="400,-200.5 351,-200.5 351,-181.5 400,-181.5 400,-200.5"/>
<text text-anchor="middle" x="375.5" y="-188.5" font-family="Helvetica,sans-Serif" font-size="10.00">flags.h</text>
</a>
</g>
</g>
<!-- Node8&#45;&gt;Node11 -->
<g id="edge13_Node000008_Node000011" class="edge">
<title>Node8&#45;&gt;Node11</title>
<g id="a_edge13_Node000008_Node000011"><a xlink:title=" ">
<path fill="none" stroke="#63b8ff" d="M424.52,-241.8C414.7,-231.82 401.54,-218.46 391.33,-208.09"/>
<polygon fill="#63b8ff" stroke="#63b8ff" points="393.72,-205.52 384.21,-200.84 388.73,-210.43 393.72,-205.52"/>
</a>
</g>
</g>
<!-- Node12 -->
<g id="Node000012" class="node">
<title>Node12</title>
<g id="a_Node000012"><a xlink:href="wire_8h.html" target="_top" xlink:title=" ">
<polygon fill="white" stroke="#666666" points="279,-200.5 232,-200.5 232,-181.5 279,-181.5 279,-200.5"/>
<text text-anchor="middle" x="255.5" y="-188.5" font-family="Helvetica,sans-Serif" font-size="10.00">wire.h</text>
</a>
</g>
</g>
<!-- Node8&#45;&gt;Node12 -->
<g id="edge14_Node000008_Node000012" class="edge">
<title>Node8&#45;&gt;Node12</title>
<g id="a_edge14_Node000008_Node000012"><a xlink:title=" ">
<path fill="none" stroke="#63b8ff" d="M398.34,-241.95C365.54,-230.48 319.72,-214.46 288.9,-203.68"/>
<polygon fill="#63b8ff" stroke="#63b8ff" points="289.66,-200.24 279.07,-200.24 287.35,-206.85 289.66,-200.24"/>
</a>
</g>
</g>
<!-- Node8&#45;&gt;Node16 -->
<g id="edge20_Node000008_Node000016" class="edge">
<title>Node8&#45;&gt;Node16</title>
<g id="a_edge20_Node000008_Node000016"><a xlink:title=" ">
<path fill="none" stroke="#63b8ff" d="M469.22,-241.95C489.65,-232.62 516.67,-220.27 538.73,-210.18"/>
<polygon fill="#63b8ff" stroke="#63b8ff" points="540.21,-213.35 547.85,-206.01 537.3,-206.99 540.21,-213.35"/>
</a>
</g>
</g>
<!-- Node17 -->
<g id="Node000017" class="node">
<title>Node17</title>
<g id="a_Node000017"><a xlink:href="gsi_8h.html" target="_top" xlink:title=" ">
<polygon fill="white" stroke="#666666" points="458.5,-200.5 418.5,-200.5 418.5,-181.5 458.5,-181.5 458.5,-200.5"/>
<text text-anchor="middle" x="438.5" y="-188.5" font-family="Helvetica,sans-Serif" font-size="10.00">gsi.h</text>
</a>
</g>
</g>
<!-- Node8&#45;&gt;Node17 -->
<g id="edge24_Node000008_Node000017" class="edge">
<title>Node8&#45;&gt;Node17</title>
<g id="a_edge24_Node000008_Node000017"><a xlink:title=" ">
<path fill="none" stroke="#63b8ff" d="M438.5,-241.8C438.5,-232.7 438.5,-220.79 438.5,-210.9"/>
<polygon fill="#63b8ff" stroke="#63b8ff" points="442,-210.84 438.5,-200.84 435,-210.84 442,-210.84"/>
</a>
</g>
</g>
<!-- Node9&#45;&gt;Node3 -->
<g id="edge11_Node000009_Node000003" class="edge">
<title>Node9&#45;&gt;Node3</title>
<g id="a_edge11_Node000009_Node000003"><a xlink:title=" ">
<path fill="none" stroke="#63b8ff" d="M449.5,-54.75C449.5,-47.8 449.5,-37.85 449.5,-29.13"/>
<polygon fill="#63b8ff" stroke="#63b8ff" points="453,-29.09 449.5,-19.09 446,-29.09 453,-29.09"/>
</a>
</g>
</g>
<!-- Node13 -->
<g id="Node000013" class="node">
<title>Node13</title>
<g id="a_Node000013"><a xlink:href="wire__core__requests_8h.html" target="_top" xlink:title=" ">
<polygon fill="white" stroke="#666666" points="470.5,-134.5 350.5,-134.5 350.5,-115.5 470.5,-115.5 470.5,-134.5"/>
<text text-anchor="middle" x="410.5" y="-122.5" font-family="Helvetica,sans-Serif" font-size="10.00">wire_core_requests.h</text>
</a>
</g>
</g>
<!-- Node12&#45;&gt;Node13 -->
<g id="edge15_Node000012_Node000013" class="edge">
<title>Node12&#45;&gt;Node13</title>
<g id="a_edge15_Node000012_Node000013"><a xlink:title=" ">
<path fill="none" stroke="#63b8ff" d="M276.4,-181.37C303.1,-170.35 349.49,-151.19 380.09,-138.55"/>
<polygon fill="#63b8ff" stroke="#63b8ff" points="381.52,-141.75 389.43,-134.7 378.85,-135.28 381.52,-141.75"/>
</a>
</g>
</g>
<!-- Node14 -->
<g id="Node000014" class="node">
<title>Node14</title>
<g id="a_Node000014"><a xlink:href="wire__write__extended__requests_8h.html" target="_top" xlink:title=" ">
<polygon fill="white" stroke="#666666" points="169,-140 50,-140 50,-110 169,-110 169,-140"/>
<text text-anchor="start" x="58" y="-128" font-family="Helvetica,sans-Serif" font-size="10.00">wire_write_extended</text>
<text text-anchor="middle" x="109.5" y="-117" font-family="Helvetica,sans-Serif" font-size="10.00">_requests.h</text>
</a>
</g>
</g>
<!-- Node12&#45;&gt;Node14 -->
<g id="edge18_Node000012_Node000014" class="edge">
<title>Node12&#45;&gt;Node14</title>
<g id="a_edge18_Node000012_Node000014"><a xlink:title=" ">
<path fill="none" stroke="#63b8ff" d="M235.81,-181.37C214.23,-171.91 178.97,-156.45 151.18,-144.27"/>
<polygon fill="#63b8ff" stroke="#63b8ff" points="152.27,-140.92 141.7,-140.12 149.45,-147.34 152.27,-140.92"/>
</a>
</g>
</g>
<!-- Node15 -->
<g id="Node000015" class="node">
<title>Node15</title>
<g id="a_Node000015"><a xlink:href="wire__vendor__ext_8h.html" target="_top" xlink:title=" ">
<polygon fill="white" stroke="#666666" points="294,-134.5 187,-134.5 187,-115.5 294,-115.5 294,-134.5"/>
<text text-anchor="middle" x="240.5" y="-122.5" font-family="Helvetica,sans-Serif" font-size="10.00">wire_vendor_ext.h</text>
</a>
</g>
</g>
<!-- Node12&#45;&gt;Node15 -->
<g id="edge19_Node000012_Node000015" class="edge">
<title>Node12&#45;&gt;Node15</title>
<g id="a_edge19_Node000012_Node000015"><a xlink:title=" ">
<path fill="none" stroke="#63b8ff" d="M253.48,-181.37C251.3,-172.07 247.76,-156.98 244.93,-144.9"/>
<polygon fill="#63b8ff" stroke="#63b8ff" points="248.28,-143.84 242.59,-134.91 241.46,-145.44 248.28,-143.84"/>
</a>
</g>
</g>
<!-- Node13&#45;&gt;Node9 -->
<g id="edge16_Node000013_Node000009" class="edge">
<title>Node13&#45;&gt;Node9</title>
<g id="a_edge16_Node000013_Node000009"><a xlink:title=" ">
<path fill="none" stroke="#63b8ff" d="M416.25,-115.37C421.96,-106.81 430.85,-93.47 438.01,-82.74"/>
<polygon fill="#63b8ff" stroke="#63b8ff" points="441.09,-84.43 443.72,-74.17 435.26,-80.55 441.09,-84.43"/>
</a>
</g>
</g>
<!-- Node13&#45;&gt;Node10 -->
<g id="edge17_Node000013_Node000010" class="edge">
<title>Node13&#45;&gt;Node10</title>
<g id="a_edge17_Node000013_Node000010"><a xlink:title=" ">
<path fill="none" stroke="#63b8ff" d="M398.25,-115.37C385.14,-106.12 364.08,-91.28 348.35,-80.19"/>
<polygon fill="#63b8ff" stroke="#63b8ff" points="349.99,-77.07 339.8,-74.17 345.95,-82.79 349.99,-77.07"/>
</a>
</g>
</g>
<!-- Node16&#45;&gt;Node3 -->
<g id="edge21_Node000016_Node000003" class="edge">
<title>Node16&#45;&gt;Node3</title>
<g id="a_edge21_Node000016_Node000003"><a xlink:title=" ">
<path fill="none" stroke="#63b8ff" d="M568.89,-175.62C552.17,-150.73 516.45,-98.15 484.5,-55 477.55,-45.62 469.52,-35.37 462.9,-27.07"/>
<polygon fill="#63b8ff" stroke="#63b8ff" points="465.62,-24.86 456.63,-19.25 460.16,-29.24 465.62,-24.86"/>
</a>
</g>
</g>
<!-- Node16&#45;&gt;Node4 -->
<g id="edge22_Node000016_Node000004" class="edge">
<title>Node16&#45;&gt;Node4</title>
<g id="a_edge22_Node000016_Node000004"><a xlink:title=" ">
<path fill="none" stroke="#63b8ff" d="M607.03,-175.95C629.43,-164.93 660.36,-149.7 682.17,-138.96"/>
<polygon fill="#63b8ff" stroke="#63b8ff" points="683.77,-142.07 691.2,-134.52 680.68,-135.79 683.77,-142.07"/>
</a>
</g>
</g>
<!-- Node16&#45;&gt;Node7 -->
<g id="edge23_Node000016_Node000007" class="edge">
<title>Node16&#45;&gt;Node7</title>
<g id="a_edge23_Node000016_Node000007"><a xlink:title=" ">
<path fill="none" stroke="#63b8ff" d="M587.82,-175.8C594.11,-166.21 602.45,-153.5 609.13,-143.32"/>
<polygon fill="#63b8ff" stroke="#63b8ff" points="612.14,-145.13 614.7,-134.84 606.28,-141.28 612.14,-145.13"/>
</a>
</g>
</g>
<!-- Node21&#45;&gt;Node2 -->
<g id="edge30_Node000021_Node000002" class="edge">
<title>Node21&#45;&gt;Node2</title>
<g id="a_edge30_Node000021_Node000002"><a xlink:title=" ">
<path fill="none" stroke="#63b8ff" d="M660.15,-373.87C643.18,-364.32 615.6,-348.81 595.71,-337.62"/>
<polygon fill="#63b8ff" stroke="#63b8ff" points="597.34,-334.52 586.91,-332.67 593.91,-340.62 597.34,-334.52"/>
</a>
</g>
</g>
<!-- Node22 -->
<g id="Node000022" class="node">
<title>Node22</title>
<g id="a_Node000022"><a xlink:href="sss_8h.html" target="_top" xlink:title=" ">
<polygon fill="white" stroke="#666666" points="739,-338 612,-338 612,-308 739,-308 739,-338"/>
<text text-anchor="start" x="620" y="-326" font-family="Helvetica,sans-Serif" font-size="10.00">protocols/root/protocol</text>
<text text-anchor="middle" x="675.5" y="-315" font-family="Helvetica,sans-Serif" font-size="10.00">/sss.h</text>
</a>
</g>
</g>
<!-- Node21&#45;&gt;Node22 -->
<g id="edge31_Node000021_Node000022" class="edge">
<title>Node21&#45;&gt;Node22</title>
<g id="a_edge31_Node000021_Node000022"><a xlink:title=" ">
<path fill="none" stroke="#63b8ff" d="M675.5,-373.87C675.5,-367.11 675.5,-357.35 675.5,-348.26"/>
<polygon fill="#63b8ff" stroke="#63b8ff" points="679,-348.11 675.5,-338.11 672,-348.11 679,-348.11"/>
</a>
</g>
</g>
</g>
</svg>
