<?xml version="1.0" encoding="UTF-8" standalone="no"?>
<!DOCTYPE svg PUBLIC "-//W3C//DTD SVG 1.1//EN"
 "http://www.w3.org/Graphics/SVG/1.1/DTD/svg11.dtd">
<!-- Generated by graphviz version 2.43.0 (0)
 -->
<!-- Title: src/protocols/root/zip/zip_dir.c Pages: 1 -->
<svg width="910pt" height="148pt"
 viewBox="0.00 0.00 909.50 148.00" xmlns="http://www.w3.org/2000/svg" xmlns:xlink="http://www.w3.org/1999/xlink">
<g id="graph0" class="graph" transform="scale(1 1) rotate(0) translate(4 144)">
<title>src/protocols/root/zip/zip_dir.c</title>
<!-- Node1 -->
<g id="Node000001" class="node">
<title>Node1</title>
<g id="a_Node000001"><a xlink:title=" ">
<polygon fill="#999999" stroke="#666666" points="649.5,-140 548.5,-140 548.5,-110 649.5,-110 649.5,-140"/>
<text text-anchor="start" x="556.5" y="-128" font-family="Helvetica,sans-Serif" font-size="10.00">src/protocols/root</text>
<text text-anchor="middle" x="599" y="-117" font-family="Helvetica,sans-Serif" font-size="10.00">/zip/zip_dir.c</text>
</a>
</g>
</g>
<!-- Node2 -->
<g id="Node000002" class="node">
<title>Node2</title>
<g id="a_Node000002"><a xlink:href="zip__dir_8h.html" target="_top" xlink:title=" ">
<polygon fill="white" stroke="#666666" points="275.5,-74 218.5,-74 218.5,-55 275.5,-55 275.5,-74"/>
<text text-anchor="middle" x="247" y="-62" font-family="Helvetica,sans-Serif" font-size="10.00">zip_dir.h</text>
</a>
</g>
</g>
<!-- Node1&#45;&gt;Node2 -->
<g id="edge1_Node000001_Node000002" class="edge">
<title>Node1&#45;&gt;Node2</title>
<g id="a_edge1_Node000001_Node000002"><a xlink:title=" ">
<path fill="none" stroke="#63b8ff" d="M548.19,-115.56C477.13,-103.75 349.63,-82.56 285.73,-71.94"/>
<polygon fill="#63b8ff" stroke="#63b8ff" points="286.11,-68.45 275.67,-70.26 284.96,-75.36 286.11,-68.45"/>
</a>
</g>
</g>
<!-- Node6 -->
<g id="Node000006" class="node">
<title>Node6</title>
<g id="a_Node000006"><a xlink:href="zip__kernel_8h.html" target="_top" xlink:title=" ">
<polygon fill="white" stroke="#666666" points="169.5,-74 94.5,-74 94.5,-55 169.5,-55 169.5,-74"/>
<text text-anchor="middle" x="132" y="-62" font-family="Helvetica,sans-Serif" font-size="10.00">zip_kernel.h</text>
</a>
</g>
</g>
<!-- Node1&#45;&gt;Node6 -->
<g id="edge5_Node000001_Node000006" class="edge">
<title>Node1&#45;&gt;Node6</title>
<g id="a_edge5_Node000001_Node000006"><a xlink:title=" ">
<path fill="none" stroke="#63b8ff" d="M548.13,-117.63C457.29,-106.25 268.39,-82.59 179.8,-71.49"/>
<polygon fill="#63b8ff" stroke="#63b8ff" points="180.12,-68 169.76,-70.23 179.25,-74.95 180.12,-68"/>
</a>
</g>
</g>
<!-- Node8 -->
<g id="Node000008" class="node">
<title>Node8</title>
<g id="a_Node000008"><a xlink:href="sd_8h.html" target="_top" xlink:title=" ">
<polygon fill="white" stroke="#666666" points="401,-74 309,-74 309,-55 401,-55 401,-74"/>
<text text-anchor="middle" x="355" y="-62" font-family="Helvetica,sans-Serif" font-size="10.00">fs/backend/sd.h</text>
</a>
</g>
</g>
<!-- Node1&#45;&gt;Node8 -->
<g id="edge9_Node000001_Node000008" class="edge">
<title>Node1&#45;&gt;Node8</title>
<g id="a_edge9_Node000001_Node000008"><a xlink:title=" ">
<path fill="none" stroke="#63b8ff" d="M548.44,-111.88C504.86,-101.43 442.48,-86.47 400.45,-76.4"/>
<polygon fill="#63b8ff" stroke="#63b8ff" points="401.03,-72.94 390.49,-74.01 399.4,-79.74 401.03,-72.94"/>
</a>
</g>
</g>
<!-- Node13 -->
<g id="Node000013" class="node">
<title>Node13</title>
<g id="a_Node000013"><a xlink:href="safe__size_8h.html" target="_top" xlink:title=" ">
<polygon fill="white" stroke="#666666" points="554.5,-74 419.5,-74 419.5,-55 554.5,-55 554.5,-74"/>
<text text-anchor="middle" x="487" y="-62" font-family="Helvetica,sans-Serif" font-size="10.00">core/compat/safe_size.h</text>
</a>
</g>
</g>
<!-- Node1&#45;&gt;Node13 -->
<g id="edge16_Node000001_Node000013" class="edge">
<title>Node1&#45;&gt;Node13</title>
<g id="a_edge16_Node000001_Node000013"><a xlink:title=" ">
<path fill="none" stroke="#63b8ff" d="M572.17,-109.99C554.15,-100.58 530.54,-88.24 512.75,-78.95"/>
<polygon fill="#63b8ff" stroke="#63b8ff" points="514.02,-75.67 503.54,-74.14 510.78,-81.87 514.02,-75.67"/>
</a>
</g>
</g>
<!-- Node14 -->
<g id="Node000014" class="node">
<title>Node14</title>
<g id="a_Node000014"><a xlink:title=" ">
<polygon fill="#e0e0e0" stroke="#999999" points="625.5,-74 572.5,-74 572.5,-55 625.5,-55 625.5,-74"/>
<text text-anchor="middle" x="599" y="-62" font-family="Helvetica,sans-Serif" font-size="10.00">stdlib.h</text>
</a>
</g>
</g>
<!-- Node1&#45;&gt;Node14 -->
<g id="edge19_Node000001_Node000014" class="edge">
<title>Node1&#45;&gt;Node14</title>
<g id="a_edge19_Node000001_Node000014"><a xlink:title=" ">
<path fill="none" stroke="#63b8ff" d="M599,-109.84C599,-102.21 599,-92.7 599,-84.45"/>
<polygon fill="#63b8ff" stroke="#63b8ff" points="602.5,-84.27 599,-74.27 595.5,-84.27 602.5,-84.27"/>
</a>
</g>
</g>
<!-- Node15 -->
<g id="Node000015" class="node">
<title>Node15</title>
<g id="a_Node000015"><a xlink:title=" ">
<polygon fill="#e0e0e0" stroke="#999999" points="696.5,-74 643.5,-74 643.5,-55 696.5,-55 696.5,-74"/>
<text text-anchor="middle" x="670" y="-62" font-family="Helvetica,sans-Serif" font-size="10.00">string.h</text>
</a>
</g>
</g>
<!-- Node1&#45;&gt;Node15 -->
<g id="edge20_Node000001_Node000015" class="edge">
<title>Node1&#45;&gt;Node15</title>
<g id="a_edge20_Node000001_Node000015"><a xlink:title=" ">
<path fill="none" stroke="#63b8ff" d="M616.19,-109.84C626.81,-101.09 640.44,-89.85 651.33,-80.88"/>
<polygon fill="#63b8ff" stroke="#63b8ff" points="653.87,-83.33 659.36,-74.27 649.42,-77.92 653.87,-83.33"/>
</a>
</g>
</g>
<!-- Node16 -->
<g id="Node000016" class="node">
<title>Node16</title>
<g id="a_Node000016"><a xlink:title=" ">
<polygon fill="#e0e0e0" stroke="#999999" points="771,-74 715,-74 715,-55 771,-55 771,-74"/>
<text text-anchor="middle" x="743" y="-62" font-family="Helvetica,sans-Serif" font-size="10.00">unistd.h</text>
</a>
</g>
</g>
<!-- Node1&#45;&gt;Node16 -->
<g id="edge21_Node000001_Node000016" class="edge">
<title>Node1&#45;&gt;Node16</title>
<g id="a_edge21_Node000001_Node000016"><a xlink:title=" ">
<path fill="none" stroke="#63b8ff" d="M633.49,-109.99C657.52,-100.23 689.27,-87.33 712.4,-77.93"/>
<polygon fill="#63b8ff" stroke="#63b8ff" points="713.79,-81.15 721.73,-74.14 711.15,-74.66 713.79,-81.15"/>
</a>
</g>
</g>
<!-- Node17 -->
<g id="Node000017" class="node">
<title>Node17</title>
<g id="a_Node000017"><a xlink:title=" ">
<polygon fill="#e0e0e0" stroke="#999999" points="840.5,-74 789.5,-74 789.5,-55 840.5,-55 840.5,-74"/>
<text text-anchor="middle" x="815" y="-62" font-family="Helvetica,sans-Serif" font-size="10.00">errno.h</text>
</a>
</g>
</g>
<!-- Node1&#45;&gt;Node17 -->
<g id="edge22_Node000001_Node000017" class="edge">
<title>Node1&#45;&gt;Node17</title>
<g id="a_edge22_Node000001_Node000017"><a xlink:title=" ">
<path fill="none" stroke="#63b8ff" d="M649.64,-110.28C689.48,-99.5 743.98,-84.73 779.34,-75.16"/>
<polygon fill="#63b8ff" stroke="#63b8ff" points="780.48,-78.48 789.21,-72.48 778.65,-71.72 780.48,-78.48"/>
</a>
</g>
</g>
<!-- Node18 -->
<g id="Node000018" class="node">
<title>Node18</title>
<g id="a_Node000018"><a xlink:title=" ">
<polygon fill="#e0e0e0" stroke="#999999" points="901.5,-74 858.5,-74 858.5,-55 901.5,-55 901.5,-74"/>
<text text-anchor="middle" x="880" y="-62" font-family="Helvetica,sans-Serif" font-size="10.00">zlib.h</text>
</a>
</g>
</g>
<!-- Node1&#45;&gt;Node18 -->
<g id="edge23_Node000001_Node000018" class="edge">
<title>Node1&#45;&gt;Node18</title>
<g id="a_edge23_Node000001_Node000018"><a xlink:title=" ">
<path fill="none" stroke="#63b8ff" d="M649.74,-115.12C698.43,-106.32 774.24,-91.9 848.44,-74.23"/>
<polygon fill="#63b8ff" stroke="#63b8ff" points="849.52,-77.57 858.42,-71.83 847.88,-70.77 849.52,-77.57"/>
</a>
</g>
</g>
<!-- Node3 -->
<g id="Node000003" class="node">
<title>Node3</title>
<g id="a_Node000003"><a xlink:title=" ">
<polygon fill="#e0e0e0" stroke="#999999" points="127.5,-19 74.5,-19 74.5,0 127.5,0 127.5,-19"/>
<text text-anchor="middle" x="101" y="-7" font-family="Helvetica,sans-Serif" font-size="10.00">stdint.h</text>
</a>
</g>
</g>
<!-- Node2&#45;&gt;Node3 -->
<g id="edge2_Node000002_Node000003" class="edge">
<title>Node2&#45;&gt;Node3</title>
<g id="a_edge2_Node000002_Node000003"><a xlink:title=" ">
<path fill="none" stroke="#63b8ff" d="M223.54,-54.98C199.42,-46.23 161.63,-32.51 134.4,-22.62"/>
<polygon fill="#63b8ff" stroke="#63b8ff" points="135.48,-19.29 124.88,-19.17 133.09,-25.87 135.48,-19.29"/>
</a>
</g>
</g>
<!-- Node4 -->
<g id="Node000004" class="node">
<title>Node4</title>
<g id="a_Node000004"><a xlink:title=" ">
<polygon fill="#e0e0e0" stroke="#999999" points="218,-19 146,-19 146,0 218,0 218,-19"/>
<text text-anchor="middle" x="182" y="-7" font-family="Helvetica,sans-Serif" font-size="10.00">sys/types.h</text>
</a>
</g>
</g>
<!-- Node2&#45;&gt;Node4 -->
<g id="edge3_Node000002_Node000004" class="edge">
<title>Node2&#45;&gt;Node4</title>
<g id="a_edge3_Node000002_Node000004"><a xlink:title=" ">
<path fill="none" stroke="#63b8ff" d="M236.56,-54.98C226.85,-47.07 212.18,-35.11 200.5,-25.58"/>
<polygon fill="#63b8ff" stroke="#63b8ff" points="202.6,-22.78 192.63,-19.17 198.17,-28.2 202.6,-22.78"/>
</a>
</g>
</g>
<!-- Node5 -->
<g id="Node000005" class="node">
<title>Node5</title>
<g id="a_Node000005"><a xlink:title=" ">
<polygon fill="#e0e0e0" stroke="#999999" points="289.5,-19 236.5,-19 236.5,0 289.5,0 289.5,-19"/>
<text text-anchor="middle" x="263" y="-7" font-family="Helvetica,sans-Serif" font-size="10.00">limits.h</text>
</a>
</g>
</g>
<!-- Node2&#45;&gt;Node5 -->
<g id="edge4_Node000002_Node000005" class="edge">
<title>Node2&#45;&gt;Node5</title>
<g id="a_edge4_Node000002_Node000005"><a xlink:title=" ">
<path fill="none" stroke="#63b8ff" d="M249.64,-54.75C251.76,-47.72 254.81,-37.62 257.46,-28.84"/>
<polygon fill="#63b8ff" stroke="#63b8ff" points="260.87,-29.67 260.41,-19.09 254.17,-27.65 260.87,-29.67"/>
</a>
</g>
</g>
<!-- Node6&#45;&gt;Node3 -->
<g id="edge6_Node000006_Node000003" class="edge">
<title>Node6&#45;&gt;Node3</title>
<g id="a_edge6_Node000006_Node000003"><a xlink:title=" ">
<path fill="none" stroke="#63b8ff" d="M126.88,-54.75C122.64,-47.49 116.47,-36.95 111.22,-27.98"/>
<polygon fill="#63b8ff" stroke="#63b8ff" points="114.09,-25.95 106.02,-19.09 108.05,-29.49 114.09,-25.95"/>
</a>
</g>
</g>
<!-- Node6&#45;&gt;Node4 -->
<g id="edge8_Node000006_Node000004" class="edge">
<title>Node6&#45;&gt;Node4</title>
<g id="a_edge8_Node000006_Node000004"><a xlink:title=" ">
<path fill="none" stroke="#63b8ff" d="M140.26,-54.75C147.46,-47.11 158.11,-35.82 166.85,-26.56"/>
<polygon fill="#63b8ff" stroke="#63b8ff" points="169.58,-28.76 173.9,-19.09 164.49,-23.96 169.58,-28.76"/>
</a>
</g>
</g>
<!-- Node7 -->
<g id="Node000007" class="node">
<title>Node7</title>
<g id="a_Node000007"><a xlink:title=" ">
<polygon fill="#e0e0e0" stroke="#999999" points="56,-19 0,-19 0,0 56,0 56,-19"/>
<text text-anchor="middle" x="28" y="-7" font-family="Helvetica,sans-Serif" font-size="10.00">stddef.h</text>
</a>
</g>
</g>
<!-- Node6&#45;&gt;Node7 -->
<g id="edge7_Node000006_Node000007" class="edge">
<title>Node6&#45;&gt;Node7</title>
<g id="a_edge7_Node000006_Node000007"><a xlink:title=" ">
<path fill="none" stroke="#63b8ff" d="M115.29,-54.98C98.79,-46.57 73.3,-33.59 54.12,-23.81"/>
<polygon fill="#63b8ff" stroke="#63b8ff" points="55.51,-20.59 45.01,-19.17 52.33,-26.83 55.51,-20.59"/>
</a>
</g>
</g>
<!-- Node8&#45;&gt;Node3 -->
<g id="edge12_Node000008_Node000003" class="edge">
<title>Node8&#45;&gt;Node3</title>
<g id="a_edge12_Node000008_Node000003"><a xlink:title=" ">
<path fill="none" stroke="#63b8ff" d="M311.07,-54.94C269.05,-46.66 203.66,-33.54 137.48,-19.05"/>
<polygon fill="#63b8ff" stroke="#63b8ff" points="138.23,-15.63 127.72,-16.9 136.73,-22.47 138.23,-15.63"/>
</a>
</g>
</g>
<!-- Node8&#45;&gt;Node4 -->
<g id="edge14_Node000008_Node000004" class="edge">
<title>Node8&#45;&gt;Node4</title>
<g id="a_edge14_Node000008_Node000004"><a xlink:title=" ">
<path fill="none" stroke="#63b8ff" d="M327.2,-54.98C298.03,-46.05 252,-31.94 219.6,-22.02"/>
<polygon fill="#63b8ff" stroke="#63b8ff" points="220.6,-18.66 210.01,-19.08 218.55,-25.36 220.6,-18.66"/>
</a>
</g>
</g>
<!-- Node9 -->
<g id="Node000009" class="node">
<title>Node9</title>
<g id="a_Node000009"><a xlink:title=" ">
<polygon fill="#e0e0e0" stroke="#999999" points="546,-19 468,-19 468,0 546,0 546,-19"/>
<text text-anchor="middle" x="507" y="-7" font-family="Helvetica,sans-Serif" font-size="10.00">ngx_config.h</text>
</a>
</g>
</g>
<!-- Node8&#45;&gt;Node9 -->
<g id="edge10_Node000008_Node000009" class="edge">
<title>Node8&#45;&gt;Node9</title>
<g id="a_edge10_Node000008_Node000009"><a xlink:title=" ">
<path fill="none" stroke="#63b8ff" d="M379.42,-54.98C404.72,-46.16 444.45,-32.31 472.86,-22.41"/>
<polygon fill="#63b8ff" stroke="#63b8ff" points="474.1,-25.68 482.39,-19.08 471.79,-19.07 474.1,-25.68"/>
</a>
</g>
</g>
<!-- Node10 -->
<g id="Node000010" class="node">
<title>Node10</title>
<g id="a_Node000010"><a xlink:title=" ">
<polygon fill="#e0e0e0" stroke="#999999" points="634,-19 564,-19 564,0 634,0 634,-19"/>
<text text-anchor="middle" x="599" y="-7" font-family="Helvetica,sans-Serif" font-size="10.00">ngx_core.h</text>
</a>
</g>
</g>
<!-- Node8&#45;&gt;Node10 -->
<g id="edge11_Node000008_Node000010" class="edge">
<title>Node8&#45;&gt;Node10</title>
<g id="a_edge11_Node000008_Node000010"><a xlink:title=" ">
<path fill="none" stroke="#63b8ff" d="M394.2,-54.98C437.79,-45.52 508.06,-30.25 553.9,-20.3"/>
<polygon fill="#63b8ff" stroke="#63b8ff" points="554.82,-23.68 563.85,-18.13 553.34,-16.84 554.82,-23.68"/>
</a>
</g>
</g>
<!-- Node11 -->
<g id="Node000011" class="node">
<title>Node11</title>
<g id="a_Node000011"><a xlink:title=" ">
<polygon fill="#e0e0e0" stroke="#999999" points="372,-19 308,-19 308,0 372,0 372,-19"/>
<text text-anchor="middle" x="340" y="-7" font-family="Helvetica,sans-Serif" font-size="10.00">sys/stat.h</text>
</a>
</g>
</g>
<!-- Node8&#45;&gt;Node11 -->
<g id="edge13_Node000008_Node000011" class="edge">
<title>Node8&#45;&gt;Node11</title>
<g id="a_edge13_Node000008_Node000011"><a xlink:title=" ">
<path fill="none" stroke="#63b8ff" d="M352.52,-54.75C350.54,-47.72 347.68,-37.62 345.19,-28.84"/>
<polygon fill="#63b8ff" stroke="#63b8ff" points="348.52,-27.76 342.43,-19.09 341.79,-29.66 348.52,-27.76"/>
</a>
</g>
</g>
<!-- Node12 -->
<g id="Node000012" class="node">
<title>Node12</title>
<g id="a_Node000012"><a xlink:title=" ">
<polygon fill="#e0e0e0" stroke="#999999" points="450,-19 390,-19 390,0 450,0 450,-19"/>
<text text-anchor="middle" x="420" y="-7" font-family="Helvetica,sans-Serif" font-size="10.00">sys/uio.h</text>
</a>
</g>
</g>
<!-- Node8&#45;&gt;Node12 -->
<g id="edge15_Node000008_Node000012" class="edge">
<title>Node8&#45;&gt;Node12</title>
<g id="a_edge15_Node000008_Node000012"><a xlink:title=" ">
<path fill="none" stroke="#63b8ff" d="M365.44,-54.98C375.15,-47.07 389.82,-35.11 401.5,-25.58"/>
<polygon fill="#63b8ff" stroke="#63b8ff" points="403.83,-28.2 409.37,-19.17 399.4,-22.78 403.83,-28.2"/>
</a>
</g>
</g>
<!-- Node13&#45;&gt;Node9 -->
<g id="edge17_Node000013_Node000009" class="edge">
<title>Node13&#45;&gt;Node9</title>
<g id="a_edge17_Node000013_Node000009"><a xlink:title=" ">
<path fill="none" stroke="#63b8ff" d="M490.3,-54.75C492.98,-47.65 496.85,-37.4 500.19,-28.56"/>
<polygon fill="#63b8ff" stroke="#63b8ff" points="503.5,-29.68 503.76,-19.09 496.95,-27.21 503.5,-29.68"/>
</a>
</g>
</g>
<!-- Node13&#45;&gt;Node10 -->
<g id="edge18_Node000013_Node000010" class="edge">
<title>Node13&#45;&gt;Node10</title>
<g id="a_edge18_Node000013_Node000010"><a xlink:title=" ">
<path fill="none" stroke="#63b8ff" d="M504.99,-54.98C522.93,-46.5 550.72,-33.35 571.43,-23.54"/>
<polygon fill="#63b8ff" stroke="#63b8ff" points="573.14,-26.61 580.68,-19.17 570.14,-20.28 573.14,-26.61"/>
</a>
</g>
</g>
</g>
</svg>
