<?xml version="1.0" encoding="UTF-8" standalone="no"?>
<!DOCTYPE svg PUBLIC "-//W3C//DTD SVG 1.1//EN"
 "http://www.w3.org/Graphics/SVG/1.1/DTD/svg11.dtd">
<!-- Generated by graphviz version 2.43.0 (0)
 -->
<!-- Title: src/protocols/root/zip/zip_member.h Pages: 1 -->
<svg width="1100pt" height="115pt"
 viewBox="0.00 0.00 1099.50 115.00" xmlns="http://www.w3.org/2000/svg" xmlns:xlink="http://www.w3.org/1999/xlink">
<g id="graph0" class="graph" transform="scale(1 1) rotate(0) translate(4 111)">
<title>src/protocols/root/zip/zip_member.h</title>
<!-- Node1 -->
<g id="Node000001" class="node">
<title>Node1</title>
<g id="a_Node000001"><a xlink:title=" ">
<polygon fill="#999999" stroke="#666666" points="621,-107 515,-107 515,-77 621,-77 621,-107"/>
<text text-anchor="start" x="523" y="-95" font-family="Helvetica,sans-Serif" font-size="10.00">src/protocols/root</text>
<text text-anchor="middle" x="568" y="-84" font-family="Helvetica,sans-Serif" font-size="10.00">/zip/zip_member.h</text>
</a>
</g>
</g>
<!-- Node2 -->
<g id="Node000002" class="node">
<title>Node2</title>
<g id="a_Node000002"><a xlink:href="fd__table_8c.html" target="_top" xlink:title=" ">
<polygon fill="white" stroke="#666666" points="124,-35.5 0,-35.5 0,-5.5 124,-5.5 124,-35.5"/>
<text text-anchor="start" x="8" y="-23.5" font-family="Helvetica,sans-Serif" font-size="10.00">src/protocols/root</text>
<text text-anchor="middle" x="62" y="-12.5" font-family="Helvetica,sans-Serif" font-size="10.00">/connection/fd_table.c</text>
</a>
</g>
</g>
<!-- Node1&#45;&gt;Node2 -->
<g id="edge1_Node000001_Node000002" class="edge">
<title>Node1&#45;&gt;Node2</title>
<g id="a_edge1_Node000001_Node000002"><a xlink:title=" ">
<path fill="none" stroke="#63b8ff" d="M504.68,-86.79C419.58,-80.43 263.88,-66.34 133,-41 125.22,-39.49 117.04,-37.57 109.12,-35.53"/>
<polygon fill="#63b8ff" stroke="#63b8ff" points="504.47,-90.28 514.7,-87.52 504.98,-83.3 504.47,-90.28"/>
</a>
</g>
</g>
<!-- Node3 -->
<g id="Node000003" class="node">
<title>Node3</title>
<g id="a_Node000003"><a xlink:href="fd__table__teardown_8c.html" target="_top" xlink:title=" ">
<polygon fill="white" stroke="#666666" points="258,-41 142,-41 142,0 258,0 258,-41"/>
<text text-anchor="start" x="150" y="-29" font-family="Helvetica,sans-Serif" font-size="10.00">src/protocols/root</text>
<text text-anchor="start" x="150" y="-18" font-family="Helvetica,sans-Serif" font-size="10.00">/connection/fd_table</text>
<text text-anchor="middle" x="200" y="-7" font-family="Helvetica,sans-Serif" font-size="10.00">_teardown.c</text>
</a>
</g>
</g>
<!-- Node1&#45;&gt;Node3 -->
<g id="edge2_Node000001_Node000003" class="edge">
<title>Node1&#45;&gt;Node3</title>
<g id="a_edge2_Node000001_Node000003"><a xlink:title=" ">
<path fill="none" stroke="#63b8ff" d="M504.61,-82.7C443.41,-74.16 348.3,-59.51 267,-41 264.17,-40.35 261.27,-39.66 258.36,-38.93"/>
<polygon fill="#63b8ff" stroke="#63b8ff" points="504.5,-86.22 514.89,-84.12 505.46,-79.28 504.5,-86.22"/>
</a>
</g>
</g>
<!-- Node4 -->
<g id="Node000004" class="node">
<title>Node4</title>
<g id="a_Node000004"><a xlink:href="open__request_8c.html" target="_top" xlink:title=" ">
<polygon fill="white" stroke="#666666" points="395.5,-35.5 276.5,-35.5 276.5,-5.5 395.5,-5.5 395.5,-35.5"/>
<text text-anchor="start" x="284.5" y="-23.5" font-family="Helvetica,sans-Serif" font-size="10.00">src/protocols/root</text>
<text text-anchor="middle" x="336" y="-12.5" font-family="Helvetica,sans-Serif" font-size="10.00">/read/open_request.c</text>
</a>
</g>
</g>
<!-- Node1&#45;&gt;Node4 -->
<g id="edge3_Node000001_Node000004" class="edge">
<title>Node1&#45;&gt;Node4</title>
<g id="a_edge3_Node000001_Node000004"><a xlink:title=" ">
<path fill="none" stroke="#63b8ff" d="M511.31,-74.02C471.89,-62.21 419.97,-46.65 382.88,-35.54"/>
<polygon fill="#63b8ff" stroke="#63b8ff" points="510.47,-77.42 521.05,-76.94 512.48,-70.71 510.47,-77.42"/>
</a>
</g>
</g>
<!-- Node5 -->
<g id="Node000005" class="node">
<title>Node5</title>
<g id="a_Node000005"><a xlink:href="open__request__resolve_8c.html" target="_top" xlink:title=" ">
<polygon fill="white" stroke="#666666" points="574,-35.5 414,-35.5 414,-5.5 574,-5.5 574,-35.5"/>
<text text-anchor="start" x="422" y="-23.5" font-family="Helvetica,sans-Serif" font-size="10.00">src/protocols/root</text>
<text text-anchor="middle" x="494" y="-12.5" font-family="Helvetica,sans-Serif" font-size="10.00">/read/open_request_resolve.c</text>
</a>
</g>
</g>
<!-- Node1&#45;&gt;Node5 -->
<g id="edge4_Node000001_Node000005" class="edge">
<title>Node1&#45;&gt;Node5</title>
<g id="a_edge4_Node000001_Node000005"><a xlink:title=" ">
<path fill="none" stroke="#63b8ff" d="M545.63,-69.99C533.75,-58.84 519.48,-45.43 508.95,-35.54"/>
<polygon fill="#63b8ff" stroke="#63b8ff" points="543.34,-72.64 553.02,-76.94 548.13,-67.54 543.34,-72.64"/>
</a>
</g>
</g>
<!-- Node6 -->
<g id="Node000006" class="node">
<title>Node6</title>
<g id="a_Node000006"><a xlink:href="read_8c.html" target="_top" xlink:title=" ">
<polygon fill="white" stroke="#666666" points="693.5,-35.5 592.5,-35.5 592.5,-5.5 693.5,-5.5 693.5,-35.5"/>
<text text-anchor="start" x="600.5" y="-23.5" font-family="Helvetica,sans-Serif" font-size="10.00">src/protocols/root</text>
<text text-anchor="middle" x="643" y="-12.5" font-family="Helvetica,sans-Serif" font-size="10.00">/read/read.c</text>
</a>
</g>
</g>
<!-- Node1&#45;&gt;Node6 -->
<g id="edge5_Node000001_Node000006" class="edge">
<title>Node1&#45;&gt;Node6</title>
<g id="a_edge5_Node000001_Node000006"><a xlink:title=" ">
<path fill="none" stroke="#63b8ff" d="M590.67,-69.99C602.71,-58.84 617.18,-45.43 627.85,-35.54"/>
<polygon fill="#63b8ff" stroke="#63b8ff" points="588.13,-67.57 583.18,-76.94 592.89,-72.71 588.13,-67.57"/>
</a>
</g>
</g>
<!-- Node7 -->
<g id="Node000007" class="node">
<title>Node7</title>
<g id="a_Node000007"><a xlink:href="read__buffered_8c.html" target="_top" xlink:title=" ">
<polygon fill="white" stroke="#666666" points="832,-35.5 712,-35.5 712,-5.5 832,-5.5 832,-35.5"/>
<text text-anchor="start" x="720" y="-23.5" font-family="Helvetica,sans-Serif" font-size="10.00">src/protocols/root</text>
<text text-anchor="middle" x="772" y="-12.5" font-family="Helvetica,sans-Serif" font-size="10.00">/read/read_buffered.c</text>
</a>
</g>
</g>
<!-- Node1&#45;&gt;Node7 -->
<g id="edge6_Node000001_Node000007" class="edge">
<title>Node1&#45;&gt;Node7</title>
<g id="a_edge6_Node000001_Node000007"><a xlink:title=" ">
<path fill="none" stroke="#63b8ff" d="M619.17,-73.57C653.67,-61.81 698.58,-46.51 730.78,-35.54"/>
<polygon fill="#63b8ff" stroke="#63b8ff" points="617.62,-70.4 609.28,-76.94 619.88,-77.02 617.62,-70.4"/>
</a>
</g>
</g>
<!-- Node8 -->
<g id="Node000008" class="node">
<title>Node8</title>
<g id="a_Node000008"><a xlink:href="read__sendfile_8c.html" target="_top" xlink:title=" ">
<polygon fill="white" stroke="#666666" points="968,-35.5 850,-35.5 850,-5.5 968,-5.5 968,-35.5"/>
<text text-anchor="start" x="858" y="-23.5" font-family="Helvetica,sans-Serif" font-size="10.00">src/protocols/root</text>
<text text-anchor="middle" x="909" y="-12.5" font-family="Helvetica,sans-Serif" font-size="10.00">/read/read_sendfile.c</text>
</a>
</g>
</g>
<!-- Node1&#45;&gt;Node8 -->
<g id="edge7_Node000001_Node000008" class="edge">
<title>Node1&#45;&gt;Node8</title>
<g id="a_edge7_Node000001_Node000008"><a xlink:title=" ">
<path fill="none" stroke="#63b8ff" d="M631.21,-81.23C686.78,-72.21 769.67,-57.72 841,-41 847.94,-39.37 855.22,-37.48 862.34,-35.53"/>
<polygon fill="#63b8ff" stroke="#63b8ff" points="630.48,-77.8 621.16,-82.85 631.59,-84.71 630.48,-77.8"/>
</a>
</g>
</g>
<!-- Node9 -->
<g id="Node000009" class="node">
<title>Node9</title>
<g id="a_Node000009"><a xlink:href="zip__member_8c.html" target="_top" xlink:title=" ">
<polygon fill="white" stroke="#666666" points="1091.5,-35.5 986.5,-35.5 986.5,-5.5 1091.5,-5.5 1091.5,-35.5"/>
<text text-anchor="start" x="994.5" y="-23.5" font-family="Helvetica,sans-Serif" font-size="10.00">src/protocols/root</text>
<text text-anchor="middle" x="1039" y="-12.5" font-family="Helvetica,sans-Serif" font-size="10.00">/zip/zip_member.c</text>
</a>
</g>
</g>
<!-- Node1&#45;&gt;Node9 -->
<g id="edge8_Node000001_Node000009" class="edge">
<title>Node1&#45;&gt;Node9</title>
<g id="a_edge8_Node000001_Node000009"><a xlink:title=" ">
<path fill="none" stroke="#63b8ff" d="M631.16,-86.88C712.02,-80.79 856.15,-67.16 977,-41 983.84,-39.52 991,-37.61 997.93,-35.57"/>
<polygon fill="#63b8ff" stroke="#63b8ff" points="630.85,-83.4 621.14,-87.62 631.37,-90.38 630.85,-83.4"/>
</a>
</g>
</g>
</g>
</svg>
