<?xml version="1.0" encoding="UTF-8" standalone="no"?>
<!DOCTYPE svg PUBLIC "-//W3C//DTD SVG 1.1//EN"
 "http://www.w3.org/Graphics/SVG/1.1/DTD/svg11.dtd">
<!-- Generated by graphviz version 2.43.0 (0)
 -->
<!-- Title: client/lib/protocols/shared/zip.h Pages: 1 -->
<svg width="1249pt" height="170pt"
 viewBox="0.00 0.00 1249.00 170.00" xmlns="http://www.w3.org/2000/svg" xmlns:xlink="http://www.w3.org/1999/xlink">
<g id="graph0" class="graph" transform="scale(1 1) rotate(0) translate(4 166)">
<title>client/lib/protocols/shared/zip.h</title>
<!-- Node1 -->
<g id="Node000001" class="node">
<title>Node1</title>
<g id="a_Node000001"><a xlink:title=" ">
<polygon fill="#999999" stroke="#666666" points="487,-162 380,-162 380,-132 487,-132 487,-162"/>
<text text-anchor="start" x="388" y="-150" font-family="Helvetica,sans-Serif" font-size="10.00">client/lib/protocols</text>
<text text-anchor="middle" x="433.5" y="-139" font-family="Helvetica,sans-Serif" font-size="10.00">/shared/zip.h</text>
</a>
</g>
</g>
<!-- Node2 -->
<g id="Node000002" class="node">
<title>Node2</title>
<g id="a_Node000002"><a xlink:href="zip__internal_8h.html" target="_top" xlink:title=" ">
<polygon fill="white" stroke="#666666" points="240.5,-96 118.5,-96 118.5,-66 240.5,-66 240.5,-96"/>
<text text-anchor="start" x="126.5" y="-84" font-family="Helvetica,sans-Serif" font-size="10.00">client/lib/protocols</text>
<text text-anchor="middle" x="179.5" y="-73" font-family="Helvetica,sans-Serif" font-size="10.00">/shared/zip_internal.h</text>
</a>
</g>
</g>
<!-- Node1&#45;&gt;Node2 -->
<g id="edge1_Node000001_Node000002" class="edge">
<title>Node1&#45;&gt;Node2</title>
<g id="a_edge1_Node000001_Node000002"><a xlink:title=" ">
<path fill="none" stroke="#63b8ff" d="M370.22,-130.05C328.74,-119.6 275.03,-106.07 235.18,-96.03"/>
<polygon fill="#63b8ff" stroke="#63b8ff" points="369.39,-133.46 379.94,-132.51 371.1,-126.67 369.39,-133.46"/>
</a>
</g>
</g>
<!-- Node5 -->
<g id="Node000005" class="node">
<title>Node5</title>
<g id="a_Node000005"><a xlink:href="copy__internal_8h.html" target="_top" xlink:title=" ">
<polygon fill="white" stroke="#666666" points="741,-96 634,-96 634,-66 741,-66 741,-96"/>
<text text-anchor="start" x="642" y="-84" font-family="Helvetica,sans-Serif" font-size="10.00">client/lib/xfer/copy</text>
<text text-anchor="middle" x="687.5" y="-73" font-family="Helvetica,sans-Serif" font-size="10.00">_internal.h</text>
</a>
</g>
</g>
<!-- Node1&#45;&gt;Node5 -->
<g id="edge4_Node000001_Node000005" class="edge">
<title>Node1&#45;&gt;Node5</title>
<g id="a_edge4_Node000001_Node000005"><a xlink:title=" ">
<path fill="none" stroke="#63b8ff" d="M496.92,-130.02C538.99,-119.42 593.61,-105.66 633.58,-95.59"/>
<polygon fill="#63b8ff" stroke="#63b8ff" points="495.9,-126.67 487.06,-132.51 497.61,-133.46 495.9,-126.67"/>
</a>
</g>
</g>
<!-- Node3 -->
<g id="Node000003" class="node">
<title>Node3</title>
<g id="a_Node000003"><a xlink:href="zip_8c.html" target="_top" xlink:title=" ">
<polygon fill="white" stroke="#666666" points="107,-30 0,-30 0,0 107,0 107,-30"/>
<text text-anchor="start" x="8" y="-18" font-family="Helvetica,sans-Serif" font-size="10.00">client/lib/protocols</text>
<text text-anchor="middle" x="53.5" y="-7" font-family="Helvetica,sans-Serif" font-size="10.00">/shared/zip.c</text>
</a>
</g>
</g>
<!-- Node2&#45;&gt;Node3 -->
<g id="edge2_Node000002_Node000003" class="edge">
<title>Node2&#45;&gt;Node3</title>
<g id="a_edge2_Node000002_Node000003"><a xlink:title=" ">
<path fill="none" stroke="#63b8ff" d="M142.84,-61.38C123.12,-51.36 99.21,-39.22 81.09,-30.01"/>
<polygon fill="#63b8ff" stroke="#63b8ff" points="141.35,-64.55 151.85,-65.95 144.52,-58.31 141.35,-64.55"/>
</a>
</g>
</g>
<!-- Node4 -->
<g id="Node000004" class="node">
<title>Node4</title>
<g id="a_Node000004"><a xlink:href="zip__write_8c.html" target="_top" xlink:title=" ">
<polygon fill="white" stroke="#666666" points="233.5,-30 125.5,-30 125.5,0 233.5,0 233.5,-30"/>
<text text-anchor="start" x="133.5" y="-18" font-family="Helvetica,sans-Serif" font-size="10.00">client/lib/protocols</text>
<text text-anchor="middle" x="179.5" y="-7" font-family="Helvetica,sans-Serif" font-size="10.00">/shared/zip_write.c</text>
</a>
</g>
</g>
<!-- Node2&#45;&gt;Node4 -->
<g id="edge3_Node000002_Node000004" class="edge">
<title>Node2&#45;&gt;Node4</title>
<g id="a_edge3_Node000002_Node000004"><a xlink:title=" ">
<path fill="none" stroke="#63b8ff" d="M179.5,-55.54C179.5,-46.96 179.5,-37.61 179.5,-30.16"/>
<polygon fill="#63b8ff" stroke="#63b8ff" points="176,-55.8 179.5,-65.8 183,-55.8 176,-55.8"/>
</a>
</g>
</g>
<!-- Node6 -->
<g id="Node000006" class="node">
<title>Node6</title>
<g id="a_Node000006"><a xlink:href="client_2lib_2xfer_2copy_8c.html" target="_top" xlink:title=" ">
<polygon fill="white" stroke="#666666" points="365.5,-24.5 251.5,-24.5 251.5,-5.5 365.5,-5.5 365.5,-24.5"/>
<text text-anchor="middle" x="308.5" y="-12.5" font-family="Helvetica,sans-Serif" font-size="10.00">client/lib/xfer/copy.c</text>
</a>
</g>
</g>
<!-- Node5&#45;&gt;Node6 -->
<g id="edge5_Node000005_Node000006" class="edge">
<title>Node5&#45;&gt;Node6</title>
<g id="a_edge5_Node000005_Node000006"><a xlink:title=" ">
<path fill="none" stroke="#63b8ff" d="M623.68,-70.77C560.31,-61.38 460.47,-45.97 374.5,-30 365.63,-28.35 356.13,-26.43 347.17,-24.55"/>
<polygon fill="#63b8ff" stroke="#63b8ff" points="623.51,-74.28 633.91,-72.28 624.53,-67.36 623.51,-74.28"/>
</a>
</g>
</g>
<!-- Node7 -->
<g id="Node000007" class="node">
<title>Node7</title>
<g id="a_Node000007"><a xlink:href="copy__block_8c.html" target="_top" xlink:title=" ">
<polygon fill="white" stroke="#666666" points="491,-30 384,-30 384,0 491,0 491,-30"/>
<text text-anchor="start" x="392" y="-18" font-family="Helvetica,sans-Serif" font-size="10.00">client/lib/xfer/copy</text>
<text text-anchor="middle" x="437.5" y="-7" font-family="Helvetica,sans-Serif" font-size="10.00">_block.c</text>
</a>
</g>
</g>
<!-- Node5&#45;&gt;Node7 -->
<g id="edge6_Node000005_Node000007" class="edge">
<title>Node5&#45;&gt;Node7</title>
<g id="a_edge6_Node000005_Node000007"><a xlink:title=" ">
<path fill="none" stroke="#63b8ff" d="M623.96,-63.73C582.87,-53.22 529.99,-39.68 491.04,-29.71"/>
<polygon fill="#63b8ff" stroke="#63b8ff" points="623.31,-67.18 633.87,-66.27 625.05,-60.4 623.31,-67.18"/>
</a>
</g>
</g>
<!-- Node8 -->
<g id="Node000008" class="node">
<title>Node8</title>
<g id="a_Node000008"><a xlink:href="copy__filter_8c.html" target="_top" xlink:title=" ">
<polygon fill="white" stroke="#666666" points="616,-30 509,-30 509,0 616,0 616,-30"/>
<text text-anchor="start" x="517" y="-18" font-family="Helvetica,sans-Serif" font-size="10.00">client/lib/xfer/copy</text>
<text text-anchor="middle" x="562.5" y="-7" font-family="Helvetica,sans-Serif" font-size="10.00">_filter.c</text>
</a>
</g>
</g>
<!-- Node5&#45;&gt;Node8 -->
<g id="edge7_Node000005_Node000008" class="edge">
<title>Node5&#45;&gt;Node8</title>
<g id="a_edge7_Node000005_Node000008"><a xlink:title=" ">
<path fill="none" stroke="#63b8ff" d="M651.13,-61.38C631.57,-51.36 607.85,-39.22 589.87,-30.01"/>
<polygon fill="#63b8ff" stroke="#63b8ff" points="649.57,-64.51 660.07,-65.95 652.76,-58.28 649.57,-64.51"/>
</a>
</g>
</g>
<!-- Node9 -->
<g id="Node000009" class="node">
<title>Node9</title>
<g id="a_Node000009"><a xlink:href="copy__local_8c.html" target="_top" xlink:title=" ">
<polygon fill="white" stroke="#666666" points="741,-30 634,-30 634,0 741,0 741,-30"/>
<text text-anchor="start" x="642" y="-18" font-family="Helvetica,sans-Serif" font-size="10.00">client/lib/xfer/copy</text>
<text text-anchor="middle" x="687.5" y="-7" font-family="Helvetica,sans-Serif" font-size="10.00">_local.c</text>
</a>
</g>
</g>
<!-- Node5&#45;&gt;Node9 -->
<g id="edge8_Node000005_Node000009" class="edge">
<title>Node5&#45;&gt;Node9</title>
<g id="a_edge8_Node000005_Node000009"><a xlink:title=" ">
<path fill="none" stroke="#63b8ff" d="M687.5,-55.54C687.5,-46.96 687.5,-37.61 687.5,-30.16"/>
<polygon fill="#63b8ff" stroke="#63b8ff" points="684,-55.8 687.5,-65.8 691,-55.8 684,-55.8"/>
</a>
</g>
</g>
<!-- Node10 -->
<g id="Node000010" class="node">
<title>Node10</title>
<g id="a_Node000010"><a xlink:href="copy__pump_8c.html" target="_top" xlink:title=" ">
<polygon fill="white" stroke="#666666" points="866,-30 759,-30 759,0 866,0 866,-30"/>
<text text-anchor="start" x="767" y="-18" font-family="Helvetica,sans-Serif" font-size="10.00">client/lib/xfer/copy</text>
<text text-anchor="middle" x="812.5" y="-7" font-family="Helvetica,sans-Serif" font-size="10.00">_pump.c</text>
</a>
</g>
</g>
<!-- Node5&#45;&gt;Node10 -->
<g id="edge9_Node000005_Node000010" class="edge">
<title>Node5&#45;&gt;Node10</title>
<g id="a_edge9_Node000005_Node000010"><a xlink:title=" ">
<path fill="none" stroke="#63b8ff" d="M723.87,-61.38C743.43,-51.36 767.15,-39.22 785.13,-30.01"/>
<polygon fill="#63b8ff" stroke="#63b8ff" points="722.24,-58.28 714.93,-65.95 725.43,-64.51 722.24,-58.28"/>
</a>
</g>
</g>
<!-- Node11 -->
<g id="Node000011" class="node">
<title>Node11</title>
<g id="a_Node000011"><a xlink:href="copy__recursive_8c.html" target="_top" xlink:title=" ">
<polygon fill="white" stroke="#666666" points="991,-30 884,-30 884,0 991,0 991,-30"/>
<text text-anchor="start" x="892" y="-18" font-family="Helvetica,sans-Serif" font-size="10.00">client/lib/xfer/copy</text>
<text text-anchor="middle" x="937.5" y="-7" font-family="Helvetica,sans-Serif" font-size="10.00">_recursive.c</text>
</a>
</g>
</g>
<!-- Node5&#45;&gt;Node11 -->
<g id="edge10_Node000005_Node000011" class="edge">
<title>Node5&#45;&gt;Node11</title>
<g id="a_edge10_Node000005_Node000011"><a xlink:title=" ">
<path fill="none" stroke="#63b8ff" d="M751.04,-63.73C792.13,-53.22 845.01,-39.68 883.96,-29.71"/>
<polygon fill="#63b8ff" stroke="#63b8ff" points="749.95,-60.4 741.13,-66.27 751.69,-67.18 749.95,-60.4"/>
</a>
</g>
</g>
<!-- Node12 -->
<g id="Node000012" class="node">
<title>Node12</title>
<g id="a_Node000012"><a xlink:href="copy__remote_8c.html" target="_top" xlink:title=" ">
<polygon fill="white" stroke="#666666" points="1116,-30 1009,-30 1009,0 1116,0 1116,-30"/>
<text text-anchor="start" x="1017" y="-18" font-family="Helvetica,sans-Serif" font-size="10.00">client/lib/xfer/copy</text>
<text text-anchor="middle" x="1062.5" y="-7" font-family="Helvetica,sans-Serif" font-size="10.00">_remote.c</text>
</a>
</g>
</g>
<!-- Node5&#45;&gt;Node12 -->
<g id="edge11_Node000005_Node000012" class="edge">
<title>Node5&#45;&gt;Node12</title>
<g id="a_edge11_Node000005_Node000012"><a xlink:title=" ">
<path fill="none" stroke="#63b8ff" d="M751.37,-71.01C814.77,-61.81 914.63,-46.54 1000.5,-30 1003.21,-29.48 1005.98,-28.93 1008.78,-28.35"/>
<polygon fill="#63b8ff" stroke="#63b8ff" points="750.52,-67.6 741.13,-72.49 751.52,-74.53 750.52,-67.6"/>
</a>
</g>
</g>
<!-- Node13 -->
<g id="Node000013" class="node">
<title>Node13</title>
<g id="a_Node000013"><a xlink:href="copy__zip_8c.html" target="_top" xlink:title=" ">
<polygon fill="white" stroke="#666666" points="1241,-30 1134,-30 1134,0 1241,0 1241,-30"/>
<text text-anchor="start" x="1142" y="-18" font-family="Helvetica,sans-Serif" font-size="10.00">client/lib/xfer/copy</text>
<text text-anchor="middle" x="1187.5" y="-7" font-family="Helvetica,sans-Serif" font-size="10.00">_zip.c</text>
</a>
</g>
</g>
<!-- Node5&#45;&gt;Node13 -->
<g id="edge12_Node000005_Node000013" class="edge">
<title>Node5&#45;&gt;Node13</title>
<g id="a_edge12_Node000005_Node000013"><a xlink:title=" ">
<path fill="none" stroke="#63b8ff" d="M751.1,-74.92C836.59,-67.59 993.17,-52.43 1125.5,-30 1128.22,-29.54 1131,-29.03 1133.8,-28.5"/>
<polygon fill="#63b8ff" stroke="#63b8ff" points="750.7,-71.44 741.03,-75.77 751.29,-78.41 750.7,-71.44"/>
</a>
</g>
</g>
</g>
</svg>
